<?xml version="1.0" encoding="UTF-8" standalone="no"?>
<!DOCTYPE svg PUBLIC "-//W3C//DTD SVG 1.1//EN"
 "http://www.w3.org/Graphics/SVG/1.1/DTD/svg11.dtd">
<!-- Generated by graphviz version 2.40.1 (20161225.0304)
 -->
<!-- Title: GluonicLQCD/actions/action.h Pages: 1 -->
<svg width="712pt" height="312pt"
 viewBox="0.00 0.00 712.40 312.00" xmlns="http://www.w3.org/2000/svg" xmlns:xlink="http://www.w3.org/1999/xlink">
<g id="graph0" class="graph" transform="scale(1 1) rotate(0) translate(4 308)">
<title>GluonicLQCD/actions/action.h</title>
<polygon fill="#ffffff" stroke="transparent" points="-4,4 -4,-308 708.3979,-308 708.3979,4 -4,4"/>
<!-- Node0 -->
<g id="node1" class="node">
<title>Node0</title>
<g id="a_node1"><a xlink:title=" ">
<polygon fill="#bfbfbf" stroke="#000000" points="28.8095,-275.5 28.8095,-303.5 140.9618,-303.5 140.9618,-275.5 28.8095,-275.5"/>
<text text-anchor="start" x="36.8095" y="-291.5" font-family="Helvetica,sans-Serif" font-size="10.00" fill="#000000">GluonicLQCD/actions</text>
<text text-anchor="middle" x="84.8857" y="-281.5" font-family="Helvetica,sans-Serif" font-size="10.00" fill="#000000">/action.h</text>
</a>
</g>
</g>
<!-- Node1 -->
<g id="node2" class="node">
<title>Node1</title>
<g id="a_node2"><a xlink:href="lattice_8h.html" target="_top" xlink:title=" ">
<polygon fill="#ffffff" stroke="#000000" points="180.1493,-220.5 180.1493,-238.5 255.622,-238.5 255.622,-220.5 180.1493,-220.5"/>
<text text-anchor="middle" x="217.8857" y="-226.5" font-family="Helvetica,sans-Serif" font-size="10.00" fill="#000000">math/lattice.h</text>
</a>
</g>
</g>
<!-- Node0&#45;&gt;Node1 -->
<g id="edge1" class="edge">
<title>Node0&#45;&gt;Node1</title>
<path fill="none" stroke="#191970" d="M116.0682,-275.4327C137.907,-265.5806 166.9047,-252.4989 188.3671,-242.8167"/>
<polygon fill="#191970" stroke="#191970" points="189.9691,-245.9337 197.6451,-238.6311 187.0905,-239.5529 189.9691,-245.9337"/>
</g>
<!-- Node2 -->
<g id="node3" class="node">
<title>Node2</title>
<g id="a_node3"><a xlink:title=" ">
<polygon fill="#ffffff" stroke="#bfbfbf" points="11.2699,-110.5 11.2699,-128.5 54.5014,-128.5 54.5014,-110.5 11.2699,-110.5"/>
<text text-anchor="middle" x="32.8857" y="-116.5" font-family="Helvetica,sans-Serif" font-size="10.00" fill="#000000">vector</text>
</a>
</g>
</g>
<!-- Node0&#45;&gt;Node2 -->
<g id="edge18" class="edge">
<title>Node0&#45;&gt;Node2</title>
<path fill="none" stroke="#191970" d="M68.5284,-275.4359C48.3432,-256.8843 15.076,-222.0986 1.8857,-184 -3.8608,-167.402 6.1939,-149.4654 16.35,-136.7307"/>
<polygon fill="#191970" stroke="#191970" points="19.2976,-138.674 23.2045,-128.8258 14.0089,-134.0881 19.2976,-138.674"/>
</g>
<!-- Node1&#45;&gt;Node2 -->
<g id="edge2" class="edge">
<title>Node1&#45;&gt;Node2</title>
<path fill="none" stroke="#191970" d="M179.7403,-226.743C125.6281,-221.9487 30.8036,-209.9883 9.8857,-184 -1.1211,-170.3252 8.2207,-150.9674 18.0994,-137.0317"/>
<polygon fill="#191970" stroke="#191970" points="21.1323,-138.8297 24.4602,-128.7711 15.586,-134.559 21.1323,-138.8297"/>
</g>
<!-- Node3 -->
<g id="node4" class="node">
<title>Node3</title>
<g id="a_node4"><a xlink:title=" ">
<polygon fill="#ffffff" stroke="#bfbfbf" points="351.6591,-110.5 351.6591,-128.5 392.1122,-128.5 392.1122,-110.5 351.6591,-110.5"/>
<text text-anchor="middle" x="371.8857" y="-116.5" font-family="Helvetica,sans-Serif" font-size="10.00" fill="#000000">mpi.h</text>
</a>
</g>
</g>
<!-- Node1&#45;&gt;Node3 -->
<g id="edge3" class="edge">
<title>Node1&#45;&gt;Node3</title>
<path fill="none" stroke="#191970" d="M235.4667,-220.3967C251.6406,-211.7567 276.0509,-198.0378 295.8857,-184 317.1009,-168.9851 339.5812,-149.3881 354.5404,-135.7532"/>
<polygon fill="#191970" stroke="#191970" points="357.04,-138.2093 362.0215,-128.8586 352.2961,-133.0619 357.04,-138.2093"/>
</g>
<!-- Node4 -->
<g id="node5" class="node">
<title>Node4</title>
<g id="a_node5"><a xlink:href="index_8h.html" target="_top" xlink:title=" ">
<polygon fill="#ffffff" stroke="#000000" points="18.7997,-165.5 18.7997,-183.5 130.9716,-183.5 130.9716,-165.5 18.7997,-165.5"/>
<text text-anchor="middle" x="74.8857" y="-171.5" font-family="Helvetica,sans-Serif" font-size="10.00" fill="#000000">parallelization/index.h</text>
</a>
</g>
</g>
<!-- Node1&#45;&gt;Node4 -->
<g id="edge4" class="edge">
<title>Node1&#45;&gt;Node4</title>
<path fill="none" stroke="#191970" d="M194.2721,-220.4179C170.778,-211.3817 134.5174,-197.4353 108.1209,-187.2828"/>
<polygon fill="#191970" stroke="#191970" points="109.1242,-183.9188 98.5343,-183.5956 106.6113,-190.4522 109.1242,-183.9188"/>
</g>
<!-- Node5 -->
<g id="node6" class="node">
<title>Node5</title>
<g id="a_node6"><a xlink:href="neighbours_8h.html" target="_top" xlink:title=" ">
<polygon fill="#ffffff" stroke="#000000" points="149.0116,-165.5 149.0116,-183.5 286.7597,-183.5 286.7597,-165.5 149.0116,-165.5"/>
<text text-anchor="middle" x="217.8857" y="-171.5" font-family="Helvetica,sans-Serif" font-size="10.00" fill="#000000">parallelization/neighbours.h</text>
</a>
</g>
</g>
<!-- Node1&#45;&gt;Node5 -->
<g id="edge6" class="edge">
<title>Node1&#45;&gt;Node5</title>
<path fill="none" stroke="#191970" d="M217.8857,-220.4179C217.8857,-213.2164 217.8857,-202.8962 217.8857,-193.8632"/>
<polygon fill="#191970" stroke="#191970" points="221.3858,-193.7794 217.8857,-183.7795 214.3858,-193.7795 221.3858,-193.7794"/>
</g>
<!-- Node7 -->
<g id="node8" class="node">
<title>Node7</title>
<g id="a_node8"><a xlink:href="parallelparameters_8h.html" target="_top" xlink:title=" ">
<polygon fill="#ffffff" stroke="#000000" points="343.3442,-165.5 343.3442,-183.5 514.4272,-183.5 514.4272,-165.5 343.3442,-165.5"/>
<text text-anchor="middle" x="428.8857" y="-171.5" font-family="Helvetica,sans-Serif" font-size="10.00" fill="#000000">parallelization/parallelparameters.h</text>
</a>
</g>
</g>
<!-- Node1&#45;&gt;Node7 -->
<g id="edge9" class="edge">
<title>Node1&#45;&gt;Node7</title>
<path fill="none" stroke="#191970" d="M252.728,-220.4179C288.8,-211.0152 345.2678,-196.2961 384.5105,-186.067"/>
<polygon fill="#191970" stroke="#191970" points="385.5484,-189.4135 394.3422,-183.5042 383.7827,-182.6398 385.5484,-189.4135"/>
</g>
<!-- Node8 -->
<g id="node9" class="node">
<title>Node8</title>
<g id="a_node9"><a xlink:href="functions_8h.html" target="_top" xlink:title=" ">
<polygon fill="#ffffff" stroke="#000000" points="532.7035,-165.5 532.7035,-183.5 597.0678,-183.5 597.0678,-165.5 532.7035,-165.5"/>
<text text-anchor="middle" x="564.8857" y="-171.5" font-family="Helvetica,sans-Serif" font-size="10.00" fill="#000000">functions.h</text>
</a>
</g>
</g>
<!-- Node1&#45;&gt;Node8 -->
<g id="edge11" class="edge">
<title>Node1&#45;&gt;Node8</title>
<path fill="none" stroke="#191970" d="M255.7362,-224.8635C311.8354,-217.7756 420.5523,-203.2136 522.1393,-184.2195"/>
<polygon fill="#191970" stroke="#191970" points="523.0853,-187.6028 532.2618,-182.3074 521.7859,-180.7244 523.0853,-187.6028"/>
</g>
<!-- Node4&#45;&gt;Node2 -->
<g id="edge5" class="edge">
<title>Node4&#45;&gt;Node2</title>
<path fill="none" stroke="#191970" d="M67.9502,-165.4179C62.0279,-157.6624 53.3435,-146.29 46.0992,-136.8035"/>
<polygon fill="#191970" stroke="#191970" points="48.8227,-134.6029 39.9718,-128.7795 43.2593,-138.8514 48.8227,-134.6029"/>
</g>
<!-- Node5&#45;&gt;Node2 -->
<g id="edge8" class="edge">
<title>Node5&#45;&gt;Node2</title>
<path fill="none" stroke="#191970" d="M187.3367,-165.4179C153.3895,-155.3255 98.8397,-139.1079 64.4774,-128.8921"/>
<polygon fill="#191970" stroke="#191970" points="65.0893,-125.4227 54.5065,-125.9278 63.0944,-132.1325 65.0893,-125.4227"/>
</g>
<!-- Node6 -->
<g id="node7" class="node">
<title>Node6</title>
<g id="a_node7"><a xlink:href="neighbourlist_8h.html" target="_top" xlink:title=" ">
<polygon fill="#ffffff" stroke="#000000" points="177.3637,-110.5 177.3637,-128.5 258.4076,-128.5 258.4076,-110.5 177.3637,-110.5"/>
<text text-anchor="middle" x="217.8857" y="-116.5" font-family="Helvetica,sans-Serif" font-size="10.00" fill="#000000">neighbourlist.h</text>
</a>
</g>
</g>
<!-- Node5&#45;&gt;Node6 -->
<g id="edge7" class="edge">
<title>Node5&#45;&gt;Node6</title>
<path fill="none" stroke="#191970" d="M217.8857,-165.4179C217.8857,-158.2164 217.8857,-147.8962 217.8857,-138.8632"/>
<polygon fill="#191970" stroke="#191970" points="221.3858,-138.7794 217.8857,-128.7795 214.3858,-138.7795 221.3858,-138.7794"/>
</g>
<!-- Node7&#45;&gt;Node3 -->
<g id="edge10" class="edge">
<title>Node7&#45;&gt;Node3</title>
<path fill="none" stroke="#191970" d="M419.4733,-165.4179C411.1897,-157.425 398.9247,-145.5903 388.9211,-135.9377"/>
<polygon fill="#191970" stroke="#191970" points="391.1291,-133.2045 381.5025,-128.7795 386.2685,-138.2419 391.1291,-133.2045"/>
</g>
<!-- Node9 -->
<g id="node10" class="node">
<title>Node9</title>
<g id="a_node10"><a xlink:href="su3_8h.html" target="_top" xlink:title=" ">
<polygon fill="#ffffff" stroke="#000000" points="524.3735,-110.5 524.3735,-128.5 605.3979,-128.5 605.3979,-110.5 524.3735,-110.5"/>
<text text-anchor="middle" x="564.8857" y="-116.5" font-family="Helvetica,sans-Serif" font-size="10.00" fill="#000000">matrices/su3.h</text>
</a>
</g>
</g>
<!-- Node8&#45;&gt;Node9 -->
<g id="edge12" class="edge">
<title>Node8&#45;&gt;Node9</title>
<path fill="none" stroke="#191970" d="M564.8857,-165.4179C564.8857,-158.2164 564.8857,-147.8962 564.8857,-138.8632"/>
<polygon fill="#191970" stroke="#191970" points="568.3858,-138.7794 564.8857,-128.7795 561.3858,-138.7795 568.3858,-138.7794"/>
</g>
<!-- Node10 -->
<g id="node11" class="node">
<title>Node10</title>
<g id="a_node11"><a xlink:href="complex_8h.html" target="_top" xlink:title=" ">
<polygon fill="#ffffff" stroke="#000000" points="521.5927,-55.5 521.5927,-73.5 608.1786,-73.5 608.1786,-55.5 521.5927,-55.5"/>
<text text-anchor="middle" x="564.8857" y="-61.5" font-family="Helvetica,sans-Serif" font-size="10.00" fill="#000000">math/complex.h</text>
</a>
</g>
</g>
<!-- Node8&#45;&gt;Node10 -->
<g id="edge17" class="edge">
<title>Node8&#45;&gt;Node10</title>
<path fill="none" stroke="#191970" d="M548.9619,-165.1981C537.1026,-157.2677 521.814,-144.6725 514.8857,-129 506.4949,-110.0196 524.073,-91.6442 540.6508,-79.3948"/>
<polygon fill="#191970" stroke="#191970" points="542.8414,-82.1358 549.0859,-73.5768 538.8669,-76.3735 542.8414,-82.1358"/>
</g>
<!-- Node12 -->
<g id="node13" class="node">
<title>Node12</title>
<g id="a_node13"><a xlink:href="su2_8h.html" target="_top" xlink:title=" ">
<polygon fill="#ffffff" stroke="#000000" points="623.3735,-110.5 623.3735,-128.5 704.3979,-128.5 704.3979,-110.5 623.3735,-110.5"/>
<text text-anchor="middle" x="663.8857" y="-116.5" font-family="Helvetica,sans-Serif" font-size="10.00" fill="#000000">matrices/su2.h</text>
</a>
</g>
</g>
<!-- Node8&#45;&gt;Node12 -->
<g id="edge15" class="edge">
<title>Node8&#45;&gt;Node12</title>
<path fill="none" stroke="#191970" d="M581.2335,-165.4179C596.8538,-156.7399 620.6255,-143.5334 638.6718,-133.5077"/>
<polygon fill="#191970" stroke="#191970" points="640.4717,-136.5117 647.5135,-128.5956 637.0722,-130.3925 640.4717,-136.5117"/>
</g>
<!-- Node9&#45;&gt;Node10 -->
<g id="edge13" class="edge">
<title>Node9&#45;&gt;Node10</title>
<path fill="none" stroke="#191970" d="M564.8857,-110.4179C564.8857,-103.2164 564.8857,-92.8962 564.8857,-83.8632"/>
<polygon fill="#191970" stroke="#191970" points="568.3858,-83.7794 564.8857,-73.7795 561.3858,-83.7795 568.3858,-83.7794"/>
</g>
<!-- Node11 -->
<g id="node12" class="node">
<title>Node11</title>
<g id="a_node12"><a xlink:title=" ">
<polygon fill="#ffffff" stroke="#bfbfbf" points="537.7133,-.5 537.7133,-18.5 592.058,-18.5 592.058,-.5 537.7133,-.5"/>
<text text-anchor="middle" x="564.8857" y="-6.5" font-family="Helvetica,sans-Serif" font-size="10.00" fill="#000000">iostream</text>
</a>
</g>
</g>
<!-- Node10&#45;&gt;Node11 -->
<g id="edge14" class="edge">
<title>Node10&#45;&gt;Node11</title>
<path fill="none" stroke="#191970" d="M564.8857,-55.4179C564.8857,-48.2164 564.8857,-37.8962 564.8857,-28.8632"/>
<polygon fill="#191970" stroke="#191970" points="568.3858,-28.7794 564.8857,-18.7795 561.3858,-28.7795 568.3858,-28.7794"/>
</g>
<!-- Node12&#45;&gt;Node10 -->
<g id="edge16" class="edge">
<title>Node12&#45;&gt;Node10</title>
<path fill="none" stroke="#191970" d="M647.5378,-110.4179C631.9175,-101.7399 608.1459,-88.5334 590.0995,-78.5077"/>
<polygon fill="#191970" stroke="#191970" points="591.6991,-75.3925 581.2578,-73.5956 588.2996,-81.5117 591.6991,-75.3925"/>
</g>
</g>
</svg>
