<?xml version="1.0" encoding="UTF-8" standalone="no"?>
<!DOCTYPE svg PUBLIC "-//W3C//DTD SVG 1.1//EN"
 "http://www.w3.org/Graphics/SVG/1.1/DTD/svg11.dtd">
<!-- Generated by graphviz version 2.40.1 (20161225.0304)
 -->
<!-- Title: GLAC/actions/action.h Pages: 1 -->
<svg width="846pt" height="247pt"
 viewBox="0.00 0.00 846.18 247.00" xmlns="http://www.w3.org/2000/svg" xmlns:xlink="http://www.w3.org/1999/xlink">
<g id="graph0" class="graph" transform="scale(1 1) rotate(0) translate(4 243)">
<title>GLAC/actions/action.h</title>
<polygon fill="#ffffff" stroke="transparent" points="-4,4 -4,-243 842.1816,-243 842.1816,4 -4,4"/>
<!-- Node13 -->
<g id="node1" class="node">
<title>Node13</title>
<g id="a_node1"><a xlink:title=" ">
<polygon fill="#bfbfbf" stroke="#000000" points="259.0786,-220.5 259.0786,-238.5 374.5757,-238.5 374.5757,-220.5 259.0786,-220.5"/>
<text text-anchor="middle" x="316.8271" y="-226.5" font-family="Helvetica,sans-Serif" font-size="10.00" fill="#000000">GLAC/actions/action.h</text>
</a>
</g>
</g>
<!-- Node14 -->
<g id="node2" class="node">
<title>Node14</title>
<g id="a_node2"><a xlink:href="action_8cpp.html" target="_top" xlink:title=" ">
<polygon fill="#ffffff" stroke="#000000" points="48.7979,-165.5 48.7979,-183.5 174.8564,-183.5 174.8564,-165.5 48.7979,-165.5"/>
<text text-anchor="middle" x="111.8271" y="-171.5" font-family="Helvetica,sans-Serif" font-size="10.00" fill="#000000">GLAC/actions/action.cpp</text>
</a>
</g>
</g>
<!-- Node13&#45;&gt;Node14 -->
<g id="edge1" class="edge">
<title>Node13&#45;&gt;Node14</title>
<path fill="none" stroke="#191970" d="M273.1534,-217.7826C234.9451,-207.5316 180.2504,-192.8575 145.3883,-183.5042"/>
<polygon fill="#191970" stroke="#191970" points="272.4102,-221.207 282.9756,-220.4179 274.2241,-214.4461 272.4102,-221.207"/>
</g>
<!-- Node15 -->
<g id="node3" class="node">
<title>Node15</title>
<g id="a_node3"><a xlink:href="actions_8h.html" target="_top" xlink:title=" ">
<polygon fill="#ffffff" stroke="#000000" points="199.5786,-110.5 199.5786,-128.5 320.0757,-128.5 320.0757,-110.5 199.5786,-110.5"/>
<text text-anchor="middle" x="259.8271" y="-116.5" font-family="Helvetica,sans-Serif" font-size="10.00" fill="#000000">GLAC/actions/actions.h</text>
</a>
</g>
</g>
<!-- Node13&#45;&gt;Node15 -->
<g id="edge2" class="edge">
<title>Node13&#45;&gt;Node15</title>
<path fill="none" stroke="#191970" d="M265.0029,-216.7063C248.3048,-209.8659 231.6035,-199.5221 221.8271,-184 209.5673,-164.5348 232.4262,-141.1525 247.7018,-128.575"/>
<polygon fill="#191970" stroke="#191970" points="264.1889,-220.1376 274.7818,-220.3416 266.6281,-213.5763 264.1889,-220.1376"/>
</g>
<!-- Node19 -->
<g id="node7" class="node">
<title>Node19</title>
<g id="a_node7"><a xlink:href="wilsongaugeaction_8h.html" target="_top" xlink:title=" ">
<polygon fill="#ffffff" stroke="#000000" points="231.2808,-165.5 231.2808,-183.5 402.3735,-183.5 402.3735,-165.5 231.2808,-165.5"/>
<text text-anchor="middle" x="316.8271" y="-171.5" font-family="Helvetica,sans-Serif" font-size="10.00" fill="#000000">GLAC/actions/wilsongaugeaction.h</text>
</a>
</g>
</g>
<!-- Node13&#45;&gt;Node19 -->
<g id="edge6" class="edge">
<title>Node13&#45;&gt;Node19</title>
<path fill="none" stroke="#191970" d="M316.8271,-210.383C316.8271,-201.3738 316.8271,-191.0373 316.8271,-183.7795"/>
<polygon fill="#191970" stroke="#191970" points="313.3272,-210.4178 316.8271,-220.4179 320.3272,-210.4179 313.3272,-210.4178"/>
</g>
<!-- Node22 -->
<g id="node10" class="node">
<title>Node22</title>
<g id="a_node10"><a xlink:href="luscheraction_8h.html" target="_top" xlink:title=" ">
<polygon fill="#ffffff" stroke="#000000" points="419.9604,-165.5 419.9604,-183.5 567.6938,-183.5 567.6938,-165.5 419.9604,-165.5"/>
<text text-anchor="middle" x="493.8271" y="-171.5" font-family="Helvetica,sans-Serif" font-size="10.00" fill="#000000">GLAC/actions/luscheraction.h</text>
</a>
</g>
</g>
<!-- Node13&#45;&gt;Node22 -->
<g id="edge10" class="edge">
<title>Node13&#45;&gt;Node22</title>
<path fill="none" stroke="#191970" d="M355.8061,-217.3879C388.7283,-207.1578 435.1338,-192.7381 464.85,-183.5042"/>
<polygon fill="#191970" stroke="#191970" points="354.5661,-214.1081 346.0551,-220.4179 356.6433,-220.7928 354.5661,-214.1081"/>
</g>
<!-- Node24 -->
<g id="node12" class="node">
<title>Node24</title>
<g id="a_node12"><a xlink:href="flow_8h.html" target="_top" xlink:title=" ">
<polygon fill="#ffffff" stroke="#000000" points="661.7534,-165.5 661.7534,-183.5 753.9009,-183.5 753.9009,-165.5 661.7534,-165.5"/>
<text text-anchor="middle" x="707.8271" y="-171.5" font-family="Helvetica,sans-Serif" font-size="10.00" fill="#000000">GLAC/flow/flow.h</text>
</a>
</g>
</g>
<!-- Node13&#45;&gt;Node24 -->
<g id="edge14" class="edge">
<title>Node13&#45;&gt;Node24</title>
<path fill="none" stroke="#191970" d="M385.3233,-219.865C464.6833,-208.7018 593.2687,-190.6144 661.6387,-180.9971"/>
<polygon fill="#191970" stroke="#191970" points="384.3566,-216.4664 374.9416,-221.3253 385.3317,-223.3982 384.3566,-216.4664"/>
</g>
<!-- Node16 -->
<g id="node4" class="node">
<title>Node16</title>
<g id="a_node4"><a xlink:href="system_8h.html" target="_top" xlink:title=" ">
<polygon fill="#ffffff" stroke="#000000" points="440.8174,-55.5 440.8174,-73.5 526.8369,-73.5 526.8369,-55.5 440.8174,-55.5"/>
<text text-anchor="middle" x="483.8271" y="-61.5" font-family="Helvetica,sans-Serif" font-size="10.00" fill="#000000">GLAC/system.h</text>
</a>
</g>
</g>
<!-- Node15&#45;&gt;Node16 -->
<g id="edge3" class="edge">
<title>Node15&#45;&gt;Node16</title>
<path fill="none" stroke="#191970" d="M306.7515,-107.9784C348.5345,-97.7192 408.8191,-82.9172 447.1555,-73.5042"/>
<polygon fill="#191970" stroke="#191970" points="305.6931,-104.6342 296.8162,-110.4179 307.3623,-111.4323 305.6931,-104.6342"/>
</g>
<!-- Node17 -->
<g id="node5" class="node">
<title>Node17</title>
<g id="a_node5"><a xlink:href="main_8cpp.html" target="_top" xlink:title=" ">
<polygon fill="#ffffff" stroke="#000000" points="385.5342,-.5 385.5342,-18.5 472.1201,-18.5 472.1201,-.5 385.5342,-.5"/>
<text text-anchor="middle" x="428.8271" y="-6.5" font-family="Helvetica,sans-Serif" font-size="10.00" fill="#000000">GLAC/main.cpp</text>
</a>
</g>
</g>
<!-- Node16&#45;&gt;Node17 -->
<g id="edge4" class="edge">
<title>Node16&#45;&gt;Node17</title>
<path fill="none" stroke="#191970" d="M467.6263,-48.2992C458.0099,-38.6828 446.1621,-26.8349 438.1066,-18.7795"/>
<polygon fill="#191970" stroke="#191970" points="465.199,-50.8217 474.745,-55.4179 470.1488,-45.8719 465.199,-50.8217"/>
</g>
<!-- Node18 -->
<g id="node6" class="node">
<title>Node18</title>
<g id="a_node6"><a xlink:href="system_8cpp.html" target="_top" xlink:title=" ">
<polygon fill="#ffffff" stroke="#000000" points="490.5366,-.5 490.5366,-18.5 587.1177,-18.5 587.1177,-.5 490.5366,-.5"/>
<text text-anchor="middle" x="538.8271" y="-6.5" font-family="Helvetica,sans-Serif" font-size="10.00" fill="#000000">GLAC/system.cpp</text>
</a>
</g>
</g>
<!-- Node16&#45;&gt;Node18 -->
<g id="edge5" class="edge">
<title>Node16&#45;&gt;Node18</title>
<path fill="none" stroke="#191970" d="M500.028,-48.2992C509.6444,-38.6828 521.4922,-26.8349 529.5477,-18.7795"/>
<polygon fill="#191970" stroke="#191970" points="497.5055,-45.8719 492.9093,-55.4179 502.4553,-50.8217 497.5055,-45.8719"/>
</g>
<!-- Node19&#45;&gt;Node15 -->
<g id="edge7" class="edge">
<title>Node19&#45;&gt;Node15</title>
<path fill="none" stroke="#191970" d="M300.0372,-158.2992C290.0711,-148.6828 277.7924,-136.8349 269.444,-128.7795"/>
<polygon fill="#191970" stroke="#191970" points="297.7882,-160.9928 307.4148,-165.4179 302.6488,-155.9555 297.7882,-160.9928"/>
</g>
<!-- Node20 -->
<g id="node8" class="node">
<title>Node20</title>
<g id="a_node8"><a xlink:href="wilsongaugeaction_8cpp.html" target="_top" xlink:title=" ">
<polygon fill="#ffffff" stroke="#000000" points="0,-110.5 0,-128.5 181.6543,-128.5 181.6543,-110.5 0,-110.5"/>
<text text-anchor="middle" x="90.8271" y="-116.5" font-family="Helvetica,sans-Serif" font-size="10.00" fill="#000000">GLAC/actions/wilsongaugeaction.cpp</text>
</a>
</g>
</g>
<!-- Node19&#45;&gt;Node20 -->
<g id="edge8" class="edge">
<title>Node19&#45;&gt;Node20</title>
<path fill="none" stroke="#191970" d="M270.0121,-163.107C227.8689,-152.8509 166.7585,-137.9789 127.9136,-128.5255"/>
<polygon fill="#191970" stroke="#191970" points="269.2169,-166.5155 279.7609,-165.4795 270.8721,-159.714 269.2169,-166.5155"/>
</g>
<!-- Node21 -->
<g id="node9" class="node">
<title>Node21</title>
<g id="a_node9"><a xlink:href="performancetests_8cpp.html" target="_top" xlink:title=" ">
<polygon fill="#ffffff" stroke="#000000" points="337.7954,-110.5 337.7954,-128.5 503.8589,-128.5 503.8589,-110.5 337.7954,-110.5"/>
<text text-anchor="middle" x="420.8271" y="-116.5" font-family="Helvetica,sans-Serif" font-size="10.00" fill="#000000">GLAC/tests/performancetests.cpp</text>
</a>
</g>
</g>
<!-- Node19&#45;&gt;Node21 -->
<g id="edge9" class="edge">
<title>Node19&#45;&gt;Node21</title>
<path fill="none" stroke="#191970" d="M343.0245,-160.6456C362.0072,-150.6067 387.1348,-137.3181 403.6282,-128.5956"/>
<polygon fill="#191970" stroke="#191970" points="341.2043,-157.6489 334.0006,-165.4179 344.4768,-163.8368 341.2043,-157.6489"/>
</g>
<!-- Node22&#45;&gt;Node15 -->
<g id="edge11" class="edge">
<title>Node22&#45;&gt;Node15</title>
<path fill="none" stroke="#191970" d="M445.6309,-163.1718C401.987,-152.9136 338.5312,-137.9988 298.2264,-128.5255"/>
<polygon fill="#191970" stroke="#191970" points="444.9133,-166.5985 455.4488,-165.4795 446.515,-159.7842 444.9133,-166.5985"/>
</g>
<!-- Node22&#45;&gt;Node21 -->
<g id="edge13" class="edge">
<title>Node22&#45;&gt;Node21</title>
<path fill="none" stroke="#191970" d="M473.4535,-159.15C460.4993,-149.3899 444.1529,-137.0742 433.1435,-128.7795"/>
<polygon fill="#191970" stroke="#191970" points="471.6797,-162.1957 481.7727,-165.4179 475.8919,-156.6049 471.6797,-162.1957"/>
</g>
<!-- Node23 -->
<g id="node11" class="node">
<title>Node23</title>
<g id="a_node11"><a xlink:href="luscheraction_8cpp.html" target="_top" xlink:title=" ">
<polygon fill="#ffffff" stroke="#000000" points="521.6797,-110.5 521.6797,-128.5 679.9746,-128.5 679.9746,-110.5 521.6797,-110.5"/>
<text text-anchor="middle" x="600.8271" y="-116.5" font-family="Helvetica,sans-Serif" font-size="10.00" fill="#000000">GLAC/actions/luscheraction.cpp</text>
</a>
</g>
</g>
<!-- Node22&#45;&gt;Node23 -->
<g id="edge12" class="edge">
<title>Node22&#45;&gt;Node23</title>
<path fill="none" stroke="#191970" d="M520.5131,-160.7829C540.0742,-150.7282 566.0854,-137.3579 583.132,-128.5956"/>
<polygon fill="#191970" stroke="#191970" points="518.7898,-157.7334 511.496,-165.4179 521.99,-163.9591 518.7898,-157.7334"/>
</g>
<!-- Node24&#45;&gt;Node16 -->
<g id="edge16" class="edge">
<title>Node24&#45;&gt;Node16</title>
<path fill="none" stroke="#191970" d="M707.14,-154.7373C705.5631,-140.3461 701.0779,-121.4441 688.8271,-110 665.7829,-88.4731 580.265,-75.2622 527.2342,-68.9586"/>
<polygon fill="#191970" stroke="#191970" points="703.675,-155.3558 707.8741,-165.083 710.6575,-154.8604 703.675,-155.3558"/>
</g>
<!-- Node25 -->
<g id="node13" class="node">
<title>Node25</title>
<g id="a_node13"><a xlink:href="flow_8cpp.html" target="_top" xlink:title=" ">
<polygon fill="#ffffff" stroke="#000000" points="735.4727,-110.5 735.4727,-128.5 838.1816,-128.5 838.1816,-110.5 735.4727,-110.5"/>
<text text-anchor="middle" x="786.8271" y="-116.5" font-family="Helvetica,sans-Serif" font-size="10.00" fill="#000000">GLAC/flow/flow.cpp</text>
</a>
</g>
</g>
<!-- Node24&#45;&gt;Node25 -->
<g id="edge15" class="edge">
<title>Node24&#45;&gt;Node25</title>
<path fill="none" stroke="#191970" d="M729.1237,-159.6733C743.3601,-149.7619 761.6344,-137.0393 773.7625,-128.5956"/>
<polygon fill="#191970" stroke="#191970" points="727.0795,-156.8317 720.8724,-165.4179 731.0791,-162.5766 727.0795,-156.8317"/>
</g>
</g>
</svg>
