<?xml version="1.0" encoding="UTF-8" standalone="no"?>
<!DOCTYPE svg PUBLIC "-//W3C//DTD SVG 1.1//EN"
 "http://www.w3.org/Graphics/SVG/1.1/DTD/svg11.dtd">
<!-- Generated by graphviz version 2.40.1 (20161225.0304)
 -->
<!-- Title: GluonicLQCD/actions/action.cpp Pages: 1 -->
<svg width="777pt" height="367pt"
 viewBox="0.00 0.00 777.05 367.00" xmlns="http://www.w3.org/2000/svg" xmlns:xlink="http://www.w3.org/1999/xlink">
<g id="graph0" class="graph" transform="scale(1 1) rotate(0) translate(4 363)">
<title>GluonicLQCD/actions/action.cpp</title>
<polygon fill="#ffffff" stroke="transparent" points="-4,4 -4,-363 773.0537,-363 773.0537,4 -4,4"/>
<!-- Node0 -->
<g id="node1" class="node">
<title>Node0</title>
<g id="a_node1"><a xlink:title=" ">
<polygon fill="#bfbfbf" stroke="#000000" points="519.4653,-330.5 519.4653,-358.5 631.6177,-358.5 631.6177,-330.5 519.4653,-330.5"/>
<text text-anchor="start" x="527.4653" y="-346.5" font-family="Helvetica,sans-Serif" font-size="10.00" fill="#000000">GluonicLQCD/actions</text>
<text text-anchor="middle" x="575.5415" y="-336.5" font-family="Helvetica,sans-Serif" font-size="10.00" fill="#000000">/action.cpp</text>
</a>
</g>
</g>
<!-- Node1 -->
<g id="node2" class="node">
<title>Node1</title>
<g id="a_node2"><a xlink:href="action_8h.html" target="_top" xlink:title=" ">
<polygon fill="#ffffff" stroke="#000000" points="502.0293,-275.5 502.0293,-293.5 553.0537,-293.5 553.0537,-275.5 502.0293,-275.5"/>
<text text-anchor="middle" x="527.5415" y="-281.5" font-family="Helvetica,sans-Serif" font-size="10.00" fill="#000000">action.h</text>
</a>
</g>
</g>
<!-- Node0&#45;&gt;Node1 -->
<g id="edge1" class="edge">
<title>Node0&#45;&gt;Node1</title>
<path fill="none" stroke="#191970" d="M564.1662,-330.2808C557.2752,-321.6672 548.4432,-310.6271 541.1788,-301.5466"/>
<polygon fill="#191970" stroke="#191970" points="543.7889,-299.2065 534.8089,-293.5842 538.3228,-303.5793 543.7889,-299.2065"/>
</g>
<!-- Node14 -->
<g id="node15" class="node">
<title>Node14</title>
<g id="a_node15"><a xlink:href="parameters_8h.html" target="_top" xlink:title=" ">
<polygon fill="#ffffff" stroke="#000000" points="571.3521,-275.5 571.3521,-293.5 675.731,-293.5 675.731,-275.5 571.3521,-275.5"/>
<text text-anchor="middle" x="623.5415" y="-281.5" font-family="Helvetica,sans-Serif" font-size="10.00" fill="#000000">config/parameters.h</text>
</a>
</g>
</g>
<!-- Node0&#45;&gt;Node14 -->
<g id="edge20" class="edge">
<title>Node0&#45;&gt;Node14</title>
<path fill="none" stroke="#191970" d="M586.9168,-330.2808C593.8078,-321.6672 602.6398,-310.6271 609.9042,-301.5466"/>
<polygon fill="#191970" stroke="#191970" points="612.7602,-303.5793 616.2742,-293.5842 607.2941,-299.2065 612.7602,-303.5793"/>
</g>
<!-- Node2 -->
<g id="node3" class="node">
<title>Node2</title>
<g id="a_node3"><a xlink:href="lattice_8h.html" target="_top" xlink:title=" ">
<polygon fill="#ffffff" stroke="#000000" points="355.8052,-220.5 355.8052,-238.5 431.2778,-238.5 431.2778,-220.5 355.8052,-220.5"/>
<text text-anchor="middle" x="393.5415" y="-226.5" font-family="Helvetica,sans-Serif" font-size="10.00" fill="#000000">math/lattice.h</text>
</a>
</g>
</g>
<!-- Node1&#45;&gt;Node2 -->
<g id="edge2" class="edge">
<title>Node1&#45;&gt;Node2</title>
<path fill="none" stroke="#191970" d="M505.4141,-275.4179C483.4956,-266.4215 449.7193,-252.5581 425.0124,-242.4172"/>
<polygon fill="#191970" stroke="#191970" points="426.2818,-239.1549 415.7018,-238.5956 423.6238,-245.6306 426.2818,-239.1549"/>
</g>
<!-- Node3 -->
<g id="node4" class="node">
<title>Node3</title>
<g id="a_node4"><a xlink:title=" ">
<polygon fill="#ffffff" stroke="#bfbfbf" points="455.9258,-110.5 455.9258,-128.5 499.1572,-128.5 499.1572,-110.5 455.9258,-110.5"/>
<text text-anchor="middle" x="477.5415" y="-116.5" font-family="Helvetica,sans-Serif" font-size="10.00" fill="#000000">vector</text>
</a>
</g>
</g>
<!-- Node1&#45;&gt;Node3 -->
<g id="edge19" class="edge">
<title>Node1&#45;&gt;Node3</title>
<path fill="none" stroke="#191970" d="M532.0087,-275.4845C541.6342,-254.686 561.9504,-202.2777 542.5415,-165 535.2727,-151.0391 521.5429,-140.4762 508.568,-133.0593"/>
<polygon fill="#191970" stroke="#191970" points="509.8362,-129.7716 499.3569,-128.2111 506.5758,-135.966 509.8362,-129.7716"/>
</g>
<!-- Node2&#45;&gt;Node3 -->
<g id="edge3" class="edge">
<title>Node2&#45;&gt;Node3</title>
<path fill="none" stroke="#191970" d="M394.328,-220.3324C395.8659,-207.0182 400.2766,-182.0617 412.5415,-165 421.9228,-151.9497 436.2553,-141.3435 449.0769,-133.6646"/>
<polygon fill="#191970" stroke="#191970" points="451.0657,-136.5611 458.0535,-128.5974 447.6246,-130.4653 451.0657,-136.5611"/>
</g>
<!-- Node4 -->
<g id="node5" class="node">
<title>Node4</title>
<g id="a_node5"><a xlink:title=" ">
<polygon fill="#ffffff" stroke="#bfbfbf" points="122.3149,-110.5 122.3149,-128.5 162.7681,-128.5 162.7681,-110.5 122.3149,-110.5"/>
<text text-anchor="middle" x="142.5415" y="-116.5" font-family="Helvetica,sans-Serif" font-size="10.00" fill="#000000">mpi.h</text>
</a>
</g>
</g>
<!-- Node2&#45;&gt;Node4 -->
<g id="edge4" class="edge">
<title>Node2&#45;&gt;Node4</title>
<path fill="none" stroke="#191970" d="M355.5911,-224.6526C318.9025,-218.8357 262.5577,-206.8621 218.5415,-184 194.9579,-171.7506 172.3211,-150.9882 157.9811,-136.3336"/>
<polygon fill="#191970" stroke="#191970" points="160.3456,-133.7413 150.9147,-128.9133 155.2765,-138.5687 160.3456,-133.7413"/>
</g>
<!-- Node5 -->
<g id="node6" class="node">
<title>Node5</title>
<g id="a_node6"><a xlink:href="index_8h.html" target="_top" xlink:title=" ">
<polygon fill="#ffffff" stroke="#000000" points="421.4556,-165.5 421.4556,-183.5 533.6274,-183.5 533.6274,-165.5 421.4556,-165.5"/>
<text text-anchor="middle" x="477.5415" y="-171.5" font-family="Helvetica,sans-Serif" font-size="10.00" fill="#000000">parallelization/index.h</text>
</a>
</g>
</g>
<!-- Node2&#45;&gt;Node5 -->
<g id="edge5" class="edge">
<title>Node2&#45;&gt;Node5</title>
<path fill="none" stroke="#191970" d="M407.4124,-220.4179C420.3012,-211.9788 439.7309,-199.257 454.8729,-189.3426"/>
<polygon fill="#191970" stroke="#191970" points="457.2011,-192.0017 463.65,-183.5956 453.3665,-186.1454 457.2011,-192.0017"/>
</g>
<!-- Node6 -->
<g id="node7" class="node">
<title>Node6</title>
<g id="a_node7"><a xlink:href="neighbours_8h.html" target="_top" xlink:title=" ">
<polygon fill="#ffffff" stroke="#000000" points="227.6675,-165.5 227.6675,-183.5 365.4155,-183.5 365.4155,-165.5 227.6675,-165.5"/>
<text text-anchor="middle" x="296.5415" y="-171.5" font-family="Helvetica,sans-Serif" font-size="10.00" fill="#000000">parallelization/neighbours.h</text>
</a>
</g>
</g>
<!-- Node2&#45;&gt;Node6 -->
<g id="edge7" class="edge">
<title>Node2&#45;&gt;Node6</title>
<path fill="none" stroke="#191970" d="M377.5239,-220.4179C362.3596,-211.8195 339.3544,-198.7754 321.734,-188.7844"/>
<polygon fill="#191970" stroke="#191970" points="323.0082,-185.4834 312.5829,-183.5956 319.5555,-191.5727 323.0082,-185.4834"/>
</g>
<!-- Node8 -->
<g id="node9" class="node">
<title>Node8</title>
<g id="a_node9"><a xlink:href="parallelparameters_8h.html" target="_top" xlink:title=" ">
<polygon fill="#ffffff" stroke="#000000" points="0,-165.5 0,-183.5 171.083,-183.5 171.083,-165.5 0,-165.5"/>
<text text-anchor="middle" x="85.5415" y="-171.5" font-family="Helvetica,sans-Serif" font-size="10.00" fill="#000000">parallelization/parallelparameters.h</text>
</a>
</g>
</g>
<!-- Node2&#45;&gt;Node8 -->
<g id="edge10" class="edge">
<title>Node2&#45;&gt;Node8</title>
<path fill="none" stroke="#191970" d="M355.7747,-222.7559C303.5065,-213.4223 208.5302,-196.4623 146.2397,-185.339"/>
<polygon fill="#191970" stroke="#191970" points="146.613,-181.8503 136.1535,-183.5378 145.3824,-188.7413 146.613,-181.8503"/>
</g>
<!-- Node9 -->
<g id="node10" class="node">
<title>Node9</title>
<g id="a_node10"><a xlink:href="functions_8h.html" target="_top" xlink:title=" ">
<polygon fill="#ffffff" stroke="#000000" points="627.3594,-165.5 627.3594,-183.5 691.7236,-183.5 691.7236,-165.5 627.3594,-165.5"/>
<text text-anchor="middle" x="659.5415" y="-171.5" font-family="Helvetica,sans-Serif" font-size="10.00" fill="#000000">functions.h</text>
</a>
</g>
</g>
<!-- Node2&#45;&gt;Node9 -->
<g id="edge12" class="edge">
<title>Node2&#45;&gt;Node9</title>
<path fill="none" stroke="#191970" d="M431.3703,-221.6783C480.4834,-211.5233 565.956,-193.8504 617.1899,-183.2569"/>
<polygon fill="#191970" stroke="#191970" points="618.1842,-186.6254 627.2684,-181.173 616.7668,-179.7704 618.1842,-186.6254"/>
</g>
<!-- Node5&#45;&gt;Node3 -->
<g id="edge6" class="edge">
<title>Node5&#45;&gt;Node3</title>
<path fill="none" stroke="#191970" d="M477.5415,-165.4179C477.5415,-158.2164 477.5415,-147.8962 477.5415,-138.8632"/>
<polygon fill="#191970" stroke="#191970" points="481.0416,-138.7794 477.5415,-128.7795 474.0416,-138.7795 481.0416,-138.7794"/>
</g>
<!-- Node6&#45;&gt;Node3 -->
<g id="edge9" class="edge">
<title>Node6&#45;&gt;Node3</title>
<path fill="none" stroke="#191970" d="M326.43,-165.4179C359.4612,-155.3808 412.4293,-139.2855 446.0784,-129.0606"/>
<polygon fill="#191970" stroke="#191970" points="447.3072,-132.3453 455.8576,-126.089 445.272,-125.6477 447.3072,-132.3453"/>
</g>
<!-- Node7 -->
<g id="node8" class="node">
<title>Node7</title>
<g id="a_node8"><a xlink:href="neighbourlist_8h.html" target="_top" xlink:title=" ">
<polygon fill="#ffffff" stroke="#000000" points="256.0195,-110.5 256.0195,-128.5 337.0635,-128.5 337.0635,-110.5 256.0195,-110.5"/>
<text text-anchor="middle" x="296.5415" y="-116.5" font-family="Helvetica,sans-Serif" font-size="10.00" fill="#000000">neighbourlist.h</text>
</a>
</g>
</g>
<!-- Node6&#45;&gt;Node7 -->
<g id="edge8" class="edge">
<title>Node6&#45;&gt;Node7</title>
<path fill="none" stroke="#191970" d="M296.5415,-165.4179C296.5415,-158.2164 296.5415,-147.8962 296.5415,-138.8632"/>
<polygon fill="#191970" stroke="#191970" points="300.0416,-138.7794 296.5415,-128.7795 293.0416,-138.7795 300.0416,-138.7794"/>
</g>
<!-- Node8&#45;&gt;Node4 -->
<g id="edge11" class="edge">
<title>Node8&#45;&gt;Node4</title>
<path fill="none" stroke="#191970" d="M94.9539,-165.4179C103.2374,-157.425 115.5024,-145.5903 125.506,-135.9377"/>
<polygon fill="#191970" stroke="#191970" points="128.1587,-138.2419 132.9246,-128.7795 123.2981,-133.2045 128.1587,-138.2419"/>
</g>
<!-- Node10 -->
<g id="node11" class="node">
<title>Node10</title>
<g id="a_node11"><a xlink:href="su3_8h.html" target="_top" xlink:title=" ">
<polygon fill="#ffffff" stroke="#000000" points="550.0293,-110.5 550.0293,-128.5 631.0537,-128.5 631.0537,-110.5 550.0293,-110.5"/>
<text text-anchor="middle" x="590.5415" y="-116.5" font-family="Helvetica,sans-Serif" font-size="10.00" fill="#000000">matrices/su3.h</text>
</a>
</g>
</g>
<!-- Node9&#45;&gt;Node10 -->
<g id="edge13" class="edge">
<title>Node9&#45;&gt;Node10</title>
<path fill="none" stroke="#191970" d="M648.1476,-165.4179C637.8223,-157.1876 622.3868,-144.8839 610.0918,-135.0836"/>
<polygon fill="#191970" stroke="#191970" points="612.1844,-132.2757 602.183,-128.7795 607.8212,-137.7495 612.1844,-132.2757"/>
</g>
<!-- Node11 -->
<g id="node12" class="node">
<title>Node11</title>
<g id="a_node12"><a xlink:href="complex_8h.html" target="_top" xlink:title=" ">
<polygon fill="#ffffff" stroke="#000000" points="616.2485,-55.5 616.2485,-73.5 702.8345,-73.5 702.8345,-55.5 616.2485,-55.5"/>
<text text-anchor="middle" x="659.5415" y="-61.5" font-family="Helvetica,sans-Serif" font-size="10.00" fill="#000000">math/complex.h</text>
</a>
</g>
</g>
<!-- Node9&#45;&gt;Node11 -->
<g id="edge18" class="edge">
<title>Node9&#45;&gt;Node11</title>
<path fill="none" stroke="#191970" d="M659.5415,-165.4982C659.5415,-147.6913 659.5415,-107.6225 659.5415,-83.6515"/>
<polygon fill="#191970" stroke="#191970" points="663.0416,-83.6261 659.5415,-73.6261 656.0416,-83.6262 663.0416,-83.6261"/>
</g>
<!-- Node13 -->
<g id="node14" class="node">
<title>Node13</title>
<g id="a_node14"><a xlink:href="su2_8h.html" target="_top" xlink:title=" ">
<polygon fill="#ffffff" stroke="#000000" points="688.0293,-110.5 688.0293,-128.5 769.0537,-128.5 769.0537,-110.5 688.0293,-110.5"/>
<text text-anchor="middle" x="728.5415" y="-116.5" font-family="Helvetica,sans-Serif" font-size="10.00" fill="#000000">matrices/su2.h</text>
</a>
</g>
</g>
<!-- Node9&#45;&gt;Node13 -->
<g id="edge16" class="edge">
<title>Node9&#45;&gt;Node13</title>
<path fill="none" stroke="#191970" d="M670.9355,-165.4179C681.2607,-157.1876 696.6962,-144.8839 708.9912,-135.0836"/>
<polygon fill="#191970" stroke="#191970" points="711.2619,-137.7495 716.9,-128.7795 706.8986,-132.2757 711.2619,-137.7495"/>
</g>
<!-- Node10&#45;&gt;Node11 -->
<g id="edge14" class="edge">
<title>Node10&#45;&gt;Node11</title>
<path fill="none" stroke="#191970" d="M601.9355,-110.4179C612.2607,-102.1876 627.6962,-89.8839 639.9912,-80.0836"/>
<polygon fill="#191970" stroke="#191970" points="642.2619,-82.7495 647.9,-73.7795 637.8986,-77.2757 642.2619,-82.7495"/>
</g>
<!-- Node12 -->
<g id="node13" class="node">
<title>Node12</title>
<g id="a_node13"><a xlink:title=" ">
<polygon fill="#ffffff" stroke="#bfbfbf" points="632.3691,-.5 632.3691,-18.5 686.7139,-18.5 686.7139,-.5 632.3691,-.5"/>
<text text-anchor="middle" x="659.5415" y="-6.5" font-family="Helvetica,sans-Serif" font-size="10.00" fill="#000000">iostream</text>
</a>
</g>
</g>
<!-- Node11&#45;&gt;Node12 -->
<g id="edge15" class="edge">
<title>Node11&#45;&gt;Node12</title>
<path fill="none" stroke="#191970" d="M659.5415,-55.4179C659.5415,-48.2164 659.5415,-37.8962 659.5415,-28.8632"/>
<polygon fill="#191970" stroke="#191970" points="663.0416,-28.7794 659.5415,-18.7795 656.0416,-28.7795 663.0416,-28.7794"/>
</g>
<!-- Node13&#45;&gt;Node11 -->
<g id="edge17" class="edge">
<title>Node13&#45;&gt;Node11</title>
<path fill="none" stroke="#191970" d="M717.1476,-110.4179C706.8223,-102.1876 691.3868,-89.8839 679.0918,-80.0836"/>
<polygon fill="#191970" stroke="#191970" points="681.1844,-77.2757 671.183,-73.7795 676.8212,-82.7495 681.1844,-77.2757"/>
</g>
<!-- Node14&#45;&gt;Node3 -->
<g id="edge22" class="edge">
<title>Node14&#45;&gt;Node3</title>
<path fill="none" stroke="#191970" d="M620.7497,-275.2997C613.7835,-253.6502 593.7669,-198.771 560.5415,-165 545.9942,-150.2138 525.6136,-138.9469 508.689,-131.3237"/>
<polygon fill="#191970" stroke="#191970" points="509.764,-127.9767 499.1936,-127.2572 507.0082,-134.4114 509.764,-127.9767"/>
</g>
<!-- Node15 -->
<g id="node16" class="node">
<title>Node15</title>
<g id="a_node16"><a xlink:title=" ">
<polygon fill="#ffffff" stroke="#bfbfbf" points="627.3149,-220.5 627.3149,-238.5 667.7681,-238.5 667.7681,-220.5 627.3149,-220.5"/>
<text text-anchor="middle" x="647.5415" y="-226.5" font-family="Helvetica,sans-Serif" font-size="10.00" fill="#000000">string</text>
</a>
</g>
</g>
<!-- Node14&#45;&gt;Node15 -->
<g id="edge21" class="edge">
<title>Node14&#45;&gt;Node15</title>
<path fill="none" stroke="#191970" d="M627.5046,-275.4179C630.7507,-267.9789 635.4489,-257.2123 639.4801,-247.9742"/>
<polygon fill="#191970" stroke="#191970" points="642.7007,-249.3447 643.4923,-238.7795 636.2849,-246.545 642.7007,-249.3447"/>
</g>
</g>
</svg>
