<?xml version="1.0" encoding="UTF-8" standalone="no"?>
<!DOCTYPE svg PUBLIC "-//W3C//DTD SVG 1.1//EN"
 "http://www.w3.org/Graphics/SVG/1.1/DTD/svg11.dtd">
<!-- Generated by graphviz version 2.40.1 (20161225.0304)
 -->
<!-- Title: MasterSamplerTopcXYZ Pages: 1 -->
<svg width="136pt" height="148pt"
 viewBox="0.00 0.00 135.78 148.00" xmlns="http://www.w3.org/2000/svg" xmlns:xlink="http://www.w3.org/1999/xlink">
<g id="graph0" class="graph" transform="scale(1 1) rotate(0) translate(4 144)">
<title>MasterSamplerTopcXYZ</title>
<polygon fill="#ffffff" stroke="transparent" points="-4,4 -4,-144 131.7754,-144 131.7754,4 -4,4"/>
<!-- Node2 -->
<g id="node1" class="node">
<title>Node2</title>
<g id="a_node1"><a xlink:title="Observable for calculating the plaquette, energy and euclidean time topological charge.">
<polygon fill="#bfbfbf" stroke="#000000" points="0,-.5 0,-18.5 124.3691,-18.5 124.3691,-.5 0,-.5"/>
<text text-anchor="middle" x="62.1846" y="-6.5" font-family="Helvetica,sans-Serif" font-size="10.00" fill="#000000">MasterSamplerTopcXYZ</text>
</a>
</g>
</g>
<!-- Node3 -->
<g id="node2" class="node">
<title>Node3</title>
<g id="a_node2"><a xlink:href="class_correlator.html" target="_top" xlink:title="base class for observables.">
<polygon fill="#ffffff" stroke="#000000" points="31.9556,-56.5 31.9556,-74.5 92.4136,-74.5 92.4136,-56.5 31.9556,-56.5"/>
<text text-anchor="middle" x="62.1846" y="-62.5" font-family="Helvetica,sans-Serif" font-size="10.00" fill="#000000">Correlator</text>
</a>
</g>
</g>
<!-- Node3&#45;&gt;Node2 -->
<g id="edge1" class="edge">
<title>Node3&#45;&gt;Node2</title>
<path fill="none" stroke="#191970" d="M62.1846,-46.2065C62.1846,-36.8384 62.1846,-26.0262 62.1846,-18.5752"/>
<polygon fill="#191970" stroke="#191970" points="58.6847,-46.2527 62.1846,-56.2527 65.6847,-46.2528 58.6847,-46.2527"/>
</g>
<!-- Node4 -->
<g id="node3" class="node">
<title>Node4</title>
<g id="a_node3"><a xlink:href="class_observable_storer.html" target="_top" xlink:title="A class for storing the observable data.">
<polygon fill="#ffffff" stroke="#000000" points="15,-121.5 15,-139.5 109.3691,-139.5 109.3691,-121.5 15,-121.5"/>
<text text-anchor="middle" x="62.1846" y="-127.5" font-family="Helvetica,sans-Serif" font-size="10.00" fill="#000000">ObservableStorer</text>
</a>
</g>
</g>
<!-- Node4&#45;&gt;Node3 -->
<g id="edge2" class="edge">
<title>Node4&#45;&gt;Node3</title>
<path fill="none" stroke="#9a32cd" stroke-dasharray="5,2" d="M62.1846,-111.1265C62.1846,-99.1522 62.1846,-84.3205 62.1846,-74.8821"/>
<polygon fill="#9a32cd" stroke="#9a32cd" points="58.6847,-111.462 62.1846,-121.462 65.6847,-111.4621 58.6847,-111.462"/>
<text text-anchor="middle" x="94.98" y="-95" font-family="Helvetica,sans-Serif" font-size="10.00" fill="#000000"> m_observable</text>
</g>
</g>
</svg>
