<?xml version="1.0" encoding="UTF-8" standalone="no"?>
<!DOCTYPE svg PUBLIC "-//W3C//DTD SVG 1.1//EN"
 "http://www.w3.org/Graphics/SVG/1.1/DTD/svg11.dtd">
<!-- Generated by graphviz version 2.40.1 (20161225.0304)
 -->
<!-- Title: Parameters::getLoadFieldConfigurations Pages: 1 -->
<svg width="520pt" height="102pt"
 viewBox="0.00 0.00 520.15 102.00" xmlns="http://www.w3.org/2000/svg" xmlns:xlink="http://www.w3.org/1999/xlink">
<g id="graph0" class="graph" transform="scale(1 1) rotate(0) translate(4 98)">
<title>Parameters::getLoadFieldConfigurations</title>
<polygon fill="#ffffff" stroke="transparent" points="-4,4 -4,-98 516.1514,-98 516.1514,4 -4,4"/>
<!-- Node146 -->
<g id="node1" class="node">
<title>Node146</title>
<g id="a_node1"><a xlink:title=" ">
<polygon fill="#bfbfbf" stroke="#000000" points="381.0879,-32.5 381.0879,-60.5 512.1514,-60.5 512.1514,-32.5 381.0879,-32.5"/>
<text text-anchor="start" x="389.0879" y="-48.5" font-family="Helvetica,sans-Serif" font-size="10.00" fill="#000000">Parameters::getLoadField</text>
<text text-anchor="middle" x="446.6196" y="-38.5" font-family="Helvetica,sans-Serif" font-size="10.00" fill="#000000">Configurations</text>
</a>
</g>
</g>
<!-- Node147 -->
<g id="node2" class="node">
<title>Node147</title>
<g id="a_node2"><a xlink:href="class_sys_print.html#a4572572643f6f4685081a3ae419e5ca9" target="_top" xlink:title="SysPrint::printSystemInfo prints out parametesr from Parallel:Communicator and Parameters.">
<polygon fill="#ffffff" stroke="#000000" points="216.8271,-75.5 216.8271,-93.5 345.0879,-93.5 345.0879,-75.5 216.8271,-75.5"/>
<text text-anchor="middle" x="280.9575" y="-81.5" font-family="Helvetica,sans-Serif" font-size="10.00" fill="#000000">SysPrint::printSystemInfo</text>
</a>
</g>
</g>
<!-- Node146&#45;&gt;Node147 -->
<g id="edge1" class="edge">
<title>Node146&#45;&gt;Node147</title>
<path fill="none" stroke="#191970" d="M375.5976,-62.7912C356.6575,-67.1358 336.8763,-71.6732 320.3254,-75.4697"/>
<polygon fill="#191970" stroke="#191970" points="376.4395,-66.1891 385.4038,-60.5418 374.8744,-59.3663 376.4395,-66.1891"/>
</g>
<!-- Node148 -->
<g id="node3" class="node">
<title>Node148</title>
<g id="a_node3"><a xlink:href="class_system.html#a93c8a8258ac8f6382ec393bca1271011" target="_top" xlink:title="System::latticeSetup sets up the lattice geometry and allocates memory.">
<polygon fill="#ffffff" stroke="#000000" points="73.6748,-37.5 73.6748,-55.5 180.8271,-55.5 180.8271,-37.5 73.6748,-37.5"/>
<text text-anchor="middle" x="127.251" y="-43.5" font-family="Helvetica,sans-Serif" font-size="10.00" fill="#000000">System::latticeSetup</text>
</a>
</g>
</g>
<!-- Node146&#45;&gt;Node148 -->
<g id="edge4" class="edge">
<title>Node146&#45;&gt;Node148</title>
<path fill="none" stroke="#191970" d="M370.5505,-46.5C312.1571,-46.5 232.9845,-46.5 181.0371,-46.5"/>
<polygon fill="#191970" stroke="#191970" points="370.8335,-50.0001 380.8335,-46.5 370.8334,-43.0001 370.8335,-50.0001"/>
</g>
<!-- Node150 -->
<g id="node5" class="node">
<title>Node150</title>
<g id="a_node5"><a xlink:href="class_system.html#afa39feb75f96798930f4bfb48205f40b" target="_top" xlink:title="System::run based on passed parameters, does one of three things:">
<polygon fill="#ffffff" stroke="#000000" points="92.5762,-.5 92.5762,-18.5 161.9258,-18.5 161.9258,-.5 92.5762,-.5"/>
<text text-anchor="middle" x="127.251" y="-6.5" font-family="Helvetica,sans-Serif" font-size="10.00" fill="#000000">System::run</text>
</a>
</g>
</g>
<!-- Node146&#45;&gt;Node150 -->
<g id="edge5" class="edge">
<title>Node146&#45;&gt;Node150</title>
<path fill="none" stroke="#191970" d="M370.8939,-37.7269C304.9204,-30.0836 212.2278,-19.3449 162.3384,-13.565"/>
<polygon fill="#191970" stroke="#191970" points="370.4971,-41.2043 380.8335,-38.8784 371.3027,-34.2508 370.4971,-41.2043"/>
</g>
<!-- Node147&#45;&gt;Node148 -->
<g id="edge2" class="edge">
<title>Node147&#45;&gt;Node148</title>
<path fill="none" stroke="#191970" d="M234.7434,-73.0748C211.9887,-67.4492 184.9489,-60.7643 163.6818,-55.5066"/>
<polygon fill="#191970" stroke="#191970" points="233.9835,-76.4922 244.5312,-75.4945 235.6635,-69.6968 233.9835,-76.4922"/>
</g>
<!-- Node149 -->
<g id="node4" class="node">
<title>Node149</title>
<g id="a_node4"><a xlink:href="main_8cpp.html#a4e6f00a867970a9eedf47b88a27b9eea" target="_top" xlink:title="main loads in configurations and initiates program according to .json specifications.">
<polygon fill="#ffffff" stroke="#000000" points="0,-18.5 0,-36.5 37.6748,-36.5 37.6748,-18.5 0,-18.5"/>
<text text-anchor="middle" x="18.8374" y="-24.5" font-family="Helvetica,sans-Serif" font-size="10.00" fill="#000000">main</text>
</a>
</g>
</g>
<!-- Node148&#45;&gt;Node149 -->
<g id="edge3" class="edge">
<title>Node148&#45;&gt;Node149</title>
<path fill="none" stroke="#191970" d="M65.4535,-35.6697C55.3887,-33.9058 45.68,-32.2043 37.7526,-30.815"/>
<polygon fill="#191970" stroke="#191970" points="65.1302,-39.1663 75.5843,-37.4452 66.3386,-32.2714 65.1302,-39.1663"/>
</g>
<!-- Node150&#45;&gt;Node149 -->
<g id="edge6" class="edge">
<title>Node150&#45;&gt;Node149</title>
<path fill="none" stroke="#191970" d="M82.3449,-16.9558C66.802,-19.5364 50.2074,-22.2916 37.8806,-24.3382"/>
<polygon fill="#191970" stroke="#191970" points="83.0598,-20.3851 92.3515,-15.2944 81.9132,-13.4796 83.0598,-20.3851"/>
</g>
</g>
</svg>
