<?xml version="1.0" encoding="UTF-8" standalone="no"?>
<!DOCTYPE svg PUBLIC "-//W3C//DTD SVG 1.1//EN"
 "http://www.w3.org/Graphics/SVG/1.1/DTD/svg11.dtd">
<!-- Generated by graphviz version 2.40.1 (20161225.0304)
 -->
<!-- Title: MasterSamplerTopcXYZ::calculate Pages: 1 -->
<svg width="474pt" height="323pt"
 viewBox="0.00 0.00 473.90 323.00" xmlns="http://www.w3.org/2000/svg" xmlns:xlink="http://www.w3.org/1999/xlink">
<g id="graph0" class="graph" transform="scale(1 1) rotate(0) translate(4 319)">
<title>MasterSamplerTopcXYZ::calculate</title>
<polygon fill="#ffffff" stroke="transparent" points="-4,4 -4,-319 469.8984,-319 469.8984,4 -4,4"/>
<!-- Node14 -->
<g id="node1" class="node">
<title>Node14</title>
<g id="a_node1"><a xlink:title="Correlator::calculate calculates a observable.">
<polygon fill="#bfbfbf" stroke="#000000" points="0,-124.5 0,-152.5 124.3691,-152.5 124.3691,-124.5 0,-124.5"/>
<text text-anchor="start" x="8" y="-140.5" font-family="Helvetica,sans-Serif" font-size="10.00" fill="#000000">MasterSamplerTopcXYZ</text>
<text text-anchor="middle" x="62.1846" y="-130.5" font-family="Helvetica,sans-Serif" font-size="10.00" fill="#000000">::calculate</text>
</a>
</g>
</g>
<!-- Node15 -->
<g id="node2" class="node">
<title>Node15</title>
<g id="a_node2"><a xlink:href="lattice_8h.html#a53bbfaed8f54ee3a1db6f8049686ccdf" target="_top" xlink:title="shift copies the lattice L and shifts it in a specified lorentzVector direction DIR.">
<polygon fill="#ffffff" stroke="#000000" points="212.4272,-259.5 212.4272,-277.5 246.7671,-277.5 246.7671,-259.5 212.4272,-259.5"/>
<text text-anchor="middle" x="229.5972" y="-265.5" font-family="Helvetica,sans-Serif" font-size="10.00" fill="#000000">shift</text>
</a>
</g>
</g>
<!-- Node14&#45;&gt;Node15 -->
<g id="edge1" class="edge">
<title>Node14&#45;&gt;Node15</title>
<path fill="none" stroke="#191970" d="M70.5291,-152.6067C85.4369,-176.5392 118.9938,-224.9783 160.3691,-250.5 172.9624,-258.2679 188.8294,-262.7043 202.1948,-265.2275"/>
<polygon fill="#191970" stroke="#191970" points="201.8343,-268.7148 212.2669,-266.868 202.9597,-261.8059 201.8343,-268.7148"/>
</g>
<!-- Node20 -->
<g id="node7" class="node">
<title>Node20</title>
<g id="a_node7"><a xlink:href="lattice_8h.html#a491004d1505561625a8915464f3c6cab" target="_top" xlink:title=" ">
<polygon fill="#ffffff" stroke="#000000" points="215.0972,-222.5 215.0972,-240.5 244.0972,-240.5 244.0972,-222.5 215.0972,-222.5"/>
<text text-anchor="middle" x="229.5972" y="-228.5" font-family="Helvetica,sans-Serif" font-size="10.00" fill="#000000">inv</text>
</a>
</g>
</g>
<!-- Node14&#45;&gt;Node20 -->
<g id="edge6" class="edge">
<title>Node14&#45;&gt;Node20</title>
<path fill="none" stroke="#191970" d="M76.5637,-152.5012C94.6638,-169.3683 127.3947,-197.4351 160.3691,-213.5 174.3755,-220.3238 191.2806,-224.7824 204.879,-227.5551"/>
<polygon fill="#191970" stroke="#191970" points="204.4858,-231.042 214.9573,-229.4304 205.7663,-224.1601 204.4858,-231.042"/>
</g>
<!-- Node21 -->
<g id="node8" class="node">
<title>Node21</title>
<g id="a_node8"><a xlink:href="lattice_8h.html#a8267d6f1684a10b876409efeb6f66fe9" target="_top" xlink:title=" ">
<polygon fill="#ffffff" stroke="#000000" points="189.2705,-74.5 189.2705,-92.5 269.9238,-92.5 269.9238,-74.5 189.2705,-74.5"/>
<text text-anchor="middle" x="229.5972" y="-80.5" font-family="Helvetica,sans-Serif" font-size="10.00" fill="#000000">sumRealTrace</text>
</a>
</g>
</g>
<!-- Node14&#45;&gt;Node21 -->
<g id="edge8" class="edge">
<title>Node14&#45;&gt;Node21</title>
<path fill="none" stroke="#191970" d="M98.3042,-124.4357C116.7479,-117.464 139.6186,-109.1389 160.3691,-102.5 168.2176,-99.989 176.6297,-97.5076 184.7909,-95.2081"/>
<polygon fill="#191970" stroke="#191970" points="185.8618,-98.5434 194.5665,-92.5037 183.9952,-91.7968 185.8618,-98.5434"/>
</g>
<!-- Node22 -->
<g id="node9" class="node">
<title>Node22</title>
<g id="a_node9"><a xlink:href="lattice_8h.html#a0289122f97ef3c8e2dfc3bfaf5b8f52d" target="_top" xlink:title=" ">
<polygon fill="#ffffff" stroke="#000000" points="198.1621,-37.5 198.1621,-55.5 261.0322,-55.5 261.0322,-37.5 198.1621,-37.5"/>
<text text-anchor="middle" x="229.5972" y="-43.5" font-family="Helvetica,sans-Serif" font-size="10.00" fill="#000000">imagTrace</text>
</a>
</g>
</g>
<!-- Node14&#45;&gt;Node22 -->
<g id="edge9" class="edge">
<title>Node14&#45;&gt;Node22</title>
<path fill="none" stroke="#191970" d="M76.9198,-124.4023C95.12,-107.7395 127.6967,-80.2873 160.3691,-64.5 168.9911,-60.3339 178.6999,-57.0444 188.0585,-54.4815"/>
<polygon fill="#191970" stroke="#191970" points="189.1642,-57.8125 198.0082,-51.9785 187.4564,-51.024 189.1642,-57.8125"/>
</g>
<!-- Node23 -->
<g id="node10" class="node">
<title>Node23</title>
<g id="a_node10"><a xlink:href="lattice_8h.html#aa2ccd37933994e50a9c9669725ee0e9e" target="_top" xlink:title=" ">
<polygon fill="#ffffff" stroke="#000000" points="192.6958,-.5 192.6958,-18.5 266.4985,-18.5 266.4985,-.5 192.6958,-.5"/>
<text text-anchor="middle" x="229.5972" y="-6.5" font-family="Helvetica,sans-Serif" font-size="10.00" fill="#000000">subtractImag</text>
</a>
</g>
</g>
<!-- Node14&#45;&gt;Node23 -->
<g id="edge10" class="edge">
<title>Node14&#45;&gt;Node23</title>
<path fill="none" stroke="#191970" d="M70.8015,-124.1403C85.8757,-100.2944 119.3652,-52.6669 160.3691,-27.5 167.1411,-23.3436 174.8526,-20.1404 182.6109,-17.6736"/>
<polygon fill="#191970" stroke="#191970" points="183.7141,-20.9993 192.3959,-14.9265 181.822,-14.2598 183.7141,-20.9993"/>
</g>
<!-- Node24 -->
<g id="node11" class="node">
<title>Node24</title>
<g id="a_node11"><a xlink:href="lattice_8h.html#a19c12b39277c18bf341c75cc2929b314" target="_top" xlink:title=" ">
<polygon fill="#ffffff" stroke="#000000" points="196.8633,-185.5 196.8633,-203.5 262.3311,-203.5 262.3311,-185.5 196.8633,-185.5"/>
<text text-anchor="middle" x="229.5972" y="-191.5" font-family="Helvetica,sans-Serif" font-size="10.00" fill="#000000">sumSpatial</text>
</a>
</g>
</g>
<!-- Node14&#45;&gt;Node24 -->
<g id="edge11" class="edge">
<title>Node14&#45;&gt;Node24</title>
<path fill="none" stroke="#191970" d="M95.9197,-152.6614C114.7047,-160.2663 138.6234,-169.4905 160.3691,-176.5 168.8709,-179.2405 178.0604,-181.862 186.88,-184.215"/>
<polygon fill="#191970" stroke="#191970" points="186.0651,-187.6194 196.6241,-186.7496 187.8273,-180.8449 186.0651,-187.6194"/>
</g>
<!-- Node25 -->
<g id="node12" class="node">
<title>Node25</title>
<g id="a_node12"><a xlink:href="lattice_8h.html#ab2d48b63b79e5e5ee3ca25483fe98b3e" target="_top" xlink:title=" ">
<polygon fill="#ffffff" stroke="#000000" points="171.7607,-148.5 171.7607,-166.5 287.4336,-166.5 287.4336,-148.5 171.7607,-148.5"/>
<text text-anchor="middle" x="229.5972" y="-154.5" font-family="Helvetica,sans-Serif" font-size="10.00" fill="#000000">realTraceMultiplication</text>
</a>
</g>
</g>
<!-- Node14&#45;&gt;Node25 -->
<g id="edge13" class="edge">
<title>Node14&#45;&gt;Node25</title>
<path fill="none" stroke="#191970" d="M124.5228,-145.5749C136.5792,-146.9432 149.2693,-148.3834 161.4986,-149.7714"/>
<polygon fill="#191970" stroke="#191970" points="161.3079,-153.2721 171.6389,-150.9222 162.0974,-146.3168 161.3079,-153.2721"/>
</g>
<!-- Node28 -->
<g id="node15" class="node">
<title>Node28</title>
<g id="a_node15"><a xlink:href="lattice_8h.html#a2a635fe0bbbaca1e8903db8d3bf61f01" target="_top" xlink:title=" ">
<polygon fill="#ffffff" stroke="#000000" points="160.3691,-111.5 160.3691,-129.5 298.8252,-129.5 298.8252,-111.5 160.3691,-111.5"/>
<text text-anchor="middle" x="229.5972" y="-117.5" font-family="Helvetica,sans-Serif" font-size="10.00" fill="#000000">sumRealTraceMultiplication</text>
</a>
</g>
</g>
<!-- Node14&#45;&gt;Node28 -->
<g id="edge18" class="edge">
<title>Node14&#45;&gt;Node28</title>
<path fill="none" stroke="#191970" d="M124.5228,-131.7975C132.8751,-130.8994 141.5316,-129.9687 150.1283,-129.0444"/>
<polygon fill="#191970" stroke="#191970" points="150.6023,-132.5137 160.1708,-127.9646 149.8539,-125.5538 150.6023,-132.5137"/>
</g>
<!-- Node16 -->
<g id="node3" class="node">
<title>Node16</title>
<g id="a_node3"><a xlink:href="class_lattice.html#a5b4e162f06f7b4b90b4a9335ed2aabb5" target="_top" xlink:title="allocate method for allocating memory.">
<polygon fill="#ffffff" stroke="#000000" points="357.6182,-222.5 357.6182,-240.5 443.1055,-240.5 443.1055,-222.5 357.6182,-222.5"/>
<text text-anchor="middle" x="400.3618" y="-228.5" font-family="Helvetica,sans-Serif" font-size="10.00" fill="#000000">Lattice::allocate</text>
</a>
</g>
</g>
<!-- Node15&#45;&gt;Node16 -->
<g id="edge2" class="edge">
<title>Node15&#45;&gt;Node16</title>
<path fill="none" stroke="#191970" d="M246.9107,-264.7486C270.6031,-259.6152 314.1381,-250.1823 348.8018,-242.6716"/>
<polygon fill="#191970" stroke="#191970" points="349.748,-246.0479 358.78,-240.5096 348.2656,-239.2067 349.748,-246.0479"/>
</g>
<!-- Node17 -->
<g id="node4" class="node">
<title>Node17</title>
<g id="a_node4"><a xlink:href="class_parallel_1_1_index.html#ac406d7ceb12e986a66d64ef98fcef5d3" target="_top" xlink:title=" ">
<polygon fill="#ffffff" stroke="#000000" points="334.8252,-296.5 334.8252,-314.5 465.8984,-314.5 465.8984,-296.5 334.8252,-296.5"/>
<text text-anchor="middle" x="400.3618" y="-302.5" font-family="Helvetica,sans-Serif" font-size="10.00" fill="#000000">Parallel::Index::cubeIndex</text>
</a>
</g>
</g>
<!-- Node15&#45;&gt;Node17 -->
<g id="edge3" class="edge">
<title>Node15&#45;&gt;Node17</title>
<path fill="none" stroke="#191970" d="M246.9107,-272.2514C270.6031,-277.3848 314.1381,-286.8177 348.8018,-294.3284"/>
<polygon fill="#191970" stroke="#191970" points="348.2656,-297.7933 358.78,-296.4904 349.748,-290.9521 348.2656,-297.7933"/>
</g>
<!-- Node18 -->
<g id="node5" class="node">
<title>Node18</title>
<g id="a_node5"><a xlink:href="class_parallel_1_1_index.html#af31faeef1369fdc0997d1910e008bfe2" target="_top" xlink:title=" ">
<polygon fill="#ffffff" stroke="#000000" points="338.7168,-185.5 338.7168,-203.5 462.0068,-203.5 462.0068,-185.5 338.7168,-185.5"/>
<text text-anchor="middle" x="400.3618" y="-191.5" font-family="Helvetica,sans-Serif" font-size="10.00" fill="#000000">Parallel::Index::getIndex</text>
</a>
</g>
</g>
<!-- Node15&#45;&gt;Node18 -->
<g id="edge4" class="edge">
<title>Node15&#45;&gt;Node18</title>
<path fill="none" stroke="#191970" d="M246.8011,-266.6572C261.4424,-264.4954 282.6152,-259.9268 298.8252,-250.5 318.659,-238.9658 315.1536,-225.3088 334.8252,-213.5 338.7594,-211.1383 343.0034,-209.0563 347.3735,-207.2235"/>
<polygon fill="#191970" stroke="#191970" points="348.9297,-210.3783 357.0701,-203.5971 346.4777,-203.8218 348.9297,-210.3783"/>
</g>
<!-- Node19 -->
<g id="node6" class="node">
<title>Node19</title>
<g id="a_node6"><a xlink:href="class_parallel_1_1_neighbours.html#a84653f3e22436280ac5a4689a24e7146" target="_top" xlink:title="get returns the neighbourlist for the the calling processor/rank and the direction given py iProcDir.">
<polygon fill="#ffffff" stroke="#000000" points="337.6084,-259.5 337.6084,-277.5 463.1152,-277.5 463.1152,-259.5 337.6084,-259.5"/>
<text text-anchor="middle" x="400.3618" y="-265.5" font-family="Helvetica,sans-Serif" font-size="10.00" fill="#000000">Parallel::Neighbours::get</text>
</a>
</g>
</g>
<!-- Node15&#45;&gt;Node19 -->
<g id="edge5" class="edge">
<title>Node15&#45;&gt;Node19</title>
<path fill="none" stroke="#191970" d="M246.9107,-268.5C265.8729,-268.5 297.5457,-268.5 327.2079,-268.5"/>
<polygon fill="#191970" stroke="#191970" points="327.5918,-272.0001 337.5918,-268.5 327.5918,-265.0001 327.5918,-272.0001"/>
</g>
<!-- Node20&#45;&gt;Node16 -->
<g id="edge7" class="edge">
<title>Node20&#45;&gt;Node16</title>
<path fill="none" stroke="#191970" d="M244.1565,-231.5C266.7665,-231.5 311.4441,-231.5 347.2466,-231.5"/>
<polygon fill="#191970" stroke="#191970" points="347.5599,-235.0001 357.5599,-231.5 347.5599,-228.0001 347.5599,-235.0001"/>
</g>
<!-- Node24&#45;&gt;Node18 -->
<g id="edge12" class="edge">
<title>Node24&#45;&gt;Node18</title>
<path fill="none" stroke="#191970" d="M262.5223,-194.5C281.2647,-194.5 305.5129,-194.5 328.4341,-194.5"/>
<polygon fill="#191970" stroke="#191970" points="328.5006,-198.0001 338.5006,-194.5 328.5006,-191.0001 328.5006,-198.0001"/>
</g>
<!-- Node25&#45;&gt;Node16 -->
<g id="edge14" class="edge">
<title>Node25&#45;&gt;Node16</title>
<path fill="none" stroke="#191970" d="M276.0539,-166.5676C283.9536,-169.1278 291.8498,-172.3804 298.8252,-176.5 318.5808,-188.1677 315.0706,-201.8305 334.8252,-213.5 338.9269,-215.923 343.365,-218.0294 347.9313,-219.8589"/>
<polygon fill="#191970" stroke="#191970" points="346.823,-223.1795 357.4177,-223.2378 349.1718,-216.5853 346.823,-223.1795"/>
</g>
<!-- Node25&#45;&gt;Node18 -->
<g id="edge16" class="edge">
<title>Node25&#45;&gt;Node18</title>
<path fill="none" stroke="#191970" d="M271.3709,-166.5512C294.7155,-171.6093 324.0053,-177.9556 348.7719,-183.3219"/>
<polygon fill="#191970" stroke="#191970" points="348.2093,-186.7811 358.7237,-185.4782 349.6917,-179.9399 348.2093,-186.7811"/>
</g>
<!-- Node26 -->
<g id="node13" class="node">
<title>Node26</title>
<g id="a_node13"><a xlink:href="class_lattice.html#a1e8bfb54f85e78f2c97e8b90d2b47dc9" target="_top" xlink:title="zeros sets all of the SU3 elements in the lattice to zero.">
<polygon fill="#ffffff" stroke="#000000" points="362.6255,-148.5 362.6255,-166.5 438.0981,-166.5 438.0981,-148.5 362.6255,-148.5"/>
<text text-anchor="middle" x="400.3618" y="-154.5" font-family="Helvetica,sans-Serif" font-size="10.00" fill="#000000">Lattice::zeros</text>
</a>
</g>
</g>
<!-- Node25&#45;&gt;Node26 -->
<g id="edge15" class="edge">
<title>Node25&#45;&gt;Node26</title>
<path fill="none" stroke="#191970" d="M287.8871,-157.5C308.8678,-157.5 332.2835,-157.5 352.2947,-157.5"/>
<polygon fill="#191970" stroke="#191970" points="352.4181,-161.0001 362.4181,-157.5 352.418,-154.0001 352.4181,-161.0001"/>
</g>
<!-- Node27 -->
<g id="node14" class="node">
<title>Node27</title>
<g id="a_node14"><a xlink:href="functions_8h.html#a93863171e3da962b61804144857576a7" target="_top" xlink:title="traceRealMultiplication">
<polygon fill="#ffffff" stroke="#000000" points="342.0615,-111.5 342.0615,-129.5 458.6621,-129.5 458.6621,-111.5 342.0615,-111.5"/>
<text text-anchor="middle" x="400.3618" y="-117.5" font-family="Helvetica,sans-Serif" font-size="10.00" fill="#000000">traceRealMultiplication</text>
</a>
</g>
</g>
<!-- Node25&#45;&gt;Node27 -->
<g id="edge17" class="edge">
<title>Node25&#45;&gt;Node27</title>
<path fill="none" stroke="#191970" d="M271.3709,-148.4488C294.7155,-143.3907 324.0053,-137.0444 348.7719,-131.6781"/>
<polygon fill="#191970" stroke="#191970" points="349.6917,-135.0601 358.7237,-129.5218 348.2093,-128.2189 349.6917,-135.0601"/>
</g>
<!-- Node28&#45;&gt;Node27 -->
<g id="edge19" class="edge">
<title>Node28&#45;&gt;Node27</title>
<path fill="none" stroke="#191970" d="M299.0537,-120.5C309.8298,-120.5 320.9569,-120.5 331.715,-120.5"/>
<polygon fill="#191970" stroke="#191970" points="331.893,-124.0001 341.8929,-120.5 331.8929,-117.0001 331.893,-124.0001"/>
</g>
</g>
</svg>
