<?xml version="1.0" encoding="UTF-8" standalone="no"?>
<!DOCTYPE svg PUBLIC "-//W3C//DTD SVG 1.1//EN"
 "http://www.w3.org/Graphics/SVG/1.1/DTD/svg11.dtd">
<!-- Generated by graphviz version 2.40.1 (20161225.0304)
 -->
<!-- Title: Parallel::Communicator::getNumProc Pages: 1 -->
<svg width="617pt" height="641pt"
 viewBox="0.00 0.00 617.39 640.91" xmlns="http://www.w3.org/2000/svg" xmlns:xlink="http://www.w3.org/1999/xlink">
<g id="graph0" class="graph" transform="scale(1 1) rotate(0) translate(4 636.9104)">
<title>Parallel::Communicator::getNumProc</title>
<polygon fill="#ffffff" stroke="transparent" points="-4,4 -4,-636.9104 613.3877,-636.9104 613.3877,4 -4,4"/>
<!-- Node48 -->
<g id="node1" class="node">
<title>Node48</title>
<g id="a_node1"><a xlink:title=" ">
<polygon fill="#bfbfbf" stroke="#000000" points="489.4619,-411.5 489.4619,-439.5 609.3877,-439.5 609.3877,-411.5 489.4619,-411.5"/>
<text text-anchor="start" x="497.4619" y="-427.5" font-family="Helvetica,sans-Serif" font-size="10.00" fill="#000000">Parallel::Communicator</text>
<text text-anchor="middle" x="549.4248" y="-417.5" font-family="Helvetica,sans-Serif" font-size="10.00" fill="#000000">::getNumProc</text>
</a>
</g>
</g>
<!-- Node49 -->
<g id="node2" class="node">
<title>Node49</title>
<g id="a_node2"><a xlink:href="namespace_config_loader.html#a26cf01adba9411ef1fa006d5068d7cc4" target="_top" xlink:title="load">
<polygon fill="#ffffff" stroke="#000000" points="115.3423,-579.5 115.3423,-597.5 215.8491,-597.5 215.8491,-579.5 115.3423,-579.5"/>
<text text-anchor="middle" x="165.5957" y="-585.5" font-family="Helvetica,sans-Serif" font-size="10.00" fill="#000000">ConfigLoader::load</text>
</a>
</g>
</g>
<!-- Node48&#45;&gt;Node49 -->
<g id="edge1" class="edge">
<title>Node48&#45;&gt;Node49</title>
<path fill="none" stroke="#191970" d="M544.9738,-449.4402C535.9327,-490.3584 511.1609,-572.6946 453.4619,-607.5 366.616,-659.8875 237.0435,-617.5079 186.6792,-597.5066"/>
<polygon fill="#191970" stroke="#191970" points="548.4261,-450.0292 547.033,-439.5264 541.5724,-448.6056 548.4261,-450.0292"/>
</g>
<!-- Node51 -->
<g id="node4" class="node">
<title>Node51</title>
<g id="a_node4"><a xlink:href="class_parameters.html#ace3967a0ee49901f55e9de69e0a96117" target="_top" xlink:title=" ">
<polygon fill="#ffffff" stroke="#000000" points="295.4575,-579.5 295.4575,-597.5 451.521,-597.5 451.521,-579.5 295.4575,-579.5"/>
<text text-anchor="middle" x="373.4893" y="-585.5" font-family="Helvetica,sans-Serif" font-size="10.00" fill="#000000">Parameters::setMetropolisSeed</text>
</a>
</g>
</g>
<!-- Node48&#45;&gt;Node51 -->
<g id="edge3" class="edge">
<title>Node48&#45;&gt;Node51</title>
<path fill="none" stroke="#191970" d="M540.3918,-449.315C526.7327,-481.9637 497.636,-540.0335 453.4619,-570.5 448.19,-574.136 442.3004,-577.0499 436.1732,-579.3832"/>
<polygon fill="#191970" stroke="#191970" points="543.7854,-450.2583 544.2836,-439.6752 537.2944,-447.6377 543.7854,-450.2583"/>
</g>
<!-- Node52 -->
<g id="node5" class="node">
<title>Node52</title>
<g id="a_node5"><a xlink:href="class_sys_print.html#a4572572643f6f4685081a3ae419e5ca9" target="_top" xlink:title=" ">
<polygon fill="#ffffff" stroke="#000000" points="309.3589,-542.5 309.3589,-560.5 437.6196,-560.5 437.6196,-542.5 309.3589,-542.5"/>
<text text-anchor="middle" x="373.4893" y="-548.5" font-family="Helvetica,sans-Serif" font-size="10.00" fill="#000000">SysPrint::printSystemInfo</text>
</a>
</g>
</g>
<!-- Node48&#45;&gt;Node52 -->
<g id="edge5" class="edge">
<title>Node48&#45;&gt;Node52</title>
<path fill="none" stroke="#191970" d="M535.6425,-448.0712C519.224,-472.9588 489.4441,-512.2787 453.4619,-533.5 447.2102,-537.1871 440.2754,-540.1195 433.1778,-542.4516"/>
<polygon fill="#191970" stroke="#191970" points="538.6143,-449.9207 541.0736,-439.6152 532.7245,-446.1378 538.6143,-449.9207"/>
</g>
<!-- Node54 -->
<g id="node7" class="node">
<title>Node54</title>
<g id="a_node7"><a xlink:href="class_i_o_1_1_field_i_o.html#a44dc4aa1786974c091082c5b37be73a1" target="_top" xlink:title=" ">
<polygon fill="#ffffff" stroke="#000000" points="303.8071,-505.5 303.8071,-523.5 443.1714,-523.5 443.1714,-505.5 303.8071,-505.5"/>
<text text-anchor="middle" x="373.4893" y="-511.5" font-family="Helvetica,sans-Serif" font-size="10.00" fill="#000000">IO::FieldIO::writeFieldToFile</text>
</a>
</g>
</g>
<!-- Node48&#45;&gt;Node54 -->
<g id="edge8" class="edge">
<title>Node48&#45;&gt;Node54</title>
<path fill="none" stroke="#191970" d="M526.6189,-446.6897C508.2018,-462.6775 480.9165,-483.9358 453.4619,-496.5 445.4387,-500.1717 436.6109,-503.1208 427.8389,-505.4818"/>
<polygon fill="#191970" stroke="#191970" points="529.267,-449.0193 534.4255,-439.765 524.6219,-443.7825 529.267,-449.0193"/>
</g>
<!-- Node55 -->
<g id="node8" class="node">
<title>Node55</title>
<g id="a_node8"><a xlink:href="class_i_o_1_1_field_i_o.html#a4bfe0fd7890fe69b88fbbe3864fd00ae" target="_top" xlink:title=" ">
<polygon fill="#ffffff" stroke="#000000" points="309.6372,-458.5 309.6372,-486.5 437.3413,-486.5 437.3413,-458.5 309.6372,-458.5"/>
<text text-anchor="start" x="317.6372" y="-474.5" font-family="Helvetica,sans-Serif" font-size="10.00" fill="#000000">IO::FieldIO::writeDoubles</text>
<text text-anchor="middle" x="373.4893" y="-464.5" font-family="Helvetica,sans-Serif" font-size="10.00" fill="#000000">FieldToFile</text>
</a>
</g>
</g>
<!-- Node48&#45;&gt;Node55 -->
<g id="edge9" class="edge">
<title>Node48&#45;&gt;Node55</title>
<path fill="none" stroke="#191970" d="M486.7337,-442.2475C466.8298,-447.5647 445.0392,-453.3859 425.9351,-458.4894"/>
<polygon fill="#191970" stroke="#191970" points="487.8805,-445.564 496.6383,-439.6015 486.0738,-438.8011 487.8805,-445.564"/>
</g>
<!-- Node57 -->
<g id="node10" class="node">
<title>Node57</title>
<g id="a_node10"><a xlink:href="class_lattice_action_charge_density.html#abb7db718d4069faab0ed19f31aa85ad4" target="_top" xlink:title=" ">
<polygon fill="#ffffff" stroke="#000000" points="303.79,-411.5 303.79,-439.5 443.1885,-439.5 443.1885,-411.5 303.79,-411.5"/>
<text text-anchor="start" x="311.79" y="-427.5" font-family="Helvetica,sans-Serif" font-size="10.00" fill="#000000">LatticeActionChargeDensity</text>
<text text-anchor="middle" x="373.4893" y="-417.5" font-family="Helvetica,sans-Serif" font-size="10.00" fill="#000000">::printObservable</text>
</a>
</g>
</g>
<!-- Node48&#45;&gt;Node57 -->
<g id="edge11" class="edge">
<title>Node48&#45;&gt;Node57</title>
<path fill="none" stroke="#191970" d="M479.1293,-425.5C467.3207,-425.5 455.069,-425.5 443.2734,-425.5"/>
<polygon fill="#191970" stroke="#191970" points="479.3699,-429.0001 489.3698,-425.5 479.3698,-422.0001 479.3699,-429.0001"/>
</g>
<!-- Node58 -->
<g id="node11" class="node">
<title>Node58</title>
<g id="a_node11"><a xlink:href="class_master_sampler.html#a41853c3e4ab52fca7d93cf80e8702b7a" target="_top" xlink:title=" ">
<polygon fill="#ffffff" stroke="#000000" points="293.5166,-374.5 293.5166,-392.5 453.4619,-392.5 453.4619,-374.5 293.5166,-374.5"/>
<text text-anchor="middle" x="373.4893" y="-380.5" font-family="Helvetica,sans-Serif" font-size="10.00" fill="#000000">MasterSampler::printObservable</text>
</a>
</g>
</g>
<!-- Node48&#45;&gt;Node58 -->
<g id="edge12" class="edge">
<title>Node48&#45;&gt;Node58</title>
<path fill="none" stroke="#191970" d="M481.0755,-409.1008C471.7957,-406.8794 462.3955,-404.6318 453.4619,-402.5 439.8587,-399.2539 424.9508,-395.7087 411.7306,-392.5691"/>
<polygon fill="#191970" stroke="#191970" points="480.5297,-412.5689 491.0699,-411.4942 482.16,-405.7614 480.5297,-412.5689"/>
</g>
<!-- Node59 -->
<g id="node12" class="node">
<title>Node59</title>
<g id="a_node12"><a xlink:href="class_master_sampler_topc_x_y_z.html#ab2312c9e9dc1e9deeb5bce36784372ac" target="_top" xlink:title=" ">
<polygon fill="#ffffff" stroke="#000000" points="311.3047,-327.5 311.3047,-355.5 435.6738,-355.5 435.6738,-327.5 311.3047,-327.5"/>
<text text-anchor="start" x="319.3047" y="-343.5" font-family="Helvetica,sans-Serif" font-size="10.00" fill="#000000">MasterSamplerTopcXYZ</text>
<text text-anchor="middle" x="373.4893" y="-333.5" font-family="Helvetica,sans-Serif" font-size="10.00" fill="#000000">::printObservable</text>
</a>
</g>
</g>
<!-- Node48&#45;&gt;Node59 -->
<g id="edge13" class="edge">
<title>Node48&#45;&gt;Node59</title>
<path fill="none" stroke="#191970" d="M522.1457,-405.6868C503.5167,-392.862 477.8764,-376.5543 453.4619,-365.5 445.2746,-361.793 436.3622,-358.4738 427.5563,-355.5721"/>
<polygon fill="#191970" stroke="#191970" points="520.2352,-408.6217 530.4363,-411.4833 524.2463,-402.8848 520.2352,-408.6217"/>
</g>
<!-- Node60 -->
<g id="node13" class="node">
<title>Node60</title>
<g id="a_node13"><a xlink:href="class_super_sampler.html#adf92b9281ee9a782e6c00424dd23451d" target="_top" xlink:title=" ">
<polygon fill="#ffffff" stroke="#000000" points="295.4551,-290.5 295.4551,-308.5 451.5234,-308.5 451.5234,-290.5 295.4551,-290.5"/>
<text text-anchor="middle" x="373.4893" y="-296.5" font-family="Helvetica,sans-Serif" font-size="10.00" fill="#000000">SuperSampler::printObservable</text>
</a>
</g>
</g>
<!-- Node48&#45;&gt;Node60 -->
<g id="edge14" class="edge">
<title>Node48&#45;&gt;Node60</title>
<path fill="none" stroke="#191970" d="M535.2804,-402.8215C518.7211,-378.2165 488.9905,-339.6278 453.4619,-318.5 446.4705,-314.3424 438.6277,-311.0943 430.6593,-308.5568"/>
<polygon fill="#191970" stroke="#191970" points="532.3611,-404.7524 540.7716,-411.1956 538.2148,-400.9139 532.3611,-404.7524"/>
</g>
<!-- Node61 -->
<g id="node14" class="node">
<title>Node61</title>
<g id="a_node14"><a xlink:href="class_observable_storer.html#a593f13b0dd0f9d20608ef6b84fda3f1d" target="_top" xlink:title=" ">
<polygon fill="#ffffff" stroke="#000000" points="309.3491,-243.5 309.3491,-271.5 437.6294,-271.5 437.6294,-243.5 309.3491,-243.5"/>
<text text-anchor="start" x="317.3491" y="-259.5" font-family="Helvetica,sans-Serif" font-size="10.00" fill="#000000">ObservableStorer::gather</text>
<text text-anchor="middle" x="373.4893" y="-249.5" font-family="Helvetica,sans-Serif" font-size="10.00" fill="#000000">Results</text>
</a>
</g>
</g>
<!-- Node48&#45;&gt;Node61 -->
<g id="edge15" class="edge">
<title>Node48&#45;&gt;Node61</title>
<path fill="none" stroke="#191970" d="M539.8256,-401.7869C525.6671,-369.7754 496.1667,-313.1141 453.4619,-281.5 448.2191,-277.6188 442.3483,-274.3604 436.2325,-271.626"/>
<polygon fill="#191970" stroke="#191970" points="536.7252,-403.4378 543.8807,-411.2511 543.1594,-400.6808 536.7252,-403.4378"/>
</g>
<!-- Node73 -->
<g id="node26" class="node">
<title>Node73</title>
<g id="a_node26"><a xlink:href="class_test_suite.html#af7291e6d8b53443604ee0c1fcf1fadfc" target="_top" xlink:title=" ">
<polygon fill="#ffffff" stroke="#000000" points="321.5781,-206.5 321.5781,-224.5 425.4004,-224.5 425.4004,-206.5 321.5781,-206.5"/>
<text text-anchor="middle" x="373.4893" y="-212.5" font-family="Helvetica,sans-Serif" font-size="10.00" fill="#000000">TestSuite::TestSuite</text>
</a>
</g>
</g>
<!-- Node48&#45;&gt;Node73 -->
<g id="edge27" class="edge">
<title>Node48&#45;&gt;Node73</title>
<path fill="none" stroke="#191970" d="M544.3207,-401.5115C534.3349,-360.6627 508.2328,-277.8242 453.4619,-234.5 445.4034,-228.1256 435.5518,-223.8339 425.5532,-220.9576"/>
<polygon fill="#191970" stroke="#191970" points="540.9458,-402.4514 546.6205,-411.3984 547.7637,-400.8654 540.9458,-402.4514"/>
</g>
<!-- Node50 -->
<g id="node3" class="node">
<title>Node50</title>
<g id="a_node3"><a xlink:href="main_8cpp.html#a4e6f00a867970a9eedf47b88a27b9eea" target="_top" xlink:title=" ">
<polygon fill="#ffffff" stroke="#000000" points="0,-560.5 0,-578.5 37.6748,-578.5 37.6748,-560.5 0,-560.5"/>
<text text-anchor="middle" x="18.8374" y="-566.5" font-family="Helvetica,sans-Serif" font-size="10.00" fill="#000000">main</text>
</a>
</g>
</g>
<!-- Node49&#45;&gt;Node50 -->
<g id="edge2" class="edge">
<title>Node49&#45;&gt;Node50</title>
<path fill="none" stroke="#191970" d="M104.8992,-580.642C80.7779,-577.5191 54.7709,-574.1521 37.7347,-571.9465"/>
<polygon fill="#191970" stroke="#191970" points="104.7232,-584.1483 115.0898,-581.9613 105.622,-577.2062 104.7232,-584.1483"/>
</g>
<!-- Node51&#45;&gt;Node49 -->
<g id="edge4" class="edge">
<title>Node51&#45;&gt;Node49</title>
<path fill="none" stroke="#191970" d="M285.166,-588.5C261.5863,-588.5 236.9089,-588.5 216.1376,-588.5"/>
<polygon fill="#191970" stroke="#191970" points="285.1899,-592.0001 295.1899,-588.5 285.1898,-585.0001 285.1899,-592.0001"/>
</g>
<!-- Node53 -->
<g id="node6" class="node">
<title>Node53</title>
<g id="a_node6"><a xlink:href="class_system.html#a93c8a8258ac8f6382ec393bca1271011" target="_top" xlink:title=" ">
<polygon fill="#ffffff" stroke="#000000" points="112.0195,-542.5 112.0195,-560.5 219.1719,-560.5 219.1719,-542.5 112.0195,-542.5"/>
<text text-anchor="middle" x="165.5957" y="-548.5" font-family="Helvetica,sans-Serif" font-size="10.00" fill="#000000">System::latticeSetup</text>
</a>
</g>
</g>
<!-- Node52&#45;&gt;Node53 -->
<g id="edge6" class="edge">
<title>Node52&#45;&gt;Node53</title>
<path fill="none" stroke="#191970" d="M298.8523,-551.5C272.63,-551.5 243.6977,-551.5 219.5111,-551.5"/>
<polygon fill="#191970" stroke="#191970" points="299.1342,-555.0001 309.1342,-551.5 299.1341,-548.0001 299.1342,-555.0001"/>
</g>
<!-- Node53&#45;&gt;Node50 -->
<g id="edge7" class="edge">
<title>Node53&#45;&gt;Node50</title>
<path fill="none" stroke="#191970" d="M101.6408,-559.3441C78.5425,-562.1771 54.1774,-565.1655 37.9059,-567.1612"/>
<polygon fill="#191970" stroke="#191970" points="102.2822,-562.7918 111.7817,-558.1003 101.4299,-555.8438 102.2822,-562.7918"/>
</g>
<!-- Node56 -->
<g id="node9" class="node">
<title>Node56</title>
<g id="a_node9"><a xlink:href="class_lattice_action_charge_density.html#a3dddc75188042c645fbdd1c8b3e80c8a" target="_top" xlink:title=" ">
<polygon fill="#ffffff" stroke="#000000" points="95.8965,-477.5 95.8965,-505.5 235.2949,-505.5 235.2949,-477.5 95.8965,-477.5"/>
<text text-anchor="start" x="103.8965" y="-493.5" font-family="Helvetica,sans-Serif" font-size="10.00" fill="#000000">LatticeActionChargeDensity</text>
<text text-anchor="middle" x="165.5957" y="-483.5" font-family="Helvetica,sans-Serif" font-size="10.00" fill="#000000">::calculate</text>
</a>
</g>
</g>
<!-- Node55&#45;&gt;Node56 -->
<g id="edge10" class="edge">
<title>Node55&#45;&gt;Node56</title>
<path fill="none" stroke="#191970" d="M299.381,-479.273C278.6181,-481.1705 256.1199,-483.2267 235.6032,-485.1018"/>
<polygon fill="#191970" stroke="#191970" points="299.7781,-482.7514 309.418,-478.3557 299.1409,-475.7804 299.7781,-482.7514"/>
</g>
<!-- Node62 -->
<g id="node15" class="node">
<title>Node62</title>
<g id="a_node15"><a xlink:href="class_correlator.html#a35197b1d12b62ef30b79c0138a26456e" target="_top" xlink:title=" ">
<polygon fill="#ffffff" stroke="#000000" points="105.3569,-440.5 105.3569,-458.5 225.8345,-458.5 225.8345,-440.5 105.3569,-440.5"/>
<text text-anchor="middle" x="165.5957" y="-446.5" font-family="Helvetica,sans-Serif" font-size="10.00" fill="#000000">Correlator::runStatistics</text>
</a>
</g>
</g>
<!-- Node61&#45;&gt;Node62 -->
<g id="edge16" class="edge">
<title>Node61&#45;&gt;Node62</title>
<path fill="none" stroke="#191970" d="M300.3625,-275.4257C297.9149,-277.2595 295.6174,-279.2782 293.5166,-281.5 246.4139,-331.3175 307.0071,-384.0538 257.5166,-431.5 248.9475,-439.7152 237.7909,-444.7088 226.2194,-447.6501"/>
<polygon fill="#191970" stroke="#191970" points="302.5896,-278.16 309.1947,-269.876 298.8653,-272.2329 302.5896,-278.16"/>
</g>
<!-- Node63 -->
<g id="node16" class="node">
<title>Node63</title>
<g id="a_node16"><a xlink:href="class_correlator.html#a168512b2ce182d9478db47f100125fa6" target="_top" xlink:title=" ">
<polygon fill="#ffffff" stroke="#000000" points="83.4063,-393.5 83.4063,-421.5 247.7852,-421.5 247.7852,-393.5 83.4063,-393.5"/>
<text text-anchor="start" x="91.4063" y="-409.5" font-family="Helvetica,sans-Serif" font-size="10.00" fill="#000000">Correlator::writeFlowObservables</text>
<text text-anchor="middle" x="165.5957" y="-399.5" font-family="Helvetica,sans-Serif" font-size="10.00" fill="#000000">ToFile</text>
</a>
</g>
</g>
<!-- Node61&#45;&gt;Node63 -->
<g id="edge17" class="edge">
<title>Node61&#45;&gt;Node63</title>
<path fill="none" stroke="#191970" d="M300.4702,-275.8174C298.0091,-277.5445 295.6774,-279.4337 293.5166,-281.5 258.469,-315.0152 293.3317,-351.8063 257.5166,-384.5 253.7502,-387.9381 249.5481,-390.8809 245.071,-393.3977"/>
<polygon fill="#191970" stroke="#191970" points="302.4924,-278.6861 309.2758,-270.5475 298.8977,-272.6796 302.4924,-278.6861"/>
</g>
<!-- Node64 -->
<g id="node17" class="node">
<title>Node64</title>
<g id="a_node17"><a xlink:href="class_energy_density.html#a584e164453ce880a45478c9b48ce2c4b" target="_top" xlink:title=" ">
<polygon fill="#ffffff" stroke="#000000" points="95.0713,-356.5 95.0713,-374.5 236.1201,-374.5 236.1201,-356.5 95.0713,-356.5"/>
<text text-anchor="middle" x="165.5957" y="-362.5" font-family="Helvetica,sans-Serif" font-size="10.00" fill="#000000">EnergyDensity::runStatistics</text>
</a>
</g>
</g>
<!-- Node61&#45;&gt;Node64 -->
<g id="edge18" class="edge">
<title>Node61&#45;&gt;Node64</title>
<path fill="none" stroke="#191970" d="M300.7036,-276.3905C298.1934,-277.9598 295.7858,-279.6594 293.5166,-281.5 267.5669,-302.549 284.4679,-327.7497 257.5166,-347.5 251.2206,-352.1138 244.054,-355.6302 236.5646,-358.2986"/>
<polygon fill="#191970" stroke="#191970" points="302.4831,-279.4066 309.5813,-271.5411 299.1274,-273.2634 302.4831,-279.4066"/>
</g>
<!-- Node65 -->
<g id="node18" class="node">
<title>Node65</title>
<g id="a_node18"><a xlink:href="class_lattice_action_charge_density.html#a54226556dc1497c311e4a4d50bf44c26" target="_top" xlink:title=" ">
<polygon fill="#ffffff" stroke="#000000" points="92.2979,-309.5 92.2979,-337.5 238.8936,-337.5 238.8936,-309.5 92.2979,-309.5"/>
<text text-anchor="start" x="100.2979" y="-325.5" font-family="Helvetica,sans-Serif" font-size="10.00" fill="#000000">LatticeActionChargeDensity</text>
<text text-anchor="middle" x="165.5957" y="-315.5" font-family="Helvetica,sans-Serif" font-size="10.00" fill="#000000">::writeFlowObservablesToFile</text>
</a>
</g>
</g>
<!-- Node61&#45;&gt;Node65 -->
<g id="edge19" class="edge">
<title>Node61&#45;&gt;Node65</title>
<path fill="none" stroke="#191970" d="M311.6415,-274.7456C305.4606,-276.8603 299.327,-279.1212 293.5166,-281.5 276.7737,-288.3546 274.4139,-294.0354 257.5166,-300.5 248.7589,-303.8505 239.344,-306.8493 229.9989,-309.4868"/>
<polygon fill="#191970" stroke="#191970" points="312.9507,-277.9994 321.3539,-271.5467 310.7609,-271.3507 312.9507,-277.9994"/>
</g>
<!-- Node66 -->
<g id="node19" class="node">
<title>Node66</title>
<g id="a_node19"><a xlink:href="class_master_sampler.html#ad475928217ac61fae134128904aaa9f8" target="_top" xlink:title=" ">
<polygon fill="#ffffff" stroke="#000000" points="99.8052,-262.5 99.8052,-290.5 231.3862,-290.5 231.3862,-262.5 99.8052,-262.5"/>
<text text-anchor="start" x="107.8052" y="-278.5" font-family="Helvetica,sans-Serif" font-size="10.00" fill="#000000">MasterSampler::writeFlow</text>
<text text-anchor="middle" x="165.5957" y="-268.5" font-family="Helvetica,sans-Serif" font-size="10.00" fill="#000000">ObservablesToFile</text>
</a>
</g>
</g>
<!-- Node61&#45;&gt;Node66 -->
<g id="edge20" class="edge">
<title>Node61&#45;&gt;Node66</title>
<path fill="none" stroke="#191970" d="M299.1296,-264.296C277.0215,-266.3165 252.9655,-268.515 231.4398,-270.4823"/>
<polygon fill="#191970" stroke="#191970" points="299.4942,-267.7773 309.1342,-263.3816 298.8571,-260.8064 299.4942,-267.7773"/>
</g>
<!-- Node67 -->
<g id="node20" class="node">
<title>Node67</title>
<g id="a_node20"><a xlink:href="class_master_sampler_topc_x_y_z.html#a4fba4290e4406e18ef3f2904c6ae364f" target="_top" xlink:title=" ">
<polygon fill="#ffffff" stroke="#000000" points="92.2979,-215.5 92.2979,-243.5 238.8936,-243.5 238.8936,-215.5 92.2979,-215.5"/>
<text text-anchor="start" x="100.2979" y="-231.5" font-family="Helvetica,sans-Serif" font-size="10.00" fill="#000000">MasterSamplerTopcXYZ</text>
<text text-anchor="middle" x="165.5957" y="-221.5" font-family="Helvetica,sans-Serif" font-size="10.00" fill="#000000">::writeFlowObservablesToFile</text>
</a>
</g>
</g>
<!-- Node61&#45;&gt;Node67 -->
<g id="edge21" class="edge">
<title>Node61&#45;&gt;Node67</title>
<path fill="none" stroke="#191970" d="M299.0863,-247.4791C279.5767,-244.8515 258.5529,-242.0199 239.0912,-239.3987"/>
<polygon fill="#191970" stroke="#191970" points="298.7564,-250.9662 309.1342,-248.8324 299.6909,-244.0288 298.7564,-250.9662"/>
</g>
<!-- Node68 -->
<g id="node21" class="node">
<title>Node68</title>
<g id="a_node21"><a xlink:href="class_master_sampler_topc_x_y_z.html#af748653ded9908f78383185475b9ddeb" target="_top" xlink:title=" ">
<polygon fill="#ffffff" stroke="#000000" points="103.4111,-168.5 103.4111,-196.5 227.7803,-196.5 227.7803,-168.5 103.4111,-168.5"/>
<text text-anchor="start" x="111.4111" y="-184.5" font-family="Helvetica,sans-Serif" font-size="10.00" fill="#000000">MasterSamplerTopcXYZ</text>
<text text-anchor="middle" x="165.5957" y="-174.5" font-family="Helvetica,sans-Serif" font-size="10.00" fill="#000000">::runStatistics</text>
</a>
</g>
</g>
<!-- Node61&#45;&gt;Node68 -->
<g id="edge22" class="edge">
<title>Node61&#45;&gt;Node68</title>
<path fill="none" stroke="#191970" d="M305.275,-239.8413C301.2329,-238.1941 297.2831,-236.4158 293.5166,-234.5 275.4497,-225.3103 275.6954,-215.4664 257.5166,-206.5 248.3455,-201.9765 238.2251,-198.2364 228.1531,-195.1655"/>
<polygon fill="#191970" stroke="#191970" points="304.2394,-243.1914 314.8311,-243.4497 306.7123,-236.6427 304.2394,-243.1914"/>
</g>
<!-- Node69 -->
<g id="node22" class="node">
<title>Node69</title>
<g id="a_node22"><a xlink:href="class_plaquette.html#aa54bf1807d9b192048026f94d585fa4f" target="_top" xlink:title=" ">
<polygon fill="#ffffff" stroke="#000000" points="106.458,-131.5 106.458,-149.5 224.7334,-149.5 224.7334,-131.5 106.458,-131.5"/>
<text text-anchor="middle" x="165.5957" y="-137.5" font-family="Helvetica,sans-Serif" font-size="10.00" fill="#000000">Plaquette::runStatistics</text>
</a>
</g>
</g>
<!-- Node61&#45;&gt;Node69 -->
<g id="edge23" class="edge">
<title>Node61&#45;&gt;Node69</title>
<path fill="none" stroke="#191970" d="M299.9343,-239.2676C297.6926,-237.7996 295.5441,-236.2135 293.5166,-234.5 265.2765,-210.6335 286.6454,-182.2733 257.5166,-159.5 248.1449,-152.173 236.6435,-147.4798 224.9891,-144.514"/>
<polygon fill="#191970" stroke="#191970" points="298.5528,-242.5064 308.9834,-244.3648 301.9883,-236.4075 298.5528,-242.5064"/>
</g>
<!-- Node70 -->
<g id="node23" class="node">
<title>Node70</title>
<g id="a_node23"><a xlink:href="class_super_sampler.html#a410b650ebccdb03519c88908a3a8013e" target="_top" xlink:title=" ">
<polygon fill="#ffffff" stroke="#000000" points="73.6748,-84.5 73.6748,-112.5 257.5166,-112.5 257.5166,-84.5 73.6748,-84.5"/>
<text text-anchor="start" x="81.6748" y="-100.5" font-family="Helvetica,sans-Serif" font-size="10.00" fill="#000000">SuperSampler::writeFlowObservables</text>
<text text-anchor="middle" x="165.5957" y="-90.5" font-family="Helvetica,sans-Serif" font-size="10.00" fill="#000000">ToFile</text>
</a>
</g>
</g>
<!-- Node61&#45;&gt;Node70 -->
<g id="edge24" class="edge">
<title>Node61&#45;&gt;Node70</title>
<path fill="none" stroke="#191970" d="M300.4157,-240.1839C297.9696,-238.4633 295.6559,-236.5741 293.5166,-234.5 255.977,-198.1049 295.5019,-158.4297 257.5166,-122.5 253.4426,-118.6465 248.8294,-115.3932 243.892,-112.6487"/>
<polygon fill="#191970" stroke="#191970" points="298.7995,-243.295 309.1815,-245.4081 302.3832,-237.2819 298.7995,-243.295"/>
</g>
<!-- Node71 -->
<g id="node24" class="node">
<title>Node71</title>
<g id="a_node24"><a xlink:href="class_super_sampler.html#af96f7d461e9159adb4eef9bda9c6ecde" target="_top" xlink:title=" ">
<polygon fill="#ffffff" stroke="#000000" points="95.6255,-47.5 95.6255,-65.5 235.5659,-65.5 235.5659,-47.5 95.6255,-47.5"/>
<text text-anchor="middle" x="165.5957" y="-53.5" font-family="Helvetica,sans-Serif" font-size="10.00" fill="#000000">SuperSampler::runStatistics</text>
</a>
</g>
</g>
<!-- Node61&#45;&gt;Node71 -->
<g id="edge25" class="edge">
<title>Node61&#45;&gt;Node71</title>
<path fill="none" stroke="#191970" d="M300.3407,-240.5397C297.8991,-238.7225 295.6087,-236.7158 293.5166,-234.5 243.7737,-181.8177 309.2304,-126.249 257.5166,-75.5 251.3522,-69.4506 243.8004,-65.0917 235.6998,-61.9826"/>
<polygon fill="#191970" stroke="#191970" points="298.8157,-243.7127 309.1572,-246.0158 302.5091,-237.7663 298.8157,-243.7127"/>
</g>
<!-- Node72 -->
<g id="node25" class="node">
<title>Node72</title>
<g id="a_node25"><a xlink:href="class_topological_charge.html#ab9afadb9f37e638c0a168ebab5d41353" target="_top" xlink:title=" ">
<polygon fill="#ffffff" stroke="#000000" points="113.4014,-.5 113.4014,-28.5 217.79,-28.5 217.79,-.5 113.4014,-.5"/>
<text text-anchor="start" x="121.4014" y="-16.5" font-family="Helvetica,sans-Serif" font-size="10.00" fill="#000000">TopologicalCharge::</text>
<text text-anchor="middle" x="165.5957" y="-6.5" font-family="Helvetica,sans-Serif" font-size="10.00" fill="#000000">runStatistics</text>
</a>
</g>
</g>
<!-- Node61&#45;&gt;Node72 -->
<g id="edge26" class="edge">
<title>Node61&#45;&gt;Node72</title>
<path fill="none" stroke="#191970" d="M300.3857,-240.7697C297.9151,-238.8911 295.6083,-236.8084 293.5166,-234.5 234.0449,-168.8688 317.7926,-103.3933 257.5166,-38.5 247.302,-27.503 232.7345,-21.2916 218.1993,-17.853"/>
<polygon fill="#191970" stroke="#191970" points="299.0148,-244.0421 309.3434,-246.4023 302.741,-238.1162 299.0148,-244.0421"/>
</g>
</g>
</svg>
