<?xml version="1.0" encoding="UTF-8" standalone="no"?>
<!DOCTYPE svg PUBLIC "-//W3C//DTD SVG 1.1//EN"
 "http://www.w3.org/Graphics/SVG/1.1/DTD/svg11.dtd">
<!-- Generated by graphviz version 2.40.1 (20161225.0304)
 -->
<!-- Title: System::System Pages: 1 -->
<svg width="309pt" height="427pt"
 viewBox="0.00 0.00 308.86 427.00" xmlns="http://www.w3.org/2000/svg" xmlns:xlink="http://www.w3.org/1999/xlink">
<g id="graph0" class="graph" transform="scale(1 1) rotate(0) translate(4 423)">
<title>System::System</title>
<polygon fill="#ffffff" stroke="transparent" points="-4,4 -4,-423 304.8613,-423 304.8613,4 -4,4"/>
<!-- Node0 -->
<g id="node1" class="node">
<title>Node0</title>
<g id="a_node1"><a xlink:title=" ">
<polygon fill="#bfbfbf" stroke="#000000" points="0,-205.5 0,-223.5 88.2363,-223.5 88.2363,-205.5 0,-205.5"/>
<text text-anchor="middle" x="44.1182" y="-211.5" font-family="Helvetica,sans-Serif" font-size="10.00" fill="#000000">System::System</text>
</a>
</g>
</g>
<!-- Node1 -->
<g id="node2" class="node">
<title>Node1</title>
<g id="a_node2"><a xlink:href="class_parallel_1_1_communicator.html#a474ab433da0e83ef372d74e26a7e5cb0" target="_top" xlink:title=" ">
<polygon fill="#ffffff" stroke="#000000" points="152.5859,-390.5 152.5859,-418.5 272.5117,-418.5 272.5117,-390.5 152.5859,-390.5"/>
<text text-anchor="start" x="160.5859" y="-406.5" font-family="Helvetica,sans-Serif" font-size="10.00" fill="#000000">Parallel::Communicator</text>
<text text-anchor="middle" x="212.5488" y="-396.5" font-family="Helvetica,sans-Serif" font-size="10.00" fill="#000000">::getProcessRank</text>
</a>
</g>
</g>
<!-- Node0&#45;&gt;Node1 -->
<g id="edge1" class="edge">
<title>Node0&#45;&gt;Node1</title>
<path fill="none" stroke="#191970" d="M45.7419,-223.7625C51.2054,-252.0718 71.6206,-338.1513 124.2363,-381.5 129.6587,-385.9673 135.8523,-389.5771 142.3873,-392.4924"/>
<polygon fill="#191970" stroke="#191970" points="141.5672,-395.9285 152.156,-396.2857 144.1011,-389.4032 141.5672,-395.9285"/>
</g>
<!-- Node2 -->
<g id="node3" class="node">
<title>Node2</title>
<g id="a_node3"><a xlink:href="class_parameters.html#a128ccc4cb31e9930a825cfd3b8e83d2e" target="_top" xlink:title=" ">
<polygon fill="#ffffff" stroke="#000000" points="144.5195,-353.5 144.5195,-371.5 280.5781,-371.5 280.5781,-353.5 144.5195,-353.5"/>
<text text-anchor="middle" x="212.5488" y="-359.5" font-family="Helvetica,sans-Serif" font-size="10.00" fill="#000000">Parameters::getLatticeSize</text>
</a>
</g>
</g>
<!-- Node0&#45;&gt;Node2 -->
<g id="edge2" class="edge">
<title>Node0&#45;&gt;Node2</title>
<path fill="none" stroke="#191970" d="M46.8556,-223.5107C54.6311,-247.4719 79.2482,-313.072 124.2363,-344.5 127.5333,-346.8032 131.0585,-348.8254 134.7329,-350.5998"/>
<polygon fill="#191970" stroke="#191970" points="133.5517,-353.8993 144.1284,-354.5188 136.2465,-347.4388 133.5517,-353.8993"/>
</g>
<!-- Node3 -->
<g id="node4" class="node">
<title>Node3</title>
<g id="a_node4"><a xlink:href="class_parameters.html#a03f8c0aa2a31b9bfc016441cb263082c" target="_top" xlink:title=" ">
<polygon fill="#ffffff" stroke="#000000" points="160.3667,-316.5 160.3667,-334.5 264.731,-334.5 264.731,-316.5 160.3667,-316.5"/>
<text text-anchor="middle" x="212.5488" y="-322.5" font-family="Helvetica,sans-Serif" font-size="10.00" fill="#000000">Parameters::getNCf</text>
</a>
</g>
</g>
<!-- Node0&#45;&gt;Node3 -->
<g id="edge3" class="edge">
<title>Node0&#45;&gt;Node3</title>
<path fill="none" stroke="#191970" d="M49.1525,-223.6583C60.0992,-242.6385 88.0212,-286.263 124.2363,-307.5 132.1662,-312.1502 141.1075,-315.614 150.1784,-318.1911"/>
<polygon fill="#191970" stroke="#191970" points="149.4801,-321.6241 160.0304,-320.6536 151.1776,-314.8331 149.4801,-321.6241"/>
</g>
<!-- Node4 -->
<g id="node5" class="node">
<title>Node4</title>
<g id="a_node5"><a xlink:href="class_parameters.html#a0fd902d5efcd8dce17dbc3ea4177820d" target="_top" xlink:title=" ">
<polygon fill="#ffffff" stroke="#000000" points="157.3101,-279.5 157.3101,-297.5 267.7876,-297.5 267.7876,-279.5 157.3101,-279.5"/>
<text text-anchor="middle" x="212.5488" y="-285.5" font-family="Helvetica,sans-Serif" font-size="10.00" fill="#000000">Parameters::getNCor</text>
</a>
</g>
</g>
<!-- Node0&#45;&gt;Node4 -->
<g id="edge4" class="edge">
<title>Node0&#45;&gt;Node4</title>
<path fill="none" stroke="#191970" d="M54.1686,-223.6092C68.588,-236.164 96.4793,-258.5825 124.2363,-270.5 131.5961,-273.6599 139.5434,-276.2758 147.5492,-278.4389"/>
<polygon fill="#191970" stroke="#191970" points="146.7593,-281.849 157.3077,-280.859 148.4442,-275.0548 146.7593,-281.849"/>
</g>
<!-- Node5 -->
<g id="node6" class="node">
<title>Node5</title>
<g id="a_node6"><a xlink:href="class_parameters.html#ad1f56cc1bb6c19f40454b30a5bc82da6" target="_top" xlink:title=" ">
<polygon fill="#ffffff" stroke="#000000" points="150.9209,-242.5 150.9209,-260.5 274.1768,-260.5 274.1768,-242.5 150.9209,-242.5"/>
<text text-anchor="middle" x="212.5488" y="-248.5" font-family="Helvetica,sans-Serif" font-size="10.00" fill="#000000">Parameters::getNTherm</text>
</a>
</g>
</g>
<!-- Node0&#45;&gt;Node5 -->
<g id="edge5" class="edge">
<title>Node0&#45;&gt;Node5</title>
<path fill="none" stroke="#191970" d="M81.1577,-223.5432C94.6917,-226.779 110.1367,-230.392 124.2363,-233.5 134.6581,-235.7972 145.795,-238.148 156.5264,-240.3608"/>
<polygon fill="#191970" stroke="#191970" points="156.1556,-243.8574 166.6544,-242.4338 157.5593,-236.9996 156.1556,-243.8574"/>
</g>
<!-- Node6 -->
<g id="node7" class="node">
<title>Node6</title>
<g id="a_node7"><a xlink:href="class_parameters.html#ac10d294b56c295bdc7e8ea4fdccb917e" target="_top" xlink:title=" ">
<polygon fill="#ffffff" stroke="#000000" points="146.7437,-205.5 146.7437,-223.5 278.354,-223.5 278.354,-205.5 146.7437,-205.5"/>
<text text-anchor="middle" x="212.5488" y="-211.5" font-family="Helvetica,sans-Serif" font-size="10.00" fill="#000000">Parameters::getNUpdates</text>
</a>
</g>
</g>
<!-- Node0&#45;&gt;Node6 -->
<g id="edge6" class="edge">
<title>Node0&#45;&gt;Node6</title>
<path fill="none" stroke="#191970" d="M88.3713,-214.5C103.1422,-214.5 120.0481,-214.5 136.5313,-214.5"/>
<polygon fill="#191970" stroke="#191970" points="136.7168,-218.0001 146.7168,-214.5 136.7168,-211.0001 136.7168,-218.0001"/>
</g>
<!-- Node7 -->
<g id="node8" class="node">
<title>Node7</title>
<g id="a_node8"><a xlink:href="class_parameters.html#aae314edb18d426571ab7b6df60da70aa" target="_top" xlink:title=" ">
<polygon fill="#ffffff" stroke="#000000" points="152.3101,-168.5 152.3101,-186.5 272.7876,-186.5 272.7876,-168.5 152.3101,-168.5"/>
<text text-anchor="middle" x="212.5488" y="-174.5" font-family="Helvetica,sans-Serif" font-size="10.00" fill="#000000">Parameters::getNFlows</text>
</a>
</g>
</g>
<!-- Node0&#45;&gt;Node7 -->
<g id="edge7" class="edge">
<title>Node0&#45;&gt;Node7</title>
<path fill="none" stroke="#191970" d="M84.0395,-205.456C96.8697,-202.5695 111.1483,-199.3781 124.2363,-196.5 135.9633,-193.9212 148.5749,-191.1855 160.4931,-188.6173"/>
<polygon fill="#191970" stroke="#191970" points="161.2662,-192.0312 170.3066,-186.5066 159.7942,-185.1877 161.2662,-192.0312"/>
</g>
<!-- Node8 -->
<g id="node9" class="node">
<title>Node8</title>
<g id="a_node9"><a xlink:href="class_parameters.html#a216f85b3c5980a33f8a54c42fb3575c7" target="_top" xlink:title=" ">
<polygon fill="#ffffff" stroke="#000000" points="124.2363,-121.5 124.2363,-149.5 300.8613,-149.5 300.8613,-121.5 124.2363,-121.5"/>
<text text-anchor="start" x="132.2363" y="-137.5" font-family="Helvetica,sans-Serif" font-size="10.00" fill="#000000">Parameters::getStoreThermalization</text>
<text text-anchor="middle" x="212.5488" y="-127.5" font-family="Helvetica,sans-Serif" font-size="10.00" fill="#000000">Observables</text>
</a>
</g>
</g>
<!-- Node0&#45;&gt;Node8 -->
<g id="edge8" class="edge">
<title>Node0&#45;&gt;Node8</title>
<path fill="none" stroke="#191970" d="M54.8055,-205.3976C69.5258,-193.2912 97.2888,-171.9722 124.2363,-159.5 129.5014,-157.0631 135.0612,-154.8332 140.7247,-152.8006"/>
<polygon fill="#191970" stroke="#191970" points="141.9626,-156.0769 150.3198,-149.5648 139.7257,-149.4439 141.9626,-156.0769"/>
</g>
<!-- Node9 -->
<g id="node10" class="node">
<title>Node9</title>
<g id="a_node10"><a xlink:href="class_parameters.html#a38f06b562355b56a1b1222e1cfe6735a" target="_top" xlink:title=" ">
<polygon fill="#ffffff" stroke="#000000" points="124.7856,-84.5 124.7856,-102.5 300.312,-102.5 300.312,-84.5 124.7856,-84.5"/>
<text text-anchor="middle" x="212.5488" y="-90.5" font-family="Helvetica,sans-Serif" font-size="10.00" fill="#000000">Parameters::getStoreConfigurations</text>
</a>
</g>
</g>
<!-- Node0&#45;&gt;Node9 -->
<g id="edge9" class="edge">
<title>Node0&#45;&gt;Node9</title>
<path fill="none" stroke="#191970" d="M48.4593,-205.4185C58.6262,-185.196 86.0424,-136.3631 124.2363,-112.5 128.0809,-110.0979 132.1833,-107.9961 136.4362,-106.1573"/>
<polygon fill="#191970" stroke="#191970" points="137.8447,-109.3662 145.9453,-102.5375 135.3543,-102.8241 137.8447,-109.3662"/>
</g>
<!-- Node10 -->
<g id="node11" class="node">
<title>Node10</title>
<g id="a_node11"><a xlink:href="class_parameters.html#ae63389dad9d4564f4849137d2ab37df5" target="_top" xlink:title=" ">
<polygon fill="#ffffff" stroke="#000000" points="134.2363,-47.5 134.2363,-65.5 290.8613,-65.5 290.8613,-47.5 134.2363,-47.5"/>
<text text-anchor="middle" x="212.5488" y="-53.5" font-family="Helvetica,sans-Serif" font-size="10.00" fill="#000000">Parameters::getMetropolisSeed</text>
</a>
</g>
</g>
<!-- Node0&#45;&gt;Node10 -->
<g id="edge10" class="edge">
<title>Node0&#45;&gt;Node10</title>
<path fill="none" stroke="#191970" d="M46.5742,-205.2718C53.7897,-180.0599 77.42,-109.6285 124.2363,-75.5 127.1115,-73.404 130.1707,-71.5303 133.3587,-69.856"/>
<polygon fill="#191970" stroke="#191970" points="134.9776,-72.9649 142.6382,-65.6461 132.0855,-66.5903 134.9776,-72.9649"/>
</g>
<!-- Node11 -->
<g id="node12" class="node">
<title>Node11</title>
<g id="a_node12"><a xlink:href="class_parallel_1_1_communicator.html#ad48e48ab0137dab329d31fc1e3ebf179" target="_top" xlink:title=" ">
<polygon fill="#ffffff" stroke="#000000" points="152.5859,-.5 152.5859,-28.5 272.5117,-28.5 272.5117,-.5 152.5859,-.5"/>
<text text-anchor="start" x="160.5859" y="-16.5" font-family="Helvetica,sans-Serif" font-size="10.00" fill="#000000">Parallel::Communicator</text>
<text text-anchor="middle" x="212.5488" y="-6.5" font-family="Helvetica,sans-Serif" font-size="10.00" fill="#000000">::setBarrier</text>
</a>
</g>
</g>
<!-- Node0&#45;&gt;Node11 -->
<g id="edge11" class="edge">
<title>Node0&#45;&gt;Node11</title>
<path fill="none" stroke="#191970" d="M45.5283,-205.1913C50.4684,-175.8986 69.75,-84.8124 124.2363,-38.5 129.8126,-33.7603 136.2413,-29.9492 143.0352,-26.886"/>
<polygon fill="#191970" stroke="#191970" points="144.4651,-30.0844 152.4802,-23.1556 141.8936,-23.5739 144.4651,-30.0844"/>
</g>
</g>
</svg>
