<?xml version="1.0" encoding="UTF-8" standalone="no"?>
<!DOCTYPE svg PUBLIC "-//W3C//DTD SVG 1.1//EN"
 "http://www.w3.org/Graphics/SVG/1.1/DTD/svg11.dtd">
<!-- Generated by graphviz version 2.40.1 (20161225.0304)
 -->
<!-- Title: Parameters::getFilePath Pages: 1 -->
<svg width="766pt" height="460pt"
 viewBox="0.00 0.00 765.81 460.00" xmlns="http://www.w3.org/2000/svg" xmlns:xlink="http://www.w3.org/1999/xlink">
<g id="graph0" class="graph" transform="scale(1 1) rotate(0) translate(4 456)">
<title>Parameters::getFilePath</title>
<polygon fill="#ffffff" stroke="transparent" points="-4,4 -4,-456 761.8105,-456 761.8105,4 -4,4"/>
<!-- Node76 -->
<g id="node1" class="node">
<title>Node76</title>
<g id="a_node1"><a xlink:title=" ">
<polygon fill="#bfbfbf" stroke="#000000" points="633.9834,-232.5 633.9834,-250.5 757.8105,-250.5 757.8105,-232.5 633.9834,-232.5"/>
<text text-anchor="middle" x="695.897" y="-238.5" font-family="Helvetica,sans-Serif" font-size="10.00" fill="#000000">Parameters::getFilePath</text>
</a>
</g>
</g>
<!-- Node77 -->
<g id="node2" class="node">
<title>Node77</title>
<g id="a_node2"><a xlink:href="class_i_o_1_1_field_i_o.html#a8af607f9a1d79e90d4514c36103c6601" target="_top" xlink:title="IO::FieldIO::writeFieldToFile writes a lattice of SU3 matrix objects to file.">
<polygon fill="#ffffff" stroke="#000000" points="443.3188,-358.5 443.3188,-376.5 582.6831,-376.5 582.6831,-358.5 443.3188,-358.5"/>
<text text-anchor="middle" x="513.001" y="-364.5" font-family="Helvetica,sans-Serif" font-size="10.00" fill="#000000">IO::FieldIO::writeFieldToFile</text>
</a>
</g>
</g>
<!-- Node76&#45;&gt;Node77 -->
<g id="edge1" class="edge">
<title>Node76&#45;&gt;Node77</title>
<path fill="none" stroke="#191970" d="M684.8959,-259.4465C668.923,-283.8801 636.9219,-327.1259 597.9834,-349.5 591.576,-353.1817 584.508,-356.1134 577.2671,-358.4474"/>
<polygon fill="#191970" stroke="#191970" points="687.9788,-261.1209 690.3882,-250.8036 682.0707,-257.3665 687.9788,-261.1209"/>
</g>
<!-- Node78 -->
<g id="node3" class="node">
<title>Node78</title>
<g id="a_node3"><a xlink:href="class_i_o_1_1_field_i_o.html#aaf2bac2025d67c06e7c61e8cc9f44777" target="_top" xlink:title="IO::FieldIO::writeDoublesFieldToFile writes a lattice of doubles to file.">
<polygon fill="#ffffff" stroke="#000000" points="449.1489,-311.5 449.1489,-339.5 576.853,-339.5 576.853,-311.5 449.1489,-311.5"/>
<text text-anchor="start" x="457.1489" y="-327.5" font-family="Helvetica,sans-Serif" font-size="10.00" fill="#000000">IO::FieldIO::writeDoubles</text>
<text text-anchor="middle" x="513.001" y="-317.5" font-family="Helvetica,sans-Serif" font-size="10.00" fill="#000000">FieldToFile</text>
</a>
</g>
</g>
<!-- Node76&#45;&gt;Node78 -->
<g id="edge2" class="edge">
<title>Node76&#45;&gt;Node78</title>
<path fill="none" stroke="#191970" d="M675.6357,-256.6016C656.4862,-270.2578 626.5164,-290.0737 597.9834,-302.5 590.276,-305.8566 581.9578,-308.8326 573.647,-311.4365"/>
<polygon fill="#191970" stroke="#191970" points="677.8296,-259.3341 683.8711,-250.6306 673.7206,-253.667 677.8296,-259.3341"/>
</g>
<!-- Node80 -->
<g id="node5" class="node">
<title>Node80</title>
<g id="a_node5"><a xlink:href="class_i_o_1_1_field_i_o.html#a02db864a48601edd7febaab5d655e495" target="_top" xlink:title="IO::FieldIO::loadFieldConfiguration loads a regular configuration into memory.">
<polygon fill="#ffffff" stroke="#000000" points="428.0186,-274.5 428.0186,-292.5 597.9834,-292.5 597.9834,-274.5 428.0186,-274.5"/>
<text text-anchor="middle" x="513.001" y="-280.5" font-family="Helvetica,sans-Serif" font-size="10.00" fill="#000000">IO::FieldIO::loadFieldConfiguration</text>
</a>
</g>
</g>
<!-- Node76&#45;&gt;Node80 -->
<g id="edge4" class="edge">
<title>Node76&#45;&gt;Node80</title>
<path fill="none" stroke="#191970" d="M650.2406,-253.0085C633.7948,-257.0699 615.0808,-261.5949 597.9834,-265.5 584.7511,-268.5223 570.3192,-271.6443 557.1667,-274.4223"/>
<polygon fill="#191970" stroke="#191970" points="651.2896,-256.3545 660.1525,-250.5493 649.6039,-249.5604 651.2896,-256.3545"/>
</g>
<!-- Node81 -->
<g id="node6" class="node">
<title>Node81</title>
<g id="a_node6"><a xlink:href="class_i_o_1_1_field_i_o.html#af23fb6e02a6bd1cafd5be4acacbf848e" target="_top" xlink:title="IO::FieldIO::loadChromaFieldConfiguration loads a configuration from Chroma into memory.">
<polygon fill="#ffffff" stroke="#000000" points="439.9766,-227.5 439.9766,-255.5 586.0254,-255.5 586.0254,-227.5 439.9766,-227.5"/>
<text text-anchor="start" x="447.9766" y="-243.5" font-family="Helvetica,sans-Serif" font-size="10.00" fill="#000000">IO::FieldIO::loadChromaField</text>
<text text-anchor="middle" x="513.001" y="-233.5" font-family="Helvetica,sans-Serif" font-size="10.00" fill="#000000">Configuration</text>
</a>
</g>
</g>
<!-- Node76&#45;&gt;Node81 -->
<g id="edge5" class="edge">
<title>Node76&#45;&gt;Node81</title>
<path fill="none" stroke="#191970" d="M623.7542,-241.5C611.4222,-241.5 598.5994,-241.5 586.2393,-241.5"/>
<polygon fill="#191970" stroke="#191970" points="623.9768,-245.0001 633.9767,-241.5 623.9767,-238.0001 623.9768,-245.0001"/>
</g>
<!-- Node82 -->
<g id="node7" class="node">
<title>Node82</title>
<g id="a_node7"><a xlink:href="namespace_i_o.html#ad8cf5aef8f60d10b80292b69a091d5ac" target="_top" xlink:title="IO::writeObservablesToFile method for writing an observable to file, using .15 precision.">
<polygon fill="#ffffff" stroke="#000000" points="444.9814,-190.5 444.9814,-208.5 581.0205,-208.5 581.0205,-190.5 444.9814,-190.5"/>
<text text-anchor="middle" x="513.001" y="-196.5" font-family="Helvetica,sans-Serif" font-size="10.00" fill="#000000">IO::writeObservablesToFile</text>
</a>
</g>
</g>
<!-- Node76&#45;&gt;Node82 -->
<g id="edge6" class="edge">
<title>Node76&#45;&gt;Node82</title>
<path fill="none" stroke="#191970" d="M647.6909,-230.0676C631.8629,-226.3429 614.1791,-222.2126 597.9834,-218.5 583.6895,-215.2234 568.0268,-211.702 554.0848,-208.5918"/>
<polygon fill="#191970" stroke="#191970" points="647.2536,-233.5604 657.7899,-232.4482 648.8597,-226.7471 647.2536,-233.5604"/>
</g>
<!-- Node89 -->
<g id="node14" class="node">
<title>Node89</title>
<g id="a_node14"><a xlink:href="namespace_i_o.html#a4f554804fd2ccd9c13c73777c5cbbf77" target="_top" xlink:title="IO::writeFlowObservableToFile method for writing a flow observable to file, using ....">
<polygon fill="#ffffff" stroke="#000000" points="436.9248,-144.5 436.9248,-162.5 589.0771,-162.5 589.0771,-144.5 436.9248,-144.5"/>
<text text-anchor="middle" x="513.001" y="-150.5" font-family="Helvetica,sans-Serif" font-size="10.00" fill="#000000">IO::writeFlowObservableToFile</text>
</a>
</g>
</g>
<!-- Node76&#45;&gt;Node89 -->
<g id="edge13" class="edge">
<title>Node76&#45;&gt;Node89</title>
<path fill="none" stroke="#191970" d="M674.7916,-226.5777C655.4837,-213.4179 625.7784,-194.3829 597.9834,-181.5 581.4937,-173.857 562.3257,-167.3516 546.3718,-162.5405"/>
<polygon fill="#191970" stroke="#191970" points="672.9166,-229.5364 683.1337,-232.3402 676.8951,-223.7769 672.9166,-229.5364"/>
</g>
<!-- Node96 -->
<g id="node21" class="node">
<title>Node96</title>
<g id="a_node21"><a xlink:href="namespace_i_o.html#ad77b7dd770afc8e2eb433d6187ea3616" target="_top" xlink:title="IO::writeMatrixToFile writes out a matrix of observables to file, i.e. the topological charge in Eucl...">
<polygon fill="#ffffff" stroke="#000000" points="252.3687,-52.5 252.3687,-70.5 359.4917,-70.5 359.4917,-52.5 252.3687,-52.5"/>
<text text-anchor="middle" x="305.9302" y="-58.5" font-family="Helvetica,sans-Serif" font-size="10.00" fill="#000000">IO::writeMatrixToFile</text>
</a>
</g>
</g>
<!-- Node76&#45;&gt;Node96 -->
<g id="edge20" class="edge">
<title>Node76&#45;&gt;Node96</title>
<path fill="none" stroke="#191970" d="M684.6891,-224.1021C668.4737,-200.3747 636.1899,-158.2256 597.9834,-135.5 522.6844,-90.7114 420.892,-72.8532 359.511,-65.8586"/>
<polygon fill="#191970" stroke="#191970" points="681.8177,-226.105 690.2734,-232.4888 687.6443,-222.2253 681.8177,-226.105"/>
</g>
<!-- Node79 -->
<g id="node4" class="node">
<title>Node79</title>
<g id="a_node4"><a xlink:href="class_lattice_action_charge_density.html#a3dddc75188042c645fbdd1c8b3e80c8a" target="_top" xlink:title="Correlator::calculate calculates a observable.">
<polygon fill="#ffffff" stroke="#000000" points="236.231,-329.5 236.231,-357.5 375.6294,-357.5 375.6294,-329.5 236.231,-329.5"/>
<text text-anchor="start" x="244.231" y="-345.5" font-family="Helvetica,sans-Serif" font-size="10.00" fill="#000000">LatticeActionChargeDensity</text>
<text text-anchor="middle" x="305.9302" y="-335.5" font-family="Helvetica,sans-Serif" font-size="10.00" fill="#000000">::calculate</text>
</a>
</g>
</g>
<!-- Node78&#45;&gt;Node79 -->
<g id="edge3" class="edge">
<title>Node78&#45;&gt;Node79</title>
<path fill="none" stroke="#191970" d="M438.681,-331.9604C418.2035,-333.7404 396.0653,-335.6648 375.846,-337.4224"/>
<polygon fill="#191970" stroke="#191970" points="439.2413,-335.425 448.9006,-331.072 438.635,-328.4513 439.2413,-335.425"/>
</g>
<!-- Node83 -->
<g id="node8" class="node">
<title>Node83</title>
<g id="a_node8"><a xlink:href="class_observable_storer.html#a146f9acb8a0a2ce15782d26bdc4f0bf9" target="_top" xlink:title="ObservableStorer::writeObservableToFile.">
<polygon fill="#ffffff" stroke="#000000" points="219.8418,-282.5 219.8418,-310.5 392.0186,-310.5 392.0186,-282.5 219.8418,-282.5"/>
<text text-anchor="start" x="227.8418" y="-298.5" font-family="Helvetica,sans-Serif" font-size="10.00" fill="#000000">ObservableStorer::writeObservable</text>
<text text-anchor="middle" x="305.9302" y="-288.5" font-family="Helvetica,sans-Serif" font-size="10.00" fill="#000000">ToFile</text>
</a>
</g>
</g>
<!-- Node82&#45;&gt;Node83 -->
<g id="edge7" class="edge">
<title>Node82&#45;&gt;Node83</title>
<path fill="none" stroke="#191970" d="M449.1869,-211.2101C441.9312,-213.2901 434.736,-215.7054 428.0186,-218.5 387.8429,-235.2138 346.2118,-264.9589 323.4398,-282.4899"/>
<polygon fill="#191970" stroke="#191970" points="450.316,-214.5316 459.0796,-208.5777 448.5158,-207.767 450.316,-214.5316"/>
</g>
<!-- Node84 -->
<g id="node9" class="node">
<title>Node84</title>
<g id="a_node9"><a xlink:href="class_correlator.html#a9e8d80e30e4fbe3b7fe57521538cb5ff" target="_top" xlink:title="Correlator::writeObservableToFile calls the ObservableStorer for writing observable to file.">
<polygon fill="#ffffff" stroke="#000000" points="22.7881,-423.5 22.7881,-451.5 161.0537,-451.5 161.0537,-423.5 22.7881,-423.5"/>
<text text-anchor="start" x="30.7881" y="-439.5" font-family="Helvetica,sans-Serif" font-size="10.00" fill="#000000">Correlator::writeObservable</text>
<text text-anchor="middle" x="91.9209" y="-429.5" font-family="Helvetica,sans-Serif" font-size="10.00" fill="#000000">ToFile</text>
</a>
</g>
</g>
<!-- Node83&#45;&gt;Node84 -->
<g id="edge8" class="edge">
<title>Node83&#45;&gt;Node84</title>
<path fill="none" stroke="#191970" d="M225.2816,-316.0885C223.3854,-317.4617 221.5665,-318.9301 219.8418,-320.5 186.7588,-350.6147 217.3239,-384.8296 183.8418,-414.5 177.3165,-420.2825 169.5532,-424.6564 161.3441,-427.9573"/>
<polygon fill="#191970" stroke="#191970" points="227.3851,-318.9024 234.0376,-310.6565 223.6949,-312.9541 227.3851,-318.9024"/>
</g>
<!-- Node85 -->
<g id="node10" class="node">
<title>Node85</title>
<g id="a_node10"><a xlink:href="class_lattice_action_charge_density.html#a719f71aaccbf1b4147ea944781d69908" target="_top" xlink:title="Correlator::writeObservableToFile calls the ObservableStorer for writing observable to file.">
<polygon fill="#ffffff" stroke="#000000" points="22.2217,-376.5 22.2217,-404.5 161.6201,-404.5 161.6201,-376.5 22.2217,-376.5"/>
<text text-anchor="start" x="30.2217" y="-392.5" font-family="Helvetica,sans-Serif" font-size="10.00" fill="#000000">LatticeActionChargeDensity</text>
<text text-anchor="middle" x="91.9209" y="-382.5" font-family="Helvetica,sans-Serif" font-size="10.00" fill="#000000">::writeObservableToFile</text>
</a>
</g>
</g>
<!-- Node83&#45;&gt;Node85 -->
<g id="edge9" class="edge">
<title>Node83&#45;&gt;Node85</title>
<path fill="none" stroke="#191970" d="M229.5309,-314.7882C226.1643,-316.5235 222.9146,-318.4224 219.8418,-320.5 198.0441,-335.2379 205.8343,-353.0544 183.8418,-367.5 177.1045,-371.9254 169.5786,-375.4993 161.813,-378.3856"/>
<polygon fill="#191970" stroke="#191970" points="231.0633,-317.9357 238.6748,-310.5658 228.1287,-311.5806 231.0633,-317.9357"/>
</g>
<!-- Node86 -->
<g id="node11" class="node">
<title>Node86</title>
<g id="a_node11"><a xlink:href="class_master_sampler.html#a638714c38e1a6252ab8b6be1fa224bd4" target="_top" xlink:title="Correlator::writeObservableToFile calls the ObservableStorer for writing observable to file.">
<polygon fill="#ffffff" stroke="#000000" points="11.1182,-329.5 11.1182,-357.5 172.7236,-357.5 172.7236,-329.5 11.1182,-329.5"/>
<text text-anchor="start" x="19.1182" y="-345.5" font-family="Helvetica,sans-Serif" font-size="10.00" fill="#000000">MasterSampler::writeObservable</text>
<text text-anchor="middle" x="91.9209" y="-335.5" font-family="Helvetica,sans-Serif" font-size="10.00" fill="#000000">ToFile</text>
</a>
</g>
</g>
<!-- Node83&#45;&gt;Node86 -->
<g id="edge10" class="edge">
<title>Node83&#45;&gt;Node86</title>
<path fill="none" stroke="#191970" d="M231.9412,-312.7492C207.1821,-318.1867 179.8086,-324.1984 155.881,-329.4533"/>
<polygon fill="#191970" stroke="#191970" points="232.9938,-316.1015 242.0102,-310.5379 231.4922,-309.2645 232.9938,-316.1015"/>
</g>
<!-- Node87 -->
<g id="node12" class="node">
<title>Node87</title>
<g id="a_node12"><a xlink:href="class_master_sampler_topc_x_y_z.html#a930f13a2a13f4b3820f40c8b52110cf2" target="_top" xlink:title="Correlator::writeObservableToFile calls the ObservableStorer for writing observable to file.">
<polygon fill="#ffffff" stroke="#000000" points="29.7363,-282.5 29.7363,-310.5 154.1055,-310.5 154.1055,-282.5 29.7363,-282.5"/>
<text text-anchor="start" x="37.7363" y="-298.5" font-family="Helvetica,sans-Serif" font-size="10.00" fill="#000000">MasterSamplerTopcXYZ</text>
<text text-anchor="middle" x="91.9209" y="-288.5" font-family="Helvetica,sans-Serif" font-size="10.00" fill="#000000">::writeObservableToFile</text>
</a>
</g>
</g>
<!-- Node83&#45;&gt;Node87 -->
<g id="edge11" class="edge">
<title>Node83&#45;&gt;Node87</title>
<path fill="none" stroke="#191970" d="M209.7056,-296.5C190.8594,-296.5 171.5626,-296.5 154.1857,-296.5"/>
<polygon fill="#191970" stroke="#191970" points="209.8095,-300.0001 219.8095,-296.5 209.8095,-293.0001 209.8095,-300.0001"/>
</g>
<!-- Node88 -->
<g id="node13" class="node">
<title>Node88</title>
<g id="a_node13"><a xlink:href="class_super_sampler.html#a05b42b82879233dc329d280a61bfd7f0" target="_top" xlink:title="Correlator::writeObservableToFile calls the ObservableStorer for writing observable to file.">
<polygon fill="#ffffff" stroke="#000000" points="13.0566,-235.5 13.0566,-263.5 170.7852,-263.5 170.7852,-235.5 13.0566,-235.5"/>
<text text-anchor="start" x="21.0566" y="-251.5" font-family="Helvetica,sans-Serif" font-size="10.00" fill="#000000">SuperSampler::writeObservable</text>
<text text-anchor="middle" x="91.9209" y="-241.5" font-family="Helvetica,sans-Serif" font-size="10.00" fill="#000000">ToFile</text>
</a>
</g>
</g>
<!-- Node83&#45;&gt;Node88 -->
<g id="edge12" class="edge">
<title>Node83&#45;&gt;Node88</title>
<path fill="none" stroke="#191970" d="M231.9412,-280.2508C207.1821,-274.8133 179.8086,-268.8016 155.881,-263.5467"/>
<polygon fill="#191970" stroke="#191970" points="231.4922,-283.7355 242.0102,-282.4621 232.9938,-276.8985 231.4922,-283.7355"/>
</g>
<!-- Node90 -->
<g id="node15" class="node">
<title>Node90</title>
<g id="a_node15"><a xlink:href="class_observable_storer.html#af51ebd65eae2a5087cfd47ddf230da93" target="_top" xlink:title="ObservableStorer::writeFlowObservableToFile.">
<polygon fill="#ffffff" stroke="#000000" points="234.854,-103.5 234.854,-131.5 377.0063,-131.5 377.0063,-103.5 234.854,-103.5"/>
<text text-anchor="start" x="242.854" y="-119.5" font-family="Helvetica,sans-Serif" font-size="10.00" fill="#000000">ObservableStorer::writeFlow</text>
<text text-anchor="middle" x="305.9302" y="-109.5" font-family="Helvetica,sans-Serif" font-size="10.00" fill="#000000">ObservableToFile</text>
</a>
</g>
</g>
<!-- Node89&#45;&gt;Node90 -->
<g id="edge14" class="edge">
<title>Node89&#45;&gt;Node90</title>
<path fill="none" stroke="#191970" d="M450.9359,-142.7098C427.6937,-138.669 401.1113,-134.0476 377.1084,-129.8746"/>
<polygon fill="#191970" stroke="#191970" points="450.5638,-146.1975 461.0156,-144.4621 451.7629,-139.3009 450.5638,-146.1975"/>
</g>
<!-- Node91 -->
<g id="node16" class="node">
<title>Node91</title>
<g id="a_node16"><a xlink:href="class_correlator.html#a168512b2ce182d9478db47f100125fa6" target="_top" xlink:title="Correlator::writeFlowObservablesToFile.">
<polygon fill="#ffffff" stroke="#000000" points="9.7314,-188.5 9.7314,-216.5 174.1104,-216.5 174.1104,-188.5 9.7314,-188.5"/>
<text text-anchor="start" x="17.7314" y="-204.5" font-family="Helvetica,sans-Serif" font-size="10.00" fill="#000000">Correlator::writeFlowObservables</text>
<text text-anchor="middle" x="91.9209" y="-194.5" font-family="Helvetica,sans-Serif" font-size="10.00" fill="#000000">ToFile</text>
</a>
</g>
</g>
<!-- Node90&#45;&gt;Node91 -->
<g id="edge15" class="edge">
<title>Node90&#45;&gt;Node91</title>
<path fill="none" stroke="#191970" d="M273.6097,-136.4419C249.5091,-149.9336 215.4361,-167.6966 183.8418,-179.5 174.9039,-182.8391 165.2976,-185.8458 155.7846,-188.4993"/>
<polygon fill="#191970" stroke="#191970" points="275.3559,-139.4753 282.3323,-131.5015 271.9061,-133.3844 275.3559,-139.4753"/>
</g>
<!-- Node92 -->
<g id="node17" class="node">
<title>Node92</title>
<g id="a_node17"><a xlink:href="class_lattice_action_charge_density.html#a54226556dc1497c311e4a4d50bf44c26" target="_top" xlink:title="Correlator::writeFlowObservablesToFile.">
<polygon fill="#ffffff" stroke="#000000" points="18.623,-141.5 18.623,-169.5 165.2188,-169.5 165.2188,-141.5 18.623,-141.5"/>
<text text-anchor="start" x="26.623" y="-157.5" font-family="Helvetica,sans-Serif" font-size="10.00" fill="#000000">LatticeActionChargeDensity</text>
<text text-anchor="middle" x="91.9209" y="-147.5" font-family="Helvetica,sans-Serif" font-size="10.00" fill="#000000">::writeFlowObservablesToFile</text>
</a>
</g>
</g>
<!-- Node90&#45;&gt;Node92 -->
<g id="edge16" class="edge">
<title>Node90&#45;&gt;Node92</title>
<path fill="none" stroke="#191970" d="M224.6201,-131.9376C205.1672,-135.3917 184.5101,-139.0596 165.4327,-142.4471"/>
<polygon fill="#191970" stroke="#191970" points="225.4341,-135.3479 234.6682,-130.1534 224.2103,-128.4557 225.4341,-135.3479"/>
</g>
<!-- Node93 -->
<g id="node18" class="node">
<title>Node93</title>
<g id="a_node18"><a xlink:href="class_master_sampler.html#ad475928217ac61fae134128904aaa9f8" target="_top" xlink:title="Correlator::writeFlowObservablesToFile.">
<polygon fill="#ffffff" stroke="#000000" points="26.1304,-94.5 26.1304,-122.5 157.7114,-122.5 157.7114,-94.5 26.1304,-94.5"/>
<text text-anchor="start" x="34.1304" y="-110.5" font-family="Helvetica,sans-Serif" font-size="10.00" fill="#000000">MasterSampler::writeFlow</text>
<text text-anchor="middle" x="91.9209" y="-100.5" font-family="Helvetica,sans-Serif" font-size="10.00" fill="#000000">ObservablesToFile</text>
</a>
</g>
</g>
<!-- Node90&#45;&gt;Node93 -->
<g id="edge17" class="edge">
<title>Node90&#45;&gt;Node93</title>
<path fill="none" stroke="#191970" d="M224.6464,-114.0817C202.5646,-113.153 178.9293,-112.1591 157.8131,-111.271"/>
<polygon fill="#191970" stroke="#191970" points="224.5299,-117.5798 234.6682,-114.5031 224.8241,-110.586 224.5299,-117.5798"/>
</g>
<!-- Node94 -->
<g id="node19" class="node">
<title>Node94</title>
<g id="a_node19"><a xlink:href="class_master_sampler_topc_x_y_z.html#a4fba4290e4406e18ef3f2904c6ae364f" target="_top" xlink:title="Correlator::writeFlowObservablesToFile.">
<polygon fill="#ffffff" stroke="#000000" points="18.623,-47.5 18.623,-75.5 165.2188,-75.5 165.2188,-47.5 18.623,-47.5"/>
<text text-anchor="start" x="26.623" y="-63.5" font-family="Helvetica,sans-Serif" font-size="10.00" fill="#000000">MasterSamplerTopcXYZ</text>
<text text-anchor="middle" x="91.9209" y="-53.5" font-family="Helvetica,sans-Serif" font-size="10.00" fill="#000000">::writeFlowObservablesToFile</text>
</a>
</g>
</g>
<!-- Node90&#45;&gt;Node94 -->
<g id="edge18" class="edge">
<title>Node90&#45;&gt;Node94</title>
<path fill="none" stroke="#191970" d="M245.1948,-100.842C225.6291,-95.5404 203.8373,-89.7034 183.8418,-84.5 172.5384,-81.5585 160.4344,-78.4795 148.8432,-75.5655"/>
<polygon fill="#191970" stroke="#191970" points="244.334,-104.2349 254.9017,-103.4777 246.1683,-97.4795 244.334,-104.2349"/>
</g>
<!-- Node95 -->
<g id="node20" class="node">
<title>Node95</title>
<g id="a_node20"><a xlink:href="class_super_sampler.html#a410b650ebccdb03519c88908a3a8013e" target="_top" xlink:title="Correlator::writeFlowObservablesToFile.">
<polygon fill="#ffffff" stroke="#000000" points="0,-.5 0,-28.5 183.8418,-28.5 183.8418,-.5 0,-.5"/>
<text text-anchor="start" x="8" y="-16.5" font-family="Helvetica,sans-Serif" font-size="10.00" fill="#000000">SuperSampler::writeFlowObservables</text>
<text text-anchor="middle" x="91.9209" y="-6.5" font-family="Helvetica,sans-Serif" font-size="10.00" fill="#000000">ToFile</text>
</a>
</g>
</g>
<!-- Node90&#45;&gt;Node95 -->
<g id="edge19" class="edge">
<title>Node90&#45;&gt;Node95</title>
<path fill="none" stroke="#191970" d="M254.548,-99.3029C242.5808,-93.8771 230.2934,-87.2643 219.8418,-79.5 200.1062,-64.8388 204.7541,-50.4275 183.8418,-37.5 178.2447,-34.04 172.1525,-31.0998 165.8567,-28.6013"/>
<polygon fill="#191970" stroke="#191970" points="253.4675,-102.6486 264.0357,-103.3991 256.2422,-96.222 253.4675,-102.6486"/>
</g>
<!-- Node96&#45;&gt;Node94 -->
<g id="edge21" class="edge">
<title>Node96&#45;&gt;Node94</title>
<path fill="none" stroke="#191970" d="M242.1084,-61.5C218.0109,-61.5 190.4026,-61.5 165.4842,-61.5"/>
<polygon fill="#191970" stroke="#191970" points="242.2029,-65.0001 252.2028,-61.5 242.2028,-58.0001 242.2029,-65.0001"/>
</g>
<!-- Node96&#45;&gt;Node95 -->
<g id="edge22" class="edge">
<title>Node96&#45;&gt;Node95</title>
<path fill="none" stroke="#191970" d="M254.7889,-50.2685C225.1439,-43.758 187.5493,-35.5016 155.9507,-28.562"/>
<polygon fill="#191970" stroke="#191970" points="254.4022,-53.7669 264.9203,-52.4935 255.9038,-46.9299 254.4022,-53.7669"/>
</g>
</g>
</svg>
