<?xml version="1.0" encoding="UTF-8" standalone="no"?>
<!DOCTYPE svg PUBLIC "-//W3C//DTD SVG 1.1//EN"
 "http://www.w3.org/Graphics/SVG/1.1/DTD/svg11.dtd">
<!-- Generated by graphviz version 2.40.1 (20161225.0304)
 -->
<!-- Title: Parameters::getNCf Pages: 1 -->
<svg width="707pt" height="398pt"
 viewBox="0.00 0.00 706.87 398.00" xmlns="http://www.w3.org/2000/svg" xmlns:xlink="http://www.w3.org/1999/xlink">
<g id="graph0" class="graph" transform="scale(1 1) rotate(0) translate(4 394)">
<title>Parameters::getNCf</title>
<polygon fill="#ffffff" stroke="transparent" points="-4,4 -4,-394 702.8701,-394 702.8701,4 -4,4"/>
<!-- Node162 -->
<g id="node1" class="node">
<title>Node162</title>
<g id="a_node1"><a xlink:title=" ">
<polygon fill="#bfbfbf" stroke="#000000" points="594.5059,-136.5 594.5059,-154.5 698.8701,-154.5 698.8701,-136.5 594.5059,-136.5"/>
<text text-anchor="middle" x="646.688" y="-142.5" font-family="Helvetica,sans-Serif" font-size="10.00" fill="#000000">Parameters::getNCf</text>
</a>
</g>
</g>
<!-- Node163 -->
<g id="node2" class="node">
<title>Node163</title>
<g id="a_node2"><a xlink:href="namespace_i_o.html#ad8cf5aef8f60d10b80292b69a091d5ac" target="_top" xlink:title="IO::writeObservablesToFile method for writing an observable to file, using .15 precision.">
<polygon fill="#ffffff" stroke="#000000" points="414.1245,-272.5 414.1245,-290.5 550.1636,-290.5 550.1636,-272.5 414.1245,-272.5"/>
<text text-anchor="middle" x="482.144" y="-278.5" font-family="Helvetica,sans-Serif" font-size="10.00" fill="#000000">IO::writeObservablesToFile</text>
</a>
</g>
</g>
<!-- Node162&#45;&gt;Node163 -->
<g id="edge1" class="edge">
<title>Node162&#45;&gt;Node163</title>
<path fill="none" stroke="#191970" d="M638.1869,-163.8107C624.9899,-190.1276 597.0253,-238.2491 558.5059,-263.5 552.9242,-267.159 546.6816,-270.0767 540.2357,-272.4029"/>
<polygon fill="#191970" stroke="#191970" points="641.4447,-165.1135 642.6518,-154.5876 635.1441,-162.0633 641.4447,-165.1135"/>
</g>
<!-- Node170 -->
<g id="node9" class="node">
<title>Node170</title>
<g id="a_node9"><a xlink:href="class_correlator.html#ab99886c09dd27dfc8676d0032cecf9bc" target="_top" xlink:title="Correlator::initializeObservableStorer initializes ObservableStorer.">
<polygon fill="#ffffff" stroke="#000000" points="405.7822,-225.5 405.7822,-253.5 558.5059,-253.5 558.5059,-225.5 405.7822,-225.5"/>
<text text-anchor="start" x="413.7822" y="-241.5" font-family="Helvetica,sans-Serif" font-size="10.00" fill="#000000">Correlator::initializeObservable</text>
<text text-anchor="middle" x="482.144" y="-231.5" font-family="Helvetica,sans-Serif" font-size="10.00" fill="#000000">Storer</text>
</a>
</g>
</g>
<!-- Node162&#45;&gt;Node170 -->
<g id="edge8" class="edge">
<title>Node162&#45;&gt;Node170</title>
<path fill="none" stroke="#191970" d="M630.4734,-161.824C613.7618,-177.8122 586.2967,-201.8471 558.5059,-216.5 552.1372,-219.8579 545.2051,-222.8007 538.2013,-225.3583"/>
<polygon fill="#191970" stroke="#191970" points="633.0604,-164.1896 637.7677,-154.698 628.1687,-159.1824 633.0604,-164.1896"/>
</g>
<!-- Node172 -->
<g id="node11" class="node">
<title>Node172</title>
<g id="a_node11"><a xlink:href="class_lattice_action_charge_density.html#aba3131bbe5bd930adccc2852b4d44bb9" target="_top" xlink:title="Correlator::initializeObservableStorer initializes ObservableStorer.">
<polygon fill="#ffffff" stroke="#000000" points="412.4448,-178.5 412.4448,-206.5 551.8433,-206.5 551.8433,-178.5 412.4448,-178.5"/>
<text text-anchor="start" x="420.4448" y="-194.5" font-family="Helvetica,sans-Serif" font-size="10.00" fill="#000000">LatticeActionChargeDensity</text>
<text text-anchor="middle" x="482.144" y="-184.5" font-family="Helvetica,sans-Serif" font-size="10.00" fill="#000000">::initializeObservableStorer</text>
</a>
</g>
</g>
<!-- Node162&#45;&gt;Node172 -->
<g id="edge10" class="edge">
<title>Node162&#45;&gt;Node172</title>
<path fill="none" stroke="#191970" d="M605.0617,-157.39C582.6116,-163.8027 554.7686,-171.7557 531.2619,-178.4701"/>
<polygon fill="#191970" stroke="#191970" points="606.3081,-160.6741 614.9623,-154.5621 604.3855,-153.9433 606.3081,-160.6741"/>
</g>
<!-- Node174 -->
<g id="node13" class="node">
<title>Node174</title>
<g id="a_node13"><a xlink:href="class_master_sampler.html#a88e2eec68ea6bd60cc3f375ac04a8ded" target="_top" xlink:title="Correlator::initializeObservableStorer initializes ObservableStorer.">
<polygon fill="#ffffff" stroke="#000000" points="419.6812,-131.5 419.6812,-159.5 544.6069,-159.5 544.6069,-131.5 419.6812,-131.5"/>
<text text-anchor="start" x="427.6812" y="-147.5" font-family="Helvetica,sans-Serif" font-size="10.00" fill="#000000">MasterSampler::initialize</text>
<text text-anchor="middle" x="482.144" y="-137.5" font-family="Helvetica,sans-Serif" font-size="10.00" fill="#000000">ObservableStorer</text>
</a>
</g>
</g>
<!-- Node162&#45;&gt;Node174 -->
<g id="edge12" class="edge">
<title>Node162&#45;&gt;Node174</title>
<path fill="none" stroke="#191970" d="M584.0361,-145.5C571.1828,-145.5 557.6509,-145.5 544.7975,-145.5"/>
<polygon fill="#191970" stroke="#191970" points="584.1729,-149.0001 594.1729,-145.5 584.1728,-142.0001 584.1729,-149.0001"/>
</g>
<!-- Node176 -->
<g id="node15" class="node">
<title>Node176</title>
<g id="a_node15"><a xlink:href="class_master_sampler_topc_x_y_z.html#af6d2cf2023d9626908fd26b07a7a0b84" target="_top" xlink:title="Correlator::initializeObservableStorer initializes ObservableStorer.">
<polygon fill="#ffffff" stroke="#000000" points="414.3955,-84.5 414.3955,-112.5 549.8926,-112.5 549.8926,-84.5 414.3955,-84.5"/>
<text text-anchor="start" x="422.3955" y="-100.5" font-family="Helvetica,sans-Serif" font-size="10.00" fill="#000000">MasterSamplerTopcXYZ</text>
<text text-anchor="middle" x="482.144" y="-90.5" font-family="Helvetica,sans-Serif" font-size="10.00" fill="#000000">::initializeObservableStorer</text>
</a>
</g>
</g>
<!-- Node162&#45;&gt;Node176 -->
<g id="edge14" class="edge">
<title>Node162&#45;&gt;Node176</title>
<path fill="none" stroke="#191970" d="M605.0617,-133.61C582.6116,-127.1973 554.7686,-119.2443 531.2619,-112.5299"/>
<polygon fill="#191970" stroke="#191970" points="604.3855,-137.0567 614.9623,-136.4379 606.3081,-130.3259 604.3855,-137.0567"/>
</g>
<!-- Node178 -->
<g id="node17" class="node">
<title>Node178</title>
<g id="a_node17"><a xlink:href="class_super_sampler.html#a4429d6ae37247a02259bc0c6d665821c" target="_top" xlink:title="Correlator::initializeObservableStorer initializes ObservableStorer.">
<polygon fill="#ffffff" stroke="#000000" points="421.6196,-37.5 421.6196,-65.5 542.6685,-65.5 542.6685,-37.5 421.6196,-37.5"/>
<text text-anchor="start" x="429.6196" y="-53.5" font-family="Helvetica,sans-Serif" font-size="10.00" fill="#000000">SuperSampler::initialize</text>
<text text-anchor="middle" x="482.144" y="-43.5" font-family="Helvetica,sans-Serif" font-size="10.00" fill="#000000">ObservableStorer</text>
</a>
</g>
</g>
<!-- Node162&#45;&gt;Node178 -->
<g id="edge16" class="edge">
<title>Node162&#45;&gt;Node178</title>
<path fill="none" stroke="#191970" d="M630.3929,-129.4886C613.619,-113.7896 586.1066,-90.1418 558.5059,-75.5 551.3857,-71.7228 543.5721,-68.4253 535.7448,-65.5839"/>
<polygon fill="#191970" stroke="#191970" points="628.0684,-132.1083 637.7181,-136.4826 632.9023,-127.0454 628.0684,-132.1083"/>
</g>
<!-- Node180 -->
<g id="node19" class="node">
<title>Node180</title>
<g id="a_node19"><a xlink:href="class_system.html#ae317936c9bcf1374d61745572e0f2f8a" target="_top" xlink:title=" ">
<polygon fill="#ffffff" stroke="#000000" points="438.0259,-.5 438.0259,-18.5 526.2622,-18.5 526.2622,-.5 438.0259,-.5"/>
<text text-anchor="middle" x="482.144" y="-6.5" font-family="Helvetica,sans-Serif" font-size="10.00" fill="#000000">System::System</text>
</a>
</g>
</g>
<!-- Node162&#45;&gt;Node180 -->
<g id="edge18" class="edge">
<title>Node162&#45;&gt;Node180</title>
<path fill="none" stroke="#191970" d="M638.1869,-127.1893C624.9899,-100.8724 597.0253,-52.7509 558.5059,-27.5 548.9373,-21.2274 537.4265,-17.1332 526.2783,-14.4632"/>
<polygon fill="#191970" stroke="#191970" points="635.1441,-128.9367 642.6518,-136.4124 641.4447,-125.8865 635.1441,-128.9367"/>
</g>
<!-- Node164 -->
<g id="node3" class="node">
<title>Node164</title>
<g id="a_node3"><a xlink:href="class_observable_storer.html#a146f9acb8a0a2ce15782d26bdc4f0bf9" target="_top" xlink:title="ObservableStorer::writeObservableToFile.">
<polygon fill="#ffffff" stroke="#000000" points="197.6055,-267.5 197.6055,-295.5 369.7822,-295.5 369.7822,-267.5 197.6055,-267.5"/>
<text text-anchor="start" x="205.6055" y="-283.5" font-family="Helvetica,sans-Serif" font-size="10.00" fill="#000000">ObservableStorer::writeObservable</text>
<text text-anchor="middle" x="283.6938" y="-273.5" font-family="Helvetica,sans-Serif" font-size="10.00" fill="#000000">ToFile</text>
</a>
</g>
</g>
<!-- Node163&#45;&gt;Node164 -->
<g id="edge2" class="edge">
<title>Node163&#45;&gt;Node164</title>
<path fill="none" stroke="#191970" d="M403.7795,-281.5C392.6853,-281.5 381.2267,-281.5 369.9929,-281.5"/>
<polygon fill="#191970" stroke="#191970" points="403.8488,-285.0001 413.8487,-281.5 403.8487,-278.0001 403.8488,-285.0001"/>
</g>
<!-- Node165 -->
<g id="node4" class="node">
<title>Node165</title>
<g id="a_node4"><a xlink:href="class_correlator.html#a9e8d80e30e4fbe3b7fe57521538cb5ff" target="_top" xlink:title="Correlator::writeObservableToFile calls the ObservableStorer for writing observable to file.">
<polygon fill="#ffffff" stroke="#000000" points="11.6699,-361.5 11.6699,-389.5 149.9355,-389.5 149.9355,-361.5 11.6699,-361.5"/>
<text text-anchor="start" x="19.6699" y="-377.5" font-family="Helvetica,sans-Serif" font-size="10.00" fill="#000000">Correlator::writeObservable</text>
<text text-anchor="middle" x="80.8027" y="-367.5" font-family="Helvetica,sans-Serif" font-size="10.00" fill="#000000">ToFile</text>
</a>
</g>
</g>
<!-- Node164&#45;&gt;Node165 -->
<g id="edge3" class="edge">
<title>Node164&#45;&gt;Node165</title>
<path fill="none" stroke="#191970" d="M254.2777,-301.4213C230.2015,-317.0229 194.8195,-338.378 161.6055,-352.5 153.8204,-355.8101 145.4152,-358.8009 137.0706,-361.4472"/>
<polygon fill="#191970" stroke="#191970" points="256.4812,-304.1618 262.9235,-295.7506 252.642,-298.3085 256.4812,-304.1618"/>
</g>
<!-- Node166 -->
<g id="node5" class="node">
<title>Node166</title>
<g id="a_node5"><a xlink:href="class_lattice_action_charge_density.html#a719f71aaccbf1b4147ea944781d69908" target="_top" xlink:title="Correlator::writeObservableToFile calls the ObservableStorer for writing observable to file.">
<polygon fill="#ffffff" stroke="#000000" points="11.1035,-314.5 11.1035,-342.5 150.502,-342.5 150.502,-314.5 11.1035,-314.5"/>
<text text-anchor="start" x="19.1035" y="-330.5" font-family="Helvetica,sans-Serif" font-size="10.00" fill="#000000">LatticeActionChargeDensity</text>
<text text-anchor="middle" x="80.8027" y="-320.5" font-family="Helvetica,sans-Serif" font-size="10.00" fill="#000000">::writeObservableToFile</text>
</a>
</g>
</g>
<!-- Node164&#45;&gt;Node166 -->
<g id="edge4" class="edge">
<title>Node164&#45;&gt;Node166</title>
<path fill="none" stroke="#191970" d="M213.2356,-297.8217C189.8453,-303.2402 164.0237,-309.2218 141.44,-314.4533"/>
<polygon fill="#191970" stroke="#191970" points="214.1425,-301.2044 223.0946,-295.5379 212.5627,-294.385 214.1425,-301.2044"/>
</g>
<!-- Node167 -->
<g id="node6" class="node">
<title>Node167</title>
<g id="a_node6"><a xlink:href="class_master_sampler.html#a638714c38e1a6252ab8b6be1fa224bd4" target="_top" xlink:title="Correlator::writeObservableToFile calls the ObservableStorer for writing observable to file.">
<polygon fill="#ffffff" stroke="#000000" points="0,-267.5 0,-295.5 161.6055,-295.5 161.6055,-267.5 0,-267.5"/>
<text text-anchor="start" x="8" y="-283.5" font-family="Helvetica,sans-Serif" font-size="10.00" fill="#000000">MasterSampler::writeObservable</text>
<text text-anchor="middle" x="80.8027" y="-273.5" font-family="Helvetica,sans-Serif" font-size="10.00" fill="#000000">ToFile</text>
</a>
</g>
</g>
<!-- Node164&#45;&gt;Node167 -->
<g id="edge5" class="edge">
<title>Node164&#45;&gt;Node167</title>
<path fill="none" stroke="#191970" d="M187.107,-281.5C178.6739,-281.5 170.196,-281.5 161.907,-281.5"/>
<polygon fill="#191970" stroke="#191970" points="187.3556,-285.0001 197.3556,-281.5 187.3555,-278.0001 187.3556,-285.0001"/>
</g>
<!-- Node168 -->
<g id="node7" class="node">
<title>Node168</title>
<g id="a_node7"><a xlink:href="class_master_sampler_topc_x_y_z.html#a930f13a2a13f4b3820f40c8b52110cf2" target="_top" xlink:title="Correlator::writeObservableToFile calls the ObservableStorer for writing observable to file.">
<polygon fill="#ffffff" stroke="#000000" points="18.6182,-220.5 18.6182,-248.5 142.9873,-248.5 142.9873,-220.5 18.6182,-220.5"/>
<text text-anchor="start" x="26.6182" y="-236.5" font-family="Helvetica,sans-Serif" font-size="10.00" fill="#000000">MasterSamplerTopcXYZ</text>
<text text-anchor="middle" x="80.8027" y="-226.5" font-family="Helvetica,sans-Serif" font-size="10.00" fill="#000000">::writeObservableToFile</text>
</a>
</g>
</g>
<!-- Node164&#45;&gt;Node168 -->
<g id="edge6" class="edge">
<title>Node164&#45;&gt;Node168</title>
<path fill="none" stroke="#191970" d="M213.2356,-265.1783C189.8453,-259.7598 164.0237,-253.7782 141.44,-248.5467"/>
<polygon fill="#191970" stroke="#191970" points="212.5627,-268.615 223.0946,-267.4621 214.1425,-261.7956 212.5627,-268.615"/>
</g>
<!-- Node169 -->
<g id="node8" class="node">
<title>Node169</title>
<g id="a_node8"><a xlink:href="class_super_sampler.html#a05b42b82879233dc329d280a61bfd7f0" target="_top" xlink:title="Correlator::writeObservableToFile calls the ObservableStorer for writing observable to file.">
<polygon fill="#ffffff" stroke="#000000" points="1.9385,-173.5 1.9385,-201.5 159.667,-201.5 159.667,-173.5 1.9385,-173.5"/>
<text text-anchor="start" x="9.9385" y="-189.5" font-family="Helvetica,sans-Serif" font-size="10.00" fill="#000000">SuperSampler::writeObservable</text>
<text text-anchor="middle" x="80.8027" y="-179.5" font-family="Helvetica,sans-Serif" font-size="10.00" fill="#000000">ToFile</text>
</a>
</g>
</g>
<!-- Node164&#45;&gt;Node169 -->
<g id="edge7" class="edge">
<title>Node164&#45;&gt;Node169</title>
<path fill="none" stroke="#191970" d="M205.1373,-263.0048C202.5374,-261.6106 200.0172,-260.1117 197.6055,-258.5 175.7284,-243.8801 183.2783,-226.4209 161.6055,-211.5 155.9403,-207.5997 149.6317,-204.3226 143.1069,-201.5714"/>
<polygon fill="#191970" stroke="#191970" points="203.71,-266.2017 214.2422,-267.3523 206.7263,-259.8849 203.71,-266.2017"/>
</g>
<!-- Node171 -->
<g id="node10" class="node">
<title>Node171</title>
<g id="a_node10"><a xlink:href="class_correlator.html#aff48ef3bf789e9c6231eacc21cd9ed9a" target="_top" xlink:title="Correlator::Correlator.">
<polygon fill="#ffffff" stroke="#000000" points="228.4575,-230.5 228.4575,-248.5 338.9302,-248.5 338.9302,-230.5 228.4575,-230.5"/>
<text text-anchor="middle" x="283.6938" y="-236.5" font-family="Helvetica,sans-Serif" font-size="10.00" fill="#000000">Correlator::Correlator</text>
</a>
</g>
</g>
<!-- Node170&#45;&gt;Node171 -->
<g id="edge9" class="edge">
<title>Node170&#45;&gt;Node171</title>
<path fill="none" stroke="#191970" d="M395.4769,-239.5C376.3679,-239.5 356.6275,-239.5 339.1521,-239.5"/>
<polygon fill="#191970" stroke="#191970" points="395.7019,-243.0001 405.7019,-239.5 395.7018,-236.0001 395.7019,-243.0001"/>
</g>
<!-- Node173 -->
<g id="node12" class="node">
<title>Node173</title>
<g id="a_node12"><a xlink:href="class_lattice_action_charge_density.html#acda2a43db75cca34586441d4ac7ec39e" target="_top" xlink:title=" ">
<polygon fill="#ffffff" stroke="#000000" points="211.2163,-178.5 211.2163,-206.5 356.1714,-206.5 356.1714,-178.5 211.2163,-178.5"/>
<text text-anchor="start" x="219.2163" y="-194.5" font-family="Helvetica,sans-Serif" font-size="10.00" fill="#000000">LatticeActionChargeDensity</text>
<text text-anchor="middle" x="283.6938" y="-184.5" font-family="Helvetica,sans-Serif" font-size="10.00" fill="#000000">::LatticeActionChargeDensity</text>
</a>
</g>
</g>
<!-- Node172&#45;&gt;Node173 -->
<g id="edge11" class="edge">
<title>Node172&#45;&gt;Node173</title>
<path fill="none" stroke="#191970" d="M401.8769,-192.5C386.8325,-192.5 371.1841,-192.5 356.3856,-192.5"/>
<polygon fill="#191970" stroke="#191970" points="402.178,-196.0001 412.1779,-192.5 402.1779,-189.0001 402.178,-196.0001"/>
</g>
<!-- Node175 -->
<g id="node14" class="node">
<title>Node175</title>
<g id="a_node14"><a xlink:href="class_master_sampler.html#ac5ee503e8391aca36f73872a45bb6bd9" target="_top" xlink:title=" ">
<polygon fill="#ffffff" stroke="#000000" points="205.1177,-136.5 205.1177,-154.5 362.27,-154.5 362.27,-136.5 205.1177,-136.5"/>
<text text-anchor="middle" x="283.6938" y="-142.5" font-family="Helvetica,sans-Serif" font-size="10.00" fill="#000000">MasterSampler::MasterSampler</text>
</a>
</g>
</g>
<!-- Node174&#45;&gt;Node175 -->
<g id="edge13" class="edge">
<title>Node174&#45;&gt;Node175</title>
<path fill="none" stroke="#191970" d="M409.2182,-145.5C393.9505,-145.5 377.7874,-145.5 362.3226,-145.5"/>
<polygon fill="#191970" stroke="#191970" points="409.6256,-149.0001 419.6255,-145.5 409.6255,-142.0001 409.6256,-149.0001"/>
</g>
<!-- Node177 -->
<g id="node16" class="node">
<title>Node177</title>
<g id="a_node16"><a xlink:href="class_master_sampler_topc_x_y_z.html#ad8ba8f2c50c66d823c551f71fd62a99b" target="_top" xlink:title=" ">
<polygon fill="#ffffff" stroke="#000000" points="218.731,-84.5 218.731,-112.5 348.6567,-112.5 348.6567,-84.5 218.731,-84.5"/>
<text text-anchor="start" x="226.731" y="-100.5" font-family="Helvetica,sans-Serif" font-size="10.00" fill="#000000">MasterSamplerTopcXYZ</text>
<text text-anchor="middle" x="283.6938" y="-90.5" font-family="Helvetica,sans-Serif" font-size="10.00" fill="#000000">::MasterSamplerTopcXYZ</text>
</a>
</g>
</g>
<!-- Node176&#45;&gt;Node177 -->
<g id="edge15" class="edge">
<title>Node176&#45;&gt;Node177</title>
<path fill="none" stroke="#191970" d="M404.1019,-98.5C385.8418,-98.5 366.5778,-98.5 348.9423,-98.5"/>
<polygon fill="#191970" stroke="#191970" points="404.1264,-102.0001 414.1264,-98.5 404.1264,-95.0001 404.1264,-102.0001"/>
</g>
<!-- Node179 -->
<g id="node18" class="node">
<title>Node179</title>
<g id="a_node18"><a xlink:href="class_super_sampler.html#a6bf01b68f9befc5bf01c822e28c0c88d" target="_top" xlink:title=" ">
<polygon fill="#ffffff" stroke="#000000" points="208.9946,-42.5 208.9946,-60.5 358.3931,-60.5 358.3931,-42.5 208.9946,-42.5"/>
<text text-anchor="middle" x="283.6938" y="-48.5" font-family="Helvetica,sans-Serif" font-size="10.00" fill="#000000">SuperSampler::SuperSampler</text>
</a>
</g>
</g>
<!-- Node178&#45;&gt;Node179 -->
<g id="edge17" class="edge">
<title>Node178&#45;&gt;Node179</title>
<path fill="none" stroke="#191970" d="M411.1015,-51.5C394.0794,-51.5 375.8508,-51.5 358.6575,-51.5"/>
<polygon fill="#191970" stroke="#191970" points="411.5242,-55.0001 421.5241,-51.5 411.5241,-48.0001 411.5242,-55.0001"/>
</g>
</g>
</svg>
