<?xml version="1.0" encoding="UTF-8" standalone="no"?>
<!DOCTYPE svg PUBLIC "-//W3C//DTD SVG 1.1//EN"
 "http://www.w3.org/Graphics/SVG/1.1/DTD/svg11.dtd">
<!-- Generated by graphviz version 2.40.1 (20161225.0304)
 -->
<!-- Title: LatticeActionChargeDensity::printObservable Pages: 1 -->
<svg width="348pt" height="205pt"
 viewBox="0.00 0.00 348.36 205.00" xmlns="http://www.w3.org/2000/svg" xmlns:xlink="http://www.w3.org/1999/xlink">
<g id="graph0" class="graph" transform="scale(1 1) rotate(0) translate(4 201)">
<title>LatticeActionChargeDensity::printObservable</title>
<polygon fill="#ffffff" stroke="transparent" points="-4,4 -4,-201 344.3633,-201 344.3633,4 -4,4"/>
<!-- Node58 -->
<g id="node1" class="node">
<title>Node58</title>
<g id="a_node1"><a xlink:title=" ">
<polygon fill="#bfbfbf" stroke="#000000" points="0,-84.5 0,-112.5 139.3984,-112.5 139.3984,-84.5 0,-84.5"/>
<text text-anchor="start" x="8" y="-100.5" font-family="Helvetica,sans-Serif" font-size="10.00" fill="#000000">LatticeActionChargeDensity</text>
<text text-anchor="middle" x="69.6992" y="-90.5" font-family="Helvetica,sans-Serif" font-size="10.00" fill="#000000">::printObservable</text>
</a>
</g>
</g>
<!-- Node59 -->
<g id="node2" class="node">
<title>Node59</title>
<g id="a_node2"><a xlink:href="class_parallel_1_1_communicator.html#a474ab433da0e83ef372d74e26a7e5cb0" target="_top" xlink:title=" ">
<polygon fill="#ffffff" stroke="#000000" points="197.918,-168.5 197.918,-196.5 317.8438,-196.5 317.8438,-168.5 197.918,-168.5"/>
<text text-anchor="start" x="205.918" y="-184.5" font-family="Helvetica,sans-Serif" font-size="10.00" fill="#000000">Parallel::Communicator</text>
<text text-anchor="middle" x="257.8809" y="-174.5" font-family="Helvetica,sans-Serif" font-size="10.00" fill="#000000">::getProcessRank</text>
</a>
</g>
</g>
<!-- Node58&#45;&gt;Node59 -->
<g id="edge1" class="edge">
<title>Node58&#45;&gt;Node59</title>
<path fill="none" stroke="#191970" d="M90.3476,-112.5173C111.0875,-126.082 144.3397,-146.4535 175.3984,-159.5 180.3669,-161.587 185.5821,-163.5442 190.8746,-165.3664"/>
<polygon fill="#191970" stroke="#191970" points="189.8553,-168.7154 200.4479,-168.4996 192.0326,-162.0627 189.8553,-168.7154"/>
</g>
<!-- Node60 -->
<g id="node3" class="node">
<title>Node60</title>
<g id="a_node3"><a xlink:href="class_observable_storer.html#af03e1c58c3e0efff251ef9b65cc8d152" target="_top" xlink:title=" ">
<polygon fill="#ffffff" stroke="#000000" points="175.3984,-131.5 175.3984,-149.5 340.3633,-149.5 340.3633,-131.5 175.3984,-131.5"/>
<text text-anchor="middle" x="257.8809" y="-137.5" font-family="Helvetica,sans-Serif" font-size="10.00" fill="#000000">ObservableStorer::getObservable</text>
</a>
</g>
</g>
<!-- Node58&#45;&gt;Node60 -->
<g id="edge2" class="edge">
<title>Node58&#45;&gt;Node60</title>
<path fill="none" stroke="#191970" d="M131.1608,-112.5473C145.6624,-115.8362 161.0715,-119.3102 175.3984,-122.5 185.27,-124.6978 195.8123,-127.0185 205.9466,-129.2362"/>
<polygon fill="#191970" stroke="#191970" points="205.3884,-132.6967 215.9049,-131.4111 206.8821,-125.8579 205.3884,-132.6967"/>
</g>
<!-- Node61 -->
<g id="node4" class="node">
<title>Node61</title>
<g id="a_node4"><a xlink:href="class_parallel_1_1_communicator.html#a6c60f0fbbe23ef0bf342b0157d080007" target="_top" xlink:title=" ">
<polygon fill="#ffffff" stroke="#000000" points="197.918,-84.5 197.918,-112.5 317.8438,-112.5 317.8438,-84.5 197.918,-84.5"/>
<text text-anchor="start" x="205.918" y="-100.5" font-family="Helvetica,sans-Serif" font-size="10.00" fill="#000000">Parallel::Communicator</text>
<text text-anchor="middle" x="257.8809" y="-90.5" font-family="Helvetica,sans-Serif" font-size="10.00" fill="#000000">::gatherDoubleResults</text>
</a>
</g>
</g>
<!-- Node58&#45;&gt;Node61 -->
<g id="edge3" class="edge">
<title>Node58&#45;&gt;Node61</title>
<path fill="none" stroke="#191970" d="M139.5037,-98.5C155.2058,-98.5 171.8765,-98.5 187.598,-98.5"/>
<polygon fill="#191970" stroke="#191970" points="187.7726,-102.0001 197.7726,-98.5 187.7725,-95.0001 187.7726,-102.0001"/>
</g>
<!-- Node62 -->
<g id="node5" class="node">
<title>Node62</title>
<g id="a_node5"><a xlink:href="class_parameters.html#a96dbafc27f287de83dfaec3bc2d45efe" target="_top" xlink:title=" ">
<polygon fill="#ffffff" stroke="#000000" points="187.354,-47.5 187.354,-65.5 328.4077,-65.5 328.4077,-47.5 187.354,-47.5"/>
<text text-anchor="middle" x="257.8809" y="-53.5" font-family="Helvetica,sans-Serif" font-size="10.00" fill="#000000">Parameters::getFlowEpsilon</text>
</a>
</g>
</g>
<!-- Node58&#45;&gt;Node62 -->
<g id="edge4" class="edge">
<title>Node58&#45;&gt;Node62</title>
<path fill="none" stroke="#191970" d="M132.6226,-84.4562C157.008,-79.0137 184.542,-72.8684 207.5724,-67.7283"/>
<polygon fill="#191970" stroke="#191970" points="208.4785,-71.1122 217.476,-65.5179 206.9537,-64.2803 208.4785,-71.1122"/>
</g>
<!-- Node63 -->
<g id="node6" class="node">
<title>Node63</title>
<g id="a_node6"><a xlink:href="class_parallel_1_1_communicator.html#a7b1f80fb49a0cc83f2031c3415174150" target="_top" xlink:title=" ">
<polygon fill="#ffffff" stroke="#000000" points="197.918,-.5 197.918,-28.5 317.8438,-28.5 317.8438,-.5 197.918,-.5"/>
<text text-anchor="start" x="205.918" y="-16.5" font-family="Helvetica,sans-Serif" font-size="10.00" fill="#000000">Parallel::Communicator</text>
<text text-anchor="middle" x="257.8809" y="-6.5" font-family="Helvetica,sans-Serif" font-size="10.00" fill="#000000">::getNumProc</text>
</a>
</g>
</g>
<!-- Node58&#45;&gt;Node63 -->
<g id="edge5" class="edge">
<title>Node58&#45;&gt;Node63</title>
<path fill="none" stroke="#191970" d="M91.204,-84.3051C112.0405,-71.0383 144.8815,-51.3924 175.3984,-38.5 181.0783,-36.1005 187.0748,-33.85 193.1377,-31.7631"/>
<polygon fill="#191970" stroke="#191970" points="194.2797,-35.072 202.6836,-28.6202 192.0906,-28.423 194.2797,-35.072"/>
</g>
</g>
</svg>
