<?xml version="1.0" encoding="UTF-8" standalone="no"?>
<!DOCTYPE svg PUBLIC "-//W3C//DTD SVG 1.1//EN"
 "http://www.w3.org/Graphics/SVG/1.1/DTD/svg11.dtd">
<!-- Generated by graphviz version 2.40.1 (20161225.0304)
 -->
<!-- Title: Parallel::Communicator::getProcessRank Pages: 1 -->
<svg width="767pt" height="891pt"
 viewBox="0.00 0.00 766.90 890.51" xmlns="http://www.w3.org/2000/svg" xmlns:xlink="http://www.w3.org/1999/xlink">
<g id="graph0" class="graph" transform="scale(1 1) rotate(0) translate(4 886.5073)">
<title>Parallel::Communicator::getProcessRank</title>
<polygon fill="#ffffff" stroke="transparent" points="-4,4 -4,-886.5073 762.8994,-886.5073 762.8994,4 -4,4"/>
<!-- Node80 -->
<g id="node1" class="node">
<title>Node80</title>
<g id="a_node1"><a xlink:title=" ">
<polygon fill="#bfbfbf" stroke="#000000" points="638.9736,-433.5 638.9736,-461.5 758.8994,-461.5 758.8994,-433.5 638.9736,-433.5"/>
<text text-anchor="start" x="646.9736" y="-449.5" font-family="Helvetica,sans-Serif" font-size="10.00" fill="#000000">Parallel::Communicator</text>
<text text-anchor="middle" x="698.9365" y="-439.5" font-family="Helvetica,sans-Serif" font-size="10.00" fill="#000000">::getProcessRank</text>
</a>
</g>
</g>
<!-- Node81 -->
<g id="node2" class="node">
<title>Node81</title>
<g id="a_node2"><a xlink:href="namespace_config_loader.html#a26cf01adba9411ef1fa006d5068d7cc4" target="_top" xlink:title="load">
<polygon fill="#ffffff" stroke="#000000" points="255.6768,-773.5 255.6768,-791.5 356.1836,-791.5 356.1836,-773.5 255.6768,-773.5"/>
<text text-anchor="middle" x="305.9302" y="-779.5" font-family="Helvetica,sans-Serif" font-size="10.00" fill="#000000">ConfigLoader::load</text>
</a>
</g>
</g>
<!-- Node80&#45;&gt;Node81 -->
<g id="edge1" class="edge">
<title>Node80&#45;&gt;Node81</title>
<path fill="none" stroke="#191970" d="M696.1112,-472.0207C687.1069,-545.3736 656.4905,-760.5591 602.9736,-801.5 518.2203,-866.3371 376.9209,-814.211 325.4466,-791.6288"/>
<polygon fill="#191970" stroke="#191970" points="699.6106,-472.234 697.3272,-461.8881 692.6605,-471.3998 699.6106,-472.234"/>
</g>
<!-- Node82 -->
<g id="node3" class="node">
<title>Node82</title>
<g id="a_node3"><a xlink:href="main_8cpp.html#a4e6f00a867970a9eedf47b88a27b9eea" target="_top" xlink:title=" ">
<polygon fill="#ffffff" stroke="#000000" points="73.0835,-773.5 73.0835,-791.5 110.7583,-791.5 110.7583,-773.5 73.0835,-773.5"/>
<text text-anchor="middle" x="91.9209" y="-779.5" font-family="Helvetica,sans-Serif" font-size="10.00" fill="#000000">main</text>
</a>
</g>
</g>
<!-- Node80&#45;&gt;Node82 -->
<g id="edge32" class="edge">
<title>Node80&#45;&gt;Node82</title>
<path fill="none" stroke="#191970" d="M696.6501,-471.9407C688.8733,-549.1647 660.6627,-785.482 602.9736,-830.5 447.7096,-951.6611 179.6543,-827.8578 109.2601,-791.7406"/>
<polygon fill="#191970" stroke="#191970" points="700.1573,-472.037 697.6503,-461.743 693.1908,-471.3536 700.1573,-472.037"/>
</g>
<!-- Node83 -->
<g id="node4" class="node">
<title>Node83</title>
<g id="a_node4"><a xlink:href="class_parameters.html#ace3967a0ee49901f55e9de69e0a96117" target="_top" xlink:title="Parameters::setMetropolisSeed set a seed for the Metropolis algorithm.">
<polygon fill="#ffffff" stroke="#000000" points="437.4644,-773.5 437.4644,-791.5 593.5278,-791.5 593.5278,-773.5 437.4644,-773.5"/>
<text text-anchor="middle" x="515.4961" y="-779.5" font-family="Helvetica,sans-Serif" font-size="10.00" fill="#000000">Parameters::setMetropolisSeed</text>
</a>
</g>
</g>
<!-- Node80&#45;&gt;Node83 -->
<g id="edge3" class="edge">
<title>Node80&#45;&gt;Node83</title>
<path fill="none" stroke="#191970" d="M694.8865,-471.6578C683.1859,-538.5651 647.3246,-724.0126 602.9736,-764.5 599.0802,-768.0543 594.6779,-770.9819 589.9706,-773.3868"/>
<polygon fill="#191970" stroke="#191970" points="698.3652,-472.0802 696.6133,-461.6312 691.4668,-470.8921 698.3652,-472.0802"/>
</g>
<!-- Node84 -->
<g id="node5" class="node">
<title>Node84</title>
<g id="a_node5"><a xlink:href="class_parameters.html#a46615f8286bd7363ab1f09074fdc6940" target="_top" xlink:title="Parameters::setRandomMatrixSeed set a seed for the random matrix generation(both RST and random metho...">
<polygon fill="#ffffff" stroke="#000000" points="428.0186,-736.5 428.0186,-754.5 602.9736,-754.5 602.9736,-736.5 428.0186,-736.5"/>
<text text-anchor="middle" x="515.4961" y="-742.5" font-family="Helvetica,sans-Serif" font-size="10.00" fill="#000000">Parameters::setRandomMatrixSeed</text>
</a>
</g>
</g>
<!-- Node80&#45;&gt;Node84 -->
<g id="edge5" class="edge">
<title>Node80&#45;&gt;Node84</title>
<path fill="none" stroke="#191970" d="M693.8636,-471.6796C680.5032,-533.0731 642.6364,-692.5882 602.9736,-727.5 598.9001,-731.0856 594.3052,-734.0272 589.4078,-736.434"/>
<polygon fill="#191970" stroke="#191970" points="697.3224,-472.2425 696.0002,-461.7305 690.4784,-470.7727 697.3224,-472.2425"/>
</g>
<!-- Node85 -->
<g id="node6" class="node">
<title>Node85</title>
<g id="a_node6"><a xlink:href="class_sys_print.html#a4572572643f6f4685081a3ae419e5ca9" target="_top" xlink:title="SysPrint::printSystemInfo prints out parametesr from Parallel:Communicator and Parameters.">
<polygon fill="#ffffff" stroke="#000000" points="451.3657,-699.5 451.3657,-717.5 579.6265,-717.5 579.6265,-699.5 451.3657,-699.5"/>
<text text-anchor="middle" x="515.4961" y="-705.5" font-family="Helvetica,sans-Serif" font-size="10.00" fill="#000000">SysPrint::printSystemInfo</text>
</a>
</g>
</g>
<!-- Node80&#45;&gt;Node85 -->
<g id="edge7" class="edge">
<title>Node80&#45;&gt;Node85</title>
<path fill="none" stroke="#191970" d="M696.8241,-471.7394C691.1638,-521.0619 671.0944,-633.261 602.9736,-690.5 596.2072,-696.1855 588.1172,-700.2316 579.6284,-703.0864"/>
<polygon fill="#191970" stroke="#191970" points="700.3171,-471.9882 697.8757,-461.6785 693.355,-471.2605 700.3171,-471.9882"/>
</g>
<!-- Node87 -->
<g id="node8" class="node">
<title>Node87</title>
<g id="a_node8"><a xlink:href="class_i_o_1_1_field_i_o.html#a8af607f9a1d79e90d4514c36103c6601" target="_top" xlink:title="IO::FieldIO::writeFieldToFile writes a lattice of SU3 matrix objects to file.">
<polygon fill="#ffffff" stroke="#000000" points="445.814,-662.5 445.814,-680.5 585.1782,-680.5 585.1782,-662.5 445.814,-662.5"/>
<text text-anchor="middle" x="515.4961" y="-668.5" font-family="Helvetica,sans-Serif" font-size="10.00" fill="#000000">IO::FieldIO::writeFieldToFile</text>
</a>
</g>
</g>
<!-- Node80&#45;&gt;Node87 -->
<g id="edge10" class="edge">
<title>Node80&#45;&gt;Node87</title>
<path fill="none" stroke="#191970" d="M694.9291,-471.6772C686.3692,-515.2636 662.0388,-606.8118 602.9736,-653.5 597.7431,-657.6345 591.8017,-660.8879 585.5357,-663.4395"/>
<polygon fill="#191970" stroke="#191970" points="698.3999,-472.1556 696.7772,-461.6858 691.5167,-470.8824 698.3999,-472.1556"/>
</g>
<!-- Node88 -->
<g id="node9" class="node">
<title>Node88</title>
<g id="a_node9"><a xlink:href="class_i_o_1_1_field_i_o.html#aaf2bac2025d67c06e7c61e8cc9f44777" target="_top" xlink:title="IO::FieldIO::writeDoublesFieldToFile writes a lattice of doubles to file.">
<polygon fill="#ffffff" stroke="#000000" points="451.644,-615.5 451.644,-643.5 579.3481,-643.5 579.3481,-615.5 451.644,-615.5"/>
<text text-anchor="start" x="459.644" y="-631.5" font-family="Helvetica,sans-Serif" font-size="10.00" fill="#000000">IO::FieldIO::writeDoubles</text>
<text text-anchor="middle" x="515.4961" y="-621.5" font-family="Helvetica,sans-Serif" font-size="10.00" fill="#000000">FieldToFile</text>
</a>
</g>
</g>
<!-- Node80&#45;&gt;Node88 -->
<g id="edge11" class="edge">
<title>Node80&#45;&gt;Node88</title>
<path fill="none" stroke="#191970" d="M691.1095,-471.3712C678.3602,-506.4424 649.7285,-571.5112 602.9736,-606.5 595.933,-611.7688 587.7867,-615.8331 579.3554,-618.9678"/>
<polygon fill="#191970" stroke="#191970" points="694.4174,-472.5148 694.4229,-461.92 687.8116,-470.1989 694.4174,-472.5148"/>
</g>
<!-- Node90 -->
<g id="node11" class="node">
<title>Node90</title>
<g id="a_node11"><a xlink:href="class_i_o_1_1_field_i_o.html#a02db864a48601edd7febaab5d655e495" target="_top" xlink:title=" ">
<polygon fill="#ffffff" stroke="#000000" points="430.5137,-578.5 430.5137,-596.5 600.4785,-596.5 600.4785,-578.5 430.5137,-578.5"/>
<text text-anchor="middle" x="515.4961" y="-584.5" font-family="Helvetica,sans-Serif" font-size="10.00" fill="#000000">IO::FieldIO::loadFieldConfiguration</text>
</a>
</g>
</g>
<!-- Node80&#45;&gt;Node90 -->
<g id="edge13" class="edge">
<title>Node80&#45;&gt;Node90</title>
<path fill="none" stroke="#191970" d="M687.1487,-470.9764C671.7701,-499.0554 642.1381,-545.293 602.9736,-569.5 597.0385,-573.1684 590.4869,-576.1034 583.7191,-578.4493"/>
<polygon fill="#191970" stroke="#191970" points="690.3868,-472.3411 691.9861,-461.8676 684.2046,-469.0578 690.3868,-472.3411"/>
</g>
<!-- Node91 -->
<g id="node12" class="node">
<title>Node91</title>
<g id="a_node12"><a xlink:href="class_i_o_1_1_field_i_o.html#af23fb6e02a6bd1cafd5be4acacbf848e" target="_top" xlink:title=" ">
<polygon fill="#ffffff" stroke="#000000" points="442.4717,-531.5 442.4717,-559.5 588.5205,-559.5 588.5205,-531.5 442.4717,-531.5"/>
<text text-anchor="start" x="450.4717" y="-547.5" font-family="Helvetica,sans-Serif" font-size="10.00" fill="#000000">IO::FieldIO::loadChromaField</text>
<text text-anchor="middle" x="515.4961" y="-537.5" font-family="Helvetica,sans-Serif" font-size="10.00" fill="#000000">Configuration</text>
</a>
</g>
</g>
<!-- Node80&#45;&gt;Node91 -->
<g id="edge14" class="edge">
<title>Node80&#45;&gt;Node91</title>
<path fill="none" stroke="#191970" d="M677.1872,-468.7621C658.8124,-485.6152 631.0664,-508.5728 602.9736,-522.5 596.0797,-525.9177 588.62,-528.8697 581.0637,-531.4091"/>
<polygon fill="#191970" stroke="#191970" points="680.0319,-470.8932 684.9379,-461.5027 675.2467,-465.7842 680.0319,-470.8932"/>
</g>
<!-- Node92 -->
<g id="node13" class="node">
<title>Node92</title>
<g id="a_node13"><a xlink:href="namespace_i_o.html#ad8cf5aef8f60d10b80292b69a091d5ac" target="_top" xlink:title=" ">
<polygon fill="#ffffff" stroke="#000000" points="447.4766,-494.5 447.4766,-512.5 583.5156,-512.5 583.5156,-494.5 447.4766,-494.5"/>
<text text-anchor="middle" x="515.4961" y="-500.5" font-family="Helvetica,sans-Serif" font-size="10.00" fill="#000000">IO::writeObservablesToFile</text>
</a>
</g>
</g>
<!-- Node80&#45;&gt;Node92 -->
<g id="edge15" class="edge">
<title>Node80&#45;&gt;Node92</title>
<path fill="none" stroke="#191970" d="M657.9249,-465.5622C641.1251,-472.4796 621.3463,-480.0176 602.9736,-485.5 591.5331,-488.9139 579.0607,-491.9025 567.2122,-494.4129"/>
<polygon fill="#191970" stroke="#191970" points="659.565,-468.67 667.439,-461.5812 656.863,-462.2125 659.565,-468.67"/>
</g>
<!-- Node99 -->
<g id="node20" class="node">
<title>Node99</title>
<g id="a_node20"><a xlink:href="namespace_i_o.html#a4f554804fd2ccd9c13c73777c5cbbf77" target="_top" xlink:title=" ">
<polygon fill="#ffffff" stroke="#000000" points="439.4199,-457.5 439.4199,-475.5 591.5723,-475.5 591.5723,-457.5 439.4199,-457.5"/>
<text text-anchor="middle" x="515.4961" y="-463.5" font-family="Helvetica,sans-Serif" font-size="10.00" fill="#000000">IO::writeFlowObservableToFile</text>
</a>
</g>
</g>
<!-- Node80&#45;&gt;Node99 -->
<g id="edge22" class="edge">
<title>Node80&#45;&gt;Node99</title>
<path fill="none" stroke="#191970" d="M628.8311,-454.7612C616.7049,-456.0172 604.0442,-457.3286 591.764,-458.6005"/>
<polygon fill="#191970" stroke="#191970" points="629.2851,-458.233 638.8713,-453.7213 628.5639,-451.2703 629.2851,-458.233"/>
</g>
<!-- Node106 -->
<g id="node27" class="node">
<title>Node106</title>
<g id="a_node27"><a xlink:href="namespace_i_o.html#ad77b7dd770afc8e2eb433d6187ea3616" target="_top" xlink:title=" ">
<polygon fill="#ffffff" stroke="#000000" points="252.3687,-350.5 252.3687,-368.5 359.4917,-368.5 359.4917,-350.5 252.3687,-350.5"/>
<text text-anchor="middle" x="305.9302" y="-356.5" font-family="Helvetica,sans-Serif" font-size="10.00" fill="#000000">IO::writeMatrixToFile</text>
</a>
</g>
</g>
<!-- Node80&#45;&gt;Node106 -->
<g id="edge29" class="edge">
<title>Node80&#45;&gt;Node106</title>
<path fill="none" stroke="#191970" d="M628.8467,-442.4963C573.574,-437.4003 494.9204,-427.5862 428.0186,-409.5 389.7668,-399.159 347.4593,-379.9605 324.0465,-368.5985"/>
<polygon fill="#191970" stroke="#191970" points="628.6152,-445.9895 638.8872,-443.3939 629.2386,-439.0173 628.6152,-445.9895"/>
</g>
<!-- Node107 -->
<g id="node28" class="node">
<title>Node107</title>
<g id="a_node28"><a xlink:href="class_correlator.html#a15744ddb9f2b71fff34ac762d101df38" target="_top" xlink:title=" ">
<polygon fill="#ffffff" stroke="#000000" points="447.1934,-381.5 447.1934,-399.5 583.7988,-399.5 583.7988,-381.5 447.1934,-381.5"/>
<text text-anchor="middle" x="515.4961" y="-387.5" font-family="Helvetica,sans-Serif" font-size="10.00" fill="#000000">Correlator::printObservable</text>
</a>
</g>
</g>
<!-- Node80&#45;&gt;Node107 -->
<g id="edge33" class="edge">
<title>Node80&#45;&gt;Node107</title>
<path fill="none" stroke="#191970" d="M650.2525,-430.0889C635.1643,-424.8737 618.4395,-419.2755 602.9736,-414.5 585.8197,-409.2032 566.5965,-403.8646 550.5485,-399.5718"/>
<polygon fill="#191970" stroke="#191970" points="649.3068,-433.4657 659.9016,-433.4483 651.6084,-426.8549 649.3068,-433.4657"/>
</g>
<!-- Node108 -->
<g id="node29" class="node">
<title>Node108</title>
<g id="a_node29"><a xlink:href="class_lattice_action_charge_density.html#abb7db718d4069faab0ed19f31aa85ad4" target="_top" xlink:title=" ">
<polygon fill="#ffffff" stroke="#000000" points="445.7969,-334.5 445.7969,-362.5 585.1953,-362.5 585.1953,-334.5 445.7969,-334.5"/>
<text text-anchor="start" x="453.7969" y="-350.5" font-family="Helvetica,sans-Serif" font-size="10.00" fill="#000000">LatticeActionChargeDensity</text>
<text text-anchor="middle" x="515.4961" y="-340.5" font-family="Helvetica,sans-Serif" font-size="10.00" fill="#000000">::printObservable</text>
</a>
</g>
</g>
<!-- Node80&#45;&gt;Node108 -->
<g id="edge34" class="edge">
<title>Node80&#45;&gt;Node108</title>
<path fill="none" stroke="#191970" d="M676.8239,-426.0218C658.4249,-409.2427 630.8279,-386.4944 602.9736,-372.5 595.3747,-368.6822 587.0893,-365.4071 578.7452,-362.6157"/>
<polygon fill="#191970" stroke="#191970" points="674.8937,-429.0068 684.5981,-433.2583 679.663,-423.883 674.8937,-429.0068"/>
</g>
<!-- Node109 -->
<g id="node30" class="node">
<title>Node109</title>
<g id="a_node30"><a xlink:href="class_master_sampler.html#a41853c3e4ab52fca7d93cf80e8702b7a" target="_top" xlink:title=" ">
<polygon fill="#ffffff" stroke="#000000" points="435.5234,-297.5 435.5234,-315.5 595.4688,-315.5 595.4688,-297.5 435.5234,-297.5"/>
<text text-anchor="middle" x="515.4961" y="-303.5" font-family="Helvetica,sans-Serif" font-size="10.00" fill="#000000">MasterSampler::printObservable</text>
</a>
</g>
</g>
<!-- Node80&#45;&gt;Node109 -->
<g id="edge35" class="edge">
<title>Node80&#45;&gt;Node109</title>
<path fill="none" stroke="#191970" d="M687.1045,-424.0946C671.6816,-396.0869 642.005,-349.9209 602.9736,-325.5 596.3862,-321.3784 589.035,-318.142 581.4696,-315.6023"/>
<polygon fill="#191970" stroke="#191970" points="684.1582,-426.0075 691.9573,-433.1786 690.3325,-422.7091 684.1582,-426.0075"/>
</g>
<!-- Node110 -->
<g id="node31" class="node">
<title>Node110</title>
<g id="a_node31"><a xlink:href="class_master_sampler_topc_x_y_z.html#ab2312c9e9dc1e9deeb5bce36784372ac" target="_top" xlink:title=" ">
<polygon fill="#ffffff" stroke="#000000" points="453.3115,-250.5 453.3115,-278.5 577.6807,-278.5 577.6807,-250.5 453.3115,-250.5"/>
<text text-anchor="start" x="461.3115" y="-266.5" font-family="Helvetica,sans-Serif" font-size="10.00" fill="#000000">MasterSamplerTopcXYZ</text>
<text text-anchor="middle" x="515.4961" y="-256.5" font-family="Helvetica,sans-Serif" font-size="10.00" fill="#000000">::printObservable</text>
</a>
</g>
</g>
<!-- Node80&#45;&gt;Node110 -->
<g id="edge36" class="edge">
<title>Node80&#45;&gt;Node110</title>
<path fill="none" stroke="#191970" d="M690.8956,-423.2405C678.004,-388.146 649.3415,-323.5864 602.9736,-288.5 595.5643,-282.8934 586.9238,-278.5963 578.0131,-275.3029"/>
<polygon fill="#191970" stroke="#191970" points="687.7565,-424.8614 694.3923,-433.1207 694.3554,-422.5259 687.7565,-424.8614"/>
</g>
<!-- Node111 -->
<g id="node32" class="node">
<title>Node111</title>
<g id="a_node32"><a xlink:href="class_plaquette.html#aa15bf42749c9fd995d4d572ca3ed4f22" target="_top" xlink:title=" ">
<polygon fill="#ffffff" stroke="#000000" points="448.2944,-213.5 448.2944,-231.5 582.6978,-231.5 582.6978,-213.5 448.2944,-213.5"/>
<text text-anchor="middle" x="515.4961" y="-219.5" font-family="Helvetica,sans-Serif" font-size="10.00" fill="#000000">Plaquette::printObservable</text>
</a>
</g>
</g>
<!-- Node80&#45;&gt;Node111 -->
<g id="edge37" class="edge">
<title>Node80&#45;&gt;Node111</title>
<path fill="none" stroke="#191970" d="M694.8793,-423.3854C686.2387,-379.9005 661.7825,-288.5106 602.9736,-241.5 597.0254,-236.7451 590.1493,-233.1143 582.9186,-230.3516"/>
<polygon fill="#191970" stroke="#191970" points="691.465,-424.1681 696.7466,-433.3526 698.3453,-422.8791 691.465,-424.1681"/>
</g>
<!-- Node112 -->
<g id="node33" class="node">
<title>Node112</title>
<g id="a_node33"><a xlink:href="class_super_sampler.html#adf92b9281ee9a782e6c00424dd23451d" target="_top" xlink:title=" ">
<polygon fill="#ffffff" stroke="#000000" points="437.4619,-176.5 437.4619,-194.5 593.5303,-194.5 593.5303,-176.5 437.4619,-176.5"/>
<text text-anchor="middle" x="515.4961" y="-182.5" font-family="Helvetica,sans-Serif" font-size="10.00" fill="#000000">SuperSampler::printObservable</text>
</a>
</g>
</g>
<!-- Node80&#45;&gt;Node112 -->
<g id="edge38" class="edge">
<title>Node80&#45;&gt;Node112</title>
<path fill="none" stroke="#191970" d="M696.7726,-423.3215C691.017,-374.1119 670.7803,-262.1108 602.9736,-204.5 598.2362,-200.4749 592.8435,-197.2438 587.1161,-194.6568"/>
<polygon fill="#191970" stroke="#191970" points="693.3023,-423.7867 697.8443,-433.3585 700.2627,-423.0434 693.3023,-423.7867"/>
</g>
<!-- Node113 -->
<g id="node34" class="node">
<title>Node113</title>
<g id="a_node34"><a xlink:href="class_observable_storer.html#a04a12e7da9e21d6947027230c953bffe" target="_top" xlink:title=" ">
<polygon fill="#ffffff" stroke="#000000" points="435.8018,-139.5 435.8018,-157.5 595.1904,-157.5 595.1904,-139.5 435.8018,-139.5"/>
<text text-anchor="middle" x="515.4961" y="-145.5" font-family="Helvetica,sans-Serif" font-size="10.00" fill="#000000">ObservableStorer::printStatistics</text>
</a>
</g>
</g>
<!-- Node80&#45;&gt;Node113 -->
<g id="edge39" class="edge">
<title>Node80&#45;&gt;Node113</title>
<path fill="none" stroke="#191970" d="M693.8413,-423.3456C680.4278,-362.0121 642.4448,-202.6283 602.9736,-167.5 598.446,-163.4705 593.2676,-160.2278 587.7419,-157.6257"/>
<polygon fill="#191970" stroke="#191970" points="690.4555,-424.2483 695.9867,-433.2847 697.2979,-422.7713 690.4555,-424.2483"/>
</g>
<!-- Node121 -->
<g id="node42" class="node">
<title>Node121</title>
<g id="a_node42"><a xlink:href="class_system.html#ae317936c9bcf1374d61745572e0f2f8a" target="_top" xlink:title=" ">
<polygon fill="#ffffff" stroke="#000000" points="471.3779,-102.5 471.3779,-120.5 559.6143,-120.5 559.6143,-102.5 471.3779,-102.5"/>
<text text-anchor="middle" x="515.4961" y="-108.5" font-family="Helvetica,sans-Serif" font-size="10.00" fill="#000000">System::System</text>
</a>
</g>
</g>
<!-- Node80&#45;&gt;Node121 -->
<g id="edge47" class="edge">
<title>Node80&#45;&gt;Node121</title>
<path fill="none" stroke="#191970" d="M694.8639,-423.3668C683.1041,-356.524 647.1024,-171.2294 602.9736,-130.5 591.3249,-119.7486 575.0715,-114.5484 559.732,-112.1826"/>
<polygon fill="#191970" stroke="#191970" points="691.4436,-424.128 696.5998,-433.3835 698.3408,-422.9327 691.4436,-424.128"/>
</g>
<!-- Node122 -->
<g id="node43" class="node">
<title>Node122</title>
<g id="a_node43"><a xlink:href="class_performance_tests.html#aa55ebdbc84db93cc45adfdf7163f90b4" target="_top" xlink:title=" ">
<polygon fill="#ffffff" stroke="#000000" points="457.1982,-65.5 457.1982,-83.5 573.7939,-83.5 573.7939,-65.5 457.1982,-65.5"/>
<text text-anchor="middle" x="515.4961" y="-71.5" font-family="Helvetica,sans-Serif" font-size="10.00" fill="#000000">PerformanceTests::run</text>
</a>
</g>
</g>
<!-- Node80&#45;&gt;Node122 -->
<g id="edge48" class="edge">
<title>Node80&#45;&gt;Node122</title>
<path fill="none" stroke="#191970" d="M695.6899,-423.4728C685.4864,-351.5252 651.8149,-139.9191 602.9736,-93.5 594.9754,-85.8985 584.685,-81.0519 573.989,-78.017"/>
<polygon fill="#191970" stroke="#191970" points="692.2276,-423.9867 697.0747,-433.4077 699.1606,-423.0203 692.2276,-423.9867"/>
</g>
<!-- Node124 -->
<g id="node45" class="node">
<title>Node124</title>
<g id="a_node45"><a xlink:href="class_test_suite.html#af7291e6d8b53443604ee0c1fcf1fadfc" target="_top" xlink:title=" ">
<polygon fill="#ffffff" stroke="#000000" points="463.585,-28.5 463.585,-46.5 567.4072,-46.5 567.4072,-28.5 463.585,-28.5"/>
<text text-anchor="middle" x="515.4961" y="-34.5" font-family="Helvetica,sans-Serif" font-size="10.00" fill="#000000">TestSuite::TestSuite</text>
</a>
</g>
</g>
<!-- Node80&#45;&gt;Node124 -->
<g id="edge50" class="edge">
<title>Node80&#45;&gt;Node124</title>
<path fill="none" stroke="#191970" d="M696.3335,-422.9663C687.6022,-345.3789 656.8345,-107.3963 602.9736,-55.5 593.4829,-46.3554 580.6506,-41.299 567.7422,-38.6241"/>
<polygon fill="#191970" stroke="#191970" points="692.8878,-423.652 697.462,-433.2085 699.8457,-422.8853 692.8878,-423.652"/>
</g>
<!-- Node81&#45;&gt;Node82 -->
<g id="edge2" class="edge">
<title>Node81&#45;&gt;Node82</title>
<path fill="none" stroke="#191970" d="M245.4332,-782.5C200.0023,-782.5 140.6847,-782.5 110.8325,-782.5"/>
<polygon fill="#191970" stroke="#191970" points="245.484,-786.0001 255.484,-782.5 245.4839,-779.0001 245.484,-786.0001"/>
</g>
<!-- Node83&#45;&gt;Node81 -->
<g id="edge4" class="edge">
<title>Node83&#45;&gt;Node81</title>
<path fill="none" stroke="#191970" d="M427.1889,-782.5C403.012,-782.5 377.6347,-782.5 356.3806,-782.5"/>
<polygon fill="#191970" stroke="#191970" points="427.4615,-786.0001 437.4615,-782.5 427.4614,-779.0001 427.4615,-786.0001"/>
</g>
<!-- Node84&#45;&gt;Node81 -->
<g id="edge6" class="edge">
<title>Node84&#45;&gt;Node81</title>
<path fill="none" stroke="#191970" d="M454.6209,-756.2479C423.4575,-761.7499 385.9684,-768.3688 356.4301,-773.584"/>
<polygon fill="#191970" stroke="#191970" points="455.2593,-759.6893 464.4985,-754.5039 454.0422,-752.796 455.2593,-759.6893"/>
</g>
<!-- Node86 -->
<g id="node7" class="node">
<title>Node86</title>
<g id="a_node7"><a xlink:href="class_system.html#a93c8a8258ac8f6382ec393bca1271011" target="_top" xlink:title=" ">
<polygon fill="#ffffff" stroke="#000000" points="252.354,-718.5 252.354,-736.5 359.5063,-736.5 359.5063,-718.5 252.354,-718.5"/>
<text text-anchor="middle" x="305.9302" y="-724.5" font-family="Helvetica,sans-Serif" font-size="10.00" fill="#000000">System::latticeSetup</text>
</a>
</g>
</g>
<!-- Node85&#45;&gt;Node86 -->
<g id="edge8" class="edge">
<title>Node85&#45;&gt;Node86</title>
<path fill="none" stroke="#191970" d="M441.042,-715.2503C414.1338,-717.6899 384.3056,-720.3942 359.5351,-722.64"/>
<polygon fill="#191970" stroke="#191970" points="441.5521,-718.7185 451.1952,-714.3297 440.92,-711.7471 441.5521,-718.7185"/>
</g>
<!-- Node86&#45;&gt;Node82 -->
<g id="edge9" class="edge">
<title>Node86&#45;&gt;Node82</title>
<path fill="none" stroke="#191970" d="M261.856,-739.1788C238.6576,-745.2939 209.7283,-752.8691 183.8418,-759.5 158.663,-765.9496 129.5497,-773.1991 110.9497,-777.8044"/>
<polygon fill="#191970" stroke="#191970" points="262.9741,-742.5037 271.75,-736.5678 261.1879,-735.7354 262.9741,-742.5037"/>
</g>
<!-- Node89 -->
<g id="node10" class="node">
<title>Node89</title>
<g id="a_node10"><a xlink:href="class_lattice_action_charge_density.html#a3dddc75188042c645fbdd1c8b3e80c8a" target="_top" xlink:title=" ">
<polygon fill="#ffffff" stroke="#000000" points="236.231,-627.5 236.231,-655.5 375.6294,-655.5 375.6294,-627.5 236.231,-627.5"/>
<text text-anchor="start" x="244.231" y="-643.5" font-family="Helvetica,sans-Serif" font-size="10.00" fill="#000000">LatticeActionChargeDensity</text>
<text text-anchor="middle" x="305.9302" y="-633.5" font-family="Helvetica,sans-Serif" font-size="10.00" fill="#000000">::calculate</text>
</a>
</g>
</g>
<!-- Node88&#45;&gt;Node89 -->
<g id="edge12" class="edge">
<title>Node88&#45;&gt;Node89</title>
<path fill="none" stroke="#191970" d="M441.4831,-633.7381C420.11,-634.9619 396.8628,-636.2931 375.7535,-637.5018"/>
<polygon fill="#191970" stroke="#191970" points="441.6972,-637.2316 451.4807,-633.1656 441.2969,-630.2431 441.6972,-637.2316"/>
</g>
<!-- Node93 -->
<g id="node14" class="node">
<title>Node93</title>
<g id="a_node14"><a xlink:href="class_observable_storer.html#a146f9acb8a0a2ce15782d26bdc4f0bf9" target="_top" xlink:title=" ">
<polygon fill="#ffffff" stroke="#000000" points="219.8418,-580.5 219.8418,-608.5 392.0186,-608.5 392.0186,-580.5 219.8418,-580.5"/>
<text text-anchor="start" x="227.8418" y="-596.5" font-family="Helvetica,sans-Serif" font-size="10.00" fill="#000000">ObservableStorer::writeObservable</text>
<text text-anchor="middle" x="305.9302" y="-586.5" font-family="Helvetica,sans-Serif" font-size="10.00" fill="#000000">ToFile</text>
</a>
</g>
</g>
<!-- Node92&#45;&gt;Node93 -->
<g id="edge16" class="edge">
<title>Node92&#45;&gt;Node93</title>
<path fill="none" stroke="#191970" d="M451.0728,-515.024C443.1935,-517.1526 435.3442,-519.6303 428.0186,-522.5 389.2973,-537.6683 348.4933,-564.1878 325.2314,-580.4609"/>
<polygon fill="#191970" stroke="#191970" points="452.1922,-518.3513 461.0322,-512.5113 450.4798,-511.564 452.1922,-518.3513"/>
</g>
<!-- Node94 -->
<g id="node15" class="node">
<title>Node94</title>
<g id="a_node15"><a xlink:href="class_correlator.html#a9e8d80e30e4fbe3b7fe57521538cb5ff" target="_top" xlink:title=" ">
<polygon fill="#ffffff" stroke="#000000" points="22.7881,-580.5 22.7881,-608.5 161.0537,-608.5 161.0537,-580.5 22.7881,-580.5"/>
<text text-anchor="start" x="30.7881" y="-596.5" font-family="Helvetica,sans-Serif" font-size="10.00" fill="#000000">Correlator::writeObservable</text>
<text text-anchor="middle" x="91.9209" y="-586.5" font-family="Helvetica,sans-Serif" font-size="10.00" fill="#000000">ToFile</text>
</a>
</g>
</g>
<!-- Node93&#45;&gt;Node94 -->
<g id="edge17" class="edge">
<title>Node93&#45;&gt;Node94</title>
<path fill="none" stroke="#191970" d="M209.6767,-594.5C193.3101,-594.5 176.6046,-594.5 161.1126,-594.5"/>
<polygon fill="#191970" stroke="#191970" points="209.8095,-598.0001 219.8095,-594.5 209.8095,-591.0001 209.8095,-598.0001"/>
</g>
<!-- Node95 -->
<g id="node16" class="node">
<title>Node95</title>
<g id="a_node16"><a xlink:href="class_lattice_action_charge_density.html#a719f71aaccbf1b4147ea944781d69908" target="_top" xlink:title=" ">
<polygon fill="#ffffff" stroke="#000000" points="22.2217,-533.5 22.2217,-561.5 161.6201,-561.5 161.6201,-533.5 22.2217,-533.5"/>
<text text-anchor="start" x="30.2217" y="-549.5" font-family="Helvetica,sans-Serif" font-size="10.00" fill="#000000">LatticeActionChargeDensity</text>
<text text-anchor="middle" x="91.9209" y="-539.5" font-family="Helvetica,sans-Serif" font-size="10.00" fill="#000000">::writeObservableToFile</text>
</a>
</g>
</g>
<!-- Node93&#45;&gt;Node95 -->
<g id="edge18" class="edge">
<title>Node93&#45;&gt;Node95</title>
<path fill="none" stroke="#191970" d="M231.9412,-578.2508C207.1821,-572.8133 179.8086,-566.8016 155.881,-561.5467"/>
<polygon fill="#191970" stroke="#191970" points="231.4922,-581.7355 242.0102,-580.4621 232.9938,-574.8985 231.4922,-581.7355"/>
</g>
<!-- Node96 -->
<g id="node17" class="node">
<title>Node96</title>
<g id="a_node17"><a xlink:href="class_master_sampler.html#a638714c38e1a6252ab8b6be1fa224bd4" target="_top" xlink:title=" ">
<polygon fill="#ffffff" stroke="#000000" points="11.1182,-721.5 11.1182,-749.5 172.7236,-749.5 172.7236,-721.5 11.1182,-721.5"/>
<text text-anchor="start" x="19.1182" y="-737.5" font-family="Helvetica,sans-Serif" font-size="10.00" fill="#000000">MasterSampler::writeObservable</text>
<text text-anchor="middle" x="91.9209" y="-727.5" font-family="Helvetica,sans-Serif" font-size="10.00" fill="#000000">ToFile</text>
</a>
</g>
</g>
<!-- Node93&#45;&gt;Node96 -->
<g id="edge19" class="edge">
<title>Node93&#45;&gt;Node96</title>
<path fill="none" stroke="#191970" d="M225.2816,-614.0885C223.3854,-615.4617 221.5665,-616.9301 219.8418,-618.5 186.7588,-648.6147 217.3239,-682.8296 183.8418,-712.5 180.0251,-715.8822 175.7849,-718.7825 171.2796,-721.2681"/>
<polygon fill="#191970" stroke="#191970" points="227.3851,-616.9024 234.0376,-608.6565 223.6949,-610.9541 227.3851,-616.9024"/>
</g>
<!-- Node97 -->
<g id="node18" class="node">
<title>Node97</title>
<g id="a_node18"><a xlink:href="class_master_sampler_topc_x_y_z.html#a930f13a2a13f4b3820f40c8b52110cf2" target="_top" xlink:title=" ">
<polygon fill="#ffffff" stroke="#000000" points="29.7363,-674.5 29.7363,-702.5 154.1055,-702.5 154.1055,-674.5 29.7363,-674.5"/>
<text text-anchor="start" x="37.7363" y="-690.5" font-family="Helvetica,sans-Serif" font-size="10.00" fill="#000000">MasterSamplerTopcXYZ</text>
<text text-anchor="middle" x="91.9209" y="-680.5" font-family="Helvetica,sans-Serif" font-size="10.00" fill="#000000">::writeObservableToFile</text>
</a>
</g>
</g>
<!-- Node93&#45;&gt;Node97 -->
<g id="edge20" class="edge">
<title>Node93&#45;&gt;Node97</title>
<path fill="none" stroke="#191970" d="M229.5309,-612.7882C226.1643,-614.5235 222.9146,-616.4224 219.8418,-618.5 198.0441,-633.2379 205.8343,-651.0544 183.8418,-665.5 174.9045,-671.3704 164.5797,-675.7425 154.1482,-678.9987"/>
<polygon fill="#191970" stroke="#191970" points="231.0633,-615.9357 238.6748,-608.5658 228.1287,-609.5806 231.0633,-615.9357"/>
</g>
<!-- Node98 -->
<g id="node19" class="node">
<title>Node98</title>
<g id="a_node19"><a xlink:href="class_super_sampler.html#a05b42b82879233dc329d280a61bfd7f0" target="_top" xlink:title=" ">
<polygon fill="#ffffff" stroke="#000000" points="13.0566,-627.5 13.0566,-655.5 170.7852,-655.5 170.7852,-627.5 13.0566,-627.5"/>
<text text-anchor="start" x="21.0566" y="-643.5" font-family="Helvetica,sans-Serif" font-size="10.00" fill="#000000">SuperSampler::writeObservable</text>
<text text-anchor="middle" x="91.9209" y="-633.5" font-family="Helvetica,sans-Serif" font-size="10.00" fill="#000000">ToFile</text>
</a>
</g>
</g>
<!-- Node93&#45;&gt;Node98 -->
<g id="edge21" class="edge">
<title>Node93&#45;&gt;Node98</title>
<path fill="none" stroke="#191970" d="M231.9412,-610.7492C207.1821,-616.1867 179.8086,-622.1984 155.881,-627.4533"/>
<polygon fill="#191970" stroke="#191970" points="232.9938,-614.1015 242.0102,-608.5379 231.4922,-607.2645 232.9938,-614.1015"/>
</g>
<!-- Node100 -->
<g id="node21" class="node">
<title>Node100</title>
<g id="a_node21"><a xlink:href="class_observable_storer.html#af51ebd65eae2a5087cfd47ddf230da93" target="_top" xlink:title=" ">
<polygon fill="#ffffff" stroke="#000000" points="234.854,-416.5 234.854,-444.5 377.0063,-444.5 377.0063,-416.5 234.854,-416.5"/>
<text text-anchor="start" x="242.854" y="-432.5" font-family="Helvetica,sans-Serif" font-size="10.00" fill="#000000">ObservableStorer::writeFlow</text>
<text text-anchor="middle" x="305.9302" y="-422.5" font-family="Helvetica,sans-Serif" font-size="10.00" fill="#000000">ObservableToFile</text>
</a>
</g>
</g>
<!-- Node99&#45;&gt;Node100 -->
<g id="edge23" class="edge">
<title>Node99&#45;&gt;Node100</title>
<path fill="none" stroke="#191970" d="M452.904,-455.7477C429.0749,-451.6542 401.751,-446.9604 377.1778,-442.7392"/>
<polygon fill="#191970" stroke="#191970" points="452.436,-459.2185 462.8843,-457.4621 453.6212,-452.3196 452.436,-459.2185"/>
</g>
<!-- Node101 -->
<g id="node22" class="node">
<title>Node101</title>
<g id="a_node22"><a xlink:href="class_correlator.html#a168512b2ce182d9478db47f100125fa6" target="_top" xlink:title=" ">
<polygon fill="#ffffff" stroke="#000000" points="9.7314,-486.5 9.7314,-514.5 174.1104,-514.5 174.1104,-486.5 9.7314,-486.5"/>
<text text-anchor="start" x="17.7314" y="-502.5" font-family="Helvetica,sans-Serif" font-size="10.00" fill="#000000">Correlator::writeFlowObservables</text>
<text text-anchor="middle" x="91.9209" y="-492.5" font-family="Helvetica,sans-Serif" font-size="10.00" fill="#000000">ToFile</text>
</a>
</g>
</g>
<!-- Node100&#45;&gt;Node101 -->
<g id="edge24" class="edge">
<title>Node100&#45;&gt;Node101</title>
<path fill="none" stroke="#191970" d="M263.0906,-448.4692C239.8802,-457.8283 210.5586,-469.0498 183.8418,-477.5 173.8036,-480.6749 163.0395,-483.6999 152.5397,-486.4515"/>
<polygon fill="#191970" stroke="#191970" points="264.6941,-451.5956 272.6384,-444.5858 262.0566,-445.1114 264.6941,-451.5956"/>
</g>
<!-- Node102 -->
<g id="node23" class="node">
<title>Node102</title>
<g id="a_node23"><a xlink:href="class_lattice_action_charge_density.html#a54226556dc1497c311e4a4d50bf44c26" target="_top" xlink:title=" ">
<polygon fill="#ffffff" stroke="#000000" points="18.623,-439.5 18.623,-467.5 165.2188,-467.5 165.2188,-439.5 18.623,-439.5"/>
<text text-anchor="start" x="26.623" y="-455.5" font-family="Helvetica,sans-Serif" font-size="10.00" fill="#000000">LatticeActionChargeDensity</text>
<text text-anchor="middle" x="91.9209" y="-445.5" font-family="Helvetica,sans-Serif" font-size="10.00" fill="#000000">::writeFlowObservablesToFile</text>
</a>
</g>
</g>
<!-- Node100&#45;&gt;Node102 -->
<g id="edge25" class="edge">
<title>Node100&#45;&gt;Node102</title>
<path fill="none" stroke="#191970" d="M224.6201,-439.2386C205.1672,-441.3292 184.5101,-443.5493 165.4327,-445.5995"/>
<polygon fill="#191970" stroke="#191970" points="225.0995,-442.7073 234.6682,-438.1587 224.3514,-435.7474 225.0995,-442.7073"/>
</g>
<!-- Node103 -->
<g id="node24" class="node">
<title>Node103</title>
<g id="a_node24"><a xlink:href="class_master_sampler.html#ad475928217ac61fae134128904aaa9f8" target="_top" xlink:title=" ">
<polygon fill="#ffffff" stroke="#000000" points="26.1304,-392.5 26.1304,-420.5 157.7114,-420.5 157.7114,-392.5 26.1304,-392.5"/>
<text text-anchor="start" x="34.1304" y="-408.5" font-family="Helvetica,sans-Serif" font-size="10.00" fill="#000000">MasterSampler::writeFlow</text>
<text text-anchor="middle" x="91.9209" y="-398.5" font-family="Helvetica,sans-Serif" font-size="10.00" fill="#000000">ObservablesToFile</text>
</a>
</g>
</g>
<!-- Node100&#45;&gt;Node103 -->
<g id="edge26" class="edge">
<title>Node100&#45;&gt;Node103</title>
<path fill="none" stroke="#191970" d="M224.6464,-421.3845C202.5646,-418.9081 178.9293,-416.2575 157.8131,-413.8895"/>
<polygon fill="#191970" stroke="#191970" points="224.3404,-424.872 234.6682,-422.5083 225.1206,-417.9156 224.3404,-424.872"/>
</g>
<!-- Node104 -->
<g id="node25" class="node">
<title>Node104</title>
<g id="a_node25"><a xlink:href="class_master_sampler_topc_x_y_z.html#a4fba4290e4406e18ef3f2904c6ae364f" target="_top" xlink:title=" ">
<polygon fill="#ffffff" stroke="#000000" points="18.623,-298.5 18.623,-326.5 165.2188,-326.5 165.2188,-298.5 18.623,-298.5"/>
<text text-anchor="start" x="26.623" y="-314.5" font-family="Helvetica,sans-Serif" font-size="10.00" fill="#000000">MasterSamplerTopcXYZ</text>
<text text-anchor="middle" x="91.9209" y="-304.5" font-family="Helvetica,sans-Serif" font-size="10.00" fill="#000000">::writeFlowObservablesToFile</text>
</a>
</g>
</g>
<!-- Node100&#45;&gt;Node104 -->
<g id="edge27" class="edge">
<title>Node100&#45;&gt;Node104</title>
<path fill="none" stroke="#191970" d="M268.6717,-411.4507C252.8388,-402.504 234.6549,-391.0473 219.8418,-378.5 201.0818,-362.6095 204.6878,-349.5341 183.8418,-336.5 177.5486,-332.5652 170.6276,-329.2721 163.494,-326.5168"/>
<polygon fill="#191970" stroke="#191970" points="267.2321,-414.6537 277.679,-416.4177 270.6123,-408.5239 267.2321,-414.6537"/>
</g>
<!-- Node105 -->
<g id="node26" class="node">
<title>Node105</title>
<g id="a_node26"><a xlink:href="class_super_sampler.html#a410b650ebccdb03519c88908a3a8013e" target="_top" xlink:title=" ">
<polygon fill="#ffffff" stroke="#000000" points="0,-345.5 0,-373.5 183.8418,-373.5 183.8418,-345.5 0,-345.5"/>
<text text-anchor="start" x="8" y="-361.5" font-family="Helvetica,sans-Serif" font-size="10.00" fill="#000000">SuperSampler::writeFlowObservables</text>
<text text-anchor="middle" x="91.9209" y="-351.5" font-family="Helvetica,sans-Serif" font-size="10.00" fill="#000000">ToFile</text>
</a>
</g>
</g>
<!-- Node100&#45;&gt;Node105 -->
<g id="edge28" class="edge">
<title>Node100&#45;&gt;Node105</title>
<path fill="none" stroke="#191970" d="M262.8084,-412.5412C239.6272,-403.2333 210.4205,-392.056 183.8418,-383.5 173.0088,-380.0127 161.3376,-376.6618 150.0672,-373.627"/>
<polygon fill="#191970" stroke="#191970" points="261.7663,-415.8952 272.349,-416.4027 264.3926,-409.4065 261.7663,-415.8952"/>
</g>
<!-- Node106&#45;&gt;Node104 -->
<g id="edge30" class="edge">
<title>Node106&#45;&gt;Node104</title>
<path fill="none" stroke="#191970" d="M254.7889,-348.2685C225.1439,-341.758 187.5493,-333.5016 155.9507,-326.562"/>
<polygon fill="#191970" stroke="#191970" points="254.4022,-351.7669 264.9203,-350.4935 255.9038,-344.9299 254.4022,-351.7669"/>
</g>
<!-- Node106&#45;&gt;Node105 -->
<g id="edge31" class="edge">
<title>Node106&#45;&gt;Node105</title>
<path fill="none" stroke="#191970" d="M242.0124,-359.5C223.7857,-359.5 203.5566,-359.5 184.0052,-359.5"/>
<polygon fill="#191970" stroke="#191970" points="242.2029,-363.0001 252.2028,-359.5 242.2028,-356.0001 242.2029,-363.0001"/>
</g>
<!-- Node114 -->
<g id="node35" class="node">
<title>Node114</title>
<g id="a_node35"><a xlink:href="class_correlator.html#a2168d677f547769784781d2e2aaa53cf" target="_top" xlink:title=" ">
<polygon fill="#ffffff" stroke="#000000" points="243.1914,-158.5 243.1914,-176.5 368.6689,-176.5 368.6689,-158.5 243.1914,-158.5"/>
<text text-anchor="middle" x="305.9302" y="-164.5" font-family="Helvetica,sans-Serif" font-size="10.00" fill="#000000">Correlator::printStatistics</text>
</a>
</g>
</g>
<!-- Node113&#45;&gt;Node114 -->
<g id="edge40" class="edge">
<title>Node113&#45;&gt;Node114</title>
<path fill="none" stroke="#191970" d="M425.4788,-156.6613C406.4291,-158.3884 386.715,-160.1758 368.9234,-161.7888"/>
<polygon fill="#191970" stroke="#191970" points="426.0273,-160.126 435.6704,-155.7373 425.3952,-153.1546 426.0273,-160.126"/>
</g>
<!-- Node115 -->
<g id="node36" class="node">
<title>Node115</title>
<g id="a_node36"><a xlink:href="class_energy_density.html#ad108e32bc670f17f15b4ed433d8bbec7" target="_top" xlink:title=" ">
<polygon fill="#ffffff" stroke="#000000" points="232.9058,-121.5 232.9058,-139.5 378.9546,-139.5 378.9546,-121.5 232.9058,-121.5"/>
<text text-anchor="middle" x="305.9302" y="-127.5" font-family="Helvetica,sans-Serif" font-size="10.00" fill="#000000">EnergyDensity::printStatistics</text>
</a>
</g>
</g>
<!-- Node113&#45;&gt;Node115 -->
<g id="edge41" class="edge">
<title>Node113&#45;&gt;Node115</title>
<path fill="none" stroke="#191970" d="M425.538,-140.7733C409.9996,-139.4387 394.0172,-138.066 378.9952,-136.7757"/>
<polygon fill="#191970" stroke="#191970" points="425.4075,-144.2749 435.6704,-141.6436 426.0066,-137.3006 425.4075,-144.2749"/>
</g>
<!-- Node116 -->
<g id="node37" class="node">
<title>Node116</title>
<g id="a_node37"><a xlink:href="class_lattice_action_charge_density.html#abdaa497dd70dee58b810de7315241a56" target="_top" xlink:title=" ">
<polygon fill="#ffffff" stroke="#000000" points="236.231,-74.5 236.231,-102.5 375.6294,-102.5 375.6294,-74.5 236.231,-74.5"/>
<text text-anchor="start" x="244.231" y="-90.5" font-family="Helvetica,sans-Serif" font-size="10.00" fill="#000000">LatticeActionChargeDensity</text>
<text text-anchor="middle" x="305.9302" y="-80.5" font-family="Helvetica,sans-Serif" font-size="10.00" fill="#000000">::printStatistics</text>
</a>
</g>
</g>
<!-- Node113&#45;&gt;Node116 -->
<g id="edge42" class="edge">
<title>Node113&#45;&gt;Node116</title>
<path fill="none" stroke="#191970" d="M450.3348,-137.0627C442.7317,-135.1497 435.15,-132.9689 428.0186,-130.5 411.1144,-124.6477 408.711,-118.9315 392.0186,-112.5 382.6076,-108.874 372.4257,-105.5421 362.471,-102.5887"/>
<polygon fill="#191970" stroke="#191970" points="449.7686,-140.5253 460.3061,-139.4249 451.3823,-133.7139 449.7686,-140.5253"/>
</g>
<!-- Node117 -->
<g id="node38" class="node">
<title>Node117</title>
<g id="a_node38"><a xlink:href="class_master_sampler.html#a9accfc83c05d3013396355e40257a562" target="_top" xlink:title=" ">
<polygon fill="#ffffff" stroke="#000000" points="231.5215,-37.5 231.5215,-55.5 380.3389,-55.5 380.3389,-37.5 231.5215,-37.5"/>
<text text-anchor="middle" x="305.9302" y="-43.5" font-family="Helvetica,sans-Serif" font-size="10.00" fill="#000000">MasterSampler::printStatistics</text>
</a>
</g>
</g>
<!-- Node113&#45;&gt;Node117 -->
<g id="edge43" class="edge">
<title>Node113&#45;&gt;Node117</title>
<path fill="none" stroke="#191970" d="M434.6898,-134.8427C432.3766,-133.5181 430.145,-132.074 428.0186,-130.5 401.162,-110.6211 418.8434,-84.4216 392.0186,-64.5 387.1152,-60.8585 381.6424,-57.9155 375.8978,-55.5417"/>
<polygon fill="#191970" stroke="#191970" points="433.4468,-138.1309 443.9676,-139.3809 436.5226,-131.8428 433.4468,-138.1309"/>
</g>
<!-- Node118 -->
<g id="node39" class="node">
<title>Node118</title>
<g id="a_node39"><a xlink:href="class_master_sampler_topc_x_y_z.html#a5a34a7f90ce8eea6c0efa06cfdfeb5f1" target="_top" xlink:title=" ">
<polygon fill="#ffffff" stroke="#000000" points="243.7456,-279.5 243.7456,-307.5 368.1147,-307.5 368.1147,-279.5 243.7456,-279.5"/>
<text text-anchor="start" x="251.7456" y="-295.5" font-family="Helvetica,sans-Serif" font-size="10.00" fill="#000000">MasterSamplerTopcXYZ</text>
<text text-anchor="middle" x="305.9302" y="-285.5" font-family="Helvetica,sans-Serif" font-size="10.00" fill="#000000">::printStatistics</text>
</a>
</g>
</g>
<!-- Node113&#45;&gt;Node118 -->
<g id="edge44" class="edge">
<title>Node113&#45;&gt;Node118</title>
<path fill="none" stroke="#191970" d="M434.3233,-162.6666C432.1148,-164.136 430.0047,-165.7431 428.0186,-167.5 391.6961,-199.6292 427.5728,-237.5228 392.0186,-270.5 385.3266,-276.7069 377.1465,-281.2745 368.5197,-284.6287"/>
<polygon fill="#191970" stroke="#191970" points="436.2599,-165.5936 443.2766,-157.6553 432.841,-159.4853 436.2599,-165.5936"/>
</g>
<!-- Node119 -->
<g id="node40" class="node">
<title>Node119</title>
<g id="a_node40"><a xlink:href="class_super_sampler.html#a04b230314ae446c77172c97ff52cf4f3" target="_top" xlink:title=" ">
<polygon fill="#ffffff" stroke="#000000" points="233.46,-242.5 233.46,-260.5 378.4004,-260.5 378.4004,-242.5 233.46,-242.5"/>
<text text-anchor="middle" x="305.9302" y="-248.5" font-family="Helvetica,sans-Serif" font-size="10.00" fill="#000000">SuperSampler::printStatistics</text>
</a>
</g>
</g>
<!-- Node113&#45;&gt;Node119 -->
<g id="edge45" class="edge">
<title>Node113&#45;&gt;Node119</title>
<path fill="none" stroke="#191970" d="M436.9911,-161.8131C433.8503,-163.499 430.841,-165.3868 428.0186,-167.5 401.2712,-187.5255 418.8434,-213.5784 392.0186,-233.5 387.1152,-237.1415 381.6424,-240.0845 375.8978,-242.4583"/>
<polygon fill="#191970" stroke="#191970" points="438.5391,-164.9534 446.1447,-157.5774 435.5994,-158.6006 438.5391,-164.9534"/>
</g>
<!-- Node120 -->
<g id="node41" class="node">
<title>Node120</title>
<g id="a_node41"><a xlink:href="class_topological_charge.html#ad56263921d283d315b04ab40c9594a2c" target="_top" xlink:title=" ">
<polygon fill="#ffffff" stroke="#000000" points="253.7358,-195.5 253.7358,-223.5 358.1245,-223.5 358.1245,-195.5 253.7358,-195.5"/>
<text text-anchor="start" x="261.7358" y="-211.5" font-family="Helvetica,sans-Serif" font-size="10.00" fill="#000000">TopologicalCharge::</text>
<text text-anchor="middle" x="305.9302" y="-201.5" font-family="Helvetica,sans-Serif" font-size="10.00" fill="#000000">printStatistics</text>
</a>
</g>
</g>
<!-- Node113&#45;&gt;Node120 -->
<g id="edge46" class="edge">
<title>Node113&#45;&gt;Node120</title>
<path fill="none" stroke="#191970" d="M452.7359,-159.9603C444.3237,-162.1251 435.889,-164.6293 428.0186,-167.5 411.0222,-173.6993 408.8639,-179.9014 392.0186,-186.5 381.3593,-190.6754 369.6691,-194.3587 358.4347,-197.4856"/>
<polygon fill="#191970" stroke="#191970" points="453.6741,-163.3343 462.5658,-157.5734 452.0222,-156.532 453.6741,-163.3343"/>
</g>
<!-- Node123 -->
<g id="node44" class="node">
<title>Node123</title>
<g id="a_node44"><a xlink:href="test_8h.html#a78e241f531e5203858fdb59a4162d6ba" target="_top" xlink:title=" ">
<polygon fill="#ffffff" stroke="#000000" points="250.4106,-.5 250.4106,-18.5 361.4497,-18.5 361.4497,-.5 250.4106,-.5"/>
<text text-anchor="middle" x="305.9302" y="-6.5" font-family="Helvetica,sans-Serif" font-size="10.00" fill="#000000">runPerformanceTests</text>
</a>
</g>
</g>
<!-- Node122&#45;&gt;Node123 -->
<g id="edge49" class="edge">
<title>Node122&#45;&gt;Node123</title>
<path fill="none" stroke="#191970" d="M447.1655,-62.8077C440.5598,-60.7471 434.072,-58.3311 428.0186,-55.5 409.6576,-46.9129 410.4127,-36.0158 392.0186,-27.5 382.5963,-23.1379 372.1056,-19.8231 361.7787,-17.3071"/>
<polygon fill="#191970" stroke="#191970" points="446.3144,-66.2045 456.8908,-65.5793 448.233,-59.4725 446.3144,-66.2045"/>
</g>
</g>
</svg>
