<?xml version="1.0" encoding="UTF-8" standalone="no"?>
<!DOCTYPE svg PUBLIC "-//W3C//DTD SVG 1.1//EN"
 "http://www.w3.org/Graphics/SVG/1.1/DTD/svg11.dtd">
<!-- Generated by graphviz version 2.40.1 (20161225.0304)
 -->
<!-- Title: WilsonGaugeAction::computeStaple Pages: 1 -->
<svg width="464pt" height="338pt"
 viewBox="0.00 0.00 463.76 338.00" xmlns="http://www.w3.org/2000/svg" xmlns:xlink="http://www.w3.org/1999/xlink">
<g id="graph0" class="graph" transform="scale(1 1) rotate(0) translate(4 334)">
<title>WilsonGaugeAction::computeStaple</title>
<polygon fill="#ffffff" stroke="transparent" points="-4,4 -4,-334 459.7568,-334 459.7568,4 -4,4"/>
<!-- Node6 -->
<g id="node1" class="node">
<title>Node6</title>
<g id="a_node1"><a xlink:title="computeStaple computes the staple at given poisition.">
<polygon fill="#bfbfbf" stroke="#000000" points="0,-149.5 0,-177.5 109.3789,-177.5 109.3789,-149.5 0,-149.5"/>
<text text-anchor="start" x="8" y="-165.5" font-family="Helvetica,sans-Serif" font-size="10.00" fill="#000000">WilsonGaugeAction::</text>
<text text-anchor="middle" x="54.6895" y="-155.5" font-family="Helvetica,sans-Serif" font-size="10.00" fill="#000000">computeStaple</text>
</a>
</g>
</g>
<!-- Node7 -->
<g id="node2" class="node">
<title>Node7</title>
<g id="a_node2"><a xlink:href="class_s_u3.html#a9f3527fd882882ddfa18d72f5f43176c" target="_top" xlink:title=" ">
<polygon fill="#ffffff" stroke="#000000" points="188.1914,-311.5 188.1914,-329.5 253.6543,-329.5 253.6543,-311.5 188.1914,-311.5"/>
<text text-anchor="middle" x="220.9229" y="-317.5" font-family="Helvetica,sans-Serif" font-size="10.00" fill="#000000">SU3::zeros</text>
</a>
</g>
</g>
<!-- Node6&#45;&gt;Node7 -->
<g id="edge1" class="edge">
<title>Node6&#45;&gt;Node7</title>
<path fill="none" stroke="#191970" d="M59.8567,-177.9067C70.8628,-206.438 99.4318,-270.1599 145.3789,-302.5 154.9295,-309.2222 166.6665,-313.4562 178.0166,-316.116"/>
<polygon fill="#191970" stroke="#191970" points="177.3355,-319.549 187.8267,-318.0713 178.7038,-312.6841 177.3355,-319.549"/>
</g>
<!-- Node8 -->
<g id="node3" class="node">
<title>Node8</title>
<g id="a_node3"><a xlink:href="class_wilson_gauge_action.html#ab7ed4ab8e475f5a188cd19ce720a5eb9" target="_top" xlink:title=" ">
<polygon fill="#ffffff" stroke="#000000" points="166.2334,-264.5 166.2334,-292.5 275.6123,-292.5 275.6123,-264.5 166.2334,-264.5"/>
<text text-anchor="start" x="174.2334" y="-280.5" font-family="Helvetica,sans-Serif" font-size="10.00" fill="#000000">WilsonGaugeAction::</text>
<text text-anchor="middle" x="220.9229" y="-270.5" font-family="Helvetica,sans-Serif" font-size="10.00" fill="#000000">updateMuIndex</text>
</a>
</g>
</g>
<!-- Node6&#45;&gt;Node8 -->
<g id="edge2" class="edge">
<title>Node6&#45;&gt;Node8</title>
<path fill="none" stroke="#191970" d="M65.045,-177.8228C80.3769,-198.0201 111.0295,-234.7201 145.3789,-255.5 148.942,-257.6555 152.723,-259.6233 156.6202,-261.4176"/>
<polygon fill="#191970" stroke="#191970" points="155.3006,-264.6594 165.8764,-265.296 158.0059,-258.2033 155.3006,-264.6594"/>
</g>
<!-- Node9 -->
<g id="node4" class="node">
<title>Node9</title>
<g id="a_node4"><a xlink:href="class_wilson_gauge_action.html#a010b3b8870476dfec4c48a01b6d6fc1d" target="_top" xlink:title=" ">
<polygon fill="#ffffff" stroke="#000000" points="166.2334,-217.5 166.2334,-245.5 275.6123,-245.5 275.6123,-217.5 166.2334,-217.5"/>
<text text-anchor="start" x="174.2334" y="-233.5" font-family="Helvetica,sans-Serif" font-size="10.00" fill="#000000">WilsonGaugeAction::</text>
<text text-anchor="middle" x="220.9229" y="-223.5" font-family="Helvetica,sans-Serif" font-size="10.00" fill="#000000">updateNuIndex</text>
</a>
</g>
</g>
<!-- Node6&#45;&gt;Node9 -->
<g id="edge3" class="edge">
<title>Node6&#45;&gt;Node9</title>
<path fill="none" stroke="#191970" d="M80.3628,-177.6618C98.2442,-187.1696 122.8364,-199.5466 145.3789,-208.5 150.3959,-210.4926 155.6567,-212.4164 160.9676,-214.2454"/>
<polygon fill="#191970" stroke="#191970" points="159.9461,-217.5941 170.5396,-217.4295 162.1556,-210.9519 159.9461,-217.5941"/>
</g>
<!-- Node10 -->
<g id="node5" class="node">
<title>Node10</title>
<g id="a_node5"><a xlink:href="class_parallel_1_1_communicator.html#aa716fcde544018dcc5967df9b6708bb5" target="_top" xlink:title=" ">
<polygon fill="#ffffff" stroke="#000000" points="160.96,-170.5 160.96,-198.5 280.8857,-198.5 280.8857,-170.5 160.96,-170.5"/>
<text text-anchor="start" x="168.96" y="-186.5" font-family="Helvetica,sans-Serif" font-size="10.00" fill="#000000">Parallel::Communicator</text>
<text text-anchor="middle" x="220.9229" y="-176.5" font-family="Helvetica,sans-Serif" font-size="10.00" fill="#000000">::getPositiveLink</text>
</a>
</g>
</g>
<!-- Node6&#45;&gt;Node10 -->
<g id="edge4" class="edge">
<title>Node6&#45;&gt;Node10</title>
<path fill="none" stroke="#191970" d="M109.5812,-170.4344C122.8225,-172.1071 137.1484,-173.9169 150.9753,-175.6636"/>
<polygon fill="#191970" stroke="#191970" points="150.5728,-179.1405 160.9326,-176.9215 151.4502,-172.1957 150.5728,-179.1405"/>
</g>
<!-- Node11 -->
<g id="node6" class="node">
<title>Node11</title>
<g id="a_node6"><a xlink:href="class_s_u3.html#ad0e19706d3c6fdb50dcf788d4b48eb4c" target="_top" xlink:title="SU3::inv performs a matrix inversion.">
<polygon fill="#ffffff" stroke="#000000" points="194.0264,-133.5 194.0264,-151.5 247.8193,-151.5 247.8193,-133.5 194.0264,-133.5"/>
<text text-anchor="middle" x="220.9229" y="-139.5" font-family="Helvetica,sans-Serif" font-size="10.00" fill="#000000">SU3::inv</text>
</a>
</g>
</g>
<!-- Node6&#45;&gt;Node11 -->
<g id="edge5" class="edge">
<title>Node6&#45;&gt;Node11</title>
<path fill="none" stroke="#191970" d="M109.5812,-156.5656C133.8001,-153.5061 161.647,-149.9882 183.4335,-147.236"/>
<polygon fill="#191970" stroke="#191970" points="184.1169,-150.6775 193.5994,-145.9517 183.2395,-143.7327 184.1169,-150.6775"/>
</g>
<!-- Node12 -->
<g id="node7" class="node">
<title>Node12</title>
<g id="a_node7"><a xlink:href="class_parallel_1_1_index.html#af31faeef1369fdc0997d1910e008bfe2" target="_top" xlink:title=" ">
<polygon fill="#ffffff" stroke="#000000" points="332.4668,-52.5 332.4668,-70.5 455.7568,-70.5 455.7568,-52.5 332.4668,-52.5"/>
<text text-anchor="middle" x="394.1118" y="-58.5" font-family="Helvetica,sans-Serif" font-size="10.00" fill="#000000">Parallel::Index::getIndex</text>
</a>
</g>
</g>
<!-- Node6&#45;&gt;Node12 -->
<g id="edge6" class="edge">
<title>Node6&#45;&gt;Node12</title>
<path fill="none" stroke="#191970" d="M84.0446,-149.4733C101.5776,-141.451 124.4421,-131.6036 145.3789,-124.5 155.0663,-121.2132 278.9475,-90.1988 348.1343,-72.9461"/>
<polygon fill="#191970" stroke="#191970" points="349.0687,-76.3203 357.9252,-70.5054 347.3755,-69.5282 349.0687,-76.3203"/>
</g>
<!-- Node13 -->
<g id="node8" class="node">
<title>Node13</title>
<g id="a_node8"><a xlink:href="class_parallel_1_1_communicator.html#a27862560cf6c7b8ccf650a422e014776" target="_top" xlink:title="Parallel::Communicator::getNeighboursNeighbourLink fetches a neighbours neighbor link.">
<polygon fill="#ffffff" stroke="#000000" points="145.3789,-.5 145.3789,-28.5 296.4668,-28.5 296.4668,-.5 145.3789,-.5"/>
<text text-anchor="start" x="153.3789" y="-16.5" font-family="Helvetica,sans-Serif" font-size="10.00" fill="#000000">Parallel::Communicator</text>
<text text-anchor="middle" x="220.9229" y="-6.5" font-family="Helvetica,sans-Serif" font-size="10.00" fill="#000000">::getNeighboursNeighbourLink</text>
</a>
</g>
</g>
<!-- Node6&#45;&gt;Node13 -->
<g id="edge7" class="edge">
<title>Node6&#45;&gt;Node13</title>
<path fill="none" stroke="#191970" d="M61.2306,-149.2146C73.8129,-123.3054 103.8612,-68.4784 145.3789,-38.5 148.0565,-36.5666 150.8961,-34.7847 153.8436,-33.1431"/>
<polygon fill="#191970" stroke="#191970" points="155.5505,-36.2035 162.9564,-28.627 152.4422,-29.9314 155.5505,-36.2035"/>
</g>
<!-- Node15 -->
<g id="node10" class="node">
<title>Node15</title>
<g id="a_node10"><a xlink:href="class_parallel_1_1_communicator.html#ae843d16f4aed13d5b5179a05b717ec88" target="_top" xlink:title="Parallel::Communicator::getPositiveLink fetches a link in the positive direction.">
<polygon fill="#ffffff" stroke="#000000" points="160.96,-47.5 160.96,-75.5 280.8857,-75.5 280.8857,-47.5 160.96,-47.5"/>
<text text-anchor="start" x="168.96" y="-63.5" font-family="Helvetica,sans-Serif" font-size="10.00" fill="#000000">Parallel::Communicator</text>
<text text-anchor="middle" x="220.9229" y="-53.5" font-family="Helvetica,sans-Serif" font-size="10.00" fill="#000000">::getNegativeLink</text>
</a>
</g>
</g>
<!-- Node6&#45;&gt;Node15 -->
<g id="edge10" class="edge">
<title>Node6&#45;&gt;Node15</title>
<path fill="none" stroke="#191970" d="M69.3434,-149.2694C86.4437,-133.2704 116.1228,-107.3342 145.3789,-90.5 152.4774,-86.4154 160.2605,-82.6873 168.0482,-79.3651"/>
<polygon fill="#191970" stroke="#191970" points="169.5608,-82.5283 177.5041,-75.5173 166.9224,-76.0446 169.5608,-82.5283"/>
</g>
<!-- Node13&#45;&gt;Node12 -->
<g id="edge8" class="edge">
<title>Node13&#45;&gt;Node12</title>
<path fill="none" stroke="#191970" d="M272.8853,-28.6015C297.8193,-35.3681 327.3398,-43.3794 351.0068,-49.8022"/>
<polygon fill="#191970" stroke="#191970" points="350.1933,-53.2079 360.7609,-52.4492 352.0267,-46.4523 350.1933,-53.2079"/>
</g>
<!-- Node14 -->
<g id="node9" class="node">
<title>Node14</title>
<g id="a_node9"><a xlink:href="class_parallel_1_1_neighbours.html#aa3e776b78a708f2c4ce9f287b81f263e" target="_top" xlink:title="Parallel::Neighbours::getNeighbours returns a reference to the neighbour list of given process rank.">
<polygon fill="#ffffff" stroke="#000000" points="341.0874,-.5 341.0874,-28.5 447.1362,-28.5 447.1362,-.5 341.0874,-.5"/>
<text text-anchor="start" x="349.0874" y="-16.5" font-family="Helvetica,sans-Serif" font-size="10.00" fill="#000000">Parallel::Neighbours</text>
<text text-anchor="middle" x="394.1118" y="-6.5" font-family="Helvetica,sans-Serif" font-size="10.00" fill="#000000">::getNeighbours</text>
</a>
</g>
</g>
<!-- Node13&#45;&gt;Node14 -->
<g id="edge9" class="edge">
<title>Node13&#45;&gt;Node14</title>
<path fill="none" stroke="#191970" d="M296.6341,-14.5C308.0629,-14.5 319.7486,-14.5 330.8779,-14.5"/>
<polygon fill="#191970" stroke="#191970" points="330.919,-18.0001 340.9189,-14.5 330.9189,-11.0001 330.919,-18.0001"/>
</g>
<!-- Node15&#45;&gt;Node12 -->
<g id="edge11" class="edge">
<title>Node15&#45;&gt;Node12</title>
<path fill="none" stroke="#191970" d="M281.0099,-61.5C294.2449,-61.5 308.3941,-61.5 322.0472,-61.5"/>
<polygon fill="#191970" stroke="#191970" points="322.3678,-65.0001 332.3678,-61.5 322.3678,-58.0001 322.3678,-65.0001"/>
</g>
</g>
</svg>
