<?xml version="1.0" encoding="UTF-8" standalone="no"?>
<!DOCTYPE svg PUBLIC "-//W3C//DTD SVG 1.1//EN"
 "http://www.w3.org/Graphics/SVG/1.1/DTD/svg11.dtd">
<!-- Generated by graphviz version 2.40.1 (20161225.0304)
 -->
<!-- Title: Parameters::getUnitTestingVerbose Pages: 1 -->
<svg width="423pt" height="37pt"
 viewBox="0.00 0.00 422.58 37.00" xmlns="http://www.w3.org/2000/svg" xmlns:xlink="http://www.w3.org/1999/xlink">
<g id="graph0" class="graph" transform="scale(1 1) rotate(0) translate(4 33)">
<title>Parameters::getUnitTestingVerbose</title>
<polygon fill="#ffffff" stroke="transparent" points="-4,4 -4,-33 418.5752,-33 418.5752,4 -4,4"/>
<!-- Node347 -->
<g id="node1" class="node">
<title>Node347</title>
<g id="a_node1"><a xlink:title=" ">
<polygon fill="#bfbfbf" stroke="#000000" points="277.9648,-.5 277.9648,-28.5 414.5752,-28.5 414.5752,-.5 277.9648,-.5"/>
<text text-anchor="start" x="285.9648" y="-16.5" font-family="Helvetica,sans-Serif" font-size="10.00" fill="#000000">Parameters::getUnitTesting</text>
<text text-anchor="middle" x="346.27" y="-6.5" font-family="Helvetica,sans-Serif" font-size="10.00" fill="#000000">Verbose</text>
</a>
</g>
</g>
<!-- Node348 -->
<g id="node2" class="node">
<title>Node348</title>
<g id="a_node2"><a xlink:href="class_test_suite.html#a0fa7e788a1b1c235faa475c0d1aaa1e3" target="_top" xlink:title=" ">
<polygon fill="#ffffff" stroke="#000000" points="107.5762,-5.5 107.5762,-23.5 241.9648,-23.5 241.9648,-5.5 107.5762,-5.5"/>
<text text-anchor="middle" x="174.7705" y="-11.5" font-family="Helvetica,sans-Serif" font-size="10.00" fill="#000000">TestSuite::runFullTestSuite</text>
</a>
</g>
</g>
<!-- Node347&#45;&gt;Node348 -->
<g id="edge1" class="edge">
<title>Node347&#45;&gt;Node348</title>
<path fill="none" stroke="#191970" d="M267.314,-14.5C258.9075,-14.5 250.4133,-14.5 242.1574,-14.5"/>
<polygon fill="#191970" stroke="#191970" points="267.5028,-18.0001 277.5028,-14.5 267.5027,-11.0001 267.5028,-18.0001"/>
</g>
<!-- Node349 -->
<g id="node3" class="node">
<title>Node349</title>
<g id="a_node3"><a xlink:href="test_8h.html#a91a9c7ea8af27bb3962f1207dd4cb8fd" target="_top" xlink:title=" ">
<polygon fill="#ffffff" stroke="#000000" points="0,-5.5 0,-23.5 71.5762,-23.5 71.5762,-5.5 0,-5.5"/>
<text text-anchor="middle" x="35.7881" y="-11.5" font-family="Helvetica,sans-Serif" font-size="10.00" fill="#000000">runUnitTests</text>
</a>
</g>
</g>
<!-- Node348&#45;&gt;Node349 -->
<g id="edge2" class="edge">
<title>Node348&#45;&gt;Node349</title>
<path fill="none" stroke="#191970" d="M97.2288,-14.5C88.3344,-14.5 79.6184,-14.5 71.6741,-14.5"/>
<polygon fill="#191970" stroke="#191970" points="97.3149,-18.0001 107.3149,-14.5 97.3149,-11.0001 97.3149,-18.0001"/>
</g>
</g>
</svg>
