<?xml version="1.0" encoding="UTF-8" standalone="no"?>
<!DOCTYPE svg PUBLIC "-//W3C//DTD SVG 1.1//EN"
 "http://www.w3.org/Graphics/SVG/1.1/DTD/svg11.dtd">
<!-- Generated by graphviz version 2.40.1 (20161225.0304)
 -->
<!-- Title: nlohmann::basic_json::cbegin Pages: 1 -->
<svg width="418pt" height="131pt"
 viewBox="0.00 0.00 418.19 131.00" xmlns="http://www.w3.org/2000/svg" xmlns:xlink="http://www.w3.org/1999/xlink">
<g id="graph0" class="graph" transform="scale(1 1) rotate(0) translate(4 127)">
<title>nlohmann::basic_json::cbegin</title>
<polygon fill="#ffffff" stroke="transparent" points="-4,4 -4,-127 414.1855,-127 414.1855,4 -4,4"/>
<!-- Node74 -->
<g id="node1" class="node">
<title>Node74</title>
<g id="a_node1"><a xlink:title="returns a const iterator to the first element">
<polygon fill="#bfbfbf" stroke="#000000" points="297.457,-47.5 297.457,-75.5 410.1855,-75.5 410.1855,-47.5 297.457,-47.5"/>
<text text-anchor="start" x="305.457" y="-63.5" font-family="Helvetica,sans-Serif" font-size="10.00" fill="#000000">nlohmann::basic_json</text>
<text text-anchor="middle" x="353.8213" y="-53.5" font-family="Helvetica,sans-Serif" font-size="10.00" fill="#000000">::cbegin</text>
</a>
</g>
</g>
<!-- Node75 -->
<g id="node2" class="node">
<title>Node75</title>
<g id="a_node2"><a xlink:href="classnlohmann_1_1basic__json.html#a4b1fb3671ade9afc8d33b2c9510acbfc" target="_top" xlink:title="access the first element">
<polygon fill="#ffffff" stroke="#000000" points="148.7285,-94.5 148.7285,-122.5 261.457,-122.5 261.457,-94.5 148.7285,-94.5"/>
<text text-anchor="start" x="156.7285" y="-110.5" font-family="Helvetica,sans-Serif" font-size="10.00" fill="#000000">nlohmann::basic_json</text>
<text text-anchor="middle" x="205.0928" y="-100.5" font-family="Helvetica,sans-Serif" font-size="10.00" fill="#000000">::front</text>
</a>
</g>
</g>
<!-- Node74&#45;&gt;Node75 -->
<g id="edge1" class="edge">
<title>Node74&#45;&gt;Node75</title>
<path fill="none" stroke="#191970" d="M299.2066,-78.7589C282.8237,-83.9361 265.0619,-89.549 249.4283,-94.4894"/>
<polygon fill="#191970" stroke="#191970" points="300.7173,-81.9522 309.1978,-75.6015 298.608,-75.2775 300.7173,-81.9522"/>
</g>
<!-- Node76 -->
<g id="node3" class="node">
<title>Node76</title>
<g id="a_node3"><a xlink:href="classnlohmann_1_1basic__json.html#a4f0f5dd42b2987ff20306ed78bd31d1d" target="_top" xlink:title="returns a const iterator to the first element">
<polygon fill="#ffffff" stroke="#000000" points="148.7285,-47.5 148.7285,-75.5 261.457,-75.5 261.457,-47.5 148.7285,-47.5"/>
<text text-anchor="start" x="156.7285" y="-63.5" font-family="Helvetica,sans-Serif" font-size="10.00" fill="#000000">nlohmann::basic_json</text>
<text text-anchor="middle" x="205.0928" y="-53.5" font-family="Helvetica,sans-Serif" font-size="10.00" fill="#000000">::begin</text>
</a>
</g>
</g>
<!-- Node74&#45;&gt;Node76 -->
<g id="edge2" class="edge">
<title>Node74&#45;&gt;Node76</title>
<path fill="none" stroke="#191970" d="M286.9358,-61.5C278.4686,-61.5 269.8708,-61.5 261.5874,-61.5"/>
<polygon fill="#191970" stroke="#191970" points="287.1692,-65.0001 297.1691,-61.5 287.1691,-58.0001 287.1692,-65.0001"/>
</g>
<!-- Node77 -->
<g id="node4" class="node">
<title>Node77</title>
<g id="a_node4"><a xlink:href="classnlohmann_1_1basic__json.html#a5795b029dbf28e0cb2c7a439ec5d0a88" target="_top" xlink:title="returns a const reverse iterator to one before the first">
<polygon fill="#ffffff" stroke="#000000" points="148.7285,-.5 148.7285,-28.5 261.457,-28.5 261.457,-.5 148.7285,-.5"/>
<text text-anchor="start" x="156.7285" y="-16.5" font-family="Helvetica,sans-Serif" font-size="10.00" fill="#000000">nlohmann::basic_json</text>
<text text-anchor="middle" x="205.0928" y="-6.5" font-family="Helvetica,sans-Serif" font-size="10.00" fill="#000000">::crend</text>
</a>
</g>
</g>
<!-- Node74&#45;&gt;Node77 -->
<g id="edge3" class="edge">
<title>Node74&#45;&gt;Node77</title>
<path fill="none" stroke="#191970" d="M299.2066,-44.2411C282.8237,-39.0639 265.0619,-33.451 249.4283,-28.5106"/>
<polygon fill="#191970" stroke="#191970" points="298.608,-47.7225 309.1978,-47.3985 300.7173,-41.0478 298.608,-47.7225"/>
</g>
<!-- Node78 -->
<g id="node5" class="node">
<title>Node78</title>
<g id="a_node5"><a xlink:href="classnlohmann_1_1basic__json.html#a4f73d4cee67ea328d785979c22af0ae1" target="_top" xlink:title="returns a const reverse iterator to one before the first">
<polygon fill="#ffffff" stroke="#000000" points="0,-.5 0,-28.5 112.7285,-28.5 112.7285,-.5 0,-.5"/>
<text text-anchor="start" x="8" y="-16.5" font-family="Helvetica,sans-Serif" font-size="10.00" fill="#000000">nlohmann::basic_json</text>
<text text-anchor="middle" x="56.3643" y="-6.5" font-family="Helvetica,sans-Serif" font-size="10.00" fill="#000000">::rend</text>
</a>
</g>
</g>
<!-- Node77&#45;&gt;Node78 -->
<g id="edge4" class="edge">
<title>Node77&#45;&gt;Node78</title>
<path fill="none" stroke="#191970" d="M138.2073,-14.5C129.7401,-14.5 121.1423,-14.5 112.8589,-14.5"/>
<polygon fill="#191970" stroke="#191970" points="138.4407,-18.0001 148.4406,-14.5 138.4406,-11.0001 138.4407,-18.0001"/>
</g>
</g>
</svg>
