<?xml version="1.0" encoding="UTF-8" standalone="no"?>
<!DOCTYPE svg PUBLIC "-//W3C//DTD SVG 1.1//EN"
 "http://www.w3.org/Graphics/SVG/1.1/DTD/svg11.dtd">
<!-- Generated by graphviz version 2.40.1 (20161225.0304)
 -->
<!-- Title: MasterSampler::printStatistics Pages: 1 -->
<svg width="508pt" height="37pt"
 viewBox="0.00 0.00 508.13 37.00" xmlns="http://www.w3.org/2000/svg" xmlns:xlink="http://www.w3.org/1999/xlink">
<g id="graph0" class="graph" transform="scale(1 1) rotate(0) translate(4 33)">
<title>MasterSampler::printStatistics</title>
<polygon fill="#ffffff" stroke="transparent" points="-4,4 -4,-33 504.1318,-33 504.1318,4 -4,4"/>
<!-- Node49 -->
<g id="node1" class="node">
<title>Node49</title>
<g id="a_node1"><a xlink:title=" ">
<polygon fill="#bfbfbf" stroke="#000000" points="0,-5.5 0,-23.5 148.8174,-23.5 148.8174,-5.5 0,-5.5"/>
<text text-anchor="middle" x="74.4087" y="-11.5" font-family="Helvetica,sans-Serif" font-size="10.00" fill="#000000">MasterSampler::printStatistics</text>
</a>
</g>
</g>
<!-- Node50 -->
<g id="node2" class="node">
<title>Node50</title>
<g id="a_node2"><a xlink:href="class_observable_storer.html#a04a12e7da9e21d6947027230c953bffe" target="_top" xlink:title=" ">
<polygon fill="#ffffff" stroke="#000000" points="184.8174,-5.5 184.8174,-23.5 344.2061,-23.5 344.2061,-5.5 184.8174,-5.5"/>
<text text-anchor="middle" x="264.5117" y="-11.5" font-family="Helvetica,sans-Serif" font-size="10.00" fill="#000000">ObservableStorer::printStatistics</text>
</a>
</g>
</g>
<!-- Node49&#45;&gt;Node50 -->
<g id="edge1" class="edge">
<title>Node49&#45;&gt;Node50</title>
<path fill="none" stroke="#191970" d="M148.9968,-14.5C157.4452,-14.5 166.1201,-14.5 174.7369,-14.5"/>
<polygon fill="#191970" stroke="#191970" points="174.8086,-18.0001 184.8086,-14.5 174.8086,-11.0001 174.8086,-18.0001"/>
</g>
<!-- Node51 -->
<g id="node3" class="node">
<title>Node51</title>
<g id="a_node3"><a xlink:href="class_parallel_1_1_communicator.html#a474ab433da0e83ef372d74e26a7e5cb0" target="_top" xlink:title=" ">
<polygon fill="#ffffff" stroke="#000000" points="380.2061,-.5 380.2061,-28.5 500.1318,-28.5 500.1318,-.5 380.2061,-.5"/>
<text text-anchor="start" x="388.2061" y="-16.5" font-family="Helvetica,sans-Serif" font-size="10.00" fill="#000000">Parallel::Communicator</text>
<text text-anchor="middle" x="440.1689" y="-6.5" font-family="Helvetica,sans-Serif" font-size="10.00" fill="#000000">::getProcessRank</text>
</a>
</g>
</g>
<!-- Node50&#45;&gt;Node51 -->
<g id="edge2" class="edge">
<title>Node50&#45;&gt;Node51</title>
<path fill="none" stroke="#191970" d="M344.3735,-14.5C352.8785,-14.5 361.484,-14.5 369.8674,-14.5"/>
<polygon fill="#191970" stroke="#191970" points="369.9616,-18.0001 379.9615,-14.5 369.9615,-11.0001 369.9616,-18.0001"/>
</g>
</g>
</svg>
