<?xml version="1.0" encoding="UTF-8" standalone="no"?>
<!DOCTYPE svg PUBLIC "-//W3C//DTD SVG 1.1//EN"
 "http://www.w3.org/Graphics/SVG/1.1/DTD/svg11.dtd">
<!-- Generated by graphviz version 2.40.1 (20161225.0304)
 -->
<!-- Title: Correlator::Correlator Pages: 1 -->
<svg width="308pt" height="101pt"
 viewBox="0.00 0.00 308.32 101.00" xmlns="http://www.w3.org/2000/svg" xmlns:xlink="http://www.w3.org/1999/xlink">
<g id="graph0" class="graph" transform="scale(1 1) rotate(0) translate(4 97)">
<title>Correlator::Correlator</title>
<polygon fill="#ffffff" stroke="transparent" points="-4,4 -4,-97 304.3242,-97 304.3242,4 -4,4"/>
<!-- Node10 -->
<g id="node1" class="node">
<title>Node10</title>
<g id="a_node1"><a xlink:title=" ">
<polygon fill="#bfbfbf" stroke="#000000" points="0,-37.5 0,-55.5 110.4727,-55.5 110.4727,-37.5 0,-37.5"/>
<text text-anchor="middle" x="55.2363" y="-43.5" font-family="Helvetica,sans-Serif" font-size="10.00" fill="#000000">Correlator::Correlator</text>
</a>
</g>
</g>
<!-- Node11 -->
<g id="node2" class="node">
<title>Node11</title>
<g id="a_node2"><a xlink:href="class_parameters.html#aabe7e3a2468cf11bb5e98e626cb94ff2" target="_top" xlink:title=" ">
<polygon fill="#ffffff" stroke="#000000" points="147.0269,-74.5 147.0269,-92.5 299.77,-92.5 299.77,-74.5 147.0269,-74.5"/>
<text text-anchor="middle" x="223.3984" y="-80.5" font-family="Helvetica,sans-Serif" font-size="10.00" fill="#000000">Parameters::getLatticeSpacing</text>
</a>
</g>
</g>
<!-- Node10&#45;&gt;Node11 -->
<g id="edge1" class="edge">
<title>Node10&#45;&gt;Node11</title>
<path fill="none" stroke="#191970" d="M96.3734,-55.5512C119.3622,-60.6093 148.2056,-66.9556 172.5947,-72.3219"/>
<polygon fill="#191970" stroke="#191970" points="171.8764,-75.7475 182.395,-74.4782 173.3807,-68.911 171.8764,-75.7475"/>
</g>
<!-- Node12 -->
<g id="node3" class="node">
<title>Node12</title>
<g id="a_node3"><a xlink:href="class_parameters.html#a41e524d54a2e4b2448b61d16ef46f534" target="_top" xlink:title=" ">
<polygon fill="#ffffff" stroke="#000000" points="176.2163,-37.5 176.2163,-55.5 270.5806,-55.5 270.5806,-37.5 176.2163,-37.5"/>
<text text-anchor="middle" x="223.3984" y="-43.5" font-family="Helvetica,sans-Serif" font-size="10.00" fill="#000000">Parameters::getN</text>
</a>
</g>
</g>
<!-- Node10&#45;&gt;Node12 -->
<g id="edge2" class="edge">
<title>Node10&#45;&gt;Node12</title>
<path fill="none" stroke="#191970" d="M110.7649,-46.5C128.4388,-46.5 148.0226,-46.5 165.837,-46.5"/>
<polygon fill="#191970" stroke="#191970" points="166.0936,-50.0001 176.0935,-46.5 166.0935,-43.0001 166.0936,-50.0001"/>
</g>
<!-- Node13 -->
<g id="node4" class="node">
<title>Node13</title>
<g id="a_node4"><a xlink:href="class_parameters.html#aff629ab94d99807364926008fb4e1e67" target="_top" xlink:title=" ">
<polygon fill="#ffffff" stroke="#000000" points="146.4727,-.5 146.4727,-18.5 300.3242,-18.5 300.3242,-.5 146.4727,-.5"/>
<text text-anchor="middle" x="223.3984" y="-6.5" font-family="Helvetica,sans-Serif" font-size="10.00" fill="#000000">Parameters::getSubLatticeSize</text>
</a>
</g>
</g>
<!-- Node10&#45;&gt;Node13 -->
<g id="edge3" class="edge">
<title>Node10&#45;&gt;Node13</title>
<path fill="none" stroke="#191970" d="M96.3734,-37.4488C119.3622,-32.3907 148.2056,-26.0444 172.5947,-20.6781"/>
<polygon fill="#191970" stroke="#191970" points="173.3807,-24.089 182.395,-18.5218 171.8764,-17.2525 173.3807,-24.089"/>
</g>
</g>
</svg>
