<?xml version="1.0" encoding="UTF-8" standalone="no"?>
<!DOCTYPE svg PUBLIC "-//W3C//DTD SVG 1.1//EN"
 "http://www.w3.org/Graphics/SVG/1.1/DTD/svg11.dtd">
<!-- Generated by graphviz version 2.40.1 (20161225.0304)
 -->
<!-- Title: LatticeActionChargeDensity::writeObservableToFile Pages: 1 -->
<svg width="709pt" height="296pt"
 viewBox="0.00 0.00 709.12 296.00" xmlns="http://www.w3.org/2000/svg" xmlns:xlink="http://www.w3.org/1999/xlink">
<g id="graph0" class="graph" transform="scale(1 1) rotate(0) translate(4 292)">
<title>LatticeActionChargeDensity::writeObservableToFile</title>
<polygon fill="#ffffff" stroke="transparent" points="-4,4 -4,-292 705.1211,-292 705.1211,4 -4,4"/>
<!-- Node90 -->
<g id="node1" class="node">
<title>Node90</title>
<g id="a_node1"><a xlink:title="Correlator::writeObservableToFile calls the ObservableStorer for writing observable to file.">
<polygon fill="#bfbfbf" stroke="#000000" points="0,-124.5 0,-152.5 139.3984,-152.5 139.3984,-124.5 0,-124.5"/>
<text text-anchor="start" x="8" y="-140.5" font-family="Helvetica,sans-Serif" font-size="10.00" fill="#000000">LatticeActionChargeDensity</text>
<text text-anchor="middle" x="69.6992" y="-130.5" font-family="Helvetica,sans-Serif" font-size="10.00" fill="#000000">::writeObservableToFile</text>
</a>
</g>
</g>
<!-- Node91 -->
<g id="node2" class="node">
<title>Node91</title>
<g id="a_node2"><a xlink:href="class_observable_storer.html#a146f9acb8a0a2ce15782d26bdc4f0bf9" target="_top" xlink:title="ObservableStorer::writeObservableToFile.">
<polygon fill="#ffffff" stroke="#000000" points="175.3984,-124.5 175.3984,-152.5 347.5752,-152.5 347.5752,-124.5 175.3984,-124.5"/>
<text text-anchor="start" x="183.3984" y="-140.5" font-family="Helvetica,sans-Serif" font-size="10.00" fill="#000000">ObservableStorer::writeObservable</text>
<text text-anchor="middle" x="261.4868" y="-130.5" font-family="Helvetica,sans-Serif" font-size="10.00" fill="#000000">ToFile</text>
</a>
</g>
</g>
<!-- Node90&#45;&gt;Node91 -->
<g id="edge1" class="edge">
<title>Node90&#45;&gt;Node91</title>
<path fill="none" stroke="#191970" d="M139.4815,-138.5C147.7954,-138.5 156.3927,-138.5 164.9964,-138.5"/>
<polygon fill="#191970" stroke="#191970" points="165.0829,-142.0001 175.0828,-138.5 165.0828,-135.0001 165.0829,-142.0001"/>
</g>
<!-- Node92 -->
<g id="node3" class="node">
<title>Node92</title>
<g id="a_node3"><a xlink:href="namespace_i_o.html#ad8cf5aef8f60d10b80292b69a091d5ac" target="_top" xlink:title="IO::writeObservablesToFile method for writing an observable to file, using .15 precision.">
<polygon fill="#ffffff" stroke="#000000" points="383.5752,-129.5 383.5752,-147.5 519.6143,-147.5 519.6143,-129.5 383.5752,-129.5"/>
<text text-anchor="middle" x="451.5947" y="-135.5" font-family="Helvetica,sans-Serif" font-size="10.00" fill="#000000">IO::writeObservablesToFile</text>
</a>
</g>
</g>
<!-- Node91&#45;&gt;Node92 -->
<g id="edge2" class="edge">
<title>Node91&#45;&gt;Node92</title>
<path fill="none" stroke="#191970" d="M347.6411,-138.5C356.1621,-138.5 364.7793,-138.5 373.2156,-138.5"/>
<polygon fill="#191970" stroke="#191970" points="373.3978,-142.0001 383.3978,-138.5 373.3977,-135.0001 373.3978,-142.0001"/>
</g>
<!-- Node93 -->
<g id="node4" class="node">
<title>Node93</title>
<g id="a_node4"><a xlink:href="class_parallel_1_1_communicator.html#a474ab433da0e83ef372d74e26a7e5cb0" target="_top" xlink:title=" ">
<polygon fill="#ffffff" stroke="#000000" points="568.4048,-259.5 568.4048,-287.5 688.3306,-287.5 688.3306,-259.5 568.4048,-259.5"/>
<text text-anchor="start" x="576.4048" y="-275.5" font-family="Helvetica,sans-Serif" font-size="10.00" fill="#000000">Parallel::Communicator</text>
<text text-anchor="middle" x="628.3677" y="-265.5" font-family="Helvetica,sans-Serif" font-size="10.00" fill="#000000">::getProcessRank</text>
</a>
</g>
</g>
<!-- Node92&#45;&gt;Node93 -->
<g id="edge3" class="edge">
<title>Node92&#45;&gt;Node93</title>
<path fill="none" stroke="#191970" d="M457.4809,-147.5212C471.7408,-168.6726 510.3191,-221.8327 555.6143,-250.5 558.2167,-252.1471 560.9466,-253.6847 563.7592,-255.1192"/>
<polygon fill="#191970" stroke="#191970" points="562.4216,-258.3564 572.9691,-259.3571 565.3478,-251.9974 562.4216,-258.3564"/>
</g>
<!-- Node94 -->
<g id="node5" class="node">
<title>Node94</title>
<g id="a_node5"><a xlink:href="class_parameters.html#abace4edb8ece38841b58c5ce6168cbc4" target="_top" xlink:title=" ">
<polygon fill="#ffffff" stroke="#000000" points="566.4541,-222.5 566.4541,-240.5 690.2813,-240.5 690.2813,-222.5 566.4541,-222.5"/>
<text text-anchor="middle" x="628.3677" y="-228.5" font-family="Helvetica,sans-Serif" font-size="10.00" fill="#000000">Parameters::getFilePath</text>
</a>
</g>
</g>
<!-- Node92&#45;&gt;Node94 -->
<g id="edge4" class="edge">
<title>Node92&#45;&gt;Node94</title>
<path fill="none" stroke="#191970" d="M461.3938,-147.5898C478.9305,-163.3665 517.4303,-195.8206 555.6143,-213.5 560.3631,-215.6987 565.4154,-217.6509 570.5588,-219.3796"/>
<polygon fill="#191970" stroke="#191970" points="569.9191,-222.8445 580.506,-222.4349 571.9744,-216.153 569.9191,-222.8445"/>
</g>
<!-- Node95 -->
<g id="node6" class="node">
<title>Node95</title>
<g id="a_node6"><a xlink:href="class_parameters.html#afa4cfe5dc4302b1e8f8928606ea9b056" target="_top" xlink:title=" ">
<polygon fill="#ffffff" stroke="#000000" points="555.6143,-185.5 555.6143,-203.5 701.1211,-203.5 701.1211,-185.5 555.6143,-185.5"/>
<text text-anchor="middle" x="628.3677" y="-191.5" font-family="Helvetica,sans-Serif" font-size="10.00" fill="#000000">Parameters::getOutputFolder</text>
</a>
</g>
</g>
<!-- Node92&#45;&gt;Node95 -->
<g id="edge5" class="edge">
<title>Node92&#45;&gt;Node95</title>
<path fill="none" stroke="#191970" d="M474.0833,-147.5129C494.9922,-155.7014 527.113,-167.7959 555.6143,-176.5 563.0517,-178.7713 570.9817,-180.9632 578.769,-182.9889"/>
<polygon fill="#191970" stroke="#191970" points="577.9551,-186.3932 588.5087,-185.4594 579.6762,-179.6081 577.9551,-186.3932"/>
</g>
<!-- Node96 -->
<g id="node7" class="node">
<title>Node96</title>
<g id="a_node7"><a xlink:href="class_parameters.html#a181a773d23fdb19d0c4f35e6cf2d5649" target="_top" xlink:title=" ">
<polygon fill="#ffffff" stroke="#000000" points="558.6733,-148.5 558.6733,-166.5 698.062,-166.5 698.062,-148.5 558.6733,-148.5"/>
<text text-anchor="middle" x="628.3677" y="-154.5" font-family="Helvetica,sans-Serif" font-size="10.00" fill="#000000">Parameters::getBatchName</text>
</a>
</g>
</g>
<!-- Node92&#45;&gt;Node96 -->
<g id="edge6" class="edge">
<title>Node92&#45;&gt;Node96</title>
<path fill="none" stroke="#191970" d="M519.6869,-145.8187C529.1433,-146.8351 538.9272,-147.8867 548.5734,-148.9235"/>
<polygon fill="#191970" stroke="#191970" points="548.2396,-152.4077 558.5564,-149.9965 548.9877,-145.4478 548.2396,-152.4077"/>
</g>
<!-- Node97 -->
<g id="node8" class="node">
<title>Node97</title>
<g id="a_node8"><a xlink:href="class_parameters.html#ae5c64523dc50dca13b417fe3d9e4175c" target="_top" xlink:title=" ">
<polygon fill="#ffffff" stroke="#000000" points="574.5107,-111.5 574.5107,-129.5 682.2246,-129.5 682.2246,-111.5 574.5107,-111.5"/>
<text text-anchor="middle" x="628.3677" y="-117.5" font-family="Helvetica,sans-Serif" font-size="10.00" fill="#000000">Parameters::getBeta</text>
</a>
</g>
</g>
<!-- Node92&#45;&gt;Node97 -->
<g id="edge7" class="edge">
<title>Node92&#45;&gt;Node97</title>
<path fill="none" stroke="#191970" d="M519.6869,-131.5665C534.2441,-130.0842 549.5778,-128.5228 563.9899,-127.0553"/>
<polygon fill="#191970" stroke="#191970" points="564.7031,-130.5009 574.297,-126.0058 563.9939,-123.5369 564.7031,-130.5009"/>
</g>
<!-- Node98 -->
<g id="node9" class="node">
<title>Node98</title>
<g id="a_node9"><a xlink:href="class_parameters.html#a0fd902d5efcd8dce17dbc3ea4177820d" target="_top" xlink:title=" ">
<polygon fill="#ffffff" stroke="#000000" points="573.1289,-74.5 573.1289,-92.5 683.6064,-92.5 683.6064,-74.5 573.1289,-74.5"/>
<text text-anchor="middle" x="628.3677" y="-80.5" font-family="Helvetica,sans-Serif" font-size="10.00" fill="#000000">Parameters::getNCor</text>
</a>
</g>
</g>
<!-- Node92&#45;&gt;Node98 -->
<g id="edge8" class="edge">
<title>Node92&#45;&gt;Node98</title>
<path fill="none" stroke="#191970" d="M476.2182,-129.3719C497.1846,-121.7457 528.182,-110.8153 555.6143,-102.5 564.0559,-99.9412 573.1098,-97.4094 581.8647,-95.0688"/>
<polygon fill="#191970" stroke="#191970" points="582.7923,-98.4439 591.5736,-92.516 581.0122,-91.674 582.7923,-98.4439"/>
</g>
<!-- Node99 -->
<g id="node10" class="node">
<title>Node99</title>
<g id="a_node10"><a xlink:href="class_parameters.html#a03f8c0aa2a31b9bfc016441cb263082c" target="_top" xlink:title=" ">
<polygon fill="#ffffff" stroke="#000000" points="576.1855,-37.5 576.1855,-55.5 680.5498,-55.5 680.5498,-37.5 576.1855,-37.5"/>
<text text-anchor="middle" x="628.3677" y="-43.5" font-family="Helvetica,sans-Serif" font-size="10.00" fill="#000000">Parameters::getNCf</text>
</a>
</g>
</g>
<!-- Node92&#45;&gt;Node99 -->
<g id="edge9" class="edge">
<title>Node92&#45;&gt;Node99</title>
<path fill="none" stroke="#191970" d="M461.7469,-129.4737C479.521,-114.1288 517.977,-82.9296 555.6143,-65.5 561.2892,-62.872 567.3879,-60.5622 573.5531,-58.5435"/>
<polygon fill="#191970" stroke="#191970" points="574.6892,-61.8565 583.2446,-55.6072 572.6593,-55.1573 574.6892,-61.8565"/>
</g>
<!-- Node100 -->
<g id="node11" class="node">
<title>Node100</title>
<g id="a_node11"><a xlink:href="class_parameters.html#ad1f56cc1bb6c19f40454b30a5bc82da6" target="_top" xlink:title=" ">
<polygon fill="#ffffff" stroke="#000000" points="566.7397,-.5 566.7397,-18.5 689.9956,-18.5 689.9956,-.5 566.7397,-.5"/>
<text text-anchor="middle" x="628.3677" y="-6.5" font-family="Helvetica,sans-Serif" font-size="10.00" fill="#000000">Parameters::getNTherm</text>
</a>
</g>
</g>
<!-- Node92&#45;&gt;Node100 -->
<g id="edge10" class="edge">
<title>Node92&#45;&gt;Node100</title>
<path fill="none" stroke="#191970" d="M457.4281,-129.4912C471.5739,-108.3962 509.9236,-55.5412 555.6143,-28.5 559.7499,-26.0524 564.2006,-23.9158 568.7901,-22.0515"/>
<polygon fill="#191970" stroke="#191970" points="570.1357,-25.2867 578.3494,-18.5944 567.7551,-18.704 570.1357,-25.2867"/>
</g>
</g>
</svg>
