<?xml version="1.0" encoding="UTF-8" standalone="no"?>
<!DOCTYPE svg PUBLIC "-//W3C//DTD SVG 1.1//EN"
 "http://www.w3.org/Graphics/SVG/1.1/DTD/svg11.dtd">
<!-- Generated by graphviz version 2.40.1 (20161225.0304)
 -->
<!-- Title: LatticeActionChargeDensity::writeFlowObservablesToFile Pages: 1 -->
<svg width="702pt" height="343pt"
 viewBox="0.00 0.00 702.41 343.00" xmlns="http://www.w3.org/2000/svg" xmlns:xlink="http://www.w3.org/1999/xlink">
<g id="graph0" class="graph" transform="scale(1 1) rotate(0) translate(4 339)">
<title>LatticeActionChargeDensity::writeFlowObservablesToFile</title>
<polygon fill="#ffffff" stroke="transparent" points="-4,4 -4,-339 698.4072,-339 698.4072,4 -4,4"/>
<!-- Node75 -->
<g id="node1" class="node">
<title>Node75</title>
<g id="a_node1"><a xlink:title="Correlator::writeFlowObservablesToFile.">
<polygon fill="#bfbfbf" stroke="#000000" points="0,-166.5 0,-194.5 146.5957,-194.5 146.5957,-166.5 0,-166.5"/>
<text text-anchor="start" x="8" y="-182.5" font-family="Helvetica,sans-Serif" font-size="10.00" fill="#000000">LatticeActionChargeDensity</text>
<text text-anchor="middle" x="73.2979" y="-172.5" font-family="Helvetica,sans-Serif" font-size="10.00" fill="#000000">::writeFlowObservablesToFile</text>
</a>
</g>
</g>
<!-- Node76 -->
<g id="node2" class="node">
<title>Node76</title>
<g id="a_node2"><a xlink:href="class_observable_storer.html#a593f13b0dd0f9d20608ef6b84fda3f1d" target="_top" xlink:title="ObservableStorer::gatherResults.">
<polygon fill="#ffffff" stroke="#000000" points="189.5317,-190.5 189.5317,-218.5 317.812,-218.5 317.812,-190.5 189.5317,-190.5"/>
<text text-anchor="start" x="197.5317" y="-206.5" font-family="Helvetica,sans-Serif" font-size="10.00" fill="#000000">ObservableStorer::gather</text>
<text text-anchor="middle" x="253.6719" y="-196.5" font-family="Helvetica,sans-Serif" font-size="10.00" fill="#000000">Results</text>
</a>
</g>
</g>
<!-- Node75&#45;&gt;Node76 -->
<g id="edge1" class="edge">
<title>Node75&#45;&gt;Node76</title>
<path fill="none" stroke="#191970" d="M146.6629,-190.2617C157.3802,-191.6877 168.4261,-193.1575 179.166,-194.5865"/>
<polygon fill="#191970" stroke="#191970" points="178.9741,-198.0917 189.3484,-195.9413 179.8974,-191.1529 178.9741,-198.0917"/>
</g>
<!-- Node78 -->
<g id="node4" class="node">
<title>Node78</title>
<g id="a_node4"><a xlink:href="class_observable_storer.html#af51ebd65eae2a5087cfd47ddf230da93" target="_top" xlink:title="ObservableStorer::writeFlowObservableToFile.">
<polygon fill="#ffffff" stroke="#000000" points="182.5957,-143.5 182.5957,-171.5 324.748,-171.5 324.748,-143.5 182.5957,-143.5"/>
<text text-anchor="start" x="190.5957" y="-159.5" font-family="Helvetica,sans-Serif" font-size="10.00" fill="#000000">ObservableStorer::writeFlow</text>
<text text-anchor="middle" x="253.6719" y="-149.5" font-family="Helvetica,sans-Serif" font-size="10.00" fill="#000000">ObservableToFile</text>
</a>
</g>
</g>
<!-- Node75&#45;&gt;Node78 -->
<g id="edge3" class="edge">
<title>Node75&#45;&gt;Node78</title>
<path fill="none" stroke="#191970" d="M146.6629,-171.145C155.1453,-170.0634 163.8336,-168.9555 172.413,-167.8615"/>
<polygon fill="#191970" stroke="#191970" points="172.9387,-171.3229 182.4157,-166.5861 172.0532,-164.3792 172.9387,-171.3229"/>
</g>
<!-- Node77 -->
<g id="node3" class="node">
<title>Node77</title>
<g id="a_node3"><a xlink:href="class_parallel_1_1_communicator.html#a7b1f80fb49a0cc83f2031c3415174150" target="_top" xlink:title=" ">
<polygon fill="#ffffff" stroke="#000000" points="376.8613,-190.5 376.8613,-218.5 496.7871,-218.5 496.7871,-190.5 376.8613,-190.5"/>
<text text-anchor="start" x="384.8613" y="-206.5" font-family="Helvetica,sans-Serif" font-size="10.00" fill="#000000">Parallel::Communicator</text>
<text text-anchor="middle" x="436.8242" y="-196.5" font-family="Helvetica,sans-Serif" font-size="10.00" fill="#000000">::getNumProc</text>
</a>
</g>
</g>
<!-- Node76&#45;&gt;Node77 -->
<g id="edge2" class="edge">
<title>Node76&#45;&gt;Node77</title>
<path fill="none" stroke="#191970" d="M317.987,-204.5C333.6292,-204.5 350.439,-204.5 366.3499,-204.5"/>
<polygon fill="#191970" stroke="#191970" points="366.6547,-208.0001 376.6546,-204.5 366.6546,-201.0001 366.6547,-208.0001"/>
</g>
<!-- Node79 -->
<g id="node5" class="node">
<title>Node79</title>
<g id="a_node5"><a xlink:href="namespace_i_o.html#a4f554804fd2ccd9c13c73777c5cbbf77" target="_top" xlink:title="IO::writeFlowObservableToFile method for writing a flow observable to file, using ....">
<polygon fill="#ffffff" stroke="#000000" points="360.748,-148.5 360.748,-166.5 512.9004,-166.5 512.9004,-148.5 360.748,-148.5"/>
<text text-anchor="middle" x="436.8242" y="-154.5" font-family="Helvetica,sans-Serif" font-size="10.00" fill="#000000">IO::writeFlowObservableToFile</text>
</a>
</g>
</g>
<!-- Node78&#45;&gt;Node79 -->
<g id="edge4" class="edge">
<title>Node78&#45;&gt;Node79</title>
<path fill="none" stroke="#191970" d="M325.0078,-157.5C333.2911,-157.5 341.807,-157.5 350.2656,-157.5"/>
<polygon fill="#191970" stroke="#191970" points="350.5354,-161.0001 360.5353,-157.5 350.5353,-154.0001 350.5354,-161.0001"/>
</g>
<!-- Node80 -->
<g id="node6" class="node">
<title>Node80</title>
<g id="a_node6"><a xlink:href="class_parallel_1_1_communicator.html#a474ab433da0e83ef372d74e26a7e5cb0" target="_top" xlink:title=" ">
<polygon fill="#ffffff" stroke="#000000" points="561.6909,-306.5 561.6909,-334.5 681.6167,-334.5 681.6167,-306.5 561.6909,-306.5"/>
<text text-anchor="start" x="569.6909" y="-322.5" font-family="Helvetica,sans-Serif" font-size="10.00" fill="#000000">Parallel::Communicator</text>
<text text-anchor="middle" x="621.6538" y="-312.5" font-family="Helvetica,sans-Serif" font-size="10.00" fill="#000000">::getProcessRank</text>
</a>
</g>
</g>
<!-- Node79&#45;&gt;Node80 -->
<g id="edge5" class="edge">
<title>Node79&#45;&gt;Node80</title>
<path fill="none" stroke="#191970" d="M488.9001,-166.5203C497.7749,-170.0031 506.2568,-174.8253 512.9004,-181.5 550.9816,-219.7596 510.8307,-259.229 548.9004,-297.5 550.185,-298.7914 551.5414,-300.0103 552.9583,-301.161"/>
<polygon fill="#191970" stroke="#191970" points="551.4086,-304.3377 561.655,-307.0324 555.3254,-298.5361 551.4086,-304.3377"/>
</g>
<!-- Node81 -->
<g id="node7" class="node">
<title>Node81</title>
<g id="a_node7"><a xlink:href="class_parameters.html#a96dbafc27f287de83dfaec3bc2d45efe" target="_top" xlink:title=" ">
<polygon fill="#ffffff" stroke="#000000" points="551.127,-269.5 551.127,-287.5 692.1807,-287.5 692.1807,-269.5 551.127,-269.5"/>
<text text-anchor="middle" x="621.6538" y="-275.5" font-family="Helvetica,sans-Serif" font-size="10.00" fill="#000000">Parameters::getFlowEpsilon</text>
</a>
</g>
</g>
<!-- Node79&#45;&gt;Node81 -->
<g id="edge6" class="edge">
<title>Node79&#45;&gt;Node81</title>
<path fill="none" stroke="#191970" d="M486.6588,-166.6314C496.148,-170.1026 505.4328,-174.892 512.9004,-181.5 541.7964,-207.0697 519.2128,-235.8538 548.9004,-260.5 550.6899,-261.9856 552.5842,-263.3516 554.56,-264.6072"/>
<polygon fill="#191970" stroke="#191970" points="553.1971,-267.846 563.6719,-269.4361 556.4749,-261.6609 553.1971,-267.846"/>
</g>
<!-- Node82 -->
<g id="node8" class="node">
<title>Node82</title>
<g id="a_node8"><a xlink:href="class_parameters.html#a58f15668b37e705d34d6588e287e4bc0" target="_top" xlink:title=" ">
<polygon fill="#ffffff" stroke="#000000" points="553.0703,-222.5 553.0703,-250.5 690.2373,-250.5 690.2373,-222.5 553.0703,-222.5"/>
<text text-anchor="start" x="561.0703" y="-238.5" font-family="Helvetica,sans-Serif" font-size="10.00" fill="#000000">Parameters::getConfigStart</text>
<text text-anchor="middle" x="621.6538" y="-228.5" font-family="Helvetica,sans-Serif" font-size="10.00" fill="#000000">Number</text>
</a>
</g>
</g>
<!-- Node79&#45;&gt;Node82 -->
<g id="edge7" class="edge">
<title>Node79&#45;&gt;Node82</title>
<path fill="none" stroke="#191970" d="M476.4506,-166.5685C488.5951,-170.2383 501.6982,-175.1437 512.9004,-181.5 531.5192,-192.0646 530.2848,-202.9298 548.9004,-213.5 552.0826,-215.3069 555.4253,-216.9917 558.8566,-218.5597"/>
<polygon fill="#191970" stroke="#191970" points="557.5225,-221.7954 568.0976,-222.4409 560.2332,-215.3416 557.5225,-221.7954"/>
</g>
<!-- Node83 -->
<g id="node9" class="node">
<title>Node83</title>
<g id="a_node9"><a xlink:href="class_parameters.html#afa4cfe5dc4302b1e8f8928606ea9b056" target="_top" xlink:title=" ">
<polygon fill="#ffffff" stroke="#000000" points="548.9004,-185.5 548.9004,-203.5 694.4072,-203.5 694.4072,-185.5 548.9004,-185.5"/>
<text text-anchor="middle" x="621.6538" y="-191.5" font-family="Helvetica,sans-Serif" font-size="10.00" fill="#000000">Parameters::getOutputFolder</text>
</a>
</g>
</g>
<!-- Node79&#45;&gt;Node83 -->
<g id="edge8" class="edge">
<title>Node79&#45;&gt;Node83</title>
<path fill="none" stroke="#191970" d="M482.0386,-166.5512C507.5306,-171.6543 539.5723,-178.0686 566.5283,-183.4647"/>
<polygon fill="#191970" stroke="#191970" points="566.0937,-186.9471 576.5862,-185.4782 567.4678,-180.0833 566.0937,-186.9471"/>
</g>
<!-- Node84 -->
<g id="node10" class="node">
<title>Node84</title>
<g id="a_node10"><a xlink:href="class_parameters.html#a181a773d23fdb19d0c4f35e6cf2d5649" target="_top" xlink:title=" ">
<polygon fill="#ffffff" stroke="#000000" points="551.9595,-148.5 551.9595,-166.5 691.3481,-166.5 691.3481,-148.5 551.9595,-148.5"/>
<text text-anchor="middle" x="621.6538" y="-154.5" font-family="Helvetica,sans-Serif" font-size="10.00" fill="#000000">Parameters::getBatchName</text>
</a>
</g>
</g>
<!-- Node79&#45;&gt;Node84 -->
<g id="edge9" class="edge">
<title>Node79&#45;&gt;Node84</title>
<path fill="none" stroke="#191970" d="M513.0686,-157.5C522.489,-157.5 532.1408,-157.5 541.6158,-157.5"/>
<polygon fill="#191970" stroke="#191970" points="541.8086,-161.0001 551.8085,-157.5 541.8085,-154.0001 541.8086,-161.0001"/>
</g>
<!-- Node85 -->
<g id="node11" class="node">
<title>Node85</title>
<g id="a_node11"><a xlink:href="class_parameters.html#abace4edb8ece38841b58c5ce6168cbc4" target="_top" xlink:title=" ">
<polygon fill="#ffffff" stroke="#000000" points="559.7402,-111.5 559.7402,-129.5 683.5674,-129.5 683.5674,-111.5 559.7402,-111.5"/>
<text text-anchor="middle" x="621.6538" y="-117.5" font-family="Helvetica,sans-Serif" font-size="10.00" fill="#000000">Parameters::getFilePath</text>
</a>
</g>
</g>
<!-- Node79&#45;&gt;Node85 -->
<g id="edge10" class="edge">
<title>Node79&#45;&gt;Node85</title>
<path fill="none" stroke="#191970" d="M482.0386,-148.4488C507.5306,-143.3457 539.5723,-136.9314 566.5283,-131.5353"/>
<polygon fill="#191970" stroke="#191970" points="567.4678,-134.9167 576.5862,-129.5218 566.0937,-128.0529 567.4678,-134.9167"/>
</g>
<!-- Node86 -->
<g id="node12" class="node">
<title>Node86</title>
<g id="a_node12"><a xlink:href="class_parameters.html#ae5c64523dc50dca13b417fe3d9e4175c" target="_top" xlink:title=" ">
<polygon fill="#ffffff" stroke="#000000" points="567.7969,-74.5 567.7969,-92.5 675.5107,-92.5 675.5107,-74.5 567.7969,-74.5"/>
<text text-anchor="middle" x="621.6538" y="-80.5" font-family="Helvetica,sans-Serif" font-size="10.00" fill="#000000">Parameters::getBeta</text>
</a>
</g>
</g>
<!-- Node79&#45;&gt;Node86 -->
<g id="edge11" class="edge">
<title>Node79&#45;&gt;Node86</title>
<path fill="none" stroke="#191970" d="M452.7064,-148.4343C474.0281,-136.5633 513.3463,-115.7137 548.9004,-102.5 556.0474,-99.8438 563.7202,-97.4107 571.3068,-95.237"/>
<polygon fill="#191970" stroke="#191970" points="572.4595,-98.5503 581.1792,-92.5321 570.6097,-91.7991 572.4595,-98.5503"/>
</g>
<!-- Node87 -->
<g id="node13" class="node">
<title>Node87</title>
<g id="a_node13"><a xlink:href="class_parameters.html#aae314edb18d426571ab7b6df60da70aa" target="_top" xlink:title=" ">
<polygon fill="#ffffff" stroke="#000000" points="561.415,-37.5 561.415,-55.5 681.8926,-55.5 681.8926,-37.5 561.415,-37.5"/>
<text text-anchor="middle" x="621.6538" y="-43.5" font-family="Helvetica,sans-Serif" font-size="10.00" fill="#000000">Parameters::getNFlows</text>
</a>
</g>
</g>
<!-- Node79&#45;&gt;Node87 -->
<g id="edge12" class="edge">
<title>Node79&#45;&gt;Node87</title>
<path fill="none" stroke="#191970" d="M445.1637,-148.4003C462.5976,-129.9319 504.9413,-87.9069 548.9004,-65.5 554.0415,-62.8795 559.5763,-60.5974 565.2155,-58.6151"/>
<polygon fill="#191970" stroke="#191970" points="566.3008,-61.9427 574.7535,-55.5552 564.1623,-55.2774 566.3008,-61.9427"/>
</g>
<!-- Node88 -->
<g id="node14" class="node">
<title>Node88</title>
<g id="a_node14"><a xlink:href="class_parameters.html#a07453f20719f54f9fd6f72d311638b39" target="_top" xlink:title=" ">
<polygon fill="#ffffff" stroke="#000000" points="559.7329,-.5 559.7329,-18.5 683.5747,-18.5 683.5747,-.5 559.7329,-.5"/>
<text text-anchor="middle" x="621.6538" y="-6.5" font-family="Helvetica,sans-Serif" font-size="10.00" fill="#000000">Parameters::getVerbose</text>
</a>
</g>
</g>
<!-- Node79&#45;&gt;Node88 -->
<g id="edge13" class="edge">
<title>Node79&#45;&gt;Node88</title>
<path fill="none" stroke="#191970" d="M442.0377,-148.3477C456.0446,-124.6197 496.9733,-60.7287 548.9004,-28.5 552.7478,-26.1121 556.8884,-24.0224 561.1719,-22.1941"/>
<polygon fill="#191970" stroke="#191970" points="562.5973,-25.3973 570.7196,-18.5945 560.1278,-18.8473 562.5973,-25.3973"/>
</g>
</g>
</svg>
