<?xml version="1.0" encoding="UTF-8" standalone="no"?>
<!DOCTYPE svg PUBLIC "-//W3C//DTD SVG 1.1//EN"
 "http://www.w3.org/Graphics/SVG/1.1/DTD/svg11.dtd">
<!-- Generated by graphviz version 2.40.1 (20161225.0304)
 -->
<!-- Title: LuscherAction::LuscherAction Pages: 1 -->
<svg width="300pt" height="64pt"
 viewBox="0.00 0.00 300.01 64.00" xmlns="http://www.w3.org/2000/svg" xmlns:xlink="http://www.w3.org/1999/xlink">
<g id="graph0" class="graph" transform="scale(1 1) rotate(0) translate(4 60)">
<title>LuscherAction::LuscherAction</title>
<polygon fill="#ffffff" stroke="transparent" points="-4,4 -4,-60 296.0088,-60 296.0088,4 -4,4"/>
<!-- Node0 -->
<g id="node1" class="node">
<title>Node0</title>
<g id="a_node1"><a xlink:title=" ">
<polygon fill="#bfbfbf" stroke="#000000" points="0,-18.5 0,-36.5 148.2949,-36.5 148.2949,-18.5 0,-18.5"/>
<text text-anchor="middle" x="74.1475" y="-24.5" font-family="Helvetica,sans-Serif" font-size="10.00" fill="#000000">LuscherAction::LuscherAction</text>
</a>
</g>
</g>
<!-- Node1 -->
<g id="node2" class="node">
<title>Node1</title>
<g id="a_node2"><a xlink:href="class_parameters.html#ae5c64523dc50dca13b417fe3d9e4175c" target="_top" xlink:title=" ">
<polygon fill="#ffffff" stroke="#000000" points="184.2949,-37.5 184.2949,-55.5 292.0088,-55.5 292.0088,-37.5 184.2949,-37.5"/>
<text text-anchor="middle" x="238.1519" y="-43.5" font-family="Helvetica,sans-Serif" font-size="10.00" fill="#000000">Parameters::getBeta</text>
</a>
</g>
</g>
<!-- Node0&#45;&gt;Node1 -->
<g id="edge1" class="edge">
<title>Node0&#45;&gt;Node1</title>
<path fill="none" stroke="#191970" d="M148.472,-36.1105C157.028,-37.1018 165.6966,-38.106 174.1006,-39.0796"/>
<polygon fill="#191970" stroke="#191970" points="173.8587,-42.5749 184.1951,-40.2491 174.6644,-35.6214 173.8587,-42.5749"/>
</g>
<!-- Node2 -->
<g id="node3" class="node">
<title>Node2</title>
<g id="a_node3"><a xlink:href="class_lattice.html#a5b4e162f06f7b4b90b4a9335ed2aabb5" target="_top" xlink:title="allocate method for allocating memory.">
<polygon fill="#ffffff" stroke="#000000" points="195.4082,-.5 195.4082,-18.5 280.8955,-18.5 280.8955,-.5 195.4082,-.5"/>
<text text-anchor="middle" x="238.1519" y="-6.5" font-family="Helvetica,sans-Serif" font-size="10.00" fill="#000000">Lattice::allocate</text>
</a>
</g>
</g>
<!-- Node0&#45;&gt;Node2 -->
<g id="edge2" class="edge">
<title>Node0&#45;&gt;Node2</title>
<path fill="none" stroke="#191970" d="M148.472,-19.3427C160.7956,-17.9901 173.3525,-16.6119 185.0163,-15.3318"/>
<polygon fill="#191970" stroke="#191970" points="185.4496,-18.8053 195.008,-14.2352 184.6858,-11.8471 185.4496,-18.8053"/>
</g>
</g>
</svg>
