<?xml version="1.0" encoding="UTF-8" standalone="no"?>
<!DOCTYPE svg PUBLIC "-//W3C//DTD SVG 1.1//EN"
 "http://www.w3.org/Graphics/SVG/1.1/DTD/svg11.dtd">
<!-- Generated by graphviz version 2.40.1 (20161225.0304)
 -->
<!-- Title: IO::FieldIO::writeFieldToFile Pages: 1 -->
<svg width="506pt" height="570pt"
 viewBox="0.00 0.00 505.94 570.00" xmlns="http://www.w3.org/2000/svg" xmlns:xlink="http://www.w3.org/1999/xlink">
<g id="graph0" class="graph" transform="scale(1 1) rotate(0) translate(4 566)">
<title>IO::FieldIO::writeFieldToFile</title>
<polygon fill="#ffffff" stroke="transparent" points="-4,4 -4,-566 501.9443,-566 501.9443,4 -4,4"/>
<!-- Node45 -->
<g id="node1" class="node">
<title>Node45</title>
<g id="a_node1"><a xlink:title="IO::FieldIO::writeFieldToFile writes a lattice of SU3 matrix objects to file.">
<polygon fill="#bfbfbf" stroke="#000000" points="0,-282.5 0,-300.5 139.3643,-300.5 139.3643,-282.5 0,-282.5"/>
<text text-anchor="middle" x="69.6821" y="-288.5" font-family="Helvetica,sans-Serif" font-size="10.00" fill="#000000">IO::FieldIO::writeFieldToFile</text>
</a>
</g>
</g>
<!-- Node46 -->
<g id="node2" class="node">
<title>Node46</title>
<g id="a_node2"><a xlink:href="class_parameters.html#a58f15668b37e705d34d6588e287e4bc0" target="_top" xlink:title=" ">
<polygon fill="#ffffff" stroke="#000000" points="188.4258,-533.5 188.4258,-561.5 325.5928,-561.5 325.5928,-533.5 188.4258,-533.5"/>
<text text-anchor="start" x="196.4258" y="-549.5" font-family="Helvetica,sans-Serif" font-size="10.00" fill="#000000">Parameters::getConfigStart</text>
<text text-anchor="middle" x="257.0093" y="-539.5" font-family="Helvetica,sans-Serif" font-size="10.00" fill="#000000">Number</text>
</a>
</g>
</g>
<!-- Node45&#45;&gt;Node46 -->
<g id="edge1" class="edge">
<title>Node45&#45;&gt;Node46</title>
<path fill="none" stroke="#191970" d="M71.043,-300.7221C76.6952,-335.6603 101.5808,-461.1087 175.3643,-524.5 176.8722,-525.7955 178.4481,-527.0184 180.0807,-528.1727"/>
<polygon fill="#191970" stroke="#191970" points="178.3001,-531.1862 188.663,-533.3909 181.9368,-525.205 178.3001,-531.1862"/>
</g>
<!-- Node47 -->
<g id="node3" class="node">
<title>Node47</title>
<g id="a_node3"><a xlink:href="class_parameters.html#a181a773d23fdb19d0c4f35e6cf2d5649" target="_top" xlink:title=" ">
<polygon fill="#ffffff" stroke="#000000" points="187.3149,-496.5 187.3149,-514.5 326.7036,-514.5 326.7036,-496.5 187.3149,-496.5"/>
<text text-anchor="middle" x="257.0093" y="-502.5" font-family="Helvetica,sans-Serif" font-size="10.00" fill="#000000">Parameters::getBatchName</text>
</a>
</g>
</g>
<!-- Node45&#45;&gt;Node47 -->
<g id="edge2" class="edge">
<title>Node45&#45;&gt;Node47</title>
<path fill="none" stroke="#191970" d="M71.735,-300.6752C79.301,-332.2424 108.719,-437.1883 175.3643,-487.5 177.5689,-489.1643 179.897,-490.6807 182.318,-492.0619"/>
<polygon fill="#191970" stroke="#191970" points="180.912,-495.27 191.4359,-496.4946 183.9726,-488.9746 180.912,-495.27"/>
</g>
<!-- Node48 -->
<g id="node4" class="node">
<title>Node48</title>
<g id="a_node4"><a xlink:href="class_parameters.html#ae5c64523dc50dca13b417fe3d9e4175c" target="_top" xlink:title=" ">
<polygon fill="#ffffff" stroke="#000000" points="203.1523,-459.5 203.1523,-477.5 310.8662,-477.5 310.8662,-459.5 203.1523,-459.5"/>
<text text-anchor="middle" x="257.0093" y="-465.5" font-family="Helvetica,sans-Serif" font-size="10.00" fill="#000000">Parameters::getBeta</text>
</a>
</g>
</g>
<!-- Node45&#45;&gt;Node48 -->
<g id="edge3" class="edge">
<title>Node45&#45;&gt;Node48</title>
<path fill="none" stroke="#191970" d="M72.9821,-300.8479C83.286,-328.5906 117.666,-410.9767 175.3643,-450.5 180.708,-454.1605 186.6697,-457.0917 192.8714,-459.4368"/>
<polygon fill="#191970" stroke="#191970" points="192.1679,-462.8887 202.7603,-462.6599 194.3372,-456.2333 192.1679,-462.8887"/>
</g>
<!-- Node49 -->
<g id="node5" class="node">
<title>Node49</title>
<g id="a_node5"><a xlink:href="class_parameters.html#a52b90e94a378ec9fe8c504cf546e98fa" target="_top" xlink:title=" ">
<polygon fill="#ffffff" stroke="#000000" points="194.5391,-422.5 194.5391,-440.5 319.4795,-440.5 319.4795,-422.5 194.5391,-422.5"/>
<text text-anchor="middle" x="257.0093" y="-428.5" font-family="Helvetica,sans-Serif" font-size="10.00" fill="#000000">Parameters::getNSpatial</text>
</a>
</g>
</g>
<!-- Node45&#45;&gt;Node49 -->
<g id="edge4" class="edge">
<title>Node45&#45;&gt;Node49</title>
<path fill="none" stroke="#191970" d="M74.7168,-300.5979C87.9283,-323.5591 126.0033,-384.1145 175.3643,-413.5 178.6109,-415.4328 182.0415,-417.1586 185.585,-418.6996"/>
<polygon fill="#191970" stroke="#191970" points="184.5892,-422.0658 195.1799,-422.3621 187.0856,-415.526 184.5892,-422.0658"/>
</g>
<!-- Node50 -->
<g id="node6" class="node">
<title>Node50</title>
<g id="a_node6"><a xlink:href="class_parameters.html#a237ea1286459e8c648e983464829fe8d" target="_top" xlink:title=" ">
<polygon fill="#ffffff" stroke="#000000" points="189.2632,-385.5 189.2632,-403.5 324.7554,-403.5 324.7554,-385.5 189.2632,-385.5"/>
<text text-anchor="middle" x="257.0093" y="-391.5" font-family="Helvetica,sans-Serif" font-size="10.00" fill="#000000">Parameters::getNTemporal</text>
</a>
</g>
</g>
<!-- Node45&#45;&gt;Node50 -->
<g id="edge5" class="edge">
<title>Node45&#45;&gt;Node50</title>
<path fill="none" stroke="#191970" d="M78.0284,-300.5663C94.7231,-318.1186 134.177,-356.7476 175.3643,-376.5 179.9899,-378.7184 184.8946,-380.6673 189.913,-382.3789"/>
<polygon fill="#191970" stroke="#191970" points="189.0731,-385.7825 199.6606,-385.3863 191.1369,-379.0936 189.0731,-385.7825"/>
</g>
<!-- Node51 -->
<g id="node7" class="node">
<title>Node51</title>
<g id="a_node7"><a xlink:href="class_parallel_1_1_communicator.html#a7b1f80fb49a0cc83f2031c3415174150" target="_top" xlink:title=" ">
<polygon fill="#ffffff" stroke="#000000" points="197.0464,-338.5 197.0464,-366.5 316.9722,-366.5 316.9722,-338.5 197.0464,-338.5"/>
<text text-anchor="start" x="205.0464" y="-354.5" font-family="Helvetica,sans-Serif" font-size="10.00" fill="#000000">Parallel::Communicator</text>
<text text-anchor="middle" x="257.0093" y="-344.5" font-family="Helvetica,sans-Serif" font-size="10.00" fill="#000000">::getNumProc</text>
</a>
</g>
</g>
<!-- Node45&#45;&gt;Node51 -->
<g id="edge6" class="edge">
<title>Node45&#45;&gt;Node51</title>
<path fill="none" stroke="#191970" d="M93.442,-300.5865C114.7538,-308.6064 146.9538,-320.403 175.3643,-329.5 181.7718,-331.5517 188.4927,-333.6036 195.2111,-335.5904"/>
<polygon fill="#191970" stroke="#191970" points="194.4357,-339.0099 205.0156,-338.4469 196.3938,-332.2893 194.4357,-339.0099"/>
</g>
<!-- Node52 -->
<g id="node8" class="node">
<title>Node52</title>
<g id="a_node8"><a xlink:href="class_parameters.html#abace4edb8ece38841b58c5ce6168cbc4" target="_top" xlink:title=" ">
<polygon fill="#ffffff" stroke="#000000" points="195.0957,-301.5 195.0957,-319.5 318.9229,-319.5 318.9229,-301.5 195.0957,-301.5"/>
<text text-anchor="middle" x="257.0093" y="-307.5" font-family="Helvetica,sans-Serif" font-size="10.00" fill="#000000">Parameters::getFilePath</text>
</a>
</g>
</g>
<!-- Node45&#45;&gt;Node52 -->
<g id="edge7" class="edge">
<title>Node45&#45;&gt;Node52</title>
<path fill="none" stroke="#191970" d="M139.4358,-298.5749C154.2266,-300.0751 169.8699,-301.6617 184.7515,-303.1711"/>
<polygon fill="#191970" stroke="#191970" points="184.6104,-306.6747 194.9126,-304.2017 185.3168,-299.7104 184.6104,-306.6747"/>
</g>
<!-- Node53 -->
<g id="node9" class="node">
<title>Node53</title>
<g id="a_node9"><a xlink:href="class_parameters.html#afa4cfe5dc4302b1e8f8928606ea9b056" target="_top" xlink:title=" ">
<polygon fill="#ffffff" stroke="#000000" points="184.2559,-264.5 184.2559,-282.5 329.7627,-282.5 329.7627,-264.5 184.2559,-264.5"/>
<text text-anchor="middle" x="257.0093" y="-270.5" font-family="Helvetica,sans-Serif" font-size="10.00" fill="#000000">Parameters::getOutputFolder</text>
</a>
</g>
</g>
<!-- Node45&#45;&gt;Node53 -->
<g id="edge8" class="edge">
<title>Node45&#45;&gt;Node53</title>
<path fill="none" stroke="#191970" d="M139.4358,-284.7975C150.6996,-283.7151 162.4577,-282.5853 173.9974,-281.4765"/>
<polygon fill="#191970" stroke="#191970" points="174.4447,-284.9497 184.0641,-280.5092 173.7751,-277.9818 174.4447,-284.9497"/>
</g>
<!-- Node54 -->
<g id="node10" class="node">
<title>Node54</title>
<g id="a_node10"><a xlink:href="class_parameters.html#a265e274127b6d845e43c66d94463f051" target="_top" xlink:title=" ">
<polygon fill="#ffffff" stroke="#000000" points="198.7041,-227.5 198.7041,-245.5 315.3145,-245.5 315.3145,-227.5 198.7041,-227.5"/>
<text text-anchor="middle" x="257.0093" y="-233.5" font-family="Helvetica,sans-Serif" font-size="10.00" fill="#000000">Parameters::getDebug</text>
</a>
</g>
</g>
<!-- Node45&#45;&gt;Node54 -->
<g id="edge9" class="edge">
<title>Node45&#45;&gt;Node54</title>
<path fill="none" stroke="#191970" d="M94.232,-282.3599C115.5117,-274.6249 147.2237,-263.5457 175.3643,-255.5 184.7109,-252.8277 194.7385,-250.2564 204.4554,-247.9153"/>
<polygon fill="#191970" stroke="#191970" points="205.4974,-251.2657 214.4274,-245.5644 203.8911,-244.4525 205.4974,-251.2657"/>
</g>
<!-- Node55 -->
<g id="node11" class="node">
<title>Node55</title>
<g id="a_node11"><a xlink:href="class_parallel_1_1_communicator.html#a9471bf9448f34a0b4575310a3c54af61" target="_top" xlink:title=" ">
<polygon fill="#ffffff" stroke="#000000" points="197.0464,-141.5 197.0464,-169.5 316.9722,-169.5 316.9722,-141.5 197.0464,-141.5"/>
<text text-anchor="start" x="205.0464" y="-157.5" font-family="Helvetica,sans-Serif" font-size="10.00" fill="#000000">Parallel::Communicator</text>
<text text-anchor="middle" x="257.0093" y="-147.5" font-family="Helvetica,sans-Serif" font-size="10.00" fill="#000000">::checkLattice</text>
</a>
</g>
</g>
<!-- Node45&#45;&gt;Node55 -->
<g id="edge10" class="edge">
<title>Node45&#45;&gt;Node55</title>
<path fill="none" stroke="#191970" d="M76.3153,-282.4025C91.5832,-262.0676 131.3008,-212.5228 175.3643,-184.5 181.9684,-180.3 189.2608,-176.6093 196.6887,-173.3943"/>
<polygon fill="#191970" stroke="#191970" points="198.1717,-176.57 206.1283,-169.574 195.5456,-170.0812 198.1717,-176.57"/>
</g>
<!-- Node56 -->
<g id="node12" class="node">
<title>Node56</title>
<g id="a_node12"><a xlink:href="class_parallel_1_1_index.html#af31faeef1369fdc0997d1910e008bfe2" target="_top" xlink:title=" ">
<polygon fill="#ffffff" stroke="#000000" points="374.6543,-188.5 374.6543,-206.5 497.9443,-206.5 497.9443,-188.5 374.6543,-188.5"/>
<text text-anchor="middle" x="436.2993" y="-194.5" font-family="Helvetica,sans-Serif" font-size="10.00" fill="#000000">Parallel::Index::getIndex</text>
</a>
</g>
</g>
<!-- Node45&#45;&gt;Node56 -->
<g id="edge15" class="edge">
<title>Node45&#45;&gt;Node56</title>
<path fill="none" stroke="#191970" d="M79.1754,-282.2821C96.572,-266.0463 135.4552,-232.7251 175.3643,-218.5 236.5955,-196.6748 310.8597,-192.6824 364.4791,-193.4088"/>
<polygon fill="#191970" stroke="#191970" points="364.514,-196.9101 374.58,-193.6046 364.6497,-189.9114 364.514,-196.9101"/>
</g>
<!-- Node58 -->
<g id="node14" class="node">
<title>Node58</title>
<g id="a_node14"><a xlink:href="class_parallel_1_1_neighbours.html#ad1a2a616b4089eded3545faf11409b85" target="_top" xlink:title=" ">
<polygon fill="#ffffff" stroke="#000000" points="175.3643,-94.5 175.3643,-122.5 338.6543,-122.5 338.6543,-94.5 175.3643,-94.5"/>
<text text-anchor="start" x="183.3643" y="-110.5" font-family="Helvetica,sans-Serif" font-size="10.00" fill="#000000">Parallel::Neighbours</text>
<text text-anchor="middle" x="257.0093" y="-100.5" font-family="Helvetica,sans-Serif" font-size="10.00" fill="#000000">::getProcessorDimensionPosition</text>
</a>
</g>
</g>
<!-- Node45&#45;&gt;Node58 -->
<g id="edge13" class="edge">
<title>Node45&#45;&gt;Node58</title>
<path fill="none" stroke="#191970" d="M73.0724,-282.247C83.6287,-254.7591 118.6408,-172.9299 175.3643,-131.5 177.4454,-129.98 179.6234,-128.5603 181.8756,-127.2344"/>
<polygon fill="#191970" stroke="#191970" points="183.6103,-130.2776 190.8805,-122.5707 180.3911,-124.0617 183.6103,-130.2776"/>
</g>
<!-- Node59 -->
<g id="node15" class="node">
<title>Node59</title>
<g id="a_node15"><a xlink:href="class_parallel_1_1_index.html#aaa2650024b4e91dc86d2bdc568c8f57d" target="_top" xlink:title=" ">
<polygon fill="#ffffff" stroke="#000000" points="193.1426,-47.5 193.1426,-75.5 320.876,-75.5 320.876,-47.5 193.1426,-47.5"/>
<text text-anchor="start" x="201.1426" y="-63.5" font-family="Helvetica,sans-Serif" font-size="10.00" fill="#000000">Parallel::Index::getGlobal</text>
<text text-anchor="middle" x="257.0093" y="-53.5" font-family="Helvetica,sans-Serif" font-size="10.00" fill="#000000">Index</text>
</a>
</g>
</g>
<!-- Node45&#45;&gt;Node59 -->
<g id="edge14" class="edge">
<title>Node45&#45;&gt;Node59</title>
<path fill="none" stroke="#191970" d="M71.5783,-282.4162C78.7974,-250.1471 107.6489,-140.01 175.3643,-84.5 178.0655,-82.2856 180.9671,-80.2842 184.0086,-78.4751"/>
<polygon fill="#191970" stroke="#191970" points="185.631,-81.5765 192.901,-73.8695 182.4116,-75.3607 185.631,-81.5765"/>
</g>
<!-- Node60 -->
<g id="node16" class="node">
<title>Node60</title>
<g id="a_node16"><a xlink:href="class_parallel_1_1_communicator.html#a474ab433da0e83ef372d74e26a7e5cb0" target="_top" xlink:title=" ">
<polygon fill="#ffffff" stroke="#000000" points="197.0464,-.5 197.0464,-28.5 316.9722,-28.5 316.9722,-.5 197.0464,-.5"/>
<text text-anchor="start" x="205.0464" y="-16.5" font-family="Helvetica,sans-Serif" font-size="10.00" fill="#000000">Parallel::Communicator</text>
<text text-anchor="middle" x="257.0093" y="-6.5" font-family="Helvetica,sans-Serif" font-size="10.00" fill="#000000">::getProcessRank</text>
</a>
</g>
</g>
<!-- Node45&#45;&gt;Node60 -->
<g id="edge16" class="edge">
<title>Node45&#45;&gt;Node60</title>
<path fill="none" stroke="#191970" d="M70.64,-282.4825C75.0113,-245.9462 96.3959,-107.5401 175.3643,-37.5 179.0275,-34.251 183.1164,-31.4579 187.4587,-29.0572"/>
<polygon fill="#191970" stroke="#191970" points="189.1549,-32.1259 196.6724,-24.6601 186.14,-25.8084 189.1549,-32.1259"/>
</g>
<!-- Node55&#45;&gt;Node56 -->
<g id="edge11" class="edge">
<title>Node55&#45;&gt;Node56</title>
<path fill="none" stroke="#191970" d="M317.209,-169.6022C340.1304,-174.9717 365.9411,-181.0181 387.659,-186.1056"/>
<polygon fill="#191970" stroke="#191970" points="387.107,-189.571 397.6418,-188.4442 388.7037,-182.7555 387.107,-189.571"/>
</g>
<!-- Node57 -->
<g id="node13" class="node">
<title>Node57</title>
<g id="a_node13"><a xlink:href="class_parallel_1_1_communicator.html#a57bb28ee8dbc4efd708a2695423778c4" target="_top" xlink:title=" ">
<polygon fill="#ffffff" stroke="#000000" points="376.3364,-141.5 376.3364,-169.5 496.2622,-169.5 496.2622,-141.5 376.3364,-141.5"/>
<text text-anchor="start" x="384.3364" y="-157.5" font-family="Helvetica,sans-Serif" font-size="10.00" fill="#000000">Parallel::Communicator</text>
<text text-anchor="middle" x="436.2993" y="-147.5" font-family="Helvetica,sans-Serif" font-size="10.00" fill="#000000">::MPIExit</text>
</a>
</g>
</g>
<!-- Node55&#45;&gt;Node57 -->
<g id="edge12" class="edge">
<title>Node55&#45;&gt;Node57</title>
<path fill="none" stroke="#191970" d="M317.209,-155.5C332.8142,-155.5 349.7586,-155.5 365.8389,-155.5"/>
<polygon fill="#191970" stroke="#191970" points="366.2585,-159.0001 376.2585,-155.5 366.2584,-152.0001 366.2585,-159.0001"/>
</g>
</g>
</svg>
