<?xml version="1.0" encoding="UTF-8" standalone="no"?>
<!DOCTYPE svg PUBLIC "-//W3C//DTD SVG 1.1//EN"
 "http://www.w3.org/Graphics/SVG/1.1/DTD/svg11.dtd">
<!-- Generated by graphviz version 2.40.1 (20161225.0304)
 -->
<!-- Title: complex::complex Pages: 1 -->
<svg width="209pt" height="64pt"
 viewBox="0.00 0.00 209.37 64.00" xmlns="http://www.w3.org/2000/svg" xmlns:xlink="http://www.w3.org/1999/xlink">
<g id="graph0" class="graph" transform="scale(1 1) rotate(0) translate(4 60)">
<title>complex::complex</title>
<polygon fill="#ffffff" stroke="transparent" points="-4,4 -4,-60 205.374,-60 205.374,4 -4,4"/>
<!-- Node9 -->
<g id="node1" class="node">
<title>Node9</title>
<g id="a_node1"><a xlink:title=" ">
<polygon fill="#bfbfbf" stroke="#000000" points="0,-18.5 0,-36.5 96.0293,-36.5 96.0293,-18.5 0,-18.5"/>
<text text-anchor="middle" x="48.0146" y="-24.5" font-family="Helvetica,sans-Serif" font-size="10.00" fill="#000000">complex::complex</text>
</a>
</g>
</g>
<!-- Node10 -->
<g id="node2" class="node">
<title>Node10</title>
<g id="a_node2"><a xlink:href="classcomplex.html#a696019188accc543e7c8297595e297ec" target="_top" xlink:title=" ">
<polygon fill="#ffffff" stroke="#000000" points="132.8594,-37.5 132.8594,-55.5 200.5439,-55.5 200.5439,-37.5 132.8594,-37.5"/>
<text text-anchor="middle" x="166.7017" y="-43.5" font-family="Helvetica,sans-Serif" font-size="10.00" fill="#000000">complex::re</text>
</a>
</g>
</g>
<!-- Node9&#45;&gt;Node10 -->
<g id="edge1" class="edge">
<title>Node9&#45;&gt;Node10</title>
<path fill="none" stroke="#191970" d="M96.2892,-35.228C104.9582,-36.6158 113.954,-38.0559 122.5007,-39.4241"/>
<polygon fill="#191970" stroke="#191970" points="122.2234,-42.9242 132.651,-41.049 123.33,-36.0122 122.2234,-42.9242"/>
</g>
<!-- Node11 -->
<g id="node3" class="node">
<title>Node11</title>
<g id="a_node3"><a xlink:href="classcomplex.html#a450461dea92da7f72b96402edafd07c2" target="_top" xlink:title=" ">
<polygon fill="#ffffff" stroke="#000000" points="132.0293,-.5 132.0293,-18.5 201.374,-18.5 201.374,-.5 132.0293,-.5"/>
<text text-anchor="middle" x="166.7017" y="-6.5" font-family="Helvetica,sans-Serif" font-size="10.00" fill="#000000">complex::im</text>
</a>
</g>
</g>
<!-- Node9&#45;&gt;Node11 -->
<g id="edge2" class="edge">
<title>Node9&#45;&gt;Node11</title>
<path fill="none" stroke="#191970" d="M96.2892,-20.1787C104.7757,-18.8916 113.5754,-17.5571 121.9604,-16.2854"/>
<polygon fill="#191970" stroke="#191970" points="122.5715,-19.7329 131.9336,-14.7729 121.5218,-12.812 122.5715,-19.7329"/>
</g>
</g>
</svg>
