<?xml version="1.0" encoding="UTF-8" standalone="no"?>
<!DOCTYPE svg PUBLIC "-//W3C//DTD SVG 1.1//EN"
 "http://www.w3.org/Graphics/SVG/1.1/DTD/svg11.dtd">
<!-- Generated by graphviz version 2.40.1 (20161225.0304)
 -->
<!-- Title: Parallel::Communicator::gatherDoubleResults Pages: 1 -->
<svg width="324pt" height="158pt"
 viewBox="0.00 0.00 323.87 158.00" xmlns="http://www.w3.org/2000/svg" xmlns:xlink="http://www.w3.org/1999/xlink">
<g id="graph0" class="graph" transform="scale(1 1) rotate(0) translate(4 154)">
<title>Parallel::Communicator::gatherDoubleResults</title>
<polygon fill="#ffffff" stroke="transparent" points="-4,4 -4,-154 319.8711,-154 319.8711,4 -4,4"/>
<!-- Node27 -->
<g id="node1" class="node">
<title>Node27</title>
<g id="a_node1"><a xlink:title="Parallel::Communicator::gatherDoubleResults.">
<polygon fill="#bfbfbf" stroke="#000000" points="195.9453,-58.5 195.9453,-86.5 315.8711,-86.5 315.8711,-58.5 195.9453,-58.5"/>
<text text-anchor="start" x="203.9453" y="-74.5" font-family="Helvetica,sans-Serif" font-size="10.00" fill="#000000">Parallel::Communicator</text>
<text text-anchor="middle" x="255.9082" y="-64.5" font-family="Helvetica,sans-Serif" font-size="10.00" fill="#000000">::gatherDoubleResults</text>
</a>
</g>
</g>
<!-- Node28 -->
<g id="node2" class="node">
<title>Node28</title>
<g id="a_node2"><a xlink:href="class_lattice_action_charge_density.html#abb7db718d4069faab0ed19f31aa85ad4" target="_top" xlink:title="Correlator::printObservable prints the observable for the output.">
<polygon fill="#ffffff" stroke="#000000" points="10.2734,-121.5 10.2734,-149.5 149.6719,-149.5 149.6719,-121.5 10.2734,-121.5"/>
<text text-anchor="start" x="18.2734" y="-137.5" font-family="Helvetica,sans-Serif" font-size="10.00" fill="#000000">LatticeActionChargeDensity</text>
<text text-anchor="middle" x="79.9727" y="-127.5" font-family="Helvetica,sans-Serif" font-size="10.00" fill="#000000">::printObservable</text>
</a>
</g>
</g>
<!-- Node27&#45;&gt;Node28 -->
<g id="edge1" class="edge">
<title>Node27&#45;&gt;Node28</title>
<path fill="none" stroke="#191970" d="M215.1388,-90.7104C198.232,-97.9424 178.3113,-106.0552 159.9453,-112.5 151.0845,-115.6093 141.5676,-118.6225 132.2991,-121.3878"/>
<polygon fill="#191970" stroke="#191970" points="216.9198,-93.7536 224.7105,-86.5734 214.1426,-87.3281 216.9198,-93.7536"/>
</g>
<!-- Node29 -->
<g id="node3" class="node">
<title>Node29</title>
<g id="a_node3"><a xlink:href="class_master_sampler.html#a41853c3e4ab52fca7d93cf80e8702b7a" target="_top" xlink:title="Correlator::printObservable prints the observable for the output.">
<polygon fill="#ffffff" stroke="#000000" points="0,-84.5 0,-102.5 159.9453,-102.5 159.9453,-84.5 0,-84.5"/>
<text text-anchor="middle" x="79.9727" y="-90.5" font-family="Helvetica,sans-Serif" font-size="10.00" fill="#000000">MasterSampler::printObservable</text>
</a>
</g>
</g>
<!-- Node27&#45;&gt;Node29 -->
<g id="edge2" class="edge">
<title>Node27&#45;&gt;Node29</title>
<path fill="none" stroke="#191970" d="M185.6871,-80.8817C175.8022,-82.0616 165.6053,-83.2787 155.6242,-84.4701"/>
<polygon fill="#191970" stroke="#191970" points="186.3386,-84.3289 195.8532,-79.6683 185.5089,-77.3782 186.3386,-84.3289"/>
</g>
<!-- Node30 -->
<g id="node4" class="node">
<title>Node30</title>
<g id="a_node4"><a xlink:href="class_master_sampler_topc_x_y_z.html#ab2312c9e9dc1e9deeb5bce36784372ac" target="_top" xlink:title="Correlator::printObservable prints the observable for the output.">
<polygon fill="#ffffff" stroke="#000000" points="17.7881,-37.5 17.7881,-65.5 142.1572,-65.5 142.1572,-37.5 17.7881,-37.5"/>
<text text-anchor="start" x="25.7881" y="-53.5" font-family="Helvetica,sans-Serif" font-size="10.00" fill="#000000">MasterSamplerTopcXYZ</text>
<text text-anchor="middle" x="79.9727" y="-43.5" font-family="Helvetica,sans-Serif" font-size="10.00" fill="#000000">::printObservable</text>
</a>
</g>
</g>
<!-- Node27&#45;&gt;Node30 -->
<g id="edge3" class="edge">
<title>Node27&#45;&gt;Node30</title>
<path fill="none" stroke="#191970" d="M185.6031,-64.1082C171.3382,-62.4056 156.427,-60.6257 142.4547,-58.958"/>
<polygon fill="#191970" stroke="#191970" points="185.5089,-67.6218 195.8532,-65.3317 186.3386,-60.6711 185.5089,-67.6218"/>
</g>
<!-- Node31 -->
<g id="node5" class="node">
<title>Node31</title>
<g id="a_node5"><a xlink:href="class_super_sampler.html#adf92b9281ee9a782e6c00424dd23451d" target="_top" xlink:title="Correlator::printObservable prints the observable for the output.">
<polygon fill="#ffffff" stroke="#000000" points="1.9385,-.5 1.9385,-18.5 158.0068,-18.5 158.0068,-.5 1.9385,-.5"/>
<text text-anchor="middle" x="79.9727" y="-6.5" font-family="Helvetica,sans-Serif" font-size="10.00" fill="#000000">SuperSampler::printObservable</text>
</a>
</g>
</g>
<!-- Node27&#45;&gt;Node31 -->
<g id="edge4" class="edge">
<title>Node27&#45;&gt;Node31</title>
<path fill="none" stroke="#191970" d="M219.4343,-53.7214C201.7985,-45.1773 180.1235,-35.4472 159.9453,-28.5 148.7459,-24.6441 136.4021,-21.2913 124.8331,-18.5206"/>
<polygon fill="#191970" stroke="#191970" points="218.2634,-57.046 228.7813,-58.321 221.3542,-50.7653 218.2634,-57.046"/>
</g>
</g>
</svg>
