<?xml version="1.0" encoding="UTF-8" standalone="no"?>
<!DOCTYPE svg PUBLIC "-//W3C//DTD SVG 1.1//EN"
 "http://www.w3.org/Graphics/SVG/1.1/DTD/svg11.dtd">
<!-- Generated by graphviz version 2.40.1 (20161225.0304)
 -->
<!-- Title: nlohmann::basic_json::operator[] Pages: 1 -->
<svg width="269pt" height="131pt"
 viewBox="0.00 0.00 269.46 131.00" xmlns="http://www.w3.org/2000/svg" xmlns:xlink="http://www.w3.org/1999/xlink">
<g id="graph0" class="graph" transform="scale(1 1) rotate(0) translate(4 127)">
<title>nlohmann::basic_json::operator[]</title>
<polygon fill="#ffffff" stroke="transparent" points="-4,4 -4,-127 265.457,-127 265.457,4 -4,4"/>
<!-- Node372 -->
<g id="node1" class="node">
<title>Node372</title>
<g id="a_node1"><a xlink:title="access specified object element">
<polygon fill="#bfbfbf" stroke="#000000" points="0,-47.5 0,-75.5 112.7285,-75.5 112.7285,-47.5 0,-47.5"/>
<text text-anchor="start" x="8" y="-63.5" font-family="Helvetica,sans-Serif" font-size="10.00" fill="#000000">nlohmann::basic_json</text>
<text text-anchor="middle" x="56.3643" y="-53.5" font-family="Helvetica,sans-Serif" font-size="10.00" fill="#000000">::operator[]</text>
</a>
</g>
</g>
<!-- Node373 -->
<g id="node2" class="node">
<title>Node373</title>
<g id="a_node2"><a xlink:href="classnlohmann_1_1basic__json.html#a8faa039ca82427ed29c486ffd00600c3" target="_top" xlink:title="return whether value is null">
<polygon fill="#ffffff" stroke="#000000" points="148.7285,-94.5 148.7285,-122.5 261.457,-122.5 261.457,-94.5 148.7285,-94.5"/>
<text text-anchor="start" x="156.7285" y="-110.5" font-family="Helvetica,sans-Serif" font-size="10.00" fill="#000000">nlohmann::basic_json</text>
<text text-anchor="middle" x="205.0928" y="-100.5" font-family="Helvetica,sans-Serif" font-size="10.00" fill="#000000">::is_null</text>
</a>
</g>
</g>
<!-- Node372&#45;&gt;Node373 -->
<g id="edge1" class="edge">
<title>Node372&#45;&gt;Node373</title>
<path fill="none" stroke="#191970" d="M100.9877,-75.6015C116.6473,-80.5502 134.4135,-86.1645 150.7795,-91.3363"/>
<polygon fill="#191970" stroke="#191970" points="150.1674,-94.8135 160.7573,-94.4894 152.2767,-88.1388 150.1674,-94.8135"/>
</g>
<!-- Node374 -->
<g id="node3" class="node">
<title>Node374</title>
<g id="a_node3"><a xlink:href="classnlohmann_1_1basic__json.html#af8f511af124e82e4579f444b4175787c" target="_top" xlink:title="return whether value is an object">
<polygon fill="#ffffff" stroke="#000000" points="148.7285,-47.5 148.7285,-75.5 261.457,-75.5 261.457,-47.5 148.7285,-47.5"/>
<text text-anchor="start" x="156.7285" y="-63.5" font-family="Helvetica,sans-Serif" font-size="10.00" fill="#000000">nlohmann::basic_json</text>
<text text-anchor="middle" x="205.0928" y="-53.5" font-family="Helvetica,sans-Serif" font-size="10.00" fill="#000000">::is_object</text>
</a>
</g>
</g>
<!-- Node372&#45;&gt;Node374 -->
<g id="edge2" class="edge">
<title>Node372&#45;&gt;Node374</title>
<path fill="none" stroke="#191970" d="M113.0164,-61.5C121.3038,-61.5 129.9027,-61.5 138.3682,-61.5"/>
<polygon fill="#191970" stroke="#191970" points="138.5982,-65.0001 148.5981,-61.5 138.5981,-58.0001 138.5982,-65.0001"/>
</g>
<!-- Node375 -->
<g id="node4" class="node">
<title>Node375</title>
<g id="a_node4"><a xlink:href="classnlohmann_1_1basic__json.html#a6b75862bdb4d26650616cf9821430755" target="_top" xlink:title="return the type as string">
<polygon fill="#ffffff" stroke="#000000" points="148.7285,-.5 148.7285,-28.5 261.457,-28.5 261.457,-.5 148.7285,-.5"/>
<text text-anchor="start" x="156.7285" y="-16.5" font-family="Helvetica,sans-Serif" font-size="10.00" fill="#000000">nlohmann::basic_json</text>
<text text-anchor="middle" x="205.0928" y="-6.5" font-family="Helvetica,sans-Serif" font-size="10.00" fill="#000000">::type_name</text>
</a>
</g>
</g>
<!-- Node372&#45;&gt;Node375 -->
<g id="edge3" class="edge">
<title>Node372&#45;&gt;Node375</title>
<path fill="none" stroke="#191970" d="M100.9877,-47.3985C116.6473,-42.4498 134.4135,-36.8355 150.7795,-31.6637"/>
<polygon fill="#191970" stroke="#191970" points="152.2767,-34.8612 160.7573,-28.5106 150.1674,-28.1865 152.2767,-34.8612"/>
</g>
</g>
</svg>
