<?xml version="1.0" encoding="UTF-8" standalone="no"?>
<!DOCTYPE svg PUBLIC "-//W3C//DTD SVG 1.1//EN"
 "http://www.w3.org/Graphics/SVG/1.1/DTD/svg11.dtd">
<!-- Generated by graphviz version 2.40.1 (20161225.0304)
 -->
<!-- Title: ObservableStorer::getObservableArray Pages: 1 -->
<svg width="393pt" height="84pt"
 viewBox="0.00 0.00 392.81 84.00" xmlns="http://www.w3.org/2000/svg" xmlns:xlink="http://www.w3.org/1999/xlink">
<g id="graph0" class="graph" transform="scale(1 1) rotate(0) translate(4 80)">
<title>ObservableStorer::getObservableArray</title>
<polygon fill="#ffffff" stroke="transparent" points="-4,4 -4,-80 388.8066,-80 388.8066,4 -4,4"/>
<!-- Node25 -->
<g id="node1" class="node">
<title>Node25</title>
<g id="a_node1"><a xlink:title=" ">
<polygon fill="#bfbfbf" stroke="#000000" points="219.8418,-23.5 219.8418,-51.5 384.8066,-51.5 384.8066,-23.5 219.8418,-23.5"/>
<text text-anchor="start" x="227.8418" y="-39.5" font-family="Helvetica,sans-Serif" font-size="10.00" fill="#000000">ObservableStorer::getObservable</text>
<text text-anchor="middle" x="302.3242" y="-29.5" font-family="Helvetica,sans-Serif" font-size="10.00" fill="#000000">Array</text>
</a>
</g>
</g>
<!-- Node26 -->
<g id="node2" class="node">
<title>Node26</title>
<g id="a_node2"><a xlink:href="class_master_sampler_topc_x_y_z.html#a4fba4290e4406e18ef3f2904c6ae364f" target="_top" xlink:title="Correlator::writeFlowObservablesToFile.">
<polygon fill="#ffffff" stroke="#000000" points="18.623,-47.5 18.623,-75.5 165.2188,-75.5 165.2188,-47.5 18.623,-47.5"/>
<text text-anchor="start" x="26.623" y="-63.5" font-family="Helvetica,sans-Serif" font-size="10.00" fill="#000000">MasterSamplerTopcXYZ</text>
<text text-anchor="middle" x="91.9209" y="-53.5" font-family="Helvetica,sans-Serif" font-size="10.00" fill="#000000">::writeFlowObservablesToFile</text>
</a>
</g>
</g>
<!-- Node25&#45;&gt;Node26 -->
<g id="edge1" class="edge">
<title>Node25&#45;&gt;Node26</title>
<path fill="none" stroke="#191970" d="M209.5858,-48.0784C194.7753,-49.7677 179.6306,-51.4952 165.3482,-53.1244"/>
<polygon fill="#191970" stroke="#191970" points="210.2323,-51.5274 219.7711,-46.9166 209.4389,-44.5725 210.2323,-51.5274"/>
</g>
<!-- Node27 -->
<g id="node3" class="node">
<title>Node27</title>
<g id="a_node3"><a xlink:href="class_super_sampler.html#a410b650ebccdb03519c88908a3a8013e" target="_top" xlink:title="Correlator::writeFlowObservablesToFile.">
<polygon fill="#ffffff" stroke="#000000" points="0,-.5 0,-28.5 183.8418,-28.5 183.8418,-.5 0,-.5"/>
<text text-anchor="start" x="8" y="-16.5" font-family="Helvetica,sans-Serif" font-size="10.00" fill="#000000">SuperSampler::writeFlowObservables</text>
<text text-anchor="middle" x="91.9209" y="-6.5" font-family="Helvetica,sans-Serif" font-size="10.00" fill="#000000">ToFile</text>
</a>
</g>
</g>
<!-- Node25&#45;&gt;Node27 -->
<g id="edge2" class="edge">
<title>Node25&#45;&gt;Node27</title>
<path fill="none" stroke="#191970" d="M209.783,-27.384C201.2183,-26.4477 192.54,-25.4991 183.9797,-24.5633"/>
<polygon fill="#191970" stroke="#191970" points="209.45,-30.8683 219.7711,-28.4758 210.2107,-23.9098 209.45,-30.8683"/>
</g>
</g>
</svg>
