<?xml version="1.0" encoding="UTF-8" standalone="no"?>
<!DOCTYPE svg PUBLIC "-//W3C//DTD SVG 1.1//EN"
 "http://www.w3.org/Graphics/SVG/1.1/DTD/svg11.dtd">
<!-- Generated by graphviz version 2.40.1 (20161225.0304)
 -->
<!-- Title: Parallel::Communicator::getNeighboursNeighbourLink Pages: 1 -->
<svg width="318pt" height="74pt"
 viewBox="0.00 0.00 318.38 74.00" xmlns="http://www.w3.org/2000/svg" xmlns:xlink="http://www.w3.org/1999/xlink">
<g id="graph0" class="graph" transform="scale(1 1) rotate(0) translate(4 70)">
<title>Parallel::Communicator::getNeighboursNeighbourLink</title>
<polygon fill="#ffffff" stroke="transparent" points="-4,4 -4,-70 314.3779,-70 314.3779,4 -4,4"/>
<!-- Node37 -->
<g id="node1" class="node">
<title>Node37</title>
<g id="a_node1"><a xlink:title="Parallel::Communicator::getNeighboursNeighbourLink fetches a neighbours neighbor link.">
<polygon fill="#bfbfbf" stroke="#000000" points="0,-21.5 0,-49.5 151.0879,-49.5 151.0879,-21.5 0,-21.5"/>
<text text-anchor="start" x="8" y="-37.5" font-family="Helvetica,sans-Serif" font-size="10.00" fill="#000000">Parallel::Communicator</text>
<text text-anchor="middle" x="75.5439" y="-27.5" font-family="Helvetica,sans-Serif" font-size="10.00" fill="#000000">::getNeighboursNeighbourLink</text>
</a>
</g>
</g>
<!-- Node38 -->
<g id="node2" class="node">
<title>Node38</title>
<g id="a_node2"><a xlink:href="class_parallel_1_1_index.html#af31faeef1369fdc0997d1910e008bfe2" target="_top" xlink:title=" ">
<polygon fill="#ffffff" stroke="#000000" points="187.0879,-47.5 187.0879,-65.5 310.3779,-65.5 310.3779,-47.5 187.0879,-47.5"/>
<text text-anchor="middle" x="248.7329" y="-53.5" font-family="Helvetica,sans-Serif" font-size="10.00" fill="#000000">Parallel::Index::getIndex</text>
</a>
</g>
</g>
<!-- Node37&#45;&gt;Node38 -->
<g id="edge1" class="edge">
<title>Node37&#45;&gt;Node38</title>
<path fill="none" stroke="#191970" d="M151.2552,-44.6804C159.7322,-45.7082 168.3506,-46.7533 176.7784,-47.7752"/>
<polygon fill="#191970" stroke="#191970" points="176.5931,-51.2782 186.9417,-49.0075 177.4357,-44.3291 176.5931,-51.2782"/>
</g>
<!-- Node39 -->
<g id="node3" class="node">
<title>Node39</title>
<g id="a_node3"><a xlink:href="class_parallel_1_1_neighbours.html#aa3e776b78a708f2c4ce9f287b81f263e" target="_top" xlink:title="Parallel::Neighbours::getNeighbours returns a reference to the neighbour list of given process rank.">
<polygon fill="#ffffff" stroke="#000000" points="195.7085,-.5 195.7085,-28.5 301.7573,-28.5 301.7573,-.5 195.7085,-.5"/>
<text text-anchor="start" x="203.7085" y="-16.5" font-family="Helvetica,sans-Serif" font-size="10.00" fill="#000000">Parallel::Neighbours</text>
<text text-anchor="middle" x="248.7329" y="-6.5" font-family="Helvetica,sans-Serif" font-size="10.00" fill="#000000">::getNeighbours</text>
</a>
</g>
</g>
<!-- Node37&#45;&gt;Node39 -->
<g id="edge2" class="edge">
<title>Node37&#45;&gt;Node39</title>
<path fill="none" stroke="#191970" d="M151.2552,-26.3196C162.684,-24.9339 174.3697,-23.5169 185.499,-22.1674"/>
<polygon fill="#191970" stroke="#191970" points="186.0341,-25.6283 195.54,-20.9499 185.1914,-18.6792 186.0341,-25.6283"/>
</g>
</g>
</svg>
