<?xml version="1.0" encoding="UTF-8" standalone="no"?>
<!DOCTYPE svg PUBLIC "-//W3C//DTD SVG 1.1//EN"
 "http://www.w3.org/Graphics/SVG/1.1/DTD/svg11.dtd">
<!-- Generated by graphviz version 2.40.1 (20161225.0304)
 -->
<!-- Title: Parameters::getNCor Pages: 1 -->
<svg width="696pt" height="225pt"
 viewBox="0.00 0.00 696.30 225.00" xmlns="http://www.w3.org/2000/svg" xmlns:xlink="http://www.w3.org/1999/xlink">
<g id="graph0" class="graph" transform="scale(1 1) rotate(0) translate(4 221)">
<title>Parameters::getNCor</title>
<polygon fill="#ffffff" stroke="transparent" points="-4,4 -4,-221 692.2988,-221 692.2988,4 -4,4"/>
<!-- Node182 -->
<g id="node1" class="node">
<title>Node182</title>
<g id="a_node1"><a xlink:title=" ">
<polygon fill="#bfbfbf" stroke="#000000" points="577.8213,-80.5 577.8213,-98.5 688.2988,-98.5 688.2988,-80.5 577.8213,-80.5"/>
<text text-anchor="middle" x="633.0601" y="-86.5" font-family="Helvetica,sans-Serif" font-size="10.00" fill="#000000">Parameters::getNCor</text>
</a>
</g>
</g>
<!-- Node183 -->
<g id="node2" class="node">
<title>Node183</title>
<g id="a_node2"><a xlink:href="namespace_i_o.html#ad8cf5aef8f60d10b80292b69a091d5ac" target="_top" xlink:title=" ">
<polygon fill="#ffffff" stroke="#000000" points="405.7822,-99.5 405.7822,-117.5 541.8213,-117.5 541.8213,-99.5 405.7822,-99.5"/>
<text text-anchor="middle" x="473.8018" y="-105.5" font-family="Helvetica,sans-Serif" font-size="10.00" fill="#000000">IO::writeObservablesToFile</text>
</a>
</g>
</g>
<!-- Node182&#45;&gt;Node183 -->
<g id="edge1" class="edge">
<title>Node182&#45;&gt;Node183</title>
<path fill="none" stroke="#191970" d="M567.8718,-97.2772C559.2975,-98.3001 550.492,-99.3506 541.8713,-100.3791"/>
<polygon fill="#191970" stroke="#191970" points="568.2913,-100.752 577.8062,-96.092 567.462,-93.8013 568.2913,-100.752"/>
</g>
<!-- Node190 -->
<g id="node9" class="node">
<title>Node190</title>
<g id="a_node9"><a xlink:href="class_system.html#ae317936c9bcf1374d61745572e0f2f8a" target="_top" xlink:title=" ">
<polygon fill="#ffffff" stroke="#000000" points="429.6836,-62.5 429.6836,-80.5 517.9199,-80.5 517.9199,-62.5 429.6836,-62.5"/>
<text text-anchor="middle" x="473.8018" y="-68.5" font-family="Helvetica,sans-Serif" font-size="10.00" fill="#000000">System::System</text>
</a>
</g>
</g>
<!-- Node182&#45;&gt;Node190 -->
<g id="edge8" class="edge">
<title>Node182&#45;&gt;Node190</title>
<path fill="none" stroke="#191970" d="M567.5422,-82.0949C550.8359,-80.2067 533.2736,-78.2217 517.9245,-76.4869"/>
<polygon fill="#191970" stroke="#191970" points="567.4763,-85.6097 577.8062,-83.255 568.2626,-78.654 567.4763,-85.6097"/>
</g>
<!-- Node184 -->
<g id="node3" class="node">
<title>Node184</title>
<g id="a_node3"><a xlink:href="class_observable_storer.html#a146f9acb8a0a2ce15782d26bdc4f0bf9" target="_top" xlink:title=" ">
<polygon fill="#ffffff" stroke="#000000" points="197.6055,-94.5 197.6055,-122.5 369.7822,-122.5 369.7822,-94.5 197.6055,-94.5"/>
<text text-anchor="start" x="205.6055" y="-110.5" font-family="Helvetica,sans-Serif" font-size="10.00" fill="#000000">ObservableStorer::writeObservable</text>
<text text-anchor="middle" x="283.6938" y="-100.5" font-family="Helvetica,sans-Serif" font-size="10.00" fill="#000000">ToFile</text>
</a>
</g>
</g>
<!-- Node183&#45;&gt;Node184 -->
<g id="edge2" class="edge">
<title>Node183&#45;&gt;Node184</title>
<path fill="none" stroke="#191970" d="M395.5067,-108.5C387.0561,-108.5 378.423,-108.5 369.886,-108.5"/>
<polygon fill="#191970" stroke="#191970" points="395.7054,-112.0001 405.7054,-108.5 395.7054,-105.0001 395.7054,-112.0001"/>
</g>
<!-- Node185 -->
<g id="node4" class="node">
<title>Node185</title>
<g id="a_node4"><a xlink:href="class_correlator.html#a9e8d80e30e4fbe3b7fe57521538cb5ff" target="_top" xlink:title=" ">
<polygon fill="#ffffff" stroke="#000000" points="11.6699,-188.5 11.6699,-216.5 149.9355,-216.5 149.9355,-188.5 11.6699,-188.5"/>
<text text-anchor="start" x="19.6699" y="-204.5" font-family="Helvetica,sans-Serif" font-size="10.00" fill="#000000">Correlator::writeObservable</text>
<text text-anchor="middle" x="80.8027" y="-194.5" font-family="Helvetica,sans-Serif" font-size="10.00" fill="#000000">ToFile</text>
</a>
</g>
</g>
<!-- Node184&#45;&gt;Node185 -->
<g id="edge3" class="edge">
<title>Node184&#45;&gt;Node185</title>
<path fill="none" stroke="#191970" d="M254.2777,-128.4213C230.2015,-144.0229 194.8195,-165.378 161.6055,-179.5 153.8204,-182.8101 145.4152,-185.8009 137.0706,-188.4472"/>
<polygon fill="#191970" stroke="#191970" points="256.4812,-131.1618 262.9235,-122.7506 252.642,-125.3085 256.4812,-131.1618"/>
</g>
<!-- Node186 -->
<g id="node5" class="node">
<title>Node186</title>
<g id="a_node5"><a xlink:href="class_lattice_action_charge_density.html#a719f71aaccbf1b4147ea944781d69908" target="_top" xlink:title=" ">
<polygon fill="#ffffff" stroke="#000000" points="11.1035,-141.5 11.1035,-169.5 150.502,-169.5 150.502,-141.5 11.1035,-141.5"/>
<text text-anchor="start" x="19.1035" y="-157.5" font-family="Helvetica,sans-Serif" font-size="10.00" fill="#000000">LatticeActionChargeDensity</text>
<text text-anchor="middle" x="80.8027" y="-147.5" font-family="Helvetica,sans-Serif" font-size="10.00" fill="#000000">::writeObservableToFile</text>
</a>
</g>
</g>
<!-- Node184&#45;&gt;Node186 -->
<g id="edge4" class="edge">
<title>Node184&#45;&gt;Node186</title>
<path fill="none" stroke="#191970" d="M213.2356,-124.8217C189.8453,-130.2402 164.0237,-136.2218 141.44,-141.4533"/>
<polygon fill="#191970" stroke="#191970" points="214.1425,-128.2044 223.0946,-122.5379 212.5627,-121.385 214.1425,-128.2044"/>
</g>
<!-- Node187 -->
<g id="node6" class="node">
<title>Node187</title>
<g id="a_node6"><a xlink:href="class_master_sampler.html#a638714c38e1a6252ab8b6be1fa224bd4" target="_top" xlink:title=" ">
<polygon fill="#ffffff" stroke="#000000" points="0,-94.5 0,-122.5 161.6055,-122.5 161.6055,-94.5 0,-94.5"/>
<text text-anchor="start" x="8" y="-110.5" font-family="Helvetica,sans-Serif" font-size="10.00" fill="#000000">MasterSampler::writeObservable</text>
<text text-anchor="middle" x="80.8027" y="-100.5" font-family="Helvetica,sans-Serif" font-size="10.00" fill="#000000">ToFile</text>
</a>
</g>
</g>
<!-- Node184&#45;&gt;Node187 -->
<g id="edge5" class="edge">
<title>Node184&#45;&gt;Node187</title>
<path fill="none" stroke="#191970" d="M187.107,-108.5C178.6739,-108.5 170.196,-108.5 161.907,-108.5"/>
<polygon fill="#191970" stroke="#191970" points="187.3556,-112.0001 197.3556,-108.5 187.3555,-105.0001 187.3556,-112.0001"/>
</g>
<!-- Node188 -->
<g id="node7" class="node">
<title>Node188</title>
<g id="a_node7"><a xlink:href="class_master_sampler_topc_x_y_z.html#a930f13a2a13f4b3820f40c8b52110cf2" target="_top" xlink:title=" ">
<polygon fill="#ffffff" stroke="#000000" points="18.6182,-47.5 18.6182,-75.5 142.9873,-75.5 142.9873,-47.5 18.6182,-47.5"/>
<text text-anchor="start" x="26.6182" y="-63.5" font-family="Helvetica,sans-Serif" font-size="10.00" fill="#000000">MasterSamplerTopcXYZ</text>
<text text-anchor="middle" x="80.8027" y="-53.5" font-family="Helvetica,sans-Serif" font-size="10.00" fill="#000000">::writeObservableToFile</text>
</a>
</g>
</g>
<!-- Node184&#45;&gt;Node188 -->
<g id="edge6" class="edge">
<title>Node184&#45;&gt;Node188</title>
<path fill="none" stroke="#191970" d="M213.2356,-92.1783C189.8453,-86.7598 164.0237,-80.7782 141.44,-75.5467"/>
<polygon fill="#191970" stroke="#191970" points="212.5627,-95.615 223.0946,-94.4621 214.1425,-88.7956 212.5627,-95.615"/>
</g>
<!-- Node189 -->
<g id="node8" class="node">
<title>Node189</title>
<g id="a_node8"><a xlink:href="class_super_sampler.html#a05b42b82879233dc329d280a61bfd7f0" target="_top" xlink:title=" ">
<polygon fill="#ffffff" stroke="#000000" points="1.9385,-.5 1.9385,-28.5 159.667,-28.5 159.667,-.5 1.9385,-.5"/>
<text text-anchor="start" x="9.9385" y="-16.5" font-family="Helvetica,sans-Serif" font-size="10.00" fill="#000000">SuperSampler::writeObservable</text>
<text text-anchor="middle" x="80.8027" y="-6.5" font-family="Helvetica,sans-Serif" font-size="10.00" fill="#000000">ToFile</text>
</a>
</g>
</g>
<!-- Node184&#45;&gt;Node189 -->
<g id="edge7" class="edge">
<title>Node184&#45;&gt;Node189</title>
<path fill="none" stroke="#191970" d="M253.7566,-88.7099C229.6434,-73.4251 194.4655,-52.5738 161.6055,-38.5 152.9961,-34.8127 143.6413,-31.469 134.4518,-28.5276"/>
<polygon fill="#191970" stroke="#191970" points="252.1211,-91.8189 262.4286,-94.2697 255.8992,-85.926 252.1211,-91.8189"/>
</g>
</g>
</svg>
