<?xml version="1.0" encoding="UTF-8" standalone="no"?>
<!DOCTYPE svg PUBLIC "-//W3C//DTD SVG 1.1//EN"
 "http://www.w3.org/Graphics/SVG/1.1/DTD/svg11.dtd">
<!-- Generated by graphviz version 2.40.1 (20161225.0304)
 -->
<!-- Title: IO::FieldIO::loadChromaFieldConfiguration Pages: 1 -->
<svg width="513pt" height="367pt"
 viewBox="0.00 0.00 512.63 367.00" xmlns="http://www.w3.org/2000/svg" xmlns:xlink="http://www.w3.org/1999/xlink">
<g id="graph0" class="graph" transform="scale(1 1) rotate(0) translate(4 363)">
<title>IO::FieldIO::loadChromaFieldConfiguration</title>
<polygon fill="#ffffff" stroke="transparent" points="-4,4 -4,-363 508.6289,-363 508.6289,4 -4,4"/>
<!-- Node8 -->
<g id="node1" class="node">
<title>Node8</title>
<g id="a_node1"><a xlink:title="IO::FieldIO::loadChromaFieldConfiguration loads a configuration from Chroma into memory.">
<polygon fill="#bfbfbf" stroke="#000000" points="0,-170.5 0,-198.5 146.0488,-198.5 146.0488,-170.5 0,-170.5"/>
<text text-anchor="start" x="8" y="-186.5" font-family="Helvetica,sans-Serif" font-size="10.00" fill="#000000">IO::FieldIO::loadChromaField</text>
<text text-anchor="middle" x="73.0244" y="-176.5" font-family="Helvetica,sans-Serif" font-size="10.00" fill="#000000">Configuration</text>
</a>
</g>
</g>
<!-- Node9 -->
<g id="node2" class="node">
<title>Node9</title>
<g id="a_node2"><a xlink:href="class_parameters.html#abace4edb8ece38841b58c5ce6168cbc4" target="_top" xlink:title=" ">
<polygon fill="#ffffff" stroke="#000000" points="201.7803,-340.5 201.7803,-358.5 325.6074,-358.5 325.6074,-340.5 201.7803,-340.5"/>
<text text-anchor="middle" x="263.6938" y="-346.5" font-family="Helvetica,sans-Serif" font-size="10.00" fill="#000000">Parameters::getFilePath</text>
</a>
</g>
</g>
<!-- Node8&#45;&gt;Node9 -->
<g id="edge1" class="edge">
<title>Node8&#45;&gt;Node9</title>
<path fill="none" stroke="#191970" d="M79.3566,-198.9022C93.2717,-228.7633 129.5141,-297.4682 182.0488,-331.5 185.22,-333.5543 188.5904,-335.3769 192.0868,-336.9937"/>
<polygon fill="#191970" stroke="#191970" points="191.0019,-340.3297 201.5858,-340.8106 193.6119,-333.8345 191.0019,-340.3297"/>
</g>
<!-- Node10 -->
<g id="node3" class="node">
<title>Node10</title>
<g id="a_node3"><a xlink:href="class_parameters.html#aa593520a8f1c3282e399feb0cf70217b" target="_top" xlink:title=" ">
<polygon fill="#ffffff" stroke="#000000" points="194.8296,-303.5 194.8296,-321.5 332.5581,-321.5 332.5581,-303.5 194.8296,-303.5"/>
<text text-anchor="middle" x="263.6938" y="-309.5" font-family="Helvetica,sans-Serif" font-size="10.00" fill="#000000">Parameters::getInputFolder</text>
</a>
</g>
</g>
<!-- Node8&#45;&gt;Node10 -->
<g id="edge2" class="edge">
<title>Node8&#45;&gt;Node10</title>
<path fill="none" stroke="#191970" d="M84.1553,-198.8387C102.2834,-221.2303 140.3719,-264.4233 182.0488,-288.5 190.4042,-293.3269 199.8105,-297.253 209.1875,-300.4237"/>
<polygon fill="#191970" stroke="#191970" points="208.3148,-303.8179 218.9036,-303.4607 210.4032,-297.1367 208.3148,-303.8179"/>
</g>
<!-- Node11 -->
<g id="node4" class="node">
<title>Node11</title>
<g id="a_node4"><a xlink:href="class_parallel_1_1_communicator.html#a57bb28ee8dbc4efd708a2695423778c4" target="_top" xlink:title="Parallel::Communicator::MPIExit exits the program. Frees MPI groups before it exits.">
<polygon fill="#ffffff" stroke="#000000" points="383.021,-153.5 383.021,-181.5 502.9468,-181.5 502.9468,-153.5 383.021,-153.5"/>
<text text-anchor="start" x="391.021" y="-169.5" font-family="Helvetica,sans-Serif" font-size="10.00" fill="#000000">Parallel::Communicator</text>
<text text-anchor="middle" x="442.9839" y="-159.5" font-family="Helvetica,sans-Serif" font-size="10.00" fill="#000000">::MPIExit</text>
</a>
</g>
</g>
<!-- Node8&#45;&gt;Node11 -->
<g id="edge3" class="edge">
<title>Node8&#45;&gt;Node11</title>
<path fill="none" stroke="#191970" d="M88.161,-198.5431C107.9688,-215.8635 144.5884,-244.3776 182.0488,-255.5 251.6204,-276.1565 277.5917,-281.5233 345.3389,-255.5 379.5671,-242.3521 409.294,-211.0438 426.6869,-189.55"/>
<polygon fill="#191970" stroke="#191970" points="429.5247,-191.6031 432.943,-181.5748 424.0171,-187.2827 429.5247,-191.6031"/>
</g>
<!-- Node12 -->
<g id="node5" class="node">
<title>Node12</title>
<g id="a_node5"><a xlink:href="class_parallel_1_1_neighbours.html#ad1a2a616b4089eded3545faf11409b85" target="_top" xlink:title=" ">
<polygon fill="#ffffff" stroke="#000000" points="182.0488,-217.5 182.0488,-245.5 345.3389,-245.5 345.3389,-217.5 182.0488,-217.5"/>
<text text-anchor="start" x="190.0488" y="-233.5" font-family="Helvetica,sans-Serif" font-size="10.00" fill="#000000">Parallel::Neighbours</text>
<text text-anchor="middle" x="263.6938" y="-223.5" font-family="Helvetica,sans-Serif" font-size="10.00" fill="#000000">::getProcessorDimensionPosition</text>
</a>
</g>
</g>
<!-- Node8&#45;&gt;Node12 -->
<g id="edge4" class="edge">
<title>Node8&#45;&gt;Node12</title>
<path fill="none" stroke="#191970" d="M129.9733,-198.5379C151.0036,-203.7219 175.0258,-209.6433 196.8534,-215.0238"/>
<polygon fill="#191970" stroke="#191970" points="196.1621,-218.4581 206.7092,-217.4533 197.8375,-211.6616 196.1621,-218.4581"/>
</g>
<!-- Node13 -->
<g id="node6" class="node">
<title>Node13</title>
<g id="a_node6"><a xlink:href="class_parallel_1_1_index.html#aaa2650024b4e91dc86d2bdc568c8f57d" target="_top" xlink:title=" ">
<polygon fill="#ffffff" stroke="#000000" points="199.8271,-170.5 199.8271,-198.5 327.5605,-198.5 327.5605,-170.5 199.8271,-170.5"/>
<text text-anchor="start" x="207.8271" y="-186.5" font-family="Helvetica,sans-Serif" font-size="10.00" fill="#000000">Parallel::Index::getGlobal</text>
<text text-anchor="middle" x="263.6938" y="-176.5" font-family="Helvetica,sans-Serif" font-size="10.00" fill="#000000">Index</text>
</a>
</g>
</g>
<!-- Node8&#45;&gt;Node13 -->
<g id="edge5" class="edge">
<title>Node8&#45;&gt;Node13</title>
<path fill="none" stroke="#191970" d="M146.1969,-184.5C160.3942,-184.5 175.2856,-184.5 189.5149,-184.5"/>
<polygon fill="#191970" stroke="#191970" points="189.7397,-188.0001 199.7396,-184.5 189.7396,-181.0001 189.7397,-188.0001"/>
</g>
<!-- Node14 -->
<g id="node7" class="node">
<title>Node14</title>
<g id="a_node7"><a xlink:href="class_parallel_1_1_index.html#af31faeef1369fdc0997d1910e008bfe2" target="_top" xlink:title=" ">
<polygon fill="#ffffff" stroke="#000000" points="381.3389,-97.5 381.3389,-115.5 504.6289,-115.5 504.6289,-97.5 381.3389,-97.5"/>
<text text-anchor="middle" x="442.9839" y="-103.5" font-family="Helvetica,sans-Serif" font-size="10.00" fill="#000000">Parallel::Index::getIndex</text>
</a>
</g>
</g>
<!-- Node8&#45;&gt;Node14 -->
<g id="edge6" class="edge">
<title>Node8&#45;&gt;Node14</title>
<path fill="none" stroke="#191970" d="M81.9499,-170.1165C98.2493,-145.3954 135.482,-95.66 182.0488,-76.5 260.3604,-44.2786 362.3661,-74.5917 412.4802,-93.6682"/>
<polygon fill="#191970" stroke="#191970" points="411.4865,-97.0379 422.0742,-97.4268 414.04,-90.5202 411.4865,-97.0379"/>
</g>
<!-- Node15 -->
<g id="node8" class="node">
<title>Node15</title>
<g id="a_node8"><a xlink:href="class_parameters.html#a265e274127b6d845e43c66d94463f051" target="_top" xlink:title=" ">
<polygon fill="#ffffff" stroke="#000000" points="205.3887,-86.5 205.3887,-104.5 321.999,-104.5 321.999,-86.5 205.3887,-86.5"/>
<text text-anchor="middle" x="263.6938" y="-92.5" font-family="Helvetica,sans-Serif" font-size="10.00" fill="#000000">Parameters::getDebug</text>
</a>
</g>
</g>
<!-- Node8&#45;&gt;Node15 -->
<g id="edge7" class="edge">
<title>Node8&#45;&gt;Node15</title>
<path fill="none" stroke="#191970" d="M90.8469,-170.3015C111.5933,-154.4528 147.4458,-129.118 182.0488,-114.5 188.6848,-111.6966 195.8071,-109.267 202.9795,-107.1714"/>
<polygon fill="#191970" stroke="#191970" points="204.0175,-110.5163 212.7501,-104.5171 202.1823,-103.7612 204.0175,-110.5163"/>
</g>
<!-- Node16 -->
<g id="node9" class="node">
<title>Node16</title>
<g id="a_node9"><a xlink:href="class_parallel_1_1_communicator.html#a9471bf9448f34a0b4575310a3c54af61" target="_top" xlink:title="Parallel::Communicator::checkLattice checks if the lattice containts invalid numbers/nan.">
<polygon fill="#ffffff" stroke="#000000" points="203.731,-123.5 203.731,-151.5 323.6567,-151.5 323.6567,-123.5 203.731,-123.5"/>
<text text-anchor="start" x="211.731" y="-139.5" font-family="Helvetica,sans-Serif" font-size="10.00" fill="#000000">Parallel::Communicator</text>
<text text-anchor="middle" x="263.6938" y="-129.5" font-family="Helvetica,sans-Serif" font-size="10.00" fill="#000000">::checkLattice</text>
</a>
</g>
</g>
<!-- Node8&#45;&gt;Node16 -->
<g id="edge8" class="edge">
<title>Node8&#45;&gt;Node16</title>
<path fill="none" stroke="#191970" d="M129.9733,-170.4621C151.0036,-165.2781 175.0258,-159.3567 196.8534,-153.9762"/>
<polygon fill="#191970" stroke="#191970" points="197.8375,-157.3384 206.7092,-151.5467 196.1621,-150.5419 197.8375,-157.3384"/>
</g>
<!-- Node17 -->
<g id="node10" class="node">
<title>Node17</title>
<g id="a_node10"><a xlink:href="class_parallel_1_1_communicator.html#a474ab433da0e83ef372d74e26a7e5cb0" target="_top" xlink:title=" ">
<polygon fill="#ffffff" stroke="#000000" points="203.731,-.5 203.731,-28.5 323.6567,-28.5 323.6567,-.5 203.731,-.5"/>
<text text-anchor="start" x="211.731" y="-16.5" font-family="Helvetica,sans-Serif" font-size="10.00" fill="#000000">Parallel::Communicator</text>
<text text-anchor="middle" x="263.6938" y="-6.5" font-family="Helvetica,sans-Serif" font-size="10.00" fill="#000000">::getProcessRank</text>
</a>
</g>
</g>
<!-- Node8&#45;&gt;Node17 -->
<g id="edge11" class="edge">
<title>Node8&#45;&gt;Node17</title>
<path fill="none" stroke="#191970" d="M80.3217,-170.3279C95.5043,-142.1806 133.1845,-78.8997 182.0488,-43.5 187.6961,-39.4089 193.9754,-35.8484 200.4728,-32.7607"/>
<polygon fill="#191970" stroke="#191970" points="202.3291,-35.7699 210.0999,-28.5682 199.5341,-29.352 202.3291,-35.7699"/>
</g>
<!-- Node16&#45;&gt;Node11 -->
<g id="edge10" class="edge">
<title>Node16&#45;&gt;Node11</title>
<path fill="none" stroke="#191970" d="M323.8936,-147.573C339.6474,-150.2091 356.766,-153.0735 372.9827,-155.7869"/>
<polygon fill="#191970" stroke="#191970" points="372.5025,-159.2552 382.943,-157.4536 373.6578,-152.3511 372.5025,-159.2552"/>
</g>
<!-- Node16&#45;&gt;Node14 -->
<g id="edge9" class="edge">
<title>Node16&#45;&gt;Node14</title>
<path fill="none" stroke="#191970" d="M323.8936,-127.0912C342.1763,-123.93 362.2973,-120.4511 380.7133,-117.2668"/>
<polygon fill="#191970" stroke="#191970" points="381.4891,-120.6847 390.7465,-115.5321 380.2964,-113.7871 381.4891,-120.6847"/>
</g>
</g>
</svg>
