<?xml version="1.0" encoding="UTF-8" standalone="no"?>
<!DOCTYPE svg PUBLIC "-//W3C//DTD SVG 1.1//EN"
 "http://www.w3.org/Graphics/SVG/1.1/DTD/svg11.dtd">
<!-- Generated by graphviz version 2.40.1 (20161225.0304)
 -->
<!-- Title: Plaquette::calculate Pages: 1 -->
<svg width="395pt" height="138pt"
 viewBox="0.00 0.00 395.01 138.00" xmlns="http://www.w3.org/2000/svg" xmlns:xlink="http://www.w3.org/1999/xlink">
<g id="graph0" class="graph" transform="scale(1 1) rotate(0) translate(4 134)">
<title>Plaquette::calculate</title>
<polygon fill="#ffffff" stroke="transparent" points="-4,4 -4,-134 391.0068,-134 391.0068,4 -4,4"/>
<!-- Node8 -->
<g id="node1" class="node">
<title>Node8</title>
<g id="a_node1"><a xlink:title="Correlator::calculate calculates a observable.">
<polygon fill="#bfbfbf" stroke="#000000" points="0,-74.5 0,-92.5 103.2803,-92.5 103.2803,-74.5 0,-74.5"/>
<text text-anchor="middle" x="51.6401" y="-80.5" font-family="Helvetica,sans-Serif" font-size="10.00" fill="#000000">Plaquette::calculate</text>
</a>
</g>
</g>
<!-- Node9 -->
<g id="node2" class="node">
<title>Node9</title>
<g id="a_node2"><a xlink:href="lattice_8h.html#a53bbfaed8f54ee3a1db6f8049686ccdf" target="_top" xlink:title="shift copies the lattice L and shifts it in a specified lorentzVector direction DIR.">
<polygon fill="#ffffff" stroke="#000000" points="162.437,-74.5 162.437,-92.5 196.7769,-92.5 196.7769,-74.5 162.437,-74.5"/>
<text text-anchor="middle" x="179.6069" y="-80.5" font-family="Helvetica,sans-Serif" font-size="10.00" fill="#000000">shift</text>
</a>
</g>
</g>
<!-- Node8&#45;&gt;Node9 -->
<g id="edge1" class="edge">
<title>Node8&#45;&gt;Node9</title>
<path fill="none" stroke="#191970" d="M103.3203,-83.5C120.0137,-83.5 137.8682,-83.5 152.1043,-83.5"/>
<polygon fill="#191970" stroke="#191970" points="152.2062,-87.0001 162.2062,-83.5 152.2062,-80.0001 152.2062,-87.0001"/>
</g>
<!-- Node14 -->
<g id="node7" class="node">
<title>Node14</title>
<g id="a_node7"><a xlink:href="lattice_8h.html#a491004d1505561625a8915464f3c6cab" target="_top" xlink:title=" ">
<polygon fill="#ffffff" stroke="#000000" points="165.1069,-111.5 165.1069,-129.5 194.1069,-129.5 194.1069,-111.5 165.1069,-111.5"/>
<text text-anchor="middle" x="179.6069" y="-117.5" font-family="Helvetica,sans-Serif" font-size="10.00" fill="#000000">inv</text>
</a>
</g>
</g>
<!-- Node8&#45;&gt;Node14 -->
<g id="edge6" class="edge">
<title>Node8&#45;&gt;Node14</title>
<path fill="none" stroke="#191970" d="M82.9443,-92.5512C105.1237,-98.9641 134.4645,-107.4476 154.9794,-113.3792"/>
<polygon fill="#191970" stroke="#191970" points="154.2395,-116.8086 164.8182,-116.224 156.1838,-110.0841 154.2395,-116.8086"/>
</g>
<!-- Node15 -->
<g id="node8" class="node">
<title>Node15</title>
<g id="a_node8"><a xlink:href="lattice_8h.html#a8267d6f1684a10b876409efeb6f66fe9" target="_top" xlink:title=" ">
<polygon fill="#ffffff" stroke="#000000" points="139.2803,-37.5 139.2803,-55.5 219.9336,-55.5 219.9336,-37.5 139.2803,-37.5"/>
<text text-anchor="middle" x="179.6069" y="-43.5" font-family="Helvetica,sans-Serif" font-size="10.00" fill="#000000">sumRealTrace</text>
</a>
</g>
</g>
<!-- Node8&#45;&gt;Node15 -->
<g id="edge8" class="edge">
<title>Node8&#45;&gt;Node15</title>
<path fill="none" stroke="#191970" d="M82.9443,-74.4488C99.676,-69.611 120.4831,-63.5949 138.5022,-58.3849"/>
<polygon fill="#191970" stroke="#191970" points="139.5481,-61.726 148.1824,-55.586 137.6037,-55.0014 139.5481,-61.726"/>
</g>
<!-- Node10 -->
<g id="node3" class="node">
<title>Node10</title>
<g id="a_node3"><a xlink:href="class_lattice.html#a5b4e162f06f7b4b90b4a9335ed2aabb5" target="_top" xlink:title="allocate method for allocating memory.">
<polygon fill="#ffffff" stroke="#000000" points="278.7266,-111.5 278.7266,-129.5 364.2139,-129.5 364.2139,-111.5 278.7266,-111.5"/>
<text text-anchor="middle" x="321.4702" y="-117.5" font-family="Helvetica,sans-Serif" font-size="10.00" fill="#000000">Lattice::allocate</text>
</a>
</g>
</g>
<!-- Node9&#45;&gt;Node10 -->
<g id="edge2" class="edge">
<title>Node9&#45;&gt;Node10</title>
<path fill="none" stroke="#191970" d="M197.0022,-88.0369C216.8366,-93.21 250.0233,-101.8656 277.1425,-108.9387"/>
<polygon fill="#191970" stroke="#191970" points="276.2636,-112.3265 286.8233,-111.4636 278.0303,-105.5531 276.2636,-112.3265"/>
</g>
<!-- Node11 -->
<g id="node4" class="node">
<title>Node11</title>
<g id="a_node4"><a xlink:href="class_parallel_1_1_index.html#ac406d7ceb12e986a66d64ef98fcef5d3" target="_top" xlink:title=" ">
<polygon fill="#ffffff" stroke="#000000" points="255.9336,-74.5 255.9336,-92.5 387.0068,-92.5 387.0068,-74.5 255.9336,-74.5"/>
<text text-anchor="middle" x="321.4702" y="-80.5" font-family="Helvetica,sans-Serif" font-size="10.00" fill="#000000">Parallel::Index::cubeIndex</text>
</a>
</g>
</g>
<!-- Node9&#45;&gt;Node11 -->
<g id="edge3" class="edge">
<title>Node9&#45;&gt;Node11</title>
<path fill="none" stroke="#191970" d="M197.0022,-83.5C209.4875,-83.5 227.2637,-83.5 245.4868,-83.5"/>
<polygon fill="#191970" stroke="#191970" points="245.626,-87.0001 255.626,-83.5 245.6259,-80.0001 245.626,-87.0001"/>
</g>
<!-- Node12 -->
<g id="node5" class="node">
<title>Node12</title>
<g id="a_node5"><a xlink:href="class_parallel_1_1_index.html#af31faeef1369fdc0997d1910e008bfe2" target="_top" xlink:title=" ">
<polygon fill="#ffffff" stroke="#000000" points="259.8252,-37.5 259.8252,-55.5 383.1152,-55.5 383.1152,-37.5 259.8252,-37.5"/>
<text text-anchor="middle" x="321.4702" y="-43.5" font-family="Helvetica,sans-Serif" font-size="10.00" fill="#000000">Parallel::Index::getIndex</text>
</a>
</g>
</g>
<!-- Node9&#45;&gt;Node12 -->
<g id="edge4" class="edge">
<title>Node9&#45;&gt;Node12</title>
<path fill="none" stroke="#191970" d="M197.0022,-78.9631C216.8366,-73.79 250.0233,-65.1344 277.1425,-58.0613"/>
<polygon fill="#191970" stroke="#191970" points="278.0303,-61.4469 286.8233,-55.5364 276.2636,-54.6735 278.0303,-61.4469"/>
</g>
<!-- Node13 -->
<g id="node6" class="node">
<title>Node13</title>
<g id="a_node6"><a xlink:href="class_parallel_1_1_neighbours.html#a84653f3e22436280ac5a4689a24e7146" target="_top" xlink:title=" ">
<polygon fill="#ffffff" stroke="#000000" points="258.7168,-.5 258.7168,-18.5 384.2236,-18.5 384.2236,-.5 258.7168,-.5"/>
<text text-anchor="middle" x="321.4702" y="-6.5" font-family="Helvetica,sans-Serif" font-size="10.00" fill="#000000">Parallel::Neighbours::get</text>
</a>
</g>
</g>
<!-- Node9&#45;&gt;Node13 -->
<g id="edge5" class="edge">
<title>Node9&#45;&gt;Node13</title>
<path fill="none" stroke="#191970" d="M196.879,-77.5315C204.3308,-74.5277 212.9255,-70.4622 219.9336,-65.5 238.9204,-52.0561 235.9823,-39.4657 255.9336,-27.5 259.159,-25.5656 262.5972,-23.8338 266.1453,-22.2842"/>
<polygon fill="#191970" stroke="#191970" points="267.65,-25.4553 275.7229,-18.5939 265.1332,-18.9234 267.65,-25.4553"/>
</g>
<!-- Node14&#45;&gt;Node10 -->
<g id="edge7" class="edge">
<title>Node14&#45;&gt;Node10</title>
<path fill="none" stroke="#191970" d="M194.2545,-120.5C211.691,-120.5 241.792,-120.5 268.3373,-120.5"/>
<polygon fill="#191970" stroke="#191970" points="268.6826,-124.0001 278.6826,-120.5 268.6826,-117.0001 268.6826,-124.0001"/>
</g>
</g>
</svg>
