<?xml version="1.0" encoding="UTF-8" standalone="no"?>
<!DOCTYPE svg PUBLIC "-//W3C//DTD SVG 1.1//EN"
 "http://www.w3.org/Graphics/SVG/1.1/DTD/svg11.dtd">
<!-- Generated by graphviz version 2.40.1 (20161225.0304)
 -->
<!-- Title: Parameters::getFlowEpsilon Pages: 1 -->
<svg width="743pt" height="339pt"
 viewBox="0.00 0.00 742.99 339.00" xmlns="http://www.w3.org/2000/svg" xmlns:xlink="http://www.w3.org/1999/xlink">
<g id="graph0" class="graph" transform="scale(1 1) rotate(0) translate(4 335)">
<title>Parameters::getFlowEpsilon</title>
<polygon fill="#ffffff" stroke="transparent" points="-4,4 -4,-335 738.9932,-335 738.9932,4 -4,4"/>
<!-- Node98 -->
<g id="node1" class="node">
<title>Node98</title>
<g id="a_node1"><a xlink:title=" ">
<polygon fill="#bfbfbf" stroke="#000000" points="593.9395,-126.5 593.9395,-144.5 734.9932,-144.5 734.9932,-126.5 593.9395,-126.5"/>
<text text-anchor="middle" x="664.4663" y="-132.5" font-family="Helvetica,sans-Serif" font-size="10.00" fill="#000000">Parameters::getFlowEpsilon</text>
</a>
</g>
</g>
<!-- Node99 -->
<g id="node2" class="node">
<title>Node99</title>
<g id="a_node2"><a xlink:href="class_flow.html#a25ae85599c0ae330374f0840efde7ebc" target="_top" xlink:title="Flow::Flow.">
<polygon fill="#ffffff" stroke="#000000" points="446.0752,-244.5 446.0752,-262.5 509.8584,-262.5 509.8584,-244.5 446.0752,-244.5"/>
<text text-anchor="middle" x="477.9668" y="-250.5" font-family="Helvetica,sans-Serif" font-size="10.00" fill="#000000">Flow::Flow</text>
</a>
</g>
</g>
<!-- Node98&#45;&gt;Node99 -->
<g id="edge1" class="edge">
<title>Node98&#45;&gt;Node99</title>
<path fill="none" stroke="#191970" d="M651.2139,-152.6891C632.8117,-175.3052 597.3094,-214.6219 557.9395,-235.5 543.2291,-243.301 525.2604,-247.7312 510.0844,-250.2422"/>
<polygon fill="#191970" stroke="#191970" points="654.1235,-154.6535 657.6073,-144.6477 648.6442,-150.2971 654.1235,-154.6535"/>
</g>
<!-- Node100 -->
<g id="node3" class="node">
<title>Node100</title>
<g id="a_node3"><a xlink:href="namespace_i_o.html#a4f554804fd2ccd9c13c73777c5cbbf77" target="_top" xlink:title="IO::writeFlowObservableToFile method for writing a flow observable to file, using ....">
<polygon fill="#ffffff" stroke="#000000" points="401.8906,-207.5 401.8906,-225.5 554.043,-225.5 554.043,-207.5 401.8906,-207.5"/>
<text text-anchor="middle" x="477.9668" y="-213.5" font-family="Helvetica,sans-Serif" font-size="10.00" fill="#000000">IO::writeFlowObservableToFile</text>
</a>
</g>
</g>
<!-- Node98&#45;&gt;Node100 -->
<g id="edge2" class="edge">
<title>Node98&#45;&gt;Node100</title>
<path fill="none" stroke="#191970" d="M641.145,-149.7342C619.9929,-162.2143 587.665,-180.2314 557.9395,-192.5 543.736,-198.3622 527.5837,-203.4845 513.5315,-207.4746"/>
<polygon fill="#191970" stroke="#191970" points="642.9637,-152.7247 649.7565,-144.594 639.3759,-146.714 642.9637,-152.7247"/>
</g>
<!-- Node107 -->
<g id="node10" class="node">
<title>Node107</title>
<g id="a_node10"><a xlink:href="namespace_i_o.html#ad77b7dd770afc8e2eb433d6187ea3616" target="_top" xlink:title="IO::writeMatrixToFile writes out a matrix of observables to file, i.e. the topological charge in Eucl...">
<polygon fill="#ffffff" stroke="#000000" points="237.3564,-166.5 237.3564,-184.5 344.4795,-184.5 344.4795,-166.5 237.3564,-166.5"/>
<text text-anchor="middle" x="290.918" y="-172.5" font-family="Helvetica,sans-Serif" font-size="10.00" fill="#000000">IO::writeMatrixToFile</text>
</a>
</g>
</g>
<!-- Node98&#45;&gt;Node107 -->
<g id="edge9" class="edge">
<title>Node98&#45;&gt;Node107</title>
<path fill="none" stroke="#191970" d="M618.9329,-146.8942C600.1584,-151.1829 578.1138,-155.6958 557.9395,-158.5 484.4394,-168.7163 398.6913,-172.802 344.6026,-174.4302"/>
<polygon fill="#191970" stroke="#191970" points="619.7648,-150.2941 628.7088,-144.6147 618.1752,-143.477 619.7648,-150.2941"/>
</g>
<!-- Node108 -->
<g id="node11" class="node">
<title>Node108</title>
<g id="a_node11"><a xlink:href="class_lattice_action_charge_density.html#abb7db718d4069faab0ed19f31aa85ad4" target="_top" xlink:title="Correlator::printObservable prints the observable for the output.">
<polygon fill="#ffffff" stroke="#000000" points="408.2676,-121.5 408.2676,-149.5 547.666,-149.5 547.666,-121.5 408.2676,-121.5"/>
<text text-anchor="start" x="416.2676" y="-137.5" font-family="Helvetica,sans-Serif" font-size="10.00" fill="#000000">LatticeActionChargeDensity</text>
<text text-anchor="middle" x="477.9668" y="-127.5" font-family="Helvetica,sans-Serif" font-size="10.00" fill="#000000">::printObservable</text>
</a>
</g>
</g>
<!-- Node98&#45;&gt;Node108 -->
<g id="edge12" class="edge">
<title>Node98&#45;&gt;Node108</title>
<path fill="none" stroke="#191970" d="M583.3592,-135.5C571.4996,-135.5 559.3734,-135.5 547.7656,-135.5"/>
<polygon fill="#191970" stroke="#191970" points="583.6929,-139.0001 593.6929,-135.5 583.6929,-132.0001 583.6929,-139.0001"/>
</g>
<!-- Node109 -->
<g id="node12" class="node">
<title>Node109</title>
<g id="a_node12"><a xlink:href="class_master_sampler.html#a41853c3e4ab52fca7d93cf80e8702b7a" target="_top" xlink:title="Correlator::printObservable prints the observable for the output.">
<polygon fill="#ffffff" stroke="#000000" points="397.9941,-84.5 397.9941,-102.5 557.9395,-102.5 557.9395,-84.5 397.9941,-84.5"/>
<text text-anchor="middle" x="477.9668" y="-90.5" font-family="Helvetica,sans-Serif" font-size="10.00" fill="#000000">MasterSampler::printObservable</text>
</a>
</g>
</g>
<!-- Node98&#45;&gt;Node109 -->
<g id="edge13" class="edge">
<title>Node98&#45;&gt;Node109</title>
<path fill="none" stroke="#191970" d="M614.327,-124.2016C596.5221,-120.19 576.3373,-115.6429 557.9395,-111.5 545.0275,-108.5924 530.9426,-105.4218 518.2411,-102.5631"/>
<polygon fill="#191970" stroke="#191970" points="613.9791,-127.7109 624.5038,-126.4946 615.5177,-120.8821 613.9791,-127.7109"/>
</g>
<!-- Node110 -->
<g id="node13" class="node">
<title>Node110</title>
<g id="a_node13"><a xlink:href="class_master_sampler_topc_x_y_z.html#ab2312c9e9dc1e9deeb5bce36784372ac" target="_top" xlink:title="Correlator::printObservable prints the observable for the output.">
<polygon fill="#ffffff" stroke="#000000" points="415.7822,-37.5 415.7822,-65.5 540.1514,-65.5 540.1514,-37.5 415.7822,-37.5"/>
<text text-anchor="start" x="423.7822" y="-53.5" font-family="Helvetica,sans-Serif" font-size="10.00" fill="#000000">MasterSamplerTopcXYZ</text>
<text text-anchor="middle" x="477.9668" y="-43.5" font-family="Helvetica,sans-Serif" font-size="10.00" fill="#000000">::printObservable</text>
</a>
</g>
</g>
<!-- Node98&#45;&gt;Node110 -->
<g id="edge14" class="edge">
<title>Node98&#45;&gt;Node110</title>
<path fill="none" stroke="#191970" d="M642.3885,-120.7561C621.3886,-107.2485 588.5462,-87.4419 557.9395,-74.5 550.0888,-71.1804 541.6089,-68.1692 533.207,-65.5007"/>
<polygon fill="#191970" stroke="#191970" points="640.5991,-123.7675 650.8878,-126.2962 644.4217,-117.9034 640.5991,-123.7675"/>
</g>
<!-- Node111 -->
<g id="node14" class="node">
<title>Node111</title>
<g id="a_node14"><a xlink:href="class_super_sampler.html#adf92b9281ee9a782e6c00424dd23451d" target="_top" xlink:title="Correlator::printObservable prints the observable for the output.">
<polygon fill="#ffffff" stroke="#000000" points="399.9326,-.5 399.9326,-18.5 556.001,-18.5 556.001,-.5 399.9326,-.5"/>
<text text-anchor="middle" x="477.9668" y="-6.5" font-family="Helvetica,sans-Serif" font-size="10.00" fill="#000000">SuperSampler::printObservable</text>
</a>
</g>
</g>
<!-- Node98&#45;&gt;Node111 -->
<g id="edge15" class="edge">
<title>Node98&#45;&gt;Node111</title>
<path fill="none" stroke="#191970" d="M652.3083,-117.9629C634.5083,-93.6922 598.978,-50.2846 557.9395,-27.5 551.345,-23.8387 544.0532,-20.922 536.6356,-18.5983"/>
<polygon fill="#191970" stroke="#191970" points="649.57,-120.1507 658.2367,-126.245 655.2621,-116.0763 649.57,-120.1507"/>
</g>
<!-- Node101 -->
<g id="node4" class="node">
<title>Node101</title>
<g id="a_node4"><a xlink:href="class_observable_storer.html#af51ebd65eae2a5087cfd47ddf230da93" target="_top" xlink:title="ObservableStorer::writeFlowObservableToFile.">
<polygon fill="#ffffff" stroke="#000000" points="219.8418,-205.5 219.8418,-233.5 361.9941,-233.5 361.9941,-205.5 219.8418,-205.5"/>
<text text-anchor="start" x="227.8418" y="-221.5" font-family="Helvetica,sans-Serif" font-size="10.00" fill="#000000">ObservableStorer::writeFlow</text>
<text text-anchor="middle" x="290.918" y="-211.5" font-family="Helvetica,sans-Serif" font-size="10.00" fill="#000000">ObservableToFile</text>
</a>
</g>
</g>
<!-- Node100&#45;&gt;Node101 -->
<g id="edge3" class="edge">
<title>Node100&#45;&gt;Node101</title>
<path fill="none" stroke="#191970" d="M391.6408,-217.8845C381.7533,-218.0431 371.7578,-218.2034 362.1,-218.3583"/>
<polygon fill="#191970" stroke="#191970" points="391.9443,-221.3802 401.8869,-217.7202 391.832,-214.3811 391.9443,-221.3802"/>
</g>
<!-- Node102 -->
<g id="node5" class="node">
<title>Node102</title>
<g id="a_node5"><a xlink:href="class_correlator.html#a168512b2ce182d9478db47f100125fa6" target="_top" xlink:title="Correlator::writeFlowObservablesToFile.">
<polygon fill="#ffffff" stroke="#000000" points="9.7314,-302.5 9.7314,-330.5 174.1104,-330.5 174.1104,-302.5 9.7314,-302.5"/>
<text text-anchor="start" x="17.7314" y="-318.5" font-family="Helvetica,sans-Serif" font-size="10.00" fill="#000000">Correlator::writeFlowObservables</text>
<text text-anchor="middle" x="91.9209" y="-308.5" font-family="Helvetica,sans-Serif" font-size="10.00" fill="#000000">ToFile</text>
</a>
</g>
</g>
<!-- Node101&#45;&gt;Node102 -->
<g id="edge4" class="edge">
<title>Node101&#45;&gt;Node102</title>
<path fill="none" stroke="#191970" d="M266.6864,-240.0627C245.9309,-256.7012 214.6019,-279.5802 183.8418,-293.5 176.3481,-296.8911 168.2752,-299.8349 160.1351,-302.3768"/>
<polygon fill="#191970" stroke="#191970" points="269.0968,-242.6133 274.634,-233.5806 264.6725,-237.1887 269.0968,-242.6133"/>
</g>
<!-- Node103 -->
<g id="node6" class="node">
<title>Node103</title>
<g id="a_node6"><a xlink:href="class_lattice_action_charge_density.html#a54226556dc1497c311e4a4d50bf44c26" target="_top" xlink:title="Correlator::writeFlowObservablesToFile.">
<polygon fill="#ffffff" stroke="#000000" points="18.623,-255.5 18.623,-283.5 165.2188,-283.5 165.2188,-255.5 18.623,-255.5"/>
<text text-anchor="start" x="26.623" y="-271.5" font-family="Helvetica,sans-Serif" font-size="10.00" fill="#000000">LatticeActionChargeDensity</text>
<text text-anchor="middle" x="91.9209" y="-261.5" font-family="Helvetica,sans-Serif" font-size="10.00" fill="#000000">::writeFlowObservablesToFile</text>
</a>
</g>
</g>
<!-- Node101&#45;&gt;Node103 -->
<g id="edge5" class="edge">
<title>Node101&#45;&gt;Node103</title>
<path fill="none" stroke="#191970" d="M225.4757,-236.0219C211.7243,-239.488 197.3078,-243.1175 183.8418,-246.5 172.3543,-249.3855 160.0575,-252.4672 148.3152,-255.4066"/>
<polygon fill="#191970" stroke="#191970" points="226.5074,-239.3714 235.3482,-233.5328 224.796,-232.5838 226.5074,-239.3714"/>
</g>
<!-- Node104 -->
<g id="node7" class="node">
<title>Node104</title>
<g id="a_node7"><a xlink:href="class_master_sampler.html#ad475928217ac61fae134128904aaa9f8" target="_top" xlink:title="Correlator::writeFlowObservablesToFile.">
<polygon fill="#ffffff" stroke="#000000" points="26.1304,-208.5 26.1304,-236.5 157.7114,-236.5 157.7114,-208.5 26.1304,-208.5"/>
<text text-anchor="start" x="34.1304" y="-224.5" font-family="Helvetica,sans-Serif" font-size="10.00" fill="#000000">MasterSampler::writeFlow</text>
<text text-anchor="middle" x="91.9209" y="-214.5" font-family="Helvetica,sans-Serif" font-size="10.00" fill="#000000">ObservablesToFile</text>
</a>
</g>
</g>
<!-- Node101&#45;&gt;Node104 -->
<g id="edge6" class="edge">
<title>Node101&#45;&gt;Node104</title>
<path fill="none" stroke="#191970" d="M209.5824,-220.7262C192.3286,-220.9863 174.3206,-221.2578 157.7296,-221.5079"/>
<polygon fill="#191970" stroke="#191970" points="209.6915,-224.225 219.6375,-220.5746 209.5859,-217.2258 209.6915,-224.225"/>
</g>
<!-- Node105 -->
<g id="node8" class="node">
<title>Node105</title>
<g id="a_node8"><a xlink:href="class_master_sampler_topc_x_y_z.html#a4fba4290e4406e18ef3f2904c6ae364f" target="_top" xlink:title="Correlator::writeFlowObservablesToFile.">
<polygon fill="#ffffff" stroke="#000000" points="18.623,-114.5 18.623,-142.5 165.2188,-142.5 165.2188,-114.5 18.623,-114.5"/>
<text text-anchor="start" x="26.623" y="-130.5" font-family="Helvetica,sans-Serif" font-size="10.00" fill="#000000">MasterSamplerTopcXYZ</text>
<text text-anchor="middle" x="91.9209" y="-120.5" font-family="Helvetica,sans-Serif" font-size="10.00" fill="#000000">::writeFlowObservablesToFile</text>
</a>
</g>
</g>
<!-- Node101&#45;&gt;Node105 -->
<g id="edge7" class="edge">
<title>Node101&#45;&gt;Node105</title>
<path fill="none" stroke="#191970" d="M233.1423,-201.3107C228.4867,-198.9723 223.9866,-196.3749 219.8418,-193.5 199.6402,-179.4879 204.7541,-164.4275 183.8418,-151.5 178.1048,-147.9535 171.8476,-144.9531 165.3841,-142.4147"/>
<polygon fill="#191970" stroke="#191970" points="231.687,-204.4937 242.2346,-205.4933 234.6125,-198.1343 231.687,-204.4937"/>
</g>
<!-- Node106 -->
<g id="node9" class="node">
<title>Node106</title>
<g id="a_node9"><a xlink:href="class_super_sampler.html#a410b650ebccdb03519c88908a3a8013e" target="_top" xlink:title="Correlator::writeFlowObservablesToFile.">
<polygon fill="#ffffff" stroke="#000000" points="0,-161.5 0,-189.5 183.8418,-189.5 183.8418,-161.5 0,-161.5"/>
<text text-anchor="start" x="8" y="-177.5" font-family="Helvetica,sans-Serif" font-size="10.00" fill="#000000">SuperSampler::writeFlowObservables</text>
<text text-anchor="middle" x="91.9209" y="-167.5" font-family="Helvetica,sans-Serif" font-size="10.00" fill="#000000">ToFile</text>
</a>
</g>
</g>
<!-- Node101&#45;&gt;Node106 -->
<g id="edge8" class="edge">
<title>Node101&#45;&gt;Node106</title>
<path fill="none" stroke="#191970" d="M217.5545,-203.2787C197.1942,-198.7769 175.2625,-193.9276 155.5111,-189.5604"/>
<polygon fill="#191970" stroke="#191970" points="216.8871,-206.7156 227.4069,-205.4572 218.3984,-199.8807 216.8871,-206.7156"/>
</g>
<!-- Node107&#45;&gt;Node105 -->
<g id="edge10" class="edge">
<title>Node107&#45;&gt;Node105</title>
<path fill="none" stroke="#191970" d="M242.7627,-164.1265C215.2488,-157.6281 180.5203,-149.4258 151.3234,-142.5299"/>
<polygon fill="#191970" stroke="#191970" points="242.0126,-167.5455 252.5493,-166.4379 243.6216,-160.733 242.0126,-167.5455"/>
</g>
<!-- Node107&#45;&gt;Node106 -->
<g id="edge11" class="edge">
<title>Node107&#45;&gt;Node106</title>
<path fill="none" stroke="#191970" d="M227.0523,-175.5C213.3208,-175.5 198.5461,-175.5 183.985,-175.5"/>
<polygon fill="#191970" stroke="#191970" points="227.3287,-179.0001 237.3286,-175.5 227.3286,-172.0001 227.3287,-179.0001"/>
</g>
</g>
</svg>
