<?xml version="1.0" encoding="UTF-8" standalone="no"?>
<!DOCTYPE svg PUBLIC "-//W3C//DTD SVG 1.1//EN"
 "http://www.w3.org/Graphics/SVG/1.1/DTD/svg11.dtd">
<!-- Generated by graphviz version 2.40.1 (20161225.0304)
 -->
<!-- Title: Parameters::getLoadConfigAndRun Pages: 1 -->
<svg width="363pt" height="64pt"
 viewBox="0.00 0.00 363.12 64.00" xmlns="http://www.w3.org/2000/svg" xmlns:xlink="http://www.w3.org/1999/xlink">
<g id="graph0" class="graph" transform="scale(1 1) rotate(0) translate(4 60)">
<title>Parameters::getLoadConfigAndRun</title>
<polygon fill="#ffffff" stroke="transparent" points="-4,4 -4,-60 359.1221,-60 359.1221,4 -4,4"/>
<!-- Node141 -->
<g id="node1" class="node">
<title>Node141</title>
<g id="a_node1"><a xlink:title=" ">
<polygon fill="#bfbfbf" stroke="#000000" points="216.8271,-13.5 216.8271,-41.5 355.1221,-41.5 355.1221,-13.5 216.8271,-13.5"/>
<text text-anchor="start" x="224.8271" y="-29.5" font-family="Helvetica,sans-Serif" font-size="10.00" fill="#000000">Parameters::getLoadConfig</text>
<text text-anchor="middle" x="285.9746" y="-19.5" font-family="Helvetica,sans-Serif" font-size="10.00" fill="#000000">AndRun</text>
</a>
</g>
</g>
<!-- Node142 -->
<g id="node2" class="node">
<title>Node142</title>
<g id="a_node2"><a xlink:href="class_system.html#a93c8a8258ac8f6382ec393bca1271011" target="_top" xlink:title=" ">
<polygon fill="#ffffff" stroke="#000000" points="73.6748,-37.5 73.6748,-55.5 180.8271,-55.5 180.8271,-37.5 73.6748,-37.5"/>
<text text-anchor="middle" x="127.251" y="-43.5" font-family="Helvetica,sans-Serif" font-size="10.00" fill="#000000">System::latticeSetup</text>
</a>
</g>
</g>
<!-- Node141&#45;&gt;Node142 -->
<g id="edge1" class="edge">
<title>Node141&#45;&gt;Node142</title>
<path fill="none" stroke="#191970" d="M206.6173,-36.9995C197.9066,-38.0422 189.1957,-39.0849 180.9046,-40.0774"/>
<polygon fill="#191970" stroke="#191970" points="207.3048,-40.4422 216.8178,-35.7784 206.4727,-33.4919 207.3048,-40.4422"/>
</g>
<!-- Node144 -->
<g id="node4" class="node">
<title>Node144</title>
<g id="a_node4"><a xlink:href="class_system.html#afa39feb75f96798930f4bfb48205f40b" target="_top" xlink:title=" ">
<polygon fill="#ffffff" stroke="#000000" points="92.5762,-.5 92.5762,-18.5 161.9258,-18.5 161.9258,-.5 92.5762,-.5"/>
<text text-anchor="middle" x="127.251" y="-6.5" font-family="Helvetica,sans-Serif" font-size="10.00" fill="#000000">System::run</text>
</a>
</g>
</g>
<!-- Node141&#45;&gt;Node144 -->
<g id="edge3" class="edge">
<title>Node141&#45;&gt;Node144</title>
<path fill="none" stroke="#191970" d="M206.5897,-18.4974C190.9869,-16.7279 175.3852,-14.9586 162.1971,-13.4631"/>
<polygon fill="#191970" stroke="#191970" points="206.4871,-22.0081 216.8178,-19.6573 207.276,-15.0527 206.4871,-22.0081"/>
</g>
<!-- Node143 -->
<g id="node3" class="node">
<title>Node143</title>
<g id="a_node3"><a xlink:href="main_8cpp.html#a4e6f00a867970a9eedf47b88a27b9eea" target="_top" xlink:title=" ">
<polygon fill="#ffffff" stroke="#000000" points="0,-18.5 0,-36.5 37.6748,-36.5 37.6748,-18.5 0,-18.5"/>
<text text-anchor="middle" x="18.8374" y="-24.5" font-family="Helvetica,sans-Serif" font-size="10.00" fill="#000000">main</text>
</a>
</g>
</g>
<!-- Node142&#45;&gt;Node143 -->
<g id="edge2" class="edge">
<title>Node142&#45;&gt;Node143</title>
<path fill="none" stroke="#191970" d="M65.4535,-35.6697C55.3887,-33.9058 45.68,-32.2043 37.7526,-30.815"/>
<polygon fill="#191970" stroke="#191970" points="65.1302,-39.1663 75.5843,-37.4452 66.3386,-32.2714 65.1302,-39.1663"/>
</g>
<!-- Node144&#45;&gt;Node143 -->
<g id="edge4" class="edge">
<title>Node144&#45;&gt;Node143</title>
<path fill="none" stroke="#191970" d="M82.3449,-16.9558C66.802,-19.5364 50.2074,-22.2916 37.8806,-24.3382"/>
<polygon fill="#191970" stroke="#191970" points="83.0598,-20.3851 92.3515,-15.2944 81.9132,-13.4796 83.0598,-20.3851"/>
</g>
</g>
</svg>
