<?xml version="1.0" encoding="UTF-8" standalone="no"?>
<!DOCTYPE svg PUBLIC "-//W3C//DTD SVG 1.1//EN"
 "http://www.w3.org/Graphics/SVG/1.1/DTD/svg11.dtd">
<!-- Generated by graphviz version 2.40.1 (20161225.0304)
 -->
<!-- Title: SuperSampler::printStatistics Pages: 1 -->
<svg width="504pt" height="37pt"
 viewBox="0.00 0.00 504.25 37.00" xmlns="http://www.w3.org/2000/svg" xmlns:xlink="http://www.w3.org/1999/xlink">
<g id="graph0" class="graph" transform="scale(1 1) rotate(0) translate(4 33)">
<title>SuperSampler::printStatistics</title>
<polygon fill="#ffffff" stroke="transparent" points="-4,4 -4,-33 500.2549,-33 500.2549,4 -4,4"/>
<!-- Node57 -->
<g id="node1" class="node">
<title>Node57</title>
<g id="a_node1"><a xlink:title=" ">
<polygon fill="#bfbfbf" stroke="#000000" points="0,-5.5 0,-23.5 144.9404,-23.5 144.9404,-5.5 0,-5.5"/>
<text text-anchor="middle" x="72.4702" y="-11.5" font-family="Helvetica,sans-Serif" font-size="10.00" fill="#000000">SuperSampler::printStatistics</text>
</a>
</g>
</g>
<!-- Node58 -->
<g id="node2" class="node">
<title>Node58</title>
<g id="a_node2"><a xlink:href="class_observable_storer.html#a04a12e7da9e21d6947027230c953bffe" target="_top" xlink:title=" ">
<polygon fill="#ffffff" stroke="#000000" points="180.9404,-5.5 180.9404,-23.5 340.3291,-23.5 340.3291,-5.5 180.9404,-5.5"/>
<text text-anchor="middle" x="260.6348" y="-11.5" font-family="Helvetica,sans-Serif" font-size="10.00" fill="#000000">ObservableStorer::printStatistics</text>
</a>
</g>
</g>
<!-- Node57&#45;&gt;Node58 -->
<g id="edge1" class="edge">
<title>Node57&#45;&gt;Node58</title>
<path fill="none" stroke="#191970" d="M144.9504,-14.5C153.3589,-14.5 162.0107,-14.5 170.6171,-14.5"/>
<polygon fill="#191970" stroke="#191970" points="170.6821,-18.0001 180.6821,-14.5 170.682,-11.0001 170.6821,-18.0001"/>
</g>
<!-- Node59 -->
<g id="node3" class="node">
<title>Node59</title>
<g id="a_node3"><a xlink:href="class_parallel_1_1_communicator.html#a474ab433da0e83ef372d74e26a7e5cb0" target="_top" xlink:title=" ">
<polygon fill="#ffffff" stroke="#000000" points="376.3291,-.5 376.3291,-28.5 496.2549,-28.5 496.2549,-.5 376.3291,-.5"/>
<text text-anchor="start" x="384.3291" y="-16.5" font-family="Helvetica,sans-Serif" font-size="10.00" fill="#000000">Parallel::Communicator</text>
<text text-anchor="middle" x="436.292" y="-6.5" font-family="Helvetica,sans-Serif" font-size="10.00" fill="#000000">::getProcessRank</text>
</a>
</g>
</g>
<!-- Node58&#45;&gt;Node59 -->
<g id="edge2" class="edge">
<title>Node58&#45;&gt;Node59</title>
<path fill="none" stroke="#191970" d="M340.4965,-14.5C349.0015,-14.5 357.607,-14.5 365.9905,-14.5"/>
<polygon fill="#191970" stroke="#191970" points="366.0846,-18.0001 376.0846,-14.5 366.0845,-11.0001 366.0846,-18.0001"/>
</g>
</g>
</svg>
