<?xml version="1.0" encoding="UTF-8" standalone="no"?>
<!DOCTYPE svg PUBLIC "-//W3C//DTD SVG 1.1//EN"
 "http://www.w3.org/Graphics/SVG/1.1/DTD/svg11.dtd">
<!-- Generated by graphviz version 2.40.1 (20161225.0304)
 -->
<!-- Title: Parallel::Index::getIndex Pages: 1 -->
<svg width="564pt" height="745pt"
 viewBox="0.00 0.00 563.81 744.92" xmlns="http://www.w3.org/2000/svg" xmlns:xlink="http://www.w3.org/1999/xlink">
<g id="graph0" class="graph" transform="scale(1 1) rotate(0) translate(4 740.9196)">
<title>Parallel::Index::getIndex</title>
<polygon fill="#ffffff" stroke="transparent" points="-4,4 -4,-740.9196 559.8105,-740.9196 559.8105,4 -4,4"/>
<!-- Node24 -->
<g id="node1" class="node">
<title>Node24</title>
<g id="a_node1"><a xlink:title=" ">
<polygon fill="#bfbfbf" stroke="#000000" points="432.5205,-417.5 432.5205,-435.5 555.8105,-435.5 555.8105,-417.5 432.5205,-417.5"/>
<text text-anchor="middle" x="494.1655" y="-423.5" font-family="Helvetica,sans-Serif" font-size="10.00" fill="#000000">Parallel::Index::getIndex</text>
</a>
</g>
</g>
<!-- Node25 -->
<g id="node2" class="node">
<title>Node25</title>
<g id="a_node2"><a xlink:href="class_luscher_action.html#a42285b6e3015935588e1fab6b90c1a11" target="_top" xlink:title="computeStaple computes the staple at given poisition.">
<polygon fill="#ffffff" stroke="#000000" points="9.165,-671.5 9.165,-689.5 160.7998,-689.5 160.7998,-671.5 9.165,-671.5"/>
<text text-anchor="middle" x="84.9824" y="-677.5" font-family="Helvetica,sans-Serif" font-size="10.00" fill="#000000">LuscherAction::computeStaple</text>
</a>
</g>
</g>
<!-- Node24&#45;&gt;Node25 -->
<g id="edge1" class="edge">
<title>Node24&#45;&gt;Node25</title>
<path fill="none" stroke="#191970" d="M490.4256,-445.7731C478.7333,-503.8172 440.9837,-674.9164 396.5205,-706.5 304.2643,-772.0324 155.631,-713.572 103.6503,-689.6216"/>
<polygon fill="#191970" stroke="#191970" points="493.9018,-446.2359 492.4109,-435.7465 487.0352,-444.8762 493.9018,-446.2359"/>
</g>
<!-- Node26 -->
<g id="node3" class="node">
<title>Node26</title>
<g id="a_node3"><a xlink:href="class_wilson_gauge_action.html#af1f6ba42fcc2b923dc3b37bf150bfae9" target="_top" xlink:title="computeStaple computes the staple at given poisition.">
<polygon fill="#ffffff" stroke="#000000" points="30.293,-598.5 30.293,-626.5 139.6719,-626.5 139.6719,-598.5 30.293,-598.5"/>
<text text-anchor="start" x="38.293" y="-614.5" font-family="Helvetica,sans-Serif" font-size="10.00" fill="#000000">WilsonGaugeAction::</text>
<text text-anchor="middle" x="84.9824" y="-604.5" font-family="Helvetica,sans-Serif" font-size="10.00" fill="#000000">computeStaple</text>
</a>
</g>
</g>
<!-- Node24&#45;&gt;Node26 -->
<g id="edge2" class="edge">
<title>Node24&#45;&gt;Node26</title>
<path fill="none" stroke="#191970" d="M476.6473,-442.251C457.9307,-458.4169 426.8425,-483.4162 396.5205,-499.5 317.3423,-541.4987 290.0973,-534.6001 205.9648,-565.5 176.8813,-576.1817 144.138,-588.9478 120.0566,-598.4777"/>
<polygon fill="#191970" stroke="#191970" points="479.1221,-444.7358 484.3291,-435.5088 474.5045,-439.4748 479.1221,-444.7358"/>
</g>
<!-- Node27 -->
<g id="node4" class="node">
<title>Node27</title>
<g id="a_node4"><a xlink:href="class_i_o_1_1_field_i_o.html#a8af607f9a1d79e90d4514c36103c6601" target="_top" xlink:title="IO::FieldIO::writeFieldToFile writes a lattice of SU3 matrix objects to file.">
<polygon fill="#ffffff" stroke="#000000" points="15.3003,-498.5 15.3003,-516.5 154.6646,-516.5 154.6646,-498.5 15.3003,-498.5"/>
<text text-anchor="middle" x="84.9824" y="-504.5" font-family="Helvetica,sans-Serif" font-size="10.00" fill="#000000">IO::FieldIO::writeFieldToFile</text>
</a>
</g>
</g>
<!-- Node24&#45;&gt;Node27 -->
<g id="edge3" class="edge">
<title>Node24&#45;&gt;Node27</title>
<path fill="none" stroke="#191970" d="M469.1511,-440.3427C449.8825,-450.3622 422.2696,-463.3519 396.5205,-470.5 315.436,-493.0095 218.7512,-501.8259 154.8296,-505.2785"/>
<polygon fill="#191970" stroke="#191970" points="470.9638,-443.343 478.1536,-435.5611 467.6802,-437.1609 470.9638,-443.343"/>
</g>
<!-- Node28 -->
<g id="node5" class="node">
<title>Node28</title>
<g id="a_node5"><a xlink:href="class_i_o_1_1_field_i_o.html#aaf2bac2025d67c06e7c61e8cc9f44777" target="_top" xlink:title="IO::FieldIO::writeDoublesFieldToFile writes a lattice of doubles to file.">
<polygon fill="#ffffff" stroke="#000000" points="237.3906,-326.5 237.3906,-354.5 365.0947,-354.5 365.0947,-326.5 237.3906,-326.5"/>
<text text-anchor="start" x="245.3906" y="-342.5" font-family="Helvetica,sans-Serif" font-size="10.00" fill="#000000">IO::FieldIO::writeDoubles</text>
<text text-anchor="middle" x="301.2427" y="-332.5" font-family="Helvetica,sans-Serif" font-size="10.00" fill="#000000">FieldToFile</text>
</a>
</g>
</g>
<!-- Node24&#45;&gt;Node28 -->
<g id="edge4" class="edge">
<title>Node24&#45;&gt;Node28</title>
<path fill="none" stroke="#191970" d="M472.4265,-411.8207C453.1344,-399.2859 423.8499,-381.4408 396.5205,-369.5 383.5282,-363.8234 369.0836,-358.808 355.4501,-354.6126"/>
<polygon fill="#191970" stroke="#191970" points="470.5167,-414.7538 480.7931,-417.3321 474.3675,-408.9082 470.5167,-414.7538"/>
</g>
<!-- Node30 -->
<g id="node7" class="node">
<title>Node30</title>
<g id="a_node7"><a xlink:href="class_i_o_1_1_field_i_o.html#a02db864a48601edd7febaab5d655e495" target="_top" xlink:title=" ">
<polygon fill="#ffffff" stroke="#000000" points="0,-453.5 0,-471.5 169.9648,-471.5 169.9648,-453.5 0,-453.5"/>
<text text-anchor="middle" x="84.9824" y="-459.5" font-family="Helvetica,sans-Serif" font-size="10.00" fill="#000000">IO::FieldIO::loadFieldConfiguration</text>
</a>
</g>
</g>
<!-- Node24&#45;&gt;Node30 -->
<g id="edge6" class="edge">
<title>Node24&#45;&gt;Node30</title>
<path fill="none" stroke="#191970" d="M454.2265,-438.2561C436.6824,-442.9144 415.7397,-447.7964 396.5205,-450.5 320.4101,-461.2066 232.8812,-463.7277 170.0187,-463.8499"/>
<polygon fill="#191970" stroke="#191970" points="455.3977,-441.5646 464.1248,-435.5574 453.5563,-434.8111 455.3977,-441.5646"/>
</g>
<!-- Node31 -->
<g id="node8" class="node">
<title>Node31</title>
<g id="a_node8"><a xlink:href="class_i_o_1_1_field_i_o.html#af23fb6e02a6bd1cafd5be4acacbf848e" target="_top" xlink:title=" ">
<polygon fill="#ffffff" stroke="#000000" points="11.958,-398.5 11.958,-426.5 158.0068,-426.5 158.0068,-398.5 11.958,-398.5"/>
<text text-anchor="start" x="19.958" y="-414.5" font-family="Helvetica,sans-Serif" font-size="10.00" fill="#000000">IO::FieldIO::loadChromaField</text>
<text text-anchor="middle" x="84.9824" y="-404.5" font-family="Helvetica,sans-Serif" font-size="10.00" fill="#000000">Configuration</text>
</a>
</g>
</g>
<!-- Node24&#45;&gt;Node31 -->
<g id="edge7" class="edge">
<title>Node24&#45;&gt;Node31</title>
<path fill="none" stroke="#191970" d="M453.8444,-414.7896C436.3841,-410.2969 415.6098,-405.7179 396.5205,-403.5 315.3618,-394.0707 221.556,-398.8962 158.2592,-404.441"/>
<polygon fill="#191970" stroke="#191970" points="453.1407,-418.2239 463.7039,-417.4063 454.9364,-411.4582 453.1407,-418.2239"/>
</g>
<!-- Node32 -->
<g id="node9" class="node">
<title>Node32</title>
<g id="a_node9"><a xlink:href="lattice_8h.html#a19c12b39277c18bf341c75cc2929b314" target="_top" xlink:title=" ">
<polygon fill="#ffffff" stroke="#000000" points="268.5088,-252.5 268.5088,-270.5 333.9766,-270.5 333.9766,-252.5 268.5088,-252.5"/>
<text text-anchor="middle" x="301.2427" y="-258.5" font-family="Helvetica,sans-Serif" font-size="10.00" fill="#000000">sumSpatial</text>
</a>
</g>
</g>
<!-- Node24&#45;&gt;Node32 -->
<g id="edge8" class="edge">
<title>Node24&#45;&gt;Node32</title>
<path fill="none" stroke="#191970" d="M487.3824,-408.1488C474.72,-376.6161 444.3565,-312.4649 396.5205,-280.5 378.1489,-268.2238 353.6304,-263.5362 334.0667,-261.8854"/>
<polygon fill="#191970" stroke="#191970" points="484.1266,-409.4337 490.9977,-417.4983 490.6555,-406.909 484.1266,-409.4337"/>
</g>
<!-- Node35 -->
<g id="node12" class="node">
<title>Node35</title>
<g id="a_node12"><a xlink:href="lattice_8h.html#ab2d48b63b79e5e5ee3ca25483fe98b3e" target="_top" xlink:title=" ">
<polygon fill="#ffffff" stroke="#000000" points="243.4063,-289.5 243.4063,-307.5 359.0791,-307.5 359.0791,-289.5 243.4063,-289.5"/>
<text text-anchor="middle" x="301.2427" y="-295.5" font-family="Helvetica,sans-Serif" font-size="10.00" fill="#000000">realTraceMultiplication</text>
</a>
</g>
</g>
<!-- Node24&#45;&gt;Node35 -->
<g id="edge11" class="edge">
<title>Node24&#45;&gt;Node35</title>
<path fill="none" stroke="#191970" d="M483.521,-408.6882C467.7803,-384.0178 435.8708,-339.9555 396.5205,-317.5 385.2404,-311.0629 372.1262,-306.7792 359.3018,-303.9359"/>
<polygon fill="#191970" stroke="#191970" points="480.6718,-410.7349 488.9143,-417.3916 486.622,-407.0478 480.6718,-410.7349"/>
</g>
<!-- Node36 -->
<g id="node13" class="node">
<title>Node36</title>
<g id="a_node13"><a xlink:href="lattice_8h.html#adb16681d0c7120b111172c031ec74d06" target="_top" xlink:title=" ">
<polygon fill="#ffffff" stroke="#000000" points="240.9063,-175.5 240.9063,-193.5 361.5791,-193.5 361.5791,-175.5 240.9063,-175.5"/>
<text text-anchor="middle" x="301.2427" y="-181.5" font-family="Helvetica,sans-Serif" font-size="10.00" fill="#000000">imagTraceMultiplication</text>
</a>
</g>
</g>
<!-- Node24&#45;&gt;Node36 -->
<g id="edge15" class="edge">
<title>Node24&#45;&gt;Node36</title>
<path fill="none" stroke="#191970" d="M491.7014,-407.1186C485.055,-363.3662 462.5611,-256.6271 396.5205,-203.5 386.6638,-195.5707 374.4048,-190.6567 361.997,-187.6717"/>
<polygon fill="#191970" stroke="#191970" points="488.2374,-407.6201 493.0952,-417.0356 495.1693,-406.6458 488.2374,-407.6201"/>
</g>
<!-- Node37 -->
<g id="node14" class="node">
<title>Node37</title>
<g id="a_node14"><a xlink:href="lattice_8h.html#a53bbfaed8f54ee3a1db6f8049686ccdf" target="_top" xlink:title=" ">
<polygon fill="#ffffff" stroke="#000000" points="284.0728,-212.5 284.0728,-230.5 318.4126,-230.5 318.4126,-212.5 284.0728,-212.5"/>
<text text-anchor="middle" x="301.2427" y="-218.5" font-family="Helvetica,sans-Serif" font-size="10.00" fill="#000000">shift</text>
</a>
</g>
</g>
<!-- Node24&#45;&gt;Node37 -->
<g id="edge16" class="edge">
<title>Node24&#45;&gt;Node37</title>
<path fill="none" stroke="#191970" d="M489.6351,-407.4242C479.6755,-369.8377 452.196,-286.1584 396.5205,-243.5 373.6118,-225.9474 339.1132,-222.0053 318.5198,-221.3376"/>
<polygon fill="#191970" stroke="#191970" points="486.2423,-408.2841 492.0827,-417.1238 493.0296,-406.5713 486.2423,-408.2841"/>
</g>
<!-- Node44 -->
<g id="node21" class="node">
<title>Node44</title>
<g id="a_node21"><a xlink:href="class_parallel_1_1_communicator.html#ae715d67d2e60def9bf529702a64f4caa" target="_top" xlink:title=" ">
<polygon fill="#ffffff" stroke="#000000" points="241.2798,-668.5 241.2798,-696.5 361.2056,-696.5 361.2056,-668.5 241.2798,-668.5"/>
<text text-anchor="start" x="249.2798" y="-684.5" font-family="Helvetica,sans-Serif" font-size="10.00" fill="#000000">Parallel::Communicator</text>
<text text-anchor="middle" x="301.2427" y="-674.5" font-family="Helvetica,sans-Serif" font-size="10.00" fill="#000000">::getPositiveLink</text>
</a>
</g>
</g>
<!-- Node24&#45;&gt;Node44 -->
<g id="edge26" class="edge">
<title>Node24&#45;&gt;Node44</title>
<path fill="none" stroke="#191970" d="M491.9185,-445.918C485.6567,-490.7909 463.7941,-602.2112 396.5205,-659.5 386.5449,-667.9951 373.9505,-673.4606 361.2152,-676.9505"/>
<polygon fill="#191970" stroke="#191970" points="495.4166,-446.1564 493.2188,-435.792 488.4736,-445.2648 495.4166,-446.1564"/>
</g>
<!-- Node45 -->
<g id="node22" class="node">
<title>Node45</title>
<g id="a_node22"><a xlink:href="class_parallel_1_1_communicator.html#ad3b8781686b517c146d9d2f2dbf932de" target="_top" xlink:title=" ">
<polygon fill="#ffffff" stroke="#000000" points="241.2798,-621.5 241.2798,-649.5 361.2056,-649.5 361.2056,-621.5 241.2798,-621.5"/>
<text text-anchor="start" x="249.2798" y="-637.5" font-family="Helvetica,sans-Serif" font-size="10.00" fill="#000000">Parallel::Communicator</text>
<text text-anchor="middle" x="301.2427" y="-627.5" font-family="Helvetica,sans-Serif" font-size="10.00" fill="#000000">::getNegativeLink</text>
</a>
</g>
</g>
<!-- Node24&#45;&gt;Node45 -->
<g id="edge29" class="edge">
<title>Node24&#45;&gt;Node45</title>
<path fill="none" stroke="#191970" d="M489.8321,-445.3034C480.0973,-483.1466 452.8076,-568.6239 396.5205,-612.5 386.455,-620.3461 374.1095,-625.569 361.6838,-629.0323"/>
<polygon fill="#191970" stroke="#191970" points="493.2354,-446.1204 492.2128,-435.575 486.4361,-444.4564 493.2354,-446.1204"/>
</g>
<!-- Node46 -->
<g id="node23" class="node">
<title>Node46</title>
<g id="a_node23"><a xlink:href="class_parallel_1_1_communicator.html#a453ebde0502ed86b8bd95dede6f8e69c" target="_top" xlink:title=" ">
<polygon fill="#ffffff" stroke="#000000" points="225.6987,-574.5 225.6987,-602.5 376.7866,-602.5 376.7866,-574.5 225.6987,-574.5"/>
<text text-anchor="start" x="233.6987" y="-590.5" font-family="Helvetica,sans-Serif" font-size="10.00" fill="#000000">Parallel::Communicator</text>
<text text-anchor="middle" x="301.2427" y="-580.5" font-family="Helvetica,sans-Serif" font-size="10.00" fill="#000000">::getNeighboursNeighbourLink</text>
</a>
</g>
</g>
<!-- Node24&#45;&gt;Node46 -->
<g id="edge32" class="edge">
<title>Node24&#45;&gt;Node46</title>
<path fill="none" stroke="#191970" d="M485.4187,-445.1618C470.9714,-473.9702 439.4008,-529.1145 396.5205,-559.5 387.7738,-565.698 377.6752,-570.5949 367.3927,-574.4573"/>
<polygon fill="#191970" stroke="#191970" points="488.7289,-446.358 489.9559,-435.8344 482.4341,-443.2959 488.7289,-446.358"/>
</g>
<!-- Node47 -->
<g id="node24" class="node">
<title>Node47</title>
<g id="a_node24"><a xlink:href="class_parallel_1_1_communicator.html#aebe919d44a02b37c98161ff4d3d23f6f" target="_top" xlink:title=" ">
<polygon fill="#ffffff" stroke="#000000" points="205.9648,-128.5 205.9648,-156.5 396.5205,-156.5 396.5205,-128.5 205.9648,-128.5"/>
<text text-anchor="start" x="213.9648" y="-144.5" font-family="Helvetica,sans-Serif" font-size="10.00" fill="#000000">Parallel::Communicator</text>
<text text-anchor="middle" x="301.2427" y="-134.5" font-family="Helvetica,sans-Serif" font-size="10.00" fill="#000000">::getNeighboursNeighbourNegativeLink</text>
</a>
</g>
</g>
<!-- Node24&#45;&gt;Node47 -->
<g id="edge35" class="edge">
<title>Node24&#45;&gt;Node47</title>
<path fill="none" stroke="#191970" d="M492.8363,-407.2333C488.439,-359.0027 470.0997,-232.2347 396.5205,-166.5 392.1954,-162.636 387.3386,-159.3751 382.1675,-156.6251"/>
<polygon fill="#191970" stroke="#191970" points="489.3703,-407.7971 493.6628,-417.4834 496.3477,-407.2345 489.3703,-407.7971"/>
</g>
<!-- Node48 -->
<g id="node25" class="node">
<title>Node48</title>
<g id="a_node25"><a xlink:href="class_parallel_1_1_communicator.html#a0975f377dbde235d418ca7054001f3a3" target="_top" xlink:title=" ">
<polygon fill="#ffffff" stroke="#000000" points="241.2798,-412.5 241.2798,-440.5 361.2056,-440.5 361.2056,-412.5 241.2798,-412.5"/>
<text text-anchor="start" x="249.2798" y="-428.5" font-family="Helvetica,sans-Serif" font-size="10.00" fill="#000000">Parallel::Communicator</text>
<text text-anchor="middle" x="301.2427" y="-418.5" font-family="Helvetica,sans-Serif" font-size="10.00" fill="#000000">::checkLattice</text>
</a>
</g>
</g>
<!-- Node24&#45;&gt;Node48 -->
<g id="edge36" class="edge">
<title>Node24&#45;&gt;Node48</title>
<path fill="none" stroke="#191970" d="M422.3166,-426.5C402.2726,-426.5 380.7092,-426.5 361.4137,-426.5"/>
<polygon fill="#191970" stroke="#191970" points="422.3275,-430.0001 432.3275,-426.5 422.3274,-423.0001 422.3275,-430.0001"/>
</g>
<!-- Node29 -->
<g id="node6" class="node">
<title>Node29</title>
<g id="a_node6"><a xlink:href="class_lattice_action_charge_density.html#a3dddc75188042c645fbdd1c8b3e80c8a" target="_top" xlink:title=" ">
<polygon fill="#ffffff" stroke="#000000" points="15.2832,-336.5 15.2832,-364.5 154.6816,-364.5 154.6816,-336.5 15.2832,-336.5"/>
<text text-anchor="start" x="23.2832" y="-352.5" font-family="Helvetica,sans-Serif" font-size="10.00" fill="#000000">LatticeActionChargeDensity</text>
<text text-anchor="middle" x="84.9824" y="-342.5" font-family="Helvetica,sans-Serif" font-size="10.00" fill="#000000">::calculate</text>
</a>
</g>
</g>
<!-- Node28&#45;&gt;Node29 -->
<g id="edge5" class="edge">
<title>Node28&#45;&gt;Node29</title>
<path fill="none" stroke="#191970" d="M227.0296,-343.9317C203.6565,-345.0124 177.9309,-346.202 154.8693,-347.2684"/>
<polygon fill="#191970" stroke="#191970" points="227.4076,-347.418 237.2352,-343.4597 227.0842,-340.4255 227.4076,-347.418"/>
</g>
<!-- Node33 -->
<g id="node10" class="node">
<title>Node33</title>
<g id="a_node10"><a xlink:href="class_master_sampler_topc_x_y_z.html#a0ea80ad9935db791f00461b7dfd548b7" target="_top" xlink:title=" ">
<polygon fill="#ffffff" stroke="#000000" points="22.7979,-289.5 22.7979,-317.5 147.167,-317.5 147.167,-289.5 22.7979,-289.5"/>
<text text-anchor="start" x="30.7979" y="-305.5" font-family="Helvetica,sans-Serif" font-size="10.00" fill="#000000">MasterSamplerTopcXYZ</text>
<text text-anchor="middle" x="84.9824" y="-295.5" font-family="Helvetica,sans-Serif" font-size="10.00" fill="#000000">::calculate</text>
</a>
</g>
</g>
<!-- Node32&#45;&gt;Node33 -->
<g id="edge9" class="edge">
<title>Node32&#45;&gt;Node33</title>
<path fill="none" stroke="#191970" d="M258.5414,-269.793C226.8016,-275.9572 183.0089,-284.4622 147.3547,-291.3866"/>
<polygon fill="#191970" stroke="#191970" points="259.2481,-273.2213 268.3974,-267.8789 257.9135,-266.3497 259.2481,-273.2213"/>
</g>
<!-- Node34 -->
<g id="node11" class="node">
<title>Node34</title>
<g id="a_node11"><a xlink:href="class_super_sampler.html#a7e1457583270077c4fbcb288ea9b954c" target="_top" xlink:title=" ">
<polygon fill="#ffffff" stroke="#000000" points="22.5098,-252.5 22.5098,-270.5 147.4551,-270.5 147.4551,-252.5 22.5098,-252.5"/>
<text text-anchor="middle" x="84.9824" y="-258.5" font-family="Helvetica,sans-Serif" font-size="10.00" fill="#000000">SuperSampler::calculate</text>
</a>
</g>
</g>
<!-- Node32&#45;&gt;Node34 -->
<g id="edge10" class="edge">
<title>Node32&#45;&gt;Node34</title>
<path fill="none" stroke="#191970" d="M258.1682,-261.5C226.5892,-261.5 183.227,-261.5 147.7926,-261.5"/>
<polygon fill="#191970" stroke="#191970" points="258.3974,-265.0001 268.3974,-261.5 258.3974,-258.0001 258.3974,-265.0001"/>
</g>
<!-- Node35&#45;&gt;Node29 -->
<g id="edge12" class="edge">
<title>Node35&#45;&gt;Node29</title>
<path fill="none" stroke="#191970" d="M242.1846,-309.5682C230.1638,-312.0199 217.6297,-314.7208 205.9648,-317.5 189.8112,-321.3486 185.9795,-323.1087 169.9648,-327.5 159.3516,-330.4102 147.9861,-333.5028 137.131,-336.4449"/>
<polygon fill="#191970" stroke="#191970" points="243.0158,-312.9712 252.1311,-307.571 241.6378,-306.1082 243.0158,-312.9712"/>
</g>
<!-- Node35&#45;&gt;Node33 -->
<g id="edge13" class="edge">
<title>Node35&#45;&gt;Node33</title>
<path fill="none" stroke="#191970" d="M232.9807,-300.0782C205.5284,-300.7129 174.0895,-301.4398 147.2686,-302.0599"/>
<polygon fill="#191970" stroke="#191970" points="233.3725,-303.5702 243.2889,-299.8399 233.2106,-296.5721 233.3725,-303.5702"/>
</g>
<!-- Node35&#45;&gt;Node34 -->
<g id="edge14" class="edge">
<title>Node35&#45;&gt;Node34</title>
<path fill="none" stroke="#191970" d="M238.4999,-287.7653C206.5887,-282.3056 168.2342,-275.7436 137.8451,-270.5443"/>
<polygon fill="#191970" stroke="#191970" points="238.169,-291.2595 248.616,-289.4961 239.3495,-284.3597 238.169,-291.2595"/>
</g>
<!-- Node37&#45;&gt;Node29 -->
<g id="edge20" class="edge">
<title>Node37&#45;&gt;Node29</title>
<path fill="none" stroke="#191970" d="M273.9543,-221.3987C253.1465,-222.7067 224.9293,-227.6423 205.9648,-243.5 174.8053,-269.555 200.6319,-300.8672 169.9648,-327.5 165.4641,-331.4086 160.3624,-334.6602 154.9472,-337.3641"/>
<polygon fill="#191970" stroke="#191970" points="274.2148,-224.8913 284.0718,-221.0067 273.9437,-217.8965 274.2148,-224.8913"/>
</g>
<!-- Node37&#45;&gt;Node33 -->
<g id="edge22" class="edge">
<title>Node37&#45;&gt;Node33</title>
<path fill="none" stroke="#191970" d="M274.0541,-223.6421C254.1406,-226.1623 227.0284,-231.6345 205.9648,-243.5 185.9746,-254.7609 189.7412,-268.8674 169.9648,-280.5 162.9823,-284.6072 155.2485,-287.9995 147.3737,-290.797"/>
<polygon fill="#191970" stroke="#191970" points="274.4577,-227.1189 284.0164,-222.5494 273.6944,-220.1607 274.4577,-227.1189"/>
</g>
<!-- Node37&#45;&gt;Node34 -->
<g id="edge24" class="edge">
<title>Node37&#45;&gt;Node34</title>
<path fill="none" stroke="#191970" d="M273.9134,-226.5549C238.8031,-233.049 177.2351,-244.4367 133.9465,-252.4435"/>
<polygon fill="#191970" stroke="#191970" points="274.7141,-229.9662 283.9108,-224.7058 273.4409,-223.083 274.7141,-229.9662"/>
</g>
<!-- Node38 -->
<g id="node15" class="node">
<title>Node38</title>
<g id="a_node15"><a xlink:href="class_luscher_action.html#ac11785b2df276816a098a87e6ac514c7" target="_top" xlink:title="getActionDerivative, computes the derivative of the lattice in given direction.">
<polygon fill="#ffffff" stroke="#000000" points="21.6724,-205.5 21.6724,-233.5 148.2925,-233.5 148.2925,-205.5 21.6724,-205.5"/>
<text text-anchor="start" x="29.6724" y="-221.5" font-family="Helvetica,sans-Serif" font-size="10.00" fill="#000000">LuscherAction::getAction</text>
<text text-anchor="middle" x="84.9824" y="-211.5" font-family="Helvetica,sans-Serif" font-size="10.00" fill="#000000">Derivative</text>
</a>
</g>
</g>
<!-- Node37&#45;&gt;Node38 -->
<g id="edge17" class="edge">
<title>Node37&#45;&gt;Node38</title>
<path fill="none" stroke="#191970" d="M273.735,-221.2456C242.3458,-220.9553 189.9775,-220.471 148.354,-220.0861"/>
<polygon fill="#191970" stroke="#191970" points="273.8788,-224.747 283.9108,-221.3397 273.9436,-217.7473 273.8788,-224.747"/>
</g>
<!-- Node39 -->
<g id="node16" class="node">
<title>Node39</title>
<g id="a_node16"><a xlink:href="class_wilson_gauge_action.html#a43cf939cd53495b7225fbeaa8a0ff6e8" target="_top" xlink:title="getActionDerivative, computes the derivative of the lattice in given direction.">
<polygon fill="#ffffff" stroke="#000000" points="30.293,-158.5 30.293,-186.5 139.6719,-186.5 139.6719,-158.5 30.293,-158.5"/>
<text text-anchor="start" x="38.293" y="-174.5" font-family="Helvetica,sans-Serif" font-size="10.00" fill="#000000">WilsonGaugeAction::</text>
<text text-anchor="middle" x="84.9824" y="-164.5" font-family="Helvetica,sans-Serif" font-size="10.00" fill="#000000">getActionDerivative</text>
</a>
</g>
</g>
<!-- Node37&#45;&gt;Node39 -->
<g id="edge18" class="edge">
<title>Node37&#45;&gt;Node39</title>
<path fill="none" stroke="#191970" d="M273.8669,-216.8085C254.7726,-213.4189 228.7362,-208.563 205.9648,-203.5 183.106,-198.4176 158.002,-192.1061 136.6156,-186.5072"/>
<polygon fill="#191970" stroke="#191970" points="273.5083,-220.2989 283.9625,-218.5789 274.7174,-213.4041 273.5083,-220.2989"/>
</g>
<!-- Node40 -->
<g id="node17" class="node">
<title>Node40</title>
<g id="a_node17"><a xlink:href="class_energy_density.html#ae8e5e29257104d881bcabeadc3b2c9e7" target="_top" xlink:title=" ">
<polygon fill="#ffffff" stroke="#000000" points="21.9556,-121.5 21.9556,-139.5 148.0093,-139.5 148.0093,-121.5 21.9556,-121.5"/>
<text text-anchor="middle" x="84.9824" y="-127.5" font-family="Helvetica,sans-Serif" font-size="10.00" fill="#000000">EnergyDensity::calculate</text>
</a>
</g>
</g>
<!-- Node37&#45;&gt;Node40 -->
<g id="edge19" class="edge">
<title>Node37&#45;&gt;Node40</title>
<path fill="none" stroke="#191970" d="M273.7802,-221.8471C253.5118,-220.8616 226.0732,-216.8115 205.9648,-203.5 181.913,-187.578 193.7487,-165.8195 169.9648,-149.5 163.358,-144.9666 155.8443,-141.496 148.0824,-138.8424"/>
<polygon fill="#191970" stroke="#191970" points="273.8396,-225.3498 283.9293,-222.1174 274.0261,-218.3523 273.8396,-225.3498"/>
</g>
<!-- Node41 -->
<g id="node18" class="node">
<title>Node41</title>
<g id="a_node18"><a xlink:href="class_master_sampler.html#ad3cc7e36498dbf4a39238de3ac59ae8b" target="_top" xlink:title=" ">
<polygon fill="#ffffff" stroke="#000000" points="20.5713,-84.5 20.5713,-102.5 149.3936,-102.5 149.3936,-84.5 20.5713,-84.5"/>
<text text-anchor="middle" x="84.9824" y="-90.5" font-family="Helvetica,sans-Serif" font-size="10.00" fill="#000000">MasterSampler::calculate</text>
</a>
</g>
</g>
<!-- Node37&#45;&gt;Node41 -->
<g id="edge21" class="edge">
<title>Node37&#45;&gt;Node41</title>
<path fill="none" stroke="#191970" d="M273.918,-223.0535C253.0904,-222.7864 224.8641,-219.1111 205.9648,-203.5 172.4312,-175.8008 203.0335,-140.7527 169.9648,-112.5 163.9878,-107.3934 156.9326,-103.5775 149.4838,-100.7385"/>
<polygon fill="#191970" stroke="#191970" points="274.0908,-226.5517 284.0465,-222.9277 274.0037,-219.5523 274.0908,-226.5517"/>
</g>
<!-- Node42 -->
<g id="node19" class="node">
<title>Node42</title>
<g id="a_node19"><a xlink:href="class_plaquette.html#a40cae6fd587c14836bdf61e69c615a00" target="_top" xlink:title=" ">
<polygon fill="#ffffff" stroke="#000000" points="33.3423,-47.5 33.3423,-65.5 136.6226,-65.5 136.6226,-47.5 33.3423,-47.5"/>
<text text-anchor="middle" x="84.9824" y="-53.5" font-family="Helvetica,sans-Serif" font-size="10.00" fill="#000000">Plaquette::calculate</text>
</a>
</g>
</g>
<!-- Node37&#45;&gt;Node42 -->
<g id="edge23" class="edge">
<title>Node37&#45;&gt;Node42</title>
<path fill="none" stroke="#191970" d="M273.4579,-223.5823C252.379,-223.604 224.0392,-220.0591 205.9648,-203.5 162.391,-163.5792 212.8692,-116.1394 169.9648,-75.5 160.9646,-66.9749 149.0109,-61.9618 136.9193,-59.0854"/>
<polygon fill="#191970" stroke="#191970" points="273.8276,-227.0734 283.7261,-223.2959 273.6324,-220.0762 273.8276,-227.0734"/>
</g>
<!-- Node43 -->
<g id="node20" class="node">
<title>Node43</title>
<g id="a_node20"><a xlink:href="class_topological_charge.html#a8ed78c28c3484df04b1cb24187de2f5b" target="_top" xlink:title=" ">
<polygon fill="#ffffff" stroke="#000000" points="32.7881,-.5 32.7881,-28.5 137.1768,-28.5 137.1768,-.5 32.7881,-.5"/>
<text text-anchor="start" x="40.7881" y="-16.5" font-family="Helvetica,sans-Serif" font-size="10.00" fill="#000000">TopologicalCharge::</text>
<text text-anchor="middle" x="84.9824" y="-6.5" font-family="Helvetica,sans-Serif" font-size="10.00" fill="#000000">calculate</text>
</a>
</g>
</g>
<!-- Node37&#45;&gt;Node43 -->
<g id="edge25" class="edge">
<title>Node37&#45;&gt;Node43</title>
<path fill="none" stroke="#191970" d="M273.8375,-223.8765C252.5348,-224.1408 223.713,-220.7781 205.9648,-203.5 151.8718,-150.8397 221.9747,-92.2187 169.9648,-37.5 161.3301,-28.4155 149.5078,-22.791 137.4258,-19.3419"/>
<polygon fill="#191970" stroke="#191970" points="274.0462,-227.3711 283.9012,-223.4815 273.7716,-220.3764 274.0462,-227.3711"/>
</g>
<!-- Node44&#45;&gt;Node25 -->
<g id="edge27" class="edge">
<title>Node44&#45;&gt;Node25</title>
<path fill="none" stroke="#191970" d="M230.9368,-681.8498C208.6176,-681.6434 183.8385,-681.4142 161.1279,-681.2042"/>
<polygon fill="#191970" stroke="#191970" points="230.9702,-685.3502 241.0021,-681.9429 231.035,-678.3505 230.9702,-685.3502"/>
</g>
<!-- Node44&#45;&gt;Node26 -->
<g id="edge28" class="edge">
<title>Node44&#45;&gt;Node26</title>
<path fill="none" stroke="#191970" d="M231.4748,-666.7994C222.836,-664.5205 214.1642,-662.0697 205.9648,-659.5 175.5396,-649.9647 141.7865,-636.6112 117.6798,-626.5735"/>
<polygon fill="#191970" stroke="#191970" points="230.6307,-670.1961 241.1873,-669.2964 232.3737,-663.4166 230.6307,-670.1961"/>
</g>
<!-- Node45&#45;&gt;Node25 -->
<g id="edge30" class="edge">
<title>Node45&#45;&gt;Node25</title>
<path fill="none" stroke="#191970" d="M231.1713,-650.0806C197.3613,-657.1159 157.861,-665.3352 128.4492,-671.4553"/>
<polygon fill="#191970" stroke="#191970" points="231.9249,-653.4989 241.0021,-648.035 230.4988,-646.6457 231.9249,-653.4989"/>
</g>
<!-- Node45&#45;&gt;Node26 -->
<g id="edge31" class="edge">
<title>Node45&#45;&gt;Node26</title>
<path fill="none" stroke="#191970" d="M230.7448,-628.0023C201.1917,-624.8592 167.3538,-621.2605 139.7243,-618.322"/>
<polygon fill="#191970" stroke="#191970" points="230.688,-631.5159 241.0021,-629.0932 231.4284,-624.5552 230.688,-631.5159"/>
</g>
<!-- Node46&#45;&gt;Node25 -->
<g id="edge33" class="edge">
<title>Node46&#45;&gt;Node25</title>
<path fill="none" stroke="#191970" d="M223.7369,-605.6223C217.6363,-607.6938 211.6443,-609.9815 205.9648,-612.5 188.386,-620.2951 186.5283,-626.7311 169.9648,-636.5 147.7834,-649.5823 121.3084,-662.9528 103.8706,-671.4667"/>
<polygon fill="#191970" stroke="#191970" points="224.9217,-608.9182 233.3837,-602.5428 222.7929,-602.2497 224.9217,-608.9182"/>
</g>
<!-- Node46&#45;&gt;Node26 -->
<g id="edge34" class="edge">
<title>Node46&#45;&gt;Node26</title>
<path fill="none" stroke="#191970" d="M215.5504,-598.0099C190.0345,-600.8416 162.7748,-603.8668 139.7986,-606.4166"/>
<polygon fill="#191970" stroke="#191970" points="216.0524,-601.4758 225.6053,-596.894 215.2803,-594.5185 216.0524,-601.4758"/>
</g>
<!-- Node48&#45;&gt;Node27 -->
<g id="edge37" class="edge">
<title>Node48&#45;&gt;Node27</title>
<path fill="none" stroke="#191970" d="M260.6001,-444.7636C234.8753,-456.0143 200.772,-470.3653 169.9648,-481.5 152.6976,-487.7409 133.1205,-493.7978 117.1121,-498.4932"/>
<polygon fill="#191970" stroke="#191970" points="262.2814,-447.8478 270.0249,-440.6167 259.4621,-441.4406 262.2814,-447.8478"/>
</g>
<!-- Node48&#45;&gt;Node30 -->
<g id="edge38" class="edge">
<title>Node48&#45;&gt;Node30</title>
<path fill="none" stroke="#191970" d="M231.0921,-438.1777C201.3272,-443.1325 167.1639,-448.8196 139.3599,-453.448"/>
<polygon fill="#191970" stroke="#191970" points="231.7126,-441.6226 241.0021,-436.528 230.5631,-434.7177 231.7126,-441.6226"/>
</g>
<!-- Node48&#45;&gt;Node31 -->
<g id="edge39" class="edge">
<title>Node48&#45;&gt;Node31</title>
<path fill="none" stroke="#191970" d="M230.8865,-421.9454C207.6703,-420.4424 181.7971,-418.7675 158.3609,-417.2503"/>
<polygon fill="#191970" stroke="#191970" points="230.7969,-425.4468 241.0021,-422.6002 231.2492,-418.4614 230.7969,-425.4468"/>
</g>
</g>
</svg>
