<?xml version="1.0" encoding="UTF-8" standalone="no"?>
<!DOCTYPE svg PUBLIC "-//W3C//DTD SVG 1.1//EN"
 "http://www.w3.org/Graphics/SVG/1.1/DTD/svg11.dtd">
<!-- Generated by graphviz version 2.40.1 (20161225.0304)
 -->
<!-- Title: Parameters::setMetropolisSeed Pages: 1 -->
<svg width="320pt" height="84pt"
 viewBox="0.00 0.00 319.99 84.00" xmlns="http://www.w3.org/2000/svg" xmlns:xlink="http://www.w3.org/1999/xlink">
<g id="graph0" class="graph" transform="scale(1 1) rotate(0) translate(4 80)">
<title>Parameters::setMetropolisSeed</title>
<polygon fill="#ffffff" stroke="transparent" points="-4,4 -4,-80 315.9893,-80 315.9893,4 -4,4"/>
<!-- Node426 -->
<g id="node1" class="node">
<title>Node426</title>
<g id="a_node1"><a xlink:title="Parameters::setMetropolisSeed set a seed for the Metropolis algorithm.">
<polygon fill="#bfbfbf" stroke="#000000" points="0,-28.5 0,-46.5 156.0635,-46.5 156.0635,-28.5 0,-28.5"/>
<text text-anchor="middle" x="78.0317" y="-34.5" font-family="Helvetica,sans-Serif" font-size="10.00" fill="#000000">Parameters::setMetropolisSeed</text>
</a>
</g>
</g>
<!-- Node427 -->
<g id="node2" class="node">
<title>Node427</title>
<g id="a_node2"><a xlink:href="class_parallel_1_1_communicator.html#a7b1f80fb49a0cc83f2031c3415174150" target="_top" xlink:title=" ">
<polygon fill="#ffffff" stroke="#000000" points="192.0635,-47.5 192.0635,-75.5 311.9893,-75.5 311.9893,-47.5 192.0635,-47.5"/>
<text text-anchor="start" x="200.0635" y="-63.5" font-family="Helvetica,sans-Serif" font-size="10.00" fill="#000000">Parallel::Communicator</text>
<text text-anchor="middle" x="252.0264" y="-53.5" font-family="Helvetica,sans-Serif" font-size="10.00" fill="#000000">::getNumProc</text>
</a>
</g>
</g>
<!-- Node426&#45;&gt;Node427 -->
<g id="edge1" class="edge">
<title>Node426&#45;&gt;Node427</title>
<path fill="none" stroke="#191970" d="M143.3159,-46.505C155.8706,-48.2367 169.0697,-50.0573 181.7737,-51.8097"/>
<polygon fill="#191970" stroke="#191970" points="181.4497,-55.298 191.8341,-53.1974 182.4062,-48.3637 181.4497,-55.298"/>
</g>
<!-- Node428 -->
<g id="node3" class="node">
<title>Node428</title>
<g id="a_node3"><a xlink:href="class_parallel_1_1_communicator.html#a474ab433da0e83ef372d74e26a7e5cb0" target="_top" xlink:title=" ">
<polygon fill="#ffffff" stroke="#000000" points="192.0635,-.5 192.0635,-28.5 311.9893,-28.5 311.9893,-.5 192.0635,-.5"/>
<text text-anchor="start" x="200.0635" y="-16.5" font-family="Helvetica,sans-Serif" font-size="10.00" fill="#000000">Parallel::Communicator</text>
<text text-anchor="middle" x="252.0264" y="-6.5" font-family="Helvetica,sans-Serif" font-size="10.00" fill="#000000">::getProcessRank</text>
</a>
</g>
</g>
<!-- Node426&#45;&gt;Node428 -->
<g id="edge2" class="edge">
<title>Node426&#45;&gt;Node428</title>
<path fill="none" stroke="#191970" d="M146.2996,-28.4758C157.9341,-26.9379 170.0378,-25.3379 181.7239,-23.7931"/>
<polygon fill="#191970" stroke="#191970" points="182.4086,-27.2332 191.8637,-22.4528 181.4912,-20.2935 182.4086,-27.2332"/>
</g>
</g>
</svg>
