<?xml version="1.0" encoding="UTF-8" standalone="no"?>
<!DOCTYPE svg PUBLIC "-//W3C//DTD SVG 1.1//EN"
 "http://www.w3.org/Graphics/SVG/1.1/DTD/svg11.dtd">
<!-- Generated by graphviz version 2.40.1 (20161225.0304)
 -->
<!-- Title: nlohmann::basic_json::value Pages: 1 -->
<svg width="269pt" height="84pt"
 viewBox="0.00 0.00 269.46 84.00" xmlns="http://www.w3.org/2000/svg" xmlns:xlink="http://www.w3.org/1999/xlink">
<g id="graph0" class="graph" transform="scale(1 1) rotate(0) translate(4 80)">
<title>nlohmann::basic_json::value</title>
<polygon fill="#ffffff" stroke="transparent" points="-4,4 -4,-80 265.457,-80 265.457,4 -4,4"/>
<!-- Node559 -->
<g id="node1" class="node">
<title>Node559</title>
<g id="a_node1"><a xlink:title="access specified object element via JSON Pointer with default value">
<polygon fill="#bfbfbf" stroke="#000000" points="0,-23.5 0,-51.5 112.7285,-51.5 112.7285,-23.5 0,-23.5"/>
<text text-anchor="start" x="8" y="-39.5" font-family="Helvetica,sans-Serif" font-size="10.00" fill="#000000">nlohmann::basic_json</text>
<text text-anchor="middle" x="56.3643" y="-29.5" font-family="Helvetica,sans-Serif" font-size="10.00" fill="#000000">::value</text>
</a>
</g>
</g>
<!-- Node560 -->
<g id="node2" class="node">
<title>Node560</title>
<g id="a_node2"><a xlink:href="classnlohmann_1_1basic__json.html#af8f511af124e82e4579f444b4175787c" target="_top" xlink:title="return whether value is an object">
<polygon fill="#ffffff" stroke="#000000" points="148.7285,-47.5 148.7285,-75.5 261.457,-75.5 261.457,-47.5 148.7285,-47.5"/>
<text text-anchor="start" x="156.7285" y="-63.5" font-family="Helvetica,sans-Serif" font-size="10.00" fill="#000000">nlohmann::basic_json</text>
<text text-anchor="middle" x="205.0928" y="-53.5" font-family="Helvetica,sans-Serif" font-size="10.00" fill="#000000">::is_object</text>
</a>
</g>
</g>
<!-- Node559&#45;&gt;Node560 -->
<g id="edge1" class="edge">
<title>Node559&#45;&gt;Node560</title>
<path fill="none" stroke="#191970" d="M113.0164,-46.6418C121.3948,-47.9938 130.0917,-49.3972 138.6472,-50.7778"/>
<polygon fill="#191970" stroke="#191970" points="138.1682,-54.2457 148.5981,-52.3836 139.2834,-47.3351 138.1682,-54.2457"/>
</g>
<!-- Node561 -->
<g id="node3" class="node">
<title>Node561</title>
<g id="a_node3"><a xlink:href="classnlohmann_1_1basic__json.html#a6b75862bdb4d26650616cf9821430755" target="_top" xlink:title="return the type as string">
<polygon fill="#ffffff" stroke="#000000" points="148.7285,-.5 148.7285,-28.5 261.457,-28.5 261.457,-.5 148.7285,-.5"/>
<text text-anchor="start" x="156.7285" y="-16.5" font-family="Helvetica,sans-Serif" font-size="10.00" fill="#000000">nlohmann::basic_json</text>
<text text-anchor="middle" x="205.0928" y="-6.5" font-family="Helvetica,sans-Serif" font-size="10.00" fill="#000000">::type_name</text>
</a>
</g>
</g>
<!-- Node559&#45;&gt;Node561 -->
<g id="edge2" class="edge">
<title>Node559&#45;&gt;Node561</title>
<path fill="none" stroke="#191970" d="M113.0164,-28.7391C121.3948,-27.4434 130.0917,-26.0985 138.6472,-24.7754"/>
<polygon fill="#191970" stroke="#191970" points="139.2505,-28.2238 148.5981,-23.2366 138.1807,-21.306 139.2505,-28.2238"/>
</g>
</g>
</svg>
