<?xml version="1.0" encoding="UTF-8" standalone="no"?>
<!DOCTYPE svg PUBLIC "-//W3C//DTD SVG 1.1//EN"
 "http://www.w3.org/Graphics/SVG/1.1/DTD/svg11.dtd">
<!-- Generated by graphviz version 2.40.1 (20161225.0304)
 -->
<!-- Title: SU3MatrixGenerator::generateSU2 Pages: 1 -->
<svg width="476pt" height="37pt"
 viewBox="0.00 0.00 476.23 37.00" xmlns="http://www.w3.org/2000/svg" xmlns:xlink="http://www.w3.org/1999/xlink">
<g id="graph0" class="graph" transform="scale(1 1) rotate(0) translate(4 33)">
<title>SU3MatrixGenerator::generateSU2</title>
<polygon fill="#ffffff" stroke="transparent" points="-4,4 -4,-33 472.2256,-33 472.2256,4 -4,4"/>
<!-- Node20 -->
<g id="node1" class="node">
<title>Node20</title>
<g id="a_node1"><a xlink:title="SU3MatrixGenerator::generateSU2 generates a random SU2 matrix close to unity.">
<polygon fill="#bfbfbf" stroke="#000000" points="360.5264,-.5 360.5264,-28.5 468.2256,-28.5 468.2256,-.5 360.5264,-.5"/>
<text text-anchor="start" x="368.5264" y="-16.5" font-family="Helvetica,sans-Serif" font-size="10.00" fill="#000000">SU3MatrixGenerator</text>
<text text-anchor="middle" x="414.376" y="-6.5" font-family="Helvetica,sans-Serif" font-size="10.00" fill="#000000">::generateSU2</text>
</a>
</g>
</g>
<!-- Node21 -->
<g id="node2" class="node">
<title>Node21</title>
<g id="a_node2"><a xlink:href="class_s_u3_matrix_generator.html#a478a6d34a643f4ee30bc333ca1023b00" target="_top" xlink:title="SU3MatrixGenerator::generateRST generates a SU3 matrix close to unity.">
<polygon fill="#ffffff" stroke="#000000" points="216.8271,-.5 216.8271,-28.5 324.5264,-28.5 324.5264,-.5 216.8271,-.5"/>
<text text-anchor="start" x="224.8271" y="-16.5" font-family="Helvetica,sans-Serif" font-size="10.00" fill="#000000">SU3MatrixGenerator</text>
<text text-anchor="middle" x="270.6768" y="-6.5" font-family="Helvetica,sans-Serif" font-size="10.00" fill="#000000">::generateRST</text>
</a>
</g>
</g>
<!-- Node20&#45;&gt;Node21 -->
<g id="edge1" class="edge">
<title>Node20&#45;&gt;Node21</title>
<path fill="none" stroke="#191970" d="M350.2401,-14.5C341.7775,-14.5 333.1705,-14.5 324.8961,-14.5"/>
<polygon fill="#191970" stroke="#191970" points="350.4589,-18.0001 360.4589,-14.5 350.4588,-11.0001 350.4589,-18.0001"/>
</g>
<!-- Node22 -->
<g id="node3" class="node">
<title>Node22</title>
<g id="a_node3"><a xlink:href="class_system.html#a93c8a8258ac8f6382ec393bca1271011" target="_top" xlink:title=" ">
<polygon fill="#ffffff" stroke="#000000" points="73.6748,-5.5 73.6748,-23.5 180.8271,-23.5 180.8271,-5.5 73.6748,-5.5"/>
<text text-anchor="middle" x="127.251" y="-11.5" font-family="Helvetica,sans-Serif" font-size="10.00" fill="#000000">System::latticeSetup</text>
</a>
</g>
</g>
<!-- Node21&#45;&gt;Node22 -->
<g id="edge2" class="edge">
<title>Node21&#45;&gt;Node22</title>
<path fill="none" stroke="#191970" d="M206.2792,-14.5C197.8568,-14.5 189.2983,-14.5 181.0751,-14.5"/>
<polygon fill="#191970" stroke="#191970" points="206.4537,-18.0001 216.4536,-14.5 206.4536,-11.0001 206.4537,-18.0001"/>
</g>
<!-- Node23 -->
<g id="node4" class="node">
<title>Node23</title>
<g id="a_node4"><a xlink:href="main_8cpp.html#a4e6f00a867970a9eedf47b88a27b9eea" target="_top" xlink:title=" ">
<polygon fill="#ffffff" stroke="#000000" points="0,-5.5 0,-23.5 37.6748,-23.5 37.6748,-5.5 0,-5.5"/>
<text text-anchor="middle" x="18.8374" y="-11.5" font-family="Helvetica,sans-Serif" font-size="10.00" fill="#000000">main</text>
</a>
</g>
</g>
<!-- Node22&#45;&gt;Node23 -->
<g id="edge3" class="edge">
<title>Node22&#45;&gt;Node23</title>
<path fill="none" stroke="#191970" d="M63.2463,-14.5C54.0172,-14.5 45.18,-14.5 37.8534,-14.5"/>
<polygon fill="#191970" stroke="#191970" points="63.3618,-18.0001 73.3618,-14.5 63.3618,-11.0001 63.3618,-18.0001"/>
</g>
</g>
</svg>
