<?xml version="1.0" encoding="UTF-8" standalone="no"?>
<!DOCTYPE svg PUBLIC "-//W3C//DTD SVG 1.1//EN"
 "http://www.w3.org/Graphics/SVG/1.1/DTD/svg11.dtd">
<!-- Generated by graphviz version 2.40.1 (20161225.0304)
 -->
<!-- Title: Correlator::writeObservableToFile Pages: 1 -->
<svg width="708pt" height="296pt"
 viewBox="0.00 0.00 707.99 296.00" xmlns="http://www.w3.org/2000/svg" xmlns:xlink="http://www.w3.org/1999/xlink">
<g id="graph0" class="graph" transform="scale(1 1) rotate(0) translate(4 292)">
<title>Correlator::writeObservableToFile</title>
<polygon fill="#ffffff" stroke="transparent" points="-4,4 -4,-292 703.9883,-292 703.9883,4 -4,4"/>
<!-- Node69 -->
<g id="node1" class="node">
<title>Node69</title>
<g id="a_node1"><a xlink:title="Correlator::writeObservableToFile calls the ObservableStorer for writing observable to file.">
<polygon fill="#bfbfbf" stroke="#000000" points="0,-124.5 0,-152.5 138.2656,-152.5 138.2656,-124.5 0,-124.5"/>
<text text-anchor="start" x="8" y="-140.5" font-family="Helvetica,sans-Serif" font-size="10.00" fill="#000000">Correlator::writeObservable</text>
<text text-anchor="middle" x="69.1328" y="-130.5" font-family="Helvetica,sans-Serif" font-size="10.00" fill="#000000">ToFile</text>
</a>
</g>
</g>
<!-- Node70 -->
<g id="node2" class="node">
<title>Node70</title>
<g id="a_node2"><a xlink:href="class_observable_storer.html#a146f9acb8a0a2ce15782d26bdc4f0bf9" target="_top" xlink:title="ObservableStorer::writeObservableToFile.">
<polygon fill="#ffffff" stroke="#000000" points="174.2656,-124.5 174.2656,-152.5 346.4424,-152.5 346.4424,-124.5 174.2656,-124.5"/>
<text text-anchor="start" x="182.2656" y="-140.5" font-family="Helvetica,sans-Serif" font-size="10.00" fill="#000000">ObservableStorer::writeObservable</text>
<text text-anchor="middle" x="260.354" y="-130.5" font-family="Helvetica,sans-Serif" font-size="10.00" fill="#000000">ToFile</text>
</a>
</g>
</g>
<!-- Node69&#45;&gt;Node70 -->
<g id="edge1" class="edge">
<title>Node69&#45;&gt;Node70</title>
<path fill="none" stroke="#191970" d="M138.4384,-138.5C146.7352,-138.5 155.3186,-138.5 163.911,-138.5"/>
<polygon fill="#191970" stroke="#191970" points="163.9851,-142.0001 173.9851,-138.5 163.9851,-135.0001 163.9851,-142.0001"/>
</g>
<!-- Node71 -->
<g id="node3" class="node">
<title>Node71</title>
<g id="a_node3"><a xlink:href="namespace_i_o.html#ad8cf5aef8f60d10b80292b69a091d5ac" target="_top" xlink:title="IO::writeObservablesToFile method for writing an observable to file, using .15 precision.">
<polygon fill="#ffffff" stroke="#000000" points="382.4424,-129.5 382.4424,-147.5 518.4814,-147.5 518.4814,-129.5 382.4424,-129.5"/>
<text text-anchor="middle" x="450.4619" y="-135.5" font-family="Helvetica,sans-Serif" font-size="10.00" fill="#000000">IO::writeObservablesToFile</text>
</a>
</g>
</g>
<!-- Node70&#45;&gt;Node71 -->
<g id="edge2" class="edge">
<title>Node70&#45;&gt;Node71</title>
<path fill="none" stroke="#191970" d="M346.5083,-138.5C355.0293,-138.5 363.6465,-138.5 372.0828,-138.5"/>
<polygon fill="#191970" stroke="#191970" points="372.265,-142.0001 382.2649,-138.5 372.2649,-135.0001 372.265,-142.0001"/>
</g>
<!-- Node72 -->
<g id="node4" class="node">
<title>Node72</title>
<g id="a_node4"><a xlink:href="class_parallel_1_1_communicator.html#a474ab433da0e83ef372d74e26a7e5cb0" target="_top" xlink:title=" ">
<polygon fill="#ffffff" stroke="#000000" points="567.272,-259.5 567.272,-287.5 687.1978,-287.5 687.1978,-259.5 567.272,-259.5"/>
<text text-anchor="start" x="575.272" y="-275.5" font-family="Helvetica,sans-Serif" font-size="10.00" fill="#000000">Parallel::Communicator</text>
<text text-anchor="middle" x="627.2349" y="-265.5" font-family="Helvetica,sans-Serif" font-size="10.00" fill="#000000">::getProcessRank</text>
</a>
</g>
</g>
<!-- Node71&#45;&gt;Node72 -->
<g id="edge3" class="edge">
<title>Node71&#45;&gt;Node72</title>
<path fill="none" stroke="#191970" d="M456.3481,-147.5212C470.6079,-168.6726 509.1863,-221.8327 554.4814,-250.5 557.0839,-252.1471 559.8138,-253.6847 562.6264,-255.1192"/>
<polygon fill="#191970" stroke="#191970" points="561.2888,-258.3564 571.8363,-259.3571 564.215,-251.9974 561.2888,-258.3564"/>
</g>
<!-- Node73 -->
<g id="node5" class="node">
<title>Node73</title>
<g id="a_node5"><a xlink:href="class_parameters.html#abace4edb8ece38841b58c5ce6168cbc4" target="_top" xlink:title=" ">
<polygon fill="#ffffff" stroke="#000000" points="565.3213,-222.5 565.3213,-240.5 689.1484,-240.5 689.1484,-222.5 565.3213,-222.5"/>
<text text-anchor="middle" x="627.2349" y="-228.5" font-family="Helvetica,sans-Serif" font-size="10.00" fill="#000000">Parameters::getFilePath</text>
</a>
</g>
</g>
<!-- Node71&#45;&gt;Node73 -->
<g id="edge4" class="edge">
<title>Node71&#45;&gt;Node73</title>
<path fill="none" stroke="#191970" d="M460.261,-147.5898C477.7977,-163.3665 516.2975,-195.8206 554.4814,-213.5 559.2302,-215.6987 564.2826,-217.6509 569.426,-219.3796"/>
<polygon fill="#191970" stroke="#191970" points="568.7863,-222.8445 579.3732,-222.4349 570.8416,-216.153 568.7863,-222.8445"/>
</g>
<!-- Node74 -->
<g id="node6" class="node">
<title>Node74</title>
<g id="a_node6"><a xlink:href="class_parameters.html#afa4cfe5dc4302b1e8f8928606ea9b056" target="_top" xlink:title=" ">
<polygon fill="#ffffff" stroke="#000000" points="554.4814,-185.5 554.4814,-203.5 699.9883,-203.5 699.9883,-185.5 554.4814,-185.5"/>
<text text-anchor="middle" x="627.2349" y="-191.5" font-family="Helvetica,sans-Serif" font-size="10.00" fill="#000000">Parameters::getOutputFolder</text>
</a>
</g>
</g>
<!-- Node71&#45;&gt;Node74 -->
<g id="edge5" class="edge">
<title>Node71&#45;&gt;Node74</title>
<path fill="none" stroke="#191970" d="M472.9505,-147.5129C493.8594,-155.7014 525.9802,-167.7959 554.4814,-176.5 561.9188,-178.7713 569.8489,-180.9632 577.6362,-182.9889"/>
<polygon fill="#191970" stroke="#191970" points="576.8223,-186.3932 587.3759,-185.4594 578.5434,-179.6081 576.8223,-186.3932"/>
</g>
<!-- Node75 -->
<g id="node7" class="node">
<title>Node75</title>
<g id="a_node7"><a xlink:href="class_parameters.html#a181a773d23fdb19d0c4f35e6cf2d5649" target="_top" xlink:title=" ">
<polygon fill="#ffffff" stroke="#000000" points="557.5405,-148.5 557.5405,-166.5 696.9292,-166.5 696.9292,-148.5 557.5405,-148.5"/>
<text text-anchor="middle" x="627.2349" y="-154.5" font-family="Helvetica,sans-Serif" font-size="10.00" fill="#000000">Parameters::getBatchName</text>
</a>
</g>
</g>
<!-- Node71&#45;&gt;Node75 -->
<g id="edge6" class="edge">
<title>Node71&#45;&gt;Node75</title>
<path fill="none" stroke="#191970" d="M518.5541,-145.8187C528.0104,-146.8351 537.7944,-147.8867 547.4406,-148.9235"/>
<polygon fill="#191970" stroke="#191970" points="547.1067,-152.4077 557.4235,-149.9965 547.8549,-145.4478 547.1067,-152.4077"/>
</g>
<!-- Node76 -->
<g id="node8" class="node">
<title>Node76</title>
<g id="a_node8"><a xlink:href="class_parameters.html#ae5c64523dc50dca13b417fe3d9e4175c" target="_top" xlink:title=" ">
<polygon fill="#ffffff" stroke="#000000" points="573.3779,-111.5 573.3779,-129.5 681.0918,-129.5 681.0918,-111.5 573.3779,-111.5"/>
<text text-anchor="middle" x="627.2349" y="-117.5" font-family="Helvetica,sans-Serif" font-size="10.00" fill="#000000">Parameters::getBeta</text>
</a>
</g>
</g>
<!-- Node71&#45;&gt;Node76 -->
<g id="edge7" class="edge">
<title>Node71&#45;&gt;Node76</title>
<path fill="none" stroke="#191970" d="M518.5541,-131.5665C533.1113,-130.0842 548.445,-128.5228 562.8571,-127.0553"/>
<polygon fill="#191970" stroke="#191970" points="563.5702,-130.5009 573.1642,-126.0058 562.8611,-123.5369 563.5702,-130.5009"/>
</g>
<!-- Node77 -->
<g id="node9" class="node">
<title>Node77</title>
<g id="a_node9"><a xlink:href="class_parameters.html#a0fd902d5efcd8dce17dbc3ea4177820d" target="_top" xlink:title=" ">
<polygon fill="#ffffff" stroke="#000000" points="571.9961,-74.5 571.9961,-92.5 682.4736,-92.5 682.4736,-74.5 571.9961,-74.5"/>
<text text-anchor="middle" x="627.2349" y="-80.5" font-family="Helvetica,sans-Serif" font-size="10.00" fill="#000000">Parameters::getNCor</text>
</a>
</g>
</g>
<!-- Node71&#45;&gt;Node77 -->
<g id="edge8" class="edge">
<title>Node71&#45;&gt;Node77</title>
<path fill="none" stroke="#191970" d="M475.0854,-129.3719C496.0518,-121.7457 527.0492,-110.8153 554.4814,-102.5 562.9231,-99.9412 571.977,-97.4094 580.7319,-95.0688"/>
<polygon fill="#191970" stroke="#191970" points="581.6595,-98.4439 590.4407,-92.516 579.8794,-91.674 581.6595,-98.4439"/>
</g>
<!-- Node78 -->
<g id="node10" class="node">
<title>Node78</title>
<g id="a_node10"><a xlink:href="class_parameters.html#a03f8c0aa2a31b9bfc016441cb263082c" target="_top" xlink:title=" ">
<polygon fill="#ffffff" stroke="#000000" points="575.0527,-37.5 575.0527,-55.5 679.417,-55.5 679.417,-37.5 575.0527,-37.5"/>
<text text-anchor="middle" x="627.2349" y="-43.5" font-family="Helvetica,sans-Serif" font-size="10.00" fill="#000000">Parameters::getNCf</text>
</a>
</g>
</g>
<!-- Node71&#45;&gt;Node78 -->
<g id="edge9" class="edge">
<title>Node71&#45;&gt;Node78</title>
<path fill="none" stroke="#191970" d="M460.6141,-129.4737C478.3882,-114.1288 516.8442,-82.9296 554.4814,-65.5 560.1564,-62.872 566.2551,-60.5622 572.4203,-58.5435"/>
<polygon fill="#191970" stroke="#191970" points="573.5564,-61.8565 582.1118,-55.6072 571.5265,-55.1573 573.5564,-61.8565"/>
</g>
<!-- Node79 -->
<g id="node11" class="node">
<title>Node79</title>
<g id="a_node11"><a xlink:href="class_parameters.html#ad1f56cc1bb6c19f40454b30a5bc82da6" target="_top" xlink:title=" ">
<polygon fill="#ffffff" stroke="#000000" points="565.6069,-.5 565.6069,-18.5 688.8628,-18.5 688.8628,-.5 565.6069,-.5"/>
<text text-anchor="middle" x="627.2349" y="-6.5" font-family="Helvetica,sans-Serif" font-size="10.00" fill="#000000">Parameters::getNTherm</text>
</a>
</g>
</g>
<!-- Node71&#45;&gt;Node79 -->
<g id="edge10" class="edge">
<title>Node71&#45;&gt;Node79</title>
<path fill="none" stroke="#191970" d="M456.2953,-129.4912C470.4411,-108.3962 508.7908,-55.5412 554.4814,-28.5 558.6171,-26.0524 563.0677,-23.9158 567.6573,-22.0515"/>
<polygon fill="#191970" stroke="#191970" points="569.0029,-25.2867 577.2166,-18.5944 566.6223,-18.704 569.0029,-25.2867"/>
</g>
</g>
</svg>
