<?xml version="1.0" encoding="UTF-8" standalone="no"?>
<!DOCTYPE svg PUBLIC "-//W3C//DTD SVG 1.1//EN"
 "http://www.w3.org/Graphics/SVG/1.1/DTD/svg11.dtd">
<!-- Generated by graphviz version 2.40.1 (20161225.0304)
 -->
<!-- Title: MasterSamplerTopcXYZ::printStatistics Pages: 1 -->
<svg width="484pt" height="37pt"
 viewBox="0.00 0.00 483.68 37.00" xmlns="http://www.w3.org/2000/svg" xmlns:xlink="http://www.w3.org/1999/xlink">
<g id="graph0" class="graph" transform="scale(1 1) rotate(0) translate(4 33)">
<title>MasterSamplerTopcXYZ::printStatistics</title>
<polygon fill="#ffffff" stroke="transparent" points="-4,4 -4,-33 479.6836,-33 479.6836,4 -4,4"/>
<!-- Node54 -->
<g id="node1" class="node">
<title>Node54</title>
<g id="a_node1"><a xlink:title=" ">
<polygon fill="#bfbfbf" stroke="#000000" points="0,-.5 0,-28.5 124.3691,-28.5 124.3691,-.5 0,-.5"/>
<text text-anchor="start" x="8" y="-16.5" font-family="Helvetica,sans-Serif" font-size="10.00" fill="#000000">MasterSamplerTopcXYZ</text>
<text text-anchor="middle" x="62.1846" y="-6.5" font-family="Helvetica,sans-Serif" font-size="10.00" fill="#000000">::printStatistics</text>
</a>
</g>
</g>
<!-- Node55 -->
<g id="node2" class="node">
<title>Node55</title>
<g id="a_node2"><a xlink:href="class_observable_storer.html#a04a12e7da9e21d6947027230c953bffe" target="_top" xlink:title=" ">
<polygon fill="#ffffff" stroke="#000000" points="160.3691,-5.5 160.3691,-23.5 319.7578,-23.5 319.7578,-5.5 160.3691,-5.5"/>
<text text-anchor="middle" x="240.0635" y="-11.5" font-family="Helvetica,sans-Serif" font-size="10.00" fill="#000000">ObservableStorer::printStatistics</text>
</a>
</g>
</g>
<!-- Node54&#45;&gt;Node55 -->
<g id="edge1" class="edge">
<title>Node54&#45;&gt;Node55</title>
<path fill="none" stroke="#191970" d="M124.398,-14.5C132.679,-14.5 141.3007,-14.5 149.9374,-14.5"/>
<polygon fill="#191970" stroke="#191970" points="150.0635,-18.0001 160.0634,-14.5 150.0634,-11.0001 150.0635,-18.0001"/>
</g>
<!-- Node56 -->
<g id="node3" class="node">
<title>Node56</title>
<g id="a_node3"><a xlink:href="class_parallel_1_1_communicator.html#a474ab433da0e83ef372d74e26a7e5cb0" target="_top" xlink:title=" ">
<polygon fill="#ffffff" stroke="#000000" points="355.7578,-.5 355.7578,-28.5 475.6836,-28.5 475.6836,-.5 355.7578,-.5"/>
<text text-anchor="start" x="363.7578" y="-16.5" font-family="Helvetica,sans-Serif" font-size="10.00" fill="#000000">Parallel::Communicator</text>
<text text-anchor="middle" x="415.7207" y="-6.5" font-family="Helvetica,sans-Serif" font-size="10.00" fill="#000000">::getProcessRank</text>
</a>
</g>
</g>
<!-- Node55&#45;&gt;Node56 -->
<g id="edge2" class="edge">
<title>Node55&#45;&gt;Node56</title>
<path fill="none" stroke="#191970" d="M319.9252,-14.5C328.4303,-14.5 337.0358,-14.5 345.4192,-14.5"/>
<polygon fill="#191970" stroke="#191970" points="345.5133,-18.0001 355.5133,-14.5 345.5133,-11.0001 345.5133,-18.0001"/>
</g>
</g>
</svg>
