<?xml version="1.0" encoding="UTF-8" standalone="no"?>
<!DOCTYPE svg PUBLIC "-//W3C//DTD SVG 1.1//EN"
 "http://www.w3.org/Graphics/SVG/1.1/DTD/svg11.dtd">
<!-- Generated by graphviz version 2.40.1 (20161225.0304)
 -->
<!-- Title: SuperSampler::runStatistics Pages: 1 -->
<svg width="494pt" height="74pt"
 viewBox="0.00 0.00 494.25 74.00" xmlns="http://www.w3.org/2000/svg" xmlns:xlink="http://www.w3.org/1999/xlink">
<g id="graph0" class="graph" transform="scale(1 1) rotate(0) translate(4 70)">
<title>SuperSampler::runStatistics</title>
<polygon fill="#ffffff" stroke="transparent" points="-4,4 -4,-70 490.2549,-70 490.2549,4 -4,4"/>
<!-- Node66 -->
<g id="node1" class="node">
<title>Node66</title>
<g id="a_node1"><a xlink:title="Correlator::runStatistics.">
<polygon fill="#bfbfbf" stroke="#000000" points="0,-21.5 0,-39.5 139.9404,-39.5 139.9404,-21.5 0,-21.5"/>
<text text-anchor="middle" x="69.9702" y="-27.5" font-family="Helvetica,sans-Serif" font-size="10.00" fill="#000000">SuperSampler::runStatistics</text>
</a>
</g>
</g>
<!-- Node67 -->
<g id="node2" class="node">
<title>Node67</title>
<g id="a_node2"><a xlink:href="class_observable_storer.html#a593f13b0dd0f9d20608ef6b84fda3f1d" target="_top" xlink:title="ObservableStorer::gatherResults.">
<polygon fill="#ffffff" stroke="#000000" points="188.9946,-37.5 188.9946,-65.5 317.2749,-65.5 317.2749,-37.5 188.9946,-37.5"/>
<text text-anchor="start" x="196.9946" y="-53.5" font-family="Helvetica,sans-Serif" font-size="10.00" fill="#000000">ObservableStorer::gather</text>
<text text-anchor="middle" x="253.1348" y="-43.5" font-family="Helvetica,sans-Serif" font-size="10.00" fill="#000000">Results</text>
</a>
</g>
</g>
<!-- Node66&#45;&gt;Node67 -->
<g id="edge1" class="edge">
<title>Node66&#45;&gt;Node67</title>
<path fill="none" stroke="#191970" d="M140.0009,-38.5291C152.6715,-39.9818 165.9256,-41.5014 178.7164,-42.9679"/>
<polygon fill="#191970" stroke="#191970" points="178.5215,-46.4684 188.8551,-44.1303 179.3189,-39.5139 178.5215,-46.4684"/>
</g>
<!-- Node69 -->
<g id="node4" class="node">
<title>Node69</title>
<g id="a_node4"><a xlink:href="class_observable_storer.html#a41b3756b423d31c6535d2981ef92d1a1" target="_top" xlink:title="ObservableStorer::runStatistics.">
<polygon fill="#ffffff" stroke="#000000" points="175.9404,-.5 175.9404,-18.5 330.3291,-18.5 330.3291,-.5 175.9404,-.5"/>
<text text-anchor="middle" x="253.1348" y="-6.5" font-family="Helvetica,sans-Serif" font-size="10.00" fill="#000000">ObservableStorer::runStatistics</text>
</a>
</g>
</g>
<!-- Node66&#45;&gt;Node69 -->
<g id="edge3" class="edge">
<title>Node66&#45;&gt;Node69</title>
<path fill="none" stroke="#191970" d="M140.0009,-22.4709C148.4211,-21.5055 157.0991,-20.5106 165.7275,-19.5213"/>
<polygon fill="#191970" stroke="#191970" points="166.2791,-22.9811 175.8153,-18.3648 165.4817,-16.0267 166.2791,-22.9811"/>
</g>
<!-- Node68 -->
<g id="node3" class="node">
<title>Node68</title>
<g id="a_node3"><a xlink:href="class_parallel_1_1_communicator.html#a7b1f80fb49a0cc83f2031c3415174150" target="_top" xlink:title=" ">
<polygon fill="#ffffff" stroke="#000000" points="366.3291,-37.5 366.3291,-65.5 486.2549,-65.5 486.2549,-37.5 366.3291,-37.5"/>
<text text-anchor="start" x="374.3291" y="-53.5" font-family="Helvetica,sans-Serif" font-size="10.00" fill="#000000">Parallel::Communicator</text>
<text text-anchor="middle" x="426.292" y="-43.5" font-family="Helvetica,sans-Serif" font-size="10.00" fill="#000000">::getNumProc</text>
</a>
</g>
</g>
<!-- Node67&#45;&gt;Node68 -->
<g id="edge2" class="edge">
<title>Node67&#45;&gt;Node68</title>
<path fill="none" stroke="#191970" d="M317.6121,-51.5C330.131,-51.5 343.3105,-51.5 356.0053,-51.5"/>
<polygon fill="#191970" stroke="#191970" points="356.0604,-55.0001 366.0604,-51.5 356.0604,-48.0001 356.0604,-55.0001"/>
</g>
</g>
</svg>
