<?xml version="1.0" encoding="UTF-8" standalone="no"?>
<!DOCTYPE svg PUBLIC "-//W3C//DTD SVG 1.1//EN"
 "http://www.w3.org/Graphics/SVG/1.1/DTD/svg11.dtd">
<!-- Generated by graphviz version 2.40.1 (20161225.0304)
 -->
<!-- Title: Parallel::Communicator::setBarrierActive Pages: 1 -->
<svg width="428pt" height="37pt"
 viewBox="0.00 0.00 427.56 37.00" xmlns="http://www.w3.org/2000/svg" xmlns:xlink="http://www.w3.org/1999/xlink">
<g id="graph0" class="graph" transform="scale(1 1) rotate(0) translate(4 33)">
<title>Parallel::Communicator::setBarrierActive</title>
<polygon fill="#ffffff" stroke="transparent" points="-4,4 -4,-33 423.5605,-33 423.5605,4 -4,4"/>
<!-- Node163 -->
<g id="node1" class="node">
<title>Node163</title>
<g id="a_node1"><a xlink:title=" ">
<polygon fill="#bfbfbf" stroke="#000000" points="299.6348,-.5 299.6348,-28.5 419.5605,-28.5 419.5605,-.5 299.6348,-.5"/>
<text text-anchor="start" x="307.6348" y="-16.5" font-family="Helvetica,sans-Serif" font-size="10.00" fill="#000000">Parallel::Communicator</text>
<text text-anchor="middle" x="359.5977" y="-6.5" font-family="Helvetica,sans-Serif" font-size="10.00" fill="#000000">::setBarrierActive</text>
</a>
</g>
</g>
<!-- Node164 -->
<g id="node2" class="node">
<title>Node164</title>
<g id="a_node2"><a xlink:href="class_performance_tests.html#aa55ebdbc84db93cc45adfdf7163f90b4" target="_top" xlink:title=" ">
<polygon fill="#ffffff" stroke="#000000" points="147.0391,-5.5 147.0391,-23.5 263.6348,-23.5 263.6348,-5.5 147.0391,-5.5"/>
<text text-anchor="middle" x="205.3369" y="-11.5" font-family="Helvetica,sans-Serif" font-size="10.00" fill="#000000">PerformanceTests::run</text>
</a>
</g>
</g>
<!-- Node163&#45;&gt;Node164 -->
<g id="edge1" class="edge">
<title>Node163&#45;&gt;Node164</title>
<path fill="none" stroke="#191970" d="M289.487,-14.5C280.8766,-14.5 272.1487,-14.5 263.737,-14.5"/>
<polygon fill="#191970" stroke="#191970" points="289.5147,-18.0001 299.5147,-14.5 289.5147,-11.0001 289.5147,-18.0001"/>
</g>
<!-- Node165 -->
<g id="node3" class="node">
<title>Node165</title>
<g id="a_node3"><a xlink:href="test_8h.html#a78e241f531e5203858fdb59a4162d6ba" target="_top" xlink:title=" ">
<polygon fill="#ffffff" stroke="#000000" points="0,-5.5 0,-23.5 111.0391,-23.5 111.0391,-5.5 0,-5.5"/>
<text text-anchor="middle" x="55.5195" y="-11.5" font-family="Helvetica,sans-Serif" font-size="10.00" fill="#000000">runPerformanceTests</text>
</a>
</g>
</g>
<!-- Node164&#45;&gt;Node165 -->
<g id="edge2" class="edge">
<title>Node164&#45;&gt;Node165</title>
<path fill="none" stroke="#191970" d="M136.7552,-14.5C128.3009,-14.5 119.7383,-14.5 111.5024,-14.5"/>
<polygon fill="#191970" stroke="#191970" points="136.9846,-18.0001 146.9846,-14.5 136.9846,-11.0001 136.9846,-18.0001"/>
</g>
</g>
</svg>
