<?xml version="1.0" encoding="UTF-8" standalone="no"?>
<!DOCTYPE svg PUBLIC "-//W3C//DTD SVG 1.1//EN"
 "http://www.w3.org/Graphics/SVG/1.1/DTD/svg11.dtd">
<!-- Generated by graphviz version 2.40.1 (20161225.0304)
 -->
<!-- Title: SuperSampler::writeObservableToFile Pages: 1 -->
<svg width="727pt" height="296pt"
 viewBox="0.00 0.00 727.45 296.00" xmlns="http://www.w3.org/2000/svg" xmlns:xlink="http://www.w3.org/1999/xlink">
<g id="graph0" class="graph" transform="scale(1 1) rotate(0) translate(4 292)">
<title>SuperSampler::writeObservableToFile</title>
<polygon fill="#ffffff" stroke="transparent" points="-4,4 -4,-292 723.4512,-292 723.4512,4 -4,4"/>
<!-- Node92 -->
<g id="node1" class="node">
<title>Node92</title>
<g id="a_node1"><a xlink:title="Correlator::writeObservableToFile calls the ObservableStorer for writing observable to file.">
<polygon fill="#bfbfbf" stroke="#000000" points="0,-124.5 0,-152.5 157.7285,-152.5 157.7285,-124.5 0,-124.5"/>
<text text-anchor="start" x="8" y="-140.5" font-family="Helvetica,sans-Serif" font-size="10.00" fill="#000000">SuperSampler::writeObservable</text>
<text text-anchor="middle" x="78.8643" y="-130.5" font-family="Helvetica,sans-Serif" font-size="10.00" fill="#000000">ToFile</text>
</a>
</g>
</g>
<!-- Node93 -->
<g id="node2" class="node">
<title>Node93</title>
<g id="a_node2"><a xlink:href="class_observable_storer.html#a146f9acb8a0a2ce15782d26bdc4f0bf9" target="_top" xlink:title="ObservableStorer::writeObservableToFile.">
<polygon fill="#ffffff" stroke="#000000" points="193.7285,-124.5 193.7285,-152.5 365.9053,-152.5 365.9053,-124.5 193.7285,-124.5"/>
<text text-anchor="start" x="201.7285" y="-140.5" font-family="Helvetica,sans-Serif" font-size="10.00" fill="#000000">ObservableStorer::writeObservable</text>
<text text-anchor="middle" x="279.8169" y="-130.5" font-family="Helvetica,sans-Serif" font-size="10.00" fill="#000000">ToFile</text>
</a>
</g>
</g>
<!-- Node92&#45;&gt;Node93 -->
<g id="edge1" class="edge">
<title>Node92&#45;&gt;Node93</title>
<path fill="none" stroke="#191970" d="M157.9976,-138.5C166.2745,-138.5 174.754,-138.5 183.1971,-138.5"/>
<polygon fill="#191970" stroke="#191970" points="183.4617,-142.0001 193.4617,-138.5 183.4617,-135.0001 183.4617,-142.0001"/>
</g>
<!-- Node94 -->
<g id="node3" class="node">
<title>Node94</title>
<g id="a_node3"><a xlink:href="namespace_i_o.html#ad8cf5aef8f60d10b80292b69a091d5ac" target="_top" xlink:title="IO::writeObservablesToFile method for writing an observable to file, using .15 precision.">
<polygon fill="#ffffff" stroke="#000000" points="401.9053,-129.5 401.9053,-147.5 537.9443,-147.5 537.9443,-129.5 401.9053,-129.5"/>
<text text-anchor="middle" x="469.9248" y="-135.5" font-family="Helvetica,sans-Serif" font-size="10.00" fill="#000000">IO::writeObservablesToFile</text>
</a>
</g>
</g>
<!-- Node93&#45;&gt;Node94 -->
<g id="edge2" class="edge">
<title>Node93&#45;&gt;Node94</title>
<path fill="none" stroke="#191970" d="M365.9711,-138.5C374.4921,-138.5 383.1094,-138.5 391.5457,-138.5"/>
<polygon fill="#191970" stroke="#191970" points="391.7279,-142.0001 401.7278,-138.5 391.7278,-135.0001 391.7279,-142.0001"/>
</g>
<!-- Node95 -->
<g id="node4" class="node">
<title>Node95</title>
<g id="a_node4"><a xlink:href="class_parallel_1_1_communicator.html#a474ab433da0e83ef372d74e26a7e5cb0" target="_top" xlink:title=" ">
<polygon fill="#ffffff" stroke="#000000" points="586.7349,-259.5 586.7349,-287.5 706.6606,-287.5 706.6606,-259.5 586.7349,-259.5"/>
<text text-anchor="start" x="594.7349" y="-275.5" font-family="Helvetica,sans-Serif" font-size="10.00" fill="#000000">Parallel::Communicator</text>
<text text-anchor="middle" x="646.6978" y="-265.5" font-family="Helvetica,sans-Serif" font-size="10.00" fill="#000000">::getProcessRank</text>
</a>
</g>
</g>
<!-- Node94&#45;&gt;Node95 -->
<g id="edge3" class="edge">
<title>Node94&#45;&gt;Node95</title>
<path fill="none" stroke="#191970" d="M475.811,-147.5212C490.0708,-168.6726 528.6492,-221.8327 573.9443,-250.5 576.5468,-252.1471 579.2767,-253.6847 582.0893,-255.1192"/>
<polygon fill="#191970" stroke="#191970" points="580.7517,-258.3564 591.2992,-259.3571 583.6779,-251.9974 580.7517,-258.3564"/>
</g>
<!-- Node96 -->
<g id="node5" class="node">
<title>Node96</title>
<g id="a_node5"><a xlink:href="class_parameters.html#abace4edb8ece38841b58c5ce6168cbc4" target="_top" xlink:title=" ">
<polygon fill="#ffffff" stroke="#000000" points="584.7842,-222.5 584.7842,-240.5 708.6113,-240.5 708.6113,-222.5 584.7842,-222.5"/>
<text text-anchor="middle" x="646.6978" y="-228.5" font-family="Helvetica,sans-Serif" font-size="10.00" fill="#000000">Parameters::getFilePath</text>
</a>
</g>
</g>
<!-- Node94&#45;&gt;Node96 -->
<g id="edge4" class="edge">
<title>Node94&#45;&gt;Node96</title>
<path fill="none" stroke="#191970" d="M479.7239,-147.5898C497.2606,-163.3665 535.7604,-195.8206 573.9443,-213.5 578.6931,-215.6987 583.7455,-217.6509 588.8889,-219.3796"/>
<polygon fill="#191970" stroke="#191970" points="588.2492,-222.8445 598.8361,-222.4349 590.3045,-216.153 588.2492,-222.8445"/>
</g>
<!-- Node97 -->
<g id="node6" class="node">
<title>Node97</title>
<g id="a_node6"><a xlink:href="class_parameters.html#afa4cfe5dc4302b1e8f8928606ea9b056" target="_top" xlink:title=" ">
<polygon fill="#ffffff" stroke="#000000" points="573.9443,-185.5 573.9443,-203.5 719.4512,-203.5 719.4512,-185.5 573.9443,-185.5"/>
<text text-anchor="middle" x="646.6978" y="-191.5" font-family="Helvetica,sans-Serif" font-size="10.00" fill="#000000">Parameters::getOutputFolder</text>
</a>
</g>
</g>
<!-- Node94&#45;&gt;Node97 -->
<g id="edge5" class="edge">
<title>Node94&#45;&gt;Node97</title>
<path fill="none" stroke="#191970" d="M492.4134,-147.5129C513.3223,-155.7014 545.4431,-167.7959 573.9443,-176.5 581.3817,-178.7713 589.3118,-180.9632 597.0991,-182.9889"/>
<polygon fill="#191970" stroke="#191970" points="596.2852,-186.3932 606.8388,-185.4594 598.0063,-179.6081 596.2852,-186.3932"/>
</g>
<!-- Node98 -->
<g id="node7" class="node">
<title>Node98</title>
<g id="a_node7"><a xlink:href="class_parameters.html#a181a773d23fdb19d0c4f35e6cf2d5649" target="_top" xlink:title=" ">
<polygon fill="#ffffff" stroke="#000000" points="577.0034,-148.5 577.0034,-166.5 716.3921,-166.5 716.3921,-148.5 577.0034,-148.5"/>
<text text-anchor="middle" x="646.6978" y="-154.5" font-family="Helvetica,sans-Serif" font-size="10.00" fill="#000000">Parameters::getBatchName</text>
</a>
</g>
</g>
<!-- Node94&#45;&gt;Node98 -->
<g id="edge6" class="edge">
<title>Node94&#45;&gt;Node98</title>
<path fill="none" stroke="#191970" d="M538.017,-145.8187C547.4733,-146.8351 557.2573,-147.8867 566.9035,-148.9235"/>
<polygon fill="#191970" stroke="#191970" points="566.5696,-152.4077 576.8864,-149.9965 567.3178,-145.4478 566.5696,-152.4077"/>
</g>
<!-- Node99 -->
<g id="node8" class="node">
<title>Node99</title>
<g id="a_node8"><a xlink:href="class_parameters.html#ae5c64523dc50dca13b417fe3d9e4175c" target="_top" xlink:title=" ">
<polygon fill="#ffffff" stroke="#000000" points="592.8408,-111.5 592.8408,-129.5 700.5547,-129.5 700.5547,-111.5 592.8408,-111.5"/>
<text text-anchor="middle" x="646.6978" y="-117.5" font-family="Helvetica,sans-Serif" font-size="10.00" fill="#000000">Parameters::getBeta</text>
</a>
</g>
</g>
<!-- Node94&#45;&gt;Node99 -->
<g id="edge7" class="edge">
<title>Node94&#45;&gt;Node99</title>
<path fill="none" stroke="#191970" d="M538.017,-131.5665C552.5742,-130.0842 567.9079,-128.5228 582.32,-127.0553"/>
<polygon fill="#191970" stroke="#191970" points="583.0331,-130.5009 592.6271,-126.0058 582.324,-123.5369 583.0331,-130.5009"/>
</g>
<!-- Node100 -->
<g id="node9" class="node">
<title>Node100</title>
<g id="a_node9"><a xlink:href="class_parameters.html#a0fd902d5efcd8dce17dbc3ea4177820d" target="_top" xlink:title=" ">
<polygon fill="#ffffff" stroke="#000000" points="591.459,-74.5 591.459,-92.5 701.9365,-92.5 701.9365,-74.5 591.459,-74.5"/>
<text text-anchor="middle" x="646.6978" y="-80.5" font-family="Helvetica,sans-Serif" font-size="10.00" fill="#000000">Parameters::getNCor</text>
</a>
</g>
</g>
<!-- Node94&#45;&gt;Node100 -->
<g id="edge8" class="edge">
<title>Node94&#45;&gt;Node100</title>
<path fill="none" stroke="#191970" d="M494.5482,-129.3719C515.5147,-121.7457 546.5121,-110.8153 573.9443,-102.5 582.386,-99.9412 591.4399,-97.4094 600.1947,-95.0688"/>
<polygon fill="#191970" stroke="#191970" points="601.1224,-98.4439 609.9036,-92.516 599.3423,-91.674 601.1224,-98.4439"/>
</g>
<!-- Node101 -->
<g id="node10" class="node">
<title>Node101</title>
<g id="a_node10"><a xlink:href="class_parameters.html#a03f8c0aa2a31b9bfc016441cb263082c" target="_top" xlink:title=" ">
<polygon fill="#ffffff" stroke="#000000" points="594.5156,-37.5 594.5156,-55.5 698.8799,-55.5 698.8799,-37.5 594.5156,-37.5"/>
<text text-anchor="middle" x="646.6978" y="-43.5" font-family="Helvetica,sans-Serif" font-size="10.00" fill="#000000">Parameters::getNCf</text>
</a>
</g>
</g>
<!-- Node94&#45;&gt;Node101 -->
<g id="edge9" class="edge">
<title>Node94&#45;&gt;Node101</title>
<path fill="none" stroke="#191970" d="M480.0769,-129.4737C497.8511,-114.1288 536.3071,-82.9296 573.9443,-65.5 579.6192,-62.872 585.718,-60.5622 591.8832,-58.5435"/>
<polygon fill="#191970" stroke="#191970" points="593.0193,-61.8565 601.5747,-55.6072 590.9894,-55.1573 593.0193,-61.8565"/>
</g>
<!-- Node102 -->
<g id="node11" class="node">
<title>Node102</title>
<g id="a_node11"><a xlink:href="class_parameters.html#ad1f56cc1bb6c19f40454b30a5bc82da6" target="_top" xlink:title=" ">
<polygon fill="#ffffff" stroke="#000000" points="585.0698,-.5 585.0698,-18.5 708.3257,-18.5 708.3257,-.5 585.0698,-.5"/>
<text text-anchor="middle" x="646.6978" y="-6.5" font-family="Helvetica,sans-Serif" font-size="10.00" fill="#000000">Parameters::getNTherm</text>
</a>
</g>
</g>
<!-- Node94&#45;&gt;Node102 -->
<g id="edge10" class="edge">
<title>Node94&#45;&gt;Node102</title>
<path fill="none" stroke="#191970" d="M475.7582,-129.4912C489.904,-108.3962 528.2537,-55.5412 573.9443,-28.5 578.08,-26.0524 582.5306,-23.9158 587.1202,-22.0515"/>
<polygon fill="#191970" stroke="#191970" points="588.4658,-25.2867 596.6794,-18.5944 586.0852,-18.704 588.4658,-25.2867"/>
</g>
</g>
</svg>
