<?xml version="1.0" encoding="UTF-8" standalone="no"?>
<!DOCTYPE svg PUBLIC "-//W3C//DTD SVG 1.1//EN"
 "http://www.w3.org/Graphics/SVG/1.1/DTD/svg11.dtd">
<!-- Generated by graphviz version 2.40.1 (20161225.0304)
 -->
<!-- Title: Parameters::getStoreThermalizationObservables Pages: 1 -->
<svg width="567pt" height="262pt"
 viewBox="0.00 0.00 566.50 262.00" xmlns="http://www.w3.org/2000/svg" xmlns:xlink="http://www.w3.org/1999/xlink">
<g id="graph0" class="graph" transform="scale(1 1) rotate(0) translate(4 258)">
<title>Parameters::getStoreThermalizationObservables</title>
<polygon fill="#ffffff" stroke="transparent" points="-4,4 -4,-258 562.501,-258 562.501,4 -4,4"/>
<!-- Node313 -->
<g id="node1" class="node">
<title>Node313</title>
<g id="a_node1"><a xlink:title=" ">
<polygon fill="#bfbfbf" stroke="#000000" points="381.876,-107.5 381.876,-135.5 558.501,-135.5 558.501,-107.5 381.876,-107.5"/>
<text text-anchor="start" x="389.876" y="-123.5" font-family="Helvetica,sans-Serif" font-size="10.00" fill="#000000">Parameters::getStoreThermalization</text>
<text text-anchor="middle" x="470.1885" y="-113.5" font-family="Helvetica,sans-Serif" font-size="10.00" fill="#000000">Observables</text>
</a>
</g>
</g>
<!-- Node314 -->
<g id="node2" class="node">
<title>Node314</title>
<g id="a_node2"><a xlink:href="class_correlator.html#ab99886c09dd27dfc8676d0032cecf9bc" target="_top" xlink:title="Correlator::initializeObservableStorer initializes ObservableStorer.">
<polygon fill="#ffffff" stroke="#000000" points="193.1523,-225.5 193.1523,-253.5 345.876,-253.5 345.876,-225.5 193.1523,-225.5"/>
<text text-anchor="start" x="201.1523" y="-241.5" font-family="Helvetica,sans-Serif" font-size="10.00" fill="#000000">Correlator::initializeObservable</text>
<text text-anchor="middle" x="269.5142" y="-231.5" font-family="Helvetica,sans-Serif" font-size="10.00" fill="#000000">Storer</text>
</a>
</g>
</g>
<!-- Node313&#45;&gt;Node314 -->
<g id="edge1" class="edge">
<title>Node313&#45;&gt;Node314</title>
<path fill="none" stroke="#191970" d="M447.9399,-142.5295C424.2941,-163.8625 384.9892,-196.5066 345.876,-216.5 339.2187,-219.903 331.9723,-222.8937 324.6815,-225.4947"/>
<polygon fill="#191970" stroke="#191970" points="450.3202,-145.0956 455.3357,-135.7631 445.5951,-139.931 450.3202,-145.0956"/>
</g>
<!-- Node316 -->
<g id="node4" class="node">
<title>Node316</title>
<g id="a_node4"><a xlink:href="class_lattice_action_charge_density.html#aba3131bbe5bd930adccc2852b4d44bb9" target="_top" xlink:title="Correlator::initializeObservableStorer initializes ObservableStorer.">
<polygon fill="#ffffff" stroke="#000000" points="199.8149,-178.5 199.8149,-206.5 339.2134,-206.5 339.2134,-178.5 199.8149,-178.5"/>
<text text-anchor="start" x="207.8149" y="-194.5" font-family="Helvetica,sans-Serif" font-size="10.00" fill="#000000">LatticeActionChargeDensity</text>
<text text-anchor="middle" x="269.5142" y="-184.5" font-family="Helvetica,sans-Serif" font-size="10.00" fill="#000000">::initializeObservableStorer</text>
</a>
</g>
</g>
<!-- Node313&#45;&gt;Node316 -->
<g id="edge3" class="edge">
<title>Node313&#45;&gt;Node316</title>
<path fill="none" stroke="#191970" d="M426.4671,-139.3162C402.7761,-148.7329 372.8982,-160.2285 345.876,-169.5 336.9706,-172.5555 327.4084,-175.6106 318.1666,-178.4498"/>
<polygon fill="#191970" stroke="#191970" points="427.896,-142.5144 435.8834,-135.5536 425.2986,-136.0141 427.896,-142.5144"/>
</g>
<!-- Node318 -->
<g id="node6" class="node">
<title>Node318</title>
<g id="a_node6"><a xlink:href="class_master_sampler.html#a88e2eec68ea6bd60cc3f375ac04a8ded" target="_top" xlink:title="Correlator::initializeObservableStorer initializes ObservableStorer.">
<polygon fill="#ffffff" stroke="#000000" points="207.0513,-131.5 207.0513,-159.5 331.9771,-159.5 331.9771,-131.5 207.0513,-131.5"/>
<text text-anchor="start" x="215.0513" y="-147.5" font-family="Helvetica,sans-Serif" font-size="10.00" fill="#000000">MasterSampler::initialize</text>
<text text-anchor="middle" x="269.5142" y="-137.5" font-family="Helvetica,sans-Serif" font-size="10.00" fill="#000000">ObservableStorer</text>
</a>
</g>
</g>
<!-- Node313&#45;&gt;Node318 -->
<g id="edge5" class="edge">
<title>Node313&#45;&gt;Node318</title>
<path fill="none" stroke="#191970" d="M371.3739,-133.3179C357.9903,-134.9185 344.5706,-136.5235 332.0674,-138.0188"/>
<polygon fill="#191970" stroke="#191970" points="372.0721,-136.7594 381.5857,-132.0966 371.2408,-129.809 372.0721,-136.7594"/>
</g>
<!-- Node320 -->
<g id="node8" class="node">
<title>Node320</title>
<g id="a_node8"><a xlink:href="class_master_sampler_topc_x_y_z.html#af6d2cf2023d9626908fd26b07a7a0b84" target="_top" xlink:title="Correlator::initializeObservableStorer initializes ObservableStorer.">
<polygon fill="#ffffff" stroke="#000000" points="201.7656,-84.5 201.7656,-112.5 337.2627,-112.5 337.2627,-84.5 201.7656,-84.5"/>
<text text-anchor="start" x="209.7656" y="-100.5" font-family="Helvetica,sans-Serif" font-size="10.00" fill="#000000">MasterSamplerTopcXYZ</text>
<text text-anchor="middle" x="269.5142" y="-90.5" font-family="Helvetica,sans-Serif" font-size="10.00" fill="#000000">::initializeObservableStorer</text>
</a>
</g>
</g>
<!-- Node313&#45;&gt;Node320 -->
<g id="edge7" class="edge">
<title>Node313&#45;&gt;Node320</title>
<path fill="none" stroke="#191970" d="M371.4853,-110.1873C359.9661,-108.867 348.4181,-107.5435 337.449,-106.2862"/>
<polygon fill="#191970" stroke="#191970" points="371.2521,-113.6834 381.5857,-111.3449 372.0493,-106.7289 371.2521,-113.6834"/>
</g>
<!-- Node322 -->
<g id="node10" class="node">
<title>Node322</title>
<g id="a_node10"><a xlink:href="class_super_sampler.html#a4429d6ae37247a02259bc0c6d665821c" target="_top" xlink:title="Correlator::initializeObservableStorer initializes ObservableStorer.">
<polygon fill="#ffffff" stroke="#000000" points="208.9897,-37.5 208.9897,-65.5 330.0386,-65.5 330.0386,-37.5 208.9897,-37.5"/>
<text text-anchor="start" x="216.9897" y="-53.5" font-family="Helvetica,sans-Serif" font-size="10.00" fill="#000000">SuperSampler::initialize</text>
<text text-anchor="middle" x="269.5142" y="-43.5" font-family="Helvetica,sans-Serif" font-size="10.00" fill="#000000">ObservableStorer</text>
</a>
</g>
</g>
<!-- Node313&#45;&gt;Node322 -->
<g id="edge9" class="edge">
<title>Node313&#45;&gt;Node322</title>
<path fill="none" stroke="#191970" d="M424.0067,-103.7871C400.6819,-95.0002 371.8829,-84.3925 345.876,-75.5 336.1456,-72.1729 325.66,-68.7639 315.6688,-65.5984"/>
<polygon fill="#191970" stroke="#191970" points="423.0523,-107.1679 433.6438,-107.4311 425.5281,-100.6204 423.0523,-107.1679"/>
</g>
<!-- Node324 -->
<g id="node12" class="node">
<title>Node324</title>
<g id="a_node12"><a xlink:href="class_system.html#ae317936c9bcf1374d61745572e0f2f8a" target="_top" xlink:title=" ">
<polygon fill="#ffffff" stroke="#000000" points="225.396,-.5 225.396,-18.5 313.6323,-18.5 313.6323,-.5 225.396,-.5"/>
<text text-anchor="middle" x="269.5142" y="-6.5" font-family="Helvetica,sans-Serif" font-size="10.00" fill="#000000">System::System</text>
</a>
</g>
</g>
<!-- Node313&#45;&gt;Node324 -->
<g id="edge11" class="edge">
<title>Node313&#45;&gt;Node324</title>
<path fill="none" stroke="#191970" d="M447.74,-100.2762C424.1489,-79.0977 385.084,-47.106 345.876,-28.5 335.8787,-23.7558 324.5631,-20.1117 313.7642,-17.3464"/>
<polygon fill="#191970" stroke="#191970" points="445.6674,-103.1229 455.414,-107.2766 450.385,-97.9514 445.6674,-103.1229"/>
</g>
<!-- Node315 -->
<g id="node3" class="node">
<title>Node315</title>
<g id="a_node3"><a xlink:href="class_correlator.html#aff48ef3bf789e9c6231eacc21cd9ed9a" target="_top" xlink:title="Correlator::Correlator.">
<polygon fill="#ffffff" stroke="#000000" points="23.3398,-230.5 23.3398,-248.5 133.8125,-248.5 133.8125,-230.5 23.3398,-230.5"/>
<text text-anchor="middle" x="78.5762" y="-236.5" font-family="Helvetica,sans-Serif" font-size="10.00" fill="#000000">Correlator::Correlator</text>
</a>
</g>
</g>
<!-- Node314&#45;&gt;Node315 -->
<g id="edge2" class="edge">
<title>Node314&#45;&gt;Node315</title>
<path fill="none" stroke="#191970" d="M182.7069,-239.5C166.1502,-239.5 149.2432,-239.5 133.9997,-239.5"/>
<polygon fill="#191970" stroke="#191970" points="182.9526,-243.0001 192.9526,-239.5 182.9525,-236.0001 182.9526,-243.0001"/>
</g>
<!-- Node317 -->
<g id="node5" class="node">
<title>Node317</title>
<g id="a_node5"><a xlink:href="class_lattice_action_charge_density.html#acda2a43db75cca34586441d4ac7ec39e" target="_top" xlink:title=" ">
<polygon fill="#ffffff" stroke="#000000" points="6.0986,-178.5 6.0986,-206.5 151.0537,-206.5 151.0537,-178.5 6.0986,-178.5"/>
<text text-anchor="start" x="14.0986" y="-194.5" font-family="Helvetica,sans-Serif" font-size="10.00" fill="#000000">LatticeActionChargeDensity</text>
<text text-anchor="middle" x="78.5762" y="-184.5" font-family="Helvetica,sans-Serif" font-size="10.00" fill="#000000">::LatticeActionChargeDensity</text>
</a>
</g>
</g>
<!-- Node316&#45;&gt;Node317 -->
<g id="edge4" class="edge">
<title>Node316&#45;&gt;Node317</title>
<path fill="none" stroke="#191970" d="M189.6762,-192.5C176.9654,-192.5 163.8745,-192.5 151.3383,-192.5"/>
<polygon fill="#191970" stroke="#191970" points="189.7707,-196.0001 199.7707,-192.5 189.7706,-189.0001 189.7707,-196.0001"/>
</g>
<!-- Node319 -->
<g id="node7" class="node">
<title>Node319</title>
<g id="a_node7"><a xlink:href="class_master_sampler.html#ac5ee503e8391aca36f73872a45bb6bd9" target="_top" xlink:title=" ">
<polygon fill="#ffffff" stroke="#000000" points="0,-136.5 0,-154.5 157.1523,-154.5 157.1523,-136.5 0,-136.5"/>
<text text-anchor="middle" x="78.5762" y="-142.5" font-family="Helvetica,sans-Serif" font-size="10.00" fill="#000000">MasterSampler::MasterSampler</text>
</a>
</g>
</g>
<!-- Node318&#45;&gt;Node319 -->
<g id="edge6" class="edge">
<title>Node318&#45;&gt;Node319</title>
<path fill="none" stroke="#191970" d="M196.7799,-145.5C183.862,-145.5 170.3545,-145.5 157.28,-145.5"/>
<polygon fill="#191970" stroke="#191970" points="196.994,-149.0001 206.9939,-145.5 196.9939,-142.0001 196.994,-149.0001"/>
</g>
<!-- Node321 -->
<g id="node9" class="node">
<title>Node321</title>
<g id="a_node9"><a xlink:href="class_master_sampler_topc_x_y_z.html#ad8ba8f2c50c66d823c551f71fd62a99b" target="_top" xlink:title=" ">
<polygon fill="#ffffff" stroke="#000000" points="13.6133,-84.5 13.6133,-112.5 143.5391,-112.5 143.5391,-84.5 13.6133,-84.5"/>
<text text-anchor="start" x="21.6133" y="-100.5" font-family="Helvetica,sans-Serif" font-size="10.00" fill="#000000">MasterSamplerTopcXYZ</text>
<text text-anchor="middle" x="78.5762" y="-90.5" font-family="Helvetica,sans-Serif" font-size="10.00" fill="#000000">::MasterSamplerTopcXYZ</text>
</a>
</g>
</g>
<!-- Node320&#45;&gt;Node321 -->
<g id="edge8" class="edge">
<title>Node320&#45;&gt;Node321</title>
<path fill="none" stroke="#191970" d="M191.3561,-98.5C175.5043,-98.5 158.9937,-98.5 143.6521,-98.5"/>
<polygon fill="#191970" stroke="#191970" points="191.659,-102.0001 201.6589,-98.5 191.6589,-95.0001 191.659,-102.0001"/>
</g>
<!-- Node323 -->
<g id="node11" class="node">
<title>Node323</title>
<g id="a_node11"><a xlink:href="class_super_sampler.html#a6bf01b68f9befc5bf01c822e28c0c88d" target="_top" xlink:title=" ">
<polygon fill="#ffffff" stroke="#000000" points="3.877,-42.5 3.877,-60.5 153.2754,-60.5 153.2754,-42.5 3.877,-42.5"/>
<text text-anchor="middle" x="78.5762" y="-48.5" font-family="Helvetica,sans-Serif" font-size="10.00" fill="#000000">SuperSampler::SuperSampler</text>
</a>
</g>
</g>
<!-- Node322&#45;&gt;Node323 -->
<g id="edge10" class="edge">
<title>Node322&#45;&gt;Node323</title>
<path fill="none" stroke="#191970" d="M198.7753,-51.5C184.0176,-51.5 168.4131,-51.5 153.5096,-51.5"/>
<polygon fill="#191970" stroke="#191970" points="198.8379,-55.0001 208.8378,-51.5 198.8378,-48.0001 198.8379,-55.0001"/>
</g>
</g>
</svg>
