<?xml version="1.0" encoding="UTF-8" standalone="no"?>
<!DOCTYPE svg PUBLIC "-//W3C//DTD SVG 1.1//EN"
 "http://www.w3.org/Graphics/SVG/1.1/DTD/svg11.dtd">
<!-- Generated by graphviz version 2.40.1 (20161225.0304)
 -->
<!-- Title: Parallel::Neighbours::initialize Pages: 1 -->
<svg width="410pt" height="37pt"
 viewBox="0.00 0.00 409.80 37.00" xmlns="http://www.w3.org/2000/svg" xmlns:xlink="http://www.w3.org/1999/xlink">
<g id="graph0" class="graph" transform="scale(1 1) rotate(0) translate(4 33)">
<title>Parallel::Neighbours::initialize</title>
<polygon fill="#ffffff" stroke="transparent" points="-4,4 -4,-33 405.7969,-33 405.7969,4 -4,4"/>
<!-- Node35 -->
<g id="node1" class="node">
<title>Node35</title>
<g id="a_node1"><a xlink:title="Parallel::Neighbours::initialize initializes.">
<polygon fill="#bfbfbf" stroke="#000000" points="295.748,-.5 295.748,-28.5 401.7969,-28.5 401.7969,-.5 295.748,-.5"/>
<text text-anchor="start" x="303.748" y="-16.5" font-family="Helvetica,sans-Serif" font-size="10.00" fill="#000000">Parallel::Neighbours</text>
<text text-anchor="middle" x="348.7725" y="-6.5" font-family="Helvetica,sans-Serif" font-size="10.00" fill="#000000">::initialize</text>
</a>
</g>
</g>
<!-- Node36 -->
<g id="node2" class="node">
<title>Node36</title>
<g id="a_node2"><a xlink:href="class_parallel_1_1_communicator.html#a3094d713d09225738ecf0250019db115" target="_top" xlink:title="Parallel::Communicator::initializeSubLattice.">
<polygon fill="#ffffff" stroke="#000000" points="139.8223,-.5 139.8223,-28.5 259.748,-28.5 259.748,-.5 139.8223,-.5"/>
<text text-anchor="start" x="147.8223" y="-16.5" font-family="Helvetica,sans-Serif" font-size="10.00" fill="#000000">Parallel::Communicator</text>
<text text-anchor="middle" x="199.7852" y="-6.5" font-family="Helvetica,sans-Serif" font-size="10.00" fill="#000000">::initializeSubLattice</text>
</a>
</g>
</g>
<!-- Node35&#45;&gt;Node36 -->
<g id="edge1" class="edge">
<title>Node35&#45;&gt;Node36</title>
<path fill="none" stroke="#191970" d="M285.2587,-14.5C276.838,-14.5 268.226,-14.5 259.8657,-14.5"/>
<polygon fill="#191970" stroke="#191970" points="285.4055,-18.0001 295.4054,-14.5 285.4054,-11.0001 285.4055,-18.0001"/>
</g>
<!-- Node37 -->
<g id="node3" class="node">
<title>Node37</title>
<g id="a_node3"><a xlink:href="class_test_suite.html#af7291e6d8b53443604ee0c1fcf1fadfc" target="_top" xlink:title=" ">
<polygon fill="#ffffff" stroke="#000000" points="0,-5.5 0,-23.5 103.8223,-23.5 103.8223,-5.5 0,-5.5"/>
<text text-anchor="middle" x="51.9111" y="-11.5" font-family="Helvetica,sans-Serif" font-size="10.00" fill="#000000">TestSuite::TestSuite</text>
</a>
</g>
</g>
<!-- Node36&#45;&gt;Node37 -->
<g id="edge2" class="edge">
<title>Node36&#45;&gt;Node37</title>
<path fill="none" stroke="#191970" d="M129.5664,-14.5C120.9353,-14.5 112.2365,-14.5 103.942,-14.5"/>
<polygon fill="#191970" stroke="#191970" points="129.6392,-18.0001 139.6391,-14.5 129.6391,-11.0001 129.6392,-18.0001"/>
</g>
</g>
</svg>
