<?xml version="1.0" encoding="UTF-8" standalone="no"?>
<!DOCTYPE svg PUBLIC "-//W3C//DTD SVG 1.1//EN"
 "http://www.w3.org/Graphics/SVG/1.1/DTD/svg11.dtd">
<!-- Generated by graphviz version 2.40.1 (20161225.0304)
 -->
<!-- Title: SuperSampler::initializeObservableStorer Pages: 1 -->
<svg width="356pt" height="232pt"
 viewBox="0.00 0.00 356.13 232.00" xmlns="http://www.w3.org/2000/svg" xmlns:xlink="http://www.w3.org/1999/xlink">
<g id="graph0" class="graph" transform="scale(1 1) rotate(0) translate(4 228)">
<title>SuperSampler::initializeObservableStorer</title>
<polygon fill="#ffffff" stroke="transparent" points="-4,4 -4,-228 352.127,-228 352.127,4 -4,4"/>
<!-- Node37 -->
<g id="node1" class="node">
<title>Node37</title>
<g id="a_node1"><a xlink:title="Correlator::initializeObservableStorer initializes ObservableStorer.">
<polygon fill="#bfbfbf" stroke="#000000" points="0,-97.5 0,-125.5 121.0488,-125.5 121.0488,-97.5 0,-97.5"/>
<text text-anchor="start" x="8" y="-113.5" font-family="Helvetica,sans-Serif" font-size="10.00" fill="#000000">SuperSampler::initialize</text>
<text text-anchor="middle" x="60.5244" y="-103.5" font-family="Helvetica,sans-Serif" font-size="10.00" fill="#000000">ObservableStorer</text>
</a>
</g>
</g>
<!-- Node38 -->
<g id="node2" class="node">
<title>Node38</title>
<g id="a_node2"><a xlink:href="class_parameters.html#aae314edb18d426571ab7b6df60da70aa" target="_top" xlink:title=" ">
<polygon fill="#ffffff" stroke="#000000" points="192.3491,-205.5 192.3491,-223.5 312.8267,-223.5 312.8267,-205.5 192.3491,-205.5"/>
<text text-anchor="middle" x="252.5879" y="-211.5" font-family="Helvetica,sans-Serif" font-size="10.00" fill="#000000">Parameters::getNFlows</text>
</a>
</g>
</g>
<!-- Node37&#45;&gt;Node38 -->
<g id="edge1" class="edge">
<title>Node37&#45;&gt;Node38</title>
<path fill="none" stroke="#191970" d="M71.9988,-125.5086C88.6178,-144.7815 121.3312,-179.065 157.0488,-196.5 164.9284,-200.3463 173.5443,-203.3728 182.2731,-205.7538"/>
<polygon fill="#191970" stroke="#191970" points="181.5969,-209.1916 192.143,-208.1771 183.266,-202.3935 181.5969,-209.1916"/>
</g>
<!-- Node39 -->
<g id="node3" class="node">
<title>Node39</title>
<g id="a_node3"><a xlink:href="class_parameters.html#a216f85b3c5980a33f8a54c42fb3575c7" target="_top" xlink:title=" ">
<polygon fill="#ffffff" stroke="#000000" points="164.2754,-158.5 164.2754,-186.5 340.9004,-186.5 340.9004,-158.5 164.2754,-158.5"/>
<text text-anchor="start" x="172.2754" y="-174.5" font-family="Helvetica,sans-Serif" font-size="10.00" fill="#000000">Parameters::getStoreThermalization</text>
<text text-anchor="middle" x="252.5879" y="-164.5" font-family="Helvetica,sans-Serif" font-size="10.00" fill="#000000">Observables</text>
</a>
</g>
</g>
<!-- Node37&#45;&gt;Node39 -->
<g id="edge2" class="edge">
<title>Node37&#45;&gt;Node39</title>
<path fill="none" stroke="#191970" d="M93.1763,-125.6628C111.6875,-133.3596 135.4085,-142.6717 157.0488,-149.5 164.1192,-151.7309 171.5422,-153.8672 178.9944,-155.8767"/>
<polygon fill="#191970" stroke="#191970" points="178.22,-159.2919 188.7807,-158.4427 179.9954,-152.5208 178.22,-159.2919"/>
</g>
<!-- Node40 -->
<g id="node4" class="node">
<title>Node40</title>
<g id="a_node4"><a xlink:href="class_parameters.html#a03f8c0aa2a31b9bfc016441cb263082c" target="_top" xlink:title=" ">
<polygon fill="#ffffff" stroke="#000000" points="200.4058,-121.5 200.4058,-139.5 304.77,-139.5 304.77,-121.5 200.4058,-121.5"/>
<text text-anchor="middle" x="252.5879" y="-127.5" font-family="Helvetica,sans-Serif" font-size="10.00" fill="#000000">Parameters::getNCf</text>
</a>
</g>
</g>
<!-- Node37&#45;&gt;Node40 -->
<g id="edge3" class="edge">
<title>Node37&#45;&gt;Node40</title>
<path fill="none" stroke="#191970" d="M121.2945,-117.5117C143.3096,-119.6896 168.1959,-122.1515 190.3366,-124.3418"/>
<polygon fill="#191970" stroke="#191970" points="190,-127.8255 200.296,-125.327 190.6892,-120.8595 190,-127.8255"/>
</g>
<!-- Node41 -->
<g id="node5" class="node">
<title>Node41</title>
<g id="a_node5"><a xlink:href="class_parameters.html#ad1f56cc1bb6c19f40454b30a5bc82da6" target="_top" xlink:title=" ">
<polygon fill="#ffffff" stroke="#000000" points="190.96,-84.5 190.96,-102.5 314.2158,-102.5 314.2158,-84.5 190.96,-84.5"/>
<text text-anchor="middle" x="252.5879" y="-90.5" font-family="Helvetica,sans-Serif" font-size="10.00" fill="#000000">Parameters::getNTherm</text>
</a>
</g>
</g>
<!-- Node37&#45;&gt;Node41 -->
<g id="edge4" class="edge">
<title>Node37&#45;&gt;Node41</title>
<path fill="none" stroke="#191970" d="M121.2945,-105.8047C140.1989,-104.033 161.2205,-102.0629 180.8028,-100.2276"/>
<polygon fill="#191970" stroke="#191970" points="181.2632,-103.6999 190.893,-99.282 180.61,-96.7304 181.2632,-103.6999"/>
</g>
<!-- Node42 -->
<g id="node6" class="node">
<title>Node42</title>
<g id="a_node6"><a xlink:href="class_observable_storer.html#a6177ade7609fb0e4b739955eecba20e6" target="_top" xlink:title=" ">
<polygon fill="#ffffff" stroke="#000000" points="173.4502,-37.5 173.4502,-65.5 331.7256,-65.5 331.7256,-37.5 173.4502,-37.5"/>
<text text-anchor="start" x="181.4502" y="-53.5" font-family="Helvetica,sans-Serif" font-size="10.00" fill="#000000">ObservableStorer::setNormalize</text>
<text text-anchor="middle" x="252.5879" y="-43.5" font-family="Helvetica,sans-Serif" font-size="10.00" fill="#000000">ObservableByProcessor</text>
</a>
</g>
</g>
<!-- Node37&#45;&gt;Node42 -->
<g id="edge5" class="edge">
<title>Node37&#45;&gt;Node42</title>
<path fill="none" stroke="#191970" d="M95.5017,-97.3871C113.6901,-90.3215 136.3841,-81.9274 157.0488,-75.5 165.295,-72.9352 174.0052,-70.4484 182.6757,-68.1086"/>
<polygon fill="#191970" stroke="#191970" points="183.6473,-71.4721 192.4211,-65.5331 181.8587,-64.7044 183.6473,-71.4721"/>
</g>
<!-- Node43 -->
<g id="node7" class="node">
<title>Node43</title>
<g id="a_node7"><a xlink:href="class_observable_storer.html#a7f4847c4fdbf8764d8f07950c4d4b62a" target="_top" xlink:title=" ">
<polygon fill="#ffffff" stroke="#000000" points="157.0488,-.5 157.0488,-18.5 348.127,-18.5 348.127,-.5 157.0488,-.5"/>
<text text-anchor="middle" x="252.5879" y="-6.5" font-family="Helvetica,sans-Serif" font-size="10.00" fill="#000000">ObservableStorer::setObservableName</text>
</a>
</g>
</g>
<!-- Node37&#45;&gt;Node43 -->
<g id="edge6" class="edge">
<title>Node37&#45;&gt;Node43</title>
<path fill="none" stroke="#191970" d="M72.6665,-97.2397C89.5695,-78.3763 122.0785,-45.5333 157.0488,-28.5 162.6861,-25.7542 168.6946,-23.4052 174.8486,-21.3957"/>
<polygon fill="#191970" stroke="#191970" points="176.01,-24.7021 184.6063,-18.509 174.0242,-17.9897 176.01,-24.7021"/>
</g>
</g>
</svg>
