<?xml version="1.0" encoding="UTF-8" standalone="no"?>
<!DOCTYPE svg PUBLIC "-//W3C//DTD SVG 1.1//EN"
 "http://www.w3.org/Graphics/SVG/1.1/DTD/svg11.dtd">
<!-- Generated by graphviz version 2.40.1 (20161225.0304)
 -->
<!-- Title: nlohmann::basic_json::operator+= Pages: 1 -->
<svg width="418pt" height="131pt"
 viewBox="0.00 0.00 418.19 131.00" xmlns="http://www.w3.org/2000/svg" xmlns:xlink="http://www.w3.org/1999/xlink">
<g id="graph0" class="graph" transform="scale(1 1) rotate(0) translate(4 127)">
<title>nlohmann::basic_json::operator+=</title>
<polygon fill="#ffffff" stroke="transparent" points="-4,4 -4,-127 414.1855,-127 414.1855,4 -4,4"/>
<!-- Node333 -->
<g id="node1" class="node">
<title>Node333</title>
<g id="a_node1"><a xlink:title="add an object to an array">
<polygon fill="#bfbfbf" stroke="#000000" points="0,-47.5 0,-75.5 112.7285,-75.5 112.7285,-47.5 0,-47.5"/>
<text text-anchor="start" x="8" y="-63.5" font-family="Helvetica,sans-Serif" font-size="10.00" fill="#000000">nlohmann::basic_json</text>
<text text-anchor="middle" x="56.3643" y="-53.5" font-family="Helvetica,sans-Serif" font-size="10.00" fill="#000000">::operator+=</text>
</a>
</g>
</g>
<!-- Node334 -->
<g id="node2" class="node">
<title>Node334</title>
<g id="a_node2"><a xlink:href="classnlohmann_1_1basic__json.html#ac8e523ddc8c2dd7e5d2daf0d49a9c0d7" target="_top" xlink:title="add an object to an array">
<polygon fill="#ffffff" stroke="#000000" points="148.7285,-47.5 148.7285,-75.5 261.457,-75.5 261.457,-47.5 148.7285,-47.5"/>
<text text-anchor="start" x="156.7285" y="-63.5" font-family="Helvetica,sans-Serif" font-size="10.00" fill="#000000">nlohmann::basic_json</text>
<text text-anchor="middle" x="205.0928" y="-53.5" font-family="Helvetica,sans-Serif" font-size="10.00" fill="#000000">::push_back</text>
</a>
</g>
</g>
<!-- Node333&#45;&gt;Node334 -->
<g id="edge1" class="edge">
<title>Node333&#45;&gt;Node334</title>
<path fill="none" stroke="#191970" d="M113.0164,-61.5C121.3038,-61.5 129.9027,-61.5 138.3682,-61.5"/>
<polygon fill="#191970" stroke="#191970" points="138.5982,-65.0001 148.5981,-61.5 138.5981,-58.0001 138.5982,-65.0001"/>
</g>
<!-- Node335 -->
<g id="node3" class="node">
<title>Node335</title>
<g id="a_node3"><a xlink:href="classnlohmann_1_1basic__json.html#a8faa039ca82427ed29c486ffd00600c3" target="_top" xlink:title="return whether value is null">
<polygon fill="#ffffff" stroke="#000000" points="297.457,-94.5 297.457,-122.5 410.1855,-122.5 410.1855,-94.5 297.457,-94.5"/>
<text text-anchor="start" x="305.457" y="-110.5" font-family="Helvetica,sans-Serif" font-size="10.00" fill="#000000">nlohmann::basic_json</text>
<text text-anchor="middle" x="353.8213" y="-100.5" font-family="Helvetica,sans-Serif" font-size="10.00" fill="#000000">::is_null</text>
</a>
</g>
</g>
<!-- Node334&#45;&gt;Node335 -->
<g id="edge2" class="edge">
<title>Node334&#45;&gt;Node335</title>
<path fill="none" stroke="#191970" d="M249.7162,-75.6015C265.3758,-80.5502 283.142,-86.1645 299.508,-91.3363"/>
<polygon fill="#191970" stroke="#191970" points="298.8959,-94.8135 309.4858,-94.4894 301.0052,-88.1388 298.8959,-94.8135"/>
</g>
<!-- Node336 -->
<g id="node4" class="node">
<title>Node336</title>
<g id="a_node4"><a xlink:href="classnlohmann_1_1basic__json.html#aef9ce5dd2381caee1f8ddcdb5bdd9c65" target="_top" xlink:title="return whether value is an array">
<polygon fill="#ffffff" stroke="#000000" points="297.457,-47.5 297.457,-75.5 410.1855,-75.5 410.1855,-47.5 297.457,-47.5"/>
<text text-anchor="start" x="305.457" y="-63.5" font-family="Helvetica,sans-Serif" font-size="10.00" fill="#000000">nlohmann::basic_json</text>
<text text-anchor="middle" x="353.8213" y="-53.5" font-family="Helvetica,sans-Serif" font-size="10.00" fill="#000000">::is_array</text>
</a>
</g>
</g>
<!-- Node334&#45;&gt;Node336 -->
<g id="edge3" class="edge">
<title>Node334&#45;&gt;Node336</title>
<path fill="none" stroke="#191970" d="M261.7449,-61.5C270.0323,-61.5 278.6312,-61.5 287.0967,-61.5"/>
<polygon fill="#191970" stroke="#191970" points="287.3267,-65.0001 297.3266,-61.5 287.3266,-58.0001 287.3267,-65.0001"/>
</g>
<!-- Node337 -->
<g id="node5" class="node">
<title>Node337</title>
<g id="a_node5"><a xlink:href="classnlohmann_1_1basic__json.html#a6b75862bdb4d26650616cf9821430755" target="_top" xlink:title="return the type as string">
<polygon fill="#ffffff" stroke="#000000" points="297.457,-.5 297.457,-28.5 410.1855,-28.5 410.1855,-.5 297.457,-.5"/>
<text text-anchor="start" x="305.457" y="-16.5" font-family="Helvetica,sans-Serif" font-size="10.00" fill="#000000">nlohmann::basic_json</text>
<text text-anchor="middle" x="353.8213" y="-6.5" font-family="Helvetica,sans-Serif" font-size="10.00" fill="#000000">::type_name</text>
</a>
</g>
</g>
<!-- Node334&#45;&gt;Node337 -->
<g id="edge4" class="edge">
<title>Node334&#45;&gt;Node337</title>
<path fill="none" stroke="#191970" d="M249.7162,-47.3985C265.3758,-42.4498 283.142,-36.8355 299.508,-31.6637"/>
<polygon fill="#191970" stroke="#191970" points="301.0052,-34.8612 309.4858,-28.5106 298.8959,-28.1865 301.0052,-34.8612"/>
</g>
</g>
</svg>
