<?xml version="1.0" encoding="UTF-8" standalone="no"?>
<!DOCTYPE svg PUBLIC "-//W3C//DTD SVG 1.1//EN"
 "http://www.w3.org/Graphics/SVG/1.1/DTD/svg11.dtd">
<!-- Generated by graphviz version 2.40.1 (20161225.0304)
 -->
<!-- Title: Parallel::Communicator::reduceToTemporalDimension Pages: 1 -->
<svg width="358pt" height="111pt"
 viewBox="0.00 0.00 358.35 111.00" xmlns="http://www.w3.org/2000/svg" xmlns:xlink="http://www.w3.org/1999/xlink">
<g id="graph0" class="graph" transform="scale(1 1) rotate(0) translate(4 107)">
<title>Parallel::Communicator::reduceToTemporalDimension</title>
<polygon fill="#ffffff" stroke="transparent" points="-4,4 -4,-107 354.3535,-107 354.3535,4 -4,4"/>
<!-- Node146 -->
<g id="node1" class="node">
<title>Node146</title>
<g id="a_node1"><a xlink:title="Parallel::Communicator::reduceToTemporalDimension reduces the results to the temporal dimensions,...">
<polygon fill="#bfbfbf" stroke="#000000" points="0,-42.5 0,-70.5 151.0635,-70.5 151.0635,-42.5 0,-42.5"/>
<text text-anchor="start" x="8" y="-58.5" font-family="Helvetica,sans-Serif" font-size="10.00" fill="#000000">Parallel::Communicator</text>
<text text-anchor="middle" x="75.5317" y="-48.5" font-family="Helvetica,sans-Serif" font-size="10.00" fill="#000000">::reduceToTemporalDimension</text>
</a>
</g>
</g>
<!-- Node147 -->
<g id="node2" class="node">
<title>Node147</title>
<g id="a_node2"><a xlink:href="class_parameters.html#a237ea1286459e8c648e983464829fe8d" target="_top" xlink:title=" ">
<polygon fill="#ffffff" stroke="#000000" points="200.9624,-84.5 200.9624,-102.5 336.4546,-102.5 336.4546,-84.5 200.9624,-84.5"/>
<text text-anchor="middle" x="268.7085" y="-90.5" font-family="Helvetica,sans-Serif" font-size="10.00" fill="#000000">Parameters::getNTemporal</text>
</a>
</g>
</g>
<!-- Node146&#45;&gt;Node147 -->
<g id="edge1" class="edge">
<title>Node146&#45;&gt;Node147</title>
<path fill="none" stroke="#191970" d="M148.839,-70.5409C169.5623,-74.5101 191.8059,-78.7705 211.4368,-82.5305"/>
<polygon fill="#191970" stroke="#191970" points="210.9626,-86.0032 221.4425,-84.4469 212.2794,-79.1282 210.9626,-86.0032"/>
</g>
<!-- Node148 -->
<g id="node3" class="node">
<title>Node148</title>
<g id="a_node3"><a xlink:href="class_parameters.html#aae314edb18d426571ab7b6df60da70aa" target="_top" xlink:title=" ">
<polygon fill="#ffffff" stroke="#000000" points="208.4697,-47.5 208.4697,-65.5 328.9473,-65.5 328.9473,-47.5 208.4697,-47.5"/>
<text text-anchor="middle" x="268.7085" y="-53.5" font-family="Helvetica,sans-Serif" font-size="10.00" fill="#000000">Parameters::getNFlows</text>
</a>
</g>
</g>
<!-- Node146&#45;&gt;Node148 -->
<g id="edge2" class="edge">
<title>Node146&#45;&gt;Node148</title>
<path fill="none" stroke="#191970" d="M151.3259,-56.5C166.6989,-56.5 182.8098,-56.5 197.9988,-56.5"/>
<polygon fill="#191970" stroke="#191970" points="198.3467,-60.0001 208.3467,-56.5 198.3466,-53.0001 198.3467,-60.0001"/>
</g>
<!-- Node149 -->
<g id="node4" class="node">
<title>Node149</title>
<g id="a_node4"><a xlink:href="class_parallel_1_1_neighbours.html#ad1a2a616b4089eded3545faf11409b85" target="_top" xlink:title=" ">
<polygon fill="#ffffff" stroke="#000000" points="187.0635,-.5 187.0635,-28.5 350.3535,-28.5 350.3535,-.5 187.0635,-.5"/>
<text text-anchor="start" x="195.0635" y="-16.5" font-family="Helvetica,sans-Serif" font-size="10.00" fill="#000000">Parallel::Neighbours</text>
<text text-anchor="middle" x="268.7085" y="-6.5" font-family="Helvetica,sans-Serif" font-size="10.00" fill="#000000">::getProcessorDimensionPosition</text>
</a>
</g>
</g>
<!-- Node146&#45;&gt;Node149 -->
<g id="edge3" class="edge">
<title>Node146&#45;&gt;Node149</title>
<path fill="none" stroke="#191970" d="M140.1254,-42.4562C157.5239,-38.6735 176.4838,-34.5513 194.3677,-30.663"/>
<polygon fill="#191970" stroke="#191970" points="195.1476,-34.0753 204.1757,-28.5306 193.6604,-27.2351 195.1476,-34.0753"/>
</g>
</g>
</svg>
