<?xml version="1.0" encoding="UTF-8" standalone="no"?>
<!DOCTYPE svg PUBLIC "-//W3C//DTD SVG 1.1//EN"
 "http://www.w3.org/Graphics/SVG/1.1/DTD/svg11.dtd">
<!-- Generated by graphviz version 2.40.1 (20161225.0304)
 -->
<!-- Title: SU3::identity Pages: 1 -->
<svg width="255pt" height="175pt"
 viewBox="0.00 0.00 254.97 175.00" xmlns="http://www.w3.org/2000/svg" xmlns:xlink="http://www.w3.org/1999/xlink">
<g id="graph0" class="graph" transform="scale(1 1) rotate(0) translate(4 171)">
<title>SU3::identity</title>
<polygon fill="#ffffff" stroke="transparent" points="-4,4 -4,-171 250.9697,-171 250.9697,4 -4,4"/>
<!-- Node10 -->
<g id="node1" class="node">
<title>Node10</title>
<g id="a_node1"><a xlink:title=" ">
<polygon fill="#bfbfbf" stroke="#000000" points="174.2754,-74.5 174.2754,-92.5 246.9697,-92.5 246.9697,-74.5 174.2754,-74.5"/>
<text text-anchor="middle" x="210.6226" y="-80.5" font-family="Helvetica,sans-Serif" font-size="10.00" fill="#000000">SU3::identity</text>
</a>
</g>
</g>
<!-- Node11 -->
<g id="node2" class="node">
<title>Node11</title>
<g id="a_node2"><a xlink:href="class_taylor2_exp.html#ac3b48be4c567e163f7baaa041121a93f" target="_top" xlink:title=" ">
<polygon fill="#ffffff" stroke="#000000" points="8.8916,-148.5 8.8916,-166.5 129.3838,-166.5 129.3838,-148.5 8.8916,-148.5"/>
<text text-anchor="middle" x="69.1377" y="-154.5" font-family="Helvetica,sans-Serif" font-size="10.00" fill="#000000">Taylor2Exp::Taylor2Exp</text>
</a>
</g>
</g>
<!-- Node10&#45;&gt;Node11 -->
<g id="edge1" class="edge">
<title>Node10&#45;&gt;Node11</title>
<path fill="none" stroke="#191970" d="M193.486,-100.0327C179.6224,-112.5547 159.0528,-129.291 138.2754,-139.5 130.9283,-143.11 122.7741,-146.055 114.7174,-148.438"/>
<polygon fill="#191970" stroke="#191970" points="196.2465,-102.2457 201.1933,-92.8766 191.4835,-97.1159 196.2465,-102.2457"/>
</g>
<!-- Node12 -->
<g id="node3" class="node">
<title>Node12</title>
<g id="a_node3"><a xlink:href="class_taylor4_exp.html#a0eac1c3288d296110c6a5e11acc0934d" target="_top" xlink:title=" ">
<polygon fill="#ffffff" stroke="#000000" points="8.8916,-111.5 8.8916,-129.5 129.3838,-129.5 129.3838,-111.5 8.8916,-111.5"/>
<text text-anchor="middle" x="69.1377" y="-117.5" font-family="Helvetica,sans-Serif" font-size="10.00" fill="#000000">Taylor4Exp::Taylor4Exp</text>
</a>
</g>
</g>
<!-- Node10&#45;&gt;Node12 -->
<g id="edge2" class="edge">
<title>Node10&#45;&gt;Node12</title>
<path fill="none" stroke="#191970" d="M166.5147,-95.0997C157.1908,-97.5473 147.4096,-100.1115 138.2754,-102.5 127.1156,-105.4181 114.9398,-108.5916 103.9589,-111.4497"/>
<polygon fill="#191970" stroke="#191970" points="167.6175,-98.4288 176.4004,-92.5035 165.8393,-91.6584 167.6175,-98.4288"/>
</g>
<!-- Node13 -->
<g id="node4" class="node">
<title>Node13</title>
<g id="a_node4"><a xlink:href="class_taylor_exp.html#ac8929cf53cb6b8d109220c8284169a82" target="_top" xlink:title=" ">
<polygon fill="#ffffff" stroke="#000000" points="14.4531,-74.5 14.4531,-92.5 123.8223,-92.5 123.8223,-74.5 14.4531,-74.5"/>
<text text-anchor="middle" x="69.1377" y="-80.5" font-family="Helvetica,sans-Serif" font-size="10.00" fill="#000000">TaylorExp::TaylorExp</text>
</a>
</g>
</g>
<!-- Node10&#45;&gt;Node13 -->
<g id="edge3" class="edge">
<title>Node10&#45;&gt;Node13</title>
<path fill="none" stroke="#191970" d="M164.1587,-83.5C151.2799,-83.5 137.1794,-83.5 123.8758,-83.5"/>
<polygon fill="#191970" stroke="#191970" points="164.1867,-87.0001 174.1867,-83.5 164.1867,-80.0001 164.1867,-87.0001"/>
</g>
<!-- Node14 -->
<g id="node5" class="node">
<title>Node14</title>
<g id="a_node5"><a xlink:href="class_taylor_exp.html#a622c4af7d88a43a7bcda97722b62fc82" target="_top" xlink:title=" ">
<polygon fill="#ffffff" stroke="#000000" points="28.3447,-37.5 28.3447,-55.5 109.9307,-55.5 109.9307,-37.5 28.3447,-37.5"/>
<text text-anchor="middle" x="69.1377" y="-43.5" font-family="Helvetica,sans-Serif" font-size="10.00" fill="#000000">TaylorExp::exp</text>
</a>
</g>
</g>
<!-- Node10&#45;&gt;Node14 -->
<g id="edge4" class="edge">
<title>Node10&#45;&gt;Node14</title>
<path fill="none" stroke="#191970" d="M166.1465,-71.869C146.051,-66.6138 122.6598,-60.4967 103.8818,-55.586"/>
<polygon fill="#191970" stroke="#191970" points="165.4513,-75.3048 176.0115,-74.4488 167.2224,-68.5325 165.4513,-75.3048"/>
</g>
<!-- Node15 -->
<g id="node6" class="node">
<title>Node15</title>
<g id="a_node6"><a xlink:href="class_taylor_exp.html#a6a048363483f372300e412b27f218773" target="_top" xlink:title="TaylorExp::setTaylorDegree.">
<polygon fill="#ffffff" stroke="#000000" points="0,-.5 0,-18.5 138.2754,-18.5 138.2754,-.5 0,-.5"/>
<text text-anchor="middle" x="69.1377" y="-6.5" font-family="Helvetica,sans-Serif" font-size="10.00" fill="#000000">TaylorExp::setTaylorDegree</text>
</a>
</g>
</g>
<!-- Node10&#45;&gt;Node15 -->
<g id="edge5" class="edge">
<title>Node10&#45;&gt;Node15</title>
<path fill="none" stroke="#191970" d="M193.3955,-67.3537C179.4824,-55.1053 158.8902,-38.6905 138.2754,-28.5 130.1293,-24.4731 121.0071,-21.1978 112.1279,-18.573"/>
<polygon fill="#191970" stroke="#191970" points="191.3699,-70.2406 201.1358,-74.3488 196.0633,-65.0471 191.3699,-70.2406"/>
</g>
</g>
</svg>
