<?xml version="1.0" encoding="UTF-8" standalone="no"?>
<!DOCTYPE svg PUBLIC "-//W3C//DTD SVG 1.1//EN"
 "http://www.w3.org/Graphics/SVG/1.1/DTD/svg11.dtd">
<!-- Generated by graphviz version 2.40.1 (20161225.0304)
 -->
<!-- Title: ObservableStorer::writeFlowObservableToFile Pages: 1 -->
<svg width="370pt" height="225pt"
 viewBox="0.00 0.00 369.99 225.00" xmlns="http://www.w3.org/2000/svg" xmlns:xlink="http://www.w3.org/1999/xlink">
<g id="graph0" class="graph" transform="scale(1 1) rotate(0) translate(4 221)">
<title>ObservableStorer::writeFlowObservableToFile</title>
<polygon fill="#ffffff" stroke="transparent" points="-4,4 -4,-221 365.9941,-221 365.9941,4 -4,4"/>
<!-- Node103 -->
<g id="node1" class="node">
<title>Node103</title>
<g id="a_node1"><a xlink:title="ObservableStorer::writeFlowObservableToFile.">
<polygon fill="#bfbfbf" stroke="#000000" points="219.8418,-94.5 219.8418,-122.5 361.9941,-122.5 361.9941,-94.5 219.8418,-94.5"/>
<text text-anchor="start" x="227.8418" y="-110.5" font-family="Helvetica,sans-Serif" font-size="10.00" fill="#000000">ObservableStorer::writeFlow</text>
<text text-anchor="middle" x="290.918" y="-100.5" font-family="Helvetica,sans-Serif" font-size="10.00" fill="#000000">ObservableToFile</text>
</a>
</g>
</g>
<!-- Node104 -->
<g id="node2" class="node">
<title>Node104</title>
<g id="a_node2"><a xlink:href="class_correlator.html#a168512b2ce182d9478db47f100125fa6" target="_top" xlink:title="Correlator::writeFlowObservablesToFile.">
<polygon fill="#ffffff" stroke="#000000" points="9.7314,-188.5 9.7314,-216.5 174.1104,-216.5 174.1104,-188.5 9.7314,-188.5"/>
<text text-anchor="start" x="17.7314" y="-204.5" font-family="Helvetica,sans-Serif" font-size="10.00" fill="#000000">Correlator::writeFlowObservables</text>
<text text-anchor="middle" x="91.9209" y="-194.5" font-family="Helvetica,sans-Serif" font-size="10.00" fill="#000000">ToFile</text>
</a>
</g>
</g>
<!-- Node103&#45;&gt;Node104 -->
<g id="edge1" class="edge">
<title>Node103&#45;&gt;Node104</title>
<path fill="none" stroke="#191970" d="M265.8077,-128.746C244.9706,-144.6312 213.9763,-166.2106 183.8418,-179.5 176.1654,-182.8853 167.8994,-185.8346 159.5834,-188.3873"/>
<polygon fill="#191970" stroke="#191970" points="268.0536,-131.4336 273.8132,-122.541 263.7652,-125.9009 268.0536,-131.4336"/>
</g>
<!-- Node105 -->
<g id="node3" class="node">
<title>Node105</title>
<g id="a_node3"><a xlink:href="class_lattice_action_charge_density.html#a54226556dc1497c311e4a4d50bf44c26" target="_top" xlink:title="Correlator::writeFlowObservablesToFile.">
<polygon fill="#ffffff" stroke="#000000" points="18.623,-141.5 18.623,-169.5 165.2188,-169.5 165.2188,-141.5 18.623,-141.5"/>
<text text-anchor="start" x="26.623" y="-157.5" font-family="Helvetica,sans-Serif" font-size="10.00" fill="#000000">LatticeActionChargeDensity</text>
<text text-anchor="middle" x="91.9209" y="-147.5" font-family="Helvetica,sans-Serif" font-size="10.00" fill="#000000">::writeFlowObservablesToFile</text>
</a>
</g>
</g>
<!-- Node103&#45;&gt;Node105 -->
<g id="edge2" class="edge">
<title>Node103&#45;&gt;Node105</title>
<path fill="none" stroke="#191970" d="M221.5046,-124.8944C198.6445,-130.2935 173.4457,-136.2451 151.3944,-141.4533"/>
<polygon fill="#191970" stroke="#191970" points="222.5541,-128.2428 231.4818,-122.5379 220.9451,-121.4303 222.5541,-128.2428"/>
</g>
<!-- Node106 -->
<g id="node4" class="node">
<title>Node106</title>
<g id="a_node4"><a xlink:href="class_master_sampler.html#ad475928217ac61fae134128904aaa9f8" target="_top" xlink:title="Correlator::writeFlowObservablesToFile.">
<polygon fill="#ffffff" stroke="#000000" points="26.1304,-94.5 26.1304,-122.5 157.7114,-122.5 157.7114,-94.5 26.1304,-94.5"/>
<text text-anchor="start" x="34.1304" y="-110.5" font-family="Helvetica,sans-Serif" font-size="10.00" fill="#000000">MasterSampler::writeFlow</text>
<text text-anchor="middle" x="91.9209" y="-100.5" font-family="Helvetica,sans-Serif" font-size="10.00" fill="#000000">ObservablesToFile</text>
</a>
</g>
</g>
<!-- Node103&#45;&gt;Node106 -->
<g id="edge3" class="edge">
<title>Node103&#45;&gt;Node106</title>
<path fill="none" stroke="#191970" d="M209.5824,-108.5C192.3286,-108.5 174.3206,-108.5 157.7296,-108.5"/>
<polygon fill="#191970" stroke="#191970" points="209.6376,-112.0001 219.6375,-108.5 209.6375,-105.0001 209.6376,-112.0001"/>
</g>
<!-- Node107 -->
<g id="node5" class="node">
<title>Node107</title>
<g id="a_node5"><a xlink:href="class_master_sampler_topc_x_y_z.html#a4fba4290e4406e18ef3f2904c6ae364f" target="_top" xlink:title="Correlator::writeFlowObservablesToFile.">
<polygon fill="#ffffff" stroke="#000000" points="18.623,-47.5 18.623,-75.5 165.2188,-75.5 165.2188,-47.5 18.623,-47.5"/>
<text text-anchor="start" x="26.623" y="-63.5" font-family="Helvetica,sans-Serif" font-size="10.00" fill="#000000">MasterSamplerTopcXYZ</text>
<text text-anchor="middle" x="91.9209" y="-53.5" font-family="Helvetica,sans-Serif" font-size="10.00" fill="#000000">::writeFlowObservablesToFile</text>
</a>
</g>
</g>
<!-- Node103&#45;&gt;Node107 -->
<g id="edge4" class="edge">
<title>Node103&#45;&gt;Node107</title>
<path fill="none" stroke="#191970" d="M221.5046,-92.1056C198.6445,-86.7065 173.4457,-80.7549 151.3944,-75.5467"/>
<polygon fill="#191970" stroke="#191970" points="220.9451,-95.5697 231.4818,-94.4621 222.5541,-88.7572 220.9451,-95.5697"/>
</g>
<!-- Node108 -->
<g id="node6" class="node">
<title>Node108</title>
<g id="a_node6"><a xlink:href="class_super_sampler.html#a410b650ebccdb03519c88908a3a8013e" target="_top" xlink:title="Correlator::writeFlowObservablesToFile.">
<polygon fill="#ffffff" stroke="#000000" points="0,-.5 0,-28.5 183.8418,-28.5 183.8418,-.5 0,-.5"/>
<text text-anchor="start" x="8" y="-16.5" font-family="Helvetica,sans-Serif" font-size="10.00" fill="#000000">SuperSampler::writeFlowObservables</text>
<text text-anchor="middle" x="91.9209" y="-6.5" font-family="Helvetica,sans-Serif" font-size="10.00" fill="#000000">ToFile</text>
</a>
</g>
</g>
<!-- Node103&#45;&gt;Node108 -->
<g id="edge5" class="edge">
<title>Node103&#45;&gt;Node108</title>
<path fill="none" stroke="#191970" d="M265.3512,-88.3597C244.4714,-72.7822 213.6443,-51.7089 183.8418,-38.5 175.2469,-34.6906 165.9223,-31.3878 156.6192,-28.5548"/>
<polygon fill="#191970" stroke="#191970" points="263.3028,-91.1989 273.3864,-94.4505 267.5314,-85.6204 263.3028,-91.1989"/>
</g>
</g>
</svg>
