<?xml version="1.0" encoding="UTF-8" standalone="no"?>
<!DOCTYPE svg PUBLIC "-//W3C//DTD SVG 1.1//EN"
 "http://www.w3.org/Graphics/SVG/1.1/DTD/svg11.dtd">
<!-- Generated by graphviz version 2.40.1 (20161225.0304)
 -->
<!-- Title: complex::operator/= Pages: 1 -->
<svg width="268pt" height="101pt"
 viewBox="0.00 0.00 268.04 101.00" xmlns="http://www.w3.org/2000/svg" xmlns:xlink="http://www.w3.org/1999/xlink">
<g id="graph0" class="graph" transform="scale(1 1) rotate(0) translate(4 97)">
<title>complex::operator/=</title>
<polygon fill="#ffffff" stroke="transparent" points="-4,4 -4,-97 264.041,-97 264.041,4 -4,4"/>
<!-- Node53 -->
<g id="node1" class="node">
<title>Node53</title>
<g id="a_node1"><a xlink:title=" ">
<polygon fill="#bfbfbf" stroke="#000000" points="0,-37.5 0,-55.5 104.6572,-55.5 104.6572,-37.5 0,-37.5"/>
<text text-anchor="middle" x="52.3286" y="-43.5" font-family="Helvetica,sans-Serif" font-size="10.00" fill="#000000">complex::operator/=</text>
</a>
</g>
</g>
<!-- Node54 -->
<g id="node2" class="node">
<title>Node54</title>
<g id="a_node2"><a xlink:href="classcomplex.html#a5f69e50235222338ccd0e985de6b80d1" target="_top" xlink:title=" ">
<polygon fill="#ffffff" stroke="#000000" points="140.6572,-74.5 140.6572,-92.5 260.041,-92.5 260.041,-74.5 140.6572,-74.5"/>
<text text-anchor="middle" x="200.3491" y="-80.5" font-family="Helvetica,sans-Serif" font-size="10.00" fill="#000000">complex::normSquared</text>
</a>
</g>
</g>
<!-- Node53&#45;&gt;Node54 -->
<g id="edge1" class="edge">
<title>Node53&#45;&gt;Node54</title>
<path fill="none" stroke="#191970" d="M88.5385,-55.5512C108.4141,-60.5194 133.2614,-66.7304 154.4818,-72.0348"/>
<polygon fill="#191970" stroke="#191970" points="153.7065,-75.4486 164.2568,-74.4782 155.4041,-68.6575 153.7065,-75.4486"/>
</g>
<!-- Node55 -->
<g id="node3" class="node">
<title>Node55</title>
<g id="a_node3"><a xlink:href="classcomplex.html#a696019188accc543e7c8297595e297ec" target="_top" xlink:title=" ">
<polygon fill="#ffffff" stroke="#000000" points="166.5068,-37.5 166.5068,-55.5 234.1914,-55.5 234.1914,-37.5 166.5068,-37.5"/>
<text text-anchor="middle" x="200.3491" y="-43.5" font-family="Helvetica,sans-Serif" font-size="10.00" fill="#000000">complex::re</text>
</a>
</g>
</g>
<!-- Node53&#45;&gt;Node55 -->
<g id="edge2" class="edge">
<title>Node53&#45;&gt;Node55</title>
<path fill="none" stroke="#191970" d="M104.9319,-46.5C121.7005,-46.5 140.0732,-46.5 156.1807,-46.5"/>
<polygon fill="#191970" stroke="#191970" points="156.399,-50.0001 166.3989,-46.5 156.3989,-43.0001 156.399,-50.0001"/>
</g>
<!-- Node56 -->
<g id="node4" class="node">
<title>Node56</title>
<g id="a_node4"><a xlink:href="classcomplex.html#a450461dea92da7f72b96402edafd07c2" target="_top" xlink:title=" ">
<polygon fill="#ffffff" stroke="#000000" points="165.6768,-.5 165.6768,-18.5 235.0215,-18.5 235.0215,-.5 165.6768,-.5"/>
<text text-anchor="middle" x="200.3491" y="-6.5" font-family="Helvetica,sans-Serif" font-size="10.00" fill="#000000">complex::im</text>
</a>
</g>
</g>
<!-- Node53&#45;&gt;Node56 -->
<g id="edge3" class="edge">
<title>Node53&#45;&gt;Node56</title>
<path fill="none" stroke="#191970" d="M88.5385,-37.4488C108.7835,-32.3882 134.1868,-26.0383 155.6613,-20.6704"/>
<polygon fill="#191970" stroke="#191970" points="156.6796,-24.0236 165.5324,-18.203 154.9821,-17.2326 156.6796,-24.0236"/>
</g>
</g>
</svg>
