<?xml version="1.0" encoding="UTF-8" standalone="no"?>
<!DOCTYPE svg PUBLIC "-//W3C//DTD SVG 1.1//EN"
 "http://www.w3.org/Graphics/SVG/1.1/DTD/svg11.dtd">
<!-- Generated by graphviz version 2.40.1 (20161225.0304)
 -->
<!-- Title: System::run Pages: 1 -->
<svg width="252pt" height="131pt"
 viewBox="0.00 0.00 251.64 131.00" xmlns="http://www.w3.org/2000/svg" xmlns:xlink="http://www.w3.org/1999/xlink">
<g id="graph0" class="graph" transform="scale(1 1) rotate(0) translate(4 127)">
<title>System::run</title>
<polygon fill="#ffffff" stroke="transparent" points="-4,4 -4,-127 247.6445,-127 247.6445,4 -4,4"/>
<!-- Node36 -->
<g id="node1" class="node">
<title>Node36</title>
<g id="a_node1"><a xlink:title=" ">
<polygon fill="#bfbfbf" stroke="#000000" points="0,-52.5 0,-70.5 69.3496,-70.5 69.3496,-52.5 0,-52.5"/>
<text text-anchor="middle" x="34.6748" y="-58.5" font-family="Helvetica,sans-Serif" font-size="10.00" fill="#000000">System::run</text>
</a>
</g>
</g>
<!-- Node37 -->
<g id="node2" class="node">
<title>Node37</title>
<g id="a_node2"><a xlink:href="class_parameters.html#a5a11841ee32f68ebd27a8146a3fda07b" target="_top" xlink:title=" ">
<polygon fill="#ffffff" stroke="#000000" points="108.9653,-94.5 108.9653,-122.5 240.0288,-122.5 240.0288,-94.5 108.9653,-94.5"/>
<text text-anchor="start" x="116.9653" y="-110.5" font-family="Helvetica,sans-Serif" font-size="10.00" fill="#000000">Parameters::getLoadField</text>
<text text-anchor="middle" x="174.4971" y="-100.5" font-family="Helvetica,sans-Serif" font-size="10.00" fill="#000000">Configurations</text>
</a>
</g>
</g>
<!-- Node36&#45;&gt;Node37 -->
<g id="edge1" class="edge">
<title>Node36&#45;&gt;Node37</title>
<path fill="none" stroke="#191970" d="M61.1748,-70.5427C74.4338,-75.056 90.733,-80.5874 105.3496,-85.5 110.881,-87.3591 116.6639,-89.2949 122.4282,-91.2195"/>
<polygon fill="#191970" stroke="#191970" points="121.4699,-94.5893 132.0636,-94.4322 123.6841,-87.9487 121.4699,-94.5893"/>
</g>
<!-- Node38 -->
<g id="node3" class="node">
<title>Node38</title>
<g id="a_node3"><a xlink:href="class_parameters.html#a7870fae41b172caee9fa020c86d056ac" target="_top" xlink:title=" ">
<polygon fill="#ffffff" stroke="#000000" points="105.3496,-47.5 105.3496,-75.5 243.6445,-75.5 243.6445,-47.5 105.3496,-47.5"/>
<text text-anchor="start" x="113.3496" y="-63.5" font-family="Helvetica,sans-Serif" font-size="10.00" fill="#000000">Parameters::getLoadConfig</text>
<text text-anchor="middle" x="174.4971" y="-53.5" font-family="Helvetica,sans-Serif" font-size="10.00" fill="#000000">AndRun</text>
</a>
</g>
</g>
<!-- Node36&#45;&gt;Node38 -->
<g id="edge2" class="edge">
<title>Node36&#45;&gt;Node38</title>
<path fill="none" stroke="#191970" d="M69.5972,-61.5C77.4723,-61.5 86.1456,-61.5 95.0286,-61.5"/>
<polygon fill="#191970" stroke="#191970" points="95.1156,-65.0001 105.1156,-61.5 95.1155,-58.0001 95.1156,-65.0001"/>
</g>
<!-- Node39 -->
<g id="node4" class="node">
<title>Node39</title>
<g id="a_node4"><a xlink:href="class_parallel_1_1_communicator.html#a14aa3d54f5efe28094df886948e3dee2" target="_top" xlink:title=" ">
<polygon fill="#ffffff" stroke="#000000" points="114.5342,-.5 114.5342,-28.5 234.46,-28.5 234.46,-.5 114.5342,-.5"/>
<text text-anchor="start" x="122.5342" y="-16.5" font-family="Helvetica,sans-Serif" font-size="10.00" fill="#000000">Parallel::Communicator</text>
<text text-anchor="middle" x="174.4971" y="-6.5" font-family="Helvetica,sans-Serif" font-size="10.00" fill="#000000">::setBarrier</text>
</a>
</g>
</g>
<!-- Node36&#45;&gt;Node39 -->
<g id="edge3" class="edge">
<title>Node36&#45;&gt;Node39</title>
<path fill="none" stroke="#191970" d="M61.6339,-52.4379C79.0348,-46.5888 102.2318,-38.7913 123.0689,-31.7871"/>
<polygon fill="#191970" stroke="#191970" points="124.3952,-35.0338 132.7588,-28.5299 122.1648,-28.3986 124.3952,-35.0338"/>
</g>
</g>
</svg>
