<?xml version="1.0" encoding="UTF-8" standalone="no"?>
<!DOCTYPE svg PUBLIC "-//W3C//DTD SVG 1.1//EN"
 "http://www.w3.org/Graphics/SVG/1.1/DTD/svg11.dtd">
<!-- Generated by graphviz version 2.40.1 (20161225.0304)
 -->
<!-- Title: Parallel::Communicator::checkLattice Pages: 1 -->
<svg width="287pt" height="74pt"
 viewBox="0.00 0.00 287.22 74.00" xmlns="http://www.w3.org/2000/svg" xmlns:xlink="http://www.w3.org/1999/xlink">
<g id="graph0" class="graph" transform="scale(1 1) rotate(0) translate(4 70)">
<title>Parallel::Communicator::checkLattice</title>
<polygon fill="#ffffff" stroke="transparent" points="-4,4 -4,-70 283.2158,-70 283.2158,4 -4,4"/>
<!-- Node4 -->
<g id="node1" class="node">
<title>Node4</title>
<g id="a_node1"><a xlink:title=" ">
<polygon fill="#bfbfbf" stroke="#000000" points="0,-21.5 0,-49.5 119.9258,-49.5 119.9258,-21.5 0,-21.5"/>
<text text-anchor="start" x="8" y="-37.5" font-family="Helvetica,sans-Serif" font-size="10.00" fill="#000000">Parallel::Communicator</text>
<text text-anchor="middle" x="59.9629" y="-27.5" font-family="Helvetica,sans-Serif" font-size="10.00" fill="#000000">::checkLattice</text>
</a>
</g>
</g>
<!-- Node5 -->
<g id="node2" class="node">
<title>Node5</title>
<g id="a_node2"><a xlink:href="class_parallel_1_1_index.html#af31faeef1369fdc0997d1910e008bfe2" target="_top" xlink:title=" ">
<polygon fill="#ffffff" stroke="#000000" points="155.9258,-47.5 155.9258,-65.5 279.2158,-65.5 279.2158,-47.5 155.9258,-47.5"/>
<text text-anchor="middle" x="217.5708" y="-53.5" font-family="Helvetica,sans-Serif" font-size="10.00" fill="#000000">Parallel::Index::getIndex</text>
</a>
</g>
</g>
<!-- Node4&#45;&gt;Node5 -->
<g id="edge1" class="edge">
<title>Node4&#45;&gt;Node5</title>
<path fill="none" stroke="#191970" d="M119.9973,-43.4991C128.4382,-44.6238 137.1842,-45.7891 145.8165,-46.9393"/>
<polygon fill="#191970" stroke="#191970" points="145.498,-50.4277 155.8727,-48.2792 146.4226,-43.489 145.498,-50.4277"/>
</g>
<!-- Node6 -->
<g id="node3" class="node">
<title>Node6</title>
<g id="a_node3"><a xlink:href="class_parallel_1_1_communicator.html#a57bb28ee8dbc4efd708a2695423778c4" target="_top" xlink:title=" ">
<polygon fill="#ffffff" stroke="#000000" points="157.6079,-.5 157.6079,-28.5 277.5337,-28.5 277.5337,-.5 157.6079,-.5"/>
<text text-anchor="start" x="165.6079" y="-16.5" font-family="Helvetica,sans-Serif" font-size="10.00" fill="#000000">Parallel::Communicator</text>
<text text-anchor="middle" x="217.5708" y="-6.5" font-family="Helvetica,sans-Serif" font-size="10.00" fill="#000000">::MPIExit</text>
</a>
</g>
</g>
<!-- Node4&#45;&gt;Node6 -->
<g id="edge2" class="edge">
<title>Node4&#45;&gt;Node6</title>
<path fill="none" stroke="#191970" d="M119.9973,-27.5009C128.9092,-26.3135 138.1612,-25.0807 147.2603,-23.8683"/>
<polygon fill="#191970" stroke="#191970" points="147.9923,-27.3018 157.4424,-22.5116 147.0677,-20.3631 147.9923,-27.3018"/>
</g>
</g>
</svg>
