<?xml version="1.0" encoding="UTF-8" standalone="no"?>
<!DOCTYPE svg PUBLIC "-//W3C//DTD SVG 1.1//EN"
 "http://www.w3.org/Graphics/SVG/1.1/DTD/svg11.dtd">
<!-- Generated by graphviz version 2.40.1 (20161225.0304)
 -->
<!-- Title: SU3Exp Pages: 1 -->
<svg width="321pt" height="82pt"
 viewBox="0.00 0.00 321.36 82.00" xmlns="http://www.w3.org/2000/svg" xmlns:xlink="http://www.w3.org/1999/xlink">
<g id="graph0" class="graph" transform="scale(1 1) rotate(0) translate(4 78)">
<title>SU3Exp</title>
<polygon fill="#ffffff" stroke="transparent" points="-4,4 -4,-78 317.3569,-78 317.3569,4 -4,4"/>
<!-- Node0 -->
<g id="node1" class="node">
<title>Node0</title>
<g id="a_node1"><a xlink:title=" ">
<polygon fill="#bfbfbf" stroke="#000000" points="134.0615,-55.5 134.0615,-73.5 186.7461,-73.5 186.7461,-55.5 134.0615,-55.5"/>
<text text-anchor="middle" x="160.4038" y="-61.5" font-family="Helvetica,sans-Serif" font-size="10.00" fill="#000000">SU3Exp</text>
</a>
</g>
</g>
<!-- Node1 -->
<g id="node2" class="node">
<title>Node1</title>
<g id="a_node2"><a xlink:href="class_exp_luscher.html" target="_top" xlink:title=" ">
<polygon fill="#ffffff" stroke="#000000" points="0,-.5 0,-18.5 68.8076,-18.5 68.8076,-.5 0,-.5"/>
<text text-anchor="middle" x="34.4038" y="-6.5" font-family="Helvetica,sans-Serif" font-size="10.00" fill="#000000">ExpLuscher</text>
</a>
</g>
</g>
<!-- Node0&#45;&gt;Node1 -->
<g id="edge1" class="edge">
<title>Node0&#45;&gt;Node1</title>
<path fill="none" stroke="#191970" d="M130.228,-51.328C107.062,-41.2159 75.6797,-27.5172 55.2411,-18.5956"/>
<polygon fill="#191970" stroke="#191970" points="129.0323,-54.625 139.5975,-55.4179 131.8328,-48.2095 129.0323,-54.625"/>
</g>
<!-- Node2 -->
<g id="node3" class="node">
<title>Node2</title>
<g id="a_node3"><a xlink:href="class_taylor2_exp.html" target="_top" xlink:title=" ">
<polygon fill="#ffffff" stroke="#000000" points="86.6699,-.5 86.6699,-18.5 152.1377,-18.5 152.1377,-.5 86.6699,-.5"/>
<text text-anchor="middle" x="119.4038" y="-6.5" font-family="Helvetica,sans-Serif" font-size="10.00" fill="#000000">Taylor2Exp</text>
</a>
</g>
</g>
<!-- Node0&#45;&gt;Node2 -->
<g id="edge2" class="edge">
<title>Node0&#45;&gt;Node2</title>
<path fill="none" stroke="#191970" d="M147.4676,-47.1465C140.4631,-37.7503 132.0884,-26.5159 126.3212,-18.7795"/>
<polygon fill="#191970" stroke="#191970" points="144.8507,-49.4922 153.6335,-55.4179 150.4629,-45.3085 144.8507,-49.4922"/>
</g>
<!-- Node3 -->
<g id="node4" class="node">
<title>Node3</title>
<g id="a_node4"><a xlink:href="class_taylor4_exp.html" target="_top" xlink:title=" ">
<polygon fill="#ffffff" stroke="#000000" points="169.6699,-.5 169.6699,-18.5 235.1377,-18.5 235.1377,-.5 169.6699,-.5"/>
<text text-anchor="middle" x="202.4038" y="-6.5" font-family="Helvetica,sans-Serif" font-size="10.00" fill="#000000">Taylor4Exp</text>
</a>
</g>
</g>
<!-- Node0&#45;&gt;Node3 -->
<g id="edge3" class="edge">
<title>Node0&#45;&gt;Node3</title>
<path fill="none" stroke="#191970" d="M173.4341,-47.4365C180.6537,-37.9823 189.349,-26.5956 195.3177,-18.7795"/>
<polygon fill="#191970" stroke="#191970" points="170.6267,-45.346 167.3393,-55.4179 176.1901,-49.5944 170.6267,-45.346"/>
</g>
<!-- Node4 -->
<g id="node5" class="node">
<title>Node4</title>
<g id="a_node5"><a xlink:href="class_taylor_exp.html" target="_top" xlink:title=" ">
<polygon fill="#ffffff" stroke="#000000" points="253.4507,-.5 253.4507,-18.5 313.3569,-18.5 313.3569,-.5 253.4507,-.5"/>
<text text-anchor="middle" x="283.4038" y="-6.5" font-family="Helvetica,sans-Serif" font-size="10.00" fill="#000000">TaylorExp</text>
</a>
</g>
</g>
<!-- Node0&#45;&gt;Node4 -->
<g id="edge4" class="edge">
<title>Node0&#45;&gt;Node4</title>
<path fill="none" stroke="#191970" d="M189.8611,-51.328C212.4756,-41.2159 243.1107,-27.5172 263.0627,-18.5956"/>
<polygon fill="#191970" stroke="#191970" points="188.4149,-48.1407 180.7148,-55.4179 191.2724,-54.5309 188.4149,-48.1407"/>
</g>
</g>
</svg>
