<?xml version="1.0" encoding="UTF-8" standalone="no"?>
<!DOCTYPE svg PUBLIC "-//W3C//DTD SVG 1.1//EN"
 "http://www.w3.org/Graphics/SVG/1.1/DTD/svg11.dtd">
<!-- Generated by graphviz version 2.40.1 (20161225.0304)
 -->
<!-- Title: Parameters::getConfigStartNumber Pages: 1 -->
<svg width="731pt" height="225pt"
 viewBox="0.00 0.00 731.31 225.00" xmlns="http://www.w3.org/2000/svg" xmlns:xlink="http://www.w3.org/1999/xlink">
<g id="graph0" class="graph" transform="scale(1 1) rotate(0) translate(4 221)">
<title>Parameters::getConfigStartNumber</title>
<polygon fill="#ffffff" stroke="transparent" points="-4,4 -4,-221 727.3135,-221 727.3135,4 -4,4"/>
<!-- Node54 -->
<g id="node1" class="node">
<title>Node54</title>
<g id="a_node1"><a xlink:title=" ">
<polygon fill="#bfbfbf" stroke="#000000" points="586.1465,-112.5 586.1465,-140.5 723.3135,-140.5 723.3135,-112.5 586.1465,-112.5"/>
<text text-anchor="start" x="594.1465" y="-128.5" font-family="Helvetica,sans-Serif" font-size="10.00" fill="#000000">Parameters::getConfigStart</text>
<text text-anchor="middle" x="654.73" y="-118.5" font-family="Helvetica,sans-Serif" font-size="10.00" fill="#000000">Number</text>
</a>
</g>
</g>
<!-- Node55 -->
<g id="node2" class="node">
<title>Node55</title>
<g id="a_node2"><a xlink:href="class_i_o_1_1_field_i_o.html#a8af607f9a1d79e90d4514c36103c6601" target="_top" xlink:title="IO::FieldIO::writeFieldToFile writes a lattice of SU3 matrix objects to file.">
<polygon fill="#ffffff" stroke="#000000" points="404.3882,-180.5 404.3882,-198.5 543.7524,-198.5 543.7524,-180.5 404.3882,-180.5"/>
<text text-anchor="middle" x="474.0703" y="-186.5" font-family="Helvetica,sans-Serif" font-size="10.00" fill="#000000">IO::FieldIO::writeFieldToFile</text>
</a>
</g>
</g>
<!-- Node54&#45;&gt;Node55 -->
<g id="edge1" class="edge">
<title>Node54&#45;&gt;Node55</title>
<path fill="none" stroke="#191970" d="M616.3422,-144.9237C596.832,-153.7949 572.5643,-164.0876 550.1465,-171.5 539.9664,-174.866 528.8246,-177.8687 518.2841,-180.4118"/>
<polygon fill="#191970" stroke="#191970" points="617.8901,-148.0642 625.5088,-140.7018 614.9617,-141.7062 617.8901,-148.0642"/>
</g>
<!-- Node56 -->
<g id="node3" class="node">
<title>Node56</title>
<g id="a_node3"><a xlink:href="class_i_o_1_1_field_i_o.html#aaf2bac2025d67c06e7c61e8cc9f44777" target="_top" xlink:title="IO::FieldIO::writeDoublesFieldToFile writes a lattice of doubles to file.">
<polygon fill="#ffffff" stroke="#000000" points="410.2183,-133.5 410.2183,-161.5 537.9224,-161.5 537.9224,-133.5 410.2183,-133.5"/>
<text text-anchor="start" x="418.2183" y="-149.5" font-family="Helvetica,sans-Serif" font-size="10.00" fill="#000000">IO::FieldIO::writeDoubles</text>
<text text-anchor="middle" x="474.0703" y="-139.5" font-family="Helvetica,sans-Serif" font-size="10.00" fill="#000000">FieldToFile</text>
</a>
</g>
</g>
<!-- Node54&#45;&gt;Node56 -->
<g id="edge2" class="edge">
<title>Node54&#45;&gt;Node56</title>
<path fill="none" stroke="#191970" d="M575.8406,-135.6701C563.173,-137.1426 550.2004,-138.6506 537.9409,-140.0756"/>
<polygon fill="#191970" stroke="#191970" points="576.386,-139.1304 585.9149,-134.4991 575.5777,-132.1772 576.386,-139.1304"/>
</g>
<!-- Node58 -->
<g id="node5" class="node">
<title>Node58</title>
<g id="a_node5"><a xlink:href="namespace_i_o.html#a4f554804fd2ccd9c13c73777c5cbbf77" target="_top" xlink:title=" ">
<polygon fill="#ffffff" stroke="#000000" points="397.9941,-96.5 397.9941,-114.5 550.1465,-114.5 550.1465,-96.5 397.9941,-96.5"/>
<text text-anchor="middle" x="474.0703" y="-102.5" font-family="Helvetica,sans-Serif" font-size="10.00" fill="#000000">IO::writeFlowObservableToFile</text>
</a>
</g>
</g>
<!-- Node54&#45;&gt;Node58 -->
<g id="edge4" class="edge">
<title>Node54&#45;&gt;Node58</title>
<path fill="none" stroke="#191970" d="M575.9692,-117.3448C567.4261,-116.3517 558.7426,-115.3424 550.2312,-114.353"/>
<polygon fill="#191970" stroke="#191970" points="575.5777,-120.8228 585.9149,-118.5009 576.386,-113.8696 575.5777,-120.8228"/>
</g>
<!-- Node65 -->
<g id="node12" class="node">
<title>Node65</title>
<g id="a_node12"><a xlink:href="namespace_i_o.html#ad77b7dd770afc8e2eb433d6187ea3616" target="_top" xlink:title=" ">
<polygon fill="#ffffff" stroke="#000000" points="237.3564,-52.5 237.3564,-70.5 344.4795,-70.5 344.4795,-52.5 237.3564,-52.5"/>
<text text-anchor="middle" x="290.918" y="-58.5" font-family="Helvetica,sans-Serif" font-size="10.00" fill="#000000">IO::writeMatrixToFile</text>
</a>
</g>
</g>
<!-- Node54&#45;&gt;Node65 -->
<g id="edge11" class="edge">
<title>Node54&#45;&gt;Node65</title>
<path fill="none" stroke="#191970" d="M614.9726,-108.3933C595.7697,-100.4046 572.1639,-91.672 550.1465,-86.5 480.3817,-70.1118 397.6339,-64.4334 344.7231,-62.4853"/>
<polygon fill="#191970" stroke="#191970" points="613.7274,-111.667 624.2997,-112.3578 616.4657,-105.2248 613.7274,-111.667"/>
</g>
<!-- Node57 -->
<g id="node4" class="node">
<title>Node57</title>
<g id="a_node4"><a xlink:href="class_lattice_action_charge_density.html#a3dddc75188042c645fbdd1c8b3e80c8a" target="_top" xlink:title=" ">
<polygon fill="#ffffff" stroke="#000000" points="221.2188,-138.5 221.2188,-166.5 360.6172,-166.5 360.6172,-138.5 221.2188,-138.5"/>
<text text-anchor="start" x="229.2188" y="-154.5" font-family="Helvetica,sans-Serif" font-size="10.00" fill="#000000">LatticeActionChargeDensity</text>
<text text-anchor="middle" x="290.918" y="-144.5" font-family="Helvetica,sans-Serif" font-size="10.00" fill="#000000">::calculate</text>
</a>
</g>
</g>
<!-- Node56&#45;&gt;Node57 -->
<g id="edge3" class="edge">
<title>Node56&#45;&gt;Node57</title>
<path fill="none" stroke="#191970" d="M399.8174,-149.5271C386.9531,-149.8783 373.6154,-150.2424 360.8704,-150.5903"/>
<polygon fill="#191970" stroke="#191970" points="400.1118,-153.0204 410.0125,-149.2488 399.9207,-146.0231 400.1118,-153.0204"/>
</g>
<!-- Node59 -->
<g id="node6" class="node">
<title>Node59</title>
<g id="a_node6"><a xlink:href="class_observable_storer.html#af51ebd65eae2a5087cfd47ddf230da93" target="_top" xlink:title=" ">
<polygon fill="#ffffff" stroke="#000000" points="219.8418,-91.5 219.8418,-119.5 361.9941,-119.5 361.9941,-91.5 219.8418,-91.5"/>
<text text-anchor="start" x="227.8418" y="-107.5" font-family="Helvetica,sans-Serif" font-size="10.00" fill="#000000">ObservableStorer::writeFlow</text>
<text text-anchor="middle" x="290.918" y="-97.5" font-family="Helvetica,sans-Serif" font-size="10.00" fill="#000000">ObservableToFile</text>
</a>
</g>
</g>
<!-- Node58&#45;&gt;Node59 -->
<g id="edge5" class="edge">
<title>Node58&#45;&gt;Node59</title>
<path fill="none" stroke="#191970" d="M387.8876,-105.5C379.2423,-105.5 370.5327,-105.5 362.0684,-105.5"/>
<polygon fill="#191970" stroke="#191970" points="387.9884,-109.0001 397.9884,-105.5 387.9883,-102.0001 387.9884,-109.0001"/>
</g>
<!-- Node60 -->
<g id="node7" class="node">
<title>Node60</title>
<g id="a_node7"><a xlink:href="class_correlator.html#a168512b2ce182d9478db47f100125fa6" target="_top" xlink:title=" ">
<polygon fill="#ffffff" stroke="#000000" points="9.7314,-188.5 9.7314,-216.5 174.1104,-216.5 174.1104,-188.5 9.7314,-188.5"/>
<text text-anchor="start" x="17.7314" y="-204.5" font-family="Helvetica,sans-Serif" font-size="10.00" fill="#000000">Correlator::writeFlowObservables</text>
<text text-anchor="middle" x="91.9209" y="-194.5" font-family="Helvetica,sans-Serif" font-size="10.00" fill="#000000">ToFile</text>
</a>
</g>
</g>
<!-- Node59&#45;&gt;Node60 -->
<g id="edge6" class="edge">
<title>Node59&#45;&gt;Node60</title>
<path fill="none" stroke="#191970" d="M228.1403,-124.1325C225.2461,-125.7798 222.4608,-127.5654 219.8418,-129.5 197.8162,-145.7696 206.504,-164.1295 183.8418,-179.5 178.8045,-182.9166 173.3031,-185.826 167.577,-188.3035"/>
<polygon fill="#191970" stroke="#191970" points="229.7548,-127.2382 237.0918,-119.595 226.5898,-120.9945 229.7548,-127.2382"/>
</g>
<!-- Node61 -->
<g id="node8" class="node">
<title>Node61</title>
<g id="a_node8"><a xlink:href="class_lattice_action_charge_density.html#a54226556dc1497c311e4a4d50bf44c26" target="_top" xlink:title=" ">
<polygon fill="#ffffff" stroke="#000000" points="18.623,-141.5 18.623,-169.5 165.2188,-169.5 165.2188,-141.5 18.623,-141.5"/>
<text text-anchor="start" x="26.623" y="-157.5" font-family="Helvetica,sans-Serif" font-size="10.00" fill="#000000">LatticeActionChargeDensity</text>
<text text-anchor="middle" x="91.9209" y="-147.5" font-family="Helvetica,sans-Serif" font-size="10.00" fill="#000000">::writeFlowObservablesToFile</text>
</a>
</g>
</g>
<!-- Node59&#45;&gt;Node61 -->
<g id="edge7" class="edge">
<title>Node59&#45;&gt;Node61</title>
<path fill="none" stroke="#191970" d="M225.4757,-122.0219C211.7243,-125.488 197.3078,-129.1175 183.8418,-132.5 172.3543,-135.3855 160.0575,-138.4672 148.3152,-141.4066"/>
<polygon fill="#191970" stroke="#191970" points="226.5074,-125.3714 235.3482,-119.5328 224.796,-118.5838 226.5074,-125.3714"/>
</g>
<!-- Node62 -->
<g id="node9" class="node">
<title>Node62</title>
<g id="a_node9"><a xlink:href="class_master_sampler.html#ad475928217ac61fae134128904aaa9f8" target="_top" xlink:title=" ">
<polygon fill="#ffffff" stroke="#000000" points="26.1304,-94.5 26.1304,-122.5 157.7114,-122.5 157.7114,-94.5 26.1304,-94.5"/>
<text text-anchor="start" x="34.1304" y="-110.5" font-family="Helvetica,sans-Serif" font-size="10.00" fill="#000000">MasterSampler::writeFlow</text>
<text text-anchor="middle" x="91.9209" y="-100.5" font-family="Helvetica,sans-Serif" font-size="10.00" fill="#000000">ObservablesToFile</text>
</a>
</g>
</g>
<!-- Node59&#45;&gt;Node62 -->
<g id="edge8" class="edge">
<title>Node59&#45;&gt;Node62</title>
<path fill="none" stroke="#191970" d="M209.5824,-106.7262C192.3286,-106.9863 174.3206,-107.2578 157.7296,-107.5079"/>
<polygon fill="#191970" stroke="#191970" points="209.6915,-110.225 219.6375,-106.5746 209.5859,-103.2258 209.6915,-110.225"/>
</g>
<!-- Node63 -->
<g id="node10" class="node">
<title>Node63</title>
<g id="a_node10"><a xlink:href="class_master_sampler_topc_x_y_z.html#a4fba4290e4406e18ef3f2904c6ae364f" target="_top" xlink:title=" ">
<polygon fill="#ffffff" stroke="#000000" points="18.623,-.5 18.623,-28.5 165.2188,-28.5 165.2188,-.5 18.623,-.5"/>
<text text-anchor="start" x="26.623" y="-16.5" font-family="Helvetica,sans-Serif" font-size="10.00" fill="#000000">MasterSamplerTopcXYZ</text>
<text text-anchor="middle" x="91.9209" y="-6.5" font-family="Helvetica,sans-Serif" font-size="10.00" fill="#000000">::writeFlowObservablesToFile</text>
</a>
</g>
</g>
<!-- Node59&#45;&gt;Node63 -->
<g id="edge9" class="edge">
<title>Node59&#45;&gt;Node63</title>
<path fill="none" stroke="#191970" d="M233.1423,-87.3107C228.4867,-84.9723 223.9866,-82.3749 219.8418,-79.5 199.6402,-65.4879 204.7541,-50.4275 183.8418,-37.5 178.1048,-33.9535 171.8476,-30.9531 165.3841,-28.4147"/>
<polygon fill="#191970" stroke="#191970" points="231.687,-90.4937 242.2346,-91.4933 234.6125,-84.1343 231.687,-90.4937"/>
</g>
<!-- Node64 -->
<g id="node11" class="node">
<title>Node64</title>
<g id="a_node11"><a xlink:href="class_super_sampler.html#a410b650ebccdb03519c88908a3a8013e" target="_top" xlink:title=" ">
<polygon fill="#ffffff" stroke="#000000" points="0,-47.5 0,-75.5 183.8418,-75.5 183.8418,-47.5 0,-47.5"/>
<text text-anchor="start" x="8" y="-63.5" font-family="Helvetica,sans-Serif" font-size="10.00" fill="#000000">SuperSampler::writeFlowObservables</text>
<text text-anchor="middle" x="91.9209" y="-53.5" font-family="Helvetica,sans-Serif" font-size="10.00" fill="#000000">ToFile</text>
</a>
</g>
</g>
<!-- Node59&#45;&gt;Node64 -->
<g id="edge10" class="edge">
<title>Node59&#45;&gt;Node64</title>
<path fill="none" stroke="#191970" d="M217.5545,-89.2787C197.1942,-84.7769 175.2625,-79.9276 155.5111,-75.5604"/>
<polygon fill="#191970" stroke="#191970" points="216.8871,-92.7156 227.4069,-91.4572 218.3984,-85.8807 216.8871,-92.7156"/>
</g>
<!-- Node65&#45;&gt;Node63 -->
<g id="edge12" class="edge">
<title>Node65&#45;&gt;Node63</title>
<path fill="none" stroke="#191970" d="M242.7627,-50.1265C215.2488,-43.6281 180.5203,-35.4258 151.3234,-28.5299"/>
<polygon fill="#191970" stroke="#191970" points="242.0126,-53.5455 252.5493,-52.4379 243.6216,-46.733 242.0126,-53.5455"/>
</g>
<!-- Node65&#45;&gt;Node64 -->
<g id="edge13" class="edge">
<title>Node65&#45;&gt;Node64</title>
<path fill="none" stroke="#191970" d="M227.0523,-61.5C213.3208,-61.5 198.5461,-61.5 183.985,-61.5"/>
<polygon fill="#191970" stroke="#191970" points="227.3287,-65.0001 237.3286,-61.5 227.3286,-58.0001 227.3287,-65.0001"/>
</g>
</g>
</svg>
