<?xml version="1.0" encoding="UTF-8" standalone="no"?>
<!DOCTYPE svg PUBLIC "-//W3C//DTD SVG 1.1//EN"
 "http://www.w3.org/Graphics/SVG/1.1/DTD/svg11.dtd">
<!-- Generated by graphviz version 2.40.1 (20161225.0304)
 -->
<!-- Title: Parameters::setLoadConfigAndRun Pages: 1 -->
<svg width="356pt" height="37pt"
 viewBox="0.00 0.00 355.92 37.00" xmlns="http://www.w3.org/2000/svg" xmlns:xlink="http://www.w3.org/1999/xlink">
<g id="graph0" class="graph" transform="scale(1 1) rotate(0) translate(4 33)">
<title>Parameters::setLoadConfigAndRun</title>
<polygon fill="#ffffff" stroke="transparent" points="-4,4 -4,-33 351.915,-33 351.915,4 -4,4"/>
<!-- Node419 -->
<g id="node1" class="node">
<title>Node419</title>
<g id="a_node1"><a xlink:title=" ">
<polygon fill="#bfbfbf" stroke="#000000" points="210.1816,-.5 210.1816,-28.5 347.915,-28.5 347.915,-.5 210.1816,-.5"/>
<text text-anchor="start" x="218.1816" y="-16.5" font-family="Helvetica,sans-Serif" font-size="10.00" fill="#000000">Parameters::setLoadConfig</text>
<text text-anchor="middle" x="279.0483" y="-6.5" font-family="Helvetica,sans-Serif" font-size="10.00" fill="#000000">AndRun</text>
</a>
</g>
</g>
<!-- Node420 -->
<g id="node2" class="node">
<title>Node420</title>
<g id="a_node2"><a xlink:href="namespace_config_loader.html#a26cf01adba9411ef1fa006d5068d7cc4" target="_top" xlink:title="load">
<polygon fill="#ffffff" stroke="#000000" points="73.6748,-5.5 73.6748,-23.5 174.1816,-23.5 174.1816,-5.5 73.6748,-5.5"/>
<text text-anchor="middle" x="123.9282" y="-11.5" font-family="Helvetica,sans-Serif" font-size="10.00" fill="#000000">ConfigLoader::load</text>
</a>
</g>
</g>
<!-- Node419&#45;&gt;Node420 -->
<g id="edge1" class="edge">
<title>Node419&#45;&gt;Node420</title>
<path fill="none" stroke="#191970" d="M199.9627,-14.5C191.3091,-14.5 182.6809,-14.5 174.5091,-14.5"/>
<polygon fill="#191970" stroke="#191970" points="200.1071,-18.0001 210.107,-14.5 200.107,-11.0001 200.1071,-18.0001"/>
</g>
<!-- Node421 -->
<g id="node3" class="node">
<title>Node421</title>
<g id="a_node3"><a xlink:href="main_8cpp.html#a4e6f00a867970a9eedf47b88a27b9eea" target="_top" xlink:title=" ">
<polygon fill="#ffffff" stroke="#000000" points="0,-5.5 0,-23.5 37.6748,-23.5 37.6748,-5.5 0,-5.5"/>
<text text-anchor="middle" x="18.8374" y="-11.5" font-family="Helvetica,sans-Serif" font-size="10.00" fill="#000000">main</text>
</a>
</g>
</g>
<!-- Node420&#45;&gt;Node421 -->
<g id="edge2" class="edge">
<title>Node420&#45;&gt;Node421</title>
<path fill="none" stroke="#191970" d="M63.4826,-14.5C54.2852,-14.5 45.4183,-14.5 38.0439,-14.5"/>
<polygon fill="#191970" stroke="#191970" points="63.5375,-18.0001 73.5375,-14.5 63.5374,-11.0001 63.5375,-18.0001"/>
</g>
</g>
</svg>
