<?xml version="1.0" encoding="UTF-8" standalone="no"?>
<!DOCTYPE svg PUBLIC "-//W3C//DTD SVG 1.1//EN"
 "http://www.w3.org/Graphics/SVG/1.1/DTD/svg11.dtd">
<!-- Generated by graphviz version 2.40.1 (20161225.0304)
 -->
<!-- Title: Lattice::zeros Pages: 1 -->
<svg width="421pt" height="273pt"
 viewBox="0.00 0.00 421.49 273.00" xmlns="http://www.w3.org/2000/svg" xmlns:xlink="http://www.w3.org/1999/xlink">
<g id="graph0" class="graph" transform="scale(1 1) rotate(0) translate(4 269)">
<title>Lattice::zeros</title>
<polygon fill="#ffffff" stroke="transparent" points="-4,4 -4,-269 417.4912,-269 417.4912,4 -4,4"/>
<!-- Node80 -->
<g id="node1" class="node">
<title>Node80</title>
<g id="a_node1"><a xlink:title="zeros sets all of the SU3 elements in the lattice to zero.">
<polygon fill="#bfbfbf" stroke="#000000" points="338.0186,-113.5 338.0186,-131.5 413.4912,-131.5 413.4912,-113.5 338.0186,-113.5"/>
<text text-anchor="middle" x="375.7549" y="-119.5" font-family="Helvetica,sans-Serif" font-size="10.00" fill="#000000">Lattice::zeros</text>
</a>
</g>
</g>
<!-- Node81 -->
<g id="node2" class="node">
<title>Node81</title>
<g id="a_node2"><a xlink:href="class_luscher_action.html#ac11785b2df276816a098a87e6ac514c7" target="_top" xlink:title="getActionDerivative, computes the derivative of the lattice in given direction.">
<polygon fill="#ffffff" stroke="#000000" points="175.3984,-236.5 175.3984,-264.5 302.0186,-264.5 302.0186,-236.5 175.3984,-236.5"/>
<text text-anchor="start" x="183.3984" y="-252.5" font-family="Helvetica,sans-Serif" font-size="10.00" fill="#000000">LuscherAction::getAction</text>
<text text-anchor="middle" x="238.7085" y="-242.5" font-family="Helvetica,sans-Serif" font-size="10.00" fill="#000000">Derivative</text>
</a>
</g>
</g>
<!-- Node80&#45;&gt;Node81 -->
<g id="edge1" class="edge">
<title>Node80&#45;&gt;Node81</title>
<path fill="none" stroke="#191970" d="M367.2464,-140.9264C355.6239,-164.1966 332.6757,-204.0239 302.0186,-227.5 297.5619,-230.9127 292.5508,-233.8543 287.3498,-236.3813"/>
<polygon fill="#191970" stroke="#191970" points="370.461,-142.318 371.6504,-131.7901 364.1554,-139.2784 370.461,-142.318"/>
</g>
<!-- Node82 -->
<g id="node3" class="node">
<title>Node82</title>
<g id="a_node3"><a xlink:href="class_wilson_gauge_action.html#a43cf939cd53495b7225fbeaa8a0ff6e8" target="_top" xlink:title="getActionDerivative, computes the derivative of the lattice in given direction.">
<polygon fill="#ffffff" stroke="#000000" points="184.019,-189.5 184.019,-217.5 293.3979,-217.5 293.3979,-189.5 184.019,-189.5"/>
<text text-anchor="start" x="192.019" y="-205.5" font-family="Helvetica,sans-Serif" font-size="10.00" fill="#000000">WilsonGaugeAction::</text>
<text text-anchor="middle" x="238.7085" y="-195.5" font-family="Helvetica,sans-Serif" font-size="10.00" fill="#000000">getActionDerivative</text>
</a>
</g>
</g>
<!-- Node80&#45;&gt;Node82 -->
<g id="edge2" class="edge">
<title>Node80&#45;&gt;Node82</title>
<path fill="none" stroke="#191970" d="M356.008,-137.9379C341.5261,-148.8784 321.1357,-163.5065 302.0186,-174.5 292.6911,-179.8638 282.1972,-185.0032 272.4752,-189.4259"/>
<polygon fill="#191970" stroke="#191970" points="358.3849,-140.5261 364.1972,-131.6679 354.1295,-134.9681 358.3849,-140.5261"/>
</g>
<!-- Node83 -->
<g id="node4" class="node">
<title>Node83</title>
<g id="a_node4"><a xlink:href="lattice_8h.html#ab2d48b63b79e5e5ee3ca25483fe98b3e" target="_top" xlink:title=" ">
<polygon fill="#ffffff" stroke="#000000" points="180.8721,-113.5 180.8721,-131.5 296.5449,-131.5 296.5449,-113.5 180.8721,-113.5"/>
<text text-anchor="middle" x="238.7085" y="-119.5" font-family="Helvetica,sans-Serif" font-size="10.00" fill="#000000">realTraceMultiplication</text>
</a>
</g>
</g>
<!-- Node80&#45;&gt;Node83 -->
<g id="edge3" class="edge">
<title>Node80&#45;&gt;Node83</title>
<path fill="none" stroke="#191970" d="M327.7617,-122.5C317.7272,-122.5 307.0455,-122.5 296.6927,-122.5"/>
<polygon fill="#191970" stroke="#191970" points="327.9436,-126.0001 337.9436,-122.5 327.9435,-119.0001 327.9436,-126.0001"/>
</g>
<!-- Node84 -->
<g id="node5" class="node">
<title>Node84</title>
<g id="a_node5"><a xlink:href="class_lattice_action_charge_density.html#a3dddc75188042c645fbdd1c8b3e80c8a" target="_top" xlink:title="Correlator::calculate calculates a observable.">
<polygon fill="#ffffff" stroke="#000000" points="0,-155.5 0,-183.5 139.3984,-183.5 139.3984,-155.5 0,-155.5"/>
<text text-anchor="start" x="8" y="-171.5" font-family="Helvetica,sans-Serif" font-size="10.00" fill="#000000">LatticeActionChargeDensity</text>
<text text-anchor="middle" x="69.6992" y="-161.5" font-family="Helvetica,sans-Serif" font-size="10.00" fill="#000000">::calculate</text>
</a>
</g>
</g>
<!-- Node80&#45;&gt;Node84 -->
<g id="edge9" class="edge">
<title>Node80&#45;&gt;Node84</title>
<path fill="none" stroke="#191970" d="M332.1488,-134.0248C322.2864,-136.3853 311.8298,-138.6963 302.0186,-140.5 247.7507,-150.4765 185.7106,-158.027 139.4006,-162.919"/>
<polygon fill="#191970" stroke="#191970" points="333.2828,-137.3504 342.1593,-131.5661 331.6131,-130.5524 333.2828,-137.3504"/>
</g>
<!-- Node86 -->
<g id="node7" class="node">
<title>Node86</title>
<g id="a_node7"><a xlink:href="class_super_sampler.html#a7e1457583270077c4fbcb288ea9b954c" target="_top" xlink:title="Correlator::calculate calculates a observable.">
<polygon fill="#ffffff" stroke="#000000" points="7.2266,-71.5 7.2266,-89.5 132.1719,-89.5 132.1719,-71.5 7.2266,-71.5"/>
<text text-anchor="middle" x="69.6992" y="-77.5" font-family="Helvetica,sans-Serif" font-size="10.00" fill="#000000">SuperSampler::calculate</text>
</a>
</g>
</g>
<!-- Node80&#45;&gt;Node86 -->
<g id="edge10" class="edge">
<title>Node80&#45;&gt;Node86</title>
<path fill="none" stroke="#191970" d="M335.1859,-110.8559C324.4717,-108.1087 312.8692,-105.4233 302.0186,-103.5 244.9497,-93.3842 179.1476,-87.393 132.1759,-84.0749"/>
<polygon fill="#191970" stroke="#191970" points="334.57,-114.3133 345.1325,-113.4858 336.3595,-107.5458 334.57,-114.3133"/>
</g>
<!-- Node87 -->
<g id="node8" class="node">
<title>Node87</title>
<g id="a_node8"><a xlink:href="lattice_8h.html#adb16681d0c7120b111172c031ec74d06" target="_top" xlink:title=" ">
<polygon fill="#ffffff" stroke="#000000" points="178.3721,-37.5 178.3721,-55.5 299.0449,-55.5 299.0449,-37.5 178.3721,-37.5"/>
<text text-anchor="middle" x="238.7085" y="-43.5" font-family="Helvetica,sans-Serif" font-size="10.00" fill="#000000">imagTraceMultiplication</text>
</a>
</g>
</g>
<!-- Node80&#45;&gt;Node87 -->
<g id="edge7" class="edge">
<title>Node80&#45;&gt;Node87</title>
<path fill="none" stroke="#191970" d="M356.7307,-107.0594C342.3278,-95.8843 321.7233,-80.9669 302.0186,-70.5 291.0148,-64.6549 278.2691,-59.5356 267.1107,-55.5431"/>
<polygon fill="#191970" stroke="#191970" points="354.8171,-110.0081 364.8336,-113.4607 359.1564,-104.5153 354.8171,-110.0081"/>
</g>
<!-- Node88 -->
<g id="node9" class="node">
<title>Node88</title>
<g id="a_node9"><a xlink:href="class_correlator.html#ab33502ff305f891c5c2e6d66a26a0247" target="_top" xlink:title="Correlator::calculate calculates a observable.">
<polygon fill="#ffffff" stroke="#000000" points="185.9673,-.5 185.9673,-18.5 291.4497,-18.5 291.4497,-.5 185.9673,-.5"/>
<text text-anchor="middle" x="238.7085" y="-6.5" font-family="Helvetica,sans-Serif" font-size="10.00" fill="#000000">Correlator::calculate</text>
</a>
</g>
</g>
<!-- Node80&#45;&gt;Node88 -->
<g id="edge8" class="edge">
<title>Node80&#45;&gt;Node88</title>
<path fill="none" stroke="#191970" d="M366.3547,-104.2893C354.3162,-82.7648 331.4457,-47.3689 302.0186,-27.5 296.6204,-23.8553 290.4875,-20.9412 284.2147,-18.6131"/>
<polygon fill="#191970" stroke="#191970" points="363.416,-106.2139 371.2422,-113.3553 369.5776,-102.8921 363.416,-106.2139"/>
</g>
<!-- Node83&#45;&gt;Node84 -->
<g id="edge4" class="edge">
<title>Node83&#45;&gt;Node84</title>
<path fill="none" stroke="#191970" d="M196.2639,-134.3035C173.1509,-140.731 144.4034,-148.7254 120.15,-155.4701"/>
<polygon fill="#191970" stroke="#191970" points="197.4252,-137.6134 206.1218,-131.5621 195.5496,-130.8693 197.4252,-137.6134"/>
</g>
<!-- Node85 -->
<g id="node6" class="node">
<title>Node85</title>
<g id="a_node6"><a xlink:href="class_master_sampler_topc_x_y_z.html#a0ea80ad9935db791f00461b7dfd548b7" target="_top" xlink:title="Correlator::calculate calculates a observable.">
<polygon fill="#ffffff" stroke="#000000" points="7.5146,-108.5 7.5146,-136.5 131.8838,-136.5 131.8838,-108.5 7.5146,-108.5"/>
<text text-anchor="start" x="15.5146" y="-124.5" font-family="Helvetica,sans-Serif" font-size="10.00" fill="#000000">MasterSamplerTopcXYZ</text>
<text text-anchor="middle" x="69.6992" y="-114.5" font-family="Helvetica,sans-Serif" font-size="10.00" fill="#000000">::calculate</text>
</a>
</g>
</g>
<!-- Node83&#45;&gt;Node85 -->
<g id="edge5" class="edge">
<title>Node83&#45;&gt;Node85</title>
<path fill="none" stroke="#191970" d="M170.4797,-122.5C157.7635,-122.5 144.5363,-122.5 132.0094,-122.5"/>
<polygon fill="#191970" stroke="#191970" points="170.5451,-126.0001 180.5451,-122.5 170.5451,-119.0001 170.5451,-126.0001"/>
</g>
<!-- Node83&#45;&gt;Node86 -->
<g id="edge6" class="edge">
<title>Node83&#45;&gt;Node86</title>
<path fill="none" stroke="#191970" d="M192.404,-110.993C165.2533,-104.2459 131.4393,-95.8428 106.1872,-89.5675"/>
<polygon fill="#191970" stroke="#191970" points="191.9028,-114.4748 202.4518,-113.4899 193.5911,-107.6815 191.9028,-114.4748"/>
</g>
</g>
</svg>
