<?xml version="1.0" encoding="UTF-8" standalone="no"?>
<!DOCTYPE svg PUBLIC "-//W3C//DTD SVG 1.1//EN"
 "http://www.w3.org/Graphics/SVG/1.1/DTD/svg11.dtd">
<!-- Generated by graphviz version 2.40.1 (20161225.0304)
 -->
<!-- Title: Parameters::getNTemporal Pages: 1 -->
<svg width="550pt" height="499pt"
 viewBox="0.00 0.00 550.40 499.26" xmlns="http://www.w3.org/2000/svg" xmlns:xlink="http://www.w3.org/1999/xlink">
<g id="graph0" class="graph" transform="scale(1 1) rotate(0) translate(4 495.259)">
<title>Parameters::getNTemporal</title>
<polygon fill="#ffffff" stroke="transparent" points="-4,4 -4,-495.259 546.3975,-495.259 546.3975,4 -4,4"/>
<!-- Node238 -->
<g id="node1" class="node">
<title>Node238</title>
<g id="a_node1"><a xlink:title=" ">
<polygon fill="#bfbfbf" stroke="#000000" points="406.9053,-234.759 406.9053,-252.759 542.3975,-252.759 542.3975,-234.759 406.9053,-234.759"/>
<text text-anchor="middle" x="474.6514" y="-240.759" font-family="Helvetica,sans-Serif" font-size="10.00" fill="#000000">Parameters::getNTemporal</text>
</a>
</g>
</g>
<!-- Node239 -->
<g id="node2" class="node">
<title>Node239</title>
<g id="a_node2"><a xlink:href="class_i_o_1_1_field_i_o.html#a44dc4aa1786974c091082c5b37be73a1" target="_top" xlink:title=" ">
<polygon fill="#ffffff" stroke="#000000" points="225.6914,-472.759 225.6914,-490.759 365.0557,-490.759 365.0557,-472.759 225.6914,-472.759"/>
<text text-anchor="middle" x="295.3735" y="-478.759" font-family="Helvetica,sans-Serif" font-size="10.00" fill="#000000">IO::FieldIO::writeFieldToFile</text>
</a>
</g>
</g>
<!-- Node238&#45;&gt;Node239 -->
<g id="edge1" class="edge">
<title>Node238&#45;&gt;Node239</title>
<path fill="none" stroke="#191970" d="M471.3566,-263.0167C462.9413,-306.0668 436.506,-410.4877 370.9053,-463.759 366.4055,-467.413 361.2864,-470.3474 355.8829,-472.7007"/>
<polygon fill="#191970" stroke="#191970" points="474.8274,-263.4947 473.196,-253.0262 467.9431,-262.2271 474.8274,-263.4947"/>
</g>
<!-- Node240 -->
<g id="node3" class="node">
<title>Node240</title>
<g id="a_node3"><a xlink:href="class_i_o_1_1_field_i_o.html#a4bfe0fd7890fe69b88fbbe3864fd00ae" target="_top" xlink:title=" ">
<polygon fill="#ffffff" stroke="#000000" points="231.5215,-425.759 231.5215,-453.759 359.2256,-453.759 359.2256,-425.759 231.5215,-425.759"/>
<text text-anchor="start" x="239.5215" y="-441.759" font-family="Helvetica,sans-Serif" font-size="10.00" fill="#000000">IO::FieldIO::writeDoubles</text>
<text text-anchor="middle" x="295.3735" y="-431.759" font-family="Helvetica,sans-Serif" font-size="10.00" fill="#000000">FieldToFile</text>
</a>
</g>
</g>
<!-- Node238&#45;&gt;Node240 -->
<g id="edge2" class="edge">
<title>Node238&#45;&gt;Node240</title>
<path fill="none" stroke="#191970" d="M468.5787,-262.4574C456.1001,-297.927 424.1819,-375.1457 370.9053,-416.759 366.4761,-420.2185 361.5283,-423.1598 356.3415,-425.6603"/>
<polygon fill="#191970" stroke="#191970" points="471.9311,-263.4699 471.8294,-252.8756 465.3022,-261.221 471.9311,-263.4699"/>
</g>
<!-- Node242 -->
<g id="node5" class="node">
<title>Node242</title>
<g id="a_node5"><a xlink:href="class_master_sampler_topc_x_y_z.html#ad8ba8f2c50c66d823c551f71fd62a99b" target="_top" xlink:title=" ">
<polygon fill="#ffffff" stroke="#000000" points="230.4106,-378.759 230.4106,-406.759 360.3364,-406.759 360.3364,-378.759 230.4106,-378.759"/>
<text text-anchor="start" x="238.4106" y="-394.759" font-family="Helvetica,sans-Serif" font-size="10.00" fill="#000000">MasterSamplerTopcXYZ</text>
<text text-anchor="middle" x="295.3735" y="-384.759" font-family="Helvetica,sans-Serif" font-size="10.00" fill="#000000">::MasterSamplerTopcXYZ</text>
</a>
</g>
</g>
<!-- Node238&#45;&gt;Node242 -->
<g id="edge4" class="edge">
<title>Node238&#45;&gt;Node242</title>
<path fill="none" stroke="#191970" d="M463.6016,-261.3332C446.5907,-287.094 411.6521,-335.1434 370.9053,-363.759 362.399,-369.7327 352.4992,-374.6761 342.7222,-378.6856"/>
<polygon fill="#191970" stroke="#191970" points="466.5455,-263.2263 469.0352,-252.9281 460.6669,-259.426 466.5455,-263.2263"/>
</g>
<!-- Node243 -->
<g id="node6" class="node">
<title>Node243</title>
<g id="a_node6"><a xlink:href="class_master_sampler_topc_x_y_z.html#a4fba4290e4406e18ef3f2904c6ae364f" target="_top" xlink:title=" ">
<polygon fill="#ffffff" stroke="#000000" points="18.623,-271.759 18.623,-299.759 165.2188,-299.759 165.2188,-271.759 18.623,-271.759"/>
<text text-anchor="start" x="26.623" y="-287.759" font-family="Helvetica,sans-Serif" font-size="10.00" fill="#000000">MasterSamplerTopcXYZ</text>
<text text-anchor="middle" x="91.9209" y="-277.759" font-family="Helvetica,sans-Serif" font-size="10.00" fill="#000000">::writeFlowObservablesToFile</text>
</a>
</g>
</g>
<!-- Node238&#45;&gt;Node243 -->
<g id="edge5" class="edge">
<title>Node238&#45;&gt;Node243</title>
<path fill="none" stroke="#191970" d="M461.1028,-260.8274C443.1212,-281.9544 409.1528,-316.8445 370.9053,-330.759 283.7675,-362.4596 173.2311,-322.8246 121.3409,-299.9068"/>
<polygon fill="#191970" stroke="#191970" points="463.9236,-262.9082 467.5941,-252.9695 458.5268,-258.45 463.9236,-262.9082"/>
</g>
<!-- Node244 -->
<g id="node7" class="node">
<title>Node244</title>
<g id="a_node7"><a xlink:href="class_master_sampler_topc_x_y_z.html#aef8d0b1b431711c6410cfece1c007b4a" target="_top" xlink:title=" ">
<polygon fill="#ffffff" stroke="#000000" points="233.189,-292.759 233.189,-320.759 357.5581,-320.759 357.5581,-292.759 233.189,-292.759"/>
<text text-anchor="start" x="241.189" y="-308.759" font-family="Helvetica,sans-Serif" font-size="10.00" fill="#000000">MasterSamplerTopcXYZ</text>
<text text-anchor="middle" x="295.3735" y="-298.759" font-family="Helvetica,sans-Serif" font-size="10.00" fill="#000000">::reset</text>
</a>
</g>
</g>
<!-- Node238&#45;&gt;Node244 -->
<g id="edge6" class="edge">
<title>Node238&#45;&gt;Node244</title>
<path fill="none" stroke="#191970" d="M443.1146,-256.6015C422.6658,-264.7587 395.3731,-275.3292 370.9053,-283.759 362.0925,-286.7952 352.6322,-289.8413 343.4902,-292.6777"/>
<polygon fill="#191970" stroke="#191970" points="444.5838,-259.7833 452.5609,-252.8108 441.9768,-253.2868 444.5838,-259.7833"/>
</g>
<!-- Node245 -->
<g id="node8" class="node">
<title>Node245</title>
<g id="a_node8"><a xlink:href="class_super_sampler.html#a6bf01b68f9befc5bf01c822e28c0c88d" target="_top" xlink:title=" ">
<polygon fill="#ffffff" stroke="#000000" points="220.6743,-255.759 220.6743,-273.759 370.0728,-273.759 370.0728,-255.759 220.6743,-255.759"/>
<text text-anchor="middle" x="295.3735" y="-261.759" font-family="Helvetica,sans-Serif" font-size="10.00" fill="#000000">SuperSampler::SuperSampler</text>
</a>
</g>
</g>
<!-- Node238&#45;&gt;Node245 -->
<g id="edge7" class="edge">
<title>Node238&#45;&gt;Node245</title>
<path fill="none" stroke="#191970" d="M396.9263,-252.8634C388.0385,-253.9045 378.9918,-254.9642 370.1438,-256.0006"/>
<polygon fill="#191970" stroke="#191970" points="397.3492,-256.3379 406.8741,-251.6982 396.5348,-249.3854 397.3492,-256.3379"/>
</g>
<!-- Node246 -->
<g id="node9" class="node">
<title>Node246</title>
<g id="a_node9"><a xlink:href="class_super_sampler.html#a410b650ebccdb03519c88908a3a8013e" target="_top" xlink:title=" ">
<polygon fill="#ffffff" stroke="#000000" points="0,-168.759 0,-196.759 183.8418,-196.759 183.8418,-168.759 0,-168.759"/>
<text text-anchor="start" x="8" y="-184.759" font-family="Helvetica,sans-Serif" font-size="10.00" fill="#000000">SuperSampler::writeFlowObservables</text>
<text text-anchor="middle" x="91.9209" y="-174.759" font-family="Helvetica,sans-Serif" font-size="10.00" fill="#000000">ToFile</text>
</a>
</g>
</g>
<!-- Node238&#45;&gt;Node246 -->
<g id="edge8" class="edge">
<title>Node238&#45;&gt;Node246</title>
<path fill="none" stroke="#191970" d="M460.0328,-226.9747C441.5824,-207.2039 407.7727,-175.4466 370.9053,-162.759 292.3887,-135.7381 194.2875,-153.7391 137.7982,-168.6717"/>
<polygon fill="#191970" stroke="#191970" points="457.6555,-229.5635 466.964,-234.6235 462.8426,-224.8631 457.6555,-229.5635"/>
</g>
<!-- Node247 -->
<g id="node10" class="node">
<title>Node247</title>
<g id="a_node10"><a xlink:href="class_super_sampler.html#ab2f028561e015500fac1e3093aa4a725" target="_top" xlink:title=" ">
<polygon fill="#ffffff" stroke="#000000" points="241.519,-171.759 241.519,-189.759 349.228,-189.759 349.228,-171.759 241.519,-171.759"/>
<text text-anchor="middle" x="295.3735" y="-177.759" font-family="Helvetica,sans-Serif" font-size="10.00" fill="#000000">SuperSampler::reset</text>
</a>
</g>
</g>
<!-- Node238&#45;&gt;Node247 -->
<g id="edge9" class="edge">
<title>Node238&#45;&gt;Node247</title>
<path fill="none" stroke="#191970" d="M446.7393,-230.5279C426.1104,-221.0941 397.165,-208.5714 370.9053,-199.759 359.7527,-196.0163 347.4569,-192.6231 336.083,-189.7741"/>
<polygon fill="#191970" stroke="#191970" points="445.3253,-233.7301 455.8709,-234.7506 448.2634,-227.3765 445.3253,-233.7301"/>
</g>
<!-- Node248 -->
<g id="node11" class="node">
<title>Node248</title>
<g id="a_node11"><a xlink:href="class_parallel_1_1_communicator.html#a3da13427d693e0ce924159e871c83e19" target="_top" xlink:title=" ">
<polygon fill="#ffffff" stroke="#000000" points="219.8418,-208.759 219.8418,-236.759 370.9053,-236.759 370.9053,-208.759 219.8418,-208.759"/>
<text text-anchor="start" x="227.8418" y="-224.759" font-family="Helvetica,sans-Serif" font-size="10.00" fill="#000000">Parallel::Communicator</text>
<text text-anchor="middle" x="295.3735" y="-214.759" font-family="Helvetica,sans-Serif" font-size="10.00" fill="#000000">::reduceToTemporalDimension</text>
</a>
</g>
</g>
<!-- Node238&#45;&gt;Node248 -->
<g id="edge10" class="edge">
<title>Node238&#45;&gt;Node248</title>
<path fill="none" stroke="#191970" d="M396.8955,-234.6509C388.3209,-233.6465 379.5988,-232.6248 371.0503,-231.6235"/>
<polygon fill="#191970" stroke="#191970" points="396.5348,-238.1325 406.8741,-235.8198 397.3492,-231.18 396.5348,-238.1325"/>
</g>
<!-- Node249 -->
<g id="node12" class="node">
<title>Node249</title>
<g id="a_node12"><a xlink:href="class_parallel_1_1_communicator.html#a003d94aceebf2fddc6b4ceff584ac8d7" target="_top" xlink:title=" ">
<polygon fill="#ffffff" stroke="#000000" points="232.1563,-85.759 232.1563,-113.759 358.5908,-113.759 358.5908,-85.759 232.1563,-85.759"/>
<text text-anchor="start" x="240.1563" y="-101.759" font-family="Helvetica,sans-Serif" font-size="10.00" fill="#000000">Parallel::Communicator</text>
<text text-anchor="middle" x="295.3735" y="-91.759" font-family="Helvetica,sans-Serif" font-size="10.00" fill="#000000">::checkSubLatticeValidity</text>
</a>
</g>
</g>
<!-- Node238&#45;&gt;Node249 -->
<g id="edge13" class="edge">
<title>Node238&#45;&gt;Node249</title>
<path fill="none" stroke="#191970" d="M462.9433,-226.2488C445.5423,-201.4319 410.6098,-156.0212 370.9053,-128.759 362.2206,-122.7958 352.1416,-117.8376 342.2308,-113.8073"/>
<polygon fill="#191970" stroke="#191970" points="460.181,-228.4092 468.7274,-234.671 465.9513,-224.4463 460.181,-228.4092"/>
</g>
<!-- Node250 -->
<g id="node13" class="node">
<title>Node250</title>
<g id="a_node13"><a xlink:href="class_parallel_1_1_communicator.html#a71baca622b377e6537799857be416a77" target="_top" xlink:title=" ">
<polygon fill="#ffffff" stroke="#000000" points="235.4106,-38.759 235.4106,-66.759 355.3364,-66.759 355.3364,-38.759 235.4106,-38.759"/>
<text text-anchor="start" x="243.4106" y="-54.759" font-family="Helvetica,sans-Serif" font-size="10.00" fill="#000000">Parallel::Communicator</text>
<text text-anchor="middle" x="295.3735" y="-44.759" font-family="Helvetica,sans-Serif" font-size="10.00" fill="#000000">::initializeSubLattice</text>
</a>
</g>
</g>
<!-- Node238&#45;&gt;Node250 -->
<g id="edge14" class="edge">
<title>Node238&#45;&gt;Node250</title>
<path fill="none" stroke="#191970" d="M467.9947,-224.832C454.884,-190.2795 422.4355,-116.858 370.9053,-76.759 365.9102,-72.872 360.2715,-69.607 354.3818,-66.866"/>
<polygon fill="#191970" stroke="#191970" points="464.8445,-226.4079 471.5716,-234.5931 471.4171,-223.9993 464.8445,-226.4079"/>
</g>
<!-- Node251 -->
<g id="node14" class="node">
<title>Node251</title>
<g id="a_node14"><a xlink:href="class_test_suite.html#af7291e6d8b53443604ee0c1fcf1fadfc" target="_top" xlink:title=" ">
<polygon fill="#ffffff" stroke="#000000" points="40.0098,-22.759 40.0098,-40.759 143.832,-40.759 143.832,-22.759 40.0098,-22.759"/>
<text text-anchor="middle" x="91.9209" y="-28.759" font-family="Helvetica,sans-Serif" font-size="10.00" fill="#000000">TestSuite::TestSuite</text>
</a>
</g>
</g>
<!-- Node238&#45;&gt;Node251 -->
<g id="edge16" class="edge">
<title>Node238&#45;&gt;Node251</title>
<path fill="none" stroke="#191970" d="M472.1603,-224.6881C465.2864,-180.8266 441.6207,-73.1538 370.9053,-28.759 291.1148,21.3331 171.5265,-6.423 118.6729,-22.6499"/>
<polygon fill="#191970" stroke="#191970" points="468.6994,-225.2113 473.5936,-234.6079 475.6275,-224.2102 468.6994,-225.2113"/>
</g>
<!-- Node241 -->
<g id="node4" class="node">
<title>Node241</title>
<g id="a_node4"><a xlink:href="class_lattice_action_charge_density.html#a3dddc75188042c645fbdd1c8b3e80c8a" target="_top" xlink:title=" ">
<polygon fill="#ffffff" stroke="#000000" points="22.2217,-425.759 22.2217,-453.759 161.6201,-453.759 161.6201,-425.759 22.2217,-425.759"/>
<text text-anchor="start" x="30.2217" y="-441.759" font-family="Helvetica,sans-Serif" font-size="10.00" fill="#000000">LatticeActionChargeDensity</text>
<text text-anchor="middle" x="91.9209" y="-431.759" font-family="Helvetica,sans-Serif" font-size="10.00" fill="#000000">::calculate</text>
</a>
</g>
</g>
<!-- Node240&#45;&gt;Node241 -->
<g id="edge3" class="edge">
<title>Node240&#45;&gt;Node241</title>
<path fill="none" stroke="#191970" d="M221.2579,-439.759C201.8088,-439.759 180.9029,-439.759 161.6898,-439.759"/>
<polygon fill="#191970" stroke="#191970" points="221.2791,-443.2591 231.2791,-439.759 221.2791,-436.2591 221.2791,-443.2591"/>
</g>
<!-- Node248&#45;&gt;Node243 -->
<g id="edge11" class="edge">
<title>Node248&#45;&gt;Node243</title>
<path fill="none" stroke="#191970" d="M240.2187,-239.8379C207.9138,-249.8412 167.6182,-262.319 137.1876,-271.7419"/>
<polygon fill="#191970" stroke="#191970" points="241.4508,-243.1204 249.968,-236.819 239.3802,-236.4337 241.4508,-243.1204"/>
</g>
<!-- Node248&#45;&gt;Node246 -->
<g id="edge12" class="edge">
<title>Node248&#45;&gt;Node246</title>
<path fill="none" stroke="#191970" d="M214.1171,-206.7835C197.2727,-203.4718 179.6471,-200.0065 163.1926,-196.7714"/>
<polygon fill="#191970" stroke="#191970" points="213.4424,-210.2178 223.9298,-208.7127 214.7929,-203.3492 213.4424,-210.2178"/>
</g>
<!-- Node250&#45;&gt;Node251 -->
<g id="edge15" class="edge">
<title>Node250&#45;&gt;Node251</title>
<path fill="none" stroke="#191970" d="M225.1301,-45.5086C198.5157,-42.7615 168.7118,-39.6852 144.0544,-37.1401"/>
<polygon fill="#191970" stroke="#191970" points="224.8503,-48.9982 235.1568,-46.5435 225.5691,-42.0352 224.8503,-48.9982"/>
</g>
</g>
</svg>
