<?xml version="1.0" encoding="UTF-8" standalone="no"?>
<!DOCTYPE svg PUBLIC "-//W3C//DTD SVG 1.1//EN"
 "http://www.w3.org/Graphics/SVG/1.1/DTD/svg11.dtd">
<!-- Generated by graphviz version 2.40.1 (20161225.0304)
 -->
<!-- Title: SU3MatrixGenerator::generateRST Pages: 1 -->
<svg width="361pt" height="37pt"
 viewBox="0.00 0.00 360.86 37.00" xmlns="http://www.w3.org/2000/svg" xmlns:xlink="http://www.w3.org/1999/xlink">
<g id="graph0" class="graph" transform="scale(1 1) rotate(0) translate(4 33)">
<title>SU3MatrixGenerator::generateRST</title>
<polygon fill="#ffffff" stroke="transparent" points="-4,4 -4,-33 356.8613,-33 356.8613,4 -4,4"/>
<!-- Node12 -->
<g id="node1" class="node">
<title>Node12</title>
<g id="a_node1"><a xlink:title="SU3MatrixGenerator::generateRST generates a SU3 matrix close to unity.">
<polygon fill="#bfbfbf" stroke="#000000" points="0,-.5 0,-28.5 107.6992,-28.5 107.6992,-.5 0,-.5"/>
<text text-anchor="start" x="8" y="-16.5" font-family="Helvetica,sans-Serif" font-size="10.00" fill="#000000">SU3MatrixGenerator</text>
<text text-anchor="middle" x="53.8496" y="-6.5" font-family="Helvetica,sans-Serif" font-size="10.00" fill="#000000">::generateRST</text>
</a>
</g>
</g>
<!-- Node13 -->
<g id="node2" class="node">
<title>Node13</title>
<g id="a_node2"><a xlink:href="class_s_u3_matrix_generator.html#aa4e04caff654a1df7c43280b85f359bc" target="_top" xlink:title="SU3MatrixGenerator::generateSU2 generates a random SU2 matrix close to unity.">
<polygon fill="#ffffff" stroke="#000000" points="143.6992,-.5 143.6992,-28.5 251.3984,-28.5 251.3984,-.5 143.6992,-.5"/>
<text text-anchor="start" x="151.6992" y="-16.5" font-family="Helvetica,sans-Serif" font-size="10.00" fill="#000000">SU3MatrixGenerator</text>
<text text-anchor="middle" x="197.5488" y="-6.5" font-family="Helvetica,sans-Serif" font-size="10.00" fill="#000000">::generateSU2</text>
</a>
</g>
</g>
<!-- Node12&#45;&gt;Node13 -->
<g id="edge1" class="edge">
<title>Node12&#45;&gt;Node13</title>
<path fill="none" stroke="#191970" d="M107.7667,-14.5C116.033,-14.5 124.6376,-14.5 133.1036,-14.5"/>
<polygon fill="#191970" stroke="#191970" points="133.3295,-18.0001 143.3295,-14.5 133.3295,-11.0001 133.3295,-18.0001"/>
</g>
<!-- Node14 -->
<g id="node3" class="node">
<title>Node14</title>
<g id="a_node3"><a xlink:href="class_s_u2.html#a348ca5d38346892060a05f7d9de02916" target="_top" xlink:title=" ">
<polygon fill="#ffffff" stroke="#000000" points="287.3984,-5.5 287.3984,-23.5 352.8613,-23.5 352.8613,-5.5 287.3984,-5.5"/>
<text text-anchor="middle" x="320.1299" y="-11.5" font-family="Helvetica,sans-Serif" font-size="10.00" fill="#000000">SU2::zeros</text>
</a>
</g>
</g>
<!-- Node13&#45;&gt;Node14 -->
<g id="edge2" class="edge">
<title>Node13&#45;&gt;Node14</title>
<path fill="none" stroke="#191970" d="M251.6715,-14.5C260.1495,-14.5 268.813,-14.5 277.0011,-14.5"/>
<polygon fill="#191970" stroke="#191970" points="277.0688,-18.0001 287.0687,-14.5 277.0687,-11.0001 277.0688,-18.0001"/>
</g>
</g>
</svg>
