<?xml version="1.0" encoding="UTF-8" standalone="no"?>
<!DOCTYPE svg PUBLIC "-//W3C//DTD SVG 1.1//EN"
 "http://www.w3.org/Graphics/SVG/1.1/DTD/svg11.dtd">
<!-- Generated by graphviz version 2.40.1 (20161225.0304)
 -->
<!-- Title: EnergyDensity::runStatistics Pages: 1 -->
<svg width="495pt" height="74pt"
 viewBox="0.00 0.00 495.36 74.00" xmlns="http://www.w3.org/2000/svg" xmlns:xlink="http://www.w3.org/1999/xlink">
<g id="graph0" class="graph" transform="scale(1 1) rotate(0) translate(4 70)">
<title>EnergyDensity::runStatistics</title>
<polygon fill="#ffffff" stroke="transparent" points="-4,4 -4,-70 491.3633,-70 491.3633,4 -4,4"/>
<!-- Node25 -->
<g id="node1" class="node">
<title>Node25</title>
<g id="a_node1"><a xlink:title=" ">
<polygon fill="#bfbfbf" stroke="#000000" points="0,-21.5 0,-39.5 141.0488,-39.5 141.0488,-21.5 0,-21.5"/>
<text text-anchor="middle" x="70.5244" y="-27.5" font-family="Helvetica,sans-Serif" font-size="10.00" fill="#000000">EnergyDensity::runStatistics</text>
</a>
</g>
</g>
<!-- Node26 -->
<g id="node2" class="node">
<title>Node26</title>
<g id="a_node2"><a xlink:href="class_observable_storer.html#a593f13b0dd0f9d20608ef6b84fda3f1d" target="_top" xlink:title=" ">
<polygon fill="#ffffff" stroke="#000000" points="190.103,-37.5 190.103,-65.5 318.3833,-65.5 318.3833,-37.5 190.103,-37.5"/>
<text text-anchor="start" x="198.103" y="-53.5" font-family="Helvetica,sans-Serif" font-size="10.00" fill="#000000">ObservableStorer::gather</text>
<text text-anchor="middle" x="254.2432" y="-43.5" font-family="Helvetica,sans-Serif" font-size="10.00" fill="#000000">Results</text>
</a>
</g>
</g>
<!-- Node25&#45;&gt;Node26 -->
<g id="edge1" class="edge">
<title>Node25&#45;&gt;Node26</title>
<path fill="none" stroke="#191970" d="M141.2921,-38.5891C153.8942,-40.0296 167.0563,-41.5341 179.7583,-42.986"/>
<polygon fill="#191970" stroke="#191970" points="179.4942,-46.4785 189.827,-44.1369 180.2892,-39.5238 179.4942,-46.4785"/>
</g>
<!-- Node28 -->
<g id="node4" class="node">
<title>Node28</title>
<g id="a_node4"><a xlink:href="class_observable_storer.html#a41b3756b423d31c6535d2981ef92d1a1" target="_top" xlink:title=" ">
<polygon fill="#ffffff" stroke="#000000" points="177.0488,-.5 177.0488,-18.5 331.4375,-18.5 331.4375,-.5 177.0488,-.5"/>
<text text-anchor="middle" x="254.2432" y="-6.5" font-family="Helvetica,sans-Serif" font-size="10.00" fill="#000000">ObservableStorer::runStatistics</text>
</a>
</g>
</g>
<!-- Node25&#45;&gt;Node28 -->
<g id="edge3" class="edge">
<title>Node25&#45;&gt;Node28</title>
<path fill="none" stroke="#191970" d="M141.2921,-22.4109C149.6472,-21.4559 158.2484,-20.4727 166.7985,-19.4954"/>
<polygon fill="#191970" stroke="#191970" points="167.2565,-22.9659 176.7943,-18.3528 166.4614,-16.0112 167.2565,-22.9659"/>
</g>
<!-- Node27 -->
<g id="node3" class="node">
<title>Node27</title>
<g id="a_node3"><a xlink:href="class_parallel_1_1_communicator.html#a7b1f80fb49a0cc83f2031c3415174150" target="_top" xlink:title=" ">
<polygon fill="#ffffff" stroke="#000000" points="367.4375,-37.5 367.4375,-65.5 487.3633,-65.5 487.3633,-37.5 367.4375,-37.5"/>
<text text-anchor="start" x="375.4375" y="-53.5" font-family="Helvetica,sans-Serif" font-size="10.00" fill="#000000">Parallel::Communicator</text>
<text text-anchor="middle" x="427.4004" y="-43.5" font-family="Helvetica,sans-Serif" font-size="10.00" fill="#000000">::getNumProc</text>
</a>
</g>
</g>
<!-- Node26&#45;&gt;Node27 -->
<g id="edge2" class="edge">
<title>Node26&#45;&gt;Node27</title>
<path fill="none" stroke="#191970" d="M318.7205,-51.5C331.2394,-51.5 344.4189,-51.5 357.1137,-51.5"/>
<polygon fill="#191970" stroke="#191970" points="357.1688,-55.0001 367.1688,-51.5 357.1688,-48.0001 357.1688,-55.0001"/>
</g>
</g>
</svg>
