<?xml version="1.0" encoding="UTF-8" standalone="no"?>
<!DOCTYPE svg PUBLIC "-//W3C//DTD SVG 1.1//EN"
 "http://www.w3.org/Graphics/SVG/1.1/DTD/svg11.dtd">
<!-- Generated by graphviz version 2.40.1 (20161225.0304)
 -->
<!-- Title: MasterSampler::printObservable Pages: 1 -->
<svg width="369pt" height="205pt"
 viewBox="0.00 0.00 368.91 205.00" xmlns="http://www.w3.org/2000/svg" xmlns:xlink="http://www.w3.org/1999/xlink">
<g id="graph0" class="graph" transform="scale(1 1) rotate(0) translate(4 201)">
<title>MasterSampler::printObservable</title>
<polygon fill="#ffffff" stroke="transparent" points="-4,4 -4,-201 364.9102,-201 364.9102,4 -4,4"/>
<!-- Node42 -->
<g id="node1" class="node">
<title>Node42</title>
<g id="a_node1"><a xlink:title="Correlator::printObservable prints the observable for the output.">
<polygon fill="#bfbfbf" stroke="#000000" points="0,-89.5 0,-107.5 159.9453,-107.5 159.9453,-89.5 0,-89.5"/>
<text text-anchor="middle" x="79.9727" y="-95.5" font-family="Helvetica,sans-Serif" font-size="10.00" fill="#000000">MasterSampler::printObservable</text>
</a>
</g>
</g>
<!-- Node43 -->
<g id="node2" class="node">
<title>Node43</title>
<g id="a_node2"><a xlink:href="class_parallel_1_1_communicator.html#a474ab433da0e83ef372d74e26a7e5cb0" target="_top" xlink:title=" ">
<polygon fill="#ffffff" stroke="#000000" points="218.4648,-168.5 218.4648,-196.5 338.3906,-196.5 338.3906,-168.5 218.4648,-168.5"/>
<text text-anchor="start" x="226.4648" y="-184.5" font-family="Helvetica,sans-Serif" font-size="10.00" fill="#000000">Parallel::Communicator</text>
<text text-anchor="middle" x="278.4277" y="-174.5" font-family="Helvetica,sans-Serif" font-size="10.00" fill="#000000">::getProcessRank</text>
</a>
</g>
</g>
<!-- Node42&#45;&gt;Node43 -->
<g id="edge1" class="edge">
<title>Node42&#45;&gt;Node43</title>
<path fill="none" stroke="#191970" d="M94.8654,-107.6563C116.479,-120.6341 158.0997,-144.4682 195.9453,-159.5 201.1264,-161.5579 206.5595,-163.5064 212.0595,-165.3334"/>
<polygon fill="#191970" stroke="#191970" points="211.4017,-168.7967 221.992,-168.4882 213.5208,-162.1251 211.4017,-168.7967"/>
</g>
<!-- Node44 -->
<g id="node3" class="node">
<title>Node44</title>
<g id="a_node3"><a xlink:href="class_observable_storer.html#af03e1c58c3e0efff251ef9b65cc8d152" target="_top" xlink:title=" ">
<polygon fill="#ffffff" stroke="#000000" points="195.9453,-131.5 195.9453,-149.5 360.9102,-149.5 360.9102,-131.5 195.9453,-131.5"/>
<text text-anchor="middle" x="278.4277" y="-137.5" font-family="Helvetica,sans-Serif" font-size="10.00" fill="#000000">ObservableStorer::getObservable</text>
</a>
</g>
</g>
<!-- Node42&#45;&gt;Node44 -->
<g id="edge2" class="edge">
<title>Node42&#45;&gt;Node44</title>
<path fill="none" stroke="#191970" d="M122.5462,-107.5101C152.6577,-113.8827 193.2369,-122.4706 225.4439,-129.2868"/>
<polygon fill="#191970" stroke="#191970" points="225.0746,-132.7861 235.5826,-131.4325 226.524,-125.9378 225.0746,-132.7861"/>
</g>
<!-- Node45 -->
<g id="node4" class="node">
<title>Node45</title>
<g id="a_node4"><a xlink:href="class_parallel_1_1_communicator.html#ae5739683ff54a7c39af6e37920e70ea5" target="_top" xlink:title="Parallel::Communicator::gatherDoubleResults.">
<polygon fill="#ffffff" stroke="#000000" points="218.4648,-84.5 218.4648,-112.5 338.3906,-112.5 338.3906,-84.5 218.4648,-84.5"/>
<text text-anchor="start" x="226.4648" y="-100.5" font-family="Helvetica,sans-Serif" font-size="10.00" fill="#000000">Parallel::Communicator</text>
<text text-anchor="middle" x="278.4277" y="-90.5" font-family="Helvetica,sans-Serif" font-size="10.00" fill="#000000">::gatherDoubleResults</text>
</a>
</g>
</g>
<!-- Node42&#45;&gt;Node45 -->
<g id="edge3" class="edge">
<title>Node42&#45;&gt;Node45</title>
<path fill="none" stroke="#191970" d="M160.1199,-98.5C176.0923,-98.5 192.7502,-98.5 208.3527,-98.5"/>
<polygon fill="#191970" stroke="#191970" points="208.4356,-102.0001 218.4356,-98.5 208.4356,-95.0001 208.4356,-102.0001"/>
</g>
<!-- Node46 -->
<g id="node5" class="node">
<title>Node46</title>
<g id="a_node5"><a xlink:href="class_parameters.html#a96dbafc27f287de83dfaec3bc2d45efe" target="_top" xlink:title=" ">
<polygon fill="#ffffff" stroke="#000000" points="207.9009,-47.5 207.9009,-65.5 348.9546,-65.5 348.9546,-47.5 207.9009,-47.5"/>
<text text-anchor="middle" x="278.4277" y="-53.5" font-family="Helvetica,sans-Serif" font-size="10.00" fill="#000000">Parameters::getFlowEpsilon</text>
</a>
</g>
</g>
<!-- Node42&#45;&gt;Node46 -->
<g id="edge4" class="edge">
<title>Node42&#45;&gt;Node46</title>
<path fill="none" stroke="#191970" d="M122.5462,-89.4899C152.6577,-83.1173 193.2369,-74.5294 225.4439,-67.7132"/>
<polygon fill="#191970" stroke="#191970" points="226.524,-71.0622 235.5826,-65.5675 225.0746,-64.2139 226.524,-71.0622"/>
</g>
<!-- Node47 -->
<g id="node6" class="node">
<title>Node47</title>
<g id="a_node6"><a xlink:href="class_parallel_1_1_communicator.html#a7b1f80fb49a0cc83f2031c3415174150" target="_top" xlink:title=" ">
<polygon fill="#ffffff" stroke="#000000" points="218.4648,-.5 218.4648,-28.5 338.3906,-28.5 338.3906,-.5 218.4648,-.5"/>
<text text-anchor="start" x="226.4648" y="-16.5" font-family="Helvetica,sans-Serif" font-size="10.00" fill="#000000">Parallel::Communicator</text>
<text text-anchor="middle" x="278.4277" y="-6.5" font-family="Helvetica,sans-Serif" font-size="10.00" fill="#000000">::getNumProc</text>
</a>
</g>
</g>
<!-- Node42&#45;&gt;Node47 -->
<g id="edge5" class="edge">
<title>Node42&#45;&gt;Node47</title>
<path fill="none" stroke="#191970" d="M95.2757,-89.3555C117.0451,-76.6349 158.4771,-53.4782 195.9453,-38.5 201.8524,-36.1386 208.0811,-33.8978 214.36,-31.8029"/>
<polygon fill="#191970" stroke="#191970" points="215.7778,-35.0238 224.2295,-28.6349 213.6383,-28.3588 215.7778,-35.0238"/>
</g>
</g>
</svg>
