<?xml version="1.0" encoding="UTF-8" standalone="no"?>
<!DOCTYPE svg PUBLIC "-//W3C//DTD SVG 1.1//EN"
 "http://www.w3.org/Graphics/SVG/1.1/DTD/svg11.dtd">
<!-- Generated by graphviz version 2.40.1 (20161225.0304)
 -->
<!-- Title: LatticeActionChargeDensity Pages: 1 -->
<svg width="147pt" height="148pt"
 viewBox="0.00 0.00 147.40 148.00" xmlns="http://www.w3.org/2000/svg" xmlns:xlink="http://www.w3.org/1999/xlink">
<g id="graph0" class="graph" transform="scale(1 1) rotate(0) translate(4 144)">
<title>LatticeActionChargeDensity</title>
<polygon fill="#ffffff" stroke="transparent" points="-4,4 -4,-144 143.3984,-144 143.3984,4 -4,4"/>
<!-- Node2 -->
<g id="node1" class="node">
<title>Node2</title>
<g id="a_node1"><a xlink:title="Method for calculating and storing the topological charge and energy density at every point of the la...">
<polygon fill="#bfbfbf" stroke="#000000" points="0,-.5 0,-18.5 139.3984,-18.5 139.3984,-.5 0,-.5"/>
<text text-anchor="middle" x="69.6992" y="-6.5" font-family="Helvetica,sans-Serif" font-size="10.00" fill="#000000">LatticeActionChargeDensity</text>
</a>
</g>
</g>
<!-- Node3 -->
<g id="node2" class="node">
<title>Node3</title>
<g id="a_node2"><a xlink:href="class_correlator.html" target="_top" xlink:title="base class for observables.">
<polygon fill="#ffffff" stroke="#000000" points="39.4702,-56.5 39.4702,-74.5 99.9282,-74.5 99.9282,-56.5 39.4702,-56.5"/>
<text text-anchor="middle" x="69.6992" y="-62.5" font-family="Helvetica,sans-Serif" font-size="10.00" fill="#000000">Correlator</text>
</a>
</g>
</g>
<!-- Node3&#45;&gt;Node2 -->
<g id="edge1" class="edge">
<title>Node3&#45;&gt;Node2</title>
<path fill="none" stroke="#191970" d="M69.6992,-46.2065C69.6992,-36.8384 69.6992,-26.0262 69.6992,-18.5752"/>
<polygon fill="#191970" stroke="#191970" points="66.1993,-46.2527 69.6992,-56.2527 73.1993,-46.2528 66.1993,-46.2527"/>
</g>
<!-- Node4 -->
<g id="node3" class="node">
<title>Node4</title>
<g id="a_node3"><a xlink:href="class_observable_storer.html" target="_top" xlink:title="A class for storing the observable data.">
<polygon fill="#ffffff" stroke="#000000" points="22.5146,-121.5 22.5146,-139.5 116.8838,-139.5 116.8838,-121.5 22.5146,-121.5"/>
<text text-anchor="middle" x="69.6992" y="-127.5" font-family="Helvetica,sans-Serif" font-size="10.00" fill="#000000">ObservableStorer</text>
</a>
</g>
</g>
<!-- Node4&#45;&gt;Node3 -->
<g id="edge2" class="edge">
<title>Node4&#45;&gt;Node3</title>
<path fill="none" stroke="#9a32cd" stroke-dasharray="5,2" d="M69.6992,-111.1265C69.6992,-99.1522 69.6992,-84.3205 69.6992,-74.8821"/>
<polygon fill="#9a32cd" stroke="#9a32cd" points="66.1993,-111.462 69.6992,-121.462 73.1993,-111.4621 66.1993,-111.462"/>
<text text-anchor="middle" x="102.4946" y="-95" font-family="Helvetica,sans-Serif" font-size="10.00" fill="#000000"> m_observable</text>
</g>
</g>
</svg>
