<?xml version="1.0" encoding="UTF-8" standalone="no"?>
<!DOCTYPE svg PUBLIC "-//W3C//DTD SVG 1.1//EN"
 "http://www.w3.org/Graphics/SVG/1.1/DTD/svg11.dtd">
<!-- Generated by graphviz version 2.40.1 (20161225.0304)
 -->
<!-- Title: Parameters::getNExpTests Pages: 1 -->
<svg width="443pt" height="27pt"
 viewBox="0.00 0.00 442.57 27.00" xmlns="http://www.w3.org/2000/svg" xmlns:xlink="http://www.w3.org/1999/xlink">
<g id="graph0" class="graph" transform="scale(1 1) rotate(0) translate(4 23)">
<title>Parameters::getNExpTests</title>
<polygon fill="#ffffff" stroke="transparent" points="-4,4 -4,-23 438.5703,-23 438.5703,4 -4,4"/>
<!-- Node196 -->
<g id="node1" class="node">
<title>Node196</title>
<g id="a_node1"><a xlink:title=" ">
<polygon fill="#bfbfbf" stroke="#000000" points="299.6348,-.5 299.6348,-18.5 434.5703,-18.5 434.5703,-.5 299.6348,-.5"/>
<text text-anchor="middle" x="367.1025" y="-6.5" font-family="Helvetica,sans-Serif" font-size="10.00" fill="#000000">Parameters::getNExpTests</text>
</a>
</g>
</g>
<!-- Node197 -->
<g id="node2" class="node">
<title>Node197</title>
<g id="a_node2"><a xlink:href="class_performance_tests.html#aa55ebdbc84db93cc45adfdf7163f90b4" target="_top" xlink:title=" ">
<polygon fill="#ffffff" stroke="#000000" points="147.0391,-.5 147.0391,-18.5 263.6348,-18.5 263.6348,-.5 147.0391,-.5"/>
<text text-anchor="middle" x="205.3369" y="-6.5" font-family="Helvetica,sans-Serif" font-size="10.00" fill="#000000">PerformanceTests::run</text>
</a>
</g>
</g>
<!-- Node196&#45;&gt;Node197 -->
<g id="edge1" class="edge">
<title>Node196&#45;&gt;Node197</title>
<path fill="none" stroke="#191970" d="M289.3598,-9.5C280.7371,-9.5 272.0668,-9.5 263.7416,-9.5"/>
<polygon fill="#191970" stroke="#191970" points="289.4367,-13.0001 299.4366,-9.5 289.4366,-6.0001 289.4367,-13.0001"/>
</g>
<!-- Node198 -->
<g id="node3" class="node">
<title>Node198</title>
<g id="a_node3"><a xlink:href="test_8h.html#a78e241f531e5203858fdb59a4162d6ba" target="_top" xlink:title=" ">
<polygon fill="#ffffff" stroke="#000000" points="0,-.5 0,-18.5 111.0391,-18.5 111.0391,-.5 0,-.5"/>
<text text-anchor="middle" x="55.5195" y="-6.5" font-family="Helvetica,sans-Serif" font-size="10.00" fill="#000000">runPerformanceTests</text>
</a>
</g>
</g>
<!-- Node197&#45;&gt;Node198 -->
<g id="edge2" class="edge">
<title>Node197&#45;&gt;Node198</title>
<path fill="none" stroke="#191970" d="M136.7552,-9.5C128.3009,-9.5 119.7383,-9.5 111.5024,-9.5"/>
<polygon fill="#191970" stroke="#191970" points="136.9846,-13.0001 146.9846,-9.5 136.9846,-6.0001 136.9846,-13.0001"/>
</g>
</g>
</svg>
