<?xml version="1.0" encoding="UTF-8" standalone="no"?>
<!DOCTYPE svg PUBLIC "-//W3C//DTD SVG 1.1//EN"
 "http://www.w3.org/Graphics/SVG/1.1/DTD/svg11.dtd">
<!-- Generated by graphviz version 2.40.1 (20161225.0304)
 -->
<!-- Title: Parallel::Communicator::freeMPIGroups Pages: 1 -->
<svg width="349pt" height="78pt"
 viewBox="0.00 0.00 348.64 77.61" xmlns="http://www.w3.org/2000/svg" xmlns:xlink="http://www.w3.org/1999/xlink">
<g id="graph0" class="graph" transform="scale(1 1) rotate(0) translate(4 73.61)">
<title>Parallel::Communicator::freeMPIGroups</title>
<polygon fill="#ffffff" stroke="transparent" points="-4,4 -4,-73.61 344.6396,-73.61 344.6396,4 -4,4"/>
<!-- Node22 -->
<g id="node1" class="node">
<title>Node22</title>
<g id="a_node1"><a xlink:title="Parallel::Communicator::freeMPIGroups.">
<polygon fill="#bfbfbf" stroke="#000000" points="220.7139,-32.5 220.7139,-60.5 340.6396,-60.5 340.6396,-32.5 220.7139,-32.5"/>
<text text-anchor="start" x="228.7139" y="-48.5" font-family="Helvetica,sans-Serif" font-size="10.00" fill="#000000">Parallel::Communicator</text>
<text text-anchor="middle" x="280.6768" y="-38.5" font-family="Helvetica,sans-Serif" font-size="10.00" fill="#000000">::freeMPIGroups</text>
</a>
</g>
</g>
<!-- Node23 -->
<g id="node2" class="node">
<title>Node23</title>
<g id="a_node2"><a xlink:href="main_8cpp.html#a4e6f00a867970a9eedf47b88a27b9eea" target="_top" xlink:title="main loads in configurations and initiates program according to .json specifications.">
<polygon fill="#ffffff" stroke="#000000" points="0,-37.5 0,-55.5 37.6748,-55.5 37.6748,-37.5 0,-37.5"/>
<text text-anchor="middle" x="18.8374" y="-43.5" font-family="Helvetica,sans-Serif" font-size="10.00" fill="#000000">main</text>
</a>
</g>
</g>
<!-- Node22&#45;&gt;Node23 -->
<g id="edge1" class="edge">
<title>Node22&#45;&gt;Node23</title>
<path fill="none" stroke="#191970" d="M210.6002,-61.8728C170.3467,-68.4755 118.9497,-73.1212 73.6748,-65.5 61.3543,-63.4261 48.1034,-58.9035 37.714,-54.791"/>
<polygon fill="#191970" stroke="#191970" points="211.3202,-65.3005 220.5835,-60.1583 210.1353,-58.4015 211.3202,-65.3005"/>
</g>
<!-- Node24 -->
<g id="node3" class="node">
<title>Node24</title>
<g id="a_node3"><a xlink:href="test_8h.html#a91a9c7ea8af27bb3962f1207dd4cb8fd" target="_top" xlink:title="Header containing functions needed for running unit tests, integration tests and validation testing.">
<polygon fill="#ffffff" stroke="#000000" points="93.4063,-37.5 93.4063,-55.5 164.9824,-55.5 164.9824,-37.5 93.4063,-37.5"/>
<text text-anchor="middle" x="129.1943" y="-43.5" font-family="Helvetica,sans-Serif" font-size="10.00" fill="#000000">runUnitTests</text>
</a>
</g>
</g>
<!-- Node22&#45;&gt;Node24 -->
<g id="edge2" class="edge">
<title>Node22&#45;&gt;Node24</title>
<path fill="none" stroke="#191970" d="M210.2215,-46.5C194.6679,-46.5 178.8156,-46.5 165.3052,-46.5"/>
<polygon fill="#191970" stroke="#191970" points="210.3717,-50.0001 220.3716,-46.5 210.3716,-43.0001 210.3717,-50.0001"/>
</g>
<!-- Node25 -->
<g id="node4" class="node">
<title>Node25</title>
<g id="a_node4"><a xlink:href="test_8h.html#a78e241f531e5203858fdb59a4162d6ba" target="_top" xlink:title="runPerformanceTests will run performance tests on program. Exits once complete.">
<polygon fill="#ffffff" stroke="#000000" points="73.6748,-.5 73.6748,-18.5 184.7139,-18.5 184.7139,-.5 73.6748,-.5"/>
<text text-anchor="middle" x="129.1943" y="-6.5" font-family="Helvetica,sans-Serif" font-size="10.00" fill="#000000">runPerformanceTests</text>
</a>
</g>
</g>
<!-- Node22&#45;&gt;Node25 -->
<g id="edge4" class="edge">
<title>Node22&#45;&gt;Node25</title>
<path fill="none" stroke="#191970" d="M213.0291,-29.9769C196.9092,-26.0396 180.2947,-21.9814 166.1512,-18.5268"/>
<polygon fill="#191970" stroke="#191970" points="212.4307,-33.4335 222.9756,-32.4063 214.0917,-26.6334 212.4307,-33.4335"/>
</g>
<!-- Node24&#45;&gt;Node23 -->
<g id="edge3" class="edge">
<title>Node24&#45;&gt;Node23</title>
<path fill="none" stroke="#191970" d="M83.1257,-46.5C67.2301,-46.5 50.2971,-46.5 37.8016,-46.5"/>
<polygon fill="#191970" stroke="#191970" points="83.3646,-50.0001 93.3646,-46.5 83.3646,-43.0001 83.3646,-50.0001"/>
</g>
<!-- Node25&#45;&gt;Node23 -->
<g id="edge5" class="edge">
<title>Node25&#45;&gt;Node23</title>
<path fill="none" stroke="#191970" d="M92.6881,-21.7397C74.39,-27.8746 52.9861,-35.0508 37.9459,-40.0934"/>
<polygon fill="#191970" stroke="#191970" points="93.8293,-25.0486 102.198,-18.5512 91.6041,-18.4117 93.8293,-25.0486"/>
</g>
</g>
</svg>
