<?xml version="1.0" encoding="UTF-8" standalone="no"?>
<!DOCTYPE svg PUBLIC "-//W3C//DTD SVG 1.1//EN"
 "http://www.w3.org/Graphics/SVG/1.1/DTD/svg11.dtd">
<!-- Generated by graphviz version 2.40.1 (20161225.0304)
 -->
<!-- Title: Parameters::getN Pages: 1 -->
<svg width="389pt" height="177pt"
 viewBox="0.00 0.00 388.66 177.00" xmlns="http://www.w3.org/2000/svg" xmlns:xlink="http://www.w3.org/1999/xlink">
<g id="graph0" class="graph" transform="scale(1 1) rotate(0) translate(4 173)">
<title>Parameters::getN</title>
<polygon fill="#ffffff" stroke="transparent" points="-4,4 -4,-173 384.6592,-173 384.6592,4 -4,4"/>
<!-- Node155 -->
<g id="node1" class="node">
<title>Node155</title>
<g id="a_node1"><a xlink:title=" ">
<polygon fill="#bfbfbf" stroke="#000000" points="286.2949,-76.5 286.2949,-94.5 380.6592,-94.5 380.6592,-76.5 286.2949,-76.5"/>
<text text-anchor="middle" x="333.4771" y="-82.5" font-family="Helvetica,sans-Serif" font-size="10.00" fill="#000000">Parameters::getN</text>
</a>
</g>
</g>
<!-- Node156 -->
<g id="node2" class="node">
<title>Node156</title>
<g id="a_node2"><a xlink:href="class_action.html#a4f457ccfc8336b565cadca56b36e0271" target="_top" xlink:title="Action base constructor.">
<polygon fill="#ffffff" stroke="#000000" points="156.4873,-150.5 156.4873,-168.5 233.6299,-168.5 233.6299,-150.5 156.4873,-150.5"/>
<text text-anchor="middle" x="195.0586" y="-156.5" font-family="Helvetica,sans-Serif" font-size="10.00" fill="#000000">Action::Action</text>
</a>
</g>
</g>
<!-- Node155&#45;&gt;Node156 -->
<g id="edge1" class="edge">
<title>Node155&#45;&gt;Node156</title>
<path fill="none" stroke="#191970" d="M314.0841,-100.8359C297.7996,-113.1389 273.531,-130.1673 250.2949,-141.5 243.224,-144.9486 235.3341,-147.9667 227.7807,-150.4966"/>
<polygon fill="#191970" stroke="#191970" points="316.4597,-103.4244 322.2524,-94.5533 312.192,-97.8758 316.4597,-103.4244"/>
</g>
<!-- Node157 -->
<g id="node3" class="node">
<title>Node157</title>
<g id="a_node3"><a xlink:href="class_flow.html#a25ae85599c0ae330374f0840efde7ebc" target="_top" xlink:title="Flow::Flow.">
<polygon fill="#ffffff" stroke="#000000" points="163.167,-113.5 163.167,-131.5 226.9502,-131.5 226.9502,-113.5 163.167,-113.5"/>
<text text-anchor="middle" x="195.0586" y="-119.5" font-family="Helvetica,sans-Serif" font-size="10.00" fill="#000000">Flow::Flow</text>
</a>
</g>
</g>
<!-- Node155&#45;&gt;Node157 -->
<g id="edge2" class="edge">
<title>Node155&#45;&gt;Node157</title>
<path fill="none" stroke="#191970" d="M289.9448,-97.1364C269.6033,-102.5738 245.8135,-108.9329 227.1434,-113.9236"/>
<polygon fill="#191970" stroke="#191970" points="290.8591,-100.515 299.6161,-94.5512 289.0514,-93.7524 290.8591,-100.515"/>
</g>
<!-- Node158 -->
<g id="node4" class="node">
<title>Node158</title>
<g id="a_node4"><a xlink:href="class_i_o_1_1_field_i_o.html#a9093930584128c73a63fe8015bff9b38" target="_top" xlink:title="IO::FieldIO::init updates the lattice dimensions.">
<polygon fill="#ffffff" stroke="#000000" points="153.7163,-76.5 153.7163,-94.5 236.4009,-94.5 236.4009,-76.5 153.7163,-76.5"/>
<text text-anchor="middle" x="195.0586" y="-82.5" font-family="Helvetica,sans-Serif" font-size="10.00" fill="#000000">IO::FieldIO::init</text>
</a>
</g>
</g>
<!-- Node155&#45;&gt;Node158 -->
<g id="edge3" class="edge">
<title>Node155&#45;&gt;Node158</title>
<path fill="none" stroke="#191970" d="M276.2111,-85.5C262.9126,-85.5 249.0074,-85.5 236.5403,-85.5"/>
<polygon fill="#191970" stroke="#191970" points="276.2284,-89.0001 286.2284,-85.5 276.2284,-82.0001 276.2284,-89.0001"/>
</g>
<!-- Node159 -->
<g id="node5" class="node">
<title>Node159</title>
<g id="a_node5"><a xlink:href="class_test_suite.html#af7291e6d8b53443604ee0c1fcf1fadfc" target="_top" xlink:title=" ">
<polygon fill="#ffffff" stroke="#000000" points="0,-57.5 0,-75.5 103.8223,-75.5 103.8223,-57.5 0,-57.5"/>
<text text-anchor="middle" x="51.9111" y="-63.5" font-family="Helvetica,sans-Serif" font-size="10.00" fill="#000000">TestSuite::TestSuite</text>
</a>
</g>
</g>
<!-- Node155&#45;&gt;Node159 -->
<g id="edge6" class="edge">
<title>Node155&#45;&gt;Node159</title>
<path fill="none" stroke="#191970" d="M289.5457,-74.2083C276.958,-71.4605 263.1594,-68.9088 250.2949,-67.5 200.8219,-62.0823 143.9927,-62.4621 103.8743,-63.8206"/>
<polygon fill="#191970" stroke="#191970" points="288.813,-77.631 299.3402,-76.4359 290.3654,-70.8053 288.813,-77.631"/>
</g>
<!-- Node160 -->
<g id="node6" class="node">
<title>Node160</title>
<g id="a_node6"><a xlink:href="class_correlator.html#aff48ef3bf789e9c6231eacc21cd9ed9a" target="_top" xlink:title="Correlator::Correlator.">
<polygon fill="#ffffff" stroke="#000000" points="139.8223,-.5 139.8223,-18.5 250.2949,-18.5 250.2949,-.5 139.8223,-.5"/>
<text text-anchor="middle" x="195.0586" y="-6.5" font-family="Helvetica,sans-Serif" font-size="10.00" fill="#000000">Correlator::Correlator</text>
</a>
</g>
</g>
<!-- Node155&#45;&gt;Node160 -->
<g id="edge5" class="edge">
<title>Node155&#45;&gt;Node160</title>
<path fill="none" stroke="#191970" d="M311.913,-70.7775C295.4212,-59.8267 271.9145,-44.8736 250.2949,-33.5 239.9311,-28.0478 228.0631,-22.7726 217.9907,-18.563"/>
<polygon fill="#191970" stroke="#191970" points="310.0425,-73.7373 320.297,-76.4014 313.9421,-67.924 310.0425,-73.7373"/>
</g>
<!-- Node158&#45;&gt;Node159 -->
<g id="edge4" class="edge">
<title>Node158&#45;&gt;Node159</title>
<path fill="none" stroke="#191970" d="M143.5572,-78.6642C130.6699,-76.9537 116.838,-75.1178 103.9259,-73.4039"/>
<polygon fill="#191970" stroke="#191970" points="143.2808,-82.1581 153.6544,-80.0044 144.2019,-75.219 143.2808,-82.1581"/>
</g>
</g>
</svg>
