<?xml version="1.0" encoding="UTF-8" standalone="no"?>
<!DOCTYPE svg PUBLIC "-//W3C//DTD SVG 1.1//EN"
 "http://www.w3.org/Graphics/SVG/1.1/DTD/svg11.dtd">
<!-- Generated by graphviz version 2.40.1 (20161225.0304)
 -->
<!-- Title: SU3MatrixGenerator::generateRST Pages: 1 -->
<svg width="333pt" height="37pt"
 viewBox="0.00 0.00 332.53 37.00" xmlns="http://www.w3.org/2000/svg" xmlns:xlink="http://www.w3.org/1999/xlink">
<g id="graph0" class="graph" transform="scale(1 1) rotate(0) translate(4 33)">
<title>SU3MatrixGenerator::generateRST</title>
<polygon fill="#ffffff" stroke="transparent" points="-4,4 -4,-33 328.5264,-33 328.5264,4 -4,4"/>
<!-- Node15 -->
<g id="node1" class="node">
<title>Node15</title>
<g id="a_node1"><a xlink:title="SU3MatrixGenerator::generateRST generates a SU3 matrix close to unity.">
<polygon fill="#bfbfbf" stroke="#000000" points="216.8271,-.5 216.8271,-28.5 324.5264,-28.5 324.5264,-.5 216.8271,-.5"/>
<text text-anchor="start" x="224.8271" y="-16.5" font-family="Helvetica,sans-Serif" font-size="10.00" fill="#000000">SU3MatrixGenerator</text>
<text text-anchor="middle" x="270.6768" y="-6.5" font-family="Helvetica,sans-Serif" font-size="10.00" fill="#000000">::generateRST</text>
</a>
</g>
</g>
<!-- Node16 -->
<g id="node2" class="node">
<title>Node16</title>
<g id="a_node2"><a xlink:href="class_system.html#a93c8a8258ac8f6382ec393bca1271011" target="_top" xlink:title="System::latticeSetup sets up the lattice geometry and allocates memory.">
<polygon fill="#ffffff" stroke="#000000" points="73.6748,-5.5 73.6748,-23.5 180.8271,-23.5 180.8271,-5.5 73.6748,-5.5"/>
<text text-anchor="middle" x="127.251" y="-11.5" font-family="Helvetica,sans-Serif" font-size="10.00" fill="#000000">System::latticeSetup</text>
</a>
</g>
</g>
<!-- Node15&#45;&gt;Node16 -->
<g id="edge1" class="edge">
<title>Node15&#45;&gt;Node16</title>
<path fill="none" stroke="#191970" d="M206.2792,-14.5C197.8568,-14.5 189.2983,-14.5 181.0751,-14.5"/>
<polygon fill="#191970" stroke="#191970" points="206.4537,-18.0001 216.4536,-14.5 206.4536,-11.0001 206.4537,-18.0001"/>
</g>
<!-- Node17 -->
<g id="node3" class="node">
<title>Node17</title>
<g id="a_node3"><a xlink:href="main_8cpp.html#a4e6f00a867970a9eedf47b88a27b9eea" target="_top" xlink:title="main loads in configurations and initiates program according to .json specifications.">
<polygon fill="#ffffff" stroke="#000000" points="0,-5.5 0,-23.5 37.6748,-23.5 37.6748,-5.5 0,-5.5"/>
<text text-anchor="middle" x="18.8374" y="-11.5" font-family="Helvetica,sans-Serif" font-size="10.00" fill="#000000">main</text>
</a>
</g>
</g>
<!-- Node16&#45;&gt;Node17 -->
<g id="edge2" class="edge">
<title>Node16&#45;&gt;Node17</title>
<path fill="none" stroke="#191970" d="M63.2463,-14.5C54.0172,-14.5 45.18,-14.5 37.8534,-14.5"/>
<polygon fill="#191970" stroke="#191970" points="63.3618,-18.0001 73.3618,-14.5 63.3618,-11.0001 63.3618,-18.0001"/>
</g>
</g>
</svg>
