<?xml version="1.0" encoding="UTF-8" standalone="no"?>
<!DOCTYPE svg PUBLIC "-//W3C//DTD SVG 1.1//EN"
 "http://www.w3.org/Graphics/SVG/1.1/DTD/svg11.dtd">
<!-- Generated by graphviz version 2.40.1 (20161225.0304)
 -->
<!-- Title: Parallel::Index::getGlobalIndex Pages: 1 -->
<svg width="517pt" height="158pt"
 viewBox="0.00 0.00 517.10 158.00" xmlns="http://www.w3.org/2000/svg" xmlns:xlink="http://www.w3.org/1999/xlink">
<g id="graph0" class="graph" transform="scale(1 1) rotate(0) translate(4 154)">
<title>Parallel::Index::getGlobalIndex</title>
<polygon fill="#ffffff" stroke="transparent" points="-4,4 -4,-154 513.0967,-154 513.0967,4 -4,4"/>
<!-- Node17 -->
<g id="node1" class="node">
<title>Node17</title>
<g id="a_node1"><a xlink:title=" ">
<polygon fill="#bfbfbf" stroke="#000000" points="381.3633,-63.5 381.3633,-91.5 509.0967,-91.5 509.0967,-63.5 381.3633,-63.5"/>
<text text-anchor="start" x="389.3633" y="-79.5" font-family="Helvetica,sans-Serif" font-size="10.00" fill="#000000">Parallel::Index::getGlobal</text>
<text text-anchor="middle" x="445.23" y="-69.5" font-family="Helvetica,sans-Serif" font-size="10.00" fill="#000000">Index</text>
</a>
</g>
</g>
<!-- Node18 -->
<g id="node2" class="node">
<title>Node18</title>
<g id="a_node2"><a xlink:href="class_i_o_1_1_field_i_o.html#a8af607f9a1d79e90d4514c36103c6601" target="_top" xlink:title="IO::FieldIO::writeFieldToFile writes a lattice of SU3 matrix objects to file.">
<polygon fill="#ffffff" stroke="#000000" points="190.6987,-131.5 190.6987,-149.5 330.063,-149.5 330.063,-131.5 190.6987,-131.5"/>
<text text-anchor="middle" x="260.3809" y="-137.5" font-family="Helvetica,sans-Serif" font-size="10.00" fill="#000000">IO::FieldIO::writeFieldToFile</text>
</a>
</g>
</g>
<!-- Node17&#45;&gt;Node18 -->
<g id="edge1" class="edge">
<title>Node17&#45;&gt;Node18</title>
<path fill="none" stroke="#191970" d="M409.2749,-95.9622C390.5935,-104.9694 367.1656,-115.3707 345.3633,-122.5 334.7559,-125.9686 323.18,-128.9359 312.0819,-131.402"/>
<polygon fill="#191970" stroke="#191970" points="410.8652,-99.0807 418.3064,-91.5388 407.7862,-92.7942 410.8652,-99.0807"/>
</g>
<!-- Node19 -->
<g id="node3" class="node">
<title>Node19</title>
<g id="a_node3"><a xlink:href="class_i_o_1_1_field_i_o.html#aaf2bac2025d67c06e7c61e8cc9f44777" target="_top" xlink:title="IO::FieldIO::writeDoublesFieldToFile writes a lattice of doubles to file.">
<polygon fill="#ffffff" stroke="#000000" points="196.5288,-84.5 196.5288,-112.5 324.2329,-112.5 324.2329,-84.5 196.5288,-84.5"/>
<text text-anchor="start" x="204.5288" y="-100.5" font-family="Helvetica,sans-Serif" font-size="10.00" fill="#000000">IO::FieldIO::writeDoubles</text>
<text text-anchor="middle" x="260.3809" y="-90.5" font-family="Helvetica,sans-Serif" font-size="10.00" fill="#000000">FieldToFile</text>
</a>
</g>
</g>
<!-- Node17&#45;&gt;Node19 -->
<g id="edge2" class="edge">
<title>Node17&#45;&gt;Node19</title>
<path fill="none" stroke="#191970" d="M371.2558,-85.9039C355.6959,-87.6716 339.4088,-89.5219 324.2568,-91.2433"/>
<polygon fill="#191970" stroke="#191970" points="371.8156,-89.3629 381.3566,-84.7564 371.0254,-82.4077 371.8156,-89.3629"/>
</g>
<!-- Node21 -->
<g id="node5" class="node">
<title>Node21</title>
<g id="a_node5"><a xlink:href="class_i_o_1_1_field_i_o.html#a02db864a48601edd7febaab5d655e495" target="_top" xlink:title=" ">
<polygon fill="#ffffff" stroke="#000000" points="175.3984,-47.5 175.3984,-65.5 345.3633,-65.5 345.3633,-47.5 175.3984,-47.5"/>
<text text-anchor="middle" x="260.3809" y="-53.5" font-family="Helvetica,sans-Serif" font-size="10.00" fill="#000000">IO::FieldIO::loadFieldConfiguration</text>
</a>
</g>
</g>
<!-- Node17&#45;&gt;Node21 -->
<g id="edge4" class="edge">
<title>Node17&#45;&gt;Node21</title>
<path fill="none" stroke="#191970" d="M371.193,-69.0889C360.9039,-67.92 350.2979,-66.7151 339.9134,-65.5354"/>
<polygon fill="#191970" stroke="#191970" points="371.0254,-72.5923 381.3566,-70.2436 371.8156,-65.6371 371.0254,-72.5923"/>
</g>
<!-- Node22 -->
<g id="node6" class="node">
<title>Node22</title>
<g id="a_node6"><a xlink:href="class_i_o_1_1_field_i_o.html#af23fb6e02a6bd1cafd5be4acacbf848e" target="_top" xlink:title=" ">
<polygon fill="#ffffff" stroke="#000000" points="187.3564,-.5 187.3564,-28.5 333.4053,-28.5 333.4053,-.5 187.3564,-.5"/>
<text text-anchor="start" x="195.3564" y="-16.5" font-family="Helvetica,sans-Serif" font-size="10.00" fill="#000000">IO::FieldIO::loadChromaField</text>
<text text-anchor="middle" x="260.3809" y="-6.5" font-family="Helvetica,sans-Serif" font-size="10.00" fill="#000000">Configuration</text>
</a>
</g>
</g>
<!-- Node17&#45;&gt;Node22 -->
<g id="edge5" class="edge">
<title>Node17&#45;&gt;Node22</title>
<path fill="none" stroke="#191970" d="M401.9692,-59.5487C384.5248,-52.5882 364.1232,-44.7956 345.3633,-38.5 335.0439,-35.037 323.9117,-31.6488 313.2114,-28.5603"/>
<polygon fill="#191970" stroke="#191970" points="400.7435,-62.8282 411.3271,-63.3153 403.3572,-56.3345 400.7435,-62.8282"/>
</g>
<!-- Node20 -->
<g id="node4" class="node">
<title>Node20</title>
<g id="a_node4"><a xlink:href="class_lattice_action_charge_density.html#a3dddc75188042c645fbdd1c8b3e80c8a" target="_top" xlink:title=" ">
<polygon fill="#ffffff" stroke="#000000" points="0,-84.5 0,-112.5 139.3984,-112.5 139.3984,-84.5 0,-84.5"/>
<text text-anchor="start" x="8" y="-100.5" font-family="Helvetica,sans-Serif" font-size="10.00" fill="#000000">LatticeActionChargeDensity</text>
<text text-anchor="middle" x="69.6992" y="-90.5" font-family="Helvetica,sans-Serif" font-size="10.00" fill="#000000">::calculate</text>
</a>
</g>
</g>
<!-- Node19&#45;&gt;Node20 -->
<g id="edge3" class="edge">
<title>Node19&#45;&gt;Node20</title>
<path fill="none" stroke="#191970" d="M186.3503,-98.5C170.9245,-98.5 154.7143,-98.5 139.4493,-98.5"/>
<polygon fill="#191970" stroke="#191970" points="186.3562,-102.0001 196.3562,-98.5 186.3561,-95.0001 186.3562,-102.0001"/>
</g>
</g>
</svg>
