<?xml version="1.0" encoding="UTF-8" standalone="no"?>
<!DOCTYPE svg PUBLIC "-//W3C//DTD SVG 1.1//EN"
 "http://www.w3.org/Graphics/SVG/1.1/DTD/svg11.dtd">
<!-- Generated by graphviz version 2.40.1 (20161225.0304)
 -->
<!-- Title: LatticeActionChargeDensity::calculate Pages: 1 -->
<svg width="574pt" height="669pt"
 viewBox="0.00 0.00 574.33 669.00" xmlns="http://www.w3.org/2000/svg" xmlns:xlink="http://www.w3.org/1999/xlink">
<g id="graph0" class="graph" transform="scale(1 1) rotate(0) translate(4 665)">
<title>LatticeActionChargeDensity::calculate</title>
<polygon fill="#ffffff" stroke="transparent" points="-4,4 -4,-665 570.3281,-665 570.3281,4 -4,4"/>
<!-- Node14 -->
<g id="node1" class="node">
<title>Node14</title>
<g id="a_node1"><a xlink:title="Correlator::calculate calculates a observable.">
<polygon fill="#bfbfbf" stroke="#000000" points="0,-291.5 0,-319.5 139.3984,-319.5 139.3984,-291.5 0,-291.5"/>
<text text-anchor="start" x="8" y="-307.5" font-family="Helvetica,sans-Serif" font-size="10.00" fill="#000000">LatticeActionChargeDensity</text>
<text text-anchor="middle" x="69.6992" y="-297.5" font-family="Helvetica,sans-Serif" font-size="10.00" fill="#000000">::calculate</text>
</a>
</g>
</g>
<!-- Node15 -->
<g id="node2" class="node">
<title>Node15</title>
<g id="a_node2"><a xlink:href="class_lattice.html#a1e8bfb54f85e78f2c97e8b90d2b47dc9" target="_top" xlink:title="zeros sets all of the SU3 elements in the lattice to zero.">
<polygon fill="#ffffff" stroke="#000000" points="446.9468,-642.5 446.9468,-660.5 522.4194,-660.5 522.4194,-642.5 446.9468,-642.5"/>
<text text-anchor="middle" x="484.6831" y="-648.5" font-family="Helvetica,sans-Serif" font-size="10.00" fill="#000000">Lattice::zeros</text>
</a>
</g>
</g>
<!-- Node14&#45;&gt;Node15 -->
<g id="edge1" class="edge">
<title>Node14&#45;&gt;Node15</title>
<path fill="none" stroke="#191970" d="M70.1583,-319.7784C72.5138,-367.4232 86.9504,-522.1239 175.3984,-596.5 249.6888,-658.9709 370.1721,-661.1625 436.7113,-656.6958"/>
<polygon fill="#191970" stroke="#191970" points="437.2021,-660.1689 446.912,-655.93 436.678,-653.1885 437.2021,-660.1689"/>
</g>
<!-- Node16 -->
<g id="node3" class="node">
<title>Node16</title>
<g id="a_node3"><a xlink:href="lattice_8h.html#a53bbfaed8f54ee3a1db6f8049686ccdf" target="_top" xlink:title="shift copies the lattice L and shifts it in a specified lorentzVector direction DIR.">
<polygon fill="#ffffff" stroke="#000000" points="254.0483,-494.5 254.0483,-512.5 288.3882,-512.5 288.3882,-494.5 254.0483,-494.5"/>
<text text-anchor="middle" x="271.2183" y="-500.5" font-family="Helvetica,sans-Serif" font-size="10.00" fill="#000000">shift</text>
</a>
</g>
</g>
<!-- Node14&#45;&gt;Node16 -->
<g id="edge2" class="edge">
<title>Node14&#45;&gt;Node16</title>
<path fill="none" stroke="#191970" d="M84.192,-319.7397C120.5897,-355.5018 215.6953,-448.9466 254.4332,-487.008"/>
<polygon fill="#191970" stroke="#191970" points="252.2163,-489.7366 261.8024,-494.2486 257.1223,-484.7435 252.2163,-489.7366"/>
</g>
<!-- Node21 -->
<g id="node8" class="node">
<title>Node21</title>
<g id="a_node8"><a xlink:href="lattice_8h.html#a491004d1505561625a8915464f3c6cab" target="_top" xlink:title=" ">
<polygon fill="#ffffff" stroke="#000000" points="256.7183,-531.5 256.7183,-549.5 285.7183,-549.5 285.7183,-531.5 256.7183,-531.5"/>
<text text-anchor="middle" x="271.2183" y="-537.5" font-family="Helvetica,sans-Serif" font-size="10.00" fill="#000000">inv</text>
</a>
</g>
</g>
<!-- Node14&#45;&gt;Node21 -->
<g id="edge7" class="edge">
<title>Node14&#45;&gt;Node21</title>
<path fill="none" stroke="#191970" d="M72.0906,-319.6672C79.5045,-358.8929 105.9279,-469.5117 175.3984,-522.5 195.7983,-538.0599 225.6335,-541.5042 246.5789,-541.7252"/>
<polygon fill="#191970" stroke="#191970" points="246.6711,-545.2244 256.6245,-541.5941 246.5796,-538.225 246.6711,-545.2244"/>
</g>
<!-- Node22 -->
<g id="node9" class="node">
<title>Node22</title>
<g id="a_node9"><a xlink:href="lattice_8h.html#a8267d6f1684a10b876409efeb6f66fe9" target="_top" xlink:title=" ">
<polygon fill="#ffffff" stroke="#000000" points="230.8916,-275.5 230.8916,-293.5 311.5449,-293.5 311.5449,-275.5 230.8916,-275.5"/>
<text text-anchor="middle" x="271.2183" y="-281.5" font-family="Helvetica,sans-Serif" font-size="10.00" fill="#000000">sumRealTrace</text>
</a>
</g>
</g>
<!-- Node14&#45;&gt;Node22 -->
<g id="edge9" class="edge">
<title>Node14&#45;&gt;Node22</title>
<path fill="none" stroke="#191970" d="M139.6152,-298.2142C166.2729,-295.4362 196.1183,-292.3261 220.6393,-289.7708"/>
<polygon fill="#191970" stroke="#191970" points="221.2142,-293.2299 230.7975,-288.7122 220.4886,-286.2676 221.2142,-293.2299"/>
</g>
<!-- Node23 -->
<g id="node10" class="node">
<title>Node23</title>
<g id="a_node10"><a xlink:href="lattice_8h.html#a0289122f97ef3c8e2dfc3bfaf5b8f52d" target="_top" xlink:title=" ">
<polygon fill="#ffffff" stroke="#000000" points="239.7832,-238.5 239.7832,-256.5 302.6533,-256.5 302.6533,-238.5 239.7832,-238.5"/>
<text text-anchor="middle" x="271.2183" y="-244.5" font-family="Helvetica,sans-Serif" font-size="10.00" fill="#000000">imagTrace</text>
</a>
</g>
</g>
<!-- Node14&#45;&gt;Node23 -->
<g id="edge10" class="edge">
<title>Node14&#45;&gt;Node23</title>
<path fill="none" stroke="#191970" d="M102.5217,-291.3651C123.1406,-282.9172 150.4635,-272.5012 175.3984,-265.5 192.8073,-260.6119 212.3726,-256.6689 229.2631,-253.7335"/>
<polygon fill="#191970" stroke="#191970" points="230.1068,-257.141 239.3909,-252.0365 228.95,-250.2372 230.1068,-257.141"/>
</g>
<!-- Node24 -->
<g id="node11" class="node">
<title>Node24</title>
<g id="a_node11"><a xlink:href="lattice_8h.html#aa2ccd37933994e50a9c9669725ee0e9e" target="_top" xlink:title=" ">
<polygon fill="#ffffff" stroke="#000000" points="234.3169,-201.5 234.3169,-219.5 308.1196,-219.5 308.1196,-201.5 234.3169,-201.5"/>
<text text-anchor="middle" x="271.2183" y="-207.5" font-family="Helvetica,sans-Serif" font-size="10.00" fill="#000000">subtractImag</text>
</a>
</g>
</g>
<!-- Node14&#45;&gt;Node24 -->
<g id="edge11" class="edge">
<title>Node14&#45;&gt;Node24</title>
<path fill="none" stroke="#191970" d="M84.4559,-291.3767C103.7459,-273.7612 139.3398,-244.071 175.3984,-228.5 190.5676,-221.9496 208.1007,-217.7775 223.9893,-215.1224"/>
<polygon fill="#191970" stroke="#191970" points="224.7867,-218.5417 234.1515,-213.5869 223.7408,-211.6203 224.7867,-218.5417"/>
</g>
<!-- Node25 -->
<g id="node12" class="node">
<title>Node25</title>
<g id="a_node12"><a xlink:href="lattice_8h.html#ab2d48b63b79e5e5ee3ca25483fe98b3e" target="_top" xlink:title=" ">
<polygon fill="#ffffff" stroke="#000000" points="213.3818,-568.5 213.3818,-586.5 329.0547,-586.5 329.0547,-568.5 213.3818,-568.5"/>
<text text-anchor="middle" x="271.2183" y="-574.5" font-family="Helvetica,sans-Serif" font-size="10.00" fill="#000000">realTraceMultiplication</text>
</a>
</g>
</g>
<!-- Node14&#45;&gt;Node25 -->
<g id="edge12" class="edge">
<title>Node14&#45;&gt;Node25</title>
<path fill="none" stroke="#191970" d="M71.0216,-319.7808C75.8691,-363.3935 96.7315,-495.7455 175.3984,-559.5 183.4703,-566.0417 193.1802,-570.4812 203.2786,-573.4505"/>
<polygon fill="#191970" stroke="#191970" points="202.4907,-576.8611 213.0388,-575.8675 204.1734,-570.0663 202.4907,-576.8611"/>
</g>
<!-- Node27 -->
<g id="node14" class="node">
<title>Node27</title>
<g id="a_node14"><a xlink:href="class_i_o_1_1_field_i_o.html#aaf2bac2025d67c06e7c61e8cc9f44777" target="_top" xlink:title="IO::FieldIO::writeDoublesFieldToFile writes a lattice of doubles to file.">
<polygon fill="#ffffff" stroke="#000000" points="207.3662,-312.5 207.3662,-340.5 335.0703,-340.5 335.0703,-312.5 207.3662,-312.5"/>
<text text-anchor="start" x="215.3662" y="-328.5" font-family="Helvetica,sans-Serif" font-size="10.00" fill="#000000">IO::FieldIO::writeDoubles</text>
<text text-anchor="middle" x="271.2183" y="-318.5" font-family="Helvetica,sans-Serif" font-size="10.00" fill="#000000">FieldToFile</text>
</a>
</g>
</g>
<!-- Node14&#45;&gt;Node27 -->
<g id="edge17" class="edge">
<title>Node14&#45;&gt;Node27</title>
<path fill="none" stroke="#191970" d="M139.6152,-312.7858C158.2128,-314.7239 178.3619,-316.8236 197.1721,-318.7838"/>
<polygon fill="#191970" stroke="#191970" points="196.8586,-322.27 207.1676,-319.8254 197.5842,-315.3077 196.8586,-322.27"/>
</g>
<!-- Node39 -->
<g id="node26" class="node">
<title>Node39</title>
<g id="a_node26"><a xlink:href="class_observable_storer.html#aa04dd06fe053670f4c8f027aa744277a" target="_top" xlink:title=" ">
<polygon fill="#ffffff" stroke="#000000" points="175.3984,-164.5 175.3984,-182.5 367.0381,-182.5 367.0381,-164.5 175.3984,-164.5"/>
<text text-anchor="middle" x="271.2183" y="-170.5" font-family="Helvetica,sans-Serif" font-size="10.00" fill="#000000">ObservableStorer::getObservableName</text>
</a>
</g>
</g>
<!-- Node14&#45;&gt;Node39 -->
<g id="edge30" class="edge">
<title>Node14&#45;&gt;Node39</title>
<path fill="none" stroke="#191970" d="M78.453,-291.2276C94.4107,-266.5415 130.7409,-216.1538 175.3984,-191.5 179.1493,-189.4293 183.0952,-187.5921 187.1609,-185.9625"/>
<polygon fill="#191970" stroke="#191970" points="188.5801,-189.1726 196.8296,-182.5245 186.2349,-182.5771 188.5801,-189.1726"/>
</g>
<!-- Node40 -->
<g id="node27" class="node">
<title>Node40</title>
<g id="a_node27"><a xlink:href="lattice_8h.html#a878dd065f746286ae0392ccafbc88138" target="_top" xlink:title=" ">
<polygon fill="#ffffff" stroke="#000000" points="253.7725,-127.5 253.7725,-145.5 288.6641,-145.5 288.6641,-127.5 253.7725,-127.5"/>
<text text-anchor="middle" x="271.2183" y="-133.5" font-family="Helvetica,sans-Serif" font-size="10.00" fill="#000000">sum</text>
</a>
</g>
</g>
<!-- Node14&#45;&gt;Node40 -->
<g id="edge31" class="edge">
<title>Node14&#45;&gt;Node40</title>
<path fill="none" stroke="#191970" d="M75.3185,-291.0481C88.0425,-260.3913 122.1547,-188.8444 175.3984,-154.5 195.6542,-141.4342 223.0251,-137.3348 243.3271,-136.2693"/>
<polygon fill="#191970" stroke="#191970" points="243.6191,-139.7621 253.5061,-135.9544 243.4026,-132.7654 243.6191,-139.7621"/>
</g>
<!-- Node17 -->
<g id="node4" class="node">
<title>Node17</title>
<g id="a_node4"><a xlink:href="class_lattice.html#a5b4e162f06f7b4b90b4a9335ed2aabb5" target="_top" xlink:title="allocate method for allocating memory.">
<polygon fill="#ffffff" stroke="#000000" points="441.9395,-568.5 441.9395,-586.5 527.4268,-586.5 527.4268,-568.5 441.9395,-568.5"/>
<text text-anchor="middle" x="484.6831" y="-574.5" font-family="Helvetica,sans-Serif" font-size="10.00" fill="#000000">Lattice::allocate</text>
</a>
</g>
</g>
<!-- Node16&#45;&gt;Node17 -->
<g id="edge3" class="edge">
<title>Node16&#45;&gt;Node17</title>
<path fill="none" stroke="#191970" d="M288.5254,-503.8725C308.5577,-504.9707 341.9993,-508.9049 367.0381,-522.5 387.2015,-533.4479 382.9921,-548.3385 403.0381,-559.5 411.8835,-564.4251 421.9698,-568.0026 431.9641,-570.6013"/>
<polygon fill="#191970" stroke="#191970" points="431.3477,-574.0509 441.8784,-572.8873 432.9205,-567.2299 431.3477,-574.0509"/>
</g>
<!-- Node18 -->
<g id="node5" class="node">
<title>Node18</title>
<g id="a_node5"><a xlink:href="class_parallel_1_1_index.html#ac406d7ceb12e986a66d64ef98fcef5d3" target="_top" xlink:title=" ">
<polygon fill="#ffffff" stroke="#000000" points="419.1465,-531.5 419.1465,-549.5 550.2197,-549.5 550.2197,-531.5 419.1465,-531.5"/>
<text text-anchor="middle" x="484.6831" y="-537.5" font-family="Helvetica,sans-Serif" font-size="10.00" fill="#000000">Parallel::Index::cubeIndex</text>
</a>
</g>
</g>
<!-- Node16&#45;&gt;Node18 -->
<g id="edge4" class="edge">
<title>Node16&#45;&gt;Node18</title>
<path fill="none" stroke="#191970" d="M288.687,-506.5279C317.5695,-511.5341 376.6323,-521.7715 422.4095,-529.7061"/>
<polygon fill="#191970" stroke="#191970" points="422.0982,-533.2042 432.5491,-531.4636 423.2938,-526.3071 422.0982,-533.2042"/>
</g>
<!-- Node19 -->
<g id="node6" class="node">
<title>Node19</title>
<g id="a_node6"><a xlink:href="class_parallel_1_1_index.html#af31faeef1369fdc0997d1910e008bfe2" target="_top" xlink:title=" ">
<polygon fill="#ffffff" stroke="#000000" points="423.0381,-494.5 423.0381,-512.5 546.3281,-512.5 546.3281,-494.5 423.0381,-494.5"/>
<text text-anchor="middle" x="484.6831" y="-500.5" font-family="Helvetica,sans-Serif" font-size="10.00" fill="#000000">Parallel::Index::getIndex</text>
</a>
</g>
</g>
<!-- Node16&#45;&gt;Node19 -->
<g id="edge5" class="edge">
<title>Node16&#45;&gt;Node19</title>
<path fill="none" stroke="#191970" d="M288.687,-503.5C315.5689,-503.5 368.5949,-503.5 412.7201,-503.5"/>
<polygon fill="#191970" stroke="#191970" points="412.8529,-507.0001 422.8529,-503.5 412.8529,-500.0001 412.8529,-507.0001"/>
</g>
<!-- Node20 -->
<g id="node7" class="node">
<title>Node20</title>
<g id="a_node7"><a xlink:href="class_parallel_1_1_neighbours.html#a84653f3e22436280ac5a4689a24e7146" target="_top" xlink:title=" ">
<polygon fill="#ffffff" stroke="#000000" points="421.9297,-457.5 421.9297,-475.5 547.4365,-475.5 547.4365,-457.5 421.9297,-457.5"/>
<text text-anchor="middle" x="484.6831" y="-463.5" font-family="Helvetica,sans-Serif" font-size="10.00" fill="#000000">Parallel::Neighbours::get</text>
</a>
</g>
</g>
<!-- Node16&#45;&gt;Node20 -->
<g id="edge6" class="edge">
<title>Node16&#45;&gt;Node20</title>
<path fill="none" stroke="#191970" d="M288.687,-500.4721C317.5695,-495.4659 376.6323,-485.2285 422.4095,-477.2939"/>
<polygon fill="#191970" stroke="#191970" points="423.2938,-480.6929 432.5491,-475.5364 422.0982,-473.7958 423.2938,-480.6929"/>
</g>
<!-- Node21&#45;&gt;Node17 -->
<g id="edge8" class="edge">
<title>Node21&#45;&gt;Node17</title>
<path fill="none" stroke="#191970" d="M285.8906,-543.0432C315.4383,-548.1647 383.3999,-559.9445 431.614,-568.3015"/>
<polygon fill="#191970" stroke="#191970" points="431.1308,-571.7699 441.5817,-570.0292 432.3264,-564.8727 431.1308,-571.7699"/>
</g>
<!-- Node25&#45;&gt;Node15 -->
<g id="edge14" class="edge">
<title>Node25&#45;&gt;Node15</title>
<path fill="none" stroke="#191970" d="M291.8233,-586.5014C326.033,-601.4087 391.9064,-629.9421 403.0381,-633.5 413.8352,-636.951 425.6426,-639.9715 436.8392,-642.5031"/>
<polygon fill="#191970" stroke="#191970" points="436.3885,-645.9867 446.9035,-644.6889 437.8742,-639.1462 436.3885,-645.9867"/>
</g>
<!-- Node25&#45;&gt;Node17 -->
<g id="edge13" class="edge">
<title>Node25&#45;&gt;Node17</title>
<path fill="none" stroke="#191970" d="M329.2665,-577.5C361.2116,-577.5 400.5618,-577.5 431.6737,-577.5"/>
<polygon fill="#191970" stroke="#191970" points="431.8863,-581.0001 441.8863,-577.5 431.8863,-574.0001 431.8863,-581.0001"/>
</g>
<!-- Node25&#45;&gt;Node19 -->
<g id="edge15" class="edge">
<title>Node25&#45;&gt;Node19</title>
<path fill="none" stroke="#191970" d="M329.1499,-572.495C342.1362,-569.7976 355.4785,-565.7013 367.0381,-559.5 387.2563,-548.6536 383.0575,-533.7781 403.0381,-522.5 407.5174,-519.9716 412.3162,-517.7792 417.2607,-515.8782"/>
<polygon fill="#191970" stroke="#191970" points="418.5805,-519.1258 426.9035,-512.57 416.3088,-512.5046 418.5805,-519.1258"/>
</g>
<!-- Node26 -->
<g id="node13" class="node">
<title>Node26</title>
<g id="a_node13"><a xlink:href="functions_8h.html#a93863171e3da962b61804144857576a7" target="_top" xlink:title="traceRealMultiplication">
<polygon fill="#ffffff" stroke="#000000" points="426.3828,-605.5 426.3828,-623.5 542.9834,-623.5 542.9834,-605.5 426.3828,-605.5"/>
<text text-anchor="middle" x="484.6831" y="-611.5" font-family="Helvetica,sans-Serif" font-size="10.00" fill="#000000">traceRealMultiplication</text>
</a>
</g>
</g>
<!-- Node25&#45;&gt;Node26 -->
<g id="edge16" class="edge">
<title>Node25&#45;&gt;Node26</title>
<path fill="none" stroke="#191970" d="M323.1647,-586.5039C353.1202,-591.6961 390.9749,-598.2575 422.5064,-603.7229"/>
<polygon fill="#191970" stroke="#191970" points="422.0529,-607.1964 432.5037,-605.4557 423.2484,-600.2992 422.0529,-607.1964"/>
</g>
<!-- Node27&#45;&gt;Node19 -->
<g id="edge28" class="edge">
<title>Node27&#45;&gt;Node19</title>
<path fill="none" stroke="#191970" d="M278.5934,-340.6349C295.7976,-372.1139 341.8174,-448.151 403.0381,-485.5 406.2636,-487.4678 409.6774,-489.2215 413.2077,-490.7844"/>
<polygon fill="#191970" stroke="#191970" points="412.1867,-494.1423 422.7758,-494.4914 414.7157,-487.615 412.1867,-494.1423"/>
</g>
<!-- Node28 -->
<g id="node15" class="node">
<title>Node28</title>
<g id="a_node15"><a xlink:href="class_parameters.html#a58f15668b37e705d34d6588e287e4bc0" target="_top" xlink:title=" ">
<polygon fill="#ffffff" stroke="#000000" points="416.0996,-111.5 416.0996,-139.5 553.2666,-139.5 553.2666,-111.5 416.0996,-111.5"/>
<text text-anchor="start" x="424.0996" y="-127.5" font-family="Helvetica,sans-Serif" font-size="10.00" fill="#000000">Parameters::getConfigStart</text>
<text text-anchor="middle" x="484.6831" y="-117.5" font-family="Helvetica,sans-Serif" font-size="10.00" fill="#000000">Number</text>
</a>
</g>
</g>
<!-- Node27&#45;&gt;Node28 -->
<g id="edge18" class="edge">
<title>Node27&#45;&gt;Node28</title>
<path fill="none" stroke="#191970" d="M335.1389,-320.7651C347.0072,-317.0478 358.3763,-311.2996 367.0381,-302.5 416.3468,-252.4071 354.4652,-199.3067 403.0381,-148.5 404.4501,-147.0231 405.9488,-145.6387 407.5208,-144.3412"/>
<polygon fill="#191970" stroke="#191970" points="409.6777,-147.1055 415.9281,-138.5508 405.7072,-141.3405 409.6777,-147.1055"/>
</g>
<!-- Node29 -->
<g id="node16" class="node">
<title>Node29</title>
<g id="a_node16"><a xlink:href="class_parameters.html#a181a773d23fdb19d0c4f35e6cf2d5649" target="_top" xlink:title=" ">
<polygon fill="#ffffff" stroke="#000000" points="414.9888,-74.5 414.9888,-92.5 554.3774,-92.5 554.3774,-74.5 414.9888,-74.5"/>
<text text-anchor="middle" x="484.6831" y="-80.5" font-family="Helvetica,sans-Serif" font-size="10.00" fill="#000000">Parameters::getBatchName</text>
</a>
</g>
</g>
<!-- Node27&#45;&gt;Node29 -->
<g id="edge19" class="edge">
<title>Node27&#45;&gt;Node29</title>
<path fill="none" stroke="#191970" d="M335.5009,-321.1122C347.343,-317.3698 358.6098,-311.5236 367.0381,-302.5 428.9864,-236.1762 340.1534,-166.9367 403.0381,-101.5 404.1067,-100.388 405.2272,-99.3374 406.3936,-98.3448"/>
<polygon fill="#191970" stroke="#191970" points="408.4585,-101.1722 414.6906,-92.6041 404.4756,-95.4157 408.4585,-101.1722"/>
</g>
<!-- Node30 -->
<g id="node17" class="node">
<title>Node30</title>
<g id="a_node17"><a xlink:href="class_parameters.html#ae5c64523dc50dca13b417fe3d9e4175c" target="_top" xlink:title=" ">
<polygon fill="#ffffff" stroke="#000000" points="430.8262,-37.5 430.8262,-55.5 538.54,-55.5 538.54,-37.5 430.8262,-37.5"/>
<text text-anchor="middle" x="484.6831" y="-43.5" font-family="Helvetica,sans-Serif" font-size="10.00" fill="#000000">Parameters::getBeta</text>
</a>
</g>
</g>
<!-- Node27&#45;&gt;Node30 -->
<g id="edge20" class="edge">
<title>Node27&#45;&gt;Node30</title>
<path fill="none" stroke="#191970" d="M335.1984,-321.4431C347.2078,-317.6959 358.6175,-311.7638 367.0381,-302.5 438.9961,-223.3357 329.9623,-142.6336 403.0381,-64.5 408.0822,-59.1068 414.3459,-55.1463 421.1454,-52.262"/>
<polygon fill="#191970" stroke="#191970" points="422.3784,-55.539 430.6851,-48.9625 420.0903,-48.9235 422.3784,-55.539"/>
</g>
<!-- Node31 -->
<g id="node18" class="node">
<title>Node31</title>
<g id="a_node18"><a xlink:href="class_parameters.html#a52b90e94a378ec9fe8c504cf546e98fa" target="_top" xlink:title=" ">
<polygon fill="#ffffff" stroke="#000000" points="422.2129,-.5 422.2129,-18.5 547.1533,-18.5 547.1533,-.5 422.2129,-.5"/>
<text text-anchor="middle" x="484.6831" y="-6.5" font-family="Helvetica,sans-Serif" font-size="10.00" fill="#000000">Parameters::getNSpatial</text>
</a>
</g>
</g>
<!-- Node27&#45;&gt;Node31 -->
<g id="edge21" class="edge">
<title>Node27&#45;&gt;Node31</title>
<path fill="none" stroke="#191970" d="M335.3408,-321.5712C347.3406,-317.8154 358.7104,-311.8474 367.0381,-302.5 449.035,-210.4631 319.7414,-118.3622 403.0381,-27.5 405.9622,-24.3103 409.3126,-21.6193 412.9502,-19.3543"/>
<polygon fill="#191970" stroke="#191970" points="414.5656,-22.4594 421.8939,-14.8078 411.3935,-16.2194 414.5656,-22.4594"/>
</g>
<!-- Node32 -->
<g id="node19" class="node">
<title>Node32</title>
<g id="a_node19"><a xlink:href="class_parameters.html#a237ea1286459e8c648e983464829fe8d" target="_top" xlink:title=" ">
<polygon fill="#ffffff" stroke="#000000" points="416.937,-420.5 416.937,-438.5 552.4292,-438.5 552.4292,-420.5 416.937,-420.5"/>
<text text-anchor="middle" x="484.6831" y="-426.5" font-family="Helvetica,sans-Serif" font-size="10.00" fill="#000000">Parameters::getNTemporal</text>
</a>
</g>
</g>
<!-- Node27&#45;&gt;Node32 -->
<g id="edge22" class="edge">
<title>Node27&#45;&gt;Node32</title>
<path fill="none" stroke="#191970" d="M288.8929,-340.5593C313.2151,-359.2276 359.0101,-391.9891 403.0381,-410.5 409.6789,-413.292 416.8041,-415.7147 423.9781,-417.8064"/>
<polygon fill="#191970" stroke="#191970" points="423.1826,-421.2171 433.7502,-420.4573 425.0153,-414.4612 423.1826,-421.2171"/>
</g>
<!-- Node33 -->
<g id="node20" class="node">
<title>Node33</title>
<g id="a_node20"><a xlink:href="class_parallel_1_1_communicator.html#a7b1f80fb49a0cc83f2031c3415174150" target="_top" xlink:title=" ">
<polygon fill="#ffffff" stroke="#000000" points="424.7202,-373.5 424.7202,-401.5 544.646,-401.5 544.646,-373.5 424.7202,-373.5"/>
<text text-anchor="start" x="432.7202" y="-389.5" font-family="Helvetica,sans-Serif" font-size="10.00" fill="#000000">Parallel::Communicator</text>
<text text-anchor="middle" x="484.6831" y="-379.5" font-family="Helvetica,sans-Serif" font-size="10.00" fill="#000000">::getNumProc</text>
</a>
</g>
</g>
<!-- Node27&#45;&gt;Node33 -->
<g id="edge23" class="edge">
<title>Node27&#45;&gt;Node33</title>
<path fill="none" stroke="#191970" d="M320.4594,-340.5712C351.8147,-349.5313 392.6053,-361.1877 425.6887,-370.6417"/>
<polygon fill="#191970" stroke="#191970" points="425.1127,-374.1171 435.6896,-373.4995 427.0361,-367.3865 425.1127,-374.1171"/>
</g>
<!-- Node34 -->
<g id="node21" class="node">
<title>Node34</title>
<g id="a_node21"><a xlink:href="class_parameters.html#abace4edb8ece38841b58c5ce6168cbc4" target="_top" xlink:title=" ">
<polygon fill="#ffffff" stroke="#000000" points="422.7695,-336.5 422.7695,-354.5 546.5967,-354.5 546.5967,-336.5 422.7695,-336.5"/>
<text text-anchor="middle" x="484.6831" y="-342.5" font-family="Helvetica,sans-Serif" font-size="10.00" fill="#000000">Parameters::getFilePath</text>
</a>
</g>
</g>
<!-- Node27&#45;&gt;Node34 -->
<g id="edge24" class="edge">
<title>Node27&#45;&gt;Node34</title>
<path fill="none" stroke="#191970" d="M335.2648,-332.2006C359.5504,-334.3622 387.3662,-336.8381 412.3622,-339.0629"/>
<polygon fill="#191970" stroke="#191970" points="412.2458,-342.5663 422.5167,-339.9667 412.8664,-335.5938 412.2458,-342.5663"/>
</g>
<!-- Node35 -->
<g id="node22" class="node">
<title>Node35</title>
<g id="a_node22"><a xlink:href="class_parameters.html#afa4cfe5dc4302b1e8f8928606ea9b056" target="_top" xlink:title=" ">
<polygon fill="#ffffff" stroke="#000000" points="411.9297,-299.5 411.9297,-317.5 557.4365,-317.5 557.4365,-299.5 411.9297,-299.5"/>
<text text-anchor="middle" x="484.6831" y="-305.5" font-family="Helvetica,sans-Serif" font-size="10.00" fill="#000000">Parameters::getOutputFolder</text>
</a>
</g>
</g>
<!-- Node27&#45;&gt;Node35 -->
<g id="edge25" class="edge">
<title>Node27&#45;&gt;Node35</title>
<path fill="none" stroke="#191970" d="M335.2648,-321.0994C356.1382,-319.3393 379.6194,-317.3593 401.6767,-315.4993"/>
<polygon fill="#191970" stroke="#191970" points="402.0259,-318.9824 411.6965,-314.6545 401.4377,-312.0072 402.0259,-318.9824"/>
</g>
<!-- Node36 -->
<g id="node23" class="node">
<title>Node36</title>
<g id="a_node23"><a xlink:href="class_parallel_1_1_neighbours.html#ad1a2a616b4089eded3545faf11409b85" target="_top" xlink:title=" ">
<polygon fill="#ffffff" stroke="#000000" points="403.0381,-252.5 403.0381,-280.5 566.3281,-280.5 566.3281,-252.5 403.0381,-252.5"/>
<text text-anchor="start" x="411.0381" y="-268.5" font-family="Helvetica,sans-Serif" font-size="10.00" fill="#000000">Parallel::Neighbours</text>
<text text-anchor="middle" x="484.6831" y="-258.5" font-family="Helvetica,sans-Serif" font-size="10.00" fill="#000000">::getProcessorDimensionPosition</text>
</a>
</g>
</g>
<!-- Node27&#45;&gt;Node36 -->
<g id="edge26" class="edge">
<title>Node27&#45;&gt;Node36</title>
<path fill="none" stroke="#191970" d="M331.2787,-312.4471C343.1883,-309.3825 355.5556,-306.0014 367.0381,-302.5 383.3096,-297.5382 386.8406,-294.6986 403.0381,-289.5 409.4442,-287.4439 416.1643,-285.3892 422.8821,-283.4008"/>
<polygon fill="#191970" stroke="#191970" points="424.0653,-286.7016 432.686,-280.5426 422.1061,-279.9814 424.0653,-286.7016"/>
</g>
<!-- Node37 -->
<g id="node24" class="node">
<title>Node37</title>
<g id="a_node24"><a xlink:href="class_parallel_1_1_index.html#aaa2650024b4e91dc86d2bdc568c8f57d" target="_top" xlink:title=" ">
<polygon fill="#ffffff" stroke="#000000" points="420.8164,-205.5 420.8164,-233.5 548.5498,-233.5 548.5498,-205.5 420.8164,-205.5"/>
<text text-anchor="start" x="428.8164" y="-221.5" font-family="Helvetica,sans-Serif" font-size="10.00" fill="#000000">Parallel::Index::getGlobal</text>
<text text-anchor="middle" x="484.6831" y="-211.5" font-family="Helvetica,sans-Serif" font-size="10.00" fill="#000000">Index</text>
</a>
</g>
</g>
<!-- Node27&#45;&gt;Node37 -->
<g id="edge27" class="edge">
<title>Node27&#45;&gt;Node37</title>
<path fill="none" stroke="#191970" d="M335.1905,-317.9162C346.5177,-314.3931 357.6698,-309.4445 367.0381,-302.5 392.021,-283.9806 378.328,-261.3818 403.0381,-242.5 405.6708,-240.4882 408.4715,-238.6524 411.3902,-236.9772"/>
<polygon fill="#191970" stroke="#191970" points="413.0911,-240.0395 420.4506,-232.4178 409.9445,-233.7866 413.0911,-240.0395"/>
</g>
<!-- Node38 -->
<g id="node25" class="node">
<title>Node38</title>
<g id="a_node25"><a xlink:href="class_parallel_1_1_communicator.html#a474ab433da0e83ef372d74e26a7e5cb0" target="_top" xlink:title=" ">
<polygon fill="#ffffff" stroke="#000000" points="424.7202,-158.5 424.7202,-186.5 544.646,-186.5 544.646,-158.5 424.7202,-158.5"/>
<text text-anchor="start" x="432.7202" y="-174.5" font-family="Helvetica,sans-Serif" font-size="10.00" fill="#000000">Parallel::Communicator</text>
<text text-anchor="middle" x="484.6831" y="-164.5" font-family="Helvetica,sans-Serif" font-size="10.00" fill="#000000">::getProcessRank</text>
</a>
</g>
</g>
<!-- Node27&#45;&gt;Node38 -->
<g id="edge29" class="edge">
<title>Node27&#45;&gt;Node38</title>
<path fill="none" stroke="#191970" d="M335.4991,-319.8027C347.0608,-316.1317 358.2205,-310.646 367.0381,-302.5 403.8928,-268.4521 366.6839,-230.0818 403.0381,-195.5 406.6492,-192.065 410.7324,-189.1362 415.0998,-186.6399"/>
<polygon fill="#191970" stroke="#191970" points="416.9516,-189.6308 424.4035,-182.0995 413.8815,-183.3399 416.9516,-189.6308"/>
</g>
</g>
</svg>
