<?xml version="1.0" encoding="UTF-8" standalone="no"?>
<!DOCTYPE svg PUBLIC "-//W3C//DTD SVG 1.1//EN"
 "http://www.w3.org/Graphics/SVG/1.1/DTD/svg11.dtd">
<!-- Generated by graphviz version 2.40.1 (20161225.0304)
 -->
<!-- Title: WilsonGaugeAction::WilsonGaugeAction Pages: 1 -->
<svg width="261pt" height="64pt"
 viewBox="0.00 0.00 261.09 64.00" xmlns="http://www.w3.org/2000/svg" xmlns:xlink="http://www.w3.org/1999/xlink">
<g id="graph0" class="graph" transform="scale(1 1) rotate(0) translate(4 60)">
<title>WilsonGaugeAction::WilsonGaugeAction</title>
<polygon fill="#ffffff" stroke="transparent" points="-4,4 -4,-60 257.0928,-60 257.0928,4 -4,4"/>
<!-- Node0 -->
<g id="node1" class="node">
<title>Node0</title>
<g id="a_node1"><a xlink:title=" ">
<polygon fill="#bfbfbf" stroke="#000000" points="0,-13.5 0,-41.5 109.3789,-41.5 109.3789,-13.5 0,-13.5"/>
<text text-anchor="start" x="8" y="-29.5" font-family="Helvetica,sans-Serif" font-size="10.00" fill="#000000">WilsonGaugeAction::</text>
<text text-anchor="middle" x="54.6895" y="-19.5" font-family="Helvetica,sans-Serif" font-size="10.00" fill="#000000">WilsonGaugeAction</text>
</a>
</g>
</g>
<!-- Node1 -->
<g id="node2" class="node">
<title>Node1</title>
<g id="a_node2"><a xlink:href="class_parameters.html#ae5c64523dc50dca13b417fe3d9e4175c" target="_top" xlink:title=" ">
<polygon fill="#ffffff" stroke="#000000" points="145.3789,-37.5 145.3789,-55.5 253.0928,-55.5 253.0928,-37.5 145.3789,-37.5"/>
<text text-anchor="middle" x="199.2358" y="-43.5" font-family="Helvetica,sans-Serif" font-size="10.00" fill="#000000">Parameters::getBeta</text>
</a>
</g>
</g>
<!-- Node0&#45;&gt;Node1 -->
<g id="edge1" class="edge">
<title>Node0&#45;&gt;Node1</title>
<path fill="none" stroke="#191970" d="M109.7486,-34.7373C118.1208,-35.8378 126.8202,-36.9813 135.361,-38.1039"/>
<polygon fill="#191970" stroke="#191970" points="134.9144,-41.5752 145.2853,-39.4084 135.8267,-34.6349 134.9144,-41.5752"/>
</g>
<!-- Node2 -->
<g id="node3" class="node">
<title>Node2</title>
<g id="a_node3"><a xlink:href="class_lattice.html#a5b4e162f06f7b4b90b4a9335ed2aabb5" target="_top" xlink:title="allocate method for allocating memory.">
<polygon fill="#ffffff" stroke="#000000" points="156.4922,-.5 156.4922,-18.5 241.9795,-18.5 241.9795,-.5 156.4922,-.5"/>
<text text-anchor="middle" x="199.2358" y="-6.5" font-family="Helvetica,sans-Serif" font-size="10.00" fill="#000000">Lattice::allocate</text>
</a>
</g>
</g>
<!-- Node0&#45;&gt;Node2 -->
<g id="edge2" class="edge">
<title>Node0&#45;&gt;Node2</title>
<path fill="none" stroke="#191970" d="M109.7486,-20.6436C121.7197,-19.1529 134.3599,-17.5788 146.2488,-16.0983"/>
<polygon fill="#191970" stroke="#191970" points="146.9768,-19.5348 156.4676,-14.8258 146.1117,-12.5885 146.9768,-19.5348"/>
</g>
</g>
</svg>
