<?xml version="1.0" encoding="UTF-8" standalone="no"?>
<!DOCTYPE svg PUBLIC "-//W3C//DTD SVG 1.1//EN"
 "http://www.w3.org/Graphics/SVG/1.1/DTD/svg11.dtd">
<!-- Generated by graphviz version 2.40.1 (20161225.0304)
 -->
<!-- Title: Parameters::getSubLatticePreset Pages: 1 -->
<svg width="438pt" height="37pt"
 viewBox="0.00 0.00 438.15 37.00" xmlns="http://www.w3.org/2000/svg" xmlns:xlink="http://www.w3.org/1999/xlink">
<g id="graph0" class="graph" transform="scale(1 1) rotate(0) translate(4 33)">
<title>Parameters::getSubLatticePreset</title>
<polygon fill="#ffffff" stroke="transparent" points="-4,4 -4,-33 434.1465,-33 434.1465,4 -4,4"/>
<!-- Node329 -->
<g id="node1" class="node">
<title>Node329</title>
<g id="a_node1"><a xlink:title=" ">
<polygon fill="#bfbfbf" stroke="#000000" points="295.748,-.5 295.748,-28.5 430.1465,-28.5 430.1465,-.5 295.748,-.5"/>
<text text-anchor="start" x="303.748" y="-16.5" font-family="Helvetica,sans-Serif" font-size="10.00" fill="#000000">Parameters::getSubLattice</text>
<text text-anchor="middle" x="362.9473" y="-6.5" font-family="Helvetica,sans-Serif" font-size="10.00" fill="#000000">Preset</text>
</a>
</g>
</g>
<!-- Node330 -->
<g id="node2" class="node">
<title>Node330</title>
<g id="a_node2"><a xlink:href="class_parallel_1_1_communicator.html#a3094d713d09225738ecf0250019db115" target="_top" xlink:title=" ">
<polygon fill="#ffffff" stroke="#000000" points="139.8223,-.5 139.8223,-28.5 259.748,-28.5 259.748,-.5 139.8223,-.5"/>
<text text-anchor="start" x="147.8223" y="-16.5" font-family="Helvetica,sans-Serif" font-size="10.00" fill="#000000">Parallel::Communicator</text>
<text text-anchor="middle" x="199.7852" y="-6.5" font-family="Helvetica,sans-Serif" font-size="10.00" fill="#000000">::initializeSubLattice</text>
</a>
</g>
</g>
<!-- Node329&#45;&gt;Node330 -->
<g id="edge1" class="edge">
<title>Node329&#45;&gt;Node330</title>
<path fill="none" stroke="#191970" d="M285.5667,-14.5C276.9406,-14.5 268.2517,-14.5 259.8872,-14.5"/>
<polygon fill="#191970" stroke="#191970" points="285.641,-18.0001 295.641,-14.5 285.641,-11.0001 285.641,-18.0001"/>
</g>
<!-- Node331 -->
<g id="node3" class="node">
<title>Node331</title>
<g id="a_node3"><a xlink:href="class_test_suite.html#af7291e6d8b53443604ee0c1fcf1fadfc" target="_top" xlink:title=" ">
<polygon fill="#ffffff" stroke="#000000" points="0,-5.5 0,-23.5 103.8223,-23.5 103.8223,-5.5 0,-5.5"/>
<text text-anchor="middle" x="51.9111" y="-11.5" font-family="Helvetica,sans-Serif" font-size="10.00" fill="#000000">TestSuite::TestSuite</text>
</a>
</g>
</g>
<!-- Node330&#45;&gt;Node331 -->
<g id="edge2" class="edge">
<title>Node330&#45;&gt;Node331</title>
<path fill="none" stroke="#191970" d="M129.5664,-14.5C120.9353,-14.5 112.2365,-14.5 103.942,-14.5"/>
<polygon fill="#191970" stroke="#191970" points="129.6392,-18.0001 139.6391,-14.5 129.6391,-11.0001 129.6392,-18.0001"/>
</g>
</g>
</svg>
