<?xml version="1.0" encoding="UTF-8" standalone="no"?>
<!DOCTYPE svg PUBLIC "-//W3C//DTD SVG 1.1//EN"
 "http://www.w3.org/Graphics/SVG/1.1/DTD/svg11.dtd">
<!-- Generated by graphviz version 2.40.1 (20161225.0304)
 -->
<!-- Title: nlohmann::basic_json::iter_impl::operator+= Pages: 1 -->
<svg width="271pt" height="37pt"
 viewBox="0.00 0.00 270.56 37.00" xmlns="http://www.w3.org/2000/svg" xmlns:xlink="http://www.w3.org/1999/xlink">
<g id="graph0" class="graph" transform="scale(1 1) rotate(0) translate(4 33)">
<title>nlohmann::basic_json::iter_impl::operator+=</title>
<polygon fill="#ffffff" stroke="transparent" points="-4,4 -4,-33 266.5557,-33 266.5557,4 -4,4"/>
<!-- Node23 -->
<g id="node1" class="node">
<title>Node23</title>
<g id="a_node1"><a xlink:title="add to iterator">
<polygon fill="#bfbfbf" stroke="#000000" points="148.7285,-.5 148.7285,-28.5 262.5557,-28.5 262.5557,-.5 148.7285,-.5"/>
<text text-anchor="start" x="156.7285" y="-16.5" font-family="Helvetica,sans-Serif" font-size="10.00" fill="#000000">nlohmann::basic_json</text>
<text text-anchor="middle" x="205.6421" y="-6.5" font-family="Helvetica,sans-Serif" font-size="10.00" fill="#000000">::iter_impl::operator+=</text>
</a>
</g>
</g>
<!-- Node24 -->
<g id="node2" class="node">
<title>Node24</title>
<g id="a_node2"><a xlink:href="classnlohmann_1_1basic__json_1_1iter__impl.html#a9fd84e884e8474c000dc966d331a4854" target="_top" xlink:title="subtract from iterator">
<polygon fill="#ffffff" stroke="#000000" points="0,-.5 0,-28.5 112.7285,-28.5 112.7285,-.5 0,-.5"/>
<text text-anchor="start" x="8" y="-16.5" font-family="Helvetica,sans-Serif" font-size="10.00" fill="#000000">nlohmann::basic_json</text>
<text text-anchor="middle" x="56.3643" y="-6.5" font-family="Helvetica,sans-Serif" font-size="10.00" fill="#000000">::iter_impl::operator&#45;=</text>
</a>
</g>
</g>
<!-- Node23&#45;&gt;Node24 -->
<g id="edge1" class="edge">
<title>Node23&#45;&gt;Node24</title>
<path fill="none" stroke="#191970" d="M138.109,-14.5C129.6352,-14.5 121.0381,-14.5 112.7599,-14.5"/>
<polygon fill="#191970" stroke="#191970" points="138.3543,-18.0001 148.3543,-14.5 138.3543,-11.0001 138.3543,-18.0001"/>
</g>
</g>
</svg>
