<?xml version="1.0" encoding="UTF-8" standalone="no"?>
<!DOCTYPE svg PUBLIC "-//W3C//DTD SVG 1.1//EN"
 "http://www.w3.org/Graphics/SVG/1.1/DTD/svg11.dtd">
<!-- Generated by graphviz version 2.40.1 (20161225.0304)
 -->
<!-- Title: SU3Exp::exp Pages: 1 -->
<svg width="359pt" height="249pt"
 viewBox="0.00 0.00 358.64 249.00" xmlns="http://www.w3.org/2000/svg" xmlns:xlink="http://www.w3.org/1999/xlink">
<g id="graph0" class="graph" transform="scale(1 1) rotate(0) translate(4 245)">
<title>SU3Exp::exp</title>
<polygon fill="#ffffff" stroke="transparent" points="-4,4 -4,-245 354.6445,-245 354.6445,4 -4,4"/>
<!-- Node4 -->
<g id="node1" class="node">
<title>Node4</title>
<g id="a_node1"><a xlink:title=" ">
<polygon fill="#bfbfbf" stroke="#000000" points="0,-111.5 0,-129.5 74.3643,-129.5 74.3643,-111.5 0,-111.5"/>
<text text-anchor="middle" x="37.1821" y="-117.5" font-family="Helvetica,sans-Serif" font-size="10.00" fill="#000000">SU3Exp::exp</text>
</a>
</g>
</g>
<!-- Node5 -->
<g id="node2" class="node">
<title>Node5</title>
<g id="a_node2"><a xlink:href="class_s_u3.html#a9f3527fd882882ddfa18d72f5f43176c" target="_top" xlink:title=" ">
<polygon fill="#ffffff" stroke="#000000" points="131.7583,-222.5 131.7583,-240.5 197.2212,-240.5 197.2212,-222.5 131.7583,-222.5"/>
<text text-anchor="middle" x="164.4897" y="-228.5" font-family="Helvetica,sans-Serif" font-size="10.00" fill="#000000">SU3::zeros</text>
</a>
</g>
</g>
<!-- Node4&#45;&gt;Node5 -->
<g id="edge1" class="edge">
<title>Node4&#45;&gt;Node5</title>
<path fill="none" stroke="#191970" d="M41.9283,-129.6157C52.0224,-148.1319 77.4174,-190.3464 110.3643,-213.5 114.0178,-216.0676 118.0637,-218.2891 122.2502,-220.2068"/>
<polygon fill="#191970" stroke="#191970" points="120.9583,-223.4596 131.5424,-223.9362 123.5656,-216.9633 120.9583,-223.4596"/>
</g>
<!-- Node6 -->
<g id="node3" class="node">
<title>Node6</title>
<g id="a_node3"><a xlink:href="class_s_u3.html#a7035a3e94f6dd27ece144b42473cade9" target="_top" xlink:title=" ">
<polygon fill="#ffffff" stroke="#000000" points="110.3643,-185.5 110.3643,-203.5 218.6152,-203.5 218.6152,-185.5 110.3643,-185.5"/>
<text text-anchor="middle" x="164.4897" y="-191.5" font-family="Helvetica,sans-Serif" font-size="10.00" fill="#000000">SU3::makeHermitian</text>
</a>
</g>
</g>
<!-- Node4&#45;&gt;Node6 -->
<g id="edge2" class="edge">
<title>Node4&#45;&gt;Node6</title>
<path fill="none" stroke="#191970" d="M46.8659,-129.6271C60.223,-141.794 85.4823,-163.3204 110.3643,-176.5 114.0561,-178.4555 118.001,-180.2553 122.0154,-181.8977"/>
<polygon fill="#191970" stroke="#191970" points="120.83,-185.1912 131.4218,-185.4432 123.2989,-178.641 120.83,-185.1912"/>
</g>
<!-- Node7 -->
<g id="node4" class="node">
<title>Node7</title>
<g id="a_node4"><a xlink:href="classcomplex.html#a360f0c3963a8e654ccbc16712294f4d7" target="_top" xlink:title=" ">
<polygon fill="#ffffff" stroke="#000000" points="122.0317,-148.5 122.0317,-166.5 206.9478,-166.5 206.9478,-148.5 122.0317,-148.5"/>
<text text-anchor="middle" x="164.4897" y="-154.5" font-family="Helvetica,sans-Serif" font-size="10.00" fill="#000000">complex::setRe</text>
</a>
</g>
</g>
<!-- Node4&#45;&gt;Node7 -->
<g id="edge3" class="edge">
<title>Node4&#45;&gt;Node7</title>
<path fill="none" stroke="#191970" d="M68.3251,-129.5512C84.9705,-134.389 105.6705,-140.4051 123.5968,-145.6151"/>
<polygon fill="#191970" stroke="#191970" points="122.6476,-148.984 133.2271,-148.414 124.6012,-142.2621 122.6476,-148.984"/>
</g>
<!-- Node9 -->
<g id="node6" class="node">
<title>Node9</title>
<g id="a_node6"><a xlink:href="classcomplex.html#aa4c37b87b5b9beebddad476b3049394c" target="_top" xlink:title=" ">
<polygon fill="#ffffff" stroke="#000000" points="122.8691,-111.5 122.8691,-129.5 206.1104,-129.5 206.1104,-111.5 122.8691,-111.5"/>
<text text-anchor="middle" x="164.4897" y="-117.5" font-family="Helvetica,sans-Serif" font-size="10.00" fill="#000000">complex::setIm</text>
</a>
</g>
</g>
<!-- Node4&#45;&gt;Node9 -->
<g id="edge5" class="edge">
<title>Node4&#45;&gt;Node9</title>
<path fill="none" stroke="#191970" d="M74.6901,-120.5C86.612,-120.5 100.0151,-120.5 112.7572,-120.5"/>
<polygon fill="#191970" stroke="#191970" points="112.7935,-124.0001 122.7935,-120.5 112.7934,-117.0001 112.7935,-124.0001"/>
</g>
<!-- Node11 -->
<g id="node8" class="node">
<title>Node11</title>
<g id="a_node8"><a xlink:href="classcomplex.html#af21a3dae4577a3aab8e1105a1b919b81" target="_top" xlink:title="complex::conjugate">
<polygon fill="#ffffff" stroke="#000000" points="113.4087,-74.5 113.4087,-92.5 215.5708,-92.5 215.5708,-74.5 113.4087,-74.5"/>
<text text-anchor="middle" x="164.4897" y="-80.5" font-family="Helvetica,sans-Serif" font-size="10.00" fill="#000000">complex::conjugate</text>
</a>
</g>
</g>
<!-- Node4&#45;&gt;Node11 -->
<g id="edge7" class="edge">
<title>Node4&#45;&gt;Node11</title>
<path fill="none" stroke="#191970" d="M68.3251,-111.4488C84.9705,-106.611 105.6705,-100.5949 123.5968,-95.3849"/>
<polygon fill="#191970" stroke="#191970" points="124.6012,-98.7379 133.2271,-92.586 122.6476,-92.016 124.6012,-98.7379"/>
</g>
<!-- Node12 -->
<g id="node9" class="node">
<title>Node12</title>
<g id="a_node9"><a xlink:href="classcomplex.html#a4741546b5617d11e87ee7831067c84c5" target="_top" xlink:title="complex::c">
<polygon fill="#ffffff" stroke="#000000" points="132.5933,-37.5 132.5933,-55.5 196.3862,-55.5 196.3862,-37.5 132.5933,-37.5"/>
<text text-anchor="middle" x="164.4897" y="-43.5" font-family="Helvetica,sans-Serif" font-size="10.00" fill="#000000">complex::c</text>
</a>
</g>
</g>
<!-- Node4&#45;&gt;Node12 -->
<g id="edge8" class="edge">
<title>Node4&#45;&gt;Node12</title>
<path fill="none" stroke="#191970" d="M47.3912,-111.1999C60.9331,-99.2626 85.9774,-78.5404 110.3643,-65.5 114.6401,-63.2136 119.2473,-61.1096 123.9051,-59.2014"/>
<polygon fill="#191970" stroke="#191970" points="125.3499,-62.3964 133.4471,-55.5637 122.8563,-55.8556 125.3499,-62.3964"/>
</g>
<!-- Node14 -->
<g id="node11" class="node">
<title>Node14</title>
<g id="a_node11"><a xlink:href="class_s_u3.html#a794ecde931082d02f625cab14d0e83e3" target="_top" xlink:title=" ">
<polygon fill="#ffffff" stroke="#000000" points="117.5859,-.5 117.5859,-18.5 211.3936,-18.5 211.3936,-.5 117.5859,-.5"/>
<text text-anchor="middle" x="164.4897" y="-6.5" font-family="Helvetica,sans-Serif" font-size="10.00" fill="#000000">SU3::setComplex</text>
</a>
</g>
</g>
<!-- Node4&#45;&gt;Node14 -->
<g id="edge10" class="edge">
<title>Node4&#45;&gt;Node14</title>
<path fill="none" stroke="#191970" d="M42.1431,-111.2476C52.447,-92.8723 77.9324,-51.5661 110.3643,-28.5 113.4254,-26.3229 116.7595,-24.3748 120.2196,-22.6356"/>
<polygon fill="#191970" stroke="#191970" points="121.8383,-25.747 129.5724,-18.5057 119.0107,-19.3435 121.8383,-25.747"/>
</g>
<!-- Node8 -->
<g id="node5" class="node">
<title>Node8</title>
<g id="a_node5"><a xlink:href="classcomplex.html#a696019188accc543e7c8297595e297ec" target="_top" xlink:title=" ">
<polygon fill="#ffffff" stroke="#000000" points="268.7876,-148.5 268.7876,-166.5 336.4722,-166.5 336.4722,-148.5 268.7876,-148.5"/>
<text text-anchor="middle" x="302.6299" y="-154.5" font-family="Helvetica,sans-Serif" font-size="10.00" fill="#000000">complex::re</text>
</a>
</g>
</g>
<!-- Node7&#45;&gt;Node8 -->
<g id="edge4" class="edge">
<title>Node7&#45;&gt;Node8</title>
<path fill="none" stroke="#191970" d="M207.0635,-157.5C223.3211,-157.5 241.8871,-157.5 258.3041,-157.5"/>
<polygon fill="#191970" stroke="#191970" points="258.7362,-161.0001 268.7361,-157.5 258.7361,-154.0001 258.7362,-161.0001"/>
</g>
<!-- Node10 -->
<g id="node7" class="node">
<title>Node10</title>
<g id="a_node7"><a xlink:href="classcomplex.html#a450461dea92da7f72b96402edafd07c2" target="_top" xlink:title=" ">
<polygon fill="#ffffff" stroke="#000000" points="267.9575,-111.5 267.9575,-129.5 337.3022,-129.5 337.3022,-111.5 267.9575,-111.5"/>
<text text-anchor="middle" x="302.6299" y="-117.5" font-family="Helvetica,sans-Serif" font-size="10.00" fill="#000000">complex::im</text>
</a>
</g>
</g>
<!-- Node9&#45;&gt;Node10 -->
<g id="edge6" class="edge">
<title>Node9&#45;&gt;Node10</title>
<path fill="none" stroke="#191970" d="M206.3112,-120.5C222.6202,-120.5 241.343,-120.5 257.919,-120.5"/>
<polygon fill="#191970" stroke="#191970" points="257.9218,-124.0001 267.9218,-120.5 257.9217,-117.0001 257.9218,-124.0001"/>
</g>
<!-- Node13 -->
<g id="node10" class="node">
<title>Node13</title>
<g id="a_node10"><a xlink:href="classcomplex.html#a1fb8d3affbc54c1ad34a0820b357e194" target="_top" xlink:title=" ">
<polygon fill="#ffffff" stroke="#000000" points="254.6152,-37.5 254.6152,-55.5 350.6445,-55.5 350.6445,-37.5 254.6152,-37.5"/>
<text text-anchor="middle" x="302.6299" y="-43.5" font-family="Helvetica,sans-Serif" font-size="10.00" fill="#000000">complex::complex</text>
</a>
</g>
</g>
<!-- Node12&#45;&gt;Node13 -->
<g id="edge9" class="edge">
<title>Node12&#45;&gt;Node13</title>
<path fill="none" stroke="#191970" d="M196.5291,-46.5C210.786,-46.5 228.0314,-46.5 244.437,-46.5"/>
<polygon fill="#191970" stroke="#191970" points="244.5091,-50.0001 254.5091,-46.5 244.5091,-43.0001 244.5091,-50.0001"/>
</g>
</g>
</svg>
