<?xml version="1.0" encoding="UTF-8" standalone="no"?>
<!DOCTYPE svg PUBLIC "-//W3C//DTD SVG 1.1//EN"
 "http://www.w3.org/Graphics/SVG/1.1/DTD/svg11.dtd">
<!-- Generated by graphviz version 2.40.1 (20161225.0304)
 -->
<!-- Title: IO::FieldIO::loadFieldConfiguration Pages: 1 -->
<svg width="537pt" height="367pt"
 viewBox="0.00 0.00 536.54 367.00" xmlns="http://www.w3.org/2000/svg" xmlns:xlink="http://www.w3.org/1999/xlink">
<g id="graph0" class="graph" transform="scale(1 1) rotate(0) translate(4 363)">
<title>IO::FieldIO::loadFieldConfiguration</title>
<polygon fill="#ffffff" stroke="transparent" points="-4,4 -4,-363 532.5449,-363 532.5449,4 -4,4"/>
<!-- Node19 -->
<g id="node1" class="node">
<title>Node19</title>
<g id="a_node1"><a xlink:title="IO::FieldIO::loadFieldConfiguration loads a regular configuration into memory.">
<polygon fill="#bfbfbf" stroke="#000000" points="0,-175.5 0,-193.5 169.9648,-193.5 169.9648,-175.5 0,-175.5"/>
<text text-anchor="middle" x="84.9824" y="-181.5" font-family="Helvetica,sans-Serif" font-size="10.00" fill="#000000">IO::FieldIO::loadFieldConfiguration</text>
</a>
</g>
</g>
<!-- Node20 -->
<g id="node2" class="node">
<title>Node20</title>
<g id="a_node2"><a xlink:href="class_parameters.html#abace4edb8ece38841b58c5ce6168cbc4" target="_top" xlink:title=" ">
<polygon fill="#ffffff" stroke="#000000" points="225.6963,-340.5 225.6963,-358.5 349.5234,-358.5 349.5234,-340.5 225.6963,-340.5"/>
<text text-anchor="middle" x="287.6099" y="-346.5" font-family="Helvetica,sans-Serif" font-size="10.00" fill="#000000">Parameters::getFilePath</text>
</a>
</g>
</g>
<!-- Node19&#45;&gt;Node20 -->
<g id="edge1" class="edge">
<title>Node19&#45;&gt;Node20</title>
<path fill="none" stroke="#191970" d="M89.5641,-193.5213C103.2832,-219.5525 146.7757,-295.2444 205.9648,-331.5 209.1868,-333.4736 212.5978,-335.2319 216.1259,-336.7984"/>
<polygon fill="#191970" stroke="#191970" points="215.1007,-340.1549 225.6895,-340.5128 217.635,-333.6298 215.1007,-340.1549"/>
</g>
<!-- Node21 -->
<g id="node3" class="node">
<title>Node21</title>
<g id="a_node3"><a xlink:href="class_parameters.html#aa593520a8f1c3282e399feb0cf70217b" target="_top" xlink:title=" ">
<polygon fill="#ffffff" stroke="#000000" points="218.7456,-303.5 218.7456,-321.5 356.4741,-321.5 356.4741,-303.5 218.7456,-303.5"/>
<text text-anchor="middle" x="287.6099" y="-309.5" font-family="Helvetica,sans-Serif" font-size="10.00" fill="#000000">Parameters::getInputFolder</text>
</a>
</g>
</g>
<!-- Node19&#45;&gt;Node21 -->
<g id="edge2" class="edge">
<title>Node19&#45;&gt;Node21</title>
<path fill="none" stroke="#191970" d="M93.1029,-193.7561C111.2956,-213.9327 157.5405,-262.1725 205.9648,-288.5 214.8236,-293.3164 224.7619,-297.2704 234.5744,-300.4797"/>
<polygon fill="#191970" stroke="#191970" points="233.7144,-303.8765 244.3004,-303.445 235.7558,-297.1808 233.7144,-303.8765"/>
</g>
<!-- Node22 -->
<g id="node4" class="node">
<title>Node22</title>
<g id="a_node4"><a xlink:href="class_parallel_1_1_communicator.html#a57bb28ee8dbc4efd708a2695423778c4" target="_top" xlink:title=" ">
<polygon fill="#ffffff" stroke="#000000" points="406.937,-153.5 406.937,-181.5 526.8628,-181.5 526.8628,-153.5 406.937,-153.5"/>
<text text-anchor="start" x="414.937" y="-169.5" font-family="Helvetica,sans-Serif" font-size="10.00" fill="#000000">Parallel::Communicator</text>
<text text-anchor="middle" x="466.8999" y="-159.5" font-family="Helvetica,sans-Serif" font-size="10.00" fill="#000000">::MPIExit</text>
</a>
</g>
</g>
<!-- Node19&#45;&gt;Node22 -->
<g id="edge3" class="edge">
<title>Node19&#45;&gt;Node22</title>
<path fill="none" stroke="#191970" d="M95.7389,-193.5481C115.8248,-209.7828 161.0773,-243.3014 205.9648,-255.5 275.9982,-274.5323 301.5077,-281.5233 369.2549,-255.5 403.4832,-242.3521 433.21,-211.0438 450.6029,-189.55"/>
<polygon fill="#191970" stroke="#191970" points="453.4408,-191.6031 456.859,-181.5748 447.9331,-187.2827 453.4408,-191.6031"/>
</g>
<!-- Node23 -->
<g id="node5" class="node">
<title>Node23</title>
<g id="a_node5"><a xlink:href="class_parallel_1_1_neighbours.html#ad1a2a616b4089eded3545faf11409b85" target="_top" xlink:title=" ">
<polygon fill="#ffffff" stroke="#000000" points="205.9648,-217.5 205.9648,-245.5 369.2549,-245.5 369.2549,-217.5 205.9648,-217.5"/>
<text text-anchor="start" x="213.9648" y="-233.5" font-family="Helvetica,sans-Serif" font-size="10.00" fill="#000000">Parallel::Neighbours</text>
<text text-anchor="middle" x="287.6099" y="-223.5" font-family="Helvetica,sans-Serif" font-size="10.00" fill="#000000">::getProcessorDimensionPosition</text>
</a>
</g>
</g>
<!-- Node19&#45;&gt;Node23 -->
<g id="edge4" class="edge">
<title>Node19&#45;&gt;Node23</title>
<path fill="none" stroke="#191970" d="M124.051,-193.5621C150.409,-199.6759 185.9441,-207.9183 217.1582,-215.1585"/>
<polygon fill="#191970" stroke="#191970" points="216.5915,-218.6199 227.1237,-217.4701 218.1732,-211.801 216.5915,-218.6199"/>
</g>
<!-- Node24 -->
<g id="node6" class="node">
<title>Node24</title>
<g id="a_node6"><a xlink:href="class_parallel_1_1_index.html#aaa2650024b4e91dc86d2bdc568c8f57d" target="_top" xlink:title=" ">
<polygon fill="#ffffff" stroke="#000000" points="223.7432,-170.5 223.7432,-198.5 351.4766,-198.5 351.4766,-170.5 223.7432,-170.5"/>
<text text-anchor="start" x="231.7432" y="-186.5" font-family="Helvetica,sans-Serif" font-size="10.00" fill="#000000">Parallel::Index::getGlobal</text>
<text text-anchor="middle" x="287.6099" y="-176.5" font-family="Helvetica,sans-Serif" font-size="10.00" fill="#000000">Index</text>
</a>
</g>
</g>
<!-- Node19&#45;&gt;Node24 -->
<g id="edge5" class="edge">
<title>Node19&#45;&gt;Node24</title>
<path fill="none" stroke="#191970" d="M170.034,-184.5C184.5009,-184.5 199.4221,-184.5 213.5757,-184.5"/>
<polygon fill="#191970" stroke="#191970" points="213.7287,-188.0001 223.7287,-184.5 213.7287,-181.0001 213.7287,-188.0001"/>
</g>
<!-- Node25 -->
<g id="node7" class="node">
<title>Node25</title>
<g id="a_node7"><a xlink:href="class_parallel_1_1_index.html#af31faeef1369fdc0997d1910e008bfe2" target="_top" xlink:title=" ">
<polygon fill="#ffffff" stroke="#000000" points="405.2549,-97.5 405.2549,-115.5 528.5449,-115.5 528.5449,-97.5 405.2549,-97.5"/>
<text text-anchor="middle" x="466.8999" y="-103.5" font-family="Helvetica,sans-Serif" font-size="10.00" fill="#000000">Parallel::Index::getIndex</text>
</a>
</g>
</g>
<!-- Node19&#45;&gt;Node25 -->
<g id="edge6" class="edge">
<title>Node19&#45;&gt;Node25</title>
<path fill="none" stroke="#191970" d="M91.2869,-175.4757C107.338,-153.3965 152.2989,-96.9689 205.9648,-76.5 284.6878,-46.474 385.7034,-75.4193 435.8221,-93.8512"/>
<polygon fill="#191970" stroke="#191970" points="434.8405,-97.222 445.432,-97.4884 437.3183,-90.6752 434.8405,-97.222"/>
</g>
<!-- Node26 -->
<g id="node8" class="node">
<title>Node26</title>
<g id="a_node8"><a xlink:href="class_parameters.html#a265e274127b6d845e43c66d94463f051" target="_top" xlink:title=" ">
<polygon fill="#ffffff" stroke="#000000" points="229.3047,-86.5 229.3047,-104.5 345.915,-104.5 345.915,-86.5 229.3047,-86.5"/>
<text text-anchor="middle" x="287.6099" y="-92.5" font-family="Helvetica,sans-Serif" font-size="10.00" fill="#000000">Parameters::getDebug</text>
</a>
</g>
</g>
<!-- Node19&#45;&gt;Node26 -->
<g id="edge7" class="edge">
<title>Node19&#45;&gt;Node26</title>
<path fill="none" stroke="#191970" d="M97.7579,-175.384C119.1454,-160.5298 163.9924,-131.0985 205.9648,-114.5 213.1016,-111.6777 220.7626,-109.2119 228.429,-107.0755"/>
<polygon fill="#191970" stroke="#191970" points="229.3156,-110.4614 238.1036,-104.5435 227.5432,-103.6895 229.3156,-110.4614"/>
</g>
<!-- Node27 -->
<g id="node9" class="node">
<title>Node27</title>
<g id="a_node9"><a xlink:href="class_parallel_1_1_communicator.html#a9471bf9448f34a0b4575310a3c54af61" target="_top" xlink:title=" ">
<polygon fill="#ffffff" stroke="#000000" points="227.647,-123.5 227.647,-151.5 347.5728,-151.5 347.5728,-123.5 227.647,-123.5"/>
<text text-anchor="start" x="235.647" y="-139.5" font-family="Helvetica,sans-Serif" font-size="10.00" fill="#000000">Parallel::Communicator</text>
<text text-anchor="middle" x="287.6099" y="-129.5" font-family="Helvetica,sans-Serif" font-size="10.00" fill="#000000">::checkLattice</text>
</a>
</g>
</g>
<!-- Node19&#45;&gt;Node27 -->
<g id="edge8" class="edge">
<title>Node19&#45;&gt;Node27</title>
<path fill="none" stroke="#191970" d="M124.051,-175.4379C150.5128,-169.3 186.224,-161.0167 217.5267,-153.756"/>
<polygon fill="#191970" stroke="#191970" points="218.5671,-157.1077 227.5176,-151.4386 216.9854,-150.2887 218.5671,-157.1077"/>
</g>
<!-- Node28 -->
<g id="node10" class="node">
<title>Node28</title>
<g id="a_node10"><a xlink:href="class_parallel_1_1_communicator.html#a474ab433da0e83ef372d74e26a7e5cb0" target="_top" xlink:title=" ">
<polygon fill="#ffffff" stroke="#000000" points="227.647,-.5 227.647,-28.5 347.5728,-28.5 347.5728,-.5 227.647,-.5"/>
<text text-anchor="start" x="235.647" y="-16.5" font-family="Helvetica,sans-Serif" font-size="10.00" fill="#000000">Parallel::Communicator</text>
<text text-anchor="middle" x="287.6099" y="-6.5" font-family="Helvetica,sans-Serif" font-size="10.00" fill="#000000">::getProcessRank</text>
</a>
</g>
</g>
<!-- Node19&#45;&gt;Node28 -->
<g id="edge11" class="edge">
<title>Node19&#45;&gt;Node28</title>
<path fill="none" stroke="#191970" d="M90.3132,-175.4918C105.3539,-150.8185 150.6486,-81.464 205.9648,-43.5 212.0187,-39.3452 218.7322,-35.7205 225.6338,-32.5748"/>
<polygon fill="#191970" stroke="#191970" points="227.262,-35.6868 235.1173,-28.5773 224.543,-29.2364 227.262,-35.6868"/>
</g>
<!-- Node27&#45;&gt;Node22 -->
<g id="edge10" class="edge">
<title>Node27&#45;&gt;Node22</title>
<path fill="none" stroke="#191970" d="M347.8096,-147.573C363.5634,-150.2091 380.682,-153.0735 396.8987,-155.7869"/>
<polygon fill="#191970" stroke="#191970" points="396.4185,-159.2552 406.859,-157.4536 397.5738,-152.3511 396.4185,-159.2552"/>
</g>
<!-- Node27&#45;&gt;Node25 -->
<g id="edge9" class="edge">
<title>Node27&#45;&gt;Node25</title>
<path fill="none" stroke="#191970" d="M347.8096,-127.0912C366.0924,-123.93 386.2133,-120.4511 404.6293,-117.2668"/>
<polygon fill="#191970" stroke="#191970" points="405.4051,-120.6847 414.6625,-115.5321 404.2124,-113.7871 405.4051,-120.6847"/>
</g>
</g>
</svg>
