<?xml version="1.0" encoding="UTF-8" standalone="no"?>
<!DOCTYPE svg PUBLIC "-//W3C//DTD SVG 1.1//EN"
 "http://www.w3.org/Graphics/SVG/1.1/DTD/svg11.dtd">
<!-- Generated by graphviz version 2.40.1 (20161225.0304)
 -->
<!-- Title: Parallel::Index::getIndex Pages: 1 -->
<svg width="564pt" height="698pt"
 viewBox="0.00 0.00 563.81 697.57" xmlns="http://www.w3.org/2000/svg" xmlns:xlink="http://www.w3.org/1999/xlink">
<g id="graph0" class="graph" transform="scale(1 1) rotate(0) translate(4 693.5706)">
<title>Parallel::Index::getIndex</title>
<polygon fill="#ffffff" stroke="transparent" points="-4,4 -4,-693.5706 559.8105,-693.5706 559.8105,4 -4,4"/>
<!-- Node24 -->
<g id="node1" class="node">
<title>Node24</title>
<g id="a_node1"><a xlink:title=" ">
<polygon fill="#bfbfbf" stroke="#000000" points="432.5205,-393.5 432.5205,-411.5 555.8105,-411.5 555.8105,-393.5 432.5205,-393.5"/>
<text text-anchor="middle" x="494.1655" y="-399.5" font-family="Helvetica,sans-Serif" font-size="10.00" fill="#000000">Parallel::Index::getIndex</text>
</a>
</g>
</g>
<!-- Node25 -->
<g id="node2" class="node">
<title>Node25</title>
<g id="a_node2"><a xlink:href="class_luscher_action.html#a42285b6e3015935588e1fab6b90c1a11" target="_top" xlink:title="computeStaple computes the staple at given poisition.">
<polygon fill="#ffffff" stroke="#000000" points="9.165,-626.5 9.165,-644.5 160.7998,-644.5 160.7998,-626.5 9.165,-626.5"/>
<text text-anchor="middle" x="84.9824" y="-632.5" font-family="Helvetica,sans-Serif" font-size="10.00" fill="#000000">LuscherAction::computeStaple</text>
</a>
</g>
</g>
<!-- Node24&#45;&gt;Node25 -->
<g id="edge1" class="edge">
<title>Node24&#45;&gt;Node25</title>
<path fill="none" stroke="#191970" d="M489.847,-421.6095C477.0745,-476.2484 437.7857,-631.0351 396.5205,-659.5 303.8645,-723.4145 156.7363,-667.9499 104.3142,-644.64"/>
<polygon fill="#191970" stroke="#191970" points="493.3297,-422.0819 492.1612,-411.5517 486.5079,-420.5123 493.3297,-422.0819"/>
</g>
<!-- Node26 -->
<g id="node3" class="node">
<title>Node26</title>
<g id="a_node3"><a xlink:href="class_wilson_gauge_action.html#af1f6ba42fcc2b923dc3b37bf150bfae9" target="_top" xlink:title="computeStaple computes the staple at given poisition.">
<polygon fill="#ffffff" stroke="#000000" points="30.293,-574.5 30.293,-602.5 139.6719,-602.5 139.6719,-574.5 30.293,-574.5"/>
<text text-anchor="start" x="38.293" y="-590.5" font-family="Helvetica,sans-Serif" font-size="10.00" fill="#000000">WilsonGaugeAction::</text>
<text text-anchor="middle" x="84.9824" y="-580.5" font-family="Helvetica,sans-Serif" font-size="10.00" fill="#000000">computeStaple</text>
</a>
</g>
</g>
<!-- Node24&#45;&gt;Node26 -->
<g id="edge2" class="edge">
<title>Node24&#45;&gt;Node26</title>
<path fill="none" stroke="#191970" d="M484.0653,-420.2471C468.6148,-445.7039 436.637,-492.1893 396.5205,-516.5 374.682,-529.7342 223.2953,-561.1396 139.8677,-577.7582"/>
<polygon fill="#191970" stroke="#191970" points="487.0939,-422.0016 489.1601,-411.6102 481.0647,-418.445 487.0939,-422.0016"/>
</g>
<!-- Node27 -->
<g id="node4" class="node">
<title>Node27</title>
<g id="a_node4"><a xlink:href="class_i_o_1_1_field_i_o.html#a8af607f9a1d79e90d4514c36103c6601" target="_top" xlink:title="IO::FieldIO::writeFieldToFile writes a lattice of SU3 matrix objects to file.">
<polygon fill="#ffffff" stroke="#000000" points="15.3003,-495.5 15.3003,-513.5 154.6646,-513.5 154.6646,-495.5 15.3003,-495.5"/>
<text text-anchor="middle" x="84.9824" y="-501.5" font-family="Helvetica,sans-Serif" font-size="10.00" fill="#000000">IO::FieldIO::writeFieldToFile</text>
</a>
</g>
</g>
<!-- Node24&#45;&gt;Node27 -->
<g id="edge3" class="edge">
<title>Node24&#45;&gt;Node27</title>
<path fill="none" stroke="#191970" d="M481.0008,-419.6484C464.0302,-440.2584 432.4015,-473.8895 396.5205,-488.5 317.5204,-520.6684 217.8061,-519.3108 152.7684,-513.5037"/>
<polygon fill="#191970" stroke="#191970" points="483.8386,-421.7037 487.3461,-411.7062 478.3697,-417.3343 483.8386,-421.7037"/>
</g>
<!-- Node28 -->
<g id="node5" class="node">
<title>Node28</title>
<g id="a_node5"><a xlink:href="class_i_o_1_1_field_i_o.html#aaf2bac2025d67c06e7c61e8cc9f44777" target="_top" xlink:title="IO::FieldIO::writeDoublesFieldToFile writes a lattice of doubles to file.">
<polygon fill="#ffffff" stroke="#000000" points="237.3906,-326.5 237.3906,-354.5 365.0947,-354.5 365.0947,-326.5 237.3906,-326.5"/>
<text text-anchor="start" x="245.3906" y="-342.5" font-family="Helvetica,sans-Serif" font-size="10.00" fill="#000000">IO::FieldIO::writeDoubles</text>
<text text-anchor="middle" x="301.2427" y="-332.5" font-family="Helvetica,sans-Serif" font-size="10.00" fill="#000000">FieldToFile</text>
</a>
</g>
</g>
<!-- Node24&#45;&gt;Node28 -->
<g id="edge4" class="edge">
<title>Node24&#45;&gt;Node28</title>
<path fill="none" stroke="#191970" d="M458.6392,-390.2037C440.159,-383.8811 417.1725,-376.131 396.5205,-369.5 380.8809,-364.4784 363.7281,-359.1901 348.3388,-354.5247"/>
<polygon fill="#191970" stroke="#191970" points="457.5322,-393.5241 468.1268,-393.4597 459.8044,-386.9032 457.5322,-393.5241"/>
</g>
<!-- Node30 -->
<g id="node7" class="node">
<title>Node30</title>
<g id="a_node7"><a xlink:href="class_i_o_1_1_field_i_o.html#a02db864a48601edd7febaab5d655e495" target="_top" xlink:title="IO::FieldIO::loadFieldConfiguration loads a regular configuration into memory.">
<polygon fill="#ffffff" stroke="#000000" points="0,-449.5 0,-467.5 169.9648,-467.5 169.9648,-449.5 0,-449.5"/>
<text text-anchor="middle" x="84.9824" y="-455.5" font-family="Helvetica,sans-Serif" font-size="10.00" fill="#000000">IO::FieldIO::loadFieldConfiguration</text>
</a>
</g>
</g>
<!-- Node24&#45;&gt;Node30 -->
<g id="edge6" class="edge">
<title>Node24&#45;&gt;Node30</title>
<path fill="none" stroke="#191970" d="M422.0978,-412.1488C363.7919,-419.98 279.5725,-431.3481 205.9648,-441.5 187.3698,-444.0646 167.1728,-446.8877 148.7038,-449.4841"/>
<polygon fill="#191970" stroke="#191970" points="422.8666,-415.577 432.3119,-410.7774 421.9351,-408.6393 422.8666,-415.577"/>
</g>
<!-- Node31 -->
<g id="node8" class="node">
<title>Node31</title>
<g id="a_node8"><a xlink:href="class_i_o_1_1_field_i_o.html#af23fb6e02a6bd1cafd5be4acacbf848e" target="_top" xlink:title="IO::FieldIO::loadChromaFieldConfiguration loads a configuration from Chroma into memory.">
<polygon fill="#ffffff" stroke="#000000" points="11.958,-390.5 11.958,-418.5 158.0068,-418.5 158.0068,-390.5 11.958,-390.5"/>
<text text-anchor="start" x="19.958" y="-406.5" font-family="Helvetica,sans-Serif" font-size="10.00" fill="#000000">IO::FieldIO::loadChromaField</text>
<text text-anchor="middle" x="84.9824" y="-396.5" font-family="Helvetica,sans-Serif" font-size="10.00" fill="#000000">Configuration</text>
</a>
</g>
</g>
<!-- Node24&#45;&gt;Node31 -->
<g id="edge7" class="edge">
<title>Node24&#45;&gt;Node31</title>
<path fill="none" stroke="#191970" d="M422.2761,-402.8514C348.0919,-403.214 232.9661,-403.7767 158.2717,-404.1418"/>
<polygon fill="#191970" stroke="#191970" points="422.4809,-406.3505 432.4636,-402.8016 422.4466,-399.3506 422.4809,-406.3505"/>
</g>
<!-- Node32 -->
<g id="node9" class="node">
<title>Node32</title>
<g id="a_node9"><a xlink:href="lattice_8h.html#a19c12b39277c18bf341c75cc2929b314" target="_top" xlink:title=" ">
<polygon fill="#ffffff" stroke="#000000" points="268.5088,-252.5 268.5088,-270.5 333.9766,-270.5 333.9766,-252.5 268.5088,-252.5"/>
<text text-anchor="middle" x="301.2427" y="-258.5" font-family="Helvetica,sans-Serif" font-size="10.00" fill="#000000">sumSpatial</text>
</a>
</g>
</g>
<!-- Node24&#45;&gt;Node32 -->
<g id="edge8" class="edge">
<title>Node24&#45;&gt;Node32</title>
<path fill="none" stroke="#191970" d="M484.9268,-384.1419C470.1861,-356.8691 438.6568,-306.1219 396.5205,-280.5 377.7852,-269.1076 353.5083,-264.386 334.1494,-262.498"/>
<polygon fill="#191970" stroke="#191970" points="482.0042,-386.1059 489.7414,-393.3437 488.2066,-382.8607 482.0042,-386.1059"/>
</g>
<!-- Node35 -->
<g id="node12" class="node">
<title>Node35</title>
<g id="a_node12"><a xlink:href="lattice_8h.html#ab2d48b63b79e5e5ee3ca25483fe98b3e" target="_top" xlink:title=" ">
<polygon fill="#ffffff" stroke="#000000" points="243.4063,-289.5 243.4063,-307.5 359.0791,-307.5 359.0791,-289.5 243.4063,-289.5"/>
<text text-anchor="middle" x="301.2427" y="-295.5" font-family="Helvetica,sans-Serif" font-size="10.00" fill="#000000">realTraceMultiplication</text>
</a>
</g>
</g>
<!-- Node24&#45;&gt;Node35 -->
<g id="edge11" class="edge">
<title>Node24&#45;&gt;Node35</title>
<path fill="none" stroke="#191970" d="M480.0441,-385.7837C462.5282,-366.2066 430.7649,-334.3197 396.5205,-317.5 385.0146,-311.8487 371.943,-307.8783 359.2494,-305.0888"/>
<polygon fill="#191970" stroke="#191970" points="477.4299,-388.1112 486.6443,-393.3404 482.702,-383.5063 477.4299,-388.1112"/>
</g>
<!-- Node36 -->
<g id="node13" class="node">
<title>Node36</title>
<g id="a_node13"><a xlink:href="lattice_8h.html#adb16681d0c7120b111172c031ec74d06" target="_top" xlink:title=" ">
<polygon fill="#ffffff" stroke="#000000" points="240.9063,-175.5 240.9063,-193.5 361.5791,-193.5 361.5791,-175.5 240.9063,-175.5"/>
<text text-anchor="middle" x="301.2427" y="-181.5" font-family="Helvetica,sans-Serif" font-size="10.00" fill="#000000">imagTraceMultiplication</text>
</a>
</g>
</g>
<!-- Node24&#45;&gt;Node36 -->
<g id="edge15" class="edge">
<title>Node24&#45;&gt;Node36</title>
<path fill="none" stroke="#191970" d="M490.6283,-383.2962C482.1539,-343.0638 456.7431,-249.8288 396.5205,-203.5 386.4939,-195.7866 374.1645,-190.962 361.7422,-187.9956"/>
<polygon fill="#191970" stroke="#191970" points="487.2051,-384.0276 492.5843,-393.1553 494.0713,-382.6653 487.2051,-384.0276"/>
</g>
<!-- Node37 -->
<g id="node14" class="node">
<title>Node37</title>
<g id="a_node14"><a xlink:href="lattice_8h.html#a53bbfaed8f54ee3a1db6f8049686ccdf" target="_top" xlink:title="shift copies the lattice L and shifts it in a specified lorentzVector direction DIR.">
<polygon fill="#ffffff" stroke="#000000" points="284.0728,-212.5 284.0728,-230.5 318.4126,-230.5 318.4126,-212.5 284.0728,-212.5"/>
<text text-anchor="middle" x="301.2427" y="-218.5" font-family="Helvetica,sans-Serif" font-size="10.00" fill="#000000">shift</text>
</a>
</g>
</g>
<!-- Node24&#45;&gt;Node37 -->
<g id="edge16" class="edge">
<title>Node24&#45;&gt;Node37</title>
<path fill="none" stroke="#191970" d="M488.0792,-383.6203C476.1949,-349.9053 446.5921,-279.5112 396.5205,-243.5 373.2284,-226.7485 339.1665,-222.5264 318.7051,-221.5915"/>
<polygon fill="#191970" stroke="#191970" points="484.7964,-384.8384 491.3186,-393.1878 491.4267,-382.5935 484.7964,-384.8384"/>
</g>
<!-- Node44 -->
<g id="node21" class="node">
<title>Node44</title>
<g id="a_node21"><a xlink:href="class_parallel_1_1_communicator.html#ae843d16f4aed13d5b5179a05b717ec88" target="_top" xlink:title="Parallel::Communicator::getPositiveLink fetches a link in the positive direction.">
<polygon fill="#ffffff" stroke="#000000" points="241.2798,-621.5 241.2798,-649.5 361.2056,-649.5 361.2056,-621.5 241.2798,-621.5"/>
<text text-anchor="start" x="249.2798" y="-637.5" font-family="Helvetica,sans-Serif" font-size="10.00" fill="#000000">Parallel::Communicator</text>
<text text-anchor="middle" x="301.2427" y="-627.5" font-family="Helvetica,sans-Serif" font-size="10.00" fill="#000000">::getNegativeLink</text>
</a>
</g>
</g>
<!-- Node24&#45;&gt;Node44 -->
<g id="edge26" class="edge">
<title>Node24&#45;&gt;Node44</title>
<path fill="none" stroke="#191970" d="M490.9782,-421.6974C483.0334,-463.2519 458.3517,-561.8609 396.5205,-612.5 386.5153,-620.6942 374.0534,-626.0502 361.4752,-629.5309"/>
<polygon fill="#191970" stroke="#191970" points="494.4352,-422.2485 492.7571,-411.7874 487.5453,-421.0116 494.4352,-422.2485"/>
</g>
<!-- Node45 -->
<g id="node22" class="node">
<title>Node45</title>
<g id="a_node22"><a xlink:href="class_parallel_1_1_communicator.html#a27862560cf6c7b8ccf650a422e014776" target="_top" xlink:title="Parallel::Communicator::getNeighboursNeighbourLink fetches a neighbours neighbor link.">
<polygon fill="#ffffff" stroke="#000000" points="225.6987,-574.5 225.6987,-602.5 376.7866,-602.5 376.7866,-574.5 225.6987,-574.5"/>
<text text-anchor="start" x="233.6987" y="-590.5" font-family="Helvetica,sans-Serif" font-size="10.00" fill="#000000">Parallel::Communicator</text>
<text text-anchor="middle" x="301.2427" y="-580.5" font-family="Helvetica,sans-Serif" font-size="10.00" fill="#000000">::getNeighboursNeighbourLink</text>
</a>
</g>
</g>
<!-- Node24&#45;&gt;Node45 -->
<g id="edge29" class="edge">
<title>Node24&#45;&gt;Node45</title>
<path fill="none" stroke="#191970" d="M487.6015,-421.2414C475.1101,-454.1731 444.7796,-522.4363 396.5205,-559.5 388.4299,-565.7137 379.0077,-570.6037 369.2976,-574.45"/>
<polygon fill="#191970" stroke="#191970" points="491.0077,-422.1177 491.154,-411.5239 484.4332,-419.7142 491.0077,-422.1177"/>
</g>
<!-- Node46 -->
<g id="node23" class="node">
<title>Node46</title>
<g id="a_node23"><a xlink:href="class_parallel_1_1_communicator.html#a1c598fae96e05e3b36db368e60453d63" target="_top" xlink:title="Parallel::Communicator::getNeighboursNeighbourNegativeLink.">
<polygon fill="#ffffff" stroke="#000000" points="205.9648,-128.5 205.9648,-156.5 396.5205,-156.5 396.5205,-128.5 205.9648,-128.5"/>
<text text-anchor="start" x="213.9648" y="-144.5" font-family="Helvetica,sans-Serif" font-size="10.00" fill="#000000">Parallel::Communicator</text>
<text text-anchor="middle" x="301.2427" y="-134.5" font-family="Helvetica,sans-Serif" font-size="10.00" fill="#000000">::getNeighboursNeighbourNegativeLink</text>
</a>
</g>
</g>
<!-- Node24&#45;&gt;Node46 -->
<g id="edge32" class="edge">
<title>Node24&#45;&gt;Node46</title>
<path fill="none" stroke="#191970" d="M492.0009,-383.1715C485.8839,-338.0216 464.2554,-225.0302 396.5205,-166.5 392.0031,-162.5965 386.94,-159.3117 381.5648,-156.5495"/>
<polygon fill="#191970" stroke="#191970" points="488.5301,-383.6241 493.2405,-393.1142 495.4763,-382.758 488.5301,-383.6241"/>
</g>
<!-- Node47 -->
<g id="node24" class="node">
<title>Node47</title>
<g id="a_node24"><a xlink:href="class_parallel_1_1_communicator.html#a9471bf9448f34a0b4575310a3c54af61" target="_top" xlink:title="Parallel::Communicator::checkLattice checks if the lattice containts invalid numbers/nan.">
<polygon fill="#ffffff" stroke="#000000" points="241.2798,-450.5 241.2798,-478.5 361.2056,-478.5 361.2056,-450.5 241.2798,-450.5"/>
<text text-anchor="start" x="249.2798" y="-466.5" font-family="Helvetica,sans-Serif" font-size="10.00" fill="#000000">Parallel::Communicator</text>
<text text-anchor="middle" x="301.2427" y="-456.5" font-family="Helvetica,sans-Serif" font-size="10.00" fill="#000000">::checkLattice</text>
</a>
</g>
</g>
<!-- Node24&#45;&gt;Node47 -->
<g id="edge33" class="edge">
<title>Node24&#45;&gt;Node47</title>
<path fill="none" stroke="#191970" d="M458.6392,-414.7963C440.159,-421.1189 417.1725,-428.869 396.5205,-435.5 380.8809,-440.5216 363.7281,-445.8099 348.3388,-450.4753"/>
<polygon fill="#191970" stroke="#191970" points="459.8044,-418.0968 468.1268,-411.5403 457.5322,-411.4759 459.8044,-418.0968"/>
</g>
<!-- Node29 -->
<g id="node6" class="node">
<title>Node29</title>
<g id="a_node6"><a xlink:href="class_lattice_action_charge_density.html#a3dddc75188042c645fbdd1c8b3e80c8a" target="_top" xlink:title="Correlator::calculate calculates a observable.">
<polygon fill="#ffffff" stroke="#000000" points="15.2832,-336.5 15.2832,-364.5 154.6816,-364.5 154.6816,-336.5 15.2832,-336.5"/>
<text text-anchor="start" x="23.2832" y="-352.5" font-family="Helvetica,sans-Serif" font-size="10.00" fill="#000000">LatticeActionChargeDensity</text>
<text text-anchor="middle" x="84.9824" y="-342.5" font-family="Helvetica,sans-Serif" font-size="10.00" fill="#000000">::calculate</text>
</a>
</g>
</g>
<!-- Node28&#45;&gt;Node29 -->
<g id="edge5" class="edge">
<title>Node28&#45;&gt;Node29</title>
<path fill="none" stroke="#191970" d="M227.0296,-343.9317C203.6565,-345.0124 177.9309,-346.202 154.8693,-347.2684"/>
<polygon fill="#191970" stroke="#191970" points="227.4076,-347.418 237.2352,-343.4597 227.0842,-340.4255 227.4076,-347.418"/>
</g>
<!-- Node33 -->
<g id="node10" class="node">
<title>Node33</title>
<g id="a_node10"><a xlink:href="class_master_sampler_topc_x_y_z.html#a0ea80ad9935db791f00461b7dfd548b7" target="_top" xlink:title="Correlator::calculate calculates a observable.">
<polygon fill="#ffffff" stroke="#000000" points="22.7979,-289.5 22.7979,-317.5 147.167,-317.5 147.167,-289.5 22.7979,-289.5"/>
<text text-anchor="start" x="30.7979" y="-305.5" font-family="Helvetica,sans-Serif" font-size="10.00" fill="#000000">MasterSamplerTopcXYZ</text>
<text text-anchor="middle" x="84.9824" y="-295.5" font-family="Helvetica,sans-Serif" font-size="10.00" fill="#000000">::calculate</text>
</a>
</g>
</g>
<!-- Node32&#45;&gt;Node33 -->
<g id="edge9" class="edge">
<title>Node32&#45;&gt;Node33</title>
<path fill="none" stroke="#191970" d="M258.5414,-269.793C226.8016,-275.9572 183.0089,-284.4622 147.3547,-291.3866"/>
<polygon fill="#191970" stroke="#191970" points="259.2481,-273.2213 268.3974,-267.8789 257.9135,-266.3497 259.2481,-273.2213"/>
</g>
<!-- Node34 -->
<g id="node11" class="node">
<title>Node34</title>
<g id="a_node11"><a xlink:href="class_super_sampler.html#a7e1457583270077c4fbcb288ea9b954c" target="_top" xlink:title="Correlator::calculate calculates a observable.">
<polygon fill="#ffffff" stroke="#000000" points="22.5098,-252.5 22.5098,-270.5 147.4551,-270.5 147.4551,-252.5 22.5098,-252.5"/>
<text text-anchor="middle" x="84.9824" y="-258.5" font-family="Helvetica,sans-Serif" font-size="10.00" fill="#000000">SuperSampler::calculate</text>
</a>
</g>
</g>
<!-- Node32&#45;&gt;Node34 -->
<g id="edge10" class="edge">
<title>Node32&#45;&gt;Node34</title>
<path fill="none" stroke="#191970" d="M258.1682,-261.5C226.5892,-261.5 183.227,-261.5 147.7926,-261.5"/>
<polygon fill="#191970" stroke="#191970" points="258.3974,-265.0001 268.3974,-261.5 258.3974,-258.0001 258.3974,-265.0001"/>
</g>
<!-- Node35&#45;&gt;Node29 -->
<g id="edge12" class="edge">
<title>Node35&#45;&gt;Node29</title>
<path fill="none" stroke="#191970" d="M242.1846,-309.5682C230.1638,-312.0199 217.6297,-314.7208 205.9648,-317.5 189.8112,-321.3486 185.9795,-323.1087 169.9648,-327.5 159.3516,-330.4102 147.9861,-333.5028 137.131,-336.4449"/>
<polygon fill="#191970" stroke="#191970" points="243.0158,-312.9712 252.1311,-307.571 241.6378,-306.1082 243.0158,-312.9712"/>
</g>
<!-- Node35&#45;&gt;Node33 -->
<g id="edge13" class="edge">
<title>Node35&#45;&gt;Node33</title>
<path fill="none" stroke="#191970" d="M232.9807,-300.0782C205.5284,-300.7129 174.0895,-301.4398 147.2686,-302.0599"/>
<polygon fill="#191970" stroke="#191970" points="233.3725,-303.5702 243.2889,-299.8399 233.2106,-296.5721 233.3725,-303.5702"/>
</g>
<!-- Node35&#45;&gt;Node34 -->
<g id="edge14" class="edge">
<title>Node35&#45;&gt;Node34</title>
<path fill="none" stroke="#191970" d="M238.4999,-287.7653C206.5887,-282.3056 168.2342,-275.7436 137.8451,-270.5443"/>
<polygon fill="#191970" stroke="#191970" points="238.169,-291.2595 248.616,-289.4961 239.3495,-284.3597 238.169,-291.2595"/>
</g>
<!-- Node37&#45;&gt;Node29 -->
<g id="edge20" class="edge">
<title>Node37&#45;&gt;Node29</title>
<path fill="none" stroke="#191970" d="M273.9543,-221.3987C253.1465,-222.7067 224.9293,-227.6423 205.9648,-243.5 174.8053,-269.555 200.6319,-300.8672 169.9648,-327.5 165.4641,-331.4086 160.3624,-334.6602 154.9472,-337.3641"/>
<polygon fill="#191970" stroke="#191970" points="274.2148,-224.8913 284.0718,-221.0067 273.9437,-217.8965 274.2148,-224.8913"/>
</g>
<!-- Node37&#45;&gt;Node33 -->
<g id="edge22" class="edge">
<title>Node37&#45;&gt;Node33</title>
<path fill="none" stroke="#191970" d="M274.0541,-223.6421C254.1406,-226.1623 227.0284,-231.6345 205.9648,-243.5 185.9746,-254.7609 189.7412,-268.8674 169.9648,-280.5 162.9823,-284.6072 155.2485,-287.9995 147.3737,-290.797"/>
<polygon fill="#191970" stroke="#191970" points="274.4577,-227.1189 284.0164,-222.5494 273.6944,-220.1607 274.4577,-227.1189"/>
</g>
<!-- Node37&#45;&gt;Node34 -->
<g id="edge24" class="edge">
<title>Node37&#45;&gt;Node34</title>
<path fill="none" stroke="#191970" d="M273.9134,-226.5549C238.8031,-233.049 177.2351,-244.4367 133.9465,-252.4435"/>
<polygon fill="#191970" stroke="#191970" points="274.7141,-229.9662 283.9108,-224.7058 273.4409,-223.083 274.7141,-229.9662"/>
</g>
<!-- Node38 -->
<g id="node15" class="node">
<title>Node38</title>
<g id="a_node15"><a xlink:href="class_luscher_action.html#ac11785b2df276816a098a87e6ac514c7" target="_top" xlink:title="getActionDerivative, computes the derivative of the lattice in given direction.">
<polygon fill="#ffffff" stroke="#000000" points="21.6724,-205.5 21.6724,-233.5 148.2925,-233.5 148.2925,-205.5 21.6724,-205.5"/>
<text text-anchor="start" x="29.6724" y="-221.5" font-family="Helvetica,sans-Serif" font-size="10.00" fill="#000000">LuscherAction::getAction</text>
<text text-anchor="middle" x="84.9824" y="-211.5" font-family="Helvetica,sans-Serif" font-size="10.00" fill="#000000">Derivative</text>
</a>
</g>
</g>
<!-- Node37&#45;&gt;Node38 -->
<g id="edge17" class="edge">
<title>Node37&#45;&gt;Node38</title>
<path fill="none" stroke="#191970" d="M273.735,-221.2456C242.3458,-220.9553 189.9775,-220.471 148.354,-220.0861"/>
<polygon fill="#191970" stroke="#191970" points="273.8788,-224.747 283.9108,-221.3397 273.9436,-217.7473 273.8788,-224.747"/>
</g>
<!-- Node39 -->
<g id="node16" class="node">
<title>Node39</title>
<g id="a_node16"><a xlink:href="class_wilson_gauge_action.html#a43cf939cd53495b7225fbeaa8a0ff6e8" target="_top" xlink:title="getActionDerivative, computes the derivative of the lattice in given direction.">
<polygon fill="#ffffff" stroke="#000000" points="30.293,-158.5 30.293,-186.5 139.6719,-186.5 139.6719,-158.5 30.293,-158.5"/>
<text text-anchor="start" x="38.293" y="-174.5" font-family="Helvetica,sans-Serif" font-size="10.00" fill="#000000">WilsonGaugeAction::</text>
<text text-anchor="middle" x="84.9824" y="-164.5" font-family="Helvetica,sans-Serif" font-size="10.00" fill="#000000">getActionDerivative</text>
</a>
</g>
</g>
<!-- Node37&#45;&gt;Node39 -->
<g id="edge18" class="edge">
<title>Node37&#45;&gt;Node39</title>
<path fill="none" stroke="#191970" d="M273.8669,-216.8085C254.7726,-213.4189 228.7362,-208.563 205.9648,-203.5 183.106,-198.4176 158.002,-192.1061 136.6156,-186.5072"/>
<polygon fill="#191970" stroke="#191970" points="273.5083,-220.2989 283.9625,-218.5789 274.7174,-213.4041 273.5083,-220.2989"/>
</g>
<!-- Node40 -->
<g id="node17" class="node">
<title>Node40</title>
<g id="a_node17"><a xlink:href="class_energy_density.html#ae8e5e29257104d881bcabeadc3b2c9e7" target="_top" xlink:title="Correlator::calculate calculates a observable.">
<polygon fill="#ffffff" stroke="#000000" points="21.9556,-121.5 21.9556,-139.5 148.0093,-139.5 148.0093,-121.5 21.9556,-121.5"/>
<text text-anchor="middle" x="84.9824" y="-127.5" font-family="Helvetica,sans-Serif" font-size="10.00" fill="#000000">EnergyDensity::calculate</text>
</a>
</g>
</g>
<!-- Node37&#45;&gt;Node40 -->
<g id="edge19" class="edge">
<title>Node37&#45;&gt;Node40</title>
<path fill="none" stroke="#191970" d="M273.7802,-221.8471C253.5118,-220.8616 226.0732,-216.8115 205.9648,-203.5 181.913,-187.578 193.7487,-165.8195 169.9648,-149.5 163.358,-144.9666 155.8443,-141.496 148.0824,-138.8424"/>
<polygon fill="#191970" stroke="#191970" points="273.8396,-225.3498 283.9293,-222.1174 274.0261,-218.3523 273.8396,-225.3498"/>
</g>
<!-- Node41 -->
<g id="node18" class="node">
<title>Node41</title>
<g id="a_node18"><a xlink:href="class_master_sampler.html#ad3cc7e36498dbf4a39238de3ac59ae8b" target="_top" xlink:title="Correlator::calculate calculates a observable.">
<polygon fill="#ffffff" stroke="#000000" points="20.5713,-84.5 20.5713,-102.5 149.3936,-102.5 149.3936,-84.5 20.5713,-84.5"/>
<text text-anchor="middle" x="84.9824" y="-90.5" font-family="Helvetica,sans-Serif" font-size="10.00" fill="#000000">MasterSampler::calculate</text>
</a>
</g>
</g>
<!-- Node37&#45;&gt;Node41 -->
<g id="edge21" class="edge">
<title>Node37&#45;&gt;Node41</title>
<path fill="none" stroke="#191970" d="M273.918,-223.0535C253.0904,-222.7864 224.8641,-219.1111 205.9648,-203.5 172.4312,-175.8008 203.0335,-140.7527 169.9648,-112.5 163.9878,-107.3934 156.9326,-103.5775 149.4838,-100.7385"/>
<polygon fill="#191970" stroke="#191970" points="274.0908,-226.5517 284.0465,-222.9277 274.0037,-219.5523 274.0908,-226.5517"/>
</g>
<!-- Node42 -->
<g id="node19" class="node">
<title>Node42</title>
<g id="a_node19"><a xlink:href="class_plaquette.html#a40cae6fd587c14836bdf61e69c615a00" target="_top" xlink:title="Correlator::calculate calculates a observable.">
<polygon fill="#ffffff" stroke="#000000" points="33.3423,-47.5 33.3423,-65.5 136.6226,-65.5 136.6226,-47.5 33.3423,-47.5"/>
<text text-anchor="middle" x="84.9824" y="-53.5" font-family="Helvetica,sans-Serif" font-size="10.00" fill="#000000">Plaquette::calculate</text>
</a>
</g>
</g>
<!-- Node37&#45;&gt;Node42 -->
<g id="edge23" class="edge">
<title>Node37&#45;&gt;Node42</title>
<path fill="none" stroke="#191970" d="M273.4579,-223.5823C252.379,-223.604 224.0392,-220.0591 205.9648,-203.5 162.391,-163.5792 212.8692,-116.1394 169.9648,-75.5 160.9646,-66.9749 149.0109,-61.9618 136.9193,-59.0854"/>
<polygon fill="#191970" stroke="#191970" points="273.8276,-227.0734 283.7261,-223.2959 273.6324,-220.0762 273.8276,-227.0734"/>
</g>
<!-- Node43 -->
<g id="node20" class="node">
<title>Node43</title>
<g id="a_node20"><a xlink:href="class_topological_charge.html#a8ed78c28c3484df04b1cb24187de2f5b" target="_top" xlink:title="Correlator::calculate calculates a observable.">
<polygon fill="#ffffff" stroke="#000000" points="32.7881,-.5 32.7881,-28.5 137.1768,-28.5 137.1768,-.5 32.7881,-.5"/>
<text text-anchor="start" x="40.7881" y="-16.5" font-family="Helvetica,sans-Serif" font-size="10.00" fill="#000000">TopologicalCharge::</text>
<text text-anchor="middle" x="84.9824" y="-6.5" font-family="Helvetica,sans-Serif" font-size="10.00" fill="#000000">calculate</text>
</a>
</g>
</g>
<!-- Node37&#45;&gt;Node43 -->
<g id="edge25" class="edge">
<title>Node37&#45;&gt;Node43</title>
<path fill="none" stroke="#191970" d="M273.8375,-223.8765C252.5348,-224.1408 223.713,-220.7781 205.9648,-203.5 151.8718,-150.8397 221.9747,-92.2187 169.9648,-37.5 161.3301,-28.4155 149.5078,-22.791 137.4258,-19.3419"/>
<polygon fill="#191970" stroke="#191970" points="274.0462,-227.3711 283.9012,-223.4815 273.7716,-220.3764 274.0462,-227.3711"/>
</g>
<!-- Node44&#45;&gt;Node25 -->
<g id="edge27" class="edge">
<title>Node44&#45;&gt;Node25</title>
<path fill="none" stroke="#191970" d="M230.9368,-635.5C208.6176,-635.5 183.8385,-635.5 161.1279,-635.5"/>
<polygon fill="#191970" stroke="#191970" points="231.0022,-639.0001 241.0021,-635.5 231.0021,-632.0001 231.0022,-639.0001"/>
</g>
<!-- Node44&#45;&gt;Node26 -->
<g id="edge28" class="edge">
<title>Node44&#45;&gt;Node26</title>
<path fill="none" stroke="#191970" d="M231.1317,-620.2627C201.4874,-613.8201 167.4744,-606.4281 139.7243,-600.3971"/>
<polygon fill="#191970" stroke="#191970" points="230.4869,-623.7042 241.0021,-622.4079 231.9736,-616.8639 230.4869,-623.7042"/>
</g>
<!-- Node45&#45;&gt;Node25 -->
<g id="edge30" class="edge">
<title>Node45&#45;&gt;Node25</title>
<path fill="none" stroke="#191970" d="M226.8526,-604.6672C193.2419,-611.9719 154.7975,-620.327 126.4142,-626.4956"/>
<polygon fill="#191970" stroke="#191970" points="227.6218,-608.0819 236.6504,-602.5379 226.1352,-601.2415 227.6218,-608.0819"/>
</g>
<!-- Node45&#45;&gt;Node26 -->
<g id="edge31" class="edge">
<title>Node45&#45;&gt;Node26</title>
<path fill="none" stroke="#191970" d="M215.5504,-588.5C190.0345,-588.5 162.7748,-588.5 139.7986,-588.5"/>
<polygon fill="#191970" stroke="#191970" points="215.6054,-592.0001 225.6053,-588.5 215.6053,-585.0001 215.6054,-592.0001"/>
</g>
<!-- Node47&#45;&gt;Node27 -->
<g id="edge34" class="edge">
<title>Node47&#45;&gt;Node27</title>
<path fill="none" stroke="#191970" d="M230.9093,-477.509C199.2374,-483.3671 162.6164,-490.1406 133.9834,-495.4367"/>
<polygon fill="#191970" stroke="#191970" points="231.8055,-480.9027 241.0021,-475.6422 230.5323,-474.0195 231.8055,-480.9027"/>
</g>
<!-- Node47&#45;&gt;Node30 -->
<g id="edge35" class="edge">
<title>Node47&#45;&gt;Node30</title>
<path fill="none" stroke="#191970" d="M230.7951,-462.5455C211.5039,-462.0103 190.3837,-461.4243 170.3547,-460.8686"/>
<polygon fill="#191970" stroke="#191970" points="230.9089,-466.0499 241.0021,-462.8287 231.1031,-459.0526 230.9089,-466.0499"/>
</g>
<!-- Node47&#45;&gt;Node31 -->
<g id="edge36" class="edge">
<title>Node47&#45;&gt;Node31</title>
<path fill="none" stroke="#191970" d="M240.5402,-447.6585C207.5004,-438.4918 167.093,-427.281 135.7424,-418.583"/>
<polygon fill="#191970" stroke="#191970" points="239.9675,-451.1318 250.5393,-450.4327 241.839,-444.3865 239.9675,-451.1318"/>
</g>
</g>
</svg>
