<?xml version="1.0" encoding="UTF-8" standalone="no"?>
<!DOCTYPE svg PUBLIC "-//W3C//DTD SVG 1.1//EN"
 "http://www.w3.org/Graphics/SVG/1.1/DTD/svg11.dtd">
<!-- Generated by graphviz version 2.40.1 (20161225.0304)
 -->
<!-- Title: Parameters::getUnitTestingVerbose Pages: 1 -->
<svg width="496pt" height="37pt"
 viewBox="0.00 0.00 496.25 37.00" xmlns="http://www.w3.org/2000/svg" xmlns:xlink="http://www.w3.org/1999/xlink">
<g id="graph0" class="graph" transform="scale(1 1) rotate(0) translate(4 33)">
<title>Parameters::getUnitTestingVerbose</title>
<polygon fill="#ffffff" stroke="transparent" points="-4,4 -4,-33 492.25,-33 492.25,4 -4,4"/>
<!-- Node357 -->
<g id="node1" class="node">
<title>Node357</title>
<g id="a_node1"><a xlink:title=" ">
<polygon fill="#bfbfbf" stroke="#000000" points="351.6396,-.5 351.6396,-28.5 488.25,-28.5 488.25,-.5 351.6396,-.5"/>
<text text-anchor="start" x="359.6396" y="-16.5" font-family="Helvetica,sans-Serif" font-size="10.00" fill="#000000">Parameters::getUnitTesting</text>
<text text-anchor="middle" x="419.9448" y="-6.5" font-family="Helvetica,sans-Serif" font-size="10.00" fill="#000000">Verbose</text>
</a>
</g>
</g>
<!-- Node358 -->
<g id="node2" class="node">
<title>Node358</title>
<g id="a_node2"><a xlink:href="class_test_suite.html#a0fa7e788a1b1c235faa475c0d1aaa1e3" target="_top" xlink:title=" ">
<polygon fill="#ffffff" stroke="#000000" points="181.251,-5.5 181.251,-23.5 315.6396,-23.5 315.6396,-5.5 181.251,-5.5"/>
<text text-anchor="middle" x="248.4453" y="-11.5" font-family="Helvetica,sans-Serif" font-size="10.00" fill="#000000">TestSuite::runFullTestSuite</text>
</a>
</g>
</g>
<!-- Node357&#45;&gt;Node358 -->
<g id="edge1" class="edge">
<title>Node357&#45;&gt;Node358</title>
<path fill="none" stroke="#191970" d="M340.9888,-14.5C332.5823,-14.5 324.0881,-14.5 315.8323,-14.5"/>
<polygon fill="#191970" stroke="#191970" points="341.1776,-18.0001 351.1776,-14.5 341.1776,-11.0001 341.1776,-18.0001"/>
</g>
<!-- Node359 -->
<g id="node3" class="node">
<title>Node359</title>
<g id="a_node3"><a xlink:href="test_8h.html#a91a9c7ea8af27bb3962f1207dd4cb8fd" target="_top" xlink:title="Header containing functions needed for running unit tests, integration tests and validation testing.">
<polygon fill="#ffffff" stroke="#000000" points="73.6748,-5.5 73.6748,-23.5 145.251,-23.5 145.251,-5.5 73.6748,-5.5"/>
<text text-anchor="middle" x="109.4629" y="-11.5" font-family="Helvetica,sans-Serif" font-size="10.00" fill="#000000">runUnitTests</text>
</a>
</g>
</g>
<!-- Node358&#45;&gt;Node359 -->
<g id="edge2" class="edge">
<title>Node358&#45;&gt;Node359</title>
<path fill="none" stroke="#191970" d="M170.9036,-14.5C162.0092,-14.5 153.2932,-14.5 145.3489,-14.5"/>
<polygon fill="#191970" stroke="#191970" points="170.9898,-18.0001 180.9897,-14.5 170.9897,-11.0001 170.9898,-18.0001"/>
</g>
<!-- Node360 -->
<g id="node4" class="node">
<title>Node360</title>
<g id="a_node4"><a xlink:href="main_8cpp.html#a4e6f00a867970a9eedf47b88a27b9eea" target="_top" xlink:title="main loads in configurations and initiates program according to .json specifications.">
<polygon fill="#ffffff" stroke="#000000" points="0,-5.5 0,-23.5 37.6748,-23.5 37.6748,-5.5 0,-5.5"/>
<text text-anchor="middle" x="18.8374" y="-11.5" font-family="Helvetica,sans-Serif" font-size="10.00" fill="#000000">main</text>
</a>
</g>
</g>
<!-- Node359&#45;&gt;Node360 -->
<g id="edge3" class="edge">
<title>Node359&#45;&gt;Node360</title>
<path fill="none" stroke="#191970" d="M63.4401,-14.5C54.3464,-14.5 45.2909,-14.5 37.7389,-14.5"/>
<polygon fill="#191970" stroke="#191970" points="63.6453,-18.0001 73.6453,-14.5 63.6453,-11.0001 63.6453,-18.0001"/>
</g>
</g>
</svg>
