<?xml version="1.0" encoding="UTF-8" standalone="no"?>
<!DOCTYPE svg PUBLIC "-//W3C//DTD SVG 1.1//EN"
 "http://www.w3.org/Graphics/SVG/1.1/DTD/svg11.dtd">
<!-- Generated by graphviz version 2.40.1 (20161225.0304)
 -->
<!-- Title: MasterSampler::calculate Pages: 1 -->
<svg width="478pt" height="212pt"
 viewBox="0.00 0.00 478.35 212.00" xmlns="http://www.w3.org/2000/svg" xmlns:xlink="http://www.w3.org/1999/xlink">
<g id="graph0" class="graph" transform="scale(1 1) rotate(0) translate(4 208)">
<title>MasterSampler::calculate</title>
<polygon fill="#ffffff" stroke="transparent" points="-4,4 -4,-208 474.3516,-208 474.3516,4 -4,4"/>
<!-- Node13 -->
<g id="node1" class="node">
<title>Node13</title>
<g id="a_node1"><a xlink:title="Correlator::calculate calculates a observable.">
<polygon fill="#bfbfbf" stroke="#000000" points="0,-92.5 0,-110.5 128.8223,-110.5 128.8223,-92.5 0,-92.5"/>
<text text-anchor="middle" x="64.4111" y="-98.5" font-family="Helvetica,sans-Serif" font-size="10.00" fill="#000000">MasterSampler::calculate</text>
</a>
</g>
</g>
<!-- Node14 -->
<g id="node2" class="node">
<title>Node14</title>
<g id="a_node2"><a xlink:href="lattice_8h.html#a53bbfaed8f54ee3a1db6f8049686ccdf" target="_top" xlink:title="shift copies the lattice L and shifts it in a specified lorentzVector direction DIR.">
<polygon fill="#ffffff" stroke="#000000" points="216.8804,-148.5 216.8804,-166.5 251.2202,-166.5 251.2202,-148.5 216.8804,-148.5"/>
<text text-anchor="middle" x="234.0503" y="-154.5" font-family="Helvetica,sans-Serif" font-size="10.00" fill="#000000">shift</text>
</a>
</g>
</g>
<!-- Node13&#45;&gt;Node14 -->
<g id="edge1" class="edge">
<title>Node13&#45;&gt;Node14</title>
<path fill="none" stroke="#191970" d="M86.5032,-110.6452C106.6891,-118.8126 137.4696,-130.796 164.8223,-139.5 178.505,-143.854 193.9501,-147.9469 206.7744,-151.1264"/>
<polygon fill="#191970" stroke="#191970" points="206.2908,-154.6105 216.8342,-153.5679 207.9418,-147.808 206.2908,-154.6105"/>
</g>
<!-- Node19 -->
<g id="node7" class="node">
<title>Node19</title>
<g id="a_node7"><a xlink:href="lattice_8h.html#a491004d1505561625a8915464f3c6cab" target="_top" xlink:title=" ">
<polygon fill="#ffffff" stroke="#000000" points="219.5503,-185.5 219.5503,-203.5 248.5503,-203.5 248.5503,-185.5 219.5503,-185.5"/>
<text text-anchor="middle" x="234.0503" y="-191.5" font-family="Helvetica,sans-Serif" font-size="10.00" fill="#000000">inv</text>
</a>
</g>
</g>
<!-- Node13&#45;&gt;Node19 -->
<g id="edge6" class="edge">
<title>Node13&#45;&gt;Node19</title>
<path fill="none" stroke="#191970" d="M73.8278,-110.5626C90.6904,-126.2973 127.7561,-158.6884 164.8223,-176.5 178.8653,-183.2482 195.771,-187.7053 209.3607,-190.4961"/>
<polygon fill="#191970" stroke="#191970" points="208.9559,-193.9813 219.4304,-192.3891 210.2492,-187.1018 208.9559,-193.9813"/>
</g>
<!-- Node20 -->
<g id="node8" class="node">
<title>Node20</title>
<g id="a_node8"><a xlink:href="lattice_8h.html#a8267d6f1684a10b876409efeb6f66fe9" target="_top" xlink:title=" ">
<polygon fill="#ffffff" stroke="#000000" points="193.7236,-111.5 193.7236,-129.5 274.377,-129.5 274.377,-111.5 193.7236,-111.5"/>
<text text-anchor="middle" x="234.0503" y="-117.5" font-family="Helvetica,sans-Serif" font-size="10.00" fill="#000000">sumRealTrace</text>
</a>
</g>
</g>
<!-- Node13&#45;&gt;Node20 -->
<g id="edge8" class="edge">
<title>Node13&#45;&gt;Node20</title>
<path fill="none" stroke="#191970" d="M129.0284,-108.7373C147.0175,-110.7521 166.294,-112.9111 183.3586,-114.8224"/>
<polygon fill="#191970" stroke="#191970" points="183.3392,-118.342 193.6667,-115.9769 184.1184,-111.3855 183.3392,-118.342"/>
</g>
<!-- Node21 -->
<g id="node9" class="node">
<title>Node21</title>
<g id="a_node9"><a xlink:href="lattice_8h.html#a0289122f97ef3c8e2dfc3bfaf5b8f52d" target="_top" xlink:title=" ">
<polygon fill="#ffffff" stroke="#000000" points="202.6152,-74.5 202.6152,-92.5 265.4854,-92.5 265.4854,-74.5 202.6152,-74.5"/>
<text text-anchor="middle" x="234.0503" y="-80.5" font-family="Helvetica,sans-Serif" font-size="10.00" fill="#000000">imagTrace</text>
</a>
</g>
</g>
<!-- Node13&#45;&gt;Node21 -->
<g id="edge9" class="edge">
<title>Node13&#45;&gt;Node21</title>
<path fill="none" stroke="#191970" d="M129.0284,-94.6436C150.2011,-92.397 173.157,-89.9612 192.1911,-87.9416"/>
<polygon fill="#191970" stroke="#191970" points="192.7511,-91.4019 202.3259,-86.8662 192.0124,-84.441 192.7511,-91.4019"/>
</g>
<!-- Node22 -->
<g id="node10" class="node">
<title>Node22</title>
<g id="a_node10"><a xlink:href="lattice_8h.html#aa2ccd37933994e50a9c9669725ee0e9e" target="_top" xlink:title=" ">
<polygon fill="#ffffff" stroke="#000000" points="197.1489,-37.5 197.1489,-55.5 270.9517,-55.5 270.9517,-37.5 197.1489,-37.5"/>
<text text-anchor="middle" x="234.0503" y="-43.5" font-family="Helvetica,sans-Serif" font-size="10.00" fill="#000000">subtractImag</text>
</a>
</g>
</g>
<!-- Node13&#45;&gt;Node22 -->
<g id="edge10" class="edge">
<title>Node13&#45;&gt;Node22</title>
<path fill="none" stroke="#191970" d="M88.1768,-92.3998C108.4138,-84.7907 138.3346,-73.8697 164.8223,-65.5 172.6797,-63.0172 181.0961,-60.5495 189.2588,-58.2547"/>
<polygon fill="#191970" stroke="#191970" points="190.3292,-61.5902 199.0349,-55.5519 188.4638,-54.8433 190.3292,-61.5902"/>
</g>
<!-- Node23 -->
<g id="node11" class="node">
<title>Node23</title>
<g id="a_node11"><a xlink:href="lattice_8h.html#a2a635fe0bbbaca1e8903db8d3bf61f01" target="_top" xlink:title=" ">
<polygon fill="#ffffff" stroke="#000000" points="164.8223,-.5 164.8223,-18.5 303.2783,-18.5 303.2783,-.5 164.8223,-.5"/>
<text text-anchor="middle" x="234.0503" y="-6.5" font-family="Helvetica,sans-Serif" font-size="10.00" fill="#000000">sumRealTraceMultiplication</text>
</a>
</g>
</g>
<!-- Node13&#45;&gt;Node23 -->
<g id="edge11" class="edge">
<title>Node13&#45;&gt;Node23</title>
<path fill="none" stroke="#191970" d="M74.4466,-92.2558C91.6648,-76.8673 128.5006,-45.9667 164.8223,-28.5 170.1469,-25.9394 175.8735,-23.6757 181.6705,-21.6866"/>
<polygon fill="#191970" stroke="#191970" points="182.9578,-24.9503 191.4345,-18.5945 180.8444,-18.2769 182.9578,-24.9503"/>
</g>
<!-- Node15 -->
<g id="node3" class="node">
<title>Node15</title>
<g id="a_node3"><a xlink:href="class_lattice.html#a5b4e162f06f7b4b90b4a9335ed2aabb5" target="_top" xlink:title="allocate method for allocating memory.">
<polygon fill="#ffffff" stroke="#000000" points="362.0713,-185.5 362.0713,-203.5 447.5586,-203.5 447.5586,-185.5 362.0713,-185.5"/>
<text text-anchor="middle" x="404.8149" y="-191.5" font-family="Helvetica,sans-Serif" font-size="10.00" fill="#000000">Lattice::allocate</text>
</a>
</g>
</g>
<!-- Node14&#45;&gt;Node15 -->
<g id="edge2" class="edge">
<title>Node14&#45;&gt;Node15</title>
<path fill="none" stroke="#191970" d="M251.3639,-161.2514C275.0562,-166.3848 318.5913,-175.8177 353.2549,-183.3284"/>
<polygon fill="#191970" stroke="#191970" points="352.7187,-186.7933 363.2331,-185.4904 354.2011,-179.9521 352.7187,-186.7933"/>
</g>
<!-- Node16 -->
<g id="node4" class="node">
<title>Node16</title>
<g id="a_node4"><a xlink:href="class_parallel_1_1_index.html#ac406d7ceb12e986a66d64ef98fcef5d3" target="_top" xlink:title=" ">
<polygon fill="#ffffff" stroke="#000000" points="339.2783,-148.5 339.2783,-166.5 470.3516,-166.5 470.3516,-148.5 339.2783,-148.5"/>
<text text-anchor="middle" x="404.8149" y="-154.5" font-family="Helvetica,sans-Serif" font-size="10.00" fill="#000000">Parallel::Index::cubeIndex</text>
</a>
</g>
</g>
<!-- Node14&#45;&gt;Node16 -->
<g id="edge3" class="edge">
<title>Node14&#45;&gt;Node16</title>
<path fill="none" stroke="#191970" d="M251.3639,-157.5C269.7193,-157.5 299.9848,-157.5 328.8078,-157.5"/>
<polygon fill="#191970" stroke="#191970" points="328.9208,-161.0001 338.9207,-157.5 328.9207,-154.0001 328.9208,-161.0001"/>
</g>
<!-- Node17 -->
<g id="node5" class="node">
<title>Node17</title>
<g id="a_node5"><a xlink:href="class_parallel_1_1_index.html#af31faeef1369fdc0997d1910e008bfe2" target="_top" xlink:title=" ">
<polygon fill="#ffffff" stroke="#000000" points="343.1699,-111.5 343.1699,-129.5 466.46,-129.5 466.46,-111.5 343.1699,-111.5"/>
<text text-anchor="middle" x="404.8149" y="-117.5" font-family="Helvetica,sans-Serif" font-size="10.00" fill="#000000">Parallel::Index::getIndex</text>
</a>
</g>
</g>
<!-- Node14&#45;&gt;Node17 -->
<g id="edge4" class="edge">
<title>Node14&#45;&gt;Node17</title>
<path fill="none" stroke="#191970" d="M251.3639,-153.7486C275.0562,-148.6152 318.5913,-139.1823 353.2549,-131.6716"/>
<polygon fill="#191970" stroke="#191970" points="354.2011,-135.0479 363.2331,-129.5096 352.7187,-128.2067 354.2011,-135.0479"/>
</g>
<!-- Node18 -->
<g id="node6" class="node">
<title>Node18</title>
<g id="a_node6"><a xlink:href="class_parallel_1_1_neighbours.html#a84653f3e22436280ac5a4689a24e7146" target="_top" xlink:title=" ">
<polygon fill="#ffffff" stroke="#000000" points="342.0615,-74.5 342.0615,-92.5 467.5684,-92.5 467.5684,-74.5 342.0615,-74.5"/>
<text text-anchor="middle" x="404.8149" y="-80.5" font-family="Helvetica,sans-Serif" font-size="10.00" fill="#000000">Parallel::Neighbours::get</text>
</a>
</g>
</g>
<!-- Node14&#45;&gt;Node18 -->
<g id="edge5" class="edge">
<title>Node14&#45;&gt;Node18</title>
<path fill="none" stroke="#191970" d="M251.2542,-155.6572C265.8955,-153.4954 287.0683,-148.9268 303.2783,-139.5 323.1122,-127.9658 319.6067,-114.3088 339.2783,-102.5 343.2125,-100.1383 347.4566,-98.0563 351.8266,-96.2235"/>
<polygon fill="#191970" stroke="#191970" points="353.3829,-99.3783 361.5233,-92.5971 350.9308,-92.8218 353.3829,-99.3783"/>
</g>
<!-- Node19&#45;&gt;Node15 -->
<g id="edge7" class="edge">
<title>Node19&#45;&gt;Node15</title>
<path fill="none" stroke="#191970" d="M248.6096,-194.5C271.2196,-194.5 315.8972,-194.5 351.6998,-194.5"/>
<polygon fill="#191970" stroke="#191970" points="352.0131,-198.0001 362.013,-194.5 352.013,-191.0001 352.0131,-198.0001"/>
</g>
<!-- Node24 -->
<g id="node12" class="node">
<title>Node24</title>
<g id="a_node12"><a xlink:href="functions_8h.html#a93863171e3da962b61804144857576a7" target="_top" xlink:title="traceRealMultiplication">
<polygon fill="#ffffff" stroke="#000000" points="346.5146,-.5 346.5146,-18.5 463.1152,-18.5 463.1152,-.5 346.5146,-.5"/>
<text text-anchor="middle" x="404.8149" y="-6.5" font-family="Helvetica,sans-Serif" font-size="10.00" fill="#000000">traceRealMultiplication</text>
</a>
</g>
</g>
<!-- Node23&#45;&gt;Node24 -->
<g id="edge12" class="edge">
<title>Node23&#45;&gt;Node24</title>
<path fill="none" stroke="#191970" d="M303.5068,-9.5C314.283,-9.5 325.41,-9.5 336.1681,-9.5"/>
<polygon fill="#191970" stroke="#191970" points="336.3461,-13.0001 346.346,-9.5 336.346,-6.0001 336.3461,-13.0001"/>
</g>
</g>
</svg>
