<?xml version="1.0" encoding="UTF-8" standalone="no"?>
<!DOCTYPE svg PUBLIC "-//W3C//DTD SVG 1.1//EN"
 "http://www.w3.org/Graphics/SVG/1.1/DTD/svg11.dtd">
<!-- Generated by graphviz version 2.40.1 (20161225.0304)
 -->
<!-- Title: Parallel::Neighbours::getProcessorDimensionPosition Pages: 1 -->
<svg width="597pt" height="228pt"
 viewBox="0.00 0.00 597.10 228.00" xmlns="http://www.w3.org/2000/svg" xmlns:xlink="http://www.w3.org/1999/xlink">
<g id="graph0" class="graph" transform="scale(1 1) rotate(0) translate(4 224)">
<title>Parallel::Neighbours::getProcessorDimensionPosition</title>
<polygon fill="#ffffff" stroke="transparent" points="-4,4 -4,-224 593.0967,-224 593.0967,4 -4,4"/>
<!-- Node25 -->
<g id="node1" class="node">
<title>Node25</title>
<g id="a_node1"><a xlink:title=" ">
<polygon fill="#bfbfbf" stroke="#000000" points="425.8066,-112.5 425.8066,-140.5 589.0967,-140.5 589.0967,-112.5 425.8066,-112.5"/>
<text text-anchor="start" x="433.8066" y="-128.5" font-family="Helvetica,sans-Serif" font-size="10.00" fill="#000000">Parallel::Neighbours</text>
<text text-anchor="middle" x="507.4517" y="-118.5" font-family="Helvetica,sans-Serif" font-size="10.00" fill="#000000">::getProcessorDimensionPosition</text>
</a>
</g>
</g>
<!-- Node26 -->
<g id="node2" class="node">
<title>Node26</title>
<g id="a_node2"><a xlink:href="class_i_o_1_1_field_i_o.html#a8af607f9a1d79e90d4514c36103c6601" target="_top" xlink:title="IO::FieldIO::writeFieldToFile writes a lattice of SU3 matrix objects to file.">
<polygon fill="#ffffff" stroke="#000000" points="235.1421,-201.5 235.1421,-219.5 374.5063,-219.5 374.5063,-201.5 235.1421,-201.5"/>
<text text-anchor="middle" x="304.8242" y="-207.5" font-family="Helvetica,sans-Serif" font-size="10.00" fill="#000000">IO::FieldIO::writeFieldToFile</text>
</a>
</g>
</g>
<!-- Node25&#45;&gt;Node26 -->
<g id="edge1" class="edge">
<title>Node25&#45;&gt;Node26</title>
<path fill="none" stroke="#191970" d="M478.099,-146.2844C455.008,-161.0118 421.5397,-180.556 389.8066,-192.5 380.2088,-196.1126 369.7137,-199.076 359.4753,-201.4802"/>
<polygon fill="#191970" stroke="#191970" points="480.2264,-149.0766 486.7177,-140.7032 476.4215,-143.201 480.2264,-149.0766"/>
</g>
<!-- Node27 -->
<g id="node3" class="node">
<title>Node27</title>
<g id="a_node3"><a xlink:href="class_i_o_1_1_field_i_o.html#aaf2bac2025d67c06e7c61e8cc9f44777" target="_top" xlink:title="IO::FieldIO::writeDoublesFieldToFile writes a lattice of doubles to file.">
<polygon fill="#ffffff" stroke="#000000" points="240.9722,-154.5 240.9722,-182.5 368.6763,-182.5 368.6763,-154.5 240.9722,-154.5"/>
<text text-anchor="start" x="248.9722" y="-170.5" font-family="Helvetica,sans-Serif" font-size="10.00" fill="#000000">IO::FieldIO::writeDoubles</text>
<text text-anchor="middle" x="304.8242" y="-160.5" font-family="Helvetica,sans-Serif" font-size="10.00" fill="#000000">FieldToFile</text>
</a>
</g>
</g>
<!-- Node25&#45;&gt;Node27 -->
<g id="edge2" class="edge">
<title>Node25&#45;&gt;Node27</title>
<path fill="none" stroke="#191970" d="M429.9015,-142.5744C409.696,-146.7625 388.1542,-151.2276 368.7429,-155.2511"/>
<polygon fill="#191970" stroke="#191970" points="430.6165,-146.0006 439.6979,-140.5438 429.1957,-139.1463 430.6165,-146.0006"/>
</g>
<!-- Node29 -->
<g id="node5" class="node">
<title>Node29</title>
<g id="a_node5"><a xlink:href="class_i_o_1_1_field_i_o.html#a02db864a48601edd7febaab5d655e495" target="_top" xlink:title="IO::FieldIO::loadFieldConfiguration loads a regular configuration into memory.">
<polygon fill="#ffffff" stroke="#000000" points="219.8418,-117.5 219.8418,-135.5 389.8066,-135.5 389.8066,-117.5 219.8418,-117.5"/>
<text text-anchor="middle" x="304.8242" y="-123.5" font-family="Helvetica,sans-Serif" font-size="10.00" fill="#000000">IO::FieldIO::loadFieldConfiguration</text>
</a>
</g>
</g>
<!-- Node25&#45;&gt;Node29 -->
<g id="edge4" class="edge">
<title>Node25&#45;&gt;Node29</title>
<path fill="none" stroke="#191970" d="M415.3527,-126.5C406.8875,-126.5 398.3357,-126.5 389.9365,-126.5"/>
<polygon fill="#191970" stroke="#191970" points="415.6194,-130.0001 425.6194,-126.5 415.6194,-123.0001 415.6194,-130.0001"/>
</g>
<!-- Node30 -->
<g id="node6" class="node">
<title>Node30</title>
<g id="a_node6"><a xlink:href="class_i_o_1_1_field_i_o.html#af23fb6e02a6bd1cafd5be4acacbf848e" target="_top" xlink:title="IO::FieldIO::loadChromaFieldConfiguration loads a configuration from Chroma into memory.">
<polygon fill="#ffffff" stroke="#000000" points="231.7998,-70.5 231.7998,-98.5 377.8486,-98.5 377.8486,-70.5 231.7998,-70.5"/>
<text text-anchor="start" x="239.7998" y="-86.5" font-family="Helvetica,sans-Serif" font-size="10.00" fill="#000000">IO::FieldIO::loadChromaField</text>
<text text-anchor="middle" x="304.8242" y="-76.5" font-family="Helvetica,sans-Serif" font-size="10.00" fill="#000000">Configuration</text>
</a>
</g>
</g>
<!-- Node25&#45;&gt;Node30 -->
<g id="edge5" class="edge">
<title>Node25&#45;&gt;Node30</title>
<path fill="none" stroke="#191970" d="M429.6688,-110.3774C410.831,-106.4728 390.8444,-102.33 372.5141,-98.5306"/>
<polygon fill="#191970" stroke="#191970" points="429.1957,-113.8537 439.6979,-112.4562 430.6165,-106.9994 429.1957,-113.8537"/>
</g>
<!-- Node31 -->
<g id="node7" class="node">
<title>Node31</title>
<g id="a_node7"><a xlink:href="class_parallel_1_1_communicator.html#a5d42989e7a3022de6042e3503aa35346" target="_top" xlink:title="Parallel::Communicator::reduceToTemporalDimension reduces the results to the temporal dimensions,...">
<polygon fill="#ffffff" stroke="#000000" points="229.2925,-23.5 229.2925,-51.5 380.356,-51.5 380.356,-23.5 229.2925,-23.5"/>
<text text-anchor="start" x="237.2925" y="-39.5" font-family="Helvetica,sans-Serif" font-size="10.00" fill="#000000">Parallel::Communicator</text>
<text text-anchor="middle" x="304.8242" y="-29.5" font-family="Helvetica,sans-Serif" font-size="10.00" fill="#000000">::reduceToTemporalDimension</text>
</a>
</g>
</g>
<!-- Node25&#45;&gt;Node31 -->
<g id="edge6" class="edge">
<title>Node25&#45;&gt;Node31</title>
<path fill="none" stroke="#191970" d="M476.9692,-107.1069C453.7683,-92.9857 420.6728,-74.1879 389.8066,-61.5 380.8734,-57.8279 371.1903,-54.5097 361.6674,-51.5935"/>
<polygon fill="#191970" stroke="#191970" points="475.307,-110.1937 485.657,-112.4579 478.978,-104.2335 475.307,-110.1937"/>
</g>
<!-- Node28 -->
<g id="node4" class="node">
<title>Node28</title>
<g id="a_node4"><a xlink:href="class_lattice_action_charge_density.html#a3dddc75188042c645fbdd1c8b3e80c8a" target="_top" xlink:title="Correlator::calculate calculates a observable.">
<polygon fill="#ffffff" stroke="#000000" points="22.2217,-154.5 22.2217,-182.5 161.6201,-182.5 161.6201,-154.5 22.2217,-154.5"/>
<text text-anchor="start" x="30.2217" y="-170.5" font-family="Helvetica,sans-Serif" font-size="10.00" fill="#000000">LatticeActionChargeDensity</text>
<text text-anchor="middle" x="91.9209" y="-160.5" font-family="Helvetica,sans-Serif" font-size="10.00" fill="#000000">::calculate</text>
</a>
</g>
</g>
<!-- Node27&#45;&gt;Node28 -->
<g id="edge3" class="edge">
<title>Node27&#45;&gt;Node28</title>
<path fill="none" stroke="#191970" d="M230.8085,-168.5C208.3836,-168.5 183.8354,-168.5 161.6979,-168.5"/>
<polygon fill="#191970" stroke="#191970" points="230.9462,-172.0001 240.9462,-168.5 230.9462,-165.0001 230.9462,-172.0001"/>
</g>
<!-- Node32 -->
<g id="node8" class="node">
<title>Node32</title>
<g id="a_node8"><a xlink:href="class_master_sampler_topc_x_y_z.html#a4fba4290e4406e18ef3f2904c6ae364f" target="_top" xlink:title="Correlator::writeFlowObservablesToFile.">
<polygon fill="#ffffff" stroke="#000000" points="18.623,-47.5 18.623,-75.5 165.2188,-75.5 165.2188,-47.5 18.623,-47.5"/>
<text text-anchor="start" x="26.623" y="-63.5" font-family="Helvetica,sans-Serif" font-size="10.00" fill="#000000">MasterSamplerTopcXYZ</text>
<text text-anchor="middle" x="91.9209" y="-53.5" font-family="Helvetica,sans-Serif" font-size="10.00" fill="#000000">::writeFlowObservablesToFile</text>
</a>
</g>
</g>
<!-- Node31&#45;&gt;Node32 -->
<g id="edge7" class="edge">
<title>Node31&#45;&gt;Node32</title>
<path fill="none" stroke="#191970" d="M218.8646,-47.19C201.1936,-49.182 182.7397,-51.2623 165.5512,-53.1999"/>
<polygon fill="#191970" stroke="#191970" points="219.618,-50.6273 229.163,-46.0291 218.8339,-43.6714 219.618,-50.6273"/>
</g>
<!-- Node33 -->
<g id="node9" class="node">
<title>Node33</title>
<g id="a_node9"><a xlink:href="class_super_sampler.html#a410b650ebccdb03519c88908a3a8013e" target="_top" xlink:title="Correlator::writeFlowObservablesToFile.">
<polygon fill="#ffffff" stroke="#000000" points="0,-.5 0,-28.5 183.8418,-28.5 183.8418,-.5 0,-.5"/>
<text text-anchor="start" x="8" y="-16.5" font-family="Helvetica,sans-Serif" font-size="10.00" fill="#000000">SuperSampler::writeFlowObservables</text>
<text text-anchor="middle" x="91.9209" y="-6.5" font-family="Helvetica,sans-Serif" font-size="10.00" fill="#000000">ToFile</text>
</a>
</g>
</g>
<!-- Node31&#45;&gt;Node33 -->
<g id="edge8" class="edge">
<title>Node31&#45;&gt;Node33</title>
<path fill="none" stroke="#191970" d="M219.1366,-28.2431C207.612,-26.9981 195.7495,-25.7166 184.1183,-24.4601"/>
<polygon fill="#191970" stroke="#191970" points="218.8449,-31.7319 229.163,-29.3263 219.5968,-24.7724 218.8449,-31.7319"/>
</g>
</g>
</svg>
