<?xml version="1.0" encoding="UTF-8" standalone="no"?>
<!DOCTYPE svg PUBLIC "-//W3C//DTD SVG 1.1//EN"
 "http://www.w3.org/Graphics/SVG/1.1/DTD/svg11.dtd">
<!-- Generated by graphviz version 2.40.1 (20161225.0304)
 -->
<!-- Title: Parameters::getInputFolder Pages: 1 -->
<svg width="352pt" height="74pt"
 viewBox="0.00 0.00 351.69 74.00" xmlns="http://www.w3.org/2000/svg" xmlns:xlink="http://www.w3.org/1999/xlink">
<g id="graph0" class="graph" transform="scale(1 1) rotate(0) translate(4 70)">
<title>Parameters::getInputFolder</title>
<polygon fill="#ffffff" stroke="transparent" points="-4,4 -4,-70 347.6934,-70 347.6934,4 -4,4"/>
<!-- Node124 -->
<g id="node1" class="node">
<title>Node124</title>
<g id="a_node1"><a xlink:title=" ">
<polygon fill="#bfbfbf" stroke="#000000" points="205.9648,-26.5 205.9648,-44.5 343.6934,-44.5 343.6934,-26.5 205.9648,-26.5"/>
<text text-anchor="middle" x="274.8291" y="-32.5" font-family="Helvetica,sans-Serif" font-size="10.00" fill="#000000">Parameters::getInputFolder</text>
</a>
</g>
</g>
<!-- Node125 -->
<g id="node2" class="node">
<title>Node125</title>
<g id="a_node2"><a xlink:href="class_i_o_1_1_field_i_o.html#a02db864a48601edd7febaab5d655e495" target="_top" xlink:title="IO::FieldIO::loadFieldConfiguration loads a regular configuration into memory.">
<polygon fill="#ffffff" stroke="#000000" points="0,-47.5 0,-65.5 169.9648,-65.5 169.9648,-47.5 0,-47.5"/>
<text text-anchor="middle" x="84.9824" y="-53.5" font-family="Helvetica,sans-Serif" font-size="10.00" fill="#000000">IO::FieldIO::loadFieldConfiguration</text>
</a>
</g>
</g>
<!-- Node124&#45;&gt;Node125 -->
<g id="edge1" class="edge">
<title>Node124&#45;&gt;Node125</title>
<path fill="none" stroke="#191970" d="M195.7968,-44.2422C186.1478,-45.3095 176.2734,-46.4018 166.5877,-47.4732"/>
<polygon fill="#191970" stroke="#191970" points="196.1985,-47.7192 205.7531,-43.1409 195.4288,-40.7616 196.1985,-47.7192"/>
</g>
<!-- Node126 -->
<g id="node3" class="node">
<title>Node126</title>
<g id="a_node3"><a xlink:href="class_i_o_1_1_field_i_o.html#af23fb6e02a6bd1cafd5be4acacbf848e" target="_top" xlink:title="IO::FieldIO::loadChromaFieldConfiguration loads a configuration from Chroma into memory.">
<polygon fill="#ffffff" stroke="#000000" points="11.958,-.5 11.958,-28.5 158.0068,-28.5 158.0068,-.5 11.958,-.5"/>
<text text-anchor="start" x="19.958" y="-16.5" font-family="Helvetica,sans-Serif" font-size="10.00" fill="#000000">IO::FieldIO::loadChromaField</text>
<text text-anchor="middle" x="84.9824" y="-6.5" font-family="Helvetica,sans-Serif" font-size="10.00" fill="#000000">Configuration</text>
</a>
</g>
</g>
<!-- Node124&#45;&gt;Node126 -->
<g id="edge2" class="edge">
<title>Node124&#45;&gt;Node126</title>
<path fill="none" stroke="#191970" d="M195.4717,-26.7218C183.1078,-25.3542 170.3817,-23.9465 158.1636,-22.595"/>
<polygon fill="#191970" stroke="#191970" points="195.4288,-30.2384 205.7531,-27.8591 196.1985,-23.2808 195.4288,-30.2384"/>
</g>
</g>
</svg>
