<?xml version="1.0" encoding="UTF-8" standalone="no"?>
<!DOCTYPE svg PUBLIC "-//W3C//DTD SVG 1.1//EN"
 "http://www.w3.org/Graphics/SVG/1.1/DTD/svg11.dtd">
<!-- Generated by graphviz version 2.40.1 (20161225.0304)
 -->
<!-- Title: Parameters::setNRandTests Pages: 1 -->
<svg width="359pt" height="27pt"
 viewBox="0.00 0.00 359.23 27.00" xmlns="http://www.w3.org/2000/svg" xmlns:xlink="http://www.w3.org/1999/xlink">
<g id="graph0" class="graph" transform="scale(1 1) rotate(0) translate(4 23)">
<title>Parameters::setNRandTests</title>
<polygon fill="#ffffff" stroke="transparent" points="-4,4 -4,-23 355.2305,-23 355.2305,4 -4,4"/>
<!-- Node465 -->
<g id="node1" class="node">
<title>Node465</title>
<g id="a_node1"><a xlink:title=" ">
<polygon fill="#bfbfbf" stroke="#000000" points="210.1816,-.5 210.1816,-18.5 351.2305,-18.5 351.2305,-.5 210.1816,-.5"/>
<text text-anchor="middle" x="280.7061" y="-6.5" font-family="Helvetica,sans-Serif" font-size="10.00" fill="#000000">Parameters::setNRandTests</text>
</a>
</g>
</g>
<!-- Node466 -->
<g id="node2" class="node">
<title>Node466</title>
<g id="a_node2"><a xlink:href="namespace_config_loader.html#a26cf01adba9411ef1fa006d5068d7cc4" target="_top" xlink:title=" ">
<polygon fill="#ffffff" stroke="#000000" points="73.6748,-.5 73.6748,-18.5 174.1816,-18.5 174.1816,-.5 73.6748,-.5"/>
<text text-anchor="middle" x="123.9282" y="-6.5" font-family="Helvetica,sans-Serif" font-size="10.00" fill="#000000">ConfigLoader::load</text>
</a>
</g>
</g>
<!-- Node465&#45;&gt;Node466 -->
<g id="edge1" class="edge">
<title>Node465&#45;&gt;Node466</title>
<path fill="none" stroke="#191970" d="M199.9315,-9.5C191.2512,-9.5 182.6098,-9.5 174.4339,-9.5"/>
<polygon fill="#191970" stroke="#191970" points="200.114,-13.0001 210.1139,-9.5 200.1139,-6.0001 200.114,-13.0001"/>
</g>
<!-- Node467 -->
<g id="node3" class="node">
<title>Node467</title>
<g id="a_node3"><a xlink:href="main_8cpp.html#a4e6f00a867970a9eedf47b88a27b9eea" target="_top" xlink:title=" ">
<polygon fill="#ffffff" stroke="#000000" points="0,-.5 0,-18.5 37.6748,-18.5 37.6748,-.5 0,-.5"/>
<text text-anchor="middle" x="18.8374" y="-6.5" font-family="Helvetica,sans-Serif" font-size="10.00" fill="#000000">main</text>
</a>
</g>
</g>
<!-- Node466&#45;&gt;Node467 -->
<g id="edge2" class="edge">
<title>Node466&#45;&gt;Node467</title>
<path fill="none" stroke="#191970" d="M63.4826,-9.5C54.2852,-9.5 45.4183,-9.5 38.0439,-9.5"/>
<polygon fill="#191970" stroke="#191970" points="63.5375,-13.0001 73.5375,-9.5 63.5374,-6.0001 63.5375,-13.0001"/>
</g>
</g>
</svg>
