<?xml version="1.0" encoding="UTF-8" standalone="no"?>
<!DOCTYPE svg PUBLIC "-//W3C//DTD SVG 1.1//EN"
 "http://www.w3.org/Graphics/SVG/1.1/DTD/svg11.dtd">
<!-- Generated by graphviz version 2.40.1 (20161225.0304)
 -->
<!-- Title: MasterSampler::writeObservableToFile Pages: 1 -->
<svg width="731pt" height="296pt"
 viewBox="0.00 0.00 731.33 296.00" xmlns="http://www.w3.org/2000/svg" xmlns:xlink="http://www.w3.org/1999/xlink">
<g id="graph0" class="graph" transform="scale(1 1) rotate(0) translate(4 292)">
<title>MasterSampler::writeObservableToFile</title>
<polygon fill="#ffffff" stroke="transparent" points="-4,4 -4,-292 727.3281,-292 727.3281,4 -4,4"/>
<!-- Node74 -->
<g id="node1" class="node">
<title>Node74</title>
<g id="a_node1"><a xlink:title=" ">
<polygon fill="#bfbfbf" stroke="#000000" points="0,-124.5 0,-152.5 161.6055,-152.5 161.6055,-124.5 0,-124.5"/>
<text text-anchor="start" x="8" y="-140.5" font-family="Helvetica,sans-Serif" font-size="10.00" fill="#000000">MasterSampler::writeObservable</text>
<text text-anchor="middle" x="80.8027" y="-130.5" font-family="Helvetica,sans-Serif" font-size="10.00" fill="#000000">ToFile</text>
</a>
</g>
</g>
<!-- Node75 -->
<g id="node2" class="node">
<title>Node75</title>
<g id="a_node2"><a xlink:href="class_observable_storer.html#a146f9acb8a0a2ce15782d26bdc4f0bf9" target="_top" xlink:title=" ">
<polygon fill="#ffffff" stroke="#000000" points="197.6055,-124.5 197.6055,-152.5 369.7822,-152.5 369.7822,-124.5 197.6055,-124.5"/>
<text text-anchor="start" x="205.6055" y="-140.5" font-family="Helvetica,sans-Serif" font-size="10.00" fill="#000000">ObservableStorer::writeObservable</text>
<text text-anchor="middle" x="283.6938" y="-130.5" font-family="Helvetica,sans-Serif" font-size="10.00" fill="#000000">ToFile</text>
</a>
</g>
</g>
<!-- Node74&#45;&gt;Node75 -->
<g id="edge1" class="edge">
<title>Node74&#45;&gt;Node75</title>
<path fill="none" stroke="#191970" d="M161.8654,-138.5C170.2747,-138.5 178.879,-138.5 187.434,-138.5"/>
<polygon fill="#191970" stroke="#191970" points="187.4395,-142.0001 197.4395,-138.5 187.4394,-135.0001 187.4395,-142.0001"/>
</g>
<!-- Node76 -->
<g id="node3" class="node">
<title>Node76</title>
<g id="a_node3"><a xlink:href="namespace_i_o.html#ad8cf5aef8f60d10b80292b69a091d5ac" target="_top" xlink:title=" ">
<polygon fill="#ffffff" stroke="#000000" points="405.7822,-129.5 405.7822,-147.5 541.8213,-147.5 541.8213,-129.5 405.7822,-129.5"/>
<text text-anchor="middle" x="473.8018" y="-135.5" font-family="Helvetica,sans-Serif" font-size="10.00" fill="#000000">IO::writeObservablesToFile</text>
</a>
</g>
</g>
<!-- Node75&#45;&gt;Node76 -->
<g id="edge2" class="edge">
<title>Node75&#45;&gt;Node76</title>
<path fill="none" stroke="#191970" d="M369.8481,-138.5C378.3691,-138.5 386.9863,-138.5 395.4227,-138.5"/>
<polygon fill="#191970" stroke="#191970" points="395.6048,-142.0001 405.6048,-138.5 395.6048,-135.0001 395.6048,-142.0001"/>
</g>
<!-- Node77 -->
<g id="node4" class="node">
<title>Node77</title>
<g id="a_node4"><a xlink:href="class_parallel_1_1_communicator.html#a474ab433da0e83ef372d74e26a7e5cb0" target="_top" xlink:title=" ">
<polygon fill="#ffffff" stroke="#000000" points="590.6118,-259.5 590.6118,-287.5 710.5376,-287.5 710.5376,-259.5 590.6118,-259.5"/>
<text text-anchor="start" x="598.6118" y="-275.5" font-family="Helvetica,sans-Serif" font-size="10.00" fill="#000000">Parallel::Communicator</text>
<text text-anchor="middle" x="650.5747" y="-265.5" font-family="Helvetica,sans-Serif" font-size="10.00" fill="#000000">::getProcessRank</text>
</a>
</g>
</g>
<!-- Node76&#45;&gt;Node77 -->
<g id="edge3" class="edge">
<title>Node76&#45;&gt;Node77</title>
<path fill="none" stroke="#191970" d="M479.6879,-147.5212C493.9478,-168.6726 532.5261,-221.8327 577.8213,-250.5 580.4238,-252.1471 583.1536,-253.6847 585.9663,-255.1192"/>
<polygon fill="#191970" stroke="#191970" points="584.6287,-258.3564 595.1761,-259.3571 587.5548,-251.9974 584.6287,-258.3564"/>
</g>
<!-- Node78 -->
<g id="node5" class="node">
<title>Node78</title>
<g id="a_node5"><a xlink:href="class_parameters.html#abace4edb8ece38841b58c5ce6168cbc4" target="_top" xlink:title=" ">
<polygon fill="#ffffff" stroke="#000000" points="588.6611,-222.5 588.6611,-240.5 712.4883,-240.5 712.4883,-222.5 588.6611,-222.5"/>
<text text-anchor="middle" x="650.5747" y="-228.5" font-family="Helvetica,sans-Serif" font-size="10.00" fill="#000000">Parameters::getFilePath</text>
</a>
</g>
</g>
<!-- Node76&#45;&gt;Node78 -->
<g id="edge4" class="edge">
<title>Node76&#45;&gt;Node78</title>
<path fill="none" stroke="#191970" d="M483.6008,-147.5898C501.1376,-163.3665 539.6373,-195.8206 577.8213,-213.5 582.5701,-215.6987 587.6225,-217.6509 592.7658,-219.3796"/>
<polygon fill="#191970" stroke="#191970" points="592.1261,-222.8445 602.713,-222.4349 594.1815,-216.153 592.1261,-222.8445"/>
</g>
<!-- Node79 -->
<g id="node6" class="node">
<title>Node79</title>
<g id="a_node6"><a xlink:href="class_parameters.html#afa4cfe5dc4302b1e8f8928606ea9b056" target="_top" xlink:title=" ">
<polygon fill="#ffffff" stroke="#000000" points="577.8213,-185.5 577.8213,-203.5 723.3281,-203.5 723.3281,-185.5 577.8213,-185.5"/>
<text text-anchor="middle" x="650.5747" y="-191.5" font-family="Helvetica,sans-Serif" font-size="10.00" fill="#000000">Parameters::getOutputFolder</text>
</a>
</g>
</g>
<!-- Node76&#45;&gt;Node79 -->
<g id="edge5" class="edge">
<title>Node76&#45;&gt;Node79</title>
<path fill="none" stroke="#191970" d="M496.2903,-147.5129C517.1993,-155.7014 549.3201,-167.7959 577.8213,-176.5 585.2587,-178.7713 593.1887,-180.9632 600.976,-182.9889"/>
<polygon fill="#191970" stroke="#191970" points="600.1622,-186.3932 610.7158,-185.4594 601.8833,-179.6081 600.1622,-186.3932"/>
</g>
<!-- Node80 -->
<g id="node7" class="node">
<title>Node80</title>
<g id="a_node7"><a xlink:href="class_parameters.html#a181a773d23fdb19d0c4f35e6cf2d5649" target="_top" xlink:title=" ">
<polygon fill="#ffffff" stroke="#000000" points="580.8804,-148.5 580.8804,-166.5 720.269,-166.5 720.269,-148.5 580.8804,-148.5"/>
<text text-anchor="middle" x="650.5747" y="-154.5" font-family="Helvetica,sans-Serif" font-size="10.00" fill="#000000">Parameters::getBatchName</text>
</a>
</g>
</g>
<!-- Node76&#45;&gt;Node80 -->
<g id="edge6" class="edge">
<title>Node76&#45;&gt;Node80</title>
<path fill="none" stroke="#191970" d="M541.8939,-145.8187C551.3503,-146.8351 561.1343,-147.8867 570.7805,-148.9235"/>
<polygon fill="#191970" stroke="#191970" points="570.4466,-152.4077 580.7634,-149.9965 571.1947,-145.4478 570.4466,-152.4077"/>
</g>
<!-- Node81 -->
<g id="node8" class="node">
<title>Node81</title>
<g id="a_node8"><a xlink:href="class_parameters.html#ae5c64523dc50dca13b417fe3d9e4175c" target="_top" xlink:title=" ">
<polygon fill="#ffffff" stroke="#000000" points="596.7178,-111.5 596.7178,-129.5 704.4316,-129.5 704.4316,-111.5 596.7178,-111.5"/>
<text text-anchor="middle" x="650.5747" y="-117.5" font-family="Helvetica,sans-Serif" font-size="10.00" fill="#000000">Parameters::getBeta</text>
</a>
</g>
</g>
<!-- Node76&#45;&gt;Node81 -->
<g id="edge7" class="edge">
<title>Node76&#45;&gt;Node81</title>
<path fill="none" stroke="#191970" d="M541.8939,-131.5665C556.4512,-130.0842 571.7848,-128.5228 586.1969,-127.0553"/>
<polygon fill="#191970" stroke="#191970" points="586.9101,-130.5009 596.5041,-126.0058 586.2009,-123.5369 586.9101,-130.5009"/>
</g>
<!-- Node82 -->
<g id="node9" class="node">
<title>Node82</title>
<g id="a_node9"><a xlink:href="class_parameters.html#a0fd902d5efcd8dce17dbc3ea4177820d" target="_top" xlink:title=" ">
<polygon fill="#ffffff" stroke="#000000" points="595.3359,-74.5 595.3359,-92.5 705.8135,-92.5 705.8135,-74.5 595.3359,-74.5"/>
<text text-anchor="middle" x="650.5747" y="-80.5" font-family="Helvetica,sans-Serif" font-size="10.00" fill="#000000">Parameters::getNCor</text>
</a>
</g>
</g>
<!-- Node76&#45;&gt;Node82 -->
<g id="edge8" class="edge">
<title>Node76&#45;&gt;Node82</title>
<path fill="none" stroke="#191970" d="M498.4252,-129.3719C519.3917,-121.7457 550.389,-110.8153 577.8213,-102.5 586.2629,-99.9412 595.3168,-97.4094 604.0717,-95.0688"/>
<polygon fill="#191970" stroke="#191970" points="604.9993,-98.4439 613.7806,-92.516 603.2193,-91.674 604.9993,-98.4439"/>
</g>
<!-- Node83 -->
<g id="node10" class="node">
<title>Node83</title>
<g id="a_node10"><a xlink:href="class_parameters.html#a03f8c0aa2a31b9bfc016441cb263082c" target="_top" xlink:title=" ">
<polygon fill="#ffffff" stroke="#000000" points="598.3926,-37.5 598.3926,-55.5 702.7568,-55.5 702.7568,-37.5 598.3926,-37.5"/>
<text text-anchor="middle" x="650.5747" y="-43.5" font-family="Helvetica,sans-Serif" font-size="10.00" fill="#000000">Parameters::getNCf</text>
</a>
</g>
</g>
<!-- Node76&#45;&gt;Node83 -->
<g id="edge9" class="edge">
<title>Node76&#45;&gt;Node83</title>
<path fill="none" stroke="#191970" d="M483.9539,-129.4737C501.7281,-114.1288 540.184,-82.9296 577.8213,-65.5 583.4962,-62.872 589.5949,-60.5622 595.7601,-58.5435"/>
<polygon fill="#191970" stroke="#191970" points="596.8962,-61.8565 605.4517,-55.6072 594.8664,-55.1573 596.8962,-61.8565"/>
</g>
<!-- Node84 -->
<g id="node11" class="node">
<title>Node84</title>
<g id="a_node11"><a xlink:href="class_parameters.html#ad1f56cc1bb6c19f40454b30a5bc82da6" target="_top" xlink:title=" ">
<polygon fill="#ffffff" stroke="#000000" points="588.9468,-.5 588.9468,-18.5 712.2026,-18.5 712.2026,-.5 588.9468,-.5"/>
<text text-anchor="middle" x="650.5747" y="-6.5" font-family="Helvetica,sans-Serif" font-size="10.00" fill="#000000">Parameters::getNTherm</text>
</a>
</g>
</g>
<!-- Node76&#45;&gt;Node84 -->
<g id="edge10" class="edge">
<title>Node76&#45;&gt;Node84</title>
<path fill="none" stroke="#191970" d="M479.6352,-129.4912C493.781,-108.3962 532.1307,-55.5412 577.8213,-28.5 581.9569,-26.0524 586.4076,-23.9158 590.9971,-22.0515"/>
<polygon fill="#191970" stroke="#191970" points="592.3428,-25.2867 600.5564,-18.5944 589.9621,-18.704 592.3428,-25.2867"/>
</g>
</g>
</svg>
