<?xml version="1.0" encoding="UTF-8" standalone="no"?>
<!DOCTYPE svg PUBLIC "-//W3C//DTD SVG 1.1//EN"
 "http://www.w3.org/Graphics/SVG/1.1/DTD/svg11.dtd">
<!-- Generated by graphviz version 2.40.1 (20161225.0304)
 -->
<!-- Title: ObservableStorer::getObservableName Pages: 1 -->
<svg width="419pt" height="299pt"
 viewBox="0.00 0.00 419.48 299.00" xmlns="http://www.w3.org/2000/svg" xmlns:xlink="http://www.w3.org/1999/xlink">
<g id="graph0" class="graph" transform="scale(1 1) rotate(0) translate(4 295)">
<title>ObservableStorer::getObservableName</title>
<polygon fill="#ffffff" stroke="transparent" points="-4,4 -4,-295 415.4814,-295 415.4814,4 -4,4"/>
<!-- Node29 -->
<g id="node1" class="node">
<title>Node29</title>
<g id="a_node1"><a xlink:title=" ">
<polygon fill="#bfbfbf" stroke="#000000" points="219.8418,-136.5 219.8418,-154.5 411.4814,-154.5 411.4814,-136.5 219.8418,-136.5"/>
<text text-anchor="middle" x="315.6616" y="-142.5" font-family="Helvetica,sans-Serif" font-size="10.00" fill="#000000">ObservableStorer::getObservableName</text>
</a>
</g>
</g>
<!-- Node30 -->
<g id="node2" class="node">
<title>Node30</title>
<g id="a_node2"><a xlink:href="class_lattice_action_charge_density.html#a2a7a806862f23975161316a37f47f22e" target="_top" xlink:title=" ">
<polygon fill="#ffffff" stroke="#000000" points="22.2217,-262.5 22.2217,-290.5 161.6201,-290.5 161.6201,-262.5 22.2217,-262.5"/>
<text text-anchor="start" x="30.2217" y="-278.5" font-family="Helvetica,sans-Serif" font-size="10.00" fill="#000000">LatticeActionChargeDensity</text>
<text text-anchor="middle" x="91.9209" y="-268.5" font-family="Helvetica,sans-Serif" font-size="10.00" fill="#000000">::printHeader</text>
</a>
</g>
</g>
<!-- Node29&#45;&gt;Node30 -->
<g id="edge1" class="edge">
<title>Node29&#45;&gt;Node30</title>
<path fill="none" stroke="#191970" d="M300.21,-162.1592C277.161,-186.0019 231.3698,-229.6086 183.8418,-253.5 176.9338,-256.9725 169.4639,-259.9453 161.8714,-262.4846"/>
<polygon fill="#191970" stroke="#191970" points="303.0281,-164.2746 307.3798,-154.6147 297.9539,-159.4524 303.0281,-164.2746"/>
</g>
<!-- Node31 -->
<g id="node3" class="node">
<title>Node31</title>
<g id="a_node3"><a xlink:href="class_lattice_action_charge_density.html#a3dddc75188042c645fbdd1c8b3e80c8a" target="_top" xlink:title=" ">
<polygon fill="#ffffff" stroke="#000000" points="22.2217,-215.5 22.2217,-243.5 161.6201,-243.5 161.6201,-215.5 22.2217,-215.5"/>
<text text-anchor="start" x="30.2217" y="-231.5" font-family="Helvetica,sans-Serif" font-size="10.00" fill="#000000">LatticeActionChargeDensity</text>
<text text-anchor="middle" x="91.9209" y="-221.5" font-family="Helvetica,sans-Serif" font-size="10.00" fill="#000000">::calculate</text>
</a>
</g>
</g>
<!-- Node29&#45;&gt;Node31 -->
<g id="edge2" class="edge">
<title>Node29&#45;&gt;Node31</title>
<path fill="none" stroke="#191970" d="M289.7201,-159.2819C263.5658,-172.7484 221.7512,-193.1201 183.8418,-206.5 174.5342,-209.785 164.5402,-212.7937 154.6928,-215.475"/>
<polygon fill="#191970" stroke="#191970" points="291.3536,-162.3775 298.6112,-154.6587 288.1242,-156.1669 291.3536,-162.3775"/>
</g>
<!-- Node32 -->
<g id="node4" class="node">
<title>Node32</title>
<g id="a_node4"><a xlink:href="class_master_sampler.html#a51b207672764c100e1ae258fd2e33fcf" target="_top" xlink:title=" ">
<polygon fill="#ffffff" stroke="#000000" points="21.1182,-178.5 21.1182,-196.5 162.7236,-196.5 162.7236,-178.5 21.1182,-178.5"/>
<text text-anchor="middle" x="91.9209" y="-184.5" font-family="Helvetica,sans-Serif" font-size="10.00" fill="#000000">MasterSampler::printHeader</text>
</a>
</g>
</g>
<!-- Node29&#45;&gt;Node32 -->
<g id="edge3" class="edge">
<title>Node29&#45;&gt;Node32</title>
<path fill="none" stroke="#191970" d="M257.6614,-156.3876C221.1905,-163.2339 174.6856,-171.9636 140.225,-178.4325"/>
<polygon fill="#191970" stroke="#191970" points="258.481,-159.795 267.6636,-154.5101 257.1895,-152.9152 258.481,-159.795"/>
</g>
<!-- Node33 -->
<g id="node5" class="node">
<title>Node33</title>
<g id="a_node5"><a xlink:href="class_master_sampler_topc_x_y_z.html#a4fba4290e4406e18ef3f2904c6ae364f" target="_top" xlink:title=" ">
<polygon fill="#ffffff" stroke="#000000" points="18.623,-131.5 18.623,-159.5 165.2188,-159.5 165.2188,-131.5 18.623,-131.5"/>
<text text-anchor="start" x="26.623" y="-147.5" font-family="Helvetica,sans-Serif" font-size="10.00" fill="#000000">MasterSamplerTopcXYZ</text>
<text text-anchor="middle" x="91.9209" y="-137.5" font-family="Helvetica,sans-Serif" font-size="10.00" fill="#000000">::writeFlowObservablesToFile</text>
</a>
</g>
</g>
<!-- Node29&#45;&gt;Node33 -->
<g id="edge4" class="edge">
<title>Node29&#45;&gt;Node33</title>
<path fill="none" stroke="#191970" d="M209.4793,-145.5C194.5185,-145.5 179.4218,-145.5 165.2631,-145.5"/>
<polygon fill="#191970" stroke="#191970" points="209.8018,-149.0001 219.8017,-145.5 209.8017,-142.0001 209.8018,-149.0001"/>
</g>
<!-- Node34 -->
<g id="node6" class="node">
<title>Node34</title>
<g id="a_node6"><a xlink:href="class_master_sampler_topc_x_y_z.html#a630a504ecbf3ceb517ebeefb39c3faff" target="_top" xlink:title=" ">
<polygon fill="#ffffff" stroke="#000000" points="29.7363,-84.5 29.7363,-112.5 154.1055,-112.5 154.1055,-84.5 29.7363,-84.5"/>
<text text-anchor="start" x="37.7363" y="-100.5" font-family="Helvetica,sans-Serif" font-size="10.00" fill="#000000">MasterSamplerTopcXYZ</text>
<text text-anchor="middle" x="91.9209" y="-90.5" font-family="Helvetica,sans-Serif" font-size="10.00" fill="#000000">::printHeader</text>
</a>
</g>
</g>
<!-- Node29&#45;&gt;Node34 -->
<g id="edge5" class="edge">
<title>Node29&#45;&gt;Node34</title>
<path fill="none" stroke="#191970" d="M262.989,-134.4354C230.3818,-127.5857 188.3499,-118.7563 154.1099,-111.5637"/>
<polygon fill="#191970" stroke="#191970" points="262.2809,-137.8629 272.7869,-136.4935 263.72,-131.0124 262.2809,-137.8629"/>
</g>
<!-- Node35 -->
<g id="node7" class="node">
<title>Node35</title>
<g id="a_node7"><a xlink:href="class_super_sampler.html#a410b650ebccdb03519c88908a3a8013e" target="_top" xlink:title=" ">
<polygon fill="#ffffff" stroke="#000000" points="0,-37.5 0,-65.5 183.8418,-65.5 183.8418,-37.5 0,-37.5"/>
<text text-anchor="start" x="8" y="-53.5" font-family="Helvetica,sans-Serif" font-size="10.00" fill="#000000">SuperSampler::writeFlowObservables</text>
<text text-anchor="middle" x="91.9209" y="-43.5" font-family="Helvetica,sans-Serif" font-size="10.00" fill="#000000">ToFile</text>
</a>
</g>
</g>
<!-- Node29&#45;&gt;Node35 -->
<g id="edge6" class="edge">
<title>Node29&#45;&gt;Node35</title>
<path fill="none" stroke="#191970" d="M292.5242,-131.0745C266.799,-115.5516 223.6191,-91.0095 183.8418,-75.5 174.3144,-71.7852 164.0103,-68.4621 153.8645,-65.5587"/>
<polygon fill="#191970" stroke="#191970" points="290.8141,-134.1311 301.1735,-136.352 294.4601,-128.1556 290.8141,-134.1311"/>
</g>
<!-- Node36 -->
<g id="node8" class="node">
<title>Node36</title>
<g id="a_node8"><a xlink:href="class_super_sampler.html#a9bedfcc40a22c48378a6ed63f64e6957" target="_top" xlink:title=" ">
<polygon fill="#ffffff" stroke="#000000" points="23.0566,-.5 23.0566,-18.5 160.7852,-18.5 160.7852,-.5 23.0566,-.5"/>
<text text-anchor="middle" x="91.9209" y="-6.5" font-family="Helvetica,sans-Serif" font-size="10.00" fill="#000000">SuperSampler::printHeader</text>
</a>
</g>
</g>
<!-- Node29&#45;&gt;Node36 -->
<g id="edge7" class="edge">
<title>Node29&#45;&gt;Node36</title>
<path fill="none" stroke="#191970" d="M301.9304,-128.6277C279.8898,-102.7549 233.9737,-53.6425 183.8418,-28.5 175.5389,-24.3359 166.3763,-21.0841 157.1485,-18.5449"/>
<polygon fill="#191970" stroke="#191970" points="299.3632,-131.0139 308.4613,-136.4429 304.7345,-126.5251 299.3632,-131.0139"/>
</g>
</g>
</svg>
