<?xml version="1.0" encoding="UTF-8" standalone="no"?>
<!DOCTYPE svg PUBLIC "-//W3C//DTD SVG 1.1//EN"
 "http://www.w3.org/Graphics/SVG/1.1/DTD/svg11.dtd">
<!-- Generated by graphviz version 2.40.1 (20161225.0304)
 -->
<!-- Title: ObservableStorer::getObservable Pages: 1 -->
<svg width="369pt" height="158pt"
 viewBox="0.00 0.00 368.91 158.00" xmlns="http://www.w3.org/2000/svg" xmlns:xlink="http://www.w3.org/1999/xlink">
<g id="graph0" class="graph" transform="scale(1 1) rotate(0) translate(4 154)">
<title>ObservableStorer::getObservable</title>
<polygon fill="#ffffff" stroke="transparent" points="-4,4 -4,-154 364.9102,-154 364.9102,4 -4,4"/>
<!-- Node19 -->
<g id="node1" class="node">
<title>Node19</title>
<g id="a_node1"><a xlink:title=" ">
<polygon fill="#bfbfbf" stroke="#000000" points="195.9453,-63.5 195.9453,-81.5 360.9102,-81.5 360.9102,-63.5 195.9453,-63.5"/>
<text text-anchor="middle" x="278.4277" y="-69.5" font-family="Helvetica,sans-Serif" font-size="10.00" fill="#000000">ObservableStorer::getObservable</text>
</a>
</g>
</g>
<!-- Node20 -->
<g id="node2" class="node">
<title>Node20</title>
<g id="a_node2"><a xlink:href="class_lattice_action_charge_density.html#abb7db718d4069faab0ed19f31aa85ad4" target="_top" xlink:title="Correlator::printObservable prints the observable for the output.">
<polygon fill="#ffffff" stroke="#000000" points="10.2734,-121.5 10.2734,-149.5 149.6719,-149.5 149.6719,-121.5 10.2734,-121.5"/>
<text text-anchor="start" x="18.2734" y="-137.5" font-family="Helvetica,sans-Serif" font-size="10.00" fill="#000000">LatticeActionChargeDensity</text>
<text text-anchor="middle" x="79.9727" y="-127.5" font-family="Helvetica,sans-Serif" font-size="10.00" fill="#000000">::printObservable</text>
</a>
</g>
</g>
<!-- Node19&#45;&gt;Node20 -->
<g id="edge1" class="edge">
<title>Node19&#45;&gt;Node20</title>
<path fill="none" stroke="#191970" d="M243.1161,-84.8907C219.6309,-93.0155 188.0504,-103.7193 159.9453,-112.5 150.2926,-115.5157 139.9393,-118.6019 129.9903,-121.4945"/>
<polygon fill="#191970" stroke="#191970" points="244.3531,-88.1663 252.6518,-81.5797 242.057,-81.5535 244.3531,-88.1663"/>
</g>
<!-- Node21 -->
<g id="node3" class="node">
<title>Node21</title>
<g id="a_node3"><a xlink:href="class_master_sampler.html#a41853c3e4ab52fca7d93cf80e8702b7a" target="_top" xlink:title="Correlator::printObservable prints the observable for the output.">
<polygon fill="#ffffff" stroke="#000000" points="0,-84.5 0,-102.5 159.9453,-102.5 159.9453,-84.5 0,-84.5"/>
<text text-anchor="middle" x="79.9727" y="-90.5" font-family="Helvetica,sans-Serif" font-size="10.00" fill="#000000">MasterSampler::printObservable</text>
</a>
</g>
</g>
<!-- Node19&#45;&gt;Node21 -->
<g id="edge2" class="edge">
<title>Node19&#45;&gt;Node21</title>
<path fill="none" stroke="#191970" d="M185.6805,-82.3143C177.1052,-83.2217 168.465,-84.136 160.0177,-85.0298"/>
<polygon fill="#191970" stroke="#191970" points="186.1258,-85.7868 195.702,-81.2538 185.3891,-78.8256 186.1258,-85.7868"/>
</g>
<!-- Node22 -->
<g id="node4" class="node">
<title>Node22</title>
<g id="a_node4"><a xlink:href="class_master_sampler_topc_x_y_z.html#ab2312c9e9dc1e9deeb5bce36784372ac" target="_top" xlink:title="Correlator::printObservable prints the observable for the output.">
<polygon fill="#ffffff" stroke="#000000" points="17.7881,-37.5 17.7881,-65.5 142.1572,-65.5 142.1572,-37.5 17.7881,-37.5"/>
<text text-anchor="start" x="25.7881" y="-53.5" font-family="Helvetica,sans-Serif" font-size="10.00" fill="#000000">MasterSamplerTopcXYZ</text>
<text text-anchor="middle" x="79.9727" y="-43.5" font-family="Helvetica,sans-Serif" font-size="10.00" fill="#000000">::printObservable</text>
</a>
</g>
</g>
<!-- Node19&#45;&gt;Node22 -->
<g id="edge3" class="edge">
<title>Node19&#45;&gt;Node22</title>
<path fill="none" stroke="#191970" d="M185.5898,-62.6761C170.9173,-61.1235 156.0577,-59.5511 142.3013,-58.0955"/>
<polygon fill="#191970" stroke="#191970" points="185.3891,-66.1744 195.702,-63.7462 186.1258,-59.2132 185.3891,-66.1744"/>
</g>
<!-- Node23 -->
<g id="node5" class="node">
<title>Node23</title>
<g id="a_node5"><a xlink:href="class_super_sampler.html#adf92b9281ee9a782e6c00424dd23451d" target="_top" xlink:title="Correlator::printObservable prints the observable for the output.">
<polygon fill="#ffffff" stroke="#000000" points="1.9385,-.5 1.9385,-18.5 158.0068,-18.5 158.0068,-.5 1.9385,-.5"/>
<text text-anchor="middle" x="79.9727" y="-6.5" font-family="Helvetica,sans-Serif" font-size="10.00" fill="#000000">SuperSampler::printObservable</text>
</a>
</g>
</g>
<!-- Node19&#45;&gt;Node23 -->
<g id="edge4" class="edge">
<title>Node19&#45;&gt;Node23</title>
<path fill="none" stroke="#191970" d="M246.9175,-59.5976C223.2483,-50.201 189.8942,-37.5814 159.9453,-28.5 147.791,-24.8144 134.4218,-21.3951 122.1515,-18.5022"/>
<polygon fill="#191970" stroke="#191970" points="245.8459,-62.9387 256.4303,-63.4077 248.4486,-56.4405 245.8459,-62.9387"/>
</g>
</g>
</svg>
