<?xml version="1.0" encoding="UTF-8" standalone="no"?>
<!DOCTYPE svg PUBLIC "-//W3C//DTD SVG 1.1//EN"
 "http://www.w3.org/Graphics/SVG/1.1/DTD/svg11.dtd">
<!-- Generated by graphviz version 2.40.1 (20161225.0304)
 -->
<!-- Title: Parameters::setNCf Pages: 1 -->
<svg width="322pt" height="27pt"
 viewBox="0.00 0.00 321.98 27.00" xmlns="http://www.w3.org/2000/svg" xmlns:xlink="http://www.w3.org/1999/xlink">
<g id="graph0" class="graph" transform="scale(1 1) rotate(0) translate(4 23)">
<title>Parameters::setNCf</title>
<polygon fill="#ffffff" stroke="transparent" points="-4,4 -4,-23 317.9844,-23 317.9844,4 -4,4"/>
<!-- Node445 -->
<g id="node1" class="node">
<title>Node445</title>
<g id="a_node1"><a xlink:title=" ">
<polygon fill="#bfbfbf" stroke="#000000" points="210.1816,-.5 210.1816,-18.5 313.9844,-18.5 313.9844,-.5 210.1816,-.5"/>
<text text-anchor="middle" x="262.083" y="-6.5" font-family="Helvetica,sans-Serif" font-size="10.00" fill="#000000">Parameters::setNCf</text>
</a>
</g>
</g>
<!-- Node446 -->
<g id="node2" class="node">
<title>Node446</title>
<g id="a_node2"><a xlink:href="namespace_config_loader.html#a26cf01adba9411ef1fa006d5068d7cc4" target="_top" xlink:title=" ">
<polygon fill="#ffffff" stroke="#000000" points="73.6748,-.5 73.6748,-18.5 174.1816,-18.5 174.1816,-.5 73.6748,-.5"/>
<text text-anchor="middle" x="123.9282" y="-6.5" font-family="Helvetica,sans-Serif" font-size="10.00" fill="#000000">ConfigLoader::load</text>
</a>
</g>
</g>
<!-- Node445&#45;&gt;Node446 -->
<g id="edge1" class="edge">
<title>Node445&#45;&gt;Node446</title>
<path fill="none" stroke="#191970" d="M199.6453,-9.5C191.1946,-9.5 182.61,-9.5 174.4039,-9.5"/>
<polygon fill="#191970" stroke="#191970" points="199.8526,-13.0001 209.8526,-9.5 199.8526,-6.0001 199.8526,-13.0001"/>
</g>
<!-- Node447 -->
<g id="node3" class="node">
<title>Node447</title>
<g id="a_node3"><a xlink:href="main_8cpp.html#a4e6f00a867970a9eedf47b88a27b9eea" target="_top" xlink:title=" ">
<polygon fill="#ffffff" stroke="#000000" points="0,-.5 0,-18.5 37.6748,-18.5 37.6748,-.5 0,-.5"/>
<text text-anchor="middle" x="18.8374" y="-6.5" font-family="Helvetica,sans-Serif" font-size="10.00" fill="#000000">main</text>
</a>
</g>
</g>
<!-- Node446&#45;&gt;Node447 -->
<g id="edge2" class="edge">
<title>Node446&#45;&gt;Node447</title>
<path fill="none" stroke="#191970" d="M63.4826,-9.5C54.2852,-9.5 45.4183,-9.5 38.0439,-9.5"/>
<polygon fill="#191970" stroke="#191970" points="63.5375,-13.0001 73.5375,-9.5 63.5374,-6.0001 63.5375,-13.0001"/>
</g>
</g>
</svg>
