<?xml version="1.0" encoding="UTF-8" standalone="no"?>
<!DOCTYPE svg PUBLIC "-//W3C//DTD SVG 1.1//EN"
 "http://www.w3.org/Graphics/SVG/1.1/DTD/svg11.dtd">
<!-- Generated by graphviz version 2.40.1 (20161225.0304)
 -->
<!-- Title: Parameters::getNFlows Pages: 1 -->
<svg width="734pt" height="732pt"
 viewBox="0.00 0.00 733.54 732.00" xmlns="http://www.w3.org/2000/svg" xmlns:xlink="http://www.w3.org/1999/xlink">
<g id="graph0" class="graph" transform="scale(1 1) rotate(0) translate(4 728)">
<title>Parameters::getNFlows</title>
<polygon fill="#ffffff" stroke="transparent" points="-4,4 -4,-728 729.54,-728 729.54,4 -4,4"/>
<!-- Node196 -->
<g id="node1" class="node">
<title>Node196</title>
<g id="a_node1"><a xlink:title=" ">
<polygon fill="#bfbfbf" stroke="#000000" points="605.0625,-292.5 605.0625,-310.5 725.54,-310.5 725.54,-292.5 605.0625,-292.5"/>
<text text-anchor="middle" x="665.3013" y="-298.5" font-family="Helvetica,sans-Serif" font-size="10.00" fill="#000000">Parameters::getNFlows</text>
</a>
</g>
</g>
<!-- Node197 -->
<g id="node2" class="node">
<title>Node197</title>
<g id="a_node2"><a xlink:href="namespace_i_o.html#a4f554804fd2ccd9c13c73777c5cbbf77" target="_top" xlink:title="IO::writeFlowObservableToFile method for writing a flow observable to file, using ....">
<polygon fill="#ffffff" stroke="#000000" points="414.9521,-600.5 414.9521,-618.5 567.1045,-618.5 567.1045,-600.5 414.9521,-600.5"/>
<text text-anchor="middle" x="491.0283" y="-606.5" font-family="Helvetica,sans-Serif" font-size="10.00" fill="#000000">IO::writeFlowObservableToFile</text>
</a>
</g>
</g>
<!-- Node196&#45;&gt;Node197 -->
<g id="edge1" class="edge">
<title>Node196&#45;&gt;Node197</title>
<path fill="none" stroke="#191970" d="M664.2302,-320.7763C660.4227,-370.8064 643.4166,-506.1393 569.0625,-581.5 560.4699,-590.2089 548.9804,-596.2215 537.4651,-600.368"/>
<polygon fill="#191970" stroke="#191970" points="667.7285,-320.9169 664.9006,-310.7064 660.744,-320.4518 667.7285,-320.9169"/>
</g>
<!-- Node204 -->
<g id="node9" class="node">
<title>Node204</title>
<g id="a_node9"><a xlink:href="namespace_i_o.html#ad77b7dd770afc8e2eb433d6187ea3616" target="_top" xlink:title="IO::writeMatrixToFile writes out a matrix of observables to file, i.e. the topological charge in Eucl...">
<polygon fill="#ffffff" stroke="#000000" points="244.8564,-559.5 244.8564,-577.5 351.9795,-577.5 351.9795,-559.5 244.8564,-559.5"/>
<text text-anchor="middle" x="298.418" y="-565.5" font-family="Helvetica,sans-Serif" font-size="10.00" fill="#000000">IO::writeMatrixToFile</text>
</a>
</g>
</g>
<!-- Node196&#45;&gt;Node204 -->
<g id="edge8" class="edge">
<title>Node196&#45;&gt;Node204</title>
<path fill="none" stroke="#191970" d="M663.9488,-321.0951C659.5766,-367.8152 641.527,-485.9205 569.0625,-540.5 504.9176,-588.8133 406.6166,-585.3079 347.8096,-577.5004"/>
<polygon fill="#191970" stroke="#191970" points="667.4608,-321.09 664.7904,-310.8373 660.4843,-320.5175 667.4608,-321.09"/>
</g>
<!-- Node205 -->
<g id="node10" class="node">
<title>Node205</title>
<g id="a_node10"><a xlink:href="class_correlator.html#ab99886c09dd27dfc8676d0032cecf9bc" target="_top" xlink:title="Correlator::initializeObservableStorer initializes ObservableStorer.">
<polygon fill="#ffffff" stroke="#000000" points="414.6665,-471.5 414.6665,-499.5 567.3901,-499.5 567.3901,-471.5 414.6665,-471.5"/>
<text text-anchor="start" x="422.6665" y="-487.5" font-family="Helvetica,sans-Serif" font-size="10.00" fill="#000000">Correlator::initializeObservable</text>
<text text-anchor="middle" x="491.0283" y="-477.5" font-family="Helvetica,sans-Serif" font-size="10.00" fill="#000000">Storer</text>
</a>
</g>
</g>
<!-- Node196&#45;&gt;Node205 -->
<g id="edge11" class="edge">
<title>Node196&#45;&gt;Node205</title>
<path fill="none" stroke="#191970" d="M659.2347,-320.3184C647.4128,-353.9789 618.0683,-424.5192 569.0625,-462.5 564.5971,-465.9608 559.622,-468.9016 554.4055,-471.4005"/>
<polygon fill="#191970" stroke="#191970" points="662.5745,-321.3678 662.46,-310.7736 655.9428,-319.1269 662.5745,-321.3678"/>
</g>
<!-- Node207 -->
<g id="node12" class="node">
<title>Node207</title>
<g id="a_node12"><a xlink:href="class_lattice_action_charge_density.html#aba3131bbe5bd930adccc2852b4d44bb9" target="_top" xlink:title="Correlator::initializeObservableStorer initializes ObservableStorer.">
<polygon fill="#ffffff" stroke="#000000" points="421.3291,-424.5 421.3291,-452.5 560.7275,-452.5 560.7275,-424.5 421.3291,-424.5"/>
<text text-anchor="start" x="429.3291" y="-440.5" font-family="Helvetica,sans-Serif" font-size="10.00" fill="#000000">LatticeActionChargeDensity</text>
<text text-anchor="middle" x="491.0283" y="-430.5" font-family="Helvetica,sans-Serif" font-size="10.00" fill="#000000">::initializeObservableStorer</text>
</a>
</g>
</g>
<!-- Node196&#45;&gt;Node207 -->
<g id="edge13" class="edge">
<title>Node196&#45;&gt;Node207</title>
<path fill="none" stroke="#191970" d="M654.782,-319.644C639.2345,-344.8655 607.7446,-390.2587 569.0625,-415.5 563.7398,-418.9733 557.8771,-421.9361 551.8288,-424.4607"/>
<polygon fill="#191970" stroke="#191970" points="657.968,-321.1367 660.1103,-310.7607 651.965,-317.536 657.968,-321.1367"/>
</g>
<!-- Node209 -->
<g id="node14" class="node">
<title>Node209</title>
<g id="a_node14"><a xlink:href="class_master_sampler.html#a88e2eec68ea6bd60cc3f375ac04a8ded" target="_top" xlink:title="Correlator::initializeObservableStorer initializes ObservableStorer.">
<polygon fill="#ffffff" stroke="#000000" points="428.5654,-377.5 428.5654,-405.5 553.4912,-405.5 553.4912,-377.5 428.5654,-377.5"/>
<text text-anchor="start" x="436.5654" y="-393.5" font-family="Helvetica,sans-Serif" font-size="10.00" fill="#000000">MasterSampler::initialize</text>
<text text-anchor="middle" x="491.0283" y="-383.5" font-family="Helvetica,sans-Serif" font-size="10.00" fill="#000000">ObservableStorer</text>
</a>
</g>
</g>
<!-- Node196&#45;&gt;Node209 -->
<g id="edge15" class="edge">
<title>Node196&#45;&gt;Node209</title>
<path fill="none" stroke="#191970" d="M646.8359,-317.0807C628.2442,-332.0862 598.2177,-354.51 569.0625,-368.5 562.059,-371.8606 554.4629,-374.8388 546.8521,-377.4439"/>
<polygon fill="#191970" stroke="#191970" points="649.2536,-319.6243 654.7599,-310.5726 644.8107,-314.2149 649.2536,-319.6243"/>
</g>
<!-- Node211 -->
<g id="node16" class="node">
<title>Node211</title>
<g id="a_node16"><a xlink:href="class_master_sampler_topc_x_y_z.html#ad8ba8f2c50c66d823c551f71fd62a99b" target="_top" xlink:title=" ">
<polygon fill="#ffffff" stroke="#000000" points="233.4551,-308.5 233.4551,-336.5 363.3809,-336.5 363.3809,-308.5 233.4551,-308.5"/>
<text text-anchor="start" x="241.4551" y="-324.5" font-family="Helvetica,sans-Serif" font-size="10.00" fill="#000000">MasterSamplerTopcXYZ</text>
<text text-anchor="middle" x="298.418" y="-314.5" font-family="Helvetica,sans-Serif" font-size="10.00" fill="#000000">::MasterSamplerTopcXYZ</text>
</a>
</g>
</g>
<!-- Node196&#45;&gt;Node211 -->
<g id="edge17" class="edge">
<title>Node196&#45;&gt;Node211</title>
<path fill="none" stroke="#191970" d="M594.6925,-305.5416C527.8575,-309.3671 428.3497,-315.0628 363.4217,-318.7793"/>
<polygon fill="#191970" stroke="#191970" points="594.9343,-309.0336 604.718,-304.9677 594.5343,-302.045 594.9343,-309.0336"/>
</g>
<!-- Node212 -->
<g id="node17" class="node">
<title>Node212</title>
<g id="a_node17"><a xlink:href="class_master_sampler_topc_x_y_z.html#af6d2cf2023d9626908fd26b07a7a0b84" target="_top" xlink:title="Correlator::initializeObservableStorer initializes ObservableStorer.">
<polygon fill="#ffffff" stroke="#000000" points="423.2798,-330.5 423.2798,-358.5 558.7769,-358.5 558.7769,-330.5 423.2798,-330.5"/>
<text text-anchor="start" x="431.2798" y="-346.5" font-family="Helvetica,sans-Serif" font-size="10.00" fill="#000000">MasterSamplerTopcXYZ</text>
<text text-anchor="middle" x="491.0283" y="-336.5" font-family="Helvetica,sans-Serif" font-size="10.00" fill="#000000">::initializeObservableStorer</text>
</a>
</g>
</g>
<!-- Node196&#45;&gt;Node212 -->
<g id="edge18" class="edge">
<title>Node196&#45;&gt;Node212</title>
<path fill="none" stroke="#191970" d="M618.8022,-312.9732C597.076,-318.3339 571.0066,-324.7662 548.0975,-330.4188"/>
<polygon fill="#191970" stroke="#191970" points="619.8976,-316.3079 628.7679,-310.5142 618.2206,-309.5117 619.8976,-316.3079"/>
</g>
<!-- Node213 -->
<g id="node18" class="node">
<title>Node213</title>
<g id="a_node18"><a xlink:href="class_master_sampler_topc_x_y_z.html#aef8d0b1b431711c6410cfece1c007b4a" target="_top" xlink:title="Correlator::reset resets ObservableStorer.">
<polygon fill="#ffffff" stroke="#000000" points="428.8438,-244.5 428.8438,-272.5 553.2129,-272.5 553.2129,-244.5 428.8438,-244.5"/>
<text text-anchor="start" x="436.8438" y="-260.5" font-family="Helvetica,sans-Serif" font-size="10.00" fill="#000000">MasterSamplerTopcXYZ</text>
<text text-anchor="middle" x="491.0283" y="-250.5" font-family="Helvetica,sans-Serif" font-size="10.00" fill="#000000">::reset</text>
</a>
</g>
</g>
<!-- Node196&#45;&gt;Node213 -->
<g id="edge20" class="edge">
<title>Node196&#45;&gt;Node213</title>
<path fill="none" stroke="#191970" d="M618.8022,-290.0268C597.076,-284.6661 571.0066,-278.2338 548.0975,-272.5812"/>
<polygon fill="#191970" stroke="#191970" points="618.2206,-293.4883 628.7679,-292.4858 619.8976,-286.6921 618.2206,-293.4883"/>
</g>
<!-- Node214 -->
<g id="node19" class="node">
<title>Node214</title>
<g id="a_node19"><a xlink:href="class_master_sampler_topc_x_y_z.html#ab2312c9e9dc1e9deeb5bce36784372ac" target="_top" xlink:title="Correlator::printObservable prints the observable for the output.">
<polygon fill="#ffffff" stroke="#000000" points="428.8438,-197.5 428.8438,-225.5 553.2129,-225.5 553.2129,-197.5 428.8438,-197.5"/>
<text text-anchor="start" x="436.8438" y="-213.5" font-family="Helvetica,sans-Serif" font-size="10.00" fill="#000000">MasterSamplerTopcXYZ</text>
<text text-anchor="middle" x="491.0283" y="-203.5" font-family="Helvetica,sans-Serif" font-size="10.00" fill="#000000">::printObservable</text>
</a>
</g>
</g>
<!-- Node196&#45;&gt;Node214 -->
<g id="edge21" class="edge">
<title>Node196&#45;&gt;Node214</title>
<path fill="none" stroke="#191970" d="M646.4556,-286.0018C627.7851,-271.2899 597.886,-249.4145 569.0625,-235.5 561.2762,-231.7412 552.77,-228.411 544.329,-225.5186"/>
<polygon fill="#191970" stroke="#191970" points="644.4397,-288.8714 654.4324,-292.3924 648.8165,-283.4084 644.4397,-288.8714"/>
</g>
<!-- Node215 -->
<g id="node20" class="node">
<title>Node215</title>
<g id="a_node20"><a xlink:href="class_super_sampler.html#a6bf01b68f9befc5bf01c822e28c0c88d" target="_top" xlink:title=" ">
<polygon fill="#ffffff" stroke="#000000" points="223.7188,-134.5 223.7188,-152.5 373.1172,-152.5 373.1172,-134.5 223.7188,-134.5"/>
<text text-anchor="middle" x="298.418" y="-140.5" font-family="Helvetica,sans-Serif" font-size="10.00" fill="#000000">SuperSampler::SuperSampler</text>
</a>
</g>
</g>
<!-- Node196&#45;&gt;Node215 -->
<g id="edge22" class="edge">
<title>Node196&#45;&gt;Node215</title>
<path fill="none" stroke="#191970" d="M660.492,-282.239C650.444,-246.6436 623.5016,-171.3823 569.0625,-140.5 490.9982,-96.2156 378.7646,-119.6818 326.8037,-134.4532"/>
<polygon fill="#191970" stroke="#191970" points="657.2153,-283.5353 663.1741,-292.2956 663.9789,-281.7314 657.2153,-283.5353"/>
</g>
<!-- Node216 -->
<g id="node21" class="node">
<title>Node216</title>
<g id="a_node21"><a xlink:href="class_super_sampler.html#a4429d6ae37247a02259bc0c6d665821c" target="_top" xlink:title="Correlator::initializeObservableStorer initializes ObservableStorer.">
<polygon fill="#ffffff" stroke="#000000" points="430.5039,-150.5 430.5039,-178.5 551.5527,-178.5 551.5527,-150.5 430.5039,-150.5"/>
<text text-anchor="start" x="438.5039" y="-166.5" font-family="Helvetica,sans-Serif" font-size="10.00" fill="#000000">SuperSampler::initialize</text>
<text text-anchor="middle" x="491.0283" y="-156.5" font-family="Helvetica,sans-Serif" font-size="10.00" fill="#000000">ObservableStorer</text>
</a>
</g>
</g>
<!-- Node196&#45;&gt;Node216 -->
<g id="edge23" class="edge">
<title>Node196&#45;&gt;Node216</title>
<path fill="none" stroke="#191970" d="M654.7017,-283.58C639.0579,-258.6573 607.4537,-213.7546 569.0625,-188.5 563.1418,-184.6052 556.557,-181.3163 549.7936,-178.5451"/>
<polygon fill="#191970" stroke="#191970" points="651.8645,-285.6493 660.0663,-292.356 657.837,-281.9984 651.8645,-285.6493"/>
</g>
<!-- Node217 -->
<g id="node22" class="node">
<title>Node217</title>
<g id="a_node22"><a xlink:href="class_super_sampler.html#ab2f028561e015500fac1e3093aa4a725" target="_top" xlink:title="Correlator::reset resets ObservableStorer.">
<polygon fill="#ffffff" stroke="#000000" points="437.1738,-74.5 437.1738,-92.5 544.8828,-92.5 544.8828,-74.5 437.1738,-74.5"/>
<text text-anchor="middle" x="491.0283" y="-80.5" font-family="Helvetica,sans-Serif" font-size="10.00" fill="#000000">SuperSampler::reset</text>
</a>
</g>
</g>
<!-- Node196&#45;&gt;Node217 -->
<g id="edge25" class="edge">
<title>Node196&#45;&gt;Node217</title>
<path fill="none" stroke="#191970" d="M661.1282,-282.2003C651.7127,-243.3011 625.127,-155.1394 569.0625,-107.5 561.2857,-100.8919 551.7107,-96.1024 541.9642,-92.6312"/>
<polygon fill="#191970" stroke="#191970" points="657.7741,-283.2322 663.4264,-292.1933 664.596,-281.6632 657.7741,-283.2322"/>
</g>
<!-- Node218 -->
<g id="node23" class="node">
<title>Node218</title>
<g id="a_node23"><a xlink:href="class_super_sampler.html#adf92b9281ee9a782e6c00424dd23451d" target="_top" xlink:title="Correlator::printObservable prints the observable for the output.">
<polygon fill="#ffffff" stroke="#000000" points="412.9941,-37.5 412.9941,-55.5 569.0625,-55.5 569.0625,-37.5 412.9941,-37.5"/>
<text text-anchor="middle" x="491.0283" y="-43.5" font-family="Helvetica,sans-Serif" font-size="10.00" fill="#000000">SuperSampler::printObservable</text>
</a>
</g>
</g>
<!-- Node196&#45;&gt;Node218 -->
<g id="edge26" class="edge">
<title>Node196&#45;&gt;Node218</title>
<path fill="none" stroke="#191970" d="M663.3652,-282.007C657.7617,-236.4876 637.295,-122.6613 569.0625,-64.5 564.8301,-60.8923 560.0152,-57.9726 554.9032,-55.6139"/>
<polygon fill="#191970" stroke="#191970" points="659.8968,-282.485 664.4897,-292.0325 666.8532,-281.7047 659.8968,-282.485"/>
</g>
<!-- Node219 -->
<g id="node24" class="node">
<title>Node219</title>
<g id="a_node24"><a xlink:href="class_parallel_1_1_communicator.html#a5d42989e7a3022de6042e3503aa35346" target="_top" xlink:title="Parallel::Communicator::reduceToTemporalDimension reduces the results to the temporal dimensions,...">
<polygon fill="#ffffff" stroke="#000000" points="222.8862,-512.5 222.8862,-540.5 373.9497,-540.5 373.9497,-512.5 222.8862,-512.5"/>
<text text-anchor="start" x="230.8862" y="-528.5" font-family="Helvetica,sans-Serif" font-size="10.00" fill="#000000">Parallel::Communicator</text>
<text text-anchor="middle" x="298.418" y="-518.5" font-family="Helvetica,sans-Serif" font-size="10.00" fill="#000000">::reduceToTemporalDimension</text>
</a>
</g>
</g>
<!-- Node196&#45;&gt;Node219 -->
<g id="edge27" class="edge">
<title>Node196&#45;&gt;Node219</title>
<path fill="none" stroke="#191970" d="M662.8987,-320.7501C656.4674,-363.1997 634.636,-464.6304 569.0625,-509.5 510.3928,-549.6455 426.7736,-548.3465 368.0495,-540.5272"/>
<polygon fill="#191970" stroke="#191970" points="666.3924,-321.037 664.3012,-310.6506 659.4589,-320.0741 666.3924,-321.037"/>
</g>
<!-- Node220 -->
<g id="node25" class="node">
<title>Node220</title>
<g id="a_node25"><a xlink:href="class_system.html#ae317936c9bcf1374d61745572e0f2f8a" target="_top" xlink:title=" ">
<polygon fill="#ffffff" stroke="#000000" points="446.9102,-.5 446.9102,-18.5 535.1465,-18.5 535.1465,-.5 446.9102,-.5"/>
<text text-anchor="middle" x="491.0283" y="-6.5" font-family="Helvetica,sans-Serif" font-size="10.00" fill="#000000">System::System</text>
</a>
</g>
</g>
<!-- Node196&#45;&gt;Node220 -->
<g id="edge30" class="edge">
<title>Node196&#45;&gt;Node220</title>
<path fill="none" stroke="#191970" d="M664.598,-282.4578C661.6771,-232.5253 646.6254,-96.8931 569.0625,-27.5 559.8406,-19.2494 547.5992,-14.56 535.5524,-11.9529"/>
<polygon fill="#191970" stroke="#191970" points="661.1043,-282.6753 665.0835,-292.4945 668.0961,-282.337 661.1043,-282.6753"/>
</g>
<!-- Node198 -->
<g id="node3" class="node">
<title>Node198</title>
<g id="a_node3"><a xlink:href="class_observable_storer.html#af51ebd65eae2a5087cfd47ddf230da93" target="_top" xlink:title="ObservableStorer::writeFlowObservableToFile.">
<polygon fill="#ffffff" stroke="#000000" points="227.3418,-599.5 227.3418,-627.5 369.4941,-627.5 369.4941,-599.5 227.3418,-599.5"/>
<text text-anchor="start" x="235.3418" y="-615.5" font-family="Helvetica,sans-Serif" font-size="10.00" fill="#000000">ObservableStorer::writeFlow</text>
<text text-anchor="middle" x="298.418" y="-605.5" font-family="Helvetica,sans-Serif" font-size="10.00" fill="#000000">ObservableToFile</text>
</a>
</g>
</g>
<!-- Node197&#45;&gt;Node198 -->
<g id="edge2" class="edge">
<title>Node197&#45;&gt;Node198</title>
<path fill="none" stroke="#191970" d="M404.6682,-611.2935C392.9425,-611.537 381.0181,-611.7846 369.6003,-612.0217"/>
<polygon fill="#191970" stroke="#191970" points="404.9785,-614.7879 414.9036,-611.0809 404.8331,-607.7894 404.9785,-614.7879"/>
</g>
<!-- Node199 -->
<g id="node4" class="node">
<title>Node199</title>
<g id="a_node4"><a xlink:href="class_correlator.html#a168512b2ce182d9478db47f100125fa6" target="_top" xlink:title="Correlator::writeFlowObservablesToFile.">
<polygon fill="#ffffff" stroke="#000000" points="9.7314,-695.5 9.7314,-723.5 174.1104,-723.5 174.1104,-695.5 9.7314,-695.5"/>
<text text-anchor="start" x="17.7314" y="-711.5" font-family="Helvetica,sans-Serif" font-size="10.00" fill="#000000">Correlator::writeFlowObservables</text>
<text text-anchor="middle" x="91.9209" y="-701.5" font-family="Helvetica,sans-Serif" font-size="10.00" fill="#000000">ToFile</text>
</a>
</g>
</g>
<!-- Node198&#45;&gt;Node199 -->
<g id="edge3" class="edge">
<title>Node198&#45;&gt;Node199</title>
<path fill="none" stroke="#191970" d="M272.109,-633.756C249.7302,-650.1032 216.1672,-672.5951 183.8418,-686.5 175.9837,-689.8802 167.5253,-692.8361 159.0348,-695.4008"/>
<polygon fill="#191970" stroke="#191970" points="274.4542,-636.3741 280.4006,-627.6053 270.2838,-630.7521 274.4542,-636.3741"/>
</g>
<!-- Node200 -->
<g id="node5" class="node">
<title>Node200</title>
<g id="a_node5"><a xlink:href="class_lattice_action_charge_density.html#a54226556dc1497c311e4a4d50bf44c26" target="_top" xlink:title="Correlator::writeFlowObservablesToFile.">
<polygon fill="#ffffff" stroke="#000000" points="18.623,-648.5 18.623,-676.5 165.2188,-676.5 165.2188,-648.5 18.623,-648.5"/>
<text text-anchor="start" x="26.623" y="-664.5" font-family="Helvetica,sans-Serif" font-size="10.00" fill="#000000">LatticeActionChargeDensity</text>
<text text-anchor="middle" x="91.9209" y="-654.5" font-family="Helvetica,sans-Serif" font-size="10.00" fill="#000000">::writeFlowObservablesToFile</text>
</a>
</g>
</g>
<!-- Node198&#45;&gt;Node200 -->
<g id="edge4" class="edge">
<title>Node198&#45;&gt;Node200</title>
<path fill="none" stroke="#191970" d="M229.3265,-629.8948C203.9689,-635.912 175.5136,-642.6642 151.1033,-648.4565"/>
<polygon fill="#191970" stroke="#191970" points="230.3225,-633.2558 239.2442,-627.5414 228.7063,-626.4449 230.3225,-633.2558"/>
</g>
<!-- Node201 -->
<g id="node6" class="node">
<title>Node201</title>
<g id="a_node6"><a xlink:href="class_master_sampler.html#ad475928217ac61fae134128904aaa9f8" target="_top" xlink:title="Correlator::writeFlowObservablesToFile.">
<polygon fill="#ffffff" stroke="#000000" points="26.1304,-601.5 26.1304,-629.5 157.7114,-629.5 157.7114,-601.5 26.1304,-601.5"/>
<text text-anchor="start" x="34.1304" y="-617.5" font-family="Helvetica,sans-Serif" font-size="10.00" fill="#000000">MasterSampler::writeFlow</text>
<text text-anchor="middle" x="91.9209" y="-607.5" font-family="Helvetica,sans-Serif" font-size="10.00" fill="#000000">ObservablesToFile</text>
</a>
</g>
</g>
<!-- Node198&#45;&gt;Node201 -->
<g id="edge5" class="edge">
<title>Node198&#45;&gt;Node201</title>
<path fill="none" stroke="#191970" d="M216.9129,-614.2894C197.2786,-614.4796 176.5454,-614.6804 157.7307,-614.8626"/>
<polygon fill="#191970" stroke="#191970" points="217.0986,-617.7879 227.0642,-614.1911 217.0308,-610.7882 217.0986,-617.7879"/>
</g>
<!-- Node202 -->
<g id="node7" class="node">
<title>Node202</title>
<g id="a_node7"><a xlink:href="class_master_sampler_topc_x_y_z.html#a4fba4290e4406e18ef3f2904c6ae364f" target="_top" xlink:title="Correlator::writeFlowObservablesToFile.">
<polygon fill="#ffffff" stroke="#000000" points="18.623,-507.5 18.623,-535.5 165.2188,-535.5 165.2188,-507.5 18.623,-507.5"/>
<text text-anchor="start" x="26.623" y="-523.5" font-family="Helvetica,sans-Serif" font-size="10.00" fill="#000000">MasterSamplerTopcXYZ</text>
<text text-anchor="middle" x="91.9209" y="-513.5" font-family="Helvetica,sans-Serif" font-size="10.00" fill="#000000">::writeFlowObservablesToFile</text>
</a>
</g>
</g>
<!-- Node198&#45;&gt;Node202 -->
<g id="edge6" class="edge">
<title>Node198&#45;&gt;Node202</title>
<path fill="none" stroke="#191970" d="M233.5655,-595.2734C228.7671,-592.9603 224.1321,-590.3779 219.8418,-587.5 199.4245,-573.8041 204.6878,-558.5341 183.8418,-545.5 177.5486,-541.5652 170.6276,-538.2721 163.494,-535.5168"/>
<polygon fill="#191970" stroke="#191970" points="232.3835,-598.577 242.9466,-599.3966 235.2001,-592.1687 232.3835,-598.577"/>
</g>
<!-- Node203 -->
<g id="node8" class="node">
<title>Node203</title>
<g id="a_node8"><a xlink:href="class_super_sampler.html#a410b650ebccdb03519c88908a3a8013e" target="_top" xlink:title="Correlator::writeFlowObservablesToFile.">
<polygon fill="#ffffff" stroke="#000000" points="0,-554.5 0,-582.5 183.8418,-582.5 183.8418,-554.5 0,-554.5"/>
<text text-anchor="start" x="8" y="-570.5" font-family="Helvetica,sans-Serif" font-size="10.00" fill="#000000">SuperSampler::writeFlowObservables</text>
<text text-anchor="middle" x="91.9209" y="-560.5" font-family="Helvetica,sans-Serif" font-size="10.00" fill="#000000">ToFile</text>
</a>
</g>
</g>
<!-- Node198&#45;&gt;Node203 -->
<g id="edge7" class="edge">
<title>Node198&#45;&gt;Node203</title>
<path fill="none" stroke="#191970" d="M223.9087,-597.2629C201.7678,-592.4379 177.7111,-587.1955 156.2743,-582.5239"/>
<polygon fill="#191970" stroke="#191970" points="223.4145,-600.7373 233.9304,-599.4468 224.905,-593.8978 223.4145,-600.7373"/>
</g>
<!-- Node204&#45;&gt;Node202 -->
<g id="edge9" class="edge">
<title>Node204&#45;&gt;Node202</title>
<path fill="none" stroke="#191970" d="M248.823,-557.2119C220.2132,-550.7001 183.9924,-542.456 153.5622,-535.5299"/>
<polygon fill="#191970" stroke="#191970" points="248.0758,-560.6313 258.6033,-559.4379 249.6294,-553.8058 248.0758,-560.6313"/>
</g>
<!-- Node204&#45;&gt;Node203 -->
<g id="edge10" class="edge">
<title>Node204&#45;&gt;Node203</title>
<path fill="none" stroke="#191970" d="M234.4672,-568.5C218.5409,-568.5 201.1483,-568.5 184.158,-568.5"/>
<polygon fill="#191970" stroke="#191970" points="234.7024,-572.0001 244.7024,-568.5 234.7023,-565.0001 234.7024,-572.0001"/>
</g>
<!-- Node206 -->
<g id="node11" class="node">
<title>Node206</title>
<g id="a_node11"><a xlink:href="class_correlator.html#aff48ef3bf789e9c6231eacc21cd9ed9a" target="_top" xlink:title="Correlator::Correlator.">
<polygon fill="#ffffff" stroke="#000000" points="243.1816,-475.5 243.1816,-493.5 353.6543,-493.5 353.6543,-475.5 243.1816,-475.5"/>
<text text-anchor="middle" x="298.418" y="-481.5" font-family="Helvetica,sans-Serif" font-size="10.00" fill="#000000">Correlator::Correlator</text>
</a>
</g>
</g>
<!-- Node205&#45;&gt;Node206 -->
<g id="edge12" class="edge">
<title>Node205&#45;&gt;Node206</title>
<path fill="none" stroke="#191970" d="M404.5674,-485.0511C387.3704,-484.9618 369.7503,-484.8703 353.9315,-484.7882"/>
<polygon fill="#191970" stroke="#191970" points="404.6089,-488.5513 414.627,-485.1033 404.6453,-481.5514 404.6089,-488.5513"/>
</g>
<!-- Node208 -->
<g id="node13" class="node">
<title>Node208</title>
<g id="a_node13"><a xlink:href="class_lattice_action_charge_density.html#acda2a43db75cca34586441d4ac7ec39e" target="_top" xlink:title=" ">
<polygon fill="#ffffff" stroke="#000000" points="225.9404,-424.5 225.9404,-452.5 370.8955,-452.5 370.8955,-424.5 225.9404,-424.5"/>
<text text-anchor="start" x="233.9404" y="-440.5" font-family="Helvetica,sans-Serif" font-size="10.00" fill="#000000">LatticeActionChargeDensity</text>
<text text-anchor="middle" x="298.418" y="-430.5" font-family="Helvetica,sans-Serif" font-size="10.00" fill="#000000">::LatticeActionChargeDensity</text>
</a>
</g>
</g>
<!-- Node207&#45;&gt;Node208 -->
<g id="edge14" class="edge">
<title>Node207&#45;&gt;Node208</title>
<path fill="none" stroke="#191970" d="M411.1279,-438.5C397.7983,-438.5 384.0367,-438.5 370.9055,-438.5"/>
<polygon fill="#191970" stroke="#191970" points="411.2193,-442.0001 421.2192,-438.5 411.2192,-435.0001 411.2193,-442.0001"/>
</g>
<!-- Node210 -->
<g id="node15" class="node">
<title>Node210</title>
<g id="a_node15"><a xlink:href="class_master_sampler.html#ac5ee503e8391aca36f73872a45bb6bd9" target="_top" xlink:title=" ">
<polygon fill="#ffffff" stroke="#000000" points="219.8418,-382.5 219.8418,-400.5 376.9941,-400.5 376.9941,-382.5 219.8418,-382.5"/>
<text text-anchor="middle" x="298.418" y="-388.5" font-family="Helvetica,sans-Serif" font-size="10.00" fill="#000000">MasterSampler::MasterSampler</text>
</a>
</g>
</g>
<!-- Node209&#45;&gt;Node210 -->
<g id="edge16" class="edge">
<title>Node209&#45;&gt;Node210</title>
<path fill="none" stroke="#191970" d="M418.3541,-391.5C404.9034,-391.5 390.7971,-391.5 377.1756,-391.5"/>
<polygon fill="#191970" stroke="#191970" points="418.4933,-395.0001 428.4933,-391.5 418.4932,-388.0001 418.4933,-395.0001"/>
</g>
<!-- Node212&#45;&gt;Node211 -->
<g id="edge19" class="edge">
<title>Node212&#45;&gt;Node211</title>
<path fill="none" stroke="#191970" d="M412.9932,-335.5868C396.545,-333.7081 379.3588,-331.7451 363.4498,-329.9279"/>
<polygon fill="#191970" stroke="#191970" points="412.7885,-339.0861 423.1211,-336.7436 413.5829,-332.1313 412.7885,-339.0861"/>
</g>
<!-- Node216&#45;&gt;Node215 -->
<g id="edge24" class="edge">
<title>Node216&#45;&gt;Node215</title>
<path fill="none" stroke="#191970" d="M419.9919,-156.755C404.7928,-155.0979 388.69,-153.3422 373.3493,-151.6696"/>
<polygon fill="#191970" stroke="#191970" points="420.0291,-160.2797 430.3496,-157.8843 420.7879,-153.321 420.0291,-160.2797"/>
</g>
<!-- Node219&#45;&gt;Node202 -->
<g id="edge28" class="edge">
<title>Node219&#45;&gt;Node202</title>
<path fill="none" stroke="#191970" d="M212.4737,-524.419C196.7695,-524.0387 180.5156,-523.6452 165.2214,-523.2749"/>
<polygon fill="#191970" stroke="#191970" points="212.6168,-527.9234 222.6986,-524.6666 212.7863,-520.9254 212.6168,-527.9234"/>
</g>
<!-- Node219&#45;&gt;Node203 -->
<g id="edge29" class="edge">
<title>Node219&#45;&gt;Node203</title>
<path fill="none" stroke="#191970" d="M219.415,-542.5686C200.1399,-546.489 179.6699,-550.6525 160.9035,-554.4694"/>
<polygon fill="#191970" stroke="#191970" points="220.2686,-545.9668 229.3703,-540.5438 218.8734,-539.1072 220.2686,-545.9668"/>
</g>
</g>
</svg>
