<?xml version="1.0" encoding="UTF-8" standalone="no"?>
<!DOCTYPE svg PUBLIC "-//W3C//DTD SVG 1.1//EN"
 "http://www.w3.org/Graphics/SVG/1.1/DTD/svg11.dtd">
<!-- Generated by graphviz version 2.40.1 (20161225.0304)
 -->
<!-- Title: System::latticeSetup Pages: 1 -->
<svg width="612pt" height="459pt"
 viewBox="0.00 0.00 612.39 459.00" xmlns="http://www.w3.org/2000/svg" xmlns:xlink="http://www.w3.org/1999/xlink">
<g id="graph0" class="graph" transform="scale(1 1) rotate(0) translate(4 455)">
<title>System::latticeSetup</title>
<polygon fill="#ffffff" stroke="transparent" points="-4,4 -4,-455 608.3926,-455 608.3926,4 -4,4"/>
<!-- Node15 -->
<g id="node1" class="node">
<title>Node15</title>
<g id="a_node1"><a xlink:title=" ">
<polygon fill="#bfbfbf" stroke="#000000" points="0,-178.5 0,-196.5 107.1523,-196.5 107.1523,-178.5 0,-178.5"/>
<text text-anchor="middle" x="53.5762" y="-184.5" font-family="Helvetica,sans-Serif" font-size="10.00" fill="#000000">System::latticeSetup</text>
</a>
</g>
</g>
<!-- Node16 -->
<g id="node2" class="node">
<title>Node16</title>
<g id="a_node2"><a xlink:href="class_parameters.html#a5a11841ee32f68ebd27a8146a3fda07b" target="_top" xlink:title=" ">
<polygon fill="#ffffff" stroke="#000000" points="347.4204,-422.5 347.4204,-450.5 478.4839,-450.5 478.4839,-422.5 347.4204,-422.5"/>
<text text-anchor="start" x="355.4204" y="-438.5" font-family="Helvetica,sans-Serif" font-size="10.00" fill="#000000">Parameters::getLoadField</text>
<text text-anchor="middle" x="412.9521" y="-428.5" font-family="Helvetica,sans-Serif" font-size="10.00" fill="#000000">Configurations</text>
</a>
</g>
</g>
<!-- Node15&#45;&gt;Node16 -->
<g id="edge1" class="edge">
<title>Node15&#45;&gt;Node16</title>
<path fill="none" stroke="#191970" d="M57.2463,-196.5761C67.4532,-220.8216 98.3992,-287.9425 143.1523,-327.5 198.5242,-376.4434 278.7129,-405.0434 337.2751,-420.5681"/>
<polygon fill="#191970" stroke="#191970" points="336.6553,-424.0228 347.2127,-423.1326 338.4045,-417.2448 336.6553,-424.0228"/>
</g>
<!-- Node17 -->
<g id="node3" class="node">
<title>Node17</title>
<g id="a_node3"><a xlink:href="class_parameters.html#a7870fae41b172caee9fa020c86d056ac" target="_top" xlink:title=" ">
<polygon fill="#ffffff" stroke="#000000" points="145.916,-252.5 145.916,-280.5 284.2109,-280.5 284.2109,-252.5 145.916,-252.5"/>
<text text-anchor="start" x="153.916" y="-268.5" font-family="Helvetica,sans-Serif" font-size="10.00" fill="#000000">Parameters::getLoadConfig</text>
<text text-anchor="middle" x="215.0635" y="-258.5" font-family="Helvetica,sans-Serif" font-size="10.00" fill="#000000">AndRun</text>
</a>
</g>
</g>
<!-- Node15&#45;&gt;Node17 -->
<g id="edge2" class="edge">
<title>Node15&#45;&gt;Node17</title>
<path fill="none" stroke="#191970" d="M65.7724,-196.5105C82.5107,-208.5453 113.8678,-229.9225 143.1523,-243.5 147.2085,-245.3806 151.4604,-247.1684 155.7839,-248.8547"/>
<polygon fill="#191970" stroke="#191970" points="154.7217,-252.1935 165.3149,-252.3808 157.1506,-245.6284 154.7217,-252.1935"/>
</g>
<!-- Node18 -->
<g id="node4" class="node">
<title>Node18</title>
<g id="a_node4"><a xlink:href="class_parameters.html#a5ba21c056f0b7da17abcdd0a1eb2061f" target="_top" xlink:title=" ">
<polygon fill="#ffffff" stroke="#000000" points="153.1523,-215.5 153.1523,-233.5 276.9746,-233.5 276.9746,-215.5 153.1523,-215.5"/>
<text text-anchor="middle" x="215.0635" y="-221.5" font-family="Helvetica,sans-Serif" font-size="10.00" fill="#000000">Parameters::getHotStart</text>
</a>
</g>
</g>
<!-- Node15&#45;&gt;Node18 -->
<g id="edge3" class="edge">
<title>Node15&#45;&gt;Node18</title>
<path fill="none" stroke="#191970" d="M93.0804,-196.5512C114.9605,-201.5644 142.3633,-207.8429 165.6507,-213.1785"/>
<polygon fill="#191970" stroke="#191970" points="165.1584,-216.6564 175.6875,-215.4782 166.7218,-209.8332 165.1584,-216.6564"/>
</g>
<!-- Node19 -->
<g id="node5" class="node">
<title>Node19</title>
<g id="a_node5"><a xlink:href="class_parameters.html#a4c24cb57765589a12eae030894423735" target="_top" xlink:title=" ">
<polygon fill="#ffffff" stroke="#000000" points="143.1523,-178.5 143.1523,-196.5 286.9746,-196.5 286.9746,-178.5 143.1523,-178.5"/>
<text text-anchor="middle" x="215.0635" y="-184.5" font-family="Helvetica,sans-Serif" font-size="10.00" fill="#000000">Parameters::getRSTHotStart</text>
</a>
</g>
</g>
<!-- Node15&#45;&gt;Node19 -->
<g id="edge4" class="edge">
<title>Node15&#45;&gt;Node19</title>
<path fill="none" stroke="#191970" d="M107.3491,-187.5C115.5924,-187.5 124.2594,-187.5 132.9476,-187.5"/>
<polygon fill="#191970" stroke="#191970" points="133.1325,-191.0001 143.1324,-187.5 133.1324,-184.0001 133.1325,-191.0001"/>
</g>
<!-- Node20 -->
<g id="node6" class="node">
<title>Node20</title>
<g id="a_node6"><a xlink:href="class_s_u3_matrix_generator.html#a478a6d34a643f4ee30bc333ca1023b00" target="_top" xlink:title=" ">
<polygon fill="#ffffff" stroke="#000000" points="161.2139,-131.5 161.2139,-159.5 268.9131,-159.5 268.9131,-131.5 161.2139,-131.5"/>
<text text-anchor="start" x="169.2139" y="-147.5" font-family="Helvetica,sans-Serif" font-size="10.00" fill="#000000">SU3MatrixGenerator</text>
<text text-anchor="middle" x="215.0635" y="-137.5" font-family="Helvetica,sans-Serif" font-size="10.00" fill="#000000">::generateRST</text>
</a>
</g>
</g>
<!-- Node15&#45;&gt;Node20 -->
<g id="edge5" class="edge">
<title>Node15&#45;&gt;Node20</title>
<path fill="none" stroke="#191970" d="M88.2193,-178.4899C106.6235,-173.7033 129.8332,-167.6669 151.352,-162.0702"/>
<polygon fill="#191970" stroke="#191970" points="152.2997,-165.4403 161.0967,-159.5358 150.5377,-158.6656 152.2997,-165.4403"/>
</g>
<!-- Node23 -->
<g id="node9" class="node">
<title>Node23</title>
<g id="a_node9"><a xlink:href="class_s_u3_matrix_generator.html#a06dc59b5a86ba6863b848ef1ca26629a" target="_top" xlink:title=" ">
<polygon fill="#ffffff" stroke="#000000" points="161.2139,-84.5 161.2139,-112.5 268.9131,-112.5 268.9131,-84.5 161.2139,-84.5"/>
<text text-anchor="start" x="169.2139" y="-100.5" font-family="Helvetica,sans-Serif" font-size="10.00" fill="#000000">SU3MatrixGenerator</text>
<text text-anchor="middle" x="215.0635" y="-90.5" font-family="Helvetica,sans-Serif" font-size="10.00" fill="#000000">::generateRandom</text>
</a>
</g>
</g>
<!-- Node15&#45;&gt;Node23 -->
<g id="edge8" class="edge">
<title>Node15&#45;&gt;Node23</title>
<path fill="none" stroke="#191970" d="M63.5942,-178.3834C79.4252,-164.3974 111.6722,-137.5812 143.1523,-121.5 146.7271,-119.6739 150.4757,-117.9555 154.3054,-116.3452"/>
<polygon fill="#191970" stroke="#191970" points="155.9084,-119.4761 163.9392,-112.5655 153.3517,-112.9597 155.9084,-119.4761"/>
</g>
<!-- Node25 -->
<g id="node11" class="node">
<title>Node25</title>
<g id="a_node11"><a xlink:href="class_lattice.html#a5ad6bf603b4b455f0368362aeeddb748" target="_top" xlink:title=" ">
<polygon fill="#ffffff" stroke="#000000" points="173.7114,-47.5 173.7114,-65.5 256.4155,-65.5 256.4155,-47.5 173.7114,-47.5"/>
<text text-anchor="middle" x="215.0635" y="-53.5" font-family="Helvetica,sans-Serif" font-size="10.00" fill="#000000">Lattice::identity</text>
</a>
</g>
</g>
<!-- Node15&#45;&gt;Node25 -->
<g id="edge10" class="edge">
<title>Node15&#45;&gt;Node25</title>
<path fill="none" stroke="#191970" d="M58.1793,-178.1965C69.4528,-156.4204 100.6572,-101.9118 143.1523,-74.5 149.398,-70.4712 156.4852,-67.3441 163.7165,-64.9169"/>
<polygon fill="#191970" stroke="#191970" points="164.9881,-68.1916 173.6013,-62.0219 163.0206,-61.4737 164.9881,-68.1916"/>
</g>
<!-- Node26 -->
<g id="node12" class="node">
<title>Node26</title>
<g id="a_node12"><a xlink:href="class_sys_print.html#a4572572643f6f4685081a3ae419e5ca9" target="_top" xlink:title="SysPrint::printSystemInfo prints out parametesr from Parallel:Communicator and Parameters.">
<polygon fill="#ffffff" stroke="#000000" points="150.9331,-299.5 150.9331,-317.5 279.1938,-317.5 279.1938,-299.5 150.9331,-299.5"/>
<text text-anchor="middle" x="215.0635" y="-305.5" font-family="Helvetica,sans-Serif" font-size="10.00" fill="#000000">SysPrint::printSystemInfo</text>
</a>
</g>
</g>
<!-- Node15&#45;&gt;Node26 -->
<g id="edge11" class="edge">
<title>Node15&#45;&gt;Node26</title>
<path fill="none" stroke="#191970" d="M58.7598,-196.5727C70.8028,-216.793 102.7488,-265.7211 143.1523,-290.5 146.3579,-292.4659 149.7685,-294.2176 153.2956,-295.7782"/>
<polygon fill="#191970" stroke="#191970" points="152.2542,-299.1283 162.8432,-299.4794 154.7843,-292.6015 152.2542,-299.1283"/>
</g>
<!-- Node33 -->
<g id="node19" class="node">
<title>Node33</title>
<g id="a_node19"><a xlink:href="class_parallel_1_1_communicator.html#ad48e48ab0137dab329d31fc1e3ebf179" target="_top" xlink:title=" ">
<polygon fill="#ffffff" stroke="#000000" points="155.1006,-.5 155.1006,-28.5 275.0264,-28.5 275.0264,-.5 155.1006,-.5"/>
<text text-anchor="start" x="163.1006" y="-16.5" font-family="Helvetica,sans-Serif" font-size="10.00" fill="#000000">Parallel::Communicator</text>
<text text-anchor="middle" x="215.0635" y="-6.5" font-family="Helvetica,sans-Serif" font-size="10.00" fill="#000000">::setBarrier</text>
</a>
</g>
</g>
<!-- Node15&#45;&gt;Node33 -->
<g id="edge19" class="edge">
<title>Node15&#45;&gt;Node33</title>
<path fill="none" stroke="#191970" d="M56.5049,-178.1743C65.2175,-151.9511 93.5029,-76.9164 143.1523,-37.5 144.9039,-36.1094 146.7415,-34.802 148.6458,-33.5729"/>
<polygon fill="#191970" stroke="#191970" points="150.3627,-36.6229 157.3628,-28.67 146.9311,-30.5218 150.3627,-36.6229"/>
</g>
<!-- Node21 -->
<g id="node7" class="node">
<title>Node21</title>
<g id="a_node7"><a xlink:href="class_s_u3_matrix_generator.html#aa4e04caff654a1df7c43280b85f359bc" target="_top" xlink:title=" ">
<polygon fill="#ffffff" stroke="#000000" points="359.1025,-131.5 359.1025,-159.5 466.8018,-159.5 466.8018,-131.5 359.1025,-131.5"/>
<text text-anchor="start" x="367.1025" y="-147.5" font-family="Helvetica,sans-Serif" font-size="10.00" fill="#000000">SU3MatrixGenerator</text>
<text text-anchor="middle" x="412.9521" y="-137.5" font-family="Helvetica,sans-Serif" font-size="10.00" fill="#000000">::generateSU2</text>
</a>
</g>
</g>
<!-- Node20&#45;&gt;Node21 -->
<g id="edge6" class="edge">
<title>Node20&#45;&gt;Node21</title>
<path fill="none" stroke="#191970" d="M269.1374,-145.5C293.7876,-145.5 323.1518,-145.5 348.9004,-145.5"/>
<polygon fill="#191970" stroke="#191970" points="348.9436,-149.0001 358.9436,-145.5 348.9435,-142.0001 348.9436,-149.0001"/>
</g>
<!-- Node22 -->
<g id="node8" class="node">
<title>Node22</title>
<g id="a_node8"><a xlink:href="class_s_u2.html#a348ca5d38346892060a05f7d9de02916" target="_top" xlink:title=" ">
<polygon fill="#ffffff" stroke="#000000" points="538.9297,-136.5 538.9297,-154.5 604.3926,-154.5 604.3926,-136.5 538.9297,-136.5"/>
<text text-anchor="middle" x="571.6611" y="-142.5" font-family="Helvetica,sans-Serif" font-size="10.00" fill="#000000">SU2::zeros</text>
</a>
</g>
</g>
<!-- Node21&#45;&gt;Node22 -->
<g id="edge7" class="edge">
<title>Node21&#45;&gt;Node22</title>
<path fill="none" stroke="#191970" d="M467.1269,-145.5C487.1295,-145.5 509.5133,-145.5 528.4204,-145.5"/>
<polygon fill="#191970" stroke="#191970" points="528.5295,-149.0001 538.5294,-145.5 528.5294,-142.0001 528.5295,-149.0001"/>
</g>
<!-- Node24 -->
<g id="node10" class="node">
<title>Node24</title>
<g id="a_node10"><a xlink:href="class_s_u3.html#a9f3527fd882882ddfa18d72f5f43176c" target="_top" xlink:title=" ">
<polygon fill="#ffffff" stroke="#000000" points="380.2207,-89.5 380.2207,-107.5 445.6836,-107.5 445.6836,-89.5 380.2207,-89.5"/>
<text text-anchor="middle" x="412.9521" y="-95.5" font-family="Helvetica,sans-Serif" font-size="10.00" fill="#000000">SU3::zeros</text>
</a>
</g>
</g>
<!-- Node23&#45;&gt;Node24 -->
<g id="edge9" class="edge">
<title>Node23&#45;&gt;Node24</title>
<path fill="none" stroke="#191970" d="M269.1374,-98.5C300.871,-98.5 340.417,-98.5 370.0041,-98.5"/>
<polygon fill="#191970" stroke="#191970" points="370.0249,-102.0001 380.0249,-98.5 370.0249,-95.0001 370.0249,-102.0001"/>
</g>
<!-- Node26&#45;&gt;Node16 -->
<g id="edge15" class="edge">
<title>Node26&#45;&gt;Node16</title>
<path fill="none" stroke="#191970" d="M224.8955,-317.8112C238.8016,-331.0085 264.9735,-355.9487 286.9746,-377.5 303.139,-393.3339 303.3137,-402.2995 322.9746,-413.5 327.4993,-416.0776 332.3143,-418.3709 337.2746,-420.4106"/>
<polygon fill="#191970" stroke="#191970" points="336.3617,-423.8058 346.9542,-424.0286 338.8125,-417.2489 336.3617,-423.8058"/>
</g>
<!-- Node27 -->
<g id="node13" class="node">
<title>Node27</title>
<g id="a_node13"><a xlink:href="class_parallel_1_1_communicator.html#a474ab433da0e83ef372d74e26a7e5cb0" target="_top" xlink:title=" ">
<polygon fill="#ffffff" stroke="#000000" points="352.9893,-375.5 352.9893,-403.5 472.915,-403.5 472.915,-375.5 352.9893,-375.5"/>
<text text-anchor="start" x="360.9893" y="-391.5" font-family="Helvetica,sans-Serif" font-size="10.00" fill="#000000">Parallel::Communicator</text>
<text text-anchor="middle" x="412.9521" y="-381.5" font-family="Helvetica,sans-Serif" font-size="10.00" fill="#000000">::getProcessRank</text>
</a>
</g>
</g>
<!-- Node26&#45;&gt;Node27 -->
<g id="edge12" class="edge">
<title>Node26&#45;&gt;Node27</title>
<path fill="none" stroke="#191970" d="M229.1887,-317.5423C249.3092,-330.0798 287.7011,-352.7489 322.9746,-366.5 329.3332,-368.9789 336.049,-371.2668 342.83,-373.3591"/>
<polygon fill="#191970" stroke="#191970" points="342.1963,-376.8209 352.7775,-376.2842 344.1711,-370.1052 342.1963,-376.8209"/>
</g>
<!-- Node28 -->
<g id="node14" class="node">
<title>Node28</title>
<g id="a_node14"><a xlink:href="class_sys_print.html#abdf8282e73cc002e5e572c6f09266cc9" target="_top" xlink:title="SysPrint::printLine prints a simple line for seperating outputs.">
<polygon fill="#ffffff" stroke="#000000" points="364.3784,-338.5 364.3784,-356.5 461.5259,-356.5 461.5259,-338.5 364.3784,-338.5"/>
<text text-anchor="middle" x="412.9521" y="-344.5" font-family="Helvetica,sans-Serif" font-size="10.00" fill="#000000">SysPrint::printLine</text>
</a>
</g>
</g>
<!-- Node26&#45;&gt;Node28 -->
<g id="edge13" class="edge">
<title>Node26&#45;&gt;Node28</title>
<path fill="none" stroke="#191970" d="M260.9605,-317.5454C289.5804,-323.1858 326.6074,-330.4831 356.9497,-336.463"/>
<polygon fill="#191970" stroke="#191970" points="356.4736,-339.9364 366.9617,-338.4362 357.8272,-333.0685 356.4736,-339.9364"/>
</g>
<!-- Node29 -->
<g id="node15" class="node">
<title>Node29</title>
<g id="a_node15"><a xlink:href="class_parallel_1_1_communicator.html#a7b1f80fb49a0cc83f2031c3415174150" target="_top" xlink:title=" ">
<polygon fill="#ffffff" stroke="#000000" points="352.9893,-291.5 352.9893,-319.5 472.915,-319.5 472.915,-291.5 352.9893,-291.5"/>
<text text-anchor="start" x="360.9893" y="-307.5" font-family="Helvetica,sans-Serif" font-size="10.00" fill="#000000">Parallel::Communicator</text>
<text text-anchor="middle" x="412.9521" y="-297.5" font-family="Helvetica,sans-Serif" font-size="10.00" fill="#000000">::getNumProc</text>
</a>
</g>
</g>
<!-- Node26&#45;&gt;Node29 -->
<g id="edge14" class="edge">
<title>Node26&#45;&gt;Node29</title>
<path fill="none" stroke="#191970" d="M279.3123,-307.526C299.4901,-307.2201 321.8721,-306.8808 342.4584,-306.5687"/>
<polygon fill="#191970" stroke="#191970" points="342.7736,-310.0644 352.7194,-306.4131 342.6675,-303.0652 342.7736,-310.0644"/>
</g>
<!-- Node30 -->
<g id="node16" class="node">
<title>Node30</title>
<g id="a_node16"><a xlink:href="class_parameters.html#afc824aec2ab48afe06829050d0fbe966" target="_top" xlink:title=" ">
<polygon fill="#ffffff" stroke="#000000" points="344.6421,-254.5 344.6421,-272.5 481.2622,-272.5 481.2622,-254.5 344.6421,-254.5"/>
<text text-anchor="middle" x="412.9521" y="-260.5" font-family="Helvetica,sans-Serif" font-size="10.00" fill="#000000">Parameters::getActionType</text>
</a>
</g>
</g>
<!-- Node26&#45;&gt;Node30 -->
<g id="edge16" class="edge">
<title>Node26&#45;&gt;Node30</title>
<path fill="none" stroke="#191970" d="M251.4667,-299.4575C272.3585,-294.3361 299.1029,-287.8951 322.9746,-282.5 334.6542,-279.8604 347.2131,-277.1366 359.1337,-274.6046"/>
<polygon fill="#191970" stroke="#191970" points="359.9024,-278.0195 368.9635,-272.5288 358.4561,-271.1706 359.9024,-278.0195"/>
</g>
<!-- Node31 -->
<g id="node17" class="node">
<title>Node31</title>
<g id="a_node17"><a xlink:href="class_parameters.html#a7f1edc3384a46b6e4fc5e380a8fe6d41" target="_top" xlink:title=" ">
<polygon fill="#ffffff" stroke="#000000" points="322.9746,-217.5 322.9746,-235.5 502.9297,-235.5 502.9297,-217.5 322.9746,-217.5"/>
<text text-anchor="middle" x="412.9521" y="-223.5" font-family="Helvetica,sans-Serif" font-size="10.00" fill="#000000">Parameters::getFlowObservablesList</text>
</a>
</g>
</g>
<!-- Node26&#45;&gt;Node31 -->
<g id="edge17" class="edge">
<title>Node26&#45;&gt;Node31</title>
<path fill="none" stroke="#191970" d="M268.1759,-299.4457C274.7889,-297.1151 281.2345,-294.1846 286.9746,-290.5 308.5286,-276.6644 301.1672,-258.9327 322.9746,-245.5 326.8254,-243.128 330.9258,-241.0483 335.1733,-239.2253"/>
<polygon fill="#191970" stroke="#191970" points="336.5545,-242.4448 344.6672,-235.6304 334.0757,-235.8984 336.5545,-242.4448"/>
</g>
<!-- Node32 -->
<g id="node18" class="node">
<title>Node32</title>
<g id="a_node18"><a xlink:href="class_parameters.html#a3b4e197b2569fb5465e0827430e45eb5" target="_top" xlink:title=" ">
<polygon fill="#ffffff" stroke="#000000" points="324.9131,-180.5 324.9131,-198.5 500.9912,-198.5 500.9912,-180.5 324.9131,-180.5"/>
<text text-anchor="middle" x="412.9521" y="-186.5" font-family="Helvetica,sans-Serif" font-size="10.00" fill="#000000">Parameters::getSamplingFrequency</text>
</a>
</g>
</g>
<!-- Node26&#45;&gt;Node32 -->
<g id="edge18" class="edge">
<title>Node26&#45;&gt;Node32</title>
<path fill="none" stroke="#191970" d="M272.4302,-299.4283C277.6841,-297.0823 282.6479,-294.1531 286.9746,-290.5 317.3864,-264.8227 292.091,-233.6078 322.9746,-208.5 325.2974,-206.6116 327.7626,-204.8979 330.3369,-203.3435"/>
<polygon fill="#191970" stroke="#191970" points="332.1703,-206.3364 339.4615,-198.6494 328.968,-200.1117 332.1703,-206.3364"/>
</g>
</g>
</svg>
