<?xml version="1.0" encoding="UTF-8" standalone="no"?>
<!DOCTYPE svg PUBLIC "-//W3C//DTD SVG 1.1//EN"
 "http://www.w3.org/Graphics/SVG/1.1/DTD/svg11.dtd">
<!-- Generated by graphviz version 2.40.1 (20161225.0304)
 -->
<!-- Title: MasterSamplerTopcXYZ::writeObservableToFile Pages: 1 -->
<svg width="694pt" height="296pt"
 viewBox="0.00 0.00 694.09 296.00" xmlns="http://www.w3.org/2000/svg" xmlns:xlink="http://www.w3.org/1999/xlink">
<g id="graph0" class="graph" transform="scale(1 1) rotate(0) translate(4 292)">
<title>MasterSamplerTopcXYZ::writeObservableToFile</title>
<polygon fill="#ffffff" stroke="transparent" points="-4,4 -4,-292 690.0918,-292 690.0918,4 -4,4"/>
<!-- Node89 -->
<g id="node1" class="node">
<title>Node89</title>
<g id="a_node1"><a xlink:title=" ">
<polygon fill="#bfbfbf" stroke="#000000" points="0,-124.5 0,-152.5 124.3691,-152.5 124.3691,-124.5 0,-124.5"/>
<text text-anchor="start" x="8" y="-140.5" font-family="Helvetica,sans-Serif" font-size="10.00" fill="#000000">MasterSamplerTopcXYZ</text>
<text text-anchor="middle" x="62.1846" y="-130.5" font-family="Helvetica,sans-Serif" font-size="10.00" fill="#000000">::writeObservableToFile</text>
</a>
</g>
</g>
<!-- Node90 -->
<g id="node2" class="node">
<title>Node90</title>
<g id="a_node2"><a xlink:href="class_observable_storer.html#a146f9acb8a0a2ce15782d26bdc4f0bf9" target="_top" xlink:title=" ">
<polygon fill="#ffffff" stroke="#000000" points="160.3691,-124.5 160.3691,-152.5 332.5459,-152.5 332.5459,-124.5 160.3691,-124.5"/>
<text text-anchor="start" x="168.3691" y="-140.5" font-family="Helvetica,sans-Serif" font-size="10.00" fill="#000000">ObservableStorer::writeObservable</text>
<text text-anchor="middle" x="246.4575" y="-130.5" font-family="Helvetica,sans-Serif" font-size="10.00" fill="#000000">ToFile</text>
</a>
</g>
</g>
<!-- Node89&#45;&gt;Node90 -->
<g id="edge1" class="edge">
<title>Node89&#45;&gt;Node90</title>
<path fill="none" stroke="#191970" d="M124.571,-138.5C132.8261,-138.5 141.4381,-138.5 150.0999,-138.5"/>
<polygon fill="#191970" stroke="#191970" points="150.2727,-142.0001 160.2727,-138.5 150.2727,-135.0001 150.2727,-142.0001"/>
</g>
<!-- Node91 -->
<g id="node3" class="node">
<title>Node91</title>
<g id="a_node3"><a xlink:href="namespace_i_o.html#ad8cf5aef8f60d10b80292b69a091d5ac" target="_top" xlink:title=" ">
<polygon fill="#ffffff" stroke="#000000" points="368.5459,-129.5 368.5459,-147.5 504.585,-147.5 504.585,-129.5 368.5459,-129.5"/>
<text text-anchor="middle" x="436.5654" y="-135.5" font-family="Helvetica,sans-Serif" font-size="10.00" fill="#000000">IO::writeObservablesToFile</text>
</a>
</g>
</g>
<!-- Node90&#45;&gt;Node91 -->
<g id="edge2" class="edge">
<title>Node90&#45;&gt;Node91</title>
<path fill="none" stroke="#191970" d="M332.6118,-138.5C341.1328,-138.5 349.75,-138.5 358.1863,-138.5"/>
<polygon fill="#191970" stroke="#191970" points="358.3685,-142.0001 368.3685,-138.5 358.3684,-135.0001 358.3685,-142.0001"/>
</g>
<!-- Node92 -->
<g id="node4" class="node">
<title>Node92</title>
<g id="a_node4"><a xlink:href="class_parallel_1_1_communicator.html#a474ab433da0e83ef372d74e26a7e5cb0" target="_top" xlink:title=" ">
<polygon fill="#ffffff" stroke="#000000" points="553.3755,-259.5 553.3755,-287.5 673.3013,-287.5 673.3013,-259.5 553.3755,-259.5"/>
<text text-anchor="start" x="561.3755" y="-275.5" font-family="Helvetica,sans-Serif" font-size="10.00" fill="#000000">Parallel::Communicator</text>
<text text-anchor="middle" x="613.3384" y="-265.5" font-family="Helvetica,sans-Serif" font-size="10.00" fill="#000000">::getProcessRank</text>
</a>
</g>
</g>
<!-- Node91&#45;&gt;Node92 -->
<g id="edge3" class="edge">
<title>Node91&#45;&gt;Node92</title>
<path fill="none" stroke="#191970" d="M442.4516,-147.5212C456.7115,-168.6726 495.2898,-221.8327 540.585,-250.5 543.1874,-252.1471 545.9173,-253.6847 548.7299,-255.1192"/>
<polygon fill="#191970" stroke="#191970" points="547.3923,-258.3564 557.9398,-259.3571 550.3185,-251.9974 547.3923,-258.3564"/>
</g>
<!-- Node93 -->
<g id="node5" class="node">
<title>Node93</title>
<g id="a_node5"><a xlink:href="class_parameters.html#abace4edb8ece38841b58c5ce6168cbc4" target="_top" xlink:title=" ">
<polygon fill="#ffffff" stroke="#000000" points="551.4248,-222.5 551.4248,-240.5 675.252,-240.5 675.252,-222.5 551.4248,-222.5"/>
<text text-anchor="middle" x="613.3384" y="-228.5" font-family="Helvetica,sans-Serif" font-size="10.00" fill="#000000">Parameters::getFilePath</text>
</a>
</g>
</g>
<!-- Node91&#45;&gt;Node93 -->
<g id="edge4" class="edge">
<title>Node91&#45;&gt;Node93</title>
<path fill="none" stroke="#191970" d="M446.3645,-147.5898C463.9013,-163.3665 502.401,-195.8206 540.585,-213.5 545.3338,-215.6987 550.3861,-217.6509 555.5295,-219.3796"/>
<polygon fill="#191970" stroke="#191970" points="554.8898,-222.8445 565.4767,-222.4349 556.9451,-216.153 554.8898,-222.8445"/>
</g>
<!-- Node94 -->
<g id="node6" class="node">
<title>Node94</title>
<g id="a_node6"><a xlink:href="class_parameters.html#afa4cfe5dc4302b1e8f8928606ea9b056" target="_top" xlink:title=" ">
<polygon fill="#ffffff" stroke="#000000" points="540.585,-185.5 540.585,-203.5 686.0918,-203.5 686.0918,-185.5 540.585,-185.5"/>
<text text-anchor="middle" x="613.3384" y="-191.5" font-family="Helvetica,sans-Serif" font-size="10.00" fill="#000000">Parameters::getOutputFolder</text>
</a>
</g>
</g>
<!-- Node91&#45;&gt;Node94 -->
<g id="edge5" class="edge">
<title>Node91&#45;&gt;Node94</title>
<path fill="none" stroke="#191970" d="M459.054,-147.5129C479.9629,-155.7014 512.0837,-167.7959 540.585,-176.5 548.0224,-178.7713 555.9524,-180.9632 563.7397,-182.9889"/>
<polygon fill="#191970" stroke="#191970" points="562.9258,-186.3932 573.4794,-185.4594 564.6469,-179.6081 562.9258,-186.3932"/>
</g>
<!-- Node95 -->
<g id="node7" class="node">
<title>Node95</title>
<g id="a_node7"><a xlink:href="class_parameters.html#a181a773d23fdb19d0c4f35e6cf2d5649" target="_top" xlink:title=" ">
<polygon fill="#ffffff" stroke="#000000" points="543.644,-148.5 543.644,-166.5 683.0327,-166.5 683.0327,-148.5 543.644,-148.5"/>
<text text-anchor="middle" x="613.3384" y="-154.5" font-family="Helvetica,sans-Serif" font-size="10.00" fill="#000000">Parameters::getBatchName</text>
</a>
</g>
</g>
<!-- Node91&#45;&gt;Node95 -->
<g id="edge6" class="edge">
<title>Node91&#45;&gt;Node95</title>
<path fill="none" stroke="#191970" d="M504.6576,-145.8187C514.114,-146.8351 523.8979,-147.8867 533.5441,-148.9235"/>
<polygon fill="#191970" stroke="#191970" points="533.2103,-152.4077 543.5271,-149.9965 533.9584,-145.4478 533.2103,-152.4077"/>
</g>
<!-- Node96 -->
<g id="node8" class="node">
<title>Node96</title>
<g id="a_node8"><a xlink:href="class_parameters.html#ae5c64523dc50dca13b417fe3d9e4175c" target="_top" xlink:title=" ">
<polygon fill="#ffffff" stroke="#000000" points="559.4814,-111.5 559.4814,-129.5 667.1953,-129.5 667.1953,-111.5 559.4814,-111.5"/>
<text text-anchor="middle" x="613.3384" y="-117.5" font-family="Helvetica,sans-Serif" font-size="10.00" fill="#000000">Parameters::getBeta</text>
</a>
</g>
</g>
<!-- Node91&#45;&gt;Node96 -->
<g id="edge7" class="edge">
<title>Node91&#45;&gt;Node96</title>
<path fill="none" stroke="#191970" d="M504.6576,-131.5665C519.2148,-130.0842 534.5485,-128.5228 548.9606,-127.0553"/>
<polygon fill="#191970" stroke="#191970" points="549.6738,-130.5009 559.2677,-126.0058 548.9646,-123.5369 549.6738,-130.5009"/>
</g>
<!-- Node97 -->
<g id="node9" class="node">
<title>Node97</title>
<g id="a_node9"><a xlink:href="class_parameters.html#a0fd902d5efcd8dce17dbc3ea4177820d" target="_top" xlink:title=" ">
<polygon fill="#ffffff" stroke="#000000" points="558.0996,-74.5 558.0996,-92.5 668.5771,-92.5 668.5771,-74.5 558.0996,-74.5"/>
<text text-anchor="middle" x="613.3384" y="-80.5" font-family="Helvetica,sans-Serif" font-size="10.00" fill="#000000">Parameters::getNCor</text>
</a>
</g>
</g>
<!-- Node91&#45;&gt;Node97 -->
<g id="edge8" class="edge">
<title>Node91&#45;&gt;Node97</title>
<path fill="none" stroke="#191970" d="M461.1889,-129.3719C482.1554,-121.7457 513.1527,-110.8153 540.585,-102.5 549.0266,-99.9412 558.0805,-97.4094 566.8354,-95.0688"/>
<polygon fill="#191970" stroke="#191970" points="567.763,-98.4439 576.5443,-92.516 565.9829,-91.674 567.763,-98.4439"/>
</g>
<!-- Node98 -->
<g id="node10" class="node">
<title>Node98</title>
<g id="a_node10"><a xlink:href="class_parameters.html#a03f8c0aa2a31b9bfc016441cb263082c" target="_top" xlink:title=" ">
<polygon fill="#ffffff" stroke="#000000" points="561.1563,-37.5 561.1563,-55.5 665.5205,-55.5 665.5205,-37.5 561.1563,-37.5"/>
<text text-anchor="middle" x="613.3384" y="-43.5" font-family="Helvetica,sans-Serif" font-size="10.00" fill="#000000">Parameters::getNCf</text>
</a>
</g>
</g>
<!-- Node91&#45;&gt;Node98 -->
<g id="edge9" class="edge">
<title>Node91&#45;&gt;Node98</title>
<path fill="none" stroke="#191970" d="M446.7176,-129.4737C464.4917,-114.1288 502.9477,-82.9296 540.585,-65.5 546.2599,-62.872 552.3586,-60.5622 558.5238,-58.5435"/>
<polygon fill="#191970" stroke="#191970" points="559.6599,-61.8565 568.2153,-55.6072 557.63,-55.1573 559.6599,-61.8565"/>
</g>
<!-- Node99 -->
<g id="node11" class="node">
<title>Node99</title>
<g id="a_node11"><a xlink:href="class_parameters.html#ad1f56cc1bb6c19f40454b30a5bc82da6" target="_top" xlink:title=" ">
<polygon fill="#ffffff" stroke="#000000" points="551.7104,-.5 551.7104,-18.5 674.9663,-18.5 674.9663,-.5 551.7104,-.5"/>
<text text-anchor="middle" x="613.3384" y="-6.5" font-family="Helvetica,sans-Serif" font-size="10.00" fill="#000000">Parameters::getNTherm</text>
</a>
</g>
</g>
<!-- Node91&#45;&gt;Node99 -->
<g id="edge10" class="edge">
<title>Node91&#45;&gt;Node99</title>
<path fill="none" stroke="#191970" d="M442.3988,-129.4912C456.5446,-108.3962 494.8943,-55.5412 540.585,-28.5 544.7206,-26.0524 549.1713,-23.9158 553.7608,-22.0515"/>
<polygon fill="#191970" stroke="#191970" points="555.1064,-25.2867 563.3201,-18.5944 552.7258,-18.704 555.1064,-25.2867"/>
</g>
</g>
</svg>
