<?xml version="1.0" encoding="UTF-8" standalone="no"?>
<!DOCTYPE svg PUBLIC "-//W3C//DTD SVG 1.1//EN"
 "http://www.w3.org/Graphics/SVG/1.1/DTD/svg11.dtd">
<!-- Generated by graphviz version 2.40.1 (20161225.0304)
 -->
<!-- Title: LatticeActionChargeDensity::initializeObservableStorer Pages: 1 -->
<svg width="328pt" height="37pt"
 viewBox="0.00 0.00 328.35 37.00" xmlns="http://www.w3.org/2000/svg" xmlns:xlink="http://www.w3.org/1999/xlink">
<g id="graph0" class="graph" transform="scale(1 1) rotate(0) translate(4 33)">
<title>LatticeActionChargeDensity::initializeObservableStorer</title>
<polygon fill="#ffffff" stroke="transparent" points="-4,4 -4,-33 324.3535,-33 324.3535,4 -4,4"/>
<!-- Node53 -->
<g id="node1" class="node">
<title>Node53</title>
<g id="a_node1"><a xlink:title=" ">
<polygon fill="#bfbfbf" stroke="#000000" points="180.9551,-.5 180.9551,-28.5 320.3535,-28.5 320.3535,-.5 180.9551,-.5"/>
<text text-anchor="start" x="188.9551" y="-16.5" font-family="Helvetica,sans-Serif" font-size="10.00" fill="#000000">LatticeActionChargeDensity</text>
<text text-anchor="middle" x="250.6543" y="-6.5" font-family="Helvetica,sans-Serif" font-size="10.00" fill="#000000">::initializeObservableStorer</text>
</a>
</g>
</g>
<!-- Node54 -->
<g id="node2" class="node">
<title>Node54</title>
<g id="a_node2"><a xlink:href="class_lattice_action_charge_density.html#acda2a43db75cca34586441d4ac7ec39e" target="_top" xlink:title=" ">
<polygon fill="#ffffff" stroke="#000000" points="0,-.5 0,-28.5 144.9551,-28.5 144.9551,-.5 0,-.5"/>
<text text-anchor="start" x="8" y="-16.5" font-family="Helvetica,sans-Serif" font-size="10.00" fill="#000000">LatticeActionChargeDensity</text>
<text text-anchor="middle" x="72.4775" y="-6.5" font-family="Helvetica,sans-Serif" font-size="10.00" fill="#000000">::LatticeActionChargeDensity</text>
</a>
</g>
</g>
<!-- Node53&#45;&gt;Node54 -->
<g id="edge1" class="edge">
<title>Node53&#45;&gt;Node54</title>
<path fill="none" stroke="#191970" d="M170.5046,-14.5C162.0478,-14.5 153.4824,-14.5 145.1175,-14.5"/>
<polygon fill="#191970" stroke="#191970" points="170.7455,-18.0001 180.7455,-14.5 170.7455,-11.0001 170.7455,-18.0001"/>
</g>
</g>
</svg>
