<?xml version="1.0" encoding="UTF-8" standalone="no"?>
<!DOCTYPE svg PUBLIC "-//W3C//DTD SVG 1.1//EN"
 "http://www.w3.org/Graphics/SVG/1.1/DTD/svg11.dtd">
<!-- Generated by graphviz version 2.40.1 (20161225.0304)
 -->
<!-- Title: SuperSampler::calculate Pages: 1 -->
<svg width="474pt" height="399pt"
 viewBox="0.00 0.00 474.47 399.00" xmlns="http://www.w3.org/2000/svg" xmlns:xlink="http://www.w3.org/1999/xlink">
<g id="graph0" class="graph" transform="scale(1 1) rotate(0) translate(4 395)">
<title>SuperSampler::calculate</title>
<polygon fill="#ffffff" stroke="transparent" points="-4,4 -4,-395 470.4746,-395 470.4746,4 -4,4"/>
<!-- Node14 -->
<g id="node1" class="node">
<title>Node14</title>
<g id="a_node1"><a xlink:title="Correlator::calculate calculates a observable.">
<polygon fill="#bfbfbf" stroke="#000000" points="0,-167.5 0,-185.5 124.9453,-185.5 124.9453,-167.5 0,-167.5"/>
<text text-anchor="middle" x="62.4727" y="-173.5" font-family="Helvetica,sans-Serif" font-size="10.00" fill="#000000">SuperSampler::calculate</text>
</a>
</g>
</g>
<!-- Node15 -->
<g id="node2" class="node">
<title>Node15</title>
<g id="a_node2"><a xlink:href="lattice_8h.html#a53bbfaed8f54ee3a1db6f8049686ccdf" target="_top" xlink:title="shift copies the lattice L and shifts it in a specified lorentzVector direction DIR.">
<polygon fill="#ffffff" stroke="#000000" points="213.0034,-335.5 213.0034,-353.5 247.3433,-353.5 247.3433,-335.5 213.0034,-335.5"/>
<text text-anchor="middle" x="230.1733" y="-341.5" font-family="Helvetica,sans-Serif" font-size="10.00" fill="#000000">shift</text>
</a>
</g>
</g>
<!-- Node14&#45;&gt;Node15 -->
<g id="edge1" class="edge">
<title>Node14&#45;&gt;Node15</title>
<path fill="none" stroke="#191970" d="M65.7189,-185.5961C75.5767,-211.8623 107.7832,-288.3761 160.9453,-326.5 173.049,-335.1799 189.0068,-339.6776 202.5506,-342.0066"/>
<polygon fill="#191970" stroke="#191970" points="202.3845,-345.5177 212.7752,-343.448 203.3617,-338.5863 202.3845,-345.5177"/>
</g>
<!-- Node20 -->
<g id="node7" class="node">
<title>Node20</title>
<g id="a_node7"><a xlink:href="lattice_8h.html#a491004d1505561625a8915464f3c6cab" target="_top" xlink:title=" ">
<polygon fill="#ffffff" stroke="#000000" points="215.6733,-298.5 215.6733,-316.5 244.6733,-316.5 244.6733,-298.5 215.6733,-298.5"/>
<text text-anchor="middle" x="230.1733" y="-304.5" font-family="Helvetica,sans-Serif" font-size="10.00" fill="#000000">inv</text>
</a>
</g>
</g>
<!-- Node14&#45;&gt;Node20 -->
<g id="edge6" class="edge">
<title>Node14&#45;&gt;Node20</title>
<path fill="none" stroke="#191970" d="M67.8024,-185.7701C80.7777,-207.4741 116.2483,-261.8382 160.9453,-289.5 174.3603,-297.8022 191.5091,-302.2972 205.3824,-304.7191"/>
<polygon fill="#191970" stroke="#191970" points="205.2661,-308.2403 215.6724,-306.2502 206.2964,-301.3165 205.2661,-308.2403"/>
</g>
<!-- Node21 -->
<g id="node8" class="node">
<title>Node21</title>
<g id="a_node8"><a xlink:href="lattice_8h.html#a8267d6f1684a10b876409efeb6f66fe9" target="_top" xlink:title=" ">
<polygon fill="#ffffff" stroke="#000000" points="189.8467,-111.5 189.8467,-129.5 270.5,-129.5 270.5,-111.5 189.8467,-111.5"/>
<text text-anchor="middle" x="230.1733" y="-117.5" font-family="Helvetica,sans-Serif" font-size="10.00" fill="#000000">sumRealTrace</text>
</a>
</g>
</g>
<!-- Node14&#45;&gt;Node21 -->
<g id="edge8" class="edge">
<title>Node14&#45;&gt;Node21</title>
<path fill="none" stroke="#191970" d="M83.7356,-167.4855C103.5114,-159.2959 133.9075,-147.2007 160.9453,-138.5 167.8534,-136.277 175.215,-134.1309 182.4631,-132.1425"/>
<polygon fill="#191970" stroke="#191970" points="183.4647,-135.4978 192.2232,-129.5364 181.6587,-128.7348 183.4647,-135.4978"/>
</g>
<!-- Node22 -->
<g id="node9" class="node">
<title>Node22</title>
<g id="a_node9"><a xlink:href="lattice_8h.html#a0289122f97ef3c8e2dfc3bfaf5b8f52d" target="_top" xlink:title=" ">
<polygon fill="#ffffff" stroke="#000000" points="198.7383,-74.5 198.7383,-92.5 261.6084,-92.5 261.6084,-74.5 198.7383,-74.5"/>
<text text-anchor="middle" x="230.1733" y="-80.5" font-family="Helvetica,sans-Serif" font-size="10.00" fill="#000000">imagTrace</text>
</a>
</g>
</g>
<!-- Node14&#45;&gt;Node22 -->
<g id="edge9" class="edge">
<title>Node14&#45;&gt;Node22</title>
<path fill="none" stroke="#191970" d="M71.6716,-167.4274C88.153,-151.6773 124.4197,-119.263 160.9453,-101.5 169.5567,-97.3121 179.2613,-94.014 188.6192,-91.4496"/>
<polygon fill="#191970" stroke="#191970" points="189.7248,-94.7806 198.5693,-88.9476 188.0177,-87.992 189.7248,-94.7806"/>
</g>
<!-- Node23 -->
<g id="node10" class="node">
<title>Node23</title>
<g id="a_node10"><a xlink:href="lattice_8h.html#aa2ccd37933994e50a9c9669725ee0e9e" target="_top" xlink:title=" ">
<polygon fill="#ffffff" stroke="#000000" points="193.272,-37.5 193.272,-55.5 267.0747,-55.5 267.0747,-37.5 193.272,-37.5"/>
<text text-anchor="middle" x="230.1733" y="-43.5" font-family="Helvetica,sans-Serif" font-size="10.00" fill="#000000">subtractImag</text>
</a>
</g>
</g>
<!-- Node14&#45;&gt;Node23 -->
<g id="edge10" class="edge">
<title>Node14&#45;&gt;Node23</title>
<path fill="none" stroke="#191970" d="M67.8243,-167.313C80.8469,-145.8033 116.4122,-91.9249 160.9453,-64.5 167.7111,-60.3334 175.4194,-57.1252 183.1765,-54.6565"/>
<polygon fill="#191970" stroke="#191970" points="184.2798,-57.9821 192.961,-51.9086 182.3871,-51.2429 184.2798,-57.9821"/>
</g>
<!-- Node24 -->
<g id="node11" class="node">
<title>Node24</title>
<g id="a_node11"><a xlink:href="class_lattice.html#a85154fbd1b0ae42af329135c6cd11f34" target="_top" xlink:title="copy method for copying content of another lattice B onto itself.">
<polygon fill="#ffffff" stroke="#000000" points="194.1021,-.5 194.1021,-18.5 266.2446,-18.5 266.2446,-.5 194.1021,-.5"/>
<text text-anchor="middle" x="230.1733" y="-6.5" font-family="Helvetica,sans-Serif" font-size="10.00" fill="#000000">Lattice::copy</text>
</a>
</g>
</g>
<!-- Node14&#45;&gt;Node24 -->
<g id="edge11" class="edge">
<title>Node14&#45;&gt;Node24</title>
<path fill="none" stroke="#191970" d="M65.7373,-167.4641C75.6447,-141.3717 107.9724,-65.3651 160.9453,-27.5 167.7686,-22.6227 175.8101,-19.066 183.9521,-16.4726"/>
<polygon fill="#191970" stroke="#191970" points="185.1361,-19.7774 193.8583,-13.763 183.2892,-13.0255 185.1361,-19.7774"/>
</g>
<!-- Node25 -->
<g id="node12" class="node">
<title>Node25</title>
<g id="a_node12"><a xlink:href="lattice_8h.html#a19c12b39277c18bf341c75cc2929b314" target="_top" xlink:title=" ">
<polygon fill="#ffffff" stroke="#000000" points="197.4395,-261.5 197.4395,-279.5 262.9072,-279.5 262.9072,-261.5 197.4395,-261.5"/>
<text text-anchor="middle" x="230.1733" y="-267.5" font-family="Helvetica,sans-Serif" font-size="10.00" fill="#000000">sumSpatial</text>
</a>
</g>
</g>
<!-- Node14&#45;&gt;Node25 -->
<g id="edge12" class="edge">
<title>Node14&#45;&gt;Node25</title>
<path fill="none" stroke="#191970" d="M71.6464,-185.7002C88.089,-201.6706 124.2974,-234.5324 160.9453,-252.5 169.1278,-256.5117 178.3076,-259.7025 187.2407,-262.2134"/>
<polygon fill="#191970" stroke="#191970" points="186.5983,-265.6621 197.1552,-264.7669 188.3442,-258.8833 186.5983,-265.6621"/>
</g>
<!-- Node26 -->
<g id="node13" class="node">
<title>Node26</title>
<g id="a_node13"><a xlink:href="lattice_8h.html#ab2d48b63b79e5e5ee3ca25483fe98b3e" target="_top" xlink:title=" ">
<polygon fill="#ffffff" stroke="#000000" points="172.3369,-224.5 172.3369,-242.5 288.0098,-242.5 288.0098,-224.5 172.3369,-224.5"/>
<text text-anchor="middle" x="230.1733" y="-230.5" font-family="Helvetica,sans-Serif" font-size="10.00" fill="#000000">realTraceMultiplication</text>
</a>
</g>
</g>
<!-- Node14&#45;&gt;Node26 -->
<g id="edge14" class="edge">
<title>Node14&#45;&gt;Node26</title>
<path fill="none" stroke="#191970" d="M89.0453,-185.5318C117.297,-195.1343 162.1659,-210.3849 193.7118,-221.107"/>
<polygon fill="#191970" stroke="#191970" points="192.8535,-224.5119 203.4479,-224.4162 195.1062,-217.8843 192.8535,-224.5119"/>
</g>
<!-- Node27 -->
<g id="node14" class="node">
<title>Node27</title>
<g id="a_node14"><a xlink:href="class_lattice.html#a1e8bfb54f85e78f2c97e8b90d2b47dc9" target="_top" xlink:title="zeros sets all of the SU3 elements in the lattice to zero.">
<polygon fill="#ffffff" stroke="#000000" points="363.2017,-205.5 363.2017,-223.5 438.6743,-223.5 438.6743,-205.5 363.2017,-205.5"/>
<text text-anchor="middle" x="400.938" y="-211.5" font-family="Helvetica,sans-Serif" font-size="10.00" fill="#000000">Lattice::zeros</text>
</a>
</g>
</g>
<!-- Node14&#45;&gt;Node27 -->
<g id="edge21" class="edge">
<title>Node14&#45;&gt;Node27</title>
<path fill="none" stroke="#191970" d="M124.9469,-183.5141C190.7169,-190.8982 292.8479,-202.3646 352.6874,-209.0828"/>
<polygon fill="#191970" stroke="#191970" points="352.6635,-212.6021 362.9916,-210.2397 353.4445,-205.6458 352.6635,-212.6021"/>
</g>
<!-- Node29 -->
<g id="node16" class="node">
<title>Node29</title>
<g id="a_node16"><a xlink:href="lattice_8h.html#a2a635fe0bbbaca1e8903db8d3bf61f01" target="_top" xlink:title=" ">
<polygon fill="#ffffff" stroke="#000000" points="160.9453,-148.5 160.9453,-166.5 299.4014,-166.5 299.4014,-148.5 160.9453,-148.5"/>
<text text-anchor="middle" x="230.1733" y="-154.5" font-family="Helvetica,sans-Serif" font-size="10.00" fill="#000000">sumRealTraceMultiplication</text>
</a>
</g>
</g>
<!-- Node14&#45;&gt;Node29 -->
<g id="edge19" class="edge">
<title>Node14&#45;&gt;Node29</title>
<path fill="none" stroke="#191970" d="M125.3953,-169.371C133.6787,-168.4326 142.2531,-167.4611 150.7663,-166.4966"/>
<polygon fill="#191970" stroke="#191970" points="151.1685,-169.9735 160.7108,-165.3699 150.3804,-163.018 151.1685,-169.9735"/>
</g>
<!-- Node16 -->
<g id="node3" class="node">
<title>Node16</title>
<g id="a_node3"><a xlink:href="class_lattice.html#a5b4e162f06f7b4b90b4a9335ed2aabb5" target="_top" xlink:title="allocate method for allocating memory.">
<polygon fill="#ffffff" stroke="#000000" points="358.1943,-298.5 358.1943,-316.5 443.6816,-316.5 443.6816,-298.5 358.1943,-298.5"/>
<text text-anchor="middle" x="400.938" y="-304.5" font-family="Helvetica,sans-Serif" font-size="10.00" fill="#000000">Lattice::allocate</text>
</a>
</g>
</g>
<!-- Node15&#45;&gt;Node16 -->
<g id="edge2" class="edge">
<title>Node15&#45;&gt;Node16</title>
<path fill="none" stroke="#191970" d="M247.4869,-340.7486C271.1792,-335.6152 314.7143,-326.1823 349.3779,-318.6716"/>
<polygon fill="#191970" stroke="#191970" points="350.3242,-322.0479 359.3562,-316.5096 348.8418,-315.2067 350.3242,-322.0479"/>
</g>
<!-- Node17 -->
<g id="node4" class="node">
<title>Node17</title>
<g id="a_node4"><a xlink:href="class_parallel_1_1_index.html#ac406d7ceb12e986a66d64ef98fcef5d3" target="_top" xlink:title=" ">
<polygon fill="#ffffff" stroke="#000000" points="335.4014,-372.5 335.4014,-390.5 466.4746,-390.5 466.4746,-372.5 335.4014,-372.5"/>
<text text-anchor="middle" x="400.938" y="-378.5" font-family="Helvetica,sans-Serif" font-size="10.00" fill="#000000">Parallel::Index::cubeIndex</text>
</a>
</g>
</g>
<!-- Node15&#45;&gt;Node17 -->
<g id="edge3" class="edge">
<title>Node15&#45;&gt;Node17</title>
<path fill="none" stroke="#191970" d="M247.4869,-348.2514C271.1792,-353.3848 314.7143,-362.8177 349.3779,-370.3284"/>
<polygon fill="#191970" stroke="#191970" points="348.8418,-373.7933 359.3562,-372.4904 350.3242,-366.9521 348.8418,-373.7933"/>
</g>
<!-- Node18 -->
<g id="node5" class="node">
<title>Node18</title>
<g id="a_node5"><a xlink:href="class_parallel_1_1_index.html#af31faeef1369fdc0997d1910e008bfe2" target="_top" xlink:title=" ">
<polygon fill="#ffffff" stroke="#000000" points="339.293,-261.5 339.293,-279.5 462.583,-279.5 462.583,-261.5 339.293,-261.5"/>
<text text-anchor="middle" x="400.938" y="-267.5" font-family="Helvetica,sans-Serif" font-size="10.00" fill="#000000">Parallel::Index::getIndex</text>
</a>
</g>
</g>
<!-- Node15&#45;&gt;Node18 -->
<g id="edge4" class="edge">
<title>Node15&#45;&gt;Node18</title>
<path fill="none" stroke="#191970" d="M247.3773,-342.6572C262.0186,-340.4954 283.1914,-335.9268 299.4014,-326.5 319.2352,-314.9658 315.7298,-301.3088 335.4014,-289.5 339.3356,-287.1383 343.5796,-285.0563 347.9496,-283.2235"/>
<polygon fill="#191970" stroke="#191970" points="349.5059,-286.3783 357.6463,-279.5971 347.0539,-279.8218 349.5059,-286.3783"/>
</g>
<!-- Node19 -->
<g id="node6" class="node">
<title>Node19</title>
<g id="a_node6"><a xlink:href="class_parallel_1_1_neighbours.html#a84653f3e22436280ac5a4689a24e7146" target="_top" xlink:title=" ">
<polygon fill="#ffffff" stroke="#000000" points="338.1846,-335.5 338.1846,-353.5 463.6914,-353.5 463.6914,-335.5 338.1846,-335.5"/>
<text text-anchor="middle" x="400.938" y="-341.5" font-family="Helvetica,sans-Serif" font-size="10.00" fill="#000000">Parallel::Neighbours::get</text>
</a>
</g>
</g>
<!-- Node15&#45;&gt;Node19 -->
<g id="edge5" class="edge">
<title>Node15&#45;&gt;Node19</title>
<path fill="none" stroke="#191970" d="M247.4869,-344.5C266.4491,-344.5 298.1219,-344.5 327.7841,-344.5"/>
<polygon fill="#191970" stroke="#191970" points="328.168,-348.0001 338.168,-344.5 328.1679,-341.0001 328.168,-348.0001"/>
</g>
<!-- Node20&#45;&gt;Node16 -->
<g id="edge7" class="edge">
<title>Node20&#45;&gt;Node16</title>
<path fill="none" stroke="#191970" d="M244.7326,-307.5C267.3427,-307.5 312.0202,-307.5 347.8228,-307.5"/>
<polygon fill="#191970" stroke="#191970" points="348.1361,-311.0001 358.1361,-307.5 348.1361,-304.0001 348.1361,-311.0001"/>
</g>
<!-- Node25&#45;&gt;Node18 -->
<g id="edge13" class="edge">
<title>Node25&#45;&gt;Node18</title>
<path fill="none" stroke="#191970" d="M263.0985,-270.5C281.8408,-270.5 306.0891,-270.5 329.0103,-270.5"/>
<polygon fill="#191970" stroke="#191970" points="329.0768,-274.0001 339.0768,-270.5 329.0767,-267.0001 329.0768,-274.0001"/>
</g>
<!-- Node26&#45;&gt;Node16 -->
<g id="edge15" class="edge">
<title>Node26&#45;&gt;Node16</title>
<path fill="none" stroke="#191970" d="M276.63,-242.5676C284.5298,-245.1278 292.426,-248.3804 299.4014,-252.5 319.157,-264.1677 315.6468,-277.8305 335.4014,-289.5 339.5031,-291.923 343.9412,-294.0294 348.5075,-295.8589"/>
<polygon fill="#191970" stroke="#191970" points="347.3992,-299.1795 357.9939,-299.2378 349.748,-292.5853 347.3992,-299.1795"/>
</g>
<!-- Node26&#45;&gt;Node18 -->
<g id="edge17" class="edge">
<title>Node26&#45;&gt;Node18</title>
<path fill="none" stroke="#191970" d="M271.9471,-242.5512C295.2916,-247.6093 324.5814,-253.9556 349.348,-259.3219"/>
<polygon fill="#191970" stroke="#191970" points="348.7855,-262.7811 359.2999,-261.4782 350.2679,-255.9399 348.7855,-262.7811"/>
</g>
<!-- Node26&#45;&gt;Node27 -->
<g id="edge16" class="edge">
<title>Node26&#45;&gt;Node27</title>
<path fill="none" stroke="#191970" d="M288.4632,-227.0144C309.444,-224.68 332.8597,-222.0747 352.8709,-219.8481"/>
<polygon fill="#191970" stroke="#191970" points="353.4426,-223.3062 362.9942,-218.7218 352.6685,-216.3492 353.4426,-223.3062"/>
</g>
<!-- Node28 -->
<g id="node15" class="node">
<title>Node28</title>
<g id="a_node15"><a xlink:href="functions_8h.html#a93863171e3da962b61804144857576a7" target="_top" xlink:title="traceRealMultiplication">
<polygon fill="#ffffff" stroke="#000000" points="342.6377,-168.5 342.6377,-186.5 459.2383,-186.5 459.2383,-168.5 342.6377,-168.5"/>
<text text-anchor="middle" x="400.938" y="-174.5" font-family="Helvetica,sans-Serif" font-size="10.00" fill="#000000">traceRealMultiplication</text>
</a>
</g>
</g>
<!-- Node26&#45;&gt;Node28 -->
<g id="edge18" class="edge">
<title>Node26&#45;&gt;Node28</title>
<path fill="none" stroke="#191970" d="M254.7053,-224.4367C275.9482,-216.6937 307.5551,-205.4244 335.4014,-196.5 342.9369,-194.085 351.0018,-191.6367 358.8069,-189.3369"/>
<polygon fill="#191970" stroke="#191970" points="359.8716,-192.6723 368.4949,-186.5169 357.9152,-185.9512 359.8716,-192.6723"/>
</g>
<!-- Node29&#45;&gt;Node28 -->
<g id="edge20" class="edge">
<title>Node29&#45;&gt;Node28</title>
<path fill="none" stroke="#191970" d="M299.6299,-165.6348C310.406,-166.8969 321.5331,-168.2001 332.2912,-169.4601"/>
<polygon fill="#191970" stroke="#191970" points="332.1298,-172.965 342.4691,-170.6521 332.9441,-166.0125 332.1298,-172.965"/>
</g>
</g>
</svg>
