<?xml version="1.0" encoding="UTF-8" standalone="no"?>
<!DOCTYPE svg PUBLIC "-//W3C//DTD SVG 1.1//EN"
 "http://www.w3.org/Graphics/SVG/1.1/DTD/svg11.dtd">
<!-- Generated by graphviz version 2.40.1 (20161225.0304)
 -->
<!-- Title: MasterSampler::MasterSampler Pages: 1 -->
<svg width="564pt" height="232pt"
 viewBox="0.00 0.00 564.29 232.00" xmlns="http://www.w3.org/2000/svg" xmlns:xlink="http://www.w3.org/1999/xlink">
<g id="graph0" class="graph" transform="scale(1 1) rotate(0) translate(4 228)">
<title>MasterSampler::MasterSampler</title>
<polygon fill="#ffffff" stroke="transparent" points="-4,4 -4,-228 560.2891,-228 560.2891,4 -4,4"/>
<!-- Node0 -->
<g id="node1" class="node">
<title>Node0</title>
<g id="a_node1"><a xlink:title=" ">
<polygon fill="#bfbfbf" stroke="#000000" points="0,-60.5 0,-78.5 157.1523,-78.5 157.1523,-60.5 0,-60.5"/>
<text text-anchor="middle" x="78.5762" y="-66.5" font-family="Helvetica,sans-Serif" font-size="10.00" fill="#000000">MasterSampler::MasterSampler</text>
</a>
</g>
</g>
<!-- Node1 -->
<g id="node2" class="node">
<title>Node1</title>
<g id="a_node2"><a xlink:href="class_master_sampler.html#a88e2eec68ea6bd60cc3f375ac04a8ded" target="_top" xlink:title="Correlator::initializeObservableStorer initializes ObservableStorer.">
<polygon fill="#ffffff" stroke="#000000" points="198.7188,-97.5 198.7188,-125.5 323.6445,-125.5 323.6445,-97.5 198.7188,-97.5"/>
<text text-anchor="start" x="206.7188" y="-113.5" font-family="Helvetica,sans-Serif" font-size="10.00" fill="#000000">MasterSampler::initialize</text>
<text text-anchor="middle" x="261.1816" y="-103.5" font-family="Helvetica,sans-Serif" font-size="10.00" fill="#000000">ObservableStorer</text>
</a>
</g>
</g>
<!-- Node0&#45;&gt;Node1 -->
<g id="edge1" class="edge">
<title>Node0&#45;&gt;Node1</title>
<path fill="none" stroke="#191970" d="M117.7496,-78.5101C138.8418,-83.3614 165.5159,-89.4965 190.1239,-95.1564"/>
<polygon fill="#191970" stroke="#191970" points="189.6274,-98.6336 200.1575,-97.4642 191.1965,-91.8117 189.6274,-98.6336"/>
</g>
<!-- Node8 -->
<g id="node9" class="node">
<title>Node8</title>
<g id="a_node9"><a xlink:href="class_parameters.html#a128ccc4cb31e9930a825cfd3b8e83d2e" target="_top" xlink:title=" ">
<polygon fill="#ffffff" stroke="#000000" points="193.1523,-60.5 193.1523,-78.5 329.2109,-78.5 329.2109,-60.5 193.1523,-60.5"/>
<text text-anchor="middle" x="261.1816" y="-66.5" font-family="Helvetica,sans-Serif" font-size="10.00" fill="#000000">Parameters::getLatticeSize</text>
</a>
</g>
</g>
<!-- Node0&#45;&gt;Node8 -->
<g id="edge8" class="edge">
<title>Node0&#45;&gt;Node8</title>
<path fill="none" stroke="#191970" d="M157.3423,-69.5C165.7831,-69.5 174.3697,-69.5 182.806,-69.5"/>
<polygon fill="#191970" stroke="#191970" points="183.0021,-73.0001 193.002,-69.5 183.002,-66.0001 183.0021,-73.0001"/>
</g>
<!-- Node9 -->
<g id="node10" class="node">
<title>Node9</title>
<g id="a_node10"><a xlink:href="class_lattice.html#a5b4e162f06f7b4b90b4a9335ed2aabb5" target="_top" xlink:title="allocate method for allocating memory.">
<polygon fill="#ffffff" stroke="#000000" points="218.438,-23.5 218.438,-41.5 303.9253,-41.5 303.9253,-23.5 218.438,-23.5"/>
<text text-anchor="middle" x="261.1816" y="-29.5" font-family="Helvetica,sans-Serif" font-size="10.00" fill="#000000">Lattice::allocate</text>
</a>
</g>
</g>
<!-- Node0&#45;&gt;Node9 -->
<g id="edge9" class="edge">
<title>Node0&#45;&gt;Node9</title>
<path fill="none" stroke="#191970" d="M123.2465,-60.4488C148.8998,-55.2508 181.2669,-48.6925 208.1993,-43.2354"/>
<polygon fill="#191970" stroke="#191970" points="209.1242,-46.6192 218.2299,-41.203 207.734,-39.7586 209.1242,-46.6192"/>
</g>
<!-- Node2 -->
<g id="node3" class="node">
<title>Node2</title>
<g id="a_node3"><a xlink:href="class_parameters.html#aae314edb18d426571ab7b6df60da70aa" target="_top" xlink:title=" ">
<polygon fill="#ffffff" stroke="#000000" points="400.5112,-205.5 400.5112,-223.5 520.9888,-223.5 520.9888,-205.5 400.5112,-205.5"/>
<text text-anchor="middle" x="460.75" y="-211.5" font-family="Helvetica,sans-Serif" font-size="10.00" fill="#000000">Parameters::getNFlows</text>
</a>
</g>
</g>
<!-- Node1&#45;&gt;Node2 -->
<g id="edge2" class="edge">
<title>Node1&#45;&gt;Node2</title>
<path fill="none" stroke="#191970" d="M274.0954,-125.8109C292.3819,-145.1146 327.7853,-179.0795 365.2109,-196.5 373.1602,-200.2001 381.8174,-203.1398 390.568,-205.4752"/>
<polygon fill="#191970" stroke="#191970" points="389.9123,-208.9174 400.4545,-207.8636 391.5561,-202.1132 389.9123,-208.9174"/>
</g>
<!-- Node3 -->
<g id="node4" class="node">
<title>Node3</title>
<g id="a_node4"><a xlink:href="class_parameters.html#a216f85b3c5980a33f8a54c42fb3575c7" target="_top" xlink:title=" ">
<polygon fill="#ffffff" stroke="#000000" points="372.4375,-158.5 372.4375,-186.5 549.0625,-186.5 549.0625,-158.5 372.4375,-158.5"/>
<text text-anchor="start" x="380.4375" y="-174.5" font-family="Helvetica,sans-Serif" font-size="10.00" fill="#000000">Parameters::getStoreThermalization</text>
<text text-anchor="middle" x="460.75" y="-164.5" font-family="Helvetica,sans-Serif" font-size="10.00" fill="#000000">Observables</text>
</a>
</g>
</g>
<!-- Node1&#45;&gt;Node3 -->
<g id="edge3" class="edge">
<title>Node1&#45;&gt;Node3</title>
<path fill="none" stroke="#191970" d="M296.4728,-125.5277C316.4547,-133.1823 342.018,-142.4972 365.2109,-149.5 372.6179,-151.7364 380.3988,-153.9023 388.1889,-155.9524"/>
<polygon fill="#191970" stroke="#191970" points="387.477,-159.3832 398.0336,-158.4839 389.2203,-152.6037 387.477,-159.3832"/>
</g>
<!-- Node4 -->
<g id="node5" class="node">
<title>Node4</title>
<g id="a_node5"><a xlink:href="class_parameters.html#a03f8c0aa2a31b9bfc016441cb263082c" target="_top" xlink:title=" ">
<polygon fill="#ffffff" stroke="#000000" points="408.5679,-121.5 408.5679,-139.5 512.9321,-139.5 512.9321,-121.5 408.5679,-121.5"/>
<text text-anchor="middle" x="460.75" y="-127.5" font-family="Helvetica,sans-Serif" font-size="10.00" fill="#000000">Parameters::getNCf</text>
</a>
</g>
</g>
<!-- Node1&#45;&gt;Node4 -->
<g id="edge4" class="edge">
<title>Node1&#45;&gt;Node4</title>
<path fill="none" stroke="#191970" d="M323.7788,-117.4596C347.5839,-119.726 374.6841,-122.3061 398.4606,-124.5697"/>
<polygon fill="#191970" stroke="#191970" points="398.1411,-128.055 408.4278,-125.5186 398.8046,-121.0865 398.1411,-128.055"/>
</g>
<!-- Node5 -->
<g id="node6" class="node">
<title>Node5</title>
<g id="a_node6"><a xlink:href="class_parameters.html#ad1f56cc1bb6c19f40454b30a5bc82da6" target="_top" xlink:title=" ">
<polygon fill="#ffffff" stroke="#000000" points="399.1221,-84.5 399.1221,-102.5 522.3779,-102.5 522.3779,-84.5 399.1221,-84.5"/>
<text text-anchor="middle" x="460.75" y="-90.5" font-family="Helvetica,sans-Serif" font-size="10.00" fill="#000000">Parameters::getNTherm</text>
</a>
</g>
</g>
<!-- Node1&#45;&gt;Node5 -->
<g id="edge5" class="edge">
<title>Node1&#45;&gt;Node5</title>
<path fill="none" stroke="#191970" d="M323.7788,-105.8541C344.502,-103.985 367.7223,-101.8906 389.0732,-99.9649"/>
<polygon fill="#191970" stroke="#191970" points="389.4142,-103.4484 399.0593,-99.0642 388.7853,-96.4767 389.4142,-103.4484"/>
</g>
<!-- Node6 -->
<g id="node7" class="node">
<title>Node6</title>
<g id="a_node7"><a xlink:href="class_observable_storer.html#a6177ade7609fb0e4b739955eecba20e6" target="_top" xlink:title=" ">
<polygon fill="#ffffff" stroke="#000000" points="381.6123,-37.5 381.6123,-65.5 539.8877,-65.5 539.8877,-37.5 381.6123,-37.5"/>
<text text-anchor="start" x="389.6123" y="-53.5" font-family="Helvetica,sans-Serif" font-size="10.00" fill="#000000">ObservableStorer::setNormalize</text>
<text text-anchor="middle" x="460.75" y="-43.5" font-family="Helvetica,sans-Serif" font-size="10.00" fill="#000000">ObservableByProcessor</text>
</a>
</g>
</g>
<!-- Node1&#45;&gt;Node6 -->
<g id="edge6" class="edge">
<title>Node1&#45;&gt;Node6</title>
<path fill="none" stroke="#191970" d="M303.3238,-97.4023C311.9011,-94.4908 320.8549,-91.4209 329.2109,-88.5 345.2694,-82.8866 348.9411,-80.4674 365.2109,-75.5 373.5298,-72.9601 382.3141,-70.4822 391.0507,-68.1418"/>
<polygon fill="#191970" stroke="#191970" points="392.0849,-71.4889 400.8668,-65.5619 390.3056,-64.7188 392.0849,-71.4889"/>
</g>
<!-- Node7 -->
<g id="node8" class="node">
<title>Node7</title>
<g id="a_node8"><a xlink:href="class_observable_storer.html#a7f4847c4fdbf8764d8f07950c4d4b62a" target="_top" xlink:title=" ">
<polygon fill="#ffffff" stroke="#000000" points="365.2109,-.5 365.2109,-18.5 556.2891,-18.5 556.2891,-.5 365.2109,-.5"/>
<text text-anchor="middle" x="460.75" y="-6.5" font-family="Helvetica,sans-Serif" font-size="10.00" fill="#000000">ObservableStorer::setObservableName</text>
</a>
</g>
</g>
<!-- Node1&#45;&gt;Node7 -->
<g id="edge7" class="edge">
<title>Node1&#45;&gt;Node7</title>
<path fill="none" stroke="#191970" d="M315.0843,-97.3855C320.1263,-94.8797 324.9392,-91.9417 329.2109,-88.5 353.4274,-68.9891 339.7809,-46.4004 365.2109,-28.5 368.2965,-26.328 371.57,-24.3903 374.9752,-22.6626"/>
<polygon fill="#191970" stroke="#191970" points="376.5245,-25.8046 384.258,-18.5627 373.6964,-19.4013 376.5245,-25.8046"/>
</g>
</g>
</svg>
