<?xml version="1.0" encoding="UTF-8" standalone="no"?>
<!DOCTYPE svg PUBLIC "-//W3C//DTD SVG 1.1//EN"
 "http://www.w3.org/Graphics/SVG/1.1/DTD/svg11.dtd">
<!-- Generated by graphviz version 2.40.1 (20161225.0304)
 -->
<!-- Title: SysPrint::printSystemInfo Pages: 1 -->
<svg width="352pt" height="279pt"
 viewBox="0.00 0.00 352.22 279.00" xmlns="http://www.w3.org/2000/svg" xmlns:xlink="http://www.w3.org/1999/xlink">
<g id="graph0" class="graph" transform="scale(1 1) rotate(0) translate(4 275)">
<title>SysPrint::printSystemInfo</title>
<polygon fill="#ffffff" stroke="transparent" points="-4,4 -4,-275 348.2158,-275 348.2158,4 -4,4"/>
<!-- Node7 -->
<g id="node1" class="node">
<title>Node7</title>
<g id="a_node1"><a xlink:title="SysPrint::printSystemInfo prints out parametesr from Parallel:Communicator and Parameters.">
<polygon fill="#bfbfbf" stroke="#000000" points="0,-116.5 0,-134.5 128.2607,-134.5 128.2607,-116.5 0,-116.5"/>
<text text-anchor="middle" x="64.1304" y="-122.5" font-family="Helvetica,sans-Serif" font-size="10.00" fill="#000000">SysPrint::printSystemInfo</text>
</a>
</g>
</g>
<!-- Node8 -->
<g id="node2" class="node">
<title>Node8</title>
<g id="a_node2"><a xlink:href="class_parallel_1_1_communicator.html#a474ab433da0e83ef372d74e26a7e5cb0" target="_top" xlink:title=" ">
<polygon fill="#ffffff" stroke="#000000" points="194.2754,-242.5 194.2754,-270.5 314.2012,-270.5 314.2012,-242.5 194.2754,-242.5"/>
<text text-anchor="start" x="202.2754" y="-258.5" font-family="Helvetica,sans-Serif" font-size="10.00" fill="#000000">Parallel::Communicator</text>
<text text-anchor="middle" x="254.2383" y="-248.5" font-family="Helvetica,sans-Serif" font-size="10.00" fill="#000000">::getProcessRank</text>
</a>
</g>
</g>
<!-- Node7&#45;&gt;Node8 -->
<g id="edge1" class="edge">
<title>Node7&#45;&gt;Node8</title>
<path fill="none" stroke="#191970" d="M69.894,-134.6742C83.5555,-155.6296 120.0942,-207.2215 164.2607,-233.5 170.548,-237.2408 177.4332,-240.3782 184.5069,-243.0084"/>
<polygon fill="#191970" stroke="#191970" points="183.6371,-246.4087 194.2312,-246.2898 185.8752,-239.7761 183.6371,-246.4087"/>
</g>
<!-- Node9 -->
<g id="node3" class="node">
<title>Node9</title>
<g id="a_node3"><a xlink:href="class_sys_print.html#abdf8282e73cc002e5e572c6f09266cc9" target="_top" xlink:title="SysPrint::printLine prints a simple line for seperating outputs.">
<polygon fill="#ffffff" stroke="#000000" points="205.6646,-205.5 205.6646,-223.5 302.812,-223.5 302.812,-205.5 205.6646,-205.5"/>
<text text-anchor="middle" x="254.2383" y="-211.5" font-family="Helvetica,sans-Serif" font-size="10.00" fill="#000000">SysPrint::printLine</text>
</a>
</g>
</g>
<!-- Node7&#45;&gt;Node9 -->
<g id="edge2" class="edge">
<title>Node7&#45;&gt;Node9</title>
<path fill="none" stroke="#191970" d="M73.7846,-134.5094C90.7156,-149.7816 127.4717,-180.6363 164.2607,-196.5 174.0162,-200.7066 184.7948,-203.9431 195.4017,-206.4293"/>
<polygon fill="#191970" stroke="#191970" points="194.9679,-209.9158 205.4795,-208.5904 196.4356,-203.0714 194.9679,-209.9158"/>
</g>
<!-- Node10 -->
<g id="node4" class="node">
<title>Node10</title>
<g id="a_node4"><a xlink:href="class_parallel_1_1_communicator.html#a7b1f80fb49a0cc83f2031c3415174150" target="_top" xlink:title=" ">
<polygon fill="#ffffff" stroke="#000000" points="194.2754,-158.5 194.2754,-186.5 314.2012,-186.5 314.2012,-158.5 194.2754,-158.5"/>
<text text-anchor="start" x="202.2754" y="-174.5" font-family="Helvetica,sans-Serif" font-size="10.00" fill="#000000">Parallel::Communicator</text>
<text text-anchor="middle" x="254.2383" y="-164.5" font-family="Helvetica,sans-Serif" font-size="10.00" fill="#000000">::getNumProc</text>
</a>
</g>
</g>
<!-- Node7&#45;&gt;Node10 -->
<g id="edge3" class="edge">
<title>Node7&#45;&gt;Node10</title>
<path fill="none" stroke="#191970" d="M100.7851,-134.5621C125.4075,-140.6494 158.5655,-148.847 187.759,-156.0645"/>
<polygon fill="#191970" stroke="#191970" points="186.9416,-159.4677 197.4893,-158.4701 188.6216,-152.6723 186.9416,-159.4677"/>
</g>
<!-- Node11 -->
<g id="node5" class="node">
<title>Node11</title>
<g id="a_node5"><a xlink:href="class_parameters.html#a5a11841ee32f68ebd27a8146a3fda07b" target="_top" xlink:title=" ">
<polygon fill="#ffffff" stroke="#000000" points="188.7065,-111.5 188.7065,-139.5 319.77,-139.5 319.77,-111.5 188.7065,-111.5"/>
<text text-anchor="start" x="196.7065" y="-127.5" font-family="Helvetica,sans-Serif" font-size="10.00" fill="#000000">Parameters::getLoadField</text>
<text text-anchor="middle" x="254.2383" y="-117.5" font-family="Helvetica,sans-Serif" font-size="10.00" fill="#000000">Configurations</text>
</a>
</g>
</g>
<!-- Node7&#45;&gt;Node11 -->
<g id="edge4" class="edge">
<title>Node7&#45;&gt;Node11</title>
<path fill="none" stroke="#191970" d="M128.4922,-125.5C144.549,-125.5 161.9147,-125.5 178.4661,-125.5"/>
<polygon fill="#191970" stroke="#191970" points="178.6476,-129.0001 188.6476,-125.5 178.6475,-122.0001 178.6476,-129.0001"/>
</g>
<!-- Node12 -->
<g id="node6" class="node">
<title>Node12</title>
<g id="a_node6"><a xlink:href="class_parameters.html#afc824aec2ab48afe06829050d0fbe966" target="_top" xlink:title=" ">
<polygon fill="#ffffff" stroke="#000000" points="185.9282,-74.5 185.9282,-92.5 322.5483,-92.5 322.5483,-74.5 185.9282,-74.5"/>
<text text-anchor="middle" x="254.2383" y="-80.5" font-family="Helvetica,sans-Serif" font-size="10.00" fill="#000000">Parameters::getActionType</text>
</a>
</g>
</g>
<!-- Node7&#45;&gt;Node12 -->
<g id="edge5" class="edge">
<title>Node7&#45;&gt;Node12</title>
<path fill="none" stroke="#191970" d="M102.6089,-116.4941C121.2149,-112.1821 143.8813,-106.9919 164.2607,-102.5 176.0761,-99.8957 188.7808,-97.1684 200.813,-94.619"/>
<polygon fill="#191970" stroke="#191970" points="201.6662,-98.0161 210.7276,-92.526 200.2203,-91.167 201.6662,-98.0161"/>
</g>
<!-- Node13 -->
<g id="node7" class="node">
<title>Node13</title>
<g id="a_node7"><a xlink:href="class_parameters.html#a7f1edc3384a46b6e4fc5e380a8fe6d41" target="_top" xlink:title=" ">
<polygon fill="#ffffff" stroke="#000000" points="164.2607,-37.5 164.2607,-55.5 344.2158,-55.5 344.2158,-37.5 164.2607,-37.5"/>
<text text-anchor="middle" x="254.2383" y="-43.5" font-family="Helvetica,sans-Serif" font-size="10.00" fill="#000000">Parameters::getFlowObservablesList</text>
</a>
</g>
</g>
<!-- Node7&#45;&gt;Node13 -->
<g id="edge6" class="edge">
<title>Node7&#45;&gt;Node13</title>
<path fill="none" stroke="#191970" d="M76.387,-116.2991C94.5958,-103.0756 130.3037,-78.8263 164.2607,-65.5 171.5757,-62.6293 179.4038,-60.1601 187.2774,-58.0442"/>
<polygon fill="#191970" stroke="#191970" points="188.3896,-61.3738 197.2397,-55.5493 186.689,-54.5835 188.3896,-61.3738"/>
</g>
<!-- Node14 -->
<g id="node8" class="node">
<title>Node14</title>
<g id="a_node8"><a xlink:href="class_parameters.html#a3b4e197b2569fb5465e0827430e45eb5" target="_top" xlink:title=" ">
<polygon fill="#ffffff" stroke="#000000" points="166.1992,-.5 166.1992,-18.5 342.2773,-18.5 342.2773,-.5 166.1992,-.5"/>
<text text-anchor="middle" x="254.2383" y="-6.5" font-family="Helvetica,sans-Serif" font-size="10.00" fill="#000000">Parameters::getSamplingFrequency</text>
</a>
</g>
</g>
<!-- Node7&#45;&gt;Node14 -->
<g id="edge7" class="edge">
<title>Node7&#45;&gt;Node14</title>
<path fill="none" stroke="#191970" d="M70.7053,-116.2842C85.1905,-96.7227 121.9507,-51.0032 164.2607,-28.5 169.1062,-25.9229 174.2727,-23.6953 179.5867,-21.7698"/>
<polygon fill="#191970" stroke="#191970" points="180.8461,-25.0407 189.2737,-18.62 178.6814,-18.3838 180.8461,-25.0407"/>
</g>
</g>
</svg>
