<?xml version="1.0" encoding="UTF-8" standalone="no"?>
<!DOCTYPE svg PUBLIC "-//W3C//DTD SVG 1.1//EN"
 "http://www.w3.org/Graphics/SVG/1.1/DTD/svg11.dtd">
<!-- Generated by graphviz version 2.40.1 (20161225.0304)
 -->
<!-- Title: Correlator::Correlator Pages: 1 -->
<svg width="521pt" height="206pt"
 viewBox="0.00 0.00 520.95 206.00" xmlns="http://www.w3.org/2000/svg" xmlns:xlink="http://www.w3.org/1999/xlink">
<g id="graph0" class="graph" transform="scale(1 1) rotate(0) translate(4 202)">
<title>Correlator::Correlator</title>
<polygon fill="#ffffff" stroke="transparent" points="-4,4 -4,-202 516.9492,-202 516.9492,4 -4,4"/>
<!-- Node0 -->
<g id="node1" class="node">
<title>Node0</title>
<g id="a_node1"><a xlink:title="Correlator::Correlator.">
<polygon fill="#bfbfbf" stroke="#000000" points="0,-55.5 0,-73.5 110.4727,-73.5 110.4727,-55.5 0,-55.5"/>
<text text-anchor="middle" x="55.2363" y="-61.5" font-family="Helvetica,sans-Serif" font-size="10.00" fill="#000000">Correlator::Correlator</text>
</a>
</g>
</g>
<!-- Node1 -->
<g id="node2" class="node">
<title>Node1</title>
<g id="a_node2"><a xlink:href="class_correlator.html#ab99886c09dd27dfc8676d0032cecf9bc" target="_top" xlink:title="Correlator::initializeObservableStorer initializes ObservableStorer.">
<polygon fill="#ffffff" stroke="#000000" points="147.0366,-111.5 147.0366,-139.5 299.7603,-139.5 299.7603,-111.5 147.0366,-111.5"/>
<text text-anchor="start" x="155.0366" y="-127.5" font-family="Helvetica,sans-Serif" font-size="10.00" fill="#000000">Correlator::initializeObservable</text>
<text text-anchor="middle" x="223.3984" y="-117.5" font-family="Helvetica,sans-Serif" font-size="10.00" fill="#000000">Storer</text>
</a>
</g>
</g>
<!-- Node0&#45;&gt;Node1 -->
<g id="edge1" class="edge">
<title>Node0&#45;&gt;Node1</title>
<path fill="none" stroke="#191970" d="M75.293,-73.563C93.6231,-81.6751 121.584,-93.6234 146.4727,-102.5 152.0239,-104.4799 157.8398,-106.4331 163.6816,-108.3146"/>
<polygon fill="#191970" stroke="#191970" points="162.9055,-111.7396 173.4951,-111.4051 165.0083,-105.0629 162.9055,-111.7396"/>
</g>
<!-- Node6 -->
<g id="node7" class="node">
<title>Node6</title>
<g id="a_node7"><a xlink:href="class_parameters.html#aabe7e3a2468cf11bb5e98e626cb94ff2" target="_top" xlink:title=" ">
<polygon fill="#ffffff" stroke="#000000" points="147.0269,-74.5 147.0269,-92.5 299.77,-92.5 299.77,-74.5 147.0269,-74.5"/>
<text text-anchor="middle" x="223.3984" y="-80.5" font-family="Helvetica,sans-Serif" font-size="10.00" fill="#000000">Parameters::getLatticeSpacing</text>
</a>
</g>
</g>
<!-- Node0&#45;&gt;Node6 -->
<g id="edge6" class="edge">
<title>Node0&#45;&gt;Node6</title>
<path fill="none" stroke="#191970" d="M110.7649,-70.774C119.1755,-71.7242 128.0185,-72.7234 136.8976,-73.7266"/>
<polygon fill="#191970" stroke="#191970" points="136.5868,-77.2137 146.9165,-74.8586 137.3727,-70.2579 136.5868,-77.2137"/>
</g>
<!-- Node7 -->
<g id="node8" class="node">
<title>Node7</title>
<g id="a_node8"><a xlink:href="class_parameters.html#a41e524d54a2e4b2448b61d16ef46f534" target="_top" xlink:title=" ">
<polygon fill="#ffffff" stroke="#000000" points="176.2163,-37.5 176.2163,-55.5 270.5806,-55.5 270.5806,-37.5 176.2163,-37.5"/>
<text text-anchor="middle" x="223.3984" y="-43.5" font-family="Helvetica,sans-Serif" font-size="10.00" fill="#000000">Parameters::getN</text>
</a>
</g>
</g>
<!-- Node0&#45;&gt;Node7 -->
<g id="edge7" class="edge">
<title>Node0&#45;&gt;Node7</title>
<path fill="none" stroke="#191970" d="M110.7649,-58.5562C128.4388,-56.6644 148.0226,-54.5682 165.837,-52.6614"/>
<polygon fill="#191970" stroke="#191970" points="166.5229,-56.108 176.0935,-51.5635 165.7778,-49.1478 166.5229,-56.108"/>
</g>
<!-- Node8 -->
<g id="node9" class="node">
<title>Node8</title>
<g id="a_node9"><a xlink:href="class_parameters.html#aff629ab94d99807364926008fb4e1e67" target="_top" xlink:title=" ">
<polygon fill="#ffffff" stroke="#000000" points="146.4727,-.5 146.4727,-18.5 300.3242,-18.5 300.3242,-.5 146.4727,-.5"/>
<text text-anchor="middle" x="223.3984" y="-6.5" font-family="Helvetica,sans-Serif" font-size="10.00" fill="#000000">Parameters::getSubLatticeSize</text>
</a>
</g>
</g>
<!-- Node0&#45;&gt;Node8 -->
<g id="edge8" class="edge">
<title>Node0&#45;&gt;Node8</title>
<path fill="none" stroke="#191970" d="M75.1983,-55.3544C93.4648,-47.2397 121.3853,-35.4689 146.4727,-27.5 153.9177,-25.1351 161.8575,-22.9316 169.7034,-20.9347"/>
<polygon fill="#191970" stroke="#191970" points="170.6694,-24.3015 179.5471,-18.5191 169.0011,-17.5032 170.6694,-24.3015"/>
</g>
<!-- Node2 -->
<g id="node3" class="node">
<title>Node2</title>
<g id="a_node3"><a xlink:href="class_parameters.html#aae314edb18d426571ab7b6df60da70aa" target="_top" xlink:title=" ">
<polygon fill="#ffffff" stroke="#000000" points="364.3979,-179.5 364.3979,-197.5 484.8755,-197.5 484.8755,-179.5 364.3979,-179.5"/>
<text text-anchor="middle" x="424.6367" y="-185.5" font-family="Helvetica,sans-Serif" font-size="10.00" fill="#000000">Parameters::getNFlows</text>
</a>
</g>
</g>
<!-- Node1&#45;&gt;Node2 -->
<g id="edge2" class="edge">
<title>Node1&#45;&gt;Node2</title>
<path fill="none" stroke="#191970" d="M254.5056,-139.6386C276.8941,-149.3815 308.0129,-162.0473 336.3242,-170.5 344.7123,-173.0043 353.6518,-175.2738 362.5011,-177.2913"/>
<polygon fill="#191970" stroke="#191970" points="361.9028,-180.7431 372.4198,-179.4613 363.3989,-173.9049 361.9028,-180.7431"/>
</g>
<!-- Node3 -->
<g id="node4" class="node">
<title>Node3</title>
<g id="a_node4"><a xlink:href="class_parameters.html#a216f85b3c5980a33f8a54c42fb3575c7" target="_top" xlink:title=" ">
<polygon fill="#ffffff" stroke="#000000" points="336.3242,-132.5 336.3242,-160.5 512.9492,-160.5 512.9492,-132.5 336.3242,-132.5"/>
<text text-anchor="start" x="344.3242" y="-148.5" font-family="Helvetica,sans-Serif" font-size="10.00" fill="#000000">Parameters::getStoreThermalization</text>
<text text-anchor="middle" x="424.6367" y="-138.5" font-family="Helvetica,sans-Serif" font-size="10.00" fill="#000000">Observables</text>
</a>
</g>
</g>
<!-- Node1&#45;&gt;Node3 -->
<g id="edge3" class="edge">
<title>Node1&#45;&gt;Node3</title>
<path fill="none" stroke="#191970" d="M299.7649,-133.4691C308.409,-134.3712 317.307,-135.2997 326.1826,-136.2259"/>
<polygon fill="#191970" stroke="#191970" points="325.8698,-139.7122 336.1791,-137.2691 326.5964,-132.75 325.8698,-139.7122"/>
</g>
<!-- Node4 -->
<g id="node5" class="node">
<title>Node4</title>
<g id="a_node5"><a xlink:href="class_parameters.html#a03f8c0aa2a31b9bfc016441cb263082c" target="_top" xlink:title=" ">
<polygon fill="#ffffff" stroke="#000000" points="372.4546,-95.5 372.4546,-113.5 476.8188,-113.5 476.8188,-95.5 372.4546,-95.5"/>
<text text-anchor="middle" x="424.6367" y="-101.5" font-family="Helvetica,sans-Serif" font-size="10.00" fill="#000000">Parameters::getNCf</text>
</a>
</g>
</g>
<!-- Node1&#45;&gt;Node4 -->
<g id="edge4" class="edge">
<title>Node1&#45;&gt;Node4</title>
<path fill="none" stroke="#191970" d="M299.7649,-117.5309C320.4061,-115.3769 342.4953,-113.0718 362.2689,-111.0083"/>
<polygon fill="#191970" stroke="#191970" points="362.7955,-114.4725 372.3782,-109.9534 362.0689,-107.5103 362.7955,-114.4725"/>
</g>
<!-- Node5 -->
<g id="node6" class="node">
<title>Node5</title>
<g id="a_node6"><a xlink:href="class_parameters.html#ad1f56cc1bb6c19f40454b30a5bc82da6" target="_top" xlink:title=" ">
<polygon fill="#ffffff" stroke="#000000" points="363.0088,-58.5 363.0088,-76.5 486.2646,-76.5 486.2646,-58.5 363.0088,-58.5"/>
<text text-anchor="middle" x="424.6367" y="-64.5" font-family="Helvetica,sans-Serif" font-size="10.00" fill="#000000">Parameters::getNTherm</text>
</a>
</g>
</g>
<!-- Node1&#45;&gt;Node5 -->
<g id="edge5" class="edge">
<title>Node1&#45;&gt;Node5</title>
<path fill="none" stroke="#191970" d="M273.7741,-111.4458C282.685,-108.6743 291.8266,-105.6441 300.3242,-102.5 316.7453,-96.4242 319.677,-91.9258 336.3242,-86.5 345.0844,-83.6448 354.4748,-81.0995 363.745,-78.8721"/>
<polygon fill="#191970" stroke="#191970" points="364.7588,-82.2305 373.7214,-76.5804 363.1916,-75.4082 364.7588,-82.2305"/>
</g>
</g>
</svg>
