<?xml version="1.0" encoding="UTF-8" standalone="no"?>
<!DOCTYPE svg PUBLIC "-//W3C//DTD SVG 1.1//EN"
 "http://www.w3.org/Graphics/SVG/1.1/DTD/svg11.dtd">
<!-- Generated by graphviz version 2.40.1 (20161225.0304)
 -->
<!-- Title: ObservableStorer::printStatistics Pages: 1 -->
<svg width="352pt" height="279pt"
 viewBox="0.00 0.00 352.21 279.00" xmlns="http://www.w3.org/2000/svg" xmlns:xlink="http://www.w3.org/1999/xlink">
<g id="graph0" class="graph" transform="scale(1 1) rotate(0) translate(4 275)">
<title>ObservableStorer::printStatistics</title>
<polygon fill="#ffffff" stroke="transparent" points="-4,4 -4,-275 348.2061,-275 348.2061,4 -4,4"/>
<!-- Node41 -->
<g id="node1" class="node">
<title>Node41</title>
<g id="a_node1"><a xlink:title=" ">
<polygon fill="#bfbfbf" stroke="#000000" points="184.8174,-131.5 184.8174,-149.5 344.2061,-149.5 344.2061,-131.5 184.8174,-131.5"/>
<text text-anchor="middle" x="264.5117" y="-137.5" font-family="Helvetica,sans-Serif" font-size="10.00" fill="#000000">ObservableStorer::printStatistics</text>
</a>
</g>
</g>
<!-- Node42 -->
<g id="node2" class="node">
<title>Node42</title>
<g id="a_node2"><a xlink:href="class_correlator.html#a2168d677f547769784781d2e2aaa53cf" target="_top" xlink:title="Correlator::printStatistics prints statistics from ObservableStorer.">
<polygon fill="#ffffff" stroke="#000000" points="11.6699,-252.5 11.6699,-270.5 137.1475,-270.5 137.1475,-252.5 11.6699,-252.5"/>
<text text-anchor="middle" x="74.4087" y="-258.5" font-family="Helvetica,sans-Serif" font-size="10.00" fill="#000000">Correlator::printStatistics</text>
</a>
</g>
</g>
<!-- Node41&#45;&gt;Node42 -->
<g id="edge1" class="edge">
<title>Node41&#45;&gt;Node42</title>
<path fill="none" stroke="#191970" d="M250.4231,-157.4297C230.302,-180.475 191.0674,-221.3761 148.8174,-243.5 141.8706,-247.1376 134.1736,-250.0546 126.4411,-252.3899"/>
<polygon fill="#191970" stroke="#191970" points="253.3246,-159.4222 257.1654,-149.5481 248.0053,-154.8719 253.3246,-159.4222"/>
</g>
<!-- Node43 -->
<g id="node3" class="node">
<title>Node43</title>
<g id="a_node3"><a xlink:href="class_energy_density.html#ad108e32bc670f17f15b4ed433d8bbec7" target="_top" xlink:title="Correlator::printStatistics prints statistics from ObservableStorer.">
<polygon fill="#ffffff" stroke="#000000" points="1.3843,-215.5 1.3843,-233.5 147.4331,-233.5 147.4331,-215.5 1.3843,-215.5"/>
<text text-anchor="middle" x="74.4087" y="-221.5" font-family="Helvetica,sans-Serif" font-size="10.00" fill="#000000">EnergyDensity::printStatistics</text>
</a>
</g>
</g>
<!-- Node41&#45;&gt;Node43 -->
<g id="edge2" class="edge">
<title>Node41&#45;&gt;Node43</title>
<path fill="none" stroke="#191970" d="M243.1368,-155.1477C220.5884,-169.999 183.5753,-192.7024 148.8174,-206.5 139.9232,-210.0307 130.1461,-212.9992 120.6863,-215.4424"/>
<polygon fill="#191970" stroke="#191970" points="245.2189,-157.9659 251.5893,-149.5001 241.33,-152.1455 245.2189,-157.9659"/>
</g>
<!-- Node44 -->
<g id="node4" class="node">
<title>Node44</title>
<g id="a_node4"><a xlink:href="class_lattice_action_charge_density.html#abdaa497dd70dee58b810de7315241a56" target="_top" xlink:title="Correlator::printStatistics prints statistics from ObservableStorer.">
<polygon fill="#ffffff" stroke="#000000" points="4.7095,-168.5 4.7095,-196.5 144.1079,-196.5 144.1079,-168.5 4.7095,-168.5"/>
<text text-anchor="start" x="12.7095" y="-184.5" font-family="Helvetica,sans-Serif" font-size="10.00" fill="#000000">LatticeActionChargeDensity</text>
<text text-anchor="middle" x="74.4087" y="-174.5" font-family="Helvetica,sans-Serif" font-size="10.00" fill="#000000">::printStatistics</text>
</a>
</g>
</g>
<!-- Node41&#45;&gt;Node44 -->
<g id="edge3" class="edge">
<title>Node41&#45;&gt;Node44</title>
<path fill="none" stroke="#191970" d="M213.7183,-151.7219C190.4356,-156.8658 162.5918,-163.0175 137.9384,-168.4642"/>
<polygon fill="#191970" stroke="#191970" points="214.7204,-155.085 223.7298,-149.5101 213.2102,-148.2498 214.7204,-155.085"/>
</g>
<!-- Node45 -->
<g id="node5" class="node">
<title>Node45</title>
<g id="a_node5"><a xlink:href="class_master_sampler.html#a9accfc83c05d3013396355e40257a562" target="_top" xlink:title="Correlator::printStatistics prints statistics from ObservableStorer.">
<polygon fill="#ffffff" stroke="#000000" points="0,-131.5 0,-149.5 148.8174,-149.5 148.8174,-131.5 0,-131.5"/>
<text text-anchor="middle" x="74.4087" y="-137.5" font-family="Helvetica,sans-Serif" font-size="10.00" fill="#000000">MasterSampler::printStatistics</text>
</a>
</g>
</g>
<!-- Node41&#45;&gt;Node45 -->
<g id="edge4" class="edge">
<title>Node41&#45;&gt;Node45</title>
<path fill="none" stroke="#191970" d="M174.6261,-140.5C165.993,-140.5 157.3029,-140.5 148.8419,-140.5"/>
<polygon fill="#191970" stroke="#191970" points="174.7172,-144.0001 184.7172,-140.5 174.7172,-137.0001 174.7172,-144.0001"/>
</g>
<!-- Node46 -->
<g id="node6" class="node">
<title>Node46</title>
<g id="a_node6"><a xlink:href="class_master_sampler_topc_x_y_z.html#a5a34a7f90ce8eea6c0efa06cfdfeb5f1" target="_top" xlink:title="Correlator::printStatistics prints statistics from ObservableStorer.">
<polygon fill="#ffffff" stroke="#000000" points="12.2241,-84.5 12.2241,-112.5 136.5933,-112.5 136.5933,-84.5 12.2241,-84.5"/>
<text text-anchor="start" x="20.2241" y="-100.5" font-family="Helvetica,sans-Serif" font-size="10.00" fill="#000000">MasterSamplerTopcXYZ</text>
<text text-anchor="middle" x="74.4087" y="-90.5" font-family="Helvetica,sans-Serif" font-size="10.00" fill="#000000">::printStatistics</text>
</a>
</g>
</g>
<!-- Node41&#45;&gt;Node46 -->
<g id="edge5" class="edge">
<title>Node41&#45;&gt;Node46</title>
<path fill="none" stroke="#191970" d="M213.9002,-129.3182C190.2309,-124.0889 161.8172,-117.8114 136.8283,-112.2905"/>
<polygon fill="#191970" stroke="#191970" points="213.2102,-132.7501 223.7298,-131.4899 214.7204,-125.915 213.2102,-132.7501"/>
</g>
<!-- Node47 -->
<g id="node7" class="node">
<title>Node47</title>
<g id="a_node7"><a xlink:href="class_super_sampler.html#a04b230314ae446c77172c97ff52cf4f3" target="_top" xlink:title="Correlator::printStatistics prints statistics from ObservableStorer.">
<polygon fill="#ffffff" stroke="#000000" points="1.9385,-47.5 1.9385,-65.5 146.8789,-65.5 146.8789,-47.5 1.9385,-47.5"/>
<text text-anchor="middle" x="74.4087" y="-53.5" font-family="Helvetica,sans-Serif" font-size="10.00" fill="#000000">SuperSampler::printStatistics</text>
</a>
</g>
</g>
<!-- Node41&#45;&gt;Node47 -->
<g id="edge6" class="edge">
<title>Node41&#45;&gt;Node47</title>
<path fill="none" stroke="#191970" d="M242.6975,-125.9439C220.0599,-111.4002 183.2166,-89.277 148.8174,-75.5 139.0396,-71.584 128.2106,-68.2755 117.9103,-65.5725"/>
<polygon fill="#191970" stroke="#191970" points="240.912,-128.9579 251.2018,-131.4819 244.7319,-123.092 240.912,-128.9579"/>
</g>
<!-- Node48 -->
<g id="node8" class="node">
<title>Node48</title>
<g id="a_node8"><a xlink:href="class_topological_charge.html#ad56263921d283d315b04ab40c9594a2c" target="_top" xlink:title="Correlator::printStatistics prints statistics from ObservableStorer.">
<polygon fill="#ffffff" stroke="#000000" points="22.2144,-.5 22.2144,-28.5 126.603,-28.5 126.603,-.5 22.2144,-.5"/>
<text text-anchor="start" x="30.2144" y="-16.5" font-family="Helvetica,sans-Serif" font-size="10.00" fill="#000000">TopologicalCharge::</text>
<text text-anchor="middle" x="74.4087" y="-6.5" font-family="Helvetica,sans-Serif" font-size="10.00" fill="#000000">printStatistics</text>
</a>
</g>
</g>
<!-- Node41&#45;&gt;Node48 -->
<g id="edge7" class="edge">
<title>Node41&#45;&gt;Node48</title>
<path fill="none" stroke="#191970" d="M249.5278,-123.5064C228.9102,-101.0846 189.6793,-61.7492 148.8174,-38.5 141.9748,-34.6068 134.4133,-31.2457 126.8099,-28.3755"/>
<polygon fill="#191970" stroke="#191970" points="247.1814,-126.1302 256.483,-131.2029 252.375,-121.4368 247.1814,-126.1302"/>
</g>
</g>
</svg>
