<?xml version="1.0" encoding="UTF-8" standalone="no"?>
<!DOCTYPE svg PUBLIC "-//W3C//DTD SVG 1.1//EN"
 "http://www.w3.org/Graphics/SVG/1.1/DTD/svg11.dtd">
<!-- Generated by graphviz version 2.40.1 (20161225.0304)
 -->
<!-- Title: SU3::zeros Pages: 1 -->
<svg width="478pt" height="242pt"
 viewBox="0.00 0.00 477.92 242.00" xmlns="http://www.w3.org/2000/svg" xmlns:xlink="http://www.w3.org/1999/xlink">
<g id="graph0" class="graph" transform="scale(1 1) rotate(0) translate(4 238)">
<title>SU3::zeros</title>
<polygon fill="#ffffff" stroke="transparent" points="-4,4 -4,-238 473.9248,-238 473.9248,4 -4,4"/>
<!-- Node67 -->
<g id="node1" class="node">
<title>Node67</title>
<g id="a_node1"><a xlink:title=" ">
<polygon fill="#bfbfbf" stroke="#000000" points="404.4619,-112.5 404.4619,-130.5 469.9248,-130.5 469.9248,-112.5 404.4619,-112.5"/>
<text text-anchor="middle" x="437.1934" y="-118.5" font-family="Helvetica,sans-Serif" font-size="10.00" fill="#000000">SU3::zeros</text>
</a>
</g>
</g>
<!-- Node68 -->
<g id="node2" class="node">
<title>Node68</title>
<g id="a_node2"><a xlink:href="class_luscher_action.html#a42285b6e3015935588e1fab6b90c1a11" target="_top" xlink:title="computeStaple computes the staple at given poisition.">
<polygon fill="#ffffff" stroke="#000000" points="216.8271,-215.5 216.8271,-233.5 368.4619,-233.5 368.4619,-215.5 216.8271,-215.5"/>
<text text-anchor="middle" x="292.6445" y="-221.5" font-family="Helvetica,sans-Serif" font-size="10.00" fill="#000000">LuscherAction::computeStaple</text>
</a>
</g>
</g>
<!-- Node67&#45;&gt;Node68 -->
<g id="edge1" class="edge">
<title>Node67&#45;&gt;Node68</title>
<path fill="none" stroke="#191970" d="M427.558,-139.4199C416.0956,-158.9715 395.1138,-189.7176 368.4619,-206.5 362.6234,-210.1764 356.1021,-213.1024 349.4018,-215.4311"/>
<polygon fill="#191970" stroke="#191970" points="430.6736,-141.0203 432.5339,-130.59 424.5752,-137.5836 430.6736,-141.0203"/>
</g>
<!-- Node69 -->
<g id="node3" class="node">
<title>Node69</title>
<g id="a_node3"><a xlink:href="class_wilson_gauge_action.html#af1f6ba42fcc2b923dc3b37bf150bfae9" target="_top" xlink:title="computeStaple computes the staple at given poisition.">
<polygon fill="#ffffff" stroke="#000000" points="237.9551,-168.5 237.9551,-196.5 347.334,-196.5 347.334,-168.5 237.9551,-168.5"/>
<text text-anchor="start" x="245.9551" y="-184.5" font-family="Helvetica,sans-Serif" font-size="10.00" fill="#000000">WilsonGaugeAction::</text>
<text text-anchor="middle" x="292.6445" y="-174.5" font-family="Helvetica,sans-Serif" font-size="10.00" fill="#000000">computeStaple</text>
</a>
</g>
</g>
<!-- Node67&#45;&gt;Node69 -->
<g id="edge2" class="edge">
<title>Node67&#45;&gt;Node69</title>
<path fill="none" stroke="#191970" d="M414.1187,-135.8585C401.0587,-143.5724 384.2282,-152.838 368.4619,-159.5 360.733,-162.7659 352.3826,-165.7812 344.1458,-168.48"/>
<polygon fill="#191970" stroke="#191970" points="416.1316,-138.7321 422.893,-130.5752 412.5207,-132.7353 416.1316,-138.7321"/>
</g>
<!-- Node70 -->
<g id="node4" class="node">
<title>Node70</title>
<g id="a_node4"><a xlink:href="class_exp_luscher.html#a8e4c0689c633728527e1220094c664c1" target="_top" xlink:title="ExpLuscher::exp method for exponentiation, found in paper appendix A, https://arxiv....">
<polygon fill="#ffffff" stroke="#000000" points="247.4009,-131.5 247.4009,-149.5 337.8882,-149.5 337.8882,-131.5 247.4009,-131.5"/>
<text text-anchor="middle" x="292.6445" y="-137.5" font-family="Helvetica,sans-Serif" font-size="10.00" fill="#000000">ExpLuscher::exp</text>
</a>
</g>
</g>
<!-- Node67&#45;&gt;Node70 -->
<g id="edge3" class="edge">
<title>Node67&#45;&gt;Node70</title>
<path fill="none" stroke="#191970" d="M394.305,-127.1374C376.5411,-129.4723 355.9227,-132.1825 337.916,-134.5494"/>
<polygon fill="#191970" stroke="#191970" points="394.9344,-130.5849 404.393,-125.8114 394.0221,-123.6446 394.9344,-130.5849"/>
</g>
<!-- Node71 -->
<g id="node5" class="node">
<title>Node71</title>
<g id="a_node5"><a xlink:href="class_s_u3_exp.html#a9760c17b9c3a4b6d0a5cd4d88c6d577e" target="_top" xlink:title=" ">
<polygon fill="#ffffff" stroke="#000000" points="255.4624,-94.5 255.4624,-112.5 329.8267,-112.5 329.8267,-94.5 255.4624,-94.5"/>
<text text-anchor="middle" x="292.6445" y="-100.5" font-family="Helvetica,sans-Serif" font-size="10.00" fill="#000000">SU3Exp::exp</text>
</a>
</g>
</g>
<!-- Node67&#45;&gt;Node71 -->
<g id="edge4" class="edge">
<title>Node67&#45;&gt;Node71</title>
<path fill="none" stroke="#191970" d="M394.3789,-116.1685C373.8982,-113.6181 349.6096,-110.5936 329.9017,-108.1395"/>
<polygon fill="#191970" stroke="#191970" points="394.0371,-119.6529 404.393,-117.4155 394.9022,-112.7065 394.0371,-119.6529"/>
</g>
<!-- Node72 -->
<g id="node6" class="node">
<title>Node72</title>
<g id="a_node6"><a xlink:href="class_s_u3_matrix_generator.html#ae76a62a4ba6af03901a0cc8e8632e856" target="_top" xlink:title=" ">
<polygon fill="#ffffff" stroke="#000000" points="236.0166,-47.5 236.0166,-75.5 349.2725,-75.5 349.2725,-47.5 236.0166,-47.5"/>
<text text-anchor="start" x="244.0166" y="-63.5" font-family="Helvetica,sans-Serif" font-size="10.00" fill="#000000">SU3MatrixGenerator</text>
<text text-anchor="middle" x="292.6445" y="-53.5" font-family="Helvetica,sans-Serif" font-size="10.00" fill="#000000">::SU3MatrixGenerator</text>
</a>
</g>
</g>
<!-- Node67&#45;&gt;Node72 -->
<g id="edge5" class="edge">
<title>Node67&#45;&gt;Node72</title>
<path fill="none" stroke="#191970" d="M412.9825,-107.4822C400.0377,-100.3322 383.672,-91.8329 368.4619,-85.5 359.9222,-81.9444 350.6593,-78.606 341.6366,-75.6147"/>
<polygon fill="#191970" stroke="#191970" points="411.3055,-110.5545 421.7384,-112.3997 414.7333,-104.4512 411.3055,-110.5545"/>
</g>
<!-- Node73 -->
<g id="node7" class="node">
<title>Node73</title>
<g id="a_node7"><a xlink:href="class_s_u3_matrix_generator.html#a06dc59b5a86ba6863b848ef1ca26629a" target="_top" xlink:title="SU3MatrixGenerator::generateRandom generates a fully random SU3 matrix.">
<polygon fill="#ffffff" stroke="#000000" points="238.7949,-.5 238.7949,-28.5 346.4941,-28.5 346.4941,-.5 238.7949,-.5"/>
<text text-anchor="start" x="246.7949" y="-16.5" font-family="Helvetica,sans-Serif" font-size="10.00" fill="#000000">SU3MatrixGenerator</text>
<text text-anchor="middle" x="292.6445" y="-6.5" font-family="Helvetica,sans-Serif" font-size="10.00" fill="#000000">::generateRandom</text>
</a>
</g>
</g>
<!-- Node67&#45;&gt;Node73 -->
<g id="edge6" class="edge">
<title>Node67&#45;&gt;Node73</title>
<path fill="none" stroke="#191970" d="M426.6941,-103.5162C414.8306,-84.707 393.8308,-55.5914 368.4619,-38.5 361.8207,-34.0257 354.2971,-30.347 346.6317,-27.3329"/>
<polygon fill="#191970" stroke="#191970" points="423.8493,-105.574 432.0399,-112.2945 429.8279,-101.9331 423.8493,-105.574"/>
</g>
<!-- Node74 -->
<g id="node8" class="node">
<title>Node74</title>
<g id="a_node8"><a xlink:href="class_system.html#a93c8a8258ac8f6382ec393bca1271011" target="_top" xlink:title="System::latticeSetup sets up the lattice geometry and allocates memory.">
<polygon fill="#ffffff" stroke="#000000" points="73.6748,-5.5 73.6748,-23.5 180.8271,-23.5 180.8271,-5.5 73.6748,-5.5"/>
<text text-anchor="middle" x="127.251" y="-11.5" font-family="Helvetica,sans-Serif" font-size="10.00" fill="#000000">System::latticeSetup</text>
</a>
</g>
</g>
<!-- Node73&#45;&gt;Node74 -->
<g id="edge7" class="edge">
<title>Node73&#45;&gt;Node74</title>
<path fill="none" stroke="#191970" d="M228.3503,-14.5C212.6807,-14.5 196.0824,-14.5 180.9638,-14.5"/>
<polygon fill="#191970" stroke="#191970" points="228.4885,-18.0001 238.4885,-14.5 228.4885,-11.0001 228.4885,-18.0001"/>
</g>
<!-- Node75 -->
<g id="node9" class="node">
<title>Node75</title>
<g id="a_node9"><a xlink:href="main_8cpp.html#a4e6f00a867970a9eedf47b88a27b9eea" target="_top" xlink:title="main loads in configurations and initiates program according to .json specifications.">
<polygon fill="#ffffff" stroke="#000000" points="0,-5.5 0,-23.5 37.6748,-23.5 37.6748,-5.5 0,-5.5"/>
<text text-anchor="middle" x="18.8374" y="-11.5" font-family="Helvetica,sans-Serif" font-size="10.00" fill="#000000">main</text>
</a>
</g>
</g>
<!-- Node74&#45;&gt;Node75 -->
<g id="edge8" class="edge">
<title>Node74&#45;&gt;Node75</title>
<path fill="none" stroke="#191970" d="M63.2463,-14.5C54.0172,-14.5 45.18,-14.5 37.8534,-14.5"/>
<polygon fill="#191970" stroke="#191970" points="63.3618,-18.0001 73.3618,-14.5 63.3618,-11.0001 63.3618,-18.0001"/>
</g>
</g>
</svg>
