<?xml version="1.0" encoding="UTF-8" standalone="no"?>
<!DOCTYPE svg PUBLIC "-//W3C//DTD SVG 1.1//EN"
 "http://www.w3.org/Graphics/SVG/1.1/DTD/svg11.dtd">
<!-- Generated by graphviz version 2.40.1 (20161225.0304)
 -->
<!-- Title: ObservableStorer::setObservableName Pages: 1 -->
<svg width="580pt" height="299pt"
 viewBox="0.00 0.00 579.85 299.00" xmlns="http://www.w3.org/2000/svg" xmlns:xlink="http://www.w3.org/1999/xlink">
<g id="graph0" class="graph" transform="scale(1 1) rotate(0) translate(4 295)">
<title>ObservableStorer::setObservableName</title>
<polygon fill="#ffffff" stroke="transparent" points="-4,4 -4,-295 575.8457,-295 575.8457,4 -4,4"/>
<!-- Node80 -->
<g id="node1" class="node">
<title>Node80</title>
<g id="a_node1"><a xlink:title=" ">
<polygon fill="#bfbfbf" stroke="#000000" points="380.7676,-136.5 380.7676,-154.5 571.8457,-154.5 571.8457,-136.5 380.7676,-136.5"/>
<text text-anchor="middle" x="476.3066" y="-142.5" font-family="Helvetica,sans-Serif" font-size="10.00" fill="#000000">ObservableStorer::setObservableName</text>
</a>
</g>
</g>
<!-- Node81 -->
<g id="node2" class="node">
<title>Node81</title>
<g id="a_node2"><a xlink:href="class_energy_density.html#a1d23cfe5690c9daf8b2f0ec8f6471c5f" target="_top" xlink:title=" ">
<polygon fill="#ffffff" stroke="#000000" points="193.1523,-272.5 193.1523,-290.5 344.7676,-290.5 344.7676,-272.5 193.1523,-272.5"/>
<text text-anchor="middle" x="268.96" y="-278.5" font-family="Helvetica,sans-Serif" font-size="10.00" fill="#000000">EnergyDensity::EnergyDensity</text>
</a>
</g>
</g>
<!-- Node80&#45;&gt;Node81 -->
<g id="edge1" class="edge">
<title>Node80&#45;&gt;Node81</title>
<path fill="none" stroke="#191970" d="M462.5546,-162.3433C440.4935,-188.2039 394.5859,-237.4271 344.7676,-263.5 337.8164,-267.138 330.1237,-270.0514 322.3823,-272.382"/>
<polygon fill="#191970" stroke="#191970" points="465.3558,-164.4497 469.0932,-154.536 459.9892,-159.9552 465.3558,-164.4497"/>
</g>
<!-- Node82 -->
<g id="node3" class="node">
<title>Node82</title>
<g id="a_node3"><a xlink:href="class_lattice_action_charge_density.html#aba3131bbe5bd930adccc2852b4d44bb9" target="_top" xlink:title=" ">
<polygon fill="#ffffff" stroke="#000000" points="199.2607,-225.5 199.2607,-253.5 338.6592,-253.5 338.6592,-225.5 199.2607,-225.5"/>
<text text-anchor="start" x="207.2607" y="-241.5" font-family="Helvetica,sans-Serif" font-size="10.00" fill="#000000">LatticeActionChargeDensity</text>
<text text-anchor="middle" x="268.96" y="-231.5" font-family="Helvetica,sans-Serif" font-size="10.00" fill="#000000">::initializeObservableStorer</text>
</a>
</g>
</g>
<!-- Node80&#45;&gt;Node82 -->
<g id="edge2" class="edge">
<title>Node80&#45;&gt;Node82</title>
<path fill="none" stroke="#191970" d="M453.1335,-159.8598C427.3892,-175.3679 384.2372,-200.0557 344.7676,-216.5 337.0232,-219.7265 328.6653,-222.7213 320.426,-225.4116"/>
<polygon fill="#191970" stroke="#191970" points="455.0665,-162.7807 461.7916,-154.5939 451.429,-156.8 455.0665,-162.7807"/>
</g>
<!-- Node84 -->
<g id="node5" class="node">
<title>Node84</title>
<g id="a_node5"><a xlink:href="class_master_sampler.html#a88e2eec68ea6bd60cc3f375ac04a8ded" target="_top" xlink:title=" ">
<polygon fill="#ffffff" stroke="#000000" points="206.4971,-178.5 206.4971,-206.5 331.4229,-206.5 331.4229,-178.5 206.4971,-178.5"/>
<text text-anchor="start" x="214.4971" y="-194.5" font-family="Helvetica,sans-Serif" font-size="10.00" fill="#000000">MasterSampler::initialize</text>
<text text-anchor="middle" x="268.96" y="-184.5" font-family="Helvetica,sans-Serif" font-size="10.00" fill="#000000">ObservableStorer</text>
</a>
</g>
</g>
<!-- Node80&#45;&gt;Node84 -->
<g id="edge4" class="edge">
<title>Node80&#45;&gt;Node84</title>
<path fill="none" stroke="#191970" d="M426.5076,-156.7881C397.7801,-163.2999 361.4103,-171.544 330.8549,-178.4701"/>
<polygon fill="#191970" stroke="#191970" points="427.3493,-160.1862 436.3281,-154.5621 425.8018,-153.3594 427.3493,-160.1862"/>
</g>
<!-- Node86 -->
<g id="node7" class="node">
<title>Node86</title>
<g id="a_node7"><a xlink:href="class_master_sampler_topc_x_y_z.html#af6d2cf2023d9626908fd26b07a7a0b84" target="_top" xlink:title=" ">
<polygon fill="#ffffff" stroke="#000000" points="201.2114,-131.5 201.2114,-159.5 336.7085,-159.5 336.7085,-131.5 201.2114,-131.5"/>
<text text-anchor="start" x="209.2114" y="-147.5" font-family="Helvetica,sans-Serif" font-size="10.00" fill="#000000">MasterSamplerTopcXYZ</text>
<text text-anchor="middle" x="268.96" y="-137.5" font-family="Helvetica,sans-Serif" font-size="10.00" fill="#000000">::initializeObservableStorer</text>
</a>
</g>
</g>
<!-- Node80&#45;&gt;Node86 -->
<g id="edge6" class="edge">
<title>Node80&#45;&gt;Node86</title>
<path fill="none" stroke="#191970" d="M370.4796,-145.5C359.0446,-145.5 347.6445,-145.5 336.8362,-145.5"/>
<polygon fill="#191970" stroke="#191970" points="370.5235,-149.0001 380.5235,-145.5 370.5235,-142.0001 370.5235,-149.0001"/>
</g>
<!-- Node88 -->
<g id="node9" class="node">
<title>Node88</title>
<g id="a_node9"><a xlink:href="class_plaquette.html#a1c87b43fc7ee74b2b0289de63e03bb61" target="_top" xlink:title=" ">
<polygon fill="#ffffff" stroke="#000000" points="215.9258,-94.5 215.9258,-112.5 321.9941,-112.5 321.9941,-94.5 215.9258,-94.5"/>
<text text-anchor="middle" x="268.96" y="-100.5" font-family="Helvetica,sans-Serif" font-size="10.00" fill="#000000">Plaquette::Plaquette</text>
</a>
</g>
</g>
<!-- Node80&#45;&gt;Node88 -->
<g id="edge8" class="edge">
<title>Node80&#45;&gt;Node88</title>
<path fill="none" stroke="#191970" d="M421.6876,-134.4364C388.0218,-127.6171 345.3873,-118.9811 313.7247,-112.5675"/>
<polygon fill="#191970" stroke="#191970" points="421.3297,-137.9349 431.8256,-136.4899 422.7195,-131.0743 421.3297,-137.9349"/>
</g>
<!-- Node89 -->
<g id="node10" class="node">
<title>Node89</title>
<g id="a_node10"><a xlink:href="class_super_sampler.html#a4429d6ae37247a02259bc0c6d665821c" target="_top" xlink:title=" ">
<polygon fill="#ffffff" stroke="#000000" points="208.4355,-47.5 208.4355,-75.5 329.4844,-75.5 329.4844,-47.5 208.4355,-47.5"/>
<text text-anchor="start" x="216.4355" y="-63.5" font-family="Helvetica,sans-Serif" font-size="10.00" fill="#000000">SuperSampler::initialize</text>
<text text-anchor="middle" x="268.96" y="-53.5" font-family="Helvetica,sans-Serif" font-size="10.00" fill="#000000">ObservableStorer</text>
</a>
</g>
</g>
<!-- Node80&#45;&gt;Node89 -->
<g id="edge9" class="edge">
<title>Node80&#45;&gt;Node89</title>
<path fill="none" stroke="#191970" d="M449.3286,-132.0265C423.0234,-119.1692 381.6968,-99.7079 344.7676,-85.5 335.7486,-82.0301 325.9939,-78.6634 316.5802,-75.6028"/>
<polygon fill="#191970" stroke="#191970" points="447.7864,-135.1684 458.3044,-136.4426 450.8767,-128.8874 447.7864,-135.1684"/>
</g>
<!-- Node91 -->
<g id="node12" class="node">
<title>Node91</title>
<g id="a_node12"><a xlink:href="class_topological_charge.html#a415e32f865f7b5c83f4ac4471838d514" target="_top" xlink:title=" ">
<polygon fill="#ffffff" stroke="#000000" points="216.7656,-.5 216.7656,-28.5 321.1543,-28.5 321.1543,-.5 216.7656,-.5"/>
<text text-anchor="start" x="224.7656" y="-16.5" font-family="Helvetica,sans-Serif" font-size="10.00" fill="#000000">TopologicalCharge::</text>
<text text-anchor="middle" x="268.96" y="-6.5" font-family="Helvetica,sans-Serif" font-size="10.00" fill="#000000">TopologicalCharge</text>
</a>
</g>
</g>
<!-- Node80&#45;&gt;Node91 -->
<g id="edge11" class="edge">
<title>Node80&#45;&gt;Node91</title>
<path fill="none" stroke="#191970" d="M460.3145,-129.0366C436.9276,-105.8195 391.1187,-63.5065 344.7676,-38.5 337.4779,-34.5672 329.441,-31.1595 321.4076,-28.2469"/>
<polygon fill="#191970" stroke="#191970" points="458.0871,-131.7608 467.6158,-136.3927 463.0553,-126.8296 458.0871,-131.7608"/>
</g>
<!-- Node83 -->
<g id="node4" class="node">
<title>Node83</title>
<g id="a_node4"><a xlink:href="class_lattice_action_charge_density.html#acda2a43db75cca34586441d4ac7ec39e" target="_top" xlink:title=" ">
<polygon fill="#ffffff" stroke="#000000" points="6.0986,-225.5 6.0986,-253.5 151.0537,-253.5 151.0537,-225.5 6.0986,-225.5"/>
<text text-anchor="start" x="14.0986" y="-241.5" font-family="Helvetica,sans-Serif" font-size="10.00" fill="#000000">LatticeActionChargeDensity</text>
<text text-anchor="middle" x="78.5762" y="-231.5" font-family="Helvetica,sans-Serif" font-size="10.00" fill="#000000">::LatticeActionChargeDensity</text>
</a>
</g>
</g>
<!-- Node82&#45;&gt;Node83 -->
<g id="edge3" class="edge">
<title>Node82&#45;&gt;Node83</title>
<path fill="none" stroke="#191970" d="M188.79,-239.5C176.3361,-239.5 163.5303,-239.5 151.2545,-239.5"/>
<polygon fill="#191970" stroke="#191970" points="189.1492,-243.0001 199.1491,-239.5 189.1491,-236.0001 189.1492,-243.0001"/>
</g>
<!-- Node85 -->
<g id="node6" class="node">
<title>Node85</title>
<g id="a_node6"><a xlink:href="class_master_sampler.html#ac5ee503e8391aca36f73872a45bb6bd9" target="_top" xlink:title=" ">
<polygon fill="#ffffff" stroke="#000000" points="0,-183.5 0,-201.5 157.1523,-201.5 157.1523,-183.5 0,-183.5"/>
<text text-anchor="middle" x="78.5762" y="-189.5" font-family="Helvetica,sans-Serif" font-size="10.00" fill="#000000">MasterSampler::MasterSampler</text>
</a>
</g>
</g>
<!-- Node84&#45;&gt;Node85 -->
<g id="edge5" class="edge">
<title>Node84&#45;&gt;Node85</title>
<path fill="none" stroke="#191970" d="M196.2521,-192.5C183.4746,-192.5 170.1238,-192.5 157.1939,-192.5"/>
<polygon fill="#191970" stroke="#191970" points="196.3575,-196.0001 206.3575,-192.5 196.3575,-189.0001 196.3575,-196.0001"/>
</g>
<!-- Node87 -->
<g id="node8" class="node">
<title>Node87</title>
<g id="a_node8"><a xlink:href="class_master_sampler_topc_x_y_z.html#ad8ba8f2c50c66d823c551f71fd62a99b" target="_top" xlink:title=" ">
<polygon fill="#ffffff" stroke="#000000" points="13.6133,-131.5 13.6133,-159.5 143.5391,-159.5 143.5391,-131.5 13.6133,-131.5"/>
<text text-anchor="start" x="21.6133" y="-147.5" font-family="Helvetica,sans-Serif" font-size="10.00" fill="#000000">MasterSamplerTopcXYZ</text>
<text text-anchor="middle" x="78.5762" y="-137.5" font-family="Helvetica,sans-Serif" font-size="10.00" fill="#000000">::MasterSamplerTopcXYZ</text>
</a>
</g>
</g>
<!-- Node86&#45;&gt;Node87 -->
<g id="edge7" class="edge">
<title>Node86&#45;&gt;Node87</title>
<path fill="none" stroke="#191970" d="M190.8298,-145.5C175.1341,-145.5 158.7985,-145.5 143.6061,-145.5"/>
<polygon fill="#191970" stroke="#191970" points="191.0334,-149.0001 201.0333,-145.5 191.0333,-142.0001 191.0334,-149.0001"/>
</g>
<!-- Node90 -->
<g id="node11" class="node">
<title>Node90</title>
<g id="a_node11"><a xlink:href="class_super_sampler.html#a6bf01b68f9befc5bf01c822e28c0c88d" target="_top" xlink:title=" ">
<polygon fill="#ffffff" stroke="#000000" points="3.877,-52.5 3.877,-70.5 153.2754,-70.5 153.2754,-52.5 3.877,-52.5"/>
<text text-anchor="middle" x="78.5762" y="-58.5" font-family="Helvetica,sans-Serif" font-size="10.00" fill="#000000">SuperSampler::SuperSampler</text>
</a>
</g>
</g>
<!-- Node89&#45;&gt;Node90 -->
<g id="edge10" class="edge">
<title>Node89&#45;&gt;Node90</title>
<path fill="none" stroke="#191970" d="M197.8135,-61.5C183.3305,-61.5 168.053,-61.5 153.4452,-61.5"/>
<polygon fill="#191970" stroke="#191970" points="198.1979,-65.0001 208.1979,-61.5 198.1979,-58.0001 198.1979,-65.0001"/>
</g>
</g>
</svg>
