<?xml version="1.0" encoding="UTF-8" standalone="no"?>
<!DOCTYPE svg PUBLIC "-//W3C//DTD SVG 1.1//EN"
 "http://www.w3.org/Graphics/SVG/1.1/DTD/svg11.dtd">
<!-- Generated by graphviz version 2.40.1 (20161225.0304)
 -->
<!-- Title: nlohmann::basic_json::json_reverse_iterator::operator+ Pages: 1 -->
<svg width="275pt" height="47pt"
 viewBox="0.00 0.00 274.98 47.00" xmlns="http://www.w3.org/2000/svg" xmlns:xlink="http://www.w3.org/1999/xlink">
<g id="graph0" class="graph" transform="scale(1 1) rotate(0) translate(4 43)">
<title>nlohmann::basic_json::json_reverse_iterator::operator+</title>
<polygon fill="#ffffff" stroke="transparent" points="-4,4 -4,-43 270.9844,-43 270.9844,4 -4,4"/>
<!-- Node7 -->
<g id="node1" class="node">
<title>Node7</title>
<g id="a_node1"><a xlink:title="add to iterator">
<polygon fill="#bfbfbf" stroke="#000000" points="151.4922,-.5 151.4922,-38.5 266.9844,-38.5 266.9844,-.5 151.4922,-.5"/>
<text text-anchor="start" x="159.4922" y="-26.5" font-family="Helvetica,sans-Serif" font-size="10.00" fill="#000000">nlohmann::basic_json</text>
<text text-anchor="start" x="159.4922" y="-16.5" font-family="Helvetica,sans-Serif" font-size="10.00" fill="#000000">::json_reverse_iterator</text>
<text text-anchor="middle" x="209.2383" y="-6.5" font-family="Helvetica,sans-Serif" font-size="10.00" fill="#000000">::operator+</text>
</a>
</g>
</g>
<!-- Node8 -->
<g id="node2" class="node">
<title>Node8</title>
<g id="a_node2"><a xlink:href="classnlohmann_1_1basic__json_1_1json__reverse__iterator.html#af4879af64a0f24bd308b13b859808f84" target="_top" xlink:title="access to successor">
<polygon fill="#ffffff" stroke="#000000" points="0,-.5 0,-38.5 115.4922,-38.5 115.4922,-.5 0,-.5"/>
<text text-anchor="start" x="8" y="-26.5" font-family="Helvetica,sans-Serif" font-size="10.00" fill="#000000">nlohmann::basic_json</text>
<text text-anchor="start" x="8" y="-16.5" font-family="Helvetica,sans-Serif" font-size="10.00" fill="#000000">::json_reverse_iterator</text>
<text text-anchor="middle" x="57.7461" y="-6.5" font-family="Helvetica,sans-Serif" font-size="10.00" fill="#000000">::operator[]</text>
</a>
</g>
</g>
<!-- Node7&#45;&gt;Node8 -->
<g id="edge1" class="edge">
<title>Node7&#45;&gt;Node8</title>
<path fill="none" stroke="#191970" d="M140.925,-19.5C132.5093,-19.5 123.97,-19.5 115.7281,-19.5"/>
<polygon fill="#191970" stroke="#191970" points="141.1007,-23.0001 151.1007,-19.5 141.1007,-16.0001 141.1007,-23.0001"/>
</g>
</g>
</svg>
