<?xml version="1.0" encoding="UTF-8" standalone="no"?>
<!DOCTYPE svg PUBLIC "-//W3C//DTD SVG 1.1//EN"
 "http://www.w3.org/Graphics/SVG/1.1/DTD/svg11.dtd">
<!-- Generated by graphviz version 2.40.1 (20161225.0304)
 -->
<!-- Title: WilsonGaugeAction::getActionDerivative Pages: 1 -->
<svg width="396pt" height="175pt"
 viewBox="0.00 0.00 395.92 175.00" xmlns="http://www.w3.org/2000/svg" xmlns:xlink="http://www.w3.org/1999/xlink">
<g id="graph0" class="graph" transform="scale(1 1) rotate(0) translate(4 171)">
<title>WilsonGaugeAction::getActionDerivative</title>
<polygon fill="#ffffff" stroke="transparent" points="-4,4 -4,-171 391.9248,-171 391.9248,4 -4,4"/>
<!-- Node17 -->
<g id="node1" class="node">
<title>Node17</title>
<g id="a_node1"><a xlink:title="getActionDerivative, computes the derivative of the lattice in given direction.">
<polygon fill="#bfbfbf" stroke="#000000" points="0,-69.5 0,-97.5 109.3789,-97.5 109.3789,-69.5 0,-69.5"/>
<text text-anchor="start" x="8" y="-85.5" font-family="Helvetica,sans-Serif" font-size="10.00" fill="#000000">WilsonGaugeAction::</text>
<text text-anchor="middle" x="54.6895" y="-75.5" font-family="Helvetica,sans-Serif" font-size="10.00" fill="#000000">getActionDerivative</text>
</a>
</g>
</g>
<!-- Node18 -->
<g id="node2" class="node">
<title>Node18</title>
<g id="a_node2"><a xlink:href="class_lattice.html#a1e8bfb54f85e78f2c97e8b90d2b47dc9" target="_top" xlink:title="zeros sets all of the SU3 elements in the lattice to zero.">
<polygon fill="#ffffff" stroke="#000000" points="145.3789,-148.5 145.3789,-166.5 220.8516,-166.5 220.8516,-148.5 145.3789,-148.5"/>
<text text-anchor="middle" x="183.1152" y="-154.5" font-family="Helvetica,sans-Serif" font-size="10.00" fill="#000000">Lattice::zeros</text>
</a>
</g>
</g>
<!-- Node17&#45;&gt;Node18 -->
<g id="edge1" class="edge">
<title>Node17&#45;&gt;Node18</title>
<path fill="none" stroke="#191970" d="M75.9241,-97.5187C94.0614,-109.2714 121.0085,-126.2139 145.3789,-139.5 148.0954,-140.981 150.9535,-142.4678 153.8307,-143.9174"/>
<polygon fill="#191970" stroke="#191970" points="152.4152,-147.1213 162.9364,-148.3688 155.4896,-140.8325 152.4152,-147.1213"/>
</g>
<!-- Node19 -->
<g id="node3" class="node">
<title>Node19</title>
<g id="a_node3"><a xlink:href="lattice_8h.html#a53bbfaed8f54ee3a1db6f8049686ccdf" target="_top" xlink:title="shift copies the lattice L and shifts it in a specified lorentzVector direction DIR.">
<polygon fill="#ffffff" stroke="#000000" points="165.9453,-74.5 165.9453,-92.5 200.2852,-92.5 200.2852,-74.5 165.9453,-74.5"/>
<text text-anchor="middle" x="183.1152" y="-80.5" font-family="Helvetica,sans-Serif" font-size="10.00" fill="#000000">shift</text>
</a>
</g>
</g>
<!-- Node17&#45;&gt;Node19 -->
<g id="edge2" class="edge">
<title>Node17&#45;&gt;Node19</title>
<path fill="none" stroke="#191970" d="M109.5261,-83.5C125.5568,-83.5 142.3844,-83.5 155.8957,-83.5"/>
<polygon fill="#191970" stroke="#191970" points="155.942,-87.0001 165.9419,-83.5 155.9419,-80.0001 155.942,-87.0001"/>
</g>
<!-- Node24 -->
<g id="node8" class="node">
<title>Node24</title>
<g id="a_node8"><a xlink:href="lattice_8h.html#a491004d1505561625a8915464f3c6cab" target="_top" xlink:title=" ">
<polygon fill="#ffffff" stroke="#000000" points="168.6152,-111.5 168.6152,-129.5 197.6152,-129.5 197.6152,-111.5 168.6152,-111.5"/>
<text text-anchor="middle" x="183.1152" y="-117.5" font-family="Helvetica,sans-Serif" font-size="10.00" fill="#000000">inv</text>
</a>
</g>
</g>
<!-- Node17&#45;&gt;Node24 -->
<g id="edge7" class="edge">
<title>Node17&#45;&gt;Node24</title>
<path fill="none" stroke="#191970" d="M103.6081,-97.5937C122.3837,-103.003 143.0117,-108.946 158.5504,-113.4228"/>
<polygon fill="#191970" stroke="#191970" points="157.8314,-116.8579 168.4096,-116.2632 159.7694,-110.1315 157.8314,-116.8579"/>
</g>
<!-- Node25 -->
<g id="node9" class="node">
<title>Node25</title>
<g id="a_node9"><a xlink:href="lattice_8h.html#a0289122f97ef3c8e2dfc3bfaf5b8f52d" target="_top" xlink:title=" ">
<polygon fill="#ffffff" stroke="#000000" points="151.6802,-37.5 151.6802,-55.5 214.5503,-55.5 214.5503,-37.5 151.6802,-37.5"/>
<text text-anchor="middle" x="183.1152" y="-43.5" font-family="Helvetica,sans-Serif" font-size="10.00" fill="#000000">imagTrace</text>
</a>
</g>
</g>
<!-- Node17&#45;&gt;Node25 -->
<g id="edge9" class="edge">
<title>Node17&#45;&gt;Node25</title>
<path fill="none" stroke="#191970" d="M103.6081,-69.4063C116.2345,-65.7686 129.6985,-61.8896 141.8892,-58.3774"/>
<polygon fill="#191970" stroke="#191970" points="143.1433,-61.6585 151.7835,-55.5268 141.2053,-54.9321 143.1433,-61.6585"/>
</g>
<!-- Node26 -->
<g id="node10" class="node">
<title>Node26</title>
<g id="a_node10"><a xlink:href="lattice_8h.html#aa2ccd37933994e50a9c9669725ee0e9e" target="_top" xlink:title=" ">
<polygon fill="#ffffff" stroke="#000000" points="146.2139,-.5 146.2139,-18.5 220.0166,-18.5 220.0166,-.5 146.2139,-.5"/>
<text text-anchor="middle" x="183.1152" y="-6.5" font-family="Helvetica,sans-Serif" font-size="10.00" fill="#000000">subtractImag</text>
</a>
</g>
</g>
<!-- Node17&#45;&gt;Node26 -->
<g id="edge10" class="edge">
<title>Node17&#45;&gt;Node26</title>
<path fill="none" stroke="#191970" d="M76.7639,-69.443C94.9527,-58.0235 121.5387,-41.704 145.3789,-28.5 148.4889,-26.7775 151.774,-25.0261 155.0564,-23.3186"/>
<polygon fill="#191970" stroke="#191970" points="156.8319,-26.3421 164.1522,-18.6829 153.6533,-20.1054 156.8319,-26.3421"/>
</g>
<!-- Node20 -->
<g id="node4" class="node">
<title>Node20</title>
<g id="a_node4"><a xlink:href="class_lattice.html#a5b4e162f06f7b4b90b4a9335ed2aabb5" target="_top" xlink:title="allocate method for allocating memory.">
<polygon fill="#ffffff" stroke="#000000" points="279.6445,-111.5 279.6445,-129.5 365.1318,-129.5 365.1318,-111.5 279.6445,-111.5"/>
<text text-anchor="middle" x="322.3882" y="-117.5" font-family="Helvetica,sans-Serif" font-size="10.00" fill="#000000">Lattice::allocate</text>
</a>
</g>
</g>
<!-- Node19&#45;&gt;Node20 -->
<g id="edge3" class="edge">
<title>Node19&#45;&gt;Node20</title>
<path fill="none" stroke="#191970" d="M200.4727,-88.1113C219.8703,-93.2645 252.0218,-101.8061 278.438,-108.824"/>
<polygon fill="#191970" stroke="#191970" points="277.6795,-112.2438 288.243,-111.4288 279.4769,-105.4785 277.6795,-112.2438"/>
</g>
<!-- Node21 -->
<g id="node5" class="node">
<title>Node21</title>
<g id="a_node5"><a xlink:href="class_parallel_1_1_index.html#ac406d7ceb12e986a66d64ef98fcef5d3" target="_top" xlink:title=" ">
<polygon fill="#ffffff" stroke="#000000" points="256.8516,-74.5 256.8516,-92.5 387.9248,-92.5 387.9248,-74.5 256.8516,-74.5"/>
<text text-anchor="middle" x="322.3882" y="-80.5" font-family="Helvetica,sans-Serif" font-size="10.00" fill="#000000">Parallel::Index::cubeIndex</text>
</a>
</g>
</g>
<!-- Node19&#45;&gt;Node21 -->
<g id="edge4" class="edge">
<title>Node19&#45;&gt;Node21</title>
<path fill="none" stroke="#191970" d="M200.4727,-83.5C212.42,-83.5 229.2056,-83.5 246.5094,-83.5"/>
<polygon fill="#191970" stroke="#191970" points="246.7249,-87.0001 256.7249,-83.5 246.7248,-80.0001 246.7249,-87.0001"/>
</g>
<!-- Node22 -->
<g id="node6" class="node">
<title>Node22</title>
<g id="a_node6"><a xlink:href="class_parallel_1_1_index.html#af31faeef1369fdc0997d1910e008bfe2" target="_top" xlink:title=" ">
<polygon fill="#ffffff" stroke="#000000" points="260.7432,-37.5 260.7432,-55.5 384.0332,-55.5 384.0332,-37.5 260.7432,-37.5"/>
<text text-anchor="middle" x="322.3882" y="-43.5" font-family="Helvetica,sans-Serif" font-size="10.00" fill="#000000">Parallel::Index::getIndex</text>
</a>
</g>
</g>
<!-- Node19&#45;&gt;Node22 -->
<g id="edge5" class="edge">
<title>Node19&#45;&gt;Node22</title>
<path fill="none" stroke="#191970" d="M200.4727,-78.8887C219.8703,-73.7355 252.0218,-65.1939 278.438,-58.176"/>
<polygon fill="#191970" stroke="#191970" points="279.4769,-61.5215 288.243,-55.5712 277.6795,-54.7562 279.4769,-61.5215"/>
</g>
<!-- Node23 -->
<g id="node7" class="node">
<title>Node23</title>
<g id="a_node7"><a xlink:href="class_parallel_1_1_neighbours.html#a84653f3e22436280ac5a4689a24e7146" target="_top" xlink:title=" ">
<polygon fill="#ffffff" stroke="#000000" points="259.6348,-.5 259.6348,-18.5 385.1416,-18.5 385.1416,-.5 259.6348,-.5"/>
<text text-anchor="middle" x="322.3882" y="-6.5" font-family="Helvetica,sans-Serif" font-size="10.00" fill="#000000">Parallel::Neighbours::get</text>
</a>
</g>
</g>
<!-- Node19&#45;&gt;Node23 -->
<g id="edge6" class="edge">
<title>Node19&#45;&gt;Node23</title>
<path fill="none" stroke="#191970" d="M200.3598,-76.8205C207.0543,-73.8403 214.5988,-69.9836 220.8516,-65.5 239.4972,-52.1299 237.18,-40.3088 256.8516,-28.5 260.7858,-26.1383 265.0298,-24.0563 269.3998,-22.2235"/>
<polygon fill="#191970" stroke="#191970" points="270.9561,-25.3783 279.0965,-18.5971 268.5041,-18.8218 270.9561,-25.3783"/>
</g>
<!-- Node24&#45;&gt;Node20 -->
<g id="edge8" class="edge">
<title>Node24&#45;&gt;Node20</title>
<path fill="none" stroke="#191970" d="M197.7566,-120.5C214.7118,-120.5 243.6093,-120.5 269.3116,-120.5"/>
<polygon fill="#191970" stroke="#191970" points="269.3428,-124.0001 279.3428,-120.5 269.3427,-117.0001 269.3428,-124.0001"/>
</g>
</g>
</svg>
