<?xml version="1.0" encoding="UTF-8" standalone="no"?>
<!DOCTYPE svg PUBLIC "-//W3C//DTD SVG 1.1//EN"
 "http://www.w3.org/Graphics/SVG/1.1/DTD/svg11.dtd">
<!-- Generated by graphviz version 2.40.1 (20161225.0304)
 -->
<!-- Title: LuscherAction::getActionDerivative Pages: 1 -->
<svg width="413pt" height="175pt"
 viewBox="0.00 0.00 413.17 175.00" xmlns="http://www.w3.org/2000/svg" xmlns:xlink="http://www.w3.org/1999/xlink">
<g id="graph0" class="graph" transform="scale(1 1) rotate(0) translate(4 171)">
<title>LuscherAction::getActionDerivative</title>
<polygon fill="#ffffff" stroke="transparent" points="-4,4 -4,-171 409.166,-171 409.166,4 -4,4"/>
<!-- Node17 -->
<g id="node1" class="node">
<title>Node17</title>
<g id="a_node1"><a xlink:title="getActionDerivative, computes the derivative of the lattice in given direction.">
<polygon fill="#bfbfbf" stroke="#000000" points="0,-106.5 0,-134.5 126.6201,-134.5 126.6201,-106.5 0,-106.5"/>
<text text-anchor="start" x="8" y="-122.5" font-family="Helvetica,sans-Serif" font-size="10.00" fill="#000000">LuscherAction::getAction</text>
<text text-anchor="middle" x="63.3101" y="-112.5" font-family="Helvetica,sans-Serif" font-size="10.00" fill="#000000">Derivative</text>
</a>
</g>
</g>
<!-- Node18 -->
<g id="node2" class="node">
<title>Node18</title>
<g id="a_node2"><a xlink:href="class_lattice.html#a1e8bfb54f85e78f2c97e8b90d2b47dc9" target="_top" xlink:title="zeros sets all of the SU3 elements in the lattice to zero.">
<polygon fill="#ffffff" stroke="#000000" points="162.6201,-148.5 162.6201,-166.5 238.0928,-166.5 238.0928,-148.5 162.6201,-148.5"/>
<text text-anchor="middle" x="200.3564" y="-154.5" font-family="Helvetica,sans-Serif" font-size="10.00" fill="#000000">Lattice::zeros</text>
</a>
</g>
</g>
<!-- Node17&#45;&gt;Node18 -->
<g id="edge1" class="edge">
<title>Node17&#45;&gt;Node18</title>
<path fill="none" stroke="#191970" d="M115.5124,-134.5937C129.2558,-138.3041 143.9292,-142.2657 157.142,-145.8329"/>
<polygon fill="#191970" stroke="#191970" points="156.3549,-149.2456 166.9215,-148.4732 158.1795,-142.4876 156.3549,-149.2456"/>
</g>
<!-- Node19 -->
<g id="node3" class="node">
<title>Node19</title>
<g id="a_node3"><a xlink:href="lattice_8h.html#a53bbfaed8f54ee3a1db6f8049686ccdf" target="_top" xlink:title="shift copies the lattice L and shifts it in a specified lorentzVector direction DIR.">
<polygon fill="#ffffff" stroke="#000000" points="183.1865,-74.5 183.1865,-92.5 217.5264,-92.5 217.5264,-74.5 183.1865,-74.5"/>
<text text-anchor="middle" x="200.3564" y="-80.5" font-family="Helvetica,sans-Serif" font-size="10.00" fill="#000000">shift</text>
</a>
</g>
</g>
<!-- Node17&#45;&gt;Node19 -->
<g id="edge2" class="edge">
<title>Node17&#45;&gt;Node19</title>
<path fill="none" stroke="#191970" d="M115.5124,-106.4063C135.1205,-101.1125 156.6217,-95.3076 173.073,-90.866"/>
<polygon fill="#191970" stroke="#191970" points="174.342,-94.1488 183.084,-88.1632 172.5174,-87.3908 174.342,-94.1488"/>
</g>
<!-- Node24 -->
<g id="node8" class="node">
<title>Node24</title>
<g id="a_node8"><a xlink:href="lattice_8h.html#a491004d1505561625a8915464f3c6cab" target="_top" xlink:title=" ">
<polygon fill="#ffffff" stroke="#000000" points="185.8564,-111.5 185.8564,-129.5 214.8564,-129.5 214.8564,-111.5 185.8564,-111.5"/>
<text text-anchor="middle" x="200.3564" y="-117.5" font-family="Helvetica,sans-Serif" font-size="10.00" fill="#000000">inv</text>
</a>
</g>
</g>
<!-- Node17&#45;&gt;Node24 -->
<g id="edge7" class="edge">
<title>Node17&#45;&gt;Node24</title>
<path fill="none" stroke="#191970" d="M127.0187,-120.5C144.3376,-120.5 162.0686,-120.5 175.7571,-120.5"/>
<polygon fill="#191970" stroke="#191970" points="175.7834,-124.0001 185.7834,-120.5 175.7833,-117.0001 175.7834,-124.0001"/>
</g>
<!-- Node20 -->
<g id="node4" class="node">
<title>Node20</title>
<g id="a_node4"><a xlink:href="class_lattice.html#a5b4e162f06f7b4b90b4a9335ed2aabb5" target="_top" xlink:title="allocate method for allocating memory.">
<polygon fill="#ffffff" stroke="#000000" points="296.8857,-111.5 296.8857,-129.5 382.373,-129.5 382.373,-111.5 296.8857,-111.5"/>
<text text-anchor="middle" x="339.6294" y="-117.5" font-family="Helvetica,sans-Serif" font-size="10.00" fill="#000000">Lattice::allocate</text>
</a>
</g>
</g>
<!-- Node19&#45;&gt;Node20 -->
<g id="edge3" class="edge">
<title>Node19&#45;&gt;Node20</title>
<path fill="none" stroke="#191970" d="M217.7139,-88.1113C237.1115,-93.2645 269.263,-101.8061 295.6793,-108.824"/>
<polygon fill="#191970" stroke="#191970" points="294.9207,-112.2438 305.4842,-111.4288 296.7181,-105.4785 294.9207,-112.2438"/>
</g>
<!-- Node21 -->
<g id="node5" class="node">
<title>Node21</title>
<g id="a_node5"><a xlink:href="class_parallel_1_1_index.html#ac406d7ceb12e986a66d64ef98fcef5d3" target="_top" xlink:title=" ">
<polygon fill="#ffffff" stroke="#000000" points="274.0928,-74.5 274.0928,-92.5 405.166,-92.5 405.166,-74.5 274.0928,-74.5"/>
<text text-anchor="middle" x="339.6294" y="-80.5" font-family="Helvetica,sans-Serif" font-size="10.00" fill="#000000">Parallel::Index::cubeIndex</text>
</a>
</g>
</g>
<!-- Node19&#45;&gt;Node21 -->
<g id="edge4" class="edge">
<title>Node19&#45;&gt;Node21</title>
<path fill="none" stroke="#191970" d="M217.7139,-83.5C229.6612,-83.5 246.4468,-83.5 263.7506,-83.5"/>
<polygon fill="#191970" stroke="#191970" points="263.9661,-87.0001 273.9661,-83.5 263.966,-80.0001 263.9661,-87.0001"/>
</g>
<!-- Node22 -->
<g id="node6" class="node">
<title>Node22</title>
<g id="a_node6"><a xlink:href="class_parallel_1_1_index.html#af31faeef1369fdc0997d1910e008bfe2" target="_top" xlink:title=" ">
<polygon fill="#ffffff" stroke="#000000" points="277.9844,-37.5 277.9844,-55.5 401.2744,-55.5 401.2744,-37.5 277.9844,-37.5"/>
<text text-anchor="middle" x="339.6294" y="-43.5" font-family="Helvetica,sans-Serif" font-size="10.00" fill="#000000">Parallel::Index::getIndex</text>
</a>
</g>
</g>
<!-- Node19&#45;&gt;Node22 -->
<g id="edge5" class="edge">
<title>Node19&#45;&gt;Node22</title>
<path fill="none" stroke="#191970" d="M217.7139,-78.8887C237.1115,-73.7355 269.263,-65.1939 295.6793,-58.176"/>
<polygon fill="#191970" stroke="#191970" points="296.7181,-61.5215 305.4842,-55.5712 294.9207,-54.7562 296.7181,-61.5215"/>
</g>
<!-- Node23 -->
<g id="node7" class="node">
<title>Node23</title>
<g id="a_node7"><a xlink:href="class_parallel_1_1_neighbours.html#a84653f3e22436280ac5a4689a24e7146" target="_top" xlink:title="get returns the neighbourlist for the the calling processor/rank and the direction given py iProcDir.">
<polygon fill="#ffffff" stroke="#000000" points="276.876,-.5 276.876,-18.5 402.3828,-18.5 402.3828,-.5 276.876,-.5"/>
<text text-anchor="middle" x="339.6294" y="-6.5" font-family="Helvetica,sans-Serif" font-size="10.00" fill="#000000">Parallel::Neighbours::get</text>
</a>
</g>
</g>
<!-- Node19&#45;&gt;Node23 -->
<g id="edge6" class="edge">
<title>Node19&#45;&gt;Node23</title>
<path fill="none" stroke="#191970" d="M210.0269,-74.1824C223.3871,-61.7995 248.7268,-40.0293 274.0928,-27.5 278.4269,-25.3592 283.0522,-23.4426 287.7646,-21.7333"/>
<polygon fill="#191970" stroke="#191970" points="289.102,-24.9774 297.4942,-18.5104 286.9009,-18.3324 289.102,-24.9774"/>
</g>
<!-- Node24&#45;&gt;Node20 -->
<g id="edge8" class="edge">
<title>Node24&#45;&gt;Node20</title>
<path fill="none" stroke="#191970" d="M214.9979,-120.5C231.953,-120.5 260.8505,-120.5 286.5528,-120.5"/>
<polygon fill="#191970" stroke="#191970" points="286.584,-124.0001 296.584,-120.5 286.5839,-117.0001 286.584,-124.0001"/>
</g>
</g>
</svg>
