<?xml version="1.0" encoding="UTF-8" standalone="no"?>
<!DOCTYPE svg PUBLIC "-//W3C//DTD SVG 1.1//EN"
 "http://www.w3.org/Graphics/SVG/1.1/DTD/svg11.dtd">
<!-- Generated by graphviz version 2.40.1 (20161225.0304)
 -->
<!-- Title: Parameters::setSubLatticeSize Pages: 1 -->
<svg width="457pt" height="37pt"
 viewBox="0.00 0.00 457.04 37.00" xmlns="http://www.w3.org/2000/svg" xmlns:xlink="http://www.w3.org/1999/xlink">
<g id="graph0" class="graph" transform="scale(1 1) rotate(0) translate(4 33)">
<title>Parameters::setSubLatticeSize</title>
<polygon fill="#ffffff" stroke="transparent" points="-4,4 -4,-33 453.0381,-33 453.0381,4 -4,4"/>
<!-- Node528 -->
<g id="node1" class="node">
<title>Node528</title>
<g id="a_node1"><a xlink:title=" ">
<polygon fill="#bfbfbf" stroke="#000000" points="295.748,-5.5 295.748,-23.5 449.0381,-23.5 449.0381,-5.5 295.748,-5.5"/>
<text text-anchor="middle" x="372.3931" y="-11.5" font-family="Helvetica,sans-Serif" font-size="10.00" fill="#000000">Parameters::setSubLatticeSize</text>
</a>
</g>
</g>
<!-- Node529 -->
<g id="node2" class="node">
<title>Node529</title>
<g id="a_node2"><a xlink:href="class_parallel_1_1_communicator.html#a71baca622b377e6537799857be416a77" target="_top" xlink:title=" ">
<polygon fill="#ffffff" stroke="#000000" points="139.8223,-.5 139.8223,-28.5 259.748,-28.5 259.748,-.5 139.8223,-.5"/>
<text text-anchor="start" x="147.8223" y="-16.5" font-family="Helvetica,sans-Serif" font-size="10.00" fill="#000000">Parallel::Communicator</text>
<text text-anchor="middle" x="199.7852" y="-6.5" font-family="Helvetica,sans-Serif" font-size="10.00" fill="#000000">::initializeSubLattice</text>
</a>
</g>
</g>
<!-- Node528&#45;&gt;Node529 -->
<g id="edge1" class="edge">
<title>Node528&#45;&gt;Node529</title>
<path fill="none" stroke="#191970" d="M285.5373,-14.5C276.8827,-14.5 268.2356,-14.5 259.9439,-14.5"/>
<polygon fill="#191970" stroke="#191970" points="285.6796,-18.0001 295.6795,-14.5 285.6795,-11.0001 285.6796,-18.0001"/>
</g>
<!-- Node530 -->
<g id="node3" class="node">
<title>Node530</title>
<g id="a_node3"><a xlink:href="class_test_suite.html#af7291e6d8b53443604ee0c1fcf1fadfc" target="_top" xlink:title=" ">
<polygon fill="#ffffff" stroke="#000000" points="0,-5.5 0,-23.5 103.8223,-23.5 103.8223,-5.5 0,-5.5"/>
<text text-anchor="middle" x="51.9111" y="-11.5" font-family="Helvetica,sans-Serif" font-size="10.00" fill="#000000">TestSuite::TestSuite</text>
</a>
</g>
</g>
<!-- Node529&#45;&gt;Node530 -->
<g id="edge2" class="edge">
<title>Node529&#45;&gt;Node530</title>
<path fill="none" stroke="#191970" d="M129.5664,-14.5C120.9353,-14.5 112.2365,-14.5 103.942,-14.5"/>
<polygon fill="#191970" stroke="#191970" points="129.6392,-18.0001 139.6391,-14.5 129.6391,-11.0001 129.6392,-18.0001"/>
</g>
</g>
</svg>
