<?xml version="1.0" encoding="UTF-8" standalone="no"?>
<!DOCTYPE svg PUBLIC "-//W3C//DTD SVG 1.1//EN"
 "http://www.w3.org/Graphics/SVG/1.1/DTD/svg11.dtd">
<!-- Generated by graphviz version 2.40.1 (20161225.0304)
 -->
<!-- Title: Correlator::initializeObservableStorer Pages: 1 -->
<svg width="373pt" height="148pt"
 viewBox="0.00 0.00 373.35 148.00" xmlns="http://www.w3.org/2000/svg" xmlns:xlink="http://www.w3.org/1999/xlink">
<g id="graph0" class="graph" transform="scale(1 1) rotate(0) translate(4 144)">
<title>Correlator::initializeObservableStorer</title>
<polygon fill="#ffffff" stroke="transparent" points="-4,4 -4,-144 369.3486,-144 369.3486,4 -4,4"/>
<!-- Node30 -->
<g id="node1" class="node">
<title>Node30</title>
<g id="a_node1"><a xlink:title="Correlator::initializeObservableStorer initializes ObservableStorer.">
<polygon fill="#bfbfbf" stroke="#000000" points="0,-53.5 0,-81.5 152.7236,-81.5 152.7236,-53.5 0,-53.5"/>
<text text-anchor="start" x="8" y="-69.5" font-family="Helvetica,sans-Serif" font-size="10.00" fill="#000000">Correlator::initializeObservable</text>
<text text-anchor="middle" x="76.3618" y="-59.5" font-family="Helvetica,sans-Serif" font-size="10.00" fill="#000000">Storer</text>
</a>
</g>
</g>
<!-- Node31 -->
<g id="node2" class="node">
<title>Node31</title>
<g id="a_node2"><a xlink:href="class_parameters.html#aae314edb18d426571ab7b6df60da70aa" target="_top" xlink:title=" ">
<polygon fill="#ffffff" stroke="#000000" points="216.7974,-121.5 216.7974,-139.5 337.2749,-139.5 337.2749,-121.5 216.7974,-121.5"/>
<text text-anchor="middle" x="277.0361" y="-127.5" font-family="Helvetica,sans-Serif" font-size="10.00" fill="#000000">Parameters::getNFlows</text>
</a>
</g>
</g>
<!-- Node30&#45;&gt;Node31 -->
<g id="edge1" class="edge">
<title>Node30&#45;&gt;Node31</title>
<path fill="none" stroke="#191970" d="M107.3062,-81.6461C129.5793,-91.3925 160.5415,-104.0594 188.7236,-112.5 197.1095,-115.0116 206.0478,-117.2851 214.8965,-119.3046"/>
<polygon fill="#191970" stroke="#191970" points="214.2976,-122.7563 224.8148,-121.4759 215.7947,-115.9182 214.2976,-122.7563"/>
</g>
<!-- Node32 -->
<g id="node3" class="node">
<title>Node32</title>
<g id="a_node3"><a xlink:href="class_parameters.html#a216f85b3c5980a33f8a54c42fb3575c7" target="_top" xlink:title=" ">
<polygon fill="#ffffff" stroke="#000000" points="188.7236,-74.5 188.7236,-102.5 365.3486,-102.5 365.3486,-74.5 188.7236,-74.5"/>
<text text-anchor="start" x="196.7236" y="-90.5" font-family="Helvetica,sans-Serif" font-size="10.00" fill="#000000">Parameters::getStoreThermalization</text>
<text text-anchor="middle" x="277.0361" y="-80.5" font-family="Helvetica,sans-Serif" font-size="10.00" fill="#000000">Observables</text>
</a>
</g>
</g>
<!-- Node30&#45;&gt;Node32 -->
<g id="edge2" class="edge">
<title>Node30&#45;&gt;Node32</title>
<path fill="none" stroke="#191970" d="M152.8006,-75.4991C161.2394,-76.3822 169.9176,-77.2903 178.5771,-78.1965"/>
<polygon fill="#191970" stroke="#191970" points="178.4086,-81.6979 188.7186,-79.2578 179.1372,-74.736 178.4086,-81.6979"/>
</g>
<!-- Node33 -->
<g id="node4" class="node">
<title>Node33</title>
<g id="a_node4"><a xlink:href="class_parameters.html#a03f8c0aa2a31b9bfc016441cb263082c" target="_top" xlink:title=" ">
<polygon fill="#ffffff" stroke="#000000" points="224.854,-37.5 224.854,-55.5 329.2183,-55.5 329.2183,-37.5 224.854,-37.5"/>
<text text-anchor="middle" x="277.0361" y="-43.5" font-family="Helvetica,sans-Serif" font-size="10.00" fill="#000000">Parameters::getNCf</text>
</a>
</g>
</g>
<!-- Node30&#45;&gt;Node33 -->
<g id="edge3" class="edge">
<title>Node30&#45;&gt;Node33</title>
<path fill="none" stroke="#191970" d="M152.8006,-59.5009C173.2684,-57.359 195.1448,-55.0697 214.7469,-53.0184"/>
<polygon fill="#191970" stroke="#191970" points="215.1894,-56.4913 224.7708,-51.9694 214.4608,-49.5293 215.1894,-56.4913"/>
</g>
<!-- Node34 -->
<g id="node5" class="node">
<title>Node34</title>
<g id="a_node5"><a xlink:href="class_parameters.html#ad1f56cc1bb6c19f40454b30a5bc82da6" target="_top" xlink:title=" ">
<polygon fill="#ffffff" stroke="#000000" points="215.4082,-.5 215.4082,-18.5 338.6641,-18.5 338.6641,-.5 215.4082,-.5"/>
<text text-anchor="middle" x="277.0361" y="-6.5" font-family="Helvetica,sans-Serif" font-size="10.00" fill="#000000">Parameters::getNTherm</text>
</a>
</g>
</g>
<!-- Node30&#45;&gt;Node34 -->
<g id="edge4" class="edge">
<title>Node30&#45;&gt;Node34</title>
<path fill="none" stroke="#191970" d="M113.1996,-53.438C134.9619,-45.4524 163.1724,-35.6541 188.7236,-28.5 198.7948,-25.6802 209.6118,-23.0401 220.1025,-20.6776"/>
<polygon fill="#191970" stroke="#191970" points="221.008,-24.0622 230.0258,-18.5007 219.508,-17.2248 221.008,-24.0622"/>
</g>
</g>
</svg>
