<?xml version="1.0" encoding="UTF-8" standalone="no"?>
<!DOCTYPE svg PUBLIC "-//W3C//DTD SVG 1.1//EN"
 "http://www.w3.org/Graphics/SVG/1.1/DTD/svg11.dtd">
<!-- Generated by graphviz version 2.40.1 (20161225.0304)
 -->
<!-- Title: ObservableStorer::reset Pages: 1 -->
<svg width="306pt" height="195pt"
 viewBox="0.00 0.00 305.56 195.00" xmlns="http://www.w3.org/2000/svg" xmlns:xlink="http://www.w3.org/1999/xlink">
<g id="graph0" class="graph" transform="scale(1 1) rotate(0) translate(4 191)">
<title>ObservableStorer::reset</title>
<polygon fill="#ffffff" stroke="transparent" points="-4,4 -4,-191 301.5557,-191 301.5557,4 -4,4"/>
<!-- Node50 -->
<g id="node1" class="node">
<title>Node50</title>
<g id="a_node1"><a xlink:title="ObservableStorer::reset set all the members for observable storage to zero.">
<polygon fill="#bfbfbf" stroke="#000000" points="175.3984,-84.5 175.3984,-102.5 297.5557,-102.5 297.5557,-84.5 175.3984,-84.5"/>
<text text-anchor="middle" x="236.4771" y="-90.5" font-family="Helvetica,sans-Serif" font-size="10.00" fill="#000000">ObservableStorer::reset</text>
</a>
</g>
</g>
<!-- Node51 -->
<g id="node2" class="node">
<title>Node51</title>
<g id="a_node2"><a xlink:href="class_correlator.html#aacca40262d2cd62f0a3964e832f948c1" target="_top" xlink:title="Correlator::reset resets ObservableStorer.">
<polygon fill="#ffffff" stroke="#000000" points="25.5762,-168.5 25.5762,-186.5 113.8223,-186.5 113.8223,-168.5 25.5762,-168.5"/>
<text text-anchor="middle" x="69.6992" y="-174.5" font-family="Helvetica,sans-Serif" font-size="10.00" fill="#000000">Correlator::reset</text>
</a>
</g>
</g>
<!-- Node50&#45;&gt;Node51 -->
<g id="edge1" class="edge">
<title>Node50&#45;&gt;Node51</title>
<path fill="none" stroke="#191970" d="M217.887,-109.0366C199.1605,-123.9607 168.8923,-146.1549 139.3984,-159.5 131.4281,-163.1064 122.6052,-166.0863 113.992,-168.5128"/>
<polygon fill="#191970" stroke="#191970" points="220.3099,-111.5777 225.8668,-102.5571 215.8974,-106.1436 220.3099,-111.5777"/>
</g>
<!-- Node52 -->
<g id="node3" class="node">
<title>Node52</title>
<g id="a_node3"><a xlink:href="class_lattice_action_charge_density.html#aebbc2cc72334e7b33d9cce2ad469280b" target="_top" xlink:title="Correlator::reset resets ObservableStorer.">
<polygon fill="#ffffff" stroke="#000000" points="0,-121.5 0,-149.5 139.3984,-149.5 139.3984,-121.5 0,-121.5"/>
<text text-anchor="start" x="8" y="-137.5" font-family="Helvetica,sans-Serif" font-size="10.00" fill="#000000">LatticeActionChargeDensity</text>
<text text-anchor="middle" x="69.6992" y="-127.5" font-family="Helvetica,sans-Serif" font-size="10.00" fill="#000000">::reset</text>
</a>
</g>
</g>
<!-- Node50&#45;&gt;Node52 -->
<g id="edge2" class="edge">
<title>Node50&#45;&gt;Node52</title>
<path fill="none" stroke="#191970" d="M190.8129,-104.9997C170.6145,-110.0863 146.6745,-116.1152 125.434,-121.4642"/>
<polygon fill="#191970" stroke="#191970" points="191.8565,-108.3462 200.699,-102.5101 190.147,-101.5582 191.8565,-108.3462"/>
</g>
<!-- Node53 -->
<g id="node4" class="node">
<title>Node53</title>
<g id="a_node4"><a xlink:href="class_master_sampler.html#a275a032513db03c899056fd07d71cc89" target="_top" xlink:title="Correlator::reset resets ObservableStorer.">
<polygon fill="#ffffff" stroke="#000000" points="13.9063,-84.5 13.9063,-102.5 125.4922,-102.5 125.4922,-84.5 13.9063,-84.5"/>
<text text-anchor="middle" x="69.6992" y="-90.5" font-family="Helvetica,sans-Serif" font-size="10.00" fill="#000000">MasterSampler::reset</text>
</a>
</g>
</g>
<!-- Node50&#45;&gt;Node53 -->
<g id="edge3" class="edge">
<title>Node50&#45;&gt;Node53</title>
<path fill="none" stroke="#191970" d="M165.2804,-93.5C152.0116,-93.5 138.3219,-93.5 125.5944,-93.5"/>
<polygon fill="#191970" stroke="#191970" points="165.3222,-97.0001 175.3222,-93.5 165.3221,-90.0001 165.3222,-97.0001"/>
</g>
<!-- Node54 -->
<g id="node5" class="node">
<title>Node54</title>
<g id="a_node5"><a xlink:href="class_master_sampler_topc_x_y_z.html#aef8d0b1b431711c6410cfece1c007b4a" target="_top" xlink:title="Correlator::reset resets ObservableStorer.">
<polygon fill="#ffffff" stroke="#000000" points="7.5146,-37.5 7.5146,-65.5 131.8838,-65.5 131.8838,-37.5 7.5146,-37.5"/>
<text text-anchor="start" x="15.5146" y="-53.5" font-family="Helvetica,sans-Serif" font-size="10.00" fill="#000000">MasterSamplerTopcXYZ</text>
<text text-anchor="middle" x="69.6992" y="-43.5" font-family="Helvetica,sans-Serif" font-size="10.00" fill="#000000">::reset</text>
</a>
</g>
</g>
<!-- Node50&#45;&gt;Node54 -->
<g id="edge4" class="edge">
<title>Node50&#45;&gt;Node54</title>
<path fill="none" stroke="#191970" d="M190.8129,-82.0003C170.6145,-76.9137 146.6745,-70.8848 125.434,-65.5358"/>
<polygon fill="#191970" stroke="#191970" points="190.147,-85.4418 200.699,-84.4899 191.8565,-78.6538 190.147,-85.4418"/>
</g>
<!-- Node55 -->
<g id="node6" class="node">
<title>Node55</title>
<g id="a_node6"><a xlink:href="class_super_sampler.html#ab2f028561e015500fac1e3093aa4a725" target="_top" xlink:title="Correlator::reset resets ObservableStorer.">
<polygon fill="#ffffff" stroke="#000000" points="15.8447,-.5 15.8447,-18.5 123.5537,-18.5 123.5537,-.5 15.8447,-.5"/>
<text text-anchor="middle" x="69.6992" y="-6.5" font-family="Helvetica,sans-Serif" font-size="10.00" fill="#000000">SuperSampler::reset</text>
</a>
</g>
</g>
<!-- Node50&#45;&gt;Node55 -->
<g id="edge5" class="edge">
<title>Node50&#45;&gt;Node55</title>
<path fill="none" stroke="#191970" d="M217.5007,-78.0597C198.6924,-63.4398 168.5503,-41.8016 139.3984,-28.5 130.7265,-24.5431 121.0606,-21.2611 111.7552,-18.6019"/>
<polygon fill="#191970" stroke="#191970" points="215.5212,-80.9565 225.5351,-84.4168 219.8647,-75.4671 215.5212,-80.9565"/>
</g>
</g>
</svg>
