<?xml version="1.0" encoding="UTF-8" standalone="no"?>
<!DOCTYPE svg PUBLIC "-//W3C//DTD SVG 1.1//EN"
 "http://www.w3.org/Graphics/SVG/1.1/DTD/svg11.dtd">
<!-- Generated by graphviz version 2.40.1 (20161225.0304)
 -->
<!-- Title: Parallel::Communicator::setBarrier Pages: 1 -->
<svg width="349pt" height="200pt"
 viewBox="0.00 0.00 348.64 200.23" xmlns="http://www.w3.org/2000/svg" xmlns:xlink="http://www.w3.org/1999/xlink">
<g id="graph0" class="graph" transform="scale(1 1) rotate(0) translate(4 196.2317)">
<title>Parallel::Communicator::setBarrier</title>
<polygon fill="#ffffff" stroke="transparent" points="-4,4 -4,-196.2317 344.6396,-196.2317 344.6396,4 -4,4"/>
<!-- Node155 -->
<g id="node1" class="node">
<title>Node155</title>
<g id="a_node1"><a xlink:title="Parallel::Communicator::setBarrier.">
<polygon fill="#bfbfbf" stroke="#000000" points="220.7139,-87.5 220.7139,-115.5 340.6396,-115.5 340.6396,-87.5 220.7139,-87.5"/>
<text text-anchor="start" x="228.7139" y="-103.5" font-family="Helvetica,sans-Serif" font-size="10.00" fill="#000000">Parallel::Communicator</text>
<text text-anchor="middle" x="280.6768" y="-93.5" font-family="Helvetica,sans-Serif" font-size="10.00" fill="#000000">::setBarrier</text>
</a>
</g>
</g>
<!-- Node156 -->
<g id="node2" class="node">
<title>Node156</title>
<g id="a_node2"><a xlink:href="main_8cpp.html#a4e6f00a867970a9eedf47b88a27b9eea" target="_top" xlink:title="main loads in configurations and initiates program according to .json specifications.">
<polygon fill="#ffffff" stroke="#000000" points="0,-74.5 0,-92.5 37.6748,-92.5 37.6748,-74.5 0,-74.5"/>
<text text-anchor="middle" x="18.8374" y="-80.5" font-family="Helvetica,sans-Serif" font-size="10.00" fill="#000000">main</text>
</a>
</g>
</g>
<!-- Node155&#45;&gt;Node156 -->
<g id="edge1" class="edge">
<title>Node155&#45;&gt;Node156</title>
<path fill="none" stroke="#191970" d="M261.4722,-122.9925C243.6513,-141.1926 215.3271,-165.9562 184.7139,-176.5 138.0532,-192.5709 116.5265,-200.979 73.6748,-176.5 41.2869,-157.9984 26.1158,-112.0645 20.9656,-92.5268"/>
<polygon fill="#191970" stroke="#191970" points="264.0928,-125.3156 268.4427,-115.6549 259.0177,-120.4944 264.0928,-125.3156"/>
</g>
<!-- Node157 -->
<g id="node3" class="node">
<title>Node157</title>
<g id="a_node3"><a xlink:href="class_system.html#ae317936c9bcf1374d61745572e0f2f8a" target="_top" xlink:title=" ">
<polygon fill="#ffffff" stroke="#000000" points="85.0762,-148.5 85.0762,-166.5 173.3125,-166.5 173.3125,-148.5 85.0762,-148.5"/>
<text text-anchor="middle" x="129.1943" y="-154.5" font-family="Helvetica,sans-Serif" font-size="10.00" fill="#000000">System::System</text>
</a>
</g>
</g>
<!-- Node155&#45;&gt;Node157 -->
<g id="edge2" class="edge">
<title>Node155&#45;&gt;Node157</title>
<path fill="none" stroke="#191970" d="M237.3413,-119.3362C220.9415,-125.9074 202.0507,-133.2641 184.7139,-139.5 176.228,-142.5523 166.9321,-145.6578 158.415,-148.4107"/>
<polygon fill="#191970" stroke="#191970" points="238.7125,-122.5572 246.6788,-115.5723 236.0955,-116.0648 238.7125,-122.5572"/>
</g>
<!-- Node158 -->
<g id="node4" class="node">
<title>Node158</title>
<g id="a_node4"><a xlink:href="class_system.html#a93c8a8258ac8f6382ec393bca1271011" target="_top" xlink:title="System::latticeSetup sets up the lattice geometry and allocates memory.">
<polygon fill="#ffffff" stroke="#000000" points="75.6182,-111.5 75.6182,-129.5 182.7705,-129.5 182.7705,-111.5 75.6182,-111.5"/>
<text text-anchor="middle" x="129.1943" y="-117.5" font-family="Helvetica,sans-Serif" font-size="10.00" fill="#000000">System::latticeSetup</text>
</a>
</g>
</g>
<!-- Node155&#45;&gt;Node158 -->
<g id="edge3" class="edge">
<title>Node155&#45;&gt;Node158</title>
<path fill="none" stroke="#191970" d="M210.4141,-110.3128C201.1739,-111.4718 191.8244,-112.6445 182.9195,-113.7614"/>
<polygon fill="#191970" stroke="#191970" points="210.885,-113.7813 220.3716,-109.0639 210.0138,-106.8357 210.885,-113.7813"/>
</g>
<!-- Node159 -->
<g id="node5" class="node">
<title>Node159</title>
<g id="a_node5"><a xlink:href="class_system.html#afa39feb75f96798930f4bfb48205f40b" target="_top" xlink:title="System::run based on passed parameters, does one of three things:">
<polygon fill="#ffffff" stroke="#000000" points="94.5195,-74.5 94.5195,-92.5 163.8691,-92.5 163.8691,-74.5 94.5195,-74.5"/>
<text text-anchor="middle" x="129.1943" y="-80.5" font-family="Helvetica,sans-Serif" font-size="10.00" fill="#000000">System::run</text>
</a>
</g>
</g>
<!-- Node155&#45;&gt;Node159 -->
<g id="edge5" class="edge">
<title>Node155&#45;&gt;Node159</title>
<path fill="none" stroke="#191970" d="M210.4063,-93.1501C194.2902,-91.2351 177.8421,-89.2806 164.0009,-87.6359"/>
<polygon fill="#191970" stroke="#191970" points="210.0285,-96.6297 220.3716,-94.3342 210.8545,-89.6786 210.0285,-96.6297"/>
</g>
<!-- Node160 -->
<g id="node6" class="node">
<title>Node160</title>
<g id="a_node6"><a xlink:href="test_8h.html#a91a9c7ea8af27bb3962f1207dd4cb8fd" target="_top" xlink:title="Header containing functions needed for running unit tests, integration tests and validation testing.">
<polygon fill="#ffffff" stroke="#000000" points="93.4063,-37.5 93.4063,-55.5 164.9824,-55.5 164.9824,-37.5 93.4063,-37.5"/>
<text text-anchor="middle" x="129.1943" y="-43.5" font-family="Helvetica,sans-Serif" font-size="10.00" fill="#000000">runUnitTests</text>
</a>
</g>
</g>
<!-- Node155&#45;&gt;Node160 -->
<g id="edge7" class="edge">
<title>Node155&#45;&gt;Node160</title>
<path fill="none" stroke="#191970" d="M234.3545,-83.8112C218.6333,-77.8909 200.9427,-71.3196 184.7139,-65.5 175.4119,-62.1643 165.1881,-58.6286 156.0766,-55.5234"/>
<polygon fill="#191970" stroke="#191970" points="233.2663,-87.1415 243.8579,-87.4008 235.7397,-80.593 233.2663,-87.1415"/>
</g>
<!-- Node161 -->
<g id="node7" class="node">
<title>Node161</title>
<g id="a_node7"><a xlink:href="test_8h.html#a78e241f531e5203858fdb59a4162d6ba" target="_top" xlink:title="runPerformanceTests will run performance tests on program. Exits once complete.">
<polygon fill="#ffffff" stroke="#000000" points="73.6748,-.5 73.6748,-18.5 184.7139,-18.5 184.7139,-.5 73.6748,-.5"/>
<text text-anchor="middle" x="129.1943" y="-6.5" font-family="Helvetica,sans-Serif" font-size="10.00" fill="#000000">runPerformanceTests</text>
</a>
</g>
</g>
<!-- Node155&#45;&gt;Node161 -->
<g id="edge9" class="edge">
<title>Node155&#45;&gt;Node161</title>
<path fill="none" stroke="#191970" d="M257.8168,-80.7286C239.229,-64.7072 211.7428,-42.9178 184.7139,-28.5 177.433,-24.6162 169.2013,-21.288 161.3494,-18.5526"/>
<polygon fill="#191970" stroke="#191970" points="255.6259,-83.4624 265.4539,-87.4198 260.2388,-78.1973 255.6259,-83.4624"/>
</g>
<!-- Node158&#45;&gt;Node156 -->
<g id="edge4" class="edge">
<title>Node158&#45;&gt;Node156</title>
<path fill="none" stroke="#191970" d="M91.2134,-108.2979C85.3347,-106.377 79.337,-104.3986 73.6748,-102.5 61.7337,-98.496 48.3795,-93.8723 37.8393,-90.1885"/>
<polygon fill="#191970" stroke="#191970" points="90.322,-111.6883 100.9142,-111.452 92.4865,-105.0314 90.322,-111.6883"/>
</g>
<!-- Node159&#45;&gt;Node156 -->
<g id="edge6" class="edge">
<title>Node159&#45;&gt;Node156</title>
<path fill="none" stroke="#191970" d="M83.9124,-83.5C67.7935,-83.5 50.5097,-83.5 37.8084,-83.5"/>
<polygon fill="#191970" stroke="#191970" points="84.2767,-87.0001 94.2767,-83.5 84.2767,-80.0001 84.2767,-87.0001"/>
</g>
<!-- Node160&#45;&gt;Node156 -->
<g id="edge8" class="edge">
<title>Node160&#45;&gt;Node156</title>
<path fill="none" stroke="#191970" d="M92.6881,-58.7397C74.39,-64.8746 52.9861,-72.0508 37.9459,-77.0934"/>
<polygon fill="#191970" stroke="#191970" points="93.8293,-62.0486 102.198,-55.5512 91.6041,-55.4117 93.8293,-62.0486"/>
</g>
<!-- Node161&#45;&gt;Node156 -->
<g id="edge10" class="edge">
<title>Node161&#45;&gt;Node156</title>
<path fill="none" stroke="#191970" d="M85.1674,-22.4305C81.1664,-24.2353 77.2715,-26.2536 73.6748,-28.5 53.5468,-41.0717 35.1755,-62.3534 25.6592,-74.4268"/>
<polygon fill="#191970" stroke="#191970" points="86.656,-25.6036 94.6054,-18.5995 84.0232,-19.1176 86.656,-25.6036"/>
</g>
</g>
</svg>
