<?xml version="1.0" encoding="UTF-8" standalone="no"?>
<!DOCTYPE svg PUBLIC "-//W3C//DTD SVG 1.1//EN"
 "http://www.w3.org/Graphics/SVG/1.1/DTD/svg11.dtd">
<!-- Generated by graphviz version 2.40.1 (20161225.0304)
 -->
<!-- Title: EnergyDensity::printStatistics Pages: 1 -->
<svg width="505pt" height="37pt"
 viewBox="0.00 0.00 505.36 37.00" xmlns="http://www.w3.org/2000/svg" xmlns:xlink="http://www.w3.org/1999/xlink">
<g id="graph0" class="graph" transform="scale(1 1) rotate(0) translate(4 33)">
<title>EnergyDensity::printStatistics</title>
<polygon fill="#ffffff" stroke="transparent" points="-4,4 -4,-33 501.3633,-33 501.3633,4 -4,4"/>
<!-- Node21 -->
<g id="node1" class="node">
<title>Node21</title>
<g id="a_node1"><a xlink:title="Correlator::printStatistics prints statistics from ObservableStorer.">
<polygon fill="#bfbfbf" stroke="#000000" points="0,-5.5 0,-23.5 146.0488,-23.5 146.0488,-5.5 0,-5.5"/>
<text text-anchor="middle" x="73.0244" y="-11.5" font-family="Helvetica,sans-Serif" font-size="10.00" fill="#000000">EnergyDensity::printStatistics</text>
</a>
</g>
</g>
<!-- Node22 -->
<g id="node2" class="node">
<title>Node22</title>
<g id="a_node2"><a xlink:href="class_observable_storer.html#a04a12e7da9e21d6947027230c953bffe" target="_top" xlink:title=" ">
<polygon fill="#ffffff" stroke="#000000" points="182.0488,-5.5 182.0488,-23.5 341.4375,-23.5 341.4375,-5.5 182.0488,-5.5"/>
<text text-anchor="middle" x="261.7432" y="-11.5" font-family="Helvetica,sans-Serif" font-size="10.00" fill="#000000">ObservableStorer::printStatistics</text>
</a>
</g>
</g>
<!-- Node21&#45;&gt;Node22 -->
<g id="edge1" class="edge">
<title>Node21&#45;&gt;Node22</title>
<path fill="none" stroke="#191970" d="M146.2581,-14.5C154.6731,-14.5 163.3243,-14.5 171.9251,-14.5"/>
<polygon fill="#191970" stroke="#191970" points="171.9814,-18.0001 181.9814,-14.5 171.9813,-11.0001 171.9814,-18.0001"/>
</g>
<!-- Node23 -->
<g id="node3" class="node">
<title>Node23</title>
<g id="a_node3"><a xlink:href="class_parallel_1_1_communicator.html#a474ab433da0e83ef372d74e26a7e5cb0" target="_top" xlink:title=" ">
<polygon fill="#ffffff" stroke="#000000" points="377.4375,-.5 377.4375,-28.5 497.3633,-28.5 497.3633,-.5 377.4375,-.5"/>
<text text-anchor="start" x="385.4375" y="-16.5" font-family="Helvetica,sans-Serif" font-size="10.00" fill="#000000">Parallel::Communicator</text>
<text text-anchor="middle" x="437.4004" y="-6.5" font-family="Helvetica,sans-Serif" font-size="10.00" fill="#000000">::getProcessRank</text>
</a>
</g>
</g>
<!-- Node22&#45;&gt;Node23 -->
<g id="edge2" class="edge">
<title>Node22&#45;&gt;Node23</title>
<path fill="none" stroke="#191970" d="M341.6049,-14.5C350.1099,-14.5 358.7154,-14.5 367.0989,-14.5"/>
<polygon fill="#191970" stroke="#191970" points="367.193,-18.0001 377.193,-14.5 367.1929,-11.0001 367.193,-18.0001"/>
</g>
</g>
</svg>
