<?xml version="1.0" encoding="UTF-8" standalone="no"?>
<!DOCTYPE svg PUBLIC "-//W3C//DTD SVG 1.1//EN"
 "http://www.w3.org/Graphics/SVG/1.1/DTD/svg11.dtd">
<!-- Generated by graphviz version 2.40.1 (20161225.0304)
 -->
<!-- Title: nlohmann::basic_json::is_object Pages: 1 -->
<svg width="581pt" height="481pt"
 viewBox="0.00 0.00 580.81 481.00" xmlns="http://www.w3.org/2000/svg" xmlns:xlink="http://www.w3.org/1999/xlink">
<g id="graph0" class="graph" transform="scale(1 1) rotate(0) translate(4 477)">
<title>nlohmann::basic_json::is_object</title>
<polygon fill="#ffffff" stroke="transparent" points="-4,4 -4,-477 576.8105,-477 576.8105,4 -4,4"/>
<!-- Node284 -->
<g id="node1" class="node">
<title>Node284</title>
<g id="a_node1"><a xlink:title="return whether value is an object">
<polygon fill="#bfbfbf" stroke="#000000" points="460.082,-227.5 460.082,-255.5 572.8105,-255.5 572.8105,-227.5 460.082,-227.5"/>
<text text-anchor="start" x="468.082" y="-243.5" font-family="Helvetica,sans-Serif" font-size="10.00" fill="#000000">nlohmann::basic_json</text>
<text text-anchor="middle" x="516.4463" y="-233.5" font-family="Helvetica,sans-Serif" font-size="10.00" fill="#000000">::is_object</text>
</a>
</g>
</g>
<!-- Node285 -->
<g id="node2" class="node">
<title>Node285</title>
<g id="a_node2"><a xlink:href="classnlohmann_1_1basic__json.html#a9f68a0af820c3ced7f9d17851ce4c22d" target="_top" xlink:title="return whether type is structured">
<polygon fill="#ffffff" stroke="#000000" points="304.4053,-444.5 304.4053,-472.5 417.1338,-472.5 417.1338,-444.5 304.4053,-444.5"/>
<text text-anchor="start" x="312.4053" y="-460.5" font-family="Helvetica,sans-Serif" font-size="10.00" fill="#000000">nlohmann::basic_json</text>
<text text-anchor="middle" x="360.7695" y="-450.5" font-family="Helvetica,sans-Serif" font-size="10.00" fill="#000000">::is_structured</text>
</a>
</g>
</g>
<!-- Node284&#45;&gt;Node285 -->
<g id="edge1" class="edge">
<title>Node284&#45;&gt;Node285</title>
<path fill="none" stroke="#191970" d="M511.3017,-265.4891C501.3966,-306.0649 475.915,-388.4137 424.082,-435.5 420.2733,-438.9599 415.9035,-441.9099 411.2781,-444.4231"/>
<polygon fill="#191970" stroke="#191970" points="514.7297,-266.2006 513.5917,-255.6671 507.9125,-264.6112 514.7297,-266.2006"/>
</g>
<!-- Node286 -->
<g id="node3" class="node">
<title>Node286</title>
<g id="a_node3"><a xlink:href="classnlohmann_1_1basic__json.html#a93403e803947b86f4da2d1fb3345cf2c" target="_top" xlink:title="access specified object element with bounds checking">
<polygon fill="#ffffff" stroke="#000000" points="297.457,-407.5 297.457,-425.5 424.082,-425.5 424.082,-407.5 297.457,-407.5"/>
<text text-anchor="middle" x="360.7695" y="-413.5" font-family="Helvetica,sans-Serif" font-size="10.00" fill="#000000">nlohmann::basic_json::at</text>
</a>
</g>
</g>
<!-- Node284&#45;&gt;Node286 -->
<g id="edge2" class="edge">
<title>Node284&#45;&gt;Node286</title>
<path fill="none" stroke="#191970" d="M508.8367,-265.3935C496.5915,-299.9701 469.2064,-363.6226 424.082,-398.5 419.2901,-402.2038 413.7686,-405.1455 408.025,-407.4819"/>
<polygon fill="#191970" stroke="#191970" points="512.2408,-266.2548 512.1538,-255.6603 505.615,-263.9967 512.2408,-266.2548"/>
</g>
<!-- Node287 -->
<g id="node4" class="node">
<title>Node287</title>
<g id="a_node4"><a xlink:href="classnlohmann_1_1basic__json.html#a233b02b0839ef798942dd46157cc0fe6" target="_top" xlink:title="access specified object element">
<polygon fill="#ffffff" stroke="#000000" points="304.4053,-360.5 304.4053,-388.5 417.1338,-388.5 417.1338,-360.5 304.4053,-360.5"/>
<text text-anchor="start" x="312.4053" y="-376.5" font-family="Helvetica,sans-Serif" font-size="10.00" fill="#000000">nlohmann::basic_json</text>
<text text-anchor="middle" x="360.7695" y="-366.5" font-family="Helvetica,sans-Serif" font-size="10.00" fill="#000000">::operator[]</text>
</a>
</g>
</g>
<!-- Node284&#45;&gt;Node287 -->
<g id="edge3" class="edge">
<title>Node284&#45;&gt;Node287</title>
<path fill="none" stroke="#191970" d="M500.813,-264.0455C484.0058,-286.9591 455.4424,-322.2941 424.082,-345.5 416.3072,-351.2532 407.2088,-356.2427 398.3733,-360.3839"/>
<polygon fill="#191970" stroke="#191970" points="503.865,-265.7963 506.8637,-255.6347 498.1827,-261.7084 503.865,-265.7963"/>
</g>
<!-- Node288 -->
<g id="node5" class="node">
<title>Node288</title>
<g id="a_node5"><a xlink:href="classnlohmann_1_1basic__json.html#af9c51328fbe1da75eca750be3009917a" target="_top" xlink:title="access specified object element with default value">
<polygon fill="#ffffff" stroke="#000000" points="148.7285,-297.5 148.7285,-325.5 261.457,-325.5 261.457,-297.5 148.7285,-297.5"/>
<text text-anchor="start" x="156.7285" y="-313.5" font-family="Helvetica,sans-Serif" font-size="10.00" fill="#000000">nlohmann::basic_json</text>
<text text-anchor="middle" x="205.0928" y="-303.5" font-family="Helvetica,sans-Serif" font-size="10.00" fill="#000000">::value</text>
</a>
</g>
</g>
<!-- Node284&#45;&gt;Node288 -->
<g id="edge4" class="edge">
<title>Node284&#45;&gt;Node288</title>
<path fill="none" stroke="#191970" d="M496.5354,-263.205C479.2787,-280.2929 452.6446,-302.7906 424.082,-312.5 371.1673,-330.4875 306.8151,-327.4878 261.6081,-321.6724"/>
<polygon fill="#191970" stroke="#191970" points="499.2878,-265.3964 503.7775,-255.7999 494.2833,-260.5021 499.2878,-265.3964"/>
</g>
<!-- Node290 -->
<g id="node7" class="node">
<title>Node290</title>
<g id="a_node7"><a xlink:href="classnlohmann_1_1basic__json.html#a2f8484d69c55d8f2a9697a7bec29362a" target="_top" xlink:title="remove element from a JSON object given a key">
<polygon fill="#ffffff" stroke="#000000" points="304.4053,-274.5 304.4053,-302.5 417.1338,-302.5 417.1338,-274.5 304.4053,-274.5"/>
<text text-anchor="start" x="312.4053" y="-290.5" font-family="Helvetica,sans-Serif" font-size="10.00" fill="#000000">nlohmann::basic_json</text>
<text text-anchor="middle" x="360.7695" y="-280.5" font-family="Helvetica,sans-Serif" font-size="10.00" fill="#000000">::erase</text>
</a>
</g>
</g>
<!-- Node284&#45;&gt;Node290 -->
<g id="edge6" class="edge">
<title>Node284&#45;&gt;Node290</title>
<path fill="none" stroke="#191970" d="M459.7651,-258.6125C442.4828,-263.8301 423.6947,-269.5024 407.1763,-274.4894"/>
<polygon fill="#191970" stroke="#191970" points="461.1765,-261.8425 469.7381,-255.6015 459.1533,-255.1412 461.1765,-261.8425"/>
</g>
<!-- Node291 -->
<g id="node8" class="node">
<title>Node291</title>
<g id="a_node8"><a xlink:href="classnlohmann_1_1basic__json.html#aeed33787bd362c7ead59a4ba945392db" target="_top" xlink:title="find an element in a JSON object">
<polygon fill="#ffffff" stroke="#000000" points="304.4053,-227.5 304.4053,-255.5 417.1338,-255.5 417.1338,-227.5 304.4053,-227.5"/>
<text text-anchor="start" x="312.4053" y="-243.5" font-family="Helvetica,sans-Serif" font-size="10.00" fill="#000000">nlohmann::basic_json</text>
<text text-anchor="middle" x="360.7695" y="-233.5" font-family="Helvetica,sans-Serif" font-size="10.00" fill="#000000">::find</text>
</a>
</g>
</g>
<!-- Node284&#45;&gt;Node291 -->
<g id="edge7" class="edge">
<title>Node284&#45;&gt;Node291</title>
<path fill="none" stroke="#191970" d="M449.6173,-241.5C438.8736,-241.5 427.8444,-241.5 417.3706,-241.5"/>
<polygon fill="#191970" stroke="#191970" points="449.8031,-245.0001 459.803,-241.5 449.803,-238.0001 449.8031,-245.0001"/>
</g>
<!-- Node292 -->
<g id="node9" class="node">
<title>Node292</title>
<g id="a_node9"><a xlink:href="classnlohmann_1_1basic__json.html#a81e0c41a4a9dff4df2f6973f7f8b2a83" target="_top" xlink:title="applies a JSON patch">
<polygon fill="#ffffff" stroke="#000000" points="148.7285,-184.5 148.7285,-212.5 261.457,-212.5 261.457,-184.5 148.7285,-184.5"/>
<text text-anchor="start" x="156.7285" y="-200.5" font-family="Helvetica,sans-Serif" font-size="10.00" fill="#000000">nlohmann::basic_json</text>
<text text-anchor="middle" x="205.0928" y="-190.5" font-family="Helvetica,sans-Serif" font-size="10.00" fill="#000000">::patch</text>
</a>
</g>
</g>
<!-- Node284&#45;&gt;Node292 -->
<g id="edge15" class="edge">
<title>Node284&#45;&gt;Node292</title>
<path fill="none" stroke="#191970" d="M458.5484,-224.8735C447.1949,-222.0628 435.3216,-219.4338 424.082,-217.5 369.3606,-208.0852 306.1014,-203.2347 261.6863,-200.8016"/>
<polygon fill="#191970" stroke="#191970" points="457.8081,-228.2967 468.363,-227.3773 459.5385,-221.5139 457.8081,-228.2967"/>
</g>
<!-- Node294 -->
<g id="node11" class="node">
<title>Node294</title>
<g id="a_node11"><a xlink:href="classnlohmann_1_1basic__json.html#a5261eba9637f59d17d6cab5f14ce5747" target="_top" xlink:title="returns the number of occurrences of a key in a JSON object">
<polygon fill="#ffffff" stroke="#000000" points="304.4053,-141.5 304.4053,-169.5 417.1338,-169.5 417.1338,-141.5 304.4053,-141.5"/>
<text text-anchor="start" x="312.4053" y="-157.5" font-family="Helvetica,sans-Serif" font-size="10.00" fill="#000000">nlohmann::basic_json</text>
<text text-anchor="middle" x="360.7695" y="-147.5" font-family="Helvetica,sans-Serif" font-size="10.00" fill="#000000">::count</text>
</a>
</g>
</g>
<!-- Node284&#45;&gt;Node294 -->
<g id="edge11" class="edge">
<title>Node284&#45;&gt;Node294</title>
<path fill="none" stroke="#191970" d="M486.4584,-221.6892C468.6519,-210.2576 445.4467,-195.9291 424.082,-184.5 414.381,-179.3104 403.5768,-174.1459 393.6795,-169.6444"/>
<polygon fill="#191970" stroke="#191970" points="484.9428,-224.8774 495.2396,-227.3725 488.7462,-219.0008 484.9428,-224.8774"/>
</g>
<!-- Node295 -->
<g id="node12" class="node">
<title>Node295</title>
<g id="a_node12"><a xlink:href="classnlohmann_1_1basic__json.html#ae11a3a51782c058fff2f6550cdfb9b3c" target="_top" xlink:title="add an object to an object">
<polygon fill="#ffffff" stroke="#000000" points="304.4053,-94.5 304.4053,-122.5 417.1338,-122.5 417.1338,-94.5 304.4053,-94.5"/>
<text text-anchor="start" x="312.4053" y="-110.5" font-family="Helvetica,sans-Serif" font-size="10.00" fill="#000000">nlohmann::basic_json</text>
<text text-anchor="middle" x="360.7695" y="-100.5" font-family="Helvetica,sans-Serif" font-size="10.00" fill="#000000">::push_back</text>
</a>
</g>
</g>
<!-- Node284&#45;&gt;Node295 -->
<g id="edge12" class="edge">
<title>Node284&#45;&gt;Node295</title>
<path fill="none" stroke="#191970" d="M502.4909,-218.592C486.3974,-193.93 457.7834,-155.0741 424.082,-131.5 419.1948,-128.0814 413.7421,-125.112 408.1431,-122.5486"/>
<polygon fill="#191970" stroke="#191970" points="499.7055,-220.7341 508.0303,-227.2876 505.6094,-216.9731 499.7055,-220.7341"/>
</g>
<!-- Node296 -->
<g id="node13" class="node">
<title>Node296</title>
<g id="a_node13"><a xlink:href="classnlohmann_1_1basic__json.html#a5338e282d1d02bed389d852dd670d98d" target="_top" xlink:title="add an object to an object if key does not exist">
<polygon fill="#ffffff" stroke="#000000" points="304.4053,-47.5 304.4053,-75.5 417.1338,-75.5 417.1338,-47.5 304.4053,-47.5"/>
<text text-anchor="start" x="312.4053" y="-63.5" font-family="Helvetica,sans-Serif" font-size="10.00" fill="#000000">nlohmann::basic_json</text>
<text text-anchor="middle" x="360.7695" y="-53.5" font-family="Helvetica,sans-Serif" font-size="10.00" fill="#000000">::emplace</text>
</a>
</g>
</g>
<!-- Node284&#45;&gt;Node296 -->
<g id="edge13" class="edge">
<title>Node284&#45;&gt;Node296</title>
<path fill="none" stroke="#191970" d="M508.3107,-217.5075C495.5572,-183.337 467.7114,-120.7838 424.082,-84.5 419.9459,-81.0603 415.252,-78.1141 410.3343,-75.5951"/>
<polygon fill="#191970" stroke="#191970" points="505.0997,-218.921 511.7849,-227.1404 511.6845,-216.546 505.0997,-218.921"/>
</g>
<!-- Node297 -->
<g id="node14" class="node">
<title>Node297</title>
<g id="a_node14"><a xlink:href="classnlohmann_1_1basic__json.html#ac31f12587d2f1a3be5ffc394aa9d72a4" target="_top" xlink:title="exchanges the values">
<polygon fill="#ffffff" stroke="#000000" points="304.4053,-.5 304.4053,-28.5 417.1338,-28.5 417.1338,-.5 304.4053,-.5"/>
<text text-anchor="start" x="312.4053" y="-16.5" font-family="Helvetica,sans-Serif" font-size="10.00" fill="#000000">nlohmann::basic_json</text>
<text text-anchor="middle" x="360.7695" y="-6.5" font-family="Helvetica,sans-Serif" font-size="10.00" fill="#000000">::swap</text>
</a>
</g>
</g>
<!-- Node284&#45;&gt;Node297 -->
<g id="edge14" class="edge">
<title>Node284&#45;&gt;Node297</title>
<path fill="none" stroke="#191970" d="M511.9295,-217.4913C502.7764,-175.2921 478.137,-87.5603 424.082,-37.5 420.3067,-34.0037 415.9588,-31.0298 411.3468,-28.502"/>
<polygon fill="#191970" stroke="#191970" points="508.5296,-218.3343 513.977,-227.4215 515.3854,-216.9207 508.5296,-218.3343"/>
</g>
<!-- Node289 -->
<g id="node6" class="node">
<title>Node289</title>
<g id="a_node6"><a xlink:href="classnlohmann_1_1basic__json.html#ad6a18403e7fbac9c4efd06facc71fc88" target="_top" xlink:title="overload for a default value of type const char*">
<polygon fill="#ffffff" stroke="#000000" points="0,-297.5 0,-325.5 112.7285,-325.5 112.7285,-297.5 0,-297.5"/>
<text text-anchor="start" x="8" y="-313.5" font-family="Helvetica,sans-Serif" font-size="10.00" fill="#000000">nlohmann::basic_json</text>
<text text-anchor="middle" x="56.3643" y="-303.5" font-family="Helvetica,sans-Serif" font-size="10.00" fill="#000000">::value</text>
</a>
</g>
</g>
<!-- Node288&#45;&gt;Node289 -->
<g id="edge5" class="edge">
<title>Node288&#45;&gt;Node289</title>
<path fill="none" stroke="#191970" d="M138.2073,-311.5C129.7401,-311.5 121.1423,-311.5 112.8589,-311.5"/>
<polygon fill="#191970" stroke="#191970" points="138.4407,-315.0001 148.4406,-311.5 138.4406,-308.0001 138.4407,-315.0001"/>
</g>
<!-- Node291&#45;&gt;Node288 -->
<g id="edge8" class="edge">
<title>Node291&#45;&gt;Node288</title>
<path fill="none" stroke="#191970" d="M310.149,-259.2593C305.8297,-260.9648 301.5502,-262.723 297.457,-264.5 274.3515,-274.5309 248.894,-287.6469 230.5673,-297.4737"/>
<polygon fill="#191970" stroke="#191970" points="311.5328,-262.4771 319.6117,-255.6227 309.0217,-255.943 311.5328,-262.4771"/>
</g>
<!-- Node291&#45;&gt;Node292 -->
<g id="edge9" class="edge">
<title>Node291&#45;&gt;Node292</title>
<path fill="none" stroke="#191970" d="M299.8826,-224.6822C285.3343,-220.6638 269.9556,-216.416 255.9157,-212.538"/>
<polygon fill="#191970" stroke="#191970" points="299.2242,-228.1314 309.7951,-227.4202 301.088,-221.384 299.2242,-228.1314"/>
</g>
<!-- Node293 -->
<g id="node10" class="node">
<title>Node293</title>
<g id="a_node10"><a xlink:href="classnlohmann_1_1basic__json.html#a543bd5f7490de54c875b2c0912dc9a49" target="_top" xlink:title="creates a diff as a JSON patch">
<polygon fill="#ffffff" stroke="#000000" points="148.7285,-231.5 148.7285,-259.5 261.457,-259.5 261.457,-231.5 148.7285,-231.5"/>
<text text-anchor="start" x="156.7285" y="-247.5" font-family="Helvetica,sans-Serif" font-size="10.00" fill="#000000">nlohmann::basic_json</text>
<text text-anchor="middle" x="205.0928" y="-237.5" font-family="Helvetica,sans-Serif" font-size="10.00" fill="#000000">::diff</text>
</a>
</g>
</g>
<!-- Node291&#45;&gt;Node293 -->
<g id="edge10" class="edge">
<title>Node291&#45;&gt;Node293</title>
<path fill="none" stroke="#191970" d="M293.9406,-243.2171C283.1969,-243.4932 272.1676,-243.7766 261.6939,-244.0457"/>
<polygon fill="#191970" stroke="#191970" points="294.2195,-246.7112 304.1263,-242.9554 294.0396,-239.7135 294.2195,-246.7112"/>
</g>
</g>
</svg>
