<?xml version="1.0" encoding="UTF-8" standalone="no"?>
<!DOCTYPE svg PUBLIC "-//W3C//DTD SVG 1.1//EN"
 "http://www.w3.org/Graphics/SVG/1.1/DTD/svg11.dtd">
<!-- Generated by graphviz version 2.40.1 (20161225.0304)
 -->
<!-- Title: nlohmann::basic_json::push_back Pages: 1 -->
<svg width="269pt" height="178pt"
 viewBox="0.00 0.00 269.46 178.00" xmlns="http://www.w3.org/2000/svg" xmlns:xlink="http://www.w3.org/1999/xlink">
<g id="graph0" class="graph" transform="scale(1 1) rotate(0) translate(4 174)">
<title>nlohmann::basic_json::push_back</title>
<polygon fill="#ffffff" stroke="transparent" points="-4,4 -4,-174 265.457,-174 265.457,4 -4,4"/>
<!-- Node455 -->
<g id="node1" class="node">
<title>Node455</title>
<g id="a_node1"><a xlink:title="add an object to an array">
<polygon fill="#bfbfbf" stroke="#000000" points="148.7285,-70.5 148.7285,-98.5 261.457,-98.5 261.457,-70.5 148.7285,-70.5"/>
<text text-anchor="start" x="156.7285" y="-86.5" font-family="Helvetica,sans-Serif" font-size="10.00" fill="#000000">nlohmann::basic_json</text>
<text text-anchor="middle" x="205.0928" y="-76.5" font-family="Helvetica,sans-Serif" font-size="10.00" fill="#000000">::push_back</text>
</a>
</g>
</g>
<!-- Node456 -->
<g id="node2" class="node">
<title>Node456</title>
<g id="a_node2"><a xlink:href="classnlohmann_1_1basic__json.html#aea1085f2d35cc0e1ce119cf0110119e6" target="_top" xlink:title="add an object to an array">
<polygon fill="#ffffff" stroke="#000000" points="0,-141.5 0,-169.5 112.7285,-169.5 112.7285,-141.5 0,-141.5"/>
<text text-anchor="start" x="8" y="-157.5" font-family="Helvetica,sans-Serif" font-size="10.00" fill="#000000">nlohmann::basic_json</text>
<text text-anchor="middle" x="56.3643" y="-147.5" font-family="Helvetica,sans-Serif" font-size="10.00" fill="#000000">::operator+=</text>
</a>
</g>
</g>
<!-- Node455&#45;&gt;Node456 -->
<g id="edge1" class="edge">
<title>Node455&#45;&gt;Node456</title>
<path fill="none" stroke="#191970" d="M170.4357,-103.4715C153.2625,-112.6247 132.1023,-123.5361 112.7285,-132.5 106.206,-135.5178 99.1718,-138.5553 92.3578,-141.3889"/>
<polygon fill="#191970" stroke="#191970" points="172.3735,-106.4038 179.5295,-98.5909 169.0631,-100.236 172.3735,-106.4038"/>
</g>
<!-- Node457 -->
<g id="node3" class="node">
<title>Node457</title>
<g id="a_node3"><a xlink:href="classnlohmann_1_1basic__json.html#ab2716cbe2e997ab8309926b87f044434" target="_top" xlink:title="add an object to an object">
<polygon fill="#ffffff" stroke="#000000" points="0,-94.5 0,-122.5 112.7285,-122.5 112.7285,-94.5 0,-94.5"/>
<text text-anchor="start" x="8" y="-110.5" font-family="Helvetica,sans-Serif" font-size="10.00" fill="#000000">nlohmann::basic_json</text>
<text text-anchor="middle" x="56.3643" y="-100.5" font-family="Helvetica,sans-Serif" font-size="10.00" fill="#000000">::push_back</text>
</a>
</g>
</g>
<!-- Node455&#45;&gt;Node457 -->
<g id="edge2" class="edge">
<title>Node455&#45;&gt;Node457</title>
<path fill="none" stroke="#191970" d="M138.4863,-95.2481C129.9291,-96.629 121.2333,-98.0322 112.8589,-99.3836"/>
<polygon fill="#191970" stroke="#191970" points="139.1259,-98.6903 148.4406,-93.6418 138.0107,-91.7797 139.1259,-98.6903"/>
</g>
<!-- Node458 -->
<g id="node4" class="node">
<title>Node458</title>
<g id="a_node4"><a xlink:href="classnlohmann_1_1basic__json.html#a81e0c41a4a9dff4df2f6973f7f8b2a83" target="_top" xlink:title="applies a JSON patch">
<polygon fill="#ffffff" stroke="#000000" points="0,-47.5 0,-75.5 112.7285,-75.5 112.7285,-47.5 0,-47.5"/>
<text text-anchor="start" x="8" y="-63.5" font-family="Helvetica,sans-Serif" font-size="10.00" fill="#000000">nlohmann::basic_json</text>
<text text-anchor="middle" x="56.3643" y="-53.5" font-family="Helvetica,sans-Serif" font-size="10.00" fill="#000000">::patch</text>
</a>
</g>
</g>
<!-- Node455&#45;&gt;Node458 -->
<g id="edge3" class="edge">
<title>Node455&#45;&gt;Node458</title>
<path fill="none" stroke="#191970" d="M138.4863,-74.1997C129.9291,-72.8764 121.2333,-71.5316 112.8589,-70.2366"/>
<polygon fill="#191970" stroke="#191970" points="138.0232,-77.6696 148.4406,-75.7391 139.093,-70.7518 138.0232,-77.6696"/>
</g>
<!-- Node459 -->
<g id="node5" class="node">
<title>Node459</title>
<g id="a_node5"><a xlink:href="classnlohmann_1_1basic__json.html#a543bd5f7490de54c875b2c0912dc9a49" target="_top" xlink:title="creates a diff as a JSON patch">
<polygon fill="#ffffff" stroke="#000000" points="0,-.5 0,-28.5 112.7285,-28.5 112.7285,-.5 0,-.5"/>
<text text-anchor="start" x="8" y="-16.5" font-family="Helvetica,sans-Serif" font-size="10.00" fill="#000000">nlohmann::basic_json</text>
<text text-anchor="middle" x="56.3643" y="-6.5" font-family="Helvetica,sans-Serif" font-size="10.00" fill="#000000">::diff</text>
</a>
</g>
</g>
<!-- Node455&#45;&gt;Node459 -->
<g id="edge4" class="edge">
<title>Node455&#45;&gt;Node459</title>
<path fill="none" stroke="#191970" d="M168.8125,-65.8073C151.8838,-57.2464 131.3937,-47.1125 112.7285,-38.5 105.4857,-35.158 97.6489,-31.7143 90.1878,-28.5153"/>
<polygon fill="#191970" stroke="#191970" points="167.3161,-68.9728 177.8168,-70.3819 170.4867,-62.732 167.3161,-68.9728"/>
</g>
</g>
</svg>
