<?xml version="1.0" encoding="UTF-8" standalone="no"?>
<!DOCTYPE svg PUBLIC "-//W3C//DTD SVG 1.1//EN"
 "http://www.w3.org/Graphics/SVG/1.1/DTD/svg11.dtd">
<!-- Generated by graphviz version 2.40.1 (20161225.0304)
 -->
<!-- Title: TopologicalCharge::printStatistics Pages: 1 -->
<svg width="464pt" height="37pt"
 viewBox="0.00 0.00 463.70 37.00" xmlns="http://www.w3.org/2000/svg" xmlns:xlink="http://www.w3.org/1999/xlink">
<g id="graph0" class="graph" transform="scale(1 1) rotate(0) translate(4 33)">
<title>TopologicalCharge::printStatistics</title>
<polygon fill="#ffffff" stroke="transparent" points="-4,4 -4,-33 459.7031,-33 459.7031,4 -4,4"/>
<!-- Node21 -->
<g id="node1" class="node">
<title>Node21</title>
<g id="a_node1"><a xlink:title="Correlator::printStatistics prints statistics from ObservableStorer.">
<polygon fill="#bfbfbf" stroke="#000000" points="0,-.5 0,-28.5 104.3887,-28.5 104.3887,-.5 0,-.5"/>
<text text-anchor="start" x="8" y="-16.5" font-family="Helvetica,sans-Serif" font-size="10.00" fill="#000000">TopologicalCharge::</text>
<text text-anchor="middle" x="52.1943" y="-6.5" font-family="Helvetica,sans-Serif" font-size="10.00" fill="#000000">printStatistics</text>
</a>
</g>
</g>
<!-- Node22 -->
<g id="node2" class="node">
<title>Node22</title>
<g id="a_node2"><a xlink:href="class_observable_storer.html#a04a12e7da9e21d6947027230c953bffe" target="_top" xlink:title=" ">
<polygon fill="#ffffff" stroke="#000000" points="140.3887,-5.5 140.3887,-23.5 299.7773,-23.5 299.7773,-5.5 140.3887,-5.5"/>
<text text-anchor="middle" x="220.083" y="-11.5" font-family="Helvetica,sans-Serif" font-size="10.00" fill="#000000">ObservableStorer::printStatistics</text>
</a>
</g>
</g>
<!-- Node21&#45;&gt;Node22 -->
<g id="edge1" class="edge">
<title>Node21&#45;&gt;Node22</title>
<path fill="none" stroke="#191970" d="M104.3951,-14.5C112.5589,-14.5 121.1926,-14.5 129.9163,-14.5"/>
<polygon fill="#191970" stroke="#191970" points="130.176,-18.0001 140.1759,-14.5 130.1759,-11.0001 130.176,-18.0001"/>
</g>
<!-- Node23 -->
<g id="node3" class="node">
<title>Node23</title>
<g id="a_node3"><a xlink:href="class_parallel_1_1_communicator.html#a474ab433da0e83ef372d74e26a7e5cb0" target="_top" xlink:title=" ">
<polygon fill="#ffffff" stroke="#000000" points="335.7773,-.5 335.7773,-28.5 455.7031,-28.5 455.7031,-.5 335.7773,-.5"/>
<text text-anchor="start" x="343.7773" y="-16.5" font-family="Helvetica,sans-Serif" font-size="10.00" fill="#000000">Parallel::Communicator</text>
<text text-anchor="middle" x="395.7402" y="-6.5" font-family="Helvetica,sans-Serif" font-size="10.00" fill="#000000">::getProcessRank</text>
</a>
</g>
</g>
<!-- Node22&#45;&gt;Node23 -->
<g id="edge2" class="edge">
<title>Node22&#45;&gt;Node23</title>
<path fill="none" stroke="#191970" d="M299.9447,-14.5C308.4498,-14.5 317.0553,-14.5 325.4387,-14.5"/>
<polygon fill="#191970" stroke="#191970" points="325.5329,-18.0001 335.5328,-14.5 325.5328,-11.0001 325.5329,-18.0001"/>
</g>
</g>
</svg>
