<?xml version="1.0" encoding="UTF-8" standalone="no"?>
<!DOCTYPE svg PUBLIC "-//W3C//DTD SVG 1.1//EN"
 "http://www.w3.org/Graphics/SVG/1.1/DTD/svg11.dtd">
<!-- Generated by graphviz version 2.40.1 (20161225.0304)
 -->
<!-- Title: Plaquette::runStatistics Pages: 1 -->
<svg width="473pt" height="74pt"
 viewBox="0.00 0.00 472.59 74.00" xmlns="http://www.w3.org/2000/svg" xmlns:xlink="http://www.w3.org/1999/xlink">
<g id="graph0" class="graph" transform="scale(1 1) rotate(0) translate(4 70)">
<title>Plaquette::runStatistics</title>
<polygon fill="#ffffff" stroke="transparent" points="-4,4 -4,-70 468.5898,-70 468.5898,4 -4,4"/>
<!-- Node24 -->
<g id="node1" class="node">
<title>Node24</title>
<g id="a_node1"><a xlink:title=" ">
<polygon fill="#bfbfbf" stroke="#000000" points="0,-21.5 0,-39.5 118.2754,-39.5 118.2754,-21.5 0,-21.5"/>
<text text-anchor="middle" x="59.1377" y="-27.5" font-family="Helvetica,sans-Serif" font-size="10.00" fill="#000000">Plaquette::runStatistics</text>
</a>
</g>
</g>
<!-- Node25 -->
<g id="node2" class="node">
<title>Node25</title>
<g id="a_node2"><a xlink:href="class_observable_storer.html#a593f13b0dd0f9d20608ef6b84fda3f1d" target="_top" xlink:title=" ">
<polygon fill="#ffffff" stroke="#000000" points="167.3296,-37.5 167.3296,-65.5 295.6099,-65.5 295.6099,-37.5 167.3296,-37.5"/>
<text text-anchor="start" x="175.3296" y="-53.5" font-family="Helvetica,sans-Serif" font-size="10.00" fill="#000000">ObservableStorer::gather</text>
<text text-anchor="middle" x="231.4697" y="-43.5" font-family="Helvetica,sans-Serif" font-size="10.00" fill="#000000">Results</text>
</a>
</g>
</g>
<!-- Node24&#45;&gt;Node25 -->
<g id="edge1" class="edge">
<title>Node24&#45;&gt;Node25</title>
<path fill="none" stroke="#191970" d="M118.4446,-37.727C130.8134,-39.2342 144.0027,-40.8415 156.8437,-42.4062"/>
<polygon fill="#191970" stroke="#191970" points="156.695,-45.9139 167.045,-43.6493 157.5418,-38.9653 156.695,-45.9139"/>
</g>
<!-- Node27 -->
<g id="node4" class="node">
<title>Node27</title>
<g id="a_node4"><a xlink:href="class_observable_storer.html#a41b3756b423d31c6535d2981ef92d1a1" target="_top" xlink:title=" ">
<polygon fill="#ffffff" stroke="#000000" points="154.2754,-.5 154.2754,-18.5 308.6641,-18.5 308.6641,-.5 154.2754,-.5"/>
<text text-anchor="middle" x="231.4697" y="-6.5" font-family="Helvetica,sans-Serif" font-size="10.00" fill="#000000">ObservableStorer::runStatistics</text>
</a>
</g>
</g>
<!-- Node24&#45;&gt;Node27 -->
<g id="edge3" class="edge">
<title>Node24&#45;&gt;Node27</title>
<path fill="none" stroke="#191970" d="M118.4446,-23.273C127.7663,-22.1371 137.554,-20.9444 147.3074,-19.7558"/>
<polygon fill="#191970" stroke="#191970" points="147.9349,-23.2053 157.4381,-18.5213 147.0881,-16.2567 147.9349,-23.2053"/>
</g>
<!-- Node26 -->
<g id="node3" class="node">
<title>Node26</title>
<g id="a_node3"><a xlink:href="class_parallel_1_1_communicator.html#a7b1f80fb49a0cc83f2031c3415174150" target="_top" xlink:title=" ">
<polygon fill="#ffffff" stroke="#000000" points="344.6641,-37.5 344.6641,-65.5 464.5898,-65.5 464.5898,-37.5 344.6641,-37.5"/>
<text text-anchor="start" x="352.6641" y="-53.5" font-family="Helvetica,sans-Serif" font-size="10.00" fill="#000000">Parallel::Communicator</text>
<text text-anchor="middle" x="404.627" y="-43.5" font-family="Helvetica,sans-Serif" font-size="10.00" fill="#000000">::getNumProc</text>
</a>
</g>
</g>
<!-- Node25&#45;&gt;Node26 -->
<g id="edge2" class="edge">
<title>Node25&#45;&gt;Node26</title>
<path fill="none" stroke="#191970" d="M295.9471,-51.5C308.4659,-51.5 321.6455,-51.5 334.3402,-51.5"/>
<polygon fill="#191970" stroke="#191970" points="334.3954,-55.0001 344.3953,-51.5 334.3953,-48.0001 334.3954,-55.0001"/>
</g>
</g>
</svg>
