<?xml version="1.0" encoding="UTF-8" standalone="no"?>
<!DOCTYPE svg PUBLIC "-//W3C//DTD SVG 1.1//EN"
 "http://www.w3.org/Graphics/SVG/1.1/DTD/svg11.dtd">
<!-- Generated by graphviz version 2.40.1 (20161225.0304)
 -->
<!-- Title: ObservableStorer::runStatistics Pages: 1 -->
<svg width="342pt" height="316pt"
 viewBox="0.00 0.00 342.21 316.00" xmlns="http://www.w3.org/2000/svg" xmlns:xlink="http://www.w3.org/1999/xlink">
<g id="graph0" class="graph" transform="scale(1 1) rotate(0) translate(4 312)">
<title>ObservableStorer::runStatistics</title>
<polygon fill="#ffffff" stroke="transparent" points="-4,4 -4,-312 338.2061,-312 338.2061,4 -4,4"/>
<!-- Node57 -->
<g id="node1" class="node">
<title>Node57</title>
<g id="a_node1"><a xlink:title="ObservableStorer::runStatistics.">
<polygon fill="#bfbfbf" stroke="#000000" points="179.8174,-147.5 179.8174,-165.5 334.2061,-165.5 334.2061,-147.5 179.8174,-147.5"/>
<text text-anchor="middle" x="257.0117" y="-153.5" font-family="Helvetica,sans-Serif" font-size="10.00" fill="#000000">ObservableStorer::runStatistics</text>
</a>
</g>
</g>
<!-- Node58 -->
<g id="node2" class="node">
<title>Node58</title>
<g id="a_node2"><a xlink:href="class_correlator.html#a35197b1d12b62ef30b79c0138a26456e" target="_top" xlink:title="Correlator::runStatistics.">
<polygon fill="#ffffff" stroke="#000000" points="11.6699,-289.5 11.6699,-307.5 132.1475,-307.5 132.1475,-289.5 11.6699,-289.5"/>
<text text-anchor="middle" x="71.9087" y="-295.5" font-family="Helvetica,sans-Serif" font-size="10.00" fill="#000000">Correlator::runStatistics</text>
</a>
</g>
</g>
<!-- Node57&#45;&gt;Node58 -->
<g id="edge1" class="edge">
<title>Node57&#45;&gt;Node58</title>
<path fill="none" stroke="#191970" d="M245.9334,-174.1608C227.9403,-201.3307 189.716,-253.1054 143.8174,-280.5 137.629,-284.1935 130.7071,-287.1325 123.6687,-289.4702"/>
<polygon fill="#191970" stroke="#191970" points="248.9416,-175.9545 251.4335,-165.6568 243.0638,-172.1529 248.9416,-175.9545"/>
</g>
<!-- Node59 -->
<g id="node3" class="node">
<title>Node59</title>
<g id="a_node3"><a xlink:href="class_energy_density.html#a584e164453ce880a45478c9b48ce2c4b" target="_top" xlink:title="Correlator::runStatistics.">
<polygon fill="#ffffff" stroke="#000000" points="1.3843,-252.5 1.3843,-270.5 142.4331,-270.5 142.4331,-252.5 1.3843,-252.5"/>
<text text-anchor="middle" x="71.9087" y="-258.5" font-family="Helvetica,sans-Serif" font-size="10.00" fill="#000000">EnergyDensity::runStatistics</text>
</a>
</g>
</g>
<!-- Node57&#45;&gt;Node59 -->
<g id="edge2" class="edge">
<title>Node57&#45;&gt;Node59</title>
<path fill="none" stroke="#191970" d="M240.5787,-172.7125C219.7796,-192.3313 182.0355,-225.0251 143.8174,-243.5 136.2861,-247.1407 127.9435,-250.093 119.687,-252.4718"/>
<polygon fill="#191970" stroke="#191970" points="243.1393,-175.106 247.9272,-165.6547 238.2905,-170.0574 243.1393,-175.106"/>
</g>
<!-- Node60 -->
<g id="node4" class="node">
<title>Node60</title>
<g id="a_node4"><a xlink:href="class_lattice_action_charge_density.html#a21d608703811d2814e7f654588eaa0c0" target="_top" xlink:title="Correlator::runStatistics.">
<polygon fill="#ffffff" stroke="#000000" points="2.2095,-205.5 2.2095,-233.5 141.6079,-233.5 141.6079,-205.5 2.2095,-205.5"/>
<text text-anchor="start" x="10.2095" y="-221.5" font-family="Helvetica,sans-Serif" font-size="10.00" fill="#000000">LatticeActionChargeDensity</text>
<text text-anchor="middle" x="71.9087" y="-211.5" font-family="Helvetica,sans-Serif" font-size="10.00" fill="#000000">::runStatistics</text>
</a>
</g>
</g>
<!-- Node57&#45;&gt;Node60 -->
<g id="edge3" class="edge">
<title>Node57&#45;&gt;Node60</title>
<path fill="none" stroke="#191970" d="M222.1993,-169.1069C199.8595,-177.1213 170.1984,-187.6221 143.8174,-196.5 134.9973,-199.4682 125.5385,-202.5591 116.4736,-205.4764"/>
<polygon fill="#191970" stroke="#191970" points="223.6848,-172.2922 231.9102,-165.6143 221.3158,-165.7052 223.6848,-172.2922"/>
</g>
<!-- Node61 -->
<g id="node5" class="node">
<title>Node61</title>
<g id="a_node5"><a xlink:href="class_master_sampler.html#ab7913d0dbdea57af3f469a3cdd74f8fc" target="_top" xlink:title="Correlator::runStatistics.">
<polygon fill="#ffffff" stroke="#000000" points="0,-168.5 0,-186.5 143.8174,-186.5 143.8174,-168.5 0,-168.5"/>
<text text-anchor="middle" x="71.9087" y="-174.5" font-family="Helvetica,sans-Serif" font-size="10.00" fill="#000000">MasterSampler::runStatistics</text>
</a>
</g>
</g>
<!-- Node57&#45;&gt;Node61 -->
<g id="edge4" class="edge">
<title>Node57&#45;&gt;Node61</title>
<path fill="none" stroke="#191970" d="M169.5746,-166.4198C161.0102,-167.3914 152.3872,-168.3697 144.0002,-169.3212"/>
<polygon fill="#191970" stroke="#191970" points="170.0422,-169.8893 179.5839,-165.2842 169.2531,-162.9339 170.0422,-169.8893"/>
</g>
<!-- Node62 -->
<g id="node6" class="node">
<title>Node62</title>
<g id="a_node6"><a xlink:href="class_master_sampler_topc_x_y_z.html#af748653ded9908f78383185475b9ddeb" target="_top" xlink:title="Correlator::runStatistics.">
<polygon fill="#ffffff" stroke="#000000" points="9.7241,-121.5 9.7241,-149.5 134.0933,-149.5 134.0933,-121.5 9.7241,-121.5"/>
<text text-anchor="start" x="17.7241" y="-137.5" font-family="Helvetica,sans-Serif" font-size="10.00" fill="#000000">MasterSamplerTopcXYZ</text>
<text text-anchor="middle" x="71.9087" y="-127.5" font-family="Helvetica,sans-Serif" font-size="10.00" fill="#000000">::runStatistics</text>
</a>
</g>
</g>
<!-- Node57&#45;&gt;Node62 -->
<g id="edge5" class="edge">
<title>Node57&#45;&gt;Node62</title>
<path fill="none" stroke="#191970" d="M169.5746,-146.5802C157.6057,-145.2224 145.5225,-143.8515 134.1287,-142.5589"/>
<polygon fill="#191970" stroke="#191970" points="169.2531,-150.0661 179.5839,-147.7158 170.0422,-143.1107 169.2531,-150.0661"/>
</g>
<!-- Node63 -->
<g id="node7" class="node">
<title>Node63</title>
<g id="a_node7"><a xlink:href="class_plaquette.html#aa54bf1807d9b192048026f94d585fa4f" target="_top" xlink:title="Correlator::runStatistics.">
<polygon fill="#ffffff" stroke="#000000" points="12.771,-84.5 12.771,-102.5 131.0464,-102.5 131.0464,-84.5 12.771,-84.5"/>
<text text-anchor="middle" x="71.9087" y="-90.5" font-family="Helvetica,sans-Serif" font-size="10.00" fill="#000000">Plaquette::runStatistics</text>
</a>
</g>
</g>
<!-- Node57&#45;&gt;Node63 -->
<g id="edge6" class="edge">
<title>Node57&#45;&gt;Node63</title>
<path fill="none" stroke="#191970" d="M226.178,-143.4311C203.6075,-134.1315 172.1112,-121.7048 143.8174,-112.5 132.7662,-108.9047 120.5977,-105.4891 109.4634,-102.5711"/>
<polygon fill="#191970" stroke="#191970" points="224.9949,-146.7295 235.5725,-147.3336 227.6803,-140.2651 224.9949,-146.7295"/>
</g>
<!-- Node64 -->
<g id="node8" class="node">
<title>Node64</title>
<g id="a_node8"><a xlink:href="class_super_sampler.html#af96f7d461e9159adb4eef9bda9c6ecde" target="_top" xlink:title="Correlator::runStatistics.">
<polygon fill="#ffffff" stroke="#000000" points="1.9385,-47.5 1.9385,-65.5 141.8789,-65.5 141.8789,-47.5 1.9385,-47.5"/>
<text text-anchor="middle" x="71.9087" y="-53.5" font-family="Helvetica,sans-Serif" font-size="10.00" fill="#000000">SuperSampler::runStatistics</text>
</a>
</g>
</g>
<!-- Node57&#45;&gt;Node64 -->
<g id="edge7" class="edge">
<title>Node57&#45;&gt;Node64</title>
<path fill="none" stroke="#191970" d="M239.3372,-140.693C218.0955,-122.4816 180.6877,-92.8449 143.8174,-75.5 135.2879,-71.4875 125.7757,-68.2183 116.5348,-65.595"/>
<polygon fill="#191970" stroke="#191970" points="237.0641,-143.3546 246.9026,-147.2859 241.663,-138.0773 237.0641,-143.3546"/>
</g>
<!-- Node65 -->
<g id="node9" class="node">
<title>Node65</title>
<g id="a_node9"><a xlink:href="class_topological_charge.html#ab9afadb9f37e638c0a168ebab5d41353" target="_top" xlink:title="Correlator::runStatistics.">
<polygon fill="#ffffff" stroke="#000000" points="19.7144,-.5 19.7144,-28.5 124.103,-28.5 124.103,-.5 19.7144,-.5"/>
<text text-anchor="start" x="27.7144" y="-16.5" font-family="Helvetica,sans-Serif" font-size="10.00" fill="#000000">TopologicalCharge::</text>
<text text-anchor="middle" x="71.9087" y="-6.5" font-family="Helvetica,sans-Serif" font-size="10.00" fill="#000000">runStatistics</text>
</a>
</g>
</g>
<!-- Node57&#45;&gt;Node65 -->
<g id="edge8" class="edge">
<title>Node57&#45;&gt;Node65</title>
<path fill="none" stroke="#191970" d="M244.6744,-139.0386C225.7572,-113.4787 187.1886,-65.9434 143.8174,-38.5 137.8117,-34.6999 131.1401,-31.435 124.3507,-28.6488"/>
<polygon fill="#191970" stroke="#191970" points="242.0225,-141.3436 250.7273,-147.3833 247.6888,-137.2335 242.0225,-141.3436"/>
</g>
</g>
</svg>
