<?xml version="1.0" encoding="UTF-8" standalone="no"?>
<!DOCTYPE svg PUBLIC "-//W3C//DTD SVG 1.1//EN"
 "http://www.w3.org/Graphics/SVG/1.1/DTD/svg11.dtd">
<!-- Generated by graphviz version 2.40.1 (20161225.0304)
 -->
<!-- Title: IO::FieldIO::writeDoublesFieldToFile Pages: 1 -->
<svg width="311pt" height="37pt"
 viewBox="0.00 0.00 311.10 37.00" xmlns="http://www.w3.org/2000/svg" xmlns:xlink="http://www.w3.org/1999/xlink">
<g id="graph0" class="graph" transform="scale(1 1) rotate(0) translate(4 33)">
<title>IO::FieldIO::writeDoublesFieldToFile</title>
<polygon fill="#ffffff" stroke="transparent" points="-4,4 -4,-33 307.1025,-33 307.1025,4 -4,4"/>
<!-- Node43 -->
<g id="node1" class="node">
<title>Node43</title>
<g id="a_node1"><a xlink:title="IO::FieldIO::writeDoublesFieldToFile writes a lattice of doubles to file.">
<polygon fill="#bfbfbf" stroke="#000000" points="175.3984,-.5 175.3984,-28.5 303.1025,-28.5 303.1025,-.5 175.3984,-.5"/>
<text text-anchor="start" x="183.3984" y="-16.5" font-family="Helvetica,sans-Serif" font-size="10.00" fill="#000000">IO::FieldIO::writeDoubles</text>
<text text-anchor="middle" x="239.2505" y="-6.5" font-family="Helvetica,sans-Serif" font-size="10.00" fill="#000000">FieldToFile</text>
</a>
</g>
</g>
<!-- Node44 -->
<g id="node2" class="node">
<title>Node44</title>
<g id="a_node2"><a xlink:href="class_lattice_action_charge_density.html#a3dddc75188042c645fbdd1c8b3e80c8a" target="_top" xlink:title="Correlator::calculate calculates a observable.">
<polygon fill="#ffffff" stroke="#000000" points="0,-.5 0,-28.5 139.3984,-28.5 139.3984,-.5 0,-.5"/>
<text text-anchor="start" x="8" y="-16.5" font-family="Helvetica,sans-Serif" font-size="10.00" fill="#000000">LatticeActionChargeDensity</text>
<text text-anchor="middle" x="69.6992" y="-6.5" font-family="Helvetica,sans-Serif" font-size="10.00" fill="#000000">::calculate</text>
</a>
</g>
</g>
<!-- Node43&#45;&gt;Node44 -->
<g id="edge1" class="edge">
<title>Node43&#45;&gt;Node44</title>
<path fill="none" stroke="#191970" d="M164.9508,-14.5C156.513,-14.5 147.9346,-14.5 139.5569,-14.5"/>
<polygon fill="#191970" stroke="#191970" points="165.1505,-18.0001 175.1504,-14.5 165.1504,-11.0001 165.1505,-18.0001"/>
</g>
</g>
</svg>
