<?xml version="1.0" encoding="UTF-8" standalone="no"?>
<!DOCTYPE svg PUBLIC "-//W3C//DTD SVG 1.1//EN"
 "http://www.w3.org/Graphics/SVG/1.1/DTD/svg11.dtd">
<!-- Generated by graphviz version 2.40.1 (20161225.0304)
 -->
<!-- Title: ObservableStorer::setNormalizeObservableByProcessor Pages: 1 -->
<svg width="547pt" height="299pt"
 viewBox="0.00 0.00 547.04 299.00" xmlns="http://www.w3.org/2000/svg" xmlns:xlink="http://www.w3.org/1999/xlink">
<g id="graph0" class="graph" transform="scale(1 1) rotate(0) translate(4 295)">
<title>ObservableStorer::setNormalizeObservableByProcessor</title>
<polygon fill="#ffffff" stroke="transparent" points="-4,4 -4,-295 543.043,-295 543.043,4 -4,4"/>
<!-- Node67 -->
<g id="node1" class="node">
<title>Node67</title>
<g id="a_node1"><a xlink:title=" ">
<polygon fill="#bfbfbf" stroke="#000000" points="380.7676,-131.5 380.7676,-159.5 539.043,-159.5 539.043,-131.5 380.7676,-131.5"/>
<text text-anchor="start" x="388.7676" y="-147.5" font-family="Helvetica,sans-Serif" font-size="10.00" fill="#000000">ObservableStorer::setNormalize</text>
<text text-anchor="middle" x="459.9053" y="-137.5" font-family="Helvetica,sans-Serif" font-size="10.00" fill="#000000">ObservableByProcessor</text>
</a>
</g>
</g>
<!-- Node68 -->
<g id="node2" class="node">
<title>Node68</title>
<g id="a_node2"><a xlink:href="class_energy_density.html#a1d23cfe5690c9daf8b2f0ec8f6471c5f" target="_top" xlink:title=" ">
<polygon fill="#ffffff" stroke="#000000" points="193.1523,-272.5 193.1523,-290.5 344.7676,-290.5 344.7676,-272.5 193.1523,-272.5"/>
<text text-anchor="middle" x="268.96" y="-278.5" font-family="Helvetica,sans-Serif" font-size="10.00" fill="#000000">EnergyDensity::EnergyDensity</text>
</a>
</g>
</g>
<!-- Node67&#45;&gt;Node68 -->
<g id="edge1" class="edge">
<title>Node67&#45;&gt;Node68</title>
<path fill="none" stroke="#191970" d="M444.2353,-168.0497C424.2913,-194.9853 387.28,-239.418 344.7676,-263.5 338.2942,-267.167 331.1033,-270.0891 323.8019,-272.4173"/>
<polygon fill="#191970" stroke="#191970" points="447.2951,-169.7919 450.328,-159.6405 441.6265,-165.6849 447.2951,-169.7919"/>
</g>
<!-- Node69 -->
<g id="node3" class="node">
<title>Node69</title>
<g id="a_node3"><a xlink:href="class_lattice_action_charge_density.html#aba3131bbe5bd930adccc2852b4d44bb9" target="_top" xlink:title=" ">
<polygon fill="#ffffff" stroke="#000000" points="199.2607,-225.5 199.2607,-253.5 338.6592,-253.5 338.6592,-225.5 199.2607,-225.5"/>
<text text-anchor="start" x="207.2607" y="-241.5" font-family="Helvetica,sans-Serif" font-size="10.00" fill="#000000">LatticeActionChargeDensity</text>
<text text-anchor="middle" x="268.96" y="-231.5" font-family="Helvetica,sans-Serif" font-size="10.00" fill="#000000">::initializeObservableStorer</text>
</a>
</g>
</g>
<!-- Node67&#45;&gt;Node69 -->
<g id="edge2" class="edge">
<title>Node67&#45;&gt;Node69</title>
<path fill="none" stroke="#191970" d="M431.9667,-165.5809C409.3258,-181.1377 376.1415,-202.3546 344.7676,-216.5 337.4955,-219.7787 329.6274,-222.7524 321.8065,-225.3909"/>
<polygon fill="#191970" stroke="#191970" points="434.1877,-168.2994 440.3967,-159.7146 430.1893,-162.5537 434.1877,-168.2994"/>
</g>
<!-- Node71 -->
<g id="node5" class="node">
<title>Node71</title>
<g id="a_node5"><a xlink:href="class_master_sampler.html#a88e2eec68ea6bd60cc3f375ac04a8ded" target="_top" xlink:title=" ">
<polygon fill="#ffffff" stroke="#000000" points="206.4971,-178.5 206.4971,-206.5 331.4229,-206.5 331.4229,-178.5 206.4971,-178.5"/>
<text text-anchor="start" x="214.4971" y="-194.5" font-family="Helvetica,sans-Serif" font-size="10.00" fill="#000000">MasterSampler::initialize</text>
<text text-anchor="middle" x="268.96" y="-184.5" font-family="Helvetica,sans-Serif" font-size="10.00" fill="#000000">ObservableStorer</text>
</a>
</g>
</g>
<!-- Node67&#45;&gt;Node71 -->
<g id="edge4" class="edge">
<title>Node67&#45;&gt;Node71</title>
<path fill="none" stroke="#191970" d="M393.0053,-161.967C371.1486,-167.3469 347.0912,-173.2685 326.0271,-178.4533"/>
<polygon fill="#191970" stroke="#191970" points="394.0004,-165.3266 402.874,-159.5379 392.3273,-158.5295 394.0004,-165.3266"/>
</g>
<!-- Node73 -->
<g id="node7" class="node">
<title>Node73</title>
<g id="a_node7"><a xlink:href="class_master_sampler_topc_x_y_z.html#af6d2cf2023d9626908fd26b07a7a0b84" target="_top" xlink:title=" ">
<polygon fill="#ffffff" stroke="#000000" points="201.2114,-131.5 201.2114,-159.5 336.7085,-159.5 336.7085,-131.5 201.2114,-131.5"/>
<text text-anchor="start" x="209.2114" y="-147.5" font-family="Helvetica,sans-Serif" font-size="10.00" fill="#000000">MasterSamplerTopcXYZ</text>
<text text-anchor="middle" x="268.96" y="-137.5" font-family="Helvetica,sans-Serif" font-size="10.00" fill="#000000">::initializeObservableStorer</text>
</a>
</g>
</g>
<!-- Node67&#45;&gt;Node73 -->
<g id="edge6" class="edge">
<title>Node67&#45;&gt;Node73</title>
<path fill="none" stroke="#191970" d="M370.2888,-145.5C359.023,-145.5 347.6481,-145.5 336.7947,-145.5"/>
<polygon fill="#191970" stroke="#191970" points="370.5861,-149.0001 380.5861,-145.5 370.5861,-142.0001 370.5861,-149.0001"/>
</g>
<!-- Node75 -->
<g id="node9" class="node">
<title>Node75</title>
<g id="a_node9"><a xlink:href="class_plaquette.html#a1c87b43fc7ee74b2b0289de63e03bb61" target="_top" xlink:title=" ">
<polygon fill="#ffffff" stroke="#000000" points="215.9258,-94.5 215.9258,-112.5 321.9941,-112.5 321.9941,-94.5 215.9258,-94.5"/>
<text text-anchor="middle" x="268.96" y="-100.5" font-family="Helvetica,sans-Serif" font-size="10.00" fill="#000000">Plaquette::Plaquette</text>
</a>
</g>
</g>
<!-- Node67&#45;&gt;Node75 -->
<g id="edge8" class="edge">
<title>Node67&#45;&gt;Node75</title>
<path fill="none" stroke="#191970" d="M386.2595,-129.301C360.3599,-123.6042 332.1961,-117.4093 309.9582,-112.5179"/>
<polygon fill="#191970" stroke="#191970" points="385.5393,-132.7262 396.0578,-131.4562 387.0432,-125.8896 385.5393,-132.7262"/>
</g>
<!-- Node76 -->
<g id="node10" class="node">
<title>Node76</title>
<g id="a_node10"><a xlink:href="class_super_sampler.html#a4429d6ae37247a02259bc0c6d665821c" target="_top" xlink:title=" ">
<polygon fill="#ffffff" stroke="#000000" points="208.4355,-47.5 208.4355,-75.5 329.4844,-75.5 329.4844,-47.5 208.4355,-47.5"/>
<text text-anchor="start" x="216.4355" y="-63.5" font-family="Helvetica,sans-Serif" font-size="10.00" fill="#000000">SuperSampler::initialize</text>
<text text-anchor="middle" x="268.96" y="-53.5" font-family="Helvetica,sans-Serif" font-size="10.00" fill="#000000">ObservableStorer</text>
</a>
</g>
</g>
<!-- Node67&#45;&gt;Node76 -->
<g id="edge9" class="edge">
<title>Node67&#45;&gt;Node76</title>
<path fill="none" stroke="#191970" d="M426.9403,-126.3645C404.3066,-113.7175 373.3107,-97.3498 344.7676,-85.5 336.2252,-81.9536 326.9617,-78.6196 317.9396,-75.6297"/>
<polygon fill="#191970" stroke="#191970" points="425.3619,-129.4926 435.7911,-131.3585 428.8018,-123.3961 425.3619,-129.4926"/>
</g>
<!-- Node78 -->
<g id="node12" class="node">
<title>Node78</title>
<g id="a_node12"><a xlink:href="class_topological_charge.html#a415e32f865f7b5c83f4ac4471838d514" target="_top" xlink:title=" ">
<polygon fill="#ffffff" stroke="#000000" points="216.7656,-.5 216.7656,-28.5 321.1543,-28.5 321.1543,-.5 216.7656,-.5"/>
<text text-anchor="start" x="224.7656" y="-16.5" font-family="Helvetica,sans-Serif" font-size="10.00" fill="#000000">TopologicalCharge::</text>
<text text-anchor="middle" x="268.96" y="-6.5" font-family="Helvetica,sans-Serif" font-size="10.00" fill="#000000">TopologicalCharge</text>
</a>
</g>
</g>
<!-- Node67&#45;&gt;Node78 -->
<g id="edge11" class="edge">
<title>Node67&#45;&gt;Node78</title>
<path fill="none" stroke="#191970" d="M441.5358,-123.359C420.4707,-99.293 383.7835,-61.2394 344.7676,-38.5 337.4921,-34.2597 329.3797,-30.6775 321.2422,-27.6805"/>
<polygon fill="#191970" stroke="#191970" points="439.1395,-125.9404 448.3135,-131.2401 444.4468,-121.3761 439.1395,-125.9404"/>
</g>
<!-- Node70 -->
<g id="node4" class="node">
<title>Node70</title>
<g id="a_node4"><a xlink:href="class_lattice_action_charge_density.html#acda2a43db75cca34586441d4ac7ec39e" target="_top" xlink:title=" ">
<polygon fill="#ffffff" stroke="#000000" points="6.0986,-225.5 6.0986,-253.5 151.0537,-253.5 151.0537,-225.5 6.0986,-225.5"/>
<text text-anchor="start" x="14.0986" y="-241.5" font-family="Helvetica,sans-Serif" font-size="10.00" fill="#000000">LatticeActionChargeDensity</text>
<text text-anchor="middle" x="78.5762" y="-231.5" font-family="Helvetica,sans-Serif" font-size="10.00" fill="#000000">::LatticeActionChargeDensity</text>
</a>
</g>
</g>
<!-- Node69&#45;&gt;Node70 -->
<g id="edge3" class="edge">
<title>Node69&#45;&gt;Node70</title>
<path fill="none" stroke="#191970" d="M188.79,-239.5C176.3361,-239.5 163.5303,-239.5 151.2545,-239.5"/>
<polygon fill="#191970" stroke="#191970" points="189.1492,-243.0001 199.1491,-239.5 189.1491,-236.0001 189.1492,-243.0001"/>
</g>
<!-- Node72 -->
<g id="node6" class="node">
<title>Node72</title>
<g id="a_node6"><a xlink:href="class_master_sampler.html#ac5ee503e8391aca36f73872a45bb6bd9" target="_top" xlink:title=" ">
<polygon fill="#ffffff" stroke="#000000" points="0,-183.5 0,-201.5 157.1523,-201.5 157.1523,-183.5 0,-183.5"/>
<text text-anchor="middle" x="78.5762" y="-189.5" font-family="Helvetica,sans-Serif" font-size="10.00" fill="#000000">MasterSampler::MasterSampler</text>
</a>
</g>
</g>
<!-- Node71&#45;&gt;Node72 -->
<g id="edge5" class="edge">
<title>Node71&#45;&gt;Node72</title>
<path fill="none" stroke="#191970" d="M196.2521,-192.5C183.4746,-192.5 170.1238,-192.5 157.1939,-192.5"/>
<polygon fill="#191970" stroke="#191970" points="196.3575,-196.0001 206.3575,-192.5 196.3575,-189.0001 196.3575,-196.0001"/>
</g>
<!-- Node74 -->
<g id="node8" class="node">
<title>Node74</title>
<g id="a_node8"><a xlink:href="class_master_sampler_topc_x_y_z.html#ad8ba8f2c50c66d823c551f71fd62a99b" target="_top" xlink:title=" ">
<polygon fill="#ffffff" stroke="#000000" points="13.6133,-131.5 13.6133,-159.5 143.5391,-159.5 143.5391,-131.5 13.6133,-131.5"/>
<text text-anchor="start" x="21.6133" y="-147.5" font-family="Helvetica,sans-Serif" font-size="10.00" fill="#000000">MasterSamplerTopcXYZ</text>
<text text-anchor="middle" x="78.5762" y="-137.5" font-family="Helvetica,sans-Serif" font-size="10.00" fill="#000000">::MasterSamplerTopcXYZ</text>
</a>
</g>
</g>
<!-- Node73&#45;&gt;Node74 -->
<g id="edge7" class="edge">
<title>Node73&#45;&gt;Node74</title>
<path fill="none" stroke="#191970" d="M190.8298,-145.5C175.1341,-145.5 158.7985,-145.5 143.6061,-145.5"/>
<polygon fill="#191970" stroke="#191970" points="191.0334,-149.0001 201.0333,-145.5 191.0333,-142.0001 191.0334,-149.0001"/>
</g>
<!-- Node77 -->
<g id="node11" class="node">
<title>Node77</title>
<g id="a_node11"><a xlink:href="class_super_sampler.html#a6bf01b68f9befc5bf01c822e28c0c88d" target="_top" xlink:title=" ">
<polygon fill="#ffffff" stroke="#000000" points="3.877,-52.5 3.877,-70.5 153.2754,-70.5 153.2754,-52.5 3.877,-52.5"/>
<text text-anchor="middle" x="78.5762" y="-58.5" font-family="Helvetica,sans-Serif" font-size="10.00" fill="#000000">SuperSampler::SuperSampler</text>
</a>
</g>
</g>
<!-- Node76&#45;&gt;Node77 -->
<g id="edge10" class="edge">
<title>Node76&#45;&gt;Node77</title>
<path fill="none" stroke="#191970" d="M197.8135,-61.5C183.3305,-61.5 168.053,-61.5 153.4452,-61.5"/>
<polygon fill="#191970" stroke="#191970" points="198.1979,-65.0001 208.1979,-61.5 198.1979,-58.0001 198.1979,-65.0001"/>
</g>
</g>
</svg>
