<?xml version="1.0" encoding="UTF-8" standalone="no"?>
<!DOCTYPE svg PUBLIC "-//W3C//DTD SVG 1.1//EN"
 "http://www.w3.org/Graphics/SVG/1.1/DTD/svg11.dtd">
<!-- Generated by graphviz version 2.40.1 (20161225.0304)
 -->
<!-- Title: Correlator::writeFlowObservablesToFile Pages: 1 -->
<svg width="720pt" height="343pt"
 viewBox="0.00 0.00 720.19 343.00" xmlns="http://www.w3.org/2000/svg" xmlns:xlink="http://www.w3.org/1999/xlink">
<g id="graph0" class="graph" transform="scale(1 1) rotate(0) translate(4 339)">
<title>Correlator::writeFlowObservablesToFile</title>
<polygon fill="#ffffff" stroke="transparent" points="-4,4 -4,-339 716.1904,-339 716.1904,4 -4,4"/>
<!-- Node54 -->
<g id="node1" class="node">
<title>Node54</title>
<g id="a_node1"><a xlink:title="Correlator::writeFlowObservablesToFile.">
<polygon fill="#bfbfbf" stroke="#000000" points="0,-166.5 0,-194.5 164.3789,-194.5 164.3789,-166.5 0,-166.5"/>
<text text-anchor="start" x="8" y="-182.5" font-family="Helvetica,sans-Serif" font-size="10.00" fill="#000000">Correlator::writeFlowObservables</text>
<text text-anchor="middle" x="82.1895" y="-172.5" font-family="Helvetica,sans-Serif" font-size="10.00" fill="#000000">ToFile</text>
</a>
</g>
</g>
<!-- Node55 -->
<g id="node2" class="node">
<title>Node55</title>
<g id="a_node2"><a xlink:href="class_observable_storer.html#a593f13b0dd0f9d20608ef6b84fda3f1d" target="_top" xlink:title="ObservableStorer::gatherResults.">
<polygon fill="#ffffff" stroke="#000000" points="207.3149,-190.5 207.3149,-218.5 335.5952,-218.5 335.5952,-190.5 207.3149,-190.5"/>
<text text-anchor="start" x="215.3149" y="-206.5" font-family="Helvetica,sans-Serif" font-size="10.00" fill="#000000">ObservableStorer::gather</text>
<text text-anchor="middle" x="271.4551" y="-196.5" font-family="Helvetica,sans-Serif" font-size="10.00" fill="#000000">Results</text>
</a>
</g>
</g>
<!-- Node54&#45;&gt;Node55 -->
<g id="edge1" class="edge">
<title>Node54&#45;&gt;Node55</title>
<path fill="none" stroke="#191970" d="M164.6535,-190.9569C175.4486,-192.3258 186.4585,-193.7219 197.1086,-195.0724"/>
<polygon fill="#191970" stroke="#191970" points="196.8298,-198.565 207.1906,-196.3509 197.7104,-191.6206 196.8298,-198.565"/>
</g>
<!-- Node57 -->
<g id="node4" class="node">
<title>Node57</title>
<g id="a_node4"><a xlink:href="class_observable_storer.html#af51ebd65eae2a5087cfd47ddf230da93" target="_top" xlink:title="ObservableStorer::writeFlowObservableToFile.">
<polygon fill="#ffffff" stroke="#000000" points="200.3789,-143.5 200.3789,-171.5 342.5313,-171.5 342.5313,-143.5 200.3789,-143.5"/>
<text text-anchor="start" x="208.3789" y="-159.5" font-family="Helvetica,sans-Serif" font-size="10.00" fill="#000000">ObservableStorer::writeFlow</text>
<text text-anchor="middle" x="271.4551" y="-149.5" font-family="Helvetica,sans-Serif" font-size="10.00" fill="#000000">ObservableToFile</text>
</a>
</g>
</g>
<!-- Node54&#45;&gt;Node57 -->
<g id="edge3" class="edge">
<title>Node54&#45;&gt;Node57</title>
<path fill="none" stroke="#191970" d="M164.6535,-170.4788C173.0812,-169.4546 181.6397,-168.4146 190.0558,-167.3918"/>
<polygon fill="#191970" stroke="#191970" points="190.7279,-170.836 200.2326,-166.1551 189.8834,-163.8871 190.7279,-170.836"/>
</g>
<!-- Node56 -->
<g id="node3" class="node">
<title>Node56</title>
<g id="a_node3"><a xlink:href="class_parallel_1_1_communicator.html#a7b1f80fb49a0cc83f2031c3415174150" target="_top" xlink:title=" ">
<polygon fill="#ffffff" stroke="#000000" points="394.6445,-190.5 394.6445,-218.5 514.5703,-218.5 514.5703,-190.5 394.6445,-190.5"/>
<text text-anchor="start" x="402.6445" y="-206.5" font-family="Helvetica,sans-Serif" font-size="10.00" fill="#000000">Parallel::Communicator</text>
<text text-anchor="middle" x="454.6074" y="-196.5" font-family="Helvetica,sans-Serif" font-size="10.00" fill="#000000">::getNumProc</text>
</a>
</g>
</g>
<!-- Node55&#45;&gt;Node56 -->
<g id="edge2" class="edge">
<title>Node55&#45;&gt;Node56</title>
<path fill="none" stroke="#191970" d="M335.7702,-204.5C351.4124,-204.5 368.2222,-204.5 384.1331,-204.5"/>
<polygon fill="#191970" stroke="#191970" points="384.4379,-208.0001 394.4378,-204.5 384.4378,-201.0001 384.4379,-208.0001"/>
</g>
<!-- Node58 -->
<g id="node5" class="node">
<title>Node58</title>
<g id="a_node5"><a xlink:href="namespace_i_o.html#a4f554804fd2ccd9c13c73777c5cbbf77" target="_top" xlink:title="IO::writeFlowObservableToFile method for writing a flow observable to file, using ....">
<polygon fill="#ffffff" stroke="#000000" points="378.5313,-148.5 378.5313,-166.5 530.6836,-166.5 530.6836,-148.5 378.5313,-148.5"/>
<text text-anchor="middle" x="454.6074" y="-154.5" font-family="Helvetica,sans-Serif" font-size="10.00" fill="#000000">IO::writeFlowObservableToFile</text>
</a>
</g>
</g>
<!-- Node57&#45;&gt;Node58 -->
<g id="edge4" class="edge">
<title>Node57&#45;&gt;Node58</title>
<path fill="none" stroke="#191970" d="M342.791,-157.5C351.0743,-157.5 359.5902,-157.5 368.0488,-157.5"/>
<polygon fill="#191970" stroke="#191970" points="368.3186,-161.0001 378.3185,-157.5 368.3185,-154.0001 368.3186,-161.0001"/>
</g>
<!-- Node59 -->
<g id="node6" class="node">
<title>Node59</title>
<g id="a_node6"><a xlink:href="class_parallel_1_1_communicator.html#a474ab433da0e83ef372d74e26a7e5cb0" target="_top" xlink:title=" ">
<polygon fill="#ffffff" stroke="#000000" points="579.4741,-306.5 579.4741,-334.5 699.3999,-334.5 699.3999,-306.5 579.4741,-306.5"/>
<text text-anchor="start" x="587.4741" y="-322.5" font-family="Helvetica,sans-Serif" font-size="10.00" fill="#000000">Parallel::Communicator</text>
<text text-anchor="middle" x="639.437" y="-312.5" font-family="Helvetica,sans-Serif" font-size="10.00" fill="#000000">::getProcessRank</text>
</a>
</g>
</g>
<!-- Node58&#45;&gt;Node59 -->
<g id="edge5" class="edge">
<title>Node58&#45;&gt;Node59</title>
<path fill="none" stroke="#191970" d="M506.6833,-166.5203C515.5581,-170.0031 524.04,-174.8253 530.6836,-181.5 568.7648,-219.7596 528.6139,-259.229 566.6836,-297.5 567.9682,-298.7914 569.3246,-300.0103 570.7415,-301.161"/>
<polygon fill="#191970" stroke="#191970" points="569.1918,-304.3377 579.4382,-307.0324 573.1086,-298.5361 569.1918,-304.3377"/>
</g>
<!-- Node60 -->
<g id="node7" class="node">
<title>Node60</title>
<g id="a_node7"><a xlink:href="class_parameters.html#a96dbafc27f287de83dfaec3bc2d45efe" target="_top" xlink:title=" ">
<polygon fill="#ffffff" stroke="#000000" points="568.9102,-269.5 568.9102,-287.5 709.9639,-287.5 709.9639,-269.5 568.9102,-269.5"/>
<text text-anchor="middle" x="639.437" y="-275.5" font-family="Helvetica,sans-Serif" font-size="10.00" fill="#000000">Parameters::getFlowEpsilon</text>
</a>
</g>
</g>
<!-- Node58&#45;&gt;Node60 -->
<g id="edge6" class="edge">
<title>Node58&#45;&gt;Node60</title>
<path fill="none" stroke="#191970" d="M504.442,-166.6314C513.9312,-170.1026 523.216,-174.892 530.6836,-181.5 559.5796,-207.0697 536.996,-235.8538 566.6836,-260.5 568.4731,-261.9856 570.3674,-263.3516 572.3432,-264.6072"/>
<polygon fill="#191970" stroke="#191970" points="570.9803,-267.846 581.4551,-269.4361 574.2581,-261.6609 570.9803,-267.846"/>
</g>
<!-- Node61 -->
<g id="node8" class="node">
<title>Node61</title>
<g id="a_node8"><a xlink:href="class_parameters.html#a58f15668b37e705d34d6588e287e4bc0" target="_top" xlink:title=" ">
<polygon fill="#ffffff" stroke="#000000" points="570.8535,-222.5 570.8535,-250.5 708.0205,-250.5 708.0205,-222.5 570.8535,-222.5"/>
<text text-anchor="start" x="578.8535" y="-238.5" font-family="Helvetica,sans-Serif" font-size="10.00" fill="#000000">Parameters::getConfigStart</text>
<text text-anchor="middle" x="639.437" y="-228.5" font-family="Helvetica,sans-Serif" font-size="10.00" fill="#000000">Number</text>
</a>
</g>
</g>
<!-- Node58&#45;&gt;Node61 -->
<g id="edge7" class="edge">
<title>Node58&#45;&gt;Node61</title>
<path fill="none" stroke="#191970" d="M494.2338,-166.5685C506.3783,-170.2383 519.4814,-175.1437 530.6836,-181.5 549.3024,-192.0646 548.068,-202.9298 566.6836,-213.5 569.8658,-215.3069 573.2085,-216.9917 576.6398,-218.5597"/>
<polygon fill="#191970" stroke="#191970" points="575.3057,-221.7954 585.8808,-222.4409 578.0164,-215.3416 575.3057,-221.7954"/>
</g>
<!-- Node62 -->
<g id="node9" class="node">
<title>Node62</title>
<g id="a_node9"><a xlink:href="class_parameters.html#afa4cfe5dc4302b1e8f8928606ea9b056" target="_top" xlink:title=" ">
<polygon fill="#ffffff" stroke="#000000" points="566.6836,-185.5 566.6836,-203.5 712.1904,-203.5 712.1904,-185.5 566.6836,-185.5"/>
<text text-anchor="middle" x="639.437" y="-191.5" font-family="Helvetica,sans-Serif" font-size="10.00" fill="#000000">Parameters::getOutputFolder</text>
</a>
</g>
</g>
<!-- Node58&#45;&gt;Node62 -->
<g id="edge8" class="edge">
<title>Node58&#45;&gt;Node62</title>
<path fill="none" stroke="#191970" d="M499.8218,-166.5512C525.3138,-171.6543 557.3555,-178.0686 584.3115,-183.4647"/>
<polygon fill="#191970" stroke="#191970" points="583.8769,-186.9471 594.3694,-185.4782 585.251,-180.0833 583.8769,-186.9471"/>
</g>
<!-- Node63 -->
<g id="node10" class="node">
<title>Node63</title>
<g id="a_node10"><a xlink:href="class_parameters.html#a181a773d23fdb19d0c4f35e6cf2d5649" target="_top" xlink:title=" ">
<polygon fill="#ffffff" stroke="#000000" points="569.7427,-148.5 569.7427,-166.5 709.1313,-166.5 709.1313,-148.5 569.7427,-148.5"/>
<text text-anchor="middle" x="639.437" y="-154.5" font-family="Helvetica,sans-Serif" font-size="10.00" fill="#000000">Parameters::getBatchName</text>
</a>
</g>
</g>
<!-- Node58&#45;&gt;Node63 -->
<g id="edge9" class="edge">
<title>Node58&#45;&gt;Node63</title>
<path fill="none" stroke="#191970" d="M530.8518,-157.5C540.2722,-157.5 549.924,-157.5 559.399,-157.5"/>
<polygon fill="#191970" stroke="#191970" points="559.5918,-161.0001 569.5917,-157.5 559.5917,-154.0001 559.5918,-161.0001"/>
</g>
<!-- Node64 -->
<g id="node11" class="node">
<title>Node64</title>
<g id="a_node11"><a xlink:href="class_parameters.html#abace4edb8ece38841b58c5ce6168cbc4" target="_top" xlink:title=" ">
<polygon fill="#ffffff" stroke="#000000" points="577.5234,-111.5 577.5234,-129.5 701.3506,-129.5 701.3506,-111.5 577.5234,-111.5"/>
<text text-anchor="middle" x="639.437" y="-117.5" font-family="Helvetica,sans-Serif" font-size="10.00" fill="#000000">Parameters::getFilePath</text>
</a>
</g>
</g>
<!-- Node58&#45;&gt;Node64 -->
<g id="edge10" class="edge">
<title>Node58&#45;&gt;Node64</title>
<path fill="none" stroke="#191970" d="M499.8218,-148.4488C525.3138,-143.3457 557.3555,-136.9314 584.3115,-131.5353"/>
<polygon fill="#191970" stroke="#191970" points="585.251,-134.9167 594.3694,-129.5218 583.8769,-128.0529 585.251,-134.9167"/>
</g>
<!-- Node65 -->
<g id="node12" class="node">
<title>Node65</title>
<g id="a_node12"><a xlink:href="class_parameters.html#ae5c64523dc50dca13b417fe3d9e4175c" target="_top" xlink:title=" ">
<polygon fill="#ffffff" stroke="#000000" points="585.5801,-74.5 585.5801,-92.5 693.2939,-92.5 693.2939,-74.5 585.5801,-74.5"/>
<text text-anchor="middle" x="639.437" y="-80.5" font-family="Helvetica,sans-Serif" font-size="10.00" fill="#000000">Parameters::getBeta</text>
</a>
</g>
</g>
<!-- Node58&#45;&gt;Node65 -->
<g id="edge11" class="edge">
<title>Node58&#45;&gt;Node65</title>
<path fill="none" stroke="#191970" d="M470.4897,-148.4343C491.8113,-136.5633 531.1295,-115.7137 566.6836,-102.5 573.8306,-99.8438 581.5034,-97.4107 589.09,-95.237"/>
<polygon fill="#191970" stroke="#191970" points="590.2427,-98.5503 598.9624,-92.5321 588.3929,-91.7991 590.2427,-98.5503"/>
</g>
<!-- Node66 -->
<g id="node13" class="node">
<title>Node66</title>
<g id="a_node13"><a xlink:href="class_parameters.html#aae314edb18d426571ab7b6df60da70aa" target="_top" xlink:title=" ">
<polygon fill="#ffffff" stroke="#000000" points="579.1982,-37.5 579.1982,-55.5 699.6758,-55.5 699.6758,-37.5 579.1982,-37.5"/>
<text text-anchor="middle" x="639.437" y="-43.5" font-family="Helvetica,sans-Serif" font-size="10.00" fill="#000000">Parameters::getNFlows</text>
</a>
</g>
</g>
<!-- Node58&#45;&gt;Node66 -->
<g id="edge12" class="edge">
<title>Node58&#45;&gt;Node66</title>
<path fill="none" stroke="#191970" d="M462.9469,-148.4003C480.3808,-129.9319 522.7245,-87.9069 566.6836,-65.5 571.8247,-62.8795 577.3595,-60.5974 582.9988,-58.6151"/>
<polygon fill="#191970" stroke="#191970" points="584.084,-61.9427 592.5367,-55.5552 581.9455,-55.2774 584.084,-61.9427"/>
</g>
<!-- Node67 -->
<g id="node14" class="node">
<title>Node67</title>
<g id="a_node14"><a xlink:href="class_parameters.html#a07453f20719f54f9fd6f72d311638b39" target="_top" xlink:title=" ">
<polygon fill="#ffffff" stroke="#000000" points="577.5161,-.5 577.5161,-18.5 701.3579,-18.5 701.3579,-.5 577.5161,-.5"/>
<text text-anchor="middle" x="639.437" y="-6.5" font-family="Helvetica,sans-Serif" font-size="10.00" fill="#000000">Parameters::getVerbose</text>
</a>
</g>
</g>
<!-- Node58&#45;&gt;Node67 -->
<g id="edge13" class="edge">
<title>Node58&#45;&gt;Node67</title>
<path fill="none" stroke="#191970" d="M459.8209,-148.3477C473.8278,-124.6197 514.7565,-60.7287 566.6836,-28.5 570.531,-26.1121 574.6716,-24.0224 578.9551,-22.1941"/>
<polygon fill="#191970" stroke="#191970" points="580.3805,-25.3973 588.5028,-18.5945 577.911,-18.8473 580.3805,-25.3973"/>
</g>
</g>
</svg>
