<?xml version="1.0" encoding="UTF-8" standalone="no"?>
<!DOCTYPE svg PUBLIC "-//W3C//DTD SVG 1.1//EN"
 "http://www.w3.org/Graphics/SVG/1.1/DTD/svg11.dtd">
<!-- Generated by graphviz version 2.40.1 (20161225.0304)
 -->
<!-- Title: Parameters::setPerformanceTesting Pages: 1 -->
<svg width="362pt" height="37pt"
 viewBox="0.00 0.00 362.01 37.00" xmlns="http://www.w3.org/2000/svg" xmlns:xlink="http://www.w3.org/1999/xlink">
<g id="graph0" class="graph" transform="scale(1 1) rotate(0) translate(4 33)">
<title>Parameters::setPerformanceTesting</title>
<polygon fill="#ffffff" stroke="transparent" points="-4,4 -4,-33 358.0088,-33 358.0088,4 -4,4"/>
<!-- Node485 -->
<g id="node1" class="node">
<title>Node485</title>
<g id="a_node1"><a xlink:title=" ">
<polygon fill="#bfbfbf" stroke="#000000" points="210.1816,-.5 210.1816,-28.5 354.0088,-28.5 354.0088,-.5 210.1816,-.5"/>
<text text-anchor="start" x="218.1816" y="-16.5" font-family="Helvetica,sans-Serif" font-size="10.00" fill="#000000">Parameters::setPerformance</text>
<text text-anchor="middle" x="282.0952" y="-6.5" font-family="Helvetica,sans-Serif" font-size="10.00" fill="#000000">Testing</text>
</a>
</g>
</g>
<!-- Node486 -->
<g id="node2" class="node">
<title>Node486</title>
<g id="a_node2"><a xlink:href="namespace_config_loader.html#a26cf01adba9411ef1fa006d5068d7cc4" target="_top" xlink:title="load">
<polygon fill="#ffffff" stroke="#000000" points="73.6748,-5.5 73.6748,-23.5 174.1816,-23.5 174.1816,-5.5 73.6748,-5.5"/>
<text text-anchor="middle" x="123.9282" y="-11.5" font-family="Helvetica,sans-Serif" font-size="10.00" fill="#000000">ConfigLoader::load</text>
</a>
</g>
</g>
<!-- Node485&#45;&gt;Node486 -->
<g id="edge1" class="edge">
<title>Node485&#45;&gt;Node486</title>
<path fill="none" stroke="#191970" d="M199.7541,-14.5C191.0639,-14.5 182.4263,-14.5 174.2619,-14.5"/>
<polygon fill="#191970" stroke="#191970" points="199.9545,-18.0001 209.9545,-14.5 199.9544,-11.0001 199.9545,-18.0001"/>
</g>
<!-- Node487 -->
<g id="node3" class="node">
<title>Node487</title>
<g id="a_node3"><a xlink:href="main_8cpp.html#a4e6f00a867970a9eedf47b88a27b9eea" target="_top" xlink:title=" ">
<polygon fill="#ffffff" stroke="#000000" points="0,-5.5 0,-23.5 37.6748,-23.5 37.6748,-5.5 0,-5.5"/>
<text text-anchor="middle" x="18.8374" y="-11.5" font-family="Helvetica,sans-Serif" font-size="10.00" fill="#000000">main</text>
</a>
</g>
</g>
<!-- Node486&#45;&gt;Node487 -->
<g id="edge2" class="edge">
<title>Node486&#45;&gt;Node487</title>
<path fill="none" stroke="#191970" d="M63.4826,-14.5C54.2852,-14.5 45.4183,-14.5 38.0439,-14.5"/>
<polygon fill="#191970" stroke="#191970" points="63.5375,-18.0001 73.5375,-14.5 63.5374,-11.0001 63.5375,-18.0001"/>
</g>
</g>
</svg>
