<?xml version="1.0" encoding="UTF-8" standalone="no"?>
<!DOCTYPE svg PUBLIC "-//W3C//DTD SVG 1.1//EN"
 "http://www.w3.org/Graphics/SVG/1.1/DTD/svg11.dtd">
<!-- Generated by graphviz version 2.40.1 (20161225.0304)
 -->
<!-- Title: ExpLuscher::exp Pages: 1 -->
<svg width="228pt" height="101pt"
 viewBox="0.00 0.00 228.29 101.00" xmlns="http://www.w3.org/2000/svg" xmlns:xlink="http://www.w3.org/1999/xlink">
<g id="graph0" class="graph" transform="scale(1 1) rotate(0) translate(4 97)">
<title>ExpLuscher::exp</title>
<polygon fill="#ffffff" stroke="transparent" points="-4,4 -4,-97 224.2949,-97 224.2949,4 -4,4"/>
<!-- Node2 -->
<g id="node1" class="node">
<title>Node2</title>
<g id="a_node1"><a xlink:title="ExpLuscher::exp method for exponentiation, found in paper appendix A, https://arxiv....">
<polygon fill="#bfbfbf" stroke="#000000" points="0,-37.5 0,-55.5 90.4873,-55.5 90.4873,-37.5 0,-37.5"/>
<text text-anchor="middle" x="45.2437" y="-43.5" font-family="Helvetica,sans-Serif" font-size="10.00" fill="#000000">ExpLuscher::exp</text>
</a>
</g>
</g>
<!-- Node3 -->
<g id="node2" class="node">
<title>Node3</title>
<g id="a_node2"><a xlink:href="class_s_u3.html#a9f3527fd882882ddfa18d72f5f43176c" target="_top" xlink:title=" ">
<polygon fill="#ffffff" stroke="#000000" points="140.6597,-74.5 140.6597,-92.5 206.1226,-92.5 206.1226,-74.5 140.6597,-74.5"/>
<text text-anchor="middle" x="173.3911" y="-80.5" font-family="Helvetica,sans-Serif" font-size="10.00" fill="#000000">SU3::zeros</text>
</a>
</g>
</g>
<!-- Node2&#45;&gt;Node3 -->
<g id="edge1" class="edge">
<title>Node2&#45;&gt;Node3</title>
<path fill="none" stroke="#191970" d="M76.592,-55.5512C93.3473,-60.389 114.1838,-66.4051 132.2283,-71.6151"/>
<polygon fill="#191970" stroke="#191970" points="131.3437,-75.0026 141.9222,-74.414 133.2856,-68.2773 131.3437,-75.0026"/>
</g>
<!-- Node4 -->
<g id="node3" class="node">
<title>Node4</title>
<g id="a_node3"><a xlink:href="class_s_u3.html#aa0c34df7c067dcbb917d18cf587046a2" target="_top" xlink:title=" ">
<polygon fill="#ffffff" stroke="#000000" points="145.9355,-37.5 145.9355,-55.5 200.8467,-55.5 200.8467,-37.5 145.9355,-37.5"/>
<text text-anchor="middle" x="173.3911" y="-43.5" font-family="Helvetica,sans-Serif" font-size="10.00" fill="#000000">SU3::get</text>
</a>
</g>
</g>
<!-- Node2&#45;&gt;Node4 -->
<g id="edge2" class="edge">
<title>Node2&#45;&gt;Node4</title>
<path fill="none" stroke="#191970" d="M90.7845,-46.5C105.4602,-46.5 121.5552,-46.5 135.6087,-46.5"/>
<polygon fill="#191970" stroke="#191970" points="135.9003,-50.0001 145.9003,-46.5 135.9002,-43.0001 135.9003,-50.0001"/>
</g>
<!-- Node5 -->
<g id="node4" class="node">
<title>Node5</title>
<g id="a_node4"><a xlink:href="class_s_u3.html#a794ecde931082d02f625cab14d0e83e3" target="_top" xlink:title=" ">
<polygon fill="#ffffff" stroke="#000000" points="126.4873,-.5 126.4873,-18.5 220.2949,-18.5 220.2949,-.5 126.4873,-.5"/>
<text text-anchor="middle" x="173.3911" y="-6.5" font-family="Helvetica,sans-Serif" font-size="10.00" fill="#000000">SU3::setComplex</text>
</a>
</g>
</g>
<!-- Node2&#45;&gt;Node5 -->
<g id="edge3" class="edge">
<title>Node2&#45;&gt;Node5</title>
<path fill="none" stroke="#191970" d="M76.592,-37.4488C93.3473,-32.611 114.1838,-26.5949 132.2283,-21.3849"/>
<polygon fill="#191970" stroke="#191970" points="133.2856,-24.7227 141.9222,-18.586 131.3437,-17.9974 133.2856,-24.7227"/>
</g>
</g>
</svg>
