<?xml version="1.0" encoding="UTF-8" standalone="no"?>
<!DOCTYPE svg PUBLIC "-//W3C//DTD SVG 1.1//EN"
 "http://www.w3.org/Graphics/SVG/1.1/DTD/svg11.dtd">
<!-- Generated by graphviz version 2.40.1 (20161225.0304)
 -->
<!-- Title: Parameters::getDebug Pages: 1 -->
<svg width="331pt" height="111pt"
 viewBox="0.00 0.00 330.58 111.00" xmlns="http://www.w3.org/2000/svg" xmlns:xlink="http://www.w3.org/1999/xlink">
<g id="graph0" class="graph" transform="scale(1 1) rotate(0) translate(4 107)">
<title>Parameters::getDebug</title>
<polygon fill="#ffffff" stroke="transparent" points="-4,4 -4,-107 326.5752,-107 326.5752,4 -4,4"/>
<!-- Node67 -->
<g id="node1" class="node">
<title>Node67</title>
<g id="a_node1"><a xlink:title=" ">
<polygon fill="#bfbfbf" stroke="#000000" points="205.9648,-47.5 205.9648,-65.5 322.5752,-65.5 322.5752,-47.5 205.9648,-47.5"/>
<text text-anchor="middle" x="264.27" y="-53.5" font-family="Helvetica,sans-Serif" font-size="10.00" fill="#000000">Parameters::getDebug</text>
</a>
</g>
</g>
<!-- Node68 -->
<g id="node2" class="node">
<title>Node68</title>
<g id="a_node2"><a xlink:href="class_i_o_1_1_field_i_o.html#a8af607f9a1d79e90d4514c36103c6601" target="_top" xlink:title="IO::FieldIO::writeFieldToFile writes a lattice of SU3 matrix objects to file.">
<polygon fill="#ffffff" stroke="#000000" points="15.3003,-84.5 15.3003,-102.5 154.6646,-102.5 154.6646,-84.5 15.3003,-84.5"/>
<text text-anchor="middle" x="84.9824" y="-90.5" font-family="Helvetica,sans-Serif" font-size="10.00" fill="#000000">IO::FieldIO::writeFieldToFile</text>
</a>
</g>
</g>
<!-- Node67&#45;&gt;Node68 -->
<g id="edge1" class="edge">
<title>Node67&#45;&gt;Node68</title>
<path fill="none" stroke="#191970" d="M210.3006,-67.6378C184.2063,-73.0229 153.293,-79.4026 128.6987,-84.4782"/>
<polygon fill="#191970" stroke="#191970" points="211.3251,-71.0002 220.4113,-65.5512 209.9103,-64.1447 211.3251,-71.0002"/>
</g>
<!-- Node69 -->
<g id="node3" class="node">
<title>Node69</title>
<g id="a_node3"><a xlink:href="class_i_o_1_1_field_i_o.html#a02db864a48601edd7febaab5d655e495" target="_top" xlink:title="IO::FieldIO::loadFieldConfiguration loads a regular configuration into memory.">
<polygon fill="#ffffff" stroke="#000000" points="0,-47.5 0,-65.5 169.9648,-65.5 169.9648,-47.5 0,-47.5"/>
<text text-anchor="middle" x="84.9824" y="-53.5" font-family="Helvetica,sans-Serif" font-size="10.00" fill="#000000">IO::FieldIO::loadFieldConfiguration</text>
</a>
</g>
</g>
<!-- Node67&#45;&gt;Node69 -->
<g id="edge2" class="edge">
<title>Node67&#45;&gt;Node69</title>
<path fill="none" stroke="#191970" d="M195.2921,-56.5C187.0608,-56.5 178.5836,-56.5 170.1591,-56.5"/>
<polygon fill="#191970" stroke="#191970" points="195.5646,-60.0001 205.5646,-56.5 195.5645,-53.0001 195.5646,-60.0001"/>
</g>
<!-- Node70 -->
<g id="node4" class="node">
<title>Node70</title>
<g id="a_node4"><a xlink:href="class_i_o_1_1_field_i_o.html#af23fb6e02a6bd1cafd5be4acacbf848e" target="_top" xlink:title="IO::FieldIO::loadChromaFieldConfiguration loads a configuration from Chroma into memory.">
<polygon fill="#ffffff" stroke="#000000" points="11.958,-.5 11.958,-28.5 158.0068,-28.5 158.0068,-.5 11.958,-.5"/>
<text text-anchor="start" x="19.958" y="-16.5" font-family="Helvetica,sans-Serif" font-size="10.00" fill="#000000">IO::FieldIO::loadChromaField</text>
<text text-anchor="middle" x="84.9824" y="-6.5" font-family="Helvetica,sans-Serif" font-size="10.00" fill="#000000">Configuration</text>
</a>
</g>
</g>
<!-- Node67&#45;&gt;Node70 -->
<g id="edge3" class="edge">
<title>Node67&#45;&gt;Node70</title>
<path fill="none" stroke="#191970" d="M216.0707,-45.2088C194.1728,-40.079 168.0443,-33.9581 144.8978,-28.5358"/>
<polygon fill="#191970" stroke="#191970" points="215.2736,-48.6168 225.8083,-47.4899 216.8702,-41.8013 215.2736,-48.6168"/>
</g>
</g>
</svg>
