<?xml version="1.0" encoding="UTF-8" standalone="no"?>
<!DOCTYPE svg PUBLIC "-//W3C//DTD SVG 1.1//EN"
 "http://www.w3.org/Graphics/SVG/1.1/DTD/svg11.dtd">
<!-- Generated by graphviz version 2.40.1 (20161225.0304)
 -->
<!-- Title: GLAC/parallelization/communicator.h Pages: 1 -->
<svg width="712pt" height="312pt"
 viewBox="0.00 0.00 712.16 312.00" xmlns="http://www.w3.org/2000/svg" xmlns:xlink="http://www.w3.org/1999/xlink">
<g id="graph0" class="graph" transform="scale(1 1) rotate(0) translate(4 308)">
<title>GLAC/parallelization/communicator.h</title>
<polygon fill="#ffffff" stroke="transparent" points="-4,4 -4,-308 708.1647,-308 708.1647,4 -4,4"/>
<!-- Node0 -->
<g id="node1" class="node">
<title>Node0</title>
<g id="a_node1"><a xlink:title=" ">
<polygon fill="#bfbfbf" stroke="#000000" points="62.0739,-275.5 62.0739,-303.5 169.2311,-303.5 169.2311,-275.5 62.0739,-275.5"/>
<text text-anchor="start" x="70.0739" y="-291.5" font-family="Helvetica,sans-Serif" font-size="10.00" fill="#000000">GLAC/parallelization</text>
<text text-anchor="middle" x="115.6525" y="-281.5" font-family="Helvetica,sans-Serif" font-size="10.00" fill="#000000">/communicator.h</text>
</a>
</g>
</g>
<!-- Node1 -->
<g id="node2" class="node">
<title>Node1</title>
<g id="a_node2"><a xlink:title=" ">
<polygon fill="#ffffff" stroke="#bfbfbf" points="88.0367,-110.5 88.0367,-128.5 131.2682,-128.5 131.2682,-110.5 88.0367,-110.5"/>
<text text-anchor="middle" x="109.6525" y="-116.5" font-family="Helvetica,sans-Serif" font-size="10.00" fill="#000000">vector</text>
</a>
</g>
</g>
<!-- Node0&#45;&gt;Node1 -->
<g id="edge1" class="edge">
<title>Node0&#45;&gt;Node1</title>
<path fill="none" stroke="#191970" d="M91.144,-275.3318C63.67,-257.8669 20.6197,-225.3555 2.6525,-184 -12.2397,-149.7225 41.3851,-132.3677 78.0422,-124.6835"/>
<polygon fill="#191970" stroke="#191970" points="78.7165,-128.118 87.8605,-122.7666 77.3751,-121.2477 78.7165,-128.118"/>
</g>
<!-- Node2 -->
<g id="node3" class="node">
<title>Node2</title>
<g id="a_node3"><a xlink:href="lattice_8h.html" target="_top" xlink:title=" ">
<polygon fill="#ffffff" stroke="#000000" points="210.9161,-220.5 210.9161,-238.5 286.3888,-238.5 286.3888,-220.5 210.9161,-220.5"/>
<text text-anchor="middle" x="248.6525" y="-226.5" font-family="Helvetica,sans-Serif" font-size="10.00" fill="#000000">math/lattice.h</text>
</a>
</g>
</g>
<!-- Node0&#45;&gt;Node2 -->
<g id="edge2" class="edge">
<title>Node0&#45;&gt;Node2</title>
<path fill="none" stroke="#191970" d="M146.8351,-275.4327C168.6739,-265.5806 197.6715,-252.4989 219.1339,-242.8167"/>
<polygon fill="#191970" stroke="#191970" points="220.7359,-245.9337 228.4119,-238.6311 217.8573,-239.5529 220.7359,-245.9337"/>
</g>
<!-- Node2&#45;&gt;Node1 -->
<g id="edge3" class="edge">
<title>Node2&#45;&gt;Node1</title>
<path fill="none" stroke="#191970" d="M229.7355,-220.4063C213.3182,-212.0739 189.3204,-198.8104 170.6525,-184 152.6543,-169.7211 134.9342,-150.2023 123.2705,-136.3869"/>
<polygon fill="#191970" stroke="#191970" points="125.9146,-134.0923 116.8425,-128.6198 120.5219,-138.5553 125.9146,-134.0923"/>
</g>
<!-- Node3 -->
<g id="node4" class="node">
<title>Node3</title>
<g id="a_node4"><a xlink:title=" ">
<polygon fill="#ffffff" stroke="#bfbfbf" points="413.4259,-110.5 413.4259,-128.5 453.879,-128.5 453.879,-110.5 413.4259,-110.5"/>
<text text-anchor="middle" x="433.6525" y="-116.5" font-family="Helvetica,sans-Serif" font-size="10.00" fill="#000000">mpi.h</text>
</a>
</g>
</g>
<!-- Node2&#45;&gt;Node3 -->
<g id="edge4" class="edge">
<title>Node2&#45;&gt;Node3</title>
<path fill="none" stroke="#191970" d="M286.5453,-225.7397C356.694,-218.3947 501.0189,-201.3383 515.6525,-184 535.154,-160.894 494.3547,-140.4958 463.6047,-129.099"/>
<polygon fill="#191970" stroke="#191970" points="464.658,-125.7591 454.0632,-125.723 462.323,-132.3582 464.658,-125.7591"/>
</g>
<!-- Node4 -->
<g id="node5" class="node">
<title>Node4</title>
<g id="a_node5"><a xlink:href="index_8h.html" target="_top" xlink:title=" ">
<polygon fill="#ffffff" stroke="#000000" points="11.5665,-165.5 11.5665,-183.5 123.7384,-183.5 123.7384,-165.5 11.5665,-165.5"/>
<text text-anchor="middle" x="67.6525" y="-171.5" font-family="Helvetica,sans-Serif" font-size="10.00" fill="#000000">parallelization/index.h</text>
</a>
</g>
</g>
<!-- Node2&#45;&gt;Node4 -->
<g id="edge5" class="edge">
<title>Node2&#45;&gt;Node4</title>
<path fill="none" stroke="#191970" d="M218.764,-220.4179C188.2806,-211.155 140.8175,-196.7325 107.2289,-186.526"/>
<polygon fill="#191970" stroke="#191970" points="107.8701,-183.0629 97.2845,-183.5042 105.8349,-189.7605 107.8701,-183.0629"/>
</g>
<!-- Node5 -->
<g id="node6" class="node">
<title>Node5</title>
<g id="a_node6"><a xlink:href="neighbours_8h.html" target="_top" xlink:title=" ">
<polygon fill="#ffffff" stroke="#000000" points="179.7784,-165.5 179.7784,-183.5 317.5265,-183.5 317.5265,-165.5 179.7784,-165.5"/>
<text text-anchor="middle" x="248.6525" y="-171.5" font-family="Helvetica,sans-Serif" font-size="10.00" fill="#000000">parallelization/neighbours.h</text>
</a>
</g>
</g>
<!-- Node2&#45;&gt;Node5 -->
<g id="edge7" class="edge">
<title>Node2&#45;&gt;Node5</title>
<path fill="none" stroke="#191970" d="M248.6525,-220.4179C248.6525,-213.2164 248.6525,-202.8962 248.6525,-193.8632"/>
<polygon fill="#191970" stroke="#191970" points="252.1526,-193.7794 248.6525,-183.7795 245.1526,-193.7795 252.1526,-193.7794"/>
</g>
<!-- Node7 -->
<g id="node8" class="node">
<title>Node7</title>
<g id="a_node8"><a xlink:href="parallelparameters_8h.html" target="_top" xlink:title=" ">
<polygon fill="#ffffff" stroke="#000000" points="335.111,-165.5 335.111,-183.5 506.194,-183.5 506.194,-165.5 335.111,-165.5"/>
<text text-anchor="middle" x="420.6525" y="-171.5" font-family="Helvetica,sans-Serif" font-size="10.00" fill="#000000">parallelization/parallelparameters.h</text>
</a>
</g>
</g>
<!-- Node2&#45;&gt;Node7 -->
<g id="edge10" class="edge">
<title>Node2&#45;&gt;Node7</title>
<path fill="none" stroke="#191970" d="M277.0548,-220.4179C305.8975,-211.1949 350.737,-196.8567 382.6304,-186.6582"/>
<polygon fill="#191970" stroke="#191970" points="384.035,-189.8837 392.4938,-183.5042 381.9029,-183.2163 384.035,-189.8837"/>
</g>
<!-- Node8 -->
<g id="node9" class="node">
<title>Node8</title>
<g id="a_node9"><a xlink:href="functions_8h.html" target="_top" xlink:title=" ">
<polygon fill="#ffffff" stroke="#000000" points="562.4703,-165.5 562.4703,-183.5 626.8346,-183.5 626.8346,-165.5 562.4703,-165.5"/>
<text text-anchor="middle" x="594.6525" y="-171.5" font-family="Helvetica,sans-Serif" font-size="10.00" fill="#000000">functions.h</text>
</a>
</g>
</g>
<!-- Node2&#45;&gt;Node8 -->
<g id="edge12" class="edge">
<title>Node2&#45;&gt;Node8</title>
<path fill="none" stroke="#191970" d="M286.645,-224.3975C343.6898,-216.5872 454.7947,-200.7971 548.6525,-184 549.7361,-183.8061 550.8334,-183.6062 551.9399,-183.4015"/>
<polygon fill="#191970" stroke="#191970" points="552.867,-186.7874 562.0257,-181.4613 551.5446,-179.9134 552.867,-186.7874"/>
</g>
<!-- Node4&#45;&gt;Node1 -->
<g id="edge6" class="edge">
<title>Node4&#45;&gt;Node1</title>
<path fill="none" stroke="#191970" d="M74.5879,-165.4179C80.5103,-157.6624 89.1947,-146.29 96.4389,-136.8035"/>
<polygon fill="#191970" stroke="#191970" points="99.2789,-138.8514 102.5663,-128.7795 93.7155,-134.6029 99.2789,-138.8514"/>
</g>
<!-- Node5&#45;&gt;Node1 -->
<g id="edge9" class="edge">
<title>Node5&#45;&gt;Node1</title>
<path fill="none" stroke="#191970" d="M225.6994,-165.4179C202.589,-156.2734 166.7702,-142.1005 141.0403,-131.9197"/>
<polygon fill="#191970" stroke="#191970" points="142.3069,-128.6569 131.7206,-128.232 139.7314,-135.1658 142.3069,-128.6569"/>
</g>
<!-- Node6 -->
<g id="node7" class="node">
<title>Node6</title>
<g id="a_node7"><a xlink:href="neighbourlist_8h.html" target="_top" xlink:title=" ">
<polygon fill="#ffffff" stroke="#000000" points="208.1305,-110.5 208.1305,-128.5 289.1744,-128.5 289.1744,-110.5 208.1305,-110.5"/>
<text text-anchor="middle" x="248.6525" y="-116.5" font-family="Helvetica,sans-Serif" font-size="10.00" fill="#000000">neighbourlist.h</text>
</a>
</g>
</g>
<!-- Node5&#45;&gt;Node6 -->
<g id="edge8" class="edge">
<title>Node5&#45;&gt;Node6</title>
<path fill="none" stroke="#191970" d="M248.6525,-165.4179C248.6525,-158.2164 248.6525,-147.8962 248.6525,-138.8632"/>
<polygon fill="#191970" stroke="#191970" points="252.1526,-138.7794 248.6525,-128.7795 245.1526,-138.7795 252.1526,-138.7794"/>
</g>
<!-- Node7&#45;&gt;Node3 -->
<g id="edge11" class="edge">
<title>Node7&#45;&gt;Node3</title>
<path fill="none" stroke="#191970" d="M422.7992,-165.4179C424.52,-158.1372 426.9943,-147.669 429.146,-138.5659"/>
<polygon fill="#191970" stroke="#191970" points="432.565,-139.3164 431.4591,-128.7795 425.7527,-137.7062 432.565,-139.3164"/>
</g>
<!-- Node9 -->
<g id="node10" class="node">
<title>Node9</title>
<g id="a_node10"><a xlink:href="su3_8h.html" target="_top" xlink:title=" ">
<polygon fill="#ffffff" stroke="#000000" points="485.1403,-110.5 485.1403,-128.5 566.1647,-128.5 566.1647,-110.5 485.1403,-110.5"/>
<text text-anchor="middle" x="525.6525" y="-116.5" font-family="Helvetica,sans-Serif" font-size="10.00" fill="#000000">matrices/su3.h</text>
</a>
</g>
</g>
<!-- Node8&#45;&gt;Node9 -->
<g id="edge13" class="edge">
<title>Node8&#45;&gt;Node9</title>
<path fill="none" stroke="#191970" d="M583.2585,-165.4179C572.9332,-157.1876 557.4977,-144.8839 545.2027,-135.0836"/>
<polygon fill="#191970" stroke="#191970" points="547.2953,-132.2757 537.294,-128.7795 542.9321,-137.7495 547.2953,-132.2757"/>
</g>
<!-- Node10 -->
<g id="node11" class="node">
<title>Node10</title>
<g id="a_node11"><a xlink:href="complex_8h.html" target="_top" xlink:title=" ">
<polygon fill="#ffffff" stroke="#000000" points="551.3595,-55.5 551.3595,-73.5 637.9454,-73.5 637.9454,-55.5 551.3595,-55.5"/>
<text text-anchor="middle" x="594.6525" y="-61.5" font-family="Helvetica,sans-Serif" font-size="10.00" fill="#000000">math/complex.h</text>
</a>
</g>
</g>
<!-- Node8&#45;&gt;Node10 -->
<g id="edge18" class="edge">
<title>Node8&#45;&gt;Node10</title>
<path fill="none" stroke="#191970" d="M594.6525,-165.4982C594.6525,-147.6913 594.6525,-107.6225 594.6525,-83.6515"/>
<polygon fill="#191970" stroke="#191970" points="598.1526,-83.6261 594.6525,-73.6261 591.1526,-83.6262 598.1526,-83.6261"/>
</g>
<!-- Node12 -->
<g id="node13" class="node">
<title>Node12</title>
<g id="a_node13"><a xlink:href="su2_8h.html" target="_top" xlink:title=" ">
<polygon fill="#ffffff" stroke="#000000" points="623.1403,-110.5 623.1403,-128.5 704.1647,-128.5 704.1647,-110.5 623.1403,-110.5"/>
<text text-anchor="middle" x="663.6525" y="-116.5" font-family="Helvetica,sans-Serif" font-size="10.00" fill="#000000">matrices/su2.h</text>
</a>
</g>
</g>
<!-- Node8&#45;&gt;Node12 -->
<g id="edge16" class="edge">
<title>Node8&#45;&gt;Node12</title>
<path fill="none" stroke="#191970" d="M606.0464,-165.4179C616.3717,-157.1876 631.8072,-144.8839 644.1022,-135.0836"/>
<polygon fill="#191970" stroke="#191970" points="646.3728,-137.7495 652.011,-128.7795 642.0096,-132.2757 646.3728,-137.7495"/>
</g>
<!-- Node9&#45;&gt;Node10 -->
<g id="edge14" class="edge">
<title>Node9&#45;&gt;Node10</title>
<path fill="none" stroke="#191970" d="M537.0464,-110.4179C547.3717,-102.1876 562.8072,-89.8839 575.1022,-80.0836"/>
<polygon fill="#191970" stroke="#191970" points="577.3728,-82.7495 583.011,-73.7795 573.0096,-77.2757 577.3728,-82.7495"/>
</g>
<!-- Node11 -->
<g id="node12" class="node">
<title>Node11</title>
<g id="a_node12"><a xlink:title=" ">
<polygon fill="#ffffff" stroke="#bfbfbf" points="567.4801,-.5 567.4801,-18.5 621.8248,-18.5 621.8248,-.5 567.4801,-.5"/>
<text text-anchor="middle" x="594.6525" y="-6.5" font-family="Helvetica,sans-Serif" font-size="10.00" fill="#000000">iostream</text>
</a>
</g>
</g>
<!-- Node10&#45;&gt;Node11 -->
<g id="edge15" class="edge">
<title>Node10&#45;&gt;Node11</title>
<path fill="none" stroke="#191970" d="M594.6525,-55.4179C594.6525,-48.2164 594.6525,-37.8962 594.6525,-28.8632"/>
<polygon fill="#191970" stroke="#191970" points="598.1526,-28.7794 594.6525,-18.7795 591.1526,-28.7795 598.1526,-28.7794"/>
</g>
<!-- Node12&#45;&gt;Node10 -->
<g id="edge17" class="edge">
<title>Node12&#45;&gt;Node10</title>
<path fill="none" stroke="#191970" d="M652.2585,-110.4179C641.9332,-102.1876 626.4977,-89.8839 614.2027,-80.0836"/>
<polygon fill="#191970" stroke="#191970" points="616.2953,-77.2757 606.294,-73.7795 611.9321,-82.7495 616.2953,-77.2757"/>
</g>
</g>
</svg>
