<?xml version="1.0" encoding="UTF-8" standalone="no"?>
<!DOCTYPE svg PUBLIC "-//W3C//DTD SVG 1.1//EN"
 "http://www.w3.org/Graphics/SVG/1.1/DTD/svg11.dtd">
<!-- Generated by graphviz version 2.40.1 (20161225.0304)
 -->
<!-- Title: GLAC/parallelization/communicator.h Pages: 1 -->
<svg width="2470pt" height="222pt"
 viewBox="0.00 0.00 2470.15 222.00" xmlns="http://www.w3.org/2000/svg" xmlns:xlink="http://www.w3.org/1999/xlink">
<g id="graph0" class="graph" transform="scale(1 1) rotate(0) translate(4 218)">
<title>GLAC/parallelization/communicator.h</title>
<polygon fill="#ffffff" stroke="transparent" points="-4,4 -4,-218 2466.147,-218 2466.147,4 -4,4"/>
<!-- Node13 -->
<g id="node1" class="node">
<title>Node13</title>
<g id="a_node1"><a xlink:title=" ">
<polygon fill="#bfbfbf" stroke="#000000" points="1057.5688,-185.5 1057.5688,-213.5 1164.7261,-213.5 1164.7261,-185.5 1057.5688,-185.5"/>
<text text-anchor="start" x="1065.5688" y="-201.5" font-family="Helvetica,sans-Serif" font-size="10.00" fill="#000000">GLAC/parallelization</text>
<text text-anchor="middle" x="1111.1475" y="-191.5" font-family="Helvetica,sans-Serif" font-size="10.00" fill="#000000">/communicator.h</text>
</a>
</g>
</g>
<!-- Node14 -->
<g id="node2" class="node">
<title>Node14</title>
<g id="a_node2"><a xlink:href="luscheraction_8cpp.html" target="_top" xlink:title=" ">
<polygon fill="#ffffff" stroke="#000000" points="0,-125.5 0,-143.5 158.2949,-143.5 158.2949,-125.5 0,-125.5"/>
<text text-anchor="middle" x="79.1475" y="-131.5" font-family="Helvetica,sans-Serif" font-size="10.00" fill="#000000">GLAC/actions/luscheraction.cpp</text>
</a>
</g>
</g>
<!-- Node13&#45;&gt;Node14 -->
<g id="edge1" class="edge">
<title>Node13&#45;&gt;Node14</title>
<path fill="none" stroke="#191970" d="M1047.3705,-198.5035C894.8419,-195.5946 497.104,-184.8997 167.1475,-149 154.3713,-147.6099 140.6293,-145.597 127.8908,-143.5113"/>
<polygon fill="#191970" stroke="#191970" points="1047.4289,-202.0051 1057.4923,-198.6919 1047.5592,-195.0063 1047.4289,-202.0051"/>
</g>
<!-- Node15 -->
<g id="node3" class="node">
<title>Node15</title>
<g id="a_node3"><a xlink:href="wilsongaugeaction_8cpp.html" target="_top" xlink:title=" ">
<polygon fill="#ffffff" stroke="#000000" points="176.3203,-125.5 176.3203,-143.5 357.9746,-143.5 357.9746,-125.5 176.3203,-125.5"/>
<text text-anchor="middle" x="267.1475" y="-131.5" font-family="Helvetica,sans-Serif" font-size="10.00" fill="#000000">GLAC/actions/wilsongaugeaction.cpp</text>
</a>
</g>
</g>
<!-- Node13&#45;&gt;Node15 -->
<g id="edge2" class="edge">
<title>Node13&#45;&gt;Node15</title>
<path fill="none" stroke="#191970" d="M1047.2516,-196.8066C918.3718,-191.0114 618.1495,-175.677 367.1475,-149 353.1919,-147.5168 338.193,-145.5446 324.1656,-143.5338"/>
<polygon fill="#191970" stroke="#191970" points="1047.1949,-200.3075 1057.3409,-197.2565 1047.5068,-193.3144 1047.1949,-200.3075"/>
</g>
<!-- Node16 -->
<g id="node4" class="node">
<title>Node16</title>
<g id="a_node4"><a xlink:href="fieldio_8cpp.html" target="_top" xlink:title=" ">
<polygon fill="#ffffff" stroke="#000000" points="376.3472,-125.5 376.3472,-143.5 477.9478,-143.5 477.9478,-125.5 376.3472,-125.5"/>
<text text-anchor="middle" x="427.1475" y="-131.5" font-family="Helvetica,sans-Serif" font-size="10.00" fill="#000000">GLAC/io/fieldio.cpp</text>
</a>
</g>
</g>
<!-- Node13&#45;&gt;Node16 -->
<g id="edge3" class="edge">
<title>Node13&#45;&gt;Node16</title>
<path fill="none" stroke="#191970" d="M1047.0326,-197.7088C933.365,-193.7811 689.3434,-181.9597 486.1475,-149 477.6098,-147.6151 468.4882,-145.6298 460.0327,-143.5706"/>
<polygon fill="#191970" stroke="#191970" points="1047.1798,-201.2157 1057.2919,-198.054 1047.4152,-194.2196 1047.1798,-201.2157"/>
</g>
<!-- Node17 -->
<g id="node5" class="node">
<title>Node17</title>
<g id="a_node5"><a xlink:href="observablesio_8cpp.html" target="_top" xlink:title=" ">
<polygon fill="#ffffff" stroke="#000000" points="495.5591,-125.5 495.5591,-143.5 632.7358,-143.5 632.7358,-125.5 495.5591,-125.5"/>
<text text-anchor="middle" x="564.1475" y="-131.5" font-family="Helvetica,sans-Serif" font-size="10.00" fill="#000000">GLAC/io/observablesio.cpp</text>
</a>
</g>
</g>
<!-- Node13&#45;&gt;Node17 -->
<g id="edge4" class="edge">
<title>Node13&#45;&gt;Node17</title>
<path fill="none" stroke="#191970" d="M1047.4352,-194.1977C957.0387,-186.3211 786.4875,-170.1555 642.1475,-149 631.5176,-147.442 620.1242,-145.4873 609.4194,-143.5223"/>
<polygon fill="#191970" stroke="#191970" points="1047.2588,-197.6955 1057.5235,-195.0713 1047.8628,-190.7216 1047.2588,-197.6955"/>
</g>
<!-- Node18 -->
<g id="node6" class="node">
<title>Node18</title>
<g id="a_node6"><a xlink:href="test_8h.html" target="_top" xlink:title=" ">
<polygon fill="#ffffff" stroke="#000000" points="650.9653,-125.5 650.9653,-143.5 745.3296,-143.5 745.3296,-125.5 650.9653,-125.5"/>
<text text-anchor="middle" x="698.1475" y="-131.5" font-family="Helvetica,sans-Serif" font-size="10.00" fill="#000000">GLAC/tests/test.h</text>
</a>
</g>
</g>
<!-- Node13&#45;&gt;Node18 -->
<g id="edge5" class="edge">
<title>Node13&#45;&gt;Node18</title>
<path fill="none" stroke="#191970" d="M1047.0724,-192.6444C975.3352,-184.4577 855.8063,-169.2841 754.1475,-149 746.4655,-147.4672 738.266,-145.5224 730.5775,-143.5589"/>
<polygon fill="#191970" stroke="#191970" points="1046.9719,-196.1553 1057.3019,-193.8014 1047.7586,-189.1996 1046.9719,-196.1553"/>
</g>
<!-- Node20 -->
<g id="node8" class="node">
<title>Node20</title>
<g id="a_node8"><a xlink:href="latticeactionchargedensity_8cpp.html" target="_top" xlink:title=" ">
<polygon fill="#ffffff" stroke="#000000" points="763.1768,-125.5 763.1768,-143.5 999.1182,-143.5 999.1182,-125.5 763.1768,-125.5"/>
<text text-anchor="middle" x="881.1475" y="-131.5" font-family="Helvetica,sans-Serif" font-size="10.00" fill="#000000">GLAC/observables/latticeactionchargedensity.cpp</text>
</a>
</g>
</g>
<!-- Node13&#45;&gt;Node20 -->
<g id="edge7" class="edge">
<title>Node13&#45;&gt;Node20</title>
<path fill="none" stroke="#191970" d="M1051.7443,-182.7122C1007.475,-170.2013 948.731,-153.5997 912.9991,-143.5016"/>
<polygon fill="#191970" stroke="#191970" points="1050.9491,-186.1244 1061.5241,-185.476 1052.8528,-179.3883 1050.9491,-186.1244"/>
</g>
<!-- Node21 -->
<g id="node9" class="node">
<title>Node21</title>
<g id="a_node9"><a xlink:href="mastersampler_8cpp.html" target="_top" xlink:title=" ">
<polygon fill="#ffffff" stroke="#000000" points="1017.5518,-125.5 1017.5518,-143.5 1204.7432,-143.5 1204.7432,-125.5 1017.5518,-125.5"/>
<text text-anchor="middle" x="1111.1475" y="-131.5" font-family="Helvetica,sans-Serif" font-size="10.00" fill="#000000">GLAC/observables/mastersampler.cpp</text>
</a>
</g>
</g>
<!-- Node13&#45;&gt;Node21 -->
<g id="edge8" class="edge">
<title>Node13&#45;&gt;Node21</title>
<path fill="none" stroke="#191970" d="M1111.1475,-175.3747C1111.1475,-164.2832 1111.1475,-151.7952 1111.1475,-143.5743"/>
<polygon fill="#191970" stroke="#191970" points="1107.6476,-175.3959 1111.1475,-185.396 1114.6476,-175.396 1107.6476,-175.3959"/>
</g>
<!-- Node22 -->
<g id="node10" class="node">
<title>Node22</title>
<g id="a_node10"><a xlink:href="mastersamplertopcxyz_8cpp.html" target="_top" xlink:title=" ">
<polygon fill="#ffffff" stroke="#000000" points="1222.3276,-125.5 1222.3276,-143.5 1443.9673,-143.5 1443.9673,-125.5 1222.3276,-125.5"/>
<text text-anchor="middle" x="1333.1475" y="-131.5" font-family="Helvetica,sans-Serif" font-size="10.00" fill="#000000">GLAC/observables/mastersamplertopcxyz.cpp</text>
</a>
</g>
</g>
<!-- Node13&#45;&gt;Node22 -->
<g id="edge9" class="edge">
<title>Node13&#45;&gt;Node22</title>
<path fill="none" stroke="#191970" d="M1168.7539,-182.6333C1211.4521,-170.1315 1267.9872,-153.5785 1302.4037,-143.5016"/>
<polygon fill="#191970" stroke="#191970" points="1167.6584,-179.307 1159.0448,-185.476 1169.6254,-186.0249 1167.6584,-179.307"/>
</g>
<!-- Node23 -->
<g id="node11" class="node">
<title>Node23</title>
<g id="a_node11"><a xlink:href="supersampler_8cpp.html" target="_top" xlink:title=" ">
<polygon fill="#ffffff" stroke="#000000" points="1462.3252,-125.5 1462.3252,-143.5 1643.9697,-143.5 1643.9697,-125.5 1462.3252,-125.5"/>
<text text-anchor="middle" x="1553.1475" y="-131.5" font-family="Helvetica,sans-Serif" font-size="10.00" fill="#000000">GLAC/observables/supersampler.cpp</text>
</a>
</g>
</g>
<!-- Node13&#45;&gt;Node23 -->
<g id="edge10" class="edge">
<title>Node13&#45;&gt;Node23</title>
<path fill="none" stroke="#191970" d="M1174.9029,-190.1242C1259.5654,-177.6738 1408.0994,-155.8306 1491.6225,-143.5478"/>
<polygon fill="#191970" stroke="#191970" points="1174.2878,-186.6769 1164.9034,-191.5947 1175.3063,-193.6024 1174.2878,-186.6769"/>
</g>
<!-- Node24 -->
<g id="node12" class="node">
<title>Node24</title>
<g id="a_node12"><a xlink:href="communicator_8cpp.html" target="_top" xlink:title=" ">
<polygon fill="#ffffff" stroke="#000000" points="1661.5688,-120.5 1661.5688,-148.5 1768.7261,-148.5 1768.7261,-120.5 1661.5688,-120.5"/>
<text text-anchor="start" x="1669.5688" y="-136.5" font-family="Helvetica,sans-Serif" font-size="10.00" fill="#000000">GLAC/parallelization</text>
<text text-anchor="middle" x="1715.1475" y="-126.5" font-family="Helvetica,sans-Serif" font-size="10.00" fill="#000000">/communicator.cpp</text>
</a>
</g>
</g>
<!-- Node13&#45;&gt;Node24 -->
<g id="edge11" class="edge">
<title>Node13&#45;&gt;Node24</title>
<path fill="none" stroke="#191970" d="M1175.0326,-196.3851C1276.756,-190.7894 1481.5789,-176.9207 1653.1475,-149 1655.8752,-148.5561 1658.6614,-148.0606 1661.4687,-147.5279"/>
<polygon fill="#191970" stroke="#191970" points="1174.7185,-192.8969 1164.9224,-196.9326 1175.097,-199.8867 1174.7185,-192.8969"/>
</g>
<!-- Node25 -->
<g id="node13" class="node">
<title>Node25</title>
<g id="a_node13"><a xlink:href="parallel_8h.html" target="_top" xlink:title=" ">
<polygon fill="#ffffff" stroke="#000000" points="1786.5688,-120.5 1786.5688,-148.5 1893.7261,-148.5 1893.7261,-120.5 1786.5688,-120.5"/>
<text text-anchor="start" x="1794.5688" y="-136.5" font-family="Helvetica,sans-Serif" font-size="10.00" fill="#000000">GLAC/parallelization</text>
<text text-anchor="middle" x="1840.1475" y="-126.5" font-family="Helvetica,sans-Serif" font-size="10.00" fill="#000000">/parallel.h</text>
</a>
</g>
</g>
<!-- Node13&#45;&gt;Node25 -->
<g id="edge12" class="edge">
<title>Node13&#45;&gt;Node25</title>
<path fill="none" stroke="#191970" d="M1175.1239,-197.9338C1294.3698,-194.2896 1558.4354,-182.8031 1778.1475,-149 1780.8789,-148.5798 1783.6681,-148.1033 1786.4778,-147.5857"/>
<polygon fill="#191970" stroke="#191970" points="1174.9626,-194.4369 1165.0711,-198.2328 1175.1707,-201.4338 1174.9626,-194.4369"/>
</g>
<!-- Node35 -->
<g id="node23" class="node">
<title>Node35</title>
<g id="a_node23"><a xlink:href="performancetests_8cpp.html" target="_top" xlink:title=" ">
<polygon fill="#ffffff" stroke="#000000" points="1912.1157,-125.5 1912.1157,-143.5 2078.1792,-143.5 2078.1792,-125.5 1912.1157,-125.5"/>
<text text-anchor="middle" x="1995.1475" y="-131.5" font-family="Helvetica,sans-Serif" font-size="10.00" fill="#000000">GLAC/tests/performancetests.cpp</text>
</a>
</g>
</g>
<!-- Node13&#45;&gt;Node35 -->
<g id="edge23" class="edge">
<title>Node13&#45;&gt;Node35</title>
<path fill="none" stroke="#191970" d="M1175.2355,-197.4279C1310.2118,-192.6212 1633.5394,-178.777 1903.1475,-149 1916.1655,-147.5622 1930.156,-145.5826 1943.2002,-143.5481"/>
<polygon fill="#191970" stroke="#191970" points="1174.9448,-193.9359 1165.074,-197.7853 1175.1909,-200.9315 1174.9448,-193.9359"/>
</g>
<!-- Node36 -->
<g id="node24" class="node">
<title>Node36</title>
<g id="a_node24"><a xlink:href="testsuite_8cpp.html" target="_top" xlink:title=" ">
<polygon fill="#ffffff" stroke="#000000" points="2096.123,-125.5 2096.123,-143.5 2222.1719,-143.5 2222.1719,-125.5 2096.123,-125.5"/>
<text text-anchor="middle" x="2159.1475" y="-131.5" font-family="Helvetica,sans-Serif" font-size="10.00" fill="#000000">GLAC/tests/testsuite.cpp</text>
</a>
</g>
</g>
<!-- Node13&#45;&gt;Node36 -->
<g id="edge24" class="edge">
<title>Node13&#45;&gt;Node36</title>
<path fill="none" stroke="#191970" d="M1175.18,-197.4186C1362.8949,-191.1216 1909.7433,-171.3302 2087.1475,-149 2097.7744,-147.6624 2109.1794,-145.6414 2119.7076,-143.5296"/>
<polygon fill="#191970" stroke="#191970" points="1174.8011,-193.9293 1164.9235,-197.7612 1175.0348,-200.9253 1174.8011,-193.9293"/>
</g>
<!-- Node19 -->
<g id="node7" class="node">
<title>Node19</title>
<g id="a_node7"><a xlink:href="main_8cpp.html" target="_top" xlink:title=" ">
<polygon fill="#ffffff" stroke="#000000" points="654.8545,-60.5 654.8545,-78.5 741.4404,-78.5 741.4404,-60.5 654.8545,-60.5"/>
<text text-anchor="middle" x="698.1475" y="-66.5" font-family="Helvetica,sans-Serif" font-size="10.00" fill="#000000">GLAC/main.cpp</text>
</a>
</g>
</g>
<!-- Node18&#45;&gt;Node19 -->
<g id="edge6" class="edge">
<title>Node18&#45;&gt;Node19</title>
<path fill="none" stroke="#191970" d="M698.1475,-115.1265C698.1475,-103.1522 698.1475,-88.3205 698.1475,-78.8821"/>
<polygon fill="#191970" stroke="#191970" points="694.6476,-115.462 698.1475,-125.462 701.6476,-115.4621 694.6476,-115.462"/>
</g>
<!-- Node26 -->
<g id="node14" class="node">
<title>Node26</title>
<g id="a_node14"><a xlink:href="configloader_8cpp.html" target="_top" xlink:title=" ">
<polygon fill="#ffffff" stroke="#000000" points="1417.9927,-60.5 1417.9927,-78.5 1566.3022,-78.5 1566.3022,-60.5 1417.9927,-60.5"/>
<text text-anchor="middle" x="1492.1475" y="-66.5" font-family="Helvetica,sans-Serif" font-size="10.00" fill="#000000">GLAC/config/configloader.cpp</text>
</a>
</g>
</g>
<!-- Node25&#45;&gt;Node26 -->
<g id="edge13" class="edge">
<title>Node25&#45;&gt;Node26</title>
<path fill="none" stroke="#191970" d="M1776.5241,-119.8312C1737.6425,-112.5524 1614.643,-90.9595 1543.6273,-78.5145"/>
<polygon fill="#191970" stroke="#191970" points="1775.9362,-123.2822 1786.4187,-121.7439 1777.2648,-116.4095 1775.9362,-123.2822"/>
</g>
<!-- Node27 -->
<g id="node15" class="node">
<title>Node27</title>
<g id="a_node15"><a xlink:href="sysprint_8h.html" target="_top" xlink:title=" ">
<polygon fill="#ffffff" stroke="#000000" points="1584.0146,-60.5 1584.0146,-78.5 1702.2803,-78.5 1702.2803,-60.5 1584.0146,-60.5"/>
<text text-anchor="middle" x="1643.1475" y="-66.5" font-family="Helvetica,sans-Serif" font-size="10.00" fill="#000000">GLAC/config/sysprint.h</text>
</a>
</g>
</g>
<!-- Node25&#45;&gt;Node27 -->
<g id="edge14" class="edge">
<title>Node25&#45;&gt;Node27</title>
<path fill="none" stroke="#191970" d="M1787.613,-117.1663C1749.9889,-104.7522 1700.831,-88.5326 1670.6496,-78.5743"/>
<polygon fill="#191970" stroke="#191970" points="1786.8083,-120.5863 1797.4014,-120.396 1789.0017,-113.9388 1786.8083,-120.5863"/>
</g>
<!-- Node30 -->
<g id="node18" class="node">
<title>Node30</title>
<g id="a_node18"><a xlink:href="system_8cpp.html" target="_top" xlink:title=" ">
<polygon fill="#ffffff" stroke="#000000" points="1703.8569,-.5 1703.8569,-18.5 1800.438,-18.5 1800.438,-.5 1703.8569,-.5"/>
<text text-anchor="middle" x="1752.1475" y="-6.5" font-family="Helvetica,sans-Serif" font-size="10.00" fill="#000000">GLAC/system.cpp</text>
</a>
</g>
</g>
<!-- Node25&#45;&gt;Node30 -->
<g id="edge22" class="edge">
<title>Node25&#45;&gt;Node30</title>
<path fill="none" stroke="#191970" d="M1785.1084,-115.8641C1770.9157,-108.2796 1757.3437,-97.9221 1749.1475,-84 1736.9326,-63.2518 1744.0511,-33.3253 1748.8574,-18.5105"/>
<polygon fill="#191970" stroke="#191970" points="1783.9549,-119.1966 1794.4745,-120.4573 1787.0372,-112.9117 1783.9549,-119.1966"/>
</g>
<!-- Node31 -->
<g id="node19" class="node">
<title>Node31</title>
<g id="a_node19"><a xlink:href="correlator_8cpp.html" target="_top" xlink:title=" ">
<polygon fill="#ffffff" stroke="#000000" points="1758.4976,-60.5 1758.4976,-78.5 1921.7974,-78.5 1921.7974,-60.5 1758.4976,-60.5"/>
<text text-anchor="middle" x="1840.1475" y="-66.5" font-family="Helvetica,sans-Serif" font-size="10.00" fill="#000000">GLAC/observables/correlator.cpp</text>
</a>
</g>
</g>
<!-- Node25&#45;&gt;Node31 -->
<g id="edge18" class="edge">
<title>Node25&#45;&gt;Node31</title>
<path fill="none" stroke="#191970" d="M1840.1475,-110.3747C1840.1475,-99.2832 1840.1475,-86.7952 1840.1475,-78.5743"/>
<polygon fill="#191970" stroke="#191970" points="1836.6476,-110.3959 1840.1475,-120.396 1843.6476,-110.396 1836.6476,-110.3959"/>
</g>
<!-- Node32 -->
<g id="node20" class="node">
<title>Node32</title>
<g id="a_node20"><a xlink:href="plaquette_8cpp.html" target="_top" xlink:title=" ">
<polygon fill="#ffffff" stroke="#000000" points="1939.7686,-60.5 1939.7686,-78.5 2102.5264,-78.5 2102.5264,-60.5 1939.7686,-60.5"/>
<text text-anchor="middle" x="2021.1475" y="-66.5" font-family="Helvetica,sans-Serif" font-size="10.00" fill="#000000">GLAC/observables/plaquette.cpp</text>
</a>
</g>
</g>
<!-- Node25&#45;&gt;Node32 -->
<g id="edge19" class="edge">
<title>Node25&#45;&gt;Node32</title>
<path fill="none" stroke="#191970" d="M1888.857,-117.0076C1923.3676,-104.6143 1968.2669,-88.4903 1995.879,-78.5743"/>
<polygon fill="#191970" stroke="#191970" points="1887.6503,-113.722 1879.4218,-120.396 1890.0163,-120.3101 1887.6503,-113.722"/>
</g>
<!-- Node33 -->
<g id="node21" class="node">
<title>Node33</title>
<g id="a_node21"><a xlink:href="observablestorer_8cpp.html" target="_top" xlink:title=" ">
<polygon fill="#ffffff" stroke="#000000" points="2120.2314,-55.5 2120.2314,-83.5 2244.0635,-83.5 2244.0635,-55.5 2120.2314,-55.5"/>
<text text-anchor="start" x="2128.2314" y="-71.5" font-family="Helvetica,sans-Serif" font-size="10.00" fill="#000000">GLAC/observables/tools</text>
<text text-anchor="middle" x="2182.1475" y="-61.5" font-family="Helvetica,sans-Serif" font-size="10.00" fill="#000000">/observablestorer.cpp</text>
</a>
</g>
</g>
<!-- Node25&#45;&gt;Node33 -->
<g id="edge20" class="edge">
<title>Node25&#45;&gt;Node33</title>
<path fill="none" stroke="#191970" d="M1903.8778,-119.9189C1996.7767,-101.4469 2022.0152,-100.811 2111.1475,-84 2114.1145,-83.4404 2117.1493,-82.8583 2120.213,-82.2628"/>
<polygon fill="#191970" stroke="#191970" points="1903.1787,-116.4893 1894.0617,-121.8865 1904.5546,-123.3527 1903.1787,-116.4893"/>
</g>
<!-- Node34 -->
<g id="node22" class="node">
<title>Node34</title>
<g id="a_node22"><a xlink:href="topologicalcharge_8cpp.html" target="_top" xlink:title=" ">
<polygon fill="#ffffff" stroke="#000000" points="2262.1479,-60.5 2262.1479,-78.5 2462.147,-78.5 2462.147,-60.5 2262.1479,-60.5"/>
<text text-anchor="middle" x="2362.1475" y="-66.5" font-family="Helvetica,sans-Serif" font-size="10.00" fill="#000000">GLAC/observables/topologicalcharge.cpp</text>
</a>
</g>
</g>
<!-- Node25&#45;&gt;Node34 -->
<g id="edge21" class="edge">
<title>Node25&#45;&gt;Node34</title>
<path fill="none" stroke="#191970" d="M1903.9163,-120.0088C2059.1229,-94.7268 2101.032,-101.9368 2253.1475,-84 2267.2719,-82.3345 2282.4067,-80.4104 2296.7676,-78.5192"/>
<polygon fill="#191970" stroke="#191970" points="1903.3143,-116.5607 1894.0165,-121.6401 1904.4525,-123.4676 1903.3143,-116.5607"/>
</g>
<!-- Node28 -->
<g id="node16" class="node">
<title>Node28</title>
<g id="a_node16"><a xlink:href="parameters_8cpp.html" target="_top" xlink:title=" ">
<polygon fill="#ffffff" stroke="#000000" points="1393.6724,-.5 1393.6724,-18.5 1538.6226,-18.5 1538.6226,-.5 1393.6724,-.5"/>
<text text-anchor="middle" x="1466.1475" y="-6.5" font-family="Helvetica,sans-Serif" font-size="10.00" fill="#000000">GLAC/config/parameters.cpp</text>
</a>
</g>
</g>
<!-- Node27&#45;&gt;Node28 -->
<g id="edge15" class="edge">
<title>Node27&#45;&gt;Node28</title>
<path fill="none" stroke="#191970" d="M1606.7151,-57.15C1572.7883,-45.6494 1523.019,-28.7785 1492.703,-18.5019"/>
<polygon fill="#191970" stroke="#191970" points="1605.6706,-60.4916 1616.265,-60.3873 1607.918,-53.8621 1605.6706,-60.4916"/>
</g>
<!-- Node29 -->
<g id="node17" class="node">
<title>Node29</title>
<g id="a_node17"><a xlink:href="sysprint_8cpp.html" target="_top" xlink:title=" ">
<polygon fill="#ffffff" stroke="#000000" points="1556.7339,-.5 1556.7339,-18.5 1685.561,-18.5 1685.561,-.5 1556.7339,-.5"/>
<text text-anchor="middle" x="1621.1475" y="-6.5" font-family="Helvetica,sans-Serif" font-size="10.00" fill="#000000">GLAC/config/sysprint.cpp</text>
</a>
</g>
</g>
<!-- Node27&#45;&gt;Node29 -->
<g id="edge16" class="edge">
<title>Node27&#45;&gt;Node29</title>
<path fill="none" stroke="#191970" d="M1636.2568,-50.7072C1632.3487,-40.0487 1627.6323,-27.186 1624.5202,-18.6985"/>
<polygon fill="#191970" stroke="#191970" points="1633.0775,-52.2034 1639.8061,-60.3873 1639.6496,-49.7936 1633.0775,-52.2034"/>
</g>
<!-- Node27&#45;&gt;Node30 -->
<g id="edge17" class="edge">
<title>Node27&#45;&gt;Node30</title>
<path fill="none" stroke="#191970" d="M1668.6052,-55.4865C1689.3432,-44.0712 1718.0062,-28.2933 1735.7941,-18.5019"/>
<polygon fill="#191970" stroke="#191970" points="1666.7749,-52.4988 1659.7022,-60.3873 1670.1505,-58.6311 1666.7749,-52.4988"/>
</g>
</g>
</svg>
