<?xml version="1.0" encoding="UTF-8" standalone="no"?>
<!DOCTYPE svg PUBLIC "-//W3C//DTD SVG 1.1//EN"
 "http://www.w3.org/Graphics/SVG/1.1/DTD/svg11.dtd">
<!-- Generated by graphviz version 2.40.1 (20161225.0304)
 -->
<!-- Title: GluonicLQCD/parallelization/communicator.h Pages: 1 -->
<svg width="2152pt" height="232pt"
 viewBox="0.00 0.00 2152.27 232.00" xmlns="http://www.w3.org/2000/svg" xmlns:xlink="http://www.w3.org/1999/xlink">
<g id="graph0" class="graph" transform="scale(1 1) rotate(0) translate(4 228)">
<title>GluonicLQCD/parallelization/communicator.h</title>
<polygon fill="#ffffff" stroke="transparent" points="-4,4 -4,-228 2148.2705,-228 2148.2705,4 -4,4"/>
<!-- Node13 -->
<g id="node1" class="node">
<title>Node13</title>
<g id="a_node1"><a xlink:title=" ">
<polygon fill="#bfbfbf" stroke="#000000" points="924.2686,-195.5 924.2686,-223.5 1065.8838,-223.5 1065.8838,-195.5 924.2686,-195.5"/>
<text text-anchor="start" x="932.2686" y="-211.5" font-family="Helvetica,sans-Serif" font-size="10.00" fill="#000000">GluonicLQCD/parallelization</text>
<text text-anchor="middle" x="995.0762" y="-201.5" font-family="Helvetica,sans-Serif" font-size="10.00" fill="#000000">/communicator.h</text>
</a>
</g>
</g>
<!-- Node14 -->
<g id="node2" class="node">
<title>Node14</title>
<g id="a_node2"><a xlink:href="luscheraction_8cpp.html" target="_top" xlink:title=" ">
<polygon fill="#ffffff" stroke="#000000" points="0,-130.5 0,-158.5 112.1523,-158.5 112.1523,-130.5 0,-130.5"/>
<text text-anchor="start" x="8" y="-146.5" font-family="Helvetica,sans-Serif" font-size="10.00" fill="#000000">GluonicLQCD/actions</text>
<text text-anchor="middle" x="56.0762" y="-136.5" font-family="Helvetica,sans-Serif" font-size="10.00" fill="#000000">/luscheraction.cpp</text>
</a>
</g>
</g>
<!-- Node13&#45;&gt;Node14 -->
<g id="edge1" class="edge">
<title>Node13&#45;&gt;Node14</title>
<path fill="none" stroke="#191970" d="M914.1844,-206.5023C727.872,-199.3258 272.8607,-180.173 121.0762,-159 118.2134,-158.6007 115.2898,-158.141 112.3447,-157.6367"/>
<polygon fill="#191970" stroke="#191970" points="914.0649,-210.0002 924.1917,-206.8862 914.3333,-203.0053 914.0649,-210.0002"/>
</g>
<!-- Node15 -->
<g id="node3" class="node">
<title>Node15</title>
<g id="a_node3"><a xlink:href="wilsongaugeaction_8cpp.html" target="_top" xlink:title=" ">
<polygon fill="#ffffff" stroke="#000000" points="130.0962,-130.5 130.0962,-158.5 250.0562,-158.5 250.0562,-130.5 130.0962,-130.5"/>
<text text-anchor="start" x="138.0962" y="-146.5" font-family="Helvetica,sans-Serif" font-size="10.00" fill="#000000">GluonicLQCD/actions</text>
<text text-anchor="middle" x="190.0762" y="-136.5" font-family="Helvetica,sans-Serif" font-size="10.00" fill="#000000">/wilsongaugeaction.cpp</text>
</a>
</g>
</g>
<!-- Node13&#45;&gt;Node15 -->
<g id="edge2" class="edge">
<title>Node13&#45;&gt;Node15</title>
<path fill="none" stroke="#191970" d="M913.8754,-207.604C777.8431,-203.6068 495.5427,-191.7975 259.0762,-159 256.1662,-158.5964 253.1955,-158.141 250.2008,-157.6471"/>
<polygon fill="#191970" stroke="#191970" points="914.1096,-211.1121 924.206,-207.9008 914.3106,-204.115 914.1096,-211.1121"/>
</g>
<!-- Node16 -->
<g id="node4" class="node">
<title>Node16</title>
<g id="a_node4"><a xlink:href="fieldio_8cpp.html" target="_top" xlink:title=" ">
<polygon fill="#ffffff" stroke="#000000" points="268.0469,-135.5 268.0469,-153.5 404.1055,-153.5 404.1055,-135.5 268.0469,-135.5"/>
<text text-anchor="middle" x="336.0762" y="-141.5" font-family="Helvetica,sans-Serif" font-size="10.00" fill="#000000">GluonicLQCD/io/fieldio.cpp</text>
</a>
</g>
</g>
<!-- Node13&#45;&gt;Node16 -->
<g id="edge3" class="edge">
<title>Node13&#45;&gt;Node16</title>
<path fill="none" stroke="#191970" d="M913.7737,-205.0087C801.0045,-198.1963 590.9009,-183.3964 413.0762,-159 402.2948,-157.5209 390.7322,-155.5502 379.9296,-153.5396"/>
<polygon fill="#191970" stroke="#191970" points="913.8554,-208.5198 924.0467,-205.6234 914.2736,-201.5323 913.8554,-208.5198"/>
</g>
<!-- Node17 -->
<g id="node5" class="node">
<title>Node17</title>
<g id="a_node5"><a xlink:href="observablesio_8cpp.html" target="_top" xlink:title=" ">
<polygon fill="#ffffff" stroke="#000000" points="422.2588,-135.5 422.2588,-153.5 593.8936,-153.5 593.8936,-135.5 422.2588,-135.5"/>
<text text-anchor="middle" x="508.0762" y="-141.5" font-family="Helvetica,sans-Serif" font-size="10.00" fill="#000000">GluonicLQCD/io/observablesio.cpp</text>
</a>
</g>
</g>
<!-- Node13&#45;&gt;Node17 -->
<g id="edge4" class="edge">
<title>Node13&#45;&gt;Node17</title>
<path fill="none" stroke="#191970" d="M913.7842,-199.589C834.4523,-189.7845 710.3739,-174.0978 603.0762,-159 591.0156,-157.303 578.1085,-155.3947 565.8183,-153.5337"/>
<polygon fill="#191970" stroke="#191970" points="913.8401,-203.1224 924.1935,-200.8735 914.6974,-196.1751 913.8401,-203.1224"/>
</g>
<!-- Node18 -->
<g id="node6" class="node">
<title>Node18</title>
<g id="a_node6"><a xlink:href="test_8h.html" target="_top" xlink:title=" ">
<polygon fill="#ffffff" stroke="#000000" points="611.665,-135.5 611.665,-153.5 740.4873,-153.5 740.4873,-135.5 611.665,-135.5"/>
<text text-anchor="middle" x="676.0762" y="-141.5" font-family="Helvetica,sans-Serif" font-size="10.00" fill="#000000">GluonicLQCD/tests/test.h</text>
</a>
</g>
</g>
<!-- Node13&#45;&gt;Node18 -->
<g id="edge5" class="edge">
<title>Node13&#45;&gt;Node18</title>
<path fill="none" stroke="#191970" d="M916.1475,-193.4174C854.3794,-180.8314 770.7486,-163.7906 720.2531,-153.5016"/>
<polygon fill="#191970" stroke="#191970" points="915.7532,-196.9089 926.2507,-195.476 917.1508,-190.0498 915.7532,-196.9089"/>
</g>
<!-- Node20 -->
<g id="node8" class="node">
<title>Node20</title>
<g id="a_node8"><a xlink:href="latticeactionchargedensity_8cpp.html" target="_top" xlink:title=" ">
<polygon fill="#ffffff" stroke="#000000" points="758.0708,-130.5 758.0708,-158.5 910.0815,-158.5 910.0815,-130.5 758.0708,-130.5"/>
<text text-anchor="start" x="766.0708" y="-146.5" font-family="Helvetica,sans-Serif" font-size="10.00" fill="#000000">GluonicLQCD/observables</text>
<text text-anchor="middle" x="834.0762" y="-136.5" font-family="Helvetica,sans-Serif" font-size="10.00" fill="#000000">/latticeactionchargedensity.cpp</text>
</a>
</g>
</g>
<!-- Node13&#45;&gt;Node20 -->
<g id="edge7" class="edge">
<title>Node13&#45;&gt;Node20</title>
<path fill="none" stroke="#191970" d="M950.601,-191.5442C924.8381,-181.143 892.8733,-168.238 868.9426,-158.5765"/>
<polygon fill="#191970" stroke="#191970" points="949.5585,-194.8977 960.1416,-195.396 952.1791,-188.4067 949.5585,-194.8977"/>
</g>
<!-- Node21 -->
<g id="node9" class="node">
<title>Node21</title>
<g id="a_node9"><a xlink:href="mastersampler_8cpp.html" target="_top" xlink:title=" ">
<polygon fill="#ffffff" stroke="#000000" points="927.8818,-130.5 927.8818,-158.5 1062.2705,-158.5 1062.2705,-130.5 927.8818,-130.5"/>
<text text-anchor="start" x="935.8818" y="-146.5" font-family="Helvetica,sans-Serif" font-size="10.00" fill="#000000">GluonicLQCD/observables</text>
<text text-anchor="middle" x="995.0762" y="-136.5" font-family="Helvetica,sans-Serif" font-size="10.00" fill="#000000">/mastersampler.cpp</text>
</a>
</g>
</g>
<!-- Node13&#45;&gt;Node21 -->
<g id="edge8" class="edge">
<title>Node13&#45;&gt;Node21</title>
<path fill="none" stroke="#191970" d="M995.0762,-185.1081C995.0762,-176.1539 995.0762,-166.3227 995.0762,-158.5765"/>
<polygon fill="#191970" stroke="#191970" points="991.5763,-185.3959 995.0762,-195.396 998.5763,-185.396 991.5763,-185.3959"/>
</g>
<!-- Node22 -->
<g id="node10" class="node">
<title>Node22</title>
<g id="a_node10"><a xlink:href="mastersamplertopcxyz_8cpp.html" target="_top" xlink:title=" ">
<polygon fill="#ffffff" stroke="#000000" points="1080.2217,-130.5 1080.2217,-158.5 1217.9307,-158.5 1217.9307,-130.5 1080.2217,-130.5"/>
<text text-anchor="start" x="1088.2217" y="-146.5" font-family="Helvetica,sans-Serif" font-size="10.00" fill="#000000">GluonicLQCD/observables</text>
<text text-anchor="middle" x="1149.0762" y="-136.5" font-family="Helvetica,sans-Serif" font-size="10.00" fill="#000000">/mastersamplertopcxyz.cpp</text>
</a>
</g>
</g>
<!-- Node13&#45;&gt;Node22 -->
<g id="edge9" class="edge">
<title>Node13&#45;&gt;Node22</title>
<path fill="none" stroke="#191970" d="M1037.9436,-191.4066C1062.5296,-181.0294 1092.9363,-168.1954 1115.7257,-158.5765"/>
<polygon fill="#191970" stroke="#191970" points="1036.3438,-188.2828 1028.4919,-195.396 1039.0659,-194.7319 1036.3438,-188.2828"/>
</g>
<!-- Node23 -->
<g id="node11" class="node">
<title>Node23</title>
<g id="a_node11"><a xlink:href="supersampler_8cpp.html" target="_top" xlink:title=" ">
<polygon fill="#ffffff" stroke="#000000" points="1235.8818,-130.5 1235.8818,-158.5 1370.2705,-158.5 1370.2705,-130.5 1235.8818,-130.5"/>
<text text-anchor="start" x="1243.8818" y="-146.5" font-family="Helvetica,sans-Serif" font-size="10.00" fill="#000000">GluonicLQCD/observables</text>
<text text-anchor="middle" x="1303.0762" y="-136.5" font-family="Helvetica,sans-Serif" font-size="10.00" fill="#000000">/supersampler.cpp</text>
</a>
</g>
</g>
<!-- Node13&#45;&gt;Node23 -->
<g id="edge10" class="edge">
<title>Node13&#45;&gt;Node23</title>
<path fill="none" stroke="#191970" d="M1071.4487,-193.3824C1122.1104,-182.6908 1187.9493,-168.7963 1236.4778,-158.5549"/>
<polygon fill="#191970" stroke="#191970" points="1070.5901,-189.9864 1061.5284,-195.476 1072.0356,-196.8356 1070.5901,-189.9864"/>
</g>
<!-- Node24 -->
<g id="node12" class="node">
<title>Node24</title>
<g id="a_node12"><a xlink:href="communicator_8cpp.html" target="_top" xlink:title=" ">
<polygon fill="#ffffff" stroke="#000000" points="1388.2686,-130.5 1388.2686,-158.5 1529.8838,-158.5 1529.8838,-130.5 1388.2686,-130.5"/>
<text text-anchor="start" x="1396.2686" y="-146.5" font-family="Helvetica,sans-Serif" font-size="10.00" fill="#000000">GluonicLQCD/parallelization</text>
<text text-anchor="middle" x="1459.0762" y="-136.5" font-family="Helvetica,sans-Serif" font-size="10.00" fill="#000000">/communicator.cpp</text>
</a>
</g>
</g>
<!-- Node13&#45;&gt;Node24 -->
<g id="edge11" class="edge">
<title>Node13&#45;&gt;Node24</title>
<path fill="none" stroke="#191970" d="M1076.2169,-199.9893C1154.0497,-190.5923 1274.8055,-175.296 1379.0762,-159 1382.0048,-158.5423 1384.9913,-158.0621 1388.0064,-157.5662"/>
<polygon fill="#191970" stroke="#191970" points="1075.5085,-196.5492 1065.9983,-201.2189 1076.3448,-203.4991 1075.5085,-196.5492"/>
</g>
<!-- Node25 -->
<g id="node13" class="node">
<title>Node25</title>
<g id="a_node13"><a xlink:href="parallel_8h.html" target="_top" xlink:title=" ">
<polygon fill="#ffffff" stroke="#000000" points="1548.2686,-130.5 1548.2686,-158.5 1689.8838,-158.5 1689.8838,-130.5 1548.2686,-130.5"/>
<text text-anchor="start" x="1556.2686" y="-146.5" font-family="Helvetica,sans-Serif" font-size="10.00" fill="#000000">GluonicLQCD/parallelization</text>
<text text-anchor="middle" x="1619.0762" y="-136.5" font-family="Helvetica,sans-Serif" font-size="10.00" fill="#000000">/parallel.h</text>
</a>
</g>
</g>
<!-- Node13&#45;&gt;Node25 -->
<g id="edge12" class="edge">
<title>Node13&#45;&gt;Node25</title>
<path fill="none" stroke="#191970" d="M1076.1888,-204.1767C1182.7144,-196.681 1375.4339,-181.3827 1539.0762,-159 1542.013,-158.5983 1545.0064,-158.1649 1548.0272,-157.7078"/>
<polygon fill="#191970" stroke="#191970" points="1075.8846,-200.6893 1066.1528,-204.8777 1076.3724,-207.6723 1075.8846,-200.6893"/>
</g>
<!-- Node35 -->
<g id="node23" class="node">
<title>Node35</title>
<g id="a_node23"><a xlink:href="performancetests_8cpp.html" target="_top" xlink:title=" ">
<polygon fill="#ffffff" stroke="#000000" points="1707.8154,-135.5 1707.8154,-153.5 1908.3369,-153.5 1908.3369,-135.5 1707.8154,-135.5"/>
<text text-anchor="middle" x="1808.0762" y="-141.5" font-family="Helvetica,sans-Serif" font-size="10.00" fill="#000000">GluonicLQCD/tests/performancetests.cpp</text>
</a>
</g>
</g>
<!-- Node13&#45;&gt;Node35 -->
<g id="edge23" class="edge">
<title>Node13&#45;&gt;Node35</title>
<path fill="none" stroke="#191970" d="M1076.2509,-205.2806C1207.417,-198.1024 1474.0177,-182.0201 1699.0762,-159 1714.0792,-157.4654 1730.2027,-155.4971 1745.3263,-153.5089"/>
<polygon fill="#191970" stroke="#191970" points="1075.6909,-201.8058 1065.8959,-205.8442 1076.0714,-208.7955 1075.6909,-201.8058"/>
</g>
<!-- Node36 -->
<g id="node24" class="node">
<title>Node36</title>
<g id="a_node24"><a xlink:href="testsuite_8cpp.html" target="_top" xlink:title=" ">
<polygon fill="#ffffff" stroke="#000000" points="1926.8228,-135.5 1926.8228,-153.5 2087.3296,-153.5 2087.3296,-135.5 1926.8228,-135.5"/>
<text text-anchor="middle" x="2007.0762" y="-141.5" font-family="Helvetica,sans-Serif" font-size="10.00" fill="#000000">GluonicLQCD/tests/testsuite.cpp</text>
</a>
</g>
</g>
<!-- Node13&#45;&gt;Node36 -->
<g id="edge24" class="edge">
<title>Node13&#45;&gt;Node36</title>
<path fill="none" stroke="#191970" d="M1076.4284,-207.912C1237.3834,-204.1369 1607.682,-192.3035 1917.0762,-159 1929.9794,-157.6111 1943.8504,-155.6242 1956.7455,-153.565"/>
<polygon fill="#191970" stroke="#191970" points="1076.0489,-204.4197 1066.1322,-208.1491 1076.2102,-211.4178 1076.0489,-204.4197"/>
</g>
<!-- Node19 -->
<g id="node7" class="node">
<title>Node19</title>
<g id="a_node7"><a xlink:href="main_8cpp.html" target="_top" xlink:title=" ">
<polygon fill="#ffffff" stroke="#000000" points="615.5542,-70.5 615.5542,-88.5 736.5981,-88.5 736.5981,-70.5 615.5542,-70.5"/>
<text text-anchor="middle" x="676.0762" y="-76.5" font-family="Helvetica,sans-Serif" font-size="10.00" fill="#000000">GluonicLQCD/main.cpp</text>
</a>
</g>
</g>
<!-- Node18&#45;&gt;Node19 -->
<g id="edge6" class="edge">
<title>Node18&#45;&gt;Node19</title>
<path fill="none" stroke="#191970" d="M676.0762,-125.1265C676.0762,-113.1522 676.0762,-98.3205 676.0762,-88.8821"/>
<polygon fill="#191970" stroke="#191970" points="672.5763,-125.462 676.0762,-135.462 679.5763,-125.4621 672.5763,-125.462"/>
</g>
<!-- Node26 -->
<g id="node14" class="node">
<title>Node26</title>
<g id="a_node14"><a xlink:href="configloader_8cpp.html" target="_top" xlink:title=" ">
<polygon fill="#ffffff" stroke="#000000" points="1263.5,-65.5 1263.5,-93.5 1370.6523,-93.5 1370.6523,-65.5 1263.5,-65.5"/>
<text text-anchor="start" x="1271.5" y="-81.5" font-family="Helvetica,sans-Serif" font-size="10.00" fill="#000000">GluonicLQCD/config</text>
<text text-anchor="middle" x="1317.0762" y="-71.5" font-family="Helvetica,sans-Serif" font-size="10.00" fill="#000000">/configloader.cpp</text>
</a>
</g>
</g>
<!-- Node25&#45;&gt;Node26 -->
<g id="edge13" class="edge">
<title>Node25&#45;&gt;Node26</title>
<path fill="none" stroke="#191970" d="M1540.6551,-128.46C1493.7219,-118.7457 1432.9193,-105.9593 1379.0762,-94 1376.3783,-93.4008 1373.6161,-92.7803 1370.8279,-92.1484"/>
<polygon fill="#191970" stroke="#191970" points="1539.9507,-131.8883 1550.4522,-130.4849 1541.3676,-125.0332 1539.9507,-131.8883"/>
</g>
<!-- Node27 -->
<g id="node15" class="node">
<title>Node27</title>
<g id="a_node15"><a xlink:href="sysprint_8h.html" target="_top" xlink:title=" ">
<polygon fill="#ffffff" stroke="#000000" points="1388.5,-65.5 1388.5,-93.5 1495.6523,-93.5 1495.6523,-65.5 1388.5,-65.5"/>
<text text-anchor="start" x="1396.5" y="-81.5" font-family="Helvetica,sans-Serif" font-size="10.00" fill="#000000">GluonicLQCD/config</text>
<text text-anchor="middle" x="1442.0762" y="-71.5" font-family="Helvetica,sans-Serif" font-size="10.00" fill="#000000">/sysprint.h</text>
</a>
</g>
</g>
<!-- Node25&#45;&gt;Node27 -->
<g id="edge14" class="edge">
<title>Node25&#45;&gt;Node27</title>
<path fill="none" stroke="#191970" d="M1570.9282,-126.8185C1542.4779,-116.3707 1506.9483,-103.3231 1480.4076,-93.5765"/>
<polygon fill="#191970" stroke="#191970" points="1570.0762,-130.2342 1580.6698,-130.396 1572.4893,-123.6632 1570.0762,-130.2342"/>
</g>
<!-- Node30 -->
<g id="node18" class="node">
<title>Node30</title>
<g id="a_node18"><a xlink:href="system_8cpp.html" target="_top" xlink:title=" ">
<polygon fill="#ffffff" stroke="#000000" points="1485.5566,-5.5 1485.5566,-23.5 1616.5957,-23.5 1616.5957,-5.5 1485.5566,-5.5"/>
<text text-anchor="middle" x="1551.0762" y="-11.5" font-family="Helvetica,sans-Serif" font-size="10.00" fill="#000000">GluonicLQCD/system.cpp</text>
</a>
</g>
</g>
<!-- Node25&#45;&gt;Node30 -->
<g id="edge22" class="edge">
<title>Node25&#45;&gt;Node30</title>
<path fill="none" stroke="#191970" d="M1575.1696,-125.4551C1562.5031,-117.651 1550.1922,-107.2722 1543.0762,-94 1530.8842,-71.2607 1540.6319,-39.597 1546.8741,-23.981"/>
<polygon fill="#191970" stroke="#191970" points="1573.5147,-128.5405 1583.936,-130.4506 1576.9804,-122.4586 1573.5147,-128.5405"/>
</g>
<!-- Node31 -->
<g id="node19" class="node">
<title>Node31</title>
<g id="a_node19"><a xlink:href="correlator_8cpp.html" target="_top" xlink:title=" ">
<polygon fill="#ffffff" stroke="#000000" points="1551.8818,-65.5 1551.8818,-93.5 1686.2705,-93.5 1686.2705,-65.5 1551.8818,-65.5"/>
<text text-anchor="start" x="1559.8818" y="-81.5" font-family="Helvetica,sans-Serif" font-size="10.00" fill="#000000">GluonicLQCD/observables</text>
<text text-anchor="middle" x="1619.0762" y="-71.5" font-family="Helvetica,sans-Serif" font-size="10.00" fill="#000000">/correlator.cpp</text>
</a>
</g>
</g>
<!-- Node25&#45;&gt;Node31 -->
<g id="edge18" class="edge">
<title>Node25&#45;&gt;Node31</title>
<path fill="none" stroke="#191970" d="M1619.0762,-120.1081C1619.0762,-111.1539 1619.0762,-101.3227 1619.0762,-93.5765"/>
<polygon fill="#191970" stroke="#191970" points="1615.5763,-120.3959 1619.0762,-130.396 1622.5763,-120.396 1615.5763,-120.3959"/>
</g>
<!-- Node32 -->
<g id="node20" class="node">
<title>Node32</title>
<g id="a_node20"><a xlink:href="plaquette_8cpp.html" target="_top" xlink:title=" ">
<polygon fill="#ffffff" stroke="#000000" points="1703.8818,-65.5 1703.8818,-93.5 1838.2705,-93.5 1838.2705,-65.5 1703.8818,-65.5"/>
<text text-anchor="start" x="1711.8818" y="-81.5" font-family="Helvetica,sans-Serif" font-size="10.00" fill="#000000">GluonicLQCD/observables</text>
<text text-anchor="middle" x="1771.0762" y="-71.5" font-family="Helvetica,sans-Serif" font-size="10.00" fill="#000000">/plaquette.cpp</text>
</a>
</g>
</g>
<!-- Node25&#45;&gt;Node32 -->
<g id="edge19" class="edge">
<title>Node25&#45;&gt;Node32</title>
<path fill="none" stroke="#191970" d="M1661.3869,-126.4066C1685.6536,-116.0294 1715.6654,-103.1954 1738.1588,-93.5765"/>
<polygon fill="#191970" stroke="#191970" points="1659.8763,-123.2459 1652.0579,-130.396 1662.6287,-129.6821 1659.8763,-123.2459"/>
</g>
<!-- Node33 -->
<g id="node21" class="node">
<title>Node33</title>
<g id="a_node21"><a xlink:href="observablestorer_8cpp.html" target="_top" xlink:title=" ">
<polygon fill="#ffffff" stroke="#000000" points="1856.3179,-65.5 1856.3179,-93.5 1991.8345,-93.5 1991.8345,-65.5 1856.3179,-65.5"/>
<text text-anchor="start" x="1864.3179" y="-81.5" font-family="Helvetica,sans-Serif" font-size="10.00" fill="#000000">GluonicLQCD/observables</text>
<text text-anchor="middle" x="1924.0762" y="-71.5" font-family="Helvetica,sans-Serif" font-size="10.00" fill="#000000">/tools/observablestorer.cpp</text>
</a>
</g>
</g>
<!-- Node25&#45;&gt;Node33 -->
<g id="edge20" class="edge">
<title>Node25&#45;&gt;Node33</title>
<path fill="none" stroke="#191970" d="M1694.7048,-128.3824C1744.873,-117.6908 1810.0707,-103.7963 1858.1265,-93.5549"/>
<polygon fill="#191970" stroke="#191970" points="1693.9319,-124.9684 1684.8811,-130.476 1695.391,-131.8147 1693.9319,-124.9684"/>
</g>
<!-- Node34 -->
<g id="node22" class="node">
<title>Node34</title>
<g id="a_node22"><a xlink:href="topologicalcharge_8cpp.html" target="_top" xlink:title=" ">
<polygon fill="#ffffff" stroke="#000000" points="2009.8818,-65.5 2009.8818,-93.5 2144.2705,-93.5 2144.2705,-65.5 2009.8818,-65.5"/>
<text text-anchor="start" x="2017.8818" y="-81.5" font-family="Helvetica,sans-Serif" font-size="10.00" fill="#000000">GluonicLQCD/observables</text>
<text text-anchor="middle" x="2077.0762" y="-71.5" font-family="Helvetica,sans-Serif" font-size="10.00" fill="#000000">/topologicalcharge.cpp</text>
</a>
</g>
</g>
<!-- Node25&#45;&gt;Node34 -->
<g id="edge21" class="edge">
<title>Node25&#45;&gt;Node34</title>
<path fill="none" stroke="#191970" d="M1700.3944,-129.8638C1834.5068,-110.1535 1870.756,-114.174 2001.0762,-94 2003.8638,-93.5685 2006.7055,-93.1102 2009.5736,-92.6324"/>
<polygon fill="#191970" stroke="#191970" points="1699.5154,-126.456 1690.139,-131.3889 1700.5451,-133.3798 1699.5154,-126.456"/>
</g>
<!-- Node28 -->
<g id="node16" class="node">
<title>Node28</title>
<g id="a_node16"><a xlink:href="parameters_8cpp.html" target="_top" xlink:title=" ">
<polygon fill="#ffffff" stroke="#000000" points="1235.5,-.5 1235.5,-28.5 1342.6523,-28.5 1342.6523,-.5 1235.5,-.5"/>
<text text-anchor="start" x="1243.5" y="-16.5" font-family="Helvetica,sans-Serif" font-size="10.00" fill="#000000">GluonicLQCD/config</text>
<text text-anchor="middle" x="1289.0762" y="-6.5" font-family="Helvetica,sans-Serif" font-size="10.00" fill="#000000">/parameters.cpp</text>
</a>
</g>
</g>
<!-- Node27&#45;&gt;Node28 -->
<g id="edge15" class="edge">
<title>Node27&#45;&gt;Node28</title>
<path fill="none" stroke="#191970" d="M1399.4871,-61.4066C1375.0607,-51.0294 1344.8515,-38.1954 1322.2101,-28.5765"/>
<polygon fill="#191970" stroke="#191970" points="1398.305,-64.7071 1408.8775,-65.396 1401.0422,-58.2644 1398.305,-64.7071"/>
</g>
<!-- Node29 -->
<g id="node17" class="node">
<title>Node29</title>
<g id="a_node17"><a xlink:href="sysprint_8cpp.html" target="_top" xlink:title=" ">
<polygon fill="#ffffff" stroke="#000000" points="1360.5,-.5 1360.5,-28.5 1467.6523,-28.5 1467.6523,-.5 1360.5,-.5"/>
<text text-anchor="start" x="1368.5" y="-16.5" font-family="Helvetica,sans-Serif" font-size="10.00" fill="#000000">GluonicLQCD/config</text>
<text text-anchor="middle" x="1414.0762" y="-6.5" font-family="Helvetica,sans-Serif" font-size="10.00" fill="#000000">/sysprint.cpp</text>
</a>
</g>
</g>
<!-- Node27&#45;&gt;Node29 -->
<g id="edge16" class="edge">
<title>Node27&#45;&gt;Node29</title>
<path fill="none" stroke="#191970" d="M1431.9491,-55.9907C1427.9919,-46.8044 1423.5867,-36.5781 1420.1399,-28.5765"/>
<polygon fill="#191970" stroke="#191970" points="1428.8298,-57.5965 1436.0006,-65.396 1435.2587,-54.8271 1428.8298,-57.5965"/>
</g>
<!-- Node27&#45;&gt;Node30 -->
<g id="edge17" class="edge">
<title>Node27&#45;&gt;Node30</title>
<path fill="none" stroke="#191970" d="M1474.3802,-60.2361C1494.7113,-48.1121 1520.0126,-33.0241 1535.8593,-23.5743"/>
<polygon fill="#191970" stroke="#191970" points="1472.5237,-57.2681 1465.7275,-65.396 1476.109,-63.2802 1472.5237,-57.2681"/>
</g>
</g>
</svg>
