<?xml version="1.0" encoding="UTF-8" standalone="no"?>
<!DOCTYPE svg PUBLIC "-//W3C//DTD SVG 1.1//EN"
 "http://www.w3.org/Graphics/SVG/1.1/DTD/svg11.dtd">
<!-- Generated by graphviz version 2.40.1 (20161225.0304)
 -->
<!-- Title: GluonicLQCD/math/complex.cpp Pages: 1 -->
<svg width="170pt" height="137pt"
 viewBox="0.00 0.00 169.62 137.00" xmlns="http://www.w3.org/2000/svg" xmlns:xlink="http://www.w3.org/1999/xlink">
<g id="graph0" class="graph" transform="scale(1 1) rotate(0) translate(4 133)">
<title>GluonicLQCD/math/complex.cpp</title>
<polygon fill="#ffffff" stroke="transparent" points="-4,4 -4,-133 165.6152,-133 165.6152,4 -4,4"/>
<!-- Node0 -->
<g id="node1" class="node">
<title>Node0</title>
<g id="a_node1"><a xlink:title=" ">
<polygon fill="#bfbfbf" stroke="#000000" points="0,-110.5 0,-128.5 161.6152,-128.5 161.6152,-110.5 0,-110.5"/>
<text text-anchor="middle" x="80.8076" y="-116.5" font-family="Helvetica,sans-Serif" font-size="10.00" fill="#000000">GluonicLQCD/math/complex.cpp</text>
</a>
</g>
</g>
<!-- Node1 -->
<g id="node2" class="node">
<title>Node1</title>
<g id="a_node2"><a xlink:href="complex_8h.html" target="_top" xlink:title=" ">
<polygon fill="#ffffff" stroke="#000000" points="15.0195,-55.5 15.0195,-73.5 76.5957,-73.5 76.5957,-55.5 15.0195,-55.5"/>
<text text-anchor="middle" x="45.8076" y="-61.5" font-family="Helvetica,sans-Serif" font-size="10.00" fill="#000000">complex.h</text>
</a>
</g>
</g>
<!-- Node0&#45;&gt;Node1 -->
<g id="edge1" class="edge">
<title>Node0&#45;&gt;Node1</title>
<path fill="none" stroke="#191970" d="M75.0281,-110.4179C70.1935,-102.8207 63.1502,-91.7527 57.19,-82.3866"/>
<polygon fill="#191970" stroke="#191970" points="60.0343,-80.337 51.7127,-73.7795 54.1287,-84.0952 60.0343,-80.337"/>
</g>
<!-- Node3 -->
<g id="node4" class="node">
<title>Node3</title>
<g id="a_node4"><a xlink:title=" ">
<polygon fill="#ffffff" stroke="#bfbfbf" points="94.1919,-55.5 94.1919,-73.5 137.4233,-73.5 137.4233,-55.5 94.1919,-55.5"/>
<text text-anchor="middle" x="115.8076" y="-61.5" font-family="Helvetica,sans-Serif" font-size="10.00" fill="#000000">cmath</text>
</a>
</g>
</g>
<!-- Node0&#45;&gt;Node3 -->
<g id="edge3" class="edge">
<title>Node0&#45;&gt;Node3</title>
<path fill="none" stroke="#191970" d="M86.5872,-110.4179C91.4217,-102.8207 98.465,-91.7527 104.4252,-82.3866"/>
<polygon fill="#191970" stroke="#191970" points="107.4865,-84.0952 109.9025,-73.7795 101.5809,-80.337 107.4865,-84.0952"/>
</g>
<!-- Node2 -->
<g id="node3" class="node">
<title>Node2</title>
<g id="a_node3"><a xlink:title=" ">
<polygon fill="#ffffff" stroke="#bfbfbf" points="18.6353,-.5 18.6353,-18.5 72.98,-18.5 72.98,-.5 18.6353,-.5"/>
<text text-anchor="middle" x="45.8076" y="-6.5" font-family="Helvetica,sans-Serif" font-size="10.00" fill="#000000">iostream</text>
</a>
</g>
</g>
<!-- Node1&#45;&gt;Node2 -->
<g id="edge2" class="edge">
<title>Node1&#45;&gt;Node2</title>
<path fill="none" stroke="#191970" d="M45.8076,-55.4179C45.8076,-48.2164 45.8076,-37.8962 45.8076,-28.8632"/>
<polygon fill="#191970" stroke="#191970" points="49.3077,-28.7794 45.8076,-18.7795 42.3077,-28.7795 49.3077,-28.7794"/>
</g>
</g>
</svg>
