<?xml version="1.0" encoding="UTF-8" standalone="no"?>
<!DOCTYPE svg PUBLIC "-//W3C//DTD SVG 1.1//EN"
 "http://www.w3.org/Graphics/SVG/1.1/DTD/svg11.dtd">
<!-- Generated by graphviz version 2.40.1 (20161225.0304)
 -->
<!-- Title: GLAC/config/configloader.h Pages: 1 -->
<svg width="260pt" height="82pt"
 viewBox="0.00 0.00 260.45 82.00" xmlns="http://www.w3.org/2000/svg" xmlns:xlink="http://www.w3.org/1999/xlink">
<g id="graph0" class="graph" transform="scale(1 1) rotate(0) translate(4 78)">
<title>GLAC/config/configloader.h</title>
<polygon fill="#ffffff" stroke="transparent" points="-4,4 -4,-78 256.4478,-78 256.4478,4 -4,4"/>
<!-- Node2 -->
<g id="node1" class="node">
<title>Node2</title>
<g id="a_node1"><a xlink:title=" ">
<polygon fill="#bfbfbf" stroke="#000000" points="72.2808,-55.5 72.2808,-73.5 210.0288,-73.5 210.0288,-55.5 72.2808,-55.5"/>
<text text-anchor="middle" x="141.1548" y="-61.5" font-family="Helvetica,sans-Serif" font-size="10.00" fill="#000000">GLAC/config/configloader.h</text>
</a>
</g>
</g>
<!-- Node3 -->
<g id="node2" class="node">
<title>Node3</title>
<g id="a_node2"><a xlink:href="configloader_8cpp.html" target="_top" xlink:title=" ">
<polygon fill="#ffffff" stroke="#000000" points="0,-.5 0,-18.5 148.3096,-18.5 148.3096,-.5 0,-.5"/>
<text text-anchor="middle" x="74.1548" y="-6.5" font-family="Helvetica,sans-Serif" font-size="10.00" fill="#000000">GLAC/config/configloader.cpp</text>
</a>
</g>
</g>
<!-- Node2&#45;&gt;Node3 -->
<g id="edge1" class="edge">
<title>Node2&#45;&gt;Node3</title>
<path fill="none" stroke="#191970" d="M122.1119,-48.8678C110.2781,-39.1535 95.4662,-26.9944 85.4589,-18.7795"/>
<polygon fill="#191970" stroke="#191970" points="120.1411,-51.7782 130.0911,-55.4179 124.5825,-46.3676 120.1411,-51.7782"/>
</g>
<!-- Node4 -->
<g id="node3" class="node">
<title>Node4</title>
<g id="a_node3"><a xlink:href="main_8cpp.html" target="_top" xlink:title=" ">
<polygon fill="#ffffff" stroke="#000000" points="165.8618,-.5 165.8618,-18.5 252.4478,-18.5 252.4478,-.5 165.8618,-.5"/>
<text text-anchor="middle" x="209.1548" y="-6.5" font-family="Helvetica,sans-Serif" font-size="10.00" fill="#000000">GLAC/main.cpp</text>
</a>
</g>
</g>
<!-- Node2&#45;&gt;Node4 -->
<g id="edge2" class="edge">
<title>Node2&#45;&gt;Node4</title>
<path fill="none" stroke="#191970" d="M160.4819,-48.8678C172.4923,-39.1535 187.5253,-26.9944 197.682,-18.7795"/>
<polygon fill="#191970" stroke="#191970" points="157.9577,-46.4078 152.3836,-55.4179 162.3598,-51.8504 157.9577,-46.4078"/>
</g>
</g>
</svg>
