<?xml version="1.0" encoding="UTF-8" standalone="no"?>
<!DOCTYPE svg PUBLIC "-//W3C//DTD SVG 1.1//EN"
 "http://www.w3.org/Graphics/SVG/1.1/DTD/svg11.dtd">
<!-- Generated by graphviz version 2.40.1 (20161225.0304)
 -->
<!-- Title: GLAC/observables/correlator.cpp Pages: 1 -->
<svg width="962pt" height="412pt"
 viewBox="0.00 0.00 961.73 412.00" xmlns="http://www.w3.org/2000/svg" xmlns:xlink="http://www.w3.org/1999/xlink">
<g id="graph0" class="graph" transform="scale(1 1) rotate(0) translate(4 408)">
<title>GLAC/observables/correlator.cpp</title>
<polygon fill="#ffffff" stroke="transparent" points="-4,4 -4,-408 957.731,-408 957.731,4 -4,4"/>
<!-- Node0 -->
<g id="node1" class="node">
<title>Node0</title>
<g id="a_node1"><a xlink:title=" ">
<polygon fill="#bfbfbf" stroke="#000000" points="167.5396,-385.5 167.5396,-403.5 330.8394,-403.5 330.8394,-385.5 167.5396,-385.5"/>
<text text-anchor="middle" x="249.1895" y="-391.5" font-family="Helvetica,sans-Serif" font-size="10.00" fill="#000000">GLAC/observables/correlator.cpp</text>
</a>
</g>
</g>
<!-- Node1 -->
<g id="node2" class="node">
<title>Node1</title>
<g id="a_node2"><a xlink:href="correlator_8h.html" target="_top" xlink:title=" ">
<polygon fill="#ffffff" stroke="#000000" points="216.1748,-275.5 216.1748,-293.5 282.2041,-293.5 282.2041,-275.5 216.1748,-275.5"/>
<text text-anchor="middle" x="249.1895" y="-281.5" font-family="Helvetica,sans-Serif" font-size="10.00" fill="#000000">correlator.h</text>
</a>
</g>
</g>
<!-- Node0&#45;&gt;Node1 -->
<g id="edge1" class="edge">
<title>Node0&#45;&gt;Node1</title>
<path fill="none" stroke="#191970" d="M249.1895,-385.4982C249.1895,-367.6913 249.1895,-327.6225 249.1895,-303.6515"/>
<polygon fill="#191970" stroke="#191970" points="252.6896,-303.6261 249.1895,-293.6261 245.6896,-303.6262 252.6896,-303.6261"/>
</g>
<!-- Node16 -->
<g id="node17" class="node">
<title>Node16</title>
<g id="a_node17"><a xlink:href="parallel_8h.html" target="_top" xlink:title=" ">
<polygon fill="#ffffff" stroke="#000000" points="298.936,-330.5 298.936,-348.5 419.4429,-348.5 419.4429,-330.5 298.936,-330.5"/>
<text text-anchor="middle" x="359.1895" y="-336.5" font-family="Helvetica,sans-Serif" font-size="10.00" fill="#000000">parallelization/parallel.h</text>
</a>
</g>
</g>
<!-- Node0&#45;&gt;Node16 -->
<g id="edge23" class="edge">
<title>Node0&#45;&gt;Node16</title>
<path fill="none" stroke="#191970" d="M267.3537,-385.4179C284.9485,-376.6205 311.8512,-363.1691 331.9982,-353.0956"/>
<polygon fill="#191970" stroke="#191970" points="333.6192,-356.1983 340.9982,-348.5956 330.4887,-349.9373 333.6192,-356.1983"/>
</g>
<!-- Node18 -->
<g id="node19" class="node">
<title>Node18</title>
<g id="a_node19"><a xlink:href="parameters_8h.html" target="_top" xlink:title=" ">
<polygon fill="#ffffff" stroke="#000000" points="0,-220.5 0,-238.5 104.3789,-238.5 104.3789,-220.5 0,-220.5"/>
<text text-anchor="middle" x="52.1895" y="-226.5" font-family="Helvetica,sans-Serif" font-size="10.00" fill="#000000">config/parameters.h</text>
</a>
</g>
</g>
<!-- Node0&#45;&gt;Node18 -->
<g id="edge29" class="edge">
<title>Node0&#45;&gt;Node18</title>
<path fill="none" stroke="#191970" d="M238.3173,-385.3939C206.2372,-358.5247 111.6885,-279.3342 71.0765,-245.3191"/>
<polygon fill="#191970" stroke="#191970" points="73.1845,-242.5192 63.2709,-238.7814 68.6898,-247.8856 73.1845,-242.5192"/>
</g>
<!-- Node2 -->
<g id="node3" class="node">
<title>Node2</title>
<g id="a_node3"><a xlink:href="lattice_8h.html" target="_top" xlink:title=" ">
<polygon fill="#ffffff" stroke="#000000" points="488.4531,-220.5 488.4531,-238.5 563.9258,-238.5 563.9258,-220.5 488.4531,-220.5"/>
<text text-anchor="middle" x="526.1895" y="-226.5" font-family="Helvetica,sans-Serif" font-size="10.00" fill="#000000">math/lattice.h</text>
</a>
</g>
</g>
<!-- Node1&#45;&gt;Node2 -->
<g id="edge2" class="edge">
<title>Node1&#45;&gt;Node2</title>
<path fill="none" stroke="#191970" d="M282.327,-277.9203C330.9949,-268.257 422.0811,-250.1713 478.1064,-239.0472"/>
<polygon fill="#191970" stroke="#191970" points="479.0146,-242.4353 488.1414,-237.0547 477.6512,-235.5693 479.0146,-242.4353"/>
</g>
<!-- Node3 -->
<g id="node4" class="node">
<title>Node3</title>
<g id="a_node4"><a xlink:title=" ">
<polygon fill="#ffffff" stroke="#bfbfbf" points="288.5737,-110.5 288.5737,-128.5 331.8052,-128.5 331.8052,-110.5 288.5737,-110.5"/>
<text text-anchor="middle" x="310.1895" y="-116.5" font-family="Helvetica,sans-Serif" font-size="10.00" fill="#000000">vector</text>
</a>
</g>
</g>
<!-- Node1&#45;&gt;Node3 -->
<g id="edge22" class="edge">
<title>Node1&#45;&gt;Node3</title>
<path fill="none" stroke="#191970" d="M252.6439,-275.1561C262.374,-248.837 290.1486,-173.709 303.2234,-138.3426"/>
<polygon fill="#191970" stroke="#191970" points="306.5881,-139.3346 306.7729,-128.7414 300.0224,-136.9073 306.5881,-139.3346"/>
</g>
<!-- Node14 -->
<g id="node15" class="node">
<title>Node14</title>
<g id="a_node15"><a xlink:href="observablestorer_8h.html" target="_top" xlink:title=" ">
<polygon fill="#ffffff" stroke="#000000" points="122.1011,-220.5 122.1011,-238.5 244.2778,-238.5 244.2778,-220.5 122.1011,-220.5"/>
<text text-anchor="middle" x="183.1895" y="-226.5" font-family="Helvetica,sans-Serif" font-size="10.00" fill="#000000">tools/observablestorer.h</text>
</a>
</g>
</g>
<!-- Node1&#45;&gt;Node14 -->
<g id="edge19" class="edge">
<title>Node1&#45;&gt;Node14</title>
<path fill="none" stroke="#191970" d="M238.2909,-275.4179C228.5095,-267.2667 213.9336,-255.1201 202.2298,-245.3669"/>
<polygon fill="#191970" stroke="#191970" points="204.2477,-242.4926 194.3248,-238.7795 199.7664,-247.8701 204.2477,-242.4926"/>
</g>
<!-- Node2&#45;&gt;Node3 -->
<g id="edge3" class="edge">
<title>Node2&#45;&gt;Node3</title>
<path fill="none" stroke="#191970" d="M518.9815,-220.1801C507.6995,-206.209 484.5232,-179.8906 459.1895,-165 422.0042,-143.1434 373.3272,-130.861 341.9057,-124.7061"/>
<polygon fill="#191970" stroke="#191970" points="342.4252,-121.2427 331.9528,-122.8487 341.141,-128.1239 342.4252,-121.2427"/>
</g>
<!-- Node4 -->
<g id="node5" class="node">
<title>Node4</title>
<g id="a_node5"><a xlink:title=" ">
<polygon fill="#ffffff" stroke="#bfbfbf" points="840.9629,-110.5 840.9629,-128.5 881.416,-128.5 881.416,-110.5 840.9629,-110.5"/>
<text text-anchor="middle" x="861.1895" y="-116.5" font-family="Helvetica,sans-Serif" font-size="10.00" fill="#000000">mpi.h</text>
</a>
</g>
</g>
<!-- Node2&#45;&gt;Node4 -->
<g id="edge4" class="edge">
<title>Node2&#45;&gt;Node4</title>
<path fill="none" stroke="#191970" d="M564.0018,-224.2862C606.5035,-217.7386 677.1521,-204.7746 735.1895,-184 737.778,-183.0734 798.3515,-151.9068 834.5542,-133.2428"/>
<polygon fill="#191970" stroke="#191970" points="836.3333,-136.2634 843.617,-128.5693 833.125,-130.0419 836.3333,-136.2634"/>
</g>
<!-- Node5 -->
<g id="node6" class="node">
<title>Node5</title>
<g id="a_node6"><a xlink:href="index_8h.html" target="_top" xlink:title=" ">
<polygon fill="#ffffff" stroke="#000000" points="338.1035,-165.5 338.1035,-183.5 450.2754,-183.5 450.2754,-165.5 338.1035,-165.5"/>
<text text-anchor="middle" x="394.1895" y="-171.5" font-family="Helvetica,sans-Serif" font-size="10.00" fill="#000000">parallelization/index.h</text>
</a>
</g>
</g>
<!-- Node2&#45;&gt;Node5 -->
<g id="edge5" class="edge">
<title>Node2&#45;&gt;Node5</title>
<path fill="none" stroke="#191970" d="M504.3923,-220.4179C482.8965,-211.4613 449.823,-197.6806 425.5142,-187.552"/>
<polygon fill="#191970" stroke="#191970" points="426.5959,-184.2111 416.019,-183.5956 423.9036,-190.6726 426.5959,-184.2111"/>
</g>
<!-- Node6 -->
<g id="node7" class="node">
<title>Node6</title>
<g id="a_node7"><a xlink:href="neighbours_8h.html" target="_top" xlink:title=" ">
<polygon fill="#ffffff" stroke="#000000" points="506.3154,-165.5 506.3154,-183.5 644.0635,-183.5 644.0635,-165.5 506.3154,-165.5"/>
<text text-anchor="middle" x="575.1895" y="-171.5" font-family="Helvetica,sans-Serif" font-size="10.00" fill="#000000">parallelization/neighbours.h</text>
</a>
</g>
</g>
<!-- Node2&#45;&gt;Node6 -->
<g id="edge7" class="edge">
<title>Node2&#45;&gt;Node6</title>
<path fill="none" stroke="#191970" d="M534.2808,-220.4179C541.2607,-212.5833 551.5291,-201.0575 560.0318,-191.5137"/>
<polygon fill="#191970" stroke="#191970" points="562.8835,-193.5743 566.9223,-183.7795 557.6569,-188.9178 562.8835,-193.5743"/>
</g>
<!-- Node8 -->
<g id="node9" class="node">
<title>Node8</title>
<g id="a_node9"><a xlink:href="parallelparameters_8h.html" target="_top" xlink:title=" ">
<polygon fill="#ffffff" stroke="#000000" points="782.6479,-165.5 782.6479,-183.5 953.731,-183.5 953.731,-165.5 782.6479,-165.5"/>
<text text-anchor="middle" x="868.1895" y="-171.5" font-family="Helvetica,sans-Serif" font-size="10.00" fill="#000000">parallelization/parallelparameters.h</text>
</a>
</g>
</g>
<!-- Node2&#45;&gt;Node8 -->
<g id="edge10" class="edge">
<title>Node2&#45;&gt;Node8</title>
<path fill="none" stroke="#191970" d="M564.0961,-223.4039C621.4497,-214.1804 731.0791,-196.5499 801.848,-185.169"/>
<polygon fill="#191970" stroke="#191970" points="802.6791,-188.5804 811.9964,-183.5369 801.5675,-181.6692 802.6791,-188.5804"/>
</g>
<!-- Node9 -->
<g id="node10" class="node">
<title>Node9</title>
<g id="a_node10"><a xlink:href="functions_8h.html" target="_top" xlink:title=" ">
<polygon fill="#ffffff" stroke="#000000" points="662.0073,-165.5 662.0073,-183.5 726.3716,-183.5 726.3716,-165.5 662.0073,-165.5"/>
<text text-anchor="middle" x="694.1895" y="-171.5" font-family="Helvetica,sans-Serif" font-size="10.00" fill="#000000">functions.h</text>
</a>
</g>
</g>
<!-- Node2&#45;&gt;Node9 -->
<g id="edge12" class="edge">
<title>Node2&#45;&gt;Node9</title>
<path fill="none" stroke="#191970" d="M553.9312,-220.4179C582.1032,-211.1949 625.8999,-196.8567 657.0516,-186.6582"/>
<polygon fill="#191970" stroke="#191970" points="658.271,-189.9419 666.6857,-183.5042 656.093,-183.2893 658.271,-189.9419"/>
</g>
<!-- Node5&#45;&gt;Node3 -->
<g id="edge6" class="edge">
<title>Node5&#45;&gt;Node3</title>
<path fill="none" stroke="#191970" d="M380.3186,-165.4179C367.4297,-156.9788 348.0001,-144.257 332.8581,-134.3426"/>
<polygon fill="#191970" stroke="#191970" points="334.3644,-131.1454 324.081,-128.5956 330.5299,-137.0017 334.3644,-131.1454"/>
</g>
<!-- Node6&#45;&gt;Node3 -->
<g id="edge9" class="edge">
<title>Node6&#45;&gt;Node3</title>
<path fill="none" stroke="#191970" d="M531.7268,-165.4795C478.351,-154.4014 389.0968,-135.877 341.8148,-126.0637"/>
<polygon fill="#191970" stroke="#191970" points="342.3434,-122.599 331.8408,-123.9937 340.9209,-129.4529 342.3434,-122.599"/>
</g>
<!-- Node7 -->
<g id="node8" class="node">
<title>Node7</title>
<g id="a_node8"><a xlink:href="neighbourlist_8h.html" target="_top" xlink:title=" ">
<polygon fill="#ffffff" stroke="#000000" points="491.6675,-110.5 491.6675,-128.5 572.7114,-128.5 572.7114,-110.5 491.6675,-110.5"/>
<text text-anchor="middle" x="532.1895" y="-116.5" font-family="Helvetica,sans-Serif" font-size="10.00" fill="#000000">neighbourlist.h</text>
</a>
</g>
</g>
<!-- Node6&#45;&gt;Node7 -->
<g id="edge8" class="edge">
<title>Node6&#45;&gt;Node7</title>
<path fill="none" stroke="#191970" d="M568.0889,-165.4179C562.0255,-157.6624 553.1344,-146.29 545.7176,-136.8035"/>
<polygon fill="#191970" stroke="#191970" points="548.3609,-134.5018 539.4443,-128.7795 542.8462,-138.8133 548.3609,-134.5018"/>
</g>
<!-- Node8&#45;&gt;Node4 -->
<g id="edge11" class="edge">
<title>Node8&#45;&gt;Node4</title>
<path fill="none" stroke="#191970" d="M867.0335,-165.4179C866.117,-158.2164 864.8035,-147.8962 863.6539,-138.8632"/>
<polygon fill="#191970" stroke="#191970" points="867.1051,-138.2575 862.3705,-128.7795 860.1611,-139.1414 867.1051,-138.2575"/>
</g>
<!-- Node10 -->
<g id="node11" class="node">
<title>Node10</title>
<g id="a_node11"><a xlink:href="su3_8h.html" target="_top" xlink:title=" ">
<polygon fill="#ffffff" stroke="#000000" points="590.6772,-110.5 590.6772,-128.5 671.7017,-128.5 671.7017,-110.5 590.6772,-110.5"/>
<text text-anchor="middle" x="631.1895" y="-116.5" font-family="Helvetica,sans-Serif" font-size="10.00" fill="#000000">matrices/su3.h</text>
</a>
</g>
</g>
<!-- Node9&#45;&gt;Node10 -->
<g id="edge13" class="edge">
<title>Node9&#45;&gt;Node10</title>
<path fill="none" stroke="#191970" d="M683.7863,-165.4179C674.4495,-157.2667 660.5362,-145.1201 649.3643,-135.3669"/>
<polygon fill="#191970" stroke="#191970" points="651.6537,-132.7194 641.8186,-128.7795 647.05,-137.9927 651.6537,-132.7194"/>
</g>
<!-- Node11 -->
<g id="node12" class="node">
<title>Node11</title>
<g id="a_node12"><a xlink:href="complex_8h.html" target="_top" xlink:title=" ">
<polygon fill="#ffffff" stroke="#000000" points="656.8965,-55.5 656.8965,-73.5 743.4824,-73.5 743.4824,-55.5 656.8965,-55.5"/>
<text text-anchor="middle" x="700.1895" y="-61.5" font-family="Helvetica,sans-Serif" font-size="10.00" fill="#000000">math/complex.h</text>
</a>
</g>
</g>
<!-- Node9&#45;&gt;Node11 -->
<g id="edge18" class="edge">
<title>Node9&#45;&gt;Node11</title>
<path fill="none" stroke="#191970" d="M694.6805,-165.4982C695.6517,-147.6913 697.8373,-107.6225 699.1448,-83.6515"/>
<polygon fill="#191970" stroke="#191970" points="702.6417,-83.802 699.6917,-73.6261 695.6521,-83.4206 702.6417,-83.802"/>
</g>
<!-- Node13 -->
<g id="node14" class="node">
<title>Node13</title>
<g id="a_node14"><a xlink:href="su2_8h.html" target="_top" xlink:title=" ">
<polygon fill="#ffffff" stroke="#000000" points="728.6772,-110.5 728.6772,-128.5 809.7017,-128.5 809.7017,-110.5 728.6772,-110.5"/>
<text text-anchor="middle" x="769.1895" y="-116.5" font-family="Helvetica,sans-Serif" font-size="10.00" fill="#000000">matrices/su2.h</text>
</a>
</g>
</g>
<!-- Node9&#45;&gt;Node13 -->
<g id="edge16" class="edge">
<title>Node9&#45;&gt;Node13</title>
<path fill="none" stroke="#191970" d="M706.5742,-165.4179C717.9735,-157.0584 735.1031,-144.4966 748.5659,-134.6239"/>
<polygon fill="#191970" stroke="#191970" points="750.792,-137.3317 756.7863,-128.5956 746.6525,-131.6869 750.792,-137.3317"/>
</g>
<!-- Node10&#45;&gt;Node11 -->
<g id="edge14" class="edge">
<title>Node10&#45;&gt;Node11</title>
<path fill="none" stroke="#191970" d="M642.5834,-110.4179C652.9087,-102.1876 668.3442,-89.8839 680.6392,-80.0836"/>
<polygon fill="#191970" stroke="#191970" points="682.9098,-82.7495 688.548,-73.7795 678.5466,-77.2757 682.9098,-82.7495"/>
</g>
<!-- Node12 -->
<g id="node13" class="node">
<title>Node12</title>
<g id="a_node13"><a xlink:title=" ">
<polygon fill="#ffffff" stroke="#bfbfbf" points="673.0171,-.5 673.0171,-18.5 727.3618,-18.5 727.3618,-.5 673.0171,-.5"/>
<text text-anchor="middle" x="700.1895" y="-6.5" font-family="Helvetica,sans-Serif" font-size="10.00" fill="#000000">iostream</text>
</a>
</g>
</g>
<!-- Node11&#45;&gt;Node12 -->
<g id="edge15" class="edge">
<title>Node11&#45;&gt;Node12</title>
<path fill="none" stroke="#191970" d="M700.1895,-55.4179C700.1895,-48.2164 700.1895,-37.8962 700.1895,-28.8632"/>
<polygon fill="#191970" stroke="#191970" points="703.6896,-28.7794 700.1895,-18.7795 696.6896,-28.7795 703.6896,-28.7794"/>
</g>
<!-- Node13&#45;&gt;Node11 -->
<g id="edge17" class="edge">
<title>Node13&#45;&gt;Node11</title>
<path fill="none" stroke="#191970" d="M757.7955,-110.4179C747.4702,-102.1876 732.0347,-89.8839 719.7397,-80.0836"/>
<polygon fill="#191970" stroke="#191970" points="721.8323,-77.2757 711.831,-73.7795 717.4691,-82.7495 721.8323,-77.2757"/>
</g>
<!-- Node14&#45;&gt;Node3 -->
<g id="edge21" class="edge">
<title>Node14&#45;&gt;Node3</title>
<path fill="none" stroke="#191970" d="M193.5824,-220.4982C215.1646,-201.805 265.0714,-158.5786 292.0672,-135.1964"/>
<polygon fill="#191970" stroke="#191970" points="294.3855,-137.8188 299.6529,-128.6261 289.8026,-132.5276 294.3855,-137.8188"/>
</g>
<!-- Node15 -->
<g id="node16" class="node">
<title>Node15</title>
<g id="a_node16"><a xlink:title=" ">
<polygon fill="#ffffff" stroke="#bfbfbf" points="130.9629,-165.5 130.9629,-183.5 171.416,-183.5 171.416,-165.5 130.9629,-165.5"/>
<text text-anchor="middle" x="151.1895" y="-171.5" font-family="Helvetica,sans-Serif" font-size="10.00" fill="#000000">string</text>
</a>
</g>
</g>
<!-- Node14&#45;&gt;Node15 -->
<g id="edge20" class="edge">
<title>Node14&#45;&gt;Node15</title>
<path fill="none" stroke="#191970" d="M177.9053,-220.4179C173.5312,-212.8998 167.1795,-201.9829 161.7668,-192.6799"/>
<polygon fill="#191970" stroke="#191970" points="164.6426,-190.6628 156.5884,-183.7795 158.5922,-194.1831 164.6426,-190.6628"/>
</g>
<!-- Node16&#45;&gt;Node5 -->
<g id="edge27" class="edge">
<title>Node16&#45;&gt;Node5</title>
<path fill="none" stroke="#191970" d="M350.0546,-330.23C339.1511,-318.0004 323.1055,-295.6096 329.1895,-275 338.8827,-242.1639 363.0242,-209.9642 379.0003,-191.1838"/>
<polygon fill="#191970" stroke="#191970" points="381.7333,-193.3755 385.6849,-183.5452 376.4655,-188.7657 381.7333,-193.3755"/>
</g>
<!-- Node16&#45;&gt;Node8 -->
<g id="edge28" class="edge">
<title>Node16&#45;&gt;Node8</title>
<path fill="none" stroke="#191970" d="M387.2805,-330.3939C473.2302,-302.532 732.7306,-218.411 830.4349,-186.7387"/>
<polygon fill="#191970" stroke="#191970" points="831.7518,-189.9912 840.1852,-183.578 829.5932,-183.3323 831.7518,-189.9912"/>
</g>
<!-- Node17 -->
<g id="node18" class="node">
<title>Node17</title>
<g id="a_node18"><a xlink:href="communicator_8h.html" target="_top" xlink:title=" ">
<polygon fill="#ffffff" stroke="#000000" points="337.894,-275.5 337.894,-293.5 424.4849,-293.5 424.4849,-275.5 337.894,-275.5"/>
<text text-anchor="middle" x="381.1895" y="-281.5" font-family="Helvetica,sans-Serif" font-size="10.00" fill="#000000">communicator.h</text>
</a>
</g>
</g>
<!-- Node16&#45;&gt;Node17 -->
<g id="edge24" class="edge">
<title>Node16&#45;&gt;Node17</title>
<path fill="none" stroke="#191970" d="M362.8223,-330.4179C365.7662,-323.0581 370.013,-312.441 373.6816,-303.2695"/>
<polygon fill="#191970" stroke="#191970" points="377.0134,-304.3641 377.4777,-293.7795 370.514,-301.7643 377.0134,-304.3641"/>
</g>
<!-- Node17&#45;&gt;Node2 -->
<g id="edge26" class="edge">
<title>Node17&#45;&gt;Node2</title>
<path fill="none" stroke="#191970" d="M405.1333,-275.4179C429.0609,-266.3419 466.0479,-252.3123 492.8426,-242.1488"/>
<polygon fill="#191970" stroke="#191970" points="494.1014,-245.4147 502.2101,-238.5956 491.6188,-238.8697 494.1014,-245.4147"/>
</g>
<!-- Node17&#45;&gt;Node3 -->
<g id="edge25" class="edge">
<title>Node17&#45;&gt;Node3</title>
<path fill="none" stroke="#191970" d="M375.7007,-275.3594C365.4693,-258.0314 343.2492,-219.0002 329.1895,-184 323.2063,-169.1055 318.1691,-151.6036 314.7878,-138.5921"/>
<polygon fill="#191970" stroke="#191970" points="318.1784,-137.7235 312.3525,-128.8743 311.3884,-139.4252 318.1784,-137.7235"/>
</g>
<!-- Node18&#45;&gt;Node3 -->
<g id="edge31" class="edge">
<title>Node18&#45;&gt;Node3</title>
<path fill="none" stroke="#191970" d="M59.323,-220.4659C70.9443,-206.3852 95.3751,-179.3367 122.1895,-165 172.6734,-138.0081 239.2876,-126.7882 278.1632,-122.304"/>
<polygon fill="#191970" stroke="#191970" points="278.7866,-125.7573 288.3561,-121.2104 278.0398,-118.7973 278.7866,-125.7573"/>
</g>
<!-- Node18&#45;&gt;Node15 -->
<g id="edge30" class="edge">
<title>Node18&#45;&gt;Node15</title>
<path fill="none" stroke="#191970" d="M68.5373,-220.4179C84.1576,-211.7399 107.9293,-198.5334 125.9756,-188.5077"/>
<polygon fill="#191970" stroke="#191970" points="127.7755,-191.5117 134.8173,-183.5956 124.376,-185.3925 127.7755,-191.5117"/>
</g>
</g>
</svg>
