<?xml version="1.0" encoding="UTF-8" standalone="no"?>
<!DOCTYPE svg PUBLIC "-//W3C//DTD SVG 1.1//EN"
 "http://www.w3.org/Graphics/SVG/1.1/DTD/svg11.dtd">
<!-- Generated by graphviz version 2.40.1 (20161225.0304)
 -->
<!-- Title: GluonicLQCD/observables/tools Pages: 1 -->
<svg width="133pt" height="294pt"
 viewBox="0.00 0.00 133.00 294.00" xmlns="http://www.w3.org/2000/svg" xmlns:xlink="http://www.w3.org/1999/xlink">
<g id="graph0" class="graph" transform="scale(1 1) rotate(0) translate(4 290)">
<title>GluonicLQCD/observables/tools</title>
<polygon fill="#ffffff" stroke="transparent" points="-4,4 -4,-290 129,-290 129,4 -4,4"/>
<g id="clust1" class="cluster">
<title>clusterdir_a4d2cabbfa9ce39e497395a7adc9de8f</title>
<g id="a_clust1"><a xlink:href="dir_a4d2cabbfa9ce39e497395a7adc9de8f.html" target="_top" xlink:title="observables">
<polygon fill="#ddddee" stroke="#000000" points="8,-208 8,-278 78,-278 78,-208 8,-208"/>
<text text-anchor="middle" x="43" y="-266" font-family="Helvetica,sans-Serif" font-size="10.00" fill="#000000">observables</text>
</a>
</g>
</g>
<!-- dir_d3213487e914138feadb58522a723471 -->
<g id="node1" class="node">
<title>dir_d3213487e914138feadb58522a723471</title>
<g id="a_node1"><a xlink:href="dir_d3213487e914138feadb58522a723471.html" target="_top" xlink:title="tools">
<polygon fill="#eeeeff" stroke="#000000" points="70,-252 16,-252 16,-216 70,-216 70,-252"/>
<text text-anchor="middle" x="43" y="-231" font-family="Helvetica,sans-Serif" font-size="10.00" fill="#000000">tools</text>
</a>
</g>
</g>
<!-- dir_989e9c0c9f16acce756990d917da59a4 -->
<g id="node2" class="node">
<title>dir_989e9c0c9f16acce756990d917da59a4</title>
<g id="a_node2"><a xlink:href="dir_989e9c0c9f16acce756990d917da59a4.html" target="_top" xlink:title="parallelization">
<polygon fill="none" stroke="#000000" points="96.6476,-108 19.3524,-108 19.3524,-72 96.6476,-72 96.6476,-108"/>
<text text-anchor="middle" x="58" y="-87" font-family="Helvetica,sans-Serif" font-size="10.00" fill="#000000">parallelization</text>
</a>
</g>
</g>
<!-- dir_d3213487e914138feadb58522a723471&#45;&gt;dir_989e9c0c9f16acce756990d917da59a4 -->
<g id="edge3" class="edge">
<title>dir_d3213487e914138feadb58522a723471&#45;&gt;dir_989e9c0c9f16acce756990d917da59a4</title>
<path fill="none" stroke="#000000" d="M44.8998,-215.7623C47.4582,-191.201 52.0367,-147.2474 55.0465,-118.3541"/>
<polygon fill="#000000" stroke="#000000" points="58.5607,-118.3985 56.1157,-108.0896 51.5984,-117.6731 58.5607,-118.3985"/>
<g id="a_edge3&#45;headlabel"><a xlink:href="dir_000010_000011.html" target="_top" xlink:title="1">
<text text-anchor="middle" x="61.0123" y="-119.2679" font-family="Helvetica,sans-Serif" font-size="10.00" fill="#000000">1</text>
</a>
</g>
</g>
<!-- dir_42ec03b7ccf42fefa95a9af8fd921dc0 -->
<g id="node3" class="node">
<title>dir_42ec03b7ccf42fefa95a9af8fd921dc0</title>
<g id="a_node3"><a xlink:href="dir_42ec03b7ccf42fefa95a9af8fd921dc0.html" target="_top" xlink:title="config">
<polygon fill="none" stroke="#000000" points="85,-36 31,-36 31,0 85,0 85,-36"/>
<text text-anchor="middle" x="58" y="-15" font-family="Helvetica,sans-Serif" font-size="10.00" fill="#000000">config</text>
</a>
</g>
</g>
<!-- dir_d3213487e914138feadb58522a723471&#45;&gt;dir_42ec03b7ccf42fefa95a9af8fd921dc0 -->
<g id="edge4" class="edge">
<title>dir_d3213487e914138feadb58522a723471&#45;&gt;dir_42ec03b7ccf42fefa95a9af8fd921dc0</title>
<path fill="none" stroke="#000000" d="M32.9431,-215.9718C17.3259,-185.4855 -9.0746,-122.1701 10,-72 14.0272,-61.4076 21.19,-51.5662 28.7737,-43.2649"/>
<polygon fill="#000000" stroke="#000000" points="31.2926,-45.695 35.7787,-36.0968 26.2862,-40.8025 31.2926,-45.695"/>
<g id="a_edge4&#45;headlabel"><a xlink:href="dir_000010_000002.html" target="_top" xlink:title="1">
<text text-anchor="middle" x="30.8109" y="-47.2503" font-family="Helvetica,sans-Serif" font-size="10.00" fill="#000000">1</text>
</a>
</g>
</g>
<!-- dir_9e75dbcc90935552caaf1cb18df4f8ce -->
<g id="node4" class="node">
<title>dir_9e75dbcc90935552caaf1cb18df4f8ce</title>
<g id="a_node4"><a xlink:href="dir_9e75dbcc90935552caaf1cb18df4f8ce.html" target="_top" xlink:title="io">
<polygon fill="none" stroke="#000000" points="125,-180 71,-180 71,-144 125,-144 125,-180"/>
<text text-anchor="middle" x="98" y="-159" font-family="Helvetica,sans-Serif" font-size="10.00" fill="#000000">io</text>
</a>
</g>
</g>
<!-- dir_d3213487e914138feadb58522a723471&#45;&gt;dir_9e75dbcc90935552caaf1cb18df4f8ce -->
<g id="edge5" class="edge">
<title>dir_d3213487e914138feadb58522a723471&#45;&gt;dir_9e75dbcc90935552caaf1cb18df4f8ce</title>
<path fill="none" stroke="#000000" d="M56.8788,-215.8314C63.2136,-207.5386 70.8384,-197.557 77.7926,-188.4533"/>
<polygon fill="#000000" stroke="#000000" points="80.6452,-190.4847 83.9343,-180.4133 75.0825,-186.2353 80.6452,-190.4847"/>
<g id="a_edge5&#45;headlabel"><a xlink:href="dir_000010_000004.html" target="_top" xlink:title="1">
<text text-anchor="middle" x="80.7195" y="-192.0647" font-family="Helvetica,sans-Serif" font-size="10.00" fill="#000000">1</text>
</a>
</g>
</g>
<!-- dir_989e9c0c9f16acce756990d917da59a4&#45;&gt;dir_42ec03b7ccf42fefa95a9af8fd921dc0 -->
<g id="edge1" class="edge">
<title>dir_989e9c0c9f16acce756990d917da59a4&#45;&gt;dir_42ec03b7ccf42fefa95a9af8fd921dc0</title>
<path fill="none" stroke="#000000" d="M52.0476,-71.8314C51.2972,-64.131 51.0763,-54.9743 51.3849,-46.4166"/>
<polygon fill="#000000" stroke="#000000" points="54.8792,-46.6161 52.024,-36.4133 47.8935,-46.1697 54.8792,-46.6161"/>
<g id="a_edge1&#45;headlabel"><a xlink:href="dir_000011_000002.html" target="_top" xlink:title="1">
<text text-anchor="middle" x="57.4836" y="-47.3844" font-family="Helvetica,sans-Serif" font-size="10.00" fill="#000000">1</text>
</a>
</g>
</g>
<!-- dir_42ec03b7ccf42fefa95a9af8fd921dc0&#45;&gt;dir_989e9c0c9f16acce756990d917da59a4 -->
<g id="edge2" class="edge">
<title>dir_42ec03b7ccf42fefa95a9af8fd921dc0&#45;&gt;dir_989e9c0c9f16acce756990d917da59a4</title>
<path fill="none" stroke="#000000" d="M63.976,-36.4133C64.7071,-44.0593 64.9203,-53.1084 64.6155,-61.5726"/>
<polygon fill="#000000" stroke="#000000" points="61.1048,-61.6264 63.9524,-71.8314 68.0902,-62.078 61.1048,-61.6264"/>
<g id="a_edge2&#45;headlabel"><a xlink:href="dir_000002_000011.html" target="_top" xlink:title="2">
<text text-anchor="middle" x="58.5032" y="-54.8562" font-family="Helvetica,sans-Serif" font-size="10.00" fill="#000000">2</text>
</a>
</g>
</g>
<!-- dir_9e75dbcc90935552caaf1cb18df4f8ce&#45;&gt;dir_989e9c0c9f16acce756990d917da59a4 -->
<g id="edge6" class="edge">
<title>dir_9e75dbcc90935552caaf1cb18df4f8ce&#45;&gt;dir_989e9c0c9f16acce756990d917da59a4</title>
<path fill="none" stroke="#000000" d="M87.9063,-143.8314C83.4403,-135.7925 78.0925,-126.1666 73.1621,-117.2918"/>
<polygon fill="#000000" stroke="#000000" points="76.1456,-115.4551 68.2296,-108.4133 70.0265,-118.8546 76.1456,-115.4551"/>
<g id="a_edge6&#45;headlabel"><a xlink:href="dir_000004_000011.html" target="_top" xlink:title="3">
<text text-anchor="middle" x="80.3732" y="-114.2185" font-family="Helvetica,sans-Serif" font-size="10.00" fill="#000000">3</text>
</a>
</g>
</g>
<!-- dir_9e75dbcc90935552caaf1cb18df4f8ce&#45;&gt;dir_42ec03b7ccf42fefa95a9af8fd921dc0 -->
<g id="edge7" class="edge">
<title>dir_9e75dbcc90935552caaf1cb18df4f8ce&#45;&gt;dir_42ec03b7ccf42fefa95a9af8fd921dc0</title>
<path fill="none" stroke="#000000" d="M104.1954,-143.7695C109.4972,-125.1178 114.9753,-95.6068 106,-72 101.9728,-61.4076 94.81,-51.5662 87.2263,-43.2649"/>
<polygon fill="#000000" stroke="#000000" points="89.7138,-40.8025 80.2213,-36.0968 84.7074,-45.695 89.7138,-40.8025"/>
<g id="a_edge7&#45;headlabel"><a xlink:href="dir_000004_000002.html" target="_top" xlink:title="2">
<text text-anchor="middle" x="94.2567" y="-38.3889" font-family="Helvetica,sans-Serif" font-size="10.00" fill="#000000">2</text>
</a>
</g>
</g>
</g>
</svg>
