<?xml version="1.0" encoding="UTF-8" standalone="no"?>
<!DOCTYPE svg PUBLIC "-//W3C//DTD SVG 1.1//EN"
 "http://www.w3.org/Graphics/SVG/1.1/DTD/svg11.dtd">
<!-- Generated by graphviz version 2.40.1 (20161225.0304)
 -->
<!-- Title: GluonicLQCD/math Pages: 1 -->
<svg width="216pt" height="302pt"
 viewBox="0.00 0.00 215.57 302.00" xmlns="http://www.w3.org/2000/svg" xmlns:xlink="http://www.w3.org/1999/xlink">
<g id="graph0" class="graph" transform="scale(1 1) rotate(0) translate(4 298)">
<title>GluonicLQCD/math</title>
<polygon fill="#ffffff" stroke="transparent" points="-4,4 -4,-298 211.5737,-298 211.5737,4 -4,4"/>
<g id="clust1" class="cluster">
<title>clusterdir_3f09a0a9308f13c2b8951181d225a4cf</title>
<g id="a_clust1"><a xlink:href="dir_3f09a0a9308f13c2b8951181d225a4cf.html" target="_top" xlink:title="GluonicLQCD">
<polygon fill="#ddddee" stroke="#000000" points="8,-56 8,-286 122,-286 122,-56 8,-56"/>
<text text-anchor="middle" x="65" y="-274" font-family="Helvetica,sans-Serif" font-size="10.00" fill="#000000">GluonicLQCD</text>
</a>
</g>
</g>
<g id="clust2" class="cluster">
<title>clusterdir_699b43c0649cdffda9b3cb63579617e5</title>
<g id="a_clust2"><a xlink:href="dir_699b43c0649cdffda9b3cb63579617e5.html" target="_top">
<polygon fill="#eeeeff" stroke="#000000" points="16,-64 16,-260 114,-260 114,-64 16,-64"/>
</a>
</g>
</g>
<!-- dir_699b43c0649cdffda9b3cb63579617e5 -->
<g id="node1" class="node">
<title>dir_699b43c0649cdffda9b3cb63579617e5</title>
<text text-anchor="middle" x="72" y="-231" font-family="Helvetica,sans-Serif" font-size="10.00" fill="#000000">math</text>
</g>
<!-- dir_91b6b1313291a7ba6918b92d3fbb22e2 -->
<g id="node2" class="node">
<title>dir_91b6b1313291a7ba6918b92d3fbb22e2</title>
<g id="a_node2"><a xlink:href="dir_91b6b1313291a7ba6918b92d3fbb22e2.html" target="_top" xlink:title="exponentiation">
<polygon fill="#ffffff" stroke="#000000" points="105.5537,-180 24.4463,-180 24.4463,-144 105.5537,-144 105.5537,-180"/>
<text text-anchor="middle" x="65" y="-159" font-family="Helvetica,sans-Serif" font-size="10.00" fill="#000000">exponentiation</text>
</a>
</g>
</g>
<!-- dir_699b43c0649cdffda9b3cb63579617e5&#45;&gt;dir_91b6b1313291a7ba6918b92d3fbb22e2 -->
<g id="edge6" class="edge">
<title>dir_699b43c0649cdffda9b3cb63579617e5&#45;&gt;dir_91b6b1313291a7ba6918b92d3fbb22e2</title>
<path fill="none" stroke="#000000" d="M70.2336,-215.8314C69.485,-208.131 68.5947,-198.9743 67.7627,-190.4166"/>
<polygon fill="#000000" stroke="#000000" points="71.2415,-190.0276 66.7902,-180.4133 64.2744,-190.7051 71.2415,-190.0276"/>
<g id="a_edge6&#45;headlabel"><a xlink:href="dir_000006_000007.html" target="_top" xlink:title="4">
<text text-anchor="middle" x="74.4152" y="-190.3307" font-family="Helvetica,sans-Serif" font-size="10.00" fill="#000000">4</text>
</a>
</g>
</g>
<!-- dir_989e9c0c9f16acce756990d917da59a4 -->
<g id="node4" class="node">
<title>dir_989e9c0c9f16acce756990d917da59a4</title>
<g id="a_node4"><a xlink:href="dir_989e9c0c9f16acce756990d917da59a4.html" target="_top" xlink:title="parallelization">
<polygon fill="none" stroke="#000000" points="207.6476,-180 130.3524,-180 130.3524,-144 207.6476,-144 207.6476,-180"/>
<text text-anchor="middle" x="169" y="-159" font-family="Helvetica,sans-Serif" font-size="10.00" fill="#000000">parallelization</text>
</a>
</g>
</g>
<!-- dir_699b43c0649cdffda9b3cb63579617e5&#45;&gt;dir_989e9c0c9f16acce756990d917da59a4 -->
<g id="edge5" class="edge">
<title>dir_699b43c0649cdffda9b3cb63579617e5&#45;&gt;dir_989e9c0c9f16acce756990d917da59a4</title>
<path fill="none" stroke="#000000" d="M90.5248,-215.8314C101.8211,-206.7927 116.55,-195.7476 130.2338,-186.0198"/>
<polygon fill="#000000" stroke="#000000" points="132.4043,-188.7725 138.5788,-180.1628 128.3829,-183.0428 132.4043,-188.7725"/>
<g id="a_edge5&#45;headlabel"><a xlink:href="dir_000006_000011.html" target="_top" xlink:title="3">
<text text-anchor="middle" x="131.0931" y="-190.1615" font-family="Helvetica,sans-Serif" font-size="10.00" fill="#000000">3</text>
</a>
</g>
</g>
<!-- dir_c854f4c9d8ea493660099688fe967af0 -->
<g id="node3" class="node">
<title>dir_c854f4c9d8ea493660099688fe967af0</title>
<g id="a_node3"><a xlink:href="dir_c854f4c9d8ea493660099688fe967af0.html" target="_top" xlink:title="matrices">
<polygon fill="#ffffff" stroke="#000000" points="99,-108 45,-108 45,-72 99,-72 99,-108"/>
<text text-anchor="middle" x="72" y="-87" font-family="Helvetica,sans-Serif" font-size="10.00" fill="#000000">matrices</text>
</a>
</g>
</g>
<!-- dir_91b6b1313291a7ba6918b92d3fbb22e2&#45;&gt;dir_c854f4c9d8ea493660099688fe967af0 -->
<g id="edge3" class="edge">
<title>dir_91b6b1313291a7ba6918b92d3fbb22e2&#45;&gt;dir_c854f4c9d8ea493660099688fe967af0</title>
<path fill="none" stroke="#000000" d="M66.7664,-143.8314C67.515,-136.131 68.4053,-126.9743 69.2373,-118.4166"/>
<polygon fill="#000000" stroke="#000000" points="72.7256,-118.7051 70.2098,-108.4133 65.7585,-118.0276 72.7256,-118.7051"/>
<g id="a_edge3&#45;headlabel"><a xlink:href="dir_000007_000008.html" target="_top" xlink:title="1">
<text text-anchor="middle" x="75.2038" y="-119.5575" font-family="Helvetica,sans-Serif" font-size="10.00" fill="#000000">1</text>
</a>
</g>
</g>
<!-- dir_42ec03b7ccf42fefa95a9af8fd921dc0 -->
<g id="node5" class="node">
<title>dir_42ec03b7ccf42fefa95a9af8fd921dc0</title>
<g id="a_node5"><a xlink:href="dir_42ec03b7ccf42fefa95a9af8fd921dc0.html" target="_top" xlink:title="config">
<polygon fill="none" stroke="#000000" points="196,-36 142,-36 142,0 196,0 196,-36"/>
<text text-anchor="middle" x="169" y="-15" font-family="Helvetica,sans-Serif" font-size="10.00" fill="#000000">config</text>
</a>
</g>
</g>
<!-- dir_c854f4c9d8ea493660099688fe967af0&#45;&gt;dir_42ec03b7ccf42fefa95a9af8fd921dc0 -->
<g id="edge7" class="edge">
<title>dir_c854f4c9d8ea493660099688fe967af0&#45;&gt;dir_42ec03b7ccf42fefa95a9af8fd921dc0</title>
<path fill="none" stroke="#000000" d="M96.4772,-71.8314C108.5395,-62.8779 123.254,-51.9558 136.2686,-42.2955"/>
<polygon fill="#000000" stroke="#000000" points="138.587,-44.9335 144.5306,-36.1628 134.4148,-39.3127 138.587,-44.9335"/>
<g id="a_edge7&#45;headlabel"><a xlink:href="dir_000008_000002.html" target="_top" xlink:title="1">
<text text-anchor="middle" x="137.3929" y="-46.3557" font-family="Helvetica,sans-Serif" font-size="10.00" fill="#000000">1</text>
</a>
</g>
</g>
<!-- dir_989e9c0c9f16acce756990d917da59a4&#45;&gt;dir_699b43c0649cdffda9b3cb63579617e5 -->
<g id="edge2" class="edge">
<title>dir_989e9c0c9f16acce756990d917da59a4&#45;&gt;dir_699b43c0649cdffda9b3cb63579617e5</title>
<path fill="none" stroke="#000000" d="M150.4134,-180.2181C138.239,-189.9565 122.0959,-202.0131 107.5706,-212.2413"/>
<polygon fill="#000000" stroke="#000000" points="105.4651,-209.4423 99.2475,-218.0209 109.4577,-215.192 105.4651,-209.4423"/>
<g id="a_edge2&#45;headlabel"><a xlink:href="dir_000011_000006.html" target="_top" xlink:title="1">
<text text-anchor="middle" x="106.7982" y="-202.0599" font-family="Helvetica,sans-Serif" font-size="10.00" fill="#000000">1</text>
</a>
</g>
</g>
<!-- dir_989e9c0c9f16acce756990d917da59a4&#45;&gt;dir_42ec03b7ccf42fefa95a9af8fd921dc0 -->
<g id="edge1" class="edge">
<title>dir_989e9c0c9f16acce756990d917da59a4&#45;&gt;dir_42ec03b7ccf42fefa95a9af8fd921dc0</title>
<path fill="none" stroke="#000000" d="M164.3268,-143.7623C161.867,-119.201 161.5923,-75.2474 163.5026,-46.3541"/>
<polygon fill="#000000" stroke="#000000" points="167.0152,-46.3416 164.3417,-36.0896 160.0385,-45.7712 167.0152,-46.3416"/>
<g id="a_edge1&#45;headlabel"><a xlink:href="dir_000011_000002.html" target="_top" xlink:title="1">
<text text-anchor="middle" x="169.5522" y="-47.1556" font-family="Helvetica,sans-Serif" font-size="10.00" fill="#000000">1</text>
</a>
</g>
</g>
<!-- dir_42ec03b7ccf42fefa95a9af8fd921dc0&#45;&gt;dir_989e9c0c9f16acce756990d917da59a4 -->
<g id="edge4" class="edge">
<title>dir_42ec03b7ccf42fefa95a9af8fd921dc0&#45;&gt;dir_989e9c0c9f16acce756990d917da59a4</title>
<path fill="none" stroke="#000000" d="M173.6583,-36.0896C176.1269,-60.5727 176.4104,-104.5174 174.5089,-133.4713"/>
<polygon fill="#000000" stroke="#000000" points="170.9942,-133.5118 173.6732,-143.7623 177.9712,-134.0785 170.9942,-133.5118"/>
<g id="a_edge4&#45;headlabel"><a xlink:href="dir_000002_000011.html" target="_top" xlink:title="2">
<text text-anchor="middle" x="168.4551" y="-126.6992" font-family="Helvetica,sans-Serif" font-size="10.00" fill="#000000">2</text>
</a>
</g>
</g>
</g>
</svg>
