<?xml version="1.0" encoding="UTF-8" standalone="no"?>
<!DOCTYPE svg PUBLIC "-//W3C//DTD SVG 1.1//EN"
 "http://www.w3.org/Graphics/SVG/1.1/DTD/svg11.dtd">
<!-- Generated by graphviz version 2.40.1 (20161225.0304)
 -->
<!-- Title: GLAC/math/exponentiation Pages: 1 -->
<svg width="122pt" height="150pt"
 viewBox="0.00 0.00 122.00 150.00" xmlns="http://www.w3.org/2000/svg" xmlns:xlink="http://www.w3.org/1999/xlink">
<g id="graph0" class="graph" transform="scale(1 1) rotate(0) translate(4 146)">
<title>GLAC/math/exponentiation</title>
<polygon fill="#ffffff" stroke="transparent" points="-4,4 -4,-146 118,-146 118,4 -4,4"/>
<g id="clust1" class="cluster">
<title>clusterdir_1aad51cdd65d34080d064657015a76b5</title>
<g id="a_clust1"><a xlink:href="dir_1aad51cdd65d34080d064657015a76b5.html" target="_top" xlink:title="math">
<polygon fill="#ddddee" stroke="#000000" points="8,-64 8,-134 106,-134 106,-64 8,-64"/>
<text text-anchor="middle" x="57" y="-122" font-family="Helvetica,sans-Serif" font-size="10.00" fill="#000000">math</text>
</a>
</g>
</g>
<!-- dir_f997540d500cd1f3244a6f930caa0f16 -->
<g id="node1" class="node">
<title>dir_f997540d500cd1f3244a6f930caa0f16</title>
<g id="a_node1"><a xlink:href="dir_f997540d500cd1f3244a6f930caa0f16.html" target="_top" xlink:title="exponentiation">
<polygon fill="#eeeeff" stroke="#000000" points="97.5537,-108 16.4463,-108 16.4463,-72 97.5537,-72 97.5537,-108"/>
<text text-anchor="middle" x="57" y="-87" font-family="Helvetica,sans-Serif" font-size="10.00" fill="#000000">exponentiation</text>
</a>
</g>
</g>
<!-- dir_68d7b56be1622d2d703dfdf0f108bd8f -->
<g id="node2" class="node">
<title>dir_68d7b56be1622d2d703dfdf0f108bd8f</title>
<g id="a_node2"><a xlink:href="dir_68d7b56be1622d2d703dfdf0f108bd8f.html" target="_top" xlink:title="matrices">
<polygon fill="none" stroke="#000000" points="84,-36 30,-36 30,0 84,0 84,-36"/>
<text text-anchor="middle" x="57" y="-15" font-family="Helvetica,sans-Serif" font-size="10.00" fill="#000000">matrices</text>
</a>
</g>
</g>
<!-- dir_f997540d500cd1f3244a6f930caa0f16&#45;&gt;dir_68d7b56be1622d2d703dfdf0f108bd8f -->
<g id="edge1" class="edge">
<title>dir_f997540d500cd1f3244a6f930caa0f16&#45;&gt;dir_68d7b56be1622d2d703dfdf0f108bd8f</title>
<path fill="none" stroke="#000000" d="M57,-71.8314C57,-64.131 57,-54.9743 57,-46.4166"/>
<polygon fill="#000000" stroke="#000000" points="60.5001,-46.4132 57,-36.4133 53.5001,-46.4133 60.5001,-46.4132"/>
<g id="a_edge1&#45;headlabel"><a xlink:href="dir_000007_000008.html" target="_top" xlink:title="1">
<text text-anchor="middle" x="63.3393" y="-47.0079" font-family="Helvetica,sans-Serif" font-size="10.00" fill="#000000">1</text>
</a>
</g>
</g>
</g>
</svg>
