<?xml version="1.0" encoding="UTF-8" standalone="no"?>
<!DOCTYPE svg PUBLIC "-//W3C//DTD SVG 1.1//EN"
 "http://www.w3.org/Graphics/SVG/1.1/DTD/svg11.dtd">
<!-- Generated by graphviz version 2.40.1 (20161225.0304)
 -->
<!-- Title: GluonicLQCD/flow Pages: 1 -->
<svg width="165pt" height="366pt"
 viewBox="0.00 0.00 164.59 366.00" xmlns="http://www.w3.org/2000/svg" xmlns:xlink="http://www.w3.org/1999/xlink">
<g id="graph0" class="graph" transform="scale(1 1) rotate(0) translate(4 362)">
<title>GluonicLQCD/flow</title>
<polygon fill="#ffffff" stroke="transparent" points="-4,4 -4,-362 160.5913,-362 160.5913,4 -4,4"/>
<g id="clust1" class="cluster">
<title>clusterdir_3f09a0a9308f13c2b8951181d225a4cf</title>
<g id="a_clust1"><a xlink:href="dir_3f09a0a9308f13c2b8951181d225a4cf.html" target="_top" xlink:title="GluonicLQCD">
<polygon fill="#ddddee" stroke="#000000" points="39.5913,-280 39.5913,-350 116.5913,-350 116.5913,-280 39.5913,-280"/>
<text text-anchor="middle" x="78.0913" y="-338" font-family="Helvetica,sans-Serif" font-size="10.00" fill="#000000">GluonicLQCD</text>
</a>
</g>
</g>
<!-- dir_d54256f8ed9d1ba4550e8250d483f147 -->
<g id="node1" class="node">
<title>dir_d54256f8ed9d1ba4550e8250d483f147</title>
<g id="a_node1"><a xlink:href="dir_d54256f8ed9d1ba4550e8250d483f147.html" target="_top" xlink:title="flow">
<polygon fill="#eeeeff" stroke="#000000" points="104.5913,-324 50.5913,-324 50.5913,-288 104.5913,-288 104.5913,-324"/>
<text text-anchor="middle" x="77.5913" y="-303" font-family="Helvetica,sans-Serif" font-size="10.00" fill="#000000">flow</text>
</a>
</g>
</g>
<!-- dir_c02060125093f1f908938da7e8d036d2 -->
<g id="node2" class="node">
<title>dir_c02060125093f1f908938da7e8d036d2</title>
<g id="a_node2"><a xlink:href="dir_c02060125093f1f908938da7e8d036d2.html" target="_top" xlink:title="actions">
<polygon fill="none" stroke="#000000" points="77.5913,-252 23.5913,-252 23.5913,-216 77.5913,-216 77.5913,-252"/>
<text text-anchor="middle" x="50.5913" y="-231" font-family="Helvetica,sans-Serif" font-size="10.00" fill="#000000">actions</text>
</a>
</g>
</g>
<!-- dir_d54256f8ed9d1ba4550e8250d483f147&#45;&gt;dir_c02060125093f1f908938da7e8d036d2 -->
<g id="edge9" class="edge">
<title>dir_d54256f8ed9d1ba4550e8250d483f147&#45;&gt;dir_c02060125093f1f908938da7e8d036d2</title>
<path fill="none" stroke="#000000" d="M70.778,-287.8314C67.8269,-279.9617 64.3055,-270.5712 61.0363,-261.8533"/>
<polygon fill="#000000" stroke="#000000" points="64.2847,-260.5476 57.4963,-252.4133 57.7304,-263.0055 64.2847,-260.5476"/>
<g id="a_edge9&#45;headlabel"><a xlink:href="dir_000003_000001.html" target="_top" xlink:title="1">
<text text-anchor="middle" x="68.2053" y="-259.9164" font-family="Helvetica,sans-Serif" font-size="10.00" fill="#000000">1</text>
</a>
</g>
</g>
<!-- dir_989e9c0c9f16acce756990d917da59a4 -->
<g id="node3" class="node">
<title>dir_989e9c0c9f16acce756990d917da59a4</title>
<g id="a_node3"><a xlink:href="dir_989e9c0c9f16acce756990d917da59a4.html" target="_top" xlink:title="parallelization">
<polygon fill="none" stroke="#000000" points="114.2389,-180 36.9437,-180 36.9437,-144 114.2389,-144 114.2389,-180"/>
<text text-anchor="middle" x="75.5913" y="-159" font-family="Helvetica,sans-Serif" font-size="10.00" fill="#000000">parallelization</text>
</a>
</g>
</g>
<!-- dir_d54256f8ed9d1ba4550e8250d483f147&#45;&gt;dir_989e9c0c9f16acce756990d917da59a4 -->
<g id="edge10" class="edge">
<title>dir_d54256f8ed9d1ba4550e8250d483f147&#45;&gt;dir_989e9c0c9f16acce756990d917da59a4</title>
<path fill="none" stroke="#000000" d="M81.4326,-287.6001C83.4079,-277.2025 85.6035,-263.9346 86.5913,-252 87.911,-236.0545 88.1962,-231.9193 86.5913,-216 85.741,-207.5665 84.1619,-198.5029 82.4602,-190.2554"/>
<polygon fill="#000000" stroke="#000000" points="85.8491,-189.3697 80.2847,-180.3537 79.0122,-190.8719 85.8491,-189.3697"/>
<g id="a_edge10&#45;headlabel"><a xlink:href="dir_000003_000011.html" target="_top" xlink:title="1">
<text text-anchor="middle" x="89.3935" y="-189.2713" font-family="Helvetica,sans-Serif" font-size="10.00" fill="#000000">1</text>
</a>
</g>
</g>
<!-- dir_42ec03b7ccf42fefa95a9af8fd921dc0 -->
<g id="node4" class="node">
<title>dir_42ec03b7ccf42fefa95a9af8fd921dc0</title>
<g id="a_node4"><a xlink:href="dir_42ec03b7ccf42fefa95a9af8fd921dc0.html" target="_top" xlink:title="config">
<polygon fill="none" stroke="#000000" points="92.5913,-36 38.5913,-36 38.5913,0 92.5913,0 92.5913,-36"/>
<text text-anchor="middle" x="65.5913" y="-15" font-family="Helvetica,sans-Serif" font-size="10.00" fill="#000000">config</text>
</a>
</g>
</g>
<!-- dir_d54256f8ed9d1ba4550e8250d483f147&#45;&gt;dir_42ec03b7ccf42fefa95a9af8fd921dc0 -->
<g id="edge11" class="edge">
<title>dir_d54256f8ed9d1ba4550e8250d483f147&#45;&gt;dir_42ec03b7ccf42fefa95a9af8fd921dc0</title>
<path fill="none" stroke="#000000" d="M50.5686,-290.6789C37.0697,-281.4052 22.0554,-268.2286 14.5913,-252 -.353,-219.5078 -13.6571,-184.4346 27.5913,-72 31.1663,-62.2552 36.9663,-52.6482 42.9701,-44.3008"/>
<polygon fill="#000000" stroke="#000000" points="45.9384,-46.18 49.2156,-36.1048 40.3707,-41.9373 45.9384,-46.18"/>
<g id="a_edge11&#45;headlabel"><a xlink:href="dir_000003_000002.html" target="_top" xlink:title="1">
<text text-anchor="middle" x="46.018" y="-47.76" font-family="Helvetica,sans-Serif" font-size="10.00" fill="#000000">1</text>
</a>
</g>
</g>
<!-- dir_699b43c0649cdffda9b3cb63579617e5 -->
<g id="node5" class="node">
<title>dir_699b43c0649cdffda9b3cb63579617e5</title>
<g id="a_node5"><a xlink:href="dir_699b43c0649cdffda9b3cb63579617e5.html" target="_top" xlink:title="math">
<polygon fill="#ffffff" stroke="#ff0000" points="156.5913,-108 102.5913,-108 102.5913,-72 156.5913,-72 156.5913,-108"/>
<text text-anchor="middle" x="129.5913" y="-87" font-family="Helvetica,sans-Serif" font-size="10.00" fill="#000000">math</text>
</a>
</g>
</g>
<!-- dir_d54256f8ed9d1ba4550e8250d483f147&#45;&gt;dir_699b43c0649cdffda9b3cb63579617e5 -->
<g id="edge12" class="edge">
<title>dir_d54256f8ed9d1ba4550e8250d483f147&#45;&gt;dir_699b43c0649cdffda9b3cb63579617e5</title>
<path fill="none" stroke="#000000" d="M90.4911,-287.9035C106.3937,-264.3747 132.5465,-221.381 142.5913,-180 147.5721,-159.4805 143.7998,-135.8354 139.0611,-117.9318"/>
<polygon fill="#000000" stroke="#000000" points="142.3632,-116.7517 136.2183,-108.1209 135.6398,-118.7 142.3632,-116.7517"/>
<g id="a_edge12&#45;headlabel"><a xlink:href="dir_000003_000006.html" target="_top" xlink:title="2">
<text text-anchor="middle" x="146.0907" y="-116.4141" font-family="Helvetica,sans-Serif" font-size="10.00" fill="#000000">2</text>
</a>
</g>
</g>
<!-- dir_c02060125093f1f908938da7e8d036d2&#45;&gt;dir_989e9c0c9f16acce756990d917da59a4 -->
<g id="edge1" class="edge">
<title>dir_c02060125093f1f908938da7e8d036d2&#45;&gt;dir_989e9c0c9f16acce756990d917da59a4</title>
<path fill="none" stroke="#000000" d="M56.8998,-215.8314C59.603,-208.0463 62.8229,-198.7729 65.8223,-190.1347"/>
<polygon fill="#000000" stroke="#000000" points="69.224,-191.0081 69.1978,-180.4133 62.6112,-188.7119 69.224,-191.0081"/>
<g id="a_edge1&#45;headlabel"><a xlink:href="dir_000001_000011.html" target="_top" xlink:title="2">
<text text-anchor="middle" x="70.7271" y="-192.3351" font-family="Helvetica,sans-Serif" font-size="10.00" fill="#000000">2</text>
</a>
</g>
</g>
<!-- dir_c02060125093f1f908938da7e8d036d2&#45;&gt;dir_42ec03b7ccf42fefa95a9af8fd921dc0 -->
<g id="edge2" class="edge">
<title>dir_c02060125093f1f908938da7e8d036d2&#45;&gt;dir_42ec03b7ccf42fefa95a9af8fd921dc0</title>
<path fill="none" stroke="#000000" d="M40.5677,-215.6094C35.5932,-205.4366 30.118,-192.3803 27.5913,-180 17.9061,-132.5451 37.205,-77.7649 51.6783,-45.6078"/>
<polygon fill="#000000" stroke="#000000" points="54.9236,-46.9298 55.9776,-36.3875 48.5794,-43.9715 54.9236,-46.9298"/>
<g id="a_edge2&#45;headlabel"><a xlink:href="dir_000001_000002.html" target="_top" xlink:title="3">
<text text-anchor="middle" x="55.9779" y="-48.3875" font-family="Helvetica,sans-Serif" font-size="10.00" fill="#000000">3</text>
</a>
</g>
</g>
<!-- dir_c02060125093f1f908938da7e8d036d2&#45;&gt;dir_699b43c0649cdffda9b3cb63579617e5 -->
<g id="edge3" class="edge">
<title>dir_c02060125093f1f908938da7e8d036d2&#45;&gt;dir_699b43c0649cdffda9b3cb63579617e5</title>
<path fill="none" stroke="#000000" d="M77.6236,-221.5261C93.9334,-212.4622 113.4595,-198.5357 123.5913,-180 133.8733,-161.1895 134.8745,-136.761 133.5805,-118.1017"/>
<polygon fill="#000000" stroke="#000000" points="137.064,-117.7614 132.6382,-108.1353 130.0951,-118.4204 137.064,-117.7614"/>
<g id="a_edge3&#45;headlabel"><a xlink:href="dir_000001_000006.html" target="_top" xlink:title="3">
<text text-anchor="middle" x="140.2289" y="-118.0729" font-family="Helvetica,sans-Serif" font-size="10.00" fill="#000000">3</text>
</a>
</g>
</g>
<!-- dir_989e9c0c9f16acce756990d917da59a4&#45;&gt;dir_42ec03b7ccf42fefa95a9af8fd921dc0 -->
<g id="edge4" class="edge">
<title>dir_989e9c0c9f16acce756990d917da59a4&#45;&gt;dir_42ec03b7ccf42fefa95a9af8fd921dc0</title>
<path fill="none" stroke="#000000" d="M69.6516,-143.7623C65.4862,-119.201 62.1591,-75.2474 62.0629,-46.3541"/>
<polygon fill="#000000" stroke="#000000" points="65.5658,-46.132 62.1892,-36.0896 58.5663,-46.0458 65.5658,-46.132"/>
<g id="a_edge4&#45;headlabel"><a xlink:href="dir_000011_000002.html" target="_top" xlink:title="1">
<text text-anchor="middle" x="68.3607" y="-46.7612" font-family="Helvetica,sans-Serif" font-size="10.00" fill="#000000">1</text>
</a>
</g>
</g>
<!-- dir_989e9c0c9f16acce756990d917da59a4&#45;&gt;dir_699b43c0649cdffda9b3cb63579617e5 -->
<g id="edge5" class="edge">
<title>dir_989e9c0c9f16acce756990d917da59a4&#45;&gt;dir_699b43c0649cdffda9b3cb63579617e5</title>
<path fill="none" stroke="#000000" d="M83.2654,-143.8314C88.732,-135.454 96.118,-125.3531 103.4387,-116.1749"/>
<polygon fill="#000000" stroke="#000000" points="106.1693,-118.3647 109.8053,-108.4133 100.7572,-113.9252 106.1693,-118.3647"/>
<g id="a_edge5&#45;headlabel"><a xlink:href="dir_000011_000006.html" target="_top" xlink:title="1">
<text text-anchor="middle" x="106.0849" y="-119.9446" font-family="Helvetica,sans-Serif" font-size="10.00" fill="#000000">1</text>
</a>
</g>
</g>
<!-- dir_42ec03b7ccf42fefa95a9af8fd921dc0&#45;&gt;dir_989e9c0c9f16acce756990d917da59a4 -->
<g id="edge6" class="edge">
<title>dir_42ec03b7ccf42fefa95a9af8fd921dc0&#45;&gt;dir_989e9c0c9f16acce756990d917da59a4</title>
<path fill="none" stroke="#000000" d="M71.5058,-36.0896C75.6746,-60.5727 79.0099,-104.5174 79.1191,-133.4713"/>
<polygon fill="#000000" stroke="#000000" points="75.616,-133.7218 78.9979,-143.7623 82.6155,-133.8042 75.616,-133.7218"/>
<g id="a_edge6&#45;headlabel"><a xlink:href="dir_000002_000011.html" target="_top" xlink:title="2">
<text text-anchor="middle" x="72.8191" y="-127.094" font-family="Helvetica,sans-Serif" font-size="10.00" fill="#000000">2</text>
</a>
</g>
</g>
<!-- dir_699b43c0649cdffda9b3cb63579617e5&#45;&gt;dir_989e9c0c9f16acce756990d917da59a4 -->
<g id="edge7" class="edge">
<title>dir_699b43c0649cdffda9b3cb63579617e5&#45;&gt;dir_989e9c0c9f16acce756990d917da59a4</title>
<path fill="none" stroke="#000000" d="M121.7573,-108.4133C116.2536,-116.8239 108.8498,-126.9323 101.5306,-136.0923"/>
<polygon fill="#000000" stroke="#000000" points="98.8156,-133.8834 95.1702,-143.8314 104.2235,-138.328 98.8156,-133.8834"/>
<g id="a_edge7&#45;headlabel"><a xlink:href="dir_000006_000011.html" target="_top" xlink:title="3">
<text text-anchor="middle" x="98.9044" y="-126.3036" font-family="Helvetica,sans-Serif" font-size="10.00" fill="#000000">3</text>
</a>
</g>
</g>
<!-- dir_699b43c0649cdffda9b3cb63579617e5&#45;&gt;dir_42ec03b7ccf42fefa95a9af8fd921dc0 -->
<g id="edge8" class="edge">
<title>dir_699b43c0649cdffda9b3cb63579617e5&#45;&gt;dir_42ec03b7ccf42fefa95a9af8fd921dc0</title>
<path fill="none" stroke="#000000" d="M113.4414,-71.8314C105.9196,-63.3694 96.8348,-53.1489 88.6109,-43.8971"/>
<polygon fill="#000000" stroke="#000000" points="91.2182,-41.5621 81.9586,-36.4133 85.9864,-46.2127 91.2182,-41.5621"/>
<g id="a_edge8&#45;headlabel"><a xlink:href="dir_000006_000002.html" target="_top" xlink:title="1">
<text text-anchor="middle" x="95.7284" y="-39.3624" font-family="Helvetica,sans-Serif" font-size="10.00" fill="#000000">1</text>
</a>
</g>
</g>
</g>
</svg>
