<?xml version="1.0" encoding="UTF-8" standalone="no"?>
<!DOCTYPE svg PUBLIC "-//W3C//DTD SVG 1.1//EN"
 "http://www.w3.org/Graphics/SVG/1.1/DTD/svg11.dtd">
<!-- Generated by graphviz version 2.40.1 (20161225.0304)
 -->
<!-- Title: GLAC/observables Pages: 1 -->
<svg width="245pt" height="446pt"
 viewBox="0.00 0.00 245.00 446.00" xmlns="http://www.w3.org/2000/svg" xmlns:xlink="http://www.w3.org/1999/xlink">
<g id="graph0" class="graph" transform="scale(1 1) rotate(0) translate(4 442)">
<title>GLAC/observables</title>
<polygon fill="#ffffff" stroke="transparent" points="-4,4 -4,-442 241,-442 241,4 -4,4"/>
<g id="clust1" class="cluster">
<title>clusterdir_f53e42b23db04c12898bb6e8f169fcd5</title>
<g id="a_clust1"><a xlink:href="dir_f53e42b23db04c12898bb6e8f169fcd5.html" target="_top" xlink:title="GLAC">
<polygon fill="#ddddee" stroke="#000000" points="127,-272 127,-430 229,-430 229,-272 127,-272"/>
<text text-anchor="middle" x="178" y="-418" font-family="Helvetica,sans-Serif" font-size="10.00" fill="#000000">GLAC</text>
</a>
</g>
</g>
<g id="clust2" class="cluster">
<title>clusterdir_f36c334ff05235533ccb10eb3ed2c536</title>
<g id="a_clust2"><a xlink:href="dir_f36c334ff05235533ccb10eb3ed2c536.html" target="_top">
<polygon fill="#eeeeff" stroke="#000000" points="135,-280 135,-404 221,-404 221,-280 135,-280"/>
</a>
</g>
</g>
<!-- dir_f36c334ff05235533ccb10eb3ed2c536 -->
<g id="node1" class="node">
<title>dir_f36c334ff05235533ccb10eb3ed2c536</title>
<text text-anchor="middle" x="178" y="-375" font-family="Helvetica,sans-Serif" font-size="10.00" fill="#000000">observables</text>
</g>
<!-- dir_1d6185dd805f366873cb3262e4c61812 -->
<g id="node2" class="node">
<title>dir_1d6185dd805f366873cb3262e4c61812</title>
<g id="a_node2"><a xlink:href="dir_1d6185dd805f366873cb3262e4c61812.html" target="_top" xlink:title="tools">
<polygon fill="#ffffff" stroke="#000000" points="213,-324 159,-324 159,-288 213,-288 213,-324"/>
<text text-anchor="middle" x="186" y="-303" font-family="Helvetica,sans-Serif" font-size="10.00" fill="#000000">tools</text>
</a>
</g>
</g>
<!-- dir_f36c334ff05235533ccb10eb3ed2c536&#45;&gt;dir_1d6185dd805f366873cb3262e4c61812 -->
<g id="edge7" class="edge">
<title>dir_f36c334ff05235533ccb10eb3ed2c536&#45;&gt;dir_1d6185dd805f366873cb3262e4c61812</title>
<path fill="none" stroke="#000000" d="M180.0187,-359.8314C180.8743,-352.131 181.8917,-342.9743 182.8426,-334.4166"/>
<polygon fill="#000000" stroke="#000000" points="186.3283,-334.7386 183.9541,-324.4133 179.3711,-333.9656 186.3283,-334.7386"/>
<g id="a_edge7&#45;headlabel"><a xlink:href="dir_000009_000010.html" target="_top" xlink:title="1">
<text text-anchor="middle" x="188.7533" y="-335.6248" font-family="Helvetica,sans-Serif" font-size="10.00" fill="#000000">1</text>
</a>
</g>
</g>
<!-- dir_1aad51cdd65d34080d064657015a76b5 -->
<g id="node3" class="node">
<title>dir_1aad51cdd65d34080d064657015a76b5</title>
<g id="a_node3"><a xlink:href="dir_1aad51cdd65d34080d064657015a76b5.html" target="_top" xlink:title="math">
<polygon fill="#ffffff" stroke="#ff0000" points="120,-180 66,-180 66,-144 120,-144 120,-180"/>
<text text-anchor="middle" x="93" y="-159" font-family="Helvetica,sans-Serif" font-size="10.00" fill="#000000">math</text>
</a>
</g>
</g>
<!-- dir_f36c334ff05235533ccb10eb3ed2c536&#45;&gt;dir_1aad51cdd65d34080d064657015a76b5 -->
<g id="edge3" class="edge">
<title>dir_f36c334ff05235533ccb10eb3ed2c536&#45;&gt;dir_1aad51cdd65d34080d064657015a76b5</title>
<path fill="none" stroke="#000000" d="M160.2685,-359.9114C139.3477,-337.0507 106.0149,-295.4173 95,-252 89.8836,-231.833 89.5476,-208.3026 90.4038,-190.3605"/>
<polygon fill="#000000" stroke="#000000" points="93.905,-190.4507 91.0386,-180.251 86.9187,-190.012 93.905,-190.4507"/>
<g id="a_edge3&#45;headlabel"><a xlink:href="dir_000009_000006.html" target="_top" xlink:title="8">
<text text-anchor="middle" x="96.5135" y="-191.2162" font-family="Helvetica,sans-Serif" font-size="10.00" fill="#000000">8</text>
</a>
</g>
</g>
<!-- dir_23e8e5da5c699a1331d75b73108c17fc -->
<g id="node4" class="node">
<title>dir_23e8e5da5c699a1331d75b73108c17fc</title>
<g id="a_node4"><a xlink:href="dir_23e8e5da5c699a1331d75b73108c17fc.html" target="_top" xlink:title="config">
<polygon fill="none" stroke="#000000" points="184,-108 130,-108 130,-72 184,-72 184,-108"/>
<text text-anchor="middle" x="157" y="-87" font-family="Helvetica,sans-Serif" font-size="10.00" fill="#000000">config</text>
</a>
</g>
</g>
<!-- dir_f36c334ff05235533ccb10eb3ed2c536&#45;&gt;dir_23e8e5da5c699a1331d75b73108c17fc -->
<g id="edge4" class="edge">
<title>dir_f36c334ff05235533ccb10eb3ed2c536&#45;&gt;dir_23e8e5da5c699a1331d75b73108c17fc</title>
<path fill="none" stroke="#000000" d="M198.4026,-359.5625C207.4941,-349.9675 217.2162,-337.4441 222,-324 229.7477,-302.2262 225.6484,-294.8213 222,-272 212.8496,-214.7633 186.4481,-151.894 170.2458,-117.06"/>
<polygon fill="#000000" stroke="#000000" points="173.4051,-115.5535 165.9693,-108.0065 167.0757,-118.5434 173.4051,-115.5535"/>
<g id="a_edge4&#45;headlabel"><a xlink:href="dir_000009_000002.html" target="_top" xlink:title="8">
<text text-anchor="middle" x="177.5076" y="-114.5911" font-family="Helvetica,sans-Serif" font-size="10.00" fill="#000000">8</text>
</a>
</g>
</g>
<!-- dir_c62272c95897103f1c0ae919532aa8bc -->
<g id="node5" class="node">
<title>dir_c62272c95897103f1c0ae919532aa8bc</title>
<g id="a_node5"><a xlink:href="dir_c62272c95897103f1c0ae919532aa8bc.html" target="_top" xlink:title="io">
<polygon fill="none" stroke="#000000" points="158,-252 104,-252 104,-216 158,-216 158,-252"/>
<text text-anchor="middle" x="131" y="-231" font-family="Helvetica,sans-Serif" font-size="10.00" fill="#000000">io</text>
</a>
</g>
</g>
<!-- dir_f36c334ff05235533ccb10eb3ed2c536&#45;&gt;dir_c62272c95897103f1c0ae919532aa8bc -->
<g id="edge5" class="edge">
<title>dir_f36c334ff05235533ccb10eb3ed2c536&#45;&gt;dir_c62272c95897103f1c0ae919532aa8bc</title>
<path fill="none" stroke="#000000" d="M166.8586,-359.5702C161.1135,-349.3859 154.4065,-336.3312 150,-324 142.8125,-303.8866 137.9491,-280.2232 134.9431,-262.2096"/>
<polygon fill="#000000" stroke="#000000" points="138.3996,-261.6585 133.3844,-252.3259 131.485,-262.749 138.3996,-261.6585"/>
<g id="a_edge5&#45;headlabel"><a xlink:href="dir_000009_000004.html" target="_top" xlink:title="4">
<text text-anchor="middle" x="141.7641" y="-261.767" font-family="Helvetica,sans-Serif" font-size="10.00" fill="#000000">4</text>
</a>
</g>
</g>
<!-- dir_3387936ac018e251c9001f4c9b392951 -->
<g id="node6" class="node">
<title>dir_3387936ac018e251c9001f4c9b392951</title>
<g id="a_node6"><a xlink:href="dir_3387936ac018e251c9001f4c9b392951.html" target="_top" xlink:title="parallelization">
<polygon fill="none" stroke="#000000" points="131.6476,-36 54.3524,-36 54.3524,0 131.6476,0 131.6476,-36"/>
<text text-anchor="middle" x="93" y="-15" font-family="Helvetica,sans-Serif" font-size="10.00" fill="#000000">parallelization</text>
</a>
</g>
</g>
<!-- dir_f36c334ff05235533ccb10eb3ed2c536&#45;&gt;dir_3387936ac018e251c9001f4c9b392951 -->
<g id="edge6" class="edge">
<title>dir_f36c334ff05235533ccb10eb3ed2c536&#45;&gt;dir_3387936ac018e251c9001f4c9b392951</title>
<path fill="none" stroke="#000000" d="M142.8329,-367.2947C90.9583,-349.0691 0,-306.7406 0,-234 0,-234 0,-234 0,-162 0,-114.1228 36.7266,-69.5525 64.0204,-43.04"/>
<polygon fill="#000000" stroke="#000000" points="66.5556,-45.4601 71.4302,-36.0532 61.7533,-40.3671 66.5556,-45.4601"/>
<g id="a_edge6&#45;headlabel"><a xlink:href="dir_000009_000011.html" target="_top" xlink:title="8">
<text text-anchor="middle" x="65.8881" y="-46.9918" font-family="Helvetica,sans-Serif" font-size="10.00" fill="#000000">8</text>
</a>
</g>
</g>
<!-- dir_1d6185dd805f366873cb3262e4c61812&#45;&gt;dir_23e8e5da5c699a1331d75b73108c17fc -->
<g id="edge14" class="edge">
<title>dir_1d6185dd805f366873cb3262e4c61812&#45;&gt;dir_23e8e5da5c699a1331d75b73108c17fc</title>
<path fill="none" stroke="#000000" d="M183.5774,-287.9555C178.5237,-250.3144 166.826,-163.1867 160.776,-118.1246"/>
<polygon fill="#000000" stroke="#000000" points="164.2358,-117.5904 159.4361,-108.1451 157.298,-118.5219 164.2358,-117.5904"/>
<g id="a_edge14&#45;headlabel"><a xlink:href="dir_000010_000002.html" target="_top" xlink:title="1">
<text text-anchor="middle" x="167.528" y="-117.7753" font-family="Helvetica,sans-Serif" font-size="10.00" fill="#000000">1</text>
</a>
</g>
</g>
<!-- dir_1d6185dd805f366873cb3262e4c61812&#45;&gt;dir_c62272c95897103f1c0ae919532aa8bc -->
<g id="edge15" class="edge">
<title>dir_1d6185dd805f366873cb3262e4c61812&#45;&gt;dir_c62272c95897103f1c0ae919532aa8bc</title>
<path fill="none" stroke="#000000" d="M172.1212,-287.8314C165.7864,-279.5386 158.1616,-269.557 151.2074,-260.4533"/>
<polygon fill="#000000" stroke="#000000" points="153.9175,-258.2353 145.0657,-252.4133 148.3548,-262.4847 153.9175,-258.2353"/>
<g id="a_edge15&#45;headlabel"><a xlink:href="dir_000010_000004.html" target="_top" xlink:title="1">
<text text-anchor="middle" x="158.3558" y="-256.3683" font-family="Helvetica,sans-Serif" font-size="10.00" fill="#000000">1</text>
</a>
</g>
</g>
<!-- dir_1d6185dd805f366873cb3262e4c61812&#45;&gt;dir_3387936ac018e251c9001f4c9b392951 -->
<g id="edge16" class="edge">
<title>dir_1d6185dd805f366873cb3262e4c61812&#45;&gt;dir_3387936ac018e251c9001f4c9b392951</title>
<path fill="none" stroke="#000000" d="M192.6255,-287.9535C206.6668,-246.4007 234.8492,-142.1595 193,-72 181.6211,-52.9235 160.9114,-40.1822 141.2781,-31.8933"/>
<polygon fill="#000000" stroke="#000000" points="142.3598,-28.5582 131.7719,-28.1736 139.809,-35.077 142.3598,-28.5582"/>
<g id="a_edge16&#45;headlabel"><a xlink:href="dir_000010_000011.html" target="_top" xlink:title="1">
<text text-anchor="middle" x="146.7418" y="-24.2239" font-family="Helvetica,sans-Serif" font-size="10.00" fill="#000000">1</text>
</a>
</g>
</g>
<!-- dir_1aad51cdd65d34080d064657015a76b5&#45;&gt;dir_23e8e5da5c699a1331d75b73108c17fc -->
<g id="edge1" class="edge">
<title>dir_1aad51cdd65d34080d064657015a76b5&#45;&gt;dir_23e8e5da5c699a1331d75b73108c17fc</title>
<path fill="none" stroke="#000000" d="M109.1499,-143.8314C116.6717,-135.3694 125.7565,-125.1489 133.9804,-115.8971"/>
<polygon fill="#000000" stroke="#000000" points="136.6049,-118.2127 140.6327,-108.4133 131.373,-113.5621 136.6049,-118.2127"/>
<g id="a_edge1&#45;headlabel"><a xlink:href="dir_000006_000002.html" target="_top" xlink:title="1">
<text text-anchor="middle" x="136.3389" y="-119.7856" font-family="Helvetica,sans-Serif" font-size="10.00" fill="#000000">1</text>
</a>
</g>
</g>
<!-- dir_1aad51cdd65d34080d064657015a76b5&#45;&gt;dir_3387936ac018e251c9001f4c9b392951 -->
<g id="edge2" class="edge">
<title>dir_1aad51cdd65d34080d064657015a76b5&#45;&gt;dir_3387936ac018e251c9001f4c9b392951</title>
<path fill="none" stroke="#000000" d="M88.3268,-143.7623C85.867,-119.201 85.5923,-75.2474 87.5026,-46.3541"/>
<polygon fill="#000000" stroke="#000000" points="91.0152,-46.3416 88.3417,-36.0896 84.0385,-45.7712 91.0152,-46.3416"/>
<g id="a_edge2&#45;headlabel"><a xlink:href="dir_000006_000011.html" target="_top" xlink:title="3">
<text text-anchor="middle" x="93.5522" y="-47.1556" font-family="Helvetica,sans-Serif" font-size="10.00" fill="#000000">3</text>
</a>
</g>
</g>
<!-- dir_23e8e5da5c699a1331d75b73108c17fc&#45;&gt;dir_3387936ac018e251c9001f4c9b392951 -->
<g id="edge8" class="edge">
<title>dir_23e8e5da5c699a1331d75b73108c17fc&#45;&gt;dir_3387936ac018e251c9001f4c9b392951</title>
<path fill="none" stroke="#000000" d="M134.8977,-71.8314C126.6348,-63.454 117.4665,-53.3531 109.7452,-44.1749"/>
<polygon fill="#000000" stroke="#000000" points="112.4341,-41.9341 103.3913,-36.4133 107.0175,-46.3683 112.4341,-41.9341"/>
<g id="a_edge8&#45;headlabel"><a xlink:href="dir_000002_000011.html" target="_top" xlink:title="2">
<text text-anchor="middle" x="116.908" y="-39.9171" font-family="Helvetica,sans-Serif" font-size="10.00" fill="#000000">2</text>
</a>
</g>
</g>
<!-- dir_c62272c95897103f1c0ae919532aa8bc&#45;&gt;dir_1aad51cdd65d34080d064657015a76b5 -->
<g id="edge9" class="edge">
<title>dir_c62272c95897103f1c0ae919532aa8bc&#45;&gt;dir_1aad51cdd65d34080d064657015a76b5</title>
<path fill="none" stroke="#000000" d="M121.411,-215.8314C117.1683,-207.7925 112.0879,-198.1666 107.404,-189.2918"/>
<polygon fill="#000000" stroke="#000000" points="110.4811,-187.6235 102.7181,-180.4133 104.2904,-190.8908 110.4811,-187.6235"/>
<g id="a_edge9&#45;headlabel"><a xlink:href="dir_000004_000006.html" target="_top" xlink:title="2">
<text text-anchor="middle" x="114.6699" y="-186.4772" font-family="Helvetica,sans-Serif" font-size="10.00" fill="#000000">2</text>
</a>
</g>
</g>
<!-- dir_c62272c95897103f1c0ae919532aa8bc&#45;&gt;dir_23e8e5da5c699a1331d75b73108c17fc -->
<g id="edge10" class="edge">
<title>dir_c62272c95897103f1c0ae919532aa8bc&#45;&gt;dir_23e8e5da5c699a1331d75b73108c17fc</title>
<path fill="none" stroke="#000000" d="M134.2929,-215.7623C138.7471,-191.0928 146.7337,-146.8598 151.9493,-117.9731"/>
<polygon fill="#000000" stroke="#000000" points="155.4012,-118.5524 153.7338,-108.0896 148.5126,-117.3086 155.4012,-118.5524"/>
<g id="a_edge10&#45;headlabel"><a xlink:href="dir_000004_000002.html" target="_top" xlink:title="2">
<text text-anchor="middle" x="157.5567" y="-119.5943" font-family="Helvetica,sans-Serif" font-size="10.00" fill="#000000">2</text>
</a>
</g>
</g>
<!-- dir_c62272c95897103f1c0ae919532aa8bc&#45;&gt;dir_3387936ac018e251c9001f4c9b392951 -->
<g id="edge11" class="edge">
<title>dir_c62272c95897103f1c0ae919532aa8bc&#45;&gt;dir_3387936ac018e251c9001f4c9b392951</title>
<path fill="none" stroke="#000000" d="M103.9239,-222.2385C87.0719,-213.3174 66.7996,-199.2824 57,-180 34.6285,-135.9802 58.3468,-78.2923 76.4695,-44.9671"/>
<polygon fill="#000000" stroke="#000000" points="79.5247,-46.6747 81.3898,-36.2453 73.4279,-43.2353 79.5247,-46.6747"/>
<g id="a_edge11&#45;headlabel"><a xlink:href="dir_000004_000011.html" target="_top" xlink:title="3">
<text text-anchor="middle" x="80.2315" y="-48.2005" font-family="Helvetica,sans-Serif" font-size="10.00" fill="#000000">3</text>
</a>
</g>
</g>
<!-- dir_3387936ac018e251c9001f4c9b392951&#45;&gt;dir_1aad51cdd65d34080d064657015a76b5 -->
<g id="edge12" class="edge">
<title>dir_3387936ac018e251c9001f4c9b392951&#45;&gt;dir_1aad51cdd65d34080d064657015a76b5</title>
<path fill="none" stroke="#000000" d="M97.6583,-36.0896C100.1269,-60.5727 100.4104,-104.5174 98.5089,-133.4713"/>
<polygon fill="#000000" stroke="#000000" points="94.9942,-133.5118 97.6732,-143.7623 101.9712,-134.0785 94.9942,-133.5118"/>
<g id="a_edge12&#45;headlabel"><a xlink:href="dir_000011_000006.html" target="_top" xlink:title="1">
<text text-anchor="middle" x="92.4551" y="-126.6992" font-family="Helvetica,sans-Serif" font-size="10.00" fill="#000000">1</text>
</a>
</g>
</g>
<!-- dir_3387936ac018e251c9001f4c9b392951&#45;&gt;dir_23e8e5da5c699a1331d75b73108c17fc -->
<g id="edge13" class="edge">
<title>dir_3387936ac018e251c9001f4c9b392951&#45;&gt;dir_23e8e5da5c699a1331d75b73108c17fc</title>
<path fill="none" stroke="#000000" d="M115.3434,-36.4133C123.54,-44.7389 132.6014,-54.7282 140.2458,-63.8144"/>
<polygon fill="#000000" stroke="#000000" points="137.7623,-66.3063 146.8025,-71.8314 143.1809,-61.8747 137.7623,-66.3063"/>
<g id="a_edge13&#45;headlabel"><a xlink:href="dir_000011_000002.html" target="_top" xlink:title="1">
<text text-anchor="middle" x="133.2888" y="-62.3213" font-family="Helvetica,sans-Serif" font-size="10.00" fill="#000000">1</text>
</a>
</g>
</g>
</g>
</svg>
