<?xml version="1.0" encoding="UTF-8" standalone="no"?>
<!DOCTYPE svg PUBLIC "-//W3C//DTD SVG 1.1//EN"
 "http://www.w3.org/Graphics/SVG/1.1/DTD/svg11.dtd">
<!-- Generated by graphviz version 2.40.1 (20161225.0304)
 -->
<!-- Title: GLAC/flow Pages: 1 -->
<svg width="147pt" height="366pt"
 viewBox="0.00 0.00 146.56 366.00" xmlns="http://www.w3.org/2000/svg" xmlns:xlink="http://www.w3.org/1999/xlink">
<g id="graph0" class="graph" transform="scale(1 1) rotate(0) translate(4 362)">
<title>GLAC/flow</title>
<polygon fill="#ffffff" stroke="transparent" points="-4,4 -4,-362 142.5622,-362 142.5622,4 -4,4"/>
<g id="clust1" class="cluster">
<title>clusterdir_f53e42b23db04c12898bb6e8f169fcd5</title>
<g id="a_clust1"><a xlink:href="dir_f53e42b23db04c12898bb6e8f169fcd5.html" target="_top" xlink:title="GLAC">
<polygon fill="#ddddee" stroke="#000000" points="30.7954,-280 30.7954,-350 100.7954,-350 100.7954,-280 30.7954,-280"/>
<text text-anchor="middle" x="65.7954" y="-338" font-family="Helvetica,sans-Serif" font-size="10.00" fill="#000000">GLAC</text>
</a>
</g>
</g>
<!-- dir_55024d35fab23d0fe787562c8de1add6 -->
<g id="node1" class="node">
<title>dir_55024d35fab23d0fe787562c8de1add6</title>
<g id="a_node1"><a xlink:href="dir_55024d35fab23d0fe787562c8de1add6.html" target="_top" xlink:title="flow">
<polygon fill="#eeeeff" stroke="#000000" points="92.7954,-324 38.7954,-324 38.7954,-288 92.7954,-288 92.7954,-324"/>
<text text-anchor="middle" x="65.7954" y="-303" font-family="Helvetica,sans-Serif" font-size="10.00" fill="#000000">flow</text>
</a>
</g>
</g>
<!-- dir_1aad51cdd65d34080d064657015a76b5 -->
<g id="node2" class="node">
<title>dir_1aad51cdd65d34080d064657015a76b5</title>
<g id="a_node2"><a xlink:href="dir_1aad51cdd65d34080d064657015a76b5.html" target="_top" xlink:title="math">
<polygon fill="#ffffff" stroke="#ff0000" points="65.7954,-180 11.7954,-180 11.7954,-144 65.7954,-144 65.7954,-180"/>
<text text-anchor="middle" x="38.7954" y="-159" font-family="Helvetica,sans-Serif" font-size="10.00" fill="#000000">math</text>
</a>
</g>
</g>
<!-- dir_55024d35fab23d0fe787562c8de1add6&#45;&gt;dir_1aad51cdd65d34080d064657015a76b5 -->
<g id="edge3" class="edge">
<title>dir_55024d35fab23d0fe787562c8de1add6&#45;&gt;dir_1aad51cdd65d34080d064657015a76b5</title>
<path fill="none" stroke="#000000" d="M62.3758,-287.7623C57.7503,-263.0928 49.4566,-218.8598 44.0404,-189.9731"/>
<polygon fill="#000000" stroke="#000000" points="47.4702,-189.2733 42.1872,-180.0896 40.5901,-190.5634 47.4702,-189.2733"/>
<g id="a_edge3&#45;headlabel"><a xlink:href="dir_000003_000006.html" target="_top" xlink:title="2">
<text text-anchor="middle" x="50.9232" y="-189.2831" font-family="Helvetica,sans-Serif" font-size="10.00" fill="#000000">2</text>
</a>
</g>
</g>
<!-- dir_23e8e5da5c699a1331d75b73108c17fc -->
<g id="node3" class="node">
<title>dir_23e8e5da5c699a1331d75b73108c17fc</title>
<g id="a_node3"><a xlink:href="dir_23e8e5da5c699a1331d75b73108c17fc.html" target="_top" xlink:title="config">
<polygon fill="none" stroke="#000000" points="120.7954,-108 66.7954,-108 66.7954,-72 120.7954,-72 120.7954,-108"/>
<text text-anchor="middle" x="93.7954" y="-87" font-family="Helvetica,sans-Serif" font-size="10.00" fill="#000000">config</text>
</a>
</g>
</g>
<!-- dir_55024d35fab23d0fe787562c8de1add6&#45;&gt;dir_23e8e5da5c699a1331d75b73108c17fc -->
<g id="edge4" class="edge">
<title>dir_55024d35fab23d0fe787562c8de1add6&#45;&gt;dir_23e8e5da5c699a1331d75b73108c17fc</title>
<path fill="none" stroke="#000000" d="M92.9047,-290.9972C106.6997,-281.7409 122.1379,-268.4801 129.7954,-252 150.4585,-207.5299 127.7338,-150.5847 110.1799,-117.4087"/>
<polygon fill="#000000" stroke="#000000" points="113.0643,-115.3904 105.1794,-108.3138 106.9303,-118.7629 113.0643,-115.3904"/>
<g id="a_edge4&#45;headlabel"><a xlink:href="dir_000003_000002.html" target="_top" xlink:title="1">
<text text-anchor="middle" x="117.2841" y="-114.1723" font-family="Helvetica,sans-Serif" font-size="10.00" fill="#000000">1</text>
</a>
</g>
</g>
<!-- dir_3387936ac018e251c9001f4c9b392951 -->
<g id="node4" class="node">
<title>dir_3387936ac018e251c9001f4c9b392951</title>
<g id="a_node4"><a xlink:href="dir_3387936ac018e251c9001f4c9b392951.html" target="_top" xlink:title="parallelization">
<polygon fill="none" stroke="#000000" points="100.443,-36 23.1478,-36 23.1478,0 100.443,0 100.443,-36"/>
<text text-anchor="middle" x="61.7954" y="-15" font-family="Helvetica,sans-Serif" font-size="10.00" fill="#000000">parallelization</text>
</a>
</g>
</g>
<!-- dir_55024d35fab23d0fe787562c8de1add6&#45;&gt;dir_3387936ac018e251c9001f4c9b392951 -->
<g id="edge5" class="edge">
<title>dir_55024d35fab23d0fe787562c8de1add6&#45;&gt;dir_3387936ac018e251c9001f4c9b392951</title>
<path fill="none" stroke="#000000" d="M53.2879,-287.8398C37.8697,-264.2436 12.5164,-221.1787 2.7954,-180 -8.8337,-130.7382 20.6439,-75.871 41.9961,-44.2981"/>
<polygon fill="#000000" stroke="#000000" points="44.91,-46.2384 47.7621,-36.0346 39.1694,-42.2327 44.91,-46.2384"/>
<g id="a_edge5&#45;headlabel"><a xlink:href="dir_000003_000011.html" target="_top" xlink:title="1">
<text text-anchor="middle" x="45.1816" y="-47.811" font-family="Helvetica,sans-Serif" font-size="10.00" fill="#000000">1</text>
</a>
</g>
</g>
<!-- dir_4126959ea49cb7fbd228dcd829336285 -->
<g id="node5" class="node">
<title>dir_4126959ea49cb7fbd228dcd829336285</title>
<g id="a_node5"><a xlink:href="dir_4126959ea49cb7fbd228dcd829336285.html" target="_top" xlink:title="actions">
<polygon fill="none" stroke="#000000" points="120.7954,-252 66.7954,-252 66.7954,-216 120.7954,-216 120.7954,-252"/>
<text text-anchor="middle" x="93.7954" y="-231" font-family="Helvetica,sans-Serif" font-size="10.00" fill="#000000">actions</text>
</a>
</g>
</g>
<!-- dir_55024d35fab23d0fe787562c8de1add6&#45;&gt;dir_4126959ea49cb7fbd228dcd829336285 -->
<g id="edge6" class="edge">
<title>dir_55024d35fab23d0fe787562c8de1add6&#45;&gt;dir_4126959ea49cb7fbd228dcd829336285</title>
<path fill="none" stroke="#000000" d="M72.861,-287.8314C75.9214,-279.9617 79.5733,-270.5712 82.9636,-261.8533"/>
<polygon fill="#000000" stroke="#000000" points="86.2722,-263.0019 86.6347,-252.4133 79.7481,-260.4647 86.2722,-263.0019"/>
<g id="a_edge6&#45;headlabel"><a xlink:href="dir_000003_000001.html" target="_top" xlink:title="1">
<text text-anchor="middle" x="87.6156" y="-264.3812" font-family="Helvetica,sans-Serif" font-size="10.00" fill="#000000">1</text>
</a>
</g>
</g>
<!-- dir_1aad51cdd65d34080d064657015a76b5&#45;&gt;dir_23e8e5da5c699a1331d75b73108c17fc -->
<g id="edge1" class="edge">
<title>dir_1aad51cdd65d34080d064657015a76b5&#45;&gt;dir_23e8e5da5c699a1331d75b73108c17fc</title>
<path fill="none" stroke="#000000" d="M52.6742,-143.8314C59.009,-135.5386 66.6338,-125.557 73.588,-116.4533"/>
<polygon fill="#000000" stroke="#000000" points="76.4406,-118.4847 79.7297,-108.4133 70.8779,-114.2353 76.4406,-118.4847"/>
<g id="a_edge1&#45;headlabel"><a xlink:href="dir_000006_000002.html" target="_top" xlink:title="1">
<text text-anchor="middle" x="76.5149" y="-120.0647" font-family="Helvetica,sans-Serif" font-size="10.00" fill="#000000">1</text>
</a>
</g>
</g>
<!-- dir_1aad51cdd65d34080d064657015a76b5&#45;&gt;dir_3387936ac018e251c9001f4c9b392951 -->
<g id="edge2" class="edge">
<title>dir_1aad51cdd65d34080d064657015a76b5&#45;&gt;dir_3387936ac018e251c9001f4c9b392951</title>
<path fill="none" stroke="#000000" d="M37.0352,-143.7623C38.5048,-119.0928 45.3035,-74.8598 51.8554,-45.9731"/>
<polygon fill="#000000" stroke="#000000" points="55.2969,-46.6324 54.2478,-36.0896 48.4933,-44.9855 55.2969,-46.6324"/>
<g id="a_edge2&#45;headlabel"><a xlink:href="dir_000006_000011.html" target="_top" xlink:title="3">
<text text-anchor="middle" x="57.2108" y="-47.7941" font-family="Helvetica,sans-Serif" font-size="10.00" fill="#000000">3</text>
</a>
</g>
</g>
<!-- dir_23e8e5da5c699a1331d75b73108c17fc&#45;&gt;dir_3387936ac018e251c9001f4c9b392951 -->
<g id="edge7" class="edge">
<title>dir_23e8e5da5c699a1331d75b73108c17fc&#45;&gt;dir_3387936ac018e251c9001f4c9b392951</title>
<path fill="none" stroke="#000000" d="M79.7681,-71.8314C75.5035,-63.9617 71.1161,-54.5712 67.5807,-45.8533"/>
<polygon fill="#000000" stroke="#000000" points="70.8198,-44.5239 64.0031,-36.4133 64.2741,-47.0046 70.8198,-44.5239"/>
<g id="a_edge7&#45;headlabel"><a xlink:href="dir_000002_000011.html" target="_top" xlink:title="2">
<text text-anchor="middle" x="74.7487" y="-43.879" font-family="Helvetica,sans-Serif" font-size="10.00" fill="#000000">2</text>
</a>
</g>
</g>
<!-- dir_3387936ac018e251c9001f4c9b392951&#45;&gt;dir_1aad51cdd65d34080d064657015a76b5 -->
<g id="edge8" class="edge">
<title>dir_3387936ac018e251c9001f4c9b392951&#45;&gt;dir_1aad51cdd65d34080d064657015a76b5</title>
<path fill="none" stroke="#000000" d="M63.5644,-36.0896C62.1162,-60.6805 55.3276,-104.905 48.7748,-133.8531"/>
<polygon fill="#000000" stroke="#000000" points="45.3271,-133.2201 46.3815,-143.7623 52.1315,-134.8635 45.3271,-133.2201"/>
<g id="a_edge8&#45;headlabel"><a xlink:href="dir_000011_000006.html" target="_top" xlink:title="1">
<text text-anchor="middle" x="43.411" y="-126.0594" font-family="Helvetica,sans-Serif" font-size="10.00" fill="#000000">1</text>
</a>
</g>
</g>
<!-- dir_3387936ac018e251c9001f4c9b392951&#45;&gt;dir_23e8e5da5c699a1331d75b73108c17fc -->
<g id="edge9" class="edge">
<title>dir_3387936ac018e251c9001f4c9b392951&#45;&gt;dir_23e8e5da5c699a1331d75b73108c17fc</title>
<path fill="none" stroke="#000000" d="M75.9551,-36.4133C80.2221,-44.3141 84.6019,-53.7132 88.1196,-62.417"/>
<polygon fill="#000000" stroke="#000000" points="84.8671,-63.7115 91.6729,-71.8314 91.4161,-61.2396 84.8671,-63.7115"/>
<g id="a_edge9&#45;headlabel"><a xlink:href="dir_000011_000002.html" target="_top" xlink:title="1">
<text text-anchor="middle" x="80.9415" y="-58.351" font-family="Helvetica,sans-Serif" font-size="10.00" fill="#000000">1</text>
</a>
</g>
</g>
<!-- dir_4126959ea49cb7fbd228dcd829336285&#45;&gt;dir_1aad51cdd65d34080d064657015a76b5 -->
<g id="edge10" class="edge">
<title>dir_4126959ea49cb7fbd228dcd829336285&#45;&gt;dir_1aad51cdd65d34080d064657015a76b5</title>
<path fill="none" stroke="#000000" d="M79.9166,-215.8314C73.5819,-207.5386 65.957,-197.557 59.0028,-188.4533"/>
<polygon fill="#000000" stroke="#000000" points="61.7129,-186.2353 52.8611,-180.4133 56.1502,-190.4847 61.7129,-186.2353"/>
<g id="a_edge10&#45;headlabel"><a xlink:href="dir_000001_000006.html" target="_top" xlink:title="3">
<text text-anchor="middle" x="66.1512" y="-184.3683" font-family="Helvetica,sans-Serif" font-size="10.00" fill="#000000">3</text>
</a>
</g>
</g>
<!-- dir_4126959ea49cb7fbd228dcd829336285&#45;&gt;dir_23e8e5da5c699a1331d75b73108c17fc -->
<g id="edge11" class="edge">
<title>dir_4126959ea49cb7fbd228dcd829336285&#45;&gt;dir_23e8e5da5c699a1331d75b73108c17fc</title>
<path fill="none" stroke="#000000" d="M93.7954,-215.7623C93.7954,-191.201 93.7954,-147.2474 93.7954,-118.3541"/>
<polygon fill="#000000" stroke="#000000" points="97.2955,-118.0896 93.7954,-108.0896 90.2955,-118.0897 97.2955,-118.0896"/>
<g id="a_edge11&#45;headlabel"><a xlink:href="dir_000001_000002.html" target="_top" xlink:title="3">
<text text-anchor="middle" x="100.1347" y="-118.6842" font-family="Helvetica,sans-Serif" font-size="10.00" fill="#000000">3</text>
</a>
</g>
</g>
<!-- dir_4126959ea49cb7fbd228dcd829336285&#45;&gt;dir_3387936ac018e251c9001f4c9b392951 -->
<g id="edge12" class="edge">
<title>dir_4126959ea49cb7fbd228dcd829336285&#45;&gt;dir_3387936ac018e251c9001f4c9b392951</title>
<path fill="none" stroke="#000000" d="M105.1939,-215.8596C123.0536,-184.9373 153.2841,-120.6469 129.7954,-72 124.106,-60.2168 114.4577,-50.2163 104.1889,-42.144"/>
<polygon fill="#000000" stroke="#000000" points="106.0261,-39.152 95.8844,-36.0865 101.9009,-44.8073 106.0261,-39.152"/>
<g id="a_edge12&#45;headlabel"><a xlink:href="dir_000001_000011.html" target="_top" xlink:title="2">
<text text-anchor="middle" x="110.6034" y="-35.9764" font-family="Helvetica,sans-Serif" font-size="10.00" fill="#000000">2</text>
</a>
</g>
</g>
</g>
</svg>
