<?xml version="1.0" encoding="UTF-8" standalone="no"?>
<!DOCTYPE svg PUBLIC "-//W3C//DTD SVG 1.1//EN"
 "http://www.w3.org/Graphics/SVG/1.1/DTD/svg11.dtd">
<!-- Generated by graphviz version 2.40.1 (20161225.0304)
 -->
<!-- Title: GLAC/io Pages: 1 -->
<svg width="138pt" height="294pt"
 viewBox="0.00 0.00 137.57 294.00" xmlns="http://www.w3.org/2000/svg" xmlns:xlink="http://www.w3.org/1999/xlink">
<g id="graph0" class="graph" transform="scale(1 1) rotate(0) translate(4 290)">
<title>GLAC/io</title>
<polygon fill="#ffffff" stroke="transparent" points="-4,4 -4,-290 133.5737,-290 133.5737,4 -4,4"/>
<g id="clust1" class="cluster">
<title>clusterdir_f53e42b23db04c12898bb6e8f169fcd5</title>
<g id="a_clust1"><a xlink:href="dir_f53e42b23db04c12898bb6e8f169fcd5.html" target="_top" xlink:title="GLAC">
<polygon fill="#ddddee" stroke="#000000" points="48,-208 48,-278 118,-278 118,-208 48,-208"/>
<text text-anchor="middle" x="83" y="-266" font-family="Helvetica,sans-Serif" font-size="10.00" fill="#000000">GLAC</text>
</a>
</g>
</g>
<!-- dir_c62272c95897103f1c0ae919532aa8bc -->
<g id="node1" class="node">
<title>dir_c62272c95897103f1c0ae919532aa8bc</title>
<g id="a_node1"><a xlink:href="dir_c62272c95897103f1c0ae919532aa8bc.html" target="_top" xlink:title="io">
<polygon fill="#eeeeff" stroke="#000000" points="110,-252 56,-252 56,-216 110,-216 110,-252"/>
<text text-anchor="middle" x="83" y="-231" font-family="Helvetica,sans-Serif" font-size="10.00" fill="#000000">io</text>
</a>
</g>
</g>
<!-- dir_1aad51cdd65d34080d064657015a76b5 -->
<g id="node2" class="node">
<title>dir_1aad51cdd65d34080d064657015a76b5</title>
<g id="a_node2"><a xlink:href="dir_1aad51cdd65d34080d064657015a76b5.html" target="_top" xlink:title="math">
<polygon fill="#ffffff" stroke="#ff0000" points="110,-180 56,-180 56,-144 110,-144 110,-180"/>
<text text-anchor="middle" x="83" y="-159" font-family="Helvetica,sans-Serif" font-size="10.00" fill="#000000">math</text>
</a>
</g>
</g>
<!-- dir_c62272c95897103f1c0ae919532aa8bc&#45;&gt;dir_1aad51cdd65d34080d064657015a76b5 -->
<g id="edge4" class="edge">
<title>dir_c62272c95897103f1c0ae919532aa8bc&#45;&gt;dir_1aad51cdd65d34080d064657015a76b5</title>
<path fill="none" stroke="#000000" d="M83,-215.8314C83,-208.131 83,-198.9743 83,-190.4166"/>
<polygon fill="#000000" stroke="#000000" points="86.5001,-190.4132 83,-180.4133 79.5001,-190.4133 86.5001,-190.4132"/>
<g id="a_edge4&#45;headlabel"><a xlink:href="dir_000004_000006.html" target="_top" xlink:title="2">
<text text-anchor="middle" x="89.3393" y="-191.0079" font-family="Helvetica,sans-Serif" font-size="10.00" fill="#000000">2</text>
</a>
</g>
</g>
<!-- dir_23e8e5da5c699a1331d75b73108c17fc -->
<g id="node3" class="node">
<title>dir_23e8e5da5c699a1331d75b73108c17fc</title>
<g id="a_node3"><a xlink:href="dir_23e8e5da5c699a1331d75b73108c17fc.html" target="_top" xlink:title="config">
<polygon fill="none" stroke="#000000" points="54,-108 0,-108 0,-72 54,-72 54,-108"/>
<text text-anchor="middle" x="27" y="-87" font-family="Helvetica,sans-Serif" font-size="10.00" fill="#000000">config</text>
</a>
</g>
</g>
<!-- dir_c62272c95897103f1c0ae919532aa8bc&#45;&gt;dir_23e8e5da5c699a1331d75b73108c17fc -->
<g id="edge5" class="edge">
<title>dir_c62272c95897103f1c0ae919532aa8bc&#45;&gt;dir_23e8e5da5c699a1331d75b73108c17fc</title>
<path fill="none" stroke="#000000" d="M68.5303,-215.9844C61.1013,-205.9214 52.4837,-192.8504 47,-180 38.545,-160.1866 33.4523,-136.3311 30.5234,-118.1598"/>
<polygon fill="#000000" stroke="#000000" points="33.9738,-117.567 29.0399,-108.1912 27.0501,-118.5974 33.9738,-117.567"/>
<g id="a_edge5&#45;headlabel"><a xlink:href="dir_000004_000002.html" target="_top" xlink:title="2">
<text text-anchor="middle" x="37.3112" y="-117.7046" font-family="Helvetica,sans-Serif" font-size="10.00" fill="#000000">2</text>
</a>
</g>
</g>
<!-- dir_3387936ac018e251c9001f4c9b392951 -->
<g id="node4" class="node">
<title>dir_3387936ac018e251c9001f4c9b392951</title>
<g id="a_node4"><a xlink:href="dir_3387936ac018e251c9001f4c9b392951.html" target="_top" xlink:title="parallelization">
<polygon fill="none" stroke="#000000" points="129.6476,-36 52.3524,-36 52.3524,0 129.6476,0 129.6476,-36"/>
<text text-anchor="middle" x="91" y="-15" font-family="Helvetica,sans-Serif" font-size="10.00" fill="#000000">parallelization</text>
</a>
</g>
</g>
<!-- dir_c62272c95897103f1c0ae919532aa8bc&#45;&gt;dir_3387936ac018e251c9001f4c9b392951 -->
<g id="edge6" class="edge">
<title>dir_c62272c95897103f1c0ae919532aa8bc&#45;&gt;dir_3387936ac018e251c9001f4c9b392951</title>
<path fill="none" stroke="#000000" d="M98.9905,-215.9169C106.6538,-206.0371 115.0166,-193.1563 119,-180 132.9418,-133.9532 116.3843,-78.3096 103.4473,-45.6709"/>
<polygon fill="#000000" stroke="#000000" points="106.6368,-44.2247 99.5863,-36.3164 100.1663,-46.8953 106.6368,-44.2247"/>
<g id="a_edge6&#45;headlabel"><a xlink:href="dir_000004_000011.html" target="_top" xlink:title="3">
<text text-anchor="middle" x="110.6327" y="-43.4642" font-family="Helvetica,sans-Serif" font-size="10.00" fill="#000000">3</text>
</a>
</g>
</g>
<!-- dir_1aad51cdd65d34080d064657015a76b5&#45;&gt;dir_23e8e5da5c699a1331d75b73108c17fc -->
<g id="edge1" class="edge">
<title>dir_1aad51cdd65d34080d064657015a76b5&#45;&gt;dir_23e8e5da5c699a1331d75b73108c17fc</title>
<path fill="none" stroke="#000000" d="M68.8688,-143.8314C62.4189,-135.5386 54.6555,-125.557 47.5748,-116.4533"/>
<polygon fill="#000000" stroke="#000000" points="50.2236,-114.158 41.3214,-108.4133 44.6981,-118.4556 50.2236,-114.158"/>
<g id="a_edge1&#45;headlabel"><a xlink:href="dir_000006_000002.html" target="_top" xlink:title="1">
<text text-anchor="middle" x="54.6716" y="-112.2523" font-family="Helvetica,sans-Serif" font-size="10.00" fill="#000000">1</text>
</a>
</g>
</g>
<!-- dir_1aad51cdd65d34080d064657015a76b5&#45;&gt;dir_3387936ac018e251c9001f4c9b392951 -->
<g id="edge2" class="edge">
<title>dir_1aad51cdd65d34080d064657015a76b5&#45;&gt;dir_3387936ac018e251c9001f4c9b392951</title>
<path fill="none" stroke="#000000" d="M79.34,-143.7623C78.2447,-119.201 80.4119,-75.2474 83.9274,-46.3541"/>
<polygon fill="#000000" stroke="#000000" points="87.4438,-46.4728 85.3367,-36.0896 80.5089,-45.5205 87.4438,-46.4728"/>
<g id="a_edge2&#45;headlabel"><a xlink:href="dir_000006_000011.html" target="_top" xlink:title="3">
<text text-anchor="middle" x="89.7678" y="-47.4202" font-family="Helvetica,sans-Serif" font-size="10.00" fill="#000000">3</text>
</a>
</g>
</g>
<!-- dir_23e8e5da5c699a1331d75b73108c17fc&#45;&gt;dir_3387936ac018e251c9001f4c9b392951 -->
<g id="edge3" class="edge">
<title>dir_23e8e5da5c699a1331d75b73108c17fc&#45;&gt;dir_3387936ac018e251c9001f4c9b392951</title>
<path fill="none" stroke="#000000" d="M37.1975,-71.8314C43.8946,-63.3694 52.7943,-53.1489 61.4724,-43.8971"/>
<polygon fill="#000000" stroke="#000000" points="64.2563,-46.0511 68.6566,-36.4133 59.2065,-41.2034 64.2563,-46.0511"/>
<g id="a_edge3&#45;headlabel"><a xlink:href="dir_000002_000011.html" target="_top" xlink:title="2">
<text text-anchor="middle" x="63.8152" y="-47.6105" font-family="Helvetica,sans-Serif" font-size="10.00" fill="#000000">2</text>
</a>
</g>
</g>
<!-- dir_3387936ac018e251c9001f4c9b392951&#45;&gt;dir_1aad51cdd65d34080d064657015a76b5 -->
<g id="edge7" class="edge">
<title>dir_3387936ac018e251c9001f4c9b392951&#45;&gt;dir_1aad51cdd65d34080d064657015a76b5</title>
<path fill="none" stroke="#000000" d="M94.6533,-36.0896C95.7666,-60.6805 93.5848,-104.905 90.0474,-133.8531"/>
<polygon fill="#000000" stroke="#000000" points="86.5797,-133.379 88.6864,-143.7623 93.5146,-134.3316 86.5797,-133.379"/>
<g id="a_edge7&#45;headlabel"><a xlink:href="dir_000011_000006.html" target="_top" xlink:title="1">
<text text-anchor="middle" x="84.2559" y="-126.4315" font-family="Helvetica,sans-Serif" font-size="10.00" fill="#000000">1</text>
</a>
</g>
</g>
<!-- dir_3387936ac018e251c9001f4c9b392951&#45;&gt;dir_23e8e5da5c699a1331d75b73108c17fc -->
<g id="edge8" class="edge">
<title>dir_3387936ac018e251c9001f4c9b392951&#45;&gt;dir_23e8e5da5c699a1331d75b73108c17fc</title>
<path fill="none" stroke="#000000" d="M80.6087,-36.4133C73.8694,-44.9088 64.9509,-55.1366 56.2773,-64.3696"/>
<polygon fill="#000000" stroke="#000000" points="53.5106,-62.1972 49.1023,-71.8314 58.5564,-67.049 53.5106,-62.1972"/>
<g id="a_edge8&#45;headlabel"><a xlink:href="dir_000011_000002.html" target="_top" xlink:title="1">
<text text-anchor="middle" x="53.9555" y="-54.6382" font-family="Helvetica,sans-Serif" font-size="10.00" fill="#000000">1</text>
</a>
</g>
</g>
</g>
</svg>
