<?xml version="1.0" encoding="UTF-8" standalone="no"?>
<!DOCTYPE svg PUBLIC "-//W3C//DTD SVG 1.1//EN"
 "http://www.w3.org/Graphics/SVG/1.1/DTD/svg11.dtd">
<!-- Generated by graphviz version 2.40.1 (20161225.0304)
 -->
<!-- Title: GluonicLQCD Pages: 1 -->
<svg width="346pt" height="508pt"
 viewBox="0.00 0.00 346.00 508.00" xmlns="http://www.w3.org/2000/svg" xmlns:xlink="http://www.w3.org/1999/xlink">
<g id="graph0" class="graph" transform="scale(1 1) rotate(0) translate(4 504)">
<title>GluonicLQCD</title>
<polygon fill="#ffffff" stroke="transparent" points="-4,4 -4,-504 342,-504 342,4 -4,4"/>
<g id="clust1" class="cluster">
<title>clusterdir_3f09a0a9308f13c2b8951181d225a4cf</title>
<g id="a_clust1"><a xlink:href="dir_3f09a0a9308f13c2b8951181d225a4cf.html" target="_top">
<polygon fill="#eeeeff" stroke="#000000" points="8,-8 8,-492 330,-492 330,-8 8,-8"/>
</a>
</g>
</g>
<!-- dir_3f09a0a9308f13c2b8951181d225a4cf -->
<g id="node1" class="node">
<title>dir_3f09a0a9308f13c2b8951181d225a4cf</title>
<text text-anchor="middle" x="128" y="-463" font-family="Helvetica,sans-Serif" font-size="10.00" fill="#000000">GluonicLQCD</text>
</g>
<!-- dir_d54256f8ed9d1ba4550e8250d483f147 -->
<g id="node4" class="node">
<title>dir_d54256f8ed9d1ba4550e8250d483f147</title>
<g id="a_node4"><a xlink:href="dir_d54256f8ed9d1ba4550e8250d483f147.html" target="_top" xlink:title="flow">
<polygon fill="#ffffff" stroke="#000000" points="262,-340 208,-340 208,-304 262,-304 262,-340"/>
<text text-anchor="middle" x="235" y="-319" font-family="Helvetica,sans-Serif" font-size="10.00" fill="#000000">flow</text>
</a>
</g>
</g>
<!-- dir_3f09a0a9308f13c2b8951181d225a4cf&#45;&gt;dir_d54256f8ed9d1ba4550e8250d483f147 -->
<g id="edge22" class="edge">
<title>dir_3f09a0a9308f13c2b8951181d225a4cf&#45;&gt;dir_d54256f8ed9d1ba4550e8250d483f147</title>
<path fill="none" stroke="#000000" d="M151.3257,-447.8626C162.9574,-438.0651 176.7015,-425.2753 187,-412 201.9738,-392.6979 214.7483,-368.0637 223.3454,-349.4491"/>
<polygon fill="#000000" stroke="#000000" points="226.5398,-350.8795 227.45,-340.3238 220.1558,-348.008 226.5398,-350.8795"/>
<g id="a_edge22&#45;headlabel"><a xlink:href="dir_000000_000003.html" target="_top" xlink:title="1">
<text text-anchor="middle" x="227.6547" y="-352.3224" font-family="Helvetica,sans-Serif" font-size="10.00" fill="#000000">1</text>
</a>
</g>
</g>
<!-- dir_9e75dbcc90935552caaf1cb18df4f8ce -->
<g id="node5" class="node">
<title>dir_9e75dbcc90935552caaf1cb18df4f8ce</title>
<g id="a_node5"><a xlink:href="dir_9e75dbcc90935552caaf1cb18df4f8ce.html" target="_top" xlink:title="io">
<polygon fill="#ffffff" stroke="#000000" points="110,-268 56,-268 56,-232 110,-232 110,-268"/>
<text text-anchor="middle" x="83" y="-247" font-family="Helvetica,sans-Serif" font-size="10.00" fill="#000000">io</text>
</a>
</g>
</g>
<!-- dir_3f09a0a9308f13c2b8951181d225a4cf&#45;&gt;dir_9e75dbcc90935552caaf1cb18df4f8ce -->
<g id="edge23" class="edge">
<title>dir_3f09a0a9308f13c2b8951181d225a4cf&#45;&gt;dir_9e75dbcc90935552caaf1cb18df4f8ce</title>
<path fill="none" stroke="#000000" d="M123.3041,-447.5608C120.7177,-437.151 117.529,-423.8839 115,-412 104.8392,-364.2531 104.7408,-351.8344 95,-304 93.3022,-295.6628 91.3424,-286.6289 89.5052,-278.3789"/>
<polygon fill="#000000" stroke="#000000" points="92.8831,-277.4471 87.2726,-268.4597 86.054,-278.9842 92.8831,-277.4471"/>
<g id="a_edge23&#45;headlabel"><a xlink:href="dir_000000_000004.html" target="_top" xlink:title="6">
<text text-anchor="middle" x="96.4423" y="-277.3305" font-family="Helvetica,sans-Serif" font-size="10.00" fill="#000000">6</text>
</a>
</g>
</g>
<!-- dir_a4d2cabbfa9ce39e497395a7adc9de8f -->
<g id="node8" class="node">
<title>dir_a4d2cabbfa9ce39e497395a7adc9de8f</title>
<g id="a_node8"><a xlink:href="dir_a4d2cabbfa9ce39e497395a7adc9de8f.html" target="_top" xlink:title="observables">
<polygon fill="#ffffff" stroke="#ff0000" points="85.9209,-340 16.0791,-340 16.0791,-304 85.9209,-304 85.9209,-340"/>
<text text-anchor="middle" x="51" y="-319" font-family="Helvetica,sans-Serif" font-size="10.00" fill="#000000">observables</text>
</a>
</g>
</g>
<!-- dir_3f09a0a9308f13c2b8951181d225a4cf&#45;&gt;dir_a4d2cabbfa9ce39e497395a7adc9de8f -->
<g id="edge21" class="edge">
<title>dir_3f09a0a9308f13c2b8951181d225a4cf&#45;&gt;dir_a4d2cabbfa9ce39e497395a7adc9de8f</title>
<path fill="none" stroke="#000000" d="M118.2479,-447.7623C104.9409,-422.8764 80.9884,-378.0822 65.5533,-349.2165"/>
<polygon fill="#000000" stroke="#000000" points="68.4748,-347.2577 60.6729,-340.0896 62.3019,-350.5585 68.4748,-347.2577"/>
<g id="a_edge21&#45;headlabel"><a xlink:href="dir_000000_000009.html" target="_top" xlink:title="3">
<text text-anchor="middle" x="72.6736" y="-346.0887" font-family="Helvetica,sans-Serif" font-size="10.00" fill="#000000">3</text>
</a>
</g>
</g>
<!-- dir_80f6a6728bd800407e006ab7b547c07a -->
<g id="node10" class="node">
<title>dir_80f6a6728bd800407e006ab7b547c07a</title>
<g id="a_node10"><a xlink:href="dir_80f6a6728bd800407e006ab7b547c07a.html" target="_top" xlink:title="tests">
<polygon fill="#ffffff" stroke="#000000" points="178,-412 124,-412 124,-376 178,-376 178,-412"/>
<text text-anchor="middle" x="151" y="-391" font-family="Helvetica,sans-Serif" font-size="10.00" fill="#000000">tests</text>
</a>
</g>
</g>
<!-- dir_3f09a0a9308f13c2b8951181d225a4cf&#45;&gt;dir_80f6a6728bd800407e006ab7b547c07a -->
<g id="edge20" class="edge">
<title>dir_3f09a0a9308f13c2b8951181d225a4cf&#45;&gt;dir_80f6a6728bd800407e006ab7b547c07a</title>
<path fill="none" stroke="#000000" d="M133.8039,-447.8314C136.2908,-440.0463 139.2531,-430.7729 142.0125,-422.1347"/>
<polygon fill="#000000" stroke="#000000" points="145.409,-423.0041 145.118,-412.4133 138.7409,-420.874 145.409,-423.0041"/>
<g id="a_edge20&#45;headlabel"><a xlink:href="dir_000000_000012.html" target="_top" xlink:title="1">
<text text-anchor="middle" x="147.0199" y="-424.2922" font-family="Helvetica,sans-Serif" font-size="10.00" fill="#000000">1</text>
</a>
</g>
</g>
<!-- dir_c02060125093f1f908938da7e8d036d2 -->
<g id="node2" class="node">
<title>dir_c02060125093f1f908938da7e8d036d2</title>
<g id="a_node2"><a xlink:href="dir_c02060125093f1f908938da7e8d036d2.html" target="_top" xlink:title="actions">
<polygon fill="#ffffff" stroke="#000000" points="262,-268 208,-268 208,-232 262,-232 262,-268"/>
<text text-anchor="middle" x="235" y="-247" font-family="Helvetica,sans-Serif" font-size="10.00" fill="#000000">actions</text>
</a>
</g>
</g>
<!-- dir_42ec03b7ccf42fefa95a9af8fd921dc0 -->
<g id="node3" class="node">
<title>dir_42ec03b7ccf42fefa95a9af8fd921dc0</title>
<g id="a_node3"><a xlink:href="dir_42ec03b7ccf42fefa95a9af8fd921dc0.html" target="_top" xlink:title="config">
<polygon fill="#ffffff" stroke="#000000" points="202,-196 148,-196 148,-160 202,-160 202,-196"/>
<text text-anchor="middle" x="175" y="-175" font-family="Helvetica,sans-Serif" font-size="10.00" fill="#000000">config</text>
</a>
</g>
</g>
<!-- dir_c02060125093f1f908938da7e8d036d2&#45;&gt;dir_42ec03b7ccf42fefa95a9af8fd921dc0 -->
<g id="edge2" class="edge">
<title>dir_c02060125093f1f908938da7e8d036d2&#45;&gt;dir_42ec03b7ccf42fefa95a9af8fd921dc0</title>
<path fill="none" stroke="#000000" d="M219.8595,-231.8314C212.8783,-223.454 204.4609,-213.3531 196.8124,-204.1749"/>
<polygon fill="#000000" stroke="#000000" points="199.4351,-201.8548 190.3444,-196.4133 194.0575,-206.3362 199.4351,-201.8548"/>
<g id="a_edge2&#45;headlabel"><a xlink:href="dir_000001_000002.html" target="_top" xlink:title="3">
<text text-anchor="middle" x="203.9174" y="-199.7986" font-family="Helvetica,sans-Serif" font-size="10.00" fill="#000000">3</text>
</a>
</g>
</g>
<!-- dir_699b43c0649cdffda9b3cb63579617e5 -->
<g id="node7" class="node">
<title>dir_699b43c0649cdffda9b3cb63579617e5</title>
<g id="a_node7"><a xlink:href="dir_699b43c0649cdffda9b3cb63579617e5.html" target="_top" xlink:title="math">
<polygon fill="#ffffff" stroke="#ff0000" points="186,-52 132,-52 132,-16 186,-16 186,-52"/>
<text text-anchor="middle" x="159" y="-31" font-family="Helvetica,sans-Serif" font-size="10.00" fill="#000000">math</text>
</a>
</g>
</g>
<!-- dir_c02060125093f1f908938da7e8d036d2&#45;&gt;dir_699b43c0649cdffda9b3cb63579617e5 -->
<g id="edge3" class="edge">
<title>dir_c02060125093f1f908938da7e8d036d2&#45;&gt;dir_699b43c0649cdffda9b3cb63579617e5</title>
<path fill="none" stroke="#000000" d="M246.8639,-231.993C266.0197,-200.4325 298.8417,-134.1046 270,-88 253.9463,-62.3375 221.8156,-48.5544 196.2365,-41.3542"/>
<polygon fill="#000000" stroke="#000000" points="197.0073,-37.9384 186.4494,-38.8224 195.2542,-44.7153 197.0073,-37.9384"/>
<g id="a_edge3&#45;headlabel"><a xlink:href="dir_000001_000006.html" target="_top" xlink:title="3">
<text text-anchor="middle" x="201.1984" y="-33.0898" font-family="Helvetica,sans-Serif" font-size="10.00" fill="#000000">3</text>
</a>
</g>
</g>
<!-- dir_989e9c0c9f16acce756990d917da59a4 -->
<g id="node9" class="node">
<title>dir_989e9c0c9f16acce756990d917da59a4</title>
<g id="a_node9"><a xlink:href="dir_989e9c0c9f16acce756990d917da59a4.html" target="_top" xlink:title="parallelization">
<polygon fill="#ffffff" stroke="#000000" points="168.6476,-124 91.3524,-124 91.3524,-88 168.6476,-88 168.6476,-124"/>
<text text-anchor="middle" x="130" y="-103" font-family="Helvetica,sans-Serif" font-size="10.00" fill="#000000">parallelization</text>
</a>
</g>
</g>
<!-- dir_c02060125093f1f908938da7e8d036d2&#45;&gt;dir_989e9c0c9f16acce756990d917da59a4 -->
<g id="edge1" class="edge">
<title>dir_c02060125093f1f908938da7e8d036d2&#45;&gt;dir_989e9c0c9f16acce756990d917da59a4</title>
<path fill="none" stroke="#000000" d="M233.9136,-231.8366C231.9514,-212.431 226.446,-181.5582 211,-160 202.2824,-147.8327 189.9024,-137.6212 177.4374,-129.4684"/>
<polygon fill="#000000" stroke="#000000" points="179.1848,-126.4339 168.8381,-124.1544 175.505,-132.3887 179.1848,-126.4339"/>
<g id="a_edge1&#45;headlabel"><a xlink:href="dir_000001_000011.html" target="_top" xlink:title="2">
<text text-anchor="middle" x="183.7352" y="-122.9082" font-family="Helvetica,sans-Serif" font-size="10.00" fill="#000000">2</text>
</a>
</g>
</g>
<!-- dir_a2781ce1928e1955c4e388a2367749c5 -->
<g id="node6" class="node">
<title>dir_a2781ce1928e1955c4e388a2367749c5</title>
<g id="a_node6"><a xlink:href="dir_a2781ce1928e1955c4e388a2367749c5.html" target="_top" xlink:title="lib">
<polygon fill="#ffffff" stroke="#000000" points="261,-124 207,-124 207,-88 261,-88 261,-124"/>
<text text-anchor="middle" x="234" y="-103" font-family="Helvetica,sans-Serif" font-size="10.00" fill="#000000">lib</text>
</a>
</g>
</g>
<!-- dir_42ec03b7ccf42fefa95a9af8fd921dc0&#45;&gt;dir_a2781ce1928e1955c4e388a2367749c5 -->
<g id="edge7" class="edge">
<title>dir_42ec03b7ccf42fefa95a9af8fd921dc0&#45;&gt;dir_a2781ce1928e1955c4e388a2367749c5</title>
<path fill="none" stroke="#000000" d="M189.8882,-159.8314C196.753,-151.454 205.0301,-141.3531 212.5511,-132.1749"/>
<polygon fill="#000000" stroke="#000000" points="215.2803,-134.3665 218.9114,-124.4133 209.8659,-129.9297 215.2803,-134.3665"/>
<g id="a_edge7&#45;headlabel"><a xlink:href="dir_000002_000005.html" target="_top" xlink:title="1">
<text text-anchor="middle" x="215.1981" y="-135.9464" font-family="Helvetica,sans-Serif" font-size="10.00" fill="#000000">1</text>
</a>
</g>
</g>
<!-- dir_42ec03b7ccf42fefa95a9af8fd921dc0&#45;&gt;dir_989e9c0c9f16acce756990d917da59a4 -->
<g id="edge6" class="edge">
<title>dir_42ec03b7ccf42fefa95a9af8fd921dc0&#45;&gt;dir_989e9c0c9f16acce756990d917da59a4</title>
<path fill="none" stroke="#000000" d="M157.6922,-159.8314C151.8845,-151.7925 145.662,-142.1666 140.486,-133.2918"/>
<polygon fill="#000000" stroke="#000000" points="143.4612,-131.4406 135.5323,-124.4133 137.3483,-134.8513 143.4612,-131.4406"/>
<g id="a_edge6&#45;headlabel"><a xlink:href="dir_000002_000011.html" target="_top" xlink:title="2">
<text text-anchor="middle" x="147.692" y="-130.1963" font-family="Helvetica,sans-Serif" font-size="10.00" fill="#000000">2</text>
</a>
</g>
</g>
<!-- dir_d54256f8ed9d1ba4550e8250d483f147&#45;&gt;dir_c02060125093f1f908938da7e8d036d2 -->
<g id="edge24" class="edge">
<title>dir_d54256f8ed9d1ba4550e8250d483f147&#45;&gt;dir_c02060125093f1f908938da7e8d036d2</title>
<path fill="none" stroke="#000000" d="M235,-303.8314C235,-296.131 235,-286.9743 235,-278.4166"/>
<polygon fill="#000000" stroke="#000000" points="238.5001,-278.4132 235,-268.4133 231.5001,-278.4133 238.5001,-278.4132"/>
<g id="a_edge24&#45;headlabel"><a xlink:href="dir_000003_000001.html" target="_top" xlink:title="1">
<text text-anchor="middle" x="241.3393" y="-279.0079" font-family="Helvetica,sans-Serif" font-size="10.00" fill="#000000">1</text>
</a>
</g>
</g>
<!-- dir_d54256f8ed9d1ba4550e8250d483f147&#45;&gt;dir_42ec03b7ccf42fefa95a9af8fd921dc0 -->
<g id="edge26" class="edge">
<title>dir_d54256f8ed9d1ba4550e8250d483f147&#45;&gt;dir_42ec03b7ccf42fefa95a9af8fd921dc0</title>
<path fill="none" stroke="#000000" d="M220.7443,-303.8904C213.3779,-293.7999 204.7519,-280.7326 199,-268 190.0401,-248.166 183.8678,-224.3116 180.0285,-206.1459"/>
<polygon fill="#000000" stroke="#000000" points="183.4286,-205.2996 178.0341,-196.181 176.5647,-206.6734 183.4286,-205.2996"/>
<g id="a_edge26&#45;headlabel"><a xlink:href="dir_000003_000002.html" target="_top" xlink:title="1">
<text text-anchor="middle" x="186.918" y="-205.2672" font-family="Helvetica,sans-Serif" font-size="10.00" fill="#000000">1</text>
</a>
</g>
</g>
<!-- dir_d54256f8ed9d1ba4550e8250d483f147&#45;&gt;dir_699b43c0649cdffda9b3cb63579617e5 -->
<g id="edge27" class="edge">
<title>dir_d54256f8ed9d1ba4550e8250d483f147&#45;&gt;dir_699b43c0649cdffda9b3cb63579617e5</title>
<path fill="none" stroke="#000000" d="M253.9313,-303.8445C262.7081,-294.1366 272.2345,-281.4319 277,-268 303.7533,-192.5942 323.5477,-155.1221 280,-88 261.6009,-59.6406 224.4537,-46.0459 196.1454,-39.6099"/>
<polygon fill="#000000" stroke="#000000" points="196.6684,-36.1441 186.1671,-37.5485 195.2522,-42.9993 196.6684,-36.1441"/>
<g id="a_edge27&#45;headlabel"><a xlink:href="dir_000003_000006.html" target="_top" xlink:title="2">
<text text-anchor="middle" x="200.7631" y="-31.0907" font-family="Helvetica,sans-Serif" font-size="10.00" fill="#000000">2</text>
</a>
</g>
</g>
<!-- dir_d54256f8ed9d1ba4550e8250d483f147&#45;&gt;dir_989e9c0c9f16acce756990d917da59a4 -->
<g id="edge25" class="edge">
<title>dir_d54256f8ed9d1ba4550e8250d483f147&#45;&gt;dir_989e9c0c9f16acce756990d917da59a4</title>
<path fill="none" stroke="#000000" d="M250.9905,-303.9169C258.6538,-294.0371 267.0166,-281.1563 271,-268 275.6365,-252.6865 275.6365,-247.3135 271,-232 259.8551,-195.191 251.0238,-186.3397 223,-160 209.8081,-147.6008 193.2665,-136.8471 177.8057,-128.2713"/>
<polygon fill="#000000" stroke="#000000" points="179.3283,-125.1164 168.8609,-123.4777 176.0217,-131.2862 179.3283,-125.1164"/>
<g id="a_edge25&#45;headlabel"><a xlink:href="dir_000003_000011.html" target="_top" xlink:title="1">
<text text-anchor="middle" x="183.8377" y="-121.3117" font-family="Helvetica,sans-Serif" font-size="10.00" fill="#000000">1</text>
</a>
</g>
</g>
<!-- dir_9e75dbcc90935552caaf1cb18df4f8ce&#45;&gt;dir_42ec03b7ccf42fefa95a9af8fd921dc0 -->
<g id="edge29" class="edge">
<title>dir_9e75dbcc90935552caaf1cb18df4f8ce&#45;&gt;dir_42ec03b7ccf42fefa95a9af8fd921dc0</title>
<path fill="none" stroke="#000000" d="M106.2155,-231.8314C117.547,-222.9632 131.3464,-212.1637 143.6027,-202.5718"/>
<polygon fill="#000000" stroke="#000000" points="146.074,-205.0822 151.7919,-196.1628 141.7598,-199.5697 146.074,-205.0822"/>
<g id="a_edge29&#45;headlabel"><a xlink:href="dir_000004_000002.html" target="_top" xlink:title="2">
<text text-anchor="middle" x="144.9931" y="-206.5335" font-family="Helvetica,sans-Serif" font-size="10.00" fill="#000000">2</text>
</a>
</g>
</g>
<!-- dir_9e75dbcc90935552caaf1cb18df4f8ce&#45;&gt;dir_699b43c0649cdffda9b3cb63579617e5 -->
<g id="edge30" class="edge">
<title>dir_9e75dbcc90935552caaf1cb18df4f8ce&#45;&gt;dir_699b43c0649cdffda9b3cb63579617e5</title>
<path fill="none" stroke="#000000" d="M77.6614,-231.7113C69.5777,-200.2889 57.6017,-134.9105 82,-88 90.6912,-71.2894 107.1852,-58.6739 122.6849,-49.8561"/>
<polygon fill="#000000" stroke="#000000" points="124.4427,-52.8855 131.6294,-45.1008 121.1567,-46.7046 124.4427,-52.8855"/>
<g id="a_edge30&#45;headlabel"><a xlink:href="dir_000004_000006.html" target="_top" xlink:title="2">
<text text-anchor="middle" x="122.6015" y="-54.0798" font-family="Helvetica,sans-Serif" font-size="10.00" fill="#000000">2</text>
</a>
</g>
</g>
<!-- dir_9e75dbcc90935552caaf1cb18df4f8ce&#45;&gt;dir_989e9c0c9f16acce756990d917da59a4 -->
<g id="edge28" class="edge">
<title>dir_9e75dbcc90935552caaf1cb18df4f8ce&#45;&gt;dir_989e9c0c9f16acce756990d917da59a4</title>
<path fill="none" stroke="#000000" d="M88.9526,-231.7623C97.0044,-207.0928 111.4416,-162.8598 120.8699,-133.9731"/>
<polygon fill="#000000" stroke="#000000" points="124.3201,-134.6821 124.0957,-124.0896 117.6656,-132.5101 124.3201,-134.6821"/>
<g id="a_edge28&#45;headlabel"><a xlink:href="dir_000004_000011.html" target="_top" xlink:title="3">
<text text-anchor="middle" x="125.904" y="-135.9802" font-family="Helvetica,sans-Serif" font-size="10.00" fill="#000000">3</text>
</a>
</g>
</g>
<!-- dir_699b43c0649cdffda9b3cb63579617e5&#45;&gt;dir_42ec03b7ccf42fefa95a9af8fd921dc0 -->
<g id="edge19" class="edge">
<title>dir_699b43c0649cdffda9b3cb63579617e5&#45;&gt;dir_42ec03b7ccf42fefa95a9af8fd921dc0</title>
<path fill="none" stroke="#000000" d="M167.0917,-52.0835C171.2561,-62.3821 175.8918,-75.6564 178,-88 181.5039,-108.5153 180.5523,-132.0317 178.8316,-149.8802"/>
<polygon fill="#000000" stroke="#000000" points="175.3411,-149.6026 177.7258,-159.9255 182.2991,-150.3686 175.3411,-149.6026"/>
<g id="a_edge19&#45;headlabel"><a xlink:href="dir_000006_000002.html" target="_top" xlink:title="1">
<text text-anchor="middle" x="172.9122" y="-142.7189" font-family="Helvetica,sans-Serif" font-size="10.00" fill="#000000">1</text>
</a>
</g>
</g>
<!-- dir_699b43c0649cdffda9b3cb63579617e5&#45;&gt;dir_989e9c0c9f16acce756990d917da59a4 -->
<g id="edge18" class="edge">
<title>dir_699b43c0649cdffda9b3cb63579617e5&#45;&gt;dir_989e9c0c9f16acce756990d917da59a4</title>
<path fill="none" stroke="#000000" d="M157.5596,-52.4133C155.1066,-60.3991 151.4722,-69.9155 147.5686,-78.6975"/>
<polygon fill="#000000" stroke="#000000" points="144.3615,-77.2929 143.2703,-87.8314 150.6952,-80.2735 144.3615,-77.2929"/>
<g id="a_edge18&#45;headlabel"><a xlink:href="dir_000006_000011.html" target="_top" xlink:title="3">
<text text-anchor="middle" x="143.323" y="-69.8315" font-family="Helvetica,sans-Serif" font-size="10.00" fill="#000000">3</text>
</a>
</g>
</g>
<!-- dir_a4d2cabbfa9ce39e497395a7adc9de8f&#45;&gt;dir_42ec03b7ccf42fefa95a9af8fd921dc0 -->
<g id="edge15" class="edge">
<title>dir_a4d2cabbfa9ce39e497395a7adc9de8f&#45;&gt;dir_42ec03b7ccf42fefa95a9af8fd921dc0</title>
<path fill="none" stroke="#000000" d="M77.9906,-303.9047C91.2676,-294.2121 106.9614,-281.503 119,-268 136.0767,-248.846 151.165,-223.8559 161.3645,-205.0704"/>
<polygon fill="#000000" stroke="#000000" points="164.5082,-206.6127 166.1014,-196.1383 158.3241,-203.333 164.5082,-206.6127"/>
<g id="a_edge15&#45;headlabel"><a xlink:href="dir_000009_000002.html" target="_top" xlink:title="8">
<text text-anchor="middle" x="165.3325" y="-208.1186" font-family="Helvetica,sans-Serif" font-size="10.00" fill="#000000">8</text>
</a>
</g>
</g>
<!-- dir_a4d2cabbfa9ce39e497395a7adc9de8f&#45;&gt;dir_9e75dbcc90935552caaf1cb18df4f8ce -->
<g id="edge17" class="edge">
<title>dir_a4d2cabbfa9ce39e497395a7adc9de8f&#45;&gt;dir_9e75dbcc90935552caaf1cb18df4f8ce</title>
<path fill="none" stroke="#000000" d="M59.075,-303.8314C62.6102,-295.8771 66.836,-286.369 70.7456,-277.5723"/>
<polygon fill="#000000" stroke="#000000" points="73.9532,-278.9729 74.8163,-268.4133 67.5565,-276.1299 73.9532,-278.9729"/>
<g id="a_edge17&#45;headlabel"><a xlink:href="dir_000009_000004.html" target="_top" xlink:title="4">
<text text-anchor="middle" x="75.0879" y="-280.4108" font-family="Helvetica,sans-Serif" font-size="10.00" fill="#000000">4</text>
</a>
</g>
</g>
<!-- dir_a4d2cabbfa9ce39e497395a7adc9de8f&#45;&gt;dir_699b43c0649cdffda9b3cb63579617e5 -->
<g id="edge16" class="edge">
<title>dir_a4d2cabbfa9ce39e497395a7adc9de8f&#45;&gt;dir_699b43c0649cdffda9b3cb63579617e5</title>
<path fill="none" stroke="#000000" d="M45.8809,-303.6727C43.248,-293.2978 40.3204,-280.0284 39,-268 30.173,-187.588 19.3244,-154.0711 66,-88 79.7013,-68.6052 102.7441,-55.153 122.4641,-46.5258"/>
<polygon fill="#000000" stroke="#000000" points="123.9077,-49.7165 131.8225,-42.6733 121.243,-43.2435 123.9077,-49.7165"/>
<g id="a_edge16&#45;headlabel"><a xlink:href="dir_000009_000006.html" target="_top" xlink:title="8">
<text text-anchor="middle" x="121.6646" y="-50.7103" font-family="Helvetica,sans-Serif" font-size="10.00" fill="#000000">8</text>
</a>
</g>
</g>
<!-- dir_a4d2cabbfa9ce39e497395a7adc9de8f&#45;&gt;dir_989e9c0c9f16acce756990d917da59a4 -->
<g id="edge14" class="edge">
<title>dir_a4d2cabbfa9ce39e497395a7adc9de8f&#45;&gt;dir_989e9c0c9f16acce756990d917da59a4</title>
<path fill="none" stroke="#000000" d="M46.7691,-303.9818C43.2156,-285.4991 39.7694,-256.1206 47,-232 58.5557,-193.4513 86.1343,-155.7915 106.3425,-131.8372"/>
<polygon fill="#000000" stroke="#000000" points="108.9989,-134.1162 112.8793,-124.2575 103.6979,-129.5445 108.9989,-134.1162"/>
<g id="a_edge14&#45;headlabel"><a xlink:href="dir_000009_000011.html" target="_top" xlink:title="8">
<text text-anchor="middle" x="108.8014" y="-135.6926" font-family="Helvetica,sans-Serif" font-size="10.00" fill="#000000">8</text>
</a>
</g>
</g>
<!-- dir_989e9c0c9f16acce756990d917da59a4&#45;&gt;dir_42ec03b7ccf42fefa95a9af8fd921dc0 -->
<g id="edge4" class="edge">
<title>dir_989e9c0c9f16acce756990d917da59a4&#45;&gt;dir_42ec03b7ccf42fefa95a9af8fd921dc0</title>
<path fill="none" stroke="#000000" d="M147.4843,-124.4133C153.3003,-132.484 159.5162,-142.1182 164.6708,-150.9775"/>
<polygon fill="#000000" stroke="#000000" points="161.6765,-152.7946 169.597,-159.8314 167.7934,-149.3911 161.6765,-152.7946"/>
<g id="a_edge4&#45;headlabel"><a xlink:href="dir_000011_000002.html" target="_top" xlink:title="1">
<text text-anchor="middle" x="157.4478" y="-148.0339" font-family="Helvetica,sans-Serif" font-size="10.00" fill="#000000">1</text>
</a>
</g>
</g>
<!-- dir_989e9c0c9f16acce756990d917da59a4&#45;&gt;dir_699b43c0649cdffda9b3cb63579617e5 -->
<g id="edge5" class="edge">
<title>dir_989e9c0c9f16acce756990d917da59a4&#45;&gt;dir_699b43c0649cdffda9b3cb63579617e5</title>
<path fill="none" stroke="#000000" d="M131.3655,-87.8314C133.7942,-79.8771 137.4137,-70.369 141.3117,-61.5723"/>
<polygon fill="#000000" stroke="#000000" points="144.5298,-62.9532 145.6075,-52.4133 138.1923,-59.9806 144.5298,-62.9532"/>
<g id="a_edge5&#45;headlabel"><a xlink:href="dir_000011_000006.html" target="_top" xlink:title="1">
<text text-anchor="middle" x="145.574" y="-64.4132" font-family="Helvetica,sans-Serif" font-size="10.00" fill="#000000">1</text>
</a>
</g>
</g>
<!-- dir_80f6a6728bd800407e006ab7b547c07a&#45;&gt;dir_c02060125093f1f908938da7e8d036d2 -->
<g id="edge8" class="edge">
<title>dir_80f6a6728bd800407e006ab7b547c07a&#45;&gt;dir_c02060125093f1f908938da7e8d036d2</title>
<path fill="none" stroke="#000000" d="M160.0524,-375.782C169.3432,-357.3937 184.4576,-328.3166 199,-304 204.4081,-294.957 210.6689,-285.315 216.4379,-276.7182"/>
<polygon fill="#000000" stroke="#000000" points="219.4949,-278.4465 222.2153,-268.2068 213.7031,-274.5151 219.4949,-278.4465"/>
<g id="a_edge8&#45;headlabel"><a xlink:href="dir_000012_000001.html" target="_top" xlink:title="2">
<text text-anchor="middle" x="219.8253" y="-280.0152" font-family="Helvetica,sans-Serif" font-size="10.00" fill="#000000">2</text>
</a>
</g>
</g>
<!-- dir_80f6a6728bd800407e006ab7b547c07a&#45;&gt;dir_42ec03b7ccf42fefa95a9af8fd921dc0 -->
<g id="edge10" class="edge">
<title>dir_80f6a6728bd800407e006ab7b547c07a&#45;&gt;dir_42ec03b7ccf42fefa95a9af8fd921dc0</title>
<path fill="none" stroke="#000000" d="M153.0049,-375.9555C157.1873,-338.3144 166.8681,-251.1867 171.875,-206.1246"/>
<polygon fill="#000000" stroke="#000000" points="175.3581,-206.4704 172.9839,-196.1451 168.4009,-205.6974 175.3581,-206.4704"/>
<g id="a_edge10&#45;headlabel"><a xlink:href="dir_000012_000002.html" target="_top" xlink:title="2">
<text text-anchor="middle" x="177.7831" y="-207.3566" font-family="Helvetica,sans-Serif" font-size="10.00" fill="#000000">2</text>
</a>
</g>
</g>
<!-- dir_80f6a6728bd800407e006ab7b547c07a&#45;&gt;dir_9e75dbcc90935552caaf1cb18df4f8ce -->
<g id="edge13" class="edge">
<title>dir_80f6a6728bd800407e006ab7b547c07a&#45;&gt;dir_9e75dbcc90935552caaf1cb18df4f8ce</title>
<path fill="none" stroke="#000000" d="M143.022,-375.9817C134.8951,-357.7487 121.8393,-328.7899 110,-304 105.8647,-295.3413 101.2342,-285.9697 96.9915,-277.5025"/>
<polygon fill="#000000" stroke="#000000" points="100.0377,-275.7697 92.4133,-268.4132 93.786,-278.9187 100.0377,-275.7697"/>
<g id="a_edge13&#45;headlabel"><a xlink:href="dir_000012_000004.html" target="_top" xlink:title="1">
<text text-anchor="middle" x="104.1905" y="-274.7028" font-family="Helvetica,sans-Serif" font-size="10.00" fill="#000000">1</text>
</a>
</g>
</g>
<!-- dir_80f6a6728bd800407e006ab7b547c07a&#45;&gt;dir_699b43c0649cdffda9b3cb63579617e5 -->
<g id="edge12" class="edge">
<title>dir_80f6a6728bd800407e006ab7b547c07a&#45;&gt;dir_699b43c0649cdffda9b3cb63579617e5</title>
<path fill="none" stroke="#000000" d="M178.1104,-387.204C204.4421,-379.4586 244.256,-364.5808 271,-340 304.6899,-309.0352 321,-295.7584 321,-250 321,-250 321,-250 321,-178 321,-136.2388 322.186,-118.8147 294,-88 268.3609,-59.9697 226.2146,-46.234 195.8283,-39.6731"/>
<polygon fill="#000000" stroke="#000000" points="196.507,-36.2396 186.0151,-37.7129 195.1358,-43.104 196.507,-36.2396"/>
<g id="a_edge12&#45;headlabel"><a xlink:href="dir_000012_000006.html" target="_top" xlink:title="9">
<text text-anchor="middle" x="200.5881" y="-31.1594" font-family="Helvetica,sans-Serif" font-size="10.00" fill="#000000">9</text>
</a>
</g>
</g>
<!-- dir_80f6a6728bd800407e006ab7b547c07a&#45;&gt;dir_a4d2cabbfa9ce39e497395a7adc9de8f -->
<g id="edge11" class="edge">
<title>dir_80f6a6728bd800407e006ab7b547c07a&#45;&gt;dir_a4d2cabbfa9ce39e497395a7adc9de8f</title>
<path fill="none" stroke="#000000" d="M125.7658,-375.8314C113.212,-366.7927 97.8717,-355.7476 84.3609,-346.0198"/>
<polygon fill="#000000" stroke="#000000" points="86.3866,-343.1655 76.2261,-340.1628 82.2964,-348.8463 86.3866,-343.1655"/>
<g id="a_edge11&#45;headlabel"><a xlink:href="dir_000012_000009.html" target="_top" xlink:title="1">
<text text-anchor="middle" x="90.9627" y="-339.9617" font-family="Helvetica,sans-Serif" font-size="10.00" fill="#000000">1</text>
</a>
</g>
</g>
<!-- dir_80f6a6728bd800407e006ab7b547c07a&#45;&gt;dir_989e9c0c9f16acce756990d917da59a4 -->
<g id="edge9" class="edge">
<title>dir_80f6a6728bd800407e006ab7b547c07a&#45;&gt;dir_989e9c0c9f16acce756990d917da59a4</title>
<path fill="none" stroke="#000000" d="M149.6864,-375.9843C146.136,-327.2939 136.3289,-192.7961 132.0458,-134.0573"/>
<polygon fill="#000000" stroke="#000000" points="135.5312,-133.7278 131.3131,-124.0089 128.5497,-134.237 135.5312,-133.7278"/>
<g id="a_edge9&#45;headlabel"><a xlink:href="dir_000012_000011.html" target="_top" xlink:title="3">
<text text-anchor="middle" x="138.6243" y="-134.1065" font-family="Helvetica,sans-Serif" font-size="10.00" fill="#000000">3</text>
</a>
</g>
</g>
</g>
</svg>
