<?xml version="1.0" encoding="UTF-8" standalone="no"?>
<!DOCTYPE svg PUBLIC "-//W3C//DTD SVG 1.1//EN"
 "http://www.w3.org/Graphics/SVG/1.1/DTD/svg11.dtd">
<!-- Generated by graphviz version 2.40.1 (20161225.0304)
 -->
<!-- Title: GLAC/parallelization Pages: 1 -->
<svg width="174pt" height="150pt"
 viewBox="0.00 0.00 174.00 150.00" xmlns="http://www.w3.org/2000/svg" xmlns:xlink="http://www.w3.org/1999/xlink">
<g id="graph0" class="graph" transform="scale(1 1) rotate(0) translate(4 146)">
<title>GLAC/parallelization</title>
<polygon fill="#ffffff" stroke="transparent" points="-4,4 -4,-146 170,-146 170,4 -4,4"/>
<g id="clust1" class="cluster">
<title>clusterdir_f53e42b23db04c12898bb6e8f169fcd5</title>
<g id="a_clust1"><a xlink:href="dir_f53e42b23db04c12898bb6e8f169fcd5.html" target="_top" xlink:title="GLAC">
<polygon fill="#ddddee" stroke="#000000" points="8,-64 8,-134 102,-134 102,-64 8,-64"/>
<text text-anchor="middle" x="55" y="-122" font-family="Helvetica,sans-Serif" font-size="10.00" fill="#000000">GLAC</text>
</a>
</g>
</g>
<!-- dir_3387936ac018e251c9001f4c9b392951 -->
<g id="node1" class="node">
<title>dir_3387936ac018e251c9001f4c9b392951</title>
<g id="a_node1"><a xlink:href="dir_3387936ac018e251c9001f4c9b392951.html" target="_top" xlink:title="parallelization">
<polygon fill="#eeeeff" stroke="#000000" points="93.6476,-108 16.3524,-108 16.3524,-72 93.6476,-72 93.6476,-108"/>
<text text-anchor="middle" x="55" y="-87" font-family="Helvetica,sans-Serif" font-size="10.00" fill="#000000">parallelization</text>
</a>
</g>
</g>
<!-- dir_1aad51cdd65d34080d064657015a76b5 -->
<g id="node2" class="node">
<title>dir_1aad51cdd65d34080d064657015a76b5</title>
<g id="a_node2"><a xlink:href="dir_1aad51cdd65d34080d064657015a76b5.html" target="_top" xlink:title="math">
<polygon fill="#ffffff" stroke="#ff0000" points="166,-108 112,-108 112,-72 166,-72 166,-108"/>
<text text-anchor="middle" x="139" y="-87" font-family="Helvetica,sans-Serif" font-size="10.00" fill="#000000">math</text>
</a>
</g>
</g>
<!-- dir_3387936ac018e251c9001f4c9b392951&#45;&gt;dir_1aad51cdd65d34080d064657015a76b5 -->
<g id="edge4" class="edge">
<title>dir_3387936ac018e251c9001f4c9b392951&#45;&gt;dir_1aad51cdd65d34080d064657015a76b5</title>
<path fill="none" stroke="#000000" d="M93.7188,-90C96.3498,-90 98.9809,-90 101.612,-90"/>
<polygon fill="#000000" stroke="#000000" points="101.7605,-93.5001 111.7605,-90 101.7605,-86.5001 101.7605,-93.5001"/>
<g id="a_edge4&#45;headlabel"><a xlink:href="dir_000011_000006.html" target="_top" xlink:title="1">
<text text-anchor="middle" x="98.1659" y="-93.3393" font-family="Helvetica,sans-Serif" font-size="10.00" fill="#000000">1</text>
</a>
</g>
</g>
<!-- dir_23e8e5da5c699a1331d75b73108c17fc -->
<g id="node3" class="node">
<title>dir_23e8e5da5c699a1331d75b73108c17fc</title>
<g id="a_node3"><a xlink:href="dir_23e8e5da5c699a1331d75b73108c17fc.html" target="_top" xlink:title="config">
<polygon fill="none" stroke="#000000" points="124,-36 70,-36 70,0 124,0 124,-36"/>
<text text-anchor="middle" x="97" y="-15" font-family="Helvetica,sans-Serif" font-size="10.00" fill="#000000">config</text>
</a>
</g>
</g>
<!-- dir_3387936ac018e251c9001f4c9b392951&#45;&gt;dir_23e8e5da5c699a1331d75b73108c17fc -->
<g id="edge5" class="edge">
<title>dir_3387936ac018e251c9001f4c9b392951&#45;&gt;dir_23e8e5da5c699a1331d75b73108c17fc</title>
<path fill="none" stroke="#000000" d="M59.646,-71.8314C63.593,-63.7079 69.0748,-53.9637 74.6837,-45.0118"/>
<polygon fill="#000000" stroke="#000000" points="77.759,-46.7031 80.2829,-36.4133 71.8931,-42.8833 77.759,-46.7031"/>
<g id="a_edge5&#45;headlabel"><a xlink:href="dir_000011_000002.html" target="_top" xlink:title="1">
<text text-anchor="middle" x="78.1768" y="-48.2647" font-family="Helvetica,sans-Serif" font-size="10.00" fill="#000000">1</text>
</a>
</g>
</g>
<!-- dir_1aad51cdd65d34080d064657015a76b5&#45;&gt;dir_3387936ac018e251c9001f4c9b392951 -->
<g id="edge2" class="edge">
<title>dir_1aad51cdd65d34080d064657015a76b5&#45;&gt;dir_3387936ac018e251c9001f4c9b392951</title>
<path fill="none" stroke="#000000" d="M111.7605,-90C109.1294,-90 106.4983,-90 103.8672,-90"/>
<polygon fill="#000000" stroke="#000000" points="103.7188,-86.5001 93.7188,-90 103.7187,-93.5001 103.7188,-86.5001"/>
<g id="a_edge2&#45;headlabel"><a xlink:href="dir_000006_000011.html" target="_top" xlink:title="3">
<text text-anchor="middle" x="107.3134" y="-80.6607" font-family="Helvetica,sans-Serif" font-size="10.00" fill="#000000">3</text>
</a>
</g>
</g>
<!-- dir_1aad51cdd65d34080d064657015a76b5&#45;&gt;dir_23e8e5da5c699a1331d75b73108c17fc -->
<g id="edge1" class="edge">
<title>dir_1aad51cdd65d34080d064657015a76b5&#45;&gt;dir_23e8e5da5c699a1331d75b73108c17fc</title>
<path fill="none" stroke="#000000" d="M128.4016,-71.8314C123.7123,-63.7925 118.0972,-54.1666 112.9202,-45.2918"/>
<polygon fill="#000000" stroke="#000000" points="115.8031,-43.2875 107.7411,-36.4133 109.7566,-46.8146 115.8031,-43.2875"/>
<g id="a_edge1&#45;headlabel"><a xlink:href="dir_000006_000002.html" target="_top" xlink:title="1">
<text text-anchor="middle" x="120.0667" y="-41.9618" font-family="Helvetica,sans-Serif" font-size="10.00" fill="#000000">1</text>
</a>
</g>
</g>
<!-- dir_23e8e5da5c699a1331d75b73108c17fc&#45;&gt;dir_3387936ac018e251c9001f4c9b392951 -->
<g id="edge3" class="edge">
<title>dir_23e8e5da5c699a1331d75b73108c17fc&#45;&gt;dir_3387936ac018e251c9001f4c9b392951</title>
<path fill="none" stroke="#000000" d="M92.2349,-36.4133C88.2573,-44.569 82.759,-54.3212 77.1477,-63.257"/>
<polygon fill="#000000" stroke="#000000" points="74.086,-61.5443 71.5508,-71.8314 79.9478,-65.3706 74.086,-61.5443"/>
<g id="a_edge3&#45;headlabel"><a xlink:href="dir_000002_000011.html" target="_top" xlink:title="2">
<text text-anchor="middle" x="73.6732" y="-53.9823" font-family="Helvetica,sans-Serif" font-size="10.00" fill="#000000">2</text>
</a>
</g>
</g>
</g>
</svg>
