<?xml version="1.0" encoding="UTF-8" standalone="no"?>
<!DOCTYPE svg PUBLIC "-//W3C//DTD SVG 1.1//EN"
 "http://www.w3.org/Graphics/SVG/1.1/DTD/svg11.dtd">
<!-- Generated by graphviz version 2.40.1 (20161225.0304)
 -->
<!-- Title: GluonicLQCD/observables/energydensity.h Pages: 1 -->
<svg width="879pt" height="367pt"
 viewBox="0.00 0.00 878.60 367.00" xmlns="http://www.w3.org/2000/svg" xmlns:xlink="http://www.w3.org/1999/xlink">
<g id="graph0" class="graph" transform="scale(1 1) rotate(0) translate(4 363)">
<title>GluonicLQCD/observables/energydensity.h</title>
<polygon fill="#ffffff" stroke="transparent" points="-4,4 -4,-363 874.6006,-363 874.6006,4 -4,4"/>
<!-- Node0 -->
<g id="node1" class="node">
<title>Node0</title>
<g id="a_node1"><a xlink:title=" ">
<polygon fill="#bfbfbf" stroke="#000000" points="248.894,-330.5 248.894,-358.5 383.2827,-358.5 383.2827,-330.5 248.894,-330.5"/>
<text text-anchor="start" x="256.894" y="-346.5" font-family="Helvetica,sans-Serif" font-size="10.00" fill="#000000">GluonicLQCD/observables</text>
<text text-anchor="middle" x="316.0884" y="-336.5" font-family="Helvetica,sans-Serif" font-size="10.00" fill="#000000">/energydensity.h</text>
</a>
</g>
</g>
<!-- Node1 -->
<g id="node2" class="node">
<title>Node1</title>
<g id="a_node2"><a xlink:href="correlator_8h.html" target="_top" xlink:title=" ">
<polygon fill="#ffffff" stroke="#000000" points="250.0737,-275.5 250.0737,-293.5 316.103,-293.5 316.103,-275.5 250.0737,-275.5"/>
<text text-anchor="middle" x="283.0884" y="-281.5" font-family="Helvetica,sans-Serif" font-size="10.00" fill="#000000">correlator.h</text>
</a>
</g>
</g>
<!-- Node0&#45;&gt;Node1 -->
<g id="edge1" class="edge">
<title>Node0&#45;&gt;Node1</title>
<path fill="none" stroke="#191970" d="M308.2678,-330.2808C303.6768,-321.9336 297.8326,-311.3076 292.9304,-302.3946"/>
<polygon fill="#191970" stroke="#191970" points="295.9707,-300.6596 288.0847,-293.5842 289.8372,-304.0331 295.9707,-300.6596"/>
</g>
<!-- Node9 -->
<g id="node10" class="node">
<title>Node9</title>
<g id="a_node10"><a xlink:href="functions_8h.html" target="_top" xlink:title=" ">
<polygon fill="#ffffff" stroke="#000000" points="728.9063,-165.5 728.9063,-183.5 793.2705,-183.5 793.2705,-165.5 728.9063,-165.5"/>
<text text-anchor="middle" x="761.0884" y="-171.5" font-family="Helvetica,sans-Serif" font-size="10.00" fill="#000000">functions.h</text>
</a>
</g>
</g>
<!-- Node0&#45;&gt;Node9 -->
<g id="edge23" class="edge">
<title>Node0&#45;&gt;Node9</title>
<path fill="none" stroke="#191970" d="M352.8832,-330.4436C437.7532,-298.0213 646.1708,-218.4011 727.6611,-187.27"/>
<polygon fill="#191970" stroke="#191970" points="729.3084,-190.3874 737.4009,-183.5491 726.8103,-183.8483 729.3084,-190.3874"/>
</g>
<!-- Node2 -->
<g id="node3" class="node">
<title>Node2</title>
<g id="a_node3"><a xlink:href="lattice_8h.html" target="_top" xlink:title=" ">
<polygon fill="#ffffff" stroke="#000000" points="377.3521,-220.5 377.3521,-238.5 452.8247,-238.5 452.8247,-220.5 377.3521,-220.5"/>
<text text-anchor="middle" x="415.0884" y="-226.5" font-family="Helvetica,sans-Serif" font-size="10.00" fill="#000000">math/lattice.h</text>
</a>
</g>
</g>
<!-- Node1&#45;&gt;Node2 -->
<g id="edge2" class="edge">
<title>Node1&#45;&gt;Node2</title>
<path fill="none" stroke="#191970" d="M304.8855,-275.4179C326.3813,-266.4613 359.4548,-252.6806 383.7636,-242.552"/>
<polygon fill="#191970" stroke="#191970" points="385.3743,-245.6726 393.2589,-238.5956 382.6819,-239.2111 385.3743,-245.6726"/>
</g>
<!-- Node3 -->
<g id="node4" class="node">
<title>Node3</title>
<g id="a_node4"><a xlink:title=" ">
<polygon fill="#ffffff" stroke="#bfbfbf" points="166.4727,-110.5 166.4727,-128.5 209.7041,-128.5 209.7041,-110.5 166.4727,-110.5"/>
<text text-anchor="middle" x="188.0884" y="-116.5" font-family="Helvetica,sans-Serif" font-size="10.00" fill="#000000">vector</text>
</a>
</g>
</g>
<!-- Node1&#45;&gt;Node3 -->
<g id="edge22" class="edge">
<title>Node1&#45;&gt;Node3</title>
<path fill="none" stroke="#191970" d="M270.5452,-275.3723C249.86,-259.4897 209.1836,-224.5602 192.0884,-184 186.0893,-169.7666 185.3858,-152.1882 186.0171,-138.9789"/>
<polygon fill="#191970" stroke="#191970" points="189.5313,-138.9303 186.8159,-128.6894 182.5523,-138.3885 189.5313,-138.9303"/>
</g>
<!-- Node14 -->
<g id="node15" class="node">
<title>Node14</title>
<g id="a_node15"><a xlink:href="observablestorer_8h.html" target="_top" xlink:title=" ">
<polygon fill="#ffffff" stroke="#000000" points="0,-220.5 0,-238.5 122.1768,-238.5 122.1768,-220.5 0,-220.5"/>
<text text-anchor="middle" x="61.0884" y="-226.5" font-family="Helvetica,sans-Serif" font-size="10.00" fill="#000000">tools/observablestorer.h</text>
</a>
</g>
</g>
<!-- Node1&#45;&gt;Node14 -->
<g id="edge19" class="edge">
<title>Node1&#45;&gt;Node14</title>
<path fill="none" stroke="#191970" d="M249.8527,-276.2659C212.0032,-266.8888 149.9113,-251.5057 107.3464,-240.9603"/>
<polygon fill="#191970" stroke="#191970" points="108.0565,-237.5305 97.5083,-238.5229 106.3731,-244.3251 108.0565,-237.5305"/>
</g>
<!-- Node2&#45;&gt;Node3 -->
<g id="edge3" class="edge">
<title>Node2&#45;&gt;Node3</title>
<path fill="none" stroke="#191970" d="M376.9712,-225.7963C323.8599,-219.8829 231.3665,-206.6103 207.0884,-184 194.8202,-172.5746 190.3371,-153.6703 188.7654,-139.2735"/>
<polygon fill="#191970" stroke="#191970" points="192.2304,-138.6521 188.0359,-128.9229 185.2477,-139.1442 192.2304,-138.6521"/>
</g>
<!-- Node4 -->
<g id="node5" class="node">
<title>Node4</title>
<g id="a_node5"><a xlink:title=" ">
<polygon fill="#ffffff" stroke="#bfbfbf" points="579.8618,-110.5 579.8618,-128.5 620.3149,-128.5 620.3149,-110.5 579.8618,-110.5"/>
<text text-anchor="middle" x="600.0884" y="-116.5" font-family="Helvetica,sans-Serif" font-size="10.00" fill="#000000">mpi.h</text>
</a>
</g>
</g>
<!-- Node2&#45;&gt;Node4 -->
<g id="edge4" class="edge">
<title>Node2&#45;&gt;Node4</title>
<path fill="none" stroke="#191970" d="M452.9812,-225.7397C523.1299,-218.3947 667.4548,-201.3383 682.0884,-184 701.59,-160.894 660.7906,-140.4958 630.0406,-129.099"/>
<polygon fill="#191970" stroke="#191970" points="631.0939,-125.7591 620.4991,-125.723 628.759,-132.3582 631.0939,-125.7591"/>
</g>
<!-- Node5 -->
<g id="node6" class="node">
<title>Node5</title>
<g id="a_node6"><a xlink:href="index_8h.html" target="_top" xlink:title=" ">
<polygon fill="#ffffff" stroke="#000000" points="216.0024,-165.5 216.0024,-183.5 328.1743,-183.5 328.1743,-165.5 216.0024,-165.5"/>
<text text-anchor="middle" x="272.0884" y="-171.5" font-family="Helvetica,sans-Serif" font-size="10.00" fill="#000000">parallelization/index.h</text>
</a>
</g>
</g>
<!-- Node2&#45;&gt;Node5 -->
<g id="edge5" class="edge">
<title>Node2&#45;&gt;Node5</title>
<path fill="none" stroke="#191970" d="M391.4748,-220.4179C367.9807,-211.3817 331.7201,-197.4353 305.3236,-187.2828"/>
<polygon fill="#191970" stroke="#191970" points="306.3269,-183.9188 295.737,-183.5956 303.814,-190.4522 306.3269,-183.9188"/>
</g>
<!-- Node6 -->
<g id="node7" class="node">
<title>Node6</title>
<g id="a_node7"><a xlink:href="neighbours_8h.html" target="_top" xlink:title=" ">
<polygon fill="#ffffff" stroke="#000000" points="346.2144,-165.5 346.2144,-183.5 483.9624,-183.5 483.9624,-165.5 346.2144,-165.5"/>
<text text-anchor="middle" x="415.0884" y="-171.5" font-family="Helvetica,sans-Serif" font-size="10.00" fill="#000000">parallelization/neighbours.h</text>
</a>
</g>
</g>
<!-- Node2&#45;&gt;Node6 -->
<g id="edge7" class="edge">
<title>Node2&#45;&gt;Node6</title>
<path fill="none" stroke="#191970" d="M415.0884,-220.4179C415.0884,-213.2164 415.0884,-202.8962 415.0884,-193.8632"/>
<polygon fill="#191970" stroke="#191970" points="418.5885,-193.7794 415.0884,-183.7795 411.5885,-193.7795 418.5885,-193.7794"/>
</g>
<!-- Node8 -->
<g id="node9" class="node">
<title>Node8</title>
<g id="a_node9"><a xlink:href="parallelparameters_8h.html" target="_top" xlink:title=" ">
<polygon fill="#ffffff" stroke="#000000" points="501.5469,-165.5 501.5469,-183.5 672.6299,-183.5 672.6299,-165.5 501.5469,-165.5"/>
<text text-anchor="middle" x="587.0884" y="-171.5" font-family="Helvetica,sans-Serif" font-size="10.00" fill="#000000">parallelization/parallelparameters.h</text>
</a>
</g>
</g>
<!-- Node2&#45;&gt;Node8 -->
<g id="edge10" class="edge">
<title>Node2&#45;&gt;Node8</title>
<path fill="none" stroke="#191970" d="M443.4907,-220.4179C472.3334,-211.1949 517.1729,-196.8567 549.0663,-186.6582"/>
<polygon fill="#191970" stroke="#191970" points="550.4709,-189.8837 558.9298,-183.5042 548.3388,-183.2163 550.4709,-189.8837"/>
</g>
<!-- Node2&#45;&gt;Node9 -->
<g id="edge12" class="edge">
<title>Node2&#45;&gt;Node9</title>
<path fill="none" stroke="#191970" d="M453.081,-224.3975C510.1257,-216.5872 621.2307,-200.7971 715.0884,-184 716.172,-183.8061 717.2693,-183.6062 718.3758,-183.4015"/>
<polygon fill="#191970" stroke="#191970" points="719.3029,-186.7874 728.4617,-181.4613 717.9805,-179.9134 719.3029,-186.7874"/>
</g>
<!-- Node5&#45;&gt;Node3 -->
<g id="edge6" class="edge">
<title>Node5&#45;&gt;Node3</title>
<path fill="none" stroke="#191970" d="M258.2175,-165.4179C245.3287,-156.9788 225.899,-144.257 210.757,-134.3426"/>
<polygon fill="#191970" stroke="#191970" points="212.2633,-131.1454 201.9799,-128.5956 208.4288,-137.0017 212.2633,-131.1454"/>
</g>
<!-- Node6&#45;&gt;Node3 -->
<g id="edge9" class="edge">
<title>Node6&#45;&gt;Node3</title>
<path fill="none" stroke="#191970" d="M377.8581,-165.4795C333.7959,-154.8036 261.1909,-137.2121 219.7283,-127.1661"/>
<polygon fill="#191970" stroke="#191970" points="220.4373,-123.7366 209.8943,-124.7834 218.7889,-130.5398 220.4373,-123.7366"/>
</g>
<!-- Node7 -->
<g id="node8" class="node">
<title>Node7</title>
<g id="a_node8"><a xlink:href="neighbourlist_8h.html" target="_top" xlink:title=" ">
<polygon fill="#ffffff" stroke="#000000" points="374.5664,-110.5 374.5664,-128.5 455.6104,-128.5 455.6104,-110.5 374.5664,-110.5"/>
<text text-anchor="middle" x="415.0884" y="-116.5" font-family="Helvetica,sans-Serif" font-size="10.00" fill="#000000">neighbourlist.h</text>
</a>
</g>
</g>
<!-- Node6&#45;&gt;Node7 -->
<g id="edge8" class="edge">
<title>Node6&#45;&gt;Node7</title>
<path fill="none" stroke="#191970" d="M415.0884,-165.4179C415.0884,-158.2164 415.0884,-147.8962 415.0884,-138.8632"/>
<polygon fill="#191970" stroke="#191970" points="418.5885,-138.7794 415.0884,-128.7795 411.5885,-138.7795 418.5885,-138.7794"/>
</g>
<!-- Node8&#45;&gt;Node4 -->
<g id="edge11" class="edge">
<title>Node8&#45;&gt;Node4</title>
<path fill="none" stroke="#191970" d="M589.2351,-165.4179C590.9559,-158.1372 593.4303,-147.669 595.5819,-138.5659"/>
<polygon fill="#191970" stroke="#191970" points="599.0009,-139.3164 597.8951,-128.7795 592.1886,-137.7062 599.0009,-139.3164"/>
</g>
<!-- Node10 -->
<g id="node11" class="node">
<title>Node10</title>
<g id="a_node11"><a xlink:href="su3_8h.html" target="_top" xlink:title=" ">
<polygon fill="#ffffff" stroke="#000000" points="651.5762,-110.5 651.5762,-128.5 732.6006,-128.5 732.6006,-110.5 651.5762,-110.5"/>
<text text-anchor="middle" x="692.0884" y="-116.5" font-family="Helvetica,sans-Serif" font-size="10.00" fill="#000000">matrices/su3.h</text>
</a>
</g>
</g>
<!-- Node9&#45;&gt;Node10 -->
<g id="edge13" class="edge">
<title>Node9&#45;&gt;Node10</title>
<path fill="none" stroke="#191970" d="M749.6944,-165.4179C739.3692,-157.1876 723.9336,-144.8839 711.6387,-135.0836"/>
<polygon fill="#191970" stroke="#191970" points="713.7312,-132.2757 703.7299,-128.7795 709.368,-137.7495 713.7312,-132.2757"/>
</g>
<!-- Node11 -->
<g id="node12" class="node">
<title>Node11</title>
<g id="a_node12"><a xlink:href="complex_8h.html" target="_top" xlink:title=" ">
<polygon fill="#ffffff" stroke="#000000" points="717.7954,-55.5 717.7954,-73.5 804.3813,-73.5 804.3813,-55.5 717.7954,-55.5"/>
<text text-anchor="middle" x="761.0884" y="-61.5" font-family="Helvetica,sans-Serif" font-size="10.00" fill="#000000">math/complex.h</text>
</a>
</g>
</g>
<!-- Node9&#45;&gt;Node11 -->
<g id="edge18" class="edge">
<title>Node9&#45;&gt;Node11</title>
<path fill="none" stroke="#191970" d="M761.0884,-165.4982C761.0884,-147.6913 761.0884,-107.6225 761.0884,-83.6515"/>
<polygon fill="#191970" stroke="#191970" points="764.5885,-83.6261 761.0884,-73.6261 757.5885,-83.6262 764.5885,-83.6261"/>
</g>
<!-- Node13 -->
<g id="node14" class="node">
<title>Node13</title>
<g id="a_node14"><a xlink:href="su2_8h.html" target="_top" xlink:title=" ">
<polygon fill="#ffffff" stroke="#000000" points="789.5762,-110.5 789.5762,-128.5 870.6006,-128.5 870.6006,-110.5 789.5762,-110.5"/>
<text text-anchor="middle" x="830.0884" y="-116.5" font-family="Helvetica,sans-Serif" font-size="10.00" fill="#000000">matrices/su2.h</text>
</a>
</g>
</g>
<!-- Node9&#45;&gt;Node13 -->
<g id="edge16" class="edge">
<title>Node9&#45;&gt;Node13</title>
<path fill="none" stroke="#191970" d="M772.4823,-165.4179C782.8076,-157.1876 798.2431,-144.8839 810.5381,-135.0836"/>
<polygon fill="#191970" stroke="#191970" points="812.8087,-137.7495 818.4469,-128.7795 808.4455,-132.2757 812.8087,-137.7495"/>
</g>
<!-- Node10&#45;&gt;Node11 -->
<g id="edge14" class="edge">
<title>Node10&#45;&gt;Node11</title>
<path fill="none" stroke="#191970" d="M703.4823,-110.4179C713.8076,-102.1876 729.2431,-89.8839 741.5381,-80.0836"/>
<polygon fill="#191970" stroke="#191970" points="743.8087,-82.7495 749.4469,-73.7795 739.4455,-77.2757 743.8087,-82.7495"/>
</g>
<!-- Node12 -->
<g id="node13" class="node">
<title>Node12</title>
<g id="a_node13"><a xlink:title=" ">
<polygon fill="#ffffff" stroke="#bfbfbf" points="733.916,-.5 733.916,-18.5 788.2607,-18.5 788.2607,-.5 733.916,-.5"/>
<text text-anchor="middle" x="761.0884" y="-6.5" font-family="Helvetica,sans-Serif" font-size="10.00" fill="#000000">iostream</text>
</a>
</g>
</g>
<!-- Node11&#45;&gt;Node12 -->
<g id="edge15" class="edge">
<title>Node11&#45;&gt;Node12</title>
<path fill="none" stroke="#191970" d="M761.0884,-55.4179C761.0884,-48.2164 761.0884,-37.8962 761.0884,-28.8632"/>
<polygon fill="#191970" stroke="#191970" points="764.5885,-28.7794 761.0884,-18.7795 757.5885,-28.7795 764.5885,-28.7794"/>
</g>
<!-- Node13&#45;&gt;Node11 -->
<g id="edge17" class="edge">
<title>Node13&#45;&gt;Node11</title>
<path fill="none" stroke="#191970" d="M818.6944,-110.4179C808.3692,-102.1876 792.9336,-89.8839 780.6387,-80.0836"/>
<polygon fill="#191970" stroke="#191970" points="782.7312,-77.2757 772.7299,-73.7795 778.368,-82.7495 782.7312,-77.2757"/>
</g>
<!-- Node14&#45;&gt;Node3 -->
<g id="edge21" class="edge">
<title>Node14&#45;&gt;Node3</title>
<path fill="none" stroke="#191970" d="M60.2131,-220.4585C59.4039,-206.851 59.9091,-181.0011 73.0884,-165 93.6953,-139.9808 129.9884,-128.6468 156.3019,-123.558"/>
<polygon fill="#191970" stroke="#191970" points="156.9375,-127.0001 166.1932,-121.8443 155.7424,-120.1029 156.9375,-127.0001"/>
</g>
<!-- Node15 -->
<g id="node16" class="node">
<title>Node15</title>
<g id="a_node16"><a xlink:title=" ">
<polygon fill="#ffffff" stroke="#bfbfbf" points="81.8618,-165.5 81.8618,-183.5 122.3149,-183.5 122.3149,-165.5 81.8618,-165.5"/>
<text text-anchor="middle" x="102.0884" y="-171.5" font-family="Helvetica,sans-Serif" font-size="10.00" fill="#000000">string</text>
</a>
</g>
</g>
<!-- Node14&#45;&gt;Node15 -->
<g id="edge20" class="edge">
<title>Node14&#45;&gt;Node15</title>
<path fill="none" stroke="#191970" d="M67.8587,-220.4179C73.64,-212.6624 82.1177,-201.29 89.1894,-191.8035"/>
<polygon fill="#191970" stroke="#191970" points="92.0004,-193.8888 95.171,-183.7795 86.3882,-189.7051 92.0004,-193.8888"/>
</g>
</g>
</svg>
