<?xml version="1.0" encoding="UTF-8" standalone="no"?>
<!DOCTYPE svg PUBLIC "-//W3C//DTD SVG 1.1//EN"
 "http://www.w3.org/Graphics/SVG/1.1/DTD/svg11.dtd">
<!-- Generated by graphviz version 2.40.1 (20161225.0304)
 -->
<!-- Title: GLAC/math/exponentiation/expluscher.h Pages: 1 -->
<svg width="500pt" height="267pt"
 viewBox="0.00 0.00 500.07 267.00" xmlns="http://www.w3.org/2000/svg" xmlns:xlink="http://www.w3.org/1999/xlink">
<g id="graph0" class="graph" transform="scale(1 1) rotate(0) translate(4 263)">
<title>GLAC/math/exponentiation/expluscher.h</title>
<polygon fill="#ffffff" stroke="transparent" points="-4,4 -4,-263 496.0684,-263 496.0684,4 -4,4"/>
<!-- Node5 -->
<g id="node1" class="node">
<title>Node5</title>
<g id="a_node1"><a xlink:title=" ">
<polygon fill="#bfbfbf" stroke="#000000" points="163,-230.5 163,-258.5 299.0732,-258.5 299.0732,-230.5 163,-230.5"/>
<text text-anchor="start" x="171" y="-246.5" font-family="Helvetica,sans-Serif" font-size="10.00" fill="#000000">GLAC/math/exponentiation</text>
<text text-anchor="middle" x="231.0366" y="-236.5" font-family="Helvetica,sans-Serif" font-size="10.00" fill="#000000">/expluscher.h</text>
</a>
</g>
</g>
<!-- Node6 -->
<g id="node2" class="node">
<title>Node6</title>
<g id="a_node2"><a xlink:href="expluscher_8cpp.html" target="_top" xlink:title=" ">
<polygon fill="#ffffff" stroke="#000000" points="0,-165.5 0,-193.5 136.0732,-193.5 136.0732,-165.5 0,-165.5"/>
<text text-anchor="start" x="8" y="-181.5" font-family="Helvetica,sans-Serif" font-size="10.00" fill="#000000">GLAC/math/exponentiation</text>
<text text-anchor="middle" x="68.0366" y="-171.5" font-family="Helvetica,sans-Serif" font-size="10.00" fill="#000000">/expluscher.cpp</text>
</a>
</g>
</g>
<!-- Node5&#45;&gt;Node6 -->
<g id="edge1" class="edge">
<title>Node5&#45;&gt;Node6</title>
<path fill="none" stroke="#191970" d="M186.3533,-226.6815C160.2113,-216.2568 127.6709,-203.2805 103.3362,-193.5765"/>
<polygon fill="#191970" stroke="#191970" points="185.0829,-229.9429 195.668,-230.396 187.6758,-223.4408 185.0829,-229.9429"/>
</g>
<!-- Node7 -->
<g id="node3" class="node">
<title>Node7</title>
<g id="a_node3"><a xlink:href="flowexpfunctions_8h.html" target="_top" xlink:title=" ">
<polygon fill="#ffffff" stroke="#000000" points="154.3916,-170.5 154.3916,-188.5 307.6816,-188.5 307.6816,-170.5 154.3916,-170.5"/>
<text text-anchor="middle" x="231.0366" y="-176.5" font-family="Helvetica,sans-Serif" font-size="10.00" fill="#000000">GLAC/math/flowexpfunctions.h</text>
</a>
</g>
</g>
<!-- Node5&#45;&gt;Node7 -->
<g id="edge2" class="edge">
<title>Node5&#45;&gt;Node7</title>
<path fill="none" stroke="#191970" d="M231.0366,-220.3747C231.0366,-209.2832 231.0366,-196.7952 231.0366,-188.5743"/>
<polygon fill="#191970" stroke="#191970" points="227.5367,-220.3959 231.0366,-230.396 234.5367,-220.396 227.5367,-220.3959"/>
</g>
<!-- Node13 -->
<g id="node9" class="node">
<title>Node13</title>
<g id="a_node9"><a xlink:href="performancetests_8cpp.html" target="_top" xlink:title=" ">
<polygon fill="#ffffff" stroke="#000000" points="326.0049,-170.5 326.0049,-188.5 492.0684,-188.5 492.0684,-170.5 326.0049,-170.5"/>
<text text-anchor="middle" x="409.0366" y="-176.5" font-family="Helvetica,sans-Serif" font-size="10.00" fill="#000000">GLAC/tests/performancetests.cpp</text>
</a>
</g>
</g>
<!-- Node5&#45;&gt;Node13 -->
<g id="edge8" class="edge">
<title>Node5&#45;&gt;Node13</title>
<path fill="none" stroke="#191970" d="M279.3745,-226.8485C313.2545,-214.4766 357.1486,-198.4479 384.187,-188.5743"/>
<polygon fill="#191970" stroke="#191970" points="277.8527,-223.6781 269.66,-230.396 280.2539,-230.2534 277.8527,-223.6781"/>
</g>
<!-- Node8 -->
<g id="node4" class="node">
<title>Node8</title>
<g id="a_node4"><a xlink:href="flow_8h.html" target="_top" xlink:title=" ">
<polygon fill="#ffffff" stroke="#000000" points="184.9629,-110.5 184.9629,-128.5 277.1104,-128.5 277.1104,-110.5 184.9629,-110.5"/>
<text text-anchor="middle" x="231.0366" y="-116.5" font-family="Helvetica,sans-Serif" font-size="10.00" fill="#000000">GLAC/flow/flow.h</text>
</a>
</g>
</g>
<!-- Node7&#45;&gt;Node8 -->
<g id="edge3" class="edge">
<title>Node7&#45;&gt;Node8</title>
<path fill="none" stroke="#191970" d="M231.0366,-160.3734C231.0366,-149.7812 231.0366,-137.0976 231.0366,-128.6985"/>
<polygon fill="#191970" stroke="#191970" points="227.5367,-160.3873 231.0366,-170.3873 234.5367,-160.3873 227.5367,-160.3873"/>
</g>
<!-- Node9 -->
<g id="node5" class="node">
<title>Node9</title>
<g id="a_node5"><a xlink:href="flow_8cpp.html" target="_top" xlink:title=" ">
<polygon fill="#ffffff" stroke="#000000" points="123.6821,-55.5 123.6821,-73.5 226.3911,-73.5 226.3911,-55.5 123.6821,-55.5"/>
<text text-anchor="middle" x="175.0366" y="-61.5" font-family="Helvetica,sans-Serif" font-size="10.00" fill="#000000">GLAC/flow/flow.cpp</text>
</a>
</g>
</g>
<!-- Node8&#45;&gt;Node9 -->
<g id="edge4" class="edge">
<title>Node8&#45;&gt;Node9</title>
<path fill="none" stroke="#191970" d="M214.5412,-103.2992C204.75,-93.6828 192.6867,-81.8349 184.4848,-73.7795"/>
<polygon fill="#191970" stroke="#191970" points="212.2024,-105.9078 221.7894,-110.4179 217.1073,-100.9137 212.2024,-105.9078"/>
</g>
<!-- Node10 -->
<g id="node6" class="node">
<title>Node10</title>
<g id="a_node6"><a xlink:href="system_8h.html" target="_top" xlink:title=" ">
<polygon fill="#ffffff" stroke="#000000" points="244.0269,-55.5 244.0269,-73.5 330.0464,-73.5 330.0464,-55.5 244.0269,-55.5"/>
<text text-anchor="middle" x="287.0366" y="-61.5" font-family="Helvetica,sans-Serif" font-size="10.00" fill="#000000">GLAC/system.h</text>
</a>
</g>
</g>
<!-- Node8&#45;&gt;Node10 -->
<g id="edge5" class="edge">
<title>Node8&#45;&gt;Node10</title>
<path fill="none" stroke="#191970" d="M247.532,-103.2992C257.3233,-93.6828 269.3865,-81.8349 277.5884,-73.7795"/>
<polygon fill="#191970" stroke="#191970" points="244.9659,-100.9137 240.2839,-110.4179 249.8709,-105.9078 244.9659,-100.9137"/>
</g>
<!-- Node11 -->
<g id="node7" class="node">
<title>Node11</title>
<g id="a_node7"><a xlink:href="main_8cpp.html" target="_top" xlink:title=" ">
<polygon fill="#ffffff" stroke="#000000" points="188.7437,-.5 188.7437,-18.5 275.3296,-18.5 275.3296,-.5 188.7437,-.5"/>
<text text-anchor="middle" x="232.0366" y="-6.5" font-family="Helvetica,sans-Serif" font-size="10.00" fill="#000000">GLAC/main.cpp</text>
</a>
</g>
</g>
<!-- Node10&#45;&gt;Node11 -->
<g id="edge6" class="edge">
<title>Node10&#45;&gt;Node11</title>
<path fill="none" stroke="#191970" d="M270.8358,-48.2992C261.2194,-38.6828 249.3715,-26.8349 241.3161,-18.7795"/>
<polygon fill="#191970" stroke="#191970" points="268.4085,-50.8217 277.9545,-55.4179 273.3583,-45.8719 268.4085,-50.8217"/>
</g>
<!-- Node12 -->
<g id="node8" class="node">
<title>Node12</title>
<g id="a_node8"><a xlink:href="system_8cpp.html" target="_top" xlink:title=" ">
<polygon fill="#ffffff" stroke="#000000" points="293.7461,-.5 293.7461,-18.5 390.3271,-18.5 390.3271,-.5 293.7461,-.5"/>
<text text-anchor="middle" x="342.0366" y="-6.5" font-family="Helvetica,sans-Serif" font-size="10.00" fill="#000000">GLAC/system.cpp</text>
</a>
</g>
</g>
<!-- Node10&#45;&gt;Node12 -->
<g id="edge7" class="edge">
<title>Node10&#45;&gt;Node12</title>
<path fill="none" stroke="#191970" d="M303.2374,-48.2992C312.8539,-38.6828 324.7017,-26.8349 332.7572,-18.7795"/>
<polygon fill="#191970" stroke="#191970" points="300.715,-45.8719 296.1188,-55.4179 305.6647,-50.8217 300.715,-45.8719"/>
</g>
</g>
</svg>
