<?xml version="1.0" encoding="UTF-8" standalone="no"?>
<!DOCTYPE svg PUBLIC "-//W3C//DTD SVG 1.1//EN"
 "http://www.w3.org/Graphics/SVG/1.1/DTD/svg11.dtd">
<!-- Generated by graphviz version 2.40.1 (20161225.0304)
 -->
<!-- Title: GluonicLQCD/io/fieldio.cpp Pages: 1 -->
<svg width="928pt" height="357pt"
 viewBox="0.00 0.00 928.18 357.00" xmlns="http://www.w3.org/2000/svg" xmlns:xlink="http://www.w3.org/1999/xlink">
<g id="graph0" class="graph" transform="scale(1 1) rotate(0) translate(4 353)">
<title>GluonicLQCD/io/fieldio.cpp</title>
<polygon fill="#ffffff" stroke="transparent" points="-4,4 -4,-353 924.1821,-353 924.1821,4 -4,4"/>
<!-- Node0 -->
<g id="node1" class="node">
<title>Node0</title>
<g id="a_node1"><a xlink:title=" ">
<polygon fill="#bfbfbf" stroke="#000000" points="545.4829,-330.5 545.4829,-348.5 681.5415,-348.5 681.5415,-330.5 545.4829,-330.5"/>
<text text-anchor="middle" x="613.5122" y="-336.5" font-family="Helvetica,sans-Serif" font-size="10.00" fill="#000000">GluonicLQCD/io/fieldio.cpp</text>
</a>
</g>
</g>
<!-- Node1 -->
<g id="node2" class="node">
<title>Node1</title>
<g id="a_node2"><a xlink:href="fieldio_8h.html" target="_top" xlink:title=" ">
<polygon fill="#ffffff" stroke="#000000" points="413.2783,-275.5 413.2783,-293.5 463.7461,-293.5 463.7461,-275.5 413.2783,-275.5"/>
<text text-anchor="middle" x="438.5122" y="-281.5" font-family="Helvetica,sans-Serif" font-size="10.00" fill="#000000">fieldio.h</text>
</a>
</g>
</g>
<!-- Node0&#45;&gt;Node1 -->
<g id="edge1" class="edge">
<title>Node0&#45;&gt;Node1</title>
<path fill="none" stroke="#191970" d="M584.6145,-330.4179C554.0859,-320.8232 505.9432,-305.6926 473.3399,-295.4458"/>
<polygon fill="#191970" stroke="#191970" points="474.3466,-292.0935 463.7572,-292.4342 472.2478,-298.7715 474.3466,-292.0935"/>
</g>
<!-- Node9 -->
<g id="node10" class="node">
<title>Node9</title>
<g id="a_node10"><a xlink:title=" ">
<polygon fill="#ffffff" stroke="#bfbfbf" points="283.2856,-110.5 283.2856,-128.5 323.7388,-128.5 323.7388,-110.5 283.2856,-110.5"/>
<text text-anchor="middle" x="303.5122" y="-116.5" font-family="Helvetica,sans-Serif" font-size="10.00" fill="#000000">mpi.h</text>
</a>
</g>
</g>
<!-- Node0&#45;&gt;Node9 -->
<g id="edge29" class="edge">
<title>Node0&#45;&gt;Node9</title>
<path fill="none" stroke="#191970" d="M548.5189,-330.4625C506.5258,-323.389 451.2055,-311.7297 404.5122,-294 311.1254,-258.5405 258.9842,-270.2035 208.5122,-184 191.3054,-154.6117 239.3649,-135.724 273.2485,-126.409"/>
<polygon fill="#191970" stroke="#191970" points="274.419,-129.7213 283.2211,-123.8244 272.6628,-122.9452 274.419,-129.7213"/>
</g>
<!-- Node10 -->
<g id="node11" class="node">
<title>Node10</title>
<g id="a_node11"><a xlink:href="index_8h.html" target="_top" xlink:title=" ">
<polygon fill="#ffffff" stroke="#000000" points="639.4263,-165.5 639.4263,-183.5 751.5981,-183.5 751.5981,-165.5 639.4263,-165.5"/>
<text text-anchor="middle" x="695.5122" y="-171.5" font-family="Helvetica,sans-Serif" font-size="10.00" fill="#000000">parallelization/index.h</text>
</a>
</g>
</g>
<!-- Node0&#45;&gt;Node10 -->
<g id="edge25" class="edge">
<title>Node0&#45;&gt;Node10</title>
<path fill="none" stroke="#191970" d="M615.3523,-330.4619C618.1263,-317.7283 623.9785,-293.9459 632.5122,-275 646.4569,-244.041 668.5739,-211.2702 682.5509,-191.8649"/>
<polygon fill="#191970" stroke="#191970" points="685.436,-193.849 688.5143,-183.7112 679.7858,-189.7166 685.436,-193.849"/>
</g>
<!-- Node16 -->
<g id="node17" class="node">
<title>Node16</title>
<g id="a_node17"><a xlink:href="parameters_8h.html" target="_top" xlink:title=" ">
<polygon fill="#ffffff" stroke="#000000" points="481.3228,-275.5 481.3228,-293.5 585.7017,-293.5 585.7017,-275.5 481.3228,-275.5"/>
<text text-anchor="middle" x="533.5122" y="-281.5" font-family="Helvetica,sans-Serif" font-size="10.00" fill="#000000">config/parameters.h</text>
</a>
</g>
</g>
<!-- Node0&#45;&gt;Node16 -->
<g id="edge22" class="edge">
<title>Node0&#45;&gt;Node16</title>
<path fill="none" stroke="#191970" d="M600.3018,-330.4179C588.0268,-321.9788 569.5223,-309.257 555.1014,-299.3426"/>
<polygon fill="#191970" stroke="#191970" points="556.9655,-296.3768 546.7422,-293.5956 552.9998,-302.1451 556.9655,-296.3768"/>
</g>
<!-- Node17 -->
<g id="node18" class="node">
<title>Node17</title>
<g id="a_node18"><a xlink:href="communicator_8h.html" target="_top" xlink:title=" ">
<polygon fill="#ffffff" stroke="#000000" points="641.2539,-275.5 641.2539,-293.5 791.7705,-293.5 791.7705,-275.5 641.2539,-275.5"/>
<text text-anchor="middle" x="716.5122" y="-281.5" font-family="Helvetica,sans-Serif" font-size="10.00" fill="#000000">parallelization/communicator.h</text>
</a>
</g>
</g>
<!-- Node0&#45;&gt;Node17 -->
<g id="edge26" class="edge">
<title>Node0&#45;&gt;Node17</title>
<path fill="none" stroke="#191970" d="M630.5206,-330.4179C646.8465,-321.7001 671.7312,-308.4122 690.5376,-298.3699"/>
<polygon fill="#191970" stroke="#191970" points="692.306,-301.3934 699.4786,-293.5956 689.0088,-295.2186 692.306,-301.3934"/>
</g>
<!-- Node18 -->
<g id="node19" class="node">
<title>Node18</title>
<g id="a_node19"><a xlink:title=" ">
<polygon fill="#ffffff" stroke="#bfbfbf" points="809.8965,-275.5 809.8965,-293.5 853.1279,-293.5 853.1279,-275.5 809.8965,-275.5"/>
<text text-anchor="middle" x="831.5122" y="-281.5" font-family="Helvetica,sans-Serif" font-size="10.00" fill="#000000">cmath</text>
</a>
</g>
</g>
<!-- Node0&#45;&gt;Node18 -->
<g id="edge30" class="edge">
<title>Node0&#45;&gt;Node18</title>
<path fill="none" stroke="#191970" d="M653.4489,-330.4984C689.3526,-322.2462 743.7347,-309.3549 800.0832,-293.9964"/>
<polygon fill="#191970" stroke="#191970" points="801.163,-297.3296 809.8793,-291.3066 799.3094,-290.5794 801.163,-297.3296"/>
</g>
<!-- Node19 -->
<g id="node20" class="node">
<title>Node19</title>
<g id="a_node20"><a xlink:title=" ">
<polygon fill="#ffffff" stroke="#bfbfbf" points="870.8423,-275.5 870.8423,-293.5 920.1821,-293.5 920.1821,-275.5 870.8423,-275.5"/>
<text text-anchor="middle" x="895.5122" y="-281.5" font-family="Helvetica,sans-Serif" font-size="10.00" fill="#000000">fstream</text>
</a>
</g>
</g>
<!-- Node0&#45;&gt;Node19 -->
<g id="edge31" class="edge">
<title>Node0&#45;&gt;Node19</title>
<path fill="none" stroke="#191970" d="M672.2133,-330.4675C720.6113,-322.6356 791.2194,-310.3289 860.893,-294.2229"/>
<polygon fill="#191970" stroke="#191970" points="861.7757,-297.6109 870.7156,-291.9251 860.1812,-290.795 861.7757,-297.6109"/>
</g>
<!-- Node2 -->
<g id="node3" class="node">
<title>Node2</title>
<g id="a_node3"><a xlink:title=" ">
<polygon fill="#ffffff" stroke="#bfbfbf" points="418.2856,-220.5 418.2856,-238.5 458.7388,-238.5 458.7388,-220.5 418.2856,-220.5"/>
<text text-anchor="middle" x="438.5122" y="-226.5" font-family="Helvetica,sans-Serif" font-size="10.00" fill="#000000">string</text>
</a>
</g>
</g>
<!-- Node1&#45;&gt;Node2 -->
<g id="edge2" class="edge">
<title>Node1&#45;&gt;Node2</title>
<path fill="none" stroke="#191970" d="M438.5122,-275.4179C438.5122,-268.2164 438.5122,-257.8962 438.5122,-248.8632"/>
<polygon fill="#191970" stroke="#191970" points="442.0123,-248.7794 438.5122,-238.7795 435.0123,-248.7795 442.0123,-248.7794"/>
</g>
<!-- Node3 -->
<g id="node4" class="node">
<title>Node3</title>
<g id="a_node4"><a xlink:href="links_8h.html" target="_top" xlink:title=" ">
<polygon fill="#ffffff" stroke="#000000" points="63.835,-220.5 63.835,-238.5 133.1895,-238.5 133.1895,-220.5 63.835,-220.5"/>
<text text-anchor="middle" x="98.5122" y="-226.5" font-family="Helvetica,sans-Serif" font-size="10.00" fill="#000000">math/links.h</text>
</a>
</g>
</g>
<!-- Node1&#45;&gt;Node3 -->
<g id="edge3" class="edge">
<title>Node1&#45;&gt;Node3</title>
<path fill="none" stroke="#191970" d="M413.2347,-280.411C356.0279,-271.157 215.9982,-248.5051 143.56,-236.7871"/>
<polygon fill="#191970" stroke="#191970" points="143.8114,-233.2824 133.3808,-235.1405 142.6935,-240.1926 143.8114,-233.2824"/>
</g>
<!-- Node7 -->
<g id="node8" class="node">
<title>Node7</title>
<g id="a_node8"><a xlink:href="lattice_8h.html" target="_top" xlink:title=" ">
<polygon fill="#ffffff" stroke="#000000" points="476.7759,-220.5 476.7759,-238.5 552.2485,-238.5 552.2485,-220.5 476.7759,-220.5"/>
<text text-anchor="middle" x="514.5122" y="-226.5" font-family="Helvetica,sans-Serif" font-size="10.00" fill="#000000">math/lattice.h</text>
</a>
</g>
</g>
<!-- Node1&#45;&gt;Node7 -->
<g id="edge7" class="edge">
<title>Node1&#45;&gt;Node7</title>
<path fill="none" stroke="#191970" d="M451.0621,-275.4179C462.6134,-267.0584 479.9714,-254.4966 493.6137,-244.6239"/>
<polygon fill="#191970" stroke="#191970" points="495.8945,-247.2938 501.9437,-238.5956 491.7906,-241.6229 495.8945,-247.2938"/>
</g>
<!-- Node4 -->
<g id="node5" class="node">
<title>Node4</title>
<g id="a_node5"><a xlink:href="su3_8h.html" target="_top" xlink:title=" ">
<polygon fill="#ffffff" stroke="#000000" points="0,-110.5 0,-128.5 81.0244,-128.5 81.0244,-110.5 0,-110.5"/>
<text text-anchor="middle" x="40.5122" y="-116.5" font-family="Helvetica,sans-Serif" font-size="10.00" fill="#000000">matrices/su3.h</text>
</a>
</g>
</g>
<!-- Node3&#45;&gt;Node4 -->
<g id="edge4" class="edge">
<title>Node3&#45;&gt;Node4</title>
<path fill="none" stroke="#191970" d="M93.7658,-220.4982C84.2493,-202.4496 62.6738,-161.5306 50.1003,-137.6843"/>
<polygon fill="#191970" stroke="#191970" points="53.0843,-135.8394 45.3242,-128.6261 46.8923,-139.1043 53.0843,-135.8394"/>
</g>
<!-- Node5 -->
<g id="node6" class="node">
<title>Node5</title>
<g id="a_node6"><a xlink:href="complex_8h.html" target="_top" xlink:title=" ">
<polygon fill="#ffffff" stroke="#000000" points="96.2192,-55.5 96.2192,-73.5 182.8052,-73.5 182.8052,-55.5 96.2192,-55.5"/>
<text text-anchor="middle" x="139.5122" y="-61.5" font-family="Helvetica,sans-Serif" font-size="10.00" fill="#000000">math/complex.h</text>
</a>
</g>
</g>
<!-- Node4&#45;&gt;Node5 -->
<g id="edge5" class="edge">
<title>Node4&#45;&gt;Node5</title>
<path fill="none" stroke="#191970" d="M56.86,-110.4179C72.4803,-101.7399 96.252,-88.5334 114.2984,-78.5077"/>
<polygon fill="#191970" stroke="#191970" points="116.0983,-81.5117 123.1401,-73.5956 112.6987,-75.3925 116.0983,-81.5117"/>
</g>
<!-- Node6 -->
<g id="node7" class="node">
<title>Node6</title>
<g id="a_node7"><a xlink:title=" ">
<polygon fill="#ffffff" stroke="#bfbfbf" points="112.3398,-.5 112.3398,-18.5 166.6846,-18.5 166.6846,-.5 112.3398,-.5"/>
<text text-anchor="middle" x="139.5122" y="-6.5" font-family="Helvetica,sans-Serif" font-size="10.00" fill="#000000">iostream</text>
</a>
</g>
</g>
<!-- Node5&#45;&gt;Node6 -->
<g id="edge6" class="edge">
<title>Node5&#45;&gt;Node6</title>
<path fill="none" stroke="#191970" d="M139.5122,-55.4179C139.5122,-48.2164 139.5122,-37.8962 139.5122,-28.8632"/>
<polygon fill="#191970" stroke="#191970" points="143.0123,-28.7794 139.5122,-18.7795 136.0123,-28.7795 143.0123,-28.7794"/>
</g>
<!-- Node8 -->
<g id="node9" class="node">
<title>Node8</title>
<g id="a_node9"><a xlink:title=" ">
<polygon fill="#ffffff" stroke="#bfbfbf" points="673.8965,-110.5 673.8965,-128.5 717.1279,-128.5 717.1279,-110.5 673.8965,-110.5"/>
<text text-anchor="middle" x="695.5122" y="-116.5" font-family="Helvetica,sans-Serif" font-size="10.00" fill="#000000">vector</text>
</a>
</g>
</g>
<!-- Node7&#45;&gt;Node8 -->
<g id="edge8" class="edge">
<title>Node7&#45;&gt;Node8</title>
<path fill="none" stroke="#191970" d="M530.4336,-220.4076C546.2579,-211.325 571.1808,-196.8963 592.5122,-184 620.3509,-167.1696 652.0185,-147.2156 672.8047,-134.0057"/>
<polygon fill="#191970" stroke="#191970" points="674.7142,-136.9392 681.2701,-128.6162 670.9549,-131.0343 674.7142,-136.9392"/>
</g>
<!-- Node7&#45;&gt;Node9 -->
<g id="edge9" class="edge">
<title>Node7&#45;&gt;Node9</title>
<path fill="none" stroke="#191970" d="M498.9157,-220.4306C476.797,-207.6598 434.9487,-183.8335 398.5122,-165 376.6546,-153.7021 351.5309,-141.7116 332.612,-132.8773"/>
<polygon fill="#191970" stroke="#191970" points="333.878,-129.6062 323.3343,-128.5657 330.9278,-135.9542 333.878,-129.6062"/>
</g>
<!-- Node7&#45;&gt;Node10 -->
<g id="edge10" class="edge">
<title>Node7&#45;&gt;Node10</title>
<path fill="none" stroke="#191970" d="M544.4007,-220.4179C574.884,-211.155 622.3472,-196.7325 655.9357,-186.526"/>
<polygon fill="#191970" stroke="#191970" points="657.3298,-189.7605 665.8802,-183.5042 655.2945,-183.0629 657.3298,-189.7605"/>
</g>
<!-- Node11 -->
<g id="node12" class="node">
<title>Node11</title>
<g id="a_node12"><a xlink:href="neighbours_8h.html" target="_top" xlink:title=" ">
<polygon fill="#ffffff" stroke="#000000" points="445.6382,-165.5 445.6382,-183.5 583.3862,-183.5 583.3862,-165.5 445.6382,-165.5"/>
<text text-anchor="middle" x="514.5122" y="-171.5" font-family="Helvetica,sans-Serif" font-size="10.00" fill="#000000">parallelization/neighbours.h</text>
</a>
</g>
</g>
<!-- Node7&#45;&gt;Node11 -->
<g id="edge12" class="edge">
<title>Node7&#45;&gt;Node11</title>
<path fill="none" stroke="#191970" d="M514.5122,-220.4179C514.5122,-213.2164 514.5122,-202.8962 514.5122,-193.8632"/>
<polygon fill="#191970" stroke="#191970" points="518.0123,-193.7794 514.5122,-183.7795 511.0123,-193.7795 518.0123,-193.7794"/>
</g>
<!-- Node13 -->
<g id="node14" class="node">
<title>Node13</title>
<g id="a_node14"><a xlink:href="parallelparameters_8h.html" target="_top" xlink:title=" ">
<polygon fill="#ffffff" stroke="#000000" points="217.9707,-165.5 217.9707,-183.5 389.0537,-183.5 389.0537,-165.5 217.9707,-165.5"/>
<text text-anchor="middle" x="303.5122" y="-171.5" font-family="Helvetica,sans-Serif" font-size="10.00" fill="#000000">parallelization/parallelparameters.h</text>
</a>
</g>
</g>
<!-- Node7&#45;&gt;Node13 -->
<g id="edge15" class="edge">
<title>Node7&#45;&gt;Node13</title>
<path fill="none" stroke="#191970" d="M479.6698,-220.4179C443.5979,-211.0152 387.1301,-196.2961 347.8873,-186.067"/>
<polygon fill="#191970" stroke="#191970" points="348.6151,-182.6398 338.0556,-183.5042 346.8494,-189.4135 348.6151,-182.6398"/>
</g>
<!-- Node14 -->
<g id="node15" class="node">
<title>Node14</title>
<g id="a_node15"><a xlink:href="functions_8h.html" target="_top" xlink:title=" ">
<polygon fill="#ffffff" stroke="#000000" points="97.3301,-165.5 97.3301,-183.5 161.6943,-183.5 161.6943,-165.5 97.3301,-165.5"/>
<text text-anchor="middle" x="129.5122" y="-171.5" font-family="Helvetica,sans-Serif" font-size="10.00" fill="#000000">functions.h</text>
</a>
</g>
</g>
<!-- Node7&#45;&gt;Node14 -->
<g id="edge17" class="edge">
<title>Node7&#45;&gt;Node14</title>
<path fill="none" stroke="#191970" d="M476.587,-221.612C473.5212,-221.0422 470.4676,-220.4971 467.5122,-220 411.5363,-210.5857 249.8125,-189.7508 172.1398,-179.883"/>
<polygon fill="#191970" stroke="#191970" points="172.1185,-176.3524 161.7575,-178.5658 171.2374,-183.2967 172.1185,-176.3524"/>
</g>
<!-- Node10&#45;&gt;Node8 -->
<g id="edge11" class="edge">
<title>Node10&#45;&gt;Node8</title>
<path fill="none" stroke="#191970" d="M695.5122,-165.4179C695.5122,-158.2164 695.5122,-147.8962 695.5122,-138.8632"/>
<polygon fill="#191970" stroke="#191970" points="699.0123,-138.7794 695.5122,-128.7795 692.0123,-138.7795 699.0123,-138.7794"/>
</g>
<!-- Node11&#45;&gt;Node8 -->
<g id="edge14" class="edge">
<title>Node11&#45;&gt;Node8</title>
<path fill="none" stroke="#191970" d="M544.4007,-165.4179C577.4319,-155.3808 630.4,-139.2855 664.0491,-129.0606"/>
<polygon fill="#191970" stroke="#191970" points="665.2779,-132.3453 673.8283,-126.089 663.2427,-125.6477 665.2779,-132.3453"/>
</g>
<!-- Node12 -->
<g id="node13" class="node">
<title>Node12</title>
<g id="a_node13"><a xlink:href="neighbourlist_8h.html" target="_top" xlink:title=" ">
<polygon fill="#ffffff" stroke="#000000" points="473.9902,-110.5 473.9902,-128.5 555.0342,-128.5 555.0342,-110.5 473.9902,-110.5"/>
<text text-anchor="middle" x="514.5122" y="-116.5" font-family="Helvetica,sans-Serif" font-size="10.00" fill="#000000">neighbourlist.h</text>
</a>
</g>
</g>
<!-- Node11&#45;&gt;Node12 -->
<g id="edge13" class="edge">
<title>Node11&#45;&gt;Node12</title>
<path fill="none" stroke="#191970" d="M514.5122,-165.4179C514.5122,-158.2164 514.5122,-147.8962 514.5122,-138.8632"/>
<polygon fill="#191970" stroke="#191970" points="518.0123,-138.7794 514.5122,-128.7795 511.0123,-138.7795 518.0123,-138.7794"/>
</g>
<!-- Node13&#45;&gt;Node9 -->
<g id="edge16" class="edge">
<title>Node13&#45;&gt;Node9</title>
<path fill="none" stroke="#191970" d="M303.5122,-165.4179C303.5122,-158.2164 303.5122,-147.8962 303.5122,-138.8632"/>
<polygon fill="#191970" stroke="#191970" points="307.0123,-138.7794 303.5122,-128.7795 300.0123,-138.7795 307.0123,-138.7794"/>
</g>
<!-- Node14&#45;&gt;Node4 -->
<g id="edge18" class="edge">
<title>Node14&#45;&gt;Node4</title>
<path fill="none" stroke="#191970" d="M114.8157,-165.4179C101.0308,-156.8992 80.1845,-144.0166 64.0773,-134.0627"/>
<polygon fill="#191970" stroke="#191970" points="65.5773,-130.8753 55.2306,-128.5956 61.8974,-136.83 65.5773,-130.8753"/>
</g>
<!-- Node14&#45;&gt;Node5 -->
<g id="edge21" class="edge">
<title>Node14&#45;&gt;Node5</title>
<path fill="none" stroke="#191970" d="M149.6973,-165.3585C163.6969,-157.8069 181.2544,-145.626 189.5122,-129 198.7973,-110.3059 180.8375,-91.7674 163.9152,-79.3962"/>
<polygon fill="#191970" stroke="#191970" points="165.5424,-76.2693 155.3102,-73.521 161.5952,-82.0503 165.5424,-76.2693"/>
</g>
<!-- Node15 -->
<g id="node16" class="node">
<title>Node15</title>
<g id="a_node16"><a xlink:href="su2_8h.html" target="_top" xlink:title=" ">
<polygon fill="#ffffff" stroke="#000000" points="99,-110.5 99,-128.5 180.0244,-128.5 180.0244,-110.5 99,-110.5"/>
<text text-anchor="middle" x="139.5122" y="-116.5" font-family="Helvetica,sans-Serif" font-size="10.00" fill="#000000">matrices/su2.h</text>
</a>
</g>
</g>
<!-- Node14&#45;&gt;Node15 -->
<g id="edge19" class="edge">
<title>Node14&#45;&gt;Node15</title>
<path fill="none" stroke="#191970" d="M131.1635,-165.4179C132.4729,-158.2164 134.3493,-147.8962 135.9916,-138.8632"/>
<polygon fill="#191970" stroke="#191970" points="139.4796,-139.2443 137.825,-128.7795 132.5926,-137.992 139.4796,-139.2443"/>
</g>
<!-- Node15&#45;&gt;Node5 -->
<g id="edge20" class="edge">
<title>Node15&#45;&gt;Node5</title>
<path fill="none" stroke="#191970" d="M139.5122,-110.4179C139.5122,-103.2164 139.5122,-92.8962 139.5122,-83.8632"/>
<polygon fill="#191970" stroke="#191970" points="143.0123,-83.7794 139.5122,-73.7795 136.0123,-83.7795 143.0123,-83.7794"/>
</g>
<!-- Node16&#45;&gt;Node2 -->
<g id="edge23" class="edge">
<title>Node16&#45;&gt;Node2</title>
<path fill="none" stroke="#191970" d="M517.8249,-275.4179C502.9732,-266.8195 480.4424,-253.7754 463.1853,-243.7844"/>
<polygon fill="#191970" stroke="#191970" points="464.6308,-240.577 454.2228,-238.5956 461.1235,-246.635 464.6308,-240.577"/>
</g>
<!-- Node16&#45;&gt;Node8 -->
<g id="edge24" class="edge">
<title>Node16&#45;&gt;Node8</title>
<path fill="none" stroke="#191970" d="M585.9488,-277.7506C640.1389,-267.6734 722.0712,-243.0589 760.5122,-184 773.5463,-163.9751 748.873,-145.2318 726.2745,-133.1672"/>
<polygon fill="#191970" stroke="#191970" points="727.6617,-129.947 717.1561,-128.5749 724.5131,-136.1989 727.6617,-129.947"/>
</g>
<!-- Node17&#45;&gt;Node7 -->
<g id="edge28" class="edge">
<title>Node17&#45;&gt;Node7</title>
<path fill="none" stroke="#191970" d="M683.156,-275.4179C648.696,-266.0352 594.7929,-251.3586 557.2341,-241.1322"/>
<polygon fill="#191970" stroke="#191970" points="558.1505,-237.7544 547.5822,-238.5042 556.3114,-244.5085 558.1505,-237.7544"/>
</g>
<!-- Node17&#45;&gt;Node8 -->
<g id="edge27" class="edge">
<title>Node17&#45;&gt;Node8</title>
<path fill="none" stroke="#191970" d="M746.0581,-275.3461C763.1994,-268.3427 783.3539,-256.8019 793.5122,-239 809.8125,-210.4346 811.2064,-192.7235 793.5122,-165 779.0721,-142.375 750.1586,-130.8273 727.462,-125.0421"/>
<polygon fill="#191970" stroke="#191970" points="728.0747,-121.5919 717.5456,-122.7704 726.5116,-128.4151 728.0747,-121.5919"/>
</g>
</g>
</svg>
