<?xml version="1.0" encoding="UTF-8" standalone="no"?>
<!DOCTYPE svg PUBLIC "-//W3C//DTD SVG 1.1//EN"
 "http://www.w3.org/Graphics/SVG/1.1/DTD/svg11.dtd">
<!-- Generated by graphviz version 2.40.1 (20161225.0304)
 -->
<!-- Title: GluonicLQCD/io/fieldio.h Pages: 1 -->
<svg width="642pt" height="92pt"
 viewBox="0.00 0.00 642.28 92.00" xmlns="http://www.w3.org/2000/svg" xmlns:xlink="http://www.w3.org/1999/xlink">
<g id="graph0" class="graph" transform="scale(1 1) rotate(0) translate(4 88)">
<title>GluonicLQCD/io/fieldio.h</title>
<polygon fill="#ffffff" stroke="transparent" points="-4,4 -4,-88 638.2827,-88 638.2827,4 -4,4"/>
<!-- Node14 -->
<g id="node1" class="node">
<title>Node14</title>
<g id="a_node1"><a xlink:title=" ">
<polygon fill="#bfbfbf" stroke="#000000" points="247.2808,-65.5 247.2808,-83.5 372.7778,-83.5 372.7778,-65.5 247.2808,-65.5"/>
<text text-anchor="middle" x="310.0293" y="-71.5" font-family="Helvetica,sans-Serif" font-size="10.00" fill="#000000">GluonicLQCD/io/fieldio.h</text>
</a>
</g>
</g>
<!-- Node15 -->
<g id="node2" class="node">
<title>Node15</title>
<g id="a_node2"><a xlink:href="fieldio_8cpp.html" target="_top" xlink:title=" ">
<polygon fill="#ffffff" stroke="#000000" points="0,-5.5 0,-23.5 136.0586,-23.5 136.0586,-5.5 0,-5.5"/>
<text text-anchor="middle" x="68.0293" y="-11.5" font-family="Helvetica,sans-Serif" font-size="10.00" fill="#000000">GluonicLQCD/io/fieldio.cpp</text>
</a>
</g>
</g>
<!-- Node14&#45;&gt;Node15 -->
<g id="edge1" class="edge">
<title>Node14&#45;&gt;Node15</title>
<path fill="none" stroke="#191970" d="M263.7387,-63.023C217.3662,-51.5257 146.9414,-34.065 104.4218,-23.5229"/>
<polygon fill="#191970" stroke="#191970" points="262.989,-66.443 273.5374,-65.4524 264.6736,-59.6487 262.989,-66.443"/>
</g>
<!-- Node16 -->
<g id="node3" class="node">
<title>Node16</title>
<g id="a_node3"><a xlink:href="latticeactionchargedensity_8cpp.html" target="_top" xlink:title=" ">
<polygon fill="#ffffff" stroke="#000000" points="154.0239,-.5 154.0239,-28.5 306.0347,-28.5 306.0347,-.5 154.0239,-.5"/>
<text text-anchor="start" x="162.0239" y="-16.5" font-family="Helvetica,sans-Serif" font-size="10.00" fill="#000000">GluonicLQCD/observables</text>
<text text-anchor="middle" x="230.0293" y="-6.5" font-family="Helvetica,sans-Serif" font-size="10.00" fill="#000000">/latticeactionchargedensity.cpp</text>
</a>
</g>
</g>
<!-- Node14&#45;&gt;Node16 -->
<g id="edge2" class="edge">
<title>Node14&#45;&gt;Node16</title>
<path fill="none" stroke="#191970" d="M289.8162,-59.3402C277.2356,-49.9048 261.1646,-37.8515 248.8537,-28.6183"/>
<polygon fill="#191970" stroke="#191970" points="287.779,-62.1873 297.879,-65.3873 291.979,-56.5872 287.779,-62.1873"/>
</g>
<!-- Node17 -->
<g id="node4" class="node">
<title>Node17</title>
<g id="a_node4"><a xlink:href="system_8cpp.html" target="_top" xlink:title=" ">
<polygon fill="#ffffff" stroke="#000000" points="324.5098,-5.5 324.5098,-23.5 455.5488,-23.5 455.5488,-5.5 324.5098,-5.5"/>
<text text-anchor="middle" x="390.0293" y="-11.5" font-family="Helvetica,sans-Serif" font-size="10.00" fill="#000000">GluonicLQCD/system.cpp</text>
</a>
</g>
</g>
<!-- Node14&#45;&gt;Node17 -->
<g id="edge3" class="edge">
<title>Node14&#45;&gt;Node17</title>
<path fill="none" stroke="#191970" d="M330.3814,-59.2359C345.4402,-47.9418 365.442,-32.9405 378.0268,-23.5019"/>
<polygon fill="#191970" stroke="#191970" points="328.0796,-56.5872 322.1796,-65.3873 332.2796,-62.1873 328.0796,-56.5872"/>
</g>
<!-- Node18 -->
<g id="node5" class="node">
<title>Node18</title>
<g id="a_node5"><a xlink:href="testsuite_8cpp.html" target="_top" xlink:title=" ">
<polygon fill="#ffffff" stroke="#000000" points="473.7759,-5.5 473.7759,-23.5 634.2827,-23.5 634.2827,-5.5 473.7759,-5.5"/>
<text text-anchor="middle" x="554.0293" y="-11.5" font-family="Helvetica,sans-Serif" font-size="10.00" fill="#000000">GluonicLQCD/tests/testsuite.cpp</text>
</a>
</g>
</g>
<!-- Node14&#45;&gt;Node18 -->
<g id="edge4" class="edge">
<title>Node14&#45;&gt;Node18</title>
<path fill="none" stroke="#191970" d="M356.7025,-63.023C403.4582,-51.5257 474.465,-34.065 517.336,-23.5229"/>
<polygon fill="#191970" stroke="#191970" points="355.6977,-59.6657 346.8227,-65.4524 357.3693,-66.4632 355.6977,-59.6657"/>
</g>
</g>
</svg>
