<?xml version="1.0" encoding="UTF-8" standalone="no"?>
<!DOCTYPE svg PUBLIC "-//W3C//DTD SVG 1.1//EN"
 "http://www.w3.org/Graphics/SVG/1.1/DTD/svg11.dtd">
<!-- Generated by graphviz version 2.40.1 (20161225.0304)
 -->
<!-- Title: GluonicLQCD/flow/flow.h Pages: 1 -->
<svg width="361pt" height="137pt"
 viewBox="0.00 0.00 361.10 137.00" xmlns="http://www.w3.org/2000/svg" xmlns:xlink="http://www.w3.org/1999/xlink">
<g id="graph0" class="graph" transform="scale(1 1) rotate(0) translate(4 133)">
<title>GluonicLQCD/flow/flow.h</title>
<polygon fill="#ffffff" stroke="transparent" points="-4,4 -4,-133 357.103,-133 357.103,4 -4,4"/>
<!-- Node19 -->
<g id="node1" class="node">
<title>Node19</title>
<g id="a_node1"><a xlink:title=" ">
<polygon fill="#bfbfbf" stroke="#000000" points="78.2808,-110.5 78.2808,-128.5 204.8862,-128.5 204.8862,-110.5 78.2808,-110.5"/>
<text text-anchor="middle" x="141.5835" y="-116.5" font-family="Helvetica,sans-Serif" font-size="10.00" fill="#000000">GluonicLQCD/flow/flow.h</text>
</a>
</g>
</g>
<!-- Node20 -->
<g id="node2" class="node">
<title>Node20</title>
<g id="a_node2"><a xlink:href="flow_8cpp.html" target="_top" xlink:title=" ">
<polygon fill="#ffffff" stroke="#000000" points="0,-55.5 0,-73.5 137.167,-73.5 137.167,-55.5 0,-55.5"/>
<text text-anchor="middle" x="68.5835" y="-61.5" font-family="Helvetica,sans-Serif" font-size="10.00" fill="#000000">GluonicLQCD/flow/flow.cpp</text>
</a>
</g>
</g>
<!-- Node19&#45;&gt;Node20 -->
<g id="edge1" class="edge">
<title>Node19&#45;&gt;Node20</title>
<path fill="none" stroke="#191970" d="M121.2099,-104.15C108.2556,-94.3899 91.9092,-82.0742 80.8999,-73.7795"/>
<polygon fill="#191970" stroke="#191970" points="119.436,-107.1957 129.529,-110.4179 123.6483,-101.6049 119.436,-107.1957"/>
</g>
<!-- Node21 -->
<g id="node3" class="node">
<title>Node21</title>
<g id="a_node3"><a xlink:href="system_8h.html" target="_top" xlink:title=" ">
<polygon fill="#ffffff" stroke="#000000" points="155.3447,-55.5 155.3447,-73.5 275.8223,-73.5 275.8223,-55.5 155.3447,-55.5"/>
<text text-anchor="middle" x="215.5835" y="-61.5" font-family="Helvetica,sans-Serif" font-size="10.00" fill="#000000">GluonicLQCD/system.h</text>
</a>
</g>
</g>
<!-- Node19&#45;&gt;Node21 -->
<g id="edge2" class="edge">
<title>Node19&#45;&gt;Node21</title>
<path fill="none" stroke="#191970" d="M161.9106,-104.392C175.19,-94.5222 192.0924,-81.9596 203.3457,-73.5956"/>
<polygon fill="#191970" stroke="#191970" points="159.7412,-101.6435 153.8031,-110.4179 163.9169,-107.2617 159.7412,-101.6435"/>
</g>
<!-- Node22 -->
<g id="node4" class="node">
<title>Node22</title>
<g id="a_node4"><a xlink:href="main_8cpp.html" target="_top" xlink:title=" ">
<polygon fill="#ffffff" stroke="#000000" points="83.0615,-.5 83.0615,-18.5 204.1055,-18.5 204.1055,-.5 83.0615,-.5"/>
<text text-anchor="middle" x="143.5835" y="-6.5" font-family="Helvetica,sans-Serif" font-size="10.00" fill="#000000">GluonicLQCD/main.cpp</text>
</a>
</g>
</g>
<!-- Node21&#45;&gt;Node22 -->
<g id="edge3" class="edge">
<title>Node21&#45;&gt;Node22</title>
<path fill="none" stroke="#191970" d="M195.489,-49.15C182.7121,-39.3899 166.5897,-27.0742 155.7311,-18.7795"/>
<polygon fill="#191970" stroke="#191970" points="193.6228,-52.1288 203.6942,-55.4179 197.8721,-46.5661 193.6228,-52.1288"/>
</g>
<!-- Node23 -->
<g id="node5" class="node">
<title>Node23</title>
<g id="a_node5"><a xlink:href="system_8cpp.html" target="_top" xlink:title=" ">
<polygon fill="#ffffff" stroke="#000000" points="222.064,-.5 222.064,-18.5 353.103,-18.5 353.103,-.5 222.064,-.5"/>
<text text-anchor="middle" x="287.5835" y="-6.5" font-family="Helvetica,sans-Serif" font-size="10.00" fill="#000000">GluonicLQCD/system.cpp</text>
</a>
</g>
</g>
<!-- Node21&#45;&gt;Node23 -->
<g id="edge4" class="edge">
<title>Node21&#45;&gt;Node23</title>
<path fill="none" stroke="#191970" d="M235.678,-49.15C248.4548,-39.3899 264.5773,-27.0742 275.4358,-18.7795"/>
<polygon fill="#191970" stroke="#191970" points="233.2949,-46.5661 227.4728,-55.4179 237.5442,-52.1288 233.2949,-46.5661"/>
</g>
</g>
</svg>
