<?xml version="1.0" encoding="UTF-8" standalone="no"?>
<!DOCTYPE svg PUBLIC "-//W3C//DTD SVG 1.1//EN"
 "http://www.w3.org/Graphics/SVG/1.1/DTD/svg11.dtd">
<!-- Generated by graphviz version 2.40.1 (20161225.0304)
 -->
<!-- Title: GluonicLQCD/flow/flow.cpp Pages: 1 -->
<svg width="1028pt" height="432pt"
 viewBox="0.00 0.00 1027.57 432.00" xmlns="http://www.w3.org/2000/svg" xmlns:xlink="http://www.w3.org/1999/xlink">
<g id="graph0" class="graph" transform="scale(1 1) rotate(0) translate(4 428)">
<title>GluonicLQCD/flow/flow.cpp</title>
<polygon fill="#ffffff" stroke="transparent" points="-4,4 -4,-428 1023.5732,-428 1023.5732,4 -4,4"/>
<!-- Node0 -->
<g id="node1" class="node">
<title>Node0</title>
<g id="a_node1"><a xlink:title=" ">
<polygon fill="#bfbfbf" stroke="#000000" points="492.4482,-405.5 492.4482,-423.5 629.6152,-423.5 629.6152,-405.5 492.4482,-405.5"/>
<text text-anchor="middle" x="561.0317" y="-411.5" font-family="Helvetica,sans-Serif" font-size="10.00" fill="#000000">GluonicLQCD/flow/flow.cpp</text>
</a>
</g>
</g>
<!-- Node1 -->
<g id="node2" class="node">
<title>Node1</title>
<g id="a_node2"><a xlink:href="flow_8h.html" target="_top" xlink:title=" ">
<polygon fill="#ffffff" stroke="#000000" points="540.2437,-350.5 540.2437,-368.5 581.8198,-368.5 581.8198,-350.5 540.2437,-350.5"/>
<text text-anchor="middle" x="561.0317" y="-356.5" font-family="Helvetica,sans-Serif" font-size="10.00" fill="#000000">flow.h</text>
</a>
</g>
</g>
<!-- Node0&#45;&gt;Node1 -->
<g id="edge1" class="edge">
<title>Node0&#45;&gt;Node1</title>
<path fill="none" stroke="#191970" d="M561.0317,-405.4179C561.0317,-398.2164 561.0317,-387.8962 561.0317,-378.8632"/>
<polygon fill="#191970" stroke="#191970" points="564.5318,-378.7794 561.0317,-368.7795 557.5318,-378.7795 564.5318,-378.7794"/>
</g>
<!-- Node5 -->
<g id="node6" class="node">
<title>Node5</title>
<g id="a_node6"><a xlink:href="index_8h.html" target="_top" xlink:title=" ">
<polygon fill="#ffffff" stroke="#000000" points="447.9458,-170.5 447.9458,-188.5 560.1177,-188.5 560.1177,-170.5 447.9458,-170.5"/>
<text text-anchor="middle" x="504.0317" y="-176.5" font-family="Helvetica,sans-Serif" font-size="10.00" fill="#000000">parallelization/index.h</text>
</a>
</g>
</g>
<!-- Node0&#45;&gt;Node5 -->
<g id="edge31" class="edge">
<title>Node0&#45;&gt;Node5</title>
<path fill="none" stroke="#191970" d="M554.2536,-405.4261C547.7621,-396.4752 537.9578,-382.2484 531.0317,-369 518.8343,-345.6685 514.4899,-339.7555 509.0317,-314 500.5076,-273.7768 501.3393,-225.3042 502.6926,-198.9259"/>
<polygon fill="#191970" stroke="#191970" points="506.197,-198.956 503.2991,-188.7652 499.2094,-198.5389 506.197,-198.956"/>
</g>
<!-- Node20 -->
<g id="node21" class="node">
<title>Node20</title>
<g id="a_node21"><a xlink:href="parameters_8h.html" target="_top" xlink:title=" ">
<polygon fill="#ffffff" stroke="#000000" points="767.8423,-350.5 767.8423,-368.5 872.2212,-368.5 872.2212,-350.5 767.8423,-350.5"/>
<text text-anchor="middle" x="820.0317" y="-356.5" font-family="Helvetica,sans-Serif" font-size="10.00" fill="#000000">config/parameters.h</text>
</a>
</g>
</g>
<!-- Node0&#45;&gt;Node20 -->
<g id="edge32" class="edge">
<title>Node0&#45;&gt;Node20</title>
<path fill="none" stroke="#191970" d="M603.5103,-405.4795C648.3939,-395.9482 719.2351,-380.9047 767.574,-370.6397"/>
<polygon fill="#191970" stroke="#191970" points="768.4752,-374.0264 777.53,-368.5255 767.021,-367.1791 768.4752,-374.0264"/>
</g>
<!-- Node2 -->
<g id="node3" class="node">
<title>Node2</title>
<g id="a_node3"><a xlink:href="lattice_8h.html" target="_top" xlink:title=" ">
<polygon fill="#ffffff" stroke="#000000" points="565.2954,-235.5 565.2954,-253.5 640.7681,-253.5 640.7681,-235.5 565.2954,-235.5"/>
<text text-anchor="middle" x="603.0317" y="-241.5" font-family="Helvetica,sans-Serif" font-size="10.00" fill="#000000">math/lattice.h</text>
</a>
</g>
</g>
<!-- Node1&#45;&gt;Node2 -->
<g id="edge2" class="edge">
<title>Node1&#45;&gt;Node2</title>
<path fill="none" stroke="#191970" d="M577.575,-350.3511C589.8991,-342.5051 605.7947,-329.9487 613.0317,-314 620.3278,-297.9211 616.1665,-277.7883 611.1772,-263.3362"/>
<polygon fill="#191970" stroke="#191970" points="614.421,-262.0205 607.5498,-253.956 607.8922,-264.5453 614.421,-262.0205"/>
</g>
<!-- Node14 -->
<g id="node15" class="node">
<title>Node14</title>
<g id="a_node15"><a xlink:href="flowexpfunctions_8h.html" target="_top" xlink:title=" ">
<polygon fill="#ffffff" stroke="#000000" points="196.3916,-295.5 196.3916,-313.5 319.6719,-313.5 319.6719,-295.5 196.3916,-295.5"/>
<text text-anchor="middle" x="258.0317" y="-301.5" font-family="Helvetica,sans-Serif" font-size="10.00" fill="#000000">math/flowexpfunctions.h</text>
</a>
</g>
</g>
<!-- Node1&#45;&gt;Node14 -->
<g id="edge19" class="edge">
<title>Node1&#45;&gt;Node14</title>
<path fill="none" stroke="#191970" d="M540.2053,-355.7196C494.9945,-347.513 386.425,-327.8057 317.9048,-315.3681"/>
<polygon fill="#191970" stroke="#191970" points="318.1474,-311.855 307.6831,-313.5126 316.8972,-318.7424 318.1474,-311.855"/>
</g>
<!-- Node19 -->
<g id="node20" class="node">
<title>Node19</title>
<g id="a_node20"><a xlink:href="action_8h.html" target="_top" xlink:title=" ">
<polygon fill="#ffffff" stroke="#000000" points="518.2881,-295.5 518.2881,-313.5 603.7754,-313.5 603.7754,-295.5 518.2881,-295.5"/>
<text text-anchor="middle" x="561.0317" y="-301.5" font-family="Helvetica,sans-Serif" font-size="10.00" fill="#000000">actions/action.h</text>
</a>
</g>
</g>
<!-- Node1&#45;&gt;Node19 -->
<g id="edge28" class="edge">
<title>Node1&#45;&gt;Node19</title>
<path fill="none" stroke="#191970" d="M561.0317,-350.4179C561.0317,-343.2164 561.0317,-332.8962 561.0317,-323.8632"/>
<polygon fill="#191970" stroke="#191970" points="564.5318,-323.7794 561.0317,-313.7795 557.5318,-323.7795 564.5318,-323.7794"/>
</g>
<!-- Node3 -->
<g id="node4" class="node">
<title>Node3</title>
<g id="a_node4"><a xlink:title=" ">
<polygon fill="#ffffff" stroke="#bfbfbf" points="566.416,-110.5 566.416,-128.5 609.6475,-128.5 609.6475,-110.5 566.416,-110.5"/>
<text text-anchor="middle" x="588.0317" y="-116.5" font-family="Helvetica,sans-Serif" font-size="10.00" fill="#000000">vector</text>
</a>
</g>
</g>
<!-- Node2&#45;&gt;Node3 -->
<g id="edge3" class="edge">
<title>Node2&#45;&gt;Node3</title>
<path fill="none" stroke="#191970" d="M601.9043,-235.1047C599.46,-214.7357 593.6302,-166.1541 590.3593,-138.8965"/>
<polygon fill="#191970" stroke="#191970" points="593.7981,-138.1764 589.1315,-128.6646 586.848,-139.0104 593.7981,-138.1764"/>
</g>
<!-- Node4 -->
<g id="node5" class="node">
<title>Node4</title>
<g id="a_node5"><a xlink:title=" ">
<polygon fill="#ffffff" stroke="#bfbfbf" points="837.8052,-110.5 837.8052,-128.5 878.2583,-128.5 878.2583,-110.5 837.8052,-110.5"/>
<text text-anchor="middle" x="858.0317" y="-116.5" font-family="Helvetica,sans-Serif" font-size="10.00" fill="#000000">mpi.h</text>
</a>
</g>
</g>
<!-- Node2&#45;&gt;Node4 -->
<g id="edge4" class="edge">
<title>Node2&#45;&gt;Node4</title>
<path fill="none" stroke="#191970" d="M641.0768,-236.5736C674.484,-228.6783 723.7415,-214.7245 763.0317,-194 793.2558,-178.0576 823.5128,-152.2061 841.5029,-135.5322"/>
<polygon fill="#191970" stroke="#191970" points="843.9923,-137.9954 848.8613,-128.5856 839.187,-132.9052 843.9923,-137.9954"/>
</g>
<!-- Node2&#45;&gt;Node5 -->
<g id="edge5" class="edge">
<title>Node2&#45;&gt;Node5</title>
<path fill="none" stroke="#191970" d="M589.2662,-235.462C573.0296,-224.8017 545.8097,-206.9299 526.5023,-194.2534"/>
<polygon fill="#191970" stroke="#191970" points="528.2797,-191.2335 517.9995,-188.6708 524.4378,-197.085 528.2797,-191.2335"/>
</g>
<!-- Node6 -->
<g id="node7" class="node">
<title>Node6</title>
<g id="a_node7"><a xlink:href="neighbours_8h.html" target="_top" xlink:title=" ">
<polygon fill="#ffffff" stroke="#000000" points="616.1577,-170.5 616.1577,-188.5 753.9058,-188.5 753.9058,-170.5 616.1577,-170.5"/>
<text text-anchor="middle" x="685.0317" y="-176.5" font-family="Helvetica,sans-Serif" font-size="10.00" fill="#000000">parallelization/neighbours.h</text>
</a>
</g>
</g>
<!-- Node2&#45;&gt;Node6 -->
<g id="edge7" class="edge">
<title>Node2&#45;&gt;Node6</title>
<path fill="none" stroke="#191970" d="M614.4335,-235.462C627.5777,-225.0428 649.4123,-207.7349 665.3245,-195.1216"/>
<polygon fill="#191970" stroke="#191970" points="667.8001,-197.6255 673.4625,-188.6708 663.4517,-192.1399 667.8001,-197.6255"/>
</g>
<!-- Node8 -->
<g id="node9" class="node">
<title>Node8</title>
<g id="a_node9"><a xlink:href="parallelparameters_8h.html" target="_top" xlink:title=" ">
<polygon fill="#ffffff" stroke="#000000" points="848.4902,-170.5 848.4902,-188.5 1019.5732,-188.5 1019.5732,-170.5 848.4902,-170.5"/>
<text text-anchor="middle" x="934.0317" y="-176.5" font-family="Helvetica,sans-Serif" font-size="10.00" fill="#000000">parallelization/parallelparameters.h</text>
</a>
</g>
</g>
<!-- Node2&#45;&gt;Node8 -->
<g id="edge10" class="edge">
<title>Node2&#45;&gt;Node8</title>
<path fill="none" stroke="#191970" d="M641.0016,-237.0437C699.1485,-225.6251 810.5865,-203.7415 878.0261,-190.4981"/>
<polygon fill="#191970" stroke="#191970" points="878.913,-193.8909 888.0511,-188.5294 877.5641,-187.022 878.913,-193.8909"/>
</g>
<!-- Node9 -->
<g id="node10" class="node">
<title>Node9</title>
<g id="a_node10"><a xlink:href="functions_8h.html" target="_top" xlink:title=" ">
<polygon fill="#ffffff" stroke="#000000" points="327.8496,-170.5 327.8496,-188.5 392.2139,-188.5 392.2139,-170.5 327.8496,-170.5"/>
<text text-anchor="middle" x="360.0317" y="-176.5" font-family="Helvetica,sans-Serif" font-size="10.00" fill="#000000">functions.h</text>
</a>
</g>
</g>
<!-- Node2&#45;&gt;Node9 -->
<g id="edge12" class="edge">
<title>Node2&#45;&gt;Node9</title>
<path fill="none" stroke="#191970" d="M569.2436,-235.462C525.6269,-223.795 449.7191,-203.4905 402.3201,-190.8117"/>
<polygon fill="#191970" stroke="#191970" points="402.9357,-187.3534 392.3709,-188.1504 401.1268,-194.1156 402.9357,-187.3534"/>
</g>
<!-- Node5&#45;&gt;Node3 -->
<g id="edge6" class="edge">
<title>Node5&#45;&gt;Node3</title>
<path fill="none" stroke="#191970" d="M516.7895,-170.3873C530.1883,-160.8168 551.4694,-145.6159 567.2879,-134.3171"/>
<polygon fill="#191970" stroke="#191970" points="569.3261,-137.1624 575.4291,-128.5019 565.2574,-131.4662 569.3261,-137.1624"/>
</g>
<!-- Node6&#45;&gt;Node3 -->
<g id="edge9" class="edge">
<title>Node6&#45;&gt;Node3</title>
<path fill="none" stroke="#191970" d="M670.2995,-170.3873C654.6123,-160.6838 629.5681,-145.1926 611.2286,-133.8486"/>
<polygon fill="#191970" stroke="#191970" points="612.9305,-130.7859 602.5848,-128.5019 609.2481,-136.739 612.9305,-130.7859"/>
</g>
<!-- Node7 -->
<g id="node8" class="node">
<title>Node7</title>
<g id="a_node8"><a xlink:href="neighbourlist_8h.html" target="_top" xlink:title=" ">
<polygon fill="#ffffff" stroke="#000000" points="644.5098,-110.5 644.5098,-128.5 725.5537,-128.5 725.5537,-110.5 644.5098,-110.5"/>
<text text-anchor="middle" x="685.0317" y="-116.5" font-family="Helvetica,sans-Serif" font-size="10.00" fill="#000000">neighbourlist.h</text>
</a>
</g>
</g>
<!-- Node6&#45;&gt;Node7 -->
<g id="edge8" class="edge">
<title>Node6&#45;&gt;Node7</title>
<path fill="none" stroke="#191970" d="M685.0317,-170.3873C685.0317,-162.0174 685.0317,-149.3414 685.0317,-138.735"/>
<polygon fill="#191970" stroke="#191970" points="688.5318,-138.6984 685.0317,-128.6985 681.5318,-138.6985 688.5318,-138.6984"/>
</g>
<!-- Node8&#45;&gt;Node4 -->
<g id="edge11" class="edge">
<title>Node8&#45;&gt;Node4</title>
<path fill="none" stroke="#191970" d="M922.489,-170.3873C910.6596,-161.0483 892.0394,-146.3481 877.8472,-135.1438"/>
<polygon fill="#191970" stroke="#191970" points="879.7007,-132.1479 869.6831,-128.6985 875.3632,-137.642 879.7007,-132.1479"/>
</g>
<!-- Node10 -->
<g id="node11" class="node">
<title>Node10</title>
<g id="a_node11"><a xlink:href="su3_8h.html" target="_top" xlink:title=" ">
<polygon fill="#ffffff" stroke="#000000" points="218.5195,-110.5 218.5195,-128.5 299.5439,-128.5 299.5439,-110.5 218.5195,-110.5"/>
<text text-anchor="middle" x="259.0317" y="-116.5" font-family="Helvetica,sans-Serif" font-size="10.00" fill="#000000">matrices/su3.h</text>
</a>
</g>
</g>
<!-- Node9&#45;&gt;Node10 -->
<g id="edge13" class="edge">
<title>Node9&#45;&gt;Node10</title>
<path fill="none" stroke="#191970" d="M344.692,-170.3873C328.2833,-160.6395 302.0426,-145.051 282.924,-133.6934"/>
<polygon fill="#191970" stroke="#191970" points="284.5699,-130.6002 274.1849,-128.5019 280.9947,-136.6184 284.5699,-130.6002"/>
</g>
<!-- Node11 -->
<g id="node12" class="node">
<title>Node11</title>
<g id="a_node12"><a xlink:href="complex_8h.html" target="_top" xlink:title=" ">
<polygon fill="#ffffff" stroke="#000000" points="314.7388,-55.5 314.7388,-73.5 401.3247,-73.5 401.3247,-55.5 314.7388,-55.5"/>
<text text-anchor="middle" x="358.0317" y="-61.5" font-family="Helvetica,sans-Serif" font-size="10.00" fill="#000000">math/complex.h</text>
</a>
</g>
</g>
<!-- Node9&#45;&gt;Node11 -->
<g id="edge18" class="edge">
<title>Node9&#45;&gt;Node11</title>
<path fill="none" stroke="#191970" d="M374.2217,-170.2961C391.8662,-157.6027 418.4668,-133.6049 408.0317,-110 402.6189,-97.7558 392.1035,-87.3899 382.107,-79.6592"/>
<polygon fill="#191970" stroke="#191970" points="384.1188,-76.7949 373.9555,-73.8019 380.034,-82.4796 384.1188,-76.7949"/>
</g>
<!-- Node13 -->
<g id="node14" class="node">
<title>Node13</title>
<g id="a_node14"><a xlink:href="su2_8h.html" target="_top" xlink:title=" ">
<polygon fill="#ffffff" stroke="#000000" points="317.5195,-110.5 317.5195,-128.5 398.5439,-128.5 398.5439,-110.5 317.5195,-110.5"/>
<text text-anchor="middle" x="358.0317" y="-116.5" font-family="Helvetica,sans-Serif" font-size="10.00" fill="#000000">matrices/su2.h</text>
</a>
</g>
</g>
<!-- Node9&#45;&gt;Node13 -->
<g id="edge16" class="edge">
<title>Node9&#45;&gt;Node13</title>
<path fill="none" stroke="#191970" d="M359.728,-170.3873C359.449,-162.0174 359.0265,-149.3414 358.6729,-138.735"/>
<polygon fill="#191970" stroke="#191970" points="362.1697,-138.5763 358.3384,-128.6985 355.1735,-138.8096 362.1697,-138.5763"/>
</g>
<!-- Node10&#45;&gt;Node11 -->
<g id="edge14" class="edge">
<title>Node10&#45;&gt;Node11</title>
<path fill="none" stroke="#191970" d="M275.3796,-110.4179C290.9999,-101.7399 314.7715,-88.5334 332.8179,-78.5077"/>
<polygon fill="#191970" stroke="#191970" points="334.6178,-81.5117 341.6596,-73.5956 331.2183,-75.3925 334.6178,-81.5117"/>
</g>
<!-- Node12 -->
<g id="node13" class="node">
<title>Node12</title>
<g id="a_node13"><a xlink:title=" ">
<polygon fill="#ffffff" stroke="#bfbfbf" points="330.8594,-.5 330.8594,-18.5 385.2041,-18.5 385.2041,-.5 330.8594,-.5"/>
<text text-anchor="middle" x="358.0317" y="-6.5" font-family="Helvetica,sans-Serif" font-size="10.00" fill="#000000">iostream</text>
</a>
</g>
</g>
<!-- Node11&#45;&gt;Node12 -->
<g id="edge15" class="edge">
<title>Node11&#45;&gt;Node12</title>
<path fill="none" stroke="#191970" d="M358.0317,-55.4179C358.0317,-48.2164 358.0317,-37.8962 358.0317,-28.8632"/>
<polygon fill="#191970" stroke="#191970" points="361.5318,-28.7794 358.0317,-18.7795 354.5318,-28.7795 361.5318,-28.7794"/>
</g>
<!-- Node13&#45;&gt;Node11 -->
<g id="edge17" class="edge">
<title>Node13&#45;&gt;Node11</title>
<path fill="none" stroke="#191970" d="M358.0317,-110.4179C358.0317,-103.2164 358.0317,-92.8962 358.0317,-83.8632"/>
<polygon fill="#191970" stroke="#191970" points="361.5318,-83.7794 358.0317,-73.7795 354.5318,-83.7795 361.5318,-83.7794"/>
</g>
<!-- Node15 -->
<g id="node16" class="node">
<title>Node15</title>
<g id="a_node16"><a xlink:href="su3exp_8h.html" target="_top" xlink:title=" ">
<polygon fill="#ffffff" stroke="#000000" points="204,-165.5 204,-193.5 310.0635,-193.5 310.0635,-165.5 204,-165.5"/>
<text text-anchor="start" x="212" y="-181.5" font-family="Helvetica,sans-Serif" font-size="10.00" fill="#000000">math/exponentiation</text>
<text text-anchor="middle" x="257.0317" y="-171.5" font-family="Helvetica,sans-Serif" font-size="10.00" fill="#000000">/su3exp.h</text>
</a>
</g>
</g>
<!-- Node14&#45;&gt;Node15 -->
<g id="edge20" class="edge">
<title>Node14&#45;&gt;Node15</title>
<path fill="none" stroke="#191970" d="M257.9566,-295.1047C257.8034,-275.9573 257.4508,-231.8799 257.2279,-204.0202"/>
<polygon fill="#191970" stroke="#191970" points="260.7268,-203.8508 257.1468,-193.8791 253.727,-203.9068 260.7268,-203.8508"/>
</g>
<!-- Node16 -->
<g id="node17" class="node">
<title>Node16</title>
<g id="a_node17"><a xlink:href="expluscher_8h.html" target="_top" xlink:title=" ">
<polygon fill="#ffffff" stroke="#000000" points="286,-230.5 286,-258.5 392.0635,-258.5 392.0635,-230.5 286,-230.5"/>
<text text-anchor="start" x="294" y="-246.5" font-family="Helvetica,sans-Serif" font-size="10.00" fill="#000000">math/exponentiation</text>
<text text-anchor="middle" x="339.0317" y="-236.5" font-family="Helvetica,sans-Serif" font-size="10.00" fill="#000000">/expluscher.h</text>
</a>
</g>
</g>
<!-- Node14&#45;&gt;Node16 -->
<g id="edge22" class="edge">
<title>Node14&#45;&gt;Node16</title>
<path fill="none" stroke="#191970" d="M270.3339,-295.3873C281.2557,-287.2971 297.6088,-275.1837 311.6201,-264.8049"/>
<polygon fill="#191970" stroke="#191970" points="314.0198,-267.3831 319.9721,-258.6183 309.8532,-261.7581 314.0198,-267.3831"/>
</g>
<!-- Node17 -->
<g id="node18" class="node">
<title>Node17</title>
<g id="a_node18"><a xlink:href="taylor2exp_8h.html" target="_top" xlink:title=" ">
<polygon fill="#ffffff" stroke="#000000" points="0,-230.5 0,-258.5 106.0635,-258.5 106.0635,-230.5 0,-230.5"/>
<text text-anchor="start" x="8" y="-246.5" font-family="Helvetica,sans-Serif" font-size="10.00" fill="#000000">math/exponentiation</text>
<text text-anchor="middle" x="53.0317" y="-236.5" font-family="Helvetica,sans-Serif" font-size="10.00" fill="#000000">/taylor2exp.h</text>
</a>
</g>
</g>
<!-- Node14&#45;&gt;Node17 -->
<g id="edge24" class="edge">
<title>Node14&#45;&gt;Node17</title>
<path fill="none" stroke="#191970" d="M226.8967,-295.3873C196.1535,-286.3893 148.4064,-272.4145 110.7213,-261.3847"/>
<polygon fill="#191970" stroke="#191970" points="111.4594,-257.954 100.8788,-258.504 109.493,-264.6722 111.4594,-257.954"/>
</g>
<!-- Node18 -->
<g id="node19" class="node">
<title>Node18</title>
<g id="a_node19"><a xlink:href="taylor4exp_8h.html" target="_top" xlink:title=" ">
<polygon fill="#ffffff" stroke="#000000" points="124,-230.5 124,-258.5 230.0635,-258.5 230.0635,-230.5 124,-230.5"/>
<text text-anchor="start" x="132" y="-246.5" font-family="Helvetica,sans-Serif" font-size="10.00" fill="#000000">math/exponentiation</text>
<text text-anchor="middle" x="177.0317" y="-236.5" font-family="Helvetica,sans-Serif" font-size="10.00" fill="#000000">/taylor4exp.h</text>
</a>
</g>
</g>
<!-- Node14&#45;&gt;Node18 -->
<g id="edge26" class="edge">
<title>Node14&#45;&gt;Node18</title>
<path fill="none" stroke="#191970" d="M245.7296,-295.3873C234.8078,-287.2971 218.4547,-275.1837 204.4434,-264.8049"/>
<polygon fill="#191970" stroke="#191970" points="206.2103,-261.7581 196.0914,-258.6183 202.0437,-267.3831 206.2103,-261.7581"/>
</g>
<!-- Node15&#45;&gt;Node10 -->
<g id="edge21" class="edge">
<title>Node15&#45;&gt;Node10</title>
<path fill="none" stroke="#191970" d="M257.5057,-165.2808C257.7692,-157.3776 258.1007,-147.4316 258.3874,-138.8308"/>
<polygon fill="#191970" stroke="#191970" points="261.8937,-138.6953 258.7289,-128.5842 254.8976,-138.462 261.8937,-138.6953"/>
</g>
<!-- Node16&#45;&gt;Node15 -->
<g id="edge23" class="edge">
<title>Node16&#45;&gt;Node15</title>
<path fill="none" stroke="#191970" d="M321.239,-230.396C309.9563,-221.4524 295.1775,-209.7375 282.6432,-199.8018"/>
<polygon fill="#191970" stroke="#191970" points="284.8006,-197.0457 274.7898,-193.5765 280.4522,-202.5313 284.8006,-197.0457"/>
</g>
<!-- Node17&#45;&gt;Node15 -->
<g id="edge25" class="edge">
<title>Node17&#45;&gt;Node15</title>
<path fill="none" stroke="#191970" d="M97.0455,-230.476C128.1746,-220.5574 170.0934,-207.201 203.2132,-196.6481"/>
<polygon fill="#191970" stroke="#191970" points="204.2797,-199.9817 212.7452,-193.6109 202.1545,-193.3121 204.2797,-199.9817"/>
</g>
<!-- Node18&#45;&gt;Node15 -->
<g id="edge27" class="edge">
<title>Node18&#45;&gt;Node15</title>
<path fill="none" stroke="#191970" d="M194.3905,-230.396C205.2932,-221.5375 219.5421,-209.9604 231.695,-200.0861"/>
<polygon fill="#191970" stroke="#191970" points="234.1527,-202.5989 239.7068,-193.5765 229.7386,-197.1661 234.1527,-202.5989"/>
</g>
<!-- Node19&#45;&gt;Node2 -->
<g id="edge29" class="edge">
<title>Node19&#45;&gt;Node2</title>
<path fill="none" stroke="#191970" d="M567.4106,-295.3873C573.5779,-286.5769 583.0852,-272.9951 590.7268,-262.0784"/>
<polygon fill="#191970" stroke="#191970" points="593.7255,-263.8979 596.5928,-253.6985 587.9908,-259.8837 593.7255,-263.8979"/>
</g>
<!-- Node19&#45;&gt;Node3 -->
<g id="edge30" class="edge">
<title>Node19&#45;&gt;Node3</title>
<path fill="none" stroke="#191970" d="M541.8754,-295.4704C498.6787,-273.8931 400.3647,-217.2374 439.0317,-165 453.0281,-146.0915 516.8018,-131.8711 556.2416,-124.6983"/>
<polygon fill="#191970" stroke="#191970" points="556.9388,-128.1294 566.179,-122.9459 555.7231,-121.2358 556.9388,-128.1294"/>
</g>
<!-- Node20&#45;&gt;Node3 -->
<g id="edge34" class="edge">
<title>Node20&#45;&gt;Node3</title>
<path fill="none" stroke="#191970" d="M820.2931,-350.184C820.6321,-319.0581 817.3417,-217.6672 763.0317,-165 752.6916,-154.9726 667.2305,-135.9368 619.6756,-125.9632"/>
<polygon fill="#191970" stroke="#191970" points="620.3678,-122.5323 609.8644,-123.9213 618.9415,-129.3855 620.3678,-122.5323"/>
</g>
<!-- Node21 -->
<g id="node22" class="node">
<title>Node21</title>
<g id="a_node22"><a xlink:title=" ">
<polygon fill="#ffffff" stroke="#bfbfbf" points="847.8052,-295.5 847.8052,-313.5 888.2583,-313.5 888.2583,-295.5 847.8052,-295.5"/>
<text text-anchor="middle" x="868.0317" y="-301.5" font-family="Helvetica,sans-Serif" font-size="10.00" fill="#000000">string</text>
</a>
</g>
</g>
<!-- Node20&#45;&gt;Node21 -->
<g id="edge33" class="edge">
<title>Node20&#45;&gt;Node21</title>
<path fill="none" stroke="#191970" d="M827.958,-350.4179C834.7954,-342.5833 844.8543,-331.0575 853.1834,-321.5137"/>
<polygon fill="#191970" stroke="#191970" points="855.9949,-323.6151 859.9333,-313.7795 850.7209,-319.0123 855.9949,-323.6151"/>
</g>
</g>
</svg>
