<?xml version="1.0" encoding="UTF-8" standalone="no"?>
<!DOCTYPE svg PUBLIC "-//W3C//DTD SVG 1.1//EN"
 "http://www.w3.org/Graphics/SVG/1.1/DTD/svg11.dtd">
<!-- Generated by graphviz version 2.40.1 (20161225.0304)
 -->
<!-- Title: GLAC/math/flowexpfunctions.h Pages: 1 -->
<svg width="275pt" height="192pt"
 viewBox="0.00 0.00 274.65 192.00" xmlns="http://www.w3.org/2000/svg" xmlns:xlink="http://www.w3.org/1999/xlink">
<g id="graph0" class="graph" transform="scale(1 1) rotate(0) translate(4 188)">
<title>GLAC/math/flowexpfunctions.h</title>
<polygon fill="#ffffff" stroke="transparent" points="-4,4 -4,-188 270.645,-188 270.645,4 -4,4"/>
<!-- Node8 -->
<g id="node1" class="node">
<title>Node8</title>
<g id="a_node1"><a xlink:title=" ">
<polygon fill="#bfbfbf" stroke="#000000" points="30.7095,-165.5 30.7095,-183.5 183.9995,-183.5 183.9995,-165.5 30.7095,-165.5"/>
<text text-anchor="middle" x="107.3545" y="-171.5" font-family="Helvetica,sans-Serif" font-size="10.00" fill="#000000">GLAC/math/flowexpfunctions.h</text>
</a>
</g>
</g>
<!-- Node9 -->
<g id="node2" class="node">
<title>Node9</title>
<g id="a_node2"><a xlink:href="flow_8h.html" target="_top" xlink:title=" ">
<polygon fill="#ffffff" stroke="#000000" points="61.2808,-110.5 61.2808,-128.5 153.4282,-128.5 153.4282,-110.5 61.2808,-110.5"/>
<text text-anchor="middle" x="107.3545" y="-116.5" font-family="Helvetica,sans-Serif" font-size="10.00" fill="#000000">GLAC/flow/flow.h</text>
</a>
</g>
</g>
<!-- Node8&#45;&gt;Node9 -->
<g id="edge1" class="edge">
<title>Node8&#45;&gt;Node9</title>
<path fill="none" stroke="#191970" d="M107.3545,-155.383C107.3545,-146.3738 107.3545,-136.0373 107.3545,-128.7795"/>
<polygon fill="#191970" stroke="#191970" points="103.8546,-155.4178 107.3545,-165.4179 110.8546,-155.4179 103.8546,-155.4178"/>
</g>
<!-- Node10 -->
<g id="node3" class="node">
<title>Node10</title>
<g id="a_node3"><a xlink:href="flow_8cpp.html" target="_top" xlink:title=" ">
<polygon fill="#ffffff" stroke="#000000" points="0,-55.5 0,-73.5 102.709,-73.5 102.709,-55.5 0,-55.5"/>
<text text-anchor="middle" x="51.3545" y="-61.5" font-family="Helvetica,sans-Serif" font-size="10.00" fill="#000000">GLAC/flow/flow.cpp</text>
</a>
</g>
</g>
<!-- Node9&#45;&gt;Node10 -->
<g id="edge2" class="edge">
<title>Node9&#45;&gt;Node10</title>
<path fill="none" stroke="#191970" d="M90.8591,-103.2992C81.0679,-93.6828 69.0046,-81.8349 60.8027,-73.7795"/>
<polygon fill="#191970" stroke="#191970" points="88.5202,-105.9078 98.1072,-110.4179 93.4252,-100.9137 88.5202,-105.9078"/>
</g>
<!-- Node11 -->
<g id="node4" class="node">
<title>Node11</title>
<g id="a_node4"><a xlink:href="system_8h.html" target="_top" xlink:title=" ">
<polygon fill="#ffffff" stroke="#000000" points="120.3447,-55.5 120.3447,-73.5 206.3643,-73.5 206.3643,-55.5 120.3447,-55.5"/>
<text text-anchor="middle" x="163.3545" y="-61.5" font-family="Helvetica,sans-Serif" font-size="10.00" fill="#000000">GLAC/system.h</text>
</a>
</g>
</g>
<!-- Node9&#45;&gt;Node11 -->
<g id="edge3" class="edge">
<title>Node9&#45;&gt;Node11</title>
<path fill="none" stroke="#191970" d="M123.8499,-103.2992C133.6411,-93.6828 145.7044,-81.8349 153.9063,-73.7795"/>
<polygon fill="#191970" stroke="#191970" points="121.2838,-100.9137 116.6018,-110.4179 126.1888,-105.9078 121.2838,-100.9137"/>
</g>
<!-- Node12 -->
<g id="node5" class="node">
<title>Node12</title>
<g id="a_node5"><a xlink:href="main_8cpp.html" target="_top" xlink:title=" ">
<polygon fill="#ffffff" stroke="#000000" points="65.0615,-.5 65.0615,-18.5 151.6475,-18.5 151.6475,-.5 65.0615,-.5"/>
<text text-anchor="middle" x="108.3545" y="-6.5" font-family="Helvetica,sans-Serif" font-size="10.00" fill="#000000">GLAC/main.cpp</text>
</a>
</g>
</g>
<!-- Node11&#45;&gt;Node12 -->
<g id="edge4" class="edge">
<title>Node11&#45;&gt;Node12</title>
<path fill="none" stroke="#191970" d="M147.1537,-48.2992C137.5373,-38.6828 125.6894,-26.8349 117.6339,-18.7795"/>
<polygon fill="#191970" stroke="#191970" points="144.7264,-50.8217 154.2724,-55.4179 149.6761,-45.8719 144.7264,-50.8217"/>
</g>
<!-- Node13 -->
<g id="node6" class="node">
<title>Node13</title>
<g id="a_node6"><a xlink:href="system_8cpp.html" target="_top" xlink:title=" ">
<polygon fill="#ffffff" stroke="#000000" points="170.064,-.5 170.064,-18.5 266.645,-18.5 266.645,-.5 170.064,-.5"/>
<text text-anchor="middle" x="218.3545" y="-6.5" font-family="Helvetica,sans-Serif" font-size="10.00" fill="#000000">GLAC/system.cpp</text>
</a>
</g>
</g>
<!-- Node11&#45;&gt;Node13 -->
<g id="edge5" class="edge">
<title>Node11&#45;&gt;Node13</title>
<path fill="none" stroke="#191970" d="M179.5553,-48.2992C189.1717,-38.6828 201.0196,-26.8349 209.075,-18.7795"/>
<polygon fill="#191970" stroke="#191970" points="177.0328,-45.8719 172.4366,-55.4179 181.9826,-50.8217 177.0328,-45.8719"/>
</g>
</g>
</svg>
