<?xml version="1.0" encoding="UTF-8" standalone="no"?>
<!DOCTYPE svg PUBLIC "-//W3C//DTD SVG 1.1//EN"
 "http://www.w3.org/Graphics/SVG/1.1/DTD/svg11.dtd">
<!-- Generated by graphviz version 2.40.1 (20161225.0304)
 -->
<!-- Title: GLAC/flow/flow.h Pages: 1 -->
<svg width="990pt" height="377pt"
 viewBox="0.00 0.00 989.57 377.00" xmlns="http://www.w3.org/2000/svg" xmlns:xlink="http://www.w3.org/1999/xlink">
<g id="graph0" class="graph" transform="scale(1 1) rotate(0) translate(4 373)">
<title>GLAC/flow/flow.h</title>
<polygon fill="#ffffff" stroke="transparent" points="-4,4 -4,-373 985.5732,-373 985.5732,4 -4,4"/>
<!-- Node0 -->
<g id="node1" class="node">
<title>Node0</title>
<g id="a_node1"><a xlink:title=" ">
<polygon fill="#bfbfbf" stroke="#000000" points="489.4678,-350.5 489.4678,-368.5 581.6152,-368.5 581.6152,-350.5 489.4678,-350.5"/>
<text text-anchor="middle" x="535.5415" y="-356.5" font-family="Helvetica,sans-Serif" font-size="10.00" fill="#000000">GLAC/flow/flow.h</text>
</a>
</g>
</g>
<!-- Node1 -->
<g id="node2" class="node">
<title>Node1</title>
<g id="a_node2"><a xlink:href="lattice_8h.html" target="_top" xlink:title=" ">
<polygon fill="#ffffff" stroke="#000000" points="367.8052,-235.5 367.8052,-253.5 443.2778,-253.5 443.2778,-235.5 367.8052,-235.5"/>
<text text-anchor="middle" x="405.5415" y="-241.5" font-family="Helvetica,sans-Serif" font-size="10.00" fill="#000000">math/lattice.h</text>
</a>
</g>
</g>
<!-- Node0&#45;&gt;Node1 -->
<g id="edge1" class="edge">
<title>Node0&#45;&gt;Node1</title>
<path fill="none" stroke="#191970" d="M525.1581,-350.4629C514.6445,-341.3013 497.9289,-326.7038 483.5415,-314 462.7016,-295.5988 438.8541,-274.3169 423.0719,-260.201"/>
<polygon fill="#191970" stroke="#191970" points="425.3985,-257.5862 415.6127,-253.5257 420.7304,-262.8025 425.3985,-257.5862"/>
</g>
<!-- Node13 -->
<g id="node14" class="node">
<title>Node13</title>
<g id="a_node14"><a xlink:href="flowexpfunctions_8h.html" target="_top" xlink:title=" ">
<polygon fill="#ffffff" stroke="#000000" points="618.9014,-295.5 618.9014,-313.5 742.1816,-313.5 742.1816,-295.5 618.9014,-295.5"/>
<text text-anchor="middle" x="680.5415" y="-301.5" font-family="Helvetica,sans-Serif" font-size="10.00" fill="#000000">math/flowexpfunctions.h</text>
</a>
</g>
</g>
<!-- Node0&#45;&gt;Node13 -->
<g id="edge18" class="edge">
<title>Node0&#45;&gt;Node13</title>
<path fill="none" stroke="#191970" d="M559.4853,-350.4179C583.413,-341.3419 620.4,-327.3123 647.1946,-317.1488"/>
<polygon fill="#191970" stroke="#191970" points="648.4535,-320.4147 656.5621,-313.5956 645.9708,-313.8697 648.4535,-320.4147"/>
</g>
<!-- Node18 -->
<g id="node19" class="node">
<title>Node18</title>
<g id="a_node19"><a xlink:href="action_8h.html" target="_top" xlink:title=" ">
<polygon fill="#ffffff" stroke="#000000" points="492.7979,-295.5 492.7979,-313.5 578.2852,-313.5 578.2852,-295.5 492.7979,-295.5"/>
<text text-anchor="middle" x="535.5415" y="-301.5" font-family="Helvetica,sans-Serif" font-size="10.00" fill="#000000">actions/action.h</text>
</a>
</g>
</g>
<!-- Node0&#45;&gt;Node18 -->
<g id="edge27" class="edge">
<title>Node0&#45;&gt;Node18</title>
<path fill="none" stroke="#191970" d="M535.5415,-350.4179C535.5415,-343.2164 535.5415,-332.8962 535.5415,-323.8632"/>
<polygon fill="#191970" stroke="#191970" points="539.0416,-323.7794 535.5415,-313.7795 532.0416,-323.7795 539.0416,-323.7794"/>
</g>
<!-- Node2 -->
<g id="node3" class="node">
<title>Node2</title>
<g id="a_node3"><a xlink:title=" ">
<polygon fill="#ffffff" stroke="#bfbfbf" points="413.9258,-110.5 413.9258,-128.5 457.1572,-128.5 457.1572,-110.5 413.9258,-110.5"/>
<text text-anchor="middle" x="435.5415" y="-116.5" font-family="Helvetica,sans-Serif" font-size="10.00" fill="#000000">vector</text>
</a>
</g>
</g>
<!-- Node1&#45;&gt;Node2 -->
<g id="edge2" class="edge">
<title>Node1&#45;&gt;Node2</title>
<path fill="none" stroke="#191970" d="M405.2394,-235.4772C404.9795,-220.5203 405.4708,-189.7822 412.5415,-165 415.2348,-155.5602 419.9113,-145.7598 424.3471,-137.683"/>
<polygon fill="#191970" stroke="#191970" points="427.4951,-139.2316 429.4889,-128.826 421.4413,-135.7171 427.4951,-139.2316"/>
</g>
<!-- Node3 -->
<g id="node4" class="node">
<title>Node3</title>
<g id="a_node4"><a xlink:title=" ">
<polygon fill="#ffffff" stroke="#bfbfbf" points="122.3149,-110.5 122.3149,-128.5 162.7681,-128.5 162.7681,-110.5 122.3149,-110.5"/>
<text text-anchor="middle" x="142.5415" y="-116.5" font-family="Helvetica,sans-Serif" font-size="10.00" fill="#000000">mpi.h</text>
</a>
</g>
</g>
<!-- Node1&#45;&gt;Node3 -->
<g id="edge3" class="edge">
<title>Node1&#45;&gt;Node3</title>
<path fill="none" stroke="#191970" d="M367.5462,-240.0151C328.1529,-234.0876 265.8293,-221.0499 218.5415,-194 192.8657,-179.3127 169.5811,-153.8596 155.7384,-136.8498"/>
<polygon fill="#191970" stroke="#191970" points="158.3439,-134.5018 149.3975,-128.8262 152.8518,-138.8421 158.3439,-134.5018"/>
</g>
<!-- Node4 -->
<g id="node5" class="node">
<title>Node4</title>
<g id="a_node5"><a xlink:href="index_8h.html" target="_top" xlink:title=" ">
<polygon fill="#ffffff" stroke="#000000" points="421.4556,-170.5 421.4556,-188.5 533.6274,-188.5 533.6274,-170.5 421.4556,-170.5"/>
<text text-anchor="middle" x="477.5415" y="-176.5" font-family="Helvetica,sans-Serif" font-size="10.00" fill="#000000">parallelization/index.h</text>
</a>
</g>
</g>
<!-- Node1&#45;&gt;Node4 -->
<g id="edge4" class="edge">
<title>Node1&#45;&gt;Node4</title>
<path fill="none" stroke="#191970" d="M415.5528,-235.462C426.9226,-225.1976 445.6979,-208.2477 459.6114,-195.6869"/>
<polygon fill="#191970" stroke="#191970" points="462.0716,-198.1812 467.149,-188.8821 457.3809,-192.9853 462.0716,-198.1812"/>
</g>
<!-- Node5 -->
<g id="node6" class="node">
<title>Node5</title>
<g id="a_node6"><a xlink:href="neighbours_8h.html" target="_top" xlink:title=" ">
<polygon fill="#ffffff" stroke="#000000" points="227.6675,-170.5 227.6675,-188.5 365.4155,-188.5 365.4155,-170.5 227.6675,-170.5"/>
<text text-anchor="middle" x="296.5415" y="-176.5" font-family="Helvetica,sans-Serif" font-size="10.00" fill="#000000">parallelization/neighbours.h</text>
</a>
</g>
</g>
<!-- Node1&#45;&gt;Node5 -->
<g id="edge6" class="edge">
<title>Node1&#45;&gt;Node5</title>
<path fill="none" stroke="#191970" d="M390.3855,-235.462C372.3471,-224.7052 341.996,-206.6059 320.7068,-193.9105"/>
<polygon fill="#191970" stroke="#191970" points="322.3016,-190.7865 311.9202,-188.6708 318.7163,-196.7987 322.3016,-190.7865"/>
</g>
<!-- Node7 -->
<g id="node8" class="node">
<title>Node7</title>
<g id="a_node8"><a xlink:href="parallelparameters_8h.html" target="_top" xlink:title=" ">
<polygon fill="#ffffff" stroke="#000000" points="0,-170.5 0,-188.5 171.083,-188.5 171.083,-170.5 0,-170.5"/>
<text text-anchor="middle" x="85.5415" y="-176.5" font-family="Helvetica,sans-Serif" font-size="10.00" fill="#000000">parallelization/parallelparameters.h</text>
</a>
</g>
</g>
<!-- Node1&#45;&gt;Node7 -->
<g id="edge9" class="edge">
<title>Node1&#45;&gt;Node7</title>
<path fill="none" stroke="#191970" d="M367.5767,-236.7884C311.0817,-225.3128 204.6102,-203.6858 139.8759,-190.5367"/>
<polygon fill="#191970" stroke="#191970" points="140.3555,-187.0627 129.8588,-188.502 138.962,-193.9226 140.3555,-187.0627"/>
</g>
<!-- Node8 -->
<g id="node9" class="node">
<title>Node8</title>
<g id="a_node9"><a xlink:href="functions_8h.html" target="_top" xlink:title=" ">
<polygon fill="#ffffff" stroke="#000000" points="589.3594,-170.5 589.3594,-188.5 653.7236,-188.5 653.7236,-170.5 589.3594,-170.5"/>
<text text-anchor="middle" x="621.5415" y="-176.5" font-family="Helvetica,sans-Serif" font-size="10.00" fill="#000000">functions.h</text>
</a>
</g>
</g>
<!-- Node1&#45;&gt;Node8 -->
<g id="edge11" class="edge">
<title>Node1&#45;&gt;Node8</title>
<path fill="none" stroke="#191970" d="M435.5754,-235.462C473.6727,-223.9976 539.4852,-204.1929 581.7348,-191.4789"/>
<polygon fill="#191970" stroke="#191970" points="582.8481,-194.799 591.4153,-188.5658 580.8309,-188.0959 582.8481,-194.799"/>
</g>
<!-- Node4&#45;&gt;Node2 -->
<g id="edge5" class="edge">
<title>Node4&#45;&gt;Node2</title>
<path fill="none" stroke="#191970" d="M471.1626,-170.3873C464.9953,-161.5769 455.4881,-147.9951 447.8464,-137.0784"/>
<polygon fill="#191970" stroke="#191970" points="450.5824,-134.8837 441.9804,-128.6985 444.8478,-138.8979 450.5824,-134.8837"/>
</g>
<!-- Node5&#45;&gt;Node2 -->
<g id="edge8" class="edge">
<title>Node5&#45;&gt;Node2</title>
<path fill="none" stroke="#191970" d="M317.6526,-170.3873C341.0561,-160.2851 378.9926,-143.9096 405.4904,-132.4717"/>
<polygon fill="#191970" stroke="#191970" points="406.8931,-135.6784 414.6872,-128.5019 404.1189,-129.2516 406.8931,-135.6784"/>
</g>
<!-- Node6 -->
<g id="node7" class="node">
<title>Node6</title>
<g id="a_node7"><a xlink:href="neighbourlist_8h.html" target="_top" xlink:title=" ">
<polygon fill="#ffffff" stroke="#000000" points="256.0195,-110.5 256.0195,-128.5 337.0635,-128.5 337.0635,-110.5 256.0195,-110.5"/>
<text text-anchor="middle" x="296.5415" y="-116.5" font-family="Helvetica,sans-Serif" font-size="10.00" fill="#000000">neighbourlist.h</text>
</a>
</g>
</g>
<!-- Node5&#45;&gt;Node6 -->
<g id="edge7" class="edge">
<title>Node5&#45;&gt;Node6</title>
<path fill="none" stroke="#191970" d="M296.5415,-170.3873C296.5415,-162.0174 296.5415,-149.3414 296.5415,-138.735"/>
<polygon fill="#191970" stroke="#191970" points="300.0416,-138.6984 296.5415,-128.6985 293.0416,-138.6985 300.0416,-138.6984"/>
</g>
<!-- Node7&#45;&gt;Node3 -->
<g id="edge10" class="edge">
<title>Node7&#45;&gt;Node3</title>
<path fill="none" stroke="#191970" d="M94.1986,-170.3873C102.8195,-161.3126 116.2494,-147.1759 126.7684,-136.1033"/>
<polygon fill="#191970" stroke="#191970" points="129.4529,-138.3591 133.803,-128.6985 124.3779,-133.5379 129.4529,-138.3591"/>
</g>
<!-- Node9 -->
<g id="node10" class="node">
<title>Node9</title>
<g id="a_node10"><a xlink:href="su3_8h.html" target="_top" xlink:title=" ">
<polygon fill="#ffffff" stroke="#000000" points="682.0293,-110.5 682.0293,-128.5 763.0537,-128.5 763.0537,-110.5 682.0293,-110.5"/>
<text text-anchor="middle" x="722.5415" y="-116.5" font-family="Helvetica,sans-Serif" font-size="10.00" fill="#000000">matrices/su3.h</text>
</a>
</g>
</g>
<!-- Node8&#45;&gt;Node9 -->
<g id="edge12" class="edge">
<title>Node8&#45;&gt;Node9</title>
<path fill="none" stroke="#191970" d="M636.8812,-170.3873C653.29,-160.6395 679.5306,-145.051 698.6492,-133.6934"/>
<polygon fill="#191970" stroke="#191970" points="700.5785,-136.6184 707.3883,-128.5019 697.0034,-130.6002 700.5785,-136.6184"/>
</g>
<!-- Node10 -->
<g id="node11" class="node">
<title>Node10</title>
<g id="a_node11"><a xlink:href="complex_8h.html" target="_top" xlink:title=" ">
<polygon fill="#ffffff" stroke="#000000" points="580.2485,-55.5 580.2485,-73.5 666.8345,-73.5 666.8345,-55.5 580.2485,-55.5"/>
<text text-anchor="middle" x="623.5415" y="-61.5" font-family="Helvetica,sans-Serif" font-size="10.00" fill="#000000">math/complex.h</text>
</a>
</g>
</g>
<!-- Node8&#45;&gt;Node10 -->
<g id="edge17" class="edge">
<title>Node8&#45;&gt;Node10</title>
<path fill="none" stroke="#191970" d="M607.3515,-170.2961C589.7071,-157.6027 563.1064,-133.6049 573.5415,-110 578.9543,-97.7558 589.4697,-87.3899 599.4662,-79.6592"/>
<polygon fill="#191970" stroke="#191970" points="601.5392,-82.4796 607.6178,-73.8019 597.4545,-76.7949 601.5392,-82.4796"/>
</g>
<!-- Node12 -->
<g id="node13" class="node">
<title>Node12</title>
<g id="a_node13"><a xlink:href="su2_8h.html" target="_top" xlink:title=" ">
<polygon fill="#ffffff" stroke="#000000" points="583.0293,-110.5 583.0293,-128.5 664.0537,-128.5 664.0537,-110.5 583.0293,-110.5"/>
<text text-anchor="middle" x="623.5415" y="-116.5" font-family="Helvetica,sans-Serif" font-size="10.00" fill="#000000">matrices/su2.h</text>
</a>
</g>
</g>
<!-- Node8&#45;&gt;Node12 -->
<g id="edge15" class="edge">
<title>Node8&#45;&gt;Node12</title>
<path fill="none" stroke="#191970" d="M621.8453,-170.3873C622.1243,-162.0174 622.5468,-149.3414 622.9003,-138.735"/>
<polygon fill="#191970" stroke="#191970" points="626.3997,-138.8096 623.2349,-128.6985 619.4036,-138.5763 626.3997,-138.8096"/>
</g>
<!-- Node9&#45;&gt;Node10 -->
<g id="edge13" class="edge">
<title>Node9&#45;&gt;Node10</title>
<path fill="none" stroke="#191970" d="M706.1937,-110.4179C690.5734,-101.7399 666.8017,-88.5334 648.7553,-78.5077"/>
<polygon fill="#191970" stroke="#191970" points="650.355,-75.3925 639.9136,-73.5956 646.9554,-81.5117 650.355,-75.3925"/>
</g>
<!-- Node11 -->
<g id="node12" class="node">
<title>Node11</title>
<g id="a_node12"><a xlink:title=" ">
<polygon fill="#ffffff" stroke="#bfbfbf" points="596.3691,-.5 596.3691,-18.5 650.7139,-18.5 650.7139,-.5 596.3691,-.5"/>
<text text-anchor="middle" x="623.5415" y="-6.5" font-family="Helvetica,sans-Serif" font-size="10.00" fill="#000000">iostream</text>
</a>
</g>
</g>
<!-- Node10&#45;&gt;Node11 -->
<g id="edge14" class="edge">
<title>Node10&#45;&gt;Node11</title>
<path fill="none" stroke="#191970" d="M623.5415,-55.4179C623.5415,-48.2164 623.5415,-37.8962 623.5415,-28.8632"/>
<polygon fill="#191970" stroke="#191970" points="627.0416,-28.7794 623.5415,-18.7795 620.0416,-28.7795 627.0416,-28.7794"/>
</g>
<!-- Node12&#45;&gt;Node10 -->
<g id="edge16" class="edge">
<title>Node12&#45;&gt;Node10</title>
<path fill="none" stroke="#191970" d="M623.5415,-110.4179C623.5415,-103.2164 623.5415,-92.8962 623.5415,-83.8632"/>
<polygon fill="#191970" stroke="#191970" points="627.0416,-83.7794 623.5415,-73.7795 620.0416,-83.7795 627.0416,-83.7794"/>
</g>
<!-- Node14 -->
<g id="node15" class="node">
<title>Node14</title>
<g id="a_node15"><a xlink:href="su3exp_8h.html" target="_top" xlink:title=" ">
<polygon fill="#ffffff" stroke="#000000" points="671.5098,-165.5 671.5098,-193.5 777.5732,-193.5 777.5732,-165.5 671.5098,-165.5"/>
<text text-anchor="start" x="679.5098" y="-181.5" font-family="Helvetica,sans-Serif" font-size="10.00" fill="#000000">math/exponentiation</text>
<text text-anchor="middle" x="724.5415" y="-171.5" font-family="Helvetica,sans-Serif" font-size="10.00" fill="#000000">/su3exp.h</text>
</a>
</g>
</g>
<!-- Node13&#45;&gt;Node14 -->
<g id="edge19" class="edge">
<title>Node13&#45;&gt;Node14</title>
<path fill="none" stroke="#191970" d="M659.3977,-295.3709C644.9924,-287.8913 627.048,-275.794 618.5415,-259 612.7175,-247.502 611.6613,-240.8989 618.5415,-230 628.5031,-214.2198 644.8955,-203.2678 661.8454,-195.7087"/>
<polygon fill="#191970" stroke="#191970" points="663.3512,-198.8743 671.2821,-191.8492 660.7013,-192.3953 663.3512,-198.8743"/>
</g>
<!-- Node15 -->
<g id="node16" class="node">
<title>Node15</title>
<g id="a_node16"><a xlink:href="expluscher_8h.html" target="_top" xlink:title=" ">
<polygon fill="#ffffff" stroke="#000000" points="627.5098,-230.5 627.5098,-258.5 733.5732,-258.5 733.5732,-230.5 627.5098,-230.5"/>
<text text-anchor="start" x="635.5098" y="-246.5" font-family="Helvetica,sans-Serif" font-size="10.00" fill="#000000">math/exponentiation</text>
<text text-anchor="middle" x="680.5415" y="-236.5" font-family="Helvetica,sans-Serif" font-size="10.00" fill="#000000">/expluscher.h</text>
</a>
</g>
</g>
<!-- Node13&#45;&gt;Node15 -->
<g id="edge21" class="edge">
<title>Node13&#45;&gt;Node15</title>
<path fill="none" stroke="#191970" d="M680.5415,-295.3873C680.5415,-288.3369 680.5415,-278.2311 680.5415,-268.8806"/>
<polygon fill="#191970" stroke="#191970" points="684.0416,-268.8476 680.5415,-258.8477 677.0416,-268.8477 684.0416,-268.8476"/>
</g>
<!-- Node16 -->
<g id="node17" class="node">
<title>Node16</title>
<g id="a_node17"><a xlink:href="taylor2exp_8h.html" target="_top" xlink:title=" ">
<polygon fill="#ffffff" stroke="#000000" points="751.5098,-230.5 751.5098,-258.5 857.5732,-258.5 857.5732,-230.5 751.5098,-230.5"/>
<text text-anchor="start" x="759.5098" y="-246.5" font-family="Helvetica,sans-Serif" font-size="10.00" fill="#000000">math/exponentiation</text>
<text text-anchor="middle" x="804.5415" y="-236.5" font-family="Helvetica,sans-Serif" font-size="10.00" fill="#000000">/taylor2exp.h</text>
</a>
</g>
</g>
<!-- Node13&#45;&gt;Node16 -->
<g id="edge23" class="edge">
<title>Node13&#45;&gt;Node16</title>
<path fill="none" stroke="#191970" d="M699.3744,-295.3873C717.0406,-286.8392 743.9893,-273.7995 766.1838,-263.0602"/>
<polygon fill="#191970" stroke="#191970" points="767.8866,-266.1245 775.3637,-258.6183 764.8376,-259.8234 767.8866,-266.1245"/>
</g>
<!-- Node17 -->
<g id="node18" class="node">
<title>Node17</title>
<g id="a_node18"><a xlink:href="taylor4exp_8h.html" target="_top" xlink:title=" ">
<polygon fill="#ffffff" stroke="#000000" points="875.5098,-230.5 875.5098,-258.5 981.5732,-258.5 981.5732,-230.5 875.5098,-230.5"/>
<text text-anchor="start" x="883.5098" y="-246.5" font-family="Helvetica,sans-Serif" font-size="10.00" fill="#000000">math/exponentiation</text>
<text text-anchor="middle" x="928.5415" y="-236.5" font-family="Helvetica,sans-Serif" font-size="10.00" fill="#000000">/taylor4exp.h</text>
</a>
</g>
</g>
<!-- Node13&#45;&gt;Node17 -->
<g id="edge25" class="edge">
<title>Node13&#45;&gt;Node17</title>
<path fill="none" stroke="#191970" d="M717.9381,-295.4524C756.8921,-286.0281 818.6208,-271.0937 865.199,-259.8248"/>
<polygon fill="#191970" stroke="#191970" points="866.2958,-263.1605 875.1923,-257.4071 864.6497,-256.3568 866.2958,-263.1605"/>
</g>
<!-- Node14&#45;&gt;Node9 -->
<g id="edge20" class="edge">
<title>Node14&#45;&gt;Node9</title>
<path fill="none" stroke="#191970" d="M724.0675,-165.2808C723.8041,-157.3776 723.4726,-147.4316 723.1859,-138.8308"/>
<polygon fill="#191970" stroke="#191970" points="726.6756,-138.462 722.8443,-128.5842 719.6795,-138.6953 726.6756,-138.462"/>
</g>
<!-- Node15&#45;&gt;Node14 -->
<g id="edge22" class="edge">
<title>Node15&#45;&gt;Node14</title>
<path fill="none" stroke="#191970" d="M690.0888,-230.396C695.6817,-222.1338 702.8756,-211.5065 709.2419,-202.1017"/>
<polygon fill="#191970" stroke="#191970" points="712.3055,-203.8196 715.0128,-193.5765 706.5087,-199.8956 712.3055,-203.8196"/>
</g>
<!-- Node16&#45;&gt;Node14 -->
<g id="edge24" class="edge">
<title>Node16&#45;&gt;Node14</title>
<path fill="none" stroke="#191970" d="M787.1827,-230.396C776.28,-221.5375 762.0312,-209.9604 749.8783,-200.0861"/>
<polygon fill="#191970" stroke="#191970" points="751.8347,-197.1661 741.8664,-193.5765 747.4205,-202.5989 751.8347,-197.1661"/>
</g>
<!-- Node17&#45;&gt;Node14 -->
<g id="edge26" class="edge">
<title>Node17&#45;&gt;Node14</title>
<path fill="none" stroke="#191970" d="M884.5277,-230.476C853.3987,-220.5574 811.4799,-207.201 778.36,-196.6481"/>
<polygon fill="#191970" stroke="#191970" points="779.4187,-193.3121 768.8281,-193.6109 777.2935,-199.9817 779.4187,-193.3121"/>
</g>
<!-- Node18&#45;&gt;Node1 -->
<g id="edge28" class="edge">
<title>Node18&#45;&gt;Node1</title>
<path fill="none" stroke="#191970" d="M515.7973,-295.3873C494.1011,-285.3737 459.0504,-269.1964 434.3014,-257.7738"/>
<polygon fill="#191970" stroke="#191970" points="435.5919,-254.5147 425.0456,-253.5019 432.6584,-260.8704 435.5919,-254.5147"/>
</g>
<!-- Node18&#45;&gt;Node2 -->
<g id="edge29" class="edge">
<title>Node18&#45;&gt;Node2</title>
<path fill="none" stroke="#191970" d="M539.392,-295.3823C548.7736,-271.6044 570.0992,-206.6643 542.5415,-165 525.9766,-139.9557 492.5361,-128.6537 467.424,-123.5795"/>
<polygon fill="#191970" stroke="#191970" points="467.7042,-120.0743 457.2451,-121.7642 466.4752,-126.9656 467.7042,-120.0743"/>
</g>
</g>
</svg>
