<?xml version="1.0" encoding="UTF-8" standalone="no"?>
<!DOCTYPE svg PUBLIC "-//W3C//DTD SVG 1.1//EN"
 "http://www.w3.org/Graphics/SVG/1.1/DTD/svg11.dtd">
<!-- Generated by graphviz version 2.40.1 (20161225.0304)
 -->
<!-- Title: traceRealMultiplication Pages: 1 -->
<svg width="486pt" height="262pt"
 viewBox="0.00 0.00 485.96 262.00" xmlns="http://www.w3.org/2000/svg" xmlns:xlink="http://www.w3.org/1999/xlink">
<g id="graph0" class="graph" transform="scale(1 1) rotate(0) translate(4 258)">
<title>traceRealMultiplication</title>
<polygon fill="#ffffff" stroke="transparent" points="-4,4 -4,-258 481.9639,-258 481.9639,4 -4,4"/>
<!-- Node8 -->
<g id="node1" class="node">
<title>Node8</title>
<g id="a_node1"><a xlink:title=" ">
<polygon fill="#bfbfbf" stroke="#000000" points="361.3633,-172.5 361.3633,-190.5 477.9639,-190.5 477.9639,-172.5 361.3633,-172.5"/>
<text text-anchor="middle" x="419.6636" y="-178.5" font-family="Helvetica,sans-Serif" font-size="10.00" fill="#000000">traceRealMultiplication</text>
</a>
</g>
</g>
<!-- Node9 -->
<g id="node2" class="node">
<title>Node9</title>
<g id="a_node2"><a xlink:href="class_luscher_action.html#a1955f8eea8b0771f6c737c39e3fc11b2" target="_top" xlink:title="getDeltaAction computes the change in action. Staple must have already have been calculated.">
<polygon fill="#ffffff" stroke="#000000" points="175.3984,-235.5 175.3984,-253.5 325.3633,-253.5 325.3633,-235.5 175.3984,-235.5"/>
<text text-anchor="middle" x="250.3809" y="-241.5" font-family="Helvetica,sans-Serif" font-size="10.00" fill="#000000">LuscherAction::getDeltaAction</text>
</a>
</g>
</g>
<!-- Node8&#45;&gt;Node9 -->
<g id="edge1" class="edge">
<title>Node8&#45;&gt;Node9</title>
<path fill="none" stroke="#191970" d="M394.41,-195.3395C375.7647,-205.111 349.5345,-217.9383 325.3633,-226.5 315.6464,-229.9418 304.9912,-232.9416 294.8412,-235.4539"/>
<polygon fill="#191970" stroke="#191970" points="396.2335,-198.3339 403.4178,-190.5469 392.9456,-192.1541 396.2335,-198.3339"/>
</g>
<!-- Node10 -->
<g id="node3" class="node">
<title>Node10</title>
<g id="a_node3"><a xlink:href="class_wilson_gauge_action.html#a60f2892e61489004df3cde6cc856b00b" target="_top" xlink:title="getDeltaAction computes the change in action. Staple must have already have been calculated.">
<polygon fill="#ffffff" stroke="#000000" points="195.6914,-188.5 195.6914,-216.5 305.0703,-216.5 305.0703,-188.5 195.6914,-188.5"/>
<text text-anchor="start" x="203.6914" y="-204.5" font-family="Helvetica,sans-Serif" font-size="10.00" fill="#000000">WilsonGaugeAction::</text>
<text text-anchor="middle" x="250.3809" y="-194.5" font-family="Helvetica,sans-Serif" font-size="10.00" fill="#000000">getDeltaAction</text>
</a>
</g>
</g>
<!-- Node8&#45;&gt;Node10 -->
<g id="edge2" class="edge">
<title>Node8&#45;&gt;Node10</title>
<path fill="none" stroke="#191970" d="M350.6208,-190.065C335.5335,-191.9366 319.7612,-193.8932 305.312,-195.6856"/>
<polygon fill="#191970" stroke="#191970" points="351.4388,-193.4904 360.9318,-188.7858 350.5769,-186.5436 351.4388,-193.4904"/>
</g>
<!-- Node11 -->
<g id="node4" class="node">
<title>Node11</title>
<g id="a_node4"><a xlink:href="lattice_8h.html#ab2d48b63b79e5e5ee3ca25483fe98b3e" target="_top" xlink:title=" ">
<polygon fill="#ffffff" stroke="#000000" points="192.5444,-151.5 192.5444,-169.5 308.2173,-169.5 308.2173,-151.5 192.5444,-151.5"/>
<text text-anchor="middle" x="250.3809" y="-157.5" font-family="Helvetica,sans-Serif" font-size="10.00" fill="#000000">realTraceMultiplication</text>
</a>
</g>
</g>
<!-- Node8&#45;&gt;Node11 -->
<g id="edge3" class="edge">
<title>Node8&#45;&gt;Node11</title>
<path fill="none" stroke="#191970" d="M350.8188,-172.9596C336.7518,-171.2146 322.0813,-169.3946 308.4367,-167.702"/>
<polygon fill="#191970" stroke="#191970" points="350.5769,-176.4564 360.9318,-174.2142 351.4388,-169.5096 350.5769,-176.4564"/>
</g>
<!-- Node15 -->
<g id="node8" class="node">
<title>Node15</title>
<g id="a_node8"><a xlink:href="lattice_8h.html#a2a635fe0bbbaca1e8903db8d3bf61f01" target="_top" xlink:title=" ">
<polygon fill="#ffffff" stroke="#000000" points="181.1528,-102.5 181.1528,-120.5 319.6089,-120.5 319.6089,-102.5 181.1528,-102.5"/>
<text text-anchor="middle" x="250.3809" y="-108.5" font-family="Helvetica,sans-Serif" font-size="10.00" fill="#000000">sumRealTraceMultiplication</text>
</a>
</g>
</g>
<!-- Node8&#45;&gt;Node15 -->
<g id="edge7" class="edge">
<title>Node8&#45;&gt;Node15</title>
<path fill="none" stroke="#191970" d="M388.5009,-168.614C354.803,-154.6795 301.9494,-132.8241 272.3496,-120.5843"/>
<polygon fill="#191970" stroke="#191970" points="387.3008,-171.9051 397.8794,-172.492 389.9757,-165.4363 387.3008,-171.9051"/>
</g>
<!-- Node12 -->
<g id="node5" class="node">
<title>Node12</title>
<g id="a_node5"><a xlink:href="class_lattice_action_charge_density.html#a3dddc75188042c645fbdd1c8b3e80c8a" target="_top" xlink:title=" ">
<polygon fill="#ffffff" stroke="#000000" points="0,-205.5 0,-233.5 139.3984,-233.5 139.3984,-205.5 0,-205.5"/>
<text text-anchor="start" x="8" y="-221.5" font-family="Helvetica,sans-Serif" font-size="10.00" fill="#000000">LatticeActionChargeDensity</text>
<text text-anchor="middle" x="69.6992" y="-211.5" font-family="Helvetica,sans-Serif" font-size="10.00" fill="#000000">::calculate</text>
</a>
</g>
</g>
<!-- Node11&#45;&gt;Node12 -->
<g id="edge4" class="edge">
<title>Node11&#45;&gt;Node12</title>
<path fill="none" stroke="#191970" d="M198.784,-172.1745C190.8753,-174.3653 182.8636,-176.82 175.3984,-179.5 158.7449,-185.4787 155.8307,-189.9375 139.3984,-196.5 131.5883,-199.6191 123.1725,-202.6587 114.9825,-205.4524"/>
<polygon fill="#191970" stroke="#191970" points="199.9301,-175.4916 208.6978,-169.5437 198.1346,-168.7258 199.9301,-175.4916"/>
</g>
<!-- Node13 -->
<g id="node6" class="node">
<title>Node13</title>
<g id="a_node6"><a xlink:href="class_master_sampler_topc_x_y_z.html#a0ea80ad9935db791f00461b7dfd548b7" target="_top" xlink:title=" ">
<polygon fill="#ffffff" stroke="#000000" points="7.5146,-158.5 7.5146,-186.5 131.8838,-186.5 131.8838,-158.5 7.5146,-158.5"/>
<text text-anchor="start" x="15.5146" y="-174.5" font-family="Helvetica,sans-Serif" font-size="10.00" fill="#000000">MasterSamplerTopcXYZ</text>
<text text-anchor="middle" x="69.6992" y="-164.5" font-family="Helvetica,sans-Serif" font-size="10.00" fill="#000000">::calculate</text>
</a>
</g>
</g>
<!-- Node11&#45;&gt;Node13 -->
<g id="edge5" class="edge">
<title>Node11&#45;&gt;Node13</title>
<path fill="none" stroke="#191970" d="M182.1473,-165.0317C165.7244,-166.1225 148.2631,-167.2822 132.1207,-168.3543"/>
<polygon fill="#191970" stroke="#191970" points="182.4715,-168.518 192.2175,-164.3629 182.0075,-161.5334 182.4715,-168.518"/>
</g>
<!-- Node14 -->
<g id="node7" class="node">
<title>Node14</title>
<g id="a_node7"><a xlink:href="class_super_sampler.html#a7e1457583270077c4fbcb288ea9b954c" target="_top" xlink:title=" ">
<polygon fill="#ffffff" stroke="#000000" points="7.2266,-121.5 7.2266,-139.5 132.1719,-139.5 132.1719,-121.5 7.2266,-121.5"/>
<text text-anchor="middle" x="69.6992" y="-127.5" font-family="Helvetica,sans-Serif" font-size="10.00" fill="#000000">SuperSampler::calculate</text>
</a>
</g>
</g>
<!-- Node11&#45;&gt;Node14 -->
<g id="edge6" class="edge">
<title>Node11&#45;&gt;Node14</title>
<path fill="none" stroke="#191970" d="M186.0923,-149.8257C165.8423,-146.4634 143.6827,-142.7841 124.1834,-139.5464"/>
<polygon fill="#191970" stroke="#191970" points="185.7322,-153.3137 196.1704,-151.499 186.8788,-146.4082 185.7322,-153.3137"/>
</g>
<!-- Node15&#45;&gt;Node13 -->
<g id="edge10" class="edge">
<title>Node15&#45;&gt;Node13</title>
<path fill="none" stroke="#191970" d="M214.4673,-123.91C192.7552,-131.3844 164.509,-141.0583 139.3984,-149.5 130.7022,-152.4235 121.3843,-155.5219 112.4822,-158.4655"/>
<polygon fill="#191970" stroke="#191970" points="215.6344,-127.2098 223.9486,-120.6429 213.3539,-120.5917 215.6344,-127.2098"/>
</g>
<!-- Node15&#45;&gt;Node14 -->
<g id="edge11" class="edge">
<title>Node15&#45;&gt;Node14</title>
<path fill="none" stroke="#191970" d="M170.798,-119.8687C157.921,-121.2228 144.7482,-122.6081 132.3462,-123.9122"/>
<polygon fill="#191970" stroke="#191970" points="171.4623,-123.3183 181.0414,-118.7916 170.7301,-116.3566 171.4623,-123.3183"/>
</g>
<!-- Node16 -->
<g id="node9" class="node">
<title>Node16</title>
<g id="a_node9"><a xlink:href="class_energy_density.html#ae8e5e29257104d881bcabeadc3b2c9e7" target="_top" xlink:title=" ">
<polygon fill="#ffffff" stroke="#000000" points="6.6724,-84.5 6.6724,-102.5 132.7261,-102.5 132.7261,-84.5 6.6724,-84.5"/>
<text text-anchor="middle" x="69.6992" y="-90.5" font-family="Helvetica,sans-Serif" font-size="10.00" fill="#000000">EnergyDensity::calculate</text>
</a>
</g>
</g>
<!-- Node15&#45;&gt;Node16 -->
<g id="edge8" class="edge">
<title>Node15&#45;&gt;Node16</title>
<path fill="none" stroke="#191970" d="M170.9263,-103.5845C158.2112,-102.3178 145.2041,-101.022 132.9325,-99.7995"/>
<polygon fill="#191970" stroke="#191970" points="170.7436,-107.0836 181.0414,-104.5922 171.4376,-100.118 170.7436,-107.0836"/>
</g>
<!-- Node17 -->
<g id="node10" class="node">
<title>Node17</title>
<g id="a_node10"><a xlink:href="class_master_sampler.html#ad3cc7e36498dbf4a39238de3ac59ae8b" target="_top" xlink:title=" ">
<polygon fill="#ffffff" stroke="#000000" points="5.2881,-47.5 5.2881,-65.5 134.1104,-65.5 134.1104,-47.5 5.2881,-47.5"/>
<text text-anchor="middle" x="69.6992" y="-53.5" font-family="Helvetica,sans-Serif" font-size="10.00" fill="#000000">MasterSampler::calculate</text>
</a>
</g>
</g>
<!-- Node15&#45;&gt;Node17 -->
<g id="edge9" class="edge">
<title>Node15&#45;&gt;Node17</title>
<path fill="none" stroke="#191970" d="M213.841,-99.1639C192.2627,-92.0001 164.3664,-82.9481 139.3984,-75.5 127.9806,-72.094 115.4386,-68.5994 104.1792,-65.551"/>
<polygon fill="#191970" stroke="#191970" points="212.9874,-102.5687 223.5811,-102.4116 215.2017,-95.9281 212.9874,-102.5687"/>
</g>
<!-- Node18 -->
<g id="node11" class="node">
<title>Node18</title>
<g id="a_node11"><a xlink:href="class_topological_charge.html#a8ed78c28c3484df04b1cb24187de2f5b" target="_top" xlink:title=" ">
<polygon fill="#ffffff" stroke="#000000" points="17.5049,-.5 17.5049,-28.5 121.8936,-28.5 121.8936,-.5 17.5049,-.5"/>
<text text-anchor="start" x="25.5049" y="-16.5" font-family="Helvetica,sans-Serif" font-size="10.00" fill="#000000">TopologicalCharge::</text>
<text text-anchor="middle" x="69.6992" y="-6.5" font-family="Helvetica,sans-Serif" font-size="10.00" fill="#000000">calculate</text>
</a>
</g>
</g>
<!-- Node15&#45;&gt;Node18 -->
<g id="edge12" class="edge">
<title>Node15&#45;&gt;Node18</title>
<path fill="none" stroke="#191970" d="M230.6288,-96.3014C209.1142,-80.2865 173.2356,-55.1264 139.3984,-38.5 131.9325,-34.8315 123.7644,-31.4786 115.7321,-28.5177"/>
<polygon fill="#191970" stroke="#191970" points="228.5678,-99.1309 238.6605,-102.3539 232.7806,-93.5404 228.5678,-99.1309"/>
</g>
</g>
</svg>
