<?xml version="1.0" encoding="UTF-8" standalone="no"?>
<!DOCTYPE svg PUBLIC "-//W3C//DTD SVG 1.1//EN"
 "http://www.w3.org/Graphics/SVG/1.1/DTD/svg11.dtd">
<!-- Generated by graphviz version 2.40.1 (20161225.0304)
 -->
<!-- Title: GluonicLQCD/math/functions.h Pages: 1 -->
<svg width="227pt" height="192pt"
 viewBox="0.00 0.00 227.02 192.00" xmlns="http://www.w3.org/2000/svg" xmlns:xlink="http://www.w3.org/1999/xlink">
<g id="graph0" class="graph" transform="scale(1 1) rotate(0) translate(4 188)">
<title>GluonicLQCD/math/functions.h</title>
<polygon fill="#ffffff" stroke="transparent" points="-4,4 -4,-188 223.0244,-188 223.0244,4 -4,4"/>
<!-- Node0 -->
<g id="node1" class="node">
<title>Node0</title>
<g id="a_node1"><a xlink:title=" ">
<polygon fill="#bfbfbf" stroke="#000000" points="32.5913,-165.5 32.5913,-183.5 186.4331,-183.5 186.4331,-165.5 32.5913,-165.5"/>
<text text-anchor="middle" x="109.5122" y="-171.5" font-family="Helvetica,sans-Serif" font-size="10.00" fill="#000000">GluonicLQCD/math/functions.h</text>
</a>
</g>
</g>
<!-- Node1 -->
<g id="node2" class="node">
<title>Node1</title>
<g id="a_node2"><a xlink:href="su3_8h.html" target="_top" xlink:title=" ">
<polygon fill="#ffffff" stroke="#000000" points="0,-110.5 0,-128.5 81.0244,-128.5 81.0244,-110.5 0,-110.5"/>
<text text-anchor="middle" x="40.5122" y="-116.5" font-family="Helvetica,sans-Serif" font-size="10.00" fill="#000000">matrices/su3.h</text>
</a>
</g>
</g>
<!-- Node0&#45;&gt;Node1 -->
<g id="edge1" class="edge">
<title>Node0&#45;&gt;Node1</title>
<path fill="none" stroke="#191970" d="M98.1183,-165.4179C87.793,-157.1876 72.3575,-144.8839 60.0625,-135.0836"/>
<polygon fill="#191970" stroke="#191970" points="62.1551,-132.2757 52.1537,-128.7795 57.7919,-137.7495 62.1551,-132.2757"/>
</g>
<!-- Node2 -->
<g id="node3" class="node">
<title>Node2</title>
<g id="a_node3"><a xlink:href="complex_8h.html" target="_top" xlink:title=" ">
<polygon fill="#ffffff" stroke="#000000" points="66.2192,-55.5 66.2192,-73.5 152.8052,-73.5 152.8052,-55.5 66.2192,-55.5"/>
<text text-anchor="middle" x="109.5122" y="-61.5" font-family="Helvetica,sans-Serif" font-size="10.00" fill="#000000">math/complex.h</text>
</a>
</g>
</g>
<!-- Node0&#45;&gt;Node2 -->
<g id="edge6" class="edge">
<title>Node0&#45;&gt;Node2</title>
<path fill="none" stroke="#191970" d="M109.5122,-165.4982C109.5122,-147.6913 109.5122,-107.6225 109.5122,-83.6515"/>
<polygon fill="#191970" stroke="#191970" points="113.0123,-83.6261 109.5122,-73.6261 106.0123,-83.6262 113.0123,-83.6261"/>
</g>
<!-- Node4 -->
<g id="node5" class="node">
<title>Node4</title>
<g id="a_node5"><a xlink:href="su2_8h.html" target="_top" xlink:title=" ">
<polygon fill="#ffffff" stroke="#000000" points="138,-110.5 138,-128.5 219.0244,-128.5 219.0244,-110.5 138,-110.5"/>
<text text-anchor="middle" x="178.5122" y="-116.5" font-family="Helvetica,sans-Serif" font-size="10.00" fill="#000000">matrices/su2.h</text>
</a>
</g>
</g>
<!-- Node0&#45;&gt;Node4 -->
<g id="edge4" class="edge">
<title>Node0&#45;&gt;Node4</title>
<path fill="none" stroke="#191970" d="M120.9062,-165.4179C131.2314,-157.1876 146.667,-144.8839 158.9619,-135.0836"/>
<polygon fill="#191970" stroke="#191970" points="161.2326,-137.7495 166.8707,-128.7795 156.8693,-132.2757 161.2326,-137.7495"/>
</g>
<!-- Node1&#45;&gt;Node2 -->
<g id="edge2" class="edge">
<title>Node1&#45;&gt;Node2</title>
<path fill="none" stroke="#191970" d="M51.9062,-110.4179C62.2314,-102.1876 77.667,-89.8839 89.9619,-80.0836"/>
<polygon fill="#191970" stroke="#191970" points="92.2326,-82.7495 97.8707,-73.7795 87.8693,-77.2757 92.2326,-82.7495"/>
</g>
<!-- Node3 -->
<g id="node4" class="node">
<title>Node3</title>
<g id="a_node4"><a xlink:title=" ">
<polygon fill="#ffffff" stroke="#bfbfbf" points="82.3398,-.5 82.3398,-18.5 136.6846,-18.5 136.6846,-.5 82.3398,-.5"/>
<text text-anchor="middle" x="109.5122" y="-6.5" font-family="Helvetica,sans-Serif" font-size="10.00" fill="#000000">iostream</text>
</a>
</g>
</g>
<!-- Node2&#45;&gt;Node3 -->
<g id="edge3" class="edge">
<title>Node2&#45;&gt;Node3</title>
<path fill="none" stroke="#191970" d="M109.5122,-55.4179C109.5122,-48.2164 109.5122,-37.8962 109.5122,-28.8632"/>
<polygon fill="#191970" stroke="#191970" points="113.0123,-28.7794 109.5122,-18.7795 106.0123,-28.7795 113.0123,-28.7794"/>
</g>
<!-- Node4&#45;&gt;Node2 -->
<g id="edge5" class="edge">
<title>Node4&#45;&gt;Node2</title>
<path fill="none" stroke="#191970" d="M167.1183,-110.4179C156.793,-102.1876 141.3575,-89.8839 129.0625,-80.0836"/>
<polygon fill="#191970" stroke="#191970" points="131.1551,-77.2757 121.1537,-73.7795 126.7919,-82.7495 131.1551,-77.2757"/>
</g>
</g>
</svg>
