<?xml version="1.0" encoding="UTF-8" standalone="no"?>
<!DOCTYPE svg PUBLIC "-//W3C//DTD SVG 1.1//EN"
 "http://www.w3.org/Graphics/SVG/1.1/DTD/svg11.dtd">
<!-- Generated by graphviz version 2.40.1 (20161225.0304)
 -->
<!-- Title: Graphical Class Hierarchy Pages: 1 -->
<svg width="192pt" height="64pt"
 viewBox="0.00 0.00 191.62 64.00" xmlns="http://www.w3.org/2000/svg" xmlns:xlink="http://www.w3.org/1999/xlink">
<g id="graph0" class="graph" transform="scale(1 1) rotate(0) translate(4 60)">
<title>Graphical Class Hierarchy</title>
<polygon fill="#ffffff" stroke="transparent" points="-4,4 -4,-60 187.6152,-60 187.6152,4 -4,4"/>
<!-- Node0 -->
<g id="node1" class="node">
<title>Node0</title>
<g id="a_node1"><a xlink:href="class_action.html" target="_top" xlink:title="The Action class.">
<polygon fill="#ffffff" stroke="#000000" points="0,-18.5 0,-36.5 43.793,-36.5 43.793,-18.5 0,-18.5"/>
<text text-anchor="middle" x="21.8965" y="-24.5" font-family="Helvetica,sans-Serif" font-size="10.00" fill="#000000">Action</text>
</a>
</g>
</g>
<!-- Node1 -->
<g id="node2" class="node">
<title>Node1</title>
<g id="a_node2"><a xlink:href="class_luscher_action.html" target="_top" xlink:title="An implementation of the Wilson gauge action,.">
<polygon fill="#ffffff" stroke="#000000" points="92.0195,-37.5 92.0195,-55.5 171.3887,-55.5 171.3887,-37.5 92.0195,-37.5"/>
<text text-anchor="middle" x="131.7041" y="-43.5" font-family="Helvetica,sans-Serif" font-size="10.00" fill="#000000">LuscherAction</text>
</a>
</g>
</g>
<!-- Node0&#45;&gt;Node1 -->
<g id="edge1" class="edge">
<title>Node0&#45;&gt;Node1</title>
<path fill="none" stroke="#191970" d="M53.8147,-33.0228C65.7512,-35.0882 79.4565,-37.4596 92.0101,-39.6318"/>
<polygon fill="#191970" stroke="#191970" points="54.3041,-29.5556 43.8538,-31.2993 53.1106,-36.4531 54.3041,-29.5556"/>
</g>
<!-- Node2 -->
<g id="node3" class="node">
<title>Node2</title>
<g id="a_node3"><a xlink:href="class_wilson_gauge_action.html" target="_top" xlink:title="An implementation of the Wilson gauge action,.">
<polygon fill="#ffffff" stroke="#000000" points="79.793,-.5 79.793,-18.5 183.6152,-18.5 183.6152,-.5 79.793,-.5"/>
<text text-anchor="middle" x="131.7041" y="-6.5" font-family="Helvetica,sans-Serif" font-size="10.00" fill="#000000">WilsonGaugeAction</text>
</a>
</g>
</g>
<!-- Node0&#45;&gt;Node2 -->
<g id="edge2" class="edge">
<title>Node0&#45;&gt;Node2</title>
<path fill="none" stroke="#191970" d="M53.841,-22.2636C61.842,-20.952 70.6365,-19.5104 79.3455,-18.0828"/>
<polygon fill="#191970" stroke="#191970" points="53.1559,-18.8291 43.8538,-23.9007 54.2883,-25.7369 53.1559,-18.8291"/>
</g>
</g>
</svg>
