<?xml version="1.0" encoding="UTF-8" standalone="no"?>
<!DOCTYPE svg PUBLIC "-//W3C//DTD SVG 1.1//EN"
 "http://www.w3.org/Graphics/SVG/1.1/DTD/svg11.dtd">
<!-- Generated by graphviz version 2.40.1 (20161225.0304)
 -->
<!-- Title: Graphical Class Hierarchy Pages: 1 -->
<svg width="282pt" height="77pt"
 viewBox="0.00 0.00 282.23 77.00" xmlns="http://www.w3.org/2000/svg" xmlns:xlink="http://www.w3.org/1999/xlink">
<g id="graph0" class="graph" transform="scale(1 1) rotate(0) translate(4 73)">
<title>Graphical Class Hierarchy</title>
<polygon fill="#ffffff" stroke="transparent" points="-4,4 -4,-73 278.2256,-73 278.2256,4 -4,4"/>
<!-- Node37 -->
<g id="node1" class="node">
<title>Node37</title>
<g id="a_node1"><a xlink:title=" ">
<polygon fill="#ffffff" stroke="#bfbfbf" points="0,-25.5 0,-43.5 47.123,-43.5 47.123,-25.5 0,-25.5"/>
<text text-anchor="middle" x="23.5615" y="-31.5" font-family="Helvetica,sans-Serif" font-size="10.00" fill="#000000">iterator</text>
</a>
</g>
</g>
<!-- Node0 -->
<g id="node2" class="node">
<title>Node0</title>
<g id="a_node2"><a xlink:href="classnlohmann_1_1basic__json_1_1iter__impl.html" target="_top" xlink:title="a template for a random access iterator for the basic_json class">
<polygon fill="#ffffff" stroke="#000000" points="83.123,-.5 83.123,-68.5 274.2256,-68.5 274.2256,-.5 83.123,-.5"/>
<text text-anchor="start" x="91.123" y="-56.5" font-family="Helvetica,sans-Serif" font-size="10.00" fill="#000000">nlohmann::basic_json</text>
<text text-anchor="start" x="91.123" y="-46.5" font-family="Helvetica,sans-Serif" font-size="10.00" fill="#000000">&lt; ObjectType, ArrayType,</text>
<text text-anchor="start" x="91.123" y="-36.5" font-family="Helvetica,sans-Serif" font-size="10.00" fill="#000000"> StringType, BooleanType,</text>
<text text-anchor="start" x="91.123" y="-26.5" font-family="Helvetica,sans-Serif" font-size="10.00" fill="#000000"> NumberIntegerType, NumberUnsigned</text>
<text text-anchor="start" x="91.123" y="-16.5" font-family="Helvetica,sans-Serif" font-size="10.00" fill="#000000">Type, NumberFloatType, AllocatorType,</text>
<text text-anchor="middle" x="178.6743" y="-6.5" font-family="Helvetica,sans-Serif" font-size="10.00" fill="#000000"> JSONSerializer &gt;::iter_impl&lt; U &gt;</text>
</a>
</g>
</g>
<!-- Node37&#45;&gt;Node0 -->
<g id="edge1" class="edge">
<title>Node37&#45;&gt;Node0</title>
<path fill="none" stroke="#191970" d="M57.4975,-34.5C65.2919,-34.5 73.9573,-34.5 82.9691,-34.5"/>
<polygon fill="#191970" stroke="#191970" points="57.458,-31.0001 47.458,-34.5 57.4579,-38.0001 57.458,-31.0001"/>
</g>
</g>
</svg>
