<?xml version="1.0" encoding="UTF-8" standalone="no"?>
<!DOCTYPE svg PUBLIC "-//W3C//DTD SVG 1.1//EN"
 "http://www.w3.org/Graphics/SVG/1.1/DTD/svg11.dtd">
<!-- Generated by graphviz version 2.40.1 (20161225.0304)
 -->
<!-- Title: Graphical Class Hierarchy Pages: 1 -->
<svg width="365pt" height="77pt"
 viewBox="0.00 0.00 365.30 77.00" xmlns="http://www.w3.org/2000/svg" xmlns:xlink="http://www.w3.org/1999/xlink">
<g id="graph0" class="graph" transform="scale(1 1) rotate(0) translate(4 73)">
<title>Graphical Class Hierarchy</title>
<polygon fill="#ffffff" stroke="transparent" points="-4,4 -4,-73 361.2969,-73 361.2969,4 -4,4"/>
<!-- Node19 -->
<g id="node1" class="node">
<title>Node19</title>
<g id="a_node1"><a xlink:title=" ">
<polygon fill="#ffffff" stroke="#bfbfbf" points="0,-25.5 0,-43.5 86.0293,-43.5 86.0293,-25.5 0,-25.5"/>
<text text-anchor="middle" x="43.0146" y="-31.5" font-family="Helvetica,sans-Serif" font-size="10.00" fill="#000000">reverse_iterator</text>
</a>
</g>
</g>
<!-- Node0 -->
<g id="node2" class="node">
<title>Node0</title>
<g id="a_node2"><a xlink:href="classnlohmann_1_1basic__json_1_1json__reverse__iterator.html" target="_top" xlink:title="a template for a reverse iterator class">
<polygon fill="#ffffff" stroke="#000000" points="122.0293,-.5 122.0293,-68.5 357.2969,-68.5 357.2969,-.5 122.0293,-.5"/>
<text text-anchor="start" x="130.0293" y="-56.5" font-family="Helvetica,sans-Serif" font-size="10.00" fill="#000000">nlohmann::basic_json</text>
<text text-anchor="start" x="130.0293" y="-46.5" font-family="Helvetica,sans-Serif" font-size="10.00" fill="#000000">&lt; ObjectType, ArrayType,</text>
<text text-anchor="start" x="130.0293" y="-36.5" font-family="Helvetica,sans-Serif" font-size="10.00" fill="#000000"> StringType, BooleanType,</text>
<text text-anchor="start" x="130.0293" y="-26.5" font-family="Helvetica,sans-Serif" font-size="10.00" fill="#000000"> NumberIntegerType, NumberUnsigned</text>
<text text-anchor="start" x="130.0293" y="-16.5" font-family="Helvetica,sans-Serif" font-size="10.00" fill="#000000">Type, NumberFloatType, AllocatorType,</text>
<text text-anchor="middle" x="239.6631" y="-6.5" font-family="Helvetica,sans-Serif" font-size="10.00" fill="#000000"> JSONSerializer &gt;::json_reverse_iterator&lt; Base &gt;</text>
</a>
</g>
</g>
<!-- Node19&#45;&gt;Node0 -->
<g id="edge1" class="edge">
<title>Node19&#45;&gt;Node0</title>
<path fill="none" stroke="#191970" d="M96.4355,-34.5C104.4873,-34.5 113.0509,-34.5 121.8306,-34.5"/>
<polygon fill="#191970" stroke="#191970" points="96.17,-31.0001 86.17,-34.5 96.1699,-38.0001 96.17,-31.0001"/>
</g>
</g>
</svg>
