<?xml version="1.0" encoding="UTF-8" standalone="no"?>
<!DOCTYPE svg PUBLIC "-//W3C//DTD SVG 1.1//EN"
 "http://www.w3.org/Graphics/SVG/1.1/DTD/svg11.dtd">
<!-- Generated by graphviz version 2.40.1 (20161225.0304)
 -->
<!-- Title: GLAC/lib/json.hpp Pages: 1 -->
<svg width="1811pt" height="82pt"
 viewBox="0.00 0.00 1811.18 82.00" xmlns="http://www.w3.org/2000/svg" xmlns:xlink="http://www.w3.org/1999/xlink">
<g id="graph0" class="graph" transform="scale(1 1) rotate(0) translate(4 78)">
<title>GLAC/lib/json.hpp</title>
<polygon fill="#ffffff" stroke="transparent" points="-4,4 -4,-78 1807.1797,-78 1807.1797,4 -4,4"/>
<!-- Node0 -->
<g id="node1" class="node">
<title>Node0</title>
<g id="a_node1"><a xlink:title=" ">
<polygon fill="#bfbfbf" stroke="#000000" points="878.2637,-55.5 878.2637,-73.5 974.8643,-73.5 974.8643,-55.5 878.2637,-55.5"/>
<text text-anchor="middle" x="926.564" y="-61.5" font-family="Helvetica,sans-Serif" font-size="10.00" fill="#000000">GLAC/lib/json.hpp</text>
</a>
</g>
</g>
<!-- Node1 -->
<g id="node2" class="node">
<title>Node1</title>
<g id="a_node2"><a xlink:title=" ">
<polygon fill="#ffffff" stroke="#bfbfbf" points="0,-.5 0,-18.5 57.1279,-18.5 57.1279,-.5 0,-.5"/>
<text text-anchor="middle" x="28.564" y="-6.5" font-family="Helvetica,sans-Serif" font-size="10.00" fill="#000000">algorithm</text>
</a>
</g>
</g>
<!-- Node0&#45;&gt;Node1 -->
<g id="edge1" class="edge">
<title>Node0&#45;&gt;Node1</title>
<path fill="none" stroke="#191970" d="M878.0428,-63.1604C723.5917,-58.7069 243.7126,-43.3636 67.4139,-18.7832"/>
<polygon fill="#191970" stroke="#191970" points="67.8939,-15.3162 57.4944,-17.3412 66.8869,-22.2434 67.8939,-15.3162"/>
</g>
<!-- Node2 -->
<g id="node3" class="node">
<title>Node2</title>
<g id="a_node3"><a xlink:title=" ">
<polygon fill="#ffffff" stroke="#bfbfbf" points="75.1724,-.5 75.1724,-18.5 113.9556,-18.5 113.9556,-.5 75.1724,-.5"/>
<text text-anchor="middle" x="94.564" y="-6.5" font-family="Helvetica,sans-Serif" font-size="10.00" fill="#000000">array</text>
</a>
</g>
</g>
<!-- Node0&#45;&gt;Node2 -->
<g id="edge2" class="edge">
<title>Node0&#45;&gt;Node2</title>
<path fill="none" stroke="#191970" d="M878.0473,-63.4021C730.5628,-59.8101 288.1749,-47.0906 123.9808,-18.4613"/>
<polygon fill="#191970" stroke="#191970" points="124.5053,-14.9993 114.0386,-16.6421 123.2453,-21.8849 124.5053,-14.9993"/>
</g>
<!-- Node3 -->
<g id="node4" class="node">
<title>Node3</title>
<g id="a_node4"><a xlink:title=" ">
<polygon fill="#ffffff" stroke="#bfbfbf" points="132.4482,-.5 132.4482,-18.5 180.6797,-18.5 180.6797,-.5 132.4482,-.5"/>
<text text-anchor="middle" x="156.564" y="-6.5" font-family="Helvetica,sans-Serif" font-size="10.00" fill="#000000">cassert</text>
</a>
</g>
</g>
<!-- Node0&#45;&gt;Node3 -->
<g id="edge3" class="edge">
<title>Node0&#45;&gt;Node3</title>
<path fill="none" stroke="#191970" d="M878.1761,-62.8409C739.582,-57.8827 341.9952,-42.1658 190.9534,-18.6096"/>
<polygon fill="#191970" stroke="#191970" points="191.3721,-15.1317 180.9386,-16.9735 190.2434,-22.0401 191.3721,-15.1317"/>
</g>
<!-- Node4 -->
<g id="node5" class="node">
<title>Node4</title>
<g id="a_node5"><a xlink:title=" ">
<polygon fill="#ffffff" stroke="#bfbfbf" points="199.1133,-.5 199.1133,-18.5 244.0146,-18.5 244.0146,-.5 199.1133,-.5"/>
<text text-anchor="middle" x="221.564" y="-6.5" font-family="Helvetica,sans-Serif" font-size="10.00" fill="#000000">cctype</text>
</a>
</g>
</g>
<!-- Node0&#45;&gt;Node4 -->
<g id="edge4" class="edge">
<title>Node0&#45;&gt;Node4</title>
<path fill="none" stroke="#191970" d="M878.0626,-62.6151C747.8351,-57.3375 391.6849,-41.425 254.0553,-18.6014"/>
<polygon fill="#191970" stroke="#191970" points="254.5925,-15.1423 244.1403,-16.875 253.3916,-22.0386 254.5925,-15.1423"/>
</g>
<!-- Node5 -->
<g id="node6" class="node">
<title>Node5</title>
<g id="a_node6"><a xlink:title=" ">
<polygon fill="#ffffff" stroke="#bfbfbf" points="262.3301,-.5 262.3301,-18.5 312.7979,-18.5 312.7979,-.5 262.3301,-.5"/>
<text text-anchor="middle" x="287.564" y="-6.5" font-family="Helvetica,sans-Serif" font-size="10.00" fill="#000000">ciso646</text>
</a>
</g>
</g>
<!-- Node0&#45;&gt;Node5 -->
<g id="edge5" class="edge">
<title>Node0&#45;&gt;Node5</title>
<path fill="none" stroke="#191970" d="M878.1207,-62.0944C757.6502,-55.9191 445.9673,-38.7107 322.9764,-18.8842"/>
<polygon fill="#191970" stroke="#191970" points="323.5033,-15.4237 313.0595,-17.206 322.3353,-22.3255 323.5033,-15.4237"/>
</g>
<!-- Node6 -->
<g id="node7" class="node">
<title>Node6</title>
<g id="a_node7"><a xlink:title=" ">
<polygon fill="#ffffff" stroke="#bfbfbf" points="330.9482,-.5 330.9482,-18.5 374.1797,-18.5 374.1797,-.5 330.9482,-.5"/>
<text text-anchor="middle" x="352.564" y="-6.5" font-family="Helvetica,sans-Serif" font-size="10.00" fill="#000000">cmath</text>
</a>
</g>
</g>
<!-- Node0&#45;&gt;Node6 -->
<g id="edge6" class="edge">
<title>Node0&#45;&gt;Node6</title>
<path fill="none" stroke="#191970" d="M878.0786,-61.7699C766.8103,-55.2958 494.8673,-38.233 384.306,-18.6741"/>
<polygon fill="#191970" stroke="#191970" points="384.9047,-15.2255 374.4329,-16.8353 383.623,-22.1072 384.9047,-15.2255"/>
</g>
<!-- Node7 -->
<g id="node8" class="node">
<title>Node7</title>
<g id="a_node8"><a xlink:title=" ">
<polygon fill="#ffffff" stroke="#bfbfbf" points="392.4434,-.5 392.4434,-18.5 440.6846,-18.5 440.6846,-.5 392.4434,-.5"/>
<text text-anchor="middle" x="416.564" y="-6.5" font-family="Helvetica,sans-Serif" font-size="10.00" fill="#000000">cstddef</text>
</a>
</g>
</g>
<!-- Node0&#45;&gt;Node7 -->
<g id="edge7" class="edge">
<title>Node0&#45;&gt;Node7</title>
<path fill="none" stroke="#191970" d="M878.2013,-62.7072C793.5118,-58.9542 612.8342,-48.2171 451.0898,-18.7489"/>
<polygon fill="#191970" stroke="#191970" points="451.4264,-15.2518 440.9564,-16.8732 450.1523,-22.1349 451.4264,-15.2518"/>
</g>
<!-- Node8 -->
<g id="node9" class="node">
<title>Node8</title>
<g id="a_node9"><a xlink:title=" ">
<polygon fill="#ffffff" stroke="#bfbfbf" points="459.1133,-.5 459.1133,-18.5 504.0146,-18.5 504.0146,-.5 459.1133,-.5"/>
<text text-anchor="middle" x="481.564" y="-6.5" font-family="Helvetica,sans-Serif" font-size="10.00" fill="#000000">cstdint</text>
</a>
</g>
</g>
<!-- Node0&#45;&gt;Node8 -->
<g id="edge8" class="edge">
<title>Node0&#45;&gt;Node8</title>
<path fill="none" stroke="#191970" d="M878.1243,-61.9777C802.3484,-57.4184 651.1471,-45.8543 514.0116,-18.7335"/>
<polygon fill="#191970" stroke="#191970" points="514.6571,-15.2933 504.1634,-16.7538 513.2775,-22.156 514.6571,-15.2933"/>
</g>
<!-- Node9 -->
<g id="node10" class="node">
<title>Node9</title>
<g id="a_node10"><a xlink:title=" ">
<polygon fill="#ffffff" stroke="#bfbfbf" points="522.3916,-.5 522.3916,-18.5 566.7363,-18.5 566.7363,-.5 522.3916,-.5"/>
<text text-anchor="middle" x="544.564" y="-6.5" font-family="Helvetica,sans-Serif" font-size="10.00" fill="#000000">cstdlib</text>
</a>
</g>
</g>
<!-- Node0&#45;&gt;Node9 -->
<g id="edge9" class="edge">
<title>Node0&#45;&gt;Node9</title>
<path fill="none" stroke="#191970" d="M878.151,-60.8213C811.9708,-55.2227 689.5019,-42.8317 576.6388,-18.9237"/>
<polygon fill="#191970" stroke="#191970" points="577.3092,-15.488 566.7964,-16.8038 575.8353,-22.331 577.3092,-15.488"/>
</g>
<!-- Node10 -->
<g id="node11" class="node">
<title>Node10</title>
<g id="a_node11"><a xlink:title=" ">
<polygon fill="#ffffff" stroke="#bfbfbf" points="584.8374,-.5 584.8374,-18.5 630.2905,-18.5 630.2905,-.5 584.8374,-.5"/>
<text text-anchor="middle" x="607.564" y="-6.5" font-family="Helvetica,sans-Serif" font-size="10.00" fill="#000000">cstring</text>
</a>
</g>
</g>
<!-- Node0&#45;&gt;Node10 -->
<g id="edge10" class="edge">
<title>Node0&#45;&gt;Node10</title>
<path fill="none" stroke="#191970" d="M878.0099,-58.9471C822.518,-52.1319 728.8685,-39.2047 640.4131,-19.1987"/>
<polygon fill="#191970" stroke="#191970" points="641.0192,-15.7468 630.4894,-16.9189 639.4518,-22.5691 641.0192,-15.7468"/>
</g>
<!-- Node11 -->
<g id="node12" class="node">
<title>Node11</title>
<g id="a_node12"><a xlink:title=" ">
<polygon fill="#ffffff" stroke="#bfbfbf" points="648,-.5 648,-18.5 715.1279,-18.5 715.1279,-.5 648,-.5"/>
<text text-anchor="middle" x="681.564" y="-6.5" font-family="Helvetica,sans-Serif" font-size="10.00" fill="#000000">forward_list</text>
</a>
</g>
</g>
<!-- Node0&#45;&gt;Node11 -->
<g id="edge11" class="edge">
<title>Node0&#45;&gt;Node11</title>
<path fill="none" stroke="#191970" d="M886.3815,-55.4795C842.0824,-45.5347 771.0524,-29.5892 725.3597,-19.3317"/>
<polygon fill="#191970" stroke="#191970" points="725.9736,-15.8825 715.4497,-17.107 724.4402,-22.7125 725.9736,-15.8825"/>
</g>
<!-- Node12 -->
<g id="node13" class="node">
<title>Node12</title>
<g id="a_node13"><a xlink:title=" ">
<polygon fill="#ffffff" stroke="#bfbfbf" points="733.1602,-.5 733.1602,-18.5 791.9678,-18.5 791.9678,-.5 733.1602,-.5"/>
<text text-anchor="middle" x="762.564" y="-6.5" font-family="Helvetica,sans-Serif" font-size="10.00" fill="#000000">functional</text>
</a>
</g>
</g>
<!-- Node0&#45;&gt;Node12 -->
<g id="edge12" class="edge">
<title>Node0&#45;&gt;Node12</title>
<path fill="none" stroke="#191970" d="M899.4827,-55.4179C872.1005,-46.2348 829.5974,-31.9807 799.2132,-21.7909"/>
<polygon fill="#191970" stroke="#191970" points="800.0068,-18.3655 789.4129,-18.5042 797.781,-25.0023 800.0068,-18.3655"/>
</g>
<!-- Node13 -->
<g id="node14" class="node">
<title>Node13</title>
<g id="a_node14"><a xlink:title=" ">
<polygon fill="#ffffff" stroke="#bfbfbf" points="810.2217,-.5 810.2217,-18.5 882.9063,-18.5 882.9063,-.5 810.2217,-.5"/>
<text text-anchor="middle" x="846.564" y="-6.5" font-family="Helvetica,sans-Serif" font-size="10.00" fill="#000000">initializer_list</text>
</a>
</g>
</g>
<!-- Node0&#45;&gt;Node13 -->
<g id="edge13" class="edge">
<title>Node0&#45;&gt;Node13</title>
<path fill="none" stroke="#191970" d="M913.3536,-55.4179C901.0785,-46.9788 882.5741,-34.257 868.1532,-24.3426"/>
<polygon fill="#191970" stroke="#191970" points="870.0173,-21.3768 859.794,-18.5956 866.0515,-27.1451 870.0173,-21.3768"/>
</g>
<!-- Node14 -->
<g id="node15" class="node">
<title>Node14</title>
<g id="a_node15"><a xlink:title=" ">
<polygon fill="#ffffff" stroke="#bfbfbf" points="901.0542,-.5 901.0542,-18.5 952.0737,-18.5 952.0737,-.5 901.0542,-.5"/>
<text text-anchor="middle" x="926.564" y="-6.5" font-family="Helvetica,sans-Serif" font-size="10.00" fill="#000000">iomanip</text>
</a>
</g>
</g>
<!-- Node0&#45;&gt;Node14 -->
<g id="edge14" class="edge">
<title>Node0&#45;&gt;Node14</title>
<path fill="none" stroke="#191970" d="M926.564,-55.4179C926.564,-48.2164 926.564,-37.8962 926.564,-28.8632"/>
<polygon fill="#191970" stroke="#191970" points="930.0641,-28.7794 926.564,-18.7795 923.0641,-28.7795 930.0641,-28.7794"/>
</g>
<!-- Node15 -->
<g id="node16" class="node">
<title>Node15</title>
<g id="a_node16"><a xlink:title=" ">
<polygon fill="#ffffff" stroke="#bfbfbf" points="970.3916,-.5 970.3916,-18.5 1024.7363,-18.5 1024.7363,-.5 970.3916,-.5"/>
<text text-anchor="middle" x="997.564" y="-6.5" font-family="Helvetica,sans-Serif" font-size="10.00" fill="#000000">iostream</text>
</a>
</g>
</g>
<!-- Node0&#45;&gt;Node15 -->
<g id="edge15" class="edge">
<title>Node0&#45;&gt;Node15</title>
<path fill="none" stroke="#191970" d="M938.2882,-55.4179C948.9127,-47.1876 964.7957,-34.8839 977.447,-25.0836"/>
<polygon fill="#191970" stroke="#191970" points="979.8229,-27.6704 985.585,-18.7795 975.5361,-22.1365 979.8229,-27.6704"/>
</g>
<!-- Node16 -->
<g id="node17" class="node">
<title>Node16</title>
<g id="a_node17"><a xlink:title=" ">
<polygon fill="#ffffff" stroke="#bfbfbf" points="1043.0024,-.5 1043.0024,-18.5 1090.1255,-18.5 1090.1255,-.5 1043.0024,-.5"/>
<text text-anchor="middle" x="1066.564" y="-6.5" font-family="Helvetica,sans-Serif" font-size="10.00" fill="#000000">iterator</text>
</a>
</g>
</g>
<!-- Node0&#45;&gt;Node16 -->
<g id="edge16" class="edge">
<title>Node0&#45;&gt;Node16</title>
<path fill="none" stroke="#191970" d="M949.6821,-55.4179C972.6834,-46.3817 1008.1833,-32.4353 1034.026,-22.2828"/>
<polygon fill="#191970" stroke="#191970" points="1035.3838,-25.5098 1043.4115,-18.5956 1032.8241,-18.9946 1035.3838,-25.5098"/>
</g>
<!-- Node17 -->
<g id="node18" class="node">
<title>Node17</title>
<g id="a_node18"><a xlink:title=" ">
<polygon fill="#ffffff" stroke="#bfbfbf" points="1108.1772,-.5 1108.1772,-18.5 1146.9507,-18.5 1146.9507,-.5 1108.1772,-.5"/>
<text text-anchor="middle" x="1127.564" y="-6.5" font-family="Helvetica,sans-Serif" font-size="10.00" fill="#000000">limits</text>
</a>
</g>
</g>
<!-- Node0&#45;&gt;Node17 -->
<g id="edge17" class="edge">
<title>Node0&#45;&gt;Node17</title>
<path fill="none" stroke="#191970" d="M963.896,-55.483C997.0152,-47.3056 1046.8951,-34.5576 1098.4047,-19.2139"/>
<polygon fill="#191970" stroke="#191970" points="1099.4682,-22.549 1108.0379,-16.3192 1097.4537,-15.8451 1099.4682,-22.549"/>
</g>
<!-- Node18 -->
<g id="node19" class="node">
<title>Node18</title>
<g id="a_node19"><a xlink:title=" ">
<polygon fill="#ffffff" stroke="#bfbfbf" points="1164.5,-.5 1164.5,-18.5 1206.6279,-18.5 1206.6279,-.5 1164.5,-.5"/>
<text text-anchor="middle" x="1185.564" y="-6.5" font-family="Helvetica,sans-Serif" font-size="10.00" fill="#000000">locale</text>
</a>
</g>
</g>
<!-- Node0&#45;&gt;Node18 -->
<g id="edge18" class="edge">
<title>Node0&#45;&gt;Node18</title>
<path fill="none" stroke="#191970" d="M975.1635,-56.4518C1019.5765,-48.737 1087.2167,-36.0873 1154.4315,-19.0802"/>
<polygon fill="#191970" stroke="#191970" points="1155.525,-22.4131 1164.3426,-16.5394 1153.7866,-15.6324 1155.525,-22.4131"/>
</g>
<!-- Node19 -->
<g id="node20" class="node">
<title>Node19</title>
<g id="a_node20"><a xlink:title=" ">
<polygon fill="#ffffff" stroke="#bfbfbf" points="1224.8374,-.5 1224.8374,-18.5 1260.2905,-18.5 1260.2905,-.5 1224.8374,-.5"/>
<text text-anchor="middle" x="1242.564" y="-6.5" font-family="Helvetica,sans-Serif" font-size="10.00" fill="#000000">map</text>
</a>
</g>
</g>
<!-- Node0&#45;&gt;Node19 -->
<g id="edge19" class="edge">
<title>Node0&#45;&gt;Node19</title>
<path fill="none" stroke="#191970" d="M974.9173,-59.6141C1030.7201,-53.3735 1125.2714,-40.9516 1214.9168,-18.7637"/>
<polygon fill="#191970" stroke="#191970" points="1215.8531,-22.1372 1224.6944,-16.2992 1214.1422,-15.3495 1215.8531,-22.1372"/>
</g>
<!-- Node20 -->
<g id="node21" class="node">
<title>Node20</title>
<g id="a_node21"><a xlink:title=" ">
<polygon fill="#ffffff" stroke="#bfbfbf" points="1278.5073,-.5 1278.5073,-18.5 1330.6206,-18.5 1330.6206,-.5 1278.5073,-.5"/>
<text text-anchor="middle" x="1304.564" y="-6.5" font-family="Helvetica,sans-Serif" font-size="10.00" fill="#000000">memory</text>
</a>
</g>
</g>
<!-- Node0&#45;&gt;Node20 -->
<g id="edge20" class="edge">
<title>Node0&#45;&gt;Node20</title>
<path fill="none" stroke="#191970" d="M974.8991,-60.1368C1039.6574,-53.8404 1158.2654,-40.7311 1268.3387,-19.026"/>
<polygon fill="#191970" stroke="#191970" points="1269.161,-22.431 1278.2801,-17.0373 1267.7878,-15.567 1269.161,-22.431"/>
</g>
<!-- Node21 -->
<g id="node22" class="node">
<title>Node21</title>
<g id="a_node22"><a xlink:title=" ">
<polygon fill="#ffffff" stroke="#bfbfbf" points="1348.7808,-.5 1348.7808,-18.5 1400.3472,-18.5 1400.3472,-.5 1348.7808,-.5"/>
<text text-anchor="middle" x="1374.564" y="-6.5" font-family="Helvetica,sans-Serif" font-size="10.00" fill="#000000">numeric</text>
</a>
</g>
</g>
<!-- Node0&#45;&gt;Node21 -->
<g id="edge21" class="edge">
<title>Node0&#45;&gt;Node21</title>
<path fill="none" stroke="#191970" d="M974.9328,-61.6158C1050.6134,-56.5694 1201.6865,-44.3503 1338.8258,-18.8661"/>
<polygon fill="#191970" stroke="#191970" points="1339.4967,-22.3014 1348.6745,-17.0083 1338.199,-15.4227 1339.4967,-22.3014"/>
</g>
<!-- Node22 -->
<g id="node23" class="node">
<title>Node22</title>
<g id="a_node23"><a xlink:title=" ">
<polygon fill="#ffffff" stroke="#bfbfbf" points="1418.7832,-.5 1418.7832,-18.5 1470.3447,-18.5 1470.3447,-.5 1418.7832,-.5"/>
<text text-anchor="middle" x="1444.564" y="-6.5" font-family="Helvetica,sans-Serif" font-size="10.00" fill="#000000">sstream</text>
</a>
</g>
</g>
<!-- Node0&#45;&gt;Node22 -->
<g id="edge22" class="edge">
<title>Node0&#45;&gt;Node22</title>
<path fill="none" stroke="#191970" d="M974.9243,-62.6832C1060.5258,-58.8738 1244.3652,-48.0259 1408.4066,-18.9079"/>
<polygon fill="#191970" stroke="#191970" points="1409.463,-22.2739 1418.6832,-17.0548 1408.2207,-15.385 1409.463,-22.2739"/>
</g>
<!-- Node23 -->
<g id="node24" class="node">
<title>Node23</title>
<g id="a_node24"><a xlink:title=" ">
<polygon fill="#ffffff" stroke="#bfbfbf" points="1488.1626,-.5 1488.1626,-18.5 1546.9653,-18.5 1546.9653,-.5 1488.1626,-.5"/>
<text text-anchor="middle" x="1517.564" y="-6.5" font-family="Helvetica,sans-Serif" font-size="10.00" fill="#000000">stdexcept</text>
</a>
</g>
</g>
<!-- Node0&#45;&gt;Node23 -->
<g id="edge23" class="edge">
<title>Node0&#45;&gt;Node23</title>
<path fill="none" stroke="#191970" d="M974.9679,-63.1654C1069.8763,-59.9765 1287.1083,-49.8584 1477.864,-19.0563"/>
<polygon fill="#191970" stroke="#191970" points="1478.4864,-22.5011 1487.7892,-17.4309 1477.3549,-15.5932 1478.4864,-22.5011"/>
</g>
<!-- Node24 -->
<g id="node25" class="node">
<title>Node24</title>
<g id="a_node25"><a xlink:title=" ">
<polygon fill="#ffffff" stroke="#bfbfbf" points="1565.3374,-.5 1565.3374,-18.5 1605.7905,-18.5 1605.7905,-.5 1565.3374,-.5"/>
<text text-anchor="middle" x="1585.564" y="-6.5" font-family="Helvetica,sans-Serif" font-size="10.00" fill="#000000">string</text>
</a>
</g>
</g>
<!-- Node0&#45;&gt;Node24 -->
<g id="edge24" class="edge">
<title>Node0&#45;&gt;Node24</title>
<path fill="none" stroke="#191970" d="M975.1045,-62.4624C1099.1722,-57.0252 1426.5275,-41.1795 1555.0727,-18.5413"/>
<polygon fill="#191970" stroke="#191970" points="1555.8766,-21.952 1565.0708,-16.6872 1554.6002,-15.0693 1555.8766,-21.952"/>
</g>
<!-- Node25 -->
<g id="node26" class="node">
<title>Node25</title>
<g id="a_node26"><a xlink:title=" ">
<polygon fill="#ffffff" stroke="#bfbfbf" points="1623.4976,-.5 1623.4976,-18.5 1685.6304,-18.5 1685.6304,-.5 1623.4976,-.5"/>
<text text-anchor="middle" x="1654.564" y="-6.5" font-family="Helvetica,sans-Serif" font-size="10.00" fill="#000000">type_traits</text>
</a>
</g>
</g>
<!-- Node0&#45;&gt;Node25 -->
<g id="edge25" class="edge">
<title>Node0&#45;&gt;Node25</title>
<path fill="none" stroke="#191970" d="M975.1114,-62.3476C1107.2723,-56.3236 1472.4463,-38.5424 1613.0883,-18.9425"/>
<polygon fill="#191970" stroke="#191970" points="1613.8266,-22.372 1623.218,-17.4678 1612.8181,-15.4451 1613.8266,-22.372"/>
</g>
<!-- Node26 -->
<g id="node27" class="node">
<title>Node26</title>
<g id="a_node27"><a xlink:title=" ">
<polygon fill="#ffffff" stroke="#bfbfbf" points="1703.1724,-.5 1703.1724,-18.5 1741.9556,-18.5 1741.9556,-.5 1703.1724,-.5"/>
<text text-anchor="middle" x="1722.564" y="-6.5" font-family="Helvetica,sans-Serif" font-size="10.00" fill="#000000">utility</text>
</a>
</g>
</g>
<!-- Node0&#45;&gt;Node26 -->
<g id="edge26" class="edge">
<title>Node0&#45;&gt;Node26</title>
<path fill="none" stroke="#191970" d="M975.0299,-63.3246C1118.0005,-59.5952 1537.2364,-46.7129 1693.2716,-18.6924"/>
<polygon fill="#191970" stroke="#191970" points="1693.9861,-22.1195 1703.1631,-16.8248 1692.6873,-15.241 1693.9861,-22.1195"/>
</g>
<!-- Node27 -->
<g id="node28" class="node">
<title>Node27</title>
<g id="a_node28"><a xlink:title=" ">
<polygon fill="#ffffff" stroke="#bfbfbf" points="1759.9482,-.5 1759.9482,-18.5 1803.1797,-18.5 1803.1797,-.5 1759.9482,-.5"/>
<text text-anchor="middle" x="1781.564" y="-6.5" font-family="Helvetica,sans-Serif" font-size="10.00" fill="#000000">vector</text>
</a>
</g>
</g>
<!-- Node0&#45;&gt;Node27 -->
<g id="edge27" class="edge">
<title>Node0&#45;&gt;Node27</title>
<path fill="none" stroke="#191970" d="M974.9732,-63.3651C1124.9414,-59.612 1581.304,-46.3493 1749.7518,-18.6315"/>
<polygon fill="#191970" stroke="#191970" points="1750.4498,-22.0629 1759.7097,-16.9146 1749.2604,-15.1646 1750.4498,-22.0629"/>
</g>
</g>
</svg>
