<?xml version="1.0" encoding="UTF-8" standalone="no"?>
<!DOCTYPE svg PUBLIC "-//W3C//DTD SVG 1.1//EN"
 "http://www.w3.org/Graphics/SVG/1.1/DTD/svg11.dtd">
<!-- Generated by graphviz version 2.40.1 (20161225.0304)
 -->
<!-- Title: GluonicLQCD/lib/json.hpp Pages: 1 -->
<svg width="1811pt" height="82pt"
 viewBox="0.00 0.00 1811.18 82.00" xmlns="http://www.w3.org/2000/svg" xmlns:xlink="http://www.w3.org/1999/xlink">
<g id="graph0" class="graph" transform="scale(1 1) rotate(0) translate(4 78)">
<title>GluonicLQCD/lib/json.hpp</title>
<polygon fill="#ffffff" stroke="transparent" points="-4,4 -4,-78 1807.1797,-78 1807.1797,4 -4,4"/>
<!-- Node0 -->
<g id="node1" class="node">
<title>Node0</title>
<g id="a_node1"><a xlink:title=" ">
<polygon fill="#bfbfbf" stroke="#000000" points="861.0347,-55.5 861.0347,-73.5 992.0933,-73.5 992.0933,-55.5 861.0347,-55.5"/>
<text text-anchor="middle" x="926.564" y="-61.5" font-family="Helvetica,sans-Serif" font-size="10.00" fill="#000000">GluonicLQCD/lib/json.hpp</text>
</a>
</g>
</g>
<!-- Node1 -->
<g id="node2" class="node">
<title>Node1</title>
<g id="a_node2"><a xlink:title=" ">
<polygon fill="#ffffff" stroke="#bfbfbf" points="0,-.5 0,-18.5 57.1279,-18.5 57.1279,-.5 0,-.5"/>
<text text-anchor="middle" x="28.564" y="-6.5" font-family="Helvetica,sans-Serif" font-size="10.00" fill="#000000">algorithm</text>
</a>
</g>
</g>
<!-- Node0&#45;&gt;Node1 -->
<g id="edge1" class="edge">
<title>Node0&#45;&gt;Node1</title>
<path fill="none" stroke="#191970" d="M860.9234,-62.6607C690.9092,-57.6408 238.2124,-42.5792 67.5929,-18.8089"/>
<polygon fill="#191970" stroke="#191970" points="67.8939,-15.3159 57.4944,-17.3412 66.887,-22.2431 67.8939,-15.3159"/>
</g>
<!-- Node2 -->
<g id="node3" class="node">
<title>Node2</title>
<g id="a_node3"><a xlink:title=" ">
<polygon fill="#ffffff" stroke="#bfbfbf" points="75.1724,-.5 75.1724,-18.5 113.9556,-18.5 113.9556,-.5 75.1724,-.5"/>
<text text-anchor="middle" x="94.564" y="-6.5" font-family="Helvetica,sans-Serif" font-size="10.00" fill="#000000">array</text>
</a>
</g>
</g>
<!-- Node0&#45;&gt;Node2 -->
<g id="edge2" class="edge">
<title>Node0&#45;&gt;Node2</title>
<path fill="none" stroke="#191970" d="M861.0042,-62.9786C699.1286,-58.8777 282.7809,-46.1459 124.1118,-18.4857"/>
<polygon fill="#191970" stroke="#191970" points="124.5054,-14.9996 114.0386,-16.6421 123.2451,-21.8853 124.5054,-14.9996"/>
</g>
<!-- Node3 -->
<g id="node4" class="node">
<title>Node3</title>
<g id="a_node4"><a xlink:title=" ">
<polygon fill="#ffffff" stroke="#bfbfbf" points="132.4482,-.5 132.4482,-18.5 180.6797,-18.5 180.6797,-.5 132.4482,-.5"/>
<text text-anchor="middle" x="156.564" y="-6.5" font-family="Helvetica,sans-Serif" font-size="10.00" fill="#000000">cassert</text>
</a>
</g>
</g>
<!-- Node0&#45;&gt;Node3 -->
<g id="edge3" class="edge">
<title>Node0&#45;&gt;Node3</title>
<path fill="none" stroke="#191970" d="M860.8891,-62.2149C709.1033,-56.6536 336.548,-41.3274 191.0182,-18.6211"/>
<polygon fill="#191970" stroke="#191970" points="191.3723,-15.1326 180.9386,-16.9735 190.243,-22.0409 191.3723,-15.1326"/>
</g>
<!-- Node4 -->
<g id="node5" class="node">
<title>Node4</title>
<g id="a_node5"><a xlink:title=" ">
<polygon fill="#ffffff" stroke="#bfbfbf" points="199.1133,-.5 199.1133,-18.5 244.0146,-18.5 244.0146,-.5 199.1133,-.5"/>
<text text-anchor="middle" x="221.564" y="-6.5" font-family="Helvetica,sans-Serif" font-size="10.00" fill="#000000">cctype</text>
</a>
</g>
</g>
<!-- Node0&#45;&gt;Node4 -->
<g id="edge4" class="edge">
<title>Node0&#45;&gt;Node4</title>
<path fill="none" stroke="#191970" d="M860.8597,-61.9095C718.8862,-56.0186 386.3477,-40.5651 254.0644,-18.6045"/>
<polygon fill="#191970" stroke="#191970" points="254.5927,-15.1439 244.1403,-16.875 253.3908,-22.04 254.5927,-15.1439"/>
</g>
<!-- Node5 -->
<g id="node6" class="node">
<title>Node5</title>
<g id="a_node6"><a xlink:title=" ">
<polygon fill="#ffffff" stroke="#bfbfbf" points="262.3301,-.5 262.3301,-18.5 312.7979,-18.5 312.7979,-.5 262.3301,-.5"/>
<text text-anchor="middle" x="287.564" y="-6.5" font-family="Helvetica,sans-Serif" font-size="10.00" fill="#000000">ciso646</text>
</a>
</g>
</g>
<!-- Node0&#45;&gt;Node5 -->
<g id="edge5" class="edge">
<title>Node0&#45;&gt;Node5</title>
<path fill="none" stroke="#191970" d="M860.9986,-61.2086C730.4889,-54.396 441.2894,-37.9291 323.2686,-18.9328"/>
<polygon fill="#191970" stroke="#191970" points="323.5031,-15.4228 313.0595,-17.206 322.3357,-22.3248 323.5031,-15.4228"/>
</g>
<!-- Node6 -->
<g id="node7" class="node">
<title>Node6</title>
<g id="a_node7"><a xlink:title=" ">
<polygon fill="#ffffff" stroke="#bfbfbf" points="330.9482,-.5 330.9482,-18.5 374.1797,-18.5 374.1797,-.5 330.9482,-.5"/>
<text text-anchor="middle" x="352.564" y="-6.5" font-family="Helvetica,sans-Serif" font-size="10.00" fill="#000000">cmath</text>
</a>
</g>
</g>
<!-- Node0&#45;&gt;Node6 -->
<g id="edge6" class="edge">
<title>Node0&#45;&gt;Node6</title>
<path fill="none" stroke="#191970" d="M860.8616,-60.7584C740.9844,-53.6491 490.1685,-37.3989 384.4964,-18.7101"/>
<polygon fill="#191970" stroke="#191970" points="384.9048,-15.2261 374.4329,-16.8353 383.6227,-22.1077 384.9048,-15.2261"/>
</g>
<!-- Node7 -->
<g id="node8" class="node">
<title>Node7</title>
<g id="a_node8"><a xlink:title=" ">
<polygon fill="#ffffff" stroke="#bfbfbf" points="392.4434,-.5 392.4434,-18.5 440.6846,-18.5 440.6846,-.5 392.4434,-.5"/>
<text text-anchor="middle" x="416.564" y="-6.5" font-family="Helvetica,sans-Serif" font-size="10.00" fill="#000000">cstddef</text>
</a>
</g>
</g>
<!-- Node0&#45;&gt;Node7 -->
<g id="edge7" class="edge">
<title>Node0&#45;&gt;Node7</title>
<path fill="none" stroke="#191970" d="M860.9953,-61.908C770.7139,-57.526 603.0369,-46.4696 450.9505,-18.7249"/>
<polygon fill="#191970" stroke="#191970" points="451.4267,-15.2537 440.9564,-16.8732 450.1514,-22.1365 451.4267,-15.2537"/>
</g>
<!-- Node8 -->
<g id="node9" class="node">
<title>Node8</title>
<g id="a_node9"><a xlink:title=" ">
<polygon fill="#ffffff" stroke="#bfbfbf" points="459.1133,-.5 459.1133,-18.5 504.0146,-18.5 504.0146,-.5 459.1133,-.5"/>
<text text-anchor="middle" x="481.564" y="-6.5" font-family="Helvetica,sans-Serif" font-size="10.00" fill="#000000">cstdint</text>
</a>
</g>
</g>
<!-- Node0&#45;&gt;Node8 -->
<g id="edge8" class="edge">
<title>Node0&#45;&gt;Node8</title>
<path fill="none" stroke="#191970" d="M860.9146,-60.9007C781.0519,-55.713 642.1101,-44.0858 514.1414,-18.7611"/>
<polygon fill="#191970" stroke="#191970" points="514.6573,-15.2948 504.1634,-16.7538 513.2767,-22.1573 514.6573,-15.2948"/>
</g>
<!-- Node9 -->
<g id="node10" class="node">
<title>Node9</title>
<g id="a_node10"><a xlink:title=" ">
<polygon fill="#ffffff" stroke="#bfbfbf" points="522.3916,-.5 522.3916,-18.5 566.7363,-18.5 566.7363,-.5 522.3916,-.5"/>
<text text-anchor="middle" x="544.564" y="-6.5" font-family="Helvetica,sans-Serif" font-size="10.00" fill="#000000">cstdlib</text>
</a>
</g>
</g>
<!-- Node0&#45;&gt;Node9 -->
<g id="edge9" class="edge">
<title>Node0&#45;&gt;Node9</title>
<path fill="none" stroke="#191970" d="M860.9876,-59.3245C792.2687,-53.1548 681.1221,-41.0698 576.8629,-18.9736"/>
<polygon fill="#191970" stroke="#191970" points="577.3094,-15.4895 566.7964,-16.8038 575.8345,-22.3323 577.3094,-15.4895"/>
</g>
<!-- Node10 -->
<g id="node11" class="node">
<title>Node10</title>
<g id="a_node11"><a xlink:title=" ">
<polygon fill="#ffffff" stroke="#bfbfbf" points="584.8374,-.5 584.8374,-18.5 630.2905,-18.5 630.2905,-.5 584.8374,-.5"/>
<text text-anchor="middle" x="607.564" y="-6.5" font-family="Helvetica,sans-Serif" font-size="10.00" fill="#000000">cstring</text>
</a>
</g>
</g>
<!-- Node0&#45;&gt;Node10 -->
<g id="edge10" class="edge">
<title>Node0&#45;&gt;Node10</title>
<path fill="none" stroke="#191970" d="M860.8622,-56.7962C804.4516,-49.5735 720.8659,-37.428 640.2978,-19.1752"/>
<polygon fill="#191970" stroke="#191970" points="641.0195,-15.7499 630.4894,-16.9189 639.4502,-22.5717 641.0195,-15.7499"/>
</g>
<!-- Node11 -->
<g id="node12" class="node">
<title>Node11</title>
<g id="a_node12"><a xlink:title=" ">
<polygon fill="#ffffff" stroke="#bfbfbf" points="648,-.5 648,-18.5 715.1279,-18.5 715.1279,-.5 648,-.5"/>
<text text-anchor="middle" x="681.564" y="-6.5" font-family="Helvetica,sans-Serif" font-size="10.00" fill="#000000">forward_list</text>
</a>
</g>
</g>
<!-- Node0&#45;&gt;Node11 -->
<g id="edge11" class="edge">
<title>Node0&#45;&gt;Node11</title>
<path fill="none" stroke="#191970" d="M886.3815,-55.4795C842.0824,-45.5347 771.0524,-29.5892 725.3597,-19.3317"/>
<polygon fill="#191970" stroke="#191970" points="725.9736,-15.8825 715.4497,-17.107 724.4402,-22.7125 725.9736,-15.8825"/>
</g>
<!-- Node12 -->
<g id="node13" class="node">
<title>Node12</title>
<g id="a_node13"><a xlink:title=" ">
<polygon fill="#ffffff" stroke="#bfbfbf" points="733.1602,-.5 733.1602,-18.5 791.9678,-18.5 791.9678,-.5 733.1602,-.5"/>
<text text-anchor="middle" x="762.564" y="-6.5" font-family="Helvetica,sans-Serif" font-size="10.00" fill="#000000">functional</text>
</a>
</g>
</g>
<!-- Node0&#45;&gt;Node12 -->
<g id="edge12" class="edge">
<title>Node0&#45;&gt;Node12</title>
<path fill="none" stroke="#191970" d="M899.4827,-55.4179C872.1005,-46.2348 829.5974,-31.9807 799.2132,-21.7909"/>
<polygon fill="#191970" stroke="#191970" points="800.0068,-18.3655 789.4129,-18.5042 797.781,-25.0023 800.0068,-18.3655"/>
</g>
<!-- Node13 -->
<g id="node14" class="node">
<title>Node13</title>
<g id="a_node14"><a xlink:title=" ">
<polygon fill="#ffffff" stroke="#bfbfbf" points="810.2217,-.5 810.2217,-18.5 882.9063,-18.5 882.9063,-.5 810.2217,-.5"/>
<text text-anchor="middle" x="846.564" y="-6.5" font-family="Helvetica,sans-Serif" font-size="10.00" fill="#000000">initializer_list</text>
</a>
</g>
</g>
<!-- Node0&#45;&gt;Node13 -->
<g id="edge13" class="edge">
<title>Node0&#45;&gt;Node13</title>
<path fill="none" stroke="#191970" d="M913.3536,-55.4179C901.0785,-46.9788 882.5741,-34.257 868.1532,-24.3426"/>
<polygon fill="#191970" stroke="#191970" points="870.0173,-21.3768 859.794,-18.5956 866.0515,-27.1451 870.0173,-21.3768"/>
</g>
<!-- Node14 -->
<g id="node15" class="node">
<title>Node14</title>
<g id="a_node15"><a xlink:title=" ">
<polygon fill="#ffffff" stroke="#bfbfbf" points="901.0542,-.5 901.0542,-18.5 952.0737,-18.5 952.0737,-.5 901.0542,-.5"/>
<text text-anchor="middle" x="926.564" y="-6.5" font-family="Helvetica,sans-Serif" font-size="10.00" fill="#000000">iomanip</text>
</a>
</g>
</g>
<!-- Node0&#45;&gt;Node14 -->
<g id="edge14" class="edge">
<title>Node0&#45;&gt;Node14</title>
<path fill="none" stroke="#191970" d="M926.564,-55.4179C926.564,-48.2164 926.564,-37.8962 926.564,-28.8632"/>
<polygon fill="#191970" stroke="#191970" points="930.0641,-28.7794 926.564,-18.7795 923.0641,-28.7795 930.0641,-28.7794"/>
</g>
<!-- Node15 -->
<g id="node16" class="node">
<title>Node15</title>
<g id="a_node16"><a xlink:title=" ">
<polygon fill="#ffffff" stroke="#bfbfbf" points="970.3916,-.5 970.3916,-18.5 1024.7363,-18.5 1024.7363,-.5 970.3916,-.5"/>
<text text-anchor="middle" x="997.564" y="-6.5" font-family="Helvetica,sans-Serif" font-size="10.00" fill="#000000">iostream</text>
</a>
</g>
</g>
<!-- Node0&#45;&gt;Node15 -->
<g id="edge15" class="edge">
<title>Node0&#45;&gt;Node15</title>
<path fill="none" stroke="#191970" d="M938.2882,-55.4179C948.9127,-47.1876 964.7957,-34.8839 977.447,-25.0836"/>
<polygon fill="#191970" stroke="#191970" points="979.8229,-27.6704 985.585,-18.7795 975.5361,-22.1365 979.8229,-27.6704"/>
</g>
<!-- Node16 -->
<g id="node17" class="node">
<title>Node16</title>
<g id="a_node17"><a xlink:title=" ">
<polygon fill="#ffffff" stroke="#bfbfbf" points="1043.0024,-.5 1043.0024,-18.5 1090.1255,-18.5 1090.1255,-.5 1043.0024,-.5"/>
<text text-anchor="middle" x="1066.564" y="-6.5" font-family="Helvetica,sans-Serif" font-size="10.00" fill="#000000">iterator</text>
</a>
</g>
</g>
<!-- Node0&#45;&gt;Node16 -->
<g id="edge16" class="edge">
<title>Node0&#45;&gt;Node16</title>
<path fill="none" stroke="#191970" d="M949.6821,-55.4179C972.6834,-46.3817 1008.1833,-32.4353 1034.026,-22.2828"/>
<polygon fill="#191970" stroke="#191970" points="1035.3838,-25.5098 1043.4115,-18.5956 1032.8241,-18.9946 1035.3838,-25.5098"/>
</g>
<!-- Node17 -->
<g id="node18" class="node">
<title>Node17</title>
<g id="a_node18"><a xlink:title=" ">
<polygon fill="#ffffff" stroke="#bfbfbf" points="1108.1772,-.5 1108.1772,-18.5 1146.9507,-18.5 1146.9507,-.5 1108.1772,-.5"/>
<text text-anchor="middle" x="1127.564" y="-6.5" font-family="Helvetica,sans-Serif" font-size="10.00" fill="#000000">limits</text>
</a>
</g>
</g>
<!-- Node0&#45;&gt;Node17 -->
<g id="edge17" class="edge">
<title>Node0&#45;&gt;Node17</title>
<path fill="none" stroke="#191970" d="M963.896,-55.483C997.0152,-47.3056 1046.8951,-34.5576 1098.4047,-19.2139"/>
<polygon fill="#191970" stroke="#191970" points="1099.4682,-22.549 1108.0379,-16.3192 1097.4537,-15.8451 1099.4682,-22.549"/>
</g>
<!-- Node18 -->
<g id="node19" class="node">
<title>Node18</title>
<g id="a_node19"><a xlink:title=" ">
<polygon fill="#ffffff" stroke="#bfbfbf" points="1164.5,-.5 1164.5,-18.5 1206.6279,-18.5 1206.6279,-.5 1164.5,-.5"/>
<text text-anchor="middle" x="1185.564" y="-6.5" font-family="Helvetica,sans-Serif" font-size="10.00" fill="#000000">locale</text>
</a>
</g>
</g>
<!-- Node0&#45;&gt;Node18 -->
<g id="edge18" class="edge">
<title>Node0&#45;&gt;Node18</title>
<path fill="none" stroke="#191970" d="M981.08,-55.4188C1025.4409,-47.6332 1089.8158,-35.4392 1154.3977,-19.0901"/>
<polygon fill="#191970" stroke="#191970" points="1155.5257,-22.4141 1164.3426,-16.5394 1153.7865,-15.6336 1155.5257,-22.4141"/>
</g>
<!-- Node19 -->
<g id="node20" class="node">
<title>Node19</title>
<g id="a_node20"><a xlink:title=" ">
<polygon fill="#ffffff" stroke="#bfbfbf" points="1224.8374,-.5 1224.8374,-18.5 1260.2905,-18.5 1260.2905,-.5 1224.8374,-.5"/>
<text text-anchor="middle" x="1242.564" y="-6.5" font-family="Helvetica,sans-Serif" font-size="10.00" fill="#000000">map</text>
</a>
</g>
</g>
<!-- Node0&#45;&gt;Node19 -->
<g id="edge19" class="edge">
<title>Node0&#45;&gt;Node19</title>
<path fill="none" stroke="#191970" d="M992.0984,-57.6349C1048.8191,-50.9112 1133.0741,-39.0529 1214.7489,-18.8097"/>
<polygon fill="#191970" stroke="#191970" points="1215.8552,-22.1403 1224.6944,-16.2992 1214.1419,-15.3532 1215.8552,-22.1403"/>
</g>
<!-- Node20 -->
<g id="node21" class="node">
<title>Node20</title>
<g id="a_node21"><a xlink:title=" ">
<polygon fill="#ffffff" stroke="#bfbfbf" points="1278.5073,-.5 1278.5073,-18.5 1330.6206,-18.5 1330.6206,-.5 1278.5073,-.5"/>
<text text-anchor="middle" x="1304.564" y="-6.5" font-family="Helvetica,sans-Serif" font-size="10.00" fill="#000000">memory</text>
</a>
</g>
</g>
<!-- Node0&#45;&gt;Node20 -->
<g id="edge20" class="edge">
<title>Node0&#45;&gt;Node20</title>
<path fill="none" stroke="#191970" d="M992.1088,-58.427C1059.2883,-51.6116 1166.8823,-39.0615 1268.4694,-19.002"/>
<polygon fill="#191970" stroke="#191970" points="1269.1621,-22.4329 1278.2801,-17.0373 1267.7875,-15.5691 1269.1621,-22.4329"/>
</g>
<!-- Node21 -->
<g id="node22" class="node">
<title>Node21</title>
<g id="a_node22"><a xlink:title=" ">
<polygon fill="#ffffff" stroke="#bfbfbf" points="1348.7808,-.5 1348.7808,-18.5 1400.3472,-18.5 1400.3472,-.5 1348.7808,-.5"/>
<text text-anchor="middle" x="1374.564" y="-6.5" font-family="Helvetica,sans-Serif" font-size="10.00" fill="#000000">numeric</text>
</a>
</g>
</g>
<!-- Node0&#45;&gt;Node21 -->
<g id="edge21" class="edge">
<title>Node0&#45;&gt;Node21</title>
<path fill="none" stroke="#191970" d="M992.1219,-60.4335C1071.8937,-54.7816 1210.743,-42.6812 1338.6975,-18.8915"/>
<polygon fill="#191970" stroke="#191970" points="1339.4973,-22.3024 1348.6745,-17.0083 1338.1988,-15.4239 1339.4973,-22.3024"/>
</g>
<!-- Node22 -->
<g id="node23" class="node">
<title>Node22</title>
<g id="a_node23"><a xlink:title=" ">
<polygon fill="#ffffff" stroke="#bfbfbf" points="1418.7832,-.5 1418.7832,-18.5 1470.3447,-18.5 1470.3447,-.5 1418.7832,-.5"/>
<text text-anchor="middle" x="1444.564" y="-6.5" font-family="Helvetica,sans-Serif" font-size="10.00" fill="#000000">sstream</text>
</a>
</g>
</g>
<!-- Node0&#45;&gt;Node22 -->
<g id="edge22" class="edge">
<title>Node0&#45;&gt;Node22</title>
<path fill="none" stroke="#191970" d="M992.2811,-61.8751C1083.6619,-57.4367 1254.3121,-46.2944 1408.5486,-18.8839"/>
<polygon fill="#191970" stroke="#191970" points="1409.4638,-22.2753 1418.6832,-17.0548 1408.2205,-15.3866 1409.4638,-22.2753"/>
</g>
<!-- Node23 -->
<g id="node24" class="node">
<title>Node23</title>
<g id="a_node24"><a xlink:title=" ">
<polygon fill="#ffffff" stroke="#bfbfbf" points="1488.1626,-.5 1488.1626,-18.5 1546.9653,-18.5 1546.9653,-.5 1488.1626,-.5"/>
<text text-anchor="middle" x="1517.564" y="-6.5" font-family="Helvetica,sans-Serif" font-size="10.00" fill="#000000">stdexcept</text>
</a>
</g>
</g>
<!-- Node0&#45;&gt;Node23 -->
<g id="edge23" class="edge">
<title>Node0&#45;&gt;Node23</title>
<path fill="none" stroke="#191970" d="M992.1107,-62.5595C1094.2006,-58.7778 1297.4051,-48.2097 1477.853,-19.0588"/>
<polygon fill="#191970" stroke="#191970" points="1478.4867,-22.5017 1487.7892,-17.4309 1477.3548,-15.5939 1478.4867,-22.5017"/>
</g>
<!-- Node24 -->
<g id="node25" class="node">
<title>Node24</title>
<g id="a_node25"><a xlink:title=" ">
<polygon fill="#ffffff" stroke="#bfbfbf" points="1565.3374,-.5 1565.3374,-18.5 1605.7905,-18.5 1605.7905,-.5 1565.3374,-.5"/>
<text text-anchor="middle" x="1585.564" y="-6.5" font-family="Helvetica,sans-Serif" font-size="10.00" fill="#000000">string</text>
</a>
</g>
</g>
<!-- Node0&#45;&gt;Node24 -->
<g id="edge24" class="edge">
<title>Node0&#45;&gt;Node24</title>
<path fill="none" stroke="#191970" d="M992.1395,-61.7067C1126.8671,-55.6577 1431.7667,-40.2955 1555.1069,-18.5373"/>
<polygon fill="#191970" stroke="#191970" points="1555.8778,-21.9541 1565.0708,-16.6872 1554.5998,-15.0717 1555.8778,-21.9541"/>
</g>
<!-- Node25 -->
<g id="node26" class="node">
<title>Node25</title>
<g id="a_node26"><a xlink:title=" ">
<polygon fill="#ffffff" stroke="#bfbfbf" points="1623.4976,-.5 1623.4976,-18.5 1685.6304,-18.5 1685.6304,-.5 1623.4976,-.5"/>
<text text-anchor="middle" x="1654.564" y="-6.5" font-family="Helvetica,sans-Serif" font-size="10.00" fill="#000000">type_traits</text>
</a>
</g>
</g>
<!-- Node0&#45;&gt;Node25 -->
<g id="edge25" class="edge">
<title>Node0&#45;&gt;Node25</title>
<path fill="none" stroke="#191970" d="M992.2672,-61.5594C1136.4465,-54.8839 1477.8305,-37.806 1613.0747,-18.9454"/>
<polygon fill="#191970" stroke="#191970" points="1613.827,-22.3728 1623.218,-17.4678 1612.8179,-15.4459 1613.827,-22.3728"/>
</g>
<!-- Node26 -->
<g id="node27" class="node">
<title>Node26</title>
<g id="a_node27"><a xlink:title=" ">
<polygon fill="#ffffff" stroke="#bfbfbf" points="1703.1724,-.5 1703.1724,-18.5 1741.9556,-18.5 1741.9556,-.5 1703.1724,-.5"/>
<text text-anchor="middle" x="1722.564" y="-6.5" font-family="Helvetica,sans-Serif" font-size="10.00" fill="#000000">utility</text>
</a>
</g>
</g>
<!-- Node0&#45;&gt;Node26 -->
<g id="edge26" class="edge">
<title>Node0&#45;&gt;Node26</title>
<path fill="none" stroke="#191970" d="M992.2035,-62.8675C1148.9569,-58.6139 1542.6421,-45.7453 1693.1774,-18.7108"/>
<polygon fill="#191970" stroke="#191970" points="1693.9864,-22.12 1703.1631,-16.8248 1692.6872,-15.2416 1693.9864,-22.12"/>
</g>
<!-- Node27 -->
<g id="node28" class="node">
<title>Node27</title>
<g id="a_node28"><a xlink:title=" ">
<polygon fill="#ffffff" stroke="#bfbfbf" points="1759.9482,-.5 1759.9482,-18.5 1803.1797,-18.5 1803.1797,-.5 1759.9482,-.5"/>
<text text-anchor="middle" x="1781.564" y="-6.5" font-family="Helvetica,sans-Serif" font-size="10.00" fill="#000000">vector</text>
</a>
</g>
</g>
<!-- Node0&#45;&gt;Node27 -->
<g id="edge27" class="edge">
<title>Node0&#45;&gt;Node27</title>
<path fill="none" stroke="#191970" d="M992.2648,-62.9244C1157.3376,-58.6435 1587.2486,-45.419 1749.8527,-18.6161"/>
<polygon fill="#191970" stroke="#191970" points="1750.4508,-22.0647 1759.7097,-16.9146 1749.2601,-15.1667 1750.4508,-22.0647"/>
</g>
</g>
</svg>
