<?xml version="1.0" encoding="UTF-8" standalone="no"?>
<!DOCTYPE svg PUBLIC "-//W3C//DTD SVG 1.1//EN"
 "http://www.w3.org/Graphics/SVG/1.1/DTD/svg11.dtd">
<!-- Generated by graphviz version 2.40.1 (20161225.0304)
 -->
<!-- Title: realTraceMultiplication Pages: 1 -->
<svg width="299pt" height="121pt"
 viewBox="0.00 0.00 299.07 121.00" xmlns="http://www.w3.org/2000/svg" xmlns:xlink="http://www.w3.org/1999/xlink">
<g id="graph0" class="graph" transform="scale(1 1) rotate(0) translate(4 117)">
<title>realTraceMultiplication</title>
<polygon fill="#ffffff" stroke="transparent" points="-4,4 -4,-117 295.0713,-117 295.0713,4 -4,4"/>
<!-- Node79 -->
<g id="node1" class="node">
<title>Node79</title>
<g id="a_node1"><a xlink:title=" ">
<polygon fill="#bfbfbf" stroke="#000000" points="175.3984,-42.5 175.3984,-60.5 291.0713,-60.5 291.0713,-42.5 175.3984,-42.5"/>
<text text-anchor="middle" x="233.2349" y="-48.5" font-family="Helvetica,sans-Serif" font-size="10.00" fill="#000000">realTraceMultiplication</text>
</a>
</g>
</g>
<!-- Node80 -->
<g id="node2" class="node">
<title>Node80</title>
<g id="a_node2"><a xlink:href="class_lattice_action_charge_density.html#a3dddc75188042c645fbdd1c8b3e80c8a" target="_top" xlink:title=" ">
<polygon fill="#ffffff" stroke="#000000" points="0,-84.5 0,-112.5 139.3984,-112.5 139.3984,-84.5 0,-84.5"/>
<text text-anchor="start" x="8" y="-100.5" font-family="Helvetica,sans-Serif" font-size="10.00" fill="#000000">LatticeActionChargeDensity</text>
<text text-anchor="middle" x="69.6992" y="-90.5" font-family="Helvetica,sans-Serif" font-size="10.00" fill="#000000">::calculate</text>
</a>
</g>
</g>
<!-- Node79&#45;&gt;Node80 -->
<g id="edge1" class="edge">
<title>Node79&#45;&gt;Node80</title>
<path fill="none" stroke="#191970" d="M191.8637,-63.39C169.5511,-69.8027 141.8787,-77.7557 118.5161,-84.4701"/>
<polygon fill="#191970" stroke="#191970" points="193.0594,-66.6882 201.7035,-60.5621 191.1258,-59.9605 193.0594,-66.6882"/>
</g>
<!-- Node81 -->
<g id="node3" class="node">
<title>Node81</title>
<g id="a_node3"><a xlink:href="class_master_sampler_topc_x_y_z.html#a0ea80ad9935db791f00461b7dfd548b7" target="_top" xlink:title=" ">
<polygon fill="#ffffff" stroke="#000000" points="7.5146,-37.5 7.5146,-65.5 131.8838,-65.5 131.8838,-37.5 7.5146,-37.5"/>
<text text-anchor="start" x="15.5146" y="-53.5" font-family="Helvetica,sans-Serif" font-size="10.00" fill="#000000">MasterSamplerTopcXYZ</text>
<text text-anchor="middle" x="69.6992" y="-43.5" font-family="Helvetica,sans-Serif" font-size="10.00" fill="#000000">::calculate</text>
</a>
</g>
</g>
<!-- Node79&#45;&gt;Node81 -->
<g id="edge2" class="edge">
<title>Node79&#45;&gt;Node81</title>
<path fill="none" stroke="#191970" d="M164.828,-51.5C153.9652,-51.5 142.779,-51.5 132.0645,-51.5"/>
<polygon fill="#191970" stroke="#191970" points="165.1179,-55.0001 175.1178,-51.5 165.1178,-48.0001 165.1179,-55.0001"/>
</g>
<!-- Node82 -->
<g id="node4" class="node">
<title>Node82</title>
<g id="a_node4"><a xlink:href="class_super_sampler.html#a7e1457583270077c4fbcb288ea9b954c" target="_top" xlink:title=" ">
<polygon fill="#ffffff" stroke="#000000" points="7.2266,-.5 7.2266,-18.5 132.1719,-18.5 132.1719,-.5 7.2266,-.5"/>
<text text-anchor="middle" x="69.6992" y="-6.5" font-family="Helvetica,sans-Serif" font-size="10.00" fill="#000000">SuperSampler::calculate</text>
</a>
</g>
</g>
<!-- Node79&#45;&gt;Node82 -->
<g id="edge3" class="edge">
<title>Node79&#45;&gt;Node82</title>
<path fill="none" stroke="#191970" d="M188.43,-39.993C162.1587,-33.2459 129.4398,-24.8428 105.0055,-18.5675"/>
<polygon fill="#191970" stroke="#191970" points="187.596,-43.3923 198.1524,-42.4899 189.3373,-36.6124 187.596,-43.3923"/>
</g>
</g>
</svg>
