<?xml version="1.0" encoding="UTF-8" standalone="no"?>
<!DOCTYPE svg PUBLIC "-//W3C//DTD SVG 1.1//EN"
 "http://www.w3.org/Graphics/SVG/1.1/DTD/svg11.dtd">
<!-- Generated by graphviz version 2.40.1 (20161225.0304)
 -->
<!-- Title: GLAC/observables/latticeactionchargedensity.cpp Pages: 1 -->
<svg width="1012pt" height="522pt"
 viewBox="0.00 0.00 1011.77 522.00" xmlns="http://www.w3.org/2000/svg" xmlns:xlink="http://www.w3.org/1999/xlink">
<g id="graph0" class="graph" transform="scale(1 1) rotate(0) translate(4 518)">
<title>GLAC/observables/latticeactionchargedensity.cpp</title>
<polygon fill="#ffffff" stroke="transparent" points="-4,4 -4,-518 1007.7729,-518 1007.7729,4 -4,4"/>
<!-- Node0 -->
<g id="node1" class="node">
<title>Node0</title>
<g id="a_node1"><a xlink:title=" ">
<polygon fill="#bfbfbf" stroke="#000000" points="377.2876,-495.5 377.2876,-513.5 613.229,-513.5 613.229,-495.5 377.2876,-495.5"/>
<text text-anchor="middle" x="495.2583" y="-501.5" font-family="Helvetica,sans-Serif" font-size="10.00" fill="#000000">GLAC/observables/latticeactionchargedensity.cpp</text>
</a>
</g>
</g>
<!-- Node1 -->
<g id="node2" class="node">
<title>Node1</title>
<g id="a_node2"><a xlink:href="latticeactionchargedensity_8h.html" target="_top" xlink:title=" ">
<polygon fill="#ffffff" stroke="#000000" points="425.9229,-440.5 425.9229,-458.5 564.5938,-458.5 564.5938,-440.5 425.9229,-440.5"/>
<text text-anchor="middle" x="495.2583" y="-446.5" font-family="Helvetica,sans-Serif" font-size="10.00" fill="#000000">latticeactionchargedensity.h</text>
</a>
</g>
</g>
<!-- Node0&#45;&gt;Node1 -->
<g id="edge1" class="edge">
<title>Node0&#45;&gt;Node1</title>
<path fill="none" stroke="#191970" d="M495.2583,-495.4179C495.2583,-488.2164 495.2583,-477.8962 495.2583,-468.8632"/>
<polygon fill="#191970" stroke="#191970" points="498.7584,-468.7794 495.2583,-458.7795 491.7584,-468.7795 498.7584,-468.7794"/>
</g>
<!-- Node25 -->
<g id="node26" class="node">
<title>Node25</title>
<g id="a_node26"><a xlink:title=" ">
<polygon fill="#ffffff" stroke="#bfbfbf" points="364.6426,-440.5 364.6426,-458.5 407.874,-458.5 407.874,-440.5 364.6426,-440.5"/>
<text text-anchor="middle" x="386.2583" y="-446.5" font-family="Helvetica,sans-Serif" font-size="10.00" fill="#000000">cmath</text>
</a>
</g>
</g>
<!-- Node0&#45;&gt;Node25 -->
<g id="edge44" class="edge">
<title>Node0&#45;&gt;Node25</title>
<path fill="none" stroke="#191970" d="M477.2592,-495.4179C459.9033,-486.6603 433.4072,-473.2907 413.4737,-463.2326"/>
<polygon fill="#191970" stroke="#191970" points="414.7887,-459.9758 404.2842,-458.5956 411.6353,-466.2253 414.7887,-459.9758"/>
</g>
<!-- Node26 -->
<g id="node27" class="node">
<title>Node26</title>
<g id="a_node27"><a xlink:href="communicator_8h.html" target="_top" xlink:title=" ">
<polygon fill="#ffffff" stroke="#000000" points="0,-275.5 0,-293.5 150.5166,-293.5 150.5166,-275.5 0,-275.5"/>
<text text-anchor="middle" x="75.2583" y="-281.5" font-family="Helvetica,sans-Serif" font-size="10.00" fill="#000000">parallelization/communicator.h</text>
</a>
</g>
</g>
<!-- Node0&#45;&gt;Node26 -->
<g id="edge45" class="edge">
<title>Node0&#45;&gt;Node26</title>
<path fill="none" stroke="#191970" d="M462.1585,-495.453C433.4246,-487.1974 390.9452,-474.0198 355.2583,-459 250.0563,-414.723 138.978,-333.645 94.9149,-299.8861"/>
<polygon fill="#191970" stroke="#191970" points="96.8404,-296.9509 86.786,-293.61 92.5625,-302.4917 96.8404,-296.9509"/>
</g>
<!-- Node27 -->
<g id="node28" class="node">
<title>Node27</title>
<g id="a_node28"><a xlink:href="parameters_8h.html" target="_top" xlink:title=" ">
<polygon fill="#ffffff" stroke="#000000" points="826.0688,-220.5 826.0688,-238.5 930.4478,-238.5 930.4478,-220.5 826.0688,-220.5"/>
<text text-anchor="middle" x="878.2583" y="-226.5" font-family="Helvetica,sans-Serif" font-size="10.00" fill="#000000">config/parameters.h</text>
</a>
</g>
</g>
<!-- Node0&#45;&gt;Node27 -->
<g id="edge48" class="edge">
<title>Node0&#45;&gt;Node27</title>
<path fill="none" stroke="#191970" d="M613.3674,-496.4978C737.284,-484.7679 914.2583,-457.0637 914.2583,-394.5 914.2583,-394.5 914.2583,-394.5 914.2583,-339.5 914.2583,-305.6739 898.6916,-268.7695 888.0308,-247.4619"/>
<polygon fill="#191970" stroke="#191970" points="891.1346,-245.8441 883.4162,-238.5861 884.9238,-249.0731 891.1346,-245.8441"/>
</g>
<!-- Node28 -->
<g id="node29" class="node">
<title>Node28</title>
<g id="a_node29"><a xlink:href="fieldio_8h.html" target="_top" xlink:title=" ">
<polygon fill="#ffffff" stroke="#000000" points="942.7437,-275.5 942.7437,-293.5 1003.7729,-293.5 1003.7729,-275.5 942.7437,-275.5"/>
<text text-anchor="middle" x="973.2583" y="-281.5" font-family="Helvetica,sans-Serif" font-size="10.00" fill="#000000">io/fieldio.h</text>
</a>
</g>
</g>
<!-- Node0&#45;&gt;Node28 -->
<g id="edge51" class="edge">
<title>Node0&#45;&gt;Node28</title>
<path fill="none" stroke="#191970" d="M613.4626,-498.951C733.4244,-492.2387 904.7696,-479.2529 928.2583,-459 974.0129,-419.5487 976.3456,-340.3281 974.7298,-303.7811"/>
<polygon fill="#191970" stroke="#191970" points="978.207,-303.2925 974.1165,-293.5192 971.2194,-303.7102 978.207,-303.2925"/>
</g>
<!-- Node2 -->
<g id="node3" class="node">
<title>Node2</title>
<g id="a_node3"><a xlink:href="lattice_8h.html" target="_top" xlink:title=" ">
<polygon fill="#ffffff" stroke="#000000" points="355.522,-220.5 355.522,-238.5 430.9946,-238.5 430.9946,-220.5 355.522,-220.5"/>
<text text-anchor="middle" x="393.2583" y="-226.5" font-family="Helvetica,sans-Serif" font-size="10.00" fill="#000000">math/lattice.h</text>
</a>
</g>
</g>
<!-- Node1&#45;&gt;Node2 -->
<g id="edge2" class="edge">
<title>Node1&#45;&gt;Node2</title>
<path fill="none" stroke="#191970" d="M447.8591,-440.4444C371.5419,-424.7937 226.9553,-390.3556 197.2583,-349 181.2864,-326.7578 206.1912,-287.9238 221.2583,-275 239.8009,-259.0951 301.0957,-245.4739 345.2315,-237.3865"/>
<polygon fill="#191970" stroke="#191970" points="345.9791,-240.8084 355.2047,-235.5989 344.744,-233.9182 345.9791,-240.8084"/>
</g>
<!-- Node14 -->
<g id="node15" class="node">
<title>Node14</title>
<g id="a_node15"><a xlink:href="observables_8h.html" target="_top" xlink:title=" ">
<polygon fill="#ffffff" stroke="#000000" points="427.7783,-385.5 427.7783,-403.5 562.7383,-403.5 562.7383,-385.5 427.7783,-385.5"/>
<text text-anchor="middle" x="495.2583" y="-391.5" font-family="Helvetica,sans-Serif" font-size="10.00" fill="#000000">observables/observables.h</text>
</a>
</g>
</g>
<!-- Node1&#45;&gt;Node14 -->
<g id="edge19" class="edge">
<title>Node1&#45;&gt;Node14</title>
<path fill="none" stroke="#191970" d="M490.092,-440.4179C488.6004,-433.2164 488.1625,-422.8962 488.7781,-413.8632"/>
<polygon fill="#191970" stroke="#191970" points="492.2709,-414.1392 490.0515,-403.7795 485.3261,-413.2621 492.2709,-414.1392"/>
</g>
<!-- Node3 -->
<g id="node4" class="node">
<title>Node3</title>
<g id="a_node4"><a xlink:title=" ">
<polygon fill="#ffffff" stroke="#bfbfbf" points="598.6426,-110.5 598.6426,-128.5 641.874,-128.5 641.874,-110.5 598.6426,-110.5"/>
<text text-anchor="middle" x="620.2583" y="-116.5" font-family="Helvetica,sans-Serif" font-size="10.00" fill="#000000">vector</text>
</a>
</g>
</g>
<!-- Node2&#45;&gt;Node3 -->
<g id="edge3" class="edge">
<title>Node2&#45;&gt;Node3</title>
<path fill="none" stroke="#191970" d="M431.3755,-225.7963C484.4868,-219.8829 576.9801,-206.6103 601.2583,-184 613.5265,-172.5746 618.0095,-153.6703 619.5813,-139.2735"/>
<polygon fill="#191970" stroke="#191970" points="623.099,-139.1442 620.3108,-128.9229 616.1163,-138.6521 623.099,-139.1442"/>
</g>
<!-- Node4 -->
<g id="node5" class="node">
<title>Node4</title>
<g id="a_node5"><a xlink:title=" ">
<polygon fill="#ffffff" stroke="#bfbfbf" points="219.0317,-110.5 219.0317,-128.5 259.4849,-128.5 259.4849,-110.5 219.0317,-110.5"/>
<text text-anchor="middle" x="239.2583" y="-116.5" font-family="Helvetica,sans-Serif" font-size="10.00" fill="#000000">mpi.h</text>
</a>
</g>
</g>
<!-- Node2&#45;&gt;Node4 -->
<g id="edge4" class="edge">
<title>Node2&#45;&gt;Node4</title>
<path fill="none" stroke="#191970" d="M375.6772,-220.3967C359.5033,-211.7567 335.093,-198.0378 315.2583,-184 294.0431,-168.9851 271.5627,-149.3881 256.6036,-135.7532"/>
<polygon fill="#191970" stroke="#191970" points="258.8479,-133.0619 249.1225,-128.8586 254.104,-138.2093 258.8479,-133.0619"/>
</g>
<!-- Node5 -->
<g id="node6" class="node">
<title>Node5</title>
<g id="a_node6"><a xlink:href="index_8h.html" target="_top" xlink:title=" ">
<polygon fill="#ffffff" stroke="#000000" points="480.1724,-165.5 480.1724,-183.5 592.3442,-183.5 592.3442,-165.5 480.1724,-165.5"/>
<text text-anchor="middle" x="536.2583" y="-171.5" font-family="Helvetica,sans-Serif" font-size="10.00" fill="#000000">parallelization/index.h</text>
</a>
</g>
</g>
<!-- Node2&#45;&gt;Node5 -->
<g id="edge5" class="edge">
<title>Node2&#45;&gt;Node5</title>
<path fill="none" stroke="#191970" d="M416.8718,-220.4179C440.366,-211.3817 476.6266,-197.4353 503.0231,-187.2828"/>
<polygon fill="#191970" stroke="#191970" points="504.5327,-190.4522 512.6097,-183.5956 502.0198,-183.9188 504.5327,-190.4522"/>
</g>
<!-- Node6 -->
<g id="node7" class="node">
<title>Node6</title>
<g id="a_node7"><a xlink:href="neighbours_8h.html" target="_top" xlink:title=" ">
<polygon fill="#ffffff" stroke="#000000" points="324.3843,-165.5 324.3843,-183.5 462.1323,-183.5 462.1323,-165.5 324.3843,-165.5"/>
<text text-anchor="middle" x="393.2583" y="-171.5" font-family="Helvetica,sans-Serif" font-size="10.00" fill="#000000">parallelization/neighbours.h</text>
</a>
</g>
</g>
<!-- Node2&#45;&gt;Node6 -->
<g id="edge7" class="edge">
<title>Node2&#45;&gt;Node6</title>
<path fill="none" stroke="#191970" d="M393.2583,-220.4179C393.2583,-213.2164 393.2583,-202.8962 393.2583,-193.8632"/>
<polygon fill="#191970" stroke="#191970" points="396.7584,-193.7794 393.2583,-183.7795 389.7584,-193.7795 396.7584,-193.7794"/>
</g>
<!-- Node8 -->
<g id="node9" class="node">
<title>Node8</title>
<g id="a_node9"><a xlink:href="parallelparameters_8h.html" target="_top" xlink:title=" ">
<polygon fill="#ffffff" stroke="#000000" points="96.7168,-165.5 96.7168,-183.5 267.7998,-183.5 267.7998,-165.5 96.7168,-165.5"/>
<text text-anchor="middle" x="182.2583" y="-171.5" font-family="Helvetica,sans-Serif" font-size="10.00" fill="#000000">parallelization/parallelparameters.h</text>
</a>
</g>
</g>
<!-- Node2&#45;&gt;Node8 -->
<g id="edge10" class="edge">
<title>Node2&#45;&gt;Node8</title>
<path fill="none" stroke="#191970" d="M358.4159,-220.4179C322.344,-211.0152 265.8762,-196.2961 226.6334,-186.067"/>
<polygon fill="#191970" stroke="#191970" points="227.3612,-182.6398 216.8017,-183.5042 225.5955,-189.4135 227.3612,-182.6398"/>
</g>
<!-- Node9 -->
<g id="node10" class="node">
<title>Node9</title>
<g id="a_node10"><a xlink:href="functions_8h.html" target="_top" xlink:title=" ">
<polygon fill="#ffffff" stroke="#000000" points="724.0762,-165.5 724.0762,-183.5 788.4404,-183.5 788.4404,-165.5 724.0762,-165.5"/>
<text text-anchor="middle" x="756.2583" y="-171.5" font-family="Helvetica,sans-Serif" font-size="10.00" fill="#000000">functions.h</text>
</a>
</g>
</g>
<!-- Node2&#45;&gt;Node9 -->
<g id="edge12" class="edge">
<title>Node2&#45;&gt;Node9</title>
<path fill="none" stroke="#191970" d="M431.0784,-223.7697C499.3571,-213.4244 642.7283,-191.7015 714.073,-180.8917"/>
<polygon fill="#191970" stroke="#191970" points="714.6963,-184.3373 724.0591,-179.3787 713.6476,-177.4163 714.6963,-184.3373"/>
</g>
<!-- Node5&#45;&gt;Node3 -->
<g id="edge6" class="edge">
<title>Node5&#45;&gt;Node3</title>
<path fill="none" stroke="#191970" d="M550.1292,-165.4179C563.018,-156.9788 582.4477,-144.257 597.5897,-134.3426"/>
<polygon fill="#191970" stroke="#191970" points="599.9179,-137.0017 606.3668,-128.5956 596.0833,-131.1454 599.9179,-137.0017"/>
</g>
<!-- Node6&#45;&gt;Node3 -->
<g id="edge9" class="edge">
<title>Node6&#45;&gt;Node3</title>
<path fill="none" stroke="#191970" d="M430.4885,-165.4795C474.5508,-154.8036 547.1558,-137.2121 588.6184,-127.1661"/>
<polygon fill="#191970" stroke="#191970" points="589.5578,-130.5398 598.4524,-124.7834 587.9094,-123.7366 589.5578,-130.5398"/>
</g>
<!-- Node7 -->
<g id="node8" class="node">
<title>Node7</title>
<g id="a_node8"><a xlink:href="neighbourlist_8h.html" target="_top" xlink:title=" ">
<polygon fill="#ffffff" stroke="#000000" points="352.7363,-110.5 352.7363,-128.5 433.7803,-128.5 433.7803,-110.5 352.7363,-110.5"/>
<text text-anchor="middle" x="393.2583" y="-116.5" font-family="Helvetica,sans-Serif" font-size="10.00" fill="#000000">neighbourlist.h</text>
</a>
</g>
</g>
<!-- Node6&#45;&gt;Node7 -->
<g id="edge8" class="edge">
<title>Node6&#45;&gt;Node7</title>
<path fill="none" stroke="#191970" d="M393.2583,-165.4179C393.2583,-158.2164 393.2583,-147.8962 393.2583,-138.8632"/>
<polygon fill="#191970" stroke="#191970" points="396.7584,-138.7794 393.2583,-128.7795 389.7584,-138.7795 396.7584,-138.7794"/>
</g>
<!-- Node8&#45;&gt;Node4 -->
<g id="edge11" class="edge">
<title>Node8&#45;&gt;Node4</title>
<path fill="none" stroke="#191970" d="M191.6707,-165.4179C199.9542,-157.425 212.2192,-145.5903 222.2228,-135.9377"/>
<polygon fill="#191970" stroke="#191970" points="224.8755,-138.2419 229.6414,-128.7795 220.0149,-133.2045 224.8755,-138.2419"/>
</g>
<!-- Node10 -->
<g id="node11" class="node">
<title>Node10</title>
<g id="a_node11"><a xlink:href="su3_8h.html" target="_top" xlink:title=" ">
<polygon fill="#ffffff" stroke="#000000" points="848.7461,-110.5 848.7461,-128.5 929.7705,-128.5 929.7705,-110.5 848.7461,-110.5"/>
<text text-anchor="middle" x="889.2583" y="-116.5" font-family="Helvetica,sans-Serif" font-size="10.00" fill="#000000">matrices/su3.h</text>
</a>
</g>
</g>
<!-- Node9&#45;&gt;Node10 -->
<g id="edge13" class="edge">
<title>Node9&#45;&gt;Node10</title>
<path fill="none" stroke="#191970" d="M778.2205,-165.4179C799.9755,-156.4215 833.4997,-142.5581 858.0223,-132.4172"/>
<polygon fill="#191970" stroke="#191970" points="859.3599,-135.6515 867.2634,-128.5956 856.6849,-129.1828 859.3599,-135.6515"/>
</g>
<!-- Node11 -->
<g id="node12" class="node">
<title>Node11</title>
<g id="a_node12"><a xlink:href="complex_8h.html" target="_top" xlink:title=" ">
<polygon fill="#ffffff" stroke="#000000" points="746.9653,-55.5 746.9653,-73.5 833.5513,-73.5 833.5513,-55.5 746.9653,-55.5"/>
<text text-anchor="middle" x="790.2583" y="-61.5" font-family="Helvetica,sans-Serif" font-size="10.00" fill="#000000">math/complex.h</text>
</a>
</g>
</g>
<!-- Node9&#45;&gt;Node11 -->
<g id="edge18" class="edge">
<title>Node9&#45;&gt;Node11</title>
<path fill="none" stroke="#191970" d="M750.3949,-165.4165C742.9338,-152.629 731.9549,-128.7829 740.2583,-110 745.6711,-97.7558 756.1865,-87.3899 766.183,-79.6592"/>
<polygon fill="#191970" stroke="#191970" points="768.256,-82.4796 774.3346,-73.8019 764.1713,-76.7949 768.256,-82.4796"/>
</g>
<!-- Node13 -->
<g id="node14" class="node">
<title>Node13</title>
<g id="a_node14"><a xlink:href="su2_8h.html" target="_top" xlink:title=" ">
<polygon fill="#ffffff" stroke="#000000" points="749.7461,-110.5 749.7461,-128.5 830.7705,-128.5 830.7705,-110.5 749.7461,-110.5"/>
<text text-anchor="middle" x="790.2583" y="-116.5" font-family="Helvetica,sans-Serif" font-size="10.00" fill="#000000">matrices/su2.h</text>
</a>
</g>
</g>
<!-- Node9&#45;&gt;Node13 -->
<g id="edge16" class="edge">
<title>Node9&#45;&gt;Node13</title>
<path fill="none" stroke="#191970" d="M761.8727,-165.4179C766.5692,-157.8207 773.4112,-146.7527 779.2011,-137.3866"/>
<polygon fill="#191970" stroke="#191970" points="782.2407,-139.1258 784.5219,-128.7795 776.2866,-135.445 782.2407,-139.1258"/>
</g>
<!-- Node10&#45;&gt;Node11 -->
<g id="edge14" class="edge">
<title>Node10&#45;&gt;Node11</title>
<path fill="none" stroke="#191970" d="M872.9105,-110.4179C857.2902,-101.7399 833.5185,-88.5334 815.4721,-78.5077"/>
<polygon fill="#191970" stroke="#191970" points="817.0718,-75.3925 806.6304,-73.5956 813.6722,-81.5117 817.0718,-75.3925"/>
</g>
<!-- Node12 -->
<g id="node13" class="node">
<title>Node12</title>
<g id="a_node13"><a xlink:title=" ">
<polygon fill="#ffffff" stroke="#bfbfbf" points="763.0859,-.5 763.0859,-18.5 817.4307,-18.5 817.4307,-.5 763.0859,-.5"/>
<text text-anchor="middle" x="790.2583" y="-6.5" font-family="Helvetica,sans-Serif" font-size="10.00" fill="#000000">iostream</text>
</a>
</g>
</g>
<!-- Node11&#45;&gt;Node12 -->
<g id="edge15" class="edge">
<title>Node11&#45;&gt;Node12</title>
<path fill="none" stroke="#191970" d="M790.2583,-55.4179C790.2583,-48.2164 790.2583,-37.8962 790.2583,-28.8632"/>
<polygon fill="#191970" stroke="#191970" points="793.7584,-28.7794 790.2583,-18.7795 786.7584,-28.7795 793.7584,-28.7794"/>
</g>
<!-- Node13&#45;&gt;Node11 -->
<g id="edge17" class="edge">
<title>Node13&#45;&gt;Node11</title>
<path fill="none" stroke="#191970" d="M790.2583,-110.4179C790.2583,-103.2164 790.2583,-92.8962 790.2583,-83.8632"/>
<polygon fill="#191970" stroke="#191970" points="793.7584,-83.7794 790.2583,-73.7795 786.7584,-83.7795 793.7584,-83.7794"/>
</g>
<!-- Node14&#45;&gt;Node1 -->
<g id="edge39" class="edge">
<title>Node14&#45;&gt;Node1</title>
<path fill="none" stroke="#191970" d="M500.4651,-403.7795C501.9374,-411.0373 502.3562,-421.3738 501.7215,-430.383"/>
<polygon fill="#191970" stroke="#191970" points="498.2352,-430.0517 500.4246,-440.4179 505.1775,-430.949 498.2352,-430.0517"/>
</g>
<!-- Node15 -->
<g id="node16" class="node">
<title>Node15</title>
<g id="a_node16"><a xlink:href="correlator_8h.html" target="_top" xlink:title=" ">
<polygon fill="#ffffff" stroke="#000000" points="639.2437,-275.5 639.2437,-293.5 705.2729,-293.5 705.2729,-275.5 639.2437,-275.5"/>
<text text-anchor="middle" x="672.2583" y="-281.5" font-family="Helvetica,sans-Serif" font-size="10.00" fill="#000000">correlator.h</text>
</a>
</g>
</g>
<!-- Node14&#45;&gt;Node15 -->
<g id="edge20" class="edge">
<title>Node14&#45;&gt;Node15</title>
<path fill="none" stroke="#191970" d="M545.4801,-385.4835C585.7486,-377.2931 637.9727,-364.1929 653.2583,-349 665.1486,-337.1818 669.6777,-318.3254 671.3628,-304.0464"/>
<polygon fill="#191970" stroke="#191970" points="674.874,-304.0475 672.1907,-293.7981 667.8967,-303.4838 674.874,-304.0475"/>
</g>
<!-- Node18 -->
<g id="node19" class="node">
<title>Node18</title>
<g id="a_node19"><a xlink:href="energydensity_8h.html" target="_top" xlink:title=" ">
<polygon fill="#ffffff" stroke="#000000" points="558.3267,-330.5 558.3267,-348.5 644.1899,-348.5 644.1899,-330.5 558.3267,-330.5"/>
<text text-anchor="middle" x="601.2583" y="-336.5" font-family="Helvetica,sans-Serif" font-size="10.00" fill="#000000">energydensity.h</text>
</a>
</g>
</g>
<!-- Node14&#45;&gt;Node18 -->
<g id="edge26" class="edge">
<title>Node14&#45;&gt;Node18</title>
<path fill="none" stroke="#191970" d="M512.762,-385.4179C529.6403,-376.6603 555.4071,-363.2907 574.7919,-353.2326"/>
<polygon fill="#191970" stroke="#191970" points="576.4642,-356.308 583.7286,-348.5956 573.2403,-350.0946 576.4642,-356.308"/>
</g>
<!-- Node19 -->
<g id="node20" class="node">
<title>Node19</title>
<g id="a_node20"><a xlink:href="plaquette_8h.html" target="_top" xlink:title=" ">
<polygon fill="#ffffff" stroke="#000000" points="700.5146,-330.5 700.5146,-348.5 766.002,-348.5 766.002,-330.5 700.5146,-330.5"/>
<text text-anchor="middle" x="733.2583" y="-336.5" font-family="Helvetica,sans-Serif" font-size="10.00" fill="#000000">plaquette.h</text>
</a>
</g>
</g>
<!-- Node14&#45;&gt;Node19 -->
<g id="edge29" class="edge">
<title>Node14&#45;&gt;Node19</title>
<path fill="none" stroke="#191970" d="M534.2927,-385.4795C577.2357,-375.5556 646.0369,-359.6562 690.4338,-349.3964"/>
<polygon fill="#191970" stroke="#191970" points="691.3856,-352.7688 700.3407,-347.107 689.8094,-345.9485 691.3856,-352.7688"/>
</g>
<!-- Node20 -->
<g id="node21" class="node">
<title>Node20</title>
<g id="a_node21"><a xlink:href="topologicalcharge_8h.html" target="_top" xlink:title=" ">
<polygon fill="#ffffff" stroke="#000000" points="783.894,-330.5 783.894,-348.5 886.6226,-348.5 886.6226,-330.5 783.894,-330.5"/>
<text text-anchor="middle" x="835.2583" y="-336.5" font-family="Helvetica,sans-Serif" font-size="10.00" fill="#000000">topologicalcharge.h</text>
</a>
</g>
</g>
<!-- Node14&#45;&gt;Node20 -->
<g id="edge31" class="edge">
<title>Node14&#45;&gt;Node20</title>
<path fill="none" stroke="#191970" d="M551.0217,-385.4795C612.2695,-375.5717 710.3381,-359.7077 773.7721,-349.4463"/>
<polygon fill="#191970" stroke="#191970" points="774.3318,-352.9013 783.6445,-347.8493 773.2139,-345.9912 774.3318,-352.9013"/>
</g>
<!-- Node21 -->
<g id="node22" class="node">
<title>Node21</title>
<g id="a_node22"><a xlink:href="mastersampler_8h.html" target="_top" xlink:title=" ">
<polygon fill="#ffffff" stroke="#000000" points="450.2979,-330.5 450.2979,-348.5 540.2188,-348.5 540.2188,-330.5 450.2979,-330.5"/>
<text text-anchor="middle" x="495.2583" y="-336.5" font-family="Helvetica,sans-Serif" font-size="10.00" fill="#000000">mastersampler.h</text>
</a>
</g>
</g>
<!-- Node14&#45;&gt;Node21 -->
<g id="edge33" class="edge">
<title>Node14&#45;&gt;Node21</title>
<path fill="none" stroke="#191970" d="M490.092,-385.4179C488.6004,-378.2164 488.1625,-367.8962 488.7781,-358.8632"/>
<polygon fill="#191970" stroke="#191970" points="492.2709,-359.1392 490.0515,-348.7795 485.3261,-358.2621 492.2709,-359.1392"/>
</g>
<!-- Node22 -->
<g id="node23" class="node">
<title>Node22</title>
<g id="a_node23"><a xlink:href="mastersamplertopcxyz_8h.html" target="_top" xlink:title=" ">
<polygon fill="#ffffff" stroke="#000000" points="308.0737,-330.5 308.0737,-348.5 432.4429,-348.5 432.4429,-330.5 308.0737,-330.5"/>
<text text-anchor="middle" x="370.2583" y="-336.5" font-family="Helvetica,sans-Serif" font-size="10.00" fill="#000000">mastersamplertopcxyz.h</text>
</a>
</g>
</g>
<!-- Node14&#45;&gt;Node22 -->
<g id="edge36" class="edge">
<title>Node14&#45;&gt;Node22</title>
<path fill="none" stroke="#191970" d="M469.4508,-385.4179C447.536,-376.5807 416.5344,-363.0473 394.9494,-352.9591"/>
<polygon fill="#191970" stroke="#191970" points="396.2957,-349.7238 385.7611,-348.5956 393.2928,-356.047 396.2957,-349.7238"/>
</g>
<!-- Node23 -->
<g id="node24" class="node">
<title>Node23</title>
<g id="a_node24"><a xlink:href="supersampler_8h.html" target="_top" xlink:title=" ">
<polygon fill="#ffffff" stroke="#000000" points="206.0713,-330.5 206.0713,-348.5 290.4453,-348.5 290.4453,-330.5 206.0713,-330.5"/>
<text text-anchor="middle" x="248.2583" y="-336.5" font-family="Helvetica,sans-Serif" font-size="10.00" fill="#000000">supersampler.h</text>
</a>
</g>
</g>
<!-- Node14&#45;&gt;Node23 -->
<g id="edge40" class="edge">
<title>Node14&#45;&gt;Node23</title>
<path fill="none" stroke="#191970" d="M449.5943,-385.4795C405.0844,-376.008 337.9609,-361.0933 293.5736,-350.8335"/>
<polygon fill="#191970" stroke="#191970" points="294.1689,-347.3787 283.6363,-348.5255 292.5852,-354.1972 294.1689,-347.3787"/>
</g>
<!-- Node15&#45;&gt;Node2 -->
<g id="edge21" class="edge">
<title>Node15&#45;&gt;Node2</title>
<path fill="none" stroke="#191970" d="M639.1577,-277.9748C590.1027,-268.3045 497.8304,-250.1146 441.3258,-238.9757"/>
<polygon fill="#191970" stroke="#191970" points="441.6981,-235.4818 431.2099,-236.9815 440.3441,-242.3496 441.6981,-235.4818"/>
</g>
<!-- Node15&#45;&gt;Node3 -->
<g id="edge25" class="edge">
<title>Node15&#45;&gt;Node3</title>
<path fill="none" stroke="#191970" d="M669.3136,-275.1561C661.019,-248.837 637.3423,-173.709 626.1966,-138.3426"/>
<polygon fill="#191970" stroke="#191970" points="629.5147,-137.2269 623.1707,-128.7414 622.8384,-139.331 629.5147,-137.2269"/>
</g>
<!-- Node16 -->
<g id="node17" class="node">
<title>Node16</title>
<g id="a_node17"><a xlink:href="observablestorer_8h.html" target="_top" xlink:title=" ">
<polygon fill="#ffffff" stroke="#000000" points="686.1699,-220.5 686.1699,-238.5 808.3467,-238.5 808.3467,-220.5 686.1699,-220.5"/>
<text text-anchor="middle" x="747.2583" y="-226.5" font-family="Helvetica,sans-Serif" font-size="10.00" fill="#000000">tools/observablestorer.h</text>
</a>
</g>
</g>
<!-- Node15&#45;&gt;Node16 -->
<g id="edge22" class="edge">
<title>Node15&#45;&gt;Node16</title>
<path fill="none" stroke="#191970" d="M684.643,-275.4179C696.0423,-267.0584 713.172,-254.4966 726.6348,-244.6239"/>
<polygon fill="#191970" stroke="#191970" points="728.8609,-247.3317 734.8552,-238.5956 724.7213,-241.6869 728.8609,-247.3317"/>
</g>
<!-- Node16&#45;&gt;Node3 -->
<g id="edge24" class="edge">
<title>Node16&#45;&gt;Node3</title>
<path fill="none" stroke="#191970" d="M736.8654,-220.4982C715.2832,-201.805 665.3763,-158.5786 638.3806,-135.1964"/>
<polygon fill="#191970" stroke="#191970" points="640.6452,-132.5276 630.7948,-128.6261 636.0623,-137.8188 640.6452,-132.5276"/>
</g>
<!-- Node17 -->
<g id="node18" class="node">
<title>Node17</title>
<g id="a_node18"><a xlink:title=" ">
<polygon fill="#ffffff" stroke="#bfbfbf" points="810.0317,-165.5 810.0317,-183.5 850.4849,-183.5 850.4849,-165.5 810.0317,-165.5"/>
<text text-anchor="middle" x="830.2583" y="-171.5" font-family="Helvetica,sans-Serif" font-size="10.00" fill="#000000">string</text>
</a>
</g>
</g>
<!-- Node16&#45;&gt;Node17 -->
<g id="edge23" class="edge">
<title>Node16&#45;&gt;Node17</title>
<path fill="none" stroke="#191970" d="M760.9641,-220.4179C773.6994,-211.9788 792.8978,-199.257 807.8595,-189.3426"/>
<polygon fill="#191970" stroke="#191970" points="810.1296,-192.037 816.5322,-183.5956 806.2629,-186.2019 810.1296,-192.037"/>
</g>
<!-- Node18&#45;&gt;Node9 -->
<g id="edge28" class="edge">
<title>Node18&#45;&gt;Node9</title>
<path fill="none" stroke="#191970" d="M604.4364,-330.3265C609.1095,-317.4321 618.5603,-293.4599 630.2583,-275 647.4694,-247.8402 652.5234,-240.5442 677.2583,-220 692.3825,-207.4382 711.4297,-196.3542 727.0317,-188.2716"/>
<polygon fill="#191970" stroke="#191970" points="728.8756,-191.262 736.2352,-183.6405 725.7291,-185.009 728.8756,-191.262"/>
</g>
<!-- Node18&#45;&gt;Node15 -->
<g id="edge27" class="edge">
<title>Node18&#45;&gt;Node15</title>
<path fill="none" stroke="#191970" d="M612.9825,-330.4179C623.6071,-322.1876 639.49,-309.8839 652.1414,-300.0836"/>
<polygon fill="#191970" stroke="#191970" points="654.5173,-302.6704 660.2794,-293.7795 650.2304,-297.1365 654.5173,-302.6704"/>
</g>
<!-- Node19&#45;&gt;Node15 -->
<g id="edge30" class="edge">
<title>Node19&#45;&gt;Node15</title>
<path fill="none" stroke="#191970" d="M723.1854,-330.4179C714.2328,-322.3458 700.9345,-310.3556 690.172,-300.6517"/>
<polygon fill="#191970" stroke="#191970" points="692.3207,-297.8764 682.5501,-293.7795 687.6332,-303.0753 692.3207,-297.8764"/>
</g>
<!-- Node20&#45;&gt;Node15 -->
<g id="edge32" class="edge">
<title>Node20&#45;&gt;Node15</title>
<path fill="none" stroke="#191970" d="M808.3422,-330.4179C781.127,-321.2348 738.883,-306.9807 708.684,-296.7909"/>
<polygon fill="#191970" stroke="#191970" points="709.5377,-293.3851 698.9435,-293.5042 707.2996,-300.0177 709.5377,-293.3851"/>
</g>
<!-- Node21&#45;&gt;Node2 -->
<g id="edge34" class="edge">
<title>Node21&#45;&gt;Node2</title>
<path fill="none" stroke="#191970" d="M486.9112,-330.4982C469.8016,-312.0467 430.5276,-269.6924 408.6634,-246.1134"/>
<polygon fill="#191970" stroke="#191970" points="411.0866,-243.5791 401.7207,-238.6261 405.9537,-248.3387 411.0866,-243.5791"/>
</g>
<!-- Node21&#45;&gt;Node14 -->
<g id="edge35" class="edge">
<title>Node21&#45;&gt;Node14</title>
<path fill="none" stroke="#191970" d="M500.4651,-348.7795C501.9374,-356.0373 502.3562,-366.3738 501.7215,-375.383"/>
<polygon fill="#191970" stroke="#191970" points="498.2352,-375.0517 500.4246,-385.4179 505.1775,-375.949 498.2352,-375.0517"/>
</g>
<!-- Node22&#45;&gt;Node2 -->
<g id="edge37" class="edge">
<title>Node22&#45;&gt;Node2</title>
<path fill="none" stroke="#191970" d="M372.1405,-330.4982C375.8638,-312.6913 384.2418,-272.6225 389.2539,-248.6515"/>
<polygon fill="#191970" stroke="#191970" points="392.7293,-249.1308 391.3501,-238.6261 385.8775,-247.6981 392.7293,-249.1308"/>
</g>
<!-- Node22&#45;&gt;Node14 -->
<g id="edge38" class="edge">
<title>Node22&#45;&gt;Node14</title>
<path fill="none" stroke="#191970" d="M396.0993,-348.5956C418.0233,-357.4376 449.0247,-370.9716 470.6001,-381.0563"/>
<polygon fill="#191970" stroke="#191970" points="469.2489,-384.2892 479.7834,-385.4179 472.252,-377.9661 469.2489,-384.2892"/>
</g>
<!-- Node23&#45;&gt;Node2 -->
<g id="edge41" class="edge">
<title>Node23&#45;&gt;Node2</title>
<path fill="none" stroke="#191970" d="M260.1243,-330.4982C284.8715,-311.7244 342.2374,-268.2055 372.9646,-244.8952"/>
<polygon fill="#191970" stroke="#191970" points="375.3768,-247.4585 381.2284,-238.6261 371.1461,-241.8816 375.3768,-247.4585"/>
</g>
<!-- Node23&#45;&gt;Node14 -->
<g id="edge42" class="edge">
<title>Node23&#45;&gt;Node14</title>
<path fill="none" stroke="#191970" d="M290.5534,-347.8049C335.0053,-357.2306 404.4843,-372.6585 450.0054,-383.1809"/>
<polygon fill="#191970" stroke="#191970" points="449.3688,-386.6261 459.9014,-385.4795 450.9526,-379.8077 449.3688,-386.6261"/>
</g>
<!-- Node24 -->
<g id="node25" class="node">
<title>Node24</title>
<g id="a_node25"><a xlink:title=" ">
<polygon fill="#ffffff" stroke="#bfbfbf" points="230.5317,-275.5 230.5317,-293.5 265.9849,-293.5 265.9849,-275.5 230.5317,-275.5"/>
<text text-anchor="middle" x="248.2583" y="-281.5" font-family="Helvetica,sans-Serif" font-size="10.00" fill="#000000">map</text>
</a>
</g>
</g>
<!-- Node23&#45;&gt;Node24 -->
<g id="edge43" class="edge">
<title>Node23&#45;&gt;Node24</title>
<path fill="none" stroke="#191970" d="M248.2583,-330.4179C248.2583,-323.2164 248.2583,-312.8962 248.2583,-303.8632"/>
<polygon fill="#191970" stroke="#191970" points="251.7584,-303.7794 248.2583,-293.7795 244.7584,-303.7795 251.7584,-303.7794"/>
</g>
<!-- Node26&#45;&gt;Node2 -->
<g id="edge47" class="edge">
<title>Node26&#45;&gt;Node2</title>
<path fill="none" stroke="#191970" d="M127.4134,-275.4795C187.7522,-265.0435 286.2988,-247.9993 344.9531,-237.8547"/>
<polygon fill="#191970" stroke="#191970" points="345.8127,-241.2581 355.0699,-236.1049 344.6196,-234.3605 345.8127,-241.2581"/>
</g>
<!-- Node26&#45;&gt;Node3 -->
<g id="edge46" class="edge">
<title>Node26&#45;&gt;Node3</title>
<path fill="none" stroke="#191970" d="M72.7919,-275.4065C67.3284,-253.0111 56.9574,-194.8521 87.2583,-165 105.2237,-147.3007 476.5252,-126.875 588.5418,-121.0959"/>
<polygon fill="#191970" stroke="#191970" points="588.7444,-124.5902 598.5522,-120.5829 588.3861,-117.5994 588.7444,-124.5902"/>
</g>
<!-- Node27&#45;&gt;Node3 -->
<g id="edge50" class="edge">
<title>Node27&#45;&gt;Node3</title>
<path fill="none" stroke="#191970" d="M878.372,-220.4865C878.0268,-206.434 875.1748,-179.4234 859.2583,-165 829.204,-137.765 709.739,-125.7862 651.9259,-121.5009"/>
<polygon fill="#191970" stroke="#191970" points="652.1065,-118.005 641.8838,-120.7884 651.611,-124.9875 652.1065,-118.005"/>
</g>
<!-- Node27&#45;&gt;Node17 -->
<g id="edge49" class="edge">
<title>Node27&#45;&gt;Node17</title>
<path fill="none" stroke="#191970" d="M870.3321,-220.4179C863.4946,-212.5833 853.4358,-201.0575 845.1066,-191.5137"/>
<polygon fill="#191970" stroke="#191970" points="847.5691,-189.0123 838.3567,-183.7795 842.2951,-193.6151 847.5691,-189.0123"/>
</g>
<!-- Node28&#45;&gt;Node2 -->
<g id="edge54" class="edge">
<title>Node28&#45;&gt;Node2</title>
<path fill="none" stroke="#191970" d="M942.4845,-281.5818C847.232,-272.5492 556.7266,-245.0013 441.2886,-234.0546"/>
<polygon fill="#191970" stroke="#191970" points="441.6109,-230.5695 431.3251,-233.1098 440.95,-237.5383 441.6109,-230.5695"/>
</g>
<!-- Node28&#45;&gt;Node10 -->
<g id="edge53" class="edge">
<title>Node28&#45;&gt;Node10</title>
<path fill="none" stroke="#191970" d="M972.6147,-275.3857C971.4478,-262.5616 968.3067,-238.6724 960.2583,-220 946.3257,-187.6763 920.9165,-155.3294 904.5751,-136.379"/>
<polygon fill="#191970" stroke="#191970" points="907.015,-133.8538 897.7788,-128.663 901.7621,-138.4806 907.015,-133.8538"/>
</g>
<!-- Node28&#45;&gt;Node17 -->
<g id="edge52" class="edge">
<title>Node28&#45;&gt;Node17</title>
<path fill="none" stroke="#191970" d="M970.6404,-275.3439C966.2737,-261.5868 956.2627,-235.544 939.2583,-220 916.9768,-199.632 884.2762,-187.6431 860.508,-181.1319"/>
<polygon fill="#191970" stroke="#191970" points="861.1618,-177.6864 850.6057,-178.5917 859.4224,-184.4668 861.1618,-177.6864"/>
</g>
</g>
</svg>
