<?xml version="1.0" encoding="UTF-8" standalone="no"?>
<!DOCTYPE svg PUBLIC "-//W3C//DTD SVG 1.1//EN"
 "http://www.w3.org/Graphics/SVG/1.1/DTD/svg11.dtd">
<!-- Generated by graphviz version 2.40.1 (20161225.0304)
 -->
<!-- Title: sumSpatial Pages: 1 -->
<svg width="234pt" height="74pt"
 viewBox="0.00 0.00 234.41 74.00" xmlns="http://www.w3.org/2000/svg" xmlns:xlink="http://www.w3.org/1999/xlink">
<g id="graph0" class="graph" transform="scale(1 1) rotate(0) translate(4 70)">
<title>sumSpatial</title>
<polygon fill="#ffffff" stroke="transparent" points="-4,4 -4,-70 230.4131,-70 230.4131,4 -4,4"/>
<!-- Node133 -->
<g id="node1" class="node">
<title>Node133</title>
<g id="a_node1"><a xlink:title=" ">
<polygon fill="#bfbfbf" stroke="#000000" points="160.9453,-21.5 160.9453,-39.5 226.4131,-39.5 226.4131,-21.5 160.9453,-21.5"/>
<text text-anchor="middle" x="193.6792" y="-27.5" font-family="Helvetica,sans-Serif" font-size="10.00" fill="#000000">sumSpatial</text>
</a>
</g>
</g>
<!-- Node134 -->
<g id="node2" class="node">
<title>Node134</title>
<g id="a_node2"><a xlink:href="class_master_sampler_topc_x_y_z.html#a0ea80ad9935db791f00461b7dfd548b7" target="_top" xlink:title="Correlator::calculate calculates a observable.">
<polygon fill="#ffffff" stroke="#000000" points=".2881,-37.5 .2881,-65.5 124.6572,-65.5 124.6572,-37.5 .2881,-37.5"/>
<text text-anchor="start" x="8.2881" y="-53.5" font-family="Helvetica,sans-Serif" font-size="10.00" fill="#000000">MasterSamplerTopcXYZ</text>
<text text-anchor="middle" x="62.4727" y="-43.5" font-family="Helvetica,sans-Serif" font-size="10.00" fill="#000000">::calculate</text>
</a>
</g>
</g>
<!-- Node133&#45;&gt;Node134 -->
<g id="edge1" class="edge">
<title>Node133&#45;&gt;Node134</title>
<path fill="none" stroke="#191970" d="M150.9921,-37.3322C142.5932,-38.6765 133.621,-40.1125 124.731,-41.5354"/>
<polygon fill="#191970" stroke="#191970" points="151.5876,-40.7815 160.9087,-35.745 150.4812,-33.8695 151.5876,-40.7815"/>
</g>
<!-- Node135 -->
<g id="node3" class="node">
<title>Node135</title>
<g id="a_node3"><a xlink:href="class_super_sampler.html#a7e1457583270077c4fbcb288ea9b954c" target="_top" xlink:title="Correlator::calculate calculates a observable.">
<polygon fill="#ffffff" stroke="#000000" points="0,-.5 0,-18.5 124.9453,-18.5 124.9453,-.5 0,-.5"/>
<text text-anchor="middle" x="62.4727" y="-6.5" font-family="Helvetica,sans-Serif" font-size="10.00" fill="#000000">SuperSampler::calculate</text>
</a>
</g>
</g>
<!-- Node133&#45;&gt;Node135 -->
<g id="edge2" class="edge">
<title>Node133&#45;&gt;Node135</title>
<path fill="none" stroke="#191970" d="M150.9711,-23.6644C140.704,-22.0212 129.5815,-20.241 118.8001,-18.5154"/>
<polygon fill="#191970" stroke="#191970" points="150.4812,-27.1305 160.9087,-25.255 151.5876,-20.2185 150.4812,-27.1305"/>
</g>
</g>
</svg>
