<?xml version="1.0" encoding="UTF-8" standalone="no"?>
<!DOCTYPE svg PUBLIC "-//W3C//DTD SVG 1.1//EN"
 "http://www.w3.org/Graphics/SVG/1.1/DTD/svg11.dtd">
<!-- Generated by graphviz version 2.40.1 (20161225.0304)
 -->
<!-- Title: imagTraceMultiplication Pages: 1 -->
<svg width="288pt" height="138pt"
 viewBox="0.00 0.00 287.96 138.00" xmlns="http://www.w3.org/2000/svg" xmlns:xlink="http://www.w3.org/1999/xlink">
<g id="graph0" class="graph" transform="scale(1 1) rotate(0) translate(4 134)">
<title>imagTraceMultiplication</title>
<polygon fill="#ffffff" stroke="transparent" points="-4,4 -4,-134 283.9629,-134 283.9629,4 -4,4"/>
<!-- Node15 -->
<g id="node1" class="node">
<title>Node15</title>
<g id="a_node1"><a xlink:title=" ">
<polygon fill="#bfbfbf" stroke="#000000" points="0,-55.5 0,-73.5 120.6729,-73.5 120.6729,-55.5 0,-55.5"/>
<text text-anchor="middle" x="60.3364" y="-61.5" font-family="Helvetica,sans-Serif" font-size="10.00" fill="#000000">imagTraceMultiplication</text>
</a>
</g>
</g>
<!-- Node16 -->
<g id="node2" class="node">
<title>Node16</title>
<g id="a_node2"><a xlink:href="class_lattice.html#a5b4e162f06f7b4b90b4a9335ed2aabb5" target="_top" xlink:title=" ">
<polygon fill="#ffffff" stroke="#000000" points="175.5742,-111.5 175.5742,-129.5 261.0615,-129.5 261.0615,-111.5 175.5742,-111.5"/>
<text text-anchor="middle" x="218.3179" y="-117.5" font-family="Helvetica,sans-Serif" font-size="10.00" fill="#000000">Lattice::allocate</text>
</a>
</g>
</g>
<!-- Node15&#45;&gt;Node16 -->
<g id="edge1" class="edge">
<title>Node15&#45;&gt;Node16</title>
<path fill="none" stroke="#191970" d="M81.5548,-73.5187C100.9369,-81.601 130.478,-93.5304 156.6729,-102.5 162.6951,-104.5621 169.0973,-106.5997 175.4104,-108.5212"/>
<polygon fill="#191970" stroke="#191970" points="174.6074,-111.9339 185.1904,-111.4319 176.6043,-105.2247 174.6074,-111.9339"/>
</g>
<!-- Node17 -->
<g id="node3" class="node">
<title>Node17</title>
<g id="a_node3"><a xlink:href="class_lattice.html#a1e8bfb54f85e78f2c97e8b90d2b47dc9" target="_top" xlink:title=" ">
<polygon fill="#ffffff" stroke="#000000" points="180.5815,-74.5 180.5815,-92.5 256.0542,-92.5 256.0542,-74.5 180.5815,-74.5"/>
<text text-anchor="middle" x="218.3179" y="-80.5" font-family="Helvetica,sans-Serif" font-size="10.00" fill="#000000">Lattice::zeros</text>
</a>
</g>
</g>
<!-- Node15&#45;&gt;Node17 -->
<g id="edge2" class="edge">
<title>Node15&#45;&gt;Node17</title>
<path fill="none" stroke="#191970" d="M120.9644,-71.7916C137.3816,-73.766 154.9192,-75.8752 170.5221,-77.7517"/>
<polygon fill="#191970" stroke="#191970" points="170.1184,-81.2283 180.4648,-78.9475 170.9543,-74.2784 170.1184,-81.2283"/>
</g>
<!-- Node18 -->
<g id="node4" class="node">
<title>Node18</title>
<g id="a_node4"><a xlink:href="class_parallel_1_1_index.html#af31faeef1369fdc0997d1910e008bfe2" target="_top" xlink:title=" ">
<polygon fill="#ffffff" stroke="#000000" points="156.6729,-37.5 156.6729,-55.5 279.9629,-55.5 279.9629,-37.5 156.6729,-37.5"/>
<text text-anchor="middle" x="218.3179" y="-43.5" font-family="Helvetica,sans-Serif" font-size="10.00" fill="#000000">Parallel::Index::getIndex</text>
</a>
</g>
</g>
<!-- Node15&#45;&gt;Node18 -->
<g id="edge3" class="edge">
<title>Node15&#45;&gt;Node18</title>
<path fill="none" stroke="#191970" d="M120.9644,-57.5922C129.345,-56.6373 138.0175,-55.6492 146.5757,-54.6741"/>
<polygon fill="#191970" stroke="#191970" points="147.0057,-58.1479 156.5452,-53.5382 146.2132,-51.1929 147.0057,-58.1479"/>
</g>
<!-- Node19 -->
<g id="node5" class="node">
<title>Node19</title>
<g id="a_node5"><a xlink:href="functions_8h.html#a1b9e8aa9d3525074c19d2dbef96e59ea" target="_top" xlink:title=" ">
<polygon fill="#ffffff" stroke="#000000" points="159.1851,-.5 159.1851,-18.5 277.4507,-18.5 277.4507,-.5 159.1851,-.5"/>
<text text-anchor="middle" x="218.3179" y="-6.5" font-family="Helvetica,sans-Serif" font-size="10.00" fill="#000000">traceImagMultiplication</text>
</a>
</g>
</g>
<!-- Node15&#45;&gt;Node19 -->
<g id="edge4" class="edge">
<title>Node15&#45;&gt;Node19</title>
<path fill="none" stroke="#191970" d="M83.559,-55.3856C102.9867,-47.8659 131.4902,-37.0779 156.6729,-28.5 163.5966,-26.1416 170.9999,-23.7499 178.1875,-21.4953"/>
<polygon fill="#191970" stroke="#191970" points="179.2724,-24.8234 187.7896,-18.522 177.2018,-18.1366 179.2724,-24.8234"/>
</g>
</g>
</svg>
