<?xml version="1.0" encoding="UTF-8" standalone="no"?>
<!DOCTYPE svg PUBLIC "-//W3C//DTD SVG 1.1//EN"
 "http://www.w3.org/Graphics/SVG/1.1/DTD/svg11.dtd">
<!-- Generated by graphviz version 2.40.1 (20161225.0304)
 -->
<!-- Title: GLAC/observables/latticeactionchargedensity.h Pages: 1 -->
<svg width="874pt" height="192pt"
 viewBox="0.00 0.00 874.26 192.00" xmlns="http://www.w3.org/2000/svg" xmlns:xlink="http://www.w3.org/1999/xlink">
<g id="graph0" class="graph" transform="scale(1 1) rotate(0) translate(4 188)">
<title>GLAC/observables/latticeactionchargedensity.h</title>
<polygon fill="#ffffff" stroke="transparent" points="-4,4 -4,-188 870.2637,-188 870.2637,4 -4,4"/>
<!-- Node24 -->
<g id="node1" class="node">
<title>Node24</title>
<g id="a_node1"><a xlink:title=" ">
<polygon fill="#bfbfbf" stroke="#000000" points="417.603,-165.5 417.603,-183.5 642.9829,-183.5 642.9829,-165.5 417.603,-165.5"/>
<text text-anchor="middle" x="530.293" y="-171.5" font-family="Helvetica,sans-Serif" font-size="10.00" fill="#000000">GLAC/observables/latticeactionchargedensity.h</text>
</a>
</g>
</g>
<!-- Node25 -->
<g id="node2" class="node">
<title>Node25</title>
<g id="a_node2"><a xlink:href="observables_8h.html" target="_top" xlink:title=" ">
<polygon fill="#ffffff" stroke="#000000" points="447.8081,-110.5 447.8081,-128.5 612.7778,-128.5 612.7778,-110.5 447.8081,-110.5"/>
<text text-anchor="middle" x="530.293" y="-116.5" font-family="Helvetica,sans-Serif" font-size="10.00" fill="#000000">GLAC/observables/observables.h</text>
</a>
</g>
</g>
<!-- Node24&#45;&gt;Node25 -->
<g id="edge1" class="edge">
<title>Node24&#45;&gt;Node25</title>
<path fill="none" stroke="#191970" d="M523.8298,-155.383C523.195,-146.3738 523.6138,-136.0373 525.0862,-128.7795"/>
<polygon fill="#191970" stroke="#191970" points="520.3738,-155.949 525.1266,-165.4179 527.316,-155.0517 520.3738,-155.949"/>
</g>
<!-- Node35 -->
<g id="node12" class="node">
<title>Node35</title>
<g id="a_node12"><a xlink:href="latticeactionchargedensity_8cpp.html" target="_top" xlink:title=" ">
<polygon fill="#ffffff" stroke="#000000" points="630.3223,-110.5 630.3223,-128.5 866.2637,-128.5 866.2637,-110.5 630.3223,-110.5"/>
<text text-anchor="middle" x="748.293" y="-116.5" font-family="Helvetica,sans-Serif" font-size="10.00" fill="#000000">GLAC/observables/latticeactionchargedensity.cpp</text>
</a>
</g>
</g>
<!-- Node24&#45;&gt;Node35 -->
<g id="edge15" class="edge">
<title>Node24&#45;&gt;Node35</title>
<path fill="none" stroke="#191970" d="M576.2186,-162.9133C616.8722,-152.6566 675.3729,-137.8973 712.6036,-128.5042"/>
<polygon fill="#191970" stroke="#191970" points="575.1312,-159.5779 566.2912,-165.4179 576.8436,-166.3652 575.1312,-159.5779"/>
</g>
<!-- Node25&#45;&gt;Node24 -->
<g id="edge11" class="edge">
<title>Node25&#45;&gt;Node24</title>
<path fill="none" stroke="#191970" d="M536.7732,-138.8632C537.3888,-147.8962 536.9508,-158.2164 535.4593,-165.4179"/>
<polygon fill="#191970" stroke="#191970" points="540.2252,-138.2621 535.4997,-128.7795 533.2803,-139.1392 540.2252,-138.2621"/>
</g>
<!-- Node26 -->
<g id="node3" class="node">
<title>Node26</title>
<g id="a_node3"><a xlink:href="system_8h.html" target="_top" xlink:title=" ">
<polygon fill="#ffffff" stroke="#000000" points="110.2832,-55.5 110.2832,-73.5 196.3027,-73.5 196.3027,-55.5 110.2832,-55.5"/>
<text text-anchor="middle" x="153.293" y="-61.5" font-family="Helvetica,sans-Serif" font-size="10.00" fill="#000000">GLAC/system.h</text>
</a>
</g>
</g>
<!-- Node25&#45;&gt;Node26 -->
<g id="edge2" class="edge">
<title>Node25&#45;&gt;Node26</title>
<path fill="none" stroke="#191970" d="M458.2996,-108.997C380.852,-97.6983 260.2375,-80.102 196.3624,-70.7833"/>
<polygon fill="#191970" stroke="#191970" points="458.0607,-112.4991 468.4612,-110.4795 459.0713,-105.5724 458.0607,-112.4991"/>
</g>
<!-- Node29 -->
<g id="node6" class="node">
<title>Node29</title>
<g id="a_node6"><a xlink:href="mastersampler_8h.html" target="_top" xlink:title=" ">
<polygon fill="#ffffff" stroke="#000000" points="229.978,-55.5 229.978,-73.5 406.6079,-73.5 406.6079,-55.5 229.978,-55.5"/>
<text text-anchor="middle" x="318.293" y="-61.5" font-family="Helvetica,sans-Serif" font-size="10.00" fill="#000000">GLAC/observables/mastersampler.h</text>
</a>
</g>
</g>
<!-- Node25&#45;&gt;Node29 -->
<g id="edge5" class="edge">
<title>Node25&#45;&gt;Node29</title>
<path fill="none" stroke="#191970" d="M480.2693,-107.9784C439.0677,-97.7192 382.1669,-82.9172 347.85,-73.5042"/>
<polygon fill="#191970" stroke="#191970" points="479.571,-111.4111 490.1192,-110.4179 481.2539,-104.6164 479.571,-111.4111"/>
</g>
<!-- Node31 -->
<g id="node8" class="node">
<title>Node31</title>
<g id="a_node8"><a xlink:href="mastersamplertopcxyz_8h.html" target="_top" xlink:title=" ">
<polygon fill="#ffffff" stroke="#000000" points="424.7539,-55.5 424.7539,-73.5 635.832,-73.5 635.832,-55.5 424.7539,-55.5"/>
<text text-anchor="middle" x="530.293" y="-61.5" font-family="Helvetica,sans-Serif" font-size="10.00" fill="#000000">GLAC/observables/mastersamplertopcxyz.h</text>
</a>
</g>
</g>
<!-- Node25&#45;&gt;Node31 -->
<g id="edge8" class="edge">
<title>Node25&#45;&gt;Node31</title>
<path fill="none" stroke="#191970" d="M523.8298,-100.383C523.195,-91.3738 523.6138,-81.0373 525.0862,-73.7795"/>
<polygon fill="#191970" stroke="#191970" points="520.3738,-100.949 525.1266,-110.4179 527.316,-100.0517 520.3738,-100.949"/>
</g>
<!-- Node33 -->
<g id="node10" class="node">
<title>Node33</title>
<g id="a_node10"><a xlink:href="supersampler_8h.html" target="_top" xlink:title=" ">
<polygon fill="#ffffff" stroke="#000000" points="653.7515,-55.5 653.7515,-73.5 824.8345,-73.5 824.8345,-55.5 653.7515,-55.5"/>
<text text-anchor="middle" x="739.293" y="-61.5" font-family="Helvetica,sans-Serif" font-size="10.00" fill="#000000">GLAC/observables/supersampler.h</text>
</a>
</g>
</g>
<!-- Node25&#45;&gt;Node33 -->
<g id="edge12" class="edge">
<title>Node25&#45;&gt;Node33</title>
<path fill="none" stroke="#191970" d="M569.652,-107.6515C606.9803,-97.4068 662.5909,-82.8177 699.9269,-73.5042"/>
<polygon fill="#191970" stroke="#191970" points="568.3456,-104.3813 559.6387,-110.4179 570.2097,-111.1285 568.3456,-104.3813"/>
</g>
<!-- Node27 -->
<g id="node4" class="node">
<title>Node27</title>
<g id="a_node4"><a xlink:href="main_8cpp.html" target="_top" xlink:title=" ">
<polygon fill="#ffffff" stroke="#000000" points="0,-.5 0,-18.5 86.5859,-18.5 86.5859,-.5 0,-.5"/>
<text text-anchor="middle" x="43.293" y="-6.5" font-family="Helvetica,sans-Serif" font-size="10.00" fill="#000000">GLAC/main.cpp</text>
</a>
</g>
</g>
<!-- Node26&#45;&gt;Node27 -->
<g id="edge3" class="edge">
<title>Node26&#45;&gt;Node27</title>
<path fill="none" stroke="#191970" d="M126.1326,-50.9198C105.9926,-40.8498 79.0885,-27.3977 61.4842,-18.5956"/>
<polygon fill="#191970" stroke="#191970" points="124.6192,-54.0762 135.1287,-55.4179 127.7497,-47.8152 124.6192,-54.0762"/>
</g>
<!-- Node28 -->
<g id="node5" class="node">
<title>Node28</title>
<g id="a_node5"><a xlink:href="system_8cpp.html" target="_top" xlink:title=" ">
<polygon fill="#ffffff" stroke="#000000" points="105.0024,-.5 105.0024,-18.5 201.5835,-18.5 201.5835,-.5 105.0024,-.5"/>
<text text-anchor="middle" x="153.293" y="-6.5" font-family="Helvetica,sans-Serif" font-size="10.00" fill="#000000">GLAC/system.cpp</text>
</a>
</g>
</g>
<!-- Node26&#45;&gt;Node28 -->
<g id="edge4" class="edge">
<title>Node26&#45;&gt;Node28</title>
<path fill="none" stroke="#191970" d="M153.293,-45.383C153.293,-36.3738 153.293,-26.0373 153.293,-18.7795"/>
<polygon fill="#191970" stroke="#191970" points="149.7931,-45.4178 153.293,-55.4179 156.7931,-45.4179 149.7931,-45.4178"/>
</g>
<!-- Node29&#45;&gt;Node25 -->
<g id="edge6" class="edge">
<title>Node29&#45;&gt;Node25</title>
<path fill="none" stroke="#191970" d="M367.9765,-75.9369C409.0913,-86.171 466.0107,-100.9753 500.4518,-110.4179"/>
<polygon fill="#191970" stroke="#191970" points="368.6983,-72.51 358.1502,-73.5042 367.016,-79.3049 368.6983,-72.51"/>
</g>
<!-- Node30 -->
<g id="node7" class="node">
<title>Node30</title>
<g id="a_node7"><a xlink:href="mastersampler_8cpp.html" target="_top" xlink:title=" ">
<polygon fill="#ffffff" stroke="#000000" points="219.6973,-.5 219.6973,-18.5 406.8887,-18.5 406.8887,-.5 219.6973,-.5"/>
<text text-anchor="middle" x="313.293" y="-6.5" font-family="Helvetica,sans-Serif" font-size="10.00" fill="#000000">GLAC/observables/mastersampler.cpp</text>
</a>
</g>
</g>
<!-- Node29&#45;&gt;Node30 -->
<g id="edge7" class="edge">
<title>Node29&#45;&gt;Node30</title>
<path fill="none" stroke="#191970" d="M316.5551,-45.383C315.736,-36.3738 314.7964,-26.0373 314.1366,-18.7795"/>
<polygon fill="#191970" stroke="#191970" points="313.0762,-45.7758 317.4673,-55.4179 320.0475,-45.142 313.0762,-45.7758"/>
</g>
<!-- Node31&#45;&gt;Node25 -->
<g id="edge9" class="edge">
<title>Node31&#45;&gt;Node25</title>
<path fill="none" stroke="#191970" d="M536.7732,-83.8632C537.3888,-92.8962 536.9508,-103.2164 535.4593,-110.4179"/>
<polygon fill="#191970" stroke="#191970" points="540.2252,-83.2621 535.4997,-73.7795 533.2803,-84.1392 540.2252,-83.2621"/>
</g>
<!-- Node32 -->
<g id="node9" class="node">
<title>Node32</title>
<g id="a_node9"><a xlink:href="mastersamplertopcxyz_8cpp.html" target="_top" xlink:title=" ">
<polygon fill="#ffffff" stroke="#000000" points="424.4731,-.5 424.4731,-18.5 646.1128,-18.5 646.1128,-.5 424.4731,-.5"/>
<text text-anchor="middle" x="535.293" y="-6.5" font-family="Helvetica,sans-Serif" font-size="10.00" fill="#000000">GLAC/observables/mastersamplertopcxyz.cpp</text>
</a>
</g>
</g>
<!-- Node31&#45;&gt;Node32 -->
<g id="edge10" class="edge">
<title>Node31&#45;&gt;Node32</title>
<path fill="none" stroke="#191970" d="M532.0309,-45.383C532.8499,-36.3738 533.7896,-26.0373 534.4494,-18.7795"/>
<polygon fill="#191970" stroke="#191970" points="528.5384,-45.142 531.1186,-55.4179 535.5097,-45.7758 528.5384,-45.142"/>
</g>
<!-- Node33&#45;&gt;Node25 -->
<g id="edge13" class="edge">
<title>Node33&#45;&gt;Node25</title>
<path fill="none" stroke="#191970" d="M700.2453,-76.263C663.0191,-86.4834 607.4089,-101.0751 569.9714,-110.4179"/>
<polygon fill="#191970" stroke="#191970" points="701.5208,-79.5417 710.2271,-73.5042 699.656,-72.7947 701.5208,-79.5417"/>
</g>
<!-- Node34 -->
<g id="node11" class="node">
<title>Node34</title>
<g id="a_node11"><a xlink:href="supersampler_8cpp.html" target="_top" xlink:title=" ">
<polygon fill="#ffffff" stroke="#000000" points="664.4707,-.5 664.4707,-18.5 846.1152,-18.5 846.1152,-.5 664.4707,-.5"/>
<text text-anchor="middle" x="755.293" y="-6.5" font-family="Helvetica,sans-Serif" font-size="10.00" fill="#000000">GLAC/observables/supersampler.cpp</text>
</a>
</g>
</g>
<!-- Node33&#45;&gt;Node34 -->
<g id="edge14" class="edge">
<title>Node33&#45;&gt;Node34</title>
<path fill="none" stroke="#191970" d="M744.768,-45.6796C747.4089,-36.6014 750.4589,-26.1171 752.5935,-18.7795"/>
<polygon fill="#191970" stroke="#191970" points="741.3677,-44.8382 741.935,-55.4179 748.0891,-46.7936 741.3677,-44.8382"/>
</g>
</g>
</svg>
