<?xml version="1.0" encoding="UTF-8" standalone="no"?>
<!DOCTYPE svg PUBLIC "-//W3C//DTD SVG 1.1//EN"
 "http://www.w3.org/Graphics/SVG/1.1/DTD/svg11.dtd">
<!-- Generated by graphviz version 2.40.1 (20161225.0304)
 -->
<!-- Title: imagTrace Pages: 1 -->
<svg width="246pt" height="289pt"
 viewBox="0.00 0.00 246.27 289.00" xmlns="http://www.w3.org/2000/svg" xmlns:xlink="http://www.w3.org/1999/xlink">
<g id="graph0" class="graph" transform="scale(1 1) rotate(0) translate(4 285)">
<title>imagTrace</title>
<polygon fill="#ffffff" stroke="transparent" points="-4,4 -4,-285 242.2686,-285 242.2686,4 -4,4"/>
<!-- Node7 -->
<g id="node1" class="node">
<title>Node7</title>
<g id="a_node1"><a xlink:title=" ">
<polygon fill="#bfbfbf" stroke="#000000" points="175.3984,-131.5 175.3984,-149.5 238.2686,-149.5 238.2686,-131.5 175.3984,-131.5"/>
<text text-anchor="middle" x="206.8335" y="-137.5" font-family="Helvetica,sans-Serif" font-size="10.00" fill="#000000">imagTrace</text>
</a>
</g>
</g>
<!-- Node8 -->
<g id="node2" class="node">
<title>Node8</title>
<g id="a_node2"><a xlink:href="class_wilson_gauge_action.html#a43cf939cd53495b7225fbeaa8a0ff6e8" target="_top" xlink:title="getActionDerivative, computes the derivative of the lattice in given direction.">
<polygon fill="#ffffff" stroke="#000000" points="15.0098,-252.5 15.0098,-280.5 124.3887,-280.5 124.3887,-252.5 15.0098,-252.5"/>
<text text-anchor="start" x="23.0098" y="-268.5" font-family="Helvetica,sans-Serif" font-size="10.00" fill="#000000">WilsonGaugeAction::</text>
<text text-anchor="middle" x="69.6992" y="-258.5" font-family="Helvetica,sans-Serif" font-size="10.00" fill="#000000">getActionDerivative</text>
</a>
</g>
</g>
<!-- Node7&#45;&gt;Node8 -->
<g id="edge1" class="edge">
<title>Node7&#45;&gt;Node8</title>
<path fill="none" stroke="#191970" d="M199.3359,-159.0299C189.1087,-182.0518 168.6512,-221.0336 139.3984,-243.5 134.8508,-246.9926 129.7483,-249.9681 124.4265,-252.5002"/>
<polygon fill="#191970" stroke="#191970" points="202.6144,-160.2639 203.3098,-149.6919 196.1734,-157.5228 202.6144,-160.2639"/>
</g>
<!-- Node9 -->
<g id="node3" class="node">
<title>Node9</title>
<g id="a_node3"><a xlink:href="class_energy_density.html#ae8e5e29257104d881bcabeadc3b2c9e7" target="_top" xlink:title="Correlator::calculate calculates a observable.">
<polygon fill="#ffffff" stroke="#000000" points="6.6724,-215.5 6.6724,-233.5 132.7261,-233.5 132.7261,-215.5 6.6724,-215.5"/>
<text text-anchor="middle" x="69.6992" y="-221.5" font-family="Helvetica,sans-Serif" font-size="10.00" fill="#000000">EnergyDensity::calculate</text>
</a>
</g>
</g>
<!-- Node7&#45;&gt;Node9 -->
<g id="edge2" class="edge">
<title>Node7&#45;&gt;Node9</title>
<path fill="none" stroke="#191970" d="M193.6669,-157.7346C181.2619,-172.7895 161.3435,-194.1184 139.3984,-206.5 132.8677,-210.1847 125.5695,-213.131 118.2224,-215.4826"/>
<polygon fill="#191970" stroke="#191970" points="196.5662,-159.7124 200.0611,-149.7106 191.0918,-155.35 196.5662,-159.7124"/>
</g>
<!-- Node10 -->
<g id="node4" class="node">
<title>Node10</title>
<g id="a_node4"><a xlink:href="class_lattice_action_charge_density.html#a3dddc75188042c645fbdd1c8b3e80c8a" target="_top" xlink:title="Correlator::calculate calculates a observable.">
<polygon fill="#ffffff" stroke="#000000" points="0,-168.5 0,-196.5 139.3984,-196.5 139.3984,-168.5 0,-168.5"/>
<text text-anchor="start" x="8" y="-184.5" font-family="Helvetica,sans-Serif" font-size="10.00" fill="#000000">LatticeActionChargeDensity</text>
<text text-anchor="middle" x="69.6992" y="-174.5" font-family="Helvetica,sans-Serif" font-size="10.00" fill="#000000">::calculate</text>
</a>
</g>
</g>
<!-- Node7&#45;&gt;Node10 -->
<g id="edge3" class="edge">
<title>Node7&#45;&gt;Node10</title>
<path fill="none" stroke="#191970" d="M167.684,-152.4903C151.4214,-157.471 132.4345,-163.2861 115.5275,-168.4642"/>
<polygon fill="#191970" stroke="#191970" points="168.8781,-155.7851 177.4148,-149.5101 166.8282,-149.092 168.8781,-155.7851"/>
</g>
<!-- Node11 -->
<g id="node5" class="node">
<title>Node11</title>
<g id="a_node5"><a xlink:href="class_master_sampler.html#ad3cc7e36498dbf4a39238de3ac59ae8b" target="_top" xlink:title="Correlator::calculate calculates a observable.">
<polygon fill="#ffffff" stroke="#000000" points="5.2881,-131.5 5.2881,-149.5 134.1104,-149.5 134.1104,-131.5 5.2881,-131.5"/>
<text text-anchor="middle" x="69.6992" y="-137.5" font-family="Helvetica,sans-Serif" font-size="10.00" fill="#000000">MasterSampler::calculate</text>
</a>
</g>
</g>
<!-- Node7&#45;&gt;Node11 -->
<g id="edge4" class="edge">
<title>Node7&#45;&gt;Node11</title>
<path fill="none" stroke="#191970" d="M165.1726,-140.5C155.4177,-140.5 144.7992,-140.5 134.3049,-140.5"/>
<polygon fill="#191970" stroke="#191970" points="165.3722,-144.0001 175.3721,-140.5 165.3721,-137.0001 165.3722,-144.0001"/>
</g>
<!-- Node12 -->
<g id="node6" class="node">
<title>Node12</title>
<g id="a_node6"><a xlink:href="class_master_sampler_topc_x_y_z.html#a0ea80ad9935db791f00461b7dfd548b7" target="_top" xlink:title="Correlator::calculate calculates a observable.">
<polygon fill="#ffffff" stroke="#000000" points="7.5146,-84.5 7.5146,-112.5 131.8838,-112.5 131.8838,-84.5 7.5146,-84.5"/>
<text text-anchor="start" x="15.5146" y="-100.5" font-family="Helvetica,sans-Serif" font-size="10.00" fill="#000000">MasterSamplerTopcXYZ</text>
<text text-anchor="middle" x="69.6992" y="-90.5" font-family="Helvetica,sans-Serif" font-size="10.00" fill="#000000">::calculate</text>
</a>
</g>
</g>
<!-- Node7&#45;&gt;Node12 -->
<g id="edge5" class="edge">
<title>Node7&#45;&gt;Node12</title>
<path fill="none" stroke="#191970" d="M167.684,-128.5097C151.4214,-123.529 132.4345,-117.7139 115.5275,-112.5358"/>
<polygon fill="#191970" stroke="#191970" points="166.8282,-131.908 177.4148,-131.4899 168.8781,-125.2149 166.8282,-131.908"/>
</g>
<!-- Node13 -->
<g id="node7" class="node">
<title>Node13</title>
<g id="a_node7"><a xlink:href="class_super_sampler.html#a7e1457583270077c4fbcb288ea9b954c" target="_top" xlink:title="Correlator::calculate calculates a observable.">
<polygon fill="#ffffff" stroke="#000000" points="7.2266,-47.5 7.2266,-65.5 132.1719,-65.5 132.1719,-47.5 7.2266,-47.5"/>
<text text-anchor="middle" x="69.6992" y="-53.5" font-family="Helvetica,sans-Serif" font-size="10.00" fill="#000000">SuperSampler::calculate</text>
</a>
</g>
</g>
<!-- Node7&#45;&gt;Node13 -->
<g id="edge6" class="edge">
<title>Node7&#45;&gt;Node13</title>
<path fill="none" stroke="#191970" d="M193.5724,-123.6025C181.1041,-108.8267 161.1459,-87.853 139.3984,-75.5 132.2008,-71.4116 124.0817,-68.1684 115.9947,-65.6063"/>
<polygon fill="#191970" stroke="#191970" points="190.967,-125.9455 200.005,-131.4741 196.3874,-121.516 190.967,-125.9455"/>
</g>
<!-- Node14 -->
<g id="node8" class="node">
<title>Node14</title>
<g id="a_node8"><a xlink:href="class_topological_charge.html#a8ed78c28c3484df04b1cb24187de2f5b" target="_top" xlink:title="Correlator::calculate calculates a observable.">
<polygon fill="#ffffff" stroke="#000000" points="17.5049,-.5 17.5049,-28.5 121.8936,-28.5 121.8936,-.5 17.5049,-.5"/>
<text text-anchor="start" x="25.5049" y="-16.5" font-family="Helvetica,sans-Serif" font-size="10.00" fill="#000000">TopologicalCharge::</text>
<text text-anchor="middle" x="69.6992" y="-6.5" font-family="Helvetica,sans-Serif" font-size="10.00" fill="#000000">calculate</text>
</a>
</g>
</g>
<!-- Node7&#45;&gt;Node14 -->
<g id="edge7" class="edge">
<title>Node7&#45;&gt;Node14</title>
<path fill="none" stroke="#191970" d="M199.2427,-122.2098C188.918,-99.4738 168.3587,-60.9358 139.3984,-38.5 134.1376,-34.4244 128.1382,-31.0142 121.9173,-28.1674"/>
<polygon fill="#191970" stroke="#191970" points="196.0566,-123.6599 203.2596,-131.4295 202.474,-120.8638 196.0566,-123.6599"/>
</g>
</g>
</svg>
