<?xml version="1.0" encoding="UTF-8" standalone="no"?>
<!DOCTYPE svg PUBLIC "-//W3C//DTD SVG 1.1//EN"
 "http://www.w3.org/Graphics/SVG/1.1/DTD/svg11.dtd">
<!-- Generated by graphviz version 2.40.1 (20161225.0304)
 -->
<!-- Title: GluonicLQCD/math/latticemath.h Pages: 1 -->
<svg width="317pt" height="247pt"
 viewBox="0.00 0.00 316.85 247.00" xmlns="http://www.w3.org/2000/svg" xmlns:xlink="http://www.w3.org/1999/xlink">
<g id="graph0" class="graph" transform="scale(1 1) rotate(0) translate(4 243)">
<title>GluonicLQCD/math/latticemath.h</title>
<polygon fill="#ffffff" stroke="transparent" points="-4,4 -4,-243 312.8535,-243 312.8535,4 -4,4"/>
<!-- Node0 -->
<g id="node1" class="node">
<title>Node0</title>
<g id="a_node1"><a xlink:title=" ">
<polygon fill="#bfbfbf" stroke="#000000" points="28.7505,-220.5 28.7505,-238.5 190.9224,-238.5 190.9224,-220.5 28.7505,-220.5"/>
<text text-anchor="middle" x="109.8364" y="-226.5" font-family="Helvetica,sans-Serif" font-size="10.00" fill="#000000">GluonicLQCD/math/latticemath.h</text>
</a>
</g>
</g>
<!-- Node1 -->
<g id="node2" class="node">
<title>Node1</title>
<g id="a_node2"><a xlink:href="su3_8h.html" target="_top" xlink:title=" ">
<polygon fill="#ffffff" stroke="#000000" points="40.8194,-110.5 40.8194,-128.5 146.8535,-128.5 146.8535,-110.5 40.8194,-110.5"/>
<text text-anchor="middle" x="93.8364" y="-116.5" font-family="Helvetica,sans-Serif" font-size="10.00" fill="#000000">math/matrices/su3.h</text>
</a>
</g>
</g>
<!-- Node0&#45;&gt;Node1 -->
<g id="edge1" class="edge">
<title>Node0&#45;&gt;Node1</title>
<path fill="none" stroke="#191970" d="M108.5271,-220.4982C105.937,-202.6913 100.1088,-162.6225 96.6221,-138.6515"/>
<polygon fill="#191970" stroke="#191970" points="100.0669,-138.0182 95.1639,-128.6261 93.1398,-139.0258 100.0669,-138.0182"/>
</g>
<!-- Node2 -->
<g id="node3" class="node">
<title>Node2</title>
<g id="a_node3"><a xlink:href="complex_8h.html" target="_top" xlink:title=" ">
<polygon fill="#ffffff" stroke="#000000" points="90.5435,-55.5 90.5435,-73.5 177.1294,-73.5 177.1294,-55.5 90.5435,-55.5"/>
<text text-anchor="middle" x="133.8364" y="-61.5" font-family="Helvetica,sans-Serif" font-size="10.00" fill="#000000">math/complex.h</text>
</a>
</g>
</g>
<!-- Node0&#45;&gt;Node2 -->
<g id="edge6" class="edge">
<title>Node0&#45;&gt;Node2</title>
<path fill="none" stroke="#191970" d="M58.4756,-220.4925C37.5453,-214.0217 15.3645,-202.9411 2.8364,-184 -1.8221,-176.9568 .8077,-173.1971 2.8364,-165 9.4753,-138.175 11.6654,-128.8887 31.8364,-110 48.061,-94.8069 70.2075,-84.097 89.7192,-76.9017"/>
<polygon fill="#191970" stroke="#191970" points="91.0489,-80.1449 99.3418,-73.551 88.747,-73.5342 91.0489,-80.1449"/>
</g>
<!-- Node4 -->
<g id="node5" class="node">
<title>Node4</title>
<g id="a_node5"><a xlink:href="su2_8h.html" target="_top" xlink:title=" ">
<polygon fill="#ffffff" stroke="#000000" points="202.8194,-110.5 202.8194,-128.5 308.8535,-128.5 308.8535,-110.5 202.8194,-110.5"/>
<text text-anchor="middle" x="255.8364" y="-116.5" font-family="Helvetica,sans-Serif" font-size="10.00" fill="#000000">math/matrices/su2.h</text>
</a>
</g>
</g>
<!-- Node0&#45;&gt;Node4 -->
<g id="edge4" class="edge">
<title>Node0&#45;&gt;Node4</title>
<path fill="none" stroke="#191970" d="M168.7363,-220.4386C192.7435,-213.969 218.9901,-202.9041 236.8364,-184 248.3447,-171.8096 252.9205,-152.9986 254.72,-138.8311"/>
<polygon fill="#191970" stroke="#191970" points="258.2231,-138.9569 255.6475,-128.6799 251.2521,-138.3199 258.2231,-138.9569"/>
</g>
<!-- Node5 -->
<g id="node6" class="node">
<title>Node5</title>
<g id="a_node6"><a xlink:href="links_8h.html" target="_top" xlink:title=" ">
<polygon fill="#ffffff" stroke="#000000" points="12.1592,-165.5 12.1592,-183.5 81.5137,-183.5 81.5137,-165.5 12.1592,-165.5"/>
<text text-anchor="middle" x="46.8364" y="-171.5" font-family="Helvetica,sans-Serif" font-size="10.00" fill="#000000">math/links.h</text>
</a>
</g>
</g>
<!-- Node0&#45;&gt;Node5 -->
<g id="edge7" class="edge">
<title>Node0&#45;&gt;Node5</title>
<path fill="none" stroke="#191970" d="M99.4333,-220.4179C90.0965,-212.2667 76.1831,-200.1201 65.0113,-190.3669"/>
<polygon fill="#191970" stroke="#191970" points="67.3006,-187.7194 57.4656,-183.7795 62.697,-192.9927 67.3006,-187.7194"/>
</g>
<!-- Node6 -->
<g id="node7" class="node">
<title>Node6</title>
<g id="a_node7"><a xlink:href="functions_8h.html" target="_top" xlink:title=" ">
<polygon fill="#ffffff" stroke="#000000" points="138.1494,-165.5 138.1494,-183.5 227.5235,-183.5 227.5235,-165.5 138.1494,-165.5"/>
<text text-anchor="middle" x="182.8364" y="-171.5" font-family="Helvetica,sans-Serif" font-size="10.00" fill="#000000">math/functions.h</text>
</a>
</g>
</g>
<!-- Node0&#45;&gt;Node6 -->
<g id="edge9" class="edge">
<title>Node0&#45;&gt;Node6</title>
<path fill="none" stroke="#191970" d="M121.8909,-220.4179C132.9198,-212.1084 149.4596,-199.6469 162.5271,-189.8015"/>
<polygon fill="#191970" stroke="#191970" points="164.6393,-192.5924 170.5201,-183.7795 160.4271,-187.0016 164.6393,-192.5924"/>
</g>
<!-- Node1&#45;&gt;Node2 -->
<g id="edge2" class="edge">
<title>Node1&#45;&gt;Node2</title>
<path fill="none" stroke="#191970" d="M100.4416,-110.4179C106.0244,-102.7415 114.1843,-91.5217 121.0405,-82.0945"/>
<polygon fill="#191970" stroke="#191970" points="124.0366,-83.9255 127.0877,-73.7795 118.3754,-79.8082 124.0366,-83.9255"/>
</g>
<!-- Node3 -->
<g id="node4" class="node">
<title>Node3</title>
<g id="a_node4"><a xlink:title=" ">
<polygon fill="#ffffff" stroke="#bfbfbf" points="106.6641,-.5 106.6641,-18.5 161.0088,-18.5 161.0088,-.5 106.6641,-.5"/>
<text text-anchor="middle" x="133.8364" y="-6.5" font-family="Helvetica,sans-Serif" font-size="10.00" fill="#000000">iostream</text>
</a>
</g>
</g>
<!-- Node2&#45;&gt;Node3 -->
<g id="edge3" class="edge">
<title>Node2&#45;&gt;Node3</title>
<path fill="none" stroke="#191970" d="M133.8364,-55.4179C133.8364,-48.2164 133.8364,-37.8962 133.8364,-28.8632"/>
<polygon fill="#191970" stroke="#191970" points="137.3365,-28.7794 133.8364,-18.7795 130.3365,-28.7795 137.3365,-28.7794"/>
</g>
<!-- Node4&#45;&gt;Node2 -->
<g id="edge5" class="edge">
<title>Node4&#45;&gt;Node2</title>
<path fill="none" stroke="#191970" d="M235.6906,-110.4179C215.9999,-101.5409 185.7979,-87.9253 163.3892,-77.823"/>
<polygon fill="#191970" stroke="#191970" points="164.5671,-74.5148 154.0122,-73.5956 161.6901,-80.8963 164.5671,-74.5148"/>
</g>
<!-- Node5&#45;&gt;Node1 -->
<g id="edge8" class="edge">
<title>Node5&#45;&gt;Node1</title>
<path fill="none" stroke="#191970" d="M54.5975,-165.4179C61.2926,-157.5833 71.1418,-146.0575 79.2975,-136.5137"/>
<polygon fill="#191970" stroke="#191970" points="82.071,-138.6556 85.9067,-128.7795 76.7493,-134.108 82.071,-138.6556"/>
</g>
<!-- Node6&#45;&gt;Node1 -->
<g id="edge10" class="edge">
<title>Node6&#45;&gt;Node1</title>
<path fill="none" stroke="#191970" d="M168.1399,-165.4179C154.3551,-156.8992 133.5087,-144.0166 117.4016,-134.0627"/>
<polygon fill="#191970" stroke="#191970" points="118.9015,-130.8753 108.5548,-128.5956 115.2216,-136.83 118.9015,-130.8753"/>
</g>
<!-- Node6&#45;&gt;Node2 -->
<g id="edge12" class="edge">
<title>Node6&#45;&gt;Node2</title>
<path fill="none" stroke="#191970" d="M179.146,-165.2469C174.0847,-152.6605 164.6148,-129.4787 155.8364,-110 151.7869,-101.0144 147.0555,-91.1542 143.0202,-82.9168"/>
<polygon fill="#191970" stroke="#191970" points="146.1038,-81.2565 138.5359,-73.8418 139.8282,-84.3575 146.1038,-81.2565"/>
</g>
<!-- Node6&#45;&gt;Node4 -->
<g id="edge11" class="edge">
<title>Node6&#45;&gt;Node4</title>
<path fill="none" stroke="#191970" d="M194.8909,-165.4179C205.9198,-157.1084 222.4596,-144.6469 235.5271,-134.8015"/>
<polygon fill="#191970" stroke="#191970" points="237.6393,-137.5924 243.5201,-128.7795 233.4271,-132.0016 237.6393,-137.5924"/>
</g>
</g>
</svg>
