<?xml version="1.0" encoding="UTF-8" standalone="no"?>
<!DOCTYPE svg PUBLIC "-//W3C//DTD SVG 1.1//EN"
 "http://www.w3.org/Graphics/SVG/1.1/DTD/svg11.dtd">
<!-- Generated by graphviz version 2.40.1 (20161225.0304)
 -->
<!-- Title: GluonicLQCD/math/lattice.h Pages: 1 -->
<svg width="677pt" height="247pt"
 viewBox="0.00 0.00 677.39 247.00" xmlns="http://www.w3.org/2000/svg" xmlns:xlink="http://www.w3.org/1999/xlink">
<g id="graph0" class="graph" transform="scale(1 1) rotate(0) translate(4 243)">
<title>GluonicLQCD/math/lattice.h</title>
<polygon fill="#ffffff" stroke="transparent" points="-4,4 -4,-243 673.3886,-243 673.3886,4 -4,4"/>
<!-- Node0 -->
<g id="node1" class="node">
<title>Node0</title>
<g id="a_node1"><a xlink:title=" ">
<polygon fill="#bfbfbf" stroke="#000000" points="190.9061,-220.5 190.9061,-238.5 330.8466,-238.5 330.8466,-220.5 190.9061,-220.5"/>
<text text-anchor="middle" x="260.8763" y="-226.5" font-family="Helvetica,sans-Serif" font-size="10.00" fill="#000000">GluonicLQCD/math/lattice.h</text>
</a>
</g>
</g>
<!-- Node1 -->
<g id="node2" class="node">
<title>Node1</title>
<g id="a_node2"><a xlink:title=" ">
<polygon fill="#ffffff" stroke="#bfbfbf" points="48.2606,-110.5 48.2606,-128.5 91.4921,-128.5 91.4921,-110.5 48.2606,-110.5"/>
<text text-anchor="middle" x="69.8763" y="-116.5" font-family="Helvetica,sans-Serif" font-size="10.00" fill="#000000">vector</text>
</a>
</g>
</g>
<!-- Node0&#45;&gt;Node1 -->
<g id="edge1" class="edge">
<title>Node0&#45;&gt;Node1</title>
<path fill="none" stroke="#191970" d="M190.6072,-226.8402C123.1565,-222.6347 28.179,-211.8096 4.8763,-184 -10.808,-165.2822 15.7328,-145.8043 39.4727,-133.2177"/>
<polygon fill="#191970" stroke="#191970" points="41.3139,-136.2093 48.6732,-128.5875 38.1671,-129.9565 41.3139,-136.2093"/>
</g>
<!-- Node2 -->
<g id="node3" class="node">
<title>Node2</title>
<g id="a_node3"><a xlink:title=" ">
<polygon fill="#ffffff" stroke="#bfbfbf" points="340.6498,-110.5 340.6498,-128.5 381.1029,-128.5 381.1029,-110.5 340.6498,-110.5"/>
<text text-anchor="middle" x="360.8763" y="-116.5" font-family="Helvetica,sans-Serif" font-size="10.00" fill="#000000">mpi.h</text>
</a>
</g>
</g>
<!-- Node0&#45;&gt;Node2 -->
<g id="edge2" class="edge">
<title>Node0&#45;&gt;Node2</title>
<path fill="none" stroke="#191970" d="M269.0598,-220.4982C285.8339,-202.0467 324.3378,-159.6924 345.7733,-136.1134"/>
<polygon fill="#191970" stroke="#191970" points="348.4429,-138.3799 352.5799,-128.6261 343.2633,-133.6712 348.4429,-138.3799"/>
</g>
<!-- Node3 -->
<g id="node4" class="node">
<title>Node3</title>
<g id="a_node4"><a xlink:href="index_8h.html" target="_top" xlink:title=" ">
<polygon fill="#ffffff" stroke="#000000" points="13.7904,-165.5 13.7904,-183.5 125.9623,-183.5 125.9623,-165.5 13.7904,-165.5"/>
<text text-anchor="middle" x="69.8763" y="-171.5" font-family="Helvetica,sans-Serif" font-size="10.00" fill="#000000">parallelization/index.h</text>
</a>
</g>
</g>
<!-- Node0&#45;&gt;Node3 -->
<g id="edge3" class="edge">
<title>Node0&#45;&gt;Node3</title>
<path fill="none" stroke="#191970" d="M229.3366,-220.4179C197.0304,-211.115 146.6515,-196.608 111.1818,-186.3943"/>
<polygon fill="#191970" stroke="#191970" points="111.7236,-182.9081 101.1455,-183.5042 109.7865,-189.6348 111.7236,-182.9081"/>
</g>
<!-- Node4 -->
<g id="node5" class="node">
<title>Node4</title>
<g id="a_node5"><a xlink:href="neighbours_8h.html" target="_top" xlink:title=" ">
<polygon fill="#ffffff" stroke="#000000" points="144.0023,-165.5 144.0023,-183.5 281.7504,-183.5 281.7504,-165.5 144.0023,-165.5"/>
<text text-anchor="middle" x="212.8763" y="-171.5" font-family="Helvetica,sans-Serif" font-size="10.00" fill="#000000">parallelization/neighbours.h</text>
</a>
</g>
</g>
<!-- Node0&#45;&gt;Node4 -->
<g id="edge5" class="edge">
<title>Node0&#45;&gt;Node4</title>
<path fill="none" stroke="#191970" d="M252.9501,-220.4179C246.1126,-212.5833 236.0538,-201.0575 227.7247,-191.5137"/>
<polygon fill="#191970" stroke="#191970" points="230.1872,-189.0123 220.9748,-183.7795 224.9132,-193.6151 230.1872,-189.0123"/>
</g>
<!-- Node6 -->
<g id="node7" class="node">
<title>Node6</title>
<g id="a_node7"><a xlink:href="parallelparameters_8h.html" target="_top" xlink:title=" ">
<polygon fill="#ffffff" stroke="#000000" points="338.3348,-165.5 338.3348,-183.5 509.4179,-183.5 509.4179,-165.5 338.3348,-165.5"/>
<text text-anchor="middle" x="423.8763" y="-171.5" font-family="Helvetica,sans-Serif" font-size="10.00" fill="#000000">parallelization/parallelparameters.h</text>
</a>
</g>
</g>
<!-- Node0&#45;&gt;Node6 -->
<g id="edge8" class="edge">
<title>Node0&#45;&gt;Node6</title>
<path fill="none" stroke="#191970" d="M287.7925,-220.4179C315.0077,-211.2348 357.2516,-196.9807 387.4506,-186.7909"/>
<polygon fill="#191970" stroke="#191970" points="388.835,-190.0177 397.1911,-183.5042 386.597,-183.3851 388.835,-190.0177"/>
</g>
<!-- Node7 -->
<g id="node8" class="node">
<title>Node7</title>
<g id="a_node8"><a xlink:href="functions_8h.html" target="_top" xlink:title=" ">
<polygon fill="#ffffff" stroke="#000000" points="527.6942,-165.5 527.6942,-183.5 592.0585,-183.5 592.0585,-165.5 527.6942,-165.5"/>
<text text-anchor="middle" x="559.8763" y="-171.5" font-family="Helvetica,sans-Serif" font-size="10.00" fill="#000000">functions.h</text>
</a>
</g>
</g>
<!-- Node0&#45;&gt;Node7 -->
<g id="edge10" class="edge">
<title>Node0&#45;&gt;Node7</title>
<path fill="none" stroke="#191970" d="M317.1554,-220.4597C367.2805,-212.2076 442.8504,-199.2769 517.619,-184.1765"/>
<polygon fill="#191970" stroke="#191970" points="518.5809,-187.5526 527.6827,-182.1297 517.1857,-180.6931 518.5809,-187.5526"/>
</g>
<!-- Node3&#45;&gt;Node1 -->
<g id="edge4" class="edge">
<title>Node3&#45;&gt;Node1</title>
<path fill="none" stroke="#191970" d="M69.8763,-165.4179C69.8763,-158.2164 69.8763,-147.8962 69.8763,-138.8632"/>
<polygon fill="#191970" stroke="#191970" points="73.3764,-138.7794 69.8763,-128.7795 66.3764,-138.7795 73.3764,-138.7794"/>
</g>
<!-- Node4&#45;&gt;Node1 -->
<g id="edge7" class="edge">
<title>Node4&#45;&gt;Node1</title>
<path fill="none" stroke="#191970" d="M189.2628,-165.4179C165.2059,-156.1652 127.7637,-141.7644 101.2321,-131.5599"/>
<polygon fill="#191970" stroke="#191970" points="102.2383,-128.197 91.6484,-127.8739 99.7254,-134.7304 102.2383,-128.197"/>
</g>
<!-- Node5 -->
<g id="node6" class="node">
<title>Node5</title>
<g id="a_node6"><a xlink:href="neighbourlist_8h.html" target="_top" xlink:title=" ">
<polygon fill="#ffffff" stroke="#000000" points="172.3544,-110.5 172.3544,-128.5 253.3983,-128.5 253.3983,-110.5 172.3544,-110.5"/>
<text text-anchor="middle" x="212.8763" y="-116.5" font-family="Helvetica,sans-Serif" font-size="10.00" fill="#000000">neighbourlist.h</text>
</a>
</g>
</g>
<!-- Node4&#45;&gt;Node5 -->
<g id="edge6" class="edge">
<title>Node4&#45;&gt;Node5</title>
<path fill="none" stroke="#191970" d="M212.8763,-165.4179C212.8763,-158.2164 212.8763,-147.8962 212.8763,-138.8632"/>
<polygon fill="#191970" stroke="#191970" points="216.3764,-138.7794 212.8763,-128.7795 209.3764,-138.7795 216.3764,-138.7794"/>
</g>
<!-- Node6&#45;&gt;Node2 -->
<g id="edge9" class="edge">
<title>Node6&#45;&gt;Node2</title>
<path fill="none" stroke="#191970" d="M413.4732,-165.4179C404.1364,-157.2667 390.223,-145.1201 379.0512,-135.3669"/>
<polygon fill="#191970" stroke="#191970" points="381.3406,-132.7194 371.5055,-128.7795 376.7369,-137.9927 381.3406,-132.7194"/>
</g>
<!-- Node8 -->
<g id="node9" class="node">
<title>Node8</title>
<g id="a_node9"><a xlink:href="su3_8h.html" target="_top" xlink:title=" ">
<polygon fill="#ffffff" stroke="#000000" points="450.3641,-110.5 450.3641,-128.5 531.3886,-128.5 531.3886,-110.5 450.3641,-110.5"/>
<text text-anchor="middle" x="490.8763" y="-116.5" font-family="Helvetica,sans-Serif" font-size="10.00" fill="#000000">matrices/su3.h</text>
</a>
</g>
</g>
<!-- Node7&#45;&gt;Node8 -->
<g id="edge11" class="edge">
<title>Node7&#45;&gt;Node8</title>
<path fill="none" stroke="#191970" d="M548.4824,-165.4179C538.1571,-157.1876 522.7216,-144.8839 510.4266,-135.0836"/>
<polygon fill="#191970" stroke="#191970" points="512.5192,-132.2757 502.5178,-128.7795 508.156,-137.7495 512.5192,-132.2757"/>
</g>
<!-- Node9 -->
<g id="node10" class="node">
<title>Node9</title>
<g id="a_node10"><a xlink:href="complex_8h.html" target="_top" xlink:title=" ">
<polygon fill="#ffffff" stroke="#000000" points="516.5834,-55.5 516.5834,-73.5 603.1693,-73.5 603.1693,-55.5 516.5834,-55.5"/>
<text text-anchor="middle" x="559.8763" y="-61.5" font-family="Helvetica,sans-Serif" font-size="10.00" fill="#000000">math/complex.h</text>
</a>
</g>
</g>
<!-- Node7&#45;&gt;Node9 -->
<g id="edge16" class="edge">
<title>Node7&#45;&gt;Node9</title>
<path fill="none" stroke="#191970" d="M559.8763,-165.4982C559.8763,-147.6913 559.8763,-107.6225 559.8763,-83.6515"/>
<polygon fill="#191970" stroke="#191970" points="563.3764,-83.6261 559.8763,-73.6261 556.3764,-83.6262 563.3764,-83.6261"/>
</g>
<!-- Node11 -->
<g id="node12" class="node">
<title>Node11</title>
<g id="a_node12"><a xlink:href="su2_8h.html" target="_top" xlink:title=" ">
<polygon fill="#ffffff" stroke="#000000" points="588.3641,-110.5 588.3641,-128.5 669.3886,-128.5 669.3886,-110.5 588.3641,-110.5"/>
<text text-anchor="middle" x="628.8763" y="-116.5" font-family="Helvetica,sans-Serif" font-size="10.00" fill="#000000">matrices/su2.h</text>
</a>
</g>
</g>
<!-- Node7&#45;&gt;Node11 -->
<g id="edge14" class="edge">
<title>Node7&#45;&gt;Node11</title>
<path fill="none" stroke="#191970" d="M571.2703,-165.4179C581.5956,-157.1876 597.0311,-144.8839 609.3261,-135.0836"/>
<polygon fill="#191970" stroke="#191970" points="611.5967,-137.7495 617.2348,-128.7795 607.2335,-132.2757 611.5967,-137.7495"/>
</g>
<!-- Node8&#45;&gt;Node9 -->
<g id="edge12" class="edge">
<title>Node8&#45;&gt;Node9</title>
<path fill="none" stroke="#191970" d="M502.2703,-110.4179C512.5956,-102.1876 528.0311,-89.8839 540.3261,-80.0836"/>
<polygon fill="#191970" stroke="#191970" points="542.5967,-82.7495 548.2348,-73.7795 538.2335,-77.2757 542.5967,-82.7495"/>
</g>
<!-- Node10 -->
<g id="node11" class="node">
<title>Node10</title>
<g id="a_node11"><a xlink:title=" ">
<polygon fill="#ffffff" stroke="#bfbfbf" points="532.704,-.5 532.704,-18.5 587.0487,-18.5 587.0487,-.5 532.704,-.5"/>
<text text-anchor="middle" x="559.8763" y="-6.5" font-family="Helvetica,sans-Serif" font-size="10.00" fill="#000000">iostream</text>
</a>
</g>
</g>
<!-- Node9&#45;&gt;Node10 -->
<g id="edge13" class="edge">
<title>Node9&#45;&gt;Node10</title>
<path fill="none" stroke="#191970" d="M559.8763,-55.4179C559.8763,-48.2164 559.8763,-37.8962 559.8763,-28.8632"/>
<polygon fill="#191970" stroke="#191970" points="563.3764,-28.7794 559.8763,-18.7795 556.3764,-28.7795 563.3764,-28.7794"/>
</g>
<!-- Node11&#45;&gt;Node9 -->
<g id="edge15" class="edge">
<title>Node11&#45;&gt;Node9</title>
<path fill="none" stroke="#191970" d="M617.4824,-110.4179C607.1571,-102.1876 591.7216,-89.8839 579.4266,-80.0836"/>
<polygon fill="#191970" stroke="#191970" points="581.5192,-77.2757 571.5178,-73.7795 577.156,-82.7495 581.5192,-77.2757"/>
</g>
</g>
</svg>
