<?xml version="1.0" encoding="UTF-8" standalone="no"?>
<!DOCTYPE svg PUBLIC "-//W3C//DTD SVG 1.1//EN"
 "http://www.w3.org/Graphics/SVG/1.1/DTD/svg11.dtd">
<!-- Generated by graphviz version 2.40.1 (20161225.0304)
 -->
<!-- Title: GLAC/math/latticemath.h Pages: 1 -->
<svg width="292pt" height="247pt"
 viewBox="0.00 0.00 291.96 247.00" xmlns="http://www.w3.org/2000/svg" xmlns:xlink="http://www.w3.org/1999/xlink">
<g id="graph0" class="graph" transform="scale(1 1) rotate(0) translate(4 243)">
<title>GLAC/math/latticemath.h</title>
<polygon fill="#ffffff" stroke="transparent" points="-4,4 -4,-243 287.9648,-243 287.9648,4 -4,4"/>
<!-- Node0 -->
<g id="node1" class="node">
<title>Node0</title>
<g id="a_node1"><a xlink:title=" ">
<polygon fill="#bfbfbf" stroke="#000000" points="43.0908,-220.5 43.0908,-238.5 170.8047,-238.5 170.8047,-220.5 43.0908,-220.5"/>
<text text-anchor="middle" x="106.9477" y="-226.5" font-family="Helvetica,sans-Serif" font-size="10.00" fill="#000000">GLAC/math/latticemath.h</text>
</a>
</g>
</g>
<!-- Node1 -->
<g id="node2" class="node">
<title>Node1</title>
<g id="a_node2"><a xlink:href="su3_8h.html" target="_top" xlink:title=" ">
<polygon fill="#ffffff" stroke="#000000" points="15.9307,-110.5 15.9307,-128.5 121.9648,-128.5 121.9648,-110.5 15.9307,-110.5"/>
<text text-anchor="middle" x="68.9477" y="-116.5" font-family="Helvetica,sans-Serif" font-size="10.00" fill="#000000">math/matrices/su3.h</text>
</a>
</g>
</g>
<!-- Node0&#45;&gt;Node1 -->
<g id="edge1" class="edge">
<title>Node0&#45;&gt;Node1</title>
<path fill="none" stroke="#191970" d="M103.838,-220.4982C97.6587,-202.6108 83.7192,-162.2594 75.4516,-138.3271"/>
<polygon fill="#191970" stroke="#191970" points="78.6738,-136.9352 72.1004,-128.6261 72.0575,-139.2209 78.6738,-136.9352"/>
</g>
<!-- Node2 -->
<g id="node3" class="node">
<title>Node2</title>
<g id="a_node3"><a xlink:href="complex_8h.html" target="_top" xlink:title=" ">
<polygon fill="#ffffff" stroke="#000000" points="65.6548,-55.5 65.6548,-73.5 152.2407,-73.5 152.2407,-55.5 65.6548,-55.5"/>
<text text-anchor="middle" x="108.9477" y="-61.5" font-family="Helvetica,sans-Serif" font-size="10.00" fill="#000000">math/complex.h</text>
</a>
</g>
</g>
<!-- Node0&#45;&gt;Node2 -->
<g id="edge6" class="edge">
<title>Node0&#45;&gt;Node2</title>
<path fill="none" stroke="#191970" d="M88.5635,-220.3612C52.4146,-201.1349 -21.9882,-154.5921 6.9477,-110 18.0032,-92.9628 37.0871,-82.2503 55.7791,-75.5391"/>
<polygon fill="#191970" stroke="#191970" points="57.0488,-78.8065 65.4735,-72.3819 54.8812,-72.1506 57.0488,-78.8065"/>
</g>
<!-- Node4 -->
<g id="node5" class="node">
<title>Node4</title>
<g id="a_node5"><a xlink:href="su2_8h.html" target="_top" xlink:title=" ">
<polygon fill="#ffffff" stroke="#000000" points="177.9307,-110.5 177.9307,-128.5 283.9648,-128.5 283.9648,-110.5 177.9307,-110.5"/>
<text text-anchor="middle" x="230.9477" y="-116.5" font-family="Helvetica,sans-Serif" font-size="10.00" fill="#000000">math/matrices/su2.h</text>
</a>
</g>
</g>
<!-- Node0&#45;&gt;Node4 -->
<g id="edge4" class="edge">
<title>Node0&#45;&gt;Node4</title>
<path fill="none" stroke="#191970" d="M138.9974,-220.4544C159.2272,-213.3532 184.7028,-201.6662 201.9477,-184 214.264,-171.3828 221.8882,-152.6238 226.2086,-138.5844"/>
<polygon fill="#191970" stroke="#191970" points="229.6932,-139.1159 228.9918,-128.5443 222.9476,-137.2459 229.6932,-139.1159"/>
</g>
<!-- Node5 -->
<g id="node6" class="node">
<title>Node5</title>
<g id="a_node6"><a xlink:href="functions_8h.html" target="_top" xlink:title=" ">
<polygon fill="#ffffff" stroke="#000000" points="103.2607,-165.5 103.2607,-183.5 192.6348,-183.5 192.6348,-165.5 103.2607,-165.5"/>
<text text-anchor="middle" x="147.9477" y="-171.5" font-family="Helvetica,sans-Serif" font-size="10.00" fill="#000000">math/functions.h</text>
</a>
</g>
</g>
<!-- Node0&#45;&gt;Node5 -->
<g id="edge7" class="edge">
<title>Node0&#45;&gt;Node5</title>
<path fill="none" stroke="#191970" d="M113.7181,-220.4179C119.4994,-212.6624 127.977,-201.29 135.0488,-191.8035"/>
<polygon fill="#191970" stroke="#191970" points="137.8598,-193.8888 141.0303,-183.7795 132.2475,-189.7051 137.8598,-193.8888"/>
</g>
<!-- Node1&#45;&gt;Node2 -->
<g id="edge2" class="edge">
<title>Node1&#45;&gt;Node2</title>
<path fill="none" stroke="#191970" d="M75.5529,-110.4179C81.1357,-102.7415 89.2956,-91.5217 96.1518,-82.0945"/>
<polygon fill="#191970" stroke="#191970" points="99.1479,-83.9255 102.199,-73.7795 93.4867,-79.8082 99.1479,-83.9255"/>
</g>
<!-- Node3 -->
<g id="node4" class="node">
<title>Node3</title>
<g id="a_node4"><a xlink:title=" ">
<polygon fill="#ffffff" stroke="#bfbfbf" points="81.7754,-.5 81.7754,-18.5 136.1201,-18.5 136.1201,-.5 81.7754,-.5"/>
<text text-anchor="middle" x="108.9477" y="-6.5" font-family="Helvetica,sans-Serif" font-size="10.00" fill="#000000">iostream</text>
</a>
</g>
</g>
<!-- Node2&#45;&gt;Node3 -->
<g id="edge3" class="edge">
<title>Node2&#45;&gt;Node3</title>
<path fill="none" stroke="#191970" d="M108.9477,-55.4179C108.9477,-48.2164 108.9477,-37.8962 108.9477,-28.8632"/>
<polygon fill="#191970" stroke="#191970" points="112.4478,-28.7794 108.9477,-18.7795 105.4478,-28.7795 112.4478,-28.7794"/>
</g>
<!-- Node4&#45;&gt;Node2 -->
<g id="edge5" class="edge">
<title>Node4&#45;&gt;Node2</title>
<path fill="none" stroke="#191970" d="M210.8019,-110.4179C191.1112,-101.5409 160.9092,-87.9253 138.5005,-77.823"/>
<polygon fill="#191970" stroke="#191970" points="139.6784,-74.5148 129.1235,-73.5956 136.8014,-80.8963 139.6784,-74.5148"/>
</g>
<!-- Node5&#45;&gt;Node1 -->
<g id="edge8" class="edge">
<title>Node5&#45;&gt;Node1</title>
<path fill="none" stroke="#191970" d="M134.9025,-165.4179C122.7809,-156.9788 104.5078,-144.257 90.2671,-134.3426"/>
<polygon fill="#191970" stroke="#191970" points="92.2191,-131.4369 82.0124,-128.5956 88.2195,-137.1818 92.2191,-131.4369"/>
</g>
<!-- Node5&#45;&gt;Node2 -->
<g id="edge10" class="edge">
<title>Node5&#45;&gt;Node2</title>
<path fill="none" stroke="#191970" d="M146.075,-165.1411C143.3992,-152.4347 138.0138,-129.1173 130.9477,-110 127.5308,-100.7553 122.8768,-90.8634 118.7292,-82.672"/>
<polygon fill="#191970" stroke="#191970" points="121.7672,-80.9283 114.0384,-73.6816 115.5612,-84.1664 121.7672,-80.9283"/>
</g>
<!-- Node5&#45;&gt;Node4 -->
<g id="edge9" class="edge">
<title>Node5&#45;&gt;Node4</title>
<path fill="none" stroke="#191970" d="M161.6535,-165.4179C174.3889,-156.9788 193.5872,-144.257 208.549,-134.3426"/>
<polygon fill="#191970" stroke="#191970" points="210.819,-137.037 217.2216,-128.5956 206.9523,-131.2019 210.819,-137.037"/>
</g>
</g>
</svg>
