<?xml version="1.0" encoding="UTF-8" standalone="no"?>
<!DOCTYPE svg PUBLIC "-//W3C//DTD SVG 1.1//EN"
 "http://www.w3.org/Graphics/SVG/1.1/DTD/svg11.dtd">
<!-- Generated by graphviz version 2.40.1 (20161225.0304)
 -->
<!-- Title: sumRealTrace Pages: 1 -->
<svg width="264pt" height="195pt"
 viewBox="0.00 0.00 264.05 195.00" xmlns="http://www.w3.org/2000/svg" xmlns:xlink="http://www.w3.org/1999/xlink">
<g id="graph0" class="graph" transform="scale(1 1) rotate(0) translate(4 191)">
<title>sumRealTrace</title>
<polygon fill="#ffffff" stroke="transparent" points="-4,4 -4,-191 260.0518,-191 260.0518,4 -4,4"/>
<!-- Node117 -->
<g id="node1" class="node">
<title>Node117</title>
<g id="a_node1"><a xlink:title=" ">
<polygon fill="#bfbfbf" stroke="#000000" points="175.3984,-79.5 175.3984,-97.5 256.0518,-97.5 256.0518,-79.5 175.3984,-79.5"/>
<text text-anchor="middle" x="215.7251" y="-85.5" font-family="Helvetica,sans-Serif" font-size="10.00" fill="#000000">sumRealTrace</text>
</a>
</g>
</g>
<!-- Node118 -->
<g id="node2" class="node">
<title>Node118</title>
<g id="a_node2"><a xlink:href="class_lattice_action_charge_density.html#a3dddc75188042c645fbdd1c8b3e80c8a" target="_top" xlink:title="Correlator::calculate calculates a observable.">
<polygon fill="#ffffff" stroke="#000000" points="0,-158.5 0,-186.5 139.3984,-186.5 139.3984,-158.5 0,-158.5"/>
<text text-anchor="start" x="8" y="-174.5" font-family="Helvetica,sans-Serif" font-size="10.00" fill="#000000">LatticeActionChargeDensity</text>
<text text-anchor="middle" x="69.6992" y="-164.5" font-family="Helvetica,sans-Serif" font-size="10.00" fill="#000000">::calculate</text>
</a>
</g>
</g>
<!-- Node117&#45;&gt;Node118 -->
<g id="edge1" class="edge">
<title>Node117&#45;&gt;Node118</title>
<path fill="none" stroke="#191970" d="M199.3579,-104.4748C184.6893,-118.0475 162.0505,-137.228 139.3984,-149.5 133.2363,-152.8384 126.5048,-155.8039 119.7331,-158.4028"/>
<polygon fill="#191970" stroke="#191970" points="201.7762,-107.0051 206.6366,-97.5909 196.9663,-101.9193 201.7762,-107.0051"/>
</g>
<!-- Node119 -->
<g id="node3" class="node">
<title>Node119</title>
<g id="a_node3"><a xlink:href="class_master_sampler.html#ad3cc7e36498dbf4a39238de3ac59ae8b" target="_top" xlink:title="Correlator::calculate calculates a observable.">
<polygon fill="#ffffff" stroke="#000000" points="5.2881,-121.5 5.2881,-139.5 134.1104,-139.5 134.1104,-121.5 5.2881,-121.5"/>
<text text-anchor="middle" x="69.6992" y="-127.5" font-family="Helvetica,sans-Serif" font-size="10.00" fill="#000000">MasterSampler::calculate</text>
</a>
</g>
</g>
<!-- Node117&#45;&gt;Node119 -->
<g id="edge2" class="edge">
<title>Node117&#45;&gt;Node119</title>
<path fill="none" stroke="#191970" d="M178.6759,-100.5746C166.2348,-104.5157 152.2546,-108.8214 139.3984,-112.5 128.7048,-115.5599 117.0223,-118.6677 106.3312,-121.4204"/>
<polygon fill="#191970" stroke="#191970" points="179.8105,-103.8865 188.2725,-97.5112 177.6817,-97.2181 179.8105,-103.8865"/>
</g>
<!-- Node120 -->
<g id="node4" class="node">
<title>Node120</title>
<g id="a_node4"><a xlink:href="class_master_sampler_topc_x_y_z.html#a0ea80ad9935db791f00461b7dfd548b7" target="_top" xlink:title="Correlator::calculate calculates a observable.">
<polygon fill="#ffffff" stroke="#000000" points="7.5146,-74.5 7.5146,-102.5 131.8838,-102.5 131.8838,-74.5 7.5146,-74.5"/>
<text text-anchor="start" x="15.5146" y="-90.5" font-family="Helvetica,sans-Serif" font-size="10.00" fill="#000000">MasterSamplerTopcXYZ</text>
<text text-anchor="middle" x="69.6992" y="-80.5" font-family="Helvetica,sans-Serif" font-size="10.00" fill="#000000">::calculate</text>
</a>
</g>
</g>
<!-- Node117&#45;&gt;Node120 -->
<g id="edge3" class="edge">
<title>Node117&#45;&gt;Node120</title>
<path fill="none" stroke="#191970" d="M164.7476,-88.5C154.1829,-88.5 142.939,-88.5 132.0211,-88.5"/>
<polygon fill="#191970" stroke="#191970" points="165.0488,-92.0001 175.0487,-88.5 165.0487,-85.0001 165.0488,-92.0001"/>
</g>
<!-- Node121 -->
<g id="node5" class="node">
<title>Node121</title>
<g id="a_node5"><a xlink:href="class_plaquette.html#a40cae6fd587c14836bdf61e69c615a00" target="_top" xlink:title="Correlator::calculate calculates a observable.">
<polygon fill="#ffffff" stroke="#000000" points="18.0591,-37.5 18.0591,-55.5 121.3394,-55.5 121.3394,-37.5 18.0591,-37.5"/>
<text text-anchor="middle" x="69.6992" y="-43.5" font-family="Helvetica,sans-Serif" font-size="10.00" fill="#000000">Plaquette::calculate</text>
</a>
</g>
</g>
<!-- Node117&#45;&gt;Node121 -->
<g id="edge4" class="edge">
<title>Node117&#45;&gt;Node121</title>
<path fill="none" stroke="#191970" d="M176.7217,-76.5294C164.7653,-72.9184 151.5582,-68.9888 139.3984,-65.5 127.7044,-62.1448 114.8655,-58.6044 103.4283,-55.5008"/>
<polygon fill="#191970" stroke="#191970" points="175.8349,-79.9178 186.4203,-79.4709 177.8666,-73.2191 175.8349,-79.9178"/>
</g>
<!-- Node122 -->
<g id="node6" class="node">
<title>Node122</title>
<g id="a_node6"><a xlink:href="class_super_sampler.html#a7e1457583270077c4fbcb288ea9b954c" target="_top" xlink:title="Correlator::calculate calculates a observable.">
<polygon fill="#ffffff" stroke="#000000" points="7.2266,-.5 7.2266,-18.5 132.1719,-18.5 132.1719,-.5 7.2266,-.5"/>
<text text-anchor="middle" x="69.6992" y="-6.5" font-family="Helvetica,sans-Serif" font-size="10.00" fill="#000000">SuperSampler::calculate</text>
</a>
</g>
</g>
<!-- Node117&#45;&gt;Node122 -->
<g id="edge5" class="edge">
<title>Node117&#45;&gt;Node122</title>
<path fill="none" stroke="#191970" d="M199.0572,-72.1295C184.4459,-58.6267 162.0542,-39.8994 139.3984,-28.5 131.3317,-24.4412 122.2892,-21.1625 113.4578,-18.5462"/>
<polygon fill="#191970" stroke="#191970" points="197.0396,-75.0397 206.7041,-79.3811 201.8563,-69.9604 197.0396,-75.0397"/>
</g>
</g>
</svg>
