<?xml version="1.0" encoding="UTF-8" standalone="no"?>
<!DOCTYPE svg PUBLIC "-//W3C//DTD SVG 1.1//EN"
 "http://www.w3.org/Graphics/SVG/1.1/DTD/svg11.dtd">
<!-- Generated by graphviz version 2.40.1 (20161225.0304)
 -->
<!-- Title: GLAC/actions/luscheraction.h Pages: 1 -->
<svg width="526pt" height="192pt"
 viewBox="0.00 0.00 526.32 192.00" xmlns="http://www.w3.org/2000/svg" xmlns:xlink="http://www.w3.org/1999/xlink">
<g id="graph0" class="graph" transform="scale(1 1) rotate(0) translate(4 188)">
<title>GLAC/actions/luscheraction.h</title>
<polygon fill="#ffffff" stroke="transparent" points="-4,4 -4,-188 522.3247,-188 522.3247,4 -4,4"/>
<!-- Node14 -->
<g id="node1" class="node">
<title>Node14</title>
<g id="a_node1"><a xlink:title=" ">
<polygon fill="#bfbfbf" stroke="#000000" points="181.4263,-165.5 181.4263,-183.5 329.1597,-183.5 329.1597,-165.5 181.4263,-165.5"/>
<text text-anchor="middle" x="255.293" y="-171.5" font-family="Helvetica,sans-Serif" font-size="10.00" fill="#000000">GLAC/actions/luscheraction.h</text>
</a>
</g>
</g>
<!-- Node15 -->
<g id="node2" class="node">
<title>Node15</title>
<g id="a_node2"><a xlink:href="actions_8h.html" target="_top" xlink:title=" ">
<polygon fill="#ffffff" stroke="#000000" points="38.0444,-110.5 38.0444,-128.5 158.5415,-128.5 158.5415,-110.5 38.0444,-110.5"/>
<text text-anchor="middle" x="98.293" y="-116.5" font-family="Helvetica,sans-Serif" font-size="10.00" fill="#000000">GLAC/actions/actions.h</text>
</a>
</g>
</g>
<!-- Node14&#45;&gt;Node15 -->
<g id="edge1" class="edge">
<title>Node14&#45;&gt;Node15</title>
<path fill="none" stroke="#191970" d="M219.5797,-161.989C190.4542,-151.7858 150.0135,-137.6186 123.9959,-128.5042"/>
<polygon fill="#191970" stroke="#191970" points="218.7728,-165.4148 229.3676,-165.4179 221.0871,-158.8084 218.7728,-165.4148"/>
</g>
<!-- Node19 -->
<g id="node6" class="node">
<title>Node19</title>
<g id="a_node6"><a xlink:href="luscheraction_8cpp.html" target="_top" xlink:title=" ">
<polygon fill="#ffffff" stroke="#000000" points="176.1455,-110.5 176.1455,-128.5 334.4404,-128.5 334.4404,-110.5 176.1455,-110.5"/>
<text text-anchor="middle" x="255.293" y="-116.5" font-family="Helvetica,sans-Serif" font-size="10.00" fill="#000000">GLAC/actions/luscheraction.cpp</text>
</a>
</g>
</g>
<!-- Node14&#45;&gt;Node19 -->
<g id="edge5" class="edge">
<title>Node14&#45;&gt;Node19</title>
<path fill="none" stroke="#191970" d="M255.293,-155.383C255.293,-146.3738 255.293,-136.0373 255.293,-128.7795"/>
<polygon fill="#191970" stroke="#191970" points="251.7931,-155.4178 255.293,-165.4179 258.7931,-155.4179 251.7931,-155.4178"/>
</g>
<!-- Node20 -->
<g id="node7" class="node">
<title>Node20</title>
<g id="a_node7"><a xlink:href="performancetests_8cpp.html" target="_top" xlink:title=" ">
<polygon fill="#ffffff" stroke="#000000" points="352.2612,-110.5 352.2612,-128.5 518.3247,-128.5 518.3247,-110.5 352.2612,-110.5"/>
<text text-anchor="middle" x="435.293" y="-116.5" font-family="Helvetica,sans-Serif" font-size="10.00" fill="#000000">GLAC/tests/performancetests.cpp</text>
</a>
</g>
</g>
<!-- Node14&#45;&gt;Node20 -->
<g id="edge6" class="edge">
<title>Node14&#45;&gt;Node20</title>
<path fill="none" stroke="#191970" d="M294.9325,-162.3879C328.4128,-152.1578 375.6048,-137.7381 405.8246,-128.5042"/>
<polygon fill="#191970" stroke="#191970" points="293.557,-159.1484 285.0163,-165.4179 295.6026,-165.8428 293.557,-159.1484"/>
</g>
<!-- Node16 -->
<g id="node3" class="node">
<title>Node16</title>
<g id="a_node3"><a xlink:href="system_8h.html" target="_top" xlink:title=" ">
<polygon fill="#ffffff" stroke="#000000" points="55.2832,-55.5 55.2832,-73.5 141.3027,-73.5 141.3027,-55.5 55.2832,-55.5"/>
<text text-anchor="middle" x="98.293" y="-61.5" font-family="Helvetica,sans-Serif" font-size="10.00" fill="#000000">GLAC/system.h</text>
</a>
</g>
</g>
<!-- Node15&#45;&gt;Node16 -->
<g id="edge2" class="edge">
<title>Node15&#45;&gt;Node16</title>
<path fill="none" stroke="#191970" d="M98.293,-100.383C98.293,-91.3738 98.293,-81.0373 98.293,-73.7795"/>
<polygon fill="#191970" stroke="#191970" points="94.7931,-100.4178 98.293,-110.4179 101.7931,-100.4179 94.7931,-100.4178"/>
</g>
<!-- Node17 -->
<g id="node4" class="node">
<title>Node17</title>
<g id="a_node4"><a xlink:href="main_8cpp.html" target="_top" xlink:title=" ">
<polygon fill="#ffffff" stroke="#000000" points="0,-.5 0,-18.5 86.5859,-18.5 86.5859,-.5 0,-.5"/>
<text text-anchor="middle" x="43.293" y="-6.5" font-family="Helvetica,sans-Serif" font-size="10.00" fill="#000000">GLAC/main.cpp</text>
</a>
</g>
</g>
<!-- Node16&#45;&gt;Node17 -->
<g id="edge3" class="edge">
<title>Node16&#45;&gt;Node17</title>
<path fill="none" stroke="#191970" d="M82.0921,-48.2992C72.4757,-38.6828 60.6279,-26.8349 52.5724,-18.7795"/>
<polygon fill="#191970" stroke="#191970" points="79.6649,-50.8217 89.2108,-55.4179 84.6146,-45.8719 79.6649,-50.8217"/>
</g>
<!-- Node18 -->
<g id="node5" class="node">
<title>Node18</title>
<g id="a_node5"><a xlink:href="system_8cpp.html" target="_top" xlink:title=" ">
<polygon fill="#ffffff" stroke="#000000" points="105.0024,-.5 105.0024,-18.5 201.5835,-18.5 201.5835,-.5 105.0024,-.5"/>
<text text-anchor="middle" x="153.293" y="-6.5" font-family="Helvetica,sans-Serif" font-size="10.00" fill="#000000">GLAC/system.cpp</text>
</a>
</g>
</g>
<!-- Node16&#45;&gt;Node18 -->
<g id="edge4" class="edge">
<title>Node16&#45;&gt;Node18</title>
<path fill="none" stroke="#191970" d="M114.4938,-48.2992C124.1102,-38.6828 135.9581,-26.8349 144.0135,-18.7795"/>
<polygon fill="#191970" stroke="#191970" points="111.9713,-45.8719 107.3751,-55.4179 116.9211,-50.8217 111.9713,-45.8719"/>
</g>
</g>
</svg>
