<?xml version="1.0" encoding="UTF-8" standalone="no"?>
<!DOCTYPE svg PUBLIC "-//W3C//DTD SVG 1.1//EN"
 "http://www.w3.org/Graphics/SVG/1.1/DTD/svg11.dtd">
<!-- Generated by graphviz version 2.40.1 (20161225.0304)
 -->
<!-- Title: GLAC/actions/luscheraction.cpp Pages: 1 -->
<svg width="797pt" height="412pt"
 viewBox="0.00 0.00 796.70 412.00" xmlns="http://www.w3.org/2000/svg" xmlns:xlink="http://www.w3.org/1999/xlink">
<g id="graph0" class="graph" transform="scale(1 1) rotate(0) translate(4 408)">
<title>GLAC/actions/luscheraction.cpp</title>
<polygon fill="#ffffff" stroke="transparent" points="-4,4 -4,-408 792.7017,-408 792.7017,4 -4,4"/>
<!-- Node0 -->
<g id="node1" class="node">
<title>Node0</title>
<g id="a_node1"><a xlink:title=" ">
<polygon fill="#bfbfbf" stroke="#000000" points="498.3647,-385.5 498.3647,-403.5 656.6597,-403.5 656.6597,-385.5 498.3647,-385.5"/>
<text text-anchor="middle" x="577.5122" y="-391.5" font-family="Helvetica,sans-Serif" font-size="10.00" fill="#000000">GLAC/actions/luscheraction.cpp</text>
</a>
</g>
</g>
<!-- Node1 -->
<g id="node2" class="node">
<title>Node1</title>
<g id="a_node2"><a xlink:href="luscheraction_8h.html" target="_top" xlink:title=" ">
<polygon fill="#ffffff" stroke="#000000" points="582.8818,-330.5 582.8818,-348.5 666.1426,-348.5 666.1426,-330.5 582.8818,-330.5"/>
<text text-anchor="middle" x="624.5122" y="-336.5" font-family="Helvetica,sans-Serif" font-size="10.00" fill="#000000">luscheraction.h</text>
</a>
</g>
</g>
<!-- Node0&#45;&gt;Node1 -->
<g id="edge1" class="edge">
<title>Node0&#45;&gt;Node1</title>
<path fill="none" stroke="#191970" d="M585.2733,-385.4179C591.9683,-377.5833 601.8176,-366.0575 609.9732,-356.5137"/>
<polygon fill="#191970" stroke="#191970" points="612.7468,-358.6556 616.5825,-348.7795 607.4251,-354.108 612.7468,-358.6556"/>
</g>
<!-- Node10 -->
<g id="node11" class="node">
<title>Node10</title>
<g id="a_node11"><a xlink:href="functions_8h.html" target="_top" xlink:title=" ">
<polygon fill="#ffffff" stroke="#000000" points="77.3301,-165.5 77.3301,-183.5 141.6943,-183.5 141.6943,-165.5 77.3301,-165.5"/>
<text text-anchor="middle" x="109.5122" y="-171.5" font-family="Helvetica,sans-Serif" font-size="10.00" fill="#000000">functions.h</text>
</a>
</g>
</g>
<!-- Node0&#45;&gt;Node10 -->
<g id="edge24" class="edge">
<title>Node0&#45;&gt;Node10</title>
<path fill="none" stroke="#191970" d="M558.2936,-385.4656C485.338,-351.1702 225.2659,-228.9141 138.1696,-187.9714"/>
<polygon fill="#191970" stroke="#191970" points="139.43,-184.6965 128.891,-183.6097 136.452,-191.0315 139.43,-184.6965"/>
</g>
<!-- Node15 -->
<g id="node16" class="node">
<title>Node15</title>
<g id="a_node16"><a xlink:href="parameters_8h.html" target="_top" xlink:title=" ">
<polygon fill="#ffffff" stroke="#000000" points="684.3228,-330.5 684.3228,-348.5 788.7017,-348.5 788.7017,-330.5 684.3228,-330.5"/>
<text text-anchor="middle" x="736.5122" y="-336.5" font-family="Helvetica,sans-Serif" font-size="10.00" fill="#000000">config/parameters.h</text>
</a>
</g>
</g>
<!-- Node0&#45;&gt;Node15 -->
<g id="edge21" class="edge">
<title>Node0&#45;&gt;Node15</title>
<path fill="none" stroke="#191970" d="M603.7678,-385.4179C630.3152,-376.2348 671.5224,-361.9807 700.9804,-351.7909"/>
<polygon fill="#191970" stroke="#191970" points="702.1755,-355.081 710.4819,-348.5042 699.8871,-348.4656 702.1755,-355.081"/>
</g>
<!-- Node17 -->
<g id="node18" class="node">
<title>Node17</title>
<g id="a_node18"><a xlink:href="communicator_8h.html" target="_top" xlink:title=" ">
<polygon fill="#ffffff" stroke="#000000" points="455.2539,-275.5 455.2539,-293.5 605.7705,-293.5 605.7705,-275.5 455.2539,-275.5"/>
<text text-anchor="middle" x="530.5122" y="-281.5" font-family="Helvetica,sans-Serif" font-size="10.00" fill="#000000">parallelization/communicator.h</text>
</a>
</g>
</g>
<!-- Node0&#45;&gt;Node17 -->
<g id="edge25" class="edge">
<title>Node0&#45;&gt;Node17</title>
<path fill="none" stroke="#191970" d="M573.666,-385.4982C565.9887,-367.5302 548.6266,-326.8954 538.4187,-303.0046"/>
<polygon fill="#191970" stroke="#191970" points="541.5592,-301.4467 534.4116,-293.6261 535.1222,-304.1971 541.5592,-301.4467"/>
</g>
<!-- Node2 -->
<g id="node3" class="node">
<title>Node2</title>
<g id="a_node3"><a xlink:href="action_8h.html" target="_top" xlink:title=" ">
<polygon fill="#ffffff" stroke="#000000" points="624,-275.5 624,-293.5 675.0244,-293.5 675.0244,-275.5 624,-275.5"/>
<text text-anchor="middle" x="649.5122" y="-281.5" font-family="Helvetica,sans-Serif" font-size="10.00" fill="#000000">action.h</text>
</a>
</g>
</g>
<!-- Node1&#45;&gt;Node2 -->
<g id="edge2" class="edge">
<title>Node1&#45;&gt;Node2</title>
<path fill="none" stroke="#191970" d="M628.6404,-330.4179C632.0218,-322.9789 636.9157,-312.2123 641.1149,-302.9742"/>
<polygon fill="#191970" stroke="#191970" points="644.3425,-304.3315 645.2943,-293.7795 637.9699,-301.4348 644.3425,-304.3315"/>
</g>
<!-- Node3 -->
<g id="node4" class="node">
<title>Node3</title>
<g id="a_node4"><a xlink:href="lattice_8h.html" target="_top" xlink:title=" ">
<polygon fill="#ffffff" stroke="#000000" points="428.7759,-220.5 428.7759,-238.5 504.2485,-238.5 504.2485,-220.5 428.7759,-220.5"/>
<text text-anchor="middle" x="466.5122" y="-226.5" font-family="Helvetica,sans-Serif" font-size="10.00" fill="#000000">math/lattice.h</text>
</a>
</g>
</g>
<!-- Node2&#45;&gt;Node3 -->
<g id="edge3" class="edge">
<title>Node2&#45;&gt;Node3</title>
<path fill="none" stroke="#191970" d="M623.6809,-276.7365C593.0616,-267.534 541.7062,-252.0993 506.0695,-241.3888"/>
<polygon fill="#191970" stroke="#191970" points="507.0495,-238.0288 496.4653,-238.5023 505.0347,-244.7325 507.0495,-238.0288"/>
</g>
<!-- Node4 -->
<g id="node5" class="node">
<title>Node4</title>
<g id="a_node5"><a xlink:title=" ">
<polygon fill="#ffffff" stroke="#bfbfbf" points="679.8965,-110.5 679.8965,-128.5 723.1279,-128.5 723.1279,-110.5 679.8965,-110.5"/>
<text text-anchor="middle" x="701.5122" y="-116.5" font-family="Helvetica,sans-Serif" font-size="10.00" fill="#000000">vector</text>
</a>
</g>
</g>
<!-- Node2&#45;&gt;Node4 -->
<g id="edge20" class="edge">
<title>Node2&#45;&gt;Node4</title>
<path fill="none" stroke="#191970" d="M675.3358,-278.3858C695.3626,-272.1387 721.7831,-260.252 734.5122,-239 751.4119,-210.7851 744.6624,-196.2834 734.5122,-165 731.07,-154.3911 724.1234,-144.1855 717.4878,-136.1379"/>
<polygon fill="#191970" stroke="#191970" points="720.0847,-133.791 710.8452,-128.606 714.8347,-138.4211 720.0847,-133.791"/>
</g>
<!-- Node3&#45;&gt;Node4 -->
<g id="edge4" class="edge">
<title>Node3&#45;&gt;Node4</title>
<path fill="none" stroke="#191970" d="M504.4804,-224.3609C554.3534,-217.005 638.5309,-202.3174 663.5122,-184 679.0308,-172.6211 689.3099,-152.8286 695.219,-138.1613"/>
<polygon fill="#191970" stroke="#191970" points="698.5762,-139.1738 698.7619,-128.5806 692.0107,-136.7459 698.5762,-139.1738"/>
</g>
<!-- Node5 -->
<g id="node6" class="node">
<title>Node5</title>
<g id="a_node6"><a xlink:title=" ">
<polygon fill="#ffffff" stroke="#bfbfbf" points="250.2856,-110.5 250.2856,-128.5 290.7388,-128.5 290.7388,-110.5 250.2856,-110.5"/>
<text text-anchor="middle" x="270.5122" y="-116.5" font-family="Helvetica,sans-Serif" font-size="10.00" fill="#000000">mpi.h</text>
</a>
</g>
</g>
<!-- Node3&#45;&gt;Node5 -->
<g id="edge5" class="edge">
<title>Node3&#45;&gt;Node5</title>
<path fill="none" stroke="#191970" d="M428.4968,-223.9258C353.289,-212.8114 192.3913,-188.5656 188.5122,-184 168.9349,-160.9581 209.7573,-140.5404 240.5325,-129.1223"/>
<polygon fill="#191970" stroke="#191970" points="241.8248,-132.3777 250.0821,-125.7394 239.4873,-125.7794 241.8248,-132.3777"/>
</g>
<!-- Node6 -->
<g id="node7" class="node">
<title>Node6</title>
<g id="a_node7"><a xlink:href="index_8h.html" target="_top" xlink:title=" ">
<polygon fill="#ffffff" stroke="#000000" points="542.4263,-165.5 542.4263,-183.5 654.5981,-183.5 654.5981,-165.5 542.4263,-165.5"/>
<text text-anchor="middle" x="598.5122" y="-171.5" font-family="Helvetica,sans-Serif" font-size="10.00" fill="#000000">parallelization/index.h</text>
</a>
</g>
</g>
<!-- Node3&#45;&gt;Node6 -->
<g id="edge6" class="edge">
<title>Node3&#45;&gt;Node6</title>
<path fill="none" stroke="#191970" d="M488.3093,-220.4179C509.8052,-211.4613 542.8786,-197.6806 567.1874,-187.552"/>
<polygon fill="#191970" stroke="#191970" points="568.7981,-190.6726 576.6827,-183.5956 566.1058,-184.2111 568.7981,-190.6726"/>
</g>
<!-- Node7 -->
<g id="node8" class="node">
<title>Node7</title>
<g id="a_node8"><a xlink:href="neighbours_8h.html" target="_top" xlink:title=" ">
<polygon fill="#ffffff" stroke="#000000" points="386.6382,-165.5 386.6382,-183.5 524.3862,-183.5 524.3862,-165.5 386.6382,-165.5"/>
<text text-anchor="middle" x="455.5122" y="-171.5" font-family="Helvetica,sans-Serif" font-size="10.00" fill="#000000">parallelization/neighbours.h</text>
</a>
</g>
</g>
<!-- Node3&#45;&gt;Node7 -->
<g id="edge8" class="edge">
<title>Node3&#45;&gt;Node7</title>
<path fill="none" stroke="#191970" d="M464.6958,-220.4179C463.2555,-213.2164 461.1914,-202.8962 459.3848,-193.8632"/>
<polygon fill="#191970" stroke="#191970" points="462.7614,-192.8988 457.3681,-183.7795 455.8973,-194.2717 462.7614,-192.8988"/>
</g>
<!-- Node9 -->
<g id="node10" class="node">
<title>Node9</title>
<g id="a_node10"><a xlink:href="parallelparameters_8h.html" target="_top" xlink:title=" ">
<polygon fill="#ffffff" stroke="#000000" points="197.9707,-165.5 197.9707,-183.5 369.0537,-183.5 369.0537,-165.5 197.9707,-165.5"/>
<text text-anchor="middle" x="283.5122" y="-171.5" font-family="Helvetica,sans-Serif" font-size="10.00" fill="#000000">parallelization/parallelparameters.h</text>
</a>
</g>
</g>
<!-- Node3&#45;&gt;Node9 -->
<g id="edge11" class="edge">
<title>Node3&#45;&gt;Node9</title>
<path fill="none" stroke="#191970" d="M436.2935,-220.4179C405.3405,-211.115 357.0717,-196.608 323.0876,-186.3943"/>
<polygon fill="#191970" stroke="#191970" points="324.0559,-183.0307 313.4717,-183.5042 322.0411,-189.7344 324.0559,-183.0307"/>
</g>
<!-- Node3&#45;&gt;Node10 -->
<g id="edge13" class="edge">
<title>Node3&#45;&gt;Node10</title>
<path fill="none" stroke="#191970" d="M428.7,-224.2502C357.8009,-214.3599 207.3708,-193.1404 155.5122,-184 154.428,-183.8089 153.3303,-183.6116 152.2234,-183.4091"/>
<polygon fill="#191970" stroke="#191970" points="152.6142,-179.9206 142.1352,-181.4825 151.3011,-186.7963 152.6142,-179.9206"/>
</g>
<!-- Node6&#45;&gt;Node4 -->
<g id="edge7" class="edge">
<title>Node6&#45;&gt;Node4</title>
<path fill="none" stroke="#191970" d="M615.5206,-165.4179C631.8465,-156.7001 656.7312,-143.4122 675.5376,-133.3699"/>
<polygon fill="#191970" stroke="#191970" points="677.306,-136.3934 684.4786,-128.5956 674.0088,-130.2186 677.306,-136.3934"/>
</g>
<!-- Node7&#45;&gt;Node4 -->
<g id="edge10" class="edge">
<title>Node7&#45;&gt;Node4</title>
<path fill="none" stroke="#191970" d="M495.8586,-165.4795C544.5684,-154.5891 625.4655,-136.5023 669.8912,-126.5697"/>
<polygon fill="#191970" stroke="#191970" points="670.8419,-129.9437 679.8372,-124.346 669.3145,-123.1123 670.8419,-129.9437"/>
</g>
<!-- Node8 -->
<g id="node9" class="node">
<title>Node8</title>
<g id="a_node9"><a xlink:href="neighbourlist_8h.html" target="_top" xlink:title=" ">
<polygon fill="#ffffff" stroke="#000000" points="414.9902,-110.5 414.9902,-128.5 496.0342,-128.5 496.0342,-110.5 414.9902,-110.5"/>
<text text-anchor="middle" x="455.5122" y="-116.5" font-family="Helvetica,sans-Serif" font-size="10.00" fill="#000000">neighbourlist.h</text>
</a>
</g>
</g>
<!-- Node7&#45;&gt;Node8 -->
<g id="edge9" class="edge">
<title>Node7&#45;&gt;Node8</title>
<path fill="none" stroke="#191970" d="M455.5122,-165.4179C455.5122,-158.2164 455.5122,-147.8962 455.5122,-138.8632"/>
<polygon fill="#191970" stroke="#191970" points="459.0123,-138.7794 455.5122,-128.7795 452.0123,-138.7795 459.0123,-138.7794"/>
</g>
<!-- Node9&#45;&gt;Node5 -->
<g id="edge12" class="edge">
<title>Node9&#45;&gt;Node5</title>
<path fill="none" stroke="#191970" d="M281.3655,-165.4179C279.6446,-158.1372 277.1703,-147.669 275.0187,-138.5659"/>
<polygon fill="#191970" stroke="#191970" points="278.412,-137.7062 272.7055,-128.7795 271.5997,-139.3164 278.412,-137.7062"/>
</g>
<!-- Node11 -->
<g id="node12" class="node">
<title>Node11</title>
<g id="a_node12"><a xlink:href="su3_8h.html" target="_top" xlink:title=" ">
<polygon fill="#ffffff" stroke="#000000" points="0,-110.5 0,-128.5 81.0244,-128.5 81.0244,-110.5 0,-110.5"/>
<text text-anchor="middle" x="40.5122" y="-116.5" font-family="Helvetica,sans-Serif" font-size="10.00" fill="#000000">matrices/su3.h</text>
</a>
</g>
</g>
<!-- Node10&#45;&gt;Node11 -->
<g id="edge14" class="edge">
<title>Node10&#45;&gt;Node11</title>
<path fill="none" stroke="#191970" d="M98.1183,-165.4179C87.793,-157.1876 72.3575,-144.8839 60.0625,-135.0836"/>
<polygon fill="#191970" stroke="#191970" points="62.1551,-132.2757 52.1537,-128.7795 57.7919,-137.7495 62.1551,-132.2757"/>
</g>
<!-- Node12 -->
<g id="node13" class="node">
<title>Node12</title>
<g id="a_node13"><a xlink:href="complex_8h.html" target="_top" xlink:title=" ">
<polygon fill="#ffffff" stroke="#000000" points="66.2192,-55.5 66.2192,-73.5 152.8052,-73.5 152.8052,-55.5 66.2192,-55.5"/>
<text text-anchor="middle" x="109.5122" y="-61.5" font-family="Helvetica,sans-Serif" font-size="10.00" fill="#000000">math/complex.h</text>
</a>
</g>
</g>
<!-- Node10&#45;&gt;Node12 -->
<g id="edge19" class="edge">
<title>Node10&#45;&gt;Node12</title>
<path fill="none" stroke="#191970" d="M109.5122,-165.4982C109.5122,-147.6913 109.5122,-107.6225 109.5122,-83.6515"/>
<polygon fill="#191970" stroke="#191970" points="113.0123,-83.6261 109.5122,-73.6261 106.0123,-83.6262 113.0123,-83.6261"/>
</g>
<!-- Node14 -->
<g id="node15" class="node">
<title>Node14</title>
<g id="a_node15"><a xlink:href="su2_8h.html" target="_top" xlink:title=" ">
<polygon fill="#ffffff" stroke="#000000" points="138,-110.5 138,-128.5 219.0244,-128.5 219.0244,-110.5 138,-110.5"/>
<text text-anchor="middle" x="178.5122" y="-116.5" font-family="Helvetica,sans-Serif" font-size="10.00" fill="#000000">matrices/su2.h</text>
</a>
</g>
</g>
<!-- Node10&#45;&gt;Node14 -->
<g id="edge17" class="edge">
<title>Node10&#45;&gt;Node14</title>
<path fill="none" stroke="#191970" d="M120.9062,-165.4179C131.2314,-157.1876 146.667,-144.8839 158.9619,-135.0836"/>
<polygon fill="#191970" stroke="#191970" points="161.2326,-137.7495 166.8707,-128.7795 156.8693,-132.2757 161.2326,-137.7495"/>
</g>
<!-- Node11&#45;&gt;Node12 -->
<g id="edge15" class="edge">
<title>Node11&#45;&gt;Node12</title>
<path fill="none" stroke="#191970" d="M51.9062,-110.4179C62.2314,-102.1876 77.667,-89.8839 89.9619,-80.0836"/>
<polygon fill="#191970" stroke="#191970" points="92.2326,-82.7495 97.8707,-73.7795 87.8693,-77.2757 92.2326,-82.7495"/>
</g>
<!-- Node13 -->
<g id="node14" class="node">
<title>Node13</title>
<g id="a_node14"><a xlink:title=" ">
<polygon fill="#ffffff" stroke="#bfbfbf" points="82.3398,-.5 82.3398,-18.5 136.6846,-18.5 136.6846,-.5 82.3398,-.5"/>
<text text-anchor="middle" x="109.5122" y="-6.5" font-family="Helvetica,sans-Serif" font-size="10.00" fill="#000000">iostream</text>
</a>
</g>
</g>
<!-- Node12&#45;&gt;Node13 -->
<g id="edge16" class="edge">
<title>Node12&#45;&gt;Node13</title>
<path fill="none" stroke="#191970" d="M109.5122,-55.4179C109.5122,-48.2164 109.5122,-37.8962 109.5122,-28.8632"/>
<polygon fill="#191970" stroke="#191970" points="113.0123,-28.7794 109.5122,-18.7795 106.0123,-28.7795 113.0123,-28.7794"/>
</g>
<!-- Node14&#45;&gt;Node12 -->
<g id="edge18" class="edge">
<title>Node14&#45;&gt;Node12</title>
<path fill="none" stroke="#191970" d="M167.1183,-110.4179C156.793,-102.1876 141.3575,-89.8839 129.0625,-80.0836"/>
<polygon fill="#191970" stroke="#191970" points="131.1551,-77.2757 121.1537,-73.7795 126.7919,-82.7495 131.1551,-77.2757"/>
</g>
<!-- Node15&#45;&gt;Node4 -->
<g id="edge23" class="edge">
<title>Node15&#45;&gt;Node4</title>
<path fill="none" stroke="#191970" d="M744.7318,-330.182C751.7998,-321.5014 761.474,-307.849 765.5122,-294 775.803,-258.7075 789.501,-240.0786 750.5122,-165 744.3879,-153.2068 733.9436,-142.8629 724.267,-135.0302"/>
<polygon fill="#191970" stroke="#191970" points="726.1697,-132.0803 716.0889,-128.82 721.9363,-137.6551 726.1697,-132.0803"/>
</g>
<!-- Node16 -->
<g id="node17" class="node">
<title>Node16</title>
<g id="a_node17"><a xlink:title=" ">
<polygon fill="#ffffff" stroke="#bfbfbf" points="716.2856,-275.5 716.2856,-293.5 756.7388,-293.5 756.7388,-275.5 716.2856,-275.5"/>
<text text-anchor="middle" x="736.5122" y="-281.5" font-family="Helvetica,sans-Serif" font-size="10.00" fill="#000000">string</text>
</a>
</g>
</g>
<!-- Node15&#45;&gt;Node16 -->
<g id="edge22" class="edge">
<title>Node15&#45;&gt;Node16</title>
<path fill="none" stroke="#191970" d="M736.5122,-330.4179C736.5122,-323.2164 736.5122,-312.8962 736.5122,-303.8632"/>
<polygon fill="#191970" stroke="#191970" points="740.0123,-303.7794 736.5122,-293.7795 733.0123,-303.7795 740.0123,-303.7794"/>
</g>
<!-- Node17&#45;&gt;Node3 -->
<g id="edge27" class="edge">
<title>Node17&#45;&gt;Node3</title>
<path fill="none" stroke="#191970" d="M519.9439,-275.4179C510.4589,-267.2667 496.3247,-255.1201 484.9756,-245.3669"/>
<polygon fill="#191970" stroke="#191970" points="487.1755,-242.6427 477.3101,-238.7795 482.6131,-247.9516 487.1755,-242.6427"/>
</g>
<!-- Node17&#45;&gt;Node4 -->
<g id="edge26" class="edge">
<title>Node17&#45;&gt;Node4</title>
<path fill="none" stroke="#191970" d="M554.8109,-275.4977C589.3348,-261.425 652.0935,-230.8748 685.5122,-184 694.9306,-170.7893 698.8296,-152.6295 700.431,-138.9442"/>
<polygon fill="#191970" stroke="#191970" points="703.9415,-138.9697 701.3066,-128.7078 696.967,-138.3731 703.9415,-138.9697"/>
</g>
</g>
</svg>
