<?xml version="1.0" encoding="UTF-8" standalone="no"?>
<!DOCTYPE svg PUBLIC "-//W3C//DTD SVG 1.1//EN"
 "http://www.w3.org/Graphics/SVG/1.1/DTD/svg11.dtd">
<!-- Generated by graphviz version 2.40.1 (20161225.0304)
 -->
<!-- Title: main Pages: 1 -->
<svg width="438pt" height="1681pt"
 viewBox="0.00 0.00 438.13 1681.00" xmlns="http://www.w3.org/2000/svg" xmlns:xlink="http://www.w3.org/1999/xlink">
<g id="graph0" class="graph" transform="scale(1 1) rotate(0) translate(4 1677)">
<title>main</title>
<polygon fill="#ffffff" stroke="transparent" points="-4,4 -4,-1677 434.127,-1677 434.127,4 -4,4"/>
<!-- Node0 -->
<g id="node1" class="node">
<title>Node0</title>
<g id="a_node1"><a xlink:title=" ">
<polygon fill="#bfbfbf" stroke="#000000" points="0,-207.5 0,-225.5 37.6748,-225.5 37.6748,-207.5 0,-207.5"/>
<text text-anchor="middle" x="18.8374" y="-213.5" font-family="Helvetica,sans-Serif" font-size="10.00" fill="#000000">main</text>
</a>
</g>
</g>
<!-- Node1 -->
<g id="node2" class="node">
<title>Node1</title>
<g id="a_node2"><a xlink:href="class_parallel_1_1_communicator.html#adc9248c5a0defbbf55bfca988bfd9e96" target="_top" xlink:title=" ">
<polygon fill="#ffffff" stroke="#000000" points="85.9063,-936.5 85.9063,-964.5 205.832,-964.5 205.832,-936.5 85.9063,-936.5"/>
<text text-anchor="start" x="93.9063" y="-952.5" font-family="Helvetica,sans-Serif" font-size="10.00" fill="#000000">Parallel::Communicator</text>
<text text-anchor="middle" x="145.8691" y="-942.5" font-family="Helvetica,sans-Serif" font-size="10.00" fill="#000000">::init</text>
</a>
</g>
</g>
<!-- Node0&#45;&gt;Node1 -->
<g id="edge1" class="edge">
<title>Node0&#45;&gt;Node1</title>
<path fill="none" stroke="#191970" d="M18.9344,-225.6943C19.8477,-304.8477 27.9495,-869.7462 73.6748,-927.5 74.9302,-929.0857 76.2953,-930.5639 77.7522,-931.9417"/>
<polygon fill="#191970" stroke="#191970" points="75.6495,-934.7398 85.721,-938.0284 79.8985,-929.1769 75.6495,-934.7398"/>
</g>
<!-- Node2 -->
<g id="node3" class="node">
<title>Node2</title>
<g id="a_node3"><a xlink:href="namespace_config_loader.html#a26cf01adba9411ef1fa006d5068d7cc4" target="_top" xlink:title="load">
<polygon fill="#ffffff" stroke="#ff0000" points="95.6157,-899.5 95.6157,-917.5 196.1226,-917.5 196.1226,-899.5 95.6157,-899.5"/>
<text text-anchor="middle" x="145.8691" y="-905.5" font-family="Helvetica,sans-Serif" font-size="10.00" fill="#000000">ConfigLoader::load</text>
</a>
</g>
</g>
<!-- Node0&#45;&gt;Node2 -->
<g id="edge2" class="edge">
<title>Node0&#45;&gt;Node2</title>
<path fill="none" stroke="#191970" d="M20.49,-225.5025C33.8049,-298.0351 123.5623,-786.9845 142.4037,-889.6221"/>
<polygon fill="#191970" stroke="#191970" points="138.9678,-890.2903 144.2159,-899.494 145.8527,-889.0264 138.9678,-890.2903"/>
</g>
<!-- Node45 -->
<g id="node42" class="node">
<title>Node45</title>
<g id="a_node42"><a xlink:href="class_parallel_1_1_communicator.html#a474ab433da0e83ef372d74e26a7e5cb0" target="_top" xlink:title=" ">
<polygon fill="#ffffff" stroke="#000000" points="282.1323,-108.5 282.1323,-136.5 402.0581,-136.5 402.0581,-108.5 282.1323,-108.5"/>
<text text-anchor="start" x="290.1323" y="-124.5" font-family="Helvetica,sans-Serif" font-size="10.00" fill="#000000">Parallel::Communicator</text>
<text text-anchor="middle" x="342.0952" y="-114.5" font-family="Helvetica,sans-Serif" font-size="10.00" fill="#000000">::getProcessRank</text>
</a>
</g>
</g>
<!-- Node0&#45;&gt;Node45 -->
<g id="edge50" class="edge">
<title>Node0&#45;&gt;Node45</title>
<path fill="none" stroke="#191970" d="M20.9656,-225.5268C26.1158,-245.0645 41.2869,-290.9984 73.6748,-309.5 129.3966,-341.3311 168.0322,-349.6872 218.0635,-309.5 275.9048,-263.0395 202.8983,-200.2245 254.0635,-146.5 259.2459,-141.0583 265.5305,-136.8093 272.3307,-133.4977"/>
<polygon fill="#191970" stroke="#191970" points="273.9741,-136.6052 281.8684,-129.5391 271.2906,-130.14 273.9741,-136.6052"/>
</g>
<!-- Node48 -->
<g id="node43" class="node">
<title>Node48</title>
<g id="a_node43"><a xlink:href="main_8cpp.html#adc55d66d01b104380f72a64f36c4cb9d" target="_top" xlink:title=" ">
<polygon fill="#ffffff" stroke="#000000" points="110.0811,-281.5 110.0811,-299.5 181.6572,-299.5 181.6572,-281.5 110.0811,-281.5"/>
<text text-anchor="middle" x="145.8691" y="-287.5" font-family="Helvetica,sans-Serif" font-size="10.00" fill="#000000">runUnitTests</text>
</a>
</g>
</g>
<!-- Node0&#45;&gt;Node48 -->
<g id="edge42" class="edge">
<title>Node0&#45;&gt;Node48</title>
<path fill="none" stroke="#191970" d="M25.154,-225.5758C34.3552,-238.091 52.6567,-260.4626 73.6748,-272.5 81.742,-277.1202 90.979,-280.5652 100.0907,-283.1307"/>
<polygon fill="#191970" stroke="#191970" points="99.3161,-286.5448 109.8672,-285.5834 101.0195,-279.7552 99.3161,-286.5448"/>
</g>
<!-- Node49 -->
<g id="node44" class="node">
<title>Node49</title>
<g id="a_node44"><a xlink:href="class_parameters.html#a785042104e5f47f11d625ec346853174" target="_top" xlink:title=" ">
<polygon fill="#ffffff" stroke="#000000" points="77.564,-244.5 77.564,-262.5 214.1743,-262.5 214.1743,-244.5 77.564,-244.5"/>
<text text-anchor="middle" x="145.8691" y="-250.5" font-family="Helvetica,sans-Serif" font-size="10.00" fill="#000000">Parameters::getUnitTesting</text>
</a>
</g>
</g>
<!-- Node0&#45;&gt;Node49 -->
<g id="edge43" class="edge">
<title>Node0&#45;&gt;Node49</title>
<path fill="none" stroke="#191970" d="M37.7361,-223.5148C48.2451,-227.2973 61.6023,-231.9114 73.6748,-235.5 81.162,-237.7256 89.1402,-239.9041 96.9595,-241.9336"/>
<polygon fill="#191970" stroke="#191970" points="96.1763,-245.3457 106.7303,-244.4169 97.9006,-238.5614 96.1763,-245.3457"/>
</g>
<!-- Node50 -->
<g id="node45" class="node">
<title>Node50</title>
<g id="a_node45"><a xlink:href="main_8cpp.html#aa78448b51454a62a48e3b8221e29300f" target="_top" xlink:title=" ">
<polygon fill="#ffffff" stroke="#000000" points="90.3496,-207.5 90.3496,-225.5 201.3887,-225.5 201.3887,-207.5 90.3496,-207.5"/>
<text text-anchor="middle" x="145.8691" y="-213.5" font-family="Helvetica,sans-Serif" font-size="10.00" fill="#000000">runPerformanceTests</text>
</a>
</g>
</g>
<!-- Node0&#45;&gt;Node50 -->
<g id="edge44" class="edge">
<title>Node0&#45;&gt;Node50</title>
<path fill="none" stroke="#191970" d="M37.8553,-216.5C49.2675,-216.5 64.5313,-216.5 79.9824,-216.5"/>
<polygon fill="#191970" stroke="#191970" points="80.1245,-220.0001 90.1245,-216.5 80.1244,-213.0001 80.1245,-220.0001"/>
</g>
<!-- Node51 -->
<g id="node46" class="node">
<title>Node51</title>
<g id="a_node46"><a xlink:href="class_parameters.html#a778a2311c27854392c34c15bd4ea19f8" target="_top" xlink:title=" ">
<polygon fill="#ffffff" stroke="#000000" points="73.6748,-160.5 73.6748,-188.5 218.0635,-188.5 218.0635,-160.5 73.6748,-160.5"/>
<text text-anchor="start" x="81.6748" y="-176.5" font-family="Helvetica,sans-Serif" font-size="10.00" fill="#000000">Parameters::getPerformance</text>
<text text-anchor="middle" x="145.8691" y="-166.5" font-family="Helvetica,sans-Serif" font-size="10.00" fill="#000000">Testing</text>
</a>
</g>
</g>
<!-- Node0&#45;&gt;Node51 -->
<g id="edge45" class="edge">
<title>Node0&#45;&gt;Node51</title>
<path fill="none" stroke="#191970" d="M37.8553,-210.2122C52.6661,-205.3154 73.9639,-198.2738 93.7394,-191.7355"/>
<polygon fill="#191970" stroke="#191970" points="94.8941,-195.0401 103.2899,-188.5778 92.6967,-188.3939 94.8941,-195.0401"/>
</g>
<!-- Node52 -->
<g id="node47" class="node">
<title>Node52</title>
<g id="a_node47"><a xlink:href="class_system.html#a93c8a8258ac8f6382ec393bca1271011" target="_top" xlink:title=" ">
<polygon fill="#ffffff" stroke="#ff0000" points="92.293,-123.5 92.293,-141.5 199.4453,-141.5 199.4453,-123.5 92.293,-123.5"/>
<text text-anchor="middle" x="145.8691" y="-129.5" font-family="Helvetica,sans-Serif" font-size="10.00" fill="#000000">System::latticeSetup</text>
</a>
</g>
</g>
<!-- Node0&#45;&gt;Node52 -->
<g id="edge46" class="edge">
<title>Node0&#45;&gt;Node52</title>
<path fill="none" stroke="#191970" d="M23.9612,-207.4118C32.4287,-193.2436 50.7112,-166.0147 73.6748,-151.5 77.475,-149.098 81.5708,-146.9981 85.8124,-145.1625"/>
<polygon fill="#191970" stroke="#191970" points="87.1781,-148.3876 95.2726,-141.5517 84.6819,-141.8478 87.1781,-148.3876"/>
</g>
<!-- Node68 -->
<g id="node48" class="node">
<title>Node68</title>
<g id="a_node48"><a xlink:href="class_parallel_1_1_communicator.html#ad48e48ab0137dab329d31fc1e3ebf179" target="_top" xlink:title=" ">
<polygon fill="#ffffff" stroke="#000000" points="282.1323,-61.5 282.1323,-89.5 402.0581,-89.5 402.0581,-61.5 282.1323,-61.5"/>
<text text-anchor="start" x="290.1323" y="-77.5" font-family="Helvetica,sans-Serif" font-size="10.00" fill="#000000">Parallel::Communicator</text>
<text text-anchor="middle" x="342.0952" y="-67.5" font-family="Helvetica,sans-Serif" font-size="10.00" fill="#000000">::setBarrier</text>
</a>
</g>
</g>
<!-- Node0&#45;&gt;Node68 -->
<g id="edge52" class="edge">
<title>Node0&#45;&gt;Node68</title>
<path fill="none" stroke="#191970" d="M20.8332,-207.3039C25.7944,-186.8467 40.7369,-137.5648 73.6748,-114.5 104.7693,-92.726 203.16,-82.9094 271.7506,-78.6251"/>
<polygon fill="#191970" stroke="#191970" points="272.2919,-82.0991 282.0651,-78.0082 271.8739,-75.1116 272.2919,-82.0991"/>
</g>
<!-- Node69 -->
<g id="node49" class="node">
<title>Node69</title>
<g id="a_node49"><a xlink:href="class_system.html#afa39feb75f96798930f4bfb48205f40b" target="_top" xlink:title=" ">
<polygon fill="#ffffff" stroke="#ff0000" points="111.1943,-47.5 111.1943,-65.5 180.5439,-65.5 180.5439,-47.5 111.1943,-47.5"/>
<text text-anchor="middle" x="145.8691" y="-53.5" font-family="Helvetica,sans-Serif" font-size="10.00" fill="#000000">System::run</text>
</a>
</g>
</g>
<!-- Node0&#45;&gt;Node69 -->
<g id="edge48" class="edge">
<title>Node0&#45;&gt;Node69</title>
<path fill="none" stroke="#191970" d="M19.8742,-207.4257C23.1183,-183.2335 35.2682,-116.5842 73.6748,-80.5 81.4073,-73.2351 91.3953,-68.1664 101.462,-64.6309"/>
<polygon fill="#191970" stroke="#191970" points="102.5301,-67.9643 111.0667,-61.6893 100.4802,-61.2712 102.5301,-67.9643"/>
</g>
<!-- Node70 -->
<g id="node50" class="node">
<title>Node70</title>
<g id="a_node50"><a xlink:href="class_parallel_1_1_communicator.html#adc5e4acb372e9db19276572007940832" target="_top" xlink:title=" ">
<polygon fill="#ffffff" stroke="#000000" points="85.9063,-.5 85.9063,-28.5 205.832,-28.5 205.832,-.5 85.9063,-.5"/>
<text text-anchor="start" x="93.9063" y="-16.5" font-family="Helvetica,sans-Serif" font-size="10.00" fill="#000000">Parallel::Communicator</text>
<text text-anchor="middle" x="145.8691" y="-6.5" font-family="Helvetica,sans-Serif" font-size="10.00" fill="#000000">::freeMPIGroups</text>
</a>
</g>
</g>
<!-- Node0&#45;&gt;Node70 -->
<g id="edge51" class="edge">
<title>Node0&#45;&gt;Node70</title>
<path fill="none" stroke="#191970" d="M20.5412,-207.0486C26.7178,-173.7551 48.8782,-62.5744 73.6748,-37.5 74.7732,-36.3893 75.925,-35.3322 77.123,-34.326"/>
<polygon fill="#191970" stroke="#191970" points="79.4219,-36.9898 85.6212,-28.398 75.417,-31.2486 79.4219,-36.9898"/>
</g>
<!-- Node3 -->
<g id="node4" class="node">
<title>Node3</title>
<g id="a_node4"><a xlink:href="class_parameters.html#a4b2041032efc8d6e9f99a99f87543f26" target="_top" xlink:title=" ">
<polygon fill="#ffffff" stroke="#000000" points="279.9058,-1654.5 279.9058,-1672.5 404.2847,-1672.5 404.2847,-1654.5 279.9058,-1654.5"/>
<text text-anchor="middle" x="342.0952" y="-1660.5" font-family="Helvetica,sans-Serif" font-size="10.00" fill="#000000">Parameters::setNSpatial</text>
</a>
</g>
</g>
<!-- Node2&#45;&gt;Node3 -->
<g id="edge3" class="edge">
<title>Node2&#45;&gt;Node3</title>
<path fill="none" stroke="#191970" d="M196.1355,-912.9881C204.5857,-915.9755 212.428,-920.5563 218.0635,-927.5 318.7373,-1051.5434 149.9775,-1524.3056 254.0635,-1645.5 258.5704,-1650.7477 264.1573,-1654.7175 270.3148,-1657.6946"/>
<polygon fill="#191970" stroke="#191970" points="269.098,-1660.977 279.6852,-1661.3794 271.6598,-1654.4626 269.098,-1660.977"/>
</g>
<!-- Node4 -->
<g id="node5" class="node">
<title>Node4</title>
<g id="a_node5"><a xlink:href="class_parameters.html#a8b9ea6055d41cd08a060bc72332a63af" target="_top" xlink:title=" ">
<polygon fill="#ffffff" stroke="#000000" points="274.6299,-1617.5 274.6299,-1635.5 409.5605,-1635.5 409.5605,-1617.5 274.6299,-1617.5"/>
<text text-anchor="middle" x="342.0952" y="-1623.5" font-family="Helvetica,sans-Serif" font-size="10.00" fill="#000000">Parameters::setNTemporal</text>
</a>
</g>
</g>
<!-- Node2&#45;&gt;Node4 -->
<g id="edge4" class="edge">
<title>Node2&#45;&gt;Node4</title>
<path fill="none" stroke="#191970" d="M196.4875,-913.1312C204.7989,-916.1198 212.5004,-920.6645 218.0635,-927.5 313.7225,-1045.0378 155.1713,-1493.6692 254.0635,-1608.5 257.3273,-1612.2899 261.1545,-1615.4128 265.3527,-1617.9764"/>
<polygon fill="#191970" stroke="#191970" points="263.9167,-1621.1711 274.4295,-1622.4873 267.032,-1614.9025 263.9167,-1621.1711"/>
</g>
<!-- Node5 -->
<g id="node6" class="node">
<title>Node5</title>
<g id="a_node6"><a xlink:href="class_parallel_1_1_index.html#a14d1d30c926a76761ed1a1a51912a516" target="_top" xlink:title=" ">
<polygon fill="#ffffff" stroke="#000000" points="282.6816,-1580.5 282.6816,-1598.5 401.5088,-1598.5 401.5088,-1580.5 282.6816,-1580.5"/>
<text text-anchor="middle" x="342.0952" y="-1586.5" font-family="Helvetica,sans-Serif" font-size="10.00" fill="#000000">Parallel::Index::setNTot</text>
</a>
</g>
</g>
<!-- Node2&#45;&gt;Node5 -->
<g id="edge5" class="edge">
<title>Node2&#45;&gt;Node5</title>
<path fill="none" stroke="#191970" d="M196.4708,-913.1448C204.7837,-916.1322 212.49,-920.673 218.0635,-927.5 308.7083,-1038.5329 160.3646,-1463.032 254.0635,-1571.5 259.1112,-1577.3434 265.4983,-1581.6001 272.5179,-1584.6651"/>
<polygon fill="#191970" stroke="#191970" points="271.821,-1588.13 282.4159,-1588.1432 274.1417,-1581.5258 271.821,-1588.13"/>
</g>
<!-- Node6 -->
<g id="node7" class="node">
<title>Node6</title>
<g id="a_node7"><a xlink:href="class_parameters.html#a8462149cb29ecf936f1f9945f5de4908" target="_top" xlink:title=" ">
<polygon fill="#ffffff" stroke="#000000" points="288.519,-1543.5 288.519,-1561.5 395.6714,-1561.5 395.6714,-1543.5 288.519,-1543.5"/>
<text text-anchor="middle" x="342.0952" y="-1549.5" font-family="Helvetica,sans-Serif" font-size="10.00" fill="#000000">Parameters::setBeta</text>
</a>
</g>
</g>
<!-- Node2&#45;&gt;Node6 -->
<g id="edge6" class="edge">
<title>Node2&#45;&gt;Node6</title>
<path fill="none" stroke="#191970" d="M196.452,-913.1602C204.7667,-916.1461 212.4784,-920.6824 218.0635,-927.5 303.6948,-1032.0289 165.5571,-1432.394 254.0635,-1534.5 260.5093,-1541.9363 269.1242,-1546.8006 278.4477,-1549.909"/>
<polygon fill="#191970" stroke="#191970" points="277.7952,-1553.3572 288.359,-1552.5469 279.5956,-1546.5926 277.7952,-1553.3572"/>
</g>
<!-- Node7 -->
<g id="node8" class="node">
<title>Node7</title>
<g id="a_node8"><a xlink:href="class_parameters.html#a3c35caa5de4bb545a2b48af07e1756f3" target="_top" xlink:title=" ">
<polygon fill="#ffffff" stroke="#000000" points="290.1938,-1506.5 290.1938,-1524.5 393.9966,-1524.5 393.9966,-1506.5 290.1938,-1506.5"/>
<text text-anchor="middle" x="342.0952" y="-1512.5" font-family="Helvetica,sans-Serif" font-size="10.00" fill="#000000">Parameters::setNCf</text>
</a>
</g>
</g>
<!-- Node2&#45;&gt;Node7 -->
<g id="edge7" class="edge">
<title>Node2&#45;&gt;Node7</title>
<path fill="none" stroke="#191970" d="M196.4309,-913.1775C204.7475,-916.1619 212.4654,-920.6932 218.0635,-927.5 298.6821,-1025.5259 170.7488,-1401.755 254.0635,-1497.5 260.822,-1505.2668 269.9468,-1510.2253 279.7687,-1513.3072"/>
<polygon fill="#191970" stroke="#191970" points="279.2114,-1516.7754 289.7611,-1515.7982 280.9046,-1509.9832 279.2114,-1516.7754"/>
</g>
<!-- Node8 -->
<g id="node9" class="node">
<title>Node8</title>
<g id="a_node9"><a xlink:href="class_parameters.html#afb3ef2dca9d24511a1904bc313fd8513" target="_top" xlink:title=" ">
<polygon fill="#ffffff" stroke="#000000" points="287.1372,-1469.5 287.1372,-1487.5 397.0532,-1487.5 397.0532,-1469.5 287.1372,-1469.5"/>
<text text-anchor="middle" x="342.0952" y="-1475.5" font-family="Helvetica,sans-Serif" font-size="10.00" fill="#000000">Parameters::setNCor</text>
</a>
</g>
</g>
<!-- Node2&#45;&gt;Node8 -->
<g id="edge8" class="edge">
<title>Node2&#45;&gt;Node8</title>
<path fill="none" stroke="#191970" d="M196.4069,-913.1973C204.7257,-916.1798 212.4505,-920.7054 218.0635,-927.5 293.6704,-1019.0242 175.9394,-1371.1148 254.0635,-1460.5 260.2454,-1467.573 268.3901,-1472.3145 277.232,-1475.4299"/>
<polygon fill="#191970" stroke="#191970" points="276.465,-1478.8502 287.0402,-1478.2056 278.3712,-1472.1147 276.465,-1478.8502"/>
</g>
<!-- Node9 -->
<g id="node10" class="node">
<title>Node9</title>
<g id="a_node10"><a xlink:href="class_parameters.html#a97a1e5d00965cf1d552a8c8dbb45cd53" target="_top" xlink:title=" ">
<polygon fill="#ffffff" stroke="#000000" points="280.748,-1432.5 280.748,-1450.5 403.4424,-1450.5 403.4424,-1432.5 280.748,-1432.5"/>
<text text-anchor="middle" x="342.0952" y="-1438.5" font-family="Helvetica,sans-Serif" font-size="10.00" fill="#000000">Parameters::setNTherm</text>
</a>
</g>
</g>
<!-- Node2&#45;&gt;Node9 -->
<g id="edge9" class="edge">
<title>Node2&#45;&gt;Node9</title>
<path fill="none" stroke="#191970" d="M196.3794,-913.2201C204.7007,-916.2005 212.4335,-920.7195 218.0635,-927.5 288.66,-1012.5239 181.1287,-1340.4731 254.0635,-1423.5 258.7671,-1428.8545 264.5957,-1432.8711 270.9979,-1435.8568"/>
<polygon fill="#191970" stroke="#191970" points="270.1324,-1439.2711 280.7241,-1439.5293 272.6052,-1432.7224 270.1324,-1439.2711"/>
</g>
<!-- Node10 -->
<g id="node11" class="node">
<title>Node10</title>
<g id="a_node11"><a xlink:href="class_parameters.html#ae9bb965e9bfa37365c5b5ef83e95f97d" target="_top" xlink:title=" ">
<polygon fill="#ffffff" stroke="#000000" points="282.1372,-1395.5 282.1372,-1413.5 402.0532,-1413.5 402.0532,-1395.5 282.1372,-1395.5"/>
<text text-anchor="middle" x="342.0952" y="-1401.5" font-family="Helvetica,sans-Serif" font-size="10.00" fill="#000000">Parameters::setNFlows</text>
</a>
</g>
</g>
<!-- Node2&#45;&gt;Node10 -->
<g id="edge10" class="edge">
<title>Node2&#45;&gt;Node10</title>
<path fill="none" stroke="#191970" d="M196.3475,-913.2467C204.6718,-916.2246 212.4138,-920.7359 218.0635,-927.5 283.6511,-1006.0255 186.3165,-1309.8296 254.0635,-1386.5 259.1054,-1392.2061 265.4252,-1396.3906 272.3521,-1399.4263"/>
<polygon fill="#191970" stroke="#191970" points="271.5166,-1402.8436 282.1114,-1402.8888 273.8573,-1396.2465 271.5166,-1402.8436"/>
</g>
<!-- Node11 -->
<g id="node12" class="node">
<title>Node11</title>
<g id="a_node12"><a xlink:href="class_parameters.html#ae443546fea1f1ceaf3683cb368f7f5bb" target="_top" xlink:title=" ">
<polygon fill="#ffffff" stroke="#000000" points="276.5708,-1358.5 276.5708,-1376.5 407.6196,-1376.5 407.6196,-1358.5 276.5708,-1358.5"/>
<text text-anchor="middle" x="342.0952" y="-1364.5" font-family="Helvetica,sans-Serif" font-size="10.00" fill="#000000">Parameters::setNUpdates</text>
</a>
</g>
</g>
<!-- Node2&#45;&gt;Node11 -->
<g id="edge11" class="edge">
<title>Node2&#45;&gt;Node11</title>
<path fill="none" stroke="#191970" d="M196.3102,-913.2779C204.6379,-916.253 212.3908,-920.7552 218.0635,-927.5 278.6442,-999.5295 191.5022,-1279.1839 254.0635,-1349.5 257.8223,-1353.7247 262.2817,-1357.1139 267.168,-1359.8195"/>
<polygon fill="#191970" stroke="#191970" points="265.8117,-1363.0474 276.3651,-1363.984 268.6992,-1356.6707 265.8117,-1363.0474"/>
</g>
<!-- Node12 -->
<g id="node13" class="node">
<title>Node12</title>
<g id="a_node13"><a xlink:href="class_parameters.html#aa7436b658d07358009b922584798fb6d" target="_top" xlink:title=" ">
<polygon fill="#ffffff" stroke="#000000" points="274.0659,-1321.5 274.0659,-1339.5 410.1245,-1339.5 410.1245,-1321.5 274.0659,-1321.5"/>
<text text-anchor="middle" x="342.0952" y="-1327.5" font-family="Helvetica,sans-Serif" font-size="10.00" fill="#000000">Parameters::setActionType</text>
</a>
</g>
</g>
<!-- Node2&#45;&gt;Node12 -->
<g id="edge12" class="edge">
<title>Node2&#45;&gt;Node12</title>
<path fill="none" stroke="#191970" d="M196.2659,-913.3154C204.5977,-916.287 212.3634,-920.7783 218.0635,-927.5 273.6398,-993.0364 196.6853,-1248.5352 254.0635,-1312.5 257.1949,-1315.9909 260.8049,-1318.9102 264.7378,-1321.3439"/>
<polygon fill="#191970" stroke="#191970" points="263.2999,-1324.5388 273.8031,-1325.9295 266.4596,-1318.2925 263.2999,-1324.5388"/>
</g>
<!-- Node13 -->
<g id="node14" class="node">
<title>Node13</title>
<g id="a_node14"><a xlink:href="class_parameters.html#a58dff6fbcc88bb916b9590057bf338ff" target="_top" xlink:title=" ">
<polygon fill="#ffffff" stroke="#000000" points="269.6226,-1284.5 269.6226,-1302.5 414.5679,-1302.5 414.5679,-1284.5 269.6226,-1284.5"/>
<text text-anchor="middle" x="342.0952" y="-1290.5" font-family="Helvetica,sans-Serif" font-size="10.00" fill="#000000">Parameters::setOutputFolder</text>
</a>
</g>
</g>
<!-- Node2&#45;&gt;Node13 -->
<g id="edge13" class="edge">
<title>Node2&#45;&gt;Node13</title>
<path fill="none" stroke="#191970" d="M196.2124,-913.3609C204.5492,-916.3283 212.3303,-920.8065 218.0635,-927.5 319.214,-1045.5947 149.6665,-1160.2653 254.0635,-1275.5 256.1254,-1277.776 258.3909,-1279.8084 260.8164,-1281.6212"/>
<polygon fill="#191970" stroke="#191970" points="259.2536,-1284.7672 269.6162,-1286.9735 262.8912,-1278.7866 259.2536,-1284.7672"/>
</g>
<!-- Node14 -->
<g id="node15" class="node">
<title>Node14</title>
<g id="a_node15"><a xlink:href="class_parameters.html#a64572c0531cc65e5d1c0fc4c8295a572" target="_top" xlink:title=" ">
<polygon fill="#ffffff" stroke="#000000" points="273.5117,-1247.5 273.5117,-1265.5 410.6787,-1265.5 410.6787,-1247.5 273.5117,-1247.5"/>
<text text-anchor="middle" x="342.0952" y="-1253.5" font-family="Helvetica,sans-Serif" font-size="10.00" fill="#000000">Parameters::setInputFolder</text>
</a>
</g>
</g>
<!-- Node2&#45;&gt;Node14 -->
<g id="edge14" class="edge">
<title>Node2&#45;&gt;Node14</title>
<path fill="none" stroke="#191970" d="M196.1468,-913.4175C204.4895,-916.3797 212.2898,-920.8415 218.0635,-927.5 309.221,-1032.627 160.0164,-1135.9498 254.0635,-1238.5 257.0882,-1241.7982 260.5404,-1244.5832 264.2864,-1246.9286"/>
<polygon fill="#191970" stroke="#191970" points="263.0003,-1250.2019 273.4973,-1251.6382 266.1871,-1243.9694 263.0003,-1250.2019"/>
</g>
<!-- Node15 -->
<g id="node16" class="node">
<title>Node15</title>
<g id="a_node16"><a xlink:href="class_parameters.html#a7ab55c1529015de4c5c182cfa9f004e8" target="_top" xlink:title=" ">
<polygon fill="#ffffff" stroke="#000000" points="254.6128,-1210.5 254.6128,-1228.5 429.5776,-1228.5 429.5776,-1210.5 254.6128,-1210.5"/>
<text text-anchor="middle" x="342.0952" y="-1216.5" font-family="Helvetica,sans-Serif" font-size="10.00" fill="#000000">Parameters::setStoreConfigurations</text>
</a>
</g>
</g>
<!-- Node2&#45;&gt;Node15 -->
<g id="edge15" class="edge">
<title>Node2&#45;&gt;Node15</title>
<path fill="none" stroke="#191970" d="M196.4322,-913.6211C204.6442,-916.5764 212.3243,-920.9834 218.0635,-927.5 299.2407,-1019.6742 170.3532,-1111.62 254.0635,-1201.5 254.9904,-1202.4953 255.9564,-1203.4436 256.9575,-1204.3471"/>
<polygon fill="#191970" stroke="#191970" points="255.1256,-1207.3437 265.2613,-1210.4287 259.2617,-1201.6963 255.1256,-1207.3437"/>
</g>
<!-- Node16 -->
<g id="node17" class="node">
<title>Node16</title>
<g id="a_node17"><a xlink:href="class_parameters.html#a84290346277f15c8241c035b7aa452ad" target="_top" xlink:title=" ">
<polygon fill="#ffffff" stroke="#000000" points="254.0635,-1163.5 254.0635,-1191.5 430.127,-1191.5 430.127,-1163.5 254.0635,-1163.5"/>
<text text-anchor="start" x="262.0635" y="-1179.5" font-family="Helvetica,sans-Serif" font-size="10.00" fill="#000000">Parameters::setStoreThermalization</text>
<text text-anchor="middle" x="342.0952" y="-1169.5" font-family="Helvetica,sans-Serif" font-size="10.00" fill="#000000">Observables</text>
</a>
</g>
</g>
<!-- Node2&#45;&gt;Node16 -->
<g id="edge16" class="edge">
<title>Node2&#45;&gt;Node16</title>
<path fill="none" stroke="#191970" d="M196.2911,-913.747C204.5168,-916.6901 212.238,-921.0604 218.0635,-927.5 286.5916,-1003.2527 185.4677,-1078.8086 254.0635,-1154.5 254.8325,-1155.3486 255.6286,-1156.1676 256.4496,-1156.9579"/>
<polygon fill="#191970" stroke="#191970" points="254.4482,-1159.8382 264.4527,-1163.3253 258.8064,-1154.3604 254.4482,-1159.8382"/>
</g>
<!-- Node17 -->
<g id="node18" class="node">
<title>Node17</title>
<g id="a_node18"><a xlink:href="class_parameters.html#aa0ac9d09db506844758e0a5d23dedeb4" target="_top" xlink:title=" ">
<polygon fill="#ffffff" stroke="#000000" points="280.4551,-1126.5 280.4551,-1144.5 403.7354,-1144.5 403.7354,-1126.5 280.4551,-1126.5"/>
<text text-anchor="middle" x="342.0952" y="-1132.5" font-family="Helvetica,sans-Serif" font-size="10.00" fill="#000000">Parameters::setVerbose</text>
</a>
</g>
</g>
<!-- Node2&#45;&gt;Node17 -->
<g id="edge17" class="edge">
<title>Node2&#45;&gt;Node17</title>
<path fill="none" stroke="#191970" d="M196.1343,-913.891C204.3752,-916.8201 212.1422,-921.1484 218.0635,-927.5 276.6704,-990.3656 193.7302,-1056.2893 254.0635,-1117.5 258.7346,-1122.239 264.2932,-1125.8986 270.3138,-1128.7067"/>
<polygon fill="#191970" stroke="#191970" points="269.5036,-1132.1442 280.0939,-1132.4515 272.0067,-1125.607 269.5036,-1132.1442"/>
</g>
<!-- Node18 -->
<g id="node19" class="node">
<title>Node18</title>
<g id="a_node19"><a xlink:href="class_parameters.html#a5afe30ba482014c176433bb183a68976" target="_top" xlink:title=" ">
<polygon fill="#ffffff" stroke="#000000" points="280.4624,-1089.5 280.4624,-1107.5 403.728,-1107.5 403.728,-1089.5 280.4624,-1089.5"/>
<text text-anchor="middle" x="342.0952" y="-1095.5" font-family="Helvetica,sans-Serif" font-size="10.00" fill="#000000">Parameters::setFilePath</text>
</a>
</g>
</g>
<!-- Node2&#45;&gt;Node18 -->
<g id="edge18" class="edge">
<title>Node2&#45;&gt;Node18</title>
<path fill="none" stroke="#191970" d="M196.2787,-914.2368C204.4052,-917.1417 212.0948,-921.3726 218.0635,-927.5 266.8072,-977.5405 203.9464,-1031.8351 254.0635,-1080.5 258.951,-1085.2459 264.7329,-1088.8964 270.9617,-1091.6871"/>
<polygon fill="#191970" stroke="#191970" points="269.7627,-1094.9754 280.3554,-1095.1881 272.2073,-1088.4161 269.7627,-1094.9754"/>
</g>
<!-- Node19 -->
<g id="node20" class="node">
<title>Node19</title>
<g id="a_node20"><a xlink:href="class_parameters.html#a8e349761195db7184f309e0f074da84d" target="_top" xlink:title=" ">
<polygon fill="#ffffff" stroke="#000000" points="272.6816,-1052.5 272.6816,-1070.5 411.5088,-1070.5 411.5088,-1052.5 272.6816,-1052.5"/>
<text text-anchor="middle" x="342.0952" y="-1058.5" font-family="Helvetica,sans-Serif" font-size="10.00" fill="#000000">Parameters::setBatchName</text>
</a>
</g>
</g>
<!-- Node2&#45;&gt;Node19 -->
<g id="edge19" class="edge">
<title>Node2&#45;&gt;Node19</title>
<path fill="none" stroke="#191970" d="M196.302,-914.7186C204.3288,-917.582 211.9782,-921.6743 218.0635,-927.5 257.0565,-964.8298 214.0469,-1007.2695 254.0635,-1043.5 256.8894,-1046.0586 259.978,-1048.2927 263.2534,-1050.241"/>
<polygon fill="#191970" stroke="#191970" points="261.7967,-1053.4256 272.3076,-1054.7572 264.9212,-1047.1616 261.7967,-1053.4256"/>
</g>
<!-- Node20 -->
<g id="node21" class="node">
<title>Node20</title>
<g id="a_node21"><a xlink:href="class_parameters.html#af4a107cdc7b6400685fdcbd33983a16f" target="_top" xlink:title=" ">
<polygon fill="#ffffff" stroke="#000000" points="280.4648,-1015.5 280.4648,-1033.5 403.7256,-1033.5 403.7256,-1015.5 280.4648,-1015.5"/>
<text text-anchor="middle" x="342.0952" y="-1021.5" font-family="Helvetica,sans-Serif" font-size="10.00" fill="#000000">Parameters::setHotStart</text>
</a>
</g>
</g>
<!-- Node2&#45;&gt;Node20 -->
<g id="edge20" class="edge">
<title>Node2&#45;&gt;Node20</title>
<path fill="none" stroke="#191970" d="M196.4526,-915.6422C204.2771,-918.4154 211.8199,-922.2381 218.0635,-927.5 247.5678,-952.3653 223.8787,-982.4652 254.0635,-1006.5 259.0287,-1010.4536 264.6394,-1013.6052 270.5649,-1016.1098"/>
<polygon fill="#191970" stroke="#191970" points="269.4936,-1019.4439 280.0881,-1019.5353 271.863,-1012.8571 269.4936,-1019.4439"/>
</g>
<!-- Node21 -->
<g id="node22" class="node">
<title>Node21</title>
<g id="a_node22"><a xlink:href="class_parameters.html#a84d9a6f8a32bbe13f7abe045453700a0" target="_top" xlink:title=" ">
<polygon fill="#ffffff" stroke="#000000" points="270.4648,-978.5 270.4648,-996.5 413.7256,-996.5 413.7256,-978.5 270.4648,-978.5"/>
<text text-anchor="middle" x="342.0952" y="-984.5" font-family="Helvetica,sans-Serif" font-size="10.00" fill="#000000">Parameters::setRSTHotStart</text>
</a>
</g>
</g>
<!-- Node2&#45;&gt;Node21 -->
<g id="edge21" class="edge">
<title>Node2&#45;&gt;Node21</title>
<path fill="none" stroke="#191970" d="M196.4372,-917.597C204.0075,-920.1337 211.4739,-923.3709 218.0635,-927.5 238.8968,-940.5544 232.875,-957.0303 254.0635,-969.5 257.4455,-971.4904 261.0129,-973.2634 264.6966,-974.8425"/>
<polygon fill="#191970" stroke="#191970" points="263.4619,-978.1175 274.0535,-978.3819 265.9386,-971.5702 263.4619,-978.1175"/>
</g>
<!-- Node22 -->
<g id="node23" class="node">
<title>Node22</title>
<g id="a_node23"><a xlink:href="class_parameters.html#a0e0118ebbe8f19148a5c6d737c7a2c85" target="_top" xlink:title=" ">
<polygon fill="#ffffff" stroke="#000000" points="295.1938,-941.5 295.1938,-959.5 388.9966,-959.5 388.9966,-941.5 295.1938,-941.5"/>
<text text-anchor="middle" x="342.0952" y="-947.5" font-family="Helvetica,sans-Serif" font-size="10.00" fill="#000000">Parameters::setN</text>
</a>
</g>
</g>
<!-- Node2&#45;&gt;Node22 -->
<g id="edge22" class="edge">
<title>Node2&#45;&gt;Node22</title>
<path fill="none" stroke="#191970" d="M185.9123,-917.5487C206.2978,-922.113 231.4823,-927.6872 254.0635,-932.5 264.81,-934.7904 276.3073,-937.1832 287.3286,-939.4485"/>
<polygon fill="#191970" stroke="#191970" points="286.7824,-942.9092 297.2813,-941.4865 288.1867,-936.0515 286.7824,-942.9092"/>
</g>
<!-- Node23 -->
<g id="node24" class="node">
<title>Node23</title>
<g id="a_node24"><a xlink:href="class_parameters.html#a95d3c7f35ed0421419d98faecb2c23e8" target="_top" xlink:title=" ">
<polygon fill="#ffffff" stroke="#000000" points="275.1768,-894.5 275.1768,-922.5 409.0137,-922.5 409.0137,-894.5 275.1768,-894.5"/>
<text text-anchor="start" x="283.1768" y="-910.5" font-family="Helvetica,sans-Serif" font-size="10.00" fill="#000000">Parameters::setSubLattice</text>
<text text-anchor="middle" x="342.0952" y="-900.5" font-family="Helvetica,sans-Serif" font-size="10.00" fill="#000000">Preset</text>
</a>
</g>
</g>
<!-- Node2&#45;&gt;Node23 -->
<g id="edge23" class="edge">
<title>Node2&#45;&gt;Node23</title>
<path fill="none" stroke="#191970" d="M196.1474,-908.5C217.0185,-908.5 241.7132,-908.5 264.7965,-908.5"/>
<polygon fill="#191970" stroke="#191970" points="264.9208,-912.0001 274.9208,-908.5 264.9207,-905.0001 264.9208,-912.0001"/>
</g>
<!-- Node24 -->
<g id="node25" class="node">
<title>Node24</title>
<g id="a_node25"><a xlink:href="class_parallel_1_1_communicator.html#aea1c6e1ff8f4f40d3db0ac8e0b29db62" target="_top" xlink:title=" ">
<polygon fill="#ffffff" stroke="#000000" points="282.1323,-847.5 282.1323,-875.5 402.0581,-875.5 402.0581,-847.5 282.1323,-847.5"/>
<text text-anchor="start" x="290.1323" y="-863.5" font-family="Helvetica,sans-Serif" font-size="10.00" fill="#000000">Parallel::Communicator</text>
<text text-anchor="middle" x="342.0952" y="-853.5" font-family="Helvetica,sans-Serif" font-size="10.00" fill="#000000">::setN</text>
</a>
</g>
</g>
<!-- Node2&#45;&gt;Node24 -->
<g id="edge24" class="edge">
<title>Node2&#45;&gt;Node24</title>
<path fill="none" stroke="#191970" d="M183.7035,-899.4379C209.1183,-893.3506 243.3435,-885.153 273.4764,-877.9355"/>
<polygon fill="#191970" stroke="#191970" points="274.6103,-881.263 283.5199,-875.5299 272.9797,-874.4556 274.6103,-881.263"/>
</g>
<!-- Node25 -->
<g id="node26" class="node">
<title>Node25</title>
<g id="a_node26"><a xlink:href="class_parallel_1_1_index.html#ab8650936d7000d54b811dd128618f9ad" target="_top" xlink:title=" ">
<polygon fill="#ffffff" stroke="#000000" points="289.3516,-810.5 289.3516,-828.5 394.8389,-828.5 394.8389,-810.5 289.3516,-810.5"/>
<text text-anchor="middle" x="342.0952" y="-816.5" font-family="Helvetica,sans-Serif" font-size="10.00" fill="#000000">Parallel::Index::setN</text>
</a>
</g>
</g>
<!-- Node2&#45;&gt;Node25 -->
<g id="edge25" class="edge">
<title>Node2&#45;&gt;Node25</title>
<path fill="none" stroke="#191970" d="M156.7908,-899.4806C175.5032,-884.4962 215.4233,-854.5375 254.0635,-838.5 262.0375,-835.1904 270.6673,-832.4246 279.299,-830.1219"/>
<polygon fill="#191970" stroke="#191970" points="280.1462,-833.5179 289.0104,-827.7146 278.462,-826.7235 280.1462,-833.5179"/>
</g>
<!-- Node26 -->
<g id="node27" class="node">
<title>Node26</title>
<g id="a_node27"><a xlink:href="class_parameters.html#abbcb8f09dfec507ec29caa248819522b" target="_top" xlink:title=" ">
<polygon fill="#ffffff" stroke="#000000" points="265.7358,-773.5 265.7358,-791.5 418.4546,-791.5 418.4546,-773.5 265.7358,-773.5"/>
<text text-anchor="middle" x="342.0952" y="-779.5" font-family="Helvetica,sans-Serif" font-size="10.00" fill="#000000">Parameters::setExpFuncName</text>
</a>
</g>
</g>
<!-- Node2&#45;&gt;Node26 -->
<g id="edge26" class="edge">
<title>Node2&#45;&gt;Node26</title>
<path fill="none" stroke="#191970" d="M152.2392,-899.3062C167.3002,-878.3252 207.3675,-826.7808 254.0635,-801.5 258.8758,-798.8947 264.0177,-796.6466 269.3092,-794.7067"/>
<polygon fill="#191970" stroke="#191970" points="270.5485,-797.9837 278.9565,-791.5374 268.3636,-791.3334 270.5485,-797.9837"/>
</g>
<!-- Node27 -->
<g id="node28" class="node">
<title>Node27</title>
<g id="a_node28"><a xlink:href="class_parameters.html#a4f96947340b496b847a808b8be6fc5f9" target="_top" xlink:title=" ">
<polygon fill="#ffffff" stroke="#000000" points="276.8442,-726.5 276.8442,-754.5 407.3462,-754.5 407.3462,-726.5 276.8442,-726.5"/>
<text text-anchor="start" x="284.8442" y="-742.5" font-family="Helvetica,sans-Serif" font-size="10.00" fill="#000000">Parameters::setLoadField</text>
<text text-anchor="middle" x="342.0952" y="-732.5" font-family="Helvetica,sans-Serif" font-size="10.00" fill="#000000">Configurations</text>
</a>
</g>
</g>
<!-- Node2&#45;&gt;Node27 -->
<g id="edge27" class="edge">
<title>Node2&#45;&gt;Node27</title>
<path fill="none" stroke="#191970" d="M150.0025,-899.4323C162.0939,-873.9553 199.9875,-801.2021 254.0635,-764.5 258.1103,-761.7533 262.4615,-759.3201 266.9848,-757.1647"/>
<polygon fill="#191970" stroke="#191970" points="268.6439,-760.2621 276.4687,-753.119 265.8973,-753.8235 268.6439,-760.2621"/>
</g>
<!-- Node28 -->
<g id="node29" class="node">
<title>Node28</title>
<g id="a_node29"><a xlink:href="class_parameters.html#a632a2371d7b5d157df2dd42e7b6ab843" target="_top" xlink:title=" ">
<polygon fill="#ffffff" stroke="#000000" points="269.8984,-679.5 269.8984,-707.5 414.292,-707.5 414.292,-679.5 269.8984,-679.5"/>
<text text-anchor="start" x="277.8984" y="-695.5" font-family="Helvetica,sans-Serif" font-size="10.00" fill="#000000">Parameters::setLoadChroma</text>
<text text-anchor="middle" x="342.0952" y="-685.5" font-family="Helvetica,sans-Serif" font-size="10.00" fill="#000000">Configurations</text>
</a>
</g>
</g>
<!-- Node2&#45;&gt;Node28 -->
<g id="edge28" class="edge">
<title>Node2&#45;&gt;Node28</title>
<path fill="none" stroke="#191970" d="M148.3278,-899.2414C157.0288,-868.3272 189.373,-767.7876 254.0635,-717.5 256.4085,-715.6771 258.8822,-713.9925 261.4533,-712.4356"/>
<polygon fill="#191970" stroke="#191970" points="263.333,-715.4004 270.524,-707.6196 260.0503,-709.2178 263.333,-715.4004"/>
</g>
<!-- Node29 -->
<g id="node30" class="node">
<title>Node29</title>
<g id="a_node30"><a xlink:href="class_parameters.html#aa7e911174ec1991f6750b9774b184fd3" target="_top" xlink:title=" ">
<polygon fill="#ffffff" stroke="#000000" points="273.2285,-632.5 273.2285,-660.5 410.9619,-660.5 410.9619,-632.5 273.2285,-632.5"/>
<text text-anchor="start" x="281.2285" y="-648.5" font-family="Helvetica,sans-Serif" font-size="10.00" fill="#000000">Parameters::setLoadConfig</text>
<text text-anchor="middle" x="342.0952" y="-638.5" font-family="Helvetica,sans-Serif" font-size="10.00" fill="#000000">AndRun</text>
</a>
</g>
</g>
<!-- Node2&#45;&gt;Node29 -->
<g id="edge29" class="edge">
<title>Node2&#45;&gt;Node29</title>
<path fill="none" stroke="#191970" d="M147.2524,-899.0596C153.0032,-863.2979 178.3677,-734.9261 254.0635,-670.5 257.1641,-667.861 260.5296,-665.51 264.0754,-663.4157"/>
<polygon fill="#191970" stroke="#191970" points="265.9175,-666.4042 273.2127,-658.721 262.7185,-660.178 265.9175,-666.4042"/>
</g>
<!-- Node30 -->
<g id="node31" class="node">
<title>Node30</title>
<g id="a_node31"><a xlink:href="class_parameters.html#a4863c437df48cd3242fdb67221a3d6ed" target="_top" xlink:title=" ">
<polygon fill="#ffffff" stroke="#000000" points="273.7925,-585.5 273.7925,-613.5 410.3979,-613.5 410.3979,-585.5 273.7925,-585.5"/>
<text text-anchor="start" x="281.7925" y="-601.5" font-family="Helvetica,sans-Serif" font-size="10.00" fill="#000000">Parameters::setConfigStart</text>
<text text-anchor="middle" x="342.0952" y="-591.5" font-family="Helvetica,sans-Serif" font-size="10.00" fill="#000000">Number</text>
</a>
</g>
</g>
<!-- Node2&#45;&gt;Node30 -->
<g id="edge30" class="edge">
<title>Node2&#45;&gt;Node30</title>
<path fill="none" stroke="#191970" d="M146.4428,-899.4679C149.4353,-860.2102 166.6749,-702.8248 254.0635,-623.5 257.2964,-620.5654 260.8536,-617.9845 264.6279,-615.7152"/>
<polygon fill="#191970" stroke="#191970" points="266.5147,-618.6792 273.7777,-610.9656 263.2897,-612.4664 266.5147,-618.6792"/>
</g>
<!-- Node31 -->
<g id="node32" class="node">
<title>Node31</title>
<g id="a_node32"><a xlink:href="class_parameters.html#a2d7077c967fffbdc6652559ec261b67c" target="_top" xlink:title=" ">
<polygon fill="#ffffff" stroke="#000000" points="274.0708,-548.5 274.0708,-566.5 410.1196,-566.5 410.1196,-548.5 274.0708,-548.5"/>
<text text-anchor="middle" x="342.0952" y="-554.5" font-family="Helvetica,sans-Serif" font-size="10.00" fill="#000000">Parameters::setUnitTesting</text>
</a>
</g>
</g>
<!-- Node2&#45;&gt;Node31 -->
<g id="edge31" class="edge">
<title>Node2&#45;&gt;Node31</title>
<path fill="none" stroke="#191970" d="M147.5664,-899.4362C156.8185,-850.9723 202.6448,-622.9027 254.0635,-576.5 257.2628,-573.6128 260.7936,-571.1271 264.5475,-568.9898"/>
<polygon fill="#191970" stroke="#191970" points="266.1633,-572.0966 273.6605,-564.6104 263.1312,-565.7873 266.1633,-572.0966"/>
</g>
<!-- Node32 -->
<g id="node33" class="node">
<title>Node32</title>
<g id="a_node33"><a xlink:href="class_parameters.html#a2cf1ae12581e8f80dd88ce6c60f37c5f" target="_top" xlink:title=" ">
<polygon fill="#ffffff" stroke="#000000" points="274.0708,-501.5 274.0708,-529.5 410.1196,-529.5 410.1196,-501.5 274.0708,-501.5"/>
<text text-anchor="start" x="282.0708" y="-517.5" font-family="Helvetica,sans-Serif" font-size="10.00" fill="#000000">Parameters::setUnitTesting</text>
<text text-anchor="middle" x="342.0952" y="-507.5" font-family="Helvetica,sans-Serif" font-size="10.00" fill="#000000">Verbose</text>
</a>
</g>
</g>
<!-- Node2&#45;&gt;Node32 -->
<g id="edge32" class="edge">
<title>Node2&#45;&gt;Node32</title>
<path fill="none" stroke="#191970" d="M147.3493,-899.1812C155.7884,-847.1668 199.3808,-593.1505 254.0635,-539.5 257.3321,-536.2931 260.9849,-533.5044 264.8935,-531.0804"/>
<polygon fill="#191970" stroke="#191970" points="266.6257,-534.1234 273.809,-526.3355 263.3369,-527.9441 266.6257,-534.1234"/>
</g>
<!-- Node33 -->
<g id="node34" class="node">
<title>Node33</title>
<g id="a_node34"><a xlink:href="class_parameters.html#a0b9d1947d6a3a016ed196d97b548730d" target="_top" xlink:title=" ">
<polygon fill="#ffffff" stroke="#000000" points="270.1816,-454.5 270.1816,-482.5 414.0088,-482.5 414.0088,-454.5 270.1816,-454.5"/>
<text text-anchor="start" x="278.1816" y="-470.5" font-family="Helvetica,sans-Serif" font-size="10.00" fill="#000000">Parameters::setPerformance</text>
<text text-anchor="middle" x="342.0952" y="-460.5" font-family="Helvetica,sans-Serif" font-size="10.00" fill="#000000">Testing</text>
</a>
</g>
</g>
<!-- Node2&#45;&gt;Node33 -->
<g id="edge33" class="edge">
<title>Node2&#45;&gt;Node33</title>
<path fill="none" stroke="#191970" d="M146.9839,-899.4868C153.9651,-844.4443 193.3436,-553.9354 254.0635,-492.5 256.2036,-490.3347 258.5185,-488.3592 260.9699,-486.5573"/>
<polygon fill="#191970" stroke="#191970" points="263.1354,-489.332 269.7751,-481.0757 259.4359,-483.3895 263.1354,-489.332"/>
</g>
<!-- Node34 -->
<g id="node35" class="node">
<title>Node34</title>
<g id="a_node35"><a xlink:href="class_parameters.html#a5cbf802e3e5db24cf0b8afc3f39f0830" target="_top" xlink:title=" ">
<polygon fill="#ffffff" stroke="#000000" points="274.9082,-417.5 274.9082,-435.5 409.2822,-435.5 409.2822,-417.5 274.9082,-417.5"/>
<text text-anchor="middle" x="342.0952" y="-423.5" font-family="Helvetica,sans-Serif" font-size="10.00" fill="#000000">Parameters::setNExpTests</text>
</a>
</g>
</g>
<!-- Node2&#45;&gt;Node34 -->
<g id="edge34" class="edge">
<title>Node2&#45;&gt;Node34</title>
<path fill="none" stroke="#191970" d="M146.707,-899.2124C152.2581,-839.7491 185.6345,-512.7761 254.0635,-445.5 257.4152,-442.2047 261.1938,-439.4214 265.2526,-437.0751"/>
<polygon fill="#191970" stroke="#191970" points="267.0378,-440.1002 274.5291,-432.6081 264.0007,-433.7933 267.0378,-440.1002"/>
</g>
<!-- Node35 -->
<g id="node36" class="node">
<title>Node35</title>
<g id="a_node36"><a xlink:href="class_parameters.html#a24bd9c86cda80898bc65b950983b6a17" target="_top" xlink:title=" ">
<polygon fill="#ffffff" stroke="#000000" points="271.5708,-380.5 271.5708,-398.5 412.6196,-398.5 412.6196,-380.5 271.5708,-380.5"/>
<text text-anchor="middle" x="342.0952" y="-386.5" font-family="Helvetica,sans-Serif" font-size="10.00" fill="#000000">Parameters::setNRandTests</text>
</a>
</g>
</g>
<!-- Node2&#45;&gt;Node35 -->
<g id="edge35" class="edge">
<title>Node2&#45;&gt;Node35</title>
<path fill="none" stroke="#191970" d="M146.5299,-899.2905C151.1601,-837.3567 180.7233,-481.8011 254.0635,-408.5 256.6294,-405.9354 259.4535,-403.6796 262.4677,-401.6977"/>
<polygon fill="#191970" stroke="#191970" points="264.3145,-404.677 271.4095,-396.8086 260.9563,-398.5351 264.3145,-404.677"/>
</g>
<!-- Node36 -->
<g id="node37" class="node">
<title>Node36</title>
<g id="a_node37"><a xlink:href="class_parameters.html#ae924eabec82bfe600eda893c6f71b00e" target="_top" xlink:title=" ">
<polygon fill="#ffffff" stroke="#000000" points="272.9648,-333.5 272.9648,-361.5 411.2256,-361.5 411.2256,-333.5 272.9648,-333.5"/>
<text text-anchor="start" x="280.9648" y="-349.5" font-family="Helvetica,sans-Serif" font-size="10.00" fill="#000000">Parameters::setNDerivaitve</text>
<text text-anchor="middle" x="342.0952" y="-339.5" font-family="Helvetica,sans-Serif" font-size="10.00" fill="#000000">Tests</text>
</a>
</g>
</g>
<!-- Node2&#45;&gt;Node36 -->
<g id="edge36" class="edge">
<title>Node2&#45;&gt;Node36</title>
<path fill="none" stroke="#191970" d="M146.419,-899.4969C150.4887,-835.7708 177.9147,-452.9577 254.0635,-371.5 257.0452,-368.3104 260.4053,-365.5295 264.0277,-363.1061"/>
<polygon fill="#191970" stroke="#191970" points="265.9276,-366.0524 272.9016,-358.0766 262.476,-359.9626 265.9276,-366.0524"/>
</g>
<!-- Node37 -->
<g id="node38" class="node">
<title>Node37</title>
<g id="a_node38"><a xlink:href="class_parameters.html#a68fb3eccef5dae481915be728ef61fb6" target="_top" xlink:title=" ">
<polygon fill="#ffffff" stroke="#000000" points="278.2407,-286.5 278.2407,-314.5 405.9497,-314.5 405.9497,-286.5 278.2407,-286.5"/>
<text text-anchor="start" x="286.2407" y="-302.5" font-family="Helvetica,sans-Serif" font-size="10.00" fill="#000000">Parameters::setTaylorPol</text>
<text text-anchor="middle" x="342.0952" y="-292.5" font-family="Helvetica,sans-Serif" font-size="10.00" fill="#000000">Degree</text>
</a>
</g>
</g>
<!-- Node2&#45;&gt;Node37 -->
<g id="edge37" class="edge">
<title>Node2&#45;&gt;Node37</title>
<path fill="none" stroke="#191970" d="M146.2776,-899.1551C149.4311,-831.2438 172.018,-413.652 254.0635,-324.5 258.3577,-319.8338 263.4615,-316.0402 269.0166,-312.9602"/>
<polygon fill="#191970" stroke="#191970" points="270.5196,-316.1211 278.0663,-308.6848 267.5294,-309.7919 270.5196,-316.1211"/>
</g>
<!-- Node38 -->
<g id="node39" class="node">
<title>Node38</title>
<g id="a_node39"><a xlink:href="class_parameters.html#a6b0d9bf17b3c8096c3454d291e086ac2" target="_top" xlink:title=" ">
<polygon fill="#ffffff" stroke="#000000" points="284.0708,-249.5 284.0708,-267.5 400.1196,-267.5 400.1196,-249.5 284.0708,-249.5"/>
<text text-anchor="middle" x="342.0952" y="-255.5" font-family="Helvetica,sans-Serif" font-size="10.00" fill="#000000">Parameters::setDebug</text>
</a>
</g>
</g>
<!-- Node2&#45;&gt;Node38 -->
<g id="edge38" class="edge">
<title>Node2&#45;&gt;Node38</title>
<path fill="none" stroke="#191970" d="M146.8157,-899.3743C154.5704,-825.3701 208.5032,-325.0512 254.0635,-277.5 259.7542,-271.5606 266.8237,-267.26 274.4651,-264.1754"/>
<polygon fill="#191970" stroke="#191970" points="275.6379,-267.4738 284.0152,-260.9875 273.4215,-260.8339 275.6379,-267.4738"/>
</g>
<!-- Node39 -->
<g id="node40" class="node">
<title>Node39</title>
<g id="a_node40"><a xlink:href="class_parameters.html#ad6a40d1cf972c0f1379cf011bb7da2b1" target="_top" xlink:title=" ">
<polygon fill="#ffffff" stroke="#000000" points="273.7949,-202.5 273.7949,-230.5 410.3955,-230.5 410.3955,-202.5 273.7949,-202.5"/>
<text text-anchor="start" x="281.7949" y="-218.5" font-family="Helvetica,sans-Serif" font-size="10.00" fill="#000000">Parameters::setCheckField</text>
<text text-anchor="middle" x="342.0952" y="-208.5" font-family="Helvetica,sans-Serif" font-size="10.00" fill="#000000">GaugeInvariance</text>
</a>
</g>
</g>
<!-- Node2&#45;&gt;Node39 -->
<g id="edge39" class="edge">
<title>Node2&#45;&gt;Node39</title>
<path fill="none" stroke="#191970" d="M146.7516,-899.3511C154.1987,-822.9369 207.4102,-292.359 254.0635,-240.5 257.1872,-237.0277 260.7592,-234.0368 264.6346,-231.4626"/>
<polygon fill="#191970" stroke="#191970" points="266.5351,-234.4098 273.5474,-226.4676 263.1128,-228.3034 266.5351,-234.4098"/>
</g>
<!-- Node40 -->
<g id="node41" class="node">
<title>Node40</title>
<g id="a_node41"><a xlink:href="class_parameters.html#afba800600f057fa6ed8fb317add0af30" target="_top" xlink:title=" ">
<polygon fill="#ffffff" stroke="#000000" points="272.9551,-155.5 272.9551,-183.5 411.2354,-183.5 411.2354,-155.5 272.9551,-155.5"/>
<text text-anchor="start" x="280.9551" y="-171.5" font-family="Helvetica,sans-Serif" font-size="10.00" fill="#000000">Parameters::setGaugeField</text>
<text text-anchor="middle" x="342.0952" y="-161.5" font-family="Helvetica,sans-Serif" font-size="10.00" fill="#000000">ToCheck</text>
</a>
</g>
</g>
<!-- Node2&#45;&gt;Node40 -->
<g id="edge40" class="edge">
<title>Node2&#45;&gt;Node40</title>
<path fill="none" stroke="#191970" d="M146.9679,-899.3251C156.7532,-817.9093 229.1762,-221.4551 254.0635,-193.5 256.9667,-190.2389 260.2653,-187.4018 263.8403,-184.9352"/>
<polygon fill="#191970" stroke="#191970" points="265.7415,-187.8785 272.6281,-179.8271 262.2237,-181.8266 265.7415,-187.8785"/>
</g>
<!-- Node2&#45;&gt;Node45 -->
<g id="edge41" class="edge">
<title>Node2&#45;&gt;Node45</title>
<path fill="none" stroke="#191970" d="M147.0283,-899.3329C157.8346,-814.0081 240.8463,-161.4837 254.0635,-146.5 259.1066,-140.7829 265.3646,-136.3671 272.2025,-132.9655"/>
<polygon fill="#191970" stroke="#191970" points="273.959,-136.0242 281.8268,-128.9285 271.2513,-129.5691 273.959,-136.0242"/>
</g>
<!-- Node52&#45;&gt;Node68 -->
<g id="edge47" class="edge">
<title>Node52&#45;&gt;Node68</title>
<path fill="none" stroke="#191970" d="M173.3281,-123.4628C195.1308,-116.3862 226.4366,-106.4447 254.0635,-98.5 261.4287,-96.382 269.1639,-94.2407 276.8645,-92.161"/>
<polygon fill="#191970" stroke="#191970" points="277.813,-95.5304 286.5696,-89.5661 276.0048,-88.768 277.813,-95.5304"/>
</g>
<!-- Node69&#45;&gt;Node68 -->
<g id="edge49" class="edge">
<title>Node69&#45;&gt;Node68</title>
<path fill="none" stroke="#191970" d="M180.9504,-59.8968C206.107,-62.3327 240.851,-65.6968 271.6385,-68.6779"/>
<polygon fill="#191970" stroke="#191970" points="271.6175,-72.1921 281.9083,-69.6723 272.2922,-65.2247 271.6175,-72.1921"/>
</g>
</g>
</svg>
