<?xml version="1.0" encoding="UTF-8" standalone="no"?>
<!DOCTYPE svg PUBLIC "-//W3C//DTD SVG 1.1//EN"
 "http://www.w3.org/Graphics/SVG/1.1/DTD/svg11.dtd">
<!-- Generated by graphviz version 2.40.1 (20161225.0304)
 -->
<!-- Title: GLAC/observables/mastersamplertopcxyz.cpp Pages: 1 -->
<svg width="975pt" height="522pt"
 viewBox="0.00 0.00 974.60 522.00" xmlns="http://www.w3.org/2000/svg" xmlns:xlink="http://www.w3.org/1999/xlink">
<g id="graph0" class="graph" transform="scale(1 1) rotate(0) translate(4 518)">
<title>GLAC/observables/mastersamplertopcxyz.cpp</title>
<polygon fill="#ffffff" stroke="transparent" points="-4,4 -4,-518 970.6039,-518 970.6039,4 -4,4"/>
<!-- Node0 -->
<g id="node1" class="node">
<title>Node0</title>
<g id="a_node1"><a xlink:title=" ">
<polygon fill="#bfbfbf" stroke="#000000" points="729.9791,-495.5 729.9791,-513.5 951.6188,-513.5 951.6188,-495.5 729.9791,-495.5"/>
<text text-anchor="middle" x="840.799" y="-501.5" font-family="Helvetica,sans-Serif" font-size="10.00" fill="#000000">GLAC/observables/mastersamplertopcxyz.cpp</text>
</a>
</g>
</g>
<!-- Node1 -->
<g id="node2" class="node">
<title>Node1</title>
<g id="a_node2"><a xlink:href="mastersamplertopcxyz_8h.html" target="_top" xlink:title=" ">
<polygon fill="#ffffff" stroke="#000000" points="297.6144,-440.5 297.6144,-458.5 421.9835,-458.5 421.9835,-440.5 297.6144,-440.5"/>
<text text-anchor="middle" x="359.799" y="-446.5" font-family="Helvetica,sans-Serif" font-size="10.00" fill="#000000">mastersamplertopcxyz.h</text>
</a>
</g>
</g>
<!-- Node0&#45;&gt;Node1 -->
<g id="edge1" class="edge">
<title>Node0&#45;&gt;Node1</title>
<path fill="none" stroke="#191970" d="M761.9102,-495.4795C670.4217,-485.0182 520.8597,-467.9165 432.2195,-457.7809"/>
<polygon fill="#191970" stroke="#191970" points="432.5822,-454.2997 422.2493,-456.6409 431.7869,-461.2544 432.5822,-454.2997"/>
</g>
<!-- Node25 -->
<g id="node26" class="node">
<title>Node25</title>
<g id="a_node26"><a xlink:title=" ">
<polygon fill="#ffffff" stroke="#bfbfbf" points="907.1832,-440.5 907.1832,-458.5 950.4147,-458.5 950.4147,-440.5 907.1832,-440.5"/>
<text text-anchor="middle" x="928.799" y="-446.5" font-family="Helvetica,sans-Serif" font-size="10.00" fill="#000000">cmath</text>
</a>
</g>
</g>
<!-- Node0&#45;&gt;Node25 -->
<g id="edge44" class="edge">
<title>Node0&#45;&gt;Node25</title>
<path fill="none" stroke="#191970" d="M855.3304,-495.4179C868.9603,-486.8992 889.5725,-474.0166 905.4986,-464.0627"/>
<polygon fill="#191970" stroke="#191970" points="907.621,-466.8637 914.246,-458.5956 903.911,-460.9277 907.621,-466.8637"/>
</g>
<!-- Node26 -->
<g id="node27" class="node">
<title>Node26</title>
<g id="a_node27"><a xlink:href="communicator_8h.html" target="_top" xlink:title=" ">
<polygon fill="#ffffff" stroke="#000000" points="662.5407,-275.5 662.5407,-293.5 813.0573,-293.5 813.0573,-275.5 662.5407,-275.5"/>
<text text-anchor="middle" x="737.799" y="-281.5" font-family="Helvetica,sans-Serif" font-size="10.00" fill="#000000">parallelization/communicator.h</text>
</a>
</g>
</g>
<!-- Node0&#45;&gt;Node26 -->
<g id="edge45" class="edge">
<title>Node0&#45;&gt;Node26</title>
<path fill="none" stroke="#191970" d="M837.8584,-495.0833C826.8384,-459.8494 788.3836,-337.4228 783.799,-330 776.9296,-318.8782 766.7998,-308.4654 757.7933,-300.4154"/>
<polygon fill="#191970" stroke="#191970" points="759.8426,-297.563 749.9637,-293.7342 755.2988,-302.8878 759.8426,-297.563"/>
</g>
<!-- Node27 -->
<g id="node28" class="node">
<title>Node27</title>
<g id="a_node28"><a xlink:href="parameters_8h.html" target="_top" xlink:title=" ">
<polygon fill="#ffffff" stroke="#000000" points="735.6095,-220.5 735.6095,-238.5 839.9884,-238.5 839.9884,-220.5 735.6095,-220.5"/>
<text text-anchor="middle" x="787.799" y="-226.5" font-family="Helvetica,sans-Serif" font-size="10.00" fill="#000000">config/parameters.h</text>
</a>
</g>
</g>
<!-- Node0&#45;&gt;Node27 -->
<g id="edge48" class="edge">
<title>Node0&#45;&gt;Node27</title>
<path fill="none" stroke="#191970" d="M840.799,-495.3733C840.799,-476.5256 840.799,-431.9306 840.799,-394.5 840.799,-394.5 840.799,-394.5 840.799,-339.5 840.799,-309.6154 835.176,-301.7234 821.799,-275 816.6883,-264.7904 809.2458,-254.5088 802.6261,-246.3087"/>
<polygon fill="#191970" stroke="#191970" points="805.2692,-244.0137 796.1577,-238.6072 799.909,-248.5157 805.2692,-244.0137"/>
</g>
<!-- Node28 -->
<g id="node29" class="node">
<title>Node28</title>
<g id="a_node29"><a xlink:href="observablesio_8h.html" target="_top" xlink:title=" ">
<polygon fill="#ffffff" stroke="#000000" points="857.4962,-220.5 857.4962,-238.5 954.1017,-238.5 954.1017,-220.5 857.4962,-220.5"/>
<text text-anchor="middle" x="905.799" y="-226.5" font-family="Helvetica,sans-Serif" font-size="10.00" fill="#000000">io/observablesio.h</text>
</a>
</g>
</g>
<!-- Node0&#45;&gt;Node28 -->
<g id="edge51" class="edge">
<title>Node0&#45;&gt;Node28</title>
<path fill="none" stroke="#191970" d="M846.2434,-495.4507C856.7508,-477.0998 878.799,-433.899 878.799,-394.5 878.799,-394.5 878.799,-394.5 878.799,-339.5 878.799,-306.6971 890.2636,-269.9368 898.2516,-248.3052"/>
<polygon fill="#191970" stroke="#191970" points="901.6115,-249.3189 901.9305,-238.7289 895.0771,-246.8086 901.6115,-249.3189"/>
</g>
<!-- Node2 -->
<g id="node3" class="node">
<title>Node2</title>
<g id="a_node3"><a xlink:href="lattice_8h.html" target="_top" xlink:title=" ">
<polygon fill="#ffffff" stroke="#000000" points="255.0626,-220.5 255.0626,-238.5 330.5353,-238.5 330.5353,-220.5 255.0626,-220.5"/>
<text text-anchor="middle" x="292.799" y="-226.5" font-family="Helvetica,sans-Serif" font-size="10.00" fill="#000000">math/lattice.h</text>
</a>
</g>
</g>
<!-- Node1&#45;&gt;Node2 -->
<g id="edge2" class="edge">
<title>Node1&#45;&gt;Node2</title>
<path fill="none" stroke="#191970" d="M315.1479,-440.4584C241.6781,-424.5744 100.5456,-389.4779 71.799,-349 24.2437,-282.0376 166.2074,-248.9308 244.6237,-236.103"/>
<polygon fill="#191970" stroke="#191970" points="245.4484,-239.5162 254.7786,-234.4966 244.3546,-232.6022 245.4484,-239.5162"/>
</g>
<!-- Node14 -->
<g id="node15" class="node">
<title>Node14</title>
<g id="a_node15"><a xlink:href="observables_8h.html" target="_top" xlink:title=" ">
<polygon fill="#ffffff" stroke="#000000" points="292.319,-385.5 292.319,-403.5 427.279,-403.5 427.279,-385.5 292.319,-385.5"/>
<text text-anchor="middle" x="359.799" y="-391.5" font-family="Helvetica,sans-Serif" font-size="10.00" fill="#000000">observables/observables.h</text>
</a>
</g>
</g>
<!-- Node1&#45;&gt;Node14 -->
<g id="edge19" class="edge">
<title>Node1&#45;&gt;Node14</title>
<path fill="none" stroke="#191970" d="M354.6327,-440.4179C353.1411,-433.2164 352.7031,-422.8962 353.3188,-413.8632"/>
<polygon fill="#191970" stroke="#191970" points="356.8116,-414.1392 354.5922,-403.7795 349.8668,-413.2621 356.8116,-414.1392"/>
</g>
<!-- Node3 -->
<g id="node4" class="node">
<title>Node3</title>
<g id="a_node4"><a xlink:title=" ">
<polygon fill="#ffffff" stroke="#bfbfbf" points="616.1832,-110.5 616.1832,-128.5 659.4147,-128.5 659.4147,-110.5 616.1832,-110.5"/>
<text text-anchor="middle" x="637.799" y="-116.5" font-family="Helvetica,sans-Serif" font-size="10.00" fill="#000000">vector</text>
</a>
</g>
</g>
<!-- Node2&#45;&gt;Node3 -->
<g id="edge3" class="edge">
<title>Node2&#45;&gt;Node3</title>
<path fill="none" stroke="#191970" d="M325.026,-220.4211C353.5133,-212.0502 395.984,-198.7218 431.799,-184 449.2635,-176.8212 452.1542,-171.7236 469.799,-165 516.1163,-147.3506 572.0518,-133.6385 606.2639,-126.0641"/>
<polygon fill="#191970" stroke="#191970" points="607.1223,-129.4593 616.1494,-123.9129 605.6338,-122.6194 607.1223,-129.4593"/>
</g>
<!-- Node4 -->
<g id="node5" class="node">
<title>Node4</title>
<g id="a_node5"><a xlink:title=" ">
<polygon fill="#ffffff" stroke="#bfbfbf" points="22.5724,-110.5 22.5724,-128.5 63.0255,-128.5 63.0255,-110.5 22.5724,-110.5"/>
<text text-anchor="middle" x="42.799" y="-116.5" font-family="Helvetica,sans-Serif" font-size="10.00" fill="#000000">mpi.h</text>
</a>
</g>
</g>
<!-- Node2&#45;&gt;Node4 -->
<g id="edge4" class="edge">
<title>Node2&#45;&gt;Node4</title>
<path fill="none" stroke="#191970" d="M254.8392,-226.2291C180.3553,-219.4259 20.8704,-202.8098 4.799,-184 -8.0702,-168.9381 7.8583,-148.9453 22.8532,-135.2335"/>
<polygon fill="#191970" stroke="#191970" points="25.1546,-137.8705 30.4519,-128.6951 20.5889,-132.5644 25.1546,-137.8705"/>
</g>
<!-- Node5 -->
<g id="node6" class="node">
<title>Node5</title>
<g id="a_node6"><a xlink:href="index_8h.html" target="_top" xlink:title=" ">
<polygon fill="#ffffff" stroke="#000000" points="478.713,-165.5 478.713,-183.5 590.8849,-183.5 590.8849,-165.5 478.713,-165.5"/>
<text text-anchor="middle" x="534.799" y="-171.5" font-family="Helvetica,sans-Serif" font-size="10.00" fill="#000000">parallelization/index.h</text>
</a>
</g>
</g>
<!-- Node2&#45;&gt;Node5 -->
<g id="edge5" class="edge">
<title>Node2&#45;&gt;Node5</title>
<path fill="none" stroke="#191970" d="M330.6115,-220.9063C372.1369,-211.4687 438.9973,-196.2731 484.8215,-185.8585"/>
<polygon fill="#191970" stroke="#191970" points="485.862,-189.2114 494.8376,-183.5821 484.3106,-182.3855 485.862,-189.2114"/>
</g>
<!-- Node6 -->
<g id="node7" class="node">
<title>Node6</title>
<g id="a_node7"><a xlink:href="neighbours_8h.html" target="_top" xlink:title=" ">
<polygon fill="#ffffff" stroke="#000000" points="202.9249,-165.5 202.9249,-183.5 340.673,-183.5 340.673,-165.5 202.9249,-165.5"/>
<text text-anchor="middle" x="271.799" y="-171.5" font-family="Helvetica,sans-Serif" font-size="10.00" fill="#000000">parallelization/neighbours.h</text>
</a>
</g>
</g>
<!-- Node2&#45;&gt;Node6 -->
<g id="edge7" class="edge">
<title>Node2&#45;&gt;Node6</title>
<path fill="none" stroke="#191970" d="M289.3312,-220.4179C286.5211,-213.0581 282.4674,-202.441 278.9655,-193.2695"/>
<polygon fill="#191970" stroke="#191970" points="282.1789,-191.8732 275.342,-183.7795 275.6393,-194.3701 282.1789,-191.8732"/>
</g>
<!-- Node8 -->
<g id="node9" class="node">
<title>Node8</title>
<g id="a_node9"><a xlink:href="parallelparameters_8h.html" target="_top" xlink:title=" ">
<polygon fill="#ffffff" stroke="#000000" points="14.2575,-165.5 14.2575,-183.5 185.3405,-183.5 185.3405,-165.5 14.2575,-165.5"/>
<text text-anchor="middle" x="99.799" y="-171.5" font-family="Helvetica,sans-Serif" font-size="10.00" fill="#000000">parallelization/parallelparameters.h</text>
</a>
</g>
</g>
<!-- Node2&#45;&gt;Node8 -->
<g id="edge10" class="edge">
<title>Node2&#45;&gt;Node8</title>
<path fill="none" stroke="#191970" d="M260.9289,-220.4179C228.1444,-211.0751 176.9408,-196.4834 141.0764,-186.263"/>
<polygon fill="#191970" stroke="#191970" points="141.9719,-182.8789 131.3956,-183.5042 140.0534,-189.6109 141.9719,-182.8789"/>
</g>
<!-- Node9 -->
<g id="node10" class="node">
<title>Node9</title>
<g id="a_node10"><a xlink:href="functions_8h.html" target="_top" xlink:title=" ">
<polygon fill="#ffffff" stroke="#000000" points="358.6168,-165.5 358.6168,-183.5 422.9811,-183.5 422.9811,-165.5 358.6168,-165.5"/>
<text text-anchor="middle" x="390.799" y="-171.5" font-family="Helvetica,sans-Serif" font-size="10.00" fill="#000000">functions.h</text>
</a>
</g>
</g>
<!-- Node2&#45;&gt;Node9 -->
<g id="edge12" class="edge">
<title>Node2&#45;&gt;Node9</title>
<path fill="none" stroke="#191970" d="M308.9817,-220.4179C324.4442,-211.7399 347.9758,-198.5334 365.8398,-188.5077"/>
<polygon fill="#191970" stroke="#191970" points="367.5847,-191.542 374.5922,-183.5956 364.1587,-185.4377 367.5847,-191.542"/>
</g>
<!-- Node5&#45;&gt;Node3 -->
<g id="edge6" class="edge">
<title>Node5&#45;&gt;Node3</title>
<path fill="none" stroke="#191970" d="M551.8073,-165.4179C568.1333,-156.7001 593.018,-143.4122 611.8244,-133.3699"/>
<polygon fill="#191970" stroke="#191970" points="613.5928,-136.3934 620.7653,-128.5956 610.2955,-130.2186 613.5928,-136.3934"/>
</g>
<!-- Node6&#45;&gt;Node3 -->
<g id="edge9" class="edge">
<title>Node6&#45;&gt;Node3</title>
<path fill="none" stroke="#191970" d="M331.8266,-165.4795C410.2647,-153.6923 544.8028,-133.4748 605.9202,-124.2905"/>
<polygon fill="#191970" stroke="#191970" points="606.7381,-127.707 616.1069,-122.7597 605.6978,-120.7847 606.7381,-127.707"/>
</g>
<!-- Node7 -->
<g id="node8" class="node">
<title>Node7</title>
<g id="a_node8"><a xlink:href="neighbourlist_8h.html" target="_top" xlink:title=" ">
<polygon fill="#ffffff" stroke="#000000" points="191.277,-110.5 191.277,-128.5 272.3209,-128.5 272.3209,-110.5 191.277,-110.5"/>
<text text-anchor="middle" x="231.799" y="-116.5" font-family="Helvetica,sans-Serif" font-size="10.00" fill="#000000">neighbourlist.h</text>
</a>
</g>
</g>
<!-- Node6&#45;&gt;Node7 -->
<g id="edge8" class="edge">
<title>Node6&#45;&gt;Node7</title>
<path fill="none" stroke="#191970" d="M265.1938,-165.4179C259.611,-157.7415 251.4511,-146.5217 244.595,-137.0945"/>
<polygon fill="#191970" stroke="#191970" points="247.26,-134.8082 238.5477,-128.7795 241.5988,-138.9255 247.26,-134.8082"/>
</g>
<!-- Node8&#45;&gt;Node4 -->
<g id="edge11" class="edge">
<title>Node8&#45;&gt;Node4</title>
<path fill="none" stroke="#191970" d="M90.3866,-165.4179C82.103,-157.425 69.838,-145.5903 59.8345,-135.9377"/>
<polygon fill="#191970" stroke="#191970" points="62.0424,-133.2045 52.4159,-128.7795 57.1818,-138.2419 62.0424,-133.2045"/>
</g>
<!-- Node10 -->
<g id="node11" class="node">
<title>Node10</title>
<g id="a_node11"><a xlink:href="su3_8h.html" target="_top" xlink:title=" ">
<polygon fill="#ffffff" stroke="#000000" points="290.2868,-110.5 290.2868,-128.5 371.3112,-128.5 371.3112,-110.5 290.2868,-110.5"/>
<text text-anchor="middle" x="330.799" y="-116.5" font-family="Helvetica,sans-Serif" font-size="10.00" fill="#000000">matrices/su3.h</text>
</a>
</g>
</g>
<!-- Node9&#45;&gt;Node10 -->
<g id="edge13" class="edge">
<title>Node9&#45;&gt;Node10</title>
<path fill="none" stroke="#191970" d="M380.8912,-165.4179C372.0854,-157.3458 359.0051,-145.3556 348.419,-135.6517"/>
<polygon fill="#191970" stroke="#191970" points="350.6586,-132.9567 340.922,-128.7795 345.9285,-138.1168 350.6586,-132.9567"/>
</g>
<!-- Node11 -->
<g id="node12" class="node">
<title>Node11</title>
<g id="a_node12"><a xlink:href="complex_8h.html" target="_top" xlink:title=" ">
<polygon fill="#ffffff" stroke="#000000" points="386.506,-55.5 386.506,-73.5 473.0919,-73.5 473.0919,-55.5 386.506,-55.5"/>
<text text-anchor="middle" x="429.799" y="-61.5" font-family="Helvetica,sans-Serif" font-size="10.00" fill="#000000">math/complex.h</text>
</a>
</g>
</g>
<!-- Node9&#45;&gt;Node11 -->
<g id="edge18" class="edge">
<title>Node9&#45;&gt;Node11</title>
<path fill="none" stroke="#191970" d="M423.0129,-167.1502C443.1329,-160.7144 467.4813,-149.1313 479.799,-129 490.8565,-110.9282 471.9375,-91.962 454.2883,-79.312"/>
<polygon fill="#191970" stroke="#191970" points="456.1132,-76.3213 445.863,-73.6409 452.2045,-82.1284 456.1132,-76.3213"/>
</g>
<!-- Node13 -->
<g id="node14" class="node">
<title>Node13</title>
<g id="a_node14"><a xlink:href="su2_8h.html" target="_top" xlink:title=" ">
<polygon fill="#ffffff" stroke="#000000" points="389.2868,-110.5 389.2868,-128.5 470.3112,-128.5 470.3112,-110.5 389.2868,-110.5"/>
<text text-anchor="middle" x="429.799" y="-116.5" font-family="Helvetica,sans-Serif" font-size="10.00" fill="#000000">matrices/su2.h</text>
</a>
</g>
</g>
<!-- Node9&#45;&gt;Node13 -->
<g id="edge16" class="edge">
<title>Node9&#45;&gt;Node13</title>
<path fill="none" stroke="#191970" d="M397.239,-165.4179C402.6822,-157.7415 410.6381,-146.5217 417.3229,-137.0945"/>
<polygon fill="#191970" stroke="#191970" points="420.2897,-138.9613 423.219,-128.7795 414.5796,-134.9123 420.2897,-138.9613"/>
</g>
<!-- Node10&#45;&gt;Node11 -->
<g id="edge14" class="edge">
<title>Node10&#45;&gt;Node11</title>
<path fill="none" stroke="#191970" d="M347.1468,-110.4179C362.7671,-101.7399 386.5388,-88.5334 404.5851,-78.5077"/>
<polygon fill="#191970" stroke="#191970" points="406.385,-81.5117 413.4268,-73.5956 402.9855,-75.3925 406.385,-81.5117"/>
</g>
<!-- Node12 -->
<g id="node13" class="node">
<title>Node12</title>
<g id="a_node13"><a xlink:title=" ">
<polygon fill="#ffffff" stroke="#bfbfbf" points="402.6266,-.5 402.6266,-18.5 456.9713,-18.5 456.9713,-.5 402.6266,-.5"/>
<text text-anchor="middle" x="429.799" y="-6.5" font-family="Helvetica,sans-Serif" font-size="10.00" fill="#000000">iostream</text>
</a>
</g>
</g>
<!-- Node11&#45;&gt;Node12 -->
<g id="edge15" class="edge">
<title>Node11&#45;&gt;Node12</title>
<path fill="none" stroke="#191970" d="M429.799,-55.4179C429.799,-48.2164 429.799,-37.8962 429.799,-28.8632"/>
<polygon fill="#191970" stroke="#191970" points="433.2991,-28.7794 429.799,-18.7795 426.2991,-28.7795 433.2991,-28.7794"/>
</g>
<!-- Node13&#45;&gt;Node11 -->
<g id="edge17" class="edge">
<title>Node13&#45;&gt;Node11</title>
<path fill="none" stroke="#191970" d="M429.799,-110.4179C429.799,-103.2164 429.799,-92.8962 429.799,-83.8632"/>
<polygon fill="#191970" stroke="#191970" points="433.2991,-83.7794 429.799,-73.7795 426.2991,-83.7795 433.2991,-83.7794"/>
</g>
<!-- Node14&#45;&gt;Node1 -->
<g id="edge36" class="edge">
<title>Node14&#45;&gt;Node1</title>
<path fill="none" stroke="#191970" d="M365.0057,-403.7795C366.4781,-411.0373 366.8969,-421.3738 366.2621,-430.383"/>
<polygon fill="#191970" stroke="#191970" points="362.7759,-430.0517 364.9653,-440.4179 369.7182,-430.949 362.7759,-430.0517"/>
</g>
<!-- Node15 -->
<g id="node16" class="node">
<title>Node15</title>
<g id="a_node16"><a xlink:href="correlator_8h.html" target="_top" xlink:title=" ">
<polygon fill="#ffffff" stroke="#000000" points="568.7843,-275.5 568.7843,-293.5 634.8136,-293.5 634.8136,-275.5 568.7843,-275.5"/>
<text text-anchor="middle" x="601.799" y="-281.5" font-family="Helvetica,sans-Serif" font-size="10.00" fill="#000000">correlator.h</text>
</a>
</g>
</g>
<!-- Node14&#45;&gt;Node15 -->
<g id="edge20" class="edge">
<title>Node14&#45;&gt;Node15</title>
<path fill="none" stroke="#191970" d="M427.5477,-388.9324C511.8723,-381.3039 646.7104,-366.5322 661.799,-349 677.1434,-331.1706 652.3908,-311.4824 630.1839,-298.6051"/>
<polygon fill="#191970" stroke="#191970" points="631.7098,-295.4498 621.2616,-293.693 628.3338,-301.5819 631.7098,-295.4498"/>
</g>
<!-- Node18 -->
<g id="node19" class="node">
<title>Node18</title>
<g id="a_node19"><a xlink:href="energydensity_8h.html" target="_top" xlink:title=" ">
<polygon fill="#ffffff" stroke="#000000" points="446.8673,-330.5 446.8673,-348.5 532.7306,-348.5 532.7306,-330.5 446.8673,-330.5"/>
<text text-anchor="middle" x="489.799" y="-336.5" font-family="Helvetica,sans-Serif" font-size="10.00" fill="#000000">energydensity.h</text>
</a>
</g>
</g>
<!-- Node14&#45;&gt;Node18 -->
<g id="edge26" class="edge">
<title>Node14&#45;&gt;Node18</title>
<path fill="none" stroke="#191970" d="M381.2658,-385.4179C402.436,-376.4613 435.0083,-362.6806 458.9488,-352.552"/>
<polygon fill="#191970" stroke="#191970" points="460.4543,-355.7155 468.3002,-348.5956 457.7268,-349.2687 460.4543,-355.7155"/>
</g>
<!-- Node19 -->
<g id="node20" class="node">
<title>Node19</title>
<g id="a_node20"><a xlink:href="plaquette_8h.html" target="_top" xlink:title=" ">
<polygon fill="#ffffff" stroke="#000000" points="709.0553,-330.5 709.0553,-348.5 774.5426,-348.5 774.5426,-330.5 709.0553,-330.5"/>
<text text-anchor="middle" x="741.799" y="-336.5" font-family="Helvetica,sans-Serif" font-size="10.00" fill="#000000">plaquette.h</text>
</a>
</g>
</g>
<!-- Node14&#45;&gt;Node19 -->
<g id="edge29" class="edge">
<title>Node14&#45;&gt;Node19</title>
<path fill="none" stroke="#191970" d="M427.3658,-386.6205C495.1626,-378.4095 602.4883,-364.5815 694.799,-349 696.0918,-348.7818 697.4035,-348.5544 698.7268,-348.3199"/>
<polygon fill="#191970" stroke="#191970" points="699.7871,-351.6829 708.9791,-346.4144 698.5079,-344.8008 699.7871,-351.6829"/>
</g>
<!-- Node20 -->
<g id="node21" class="node">
<title>Node20</title>
<g id="a_node21"><a xlink:href="topologicalcharge_8h.html" target="_top" xlink:title=" ">
<polygon fill="#ffffff" stroke="#000000" points="550.4347,-330.5 550.4347,-348.5 653.1632,-348.5 653.1632,-330.5 550.4347,-330.5"/>
<text text-anchor="middle" x="601.799" y="-336.5" font-family="Helvetica,sans-Serif" font-size="10.00" fill="#000000">topologicalcharge.h</text>
</a>
</g>
</g>
<!-- Node14&#45;&gt;Node20 -->
<g id="edge31" class="edge">
<title>Node14&#45;&gt;Node20</title>
<path fill="none" stroke="#191970" d="M399.4894,-385.4795C441.2515,-375.9881 507.0648,-361.0305 552.2163,-350.7688"/>
<polygon fill="#191970" stroke="#191970" points="553.1113,-354.1547 562.0869,-348.5255 551.5599,-347.3288 553.1113,-354.1547"/>
</g>
<!-- Node21 -->
<g id="node22" class="node">
<title>Node21</title>
<g id="a_node22"><a xlink:href="mastersampler_8h.html" target="_top" xlink:title=" ">
<polygon fill="#ffffff" stroke="#000000" points="182.8385,-330.5 182.8385,-348.5 272.7594,-348.5 272.7594,-330.5 182.8385,-330.5"/>
<text text-anchor="middle" x="227.799" y="-336.5" font-family="Helvetica,sans-Serif" font-size="10.00" fill="#000000">mastersampler.h</text>
</a>
</g>
</g>
<!-- Node14&#45;&gt;Node21 -->
<g id="edge33" class="edge">
<title>Node14&#45;&gt;Node21</title>
<path fill="none" stroke="#191970" d="M332.8355,-385.4179C309.5884,-376.5011 276.4816,-362.803 253.5874,-352.6873"/>
<polygon fill="#191970" stroke="#191970" points="255.0162,-349.4922 244.4594,-348.5956 252.1529,-355.8799 255.0162,-349.4922"/>
</g>
<!-- Node22 -->
<g id="node23" class="node">
<title>Node22</title>
<g id="a_node23"><a xlink:href="latticeactionchargedensity_8h.html" target="_top" xlink:title=" ">
<polygon fill="#ffffff" stroke="#000000" points="290.4635,-330.5 290.4635,-348.5 429.1344,-348.5 429.1344,-330.5 290.4635,-330.5"/>
<text text-anchor="middle" x="359.799" y="-336.5" font-family="Helvetica,sans-Serif" font-size="10.00" fill="#000000">latticeactionchargedensity.h</text>
</a>
</g>
</g>
<!-- Node14&#45;&gt;Node22 -->
<g id="edge37" class="edge">
<title>Node14&#45;&gt;Node22</title>
<path fill="none" stroke="#191970" d="M354.6327,-385.4179C353.1411,-378.2164 352.7031,-367.8962 353.3188,-358.8632"/>
<polygon fill="#191970" stroke="#191970" points="356.8116,-359.1392 354.5922,-348.7795 349.8668,-358.2621 356.8116,-359.1392"/>
</g>
<!-- Node23 -->
<g id="node24" class="node">
<title>Node23</title>
<g id="a_node24"><a xlink:href="supersampler_8h.html" target="_top" xlink:title=" ">
<polygon fill="#ffffff" stroke="#000000" points="80.612,-330.5 80.612,-348.5 164.986,-348.5 164.986,-330.5 80.612,-330.5"/>
<text text-anchor="middle" x="122.799" y="-336.5" font-family="Helvetica,sans-Serif" font-size="10.00" fill="#000000">supersampler.h</text>
</a>
</g>
</g>
<!-- Node14&#45;&gt;Node23 -->
<g id="edge40" class="edge">
<title>Node14&#45;&gt;Node23</title>
<path fill="none" stroke="#191970" d="M315.7751,-385.4795C273.0774,-376.0279 208.8466,-361.1561 166.3225,-350.8984"/>
<polygon fill="#191970" stroke="#191970" points="167.0792,-347.4805 156.536,-348.5255 165.4296,-354.2834 167.0792,-347.4805"/>
</g>
<!-- Node15&#45;&gt;Node2 -->
<g id="edge21" class="edge">
<title>Node15&#45;&gt;Node2</title>
<path fill="none" stroke="#191970" d="M568.7306,-278.614C514.0154,-268.8751 404.4101,-249.3661 341.0461,-238.0877"/>
<polygon fill="#191970" stroke="#191970" points="341.3697,-234.5903 330.9111,-236.2837 340.143,-241.482 341.3697,-234.5903"/>
</g>
<!-- Node15&#45;&gt;Node3 -->
<g id="edge25" class="edge">
<title>Node15&#45;&gt;Node3</title>
<path fill="none" stroke="#191970" d="M596.9408,-275.3056C590.9466,-262.7857 582.0915,-239.6791 586.799,-220 590.8197,-203.1916 613.5779,-161.7225 627.2981,-137.6326"/>
<polygon fill="#191970" stroke="#191970" points="630.4395,-139.1904 632.3818,-128.7751 624.3684,-135.7059 630.4395,-139.1904"/>
</g>
<!-- Node16 -->
<g id="node17" class="node">
<title>Node16</title>
<g id="a_node17"><a xlink:href="observablestorer_8h.html" target="_top" xlink:title=" ">
<polygon fill="#ffffff" stroke="#000000" points="595.7106,-220.5 595.7106,-238.5 717.8874,-238.5 717.8874,-220.5 595.7106,-220.5"/>
<text text-anchor="middle" x="656.799" y="-226.5" font-family="Helvetica,sans-Serif" font-size="10.00" fill="#000000">tools/observablestorer.h</text>
</a>
</g>
</g>
<!-- Node15&#45;&gt;Node16 -->
<g id="edge22" class="edge">
<title>Node15&#45;&gt;Node16</title>
<path fill="none" stroke="#191970" d="M610.8811,-275.4179C618.874,-267.425 630.7086,-255.5903 640.3612,-245.9377"/>
<polygon fill="#191970" stroke="#191970" points="642.9233,-248.3254 647.5195,-238.7795 637.9735,-243.3757 642.9233,-248.3254"/>
</g>
<!-- Node16&#45;&gt;Node3 -->
<g id="edge24" class="edge">
<title>Node16&#45;&gt;Node3</title>
<path fill="none" stroke="#191970" d="M655.2441,-220.4982C652.1684,-202.6913 645.2474,-162.6225 641.107,-138.6515"/>
<polygon fill="#191970" stroke="#191970" points="644.5264,-137.8845 639.3753,-128.6261 637.6285,-139.076 644.5264,-137.8845"/>
</g>
<!-- Node17 -->
<g id="node18" class="node">
<title>Node17</title>
<g id="a_node18"><a xlink:title=" ">
<polygon fill="#ffffff" stroke="#bfbfbf" points="767.5724,-165.5 767.5724,-183.5 808.0255,-183.5 808.0255,-165.5 767.5724,-165.5"/>
<text text-anchor="middle" x="787.799" y="-171.5" font-family="Helvetica,sans-Serif" font-size="10.00" fill="#000000">string</text>
</a>
</g>
</g>
<!-- Node16&#45;&gt;Node17 -->
<g id="edge23" class="edge">
<title>Node16&#45;&gt;Node17</title>
<path fill="none" stroke="#191970" d="M678.431,-220.4179C700.1472,-211.3004 733.7699,-197.184 758.0031,-187.0097"/>
<polygon fill="#191970" stroke="#191970" points="759.5637,-190.1505 767.4291,-183.0522 756.8538,-183.6963 759.5637,-190.1505"/>
</g>
<!-- Node18&#45;&gt;Node9 -->
<g id="edge28" class="edge">
<title>Node18&#45;&gt;Node9</title>
<path fill="none" stroke="#191970" d="M484.1926,-330.1561C468.265,-303.6101 422.545,-227.41 401.5611,-192.4369"/>
<polygon fill="#191970" stroke="#191970" points="404.49,-190.5156 396.3438,-183.7414 398.4876,-194.1171 404.49,-190.5156"/>
</g>
<!-- Node18&#45;&gt;Node15 -->
<g id="edge27" class="edge">
<title>Node18&#45;&gt;Node15</title>
<path fill="none" stroke="#191970" d="M508.2935,-330.4179C526.2081,-321.6205 553.6001,-308.1691 574.1134,-298.0956"/>
<polygon fill="#191970" stroke="#191970" points="575.8437,-301.1452 583.277,-293.5956 572.7581,-294.8619 575.8437,-301.1452"/>
</g>
<!-- Node19&#45;&gt;Node15 -->
<g id="edge30" class="edge">
<title>Node19&#45;&gt;Node15</title>
<path fill="none" stroke="#191970" d="M718.6808,-330.4179C695.6796,-321.3817 660.1797,-307.4353 634.3369,-297.2828"/>
<polygon fill="#191970" stroke="#191970" points="635.5388,-293.9946 624.9515,-293.5956 632.9792,-300.5098 635.5388,-293.9946"/>
</g>
<!-- Node20&#45;&gt;Node15 -->
<g id="edge32" class="edge">
<title>Node20&#45;&gt;Node15</title>
<path fill="none" stroke="#191970" d="M601.799,-330.4179C601.799,-323.2164 601.799,-312.8962 601.799,-303.8632"/>
<polygon fill="#191970" stroke="#191970" points="605.2991,-303.7794 601.799,-293.7795 598.2991,-303.7795 605.2991,-303.7794"/>
</g>
<!-- Node21&#45;&gt;Node2 -->
<g id="edge34" class="edge">
<title>Node21&#45;&gt;Node2</title>
<path fill="none" stroke="#191970" d="M233.1182,-330.4982C243.8309,-312.369 268.1789,-271.1647 282.2418,-247.3659"/>
<polygon fill="#191970" stroke="#191970" points="285.3322,-249.016 287.4063,-238.6261 279.3057,-245.4549 285.3322,-249.016"/>
</g>
<!-- Node21&#45;&gt;Node14 -->
<g id="edge35" class="edge">
<title>Node21&#45;&gt;Node14</title>
<path fill="none" stroke="#191970" d="M254.7976,-348.5956C277.9508,-357.4774 310.8659,-371.0937 333.7381,-381.1924"/>
<polygon fill="#191970" stroke="#191970" points="332.6112,-384.5227 343.1682,-385.4179 335.4736,-378.1347 332.6112,-384.5227"/>
</g>
<!-- Node22&#45;&gt;Node2 -->
<g id="edge38" class="edge">
<title>Node22&#45;&gt;Node2</title>
<path fill="none" stroke="#191970" d="M354.3161,-330.4982C343.2737,-312.369 318.1766,-271.1647 303.6809,-247.3659"/>
<polygon fill="#191970" stroke="#191970" points="306.5488,-245.346 298.3576,-238.6261 300.5704,-248.9873 306.5488,-245.346"/>
</g>
<!-- Node22&#45;&gt;Node14 -->
<g id="edge39" class="edge">
<title>Node22&#45;&gt;Node14</title>
<path fill="none" stroke="#191970" d="M365.0057,-348.7795C366.4781,-356.0373 366.8969,-366.3738 366.2621,-375.383"/>
<polygon fill="#191970" stroke="#191970" points="362.7759,-375.0517 364.9653,-385.4179 369.7182,-375.949 362.7759,-375.0517"/>
</g>
<!-- Node23&#45;&gt;Node2 -->
<g id="edge41" class="edge">
<title>Node23&#45;&gt;Node2</title>
<path fill="none" stroke="#191970" d="M122.8897,-330.225C123.5374,-316.3126 126.8224,-290.0697 141.799,-275 156.3712,-260.3372 206.2914,-247.1412 244.7881,-238.7834"/>
<polygon fill="#191970" stroke="#191970" points="245.7445,-242.1585 254.8015,-236.6611 244.2931,-235.3106 245.7445,-242.1585"/>
</g>
<!-- Node23&#45;&gt;Node14 -->
<g id="edge42" class="edge">
<title>Node23&#45;&gt;Node14</title>
<path fill="none" stroke="#191970" d="M165.2036,-348.1624C207.8495,-357.5856 273.1092,-372.69 316.1754,-383.0775"/>
<polygon fill="#191970" stroke="#191970" points="315.539,-386.5245 326.0822,-385.4795 317.1885,-379.7216 315.539,-386.5245"/>
</g>
<!-- Node24 -->
<g id="node25" class="node">
<title>Node24</title>
<g id="a_node25"><a xlink:title=" ">
<polygon fill="#ffffff" stroke="#bfbfbf" points="151.0724,-275.5 151.0724,-293.5 186.5255,-293.5 186.5255,-275.5 151.0724,-275.5"/>
<text text-anchor="middle" x="168.799" y="-281.5" font-family="Helvetica,sans-Serif" font-size="10.00" fill="#000000">map</text>
</a>
</g>
</g>
<!-- Node23&#45;&gt;Node24 -->
<g id="edge43" class="edge">
<title>Node23&#45;&gt;Node24</title>
<path fill="none" stroke="#191970" d="M130.3949,-330.4179C136.9475,-322.5833 146.5872,-311.0575 154.5693,-301.5137"/>
<polygon fill="#191970" stroke="#191970" points="157.3072,-303.6957 161.038,-293.7795 151.9376,-299.2048 157.3072,-303.6957"/>
</g>
<!-- Node26&#45;&gt;Node2 -->
<g id="edge47" class="edge">
<title>Node26&#45;&gt;Node2</title>
<path fill="none" stroke="#191970" d="M664.8146,-275.4795C573.1372,-264.1485 418.4289,-245.0273 340.5794,-235.4055"/>
<polygon fill="#191970" stroke="#191970" points="340.9249,-231.9216 330.5711,-234.1685 340.0662,-238.8687 340.9249,-231.9216"/>
</g>
<!-- Node26&#45;&gt;Node3 -->
<g id="edge46" class="edge">
<title>Node26&#45;&gt;Node3</title>
<path fill="none" stroke="#191970" d="M813.3007,-279.3138C871.1084,-273.5853 944.0315,-261.9426 962.799,-239 968.1457,-232.4638 967.3251,-227.129 962.799,-220 930.6758,-169.404 745.219,-135.8662 669.7411,-124.1398"/>
<polygon fill="#191970" stroke="#191970" points="670.2617,-120.6788 659.8481,-122.6304 669.2058,-127.5987 670.2617,-120.6788"/>
</g>
<!-- Node27&#45;&gt;Node3 -->
<g id="edge50" class="edge">
<title>Node27&#45;&gt;Node3</title>
<path fill="none" stroke="#191970" d="M775.5238,-220.4982C749.8133,-201.6439 690.0692,-157.8315 658.3847,-134.5962"/>
<polygon fill="#191970" stroke="#191970" points="660.3776,-131.7174 650.2437,-128.6261 656.238,-137.3622 660.3776,-131.7174"/>
</g>
<!-- Node27&#45;&gt;Node17 -->
<g id="edge49" class="edge">
<title>Node27&#45;&gt;Node17</title>
<path fill="none" stroke="#191970" d="M787.799,-220.4179C787.799,-213.2164 787.799,-202.8962 787.799,-193.8632"/>
<polygon fill="#191970" stroke="#191970" points="791.2991,-193.7794 787.799,-183.7795 784.2991,-193.7795 791.2991,-193.7794"/>
</g>
<!-- Node28&#45;&gt;Node3 -->
<g id="edge53" class="edge">
<title>Node28&#45;&gt;Node3</title>
<path fill="none" stroke="#191970" d="M895.9299,-220.3701C880.3137,-206.4068 848.423,-179.8116 816.799,-165 768.1702,-142.224 706.5628,-129.7755 669.7677,-123.8894"/>
<polygon fill="#191970" stroke="#191970" points="670.0482,-120.3915 659.633,-122.3345 668.9866,-127.3106 670.0482,-120.3915"/>
</g>
<!-- Node28&#45;&gt;Node17 -->
<g id="edge52" class="edge">
<title>Node28&#45;&gt;Node17</title>
<path fill="none" stroke="#191970" d="M886.3137,-220.4179C867.2685,-211.5409 838.0568,-197.9253 816.3828,-187.823"/>
<polygon fill="#191970" stroke="#191970" points="817.8557,-184.648 807.3132,-183.5956 814.8984,-190.9927 817.8557,-184.648"/>
</g>
</g>
</svg>
