<?xml version="1.0" encoding="UTF-8" standalone="no"?>
<!DOCTYPE svg PUBLIC "-//W3C//DTD SVG 1.1//EN"
 "http://www.w3.org/Graphics/SVG/1.1/DTD/svg11.dtd">
<!-- Generated by graphviz version 2.40.1 (20161225.0304)
 -->
<!-- Title: IO::writeObservablesToFile Pages: 1 -->
<svg width="550pt" height="225pt"
 viewBox="0.00 0.00 549.82 225.00" xmlns="http://www.w3.org/2000/svg" xmlns:xlink="http://www.w3.org/1999/xlink">
<g id="graph0" class="graph" transform="scale(1 1) rotate(0) translate(4 221)">
<title>IO::writeObservablesToFile</title>
<polygon fill="#ffffff" stroke="transparent" points="-4,4 -4,-221 545.8213,-221 545.8213,4 -4,4"/>
<!-- Node39 -->
<g id="node1" class="node">
<title>Node39</title>
<g id="a_node1"><a xlink:title="IO::writeObservablesToFile method for writing an observable to file, using .15 precision.">
<polygon fill="#bfbfbf" stroke="#000000" points="405.7822,-99.5 405.7822,-117.5 541.8213,-117.5 541.8213,-99.5 405.7822,-99.5"/>
<text text-anchor="middle" x="473.8018" y="-105.5" font-family="Helvetica,sans-Serif" font-size="10.00" fill="#000000">IO::writeObservablesToFile</text>
</a>
</g>
</g>
<!-- Node40 -->
<g id="node2" class="node">
<title>Node40</title>
<g id="a_node2"><a xlink:href="class_observable_storer.html#a146f9acb8a0a2ce15782d26bdc4f0bf9" target="_top" xlink:title="ObservableStorer::writeObservableToFile.">
<polygon fill="#ffffff" stroke="#000000" points="197.6055,-94.5 197.6055,-122.5 369.7822,-122.5 369.7822,-94.5 197.6055,-94.5"/>
<text text-anchor="start" x="205.6055" y="-110.5" font-family="Helvetica,sans-Serif" font-size="10.00" fill="#000000">ObservableStorer::writeObservable</text>
<text text-anchor="middle" x="283.6938" y="-100.5" font-family="Helvetica,sans-Serif" font-size="10.00" fill="#000000">ToFile</text>
</a>
</g>
</g>
<!-- Node39&#45;&gt;Node40 -->
<g id="edge1" class="edge">
<title>Node39&#45;&gt;Node40</title>
<path fill="none" stroke="#191970" d="M395.5067,-108.5C387.0561,-108.5 378.423,-108.5 369.886,-108.5"/>
<polygon fill="#191970" stroke="#191970" points="395.7054,-112.0001 405.7054,-108.5 395.7054,-105.0001 395.7054,-112.0001"/>
</g>
<!-- Node41 -->
<g id="node3" class="node">
<title>Node41</title>
<g id="a_node3"><a xlink:href="class_correlator.html#a9e8d80e30e4fbe3b7fe57521538cb5ff" target="_top" xlink:title="Correlator::writeObservableToFile calls the ObservableStorer for writing observable to file.">
<polygon fill="#ffffff" stroke="#000000" points="11.6699,-188.5 11.6699,-216.5 149.9355,-216.5 149.9355,-188.5 11.6699,-188.5"/>
<text text-anchor="start" x="19.6699" y="-204.5" font-family="Helvetica,sans-Serif" font-size="10.00" fill="#000000">Correlator::writeObservable</text>
<text text-anchor="middle" x="80.8027" y="-194.5" font-family="Helvetica,sans-Serif" font-size="10.00" fill="#000000">ToFile</text>
</a>
</g>
</g>
<!-- Node40&#45;&gt;Node41 -->
<g id="edge2" class="edge">
<title>Node40&#45;&gt;Node41</title>
<path fill="none" stroke="#191970" d="M254.2777,-128.4213C230.2015,-144.0229 194.8195,-165.378 161.6055,-179.5 153.8204,-182.8101 145.4152,-185.8009 137.0706,-188.4472"/>
<polygon fill="#191970" stroke="#191970" points="256.4812,-131.1618 262.9235,-122.7506 252.642,-125.3085 256.4812,-131.1618"/>
</g>
<!-- Node42 -->
<g id="node4" class="node">
<title>Node42</title>
<g id="a_node4"><a xlink:href="class_lattice_action_charge_density.html#a719f71aaccbf1b4147ea944781d69908" target="_top" xlink:title="Correlator::writeObservableToFile calls the ObservableStorer for writing observable to file.">
<polygon fill="#ffffff" stroke="#000000" points="11.1035,-141.5 11.1035,-169.5 150.502,-169.5 150.502,-141.5 11.1035,-141.5"/>
<text text-anchor="start" x="19.1035" y="-157.5" font-family="Helvetica,sans-Serif" font-size="10.00" fill="#000000">LatticeActionChargeDensity</text>
<text text-anchor="middle" x="80.8027" y="-147.5" font-family="Helvetica,sans-Serif" font-size="10.00" fill="#000000">::writeObservableToFile</text>
</a>
</g>
</g>
<!-- Node40&#45;&gt;Node42 -->
<g id="edge3" class="edge">
<title>Node40&#45;&gt;Node42</title>
<path fill="none" stroke="#191970" d="M213.2356,-124.8217C189.8453,-130.2402 164.0237,-136.2218 141.44,-141.4533"/>
<polygon fill="#191970" stroke="#191970" points="214.1425,-128.2044 223.0946,-122.5379 212.5627,-121.385 214.1425,-128.2044"/>
</g>
<!-- Node43 -->
<g id="node5" class="node">
<title>Node43</title>
<g id="a_node5"><a xlink:href="class_master_sampler.html#a638714c38e1a6252ab8b6be1fa224bd4" target="_top" xlink:title="Correlator::writeObservableToFile calls the ObservableStorer for writing observable to file.">
<polygon fill="#ffffff" stroke="#000000" points="0,-94.5 0,-122.5 161.6055,-122.5 161.6055,-94.5 0,-94.5"/>
<text text-anchor="start" x="8" y="-110.5" font-family="Helvetica,sans-Serif" font-size="10.00" fill="#000000">MasterSampler::writeObservable</text>
<text text-anchor="middle" x="80.8027" y="-100.5" font-family="Helvetica,sans-Serif" font-size="10.00" fill="#000000">ToFile</text>
</a>
</g>
</g>
<!-- Node40&#45;&gt;Node43 -->
<g id="edge4" class="edge">
<title>Node40&#45;&gt;Node43</title>
<path fill="none" stroke="#191970" d="M187.107,-108.5C178.6739,-108.5 170.196,-108.5 161.907,-108.5"/>
<polygon fill="#191970" stroke="#191970" points="187.3556,-112.0001 197.3556,-108.5 187.3555,-105.0001 187.3556,-112.0001"/>
</g>
<!-- Node44 -->
<g id="node6" class="node">
<title>Node44</title>
<g id="a_node6"><a xlink:href="class_master_sampler_topc_x_y_z.html#a930f13a2a13f4b3820f40c8b52110cf2" target="_top" xlink:title="Correlator::writeObservableToFile calls the ObservableStorer for writing observable to file.">
<polygon fill="#ffffff" stroke="#000000" points="18.6182,-47.5 18.6182,-75.5 142.9873,-75.5 142.9873,-47.5 18.6182,-47.5"/>
<text text-anchor="start" x="26.6182" y="-63.5" font-family="Helvetica,sans-Serif" font-size="10.00" fill="#000000">MasterSamplerTopcXYZ</text>
<text text-anchor="middle" x="80.8027" y="-53.5" font-family="Helvetica,sans-Serif" font-size="10.00" fill="#000000">::writeObservableToFile</text>
</a>
</g>
</g>
<!-- Node40&#45;&gt;Node44 -->
<g id="edge5" class="edge">
<title>Node40&#45;&gt;Node44</title>
<path fill="none" stroke="#191970" d="M213.2356,-92.1783C189.8453,-86.7598 164.0237,-80.7782 141.44,-75.5467"/>
<polygon fill="#191970" stroke="#191970" points="212.5627,-95.615 223.0946,-94.4621 214.1425,-88.7956 212.5627,-95.615"/>
</g>
<!-- Node45 -->
<g id="node7" class="node">
<title>Node45</title>
<g id="a_node7"><a xlink:href="class_super_sampler.html#a05b42b82879233dc329d280a61bfd7f0" target="_top" xlink:title="Correlator::writeObservableToFile calls the ObservableStorer for writing observable to file.">
<polygon fill="#ffffff" stroke="#000000" points="1.9385,-.5 1.9385,-28.5 159.667,-28.5 159.667,-.5 1.9385,-.5"/>
<text text-anchor="start" x="9.9385" y="-16.5" font-family="Helvetica,sans-Serif" font-size="10.00" fill="#000000">SuperSampler::writeObservable</text>
<text text-anchor="middle" x="80.8027" y="-6.5" font-family="Helvetica,sans-Serif" font-size="10.00" fill="#000000">ToFile</text>
</a>
</g>
</g>
<!-- Node40&#45;&gt;Node45 -->
<g id="edge6" class="edge">
<title>Node40&#45;&gt;Node45</title>
<path fill="none" stroke="#191970" d="M253.7566,-88.7099C229.6434,-73.4251 194.4655,-52.5738 161.6055,-38.5 152.9961,-34.8127 143.6413,-31.469 134.4518,-28.5276"/>
<polygon fill="#191970" stroke="#191970" points="252.1211,-91.8189 262.4286,-94.2697 255.8992,-85.926 252.1211,-91.8189"/>
</g>
</g>
</svg>
