<?xml version="1.0" encoding="UTF-8" standalone="no"?>
<!DOCTYPE svg PUBLIC "-//W3C//DTD SVG 1.1//EN"
 "http://www.w3.org/Graphics/SVG/1.1/DTD/svg11.dtd">
<!-- Generated by graphviz version 2.40.1 (20161225.0304)
 -->
<!-- Title: IO::writeObservablesToFile Pages: 1 -->
<svg width="326pt" height="296pt"
 viewBox="0.00 0.00 325.55 296.00" xmlns="http://www.w3.org/2000/svg" xmlns:xlink="http://www.w3.org/1999/xlink">
<g id="graph0" class="graph" transform="scale(1 1) rotate(0) translate(4 292)">
<title>IO::writeObservablesToFile</title>
<polygon fill="#ffffff" stroke="transparent" points="-4,4 -4,-292 321.5459,-292 321.5459,4 -4,4"/>
<!-- Node30 -->
<g id="node1" class="node">
<title>Node30</title>
<g id="a_node1"><a xlink:title=" ">
<polygon fill="#bfbfbf" stroke="#000000" points="0,-129.5 0,-147.5 136.0391,-147.5 136.0391,-129.5 0,-129.5"/>
<text text-anchor="middle" x="68.0195" y="-135.5" font-family="Helvetica,sans-Serif" font-size="10.00" fill="#000000">IO::writeObservablesToFile</text>
</a>
</g>
</g>
<!-- Node31 -->
<g id="node2" class="node">
<title>Node31</title>
<g id="a_node2"><a xlink:href="class_parallel_1_1_communicator.html#a474ab433da0e83ef372d74e26a7e5cb0" target="_top" xlink:title=" ">
<polygon fill="#ffffff" stroke="#000000" points="184.8296,-259.5 184.8296,-287.5 304.7554,-287.5 304.7554,-259.5 184.8296,-259.5"/>
<text text-anchor="start" x="192.8296" y="-275.5" font-family="Helvetica,sans-Serif" font-size="10.00" fill="#000000">Parallel::Communicator</text>
<text text-anchor="middle" x="244.7925" y="-265.5" font-family="Helvetica,sans-Serif" font-size="10.00" fill="#000000">::getProcessRank</text>
</a>
</g>
</g>
<!-- Node30&#45;&gt;Node31 -->
<g id="edge1" class="edge">
<title>Node30&#45;&gt;Node31</title>
<path fill="none" stroke="#191970" d="M73.9057,-147.5212C88.1656,-168.6726 126.7439,-221.8327 172.0391,-250.5 174.6415,-252.1471 177.3714,-253.6847 180.184,-255.1192"/>
<polygon fill="#191970" stroke="#191970" points="178.8464,-258.3564 189.3939,-259.3571 181.7726,-251.9974 178.8464,-258.3564"/>
</g>
<!-- Node32 -->
<g id="node3" class="node">
<title>Node32</title>
<g id="a_node3"><a xlink:href="class_parameters.html#abace4edb8ece38841b58c5ce6168cbc4" target="_top" xlink:title=" ">
<polygon fill="#ffffff" stroke="#000000" points="182.8789,-222.5 182.8789,-240.5 306.7061,-240.5 306.7061,-222.5 182.8789,-222.5"/>
<text text-anchor="middle" x="244.7925" y="-228.5" font-family="Helvetica,sans-Serif" font-size="10.00" fill="#000000">Parameters::getFilePath</text>
</a>
</g>
</g>
<!-- Node30&#45;&gt;Node32 -->
<g id="edge2" class="edge">
<title>Node30&#45;&gt;Node32</title>
<path fill="none" stroke="#191970" d="M77.8186,-147.5898C95.3554,-163.3665 133.8551,-195.8206 172.0391,-213.5 176.7879,-215.6987 181.8402,-217.6509 186.9836,-219.3796"/>
<polygon fill="#191970" stroke="#191970" points="186.3439,-222.8445 196.9308,-222.4349 188.3992,-216.153 186.3439,-222.8445"/>
</g>
<!-- Node33 -->
<g id="node4" class="node">
<title>Node33</title>
<g id="a_node4"><a xlink:href="class_parameters.html#afa4cfe5dc4302b1e8f8928606ea9b056" target="_top" xlink:title=" ">
<polygon fill="#ffffff" stroke="#000000" points="172.0391,-185.5 172.0391,-203.5 317.5459,-203.5 317.5459,-185.5 172.0391,-185.5"/>
<text text-anchor="middle" x="244.7925" y="-191.5" font-family="Helvetica,sans-Serif" font-size="10.00" fill="#000000">Parameters::getOutputFolder</text>
</a>
</g>
</g>
<!-- Node30&#45;&gt;Node33 -->
<g id="edge3" class="edge">
<title>Node30&#45;&gt;Node33</title>
<path fill="none" stroke="#191970" d="M90.5081,-147.5129C111.417,-155.7014 143.5378,-167.7959 172.0391,-176.5 179.4765,-178.7713 187.4065,-180.9632 195.1938,-182.9889"/>
<polygon fill="#191970" stroke="#191970" points="194.3799,-186.3932 204.9335,-185.4594 196.101,-179.6081 194.3799,-186.3932"/>
</g>
<!-- Node34 -->
<g id="node5" class="node">
<title>Node34</title>
<g id="a_node5"><a xlink:href="class_parameters.html#a181a773d23fdb19d0c4f35e6cf2d5649" target="_top" xlink:title=" ">
<polygon fill="#ffffff" stroke="#000000" points="175.0981,-148.5 175.0981,-166.5 314.4868,-166.5 314.4868,-148.5 175.0981,-148.5"/>
<text text-anchor="middle" x="244.7925" y="-154.5" font-family="Helvetica,sans-Serif" font-size="10.00" fill="#000000">Parameters::getBatchName</text>
</a>
</g>
</g>
<!-- Node30&#45;&gt;Node34 -->
<g id="edge4" class="edge">
<title>Node30&#45;&gt;Node34</title>
<path fill="none" stroke="#191970" d="M136.1117,-145.8187C145.5681,-146.8351 155.352,-147.8867 164.9982,-148.9235"/>
<polygon fill="#191970" stroke="#191970" points="164.6644,-152.4077 174.9812,-149.9965 165.4125,-145.4478 164.6644,-152.4077"/>
</g>
<!-- Node35 -->
<g id="node6" class="node">
<title>Node35</title>
<g id="a_node6"><a xlink:href="class_parameters.html#ae5c64523dc50dca13b417fe3d9e4175c" target="_top" xlink:title=" ">
<polygon fill="#ffffff" stroke="#000000" points="190.9355,-111.5 190.9355,-129.5 298.6494,-129.5 298.6494,-111.5 190.9355,-111.5"/>
<text text-anchor="middle" x="244.7925" y="-117.5" font-family="Helvetica,sans-Serif" font-size="10.00" fill="#000000">Parameters::getBeta</text>
</a>
</g>
</g>
<!-- Node30&#45;&gt;Node35 -->
<g id="edge5" class="edge">
<title>Node30&#45;&gt;Node35</title>
<path fill="none" stroke="#191970" d="M136.1117,-131.5665C150.669,-130.0842 166.0026,-128.5228 180.4147,-127.0553"/>
<polygon fill="#191970" stroke="#191970" points="181.1279,-130.5009 190.7218,-126.0058 180.4187,-123.5369 181.1279,-130.5009"/>
</g>
<!-- Node36 -->
<g id="node7" class="node">
<title>Node36</title>
<g id="a_node7"><a xlink:href="class_parameters.html#a0fd902d5efcd8dce17dbc3ea4177820d" target="_top" xlink:title=" ">
<polygon fill="#ffffff" stroke="#000000" points="189.5537,-74.5 189.5537,-92.5 300.0313,-92.5 300.0313,-74.5 189.5537,-74.5"/>
<text text-anchor="middle" x="244.7925" y="-80.5" font-family="Helvetica,sans-Serif" font-size="10.00" fill="#000000">Parameters::getNCor</text>
</a>
</g>
</g>
<!-- Node30&#45;&gt;Node36 -->
<g id="edge6" class="edge">
<title>Node30&#45;&gt;Node36</title>
<path fill="none" stroke="#191970" d="M92.643,-129.3719C113.6095,-121.7457 144.6068,-110.8153 172.0391,-102.5 180.4807,-99.9412 189.5346,-97.4094 198.2895,-95.0688"/>
<polygon fill="#191970" stroke="#191970" points="199.2171,-98.4439 207.9984,-92.516 197.437,-91.674 199.2171,-98.4439"/>
</g>
<!-- Node37 -->
<g id="node8" class="node">
<title>Node37</title>
<g id="a_node8"><a xlink:href="class_parameters.html#a03f8c0aa2a31b9bfc016441cb263082c" target="_top" xlink:title=" ">
<polygon fill="#ffffff" stroke="#000000" points="192.6104,-37.5 192.6104,-55.5 296.9746,-55.5 296.9746,-37.5 192.6104,-37.5"/>
<text text-anchor="middle" x="244.7925" y="-43.5" font-family="Helvetica,sans-Serif" font-size="10.00" fill="#000000">Parameters::getNCf</text>
</a>
</g>
</g>
<!-- Node30&#45;&gt;Node37 -->
<g id="edge7" class="edge">
<title>Node30&#45;&gt;Node37</title>
<path fill="none" stroke="#191970" d="M78.1717,-129.4737C95.9458,-114.1288 134.4018,-82.9296 172.0391,-65.5 177.714,-62.872 183.8127,-60.5622 189.9779,-58.5435"/>
<polygon fill="#191970" stroke="#191970" points="191.114,-61.8565 199.6694,-55.6072 189.0842,-55.1573 191.114,-61.8565"/>
</g>
<!-- Node38 -->
<g id="node9" class="node">
<title>Node38</title>
<g id="a_node9"><a xlink:href="class_parameters.html#ad1f56cc1bb6c19f40454b30a5bc82da6" target="_top" xlink:title=" ">
<polygon fill="#ffffff" stroke="#000000" points="183.1646,-.5 183.1646,-18.5 306.4204,-18.5 306.4204,-.5 183.1646,-.5"/>
<text text-anchor="middle" x="244.7925" y="-6.5" font-family="Helvetica,sans-Serif" font-size="10.00" fill="#000000">Parameters::getNTherm</text>
</a>
</g>
</g>
<!-- Node30&#45;&gt;Node38 -->
<g id="edge8" class="edge">
<title>Node30&#45;&gt;Node38</title>
<path fill="none" stroke="#191970" d="M73.8529,-129.4912C87.9987,-108.3962 126.3484,-55.5412 172.0391,-28.5 176.1747,-26.0524 180.6254,-23.9158 185.2149,-22.0515"/>
<polygon fill="#191970" stroke="#191970" points="186.5605,-25.2867 194.7742,-18.5944 184.1799,-18.704 186.5605,-25.2867"/>
</g>
</g>
</svg>
