<?xml version="1.0" encoding="UTF-8" standalone="no"?>
<!DOCTYPE svg PUBLIC "-//W3C//DTD SVG 1.1//EN"
 "http://www.w3.org/Graphics/SVG/1.1/DTD/svg11.dtd">
<!-- Generated by graphviz version 2.40.1 (20161225.0304)
 -->
<!-- Title: std::swap Pages: 1 -->
<svg width="364pt" height="105pt"
 viewBox="0.00 0.00 363.70 105.00" xmlns="http://www.w3.org/2000/svg" xmlns:xlink="http://www.w3.org/1999/xlink">
<g id="graph0" class="graph" transform="scale(1 1) rotate(0) translate(4 101)">
<title>std::swap</title>
<polygon fill="#ffffff" stroke="transparent" points="-4,4 -4,-101 359.6982,-101 359.6982,4 -4,4"/>
<!-- Node1 -->
<g id="node1" class="node">
<title>Node1</title>
<g id="a_node1"><a xlink:title="exchanges the values of two JSON objects">
<polygon fill="#bfbfbf" stroke="#000000" points="297.457,-52.5 297.457,-70.5 355.6982,-70.5 355.6982,-52.5 297.457,-52.5"/>
<text text-anchor="middle" x="326.5776" y="-58.5" font-family="Helvetica,sans-Serif" font-size="10.00" fill="#000000">std::swap</text>
</a>
</g>
</g>
<!-- Node2 -->
<g id="node2" class="node">
<title>Node2</title>
<g id="a_node2"><a xlink:href="classnlohmann_1_1basic__json.html#aab256df8c5594ec693035822fa1e2904" target="_top" xlink:title="copy assignment">
<polygon fill="#ffffff" stroke="#000000" points="0,-68.5 0,-96.5 112.7285,-96.5 112.7285,-68.5 0,-68.5"/>
<text text-anchor="start" x="8" y="-84.5" font-family="Helvetica,sans-Serif" font-size="10.00" fill="#000000">nlohmann::basic_json</text>
<text text-anchor="middle" x="56.3643" y="-74.5" font-family="Helvetica,sans-Serif" font-size="10.00" fill="#000000">::operator=</text>
</a>
</g>
</g>
<!-- Node1&#45;&gt;Node2 -->
<g id="edge1" class="edge">
<title>Node1&#45;&gt;Node2</title>
<path fill="none" stroke="#191970" d="M298.1473,-74.455C286.9577,-78.8907 273.8423,-83.2904 261.457,-85.5 211.8519,-94.35 154.4247,-92.5 112.9776,-89.0748"/>
<polygon fill="#191970" stroke="#191970" points="299.5271,-77.6718 307.418,-70.6019 296.8405,-71.2079 299.5271,-77.6718"/>
</g>
<!-- Node3 -->
<g id="node3" class="node">
<title>Node3</title>
<g id="a_node3"><a xlink:href="classnlohmann_1_1basic__json.html#a8c9d932353e1ab98a7dc2fc27e002031" target="_top" xlink:title="exchanges the values">
<polygon fill="#ffffff" stroke="#000000" points="148.7285,-47.5 148.7285,-75.5 261.457,-75.5 261.457,-47.5 148.7285,-47.5"/>
<text text-anchor="start" x="156.7285" y="-63.5" font-family="Helvetica,sans-Serif" font-size="10.00" fill="#000000">nlohmann::basic_json</text>
<text text-anchor="middle" x="205.0928" y="-53.5" font-family="Helvetica,sans-Serif" font-size="10.00" fill="#000000">::swap</text>
</a>
</g>
</g>
<!-- Node1&#45;&gt;Node3 -->
<g id="edge2" class="edge">
<title>Node1&#45;&gt;Node3</title>
<path fill="none" stroke="#191970" d="M286.9744,-61.5C278.9285,-61.5 270.3172,-61.5 261.8116,-61.5"/>
<polygon fill="#191970" stroke="#191970" points="287.1696,-65.0001 297.1695,-61.5 287.1695,-58.0001 287.1696,-65.0001"/>
</g>
<!-- Node4 -->
<g id="node4" class="node">
<title>Node4</title>
<g id="a_node4"><a xlink:href="classnlohmann_1_1basic__json_1_1iter__impl.html#a083d9d5465de7ddfb6108f404ce54be3" target="_top" xlink:title="copy assignment">
<polygon fill="#ffffff" stroke="#000000" points="148.7285,-.5 148.7285,-28.5 261.457,-28.5 261.457,-.5 148.7285,-.5"/>
<text text-anchor="start" x="156.7285" y="-16.5" font-family="Helvetica,sans-Serif" font-size="10.00" fill="#000000">nlohmann::basic_json</text>
<text text-anchor="middle" x="205.0928" y="-6.5" font-family="Helvetica,sans-Serif" font-size="10.00" fill="#000000">::iter_impl::operator=</text>
</a>
</g>
</g>
<!-- Node1&#45;&gt;Node4 -->
<g id="edge4" class="edge">
<title>Node1&#45;&gt;Node4</title>
<path fill="none" stroke="#191970" d="M293.581,-48.7343C277.4237,-42.4834 257.9306,-34.9419 241.3571,-28.5299"/>
<polygon fill="#191970" stroke="#191970" points="292.5649,-52.0939 303.1541,-52.4379 295.0906,-45.5655 292.5649,-52.0939"/>
</g>
<!-- Node3&#45;&gt;Node2 -->
<g id="edge3" class="edge">
<title>Node3&#45;&gt;Node2</title>
<path fill="none" stroke="#191970" d="M138.4863,-70.9046C129.9291,-72.1129 121.2333,-73.3407 112.8589,-74.5231"/>
<polygon fill="#191970" stroke="#191970" points="139.0282,-74.3629 148.4406,-69.4991 138.0495,-67.4317 139.0282,-74.3629"/>
</g>
</g>
</svg>
