<?xml version="1.0" encoding="UTF-8" standalone="no"?>
<!DOCTYPE svg PUBLIC "-//W3C//DTD SVG 1.1//EN"
 "http://www.w3.org/Graphics/SVG/1.1/DTD/svg11.dtd">
<!-- Generated by graphviz version 2.40.1 (20161225.0304)
 -->
<!-- Title: nlohmann::detail::from_json Pages: 1 -->
<svg width="315pt" height="74pt"
 viewBox="0.00 0.00 315.03 74.00" xmlns="http://www.w3.org/2000/svg" xmlns:xlink="http://www.w3.org/1999/xlink">
<g id="graph0" class="graph" transform="scale(1 1) rotate(0) translate(4 70)">
<title>nlohmann::detail::from_json</title>
<polygon fill="#ffffff" stroke="transparent" points="-4,4 -4,-70 311.0332,-70 311.0332,4 -4,4"/>
<!-- Node26 -->
<g id="node1" class="node">
<title>Node26</title>
<g id="a_node1"><a xlink:title=" ">
<polygon fill="#bfbfbf" stroke="#000000" points="168.1865,-21.5 168.1865,-39.5 307.0332,-39.5 307.0332,-21.5 168.1865,-21.5"/>
<text text-anchor="middle" x="237.6099" y="-27.5" font-family="Helvetica,sans-Serif" font-size="10.00" fill="#000000">nlohmann::detail::from_json</text>
</a>
</g>
</g>
<!-- Node27 -->
<g id="node2" class="node">
<title>Node27</title>
<g id="a_node2"><a xlink:href="structnlohmann_1_1adl__serializer.html#ab39cad07c1a2bf4414d6cae5215b4e7a" target="_top" xlink:title="convert a JSON value to any value type">
<polygon fill="#ffffff" stroke="#000000" points="3.8965,-37.5 3.8965,-65.5 128.29,-65.5 128.29,-37.5 3.8965,-37.5"/>
<text text-anchor="start" x="11.8965" y="-53.5" font-family="Helvetica,sans-Serif" font-size="10.00" fill="#000000">nlohmann::adl_serializer</text>
<text text-anchor="middle" x="66.0933" y="-43.5" font-family="Helvetica,sans-Serif" font-size="10.00" fill="#000000">::from_json</text>
</a>
</g>
</g>
<!-- Node26&#45;&gt;Node27 -->
<g id="edge1" class="edge">
<title>Node26&#45;&gt;Node27</title>
<path fill="none" stroke="#191970" d="M157.6525,-40.2897C147.8129,-41.4945 137.8711,-42.7117 128.3482,-43.8777"/>
<polygon fill="#191970" stroke="#191970" points="158.347,-43.7309 167.8475,-39.0415 157.4962,-36.7828 158.347,-43.7309"/>
</g>
<!-- Node28 -->
<g id="node3" class="node">
<title>Node28</title>
<g id="a_node3"><a xlink:href="classnlohmann_1_1basic__json.html#aa6602bb24022183ab989439e19345d08" target="_top" xlink:title="get a value (explicit)">
<polygon fill="#ffffff" stroke="#000000" points="0,-.5 0,-18.5 132.1865,-18.5 132.1865,-.5 0,-.5"/>
<text text-anchor="middle" x="66.0933" y="-6.5" font-family="Helvetica,sans-Serif" font-size="10.00" fill="#000000">nlohmann::basic_json::get</text>
</a>
</g>
</g>
<!-- Node26&#45;&gt;Node28 -->
<g id="edge2" class="edge">
<title>Node26&#45;&gt;Node28</title>
<path fill="none" stroke="#191970" d="M157.831,-20.7321C149.2494,-19.6814 140.5875,-18.6209 132.1914,-17.5929"/>
<polygon fill="#191970" stroke="#191970" points="157.4962,-24.2172 167.8475,-21.9585 158.347,-17.2691 157.4962,-24.2172"/>
</g>
</g>
</svg>
