<?xml version="1.0" encoding="UTF-8" standalone="no"?>
<!DOCTYPE svg PUBLIC "-//W3C//DTD SVG 1.1//EN"
 "http://www.w3.org/Graphics/SVG/1.1/DTD/svg11.dtd">
<!-- Generated by graphviz version 2.40.1 (20161225.0304)
 -->
<!-- Title: IO::writeFlowObservableToFile Pages: 1 -->
<svg width="342pt" height="343pt"
 viewBox="0.00 0.00 341.66 343.00" xmlns="http://www.w3.org/2000/svg" xmlns:xlink="http://www.w3.org/1999/xlink">
<g id="graph0" class="graph" transform="scale(1 1) rotate(0) translate(4 339)">
<title>IO::writeFlowObservableToFile</title>
<polygon fill="#ffffff" stroke="transparent" points="-4,4 -4,-339 337.6592,-339 337.6592,4 -4,4"/>
<!-- Node0 -->
<g id="node1" class="node">
<title>Node0</title>
<g id="a_node1"><a xlink:title=" ">
<polygon fill="#bfbfbf" stroke="#000000" points="0,-148.5 0,-166.5 152.1523,-166.5 152.1523,-148.5 0,-148.5"/>
<text text-anchor="middle" x="76.0762" y="-154.5" font-family="Helvetica,sans-Serif" font-size="10.00" fill="#000000">IO::writeFlowObservableToFile</text>
</a>
</g>
</g>
<!-- Node1 -->
<g id="node2" class="node">
<title>Node1</title>
<g id="a_node2"><a xlink:href="class_parallel_1_1_communicator.html#a474ab433da0e83ef372d74e26a7e5cb0" target="_top" xlink:title=" ">
<polygon fill="#ffffff" stroke="#000000" points="200.9429,-306.5 200.9429,-334.5 320.8687,-334.5 320.8687,-306.5 200.9429,-306.5"/>
<text text-anchor="start" x="208.9429" y="-322.5" font-family="Helvetica,sans-Serif" font-size="10.00" fill="#000000">Parallel::Communicator</text>
<text text-anchor="middle" x="260.9058" y="-312.5" font-family="Helvetica,sans-Serif" font-size="10.00" fill="#000000">::getProcessRank</text>
</a>
</g>
</g>
<!-- Node0&#45;&gt;Node1 -->
<g id="edge1" class="edge">
<title>Node0&#45;&gt;Node1</title>
<path fill="none" stroke="#191970" d="M80.7857,-166.5579C94.1345,-191.3466 134.7388,-260.8826 188.1523,-297.5 190.4297,-299.0613 192.8186,-300.5207 195.2856,-301.8847"/>
<polygon fill="#191970" stroke="#191970" points="193.9832,-305.1445 204.5014,-306.4166 197.0722,-298.8629 193.9832,-305.1445"/>
</g>
<!-- Node2 -->
<g id="node3" class="node">
<title>Node2</title>
<g id="a_node3"><a xlink:href="class_parameters.html#a96dbafc27f287de83dfaec3bc2d45efe" target="_top" xlink:title=" ">
<polygon fill="#ffffff" stroke="#000000" points="190.3789,-269.5 190.3789,-287.5 331.4326,-287.5 331.4326,-269.5 190.3789,-269.5"/>
<text text-anchor="middle" x="260.9058" y="-275.5" font-family="Helvetica,sans-Serif" font-size="10.00" fill="#000000">Parameters::getFlowEpsilon</text>
</a>
</g>
</g>
<!-- Node0&#45;&gt;Node2 -->
<g id="edge2" class="edge">
<title>Node0&#45;&gt;Node2</title>
<path fill="none" stroke="#191970" d="M83.1347,-166.5398C99.3755,-186.6926 141.5901,-235.4916 188.1523,-260.5 192.1285,-262.6356 196.3629,-264.5229 200.7126,-266.1901"/>
<polygon fill="#191970" stroke="#191970" points="199.7686,-269.5664 210.3632,-269.4989 202.0389,-262.9448 199.7686,-269.5664"/>
</g>
<!-- Node3 -->
<g id="node4" class="node">
<title>Node3</title>
<g id="a_node4"><a xlink:href="class_parameters.html#a58f15668b37e705d34d6588e287e4bc0" target="_top" xlink:title=" ">
<polygon fill="#ffffff" stroke="#000000" points="192.3223,-222.5 192.3223,-250.5 329.4893,-250.5 329.4893,-222.5 192.3223,-222.5"/>
<text text-anchor="start" x="200.3223" y="-238.5" font-family="Helvetica,sans-Serif" font-size="10.00" fill="#000000">Parameters::getConfigStart</text>
<text text-anchor="middle" x="260.9058" y="-228.5" font-family="Helvetica,sans-Serif" font-size="10.00" fill="#000000">Number</text>
</a>
</g>
</g>
<!-- Node0&#45;&gt;Node3 -->
<g id="edge3" class="edge">
<title>Node0&#45;&gt;Node3</title>
<path fill="none" stroke="#191970" d="M92.4091,-166.6833C113.9028,-178.5284 153.0724,-199.2936 188.1523,-213.5 192.9409,-215.4392 197.9589,-217.3214 203.0254,-219.1189"/>
<polygon fill="#191970" stroke="#191970" points="202.186,-222.531 212.7807,-222.4639 204.4566,-215.9095 202.186,-222.531"/>
</g>
<!-- Node4 -->
<g id="node5" class="node">
<title>Node4</title>
<g id="a_node5"><a xlink:href="class_parameters.html#afa4cfe5dc4302b1e8f8928606ea9b056" target="_top" xlink:title=" ">
<polygon fill="#ffffff" stroke="#000000" points="188.1523,-185.5 188.1523,-203.5 333.6592,-203.5 333.6592,-185.5 188.1523,-185.5"/>
<text text-anchor="middle" x="260.9058" y="-191.5" font-family="Helvetica,sans-Serif" font-size="10.00" fill="#000000">Parameters::getOutputFolder</text>
</a>
</g>
</g>
<!-- Node0&#45;&gt;Node4 -->
<g id="edge4" class="edge">
<title>Node0&#45;&gt;Node4</title>
<path fill="none" stroke="#191970" d="M121.2906,-166.5512C146.7825,-171.6543 178.8242,-178.0686 205.7803,-183.4647"/>
<polygon fill="#191970" stroke="#191970" points="205.3457,-186.9471 215.8382,-185.4782 206.7198,-180.0833 205.3457,-186.9471"/>
</g>
<!-- Node5 -->
<g id="node6" class="node">
<title>Node5</title>
<g id="a_node6"><a xlink:href="class_parameters.html#a181a773d23fdb19d0c4f35e6cf2d5649" target="_top" xlink:title=" ">
<polygon fill="#ffffff" stroke="#000000" points="191.2114,-148.5 191.2114,-166.5 330.6001,-166.5 330.6001,-148.5 191.2114,-148.5"/>
<text text-anchor="middle" x="260.9058" y="-154.5" font-family="Helvetica,sans-Serif" font-size="10.00" fill="#000000">Parameters::getBatchName</text>
</a>
</g>
</g>
<!-- Node0&#45;&gt;Node5 -->
<g id="edge5" class="edge">
<title>Node0&#45;&gt;Node5</title>
<path fill="none" stroke="#191970" d="M152.3205,-157.5C161.741,-157.5 171.3927,-157.5 180.8678,-157.5"/>
<polygon fill="#191970" stroke="#191970" points="181.0605,-161.0001 191.0605,-157.5 181.0605,-154.0001 181.0605,-161.0001"/>
</g>
<!-- Node6 -->
<g id="node7" class="node">
<title>Node6</title>
<g id="a_node7"><a xlink:href="class_parameters.html#abace4edb8ece38841b58c5ce6168cbc4" target="_top" xlink:title=" ">
<polygon fill="#ffffff" stroke="#000000" points="198.9922,-111.5 198.9922,-129.5 322.8193,-129.5 322.8193,-111.5 198.9922,-111.5"/>
<text text-anchor="middle" x="260.9058" y="-117.5" font-family="Helvetica,sans-Serif" font-size="10.00" fill="#000000">Parameters::getFilePath</text>
</a>
</g>
</g>
<!-- Node0&#45;&gt;Node6 -->
<g id="edge6" class="edge">
<title>Node0&#45;&gt;Node6</title>
<path fill="none" stroke="#191970" d="M121.2906,-148.4488C146.7825,-143.3457 178.8242,-136.9314 205.7803,-131.5353"/>
<polygon fill="#191970" stroke="#191970" points="206.7198,-134.9167 215.8382,-129.5218 205.3457,-128.0529 206.7198,-134.9167"/>
</g>
<!-- Node7 -->
<g id="node8" class="node">
<title>Node7</title>
<g id="a_node8"><a xlink:href="class_parameters.html#ae5c64523dc50dca13b417fe3d9e4175c" target="_top" xlink:title=" ">
<polygon fill="#ffffff" stroke="#000000" points="207.0488,-74.5 207.0488,-92.5 314.7627,-92.5 314.7627,-74.5 207.0488,-74.5"/>
<text text-anchor="middle" x="260.9058" y="-80.5" font-family="Helvetica,sans-Serif" font-size="10.00" fill="#000000">Parameters::getBeta</text>
</a>
</g>
</g>
<!-- Node0&#45;&gt;Node7 -->
<g id="edge7" class="edge">
<title>Node0&#45;&gt;Node7</title>
<path fill="none" stroke="#191970" d="M91.9584,-148.4343C113.2801,-136.5633 152.5983,-115.7137 188.1523,-102.5 195.2993,-99.8438 202.9721,-97.4107 210.5588,-95.237"/>
<polygon fill="#191970" stroke="#191970" points="211.7115,-98.5503 220.4311,-92.5321 209.8617,-91.7991 211.7115,-98.5503"/>
</g>
<!-- Node8 -->
<g id="node9" class="node">
<title>Node8</title>
<g id="a_node9"><a xlink:href="class_parameters.html#aae314edb18d426571ab7b6df60da70aa" target="_top" xlink:title=" ">
<polygon fill="#ffffff" stroke="#000000" points="200.667,-37.5 200.667,-55.5 321.1445,-55.5 321.1445,-37.5 200.667,-37.5"/>
<text text-anchor="middle" x="260.9058" y="-43.5" font-family="Helvetica,sans-Serif" font-size="10.00" fill="#000000">Parameters::getNFlows</text>
</a>
</g>
</g>
<!-- Node0&#45;&gt;Node8 -->
<g id="edge8" class="edge">
<title>Node0&#45;&gt;Node8</title>
<path fill="none" stroke="#191970" d="M84.4156,-148.4003C101.8495,-129.9319 144.1932,-87.9069 188.1523,-65.5 193.2935,-62.8795 198.8283,-60.5974 204.4675,-58.6151"/>
<polygon fill="#191970" stroke="#191970" points="205.5527,-61.9427 214.0055,-55.5552 203.4143,-55.2774 205.5527,-61.9427"/>
</g>
<!-- Node9 -->
<g id="node10" class="node">
<title>Node9</title>
<g id="a_node10"><a xlink:href="class_parameters.html#a07453f20719f54f9fd6f72d311638b39" target="_top" xlink:title=" ">
<polygon fill="#ffffff" stroke="#000000" points="198.9849,-.5 198.9849,-18.5 322.8267,-18.5 322.8267,-.5 198.9849,-.5"/>
<text text-anchor="middle" x="260.9058" y="-6.5" font-family="Helvetica,sans-Serif" font-size="10.00" fill="#000000">Parameters::getVerbose</text>
</a>
</g>
</g>
<!-- Node0&#45;&gt;Node9 -->
<g id="edge9" class="edge">
<title>Node0&#45;&gt;Node9</title>
<path fill="none" stroke="#191970" d="M81.2896,-148.3477C95.2966,-124.6197 136.2253,-60.7287 188.1523,-28.5 191.9998,-26.1121 196.1403,-24.0224 200.4239,-22.1941"/>
<polygon fill="#191970" stroke="#191970" points="201.8492,-25.3973 209.9716,-18.5945 199.3798,-18.8473 201.8492,-25.3973"/>
</g>
</g>
</svg>
