<?xml version="1.0" encoding="UTF-8" standalone="no"?>
<!DOCTYPE svg PUBLIC "-//W3C//DTD SVG 1.1//EN"
 "http://www.w3.org/Graphics/SVG/1.1/DTD/svg11.dtd">
<!-- Generated by graphviz version 2.40.1 (20161225.0304)
 -->
<!-- Title: GLAC/parallelization/neighbours.h Pages: 1 -->
<svg width="150pt" height="92pt"
 viewBox="0.00 0.00 150.14 92.00" xmlns="http://www.w3.org/2000/svg" xmlns:xlink="http://www.w3.org/1999/xlink">
<g id="graph0" class="graph" transform="scale(1 1) rotate(0) translate(4 88)">
<title>GLAC/parallelization/neighbours.h</title>
<polygon fill="#ffffff" stroke="transparent" points="-4,4 -4,-88 146.1377,-88 146.1377,4 -4,4"/>
<!-- Node0 -->
<g id="node1" class="node">
<title>Node0</title>
<g id="a_node1"><a xlink:title=" ">
<polygon fill="#bfbfbf" stroke="#000000" points="26.9434,-55.5 26.9434,-83.5 134.1006,-83.5 134.1006,-55.5 26.9434,-55.5"/>
<text text-anchor="start" x="34.9434" y="-71.5" font-family="Helvetica,sans-Serif" font-size="10.00" fill="#000000">GLAC/parallelization</text>
<text text-anchor="middle" x="80.522" y="-61.5" font-family="Helvetica,sans-Serif" font-size="10.00" fill="#000000">/neighbours.h</text>
</a>
</g>
</g>
<!-- Node1 -->
<g id="node2" class="node">
<title>Node1</title>
<g id="a_node2"><a xlink:href="neighbourlist_8h.html" target="_top" xlink:title=" ">
<polygon fill="#ffffff" stroke="#000000" points="0,-.5 0,-18.5 81.0439,-18.5 81.0439,-.5 0,-.5"/>
<text text-anchor="middle" x="40.522" y="-6.5" font-family="Helvetica,sans-Serif" font-size="10.00" fill="#000000">neighbourlist.h</text>
</a>
</g>
</g>
<!-- Node0&#45;&gt;Node1 -->
<g id="edge1" class="edge">
<title>Node0&#45;&gt;Node1</title>
<path fill="none" stroke="#191970" d="M71.0425,-55.2808C65.4185,-46.8448 58.2428,-36.0813 52.2625,-27.1107"/>
<polygon fill="#191970" stroke="#191970" points="55.0373,-24.9632 46.5781,-18.5842 49.213,-28.8462 55.0373,-24.9632"/>
</g>
<!-- Node2 -->
<g id="node3" class="node">
<title>Node2</title>
<g id="a_node3"><a xlink:title=" ">
<polygon fill="#ffffff" stroke="#bfbfbf" points="98.9063,-.5 98.9063,-18.5 142.1377,-18.5 142.1377,-.5 98.9063,-.5"/>
<text text-anchor="middle" x="120.522" y="-6.5" font-family="Helvetica,sans-Serif" font-size="10.00" fill="#000000">vector</text>
</a>
</g>
</g>
<!-- Node0&#45;&gt;Node2 -->
<g id="edge2" class="edge">
<title>Node0&#45;&gt;Node2</title>
<path fill="none" stroke="#191970" d="M90.0014,-55.2808C95.6255,-46.8448 102.8011,-36.0813 108.7815,-27.1107"/>
<polygon fill="#191970" stroke="#191970" points="111.831,-28.8462 114.4658,-18.5842 106.0066,-24.9632 111.831,-28.8462"/>
</g>
</g>
</svg>
