<?xml version="1.0" encoding="UTF-8" standalone="no"?>
<!DOCTYPE svg PUBLIC "-//W3C//DTD SVG 1.1//EN"
 "http://www.w3.org/Graphics/SVG/1.1/DTD/svg11.dtd">
<!-- Generated by graphviz version 2.40.1 (20161225.0304)
 -->
<!-- Title: GLAC/io/observablesio.h Pages: 1 -->
<svg width="727pt" height="92pt"
 viewBox="0.00 0.00 726.50 92.00" xmlns="http://www.w3.org/2000/svg" xmlns:xlink="http://www.w3.org/1999/xlink">
<g id="graph0" class="graph" transform="scale(1 1) rotate(0) translate(4 88)">
<title>GLAC/io/observablesio.h</title>
<polygon fill="#ffffff" stroke="transparent" points="-4,4 -4,-88 722.5044,-88 722.5044,4 -4,4"/>
<!-- Node3 -->
<g id="node1" class="node">
<title>Node3</title>
<g id="a_node1"><a xlink:title=" ">
<polygon fill="#bfbfbf" stroke="#000000" points="312.2808,-65.5 312.2808,-83.5 438.896,-83.5 438.896,-65.5 312.2808,-65.5"/>
<text text-anchor="middle" x="375.5884" y="-71.5" font-family="Helvetica,sans-Serif" font-size="10.00" fill="#000000">GLAC/io/observablesio.h</text>
</a>
</g>
</g>
<!-- Node4 -->
<g id="node2" class="node">
<title>Node4</title>
<g id="a_node2"><a xlink:href="observablesio_8cpp.html" target="_top" xlink:title=" ">
<polygon fill="#ffffff" stroke="#000000" points="0,-5.5 0,-23.5 137.1768,-23.5 137.1768,-5.5 0,-5.5"/>
<text text-anchor="middle" x="68.5884" y="-11.5" font-family="Helvetica,sans-Serif" font-size="10.00" fill="#000000">GLAC/io/observablesio.cpp</text>
</a>
</g>
</g>
<!-- Node3&#45;&gt;Node4 -->
<g id="edge1" class="edge">
<title>Node3&#45;&gt;Node4</title>
<path fill="none" stroke="#191970" d="M319.4343,-63.5253C260.6662,-52.0396 169.4875,-34.2197 114.7557,-23.5229"/>
<polygon fill="#191970" stroke="#191970" points="318.8093,-66.9693 329.295,-65.4524 320.152,-60.0992 318.8093,-66.9693"/>
</g>
<!-- Node5 -->
<g id="node3" class="node">
<title>Node5</title>
<g id="a_node3"><a xlink:href="mastersamplertopcxyz_8cpp.html" target="_top" xlink:title=" ">
<polygon fill="#ffffff" stroke="#000000" points="154.7686,-5.5 154.7686,-23.5 376.4082,-23.5 376.4082,-5.5 154.7686,-5.5"/>
<text text-anchor="middle" x="265.5884" y="-11.5" font-family="Helvetica,sans-Serif" font-size="10.00" fill="#000000">GLAC/observables/mastersamplertopcxyz.cpp</text>
</a>
</g>
</g>
<!-- Node3&#45;&gt;Node5 -->
<g id="edge2" class="edge">
<title>Node3&#45;&gt;Node5</title>
<path fill="none" stroke="#191970" d="M349.897,-60.4865C328.9688,-49.0712 300.0428,-33.2933 282.0918,-23.5019"/>
<polygon fill="#191970" stroke="#191970" points="348.4268,-63.6714 358.8817,-65.3873 351.7788,-57.5261 348.4268,-63.6714"/>
</g>
<!-- Node6 -->
<g id="node4" class="node">
<title>Node6</title>
<g id="a_node4"><a xlink:href="supersampler_8cpp.html" target="_top" xlink:title=" ">
<polygon fill="#ffffff" stroke="#000000" points="394.7661,-5.5 394.7661,-23.5 576.4106,-23.5 576.4106,-5.5 394.7661,-5.5"/>
<text text-anchor="middle" x="485.5884" y="-11.5" font-family="Helvetica,sans-Serif" font-size="10.00" fill="#000000">GLAC/observables/supersampler.cpp</text>
</a>
</g>
</g>
<!-- Node3&#45;&gt;Node6 -->
<g id="edge3" class="edge">
<title>Node3&#45;&gt;Node6</title>
<path fill="none" stroke="#191970" d="M401.2797,-60.4865C422.2079,-49.0712 451.1339,-33.2933 469.0849,-23.5019"/>
<polygon fill="#191970" stroke="#191970" points="399.398,-57.5261 392.295,-65.3873 402.75,-63.6714 399.398,-57.5261"/>
</g>
<!-- Node7 -->
<g id="node5" class="node">
<title>Node7</title>
<g id="a_node5"><a xlink:href="observablestorer_8cpp.html" target="_top" xlink:title=" ">
<polygon fill="#ffffff" stroke="#000000" points="594.6724,-.5 594.6724,-28.5 718.5044,-28.5 718.5044,-.5 594.6724,-.5"/>
<text text-anchor="start" x="602.6724" y="-16.5" font-family="Helvetica,sans-Serif" font-size="10.00" fill="#000000">GLAC/observables/tools</text>
<text text-anchor="middle" x="656.5884" y="-6.5" font-family="Helvetica,sans-Serif" font-size="10.00" fill="#000000">/observablestorer.cpp</text>
</a>
</g>
</g>
<!-- Node3&#45;&gt;Node7 -->
<g id="edge4" class="edge">
<title>Node3&#45;&gt;Node7</title>
<path fill="none" stroke="#191970" d="M427.9749,-63.3143C475.1728,-53.2364 544.6152,-38.4089 594.5698,-27.7424"/>
<polygon fill="#191970" stroke="#191970" points="427.0098,-59.9413 417.9612,-65.4524 428.4716,-66.787 427.0098,-59.9413"/>
</g>
</g>
</svg>
