<?xml version="1.0" encoding="UTF-8" standalone="no"?>
<!DOCTYPE svg PUBLIC "-//W3C//DTD SVG 1.1//EN"
 "http://www.w3.org/Graphics/SVG/1.1/DTD/svg11.dtd">
<!-- Generated by graphviz version 2.40.1 (20161225.0304)
 -->
<!-- Title: GLAC/observables/tools/observablestorer.cpp Pages: 1 -->
<svg width="993pt" height="422pt"
 viewBox="0.00 0.00 992.81 422.00" xmlns="http://www.w3.org/2000/svg" xmlns:xlink="http://www.w3.org/1999/xlink">
<g id="graph0" class="graph" transform="scale(1 1) rotate(0) translate(4 418)">
<title>GLAC/observables/tools/observablestorer.cpp</title>
<polygon fill="#ffffff" stroke="transparent" points="-4,4 -4,-418 988.8052,-418 988.8052,4 -4,4"/>
<!-- Node0 -->
<g id="node1" class="node">
<title>Node0</title>
<g id="a_node1"><a xlink:title=" ">
<polygon fill="#bfbfbf" stroke="#000000" points="287.2734,-385.5 287.2734,-413.5 411.1055,-413.5 411.1055,-385.5 287.2734,-385.5"/>
<text text-anchor="start" x="295.2734" y="-401.5" font-family="Helvetica,sans-Serif" font-size="10.00" fill="#000000">GLAC/observables/tools</text>
<text text-anchor="middle" x="349.1895" y="-391.5" font-family="Helvetica,sans-Serif" font-size="10.00" fill="#000000">/observablestorer.cpp</text>
</a>
</g>
</g>
<!-- Node1 -->
<g id="node2" class="node">
<title>Node1</title>
<g id="a_node2"><a xlink:href="observablestorer_8h.html" target="_top" xlink:title=" ">
<polygon fill="#ffffff" stroke="#000000" points="122.0518,-330.5 122.0518,-348.5 220.3271,-348.5 220.3271,-330.5 122.0518,-330.5"/>
<text text-anchor="middle" x="171.1895" y="-336.5" font-family="Helvetica,sans-Serif" font-size="10.00" fill="#000000">observablestorer.h</text>
</a>
</g>
</g>
<!-- Node0&#45;&gt;Node1 -->
<g id="edge1" class="edge">
<title>Node0&#45;&gt;Node1</title>
<path fill="none" stroke="#191970" d="M307.4564,-385.4327C277.215,-375.2389 236.7166,-361.5878 207.7446,-351.822"/>
<polygon fill="#191970" stroke="#191970" points="208.6074,-348.4193 198.0132,-348.5417 206.3714,-355.0526 208.6074,-348.4193"/>
</g>
<!-- Node4 -->
<g id="node5" class="node">
<title>Node4</title>
<g id="a_node5"><a xlink:href="observablesio_8h.html" target="_top" xlink:title=" ">
<polygon fill="#ffffff" stroke="#000000" points="237.8867,-330.5 237.8867,-348.5 334.4922,-348.5 334.4922,-330.5 237.8867,-330.5"/>
<text text-anchor="middle" x="286.1895" y="-336.5" font-family="Helvetica,sans-Serif" font-size="10.00" fill="#000000">io/observablesio.h</text>
</a>
</g>
</g>
<!-- Node0&#45;&gt;Node4 -->
<g id="edge4" class="edge">
<title>Node0&#45;&gt;Node4</title>
<path fill="none" stroke="#191970" d="M334.2593,-385.2808C324.9353,-376.4008 312.9034,-364.9419 303.2098,-355.7098"/>
<polygon fill="#191970" stroke="#191970" points="305.3831,-352.9463 295.7279,-348.5842 300.5555,-358.0153 305.3831,-352.9463"/>
</g>
<!-- Node5 -->
<g id="node6" class="node">
<title>Node5</title>
<g id="a_node6"><a xlink:href="parallel_8h.html" target="_top" xlink:title=" ">
<polygon fill="#ffffff" stroke="#000000" points="352.936,-330.5 352.936,-348.5 473.4429,-348.5 473.4429,-330.5 352.936,-330.5"/>
<text text-anchor="middle" x="413.1895" y="-336.5" font-family="Helvetica,sans-Serif" font-size="10.00" fill="#000000">parallelization/parallel.h</text>
</a>
</g>
</g>
<!-- Node0&#45;&gt;Node5 -->
<g id="edge7" class="edge">
<title>Node0&#45;&gt;Node5</title>
<path fill="none" stroke="#191970" d="M364.3566,-385.2808C373.9234,-376.312 386.2962,-364.7124 396.1937,-355.4335"/>
<polygon fill="#191970" stroke="#191970" points="398.5981,-357.977 403.4997,-348.5842 393.8104,-352.8702 398.5981,-357.977"/>
</g>
<!-- Node8 -->
<g id="node9" class="node">
<title>Node8</title>
<g id="a_node9"><a xlink:title=" ">
<polygon fill="#ffffff" stroke="#bfbfbf" points="782.9629,-110.5 782.9629,-128.5 823.416,-128.5 823.416,-110.5 782.9629,-110.5"/>
<text text-anchor="middle" x="803.1895" y="-116.5" font-family="Helvetica,sans-Serif" font-size="10.00" fill="#000000">mpi.h</text>
</a>
</g>
</g>
<!-- Node0&#45;&gt;Node8 -->
<g id="edge33" class="edge">
<title>Node0&#45;&gt;Node8</title>
<path fill="none" stroke="#191970" d="M411.1607,-393.3319C557.6725,-377.9161 913.1895,-335.2776 913.1895,-284.5 913.1895,-284.5 913.1895,-284.5 913.1895,-229.5 913.1895,-199.6154 913.3686,-187.9183 894.1895,-165 878.4795,-146.2272 853.1102,-134.4455 833.1437,-127.5872"/>
<polygon fill="#191970" stroke="#191970" points="834.1499,-124.2344 823.559,-124.5227 832.018,-130.9019 834.1499,-124.2344"/>
</g>
<!-- Node18 -->
<g id="node19" class="node">
<title>Node18</title>
<g id="a_node19"><a xlink:href="parameters_8h.html" target="_top" xlink:title=" ">
<polygon fill="#ffffff" stroke="#000000" points="0,-330.5 0,-348.5 104.3789,-348.5 104.3789,-330.5 0,-330.5"/>
<text text-anchor="middle" x="52.1895" y="-336.5" font-family="Helvetica,sans-Serif" font-size="10.00" fill="#000000">config/parameters.h</text>
</a>
</g>
</g>
<!-- Node0&#45;&gt;Node18 -->
<g id="edge29" class="edge">
<title>Node0&#45;&gt;Node18</title>
<path fill="none" stroke="#191970" d="M286.9285,-386.922C233.6667,-376.1621 157.7546,-360.8263 106.8177,-350.536"/>
<polygon fill="#191970" stroke="#191970" points="107.4725,-347.0977 96.9774,-348.5481 106.0863,-353.959 107.4725,-347.0977"/>
</g>
<!-- Node19 -->
<g id="node20" class="node">
<title>Node19</title>
<g id="a_node20"><a xlink:title=" ">
<polygon fill="#ffffff" stroke="#bfbfbf" points="941.5737,-330.5 941.5737,-348.5 984.8052,-348.5 984.8052,-330.5 941.5737,-330.5"/>
<text text-anchor="middle" x="963.1895" y="-336.5" font-family="Helvetica,sans-Serif" font-size="10.00" fill="#000000">cmath</text>
</a>
</g>
</g>
<!-- Node0&#45;&gt;Node19 -->
<g id="edge32" class="edge">
<title>Node0&#45;&gt;Node19</title>
<path fill="none" stroke="#191970" d="M411.2287,-397.5543C517.5537,-393.447 741.1272,-381.4329 927.1895,-349 928.479,-348.7752 929.7897,-348.5266 931.1103,-348.2592"/>
<polygon fill="#191970" stroke="#191970" points="932.2756,-351.5826 941.2363,-345.9297 930.7062,-344.7608 932.2756,-351.5826"/>
</g>
<!-- Node2 -->
<g id="node3" class="node">
<title>Node2</title>
<g id="a_node3"><a xlink:title=" ">
<polygon fill="#ffffff" stroke="#bfbfbf" points="96.9629,-275.5 96.9629,-293.5 137.416,-293.5 137.416,-275.5 96.9629,-275.5"/>
<text text-anchor="middle" x="117.1895" y="-281.5" font-family="Helvetica,sans-Serif" font-size="10.00" fill="#000000">string</text>
</a>
</g>
</g>
<!-- Node1&#45;&gt;Node2 -->
<g id="edge2" class="edge">
<title>Node1&#45;&gt;Node2</title>
<path fill="none" stroke="#191970" d="M162.2725,-330.4179C154.4249,-322.425 142.8054,-310.5903 133.3283,-300.9377"/>
<polygon fill="#191970" stroke="#191970" points="135.8036,-298.463 126.3002,-293.7795 130.8086,-303.3672 135.8036,-298.463"/>
</g>
<!-- Node3 -->
<g id="node4" class="node">
<title>Node3</title>
<g id="a_node4"><a xlink:title=" ">
<polygon fill="#ffffff" stroke="#bfbfbf" points="219.5737,-110.5 219.5737,-128.5 262.8052,-128.5 262.8052,-110.5 219.5737,-110.5"/>
<text text-anchor="middle" x="241.1895" y="-116.5" font-family="Helvetica,sans-Serif" font-size="10.00" fill="#000000">vector</text>
</a>
</g>
</g>
<!-- Node1&#45;&gt;Node3 -->
<g id="edge3" class="edge">
<title>Node1&#45;&gt;Node3</title>
<path fill="none" stroke="#191970" d="M174.1081,-330.327C184.626,-297.271 220.7247,-183.8179 235.1568,-138.4598"/>
<polygon fill="#191970" stroke="#191970" points="238.5614,-139.3027 238.2583,-128.7122 231.891,-137.1802 238.5614,-139.3027"/>
</g>
<!-- Node4&#45;&gt;Node2 -->
<g id="edge5" class="edge">
<title>Node4&#45;&gt;Node2</title>
<path fill="none" stroke="#191970" d="M258.2825,-330.4179C227.6588,-320.4516 178.6816,-304.5122 147.2341,-294.2778"/>
<polygon fill="#191970" stroke="#191970" points="148.2775,-290.9368 137.6853,-291.1702 146.1112,-297.5932 148.2775,-290.9368"/>
</g>
<!-- Node4&#45;&gt;Node3 -->
<g id="edge6" class="edge">
<title>Node4&#45;&gt;Node3</title>
<path fill="none" stroke="#191970" d="M283.5405,-330.4744C276.6644,-306.7154 258.0944,-240.386 248.1895,-184 245.5367,-168.8986 243.7258,-151.6201 242.6116,-138.7496"/>
<polygon fill="#191970" stroke="#191970" points="246.0971,-138.4273 241.8081,-128.7395 239.1196,-138.9875 246.0971,-138.4273"/>
</g>
<!-- Node6 -->
<g id="node7" class="node">
<title>Node6</title>
<g id="a_node7"><a xlink:href="communicator_8h.html" target="_top" xlink:title=" ">
<polygon fill="#ffffff" stroke="#000000" points="298.894,-275.5 298.894,-293.5 385.4849,-293.5 385.4849,-275.5 298.894,-275.5"/>
<text text-anchor="middle" x="342.1895" y="-281.5" font-family="Helvetica,sans-Serif" font-size="10.00" fill="#000000">communicator.h</text>
</a>
</g>
</g>
<!-- Node5&#45;&gt;Node6 -->
<g id="edge8" class="edge">
<title>Node5&#45;&gt;Node6</title>
<path fill="none" stroke="#191970" d="M401.4652,-330.4179C390.8407,-322.1876 374.9578,-309.8839 362.3064,-300.0836"/>
<polygon fill="#191970" stroke="#191970" points="364.2173,-297.1365 354.1684,-293.7795 359.9305,-302.6704 364.2173,-297.1365"/>
</g>
<!-- Node9 -->
<g id="node10" class="node">
<title>Node9</title>
<g id="a_node10"><a xlink:href="index_8h.html" target="_top" xlink:title=" ">
<polygon fill="#ffffff" stroke="#000000" points="269.1035,-165.5 269.1035,-183.5 381.2754,-183.5 381.2754,-165.5 269.1035,-165.5"/>
<text text-anchor="middle" x="325.1895" y="-171.5" font-family="Helvetica,sans-Serif" font-size="10.00" fill="#000000">parallelization/index.h</text>
</a>
</g>
</g>
<!-- Node5&#45;&gt;Node9 -->
<g id="edge27" class="edge">
<title>Node5&#45;&gt;Node9</title>
<path fill="none" stroke="#191970" d="M411.4589,-330.4111C408.815,-317.6173 403.1164,-293.7638 394.1895,-275 379.1294,-243.3447 354.6728,-210.581 339.2832,-191.3944"/>
<polygon fill="#191970" stroke="#191970" points="341.949,-189.1251 332.9167,-183.5871 336.524,-193.549 341.949,-189.1251"/>
</g>
<!-- Node12 -->
<g id="node13" class="node">
<title>Node12</title>
<g id="a_node13"><a xlink:href="parallelparameters_8h.html" target="_top" xlink:title=" ">
<polygon fill="#ffffff" stroke="#000000" points="713.6479,-165.5 713.6479,-183.5 884.731,-183.5 884.731,-165.5 713.6479,-165.5"/>
<text text-anchor="middle" x="799.1895" y="-171.5" font-family="Helvetica,sans-Serif" font-size="10.00" fill="#000000">parallelization/parallelparameters.h</text>
</a>
</g>
</g>
<!-- Node5&#45;&gt;Node12 -->
<g id="edge28" class="edge">
<title>Node5&#45;&gt;Node12</title>
<path fill="none" stroke="#191970" d="M434.4923,-330.3939C499.0791,-302.7855 692.8935,-219.9374 768.5052,-187.6163"/>
<polygon fill="#191970" stroke="#191970" points="770.133,-190.7269 777.9524,-183.578 767.3816,-184.2903 770.133,-190.7269"/>
</g>
<!-- Node6&#45;&gt;Node3 -->
<g id="edge9" class="edge">
<title>Node6&#45;&gt;Node3</title>
<path fill="none" stroke="#191970" d="M332.6295,-275.4504C315.652,-258.8725 280.1525,-221.843 260.1895,-184 252.6151,-169.6417 247.6632,-151.8499 244.7197,-138.5918"/>
<polygon fill="#191970" stroke="#191970" points="248.1299,-137.7974 242.706,-128.6961 241.2704,-139.1932 248.1299,-137.7974"/>
</g>
<!-- Node7 -->
<g id="node8" class="node">
<title>Node7</title>
<g id="a_node8"><a xlink:href="lattice_8h.html" target="_top" xlink:title=" ">
<polygon fill="#ffffff" stroke="#000000" points="468.4531,-220.5 468.4531,-238.5 543.9258,-238.5 543.9258,-220.5 468.4531,-220.5"/>
<text text-anchor="middle" x="506.1895" y="-226.5" font-family="Helvetica,sans-Serif" font-size="10.00" fill="#000000">math/lattice.h</text>
</a>
</g>
</g>
<!-- Node6&#45;&gt;Node7 -->
<g id="edge10" class="edge">
<title>Node6&#45;&gt;Node7</title>
<path fill="none" stroke="#191970" d="M369.2707,-275.4179C396.6529,-266.2348 439.156,-251.9807 469.5402,-241.7909"/>
<polygon fill="#191970" stroke="#191970" points="470.9724,-245.0023 479.3405,-238.5042 468.7466,-238.3655 470.9724,-245.0023"/>
</g>
<!-- Node7&#45;&gt;Node3 -->
<g id="edge11" class="edge">
<title>Node7&#45;&gt;Node3</title>
<path fill="none" stroke="#191970" d="M490.6297,-220.3089C463.9061,-204.6151 410.2296,-173.5182 390.1895,-165 350.8291,-148.2696 303.2456,-134.8478 272.6144,-127.0304"/>
<polygon fill="#191970" stroke="#191970" points="273.4637,-123.635 262.9127,-124.5974 271.7609,-130.4248 273.4637,-123.635"/>
</g>
<!-- Node7&#45;&gt;Node8 -->
<g id="edge12" class="edge">
<title>Node7&#45;&gt;Node8</title>
<path fill="none" stroke="#191970" d="M544.0175,-220.8609C576.8562,-212.8636 625.404,-199.8358 666.1895,-184 683.7916,-177.1656 687.1642,-173.166 704.1895,-165 727.3882,-153.873 753.8832,-141.7251 773.6225,-132.7825"/>
<polygon fill="#191970" stroke="#191970" points="775.3289,-135.8522 783.0004,-128.5447 772.4463,-129.4732 775.3289,-135.8522"/>
</g>
<!-- Node7&#45;&gt;Node9 -->
<g id="edge13" class="edge">
<title>Node7&#45;&gt;Node9</title>
<path fill="none" stroke="#191970" d="M476.301,-220.4179C445.8176,-211.155 398.3545,-196.7325 364.7659,-186.526"/>
<polygon fill="#191970" stroke="#191970" points="365.4071,-183.0629 354.8215,-183.5042 363.3719,-189.7605 365.4071,-183.0629"/>
</g>
<!-- Node10 -->
<g id="node11" class="node">
<title>Node10</title>
<g id="a_node11"><a xlink:href="neighbours_8h.html" target="_top" xlink:title=" ">
<polygon fill="#ffffff" stroke="#000000" points="437.3154,-165.5 437.3154,-183.5 575.0635,-183.5 575.0635,-165.5 437.3154,-165.5"/>
<text text-anchor="middle" x="506.1895" y="-171.5" font-family="Helvetica,sans-Serif" font-size="10.00" fill="#000000">parallelization/neighbours.h</text>
</a>
</g>
</g>
<!-- Node7&#45;&gt;Node10 -->
<g id="edge15" class="edge">
<title>Node7&#45;&gt;Node10</title>
<path fill="none" stroke="#191970" d="M506.1895,-220.4179C506.1895,-213.2164 506.1895,-202.8962 506.1895,-193.8632"/>
<polygon fill="#191970" stroke="#191970" points="509.6896,-193.7794 506.1895,-183.7795 502.6896,-193.7795 509.6896,-193.7794"/>
</g>
<!-- Node7&#45;&gt;Node12 -->
<g id="edge18" class="edge">
<title>Node7&#45;&gt;Node12</title>
<path fill="none" stroke="#191970" d="M544.1937,-222.3661C594.1499,-212.9887 682.3989,-196.4231 740.8454,-185.452"/>
<polygon fill="#191970" stroke="#191970" points="741.8534,-188.824 751.036,-183.5391 740.5619,-181.9441 741.8534,-188.824"/>
</g>
<!-- Node13 -->
<g id="node14" class="node">
<title>Node13</title>
<g id="a_node14"><a xlink:href="functions_8h.html" target="_top" xlink:title=" ">
<polygon fill="#ffffff" stroke="#000000" points="593.0073,-165.5 593.0073,-183.5 657.3716,-183.5 657.3716,-165.5 593.0073,-165.5"/>
<text text-anchor="middle" x="625.1895" y="-171.5" font-family="Helvetica,sans-Serif" font-size="10.00" fill="#000000">functions.h</text>
</a>
</g>
</g>
<!-- Node7&#45;&gt;Node13 -->
<g id="edge20" class="edge">
<title>Node7&#45;&gt;Node13</title>
<path fill="none" stroke="#191970" d="M525.8399,-220.4179C545.0464,-211.5409 574.5057,-197.9253 596.3634,-187.823"/>
<polygon fill="#191970" stroke="#191970" points="597.9009,-190.9682 605.5098,-183.5956 594.964,-184.614 597.9009,-190.9682"/>
</g>
<!-- Node9&#45;&gt;Node3 -->
<g id="edge14" class="edge">
<title>Node9&#45;&gt;Node3</title>
<path fill="none" stroke="#191970" d="M311.3186,-165.4179C298.4297,-156.9788 279.0001,-144.257 263.8581,-134.3426"/>
<polygon fill="#191970" stroke="#191970" points="265.3644,-131.1454 255.081,-128.5956 261.5299,-137.0017 265.3644,-131.1454"/>
</g>
<!-- Node10&#45;&gt;Node3 -->
<g id="edge17" class="edge">
<title>Node10&#45;&gt;Node3</title>
<path fill="none" stroke="#191970" d="M462.7268,-165.4795C409.351,-154.4014 320.0968,-135.877 272.8148,-126.0637"/>
<polygon fill="#191970" stroke="#191970" points="273.3434,-122.599 262.8408,-123.9937 271.9209,-129.4529 273.3434,-122.599"/>
</g>
<!-- Node11 -->
<g id="node12" class="node">
<title>Node11</title>
<g id="a_node12"><a xlink:href="neighbourlist_8h.html" target="_top" xlink:title=" ">
<polygon fill="#ffffff" stroke="#000000" points="446.6675,-110.5 446.6675,-128.5 527.7114,-128.5 527.7114,-110.5 446.6675,-110.5"/>
<text text-anchor="middle" x="487.1895" y="-116.5" font-family="Helvetica,sans-Serif" font-size="10.00" fill="#000000">neighbourlist.h</text>
</a>
</g>
</g>
<!-- Node10&#45;&gt;Node11 -->
<g id="edge16" class="edge">
<title>Node10&#45;&gt;Node11</title>
<path fill="none" stroke="#191970" d="M503.052,-165.4179C500.5095,-158.0581 496.8418,-147.441 493.6735,-138.2695"/>
<polygon fill="#191970" stroke="#191970" points="496.9685,-137.0885 490.3951,-128.7795 490.3522,-139.3742 496.9685,-137.0885"/>
</g>
<!-- Node12&#45;&gt;Node8 -->
<g id="edge19" class="edge">
<title>Node12&#45;&gt;Node8</title>
<path fill="none" stroke="#191970" d="M799.85,-165.4179C800.3737,-158.2164 801.1243,-147.8962 801.7812,-138.8632"/>
<polygon fill="#191970" stroke="#191970" points="805.2799,-139.007 802.5146,-128.7795 798.2984,-138.4992 805.2799,-139.007"/>
</g>
<!-- Node14 -->
<g id="node15" class="node">
<title>Node14</title>
<g id="a_node15"><a xlink:href="su3_8h.html" target="_top" xlink:title=" ">
<polygon fill="#ffffff" stroke="#000000" points="584.6772,-110.5 584.6772,-128.5 665.7017,-128.5 665.7017,-110.5 584.6772,-110.5"/>
<text text-anchor="middle" x="625.1895" y="-116.5" font-family="Helvetica,sans-Serif" font-size="10.00" fill="#000000">matrices/su3.h</text>
</a>
</g>
</g>
<!-- Node13&#45;&gt;Node14 -->
<g id="edge21" class="edge">
<title>Node13&#45;&gt;Node14</title>
<path fill="none" stroke="#191970" d="M625.1895,-165.4179C625.1895,-158.2164 625.1895,-147.8962 625.1895,-138.8632"/>
<polygon fill="#191970" stroke="#191970" points="628.6896,-138.7794 625.1895,-128.7795 621.6896,-138.7795 628.6896,-138.7794"/>
</g>
<!-- Node15 -->
<g id="node16" class="node">
<title>Node15</title>
<g id="a_node16"><a xlink:href="complex_8h.html" target="_top" xlink:title=" ">
<polygon fill="#ffffff" stroke="#000000" points="581.8965,-55.5 581.8965,-73.5 668.4824,-73.5 668.4824,-55.5 581.8965,-55.5"/>
<text text-anchor="middle" x="625.1895" y="-61.5" font-family="Helvetica,sans-Serif" font-size="10.00" fill="#000000">math/complex.h</text>
</a>
</g>
</g>
<!-- Node13&#45;&gt;Node15 -->
<g id="edge26" class="edge">
<title>Node13&#45;&gt;Node15</title>
<path fill="none" stroke="#191970" d="M609.3897,-165.4232C591.294,-153.7435 565.3361,-132.2889 575.1895,-110 580.6023,-97.7558 591.1177,-87.3899 601.1141,-79.6592"/>
<polygon fill="#191970" stroke="#191970" points="603.1872,-82.4796 609.2657,-73.8019 599.1024,-76.7949 603.1872,-82.4796"/>
</g>
<!-- Node17 -->
<g id="node18" class="node">
<title>Node17</title>
<g id="a_node18"><a xlink:href="su2_8h.html" target="_top" xlink:title=" ">
<polygon fill="#ffffff" stroke="#000000" points="683.6772,-110.5 683.6772,-128.5 764.7017,-128.5 764.7017,-110.5 683.6772,-110.5"/>
<text text-anchor="middle" x="724.1895" y="-116.5" font-family="Helvetica,sans-Serif" font-size="10.00" fill="#000000">matrices/su2.h</text>
</a>
</g>
</g>
<!-- Node13&#45;&gt;Node17 -->
<g id="edge24" class="edge">
<title>Node13&#45;&gt;Node17</title>
<path fill="none" stroke="#191970" d="M641.5373,-165.4179C657.1576,-156.7399 680.9293,-143.5334 698.9756,-133.5077"/>
<polygon fill="#191970" stroke="#191970" points="700.7755,-136.5117 707.8173,-128.5956 697.376,-130.3925 700.7755,-136.5117"/>
</g>
<!-- Node14&#45;&gt;Node15 -->
<g id="edge22" class="edge">
<title>Node14&#45;&gt;Node15</title>
<path fill="none" stroke="#191970" d="M625.1895,-110.4179C625.1895,-103.2164 625.1895,-92.8962 625.1895,-83.8632"/>
<polygon fill="#191970" stroke="#191970" points="628.6896,-83.7794 625.1895,-73.7795 621.6896,-83.7795 628.6896,-83.7794"/>
</g>
<!-- Node16 -->
<g id="node17" class="node">
<title>Node16</title>
<g id="a_node17"><a xlink:title=" ">
<polygon fill="#ffffff" stroke="#bfbfbf" points="598.0171,-.5 598.0171,-18.5 652.3618,-18.5 652.3618,-.5 598.0171,-.5"/>
<text text-anchor="middle" x="625.1895" y="-6.5" font-family="Helvetica,sans-Serif" font-size="10.00" fill="#000000">iostream</text>
</a>
</g>
</g>
<!-- Node15&#45;&gt;Node16 -->
<g id="edge23" class="edge">
<title>Node15&#45;&gt;Node16</title>
<path fill="none" stroke="#191970" d="M625.1895,-55.4179C625.1895,-48.2164 625.1895,-37.8962 625.1895,-28.8632"/>
<polygon fill="#191970" stroke="#191970" points="628.6896,-28.7794 625.1895,-18.7795 621.6896,-28.7795 628.6896,-28.7794"/>
</g>
<!-- Node17&#45;&gt;Node15 -->
<g id="edge25" class="edge">
<title>Node17&#45;&gt;Node15</title>
<path fill="none" stroke="#191970" d="M707.8416,-110.4179C692.2213,-101.7399 668.4496,-88.5334 650.4033,-78.5077"/>
<polygon fill="#191970" stroke="#191970" points="652.0029,-75.3925 641.5616,-73.5956 648.6034,-81.5117 652.0029,-75.3925"/>
</g>
<!-- Node18&#45;&gt;Node2 -->
<g id="edge30" class="edge">
<title>Node18&#45;&gt;Node2</title>
<path fill="none" stroke="#191970" d="M62.9229,-330.4179C72.5561,-322.2667 86.9111,-310.1201 98.4376,-300.3669"/>
<polygon fill="#191970" stroke="#191970" points="100.8497,-302.9108 106.2228,-293.7795 96.3281,-297.5671 100.8497,-302.9108"/>
</g>
<!-- Node18&#45;&gt;Node3 -->
<g id="edge31" class="edge">
<title>Node18&#45;&gt;Node3</title>
<path fill="none" stroke="#191970" d="M56.3662,-330.2724C62.4424,-317.3138 74.4992,-293.2658 88.1895,-275 130.3368,-218.7662 191.7668,-162.3567 222.3835,-135.5697"/>
<polygon fill="#191970" stroke="#191970" points="224.8991,-138.0209 230.1603,-128.8247 220.3126,-132.7328 224.8991,-138.0209"/>
</g>
</g>
</svg>
