<?xml version="1.0" encoding="UTF-8" standalone="no"?>
<!DOCTYPE svg PUBLIC "-//W3C//DTD SVG 1.1//EN"
 "http://www.w3.org/Graphics/SVG/1.1/DTD/svg11.dtd">
<!-- Generated by graphviz version 2.40.1 (20161225.0304)
 -->
<!-- Title: GLAC/observables/observables.h Pages: 1 -->
<svg width="846pt" height="412pt"
 viewBox="0.00 0.00 846.12 412.00" xmlns="http://www.w3.org/2000/svg" xmlns:xlink="http://www.w3.org/1999/xlink">
<g id="graph0" class="graph" transform="scale(1 1) rotate(0) translate(4 408)">
<title>GLAC/observables/observables.h</title>
<polygon fill="#ffffff" stroke="transparent" points="-4,4 -4,-408 842.1187,-408 842.1187,4 -4,4"/>
<!-- Node0 -->
<g id="node1" class="node">
<title>Node0</title>
<g id="a_node1"><a xlink:title=" ">
<polygon fill="#bfbfbf" stroke="#000000" points="401.4468,-385.5 401.4468,-403.5 566.4165,-403.5 566.4165,-385.5 401.4468,-385.5"/>
<text text-anchor="middle" x="483.9316" y="-391.5" font-family="Helvetica,sans-Serif" font-size="10.00" fill="#000000">GLAC/observables/observables.h</text>
</a>
</g>
</g>
<!-- Node1 -->
<g id="node2" class="node">
<title>Node1</title>
<g id="a_node2"><a xlink:href="correlator_8h.html" target="_top" xlink:title=" ">
<polygon fill="#ffffff" stroke="#000000" points="141.917,-275.5 141.917,-293.5 207.9463,-293.5 207.9463,-275.5 141.917,-275.5"/>
<text text-anchor="middle" x="174.9316" y="-281.5" font-family="Helvetica,sans-Serif" font-size="10.00" fill="#000000">correlator.h</text>
</a>
</g>
</g>
<!-- Node0&#45;&gt;Node1 -->
<g id="edge1" class="edge">
<title>Node0&#45;&gt;Node1</title>
<path fill="none" stroke="#191970" d="M401.4207,-389.4592C303.2679,-382.6046 150.3982,-368.8769 132.9316,-349 119.4864,-333.6993 136.943,-313.7521 153.2686,-300.1163"/>
<polygon fill="#191970" stroke="#191970" points="155.8347,-302.5509 161.533,-293.6189 151.5084,-297.0479 155.8347,-302.5509"/>
</g>
<!-- Node16 -->
<g id="node17" class="node">
<title>Node16</title>
<g id="a_node17"><a xlink:href="energydensity_8h.html" target="_top" xlink:title=" ">
<polygon fill="#ffffff" stroke="#000000" points="0,-330.5 0,-348.5 85.8633,-348.5 85.8633,-330.5 0,-330.5"/>
<text text-anchor="middle" x="42.9316" y="-336.5" font-family="Helvetica,sans-Serif" font-size="10.00" fill="#000000">energydensity.h</text>
</a>
</g>
</g>
<!-- Node0&#45;&gt;Node16 -->
<g id="edge23" class="edge">
<title>Node0&#45;&gt;Node16</title>
<path fill="none" stroke="#191970" d="M401.3878,-385.8588C323.5255,-377.4382 203.6118,-363.7741 99.9316,-349 98.6746,-348.8209 97.4026,-348.6362 96.1201,-348.4471"/>
<polygon fill="#191970" stroke="#191970" points="96.5724,-344.9757 86.1584,-346.9246 95.5148,-351.8953 96.5724,-344.9757"/>
</g>
<!-- Node17 -->
<g id="node18" class="node">
<title>Node17</title>
<g id="a_node18"><a xlink:href="plaquette_8h.html" target="_top" xlink:title=" ">
<polygon fill="#ffffff" stroke="#000000" points="142.188,-330.5 142.188,-348.5 207.6753,-348.5 207.6753,-330.5 142.188,-330.5"/>
<text text-anchor="middle" x="174.9316" y="-336.5" font-family="Helvetica,sans-Serif" font-size="10.00" fill="#000000">plaquette.h</text>
</a>
</g>
</g>
<!-- Node0&#45;&gt;Node17 -->
<g id="edge26" class="edge">
<title>Node0&#45;&gt;Node17</title>
<path fill="none" stroke="#191970" d="M425.6929,-385.4985C373.7157,-377.2552 295.2978,-364.306 217.842,-349.0987"/>
<polygon fill="#191970" stroke="#191970" points="218.4001,-345.6414 207.9111,-347.1353 217.0423,-352.5085 218.4001,-345.6414"/>
</g>
<!-- Node18 -->
<g id="node19" class="node">
<title>Node18</title>
<g id="a_node19"><a xlink:href="topologicalcharge_8h.html" target="_top" xlink:title=" ">
<polygon fill="#ffffff" stroke="#000000" points="225.5674,-330.5 225.5674,-348.5 328.2959,-348.5 328.2959,-330.5 225.5674,-330.5"/>
<text text-anchor="middle" x="276.9316" y="-336.5" font-family="Helvetica,sans-Serif" font-size="10.00" fill="#000000">topologicalcharge.h</text>
</a>
</g>
</g>
<!-- Node0&#45;&gt;Node18 -->
<g id="edge28" class="edge">
<title>Node0&#45;&gt;Node18</title>
<path fill="none" stroke="#191970" d="M449.7498,-385.4179C414.4368,-376.0352 359.1995,-361.3586 320.711,-351.1322"/>
<polygon fill="#191970" stroke="#191970" points="321.3837,-347.6896 310.8202,-348.5042 319.5861,-354.4548 321.3837,-347.6896"/>
</g>
<!-- Node19 -->
<g id="node20" class="node">
<title>Node19</title>
<g id="a_node20"><a xlink:href="mastersampler_8h.html" target="_top" xlink:title=" ">
<polygon fill="#ffffff" stroke="#000000" points="645.9712,-330.5 645.9712,-348.5 735.8921,-348.5 735.8921,-330.5 645.9712,-330.5"/>
<text text-anchor="middle" x="690.9316" y="-336.5" font-family="Helvetica,sans-Serif" font-size="10.00" fill="#000000">mastersampler.h</text>
</a>
</g>
</g>
<!-- Node0&#45;&gt;Node19 -->
<g id="edge30" class="edge">
<title>Node0&#45;&gt;Node19</title>
<path fill="none" stroke="#191970" d="M512.9472,-385.4179C546.4588,-375.9953 601.8685,-361.2336 642.0328,-351.0019"/>
<polygon fill="#191970" stroke="#191970" points="643.0586,-354.3527 651.893,-348.5042 641.3397,-347.567 643.0586,-354.3527"/>
</g>
<!-- Node20 -->
<g id="node21" class="node">
<title>Node20</title>
<g id="a_node21"><a xlink:href="mastersamplertopcxyz_8h.html" target="_top" xlink:title=" ">
<polygon fill="#ffffff" stroke="#000000" points="346.7471,-330.5 346.7471,-348.5 471.1162,-348.5 471.1162,-330.5 346.7471,-330.5"/>
<text text-anchor="middle" x="408.9316" y="-336.5" font-family="Helvetica,sans-Serif" font-size="10.00" fill="#000000">mastersamplertopcxyz.h</text>
</a>
</g>
</g>
<!-- Node0&#45;&gt;Node20 -->
<g id="edge33" class="edge">
<title>Node0&#45;&gt;Node20</title>
<path fill="none" stroke="#191970" d="M466.3806,-385.4179C453.5771,-377.2667 436.6752,-365.1201 424.3867,-355.3669"/>
<polygon fill="#191970" stroke="#191970" points="426.325,-352.4294 416.3787,-348.7795 421.878,-357.8353 426.325,-352.4294"/>
</g>
<!-- Node21 -->
<g id="node22" class="node">
<title>Node21</title>
<g id="a_node22"><a xlink:href="latticeactionchargedensity_8h.html" target="_top" xlink:title=" ">
<polygon fill="#ffffff" stroke="#000000" points="489.5962,-330.5 489.5962,-348.5 628.2671,-348.5 628.2671,-330.5 489.5962,-330.5"/>
<text text-anchor="middle" x="558.9316" y="-336.5" font-family="Helvetica,sans-Serif" font-size="10.00" fill="#000000">latticeactionchargedensity.h</text>
</a>
</g>
</g>
<!-- Node0&#45;&gt;Node21 -->
<g id="edge36" class="edge">
<title>Node0&#45;&gt;Node21</title>
<path fill="none" stroke="#191970" d="M491.15,-385.4179C500.91,-376.9788 517.9569,-364.257 532.6223,-354.3426"/>
<polygon fill="#191970" stroke="#191970" points="534.9281,-357.0152 541.3594,-348.5956 531.0813,-351.1669 534.9281,-357.0152"/>
</g>
<!-- Node22 -->
<g id="node23" class="node">
<title>Node22</title>
<g id="a_node23"><a xlink:href="supersampler_8h.html" target="_top" xlink:title=" ">
<polygon fill="#ffffff" stroke="#000000" points="753.7446,-330.5 753.7446,-348.5 838.1187,-348.5 838.1187,-330.5 753.7446,-330.5"/>
<text text-anchor="middle" x="795.9316" y="-336.5" font-family="Helvetica,sans-Serif" font-size="10.00" fill="#000000">supersampler.h</text>
</a>
</g>
</g>
<!-- Node0&#45;&gt;Node22 -->
<g id="edge39" class="edge">
<title>Node0&#45;&gt;Node22</title>
<path fill="none" stroke="#191970" d="M530.1072,-385.4421C580.7069,-376.3857 663.9586,-361.9764 735.9316,-349 738.4134,-348.5525 740.9624,-348.0893 743.5461,-347.6191"/>
<polygon fill="#191970" stroke="#191970" points="744.4006,-351.0213 753.6137,-345.7897 743.149,-344.134 744.4006,-351.0213"/>
</g>
<!-- Node2 -->
<g id="node3" class="node">
<title>Node2</title>
<g id="a_node3"><a xlink:href="lattice_8h.html" target="_top" xlink:title=" ">
<polygon fill="#ffffff" stroke="#000000" points="470.1953,-220.5 470.1953,-238.5 545.668,-238.5 545.668,-220.5 470.1953,-220.5"/>
<text text-anchor="middle" x="507.9316" y="-226.5" font-family="Helvetica,sans-Serif" font-size="10.00" fill="#000000">math/lattice.h</text>
</a>
</g>
</g>
<!-- Node1&#45;&gt;Node2 -->
<g id="edge2" class="edge">
<title>Node1&#45;&gt;Node2</title>
<path fill="none" stroke="#191970" d="M208.0784,-279.0253C267.3046,-269.2432 391.4978,-248.7308 460.0099,-237.415"/>
<polygon fill="#191970" stroke="#191970" points="460.8086,-240.8306 470.1045,-235.7477 459.6678,-233.9242 460.8086,-240.8306"/>
</g>
<!-- Node3 -->
<g id="node4" class="node">
<title>Node3</title>
<g id="a_node4"><a xlink:title=" ">
<polygon fill="#ffffff" stroke="#bfbfbf" points="265.3159,-110.5 265.3159,-128.5 308.5474,-128.5 308.5474,-110.5 265.3159,-110.5"/>
<text text-anchor="middle" x="286.9316" y="-116.5" font-family="Helvetica,sans-Serif" font-size="10.00" fill="#000000">vector</text>
</a>
</g>
</g>
<!-- Node1&#45;&gt;Node3 -->
<g id="edge22" class="edge">
<title>Node1&#45;&gt;Node3</title>
<path fill="none" stroke="#191970" d="M186.891,-275.3449C197.535,-266.7739 213.0584,-253.191 223.9316,-239 248.7826,-206.5663 268.9869,-162.9327 279.3597,-138.3644"/>
<polygon fill="#191970" stroke="#191970" points="282.7239,-139.3871 283.302,-128.808 276.2529,-136.7176 282.7239,-139.3871"/>
</g>
<!-- Node14 -->
<g id="node15" class="node">
<title>Node14</title>
<g id="a_node15"><a xlink:href="observablestorer_8h.html" target="_top" xlink:title=" ">
<polygon fill="#ffffff" stroke="#000000" points="92.8433,-220.5 92.8433,-238.5 215.02,-238.5 215.02,-220.5 92.8433,-220.5"/>
<text text-anchor="middle" x="153.9316" y="-226.5" font-family="Helvetica,sans-Serif" font-size="10.00" fill="#000000">tools/observablestorer.h</text>
</a>
</g>
</g>
<!-- Node1&#45;&gt;Node14 -->
<g id="edge19" class="edge">
<title>Node1&#45;&gt;Node14</title>
<path fill="none" stroke="#191970" d="M171.4639,-275.4179C168.6538,-268.0581 164.6,-257.441 161.0982,-248.2695"/>
<polygon fill="#191970" stroke="#191970" points="164.3116,-246.8732 157.4747,-238.7795 157.772,-249.3701 164.3116,-246.8732"/>
</g>
<!-- Node2&#45;&gt;Node3 -->
<g id="edge3" class="edge">
<title>Node2&#45;&gt;Node3</title>
<path fill="none" stroke="#191970" d="M469.9887,-226.1216C416.6158,-220.5767 323.2615,-207.7173 299.9316,-184 288.4277,-172.305 285.7396,-153.4336 285.5966,-139.1176"/>
<polygon fill="#191970" stroke="#191970" points="289.1036,-138.9386 285.9078,-128.8372 282.1068,-138.7267 289.1036,-138.9386"/>
</g>
<!-- Node4 -->
<g id="node5" class="node">
<title>Node4</title>
<g id="a_node5"><a xlink:title=" ">
<polygon fill="#ffffff" stroke="#bfbfbf" points="716.7051,-110.5 716.7051,-128.5 757.1582,-128.5 757.1582,-110.5 716.7051,-110.5"/>
<text text-anchor="middle" x="736.9316" y="-116.5" font-family="Helvetica,sans-Serif" font-size="10.00" fill="#000000">mpi.h</text>
</a>
</g>
</g>
<!-- Node2&#45;&gt;Node4 -->
<g id="edge4" class="edge">
<title>Node2&#45;&gt;Node4</title>
<path fill="none" stroke="#191970" d="M545.8245,-225.7397C615.9731,-218.3947 760.298,-201.3383 774.9316,-184 787.7094,-168.8605 771.7984,-148.8825 756.8326,-135.1954"/>
<polygon fill="#191970" stroke="#191970" points="759.1125,-132.5399 749.2496,-128.6703 754.5467,-137.8459 759.1125,-132.5399"/>
</g>
<!-- Node5 -->
<g id="node6" class="node">
<title>Node5</title>
<g id="a_node6"><a xlink:href="index_8h.html" target="_top" xlink:title=" ">
<polygon fill="#ffffff" stroke="#000000" points="308.8457,-165.5 308.8457,-183.5 421.0176,-183.5 421.0176,-165.5 308.8457,-165.5"/>
<text text-anchor="middle" x="364.9316" y="-171.5" font-family="Helvetica,sans-Serif" font-size="10.00" fill="#000000">parallelization/index.h</text>
</a>
</g>
</g>
<!-- Node2&#45;&gt;Node5 -->
<g id="edge5" class="edge">
<title>Node2&#45;&gt;Node5</title>
<path fill="none" stroke="#191970" d="M484.3181,-220.4179C460.824,-211.3817 424.5634,-197.4353 398.1668,-187.2828"/>
<polygon fill="#191970" stroke="#191970" points="399.1702,-183.9188 388.5803,-183.5956 396.6573,-190.4522 399.1702,-183.9188"/>
</g>
<!-- Node6 -->
<g id="node7" class="node">
<title>Node6</title>
<g id="a_node7"><a xlink:href="neighbours_8h.html" target="_top" xlink:title=" ">
<polygon fill="#ffffff" stroke="#000000" points="439.0576,-165.5 439.0576,-183.5 576.8057,-183.5 576.8057,-165.5 439.0576,-165.5"/>
<text text-anchor="middle" x="507.9316" y="-171.5" font-family="Helvetica,sans-Serif" font-size="10.00" fill="#000000">parallelization/neighbours.h</text>
</a>
</g>
</g>
<!-- Node2&#45;&gt;Node6 -->
<g id="edge7" class="edge">
<title>Node2&#45;&gt;Node6</title>
<path fill="none" stroke="#191970" d="M507.9316,-220.4179C507.9316,-213.2164 507.9316,-202.8962 507.9316,-193.8632"/>
<polygon fill="#191970" stroke="#191970" points="511.4317,-193.7794 507.9316,-183.7795 504.4317,-193.7795 511.4317,-193.7794"/>
</g>
<!-- Node8 -->
<g id="node9" class="node">
<title>Node8</title>
<g id="a_node9"><a xlink:href="parallelparameters_8h.html" target="_top" xlink:title=" ">
<polygon fill="#ffffff" stroke="#000000" points="594.3901,-165.5 594.3901,-183.5 765.4731,-183.5 765.4731,-165.5 594.3901,-165.5"/>
<text text-anchor="middle" x="679.9316" y="-171.5" font-family="Helvetica,sans-Serif" font-size="10.00" fill="#000000">parallelization/parallelparameters.h</text>
</a>
</g>
</g>
<!-- Node2&#45;&gt;Node8 -->
<g id="edge10" class="edge">
<title>Node2&#45;&gt;Node8</title>
<path fill="none" stroke="#191970" d="M536.3339,-220.4179C565.1767,-211.1949 610.0162,-196.8567 641.9096,-186.6582"/>
<polygon fill="#191970" stroke="#191970" points="643.3142,-189.8837 651.773,-183.5042 641.1821,-183.2163 643.3142,-189.8837"/>
</g>
<!-- Node9 -->
<g id="node10" class="node">
<title>Node9</title>
<g id="a_node10"><a xlink:href="functions_8h.html" target="_top" xlink:title=" ">
<polygon fill="#ffffff" stroke="#000000" points="80.7495,-165.5 80.7495,-183.5 145.1138,-183.5 145.1138,-165.5 80.7495,-165.5"/>
<text text-anchor="middle" x="112.9316" y="-171.5" font-family="Helvetica,sans-Serif" font-size="10.00" fill="#000000">functions.h</text>
</a>
</g>
</g>
<!-- Node2&#45;&gt;Node9 -->
<g id="edge12" class="edge">
<title>Node2&#45;&gt;Node9</title>
<path fill="none" stroke="#191970" d="M470.0574,-224.2264C396.1963,-213.9419 233.3706,-191.27 155.7337,-180.4598"/>
<polygon fill="#191970" stroke="#191970" points="155.7495,-176.9283 145.3623,-179.0157 154.7841,-183.8614 155.7495,-176.9283"/>
</g>
<!-- Node5&#45;&gt;Node3 -->
<g id="edge6" class="edge">
<title>Node5&#45;&gt;Node3</title>
<path fill="none" stroke="#191970" d="M352.0515,-165.4179C340.1963,-157.0584 322.3814,-144.4966 308.3801,-134.6239"/>
<polygon fill="#191970" stroke="#191970" points="310.0205,-131.498 299.8309,-128.5956 305.9865,-137.2188 310.0205,-131.498"/>
</g>
<!-- Node6&#45;&gt;Node3 -->
<g id="edge9" class="edge">
<title>Node6&#45;&gt;Node3</title>
<path fill="none" stroke="#191970" d="M471.438,-165.4179C428.8069,-154.8083 358.9772,-137.4299 318.5574,-127.3707"/>
<polygon fill="#191970" stroke="#191970" points="319.2571,-123.9381 308.7078,-124.9194 317.5665,-130.7309 319.2571,-123.9381"/>
</g>
<!-- Node7 -->
<g id="node8" class="node">
<title>Node7</title>
<g id="a_node8"><a xlink:href="neighbourlist_8h.html" target="_top" xlink:title=" ">
<polygon fill="#ffffff" stroke="#000000" points="467.4097,-110.5 467.4097,-128.5 548.4536,-128.5 548.4536,-110.5 467.4097,-110.5"/>
<text text-anchor="middle" x="507.9316" y="-116.5" font-family="Helvetica,sans-Serif" font-size="10.00" fill="#000000">neighbourlist.h</text>
</a>
</g>
</g>
<!-- Node6&#45;&gt;Node7 -->
<g id="edge8" class="edge">
<title>Node6&#45;&gt;Node7</title>
<path fill="none" stroke="#191970" d="M507.9316,-165.4179C507.9316,-158.2164 507.9316,-147.8962 507.9316,-138.8632"/>
<polygon fill="#191970" stroke="#191970" points="511.4317,-138.7794 507.9316,-128.7795 504.4317,-138.7795 511.4317,-138.7794"/>
</g>
<!-- Node8&#45;&gt;Node4 -->
<g id="edge11" class="edge">
<title>Node8&#45;&gt;Node4</title>
<path fill="none" stroke="#191970" d="M689.344,-165.4179C697.6276,-157.425 709.8926,-145.5903 719.8962,-135.9377"/>
<polygon fill="#191970" stroke="#191970" points="722.5488,-138.2419 727.3147,-128.7795 717.6882,-133.2045 722.5488,-138.2419"/>
</g>
<!-- Node10 -->
<g id="node11" class="node">
<title>Node10</title>
<g id="a_node11"><a xlink:href="su3_8h.html" target="_top" xlink:title=" ">
<polygon fill="#ffffff" stroke="#000000" points="67.4194,-110.5 67.4194,-128.5 148.4438,-128.5 148.4438,-110.5 67.4194,-110.5"/>
<text text-anchor="middle" x="107.9316" y="-116.5" font-family="Helvetica,sans-Serif" font-size="10.00" fill="#000000">matrices/su3.h</text>
</a>
</g>
</g>
<!-- Node9&#45;&gt;Node10 -->
<g id="edge13" class="edge">
<title>Node9&#45;&gt;Node10</title>
<path fill="none" stroke="#191970" d="M112.106,-165.4179C111.4513,-158.2164 110.5131,-147.8962 109.6919,-138.8632"/>
<polygon fill="#191970" stroke="#191970" points="113.1663,-138.4215 108.7752,-128.7795 106.195,-139.0553 113.1663,-138.4215"/>
</g>
<!-- Node11 -->
<g id="node12" class="node">
<title>Node11</title>
<g id="a_node12"><a xlink:href="complex_8h.html" target="_top" xlink:title=" ">
<polygon fill="#ffffff" stroke="#000000" points="64.6387,-55.5 64.6387,-73.5 151.2246,-73.5 151.2246,-55.5 64.6387,-55.5"/>
<text text-anchor="middle" x="107.9316" y="-61.5" font-family="Helvetica,sans-Serif" font-size="10.00" fill="#000000">math/complex.h</text>
</a>
</g>
</g>
<!-- Node9&#45;&gt;Node11 -->
<g id="edge18" class="edge">
<title>Node9&#45;&gt;Node11</title>
<path fill="none" stroke="#191970" d="M95.1931,-165.4258C82.2113,-157.6967 65.5825,-145.259 57.9316,-129 49.0957,-110.2227 66.738,-91.8181 83.4523,-79.5064"/>
<polygon fill="#191970" stroke="#191970" points="85.7064,-82.204 91.9631,-73.6538 81.7401,-76.4361 85.7064,-82.204"/>
</g>
<!-- Node13 -->
<g id="node14" class="node">
<title>Node13</title>
<g id="a_node14"><a xlink:href="su2_8h.html" target="_top" xlink:title=" ">
<polygon fill="#ffffff" stroke="#000000" points="166.4194,-110.5 166.4194,-128.5 247.4438,-128.5 247.4438,-110.5 166.4194,-110.5"/>
<text text-anchor="middle" x="206.9316" y="-116.5" font-family="Helvetica,sans-Serif" font-size="10.00" fill="#000000">matrices/su2.h</text>
</a>
</g>
</g>
<!-- Node9&#45;&gt;Node13 -->
<g id="edge16" class="edge">
<title>Node9&#45;&gt;Node13</title>
<path fill="none" stroke="#191970" d="M128.4538,-165.4179C143.1492,-156.8195 165.4428,-143.7754 182.5183,-133.7844"/>
<polygon fill="#191970" stroke="#191970" points="184.5228,-136.6667 191.3864,-128.5956 180.9877,-130.6249 184.5228,-136.6667"/>
</g>
<!-- Node10&#45;&gt;Node11 -->
<g id="edge14" class="edge">
<title>Node10&#45;&gt;Node11</title>
<path fill="none" stroke="#191970" d="M107.9316,-110.4179C107.9316,-103.2164 107.9316,-92.8962 107.9316,-83.8632"/>
<polygon fill="#191970" stroke="#191970" points="111.4317,-83.7794 107.9316,-73.7795 104.4317,-83.7795 111.4317,-83.7794"/>
</g>
<!-- Node12 -->
<g id="node13" class="node">
<title>Node12</title>
<g id="a_node13"><a xlink:title=" ">
<polygon fill="#ffffff" stroke="#bfbfbf" points="80.7593,-.5 80.7593,-18.5 135.104,-18.5 135.104,-.5 80.7593,-.5"/>
<text text-anchor="middle" x="107.9316" y="-6.5" font-family="Helvetica,sans-Serif" font-size="10.00" fill="#000000">iostream</text>
</a>
</g>
</g>
<!-- Node11&#45;&gt;Node12 -->
<g id="edge15" class="edge">
<title>Node11&#45;&gt;Node12</title>
<path fill="none" stroke="#191970" d="M107.9316,-55.4179C107.9316,-48.2164 107.9316,-37.8962 107.9316,-28.8632"/>
<polygon fill="#191970" stroke="#191970" points="111.4317,-28.7794 107.9316,-18.7795 104.4317,-28.7795 111.4317,-28.7794"/>
</g>
<!-- Node13&#45;&gt;Node11 -->
<g id="edge17" class="edge">
<title>Node13&#45;&gt;Node11</title>
<path fill="none" stroke="#191970" d="M190.5838,-110.4179C174.9635,-101.7399 151.1918,-88.5334 133.1455,-78.5077"/>
<polygon fill="#191970" stroke="#191970" points="134.7451,-75.3925 124.3038,-73.5956 131.3456,-81.5117 134.7451,-75.3925"/>
</g>
<!-- Node14&#45;&gt;Node3 -->
<g id="edge21" class="edge">
<title>Node14&#45;&gt;Node3</title>
<path fill="none" stroke="#191970" d="M164.4844,-220.1615C178.8856,-207.4782 205.5768,-184.187 228.9316,-165 241.3824,-154.7712 255.6156,-143.5979 266.8662,-134.8835"/>
<polygon fill="#191970" stroke="#191970" points="269.0299,-137.6348 274.8094,-128.7552 264.7539,-132.0926 269.0299,-137.6348"/>
</g>
<!-- Node15 -->
<g id="node16" class="node">
<title>Node15</title>
<g id="a_node16"><a xlink:title=" ">
<polygon fill="#ffffff" stroke="#bfbfbf" points="22.7051,-165.5 22.7051,-183.5 63.1582,-183.5 63.1582,-165.5 22.7051,-165.5"/>
<text text-anchor="middle" x="42.9316" y="-171.5" font-family="Helvetica,sans-Serif" font-size="10.00" fill="#000000">string</text>
</a>
</g>
</g>
<!-- Node14&#45;&gt;Node15 -->
<g id="edge20" class="edge">
<title>Node14&#45;&gt;Node15</title>
<path fill="none" stroke="#191970" d="M135.6022,-220.4179C117.8476,-211.6205 90.7002,-198.1691 70.37,-188.0956"/>
<polygon fill="#191970" stroke="#191970" points="71.8026,-184.8994 61.2883,-183.5956 68.6947,-191.1716 71.8026,-184.8994"/>
</g>
<!-- Node16&#45;&gt;Node1 -->
<g id="edge24" class="edge">
<title>Node16&#45;&gt;Node1</title>
<path fill="none" stroke="#191970" d="M64.7288,-330.4179C86.2246,-321.4613 119.2981,-307.6806 143.6069,-297.552"/>
<polygon fill="#191970" stroke="#191970" points="145.2175,-300.6726 153.1021,-293.5956 142.5252,-294.2111 145.2175,-300.6726"/>
</g>
<!-- Node16&#45;&gt;Node9 -->
<g id="edge25" class="edge">
<title>Node16&#45;&gt;Node9</title>
<path fill="none" stroke="#191970" d="M45.3067,-330.2135C50.7204,-309.7201 64.9865,-259.3221 83.9316,-220 88.5991,-210.3123 94.912,-200.1637 100.4561,-191.9155"/>
<polygon fill="#191970" stroke="#191970" points="103.4431,-193.7499 106.2602,-183.5365 97.6887,-189.7639 103.4431,-193.7499"/>
</g>
<!-- Node17&#45;&gt;Node1 -->
<g id="edge27" class="edge">
<title>Node17&#45;&gt;Node1</title>
<path fill="none" stroke="#191970" d="M174.9316,-330.4179C174.9316,-323.2164 174.9316,-312.8962 174.9316,-303.8632"/>
<polygon fill="#191970" stroke="#191970" points="178.4317,-303.7794 174.9316,-293.7795 171.4317,-303.7795 178.4317,-303.7794"/>
</g>
<!-- Node18&#45;&gt;Node1 -->
<g id="edge29" class="edge">
<title>Node18&#45;&gt;Node1</title>
<path fill="none" stroke="#191970" d="M260.0884,-330.4179C243.9209,-321.7001 219.2779,-308.4122 200.654,-298.3699"/>
<polygon fill="#191970" stroke="#191970" points="202.263,-295.2611 191.7999,-293.5956 198.9407,-301.4225 202.263,-295.2611"/>
</g>
<!-- Node19&#45;&gt;Node0 -->
<g id="edge32" class="edge">
<title>Node19&#45;&gt;Node0</title>
<path fill="none" stroke="#191970" d="M662.1932,-348.5042C628.8027,-357.8973 573.4117,-372.6566 533.1635,-382.9133"/>
<polygon fill="#191970" stroke="#191970" points="532.1136,-379.5686 523.2798,-385.4179 533.8332,-386.3541 532.1136,-379.5686"/>
</g>
<!-- Node19&#45;&gt;Node2 -->
<g id="edge31" class="edge">
<title>Node19&#45;&gt;Node2</title>
<path fill="none" stroke="#191970" d="M675.956,-330.4982C644.3211,-311.4827 570.4523,-267.0807 532.0626,-244.005"/>
<polygon fill="#191970" stroke="#191970" points="533.4882,-240.7783 523.1142,-238.6261 529.8819,-246.7778 533.4882,-240.7783"/>
</g>
<!-- Node20&#45;&gt;Node0 -->
<g id="edge35" class="edge">
<title>Node20&#45;&gt;Node0</title>
<path fill="none" stroke="#191970" d="M426.5039,-348.5956C439.389,-356.8003 456.4173,-369.0451 468.7184,-378.8251"/>
<polygon fill="#191970" stroke="#191970" points="466.7713,-381.756 476.7132,-385.4179 471.2248,-376.3554 466.7713,-381.756"/>
</g>
<!-- Node20&#45;&gt;Node2 -->
<g id="edge34" class="edge">
<title>Node20&#45;&gt;Node2</title>
<path fill="none" stroke="#191970" d="M417.0332,-330.4982C433.6396,-312.0467 471.7585,-269.6924 492.9796,-246.1134"/>
<polygon fill="#191970" stroke="#191970" points="495.63,-248.4005 499.7181,-238.6261 490.4269,-243.7177 495.63,-248.4005"/>
</g>
<!-- Node21&#45;&gt;Node0 -->
<g id="edge38" class="edge">
<title>Node21&#45;&gt;Node0</title>
<path fill="none" stroke="#191970" d="M551.4846,-348.7795C541.6712,-357.2337 524.732,-369.8651 510.1629,-379.7102"/>
<polygon fill="#191970" stroke="#191970" points="507.9152,-376.9993 501.4827,-385.4179 511.7612,-382.8481 507.9152,-376.9993"/>
</g>
<!-- Node21&#45;&gt;Node2 -->
<g id="edge37" class="edge">
<title>Node21&#45;&gt;Node2</title>
<path fill="none" stroke="#191970" d="M554.7581,-330.4982C546.4275,-312.5302 527.5877,-271.8954 516.5111,-248.0046"/>
<polygon fill="#191970" stroke="#191970" points="519.5445,-246.2263 512.1629,-238.6261 513.1939,-249.1707 519.5445,-246.2263"/>
</g>
<!-- Node22&#45;&gt;Node0 -->
<g id="edge41" class="edge">
<title>Node22&#45;&gt;Node0</title>
<path fill="none" stroke="#191970" d="M756.6139,-348.5149C755.7129,-348.6784 754.818,-348.8402 753.9316,-349 686.0693,-361.2353 608.1797,-374.7444 553.4732,-383.8393"/>
<polygon fill="#191970" stroke="#191970" points="552.8296,-380.3981 543.5357,-385.4848 553.9732,-387.3041 552.8296,-380.3981"/>
</g>
<!-- Node22&#45;&gt;Node2 -->
<g id="edge40" class="edge">
<title>Node22&#45;&gt;Node2</title>
<path fill="none" stroke="#191970" d="M796.0803,-330.4475C795.7831,-316.3415 792.9956,-289.259 776.9316,-275 744.9652,-246.6254 624.3657,-235.6442 555.9981,-231.6347"/>
<polygon fill="#191970" stroke="#191970" points="556.0808,-228.134 545.9012,-231.0709 555.6905,-235.1231 556.0808,-228.134"/>
</g>
<!-- Node23 -->
<g id="node24" class="node">
<title>Node23</title>
<g id="a_node24"><a xlink:title=" ">
<polygon fill="#ffffff" stroke="#bfbfbf" points="732.2051,-275.5 732.2051,-293.5 767.6582,-293.5 767.6582,-275.5 732.2051,-275.5"/>
<text text-anchor="middle" x="749.9316" y="-281.5" font-family="Helvetica,sans-Serif" font-size="10.00" fill="#000000">map</text>
</a>
</g>
</g>
<!-- Node22&#45;&gt;Node23 -->
<g id="edge42" class="edge">
<title>Node22&#45;&gt;Node23</title>
<path fill="none" stroke="#191970" d="M788.3357,-330.4179C781.7831,-322.5833 772.1434,-311.0575 764.1613,-301.5137"/>
<polygon fill="#191970" stroke="#191970" points="766.793,-299.2048 757.6926,-293.7795 761.4235,-303.6957 766.793,-299.2048"/>
</g>
</g>
</svg>
