<?xml version="1.0" encoding="UTF-8" standalone="no"?>
<!DOCTYPE svg PUBLIC "-//W3C//DTD SVG 1.1//EN"
 "http://www.w3.org/Graphics/SVG/1.1/DTD/svg11.dtd">
<!-- Generated by graphviz version 2.40.1 (20161225.0304)
 -->
<!-- Title: GLAC/io/observablesio.cpp Pages: 1 -->
<svg width="909pt" height="357pt"
 viewBox="0.00 0.00 909.25 357.00" xmlns="http://www.w3.org/2000/svg" xmlns:xlink="http://www.w3.org/1999/xlink">
<g id="graph0" class="graph" transform="scale(1 1) rotate(0) translate(4 353)">
<title>GLAC/io/observablesio.cpp</title>
<polygon fill="#ffffff" stroke="transparent" points="-4,4 -4,-353 905.2485,-353 905.2485,4 -4,4"/>
<!-- Node0 -->
<g id="node1" class="node">
<title>Node0</title>
<g id="a_node1"><a xlink:title=" ">
<polygon fill="#bfbfbf" stroke="#000000" points="270.4336,-330.5 270.4336,-348.5 407.6104,-348.5 407.6104,-330.5 270.4336,-330.5"/>
<text text-anchor="middle" x="339.022" y="-336.5" font-family="Helvetica,sans-Serif" font-size="10.00" fill="#000000">GLAC/io/observablesio.cpp</text>
</a>
</g>
</g>
<!-- Node1 -->
<g id="node2" class="node">
<title>Node1</title>
<g id="a_node2"><a xlink:href="observablesio_8h.html" target="_top" xlink:title=" ">
<polygon fill="#ffffff" stroke="#000000" points="0,-275.5 0,-293.5 86.0439,-293.5 86.0439,-275.5 0,-275.5"/>
<text text-anchor="middle" x="43.022" y="-281.5" font-family="Helvetica,sans-Serif" font-size="10.00" fill="#000000">observablesio.h</text>
</a>
</g>
</g>
<!-- Node0&#45;&gt;Node1 -->
<g id="edge1" class="edge">
<title>Node0&#45;&gt;Node1</title>
<path fill="none" stroke="#191970" d="M290.475,-330.4795C237.0518,-320.5528 151.4508,-304.6472 96.236,-294.3877"/>
<polygon fill="#191970" stroke="#191970" points="96.7655,-290.9263 86.2944,-292.5405 95.4867,-297.8085 96.7655,-290.9263"/>
</g>
<!-- Node3 -->
<g id="node4" class="node">
<title>Node3</title>
<g id="a_node4"><a xlink:title=" ">
<polygon fill="#ffffff" stroke="#bfbfbf" points="252.4063,-110.5 252.4063,-128.5 295.6377,-128.5 295.6377,-110.5 252.4063,-110.5"/>
<text text-anchor="middle" x="274.022" y="-116.5" font-family="Helvetica,sans-Serif" font-size="10.00" fill="#000000">vector</text>
</a>
</g>
</g>
<!-- Node0&#45;&gt;Node3 -->
<g id="edge29" class="edge">
<title>Node0&#45;&gt;Node3</title>
<path fill="none" stroke="#191970" d="M305.1695,-330.4293C286.8854,-323.6141 265.8854,-312.2391 255.022,-294 225.3313,-244.151 250.3138,-171.9287 265.0683,-138.1855"/>
<polygon fill="#191970" stroke="#191970" points="268.4482,-139.2096 269.417,-128.6591 262.0803,-136.3026 268.4482,-139.2096"/>
</g>
<!-- Node4 -->
<g id="node5" class="node">
<title>Node4</title>
<g id="a_node5"><a xlink:href="parameters_8h.html" target="_top" xlink:title=" ">
<polygon fill="#ffffff" stroke="#000000" points="103.8325,-275.5 103.8325,-293.5 208.2114,-293.5 208.2114,-275.5 103.8325,-275.5"/>
<text text-anchor="middle" x="156.022" y="-281.5" font-family="Helvetica,sans-Serif" font-size="10.00" fill="#000000">config/parameters.h</text>
</a>
</g>
</g>
<!-- Node0&#45;&gt;Node4 -->
<g id="edge4" class="edge">
<title>Node0&#45;&gt;Node4</title>
<path fill="none" stroke="#191970" d="M308.8032,-330.4179C277.8502,-321.115 229.5814,-306.608 195.5974,-296.3943"/>
<polygon fill="#191970" stroke="#191970" points="196.5657,-293.0307 185.9814,-293.5042 194.5508,-299.7344 196.5657,-293.0307"/>
</g>
<!-- Node5 -->
<g id="node6" class="node">
<title>Node5</title>
<g id="a_node6"><a xlink:href="communicator_8h.html" target="_top" xlink:title=" ">
<polygon fill="#ffffff" stroke="#000000" points="263.7637,-275.5 263.7637,-293.5 414.2803,-293.5 414.2803,-275.5 263.7637,-275.5"/>
<text text-anchor="middle" x="339.022" y="-281.5" font-family="Helvetica,sans-Serif" font-size="10.00" fill="#000000">parallelization/communicator.h</text>
</a>
</g>
</g>
<!-- Node0&#45;&gt;Node5 -->
<g id="edge7" class="edge">
<title>Node0&#45;&gt;Node5</title>
<path fill="none" stroke="#191970" d="M339.022,-330.4179C339.022,-323.2164 339.022,-312.8962 339.022,-303.8632"/>
<polygon fill="#191970" stroke="#191970" points="342.5221,-303.7794 339.022,-293.7795 335.5221,-303.7795 342.5221,-303.7794"/>
</g>
<!-- Node17 -->
<g id="node18" class="node">
<title>Node17</title>
<g id="a_node18"><a xlink:title=" ">
<polygon fill="#ffffff" stroke="#bfbfbf" points="432.4063,-275.5 432.4063,-293.5 475.6377,-293.5 475.6377,-275.5 432.4063,-275.5"/>
<text text-anchor="middle" x="454.022" y="-281.5" font-family="Helvetica,sans-Serif" font-size="10.00" fill="#000000">cmath</text>
</a>
</g>
</g>
<!-- Node0&#45;&gt;Node17 -->
<g id="edge26" class="edge">
<title>Node0&#45;&gt;Node17</title>
<path fill="none" stroke="#191970" d="M358.0119,-330.4179C376.4896,-321.5807 404.7868,-308.0473 425.8803,-297.9591"/>
<polygon fill="#191970" stroke="#191970" points="427.4926,-301.0677 435.0038,-293.5956 424.4724,-294.7528 427.4926,-301.0677"/>
</g>
<!-- Node18 -->
<g id="node19" class="node">
<title>Node18</title>
<g id="a_node19"><a xlink:title=" ">
<polygon fill="#ffffff" stroke="#bfbfbf" points="493.3521,-275.5 493.3521,-293.5 542.6919,-293.5 542.6919,-275.5 493.3521,-275.5"/>
<text text-anchor="middle" x="518.022" y="-281.5" font-family="Helvetica,sans-Serif" font-size="10.00" fill="#000000">fstream</text>
</a>
</g>
</g>
<!-- Node0&#45;&gt;Node18 -->
<g id="edge27" class="edge">
<title>Node0&#45;&gt;Node18</title>
<path fill="none" stroke="#191970" d="M368.5802,-330.4179C400.1665,-320.7126 450.1874,-305.343 483.5451,-295.0935"/>
<polygon fill="#191970" stroke="#191970" points="484.7927,-298.3717 493.3237,-292.0889 482.7367,-291.6804 484.7927,-298.3717"/>
</g>
<!-- Node19 -->
<g id="node20" class="node">
<title>Node19</title>
<g id="a_node20"><a xlink:title=" ">
<polygon fill="#ffffff" stroke="#bfbfbf" points="560.5122,-275.5 560.5122,-293.5 611.5317,-293.5 611.5317,-275.5 560.5122,-275.5"/>
<text text-anchor="middle" x="586.022" y="-281.5" font-family="Helvetica,sans-Serif" font-size="10.00" fill="#000000">iomanip</text>
</a>
</g>
</g>
<!-- Node0&#45;&gt;Node19 -->
<g id="edge28" class="edge">
<title>Node0&#45;&gt;Node19</title>
<path fill="none" stroke="#191970" d="M385.3311,-330.4695C426.4078,-322.266 488.2514,-309.4451 550.4625,-294.2824"/>
<polygon fill="#191970" stroke="#191970" points="551.5711,-297.6142 560.4471,-291.8291 549.9008,-290.8164 551.5711,-297.6142"/>
</g>
<!-- Node2 -->
<g id="node3" class="node">
<title>Node2</title>
<g id="a_node3"><a xlink:title=" ">
<polygon fill="#ffffff" stroke="#bfbfbf" points="104.7954,-220.5 104.7954,-238.5 145.2485,-238.5 145.2485,-220.5 104.7954,-220.5"/>
<text text-anchor="middle" x="125.022" y="-226.5" font-family="Helvetica,sans-Serif" font-size="10.00" fill="#000000">string</text>
</a>
</g>
</g>
<!-- Node1&#45;&gt;Node2 -->
<g id="edge2" class="edge">
<title>Node1&#45;&gt;Node2</title>
<path fill="none" stroke="#191970" d="M56.5626,-275.4179C69.1445,-266.9788 88.1116,-254.257 102.8931,-244.3426"/>
<polygon fill="#191970" stroke="#191970" points="105.106,-247.0727 111.4612,-238.5956 101.2067,-241.2593 105.106,-247.0727"/>
</g>
<!-- Node1&#45;&gt;Node3 -->
<g id="edge3" class="edge">
<title>Node1&#45;&gt;Node3</title>
<path fill="none" stroke="#191970" d="M48.9794,-275.2568C57.9571,-261.8486 76.043,-236.776 96.022,-220 142.3011,-181.1402 205.7693,-149.5109 243.0832,-132.6866"/>
<polygon fill="#191970" stroke="#191970" points="244.7102,-135.7937 252.429,-128.5363 241.8691,-129.3962 244.7102,-135.7937"/>
</g>
<!-- Node4&#45;&gt;Node2 -->
<g id="edge5" class="edge">
<title>Node4&#45;&gt;Node2</title>
<path fill="none" stroke="#191970" d="M150.903,-275.4179C146.6655,-267.8998 140.5123,-256.9829 135.2688,-247.6799"/>
<polygon fill="#191970" stroke="#191970" points="138.2114,-245.7724 130.2522,-238.7795 132.1134,-249.2096 138.2114,-245.7724"/>
</g>
<!-- Node4&#45;&gt;Node3 -->
<g id="edge6" class="edge">
<title>Node4&#45;&gt;Node3</title>
<path fill="none" stroke="#191970" d="M159.7131,-275.4589C168.4912,-254.6067 192.1311,-202.0932 222.022,-165 231.0778,-153.7622 243.107,-143.0375 253.3147,-134.8259"/>
<polygon fill="#191970" stroke="#191970" points="255.6168,-137.4692 261.3554,-128.563 251.3154,-131.9467 255.6168,-137.4692"/>
</g>
<!-- Node5&#45;&gt;Node3 -->
<g id="edge8" class="edge">
<title>Node5&#45;&gt;Node3</title>
<path fill="none" stroke="#191970" d="M335.3411,-275.1561C324.9729,-248.837 295.377,-173.709 281.4448,-138.3426"/>
<polygon fill="#191970" stroke="#191970" points="284.5843,-136.7626 277.6625,-128.7414 278.0714,-139.3283 284.5843,-136.7626"/>
</g>
<!-- Node6 -->
<g id="node7" class="node">
<title>Node6</title>
<g id="a_node7"><a xlink:href="lattice_8h.html" target="_top" xlink:title=" ">
<polygon fill="#ffffff" stroke="#000000" points="501.2856,-220.5 501.2856,-238.5 576.7583,-238.5 576.7583,-220.5 501.2856,-220.5"/>
<text text-anchor="middle" x="539.022" y="-226.5" font-family="Helvetica,sans-Serif" font-size="10.00" fill="#000000">math/lattice.h</text>
</a>
</g>
</g>
<!-- Node5&#45;&gt;Node6 -->
<g id="edge9" class="edge">
<title>Node5&#45;&gt;Node6</title>
<path fill="none" stroke="#191970" d="M372.0479,-275.4179C406.0215,-266.0751 459.0823,-251.4834 496.2475,-241.263"/>
<polygon fill="#191970" stroke="#191970" points="497.5654,-244.5306 506.2794,-238.5042 495.7093,-237.7811 497.5654,-244.5306"/>
</g>
<!-- Node6&#45;&gt;Node3 -->
<g id="edge10" class="edge">
<title>Node6&#45;&gt;Node3</title>
<path fill="none" stroke="#191970" d="M501.1963,-224.1098C449.3698,-216.24 359.467,-200.7124 331.022,-184 311.5742,-172.5738 295.2445,-152.1994 285.1166,-137.4005"/>
<polygon fill="#191970" stroke="#191970" points="287.7862,-135.0876 279.3862,-128.6308 281.9263,-138.9167 287.7862,-135.0876"/>
</g>
<!-- Node7 -->
<g id="node8" class="node">
<title>Node7</title>
<g id="a_node8"><a xlink:title=" ">
<polygon fill="#ffffff" stroke="#bfbfbf" points="860.7954,-110.5 860.7954,-128.5 901.2485,-128.5 901.2485,-110.5 860.7954,-110.5"/>
<text text-anchor="middle" x="881.022" y="-116.5" font-family="Helvetica,sans-Serif" font-size="10.00" fill="#000000">mpi.h</text>
</a>
</g>
</g>
<!-- Node6&#45;&gt;Node7 -->
<g id="edge11" class="edge">
<title>Node6&#45;&gt;Node7</title>
<path fill="none" stroke="#191970" d="M576.7655,-227.3643C662.9996,-222.1002 868.6256,-207.2196 889.022,-184 899.928,-171.5844 895.7375,-152.2649 890.1541,-138.004"/>
<polygon fill="#191970" stroke="#191970" points="893.2801,-136.4184 886.0383,-128.6849 886.8768,-139.2465 893.2801,-136.4184"/>
</g>
<!-- Node8 -->
<g id="node9" class="node">
<title>Node8</title>
<g id="a_node9"><a xlink:href="index_8h.html" target="_top" xlink:title=" ">
<polygon fill="#ffffff" stroke="#000000" points="339.936,-165.5 339.936,-183.5 452.1079,-183.5 452.1079,-165.5 339.936,-165.5"/>
<text text-anchor="middle" x="396.022" y="-171.5" font-family="Helvetica,sans-Serif" font-size="10.00" fill="#000000">parallelization/index.h</text>
</a>
</g>
</g>
<!-- Node6&#45;&gt;Node8 -->
<g id="edge12" class="edge">
<title>Node6&#45;&gt;Node8</title>
<path fill="none" stroke="#191970" d="M515.4084,-220.4179C491.9143,-211.3817 455.6537,-197.4353 429.2572,-187.2828"/>
<polygon fill="#191970" stroke="#191970" points="430.2605,-183.9188 419.6706,-183.5956 427.7476,-190.4522 430.2605,-183.9188"/>
</g>
<!-- Node9 -->
<g id="node10" class="node">
<title>Node9</title>
<g id="a_node10"><a xlink:href="neighbours_8h.html" target="_top" xlink:title=" ">
<polygon fill="#ffffff" stroke="#000000" points="470.1479,-165.5 470.1479,-183.5 607.896,-183.5 607.896,-165.5 470.1479,-165.5"/>
<text text-anchor="middle" x="539.022" y="-171.5" font-family="Helvetica,sans-Serif" font-size="10.00" fill="#000000">parallelization/neighbours.h</text>
</a>
</g>
</g>
<!-- Node6&#45;&gt;Node9 -->
<g id="edge14" class="edge">
<title>Node6&#45;&gt;Node9</title>
<path fill="none" stroke="#191970" d="M539.022,-220.4179C539.022,-213.2164 539.022,-202.8962 539.022,-193.8632"/>
<polygon fill="#191970" stroke="#191970" points="542.5221,-193.7794 539.022,-183.7795 535.5221,-193.7795 542.5221,-193.7794"/>
</g>
<!-- Node11 -->
<g id="node12" class="node">
<title>Node11</title>
<g id="a_node12"><a xlink:href="parallelparameters_8h.html" target="_top" xlink:title=" ">
<polygon fill="#ffffff" stroke="#000000" points="708.4805,-165.5 708.4805,-183.5 879.5635,-183.5 879.5635,-165.5 708.4805,-165.5"/>
<text text-anchor="middle" x="794.022" y="-171.5" font-family="Helvetica,sans-Serif" font-size="10.00" fill="#000000">parallelization/parallelparameters.h</text>
</a>
</g>
</g>
<!-- Node6&#45;&gt;Node11 -->
<g id="edge17" class="edge">
<title>Node6&#45;&gt;Node11</title>
<path fill="none" stroke="#191970" d="M576.9227,-221.3253C620.7945,-211.8628 693.2853,-196.2275 742.31,-185.6536"/>
<polygon fill="#191970" stroke="#191970" points="743.0541,-189.0736 752.0913,-183.5439 741.5782,-182.231 743.0541,-189.0736"/>
</g>
<!-- Node12 -->
<g id="node13" class="node">
<title>Node12</title>
<g id="a_node13"><a xlink:href="functions_8h.html" target="_top" xlink:title=" ">
<polygon fill="#ffffff" stroke="#000000" points="625.8398,-165.5 625.8398,-183.5 690.2041,-183.5 690.2041,-165.5 625.8398,-165.5"/>
<text text-anchor="middle" x="658.022" y="-171.5" font-family="Helvetica,sans-Serif" font-size="10.00" fill="#000000">functions.h</text>
</a>
</g>
</g>
<!-- Node6&#45;&gt;Node12 -->
<g id="edge19" class="edge">
<title>Node6&#45;&gt;Node12</title>
<path fill="none" stroke="#191970" d="M558.6724,-220.4179C577.879,-211.5409 607.3382,-197.9253 629.196,-187.823"/>
<polygon fill="#191970" stroke="#191970" points="630.7334,-190.9682 638.3423,-183.5956 627.7966,-184.614 630.7334,-190.9682"/>
</g>
<!-- Node8&#45;&gt;Node3 -->
<g id="edge13" class="edge">
<title>Node8&#45;&gt;Node3</title>
<path fill="none" stroke="#191970" d="M375.8762,-165.4179C356.1854,-156.5409 325.9835,-142.9253 303.5747,-132.823"/>
<polygon fill="#191970" stroke="#191970" points="304.7526,-129.5148 294.1977,-128.5956 301.8757,-135.8963 304.7526,-129.5148"/>
</g>
<!-- Node9&#45;&gt;Node3 -->
<g id="edge16" class="edge">
<title>Node9&#45;&gt;Node3</title>
<path fill="none" stroke="#191970" d="M495.5594,-165.4795C442.1835,-154.4014 352.9293,-135.877 305.6473,-126.0637"/>
<polygon fill="#191970" stroke="#191970" points="306.176,-122.599 295.6733,-123.9937 304.7534,-129.4529 306.176,-122.599"/>
</g>
<!-- Node10 -->
<g id="node11" class="node">
<title>Node10</title>
<g id="a_node11"><a xlink:href="neighbourlist_8h.html" target="_top" xlink:title=" ">
<polygon fill="#ffffff" stroke="#000000" points="488.5,-110.5 488.5,-128.5 569.5439,-128.5 569.5439,-110.5 488.5,-110.5"/>
<text text-anchor="middle" x="529.022" y="-116.5" font-family="Helvetica,sans-Serif" font-size="10.00" fill="#000000">neighbourlist.h</text>
</a>
</g>
</g>
<!-- Node9&#45;&gt;Node10 -->
<g id="edge15" class="edge">
<title>Node9&#45;&gt;Node10</title>
<path fill="none" stroke="#191970" d="M537.3707,-165.4179C536.0613,-158.2164 534.1849,-147.8962 532.5426,-138.8632"/>
<polygon fill="#191970" stroke="#191970" points="535.9416,-137.992 530.7091,-128.7795 529.0545,-139.2443 535.9416,-137.992"/>
</g>
<!-- Node11&#45;&gt;Node7 -->
<g id="edge18" class="edge">
<title>Node11&#45;&gt;Node7</title>
<path fill="none" stroke="#191970" d="M808.3883,-165.4179C821.8633,-156.8992 842.2412,-144.0166 857.9864,-134.0627"/>
<polygon fill="#191970" stroke="#191970" points="860.052,-136.8977 866.6343,-128.5956 856.3115,-130.9808 860.052,-136.8977"/>
</g>
<!-- Node13 -->
<g id="node14" class="node">
<title>Node13</title>
<g id="a_node14"><a xlink:href="su3_8h.html" target="_top" xlink:title=" ">
<polygon fill="#ffffff" stroke="#000000" points="725.5098,-110.5 725.5098,-128.5 806.5342,-128.5 806.5342,-110.5 725.5098,-110.5"/>
<text text-anchor="middle" x="766.022" y="-116.5" font-family="Helvetica,sans-Serif" font-size="10.00" fill="#000000">matrices/su3.h</text>
</a>
</g>
</g>
<!-- Node12&#45;&gt;Node13 -->
<g id="edge20" class="edge">
<title>Node12&#45;&gt;Node13</title>
<path fill="none" stroke="#191970" d="M675.856,-165.4179C693.0526,-156.6603 719.3056,-143.2907 739.0562,-133.2326"/>
<polygon fill="#191970" stroke="#191970" points="740.8388,-136.2526 748.1615,-128.5956 737.6621,-130.0148 740.8388,-136.2526"/>
</g>
<!-- Node14 -->
<g id="node15" class="node">
<title>Node14</title>
<g id="a_node15"><a xlink:href="complex_8h.html" target="_top" xlink:title=" ">
<polygon fill="#ffffff" stroke="#000000" points="623.729,-55.5 623.729,-73.5 710.3149,-73.5 710.3149,-55.5 623.729,-55.5"/>
<text text-anchor="middle" x="667.022" y="-61.5" font-family="Helvetica,sans-Serif" font-size="10.00" fill="#000000">math/complex.h</text>
</a>
</g>
</g>
<!-- Node12&#45;&gt;Node14 -->
<g id="edge25" class="edge">
<title>Node12&#45;&gt;Node14</title>
<path fill="none" stroke="#191970" d="M645.2237,-165.386C629.9828,-153.325 607.687,-131.1163 617.022,-110 622.4348,-97.7558 632.9502,-87.3899 642.9467,-79.6592"/>
<polygon fill="#191970" stroke="#191970" points="645.0197,-82.4796 651.0982,-73.8019 640.9349,-76.7949 645.0197,-82.4796"/>
</g>
<!-- Node16 -->
<g id="node17" class="node">
<title>Node16</title>
<g id="a_node17"><a xlink:href="su2_8h.html" target="_top" xlink:title=" ">
<polygon fill="#ffffff" stroke="#000000" points="626.5098,-110.5 626.5098,-128.5 707.5342,-128.5 707.5342,-110.5 626.5098,-110.5"/>
<text text-anchor="middle" x="667.022" y="-116.5" font-family="Helvetica,sans-Serif" font-size="10.00" fill="#000000">matrices/su2.h</text>
</a>
</g>
</g>
<!-- Node12&#45;&gt;Node16 -->
<g id="edge23" class="edge">
<title>Node12&#45;&gt;Node16</title>
<path fill="none" stroke="#191970" d="M659.5081,-165.4179C660.6866,-158.2164 662.3753,-147.8962 663.8535,-138.8632"/>
<polygon fill="#191970" stroke="#191970" points="667.3426,-139.2134 665.5035,-128.7795 660.4345,-138.083 667.3426,-139.2134"/>
</g>
<!-- Node13&#45;&gt;Node14 -->
<g id="edge21" class="edge">
<title>Node13&#45;&gt;Node14</title>
<path fill="none" stroke="#191970" d="M749.6741,-110.4179C734.0538,-101.7399 710.2822,-88.5334 692.2358,-78.5077"/>
<polygon fill="#191970" stroke="#191970" points="693.8354,-75.3925 683.3941,-73.5956 690.4359,-81.5117 693.8354,-75.3925"/>
</g>
<!-- Node15 -->
<g id="node16" class="node">
<title>Node15</title>
<g id="a_node16"><a xlink:title=" ">
<polygon fill="#ffffff" stroke="#bfbfbf" points="639.8496,-.5 639.8496,-18.5 694.1943,-18.5 694.1943,-.5 639.8496,-.5"/>
<text text-anchor="middle" x="667.022" y="-6.5" font-family="Helvetica,sans-Serif" font-size="10.00" fill="#000000">iostream</text>
</a>
</g>
</g>
<!-- Node14&#45;&gt;Node15 -->
<g id="edge22" class="edge">
<title>Node14&#45;&gt;Node15</title>
<path fill="none" stroke="#191970" d="M667.022,-55.4179C667.022,-48.2164 667.022,-37.8962 667.022,-28.8632"/>
<polygon fill="#191970" stroke="#191970" points="670.5221,-28.7794 667.022,-18.7795 663.5221,-28.7795 670.5221,-28.7794"/>
</g>
<!-- Node16&#45;&gt;Node14 -->
<g id="edge24" class="edge">
<title>Node16&#45;&gt;Node14</title>
<path fill="none" stroke="#191970" d="M667.022,-110.4179C667.022,-103.2164 667.022,-92.8962 667.022,-83.8632"/>
<polygon fill="#191970" stroke="#191970" points="670.5221,-83.7794 667.022,-73.7795 663.5221,-83.7795 670.5221,-83.7794"/>
</g>
</g>
</svg>
