<?xml version="1.0" encoding="UTF-8" standalone="no"?>
<!DOCTYPE svg PUBLIC "-//W3C//DTD SVG 1.1//EN"
 "http://www.w3.org/Graphics/SVG/1.1/DTD/svg11.dtd">
<!-- Generated by graphviz version 2.40.1 (20161225.0304)
 -->
<!-- Title: GluonicLQCD/observables/tools/observablestorer.h Pages: 1 -->
<svg width="142pt" height="92pt"
 viewBox="0.00 0.00 142.39 92.00" xmlns="http://www.w3.org/2000/svg" xmlns:xlink="http://www.w3.org/1999/xlink">
<g id="graph0" class="graph" transform="scale(1 1) rotate(0) translate(4 88)">
<title>GluonicLQCD/observables/tools/observablestorer.h</title>
<polygon fill="#ffffff" stroke="transparent" points="-4,4 -4,-88 138.3887,-88 138.3887,4 -4,4"/>
<!-- Node0 -->
<g id="node1" class="node">
<title>Node0</title>
<g id="a_node1"><a xlink:title=" ">
<polygon fill="#bfbfbf" stroke="#000000" points="0,-55.5 0,-83.5 134.3887,-83.5 134.3887,-55.5 0,-55.5"/>
<text text-anchor="start" x="8" y="-71.5" font-family="Helvetica,sans-Serif" font-size="10.00" fill="#000000">GluonicLQCD/observables</text>
<text text-anchor="middle" x="67.1943" y="-61.5" font-family="Helvetica,sans-Serif" font-size="10.00" fill="#000000">/tools/observablestorer.h</text>
</a>
</g>
</g>
<!-- Node1 -->
<g id="node2" class="node">
<title>Node1</title>
<g id="a_node2"><a xlink:title=" ">
<polygon fill="#ffffff" stroke="#bfbfbf" points="16.9678,-.5 16.9678,-18.5 57.4209,-18.5 57.4209,-.5 16.9678,-.5"/>
<text text-anchor="middle" x="37.1943" y="-6.5" font-family="Helvetica,sans-Serif" font-size="10.00" fill="#000000">string</text>
</a>
</g>
</g>
<!-- Node0&#45;&gt;Node1 -->
<g id="edge1" class="edge">
<title>Node0&#45;&gt;Node1</title>
<path fill="none" stroke="#191970" d="M60.0848,-55.2808C55.9555,-47.0224 50.7111,-36.5335 46.2842,-27.6796"/>
<polygon fill="#191970" stroke="#191970" points="49.3391,-25.9632 41.7364,-18.5842 43.0781,-29.0937 49.3391,-25.9632"/>
</g>
<!-- Node2 -->
<g id="node3" class="node">
<title>Node2</title>
<g id="a_node3"><a xlink:title=" ">
<polygon fill="#ffffff" stroke="#bfbfbf" points="75.5786,-.5 75.5786,-18.5 118.8101,-18.5 118.8101,-.5 75.5786,-.5"/>
<text text-anchor="middle" x="97.1943" y="-6.5" font-family="Helvetica,sans-Serif" font-size="10.00" fill="#000000">vector</text>
</a>
</g>
</g>
<!-- Node0&#45;&gt;Node2 -->
<g id="edge2" class="edge">
<title>Node0&#45;&gt;Node2</title>
<path fill="none" stroke="#191970" d="M74.3039,-55.2808C78.4331,-47.0224 83.6776,-36.5335 88.1045,-27.6796"/>
<polygon fill="#191970" stroke="#191970" points="91.3105,-29.0937 92.6522,-18.5842 85.0496,-25.9632 91.3105,-29.0937"/>
</g>
</g>
</svg>
