<?xml version="1.0" encoding="UTF-8" standalone="no"?>
<!DOCTYPE svg PUBLIC "-//W3C//DTD SVG 1.1//EN"
 "http://www.w3.org/Graphics/SVG/1.1/DTD/svg11.dtd">
<!-- Generated by graphviz version 2.40.1 (20161225.0304)
 -->
<!-- Title: GluonicLQCD/observables/tools/observablestorer.h Pages: 1 -->
<svg width="1067pt" height="362pt"
 viewBox="0.00 0.00 1066.72 362.00" xmlns="http://www.w3.org/2000/svg" xmlns:xlink="http://www.w3.org/1999/xlink">
<g id="graph0" class="graph" transform="scale(1 1) rotate(0) translate(4 358)">
<title>GluonicLQCD/observables/tools/observablestorer.h</title>
<polygon fill="#ffffff" stroke="transparent" points="-4,4 -4,-358 1062.7163,-358 1062.7163,4 -4,4"/>
<!-- Node3 -->
<g id="node1" class="node">
<title>Node3</title>
<g id="a_node1"><a xlink:title=" ">
<polygon fill="#bfbfbf" stroke="#000000" points="648.3276,-325.5 648.3276,-353.5 782.7163,-353.5 782.7163,-325.5 648.3276,-325.5"/>
<text text-anchor="start" x="656.3276" y="-341.5" font-family="Helvetica,sans-Serif" font-size="10.00" fill="#000000">GluonicLQCD/observables</text>
<text text-anchor="middle" x="715.522" y="-331.5" font-family="Helvetica,sans-Serif" font-size="10.00" fill="#000000">/tools/observablestorer.h</text>
</a>
</g>
</g>
<!-- Node4 -->
<g id="node2" class="node">
<title>Node4</title>
<g id="a_node2"><a xlink:href="correlator_8h.html" target="_top" xlink:title=" ">
<polygon fill="#ffffff" stroke="#000000" points="572.3276,-260.5 572.3276,-288.5 706.7163,-288.5 706.7163,-260.5 572.3276,-260.5"/>
<text text-anchor="start" x="580.3276" y="-276.5" font-family="Helvetica,sans-Serif" font-size="10.00" fill="#000000">GluonicLQCD/observables</text>
<text text-anchor="middle" x="639.522" y="-266.5" font-family="Helvetica,sans-Serif" font-size="10.00" fill="#000000">/correlator.h</text>
</a>
</g>
</g>
<!-- Node3&#45;&gt;Node4 -->
<g id="edge1" class="edge">
<title>Node3&#45;&gt;Node4</title>
<path fill="none" stroke="#191970" d="M691.4162,-318.8832C679.8668,-309.0054 666.3316,-297.4293 655.9807,-288.5765"/>
<polygon fill="#191970" stroke="#191970" points="689.1566,-321.5561 699.0311,-325.396 693.7064,-316.2364 689.1566,-321.5561"/>
</g>
<!-- Node25 -->
<g id="node23" class="node">
<title>Node25</title>
<g id="a_node23"><a xlink:href="observablestorer_8cpp.html" target="_top" xlink:title=" ">
<polygon fill="#ffffff" stroke="#000000" points="724.7637,-260.5 724.7637,-288.5 860.2803,-288.5 860.2803,-260.5 724.7637,-260.5"/>
<text text-anchor="start" x="732.7637" y="-276.5" font-family="Helvetica,sans-Serif" font-size="10.00" fill="#000000">GluonicLQCD/observables</text>
<text text-anchor="middle" x="792.522" y="-266.5" font-family="Helvetica,sans-Serif" font-size="10.00" fill="#000000">/tools/observablestorer.cpp</text>
</a>
</g>
</g>
<!-- Node3&#45;&gt;Node25 -->
<g id="edge29" class="edge">
<title>Node3&#45;&gt;Node25</title>
<path fill="none" stroke="#191970" d="M739.945,-318.8832C751.6463,-309.0054 765.3596,-297.4293 775.8467,-288.5765"/>
<polygon fill="#191970" stroke="#191970" points="737.6135,-316.2709 732.2298,-325.396 742.1289,-321.6199 737.6135,-316.2709"/>
</g>
<!-- Node5 -->
<g id="node3" class="node">
<title>Node5</title>
<g id="a_node3"><a xlink:href="observables_8h.html" target="_top" xlink:title=" ">
<polygon fill="#ffffff" stroke="#000000" points="442.3276,-130.5 442.3276,-158.5 576.7163,-158.5 576.7163,-130.5 442.3276,-130.5"/>
<text text-anchor="start" x="450.3276" y="-146.5" font-family="Helvetica,sans-Serif" font-size="10.00" fill="#000000">GluonicLQCD/observables</text>
<text text-anchor="middle" x="509.522" y="-136.5" font-family="Helvetica,sans-Serif" font-size="10.00" fill="#000000">/observables.h</text>
</a>
</g>
</g>
<!-- Node4&#45;&gt;Node5 -->
<g id="edge2" class="edge">
<title>Node4&#45;&gt;Node5</title>
<path fill="none" stroke="#191970" d="M604.3594,-255.125C590.7198,-246.631 575.5283,-235.8847 563.522,-224 543.3635,-204.0456 526.1651,-175.5353 516.8849,-158.6319"/>
<polygon fill="#191970" stroke="#191970" points="602.6795,-258.1992 613.0493,-260.3709 606.2971,-252.2064 602.6795,-258.1992"/>
</g>
<!-- Node17 -->
<g id="node15" class="node">
<title>Node17</title>
<g id="a_node15"><a xlink:href="energydensity_8h.html" target="_top" xlink:title=" ">
<polygon fill="#ffffff" stroke="#000000" points="382.3276,-195.5 382.3276,-223.5 516.7163,-223.5 516.7163,-195.5 382.3276,-195.5"/>
<text text-anchor="start" x="390.3276" y="-211.5" font-family="Helvetica,sans-Serif" font-size="10.00" fill="#000000">GluonicLQCD/observables</text>
<text text-anchor="middle" x="449.522" y="-201.5" font-family="Helvetica,sans-Serif" font-size="10.00" fill="#000000">/energydensity.h</text>
</a>
</g>
</g>
<!-- Node4&#45;&gt;Node17 -->
<g id="edge18" class="edge">
<title>Node4&#45;&gt;Node17</title>
<path fill="none" stroke="#191970" d="M588.6361,-257.0917C557.9647,-246.5988 519.4075,-233.4082 490.6687,-223.5765"/>
<polygon fill="#191970" stroke="#191970" points="587.7002,-260.4706 598.2948,-260.396 589.9661,-253.8474 587.7002,-260.4706"/>
</g>
<!-- Node19 -->
<g id="node17" class="node">
<title>Node19</title>
<g id="a_node17"><a xlink:href="plaquette_8h.html" target="_top" xlink:title=" ">
<polygon fill="#ffffff" stroke="#000000" points="572.3276,-195.5 572.3276,-223.5 706.7163,-223.5 706.7163,-195.5 572.3276,-195.5"/>
<text text-anchor="start" x="580.3276" y="-211.5" font-family="Helvetica,sans-Serif" font-size="10.00" fill="#000000">GluonicLQCD/observables</text>
<text text-anchor="middle" x="639.522" y="-201.5" font-family="Helvetica,sans-Serif" font-size="10.00" fill="#000000">/plaquette.h</text>
</a>
</g>
</g>
<!-- Node4&#45;&gt;Node19 -->
<g id="edge21" class="edge">
<title>Node4&#45;&gt;Node19</title>
<path fill="none" stroke="#191970" d="M639.522,-250.1081C639.522,-241.1539 639.522,-231.3227 639.522,-223.5765"/>
<polygon fill="#191970" stroke="#191970" points="636.0221,-250.3959 639.522,-260.396 643.0221,-250.396 636.0221,-250.3959"/>
</g>
<!-- Node22 -->
<g id="node20" class="node">
<title>Node22</title>
<g id="a_node20"><a xlink:href="topologicalcharge_8h.html" target="_top" xlink:title=" ">
<polygon fill="#ffffff" stroke="#000000" points="724.3276,-195.5 724.3276,-223.5 858.7163,-223.5 858.7163,-195.5 724.3276,-195.5"/>
<text text-anchor="start" x="732.3276" y="-211.5" font-family="Helvetica,sans-Serif" font-size="10.00" fill="#000000">GluonicLQCD/observables</text>
<text text-anchor="middle" x="791.522" y="-201.5" font-family="Helvetica,sans-Serif" font-size="10.00" fill="#000000">/topologicalcharge.h</text>
</a>
</g>
</g>
<!-- Node4&#45;&gt;Node22 -->
<g id="edge25" class="edge">
<title>Node4&#45;&gt;Node22</title>
<path fill="none" stroke="#191970" d="M681.8327,-256.4066C706.0994,-246.0294 736.1112,-233.1954 758.6046,-223.5765"/>
<polygon fill="#191970" stroke="#191970" points="680.3221,-253.2459 672.5037,-260.396 683.0745,-259.6821 680.3221,-253.2459"/>
</g>
<!-- Node24 -->
<g id="node22" class="node">
<title>Node24</title>
<g id="a_node22"><a xlink:href="correlator_8cpp.html" target="_top" xlink:title=" ">
<polygon fill="#ffffff" stroke="#000000" points="876.3276,-195.5 876.3276,-223.5 1010.7163,-223.5 1010.7163,-195.5 876.3276,-195.5"/>
<text text-anchor="start" x="884.3276" y="-211.5" font-family="Helvetica,sans-Serif" font-size="10.00" fill="#000000">GluonicLQCD/observables</text>
<text text-anchor="middle" x="943.522" y="-201.5" font-family="Helvetica,sans-Serif" font-size="10.00" fill="#000000">/correlator.cpp</text>
</a>
</g>
</g>
<!-- Node4&#45;&gt;Node24 -->
<g id="edge28" class="edge">
<title>Node4&#45;&gt;Node24</title>
<path fill="none" stroke="#191970" d="M714.9027,-258.3824C764.9064,-247.6908 829.8903,-233.7963 877.7885,-223.5549"/>
<polygon fill="#191970" stroke="#191970" points="714.1583,-254.9624 705.1112,-260.476 715.622,-261.8077 714.1583,-254.9624"/>
</g>
<!-- Node6 -->
<g id="node4" class="node">
<title>Node6</title>
<g id="a_node4"><a xlink:href="system_8h.html" target="_top" xlink:title=" ">
<polygon fill="#ffffff" stroke="#000000" points="144.2832,-70.5 144.2832,-88.5 264.7607,-88.5 264.7607,-70.5 144.2832,-70.5"/>
<text text-anchor="middle" x="204.522" y="-76.5" font-family="Helvetica,sans-Serif" font-size="10.00" fill="#000000">GluonicLQCD/system.h</text>
</a>
</g>
</g>
<!-- Node5&#45;&gt;Node6 -->
<g id="edge3" class="edge">
<title>Node5&#45;&gt;Node6</title>
<path fill="none" stroke="#191970" d="M433.6917,-128.3394C374.6704,-115.7611 294.9399,-98.7694 246.7601,-88.5016"/>
<polygon fill="#191970" stroke="#191970" points="433.2071,-131.8147 443.717,-130.476 434.6662,-124.9684 433.2071,-131.8147"/>
</g>
<!-- Node9 -->
<g id="node7" class="node">
<title>Node9</title>
<g id="a_node7"><a xlink:href="mastersampler_8h.html" target="_top" xlink:title=" ">
<polygon fill="#ffffff" stroke="#000000" points="290.3276,-65.5 290.3276,-93.5 424.7163,-93.5 424.7163,-65.5 290.3276,-65.5"/>
<text text-anchor="start" x="298.3276" y="-81.5" font-family="Helvetica,sans-Serif" font-size="10.00" fill="#000000">GluonicLQCD/observables</text>
<text text-anchor="middle" x="357.522" y="-71.5" font-family="Helvetica,sans-Serif" font-size="10.00" fill="#000000">/mastersampler.h</text>
</a>
</g>
</g>
<!-- Node5&#45;&gt;Node9 -->
<g id="edge6" class="edge">
<title>Node5&#45;&gt;Node9</title>
<path fill="none" stroke="#191970" d="M461.4237,-126.5442C436.1205,-116.143 406.0874,-103.238 384.7645,-93.5765"/>
<polygon fill="#191970" stroke="#191970" points="460.2806,-129.8579 470.8618,-130.396 462.9257,-123.3768 460.2806,-129.8579"/>
</g>
<!-- Node11 -->
<g id="node9" class="node">
<title>Node11</title>
<g id="a_node9"><a xlink:href="mastersamplertopcxyz_8h.html" target="_top" xlink:title=" ">
<polygon fill="#ffffff" stroke="#000000" points="442.3276,-65.5 442.3276,-93.5 576.7163,-93.5 576.7163,-65.5 442.3276,-65.5"/>
<text text-anchor="start" x="450.3276" y="-81.5" font-family="Helvetica,sans-Serif" font-size="10.00" fill="#000000">GluonicLQCD/observables</text>
<text text-anchor="middle" x="509.522" y="-71.5" font-family="Helvetica,sans-Serif" font-size="10.00" fill="#000000">/mastersamplertopcxyz.h</text>
</a>
</g>
</g>
<!-- Node5&#45;&gt;Node11 -->
<g id="edge9" class="edge">
<title>Node5&#45;&gt;Node11</title>
<path fill="none" stroke="#191970" d="M502.9766,-120.4029C502.5275,-111.3703 502.8176,-101.4078 503.8472,-93.5765"/>
<polygon fill="#191970" stroke="#191970" points="499.4923,-120.7359 503.8436,-130.396 506.4661,-120.1309 499.4923,-120.7359"/>
</g>
<!-- Node13 -->
<g id="node11" class="node">
<title>Node13</title>
<g id="a_node11"><a xlink:href="latticeactionchargedensity_8h.html" target="_top" xlink:title=" ">
<polygon fill="#ffffff" stroke="#000000" points="594.7974,-65.5 594.7974,-93.5 736.2466,-93.5 736.2466,-65.5 594.7974,-65.5"/>
<text text-anchor="start" x="602.7974" y="-81.5" font-family="Helvetica,sans-Serif" font-size="10.00" fill="#000000">GluonicLQCD/observables</text>
<text text-anchor="middle" x="665.522" y="-71.5" font-family="Helvetica,sans-Serif" font-size="10.00" fill="#000000">/latticeactionchargedensity.h</text>
</a>
</g>
</g>
<!-- Node5&#45;&gt;Node13 -->
<g id="edge12" class="edge">
<title>Node5&#45;&gt;Node13</title>
<path fill="none" stroke="#191970" d="M547.1422,-126.2687C571.0368,-115.9159 601.8214,-103.1528 626.0636,-93.5765"/>
<polygon fill="#191970" stroke="#191970" points="545.4562,-123.1857 537.6932,-130.396 548.2582,-129.6005 545.4562,-123.1857"/>
</g>
<!-- Node15 -->
<g id="node13" class="node">
<title>Node15</title>
<g id="a_node13"><a xlink:href="supersampler_8h.html" target="_top" xlink:title=" ">
<polygon fill="#ffffff" stroke="#000000" points="754.3276,-65.5 754.3276,-93.5 888.7163,-93.5 888.7163,-65.5 754.3276,-65.5"/>
<text text-anchor="start" x="762.3276" y="-81.5" font-family="Helvetica,sans-Serif" font-size="10.00" fill="#000000">GluonicLQCD/observables</text>
<text text-anchor="middle" x="821.522" y="-71.5" font-family="Helvetica,sans-Serif" font-size="10.00" fill="#000000">/supersampler.h</text>
</a>
</g>
</g>
<!-- Node5&#45;&gt;Node15 -->
<g id="edge15" class="edge">
<title>Node5&#45;&gt;Node15</title>
<path fill="none" stroke="#191970" d="M581.0005,-128.3749C633.0536,-117.2749 703.029,-102.7252 754.1152,-92.3949"/>
<polygon fill="#191970" stroke="#191970" points="580.2169,-124.9632 571.1693,-130.476 581.68,-131.8086 580.2169,-124.9632"/>
</g>
<!-- Node7 -->
<g id="node5" class="node">
<title>Node7</title>
<g id="a_node5"><a xlink:href="main_8cpp.html" target="_top" xlink:title=" ">
<polygon fill="#ffffff" stroke="#000000" points="0,-5.5 0,-23.5 121.0439,-23.5 121.0439,-5.5 0,-5.5"/>
<text text-anchor="middle" x="60.522" y="-11.5" font-family="Helvetica,sans-Serif" font-size="10.00" fill="#000000">GluonicLQCD/main.cpp</text>
</a>
</g>
</g>
<!-- Node6&#45;&gt;Node7 -->
<g id="edge4" class="edge">
<title>Node6&#45;&gt;Node7</title>
<path fill="none" stroke="#191970" d="M175.1782,-66.2545C147.0866,-53.5743 105.4471,-34.7787 80.8387,-23.6708"/>
<polygon fill="#191970" stroke="#191970" points="173.9449,-69.5379 184.4994,-70.462 176.8249,-63.1577 173.9449,-69.5379"/>
</g>
<!-- Node8 -->
<g id="node6" class="node">
<title>Node8</title>
<g id="a_node6"><a xlink:href="system_8cpp.html" target="_top" xlink:title=" ">
<polygon fill="#ffffff" stroke="#000000" points="139.0024,-5.5 139.0024,-23.5 270.0415,-23.5 270.0415,-5.5 139.0024,-5.5"/>
<text text-anchor="middle" x="204.522" y="-11.5" font-family="Helvetica,sans-Serif" font-size="10.00" fill="#000000">GluonicLQCD/system.cpp</text>
</a>
</g>
</g>
<!-- Node6&#45;&gt;Node8 -->
<g id="edge5" class="edge">
<title>Node6&#45;&gt;Node8</title>
<path fill="none" stroke="#191970" d="M204.522,-60.1265C204.522,-48.1522 204.522,-33.3205 204.522,-23.8821"/>
<polygon fill="#191970" stroke="#191970" points="201.0221,-60.462 204.522,-70.462 208.0221,-60.4621 201.0221,-60.462"/>
</g>
<!-- Node9&#45;&gt;Node5 -->
<g id="edge7" class="edge">
<title>Node9&#45;&gt;Node5</title>
<path fill="none" stroke="#191970" d="M405.5482,-97.4262C430.8424,-107.8226 460.8793,-120.7284 482.2187,-130.396"/>
<polygon fill="#191970" stroke="#191970" points="406.6953,-94.1142 396.1141,-93.5765 404.0506,-100.5953 406.6953,-94.1142"/>
</g>
<!-- Node10 -->
<g id="node8" class="node">
<title>Node10</title>
<g id="a_node8"><a xlink:href="mastersampler_8cpp.html" target="_top" xlink:title=" ">
<polygon fill="#ffffff" stroke="#000000" points="288.3276,-.5 288.3276,-28.5 422.7163,-28.5 422.7163,-.5 288.3276,-.5"/>
<text text-anchor="start" x="296.3276" y="-16.5" font-family="Helvetica,sans-Serif" font-size="10.00" fill="#000000">GluonicLQCD/observables</text>
<text text-anchor="middle" x="355.522" y="-6.5" font-family="Helvetica,sans-Serif" font-size="10.00" fill="#000000">/mastersampler.cpp</text>
</a>
</g>
</g>
<!-- Node9&#45;&gt;Node10 -->
<g id="edge8" class="edge">
<title>Node9&#45;&gt;Node10</title>
<path fill="none" stroke="#191970" d="M356.7715,-55.1081C356.4959,-46.1539 356.1934,-36.3227 355.9551,-28.5765"/>
<polygon fill="#191970" stroke="#191970" points="353.282,-55.5084 357.088,-65.396 360.2787,-55.293 353.282,-55.5084"/>
</g>
<!-- Node11&#45;&gt;Node5 -->
<g id="edge10" class="edge">
<title>Node11&#45;&gt;Node5</title>
<path fill="none" stroke="#191970" d="M516.0657,-103.5653C516.5166,-112.5958 516.2282,-122.5597 515.2004,-130.396"/>
<polygon fill="#191970" stroke="#191970" points="519.5503,-103.2355 515.1968,-93.5765 512.5767,-103.8422 519.5503,-103.2355"/>
</g>
<!-- Node12 -->
<g id="node10" class="node">
<title>Node12</title>
<g id="a_node10"><a xlink:href="mastersamplertopcxyz_8cpp.html" target="_top" xlink:title=" ">
<polygon fill="#ffffff" stroke="#000000" points="440.6675,-.5 440.6675,-28.5 578.3765,-28.5 578.3765,-.5 440.6675,-.5"/>
<text text-anchor="start" x="448.6675" y="-16.5" font-family="Helvetica,sans-Serif" font-size="10.00" fill="#000000">GluonicLQCD/observables</text>
<text text-anchor="middle" x="509.522" y="-6.5" font-family="Helvetica,sans-Serif" font-size="10.00" fill="#000000">/mastersamplertopcxyz.cpp</text>
</a>
</g>
</g>
<!-- Node11&#45;&gt;Node12 -->
<g id="edge11" class="edge">
<title>Node11&#45;&gt;Node12</title>
<path fill="none" stroke="#191970" d="M509.522,-55.1081C509.522,-46.1539 509.522,-36.3227 509.522,-28.5765"/>
<polygon fill="#191970" stroke="#191970" points="506.0221,-55.3959 509.522,-65.396 513.0221,-55.396 506.0221,-55.3959"/>
</g>
<!-- Node13&#45;&gt;Node5 -->
<g id="edge13" class="edge">
<title>Node13&#45;&gt;Node5</title>
<path fill="none" stroke="#191970" d="M627.9704,-97.7016C604.089,-108.0498 573.3047,-120.8135 549.0501,-130.396"/>
<polygon fill="#191970" stroke="#191970" points="629.6505,-100.7871 637.4132,-93.5765 626.8483,-94.3724 629.6505,-100.7871"/>
</g>
<!-- Node14 -->
<g id="node12" class="node">
<title>Node14</title>
<g id="a_node12"><a xlink:href="latticeactionchargedensity_8cpp.html" target="_top" xlink:title=" ">
<polygon fill="#ffffff" stroke="#000000" points="596.5166,-.5 596.5166,-28.5 748.5273,-28.5 748.5273,-.5 596.5166,-.5"/>
<text text-anchor="start" x="604.5166" y="-16.5" font-family="Helvetica,sans-Serif" font-size="10.00" fill="#000000">GluonicLQCD/observables</text>
<text text-anchor="middle" x="672.522" y="-6.5" font-family="Helvetica,sans-Serif" font-size="10.00" fill="#000000">/latticeactionchargedensity.cpp</text>
</a>
</g>
</g>
<!-- Node13&#45;&gt;Node14 -->
<g id="edge14" class="edge">
<title>Node13&#45;&gt;Node14</title>
<path fill="none" stroke="#191970" d="M668.117,-55.4029C669.0898,-46.3703 670.1627,-36.4078 671.006,-28.5765"/>
<polygon fill="#191970" stroke="#191970" points="664.6318,-55.0787 667.0409,-65.396 671.5916,-55.8282 664.6318,-55.0787"/>
</g>
<!-- Node15&#45;&gt;Node5 -->
<g id="edge16" class="edge">
<title>Node15&#45;&gt;Node5</title>
<path fill="none" stroke="#191970" d="M750.0647,-95.6206C698.051,-106.7123 628.1336,-121.2502 577.0512,-131.5804"/>
<polygon fill="#191970" stroke="#191970" points="750.8409,-99.0338 759.8885,-93.521 749.3778,-92.1884 750.8409,-99.0338"/>
</g>
<!-- Node16 -->
<g id="node14" class="node">
<title>Node16</title>
<g id="a_node14"><a xlink:href="supersampler_8cpp.html" target="_top" xlink:title=" ">
<polygon fill="#ffffff" stroke="#000000" points="766.3276,-.5 766.3276,-28.5 900.7163,-28.5 900.7163,-.5 766.3276,-.5"/>
<text text-anchor="start" x="774.3276" y="-16.5" font-family="Helvetica,sans-Serif" font-size="10.00" fill="#000000">GluonicLQCD/observables</text>
<text text-anchor="middle" x="833.522" y="-6.5" font-family="Helvetica,sans-Serif" font-size="10.00" fill="#000000">/supersampler.cpp</text>
</a>
</g>
</g>
<!-- Node15&#45;&gt;Node16 -->
<g id="edge17" class="edge">
<title>Node15&#45;&gt;Node16</title>
<path fill="none" stroke="#191970" d="M825.9707,-55.4029C827.6382,-46.3703 829.4775,-36.4078 830.9232,-28.5765"/>
<polygon fill="#191970" stroke="#191970" points="822.4995,-54.9267 824.1258,-65.396 829.3832,-56.1976 822.4995,-54.9267"/>
</g>
<!-- Node17&#45;&gt;Node5 -->
<g id="edge19" class="edge">
<title>Node17&#45;&gt;Node5</title>
<path fill="none" stroke="#191970" d="M469.3457,-188.0243C478.2852,-178.3398 488.5922,-167.1739 496.5283,-158.5765"/>
<polygon fill="#191970" stroke="#191970" points="466.7521,-185.6739 462.5411,-195.396 471.8957,-190.4219 466.7521,-185.6739"/>
</g>
<!-- Node18 -->
<g id="node16" class="node">
<title>Node18</title>
<g id="a_node16"><a xlink:href="energydensity_8cpp.html" target="_top" xlink:title=" ">
<polygon fill="#ffffff" stroke="#000000" points="290.3276,-130.5 290.3276,-158.5 424.7163,-158.5 424.7163,-130.5 290.3276,-130.5"/>
<text text-anchor="start" x="298.3276" y="-146.5" font-family="Helvetica,sans-Serif" font-size="10.00" fill="#000000">GluonicLQCD/observables</text>
<text text-anchor="middle" x="357.522" y="-136.5" font-family="Helvetica,sans-Serif" font-size="10.00" fill="#000000">/energydensity.cpp</text>
</a>
</g>
</g>
<!-- Node17&#45;&gt;Node18 -->
<g id="edge20" class="edge">
<title>Node17&#45;&gt;Node18</title>
<path fill="none" stroke="#191970" d="M421.1451,-189.4511C406.992,-179.4517 390.2167,-167.5995 377.4456,-158.5765"/>
<polygon fill="#191970" stroke="#191970" points="419.3725,-192.4841 429.5593,-195.396 423.4117,-186.7671 419.3725,-192.4841"/>
</g>
<!-- Node19&#45;&gt;Node5 -->
<g id="edge22" class="edge">
<title>Node19&#45;&gt;Node5</title>
<path fill="none" stroke="#191970" d="M602.2286,-190.8533C581.6742,-180.5761 556.5723,-168.0252 537.675,-158.5765"/>
<polygon fill="#191970" stroke="#191970" points="600.8044,-194.0543 611.3139,-195.396 603.9349,-187.7933 600.8044,-194.0543"/>
</g>
<!-- Node20 -->
<g id="node18" class="node">
<title>Node20</title>
<g id="a_node18"><a xlink:href="plaquette_8cpp.html" target="_top" xlink:title=" ">
<polygon fill="#ffffff" stroke="#000000" points="772.3276,-130.5 772.3276,-158.5 906.7163,-158.5 906.7163,-130.5 772.3276,-130.5"/>
<text text-anchor="start" x="780.3276" y="-146.5" font-family="Helvetica,sans-Serif" font-size="10.00" fill="#000000">GluonicLQCD/observables</text>
<text text-anchor="middle" x="839.522" y="-136.5" font-family="Helvetica,sans-Serif" font-size="10.00" fill="#000000">/plaquette.cpp</text>
</a>
</g>
</g>
<!-- Node19&#45;&gt;Node20 -->
<g id="edge23" class="edge">
<title>Node19&#45;&gt;Node20</title>
<path fill="none" stroke="#191970" d="M692.6672,-192.2278C725.0201,-181.7131 765.8273,-168.4508 796.2096,-158.5765"/>
<polygon fill="#191970" stroke="#191970" points="691.3475,-188.9764 682.919,-195.396 693.5112,-195.6337 691.3475,-188.9764"/>
</g>
<!-- Node21 -->
<g id="node19" class="node">
<title>Node21</title>
<g id="a_node19"><a xlink:href="testsuite_8cpp.html" target="_top" xlink:title=" ">
<polygon fill="#ffffff" stroke="#000000" points="594.2686,-135.5 594.2686,-153.5 754.7754,-153.5 754.7754,-135.5 594.2686,-135.5"/>
<text text-anchor="middle" x="674.522" y="-141.5" font-family="Helvetica,sans-Serif" font-size="10.00" fill="#000000">GluonicLQCD/tests/testsuite.cpp</text>
</a>
</g>
</g>
<!-- Node19&#45;&gt;Node21 -->
<g id="edge24" class="edge">
<title>Node19&#45;&gt;Node21</title>
<path fill="none" stroke="#191970" d="M651.9606,-186.3996C658.0667,-175.0598 665.0723,-162.0495 669.6358,-153.5743"/>
<polygon fill="#191970" stroke="#191970" points="648.7758,-184.9319 647.1165,-195.396 654.9392,-188.2506 648.7758,-184.9319"/>
</g>
<!-- Node22&#45;&gt;Node5 -->
<g id="edge26" class="edge">
<title>Node22&#45;&gt;Node5</title>
<path fill="none" stroke="#191970" d="M720.7425,-193.1856C674.5584,-182.5403 614.8776,-168.7841 570.7416,-158.6109"/>
<polygon fill="#191970" stroke="#191970" points="720.1487,-196.6404 730.6794,-195.476 721.721,-189.8193 720.1487,-196.6404"/>
</g>
<!-- Node23 -->
<g id="node21" class="node">
<title>Node23</title>
<g id="a_node21"><a xlink:href="topologicalcharge_8cpp.html" target="_top" xlink:title=" ">
<polygon fill="#ffffff" stroke="#000000" points="924.3276,-130.5 924.3276,-158.5 1058.7163,-158.5 1058.7163,-130.5 924.3276,-130.5"/>
<text text-anchor="start" x="932.3276" y="-146.5" font-family="Helvetica,sans-Serif" font-size="10.00" fill="#000000">GluonicLQCD/observables</text>
<text text-anchor="middle" x="991.522" y="-136.5" font-family="Helvetica,sans-Serif" font-size="10.00" fill="#000000">/topologicalcharge.cpp</text>
</a>
</g>
</g>
<!-- Node22&#45;&gt;Node23 -->
<g id="edge27" class="edge">
<title>Node22&#45;&gt;Node23</title>
<path fill="none" stroke="#191970" d="M844.6672,-192.2278C877.0201,-181.7131 917.8273,-168.4508 948.2096,-158.5765"/>
<polygon fill="#191970" stroke="#191970" points="843.3475,-188.9764 834.919,-195.396 845.5112,-195.6337 843.3475,-188.9764"/>
</g>
</g>
</svg>
