<?xml version="1.0" encoding="UTF-8" standalone="no"?>
<!DOCTYPE svg PUBLIC "-//W3C//DTD SVG 1.1//EN"
 "http://www.w3.org/Graphics/SVG/1.1/DTD/svg11.dtd">
<!-- Generated by graphviz version 2.40.1 (20161225.0304)
 -->
<!-- Title: GLAC/observables/tools/observablestorer.h Pages: 1 -->
<svg width="132pt" height="92pt"
 viewBox="0.00 0.00 131.83 92.00" xmlns="http://www.w3.org/2000/svg" xmlns:xlink="http://www.w3.org/1999/xlink">
<g id="graph0" class="graph" transform="scale(1 1) rotate(0) translate(4 88)">
<title>GLAC/observables/tools/observablestorer.h</title>
<polygon fill="#ffffff" stroke="transparent" points="-4,4 -4,-88 127.832,-88 127.832,4 -4,4"/>
<!-- Node0 -->
<g id="node1" class="node">
<title>Node0</title>
<g id="a_node1"><a xlink:title=" ">
<polygon fill="#bfbfbf" stroke="#000000" points="0,-55.5 0,-83.5 123.832,-83.5 123.832,-55.5 0,-55.5"/>
<text text-anchor="start" x="8" y="-71.5" font-family="Helvetica,sans-Serif" font-size="10.00" fill="#000000">GLAC/observables/tools</text>
<text text-anchor="middle" x="61.916" y="-61.5" font-family="Helvetica,sans-Serif" font-size="10.00" fill="#000000">/observablestorer.h</text>
</a>
</g>
</g>
<!-- Node1 -->
<g id="node2" class="node">
<title>Node1</title>
<g id="a_node2"><a xlink:title=" ">
<polygon fill="#ffffff" stroke="#bfbfbf" points="11.6895,-.5 11.6895,-18.5 52.1426,-18.5 52.1426,-.5 11.6895,-.5"/>
<text text-anchor="middle" x="31.916" y="-6.5" font-family="Helvetica,sans-Serif" font-size="10.00" fill="#000000">string</text>
</a>
</g>
</g>
<!-- Node0&#45;&gt;Node1 -->
<g id="edge1" class="edge">
<title>Node0&#45;&gt;Node1</title>
<path fill="none" stroke="#191970" d="M54.8064,-55.2808C50.6772,-47.0224 45.4328,-36.5335 41.0058,-27.6796"/>
<polygon fill="#191970" stroke="#191970" points="44.0608,-25.9632 36.4581,-18.5842 37.7998,-29.0937 44.0608,-25.9632"/>
</g>
<!-- Node2 -->
<g id="node3" class="node">
<title>Node2</title>
<g id="a_node3"><a xlink:title=" ">
<polygon fill="#ffffff" stroke="#bfbfbf" points="70.3003,-.5 70.3003,-18.5 113.5317,-18.5 113.5317,-.5 70.3003,-.5"/>
<text text-anchor="middle" x="91.916" y="-6.5" font-family="Helvetica,sans-Serif" font-size="10.00" fill="#000000">vector</text>
</a>
</g>
</g>
<!-- Node0&#45;&gt;Node2 -->
<g id="edge2" class="edge">
<title>Node0&#45;&gt;Node2</title>
<path fill="none" stroke="#191970" d="M69.0256,-55.2808C73.1548,-47.0224 78.3993,-36.5335 82.8262,-27.6796"/>
<polygon fill="#191970" stroke="#191970" points="86.0322,-29.0937 87.3739,-18.5842 79.7712,-25.9632 86.0322,-29.0937"/>
</g>
</g>
</svg>
