<?xml version="1.0" encoding="UTF-8" standalone="no"?>
<!DOCTYPE svg PUBLIC "-//W3C//DTD SVG 1.1//EN"
 "http://www.w3.org/Graphics/SVG/1.1/DTD/svg11.dtd">
<!-- Generated by graphviz version 2.40.1 (20161225.0304)
 -->
<!-- Title: GLAC/parallelization/parallelparameters.cpp Pages: 1 -->
<svg width="128pt" height="147pt"
 viewBox="0.00 0.00 128.50 147.00" xmlns="http://www.w3.org/2000/svg" xmlns:xlink="http://www.w3.org/1999/xlink">
<g id="graph0" class="graph" transform="scale(1 1) rotate(0) translate(4 143)">
<title>GLAC/parallelization/parallelparameters.cpp</title>
<polygon fill="#ffffff" stroke="transparent" points="-4,4 -4,-143 124.4971,-143 124.4971,4 -4,4"/>
<!-- Node0 -->
<g id="node1" class="node">
<title>Node0</title>
<g id="a_node1"><a xlink:title=" ">
<polygon fill="#bfbfbf" stroke="#000000" points="0,-110.5 0,-138.5 120.4971,-138.5 120.4971,-110.5 0,-110.5"/>
<text text-anchor="start" x="8" y="-126.5" font-family="Helvetica,sans-Serif" font-size="10.00" fill="#000000">GLAC/parallelization</text>
<text text-anchor="middle" x="60.2485" y="-116.5" font-family="Helvetica,sans-Serif" font-size="10.00" fill="#000000">/parallelparameters.cpp</text>
</a>
</g>
</g>
<!-- Node1 -->
<g id="node2" class="node">
<title>Node1</title>
<g id="a_node2"><a xlink:href="parallelparameters_8h.html" target="_top" xlink:title=" ">
<polygon fill="#ffffff" stroke="#000000" points="6.6699,-55.5 6.6699,-73.5 113.8271,-73.5 113.8271,-55.5 6.6699,-55.5"/>
<text text-anchor="middle" x="60.2485" y="-61.5" font-family="Helvetica,sans-Serif" font-size="10.00" fill="#000000">parallelparameters.h</text>
</a>
</g>
</g>
<!-- Node0&#45;&gt;Node1 -->
<g id="edge1" class="edge">
<title>Node0&#45;&gt;Node1</title>
<path fill="none" stroke="#191970" d="M60.2485,-110.2808C60.2485,-102.3776 60.2485,-92.4316 60.2485,-83.8308"/>
<polygon fill="#191970" stroke="#191970" points="63.7486,-83.5842 60.2485,-73.5842 56.7486,-83.5842 63.7486,-83.5842"/>
</g>
<!-- Node2 -->
<g id="node3" class="node">
<title>Node2</title>
<g id="a_node3"><a xlink:title=" ">
<polygon fill="#ffffff" stroke="#bfbfbf" points="40.022,-.5 40.022,-18.5 80.4751,-18.5 80.4751,-.5 40.022,-.5"/>
<text text-anchor="middle" x="60.2485" y="-6.5" font-family="Helvetica,sans-Serif" font-size="10.00" fill="#000000">mpi.h</text>
</a>
</g>
</g>
<!-- Node1&#45;&gt;Node2 -->
<g id="edge2" class="edge">
<title>Node1&#45;&gt;Node2</title>
<path fill="none" stroke="#191970" d="M60.2485,-55.4179C60.2485,-48.2164 60.2485,-37.8962 60.2485,-28.8632"/>
<polygon fill="#191970" stroke="#191970" points="63.7486,-28.7794 60.2485,-18.7795 56.7486,-28.7795 63.7486,-28.7794"/>
</g>
</g>
</svg>
