<?xml version="1.0" encoding="UTF-8" standalone="no"?>
<!DOCTYPE svg PUBLIC "-//W3C//DTD SVG 1.1//EN"
 "http://www.w3.org/Graphics/SVG/1.1/DTD/svg11.dtd">
<!-- Generated by graphviz version 2.40.1 (20161225.0304)
 -->
<!-- Title: GLAC/config/parameters.h Pages: 1 -->
<svg width="3603pt" height="147pt"
 viewBox="0.00 0.00 3603.05 147.00" xmlns="http://www.w3.org/2000/svg" xmlns:xlink="http://www.w3.org/1999/xlink">
<g id="graph0" class="graph" transform="scale(1 1) rotate(0) translate(4 143)">
<title>GLAC/config/parameters.h</title>
<polygon fill="#ffffff" stroke="transparent" points="-4,4 -4,-143 3599.0537,-143 3599.0537,4 -4,4"/>
<!-- Node3 -->
<g id="node1" class="node">
<title>Node3</title>
<g id="a_node1"><a xlink:title=" ">
<polygon fill="#bfbfbf" stroke="#000000" points="1391.835,-120.5 1391.835,-138.5 1526.2236,-138.5 1526.2236,-120.5 1391.835,-120.5"/>
<text text-anchor="middle" x="1459.0293" y="-126.5" font-family="Helvetica,sans-Serif" font-size="10.00" fill="#000000">GLAC/config/parameters.h</text>
</a>
</g>
</g>
<!-- Node4 -->
<g id="node2" class="node">
<title>Node4</title>
<g id="a_node2"><a xlink:href="action_8cpp.html" target="_top" xlink:title=" ">
<polygon fill="#ffffff" stroke="#000000" points="0,-60.5 0,-78.5 126.0586,-78.5 126.0586,-60.5 0,-60.5"/>
<text text-anchor="middle" x="63.0293" y="-66.5" font-family="Helvetica,sans-Serif" font-size="10.00" fill="#000000">GLAC/actions/action.cpp</text>
</a>
</g>
</g>
<!-- Node3&#45;&gt;Node4 -->
<g id="edge1" class="edge">
<title>Node3&#45;&gt;Node4</title>
<path fill="none" stroke="#191970" d="M1381.1839,-128.5058C1135.5379,-125.1034 378.6697,-112.5234 135.0293,-84 124.1379,-82.7249 112.4386,-80.6701 101.7034,-78.5034"/>
<polygon fill="#191970" stroke="#191970" points="1381.4024,-132.009 1391.4495,-128.6467 1381.4985,-125.0097 1381.4024,-132.009"/>
</g>
<!-- Node5 -->
<g id="node3" class="node">
<title>Node5</title>
<g id="a_node3"><a xlink:href="luscheraction_8cpp.html" target="_top" xlink:title=" ">
<polygon fill="#ffffff" stroke="#000000" points="143.8818,-60.5 143.8818,-78.5 302.1768,-78.5 302.1768,-60.5 143.8818,-60.5"/>
<text text-anchor="middle" x="223.0293" y="-66.5" font-family="Helvetica,sans-Serif" font-size="10.00" fill="#000000">GLAC/actions/luscheraction.cpp</text>
</a>
</g>
</g>
<!-- Node3&#45;&gt;Node5 -->
<g id="edge2" class="edge">
<title>Node3&#45;&gt;Node5</title>
<path fill="none" stroke="#191970" d="M1381.4642,-127.6786C1158.6613,-122.2475 519.4281,-105.2169 311.0293,-84 298.0898,-82.6826 284.1672,-80.6686 271.2999,-78.557"/>
<polygon fill="#191970" stroke="#191970" points="1381.6737,-131.1846 1391.7557,-127.9284 1381.8436,-124.1867 1381.6737,-131.1846"/>
</g>
<!-- Node6 -->
<g id="node4" class="node">
<title>Node6</title>
<g id="a_node4"><a xlink:href="wilsongaugeaction_8cpp.html" target="_top" xlink:title=" ">
<polygon fill="#ffffff" stroke="#000000" points="320.2021,-60.5 320.2021,-78.5 501.8564,-78.5 501.8564,-60.5 320.2021,-60.5"/>
<text text-anchor="middle" x="411.0293" y="-66.5" font-family="Helvetica,sans-Serif" font-size="10.00" fill="#000000">GLAC/actions/wilsongaugeaction.cpp</text>
</a>
</g>
</g>
<!-- Node3&#45;&gt;Node6 -->
<g id="edge3" class="edge">
<title>Node3&#45;&gt;Node6</title>
<path fill="none" stroke="#191970" d="M1381.2758,-128.2942C1219.1346,-125.2241 833.2144,-115.0179 511.0293,-84 496.5359,-82.6047 480.9288,-80.5899 466.4536,-78.5041"/>
<polygon fill="#191970" stroke="#191970" points="1381.5658,-131.8001 1391.6291,-128.4863 1381.6957,-124.8013 1381.5658,-131.8001"/>
</g>
<!-- Node7 -->
<g id="node5" class="node">
<title>Node7</title>
<g id="a_node5"><a xlink:href="configloader_8cpp.html" target="_top" xlink:title=" ">
<polygon fill="#ffffff" stroke="#000000" points="519.8745,-60.5 519.8745,-78.5 668.1841,-78.5 668.1841,-60.5 519.8745,-60.5"/>
<text text-anchor="middle" x="594.0293" y="-66.5" font-family="Helvetica,sans-Serif" font-size="10.00" fill="#000000">GLAC/config/configloader.cpp</text>
</a>
</g>
</g>
<!-- Node3&#45;&gt;Node7 -->
<g id="edge4" class="edge">
<title>Node3&#45;&gt;Node7</title>
<path fill="none" stroke="#191970" d="M1381.5935,-127.6521C1241.5878,-123.7137 937.1871,-112.4132 682.0293,-84 669.4106,-82.5948 655.8469,-80.6022 643.2384,-78.5425"/>
<polygon fill="#191970" stroke="#191970" points="1381.6992,-131.1563 1391.7922,-127.9341 1381.8928,-124.1589 1381.6992,-131.1563"/>
</g>
<!-- Node8 -->
<g id="node6" class="node">
<title>Node8</title>
<g id="a_node6"><a xlink:href="parameters_8cpp.html" target="_top" xlink:title=" ">
<polygon fill="#ffffff" stroke="#000000" points="555.5542,-.5 555.5542,-18.5 700.5044,-18.5 700.5044,-.5 555.5542,-.5"/>
<text text-anchor="middle" x="628.0293" y="-6.5" font-family="Helvetica,sans-Serif" font-size="10.00" fill="#000000">GLAC/config/parameters.cpp</text>
</a>
</g>
</g>
<!-- Node3&#45;&gt;Node8 -->
<g id="edge5" class="edge">
<title>Node3&#45;&gt;Node8</title>
<path fill="none" stroke="#191970" d="M1381.6488,-127.5503C1203.6213,-122.6672 775.5923,-108.5144 715.0293,-84 705.9052,-80.3068 658.8511,-37.7602 637.998,-18.6709"/>
<polygon fill="#191970" stroke="#191970" points="1381.6382,-131.0512 1391.7296,-127.8242 1381.8284,-124.0538 1381.6382,-131.0512"/>
</g>
<!-- Node9 -->
<g id="node7" class="node">
<title>Node9</title>
<g id="a_node7"><a xlink:href="sysprint_8h.html" target="_top" xlink:title=" ">
<polygon fill="#ffffff" stroke="#000000" points="723.8965,-60.5 723.8965,-78.5 842.1621,-78.5 842.1621,-60.5 723.8965,-60.5"/>
<text text-anchor="middle" x="783.0293" y="-66.5" font-family="Helvetica,sans-Serif" font-size="10.00" fill="#000000">GLAC/config/sysprint.h</text>
</a>
</g>
</g>
<!-- Node3&#45;&gt;Node9 -->
<g id="edge6" class="edge">
<title>Node3&#45;&gt;Node9</title>
<path fill="none" stroke="#191970" d="M1381.7103,-126.655C1266.6739,-121.7472 1043.8383,-109.6424 856.0293,-84 845.5313,-82.5667 834.2688,-80.5639 823.8086,-78.5035"/>
<polygon fill="#191970" stroke="#191970" points="1381.6895,-130.1571 1391.8276,-127.0799 1381.9833,-123.1633 1381.6895,-130.1571"/>
</g>
<!-- Node11 -->
<g id="node9" class="node">
<title>Node11</title>
<g id="a_node9"><a xlink:href="system_8cpp.html" target="_top" xlink:title=" ">
<polygon fill="#ffffff" stroke="#000000" points="865.7388,-.5 865.7388,-18.5 962.3198,-18.5 962.3198,-.5 865.7388,-.5"/>
<text text-anchor="middle" x="914.0293" y="-6.5" font-family="Helvetica,sans-Serif" font-size="10.00" fill="#000000">GLAC/system.cpp</text>
</a>
</g>
</g>
<!-- Node3&#45;&gt;Node11 -->
<g id="edge24" class="edge">
<title>Node3&#45;&gt;Node11</title>
<path fill="none" stroke="#191970" d="M1381.6319,-126.078C1229.6598,-118.9827 905.4979,-101.8356 889.0293,-84 871.8147,-65.3565 892.8124,-34.4763 905.5826,-18.9826"/>
<polygon fill="#191970" stroke="#191970" points="1381.6775,-129.5838 1391.8289,-126.5511 1382.0019,-122.5914 1381.6775,-129.5838"/>
</g>
<!-- Node12 -->
<g id="node10" class="node">
<title>Node12</title>
<g id="a_node10"><a xlink:href="flow_8cpp.html" target="_top" xlink:title=" ">
<polygon fill="#ffffff" stroke="#000000" points="897.6748,-60.5 897.6748,-78.5 1000.3838,-78.5 1000.3838,-60.5 897.6748,-60.5"/>
<text text-anchor="middle" x="949.0293" y="-66.5" font-family="Helvetica,sans-Serif" font-size="10.00" fill="#000000">GLAC/flow/flow.cpp</text>
</a>
</g>
</g>
<!-- Node3&#45;&gt;Node12 -->
<g id="edge10" class="edge">
<title>Node3&#45;&gt;Node12</title>
<path fill="none" stroke="#191970" d="M1381.428,-124.8802C1291.3982,-118.7758 1138.7166,-106.1208 1009.0293,-84 1000.4725,-82.5405 991.3238,-80.5529 982.8143,-78.5176"/>
<polygon fill="#191970" stroke="#191970" points="1381.3419,-128.3821 1391.553,-125.5569 1381.8088,-121.3977 1381.3419,-128.3821"/>
</g>
<!-- Node13 -->
<g id="node11" class="node">
<title>Node13</title>
<g id="a_node11"><a xlink:href="fieldio_8cpp.html" target="_top" xlink:title=" ">
<polygon fill="#ffffff" stroke="#000000" points="1018.229,-60.5 1018.229,-78.5 1119.8296,-78.5 1119.8296,-60.5 1018.229,-60.5"/>
<text text-anchor="middle" x="1069.0293" y="-66.5" font-family="Helvetica,sans-Serif" font-size="10.00" fill="#000000">GLAC/io/fieldio.cpp</text>
</a>
</g>
</g>
<!-- Node3&#45;&gt;Node13 -->
<g id="edge11" class="edge">
<title>Node3&#45;&gt;Node13</title>
<path fill="none" stroke="#191970" d="M1381.7088,-121.1853C1314.3889,-113.3956 1214.3316,-100.49 1128.0293,-84 1119.9482,-82.4559 1111.3142,-80.5067 1103.2146,-78.5425"/>
<polygon fill="#191970" stroke="#191970" points="1381.4775,-124.6816 1391.8113,-122.3443 1382.2754,-117.7273 1381.4775,-124.6816"/>
</g>
<!-- Node14 -->
<g id="node12" class="node">
<title>Node14</title>
<g id="a_node12"><a xlink:href="observablesio_8cpp.html" target="_top" xlink:title=" ">
<polygon fill="#ffffff" stroke="#000000" points="1137.4409,-60.5 1137.4409,-78.5 1274.6177,-78.5 1274.6177,-60.5 1137.4409,-60.5"/>
<text text-anchor="middle" x="1206.0293" y="-66.5" font-family="Helvetica,sans-Serif" font-size="10.00" fill="#000000">GLAC/io/observablesio.cpp</text>
</a>
</g>
</g>
<!-- Node3&#45;&gt;Node14 -->
<g id="edge12" class="edge">
<title>Node3&#45;&gt;Node14</title>
<path fill="none" stroke="#191970" d="M1410.9391,-118.0952C1362.4631,-106.5989 1288.6215,-89.0871 1244.076,-78.5229"/>
<polygon fill="#191970" stroke="#191970" points="1410.3409,-121.5504 1420.8787,-120.4524 1411.9563,-114.7393 1410.3409,-121.5504"/>
</g>
<!-- Node15 -->
<g id="node13" class="node">
<title>Node15</title>
<g id="a_node13"><a xlink:href="main_8cpp.html" target="_top" xlink:title=" ">
<polygon fill="#ffffff" stroke="#000000" points="1292.7363,-60.5 1292.7363,-78.5 1379.3223,-78.5 1379.3223,-60.5 1292.7363,-60.5"/>
<text text-anchor="middle" x="1336.0293" y="-66.5" font-family="Helvetica,sans-Serif" font-size="10.00" fill="#000000">GLAC/main.cpp</text>
</a>
</g>
</g>
<!-- Node3&#45;&gt;Node15 -->
<g id="edge13" class="edge">
<title>Node3&#45;&gt;Node15</title>
<path fill="none" stroke="#191970" d="M1431.2455,-115.9469C1407.7766,-104.4987 1374.8269,-88.4257 1354.4831,-78.5019"/>
<polygon fill="#191970" stroke="#191970" points="1429.826,-119.1487 1440.3482,-120.3873 1432.8951,-112.8573 1429.826,-119.1487"/>
</g>
<!-- Node16 -->
<g id="node14" class="node">
<title>Node16</title>
<g id="a_node14"><a xlink:href="su3matrixgenerator_8cpp.html" target="_top" xlink:title=" ">
<polygon fill="#ffffff" stroke="#000000" points="1397.3867,-55.5 1397.3867,-83.5 1520.6719,-83.5 1520.6719,-55.5 1397.3867,-55.5"/>
<text text-anchor="start" x="1405.3867" y="-71.5" font-family="Helvetica,sans-Serif" font-size="10.00" fill="#000000">GLAC/math/matrices</text>
<text text-anchor="middle" x="1459.0293" y="-61.5" font-family="Helvetica,sans-Serif" font-size="10.00" fill="#000000">/su3matrixgenerator.cpp</text>
</a>
</g>
</g>
<!-- Node3&#45;&gt;Node16 -->
<g id="edge14" class="edge">
<title>Node3&#45;&gt;Node16</title>
<path fill="none" stroke="#191970" d="M1459.0293,-110.1865C1459.0293,-101.6283 1459.0293,-91.7354 1459.0293,-83.8477"/>
<polygon fill="#191970" stroke="#191970" points="1455.5294,-110.3873 1459.0293,-120.3873 1462.5294,-110.3873 1455.5294,-110.3873"/>
</g>
<!-- Node17 -->
<g id="node15" class="node">
<title>Node17</title>
<g id="a_node15"><a xlink:href="correlator_8cpp.html" target="_top" xlink:title=" ">
<polygon fill="#ffffff" stroke="#000000" points="1538.3794,-60.5 1538.3794,-78.5 1701.6792,-78.5 1701.6792,-60.5 1538.3794,-60.5"/>
<text text-anchor="middle" x="1620.0293" y="-66.5" font-family="Helvetica,sans-Serif" font-size="10.00" fill="#000000">GLAC/observables/correlator.cpp</text>
</a>
</g>
</g>
<!-- Node3&#45;&gt;Node17 -->
<g id="edge15" class="edge">
<title>Node3&#45;&gt;Node17</title>
<path fill="none" stroke="#191970" d="M1492.9662,-116.8527C1523.8042,-105.3603 1568.5354,-88.6903 1595.8743,-78.5019"/>
<polygon fill="#191970" stroke="#191970" points="1491.6299,-113.6155 1483.4817,-120.3873 1494.0744,-120.1748 1491.6299,-113.6155"/>
</g>
<!-- Node18 -->
<g id="node16" class="node">
<title>Node18</title>
<g id="a_node16"><a xlink:href="latticeactionchargedensity_8cpp.html" target="_top" xlink:title=" ">
<polygon fill="#ffffff" stroke="#000000" points="1720.0586,-60.5 1720.0586,-78.5 1956,-78.5 1956,-60.5 1720.0586,-60.5"/>
<text text-anchor="middle" x="1838.0293" y="-66.5" font-family="Helvetica,sans-Serif" font-size="10.00" fill="#000000">GLAC/observables/latticeactionchargedensity.cpp</text>
</a>
</g>
</g>
<!-- Node3&#45;&gt;Node18 -->
<g id="edge16" class="edge">
<title>Node3&#45;&gt;Node18</title>
<path fill="none" stroke="#191970" d="M1526.1175,-118.8792C1598.5734,-107.4086 1712.7685,-89.3302 1781.0344,-78.5229"/>
<polygon fill="#191970" stroke="#191970" points="1525.5095,-115.4318 1516.1798,-120.4524 1526.6041,-122.3457 1525.5095,-115.4318"/>
</g>
<!-- Node19 -->
<g id="node17" class="node">
<title>Node19</title>
<g id="a_node17"><a xlink:href="mastersampler_8cpp.html" target="_top" xlink:title=" ">
<polygon fill="#ffffff" stroke="#000000" points="1974.4336,-60.5 1974.4336,-78.5 2161.625,-78.5 2161.625,-60.5 1974.4336,-60.5"/>
<text text-anchor="middle" x="2068.0293" y="-66.5" font-family="Helvetica,sans-Serif" font-size="10.00" fill="#000000">GLAC/observables/mastersampler.cpp</text>
</a>
</g>
</g>
<!-- Node3&#45;&gt;Node19 -->
<g id="edge17" class="edge">
<title>Node3&#45;&gt;Node19</title>
<path fill="none" stroke="#191970" d="M1536.5088,-123.7476C1635.8985,-116.0898 1813.5478,-101.4621 1965.0293,-84 1978.8427,-82.4077 1993.6648,-80.4614 2007.6391,-78.5182"/>
<polygon fill="#191970" stroke="#191970" points="1535.9584,-120.2794 1526.2555,-124.5342 1536.494,-127.2589 1535.9584,-120.2794"/>
</g>
<!-- Node20 -->
<g id="node18" class="node">
<title>Node20</title>
<g id="a_node18"><a xlink:href="mastersamplertopcxyz_8cpp.html" target="_top" xlink:title=" ">
<polygon fill="#ffffff" stroke="#000000" points="2179.2095,-60.5 2179.2095,-78.5 2400.8491,-78.5 2400.8491,-60.5 2179.2095,-60.5"/>
<text text-anchor="middle" x="2290.0293" y="-66.5" font-family="Helvetica,sans-Serif" font-size="10.00" fill="#000000">GLAC/observables/mastersamplertopcxyz.cpp</text>
</a>
</g>
</g>
<!-- Node3&#45;&gt;Node20 -->
<g id="edge18" class="edge">
<title>Node3&#45;&gt;Node20</title>
<path fill="none" stroke="#191970" d="M1536.6988,-125.9995C1667.6863,-119.7683 1940.7732,-105.3676 2171.0293,-84 2187.4008,-82.4807 2205.0005,-80.5183 2221.5111,-78.5309"/>
<polygon fill="#191970" stroke="#191970" points="1536.1967,-122.5192 1526.3733,-126.4877 1536.5274,-129.5114 1536.1967,-122.5192"/>
</g>
<!-- Node21 -->
<g id="node19" class="node">
<title>Node21</title>
<g id="a_node19"><a xlink:href="plaquette_8cpp.html" target="_top" xlink:title=" ">
<polygon fill="#ffffff" stroke="#000000" points="2418.6504,-60.5 2418.6504,-78.5 2581.4082,-78.5 2581.4082,-60.5 2418.6504,-60.5"/>
<text text-anchor="middle" x="2500.0293" y="-66.5" font-family="Helvetica,sans-Serif" font-size="10.00" fill="#000000">GLAC/observables/plaquette.cpp</text>
</a>
</g>
</g>
<!-- Node3&#45;&gt;Node21 -->
<g id="edge19" class="edge">
<title>Node3&#45;&gt;Node21</title>
<path fill="none" stroke="#191970" d="M1536.7665,-128.7234C1699.3194,-126.4526 2086.8783,-117.6553 2410.0293,-84 2423.0946,-82.6393 2437.1485,-80.6367 2450.1765,-78.5515"/>
<polygon fill="#191970" stroke="#191970" points="1536.3397,-125.2288 1526.3879,-128.8637 1536.4344,-132.2281 1536.3397,-125.2288"/>
</g>
<!-- Node22 -->
<g id="node20" class="node">
<title>Node22</title>
<g id="a_node20"><a xlink:href="supersampler_8cpp.html" target="_top" xlink:title=" ">
<polygon fill="#ffffff" stroke="#000000" points="2599.207,-60.5 2599.207,-78.5 2780.8516,-78.5 2780.8516,-60.5 2599.207,-60.5"/>
<text text-anchor="middle" x="2690.0293" y="-66.5" font-family="Helvetica,sans-Serif" font-size="10.00" fill="#000000">GLAC/observables/supersampler.cpp</text>
</a>
</g>
</g>
<!-- Node3&#45;&gt;Node22 -->
<g id="edge20" class="edge">
<title>Node3&#45;&gt;Node22</title>
<path fill="none" stroke="#191970" d="M1536.5881,-127.4306C1757.0925,-121.3798 2384.8862,-102.9478 2590.0293,-84 2604.7027,-82.6447 2620.5133,-80.6177 2635.1349,-78.5056"/>
<polygon fill="#191970" stroke="#191970" points="1536.2996,-123.9371 1526.3991,-127.7093 1536.4911,-130.9345 1536.2996,-123.9371"/>
</g>
<!-- Node23 -->
<g id="node21" class="node">
<title>Node23</title>
<g id="a_node21"><a xlink:href="observablestorer_8cpp.html" target="_top" xlink:title=" ">
<polygon fill="#ffffff" stroke="#000000" points="2799.1133,-55.5 2799.1133,-83.5 2922.9453,-83.5 2922.9453,-55.5 2799.1133,-55.5"/>
<text text-anchor="start" x="2807.1133" y="-71.5" font-family="Helvetica,sans-Serif" font-size="10.00" fill="#000000">GLAC/observables/tools</text>
<text text-anchor="middle" x="2861.0293" y="-61.5" font-family="Helvetica,sans-Serif" font-size="10.00" fill="#000000">/observablestorer.cpp</text>
</a>
</g>
</g>
<!-- Node3&#45;&gt;Node23 -->
<g id="edge21" class="edge">
<title>Node3&#45;&gt;Node23</title>
<path fill="none" stroke="#191970" d="M1536.862,-128.55C1783.3645,-125.2717 2544.9975,-113.0023 2790.0293,-84 2792.9028,-83.6599 2795.8331,-83.2638 2798.7868,-82.8247"/>
<polygon fill="#191970" stroke="#191970" points="1536.5149,-125.0542 1526.5619,-128.6857 1536.6072,-132.0536 1536.5149,-125.0542"/>
</g>
<!-- Node24 -->
<g id="node22" class="node">
<title>Node24</title>
<g id="a_node22"><a xlink:href="topologicalcharge_8cpp.html" target="_top" xlink:title=" ">
<polygon fill="#ffffff" stroke="#000000" points="2941.0298,-60.5 2941.0298,-78.5 3141.0288,-78.5 3141.0288,-60.5 2941.0298,-60.5"/>
<text text-anchor="middle" x="3041.0293" y="-66.5" font-family="Helvetica,sans-Serif" font-size="10.00" fill="#000000">GLAC/observables/topologicalcharge.cpp</text>
</a>
</g>
</g>
<!-- Node3&#45;&gt;Node24 -->
<g id="edge22" class="edge">
<title>Node3&#45;&gt;Node24</title>
<path fill="none" stroke="#191970" d="M1536.444,-128.1466C1799.3633,-123.3871 2656.9567,-106.4863 2932.0293,-84 2948.107,-82.6857 2965.4466,-80.6592 2981.4634,-78.534"/>
<polygon fill="#191970" stroke="#191970" points="1536.1629,-124.651 1526.2277,-128.3308 1536.2892,-131.6498 1536.1629,-124.651"/>
</g>
<!-- Node25 -->
<g id="node23" class="node">
<title>Node25</title>
<g id="a_node23"><a xlink:href="communicator_8cpp.html" target="_top" xlink:title=" ">
<polygon fill="#ffffff" stroke="#000000" points="3159.4507,-55.5 3159.4507,-83.5 3266.6079,-83.5 3266.6079,-55.5 3159.4507,-55.5"/>
<text text-anchor="start" x="3167.4507" y="-71.5" font-family="Helvetica,sans-Serif" font-size="10.00" fill="#000000">GLAC/parallelization</text>
<text text-anchor="middle" x="3213.0293" y="-61.5" font-family="Helvetica,sans-Serif" font-size="10.00" fill="#000000">/communicator.cpp</text>
</a>
</g>
</g>
<!-- Node3&#45;&gt;Node25 -->
<g id="edge23" class="edge">
<title>Node3&#45;&gt;Node25</title>
<path fill="none" stroke="#191970" d="M1536.7474,-128.3208C1847.1729,-123.4863 2989.1647,-104.4684 3150.0293,-84 3153.0354,-83.6175 3156.1082,-83.1544 3159.2002,-82.6319"/>
<polygon fill="#191970" stroke="#191970" points="1536.4388,-124.8251 1526.4944,-128.48 1536.5476,-131.8242 1536.4388,-124.8251"/>
</g>
<!-- Node26 -->
<g id="node24" class="node">
<title>Node26</title>
<g id="a_node24"><a xlink:href="performancetests_8cpp.html" target="_top" xlink:title=" ">
<polygon fill="#ffffff" stroke="#000000" points="3284.9976,-60.5 3284.9976,-78.5 3451.061,-78.5 3451.061,-60.5 3284.9976,-60.5"/>
<text text-anchor="middle" x="3368.0293" y="-66.5" font-family="Helvetica,sans-Serif" font-size="10.00" fill="#000000">GLAC/tests/performancetests.cpp</text>
</a>
</g>
</g>
<!-- Node3&#45;&gt;Node26 -->
<g id="edge25" class="edge">
<title>Node3&#45;&gt;Node26</title>
<path fill="none" stroke="#191970" d="M1536.6523,-128.9148C1837.974,-126.4325 2930.5189,-115.4168 3276.0293,-84 3289.8778,-82.7408 3304.8045,-80.6912 3318.522,-78.5244"/>
<polygon fill="#191970" stroke="#191970" points="1536.2408,-125.418 1526.2697,-128.9996 1536.2979,-132.4178 1536.2408,-125.418"/>
</g>
<!-- Node27 -->
<g id="node25" class="node">
<title>Node27</title>
<g id="a_node25"><a xlink:href="testsuite_8cpp.html" target="_top" xlink:title=" ">
<polygon fill="#ffffff" stroke="#000000" points="3469.0049,-60.5 3469.0049,-78.5 3595.0537,-78.5 3595.0537,-60.5 3469.0049,-60.5"/>
<text text-anchor="middle" x="3532.0293" y="-66.5" font-family="Helvetica,sans-Serif" font-size="10.00" fill="#000000">GLAC/tests/testsuite.cpp</text>
</a>
</g>
</g>
<!-- Node3&#45;&gt;Node27 -->
<g id="edge26" class="edge">
<title>Node3&#45;&gt;Node27</title>
<path fill="none" stroke="#191970" d="M1536.5827,-128.5448C1881.3778,-124.1887 3266.7487,-105.4904 3460.0293,-84 3471.0547,-82.7741 3482.9018,-80.7068 3493.7388,-78.5115"/>
<polygon fill="#191970" stroke="#191970" points="1536.4006,-125.0468 1526.4455,-128.6726 1536.4888,-132.0462 1536.4006,-125.0468"/>
</g>
<!-- Node9&#45;&gt;Node8 -->
<g id="edge7" class="edge">
<title>Node9&#45;&gt;Node8</title>
<path fill="none" stroke="#191970" d="M749.9708,-56.7032C720.2958,-45.2161 677.4903,-28.6462 651.2841,-18.5019"/>
<polygon fill="#191970" stroke="#191970" points="748.8989,-60.0413 759.4881,-60.3873 751.4259,-53.5133 748.8989,-60.0413"/>
</g>
<!-- Node10 -->
<g id="node8" class="node">
<title>Node10</title>
<g id="a_node8"><a xlink:href="sysprint_8cpp.html" target="_top" xlink:title=" ">
<polygon fill="#ffffff" stroke="#000000" points="718.6157,-.5 718.6157,-18.5 847.4429,-18.5 847.4429,-.5 718.6157,-.5"/>
<text text-anchor="middle" x="783.0293" y="-6.5" font-family="Helvetica,sans-Serif" font-size="10.00" fill="#000000">GLAC/config/sysprint.cpp</text>
</a>
</g>
</g>
<!-- Node9&#45;&gt;Node10 -->
<g id="edge8" class="edge">
<title>Node9&#45;&gt;Node10</title>
<path fill="none" stroke="#191970" d="M783.0293,-50.3734C783.0293,-39.7812 783.0293,-27.0976 783.0293,-18.6985"/>
<polygon fill="#191970" stroke="#191970" points="779.5294,-50.3873 783.0293,-60.3873 786.5294,-50.3873 779.5294,-50.3873"/>
</g>
<!-- Node9&#45;&gt;Node11 -->
<g id="edge9" class="edge">
<title>Node9&#45;&gt;Node11</title>
<path fill="none" stroke="#191970" d="M812.2875,-56.0993C837.3033,-44.6417 872.612,-28.4698 894.3752,-18.5019"/>
<polygon fill="#191970" stroke="#191970" points="810.5597,-53.041 802.9254,-60.3873 813.4746,-59.4052 810.5597,-53.041"/>
</g>
</g>
</svg>
