<?xml version="1.0" encoding="UTF-8" standalone="no"?>
<!DOCTYPE svg PUBLIC "-//W3C//DTD SVG 1.1//EN"
 "http://www.w3.org/Graphics/SVG/1.1/DTD/svg11.dtd">
<!-- Generated by graphviz version 2.40.1 (20161225.0304)
 -->
<!-- Title: GluonicLQCD/config/parameters.h Pages: 1 -->
<svg width="115pt" height="92pt"
 viewBox="0.00 0.00 115.15 92.00" xmlns="http://www.w3.org/2000/svg" xmlns:xlink="http://www.w3.org/1999/xlink">
<g id="graph0" class="graph" transform="scale(1 1) rotate(0) translate(4 88)">
<title>GluonicLQCD/config/parameters.h</title>
<polygon fill="#ffffff" stroke="transparent" points="-4,4 -4,-88 111.1523,-88 111.1523,4 -4,4"/>
<!-- Node0 -->
<g id="node1" class="node">
<title>Node0</title>
<g id="a_node1"><a xlink:title=" ">
<polygon fill="#bfbfbf" stroke="#000000" points="0,-55.5 0,-83.5 107.1523,-83.5 107.1523,-55.5 0,-55.5"/>
<text text-anchor="start" x="8" y="-71.5" font-family="Helvetica,sans-Serif" font-size="10.00" fill="#000000">GluonicLQCD/config</text>
<text text-anchor="middle" x="53.5762" y="-61.5" font-family="Helvetica,sans-Serif" font-size="10.00" fill="#000000">/parameters.h</text>
</a>
</g>
</g>
<!-- Node1 -->
<g id="node2" class="node">
<title>Node1</title>
<g id="a_node2"><a xlink:title=" ">
<polygon fill="#ffffff" stroke="#bfbfbf" points="3.3496,-.5 3.3496,-18.5 43.8027,-18.5 43.8027,-.5 3.3496,-.5"/>
<text text-anchor="middle" x="23.5762" y="-6.5" font-family="Helvetica,sans-Serif" font-size="10.00" fill="#000000">string</text>
</a>
</g>
</g>
<!-- Node0&#45;&gt;Node1 -->
<g id="edge1" class="edge">
<title>Node0&#45;&gt;Node1</title>
<path fill="none" stroke="#191970" d="M46.4666,-55.2808C42.3374,-47.0224 37.0929,-36.5335 32.666,-27.6796"/>
<polygon fill="#191970" stroke="#191970" points="35.721,-25.9632 28.1183,-18.5842 29.46,-29.0937 35.721,-25.9632"/>
</g>
<!-- Node2 -->
<g id="node3" class="node">
<title>Node2</title>
<g id="a_node3"><a xlink:title=" ">
<polygon fill="#ffffff" stroke="#bfbfbf" points="61.9604,-.5 61.9604,-18.5 105.1919,-18.5 105.1919,-.5 61.9604,-.5"/>
<text text-anchor="middle" x="83.5762" y="-6.5" font-family="Helvetica,sans-Serif" font-size="10.00" fill="#000000">vector</text>
</a>
</g>
</g>
<!-- Node0&#45;&gt;Node2 -->
<g id="edge2" class="edge">
<title>Node0&#45;&gt;Node2</title>
<path fill="none" stroke="#191970" d="M60.6858,-55.2808C64.815,-47.0224 70.0594,-36.5335 74.4863,-27.6796"/>
<polygon fill="#191970" stroke="#191970" points="77.6924,-29.0937 79.0341,-18.5842 71.4314,-25.9632 77.6924,-29.0937"/>
</g>
</g>
</svg>
