<?xml version="1.0" encoding="UTF-8" standalone="no"?>
<!DOCTYPE svg PUBLIC "-//W3C//DTD SVG 1.1//EN"
 "http://www.w3.org/Graphics/SVG/1.1/DTD/svg11.dtd">
<!-- Generated by graphviz version 2.40.1 (20161225.0304)
 -->
<!-- Title: GLAC/parallelization/parallel.h Pages: 1 -->
<svg width="640pt" height="367pt"
 viewBox="0.00 0.00 639.52 367.00" xmlns="http://www.w3.org/2000/svg" xmlns:xlink="http://www.w3.org/1999/xlink">
<g id="graph0" class="graph" transform="scale(1 1) rotate(0) translate(4 363)">
<title>GLAC/parallelization/parallel.h</title>
<polygon fill="#ffffff" stroke="transparent" points="-4,4 -4,-363 635.5232,-363 635.5232,4 -4,4"/>
<!-- Node0 -->
<g id="node1" class="node">
<title>Node0</title>
<g id="a_node1"><a xlink:title=" ">
<polygon fill="#bfbfbf" stroke="#000000" points="75.4031,-330.5 75.4031,-358.5 182.5603,-358.5 182.5603,-330.5 75.4031,-330.5"/>
<text text-anchor="start" x="83.4031" y="-346.5" font-family="Helvetica,sans-Serif" font-size="10.00" fill="#000000">GLAC/parallelization</text>
<text text-anchor="middle" x="128.9817" y="-336.5" font-family="Helvetica,sans-Serif" font-size="10.00" fill="#000000">/parallel.h</text>
</a>
</g>
</g>
<!-- Node1 -->
<g id="node2" class="node">
<title>Node1</title>
<g id="a_node2"><a xlink:href="communicator_8h.html" target="_top" xlink:title=" ">
<polygon fill="#ffffff" stroke="#000000" points="14.6863,-275.5 14.6863,-293.5 101.2771,-293.5 101.2771,-275.5 14.6863,-275.5"/>
<text text-anchor="middle" x="57.9817" y="-281.5" font-family="Helvetica,sans-Serif" font-size="10.00" fill="#000000">communicator.h</text>
</a>
</g>
</g>
<!-- Node0&#45;&gt;Node1 -->
<g id="edge1" class="edge">
<title>Node0&#45;&gt;Node1</title>
<path fill="none" stroke="#191970" d="M112.1557,-330.2808C101.4374,-321.2232 87.5443,-309.4825 76.5111,-300.1586"/>
<polygon fill="#191970" stroke="#191970" points="78.6284,-297.3655 68.7313,-293.5842 74.1102,-302.7121 78.6284,-297.3655"/>
</g>
<!-- Node5 -->
<g id="node6" class="node">
<title>Node5</title>
<g id="a_node6"><a xlink:href="index_8h.html" target="_top" xlink:title=" ">
<polygon fill="#ffffff" stroke="#000000" points="15.8958,-165.5 15.8958,-183.5 128.0676,-183.5 128.0676,-165.5 15.8958,-165.5"/>
<text text-anchor="middle" x="71.9817" y="-171.5" font-family="Helvetica,sans-Serif" font-size="10.00" fill="#000000">parallelization/index.h</text>
</a>
</g>
</g>
<!-- Node0&#45;&gt;Node5 -->
<g id="edge20" class="edge">
<title>Node0&#45;&gt;Node5</title>
<path fill="none" stroke="#191970" d="M125.5127,-330.2742C121.9689,-316.1444 116.128,-293.9154 109.9817,-275 100.551,-245.9771 87.6549,-213.0054 79.574,-192.9846"/>
<polygon fill="#191970" stroke="#191970" points="82.743,-191.4861 75.7317,-183.543 76.2593,-194.1247 82.743,-191.4861"/>
</g>
<!-- Node8 -->
<g id="node9" class="node">
<title>Node8</title>
<g id="a_node9"><a xlink:href="parallelparameters_8h.html" target="_top" xlink:title=" ">
<polygon fill="#ffffff" stroke="#000000" points="460.4402,-165.5 460.4402,-183.5 631.5232,-183.5 631.5232,-165.5 460.4402,-165.5"/>
<text text-anchor="middle" x="545.9817" y="-171.5" font-family="Helvetica,sans-Serif" font-size="10.00" fill="#000000">parallelization/parallelparameters.h</text>
</a>
</g>
</g>
<!-- Node0&#45;&gt;Node8 -->
<g id="edge21" class="edge">
<title>Node0&#45;&gt;Node8</title>
<path fill="none" stroke="#191970" d="M163.4613,-330.4436C242.8292,-298.0873 437.4999,-218.7252 514.1896,-187.4608"/>
<polygon fill="#191970" stroke="#191970" points="515.8459,-190.5653 523.7847,-183.5491 513.2033,-184.0833 515.8459,-190.5653"/>
</g>
<!-- Node2 -->
<g id="node3" class="node">
<title>Node2</title>
<g id="a_node3"><a xlink:title=" ">
<polygon fill="#ffffff" stroke="#bfbfbf" points="75.366,-110.5 75.366,-128.5 118.5974,-128.5 118.5974,-110.5 75.366,-110.5"/>
<text text-anchor="middle" x="96.9817" y="-116.5" font-family="Helvetica,sans-Serif" font-size="10.00" fill="#000000">vector</text>
</a>
</g>
</g>
<!-- Node1&#45;&gt;Node2 -->
<g id="edge2" class="edge">
<title>Node1&#45;&gt;Node2</title>
<path fill="none" stroke="#191970" d="M48.3355,-275.3636C27.7704,-254.7495 -16.6509,-203.4286 6.9817,-165 19.6138,-144.4592 44.7044,-132.8505 65.1915,-126.5084"/>
<polygon fill="#191970" stroke="#191970" points="66.417,-129.7998 75.0989,-123.7273 64.5251,-123.0603 66.417,-129.7998"/>
</g>
<!-- Node3 -->
<g id="node4" class="node">
<title>Node3</title>
<g id="a_node4"><a xlink:href="lattice_8h.html" target="_top" xlink:title=" ">
<polygon fill="#ffffff" stroke="#000000" points="215.2454,-220.5 215.2454,-238.5 290.718,-238.5 290.718,-220.5 215.2454,-220.5"/>
<text text-anchor="middle" x="252.9817" y="-226.5" font-family="Helvetica,sans-Serif" font-size="10.00" fill="#000000">math/lattice.h</text>
</a>
</g>
</g>
<!-- Node1&#45;&gt;Node3 -->
<g id="edge3" class="edge">
<title>Node1&#45;&gt;Node3</title>
<path fill="none" stroke="#191970" d="M90.182,-275.4179C123.3063,-266.0751 175.0405,-251.4834 211.2766,-241.263"/>
<polygon fill="#191970" stroke="#191970" points="212.3833,-244.5875 221.0577,-238.5042 210.483,-237.8503 212.3833,-244.5875"/>
</g>
<!-- Node3&#45;&gt;Node2 -->
<g id="edge4" class="edge">
<title>Node3&#45;&gt;Node2</title>
<path fill="none" stroke="#191970" d="M235.4423,-220.3373C219.2972,-211.6564 194.9057,-197.9107 174.9817,-184 153.3432,-168.8922 130.2478,-149.3113 114.8526,-135.7056"/>
<polygon fill="#191970" stroke="#191970" points="116.9404,-132.8776 107.15,-128.8279 112.2781,-138.099 116.9404,-132.8776"/>
</g>
<!-- Node4 -->
<g id="node5" class="node">
<title>Node4</title>
<g id="a_node5"><a xlink:title=" ">
<polygon fill="#ffffff" stroke="#bfbfbf" points="510.7551,-110.5 510.7551,-128.5 551.2083,-128.5 551.2083,-110.5 510.7551,-110.5"/>
<text text-anchor="middle" x="530.9817" y="-116.5" font-family="Helvetica,sans-Serif" font-size="10.00" fill="#000000">mpi.h</text>
</a>
</g>
</g>
<!-- Node3&#45;&gt;Node4 -->
<g id="edge5" class="edge">
<title>Node3&#45;&gt;Node4</title>
<path fill="none" stroke="#191970" d="M290.958,-221.2325C323.8905,-213.4706 372.4927,-200.5793 412.9817,-184 431.4052,-176.456 477.6503,-150.3383 506.472,-133.7418"/>
<polygon fill="#191970" stroke="#191970" points="508.2514,-136.756 515.1602,-128.7236 504.7502,-130.6945 508.2514,-136.756"/>
</g>
<!-- Node3&#45;&gt;Node5 -->
<g id="edge6" class="edge">
<title>Node3&#45;&gt;Node5</title>
<path fill="none" stroke="#191970" d="M223.0932,-220.4179C192.6099,-211.155 145.1467,-196.7325 111.5582,-186.526"/>
<polygon fill="#191970" stroke="#191970" points="112.1994,-183.0629 101.6137,-183.5042 110.1641,-189.7605 112.1994,-183.0629"/>
</g>
<!-- Node6 -->
<g id="node7" class="node">
<title>Node6</title>
<g id="a_node7"><a xlink:href="neighbours_8h.html" target="_top" xlink:title=" ">
<polygon fill="#ffffff" stroke="#000000" points="184.1077,-165.5 184.1077,-183.5 321.8557,-183.5 321.8557,-165.5 184.1077,-165.5"/>
<text text-anchor="middle" x="252.9817" y="-171.5" font-family="Helvetica,sans-Serif" font-size="10.00" fill="#000000">parallelization/neighbours.h</text>
</a>
</g>
</g>
<!-- Node3&#45;&gt;Node6 -->
<g id="edge8" class="edge">
<title>Node3&#45;&gt;Node6</title>
<path fill="none" stroke="#191970" d="M252.9817,-220.4179C252.9817,-213.2164 252.9817,-202.8962 252.9817,-193.8632"/>
<polygon fill="#191970" stroke="#191970" points="256.4818,-193.7794 252.9817,-183.7795 249.4818,-193.7795 256.4818,-193.7794"/>
</g>
<!-- Node3&#45;&gt;Node8 -->
<g id="edge11" class="edge">
<title>Node3&#45;&gt;Node8</title>
<path fill="none" stroke="#191970" d="M290.9859,-222.3661C340.9421,-212.9887 429.1911,-196.4231 487.6376,-185.452"/>
<polygon fill="#191970" stroke="#191970" points="488.6456,-188.824 497.8282,-183.5391 487.3541,-181.9441 488.6456,-188.824"/>
</g>
<!-- Node9 -->
<g id="node10" class="node">
<title>Node9</title>
<g id="a_node10"><a xlink:href="functions_8h.html" target="_top" xlink:title=" ">
<polygon fill="#ffffff" stroke="#000000" points="339.7996,-165.5 339.7996,-183.5 404.1638,-183.5 404.1638,-165.5 339.7996,-165.5"/>
<text text-anchor="middle" x="371.9817" y="-171.5" font-family="Helvetica,sans-Serif" font-size="10.00" fill="#000000">functions.h</text>
</a>
</g>
</g>
<!-- Node3&#45;&gt;Node9 -->
<g id="edge13" class="edge">
<title>Node3&#45;&gt;Node9</title>
<path fill="none" stroke="#191970" d="M272.6321,-220.4179C291.8387,-211.5409 321.298,-197.9253 343.1557,-187.823"/>
<polygon fill="#191970" stroke="#191970" points="344.6931,-190.9682 352.3021,-183.5956 341.7563,-184.614 344.6931,-190.9682"/>
</g>
<!-- Node5&#45;&gt;Node2 -->
<g id="edge7" class="edge">
<title>Node5&#45;&gt;Node2</title>
<path fill="none" stroke="#191970" d="M76.1099,-165.4179C79.4913,-157.9789 84.3852,-147.2123 88.5843,-137.9742"/>
<polygon fill="#191970" stroke="#191970" points="91.812,-139.3315 92.7638,-128.7795 85.4394,-136.4348 91.812,-139.3315"/>
</g>
<!-- Node6&#45;&gt;Node2 -->
<g id="edge10" class="edge">
<title>Node6&#45;&gt;Node2</title>
<path fill="none" stroke="#191970" d="M227.2215,-165.4179C200.1271,-155.8654 157.4687,-140.8255 128.4123,-130.5813"/>
<polygon fill="#191970" stroke="#191970" points="129.3446,-127.1989 118.7498,-127.1746 127.017,-133.8006 129.3446,-127.1989"/>
</g>
<!-- Node7 -->
<g id="node8" class="node">
<title>Node7</title>
<g id="a_node8"><a xlink:href="neighbourlist_8h.html" target="_top" xlink:title=" ">
<polygon fill="#ffffff" stroke="#000000" points="147.4597,-110.5 147.4597,-128.5 228.5037,-128.5 228.5037,-110.5 147.4597,-110.5"/>
<text text-anchor="middle" x="187.9817" y="-116.5" font-family="Helvetica,sans-Serif" font-size="10.00" fill="#000000">neighbourlist.h</text>
</a>
</g>
</g>
<!-- Node6&#45;&gt;Node7 -->
<g id="edge9" class="edge">
<title>Node6&#45;&gt;Node7</title>
<path fill="none" stroke="#191970" d="M242.2483,-165.4179C232.6151,-157.2667 218.26,-145.1201 206.7335,-135.3669"/>
<polygon fill="#191970" stroke="#191970" points="208.843,-132.5671 198.9483,-128.7795 204.3214,-137.9108 208.843,-132.5671"/>
</g>
<!-- Node8&#45;&gt;Node4 -->
<g id="edge12" class="edge">
<title>Node8&#45;&gt;Node4</title>
<path fill="none" stroke="#191970" d="M543.5047,-165.4179C541.5191,-158.1372 538.6641,-147.669 536.1815,-138.5659"/>
<polygon fill="#191970" stroke="#191970" points="539.5204,-137.5062 533.5124,-128.7795 532.767,-139.348 539.5204,-137.5062"/>
</g>
<!-- Node10 -->
<g id="node11" class="node">
<title>Node10</title>
<g id="a_node11"><a xlink:href="su3_8h.html" target="_top" xlink:title=" ">
<polygon fill="#ffffff" stroke="#000000" points="345.4695,-110.5 345.4695,-128.5 426.4939,-128.5 426.4939,-110.5 345.4695,-110.5"/>
<text text-anchor="middle" x="385.9817" y="-116.5" font-family="Helvetica,sans-Serif" font-size="10.00" fill="#000000">matrices/su3.h</text>
</a>
</g>
</g>
<!-- Node9&#45;&gt;Node10 -->
<g id="edge14" class="edge">
<title>Node9&#45;&gt;Node10</title>
<path fill="none" stroke="#191970" d="M374.2935,-165.4179C376.1468,-158.1372 378.8114,-147.669 381.1286,-138.5659"/>
<polygon fill="#191970" stroke="#191970" points="384.5446,-139.3338 383.6196,-128.7795 377.7609,-137.607 384.5446,-139.3338"/>
</g>
<!-- Node11 -->
<g id="node12" class="node">
<title>Node11</title>
<g id="a_node12"><a xlink:href="complex_8h.html" target="_top" xlink:title=" ">
<polygon fill="#ffffff" stroke="#000000" points="342.6887,-55.5 342.6887,-73.5 429.2747,-73.5 429.2747,-55.5 342.6887,-55.5"/>
<text text-anchor="middle" x="385.9817" y="-61.5" font-family="Helvetica,sans-Serif" font-size="10.00" fill="#000000">math/complex.h</text>
</a>
</g>
</g>
<!-- Node9&#45;&gt;Node11 -->
<g id="edge19" class="edge">
<title>Node9&#45;&gt;Node11</title>
<path fill="none" stroke="#191970" d="M394.1038,-165.3873C408.9093,-157.9787 427.2294,-145.961 435.9817,-129 445.5534,-110.451 427.5504,-91.8906 410.5396,-79.4747"/>
<polygon fill="#191970" stroke="#191970" points="412.1199,-76.3161 401.8859,-73.5747 408.1767,-82.0998 412.1199,-76.3161"/>
</g>
<!-- Node13 -->
<g id="node14" class="node">
<title>Node13</title>
<g id="a_node14"><a xlink:href="su2_8h.html" target="_top" xlink:title=" ">
<polygon fill="#ffffff" stroke="#000000" points="246.4695,-110.5 246.4695,-128.5 327.4939,-128.5 327.4939,-110.5 246.4695,-110.5"/>
<text text-anchor="middle" x="286.9817" y="-116.5" font-family="Helvetica,sans-Serif" font-size="10.00" fill="#000000">matrices/su2.h</text>
</a>
</g>
</g>
<!-- Node9&#45;&gt;Node13 -->
<g id="edge17" class="edge">
<title>Node9&#45;&gt;Node13</title>
<path fill="none" stroke="#191970" d="M357.9457,-165.4179C344.7804,-156.8992 324.8709,-144.0166 309.4877,-134.0627"/>
<polygon fill="#191970" stroke="#191970" points="311.3357,-131.0897 301.0386,-128.5956 307.5329,-136.9667 311.3357,-131.0897"/>
</g>
<!-- Node10&#45;&gt;Node11 -->
<g id="edge15" class="edge">
<title>Node10&#45;&gt;Node11</title>
<path fill="none" stroke="#191970" d="M385.9817,-110.4179C385.9817,-103.2164 385.9817,-92.8962 385.9817,-83.8632"/>
<polygon fill="#191970" stroke="#191970" points="389.4818,-83.7794 385.9817,-73.7795 382.4818,-83.7795 389.4818,-83.7794"/>
</g>
<!-- Node12 -->
<g id="node13" class="node">
<title>Node12</title>
<g id="a_node13"><a xlink:title=" ">
<polygon fill="#ffffff" stroke="#bfbfbf" points="358.8093,-.5 358.8093,-18.5 413.1541,-18.5 413.1541,-.5 358.8093,-.5"/>
<text text-anchor="middle" x="385.9817" y="-6.5" font-family="Helvetica,sans-Serif" font-size="10.00" fill="#000000">iostream</text>
</a>
</g>
</g>
<!-- Node11&#45;&gt;Node12 -->
<g id="edge16" class="edge">
<title>Node11&#45;&gt;Node12</title>
<path fill="none" stroke="#191970" d="M385.9817,-55.4179C385.9817,-48.2164 385.9817,-37.8962 385.9817,-28.8632"/>
<polygon fill="#191970" stroke="#191970" points="389.4818,-28.7794 385.9817,-18.7795 382.4818,-28.7795 389.4818,-28.7794"/>
</g>
<!-- Node13&#45;&gt;Node11 -->
<g id="edge18" class="edge">
<title>Node13&#45;&gt;Node11</title>
<path fill="none" stroke="#191970" d="M303.3295,-110.4179C318.9498,-101.7399 342.7215,-88.5334 360.7679,-78.5077"/>
<polygon fill="#191970" stroke="#191970" points="362.5677,-81.5117 369.6096,-73.5956 359.1682,-75.3925 362.5677,-81.5117"/>
</g>
</g>
</svg>
