<?xml version="1.0" encoding="UTF-8" standalone="no"?>
<!DOCTYPE svg PUBLIC "-//W3C//DTD SVG 1.1//EN"
 "http://www.w3.org/Graphics/SVG/1.1/DTD/svg11.dtd">
<!-- Generated by graphviz version 2.40.1 (20161225.0304)
 -->
<!-- Title: GLAC/config/parameters.h Pages: 1 -->
<svg width="142pt" height="82pt"
 viewBox="0.00 0.00 142.39 82.00" xmlns="http://www.w3.org/2000/svg" xmlns:xlink="http://www.w3.org/1999/xlink">
<g id="graph0" class="graph" transform="scale(1 1) rotate(0) translate(4 78)">
<title>GLAC/config/parameters.h</title>
<polygon fill="#ffffff" stroke="transparent" points="-4,4 -4,-78 138.3887,-78 138.3887,4 -4,4"/>
<!-- Node0 -->
<g id="node1" class="node">
<title>Node0</title>
<g id="a_node1"><a xlink:title=" ">
<polygon fill="#bfbfbf" stroke="#000000" points="0,-55.5 0,-73.5 134.3887,-73.5 134.3887,-55.5 0,-55.5"/>
<text text-anchor="middle" x="67.1943" y="-61.5" font-family="Helvetica,sans-Serif" font-size="10.00" fill="#000000">GLAC/config/parameters.h</text>
</a>
</g>
</g>
<!-- Node1 -->
<g id="node2" class="node">
<title>Node1</title>
<g id="a_node2"><a xlink:title=" ">
<polygon fill="#ffffff" stroke="#bfbfbf" points="16.9678,-.5 16.9678,-18.5 57.4209,-18.5 57.4209,-.5 16.9678,-.5"/>
<text text-anchor="middle" x="37.1943" y="-6.5" font-family="Helvetica,sans-Serif" font-size="10.00" fill="#000000">string</text>
</a>
</g>
</g>
<!-- Node0&#45;&gt;Node1 -->
<g id="edge1" class="edge">
<title>Node0&#45;&gt;Node1</title>
<path fill="none" stroke="#191970" d="M62.2404,-55.4179C58.1397,-47.8998 52.185,-36.9829 47.1106,-27.6799"/>
<polygon fill="#191970" stroke="#191970" points="50.1171,-25.8824 42.2559,-18.7795 43.9718,-29.2344 50.1171,-25.8824"/>
</g>
<!-- Node2 -->
<g id="node3" class="node">
<title>Node2</title>
<g id="a_node3"><a xlink:title=" ">
<polygon fill="#ffffff" stroke="#bfbfbf" points="75.5786,-.5 75.5786,-18.5 118.8101,-18.5 118.8101,-.5 75.5786,-.5"/>
<text text-anchor="middle" x="97.1943" y="-6.5" font-family="Helvetica,sans-Serif" font-size="10.00" fill="#000000">vector</text>
</a>
</g>
</g>
<!-- Node0&#45;&gt;Node2 -->
<g id="edge2" class="edge">
<title>Node0&#45;&gt;Node2</title>
<path fill="none" stroke="#191970" d="M72.1482,-55.4179C76.249,-47.8998 82.2037,-36.9829 87.2781,-27.6799"/>
<polygon fill="#191970" stroke="#191970" points="90.4169,-29.2344 92.1328,-18.7795 84.2716,-25.8824 90.4169,-29.2344"/>
</g>
</g>
</svg>
