<?xml version="1.0" encoding="UTF-8" standalone="no"?>
<!DOCTYPE svg PUBLIC "-//W3C//DTD SVG 1.1//EN"
 "http://www.w3.org/Graphics/SVG/1.1/DTD/svg11.dtd">
<!-- Generated by graphviz version 2.40.1 (20161225.0304)
 -->
<!-- Title: GluonicLQCD/parallelization/parallelparameters.cpp Pages: 1 -->
<svg width="150pt" height="147pt"
 viewBox="0.00 0.00 149.62 147.00" xmlns="http://www.w3.org/2000/svg" xmlns:xlink="http://www.w3.org/1999/xlink">
<g id="graph0" class="graph" transform="scale(1 1) rotate(0) translate(4 143)">
<title>GluonicLQCD/parallelization/parallelparameters.cpp</title>
<polygon fill="#ffffff" stroke="transparent" points="-4,4 -4,-143 145.6152,-143 145.6152,4 -4,4"/>
<!-- Node0 -->
<g id="node1" class="node">
<title>Node0</title>
<g id="a_node1"><a xlink:title=" ">
<polygon fill="#bfbfbf" stroke="#000000" points="0,-110.5 0,-138.5 141.6152,-138.5 141.6152,-110.5 0,-110.5"/>
<text text-anchor="start" x="8" y="-126.5" font-family="Helvetica,sans-Serif" font-size="10.00" fill="#000000">GluonicLQCD/parallelization</text>
<text text-anchor="middle" x="70.8076" y="-116.5" font-family="Helvetica,sans-Serif" font-size="10.00" fill="#000000">/parallelparameters.cpp</text>
</a>
</g>
</g>
<!-- Node1 -->
<g id="node2" class="node">
<title>Node1</title>
<g id="a_node2"><a xlink:href="parallelparameters_8h.html" target="_top" xlink:title=" ">
<polygon fill="#ffffff" stroke="#000000" points="17.229,-55.5 17.229,-73.5 124.3862,-73.5 124.3862,-55.5 17.229,-55.5"/>
<text text-anchor="middle" x="70.8076" y="-61.5" font-family="Helvetica,sans-Serif" font-size="10.00" fill="#000000">parallelparameters.h</text>
</a>
</g>
</g>
<!-- Node0&#45;&gt;Node1 -->
<g id="edge1" class="edge">
<title>Node0&#45;&gt;Node1</title>
<path fill="none" stroke="#191970" d="M70.8076,-110.2808C70.8076,-102.3776 70.8076,-92.4316 70.8076,-83.8308"/>
<polygon fill="#191970" stroke="#191970" points="74.3077,-83.5842 70.8076,-73.5842 67.3077,-83.5842 74.3077,-83.5842"/>
</g>
<!-- Node2 -->
<g id="node3" class="node">
<title>Node2</title>
<g id="a_node3"><a xlink:title=" ">
<polygon fill="#ffffff" stroke="#bfbfbf" points="50.5811,-.5 50.5811,-18.5 91.0342,-18.5 91.0342,-.5 50.5811,-.5"/>
<text text-anchor="middle" x="70.8076" y="-6.5" font-family="Helvetica,sans-Serif" font-size="10.00" fill="#000000">mpi.h</text>
</a>
</g>
</g>
<!-- Node1&#45;&gt;Node2 -->
<g id="edge2" class="edge">
<title>Node1&#45;&gt;Node2</title>
<path fill="none" stroke="#191970" d="M70.8076,-55.4179C70.8076,-48.2164 70.8076,-37.8962 70.8076,-28.8632"/>
<polygon fill="#191970" stroke="#191970" points="74.3077,-28.7794 70.8076,-18.7795 67.3077,-28.7795 74.3077,-28.7794"/>
</g>
</g>
</svg>
