<?xml version="1.0" encoding="UTF-8" standalone="no"?>
<!DOCTYPE svg PUBLIC "-//W3C//DTD SVG 1.1//EN"
 "http://www.w3.org/Graphics/SVG/1.1/DTD/svg11.dtd">
<!-- Generated by graphviz version 2.40.1 (20161225.0304)
 -->
<!-- Title: GluonicLQCD/config/parameters.h Pages: 1 -->
<svg width="3313pt" height="167pt"
 viewBox="0.00 0.00 3313.33 167.00" xmlns="http://www.w3.org/2000/svg" xmlns:xlink="http://www.w3.org/1999/xlink">
<g id="graph0" class="graph" transform="scale(1 1) rotate(0) translate(4 163)">
<title>GluonicLQCD/config/parameters.h</title>
<polygon fill="#ffffff" stroke="transparent" points="-4,4 -4,-163 3309.3296,-163 3309.3296,4 -4,4"/>
<!-- Node3 -->
<g id="node1" class="node">
<title>Node3</title>
<g id="a_node1"><a xlink:title=" ">
<polygon fill="#bfbfbf" stroke="#000000" points="1382.5,-130.5 1382.5,-158.5 1489.6523,-158.5 1489.6523,-130.5 1382.5,-130.5"/>
<text text-anchor="start" x="1390.5" y="-146.5" font-family="Helvetica,sans-Serif" font-size="10.00" fill="#000000">GluonicLQCD/config</text>
<text text-anchor="middle" x="1436.0762" y="-136.5" font-family="Helvetica,sans-Serif" font-size="10.00" fill="#000000">/parameters.h</text>
</a>
</g>
</g>
<!-- Node4 -->
<g id="node2" class="node">
<title>Node4</title>
<g id="a_node2"><a xlink:href="action_8cpp.html" target="_top" xlink:title=" ">
<polygon fill="#ffffff" stroke="#000000" points="0,-65.5 0,-93.5 112.1523,-93.5 112.1523,-65.5 0,-65.5"/>
<text text-anchor="start" x="8" y="-81.5" font-family="Helvetica,sans-Serif" font-size="10.00" fill="#000000">GluonicLQCD/actions</text>
<text text-anchor="middle" x="56.0762" y="-71.5" font-family="Helvetica,sans-Serif" font-size="10.00" fill="#000000">/action.cpp</text>
</a>
</g>
</g>
<!-- Node3&#45;&gt;Node4 -->
<g id="edge1" class="edge">
<title>Node3&#45;&gt;Node4</title>
<path fill="none" stroke="#191970" d="M1372.227,-143.5802C1143.7487,-140.0496 367.368,-125.9325 121.0762,-94 118.2096,-93.6283 115.2831,-93.191 112.3356,-92.7043"/>
<polygon fill="#191970" stroke="#191970" points="1372.3171,-147.0819 1382.3695,-143.7355 1372.4243,-140.0827 1372.3171,-147.0819"/>
</g>
<!-- Node5 -->
<g id="node3" class="node">
<title>Node5</title>
<g id="a_node3"><a xlink:href="luscheraction_8cpp.html" target="_top" xlink:title=" ">
<polygon fill="#ffffff" stroke="#000000" points="130,-65.5 130,-93.5 242.1523,-93.5 242.1523,-65.5 130,-65.5"/>
<text text-anchor="start" x="138" y="-81.5" font-family="Helvetica,sans-Serif" font-size="10.00" fill="#000000">GluonicLQCD/actions</text>
<text text-anchor="middle" x="186.0762" y="-71.5" font-family="Helvetica,sans-Serif" font-size="10.00" fill="#000000">/luscheraction.cpp</text>
</a>
</g>
</g>
<!-- Node3&#45;&gt;Node5 -->
<g id="edge2" class="edge">
<title>Node3&#45;&gt;Node5</title>
<path fill="none" stroke="#191970" d="M1372.1859,-143.2683C1158.6366,-138.9175 470.7679,-122.9536 251.0762,-94 248.2104,-93.6223 245.2845,-93.1801 242.3375,-92.6896"/>
<polygon fill="#191970" stroke="#191970" points="1372.2233,-146.7697 1382.2921,-143.4727 1372.3649,-139.7711 1372.2233,-146.7697"/>
</g>
<!-- Node6 -->
<g id="node4" class="node">
<title>Node6</title>
<g id="a_node4"><a xlink:href="wilsongaugeaction_8cpp.html" target="_top" xlink:title=" ">
<polygon fill="#ffffff" stroke="#000000" points="260.0962,-65.5 260.0962,-93.5 380.0562,-93.5 380.0562,-65.5 260.0962,-65.5"/>
<text text-anchor="start" x="268.0962" y="-81.5" font-family="Helvetica,sans-Serif" font-size="10.00" fill="#000000">GluonicLQCD/actions</text>
<text text-anchor="middle" x="320.0762" y="-71.5" font-family="Helvetica,sans-Serif" font-size="10.00" fill="#000000">/wilsongaugeaction.cpp</text>
</a>
</g>
</g>
<!-- Node3&#45;&gt;Node6 -->
<g id="edge3" class="edge">
<title>Node3&#45;&gt;Node6</title>
<path fill="none" stroke="#191970" d="M1372.1282,-142.7495C1175.3794,-137.1531 580.8124,-118.6115 389.0762,-94 386.1623,-93.626 383.1883,-93.1946 380.1911,-92.72"/>
<polygon fill="#191970" stroke="#191970" points="1372.2076,-146.2531 1382.3026,-143.0375 1372.4057,-139.2559 1372.2076,-146.2531"/>
</g>
<!-- Node7 -->
<g id="node5" class="node">
<title>Node7</title>
<g id="a_node5"><a xlink:href="configloader_8cpp.html" target="_top" xlink:title=" ">
<polygon fill="#ffffff" stroke="#000000" points="398.5,-65.5 398.5,-93.5 505.6523,-93.5 505.6523,-65.5 398.5,-65.5"/>
<text text-anchor="start" x="406.5" y="-81.5" font-family="Helvetica,sans-Serif" font-size="10.00" fill="#000000">GluonicLQCD/config</text>
<text text-anchor="middle" x="452.0762" y="-71.5" font-family="Helvetica,sans-Serif" font-size="10.00" fill="#000000">/configloader.cpp</text>
</a>
</g>
</g>
<!-- Node3&#45;&gt;Node7 -->
<g id="edge4" class="edge">
<title>Node3&#45;&gt;Node7</title>
<path fill="none" stroke="#191970" d="M1372.2741,-142.2723C1192.6952,-135.7969 685.2979,-116.0347 520.0762,-94 515.4098,-93.3777 510.587,-92.6084 505.7638,-91.7515"/>
<polygon fill="#191970" stroke="#191970" points="1372.2377,-145.7732 1382.3569,-142.6343 1372.4889,-138.7777 1372.2377,-145.7732"/>
</g>
<!-- Node8 -->
<g id="node6" class="node">
<title>Node8</title>
<g id="a_node6"><a xlink:href="parameters_8cpp.html" target="_top" xlink:title=" ">
<polygon fill="#ffffff" stroke="#000000" points="437.5,-.5 437.5,-28.5 544.6523,-28.5 544.6523,-.5 437.5,-.5"/>
<text text-anchor="start" x="445.5" y="-16.5" font-family="Helvetica,sans-Serif" font-size="10.00" fill="#000000">GluonicLQCD/config</text>
<text text-anchor="middle" x="491.0762" y="-6.5" font-family="Helvetica,sans-Serif" font-size="10.00" fill="#000000">/parameters.cpp</text>
</a>
</g>
</g>
<!-- Node3&#45;&gt;Node8 -->
<g id="edge5" class="edge">
<title>Node3&#45;&gt;Node8</title>
<path fill="none" stroke="#191970" d="M1372.1165,-143.8729C1181.3373,-141.5831 625.0219,-131.7111 553.0762,-94 525.7917,-79.6985 506.7187,-47.4854 497.4625,-28.7488"/>
<polygon fill="#191970" stroke="#191970" points="1372.2301,-147.3744 1382.2704,-143.9918 1372.312,-140.3749 1372.2301,-147.3744"/>
</g>
<!-- Node9 -->
<g id="node7" class="node">
<title>Node9</title>
<g id="a_node7"><a xlink:href="sysprint_8h.html" target="_top" xlink:title=" ">
<polygon fill="#ffffff" stroke="#000000" points="562.5,-65.5 562.5,-93.5 669.6523,-93.5 669.6523,-65.5 562.5,-65.5"/>
<text text-anchor="start" x="570.5" y="-81.5" font-family="Helvetica,sans-Serif" font-size="10.00" fill="#000000">GluonicLQCD/config</text>
<text text-anchor="middle" x="616.0762" y="-71.5" font-family="Helvetica,sans-Serif" font-size="10.00" fill="#000000">/sysprint.h</text>
</a>
</g>
</g>
<!-- Node3&#45;&gt;Node9 -->
<g id="edge6" class="edge">
<title>Node3&#45;&gt;Node9</title>
<path fill="none" stroke="#191970" d="M1372.2927,-143.29C1242.2555,-140.1477 937.379,-129.3269 684.0762,-94 679.4136,-93.3497 674.5935,-92.5611 669.772,-91.6913"/>
<polygon fill="#191970" stroke="#191970" points="1372.3889,-146.7932 1382.4682,-143.5288 1372.5531,-139.7951 1372.3889,-146.7932"/>
</g>
<!-- Node11 -->
<g id="node9" class="node">
<title>Node11</title>
<g id="a_node9"><a xlink:href="system_8cpp.html" target="_top" xlink:title=" ">
<polygon fill="#ffffff" stroke="#000000" points="687.5566,-5.5 687.5566,-23.5 818.5957,-23.5 818.5957,-5.5 687.5566,-5.5"/>
<text text-anchor="middle" x="753.0762" y="-11.5" font-family="Helvetica,sans-Serif" font-size="10.00" fill="#000000">GluonicLQCD/system.cpp</text>
</a>
</g>
</g>
<!-- Node3&#45;&gt;Node11 -->
<g id="edge24" class="edge">
<title>Node3&#45;&gt;Node11</title>
<path fill="none" stroke="#191970" d="M1372.0651,-142.3496C1200.0517,-136.2622 739.2613,-117.798 717.0762,-94 697.5498,-73.0541 726.4775,-39.7039 742.9568,-23.6819"/>
<polygon fill="#191970" stroke="#191970" points="1372.1225,-145.8537 1382.2393,-142.7071 1372.3684,-138.858 1372.1225,-145.8537"/>
</g>
<!-- Node12 -->
<g id="node10" class="node">
<title>Node12</title>
<g id="a_node10"><a xlink:href="flow_8cpp.html" target="_top" xlink:title=" ">
<polygon fill="#ffffff" stroke="#000000" points="726.4927,-70.5 726.4927,-88.5 863.6597,-88.5 863.6597,-70.5 726.4927,-70.5"/>
<text text-anchor="middle" x="795.0762" y="-76.5" font-family="Helvetica,sans-Serif" font-size="10.00" fill="#000000">GluonicLQCD/flow/flow.cpp</text>
</a>
</g>
</g>
<!-- Node3&#45;&gt;Node12 -->
<g id="edge10" class="edge">
<title>Node3&#45;&gt;Node12</title>
<path fill="none" stroke="#191970" d="M1372.2417,-140.7427C1267.6183,-134.1436 1053.2544,-118.7719 873.0762,-94 862.1599,-92.4992 850.4491,-90.5203 839.5065,-88.5088"/>
<polygon fill="#191970" stroke="#191970" points="1372.1242,-144.2421 1382.3231,-141.3728 1372.5609,-137.2557 1372.1242,-144.2421"/>
</g>
<!-- Node13 -->
<g id="node11" class="node">
<title>Node13</title>
<g id="a_node11"><a xlink:href="fieldio_8cpp.html" target="_top" xlink:title=" ">
<polygon fill="#ffffff" stroke="#000000" points="882.0469,-70.5 882.0469,-88.5 1018.1055,-88.5 1018.1055,-70.5 882.0469,-70.5"/>
<text text-anchor="middle" x="950.0762" y="-76.5" font-family="Helvetica,sans-Serif" font-size="10.00" fill="#000000">GluonicLQCD/io/fieldio.cpp</text>
</a>
</g>
</g>
<!-- Node3&#45;&gt;Node13 -->
<g id="edge11" class="edge">
<title>Node3&#45;&gt;Node13</title>
<path fill="none" stroke="#191970" d="M1372.3363,-137.8938C1291.7299,-129.2494 1148.7673,-112.9512 1027.0762,-94 1016.861,-92.4092 1005.9247,-90.4849 995.5958,-88.5655"/>
<polygon fill="#191970" stroke="#191970" points="1372.0151,-141.3793 1382.3301,-138.9605 1372.7581,-134.4188 1372.0151,-141.3793"/>
</g>
<!-- Node14 -->
<g id="node12" class="node">
<title>Node14</title>
<g id="a_node12"><a xlink:href="observablesio_8cpp.html" target="_top" xlink:title=" ">
<polygon fill="#ffffff" stroke="#000000" points="1036.2588,-70.5 1036.2588,-88.5 1207.8936,-88.5 1207.8936,-70.5 1036.2588,-70.5"/>
<text text-anchor="middle" x="1122.0762" y="-76.5" font-family="Helvetica,sans-Serif" font-size="10.00" fill="#000000">GluonicLQCD/io/observablesio.cpp</text>
</a>
</g>
</g>
<!-- Node3&#45;&gt;Node14 -->
<g id="edge12" class="edge">
<title>Node3&#45;&gt;Node14</title>
<path fill="none" stroke="#191970" d="M1372.481,-131.3354C1311.023,-118.6132 1219.5608,-99.6799 1165.8559,-88.5627"/>
<polygon fill="#191970" stroke="#191970" points="1371.9525,-134.8001 1382.4544,-133.4 1373.3715,-127.9455 1371.9525,-134.8001"/>
</g>
<!-- Node15 -->
<g id="node13" class="node">
<title>Node15</title>
<g id="a_node13"><a xlink:href="main_8cpp.html" target="_top" xlink:title=" ">
<polygon fill="#ffffff" stroke="#000000" points="1225.5542,-70.5 1225.5542,-88.5 1346.5981,-88.5 1346.5981,-70.5 1225.5542,-70.5"/>
<text text-anchor="middle" x="1286.0762" y="-76.5" font-family="Helvetica,sans-Serif" font-size="10.00" fill="#000000">GluonicLQCD/main.cpp</text>
</a>
</g>
</g>
<!-- Node3&#45;&gt;Node15 -->
<g id="edge13" class="edge">
<title>Node3&#45;&gt;Node15</title>
<path fill="none" stroke="#191970" d="M1394.235,-126.3688C1365.8413,-114.0649 1329.5087,-98.3208 1307.0169,-88.5743"/>
<polygon fill="#191970" stroke="#191970" points="1392.9612,-129.6313 1403.5284,-130.396 1395.7445,-123.2084 1392.9612,-129.6313"/>
</g>
<!-- Node16 -->
<g id="node14" class="node">
<title>Node16</title>
<g id="a_node14"><a xlink:href="su3matrixgenerator_8cpp.html" target="_top" xlink:title=" ">
<polygon fill="#ffffff" stroke="#000000" points="1364.4458,-65.5 1364.4458,-93.5 1507.7065,-93.5 1507.7065,-65.5 1364.4458,-65.5"/>
<text text-anchor="start" x="1372.4458" y="-81.5" font-family="Helvetica,sans-Serif" font-size="10.00" fill="#000000">GluonicLQCD/math/matrices</text>
<text text-anchor="middle" x="1436.0762" y="-71.5" font-family="Helvetica,sans-Serif" font-size="10.00" fill="#000000">/su3matrixgenerator.cpp</text>
</a>
</g>
</g>
<!-- Node3&#45;&gt;Node16 -->
<g id="edge14" class="edge">
<title>Node3&#45;&gt;Node16</title>
<path fill="none" stroke="#191970" d="M1436.0762,-120.1081C1436.0762,-111.1539 1436.0762,-101.3227 1436.0762,-93.5765"/>
<polygon fill="#191970" stroke="#191970" points="1432.5763,-120.3959 1436.0762,-130.396 1439.5763,-120.396 1432.5763,-120.3959"/>
</g>
<!-- Node17 -->
<g id="node15" class="node">
<title>Node17</title>
<g id="a_node15"><a xlink:href="correlator_8cpp.html" target="_top" xlink:title=" ">
<polygon fill="#ffffff" stroke="#000000" points="1525.8818,-65.5 1525.8818,-93.5 1660.2705,-93.5 1660.2705,-65.5 1525.8818,-65.5"/>
<text text-anchor="start" x="1533.8818" y="-81.5" font-family="Helvetica,sans-Serif" font-size="10.00" fill="#000000">GluonicLQCD/observables</text>
<text text-anchor="middle" x="1593.0762" y="-71.5" font-family="Helvetica,sans-Serif" font-size="10.00" fill="#000000">/correlator.cpp</text>
</a>
</g>
</g>
<!-- Node3&#45;&gt;Node17 -->
<g id="edge15" class="edge">
<title>Node3&#45;&gt;Node17</title>
<path fill="none" stroke="#191970" d="M1479.4463,-126.5442C1504.5692,-116.143 1535.7399,-103.238 1559.076,-93.5765"/>
<polygon fill="#191970" stroke="#191970" points="1478.0434,-123.3368 1470.1428,-130.396 1480.7212,-129.8045 1478.0434,-123.3368"/>
</g>
<!-- Node18 -->
<g id="node16" class="node">
<title>Node18</title>
<g id="a_node16"><a xlink:href="latticeactionchargedensity_8cpp.html" target="_top" xlink:title=" ">
<polygon fill="#ffffff" stroke="#000000" points="1678.0708,-65.5 1678.0708,-93.5 1830.0815,-93.5 1830.0815,-65.5 1678.0708,-65.5"/>
<text text-anchor="start" x="1686.0708" y="-81.5" font-family="Helvetica,sans-Serif" font-size="10.00" fill="#000000">GluonicLQCD/observables</text>
<text text-anchor="middle" x="1754.0762" y="-71.5" font-family="Helvetica,sans-Serif" font-size="10.00" fill="#000000">/latticeactionchargedensity.cpp</text>
</a>
</g>
</g>
<!-- Node3&#45;&gt;Node18 -->
<g id="edge16" class="edge">
<title>Node3&#45;&gt;Node18</title>
<path fill="none" stroke="#191970" d="M1499.7626,-131.4823C1553.5578,-120.4865 1630.4245,-104.7747 1685.5478,-93.5074"/>
<polygon fill="#191970" stroke="#191970" points="1498.7574,-128.1153 1489.6609,-133.5471 1500.1593,-134.9735 1498.7574,-128.1153"/>
</g>
<!-- Node19 -->
<g id="node17" class="node">
<title>Node19</title>
<g id="a_node17"><a xlink:href="mastersampler_8cpp.html" target="_top" xlink:title=" ">
<polygon fill="#ffffff" stroke="#000000" points="1847.8818,-65.5 1847.8818,-93.5 1982.2705,-93.5 1982.2705,-65.5 1847.8818,-65.5"/>
<text text-anchor="start" x="1855.8818" y="-81.5" font-family="Helvetica,sans-Serif" font-size="10.00" fill="#000000">GluonicLQCD/observables</text>
<text text-anchor="middle" x="1915.0762" y="-71.5" font-family="Helvetica,sans-Serif" font-size="10.00" fill="#000000">/mastersampler.cpp</text>
</a>
</g>
</g>
<!-- Node3&#45;&gt;Node19 -->
<g id="edge17" class="edge">
<title>Node3&#45;&gt;Node19</title>
<path fill="none" stroke="#191970" d="M1500.037,-137.7612C1579.6696,-129.0779 1719.7602,-112.8382 1839.0762,-94 1841.8625,-93.5601 1844.7031,-93.0948 1847.5703,-92.6112"/>
<polygon fill="#191970" stroke="#191970" points="1499.248,-134.3262 1489.6839,-138.8846 1500.0032,-141.2853 1499.248,-134.3262"/>
</g>
<!-- Node20 -->
<g id="node18" class="node">
<title>Node20</title>
<g id="a_node18"><a xlink:href="mastersamplertopcxyz_8cpp.html" target="_top" xlink:title=" ">
<polygon fill="#ffffff" stroke="#000000" points="2000.2217,-65.5 2000.2217,-93.5 2137.9307,-93.5 2137.9307,-65.5 2000.2217,-65.5"/>
<text text-anchor="start" x="2008.2217" y="-81.5" font-family="Helvetica,sans-Serif" font-size="10.00" fill="#000000">GluonicLQCD/observables</text>
<text text-anchor="middle" x="2069.0762" y="-71.5" font-family="Helvetica,sans-Serif" font-size="10.00" fill="#000000">/mastersamplertopcxyz.cpp</text>
</a>
</g>
</g>
<!-- Node3&#45;&gt;Node20 -->
<g id="edge18" class="edge">
<title>Node3&#45;&gt;Node20</title>
<path fill="none" stroke="#191970" d="M1500.1259,-140.6161C1603.666,-133.9016 1814.0959,-118.4479 1991.0762,-94 1993.9414,-93.6042 1996.8615,-93.1758 1999.8081,-92.7227"/>
<polygon fill="#191970" stroke="#191970" points="1499.597,-137.1428 1489.8421,-141.277 1500.046,-144.1284 1499.597,-137.1428"/>
</g>
<!-- Node21 -->
<g id="node19" class="node">
<title>Node21</title>
<g id="a_node19"><a xlink:href="plaquette_8cpp.html" target="_top" xlink:title=" ">
<polygon fill="#ffffff" stroke="#000000" points="2155.8818,-65.5 2155.8818,-93.5 2290.2705,-93.5 2290.2705,-65.5 2155.8818,-65.5"/>
<text text-anchor="start" x="2163.8818" y="-81.5" font-family="Helvetica,sans-Serif" font-size="10.00" fill="#000000">GluonicLQCD/observables</text>
<text text-anchor="middle" x="2223.0762" y="-71.5" font-family="Helvetica,sans-Serif" font-size="10.00" fill="#000000">/plaquette.cpp</text>
</a>
</g>
</g>
<!-- Node3&#45;&gt;Node21 -->
<g id="edge19" class="edge">
<title>Node3&#45;&gt;Node21</title>
<path fill="none" stroke="#191970" d="M1499.9488,-142.4823C1624.7545,-137.9836 1909.5627,-124.9832 2147.0762,-94 2149.8733,-93.6351 2152.7229,-93.2325 2155.5976,-92.8009"/>
<polygon fill="#191970" stroke="#191970" points="1499.6767,-138.9896 1489.807,-142.8417 1499.9247,-145.9852 1499.6767,-138.9896"/>
</g>
<!-- Node22 -->
<g id="node20" class="node">
<title>Node22</title>
<g id="a_node20"><a xlink:href="supersampler_8cpp.html" target="_top" xlink:title=" ">
<polygon fill="#ffffff" stroke="#000000" points="2307.8818,-65.5 2307.8818,-93.5 2442.2705,-93.5 2442.2705,-65.5 2307.8818,-65.5"/>
<text text-anchor="start" x="2315.8818" y="-81.5" font-family="Helvetica,sans-Serif" font-size="10.00" fill="#000000">GluonicLQCD/observables</text>
<text text-anchor="middle" x="2375.0762" y="-71.5" font-family="Helvetica,sans-Serif" font-size="10.00" fill="#000000">/supersampler.cpp</text>
</a>
</g>
</g>
<!-- Node3&#45;&gt;Node22 -->
<g id="edge20" class="edge">
<title>Node3&#45;&gt;Node22</title>
<path fill="none" stroke="#191970" d="M1500.1948,-143.5958C1643.7896,-140.9486 2001.9303,-130.8813 2299.0762,-94 2301.8755,-93.6526 2304.727,-93.2645 2307.6032,-92.8449"/>
<polygon fill="#191970" stroke="#191970" points="1499.7577,-140.1029 1489.8218,-143.7809 1499.8827,-147.1018 1499.7577,-140.1029"/>
</g>
<!-- Node23 -->
<g id="node21" class="node">
<title>Node23</title>
<g id="a_node21"><a xlink:href="observablestorer_8cpp.html" target="_top" xlink:title=" ">
<polygon fill="#ffffff" stroke="#000000" points="2460.3179,-65.5 2460.3179,-93.5 2595.8345,-93.5 2595.8345,-65.5 2460.3179,-65.5"/>
<text text-anchor="start" x="2468.3179" y="-81.5" font-family="Helvetica,sans-Serif" font-size="10.00" fill="#000000">GluonicLQCD/observables</text>
<text text-anchor="middle" x="2528.0762" y="-71.5" font-family="Helvetica,sans-Serif" font-size="10.00" fill="#000000">/tools/observablestorer.cpp</text>
</a>
</g>
</g>
<!-- Node3&#45;&gt;Node23 -->
<g id="edge21" class="edge">
<title>Node3&#45;&gt;Node23</title>
<path fill="none" stroke="#191970" d="M1499.999,-142.4631C1692.6219,-136.1443 2265.5928,-115.9746 2451.0762,-94 2454.0481,-93.6479 2457.0778,-93.2493 2460.1335,-92.8146"/>
<polygon fill="#191970" stroke="#191970" points="1499.6383,-138.973 1489.758,-142.7978 1499.867,-145.9692 1499.6383,-138.973"/>
</g>
<!-- Node24 -->
<g id="node22" class="node">
<title>Node24</title>
<g id="a_node22"><a xlink:href="topologicalcharge_8cpp.html" target="_top" xlink:title=" ">
<polygon fill="#ffffff" stroke="#000000" points="2613.8818,-65.5 2613.8818,-93.5 2748.2705,-93.5 2748.2705,-65.5 2613.8818,-65.5"/>
<text text-anchor="start" x="2621.8818" y="-81.5" font-family="Helvetica,sans-Serif" font-size="10.00" fill="#000000">GluonicLQCD/observables</text>
<text text-anchor="middle" x="2681.0762" y="-71.5" font-family="Helvetica,sans-Serif" font-size="10.00" fill="#000000">/topologicalcharge.cpp</text>
</a>
</g>
</g>
<!-- Node3&#45;&gt;Node24 -->
<g id="edge22" class="edge">
<title>Node3&#45;&gt;Node24</title>
<path fill="none" stroke="#191970" d="M1499.796,-142.9698C1711.1875,-137.7013 2388.1846,-119.2395 2605.0762,-94 2607.8781,-93.6739 2610.7317,-93.3038 2613.6097,-92.899"/>
<polygon fill="#191970" stroke="#191970" points="1499.6989,-139.471 1489.7888,-143.218 1499.8725,-146.4689 1499.6989,-139.471"/>
</g>
<!-- Node25 -->
<g id="node23" class="node">
<title>Node25</title>
<g id="a_node23"><a xlink:href="communicator_8cpp.html" target="_top" xlink:title=" ">
<polygon fill="#ffffff" stroke="#000000" points="2766.2686,-65.5 2766.2686,-93.5 2907.8838,-93.5 2907.8838,-65.5 2766.2686,-65.5"/>
<text text-anchor="start" x="2774.2686" y="-81.5" font-family="Helvetica,sans-Serif" font-size="10.00" fill="#000000">GluonicLQCD/parallelization</text>
<text text-anchor="middle" x="2837.0762" y="-71.5" font-family="Helvetica,sans-Serif" font-size="10.00" fill="#000000">/communicator.cpp</text>
</a>
</g>
</g>
<!-- Node3&#45;&gt;Node25 -->
<g id="edge23" class="edge">
<title>Node3&#45;&gt;Node25</title>
<path fill="none" stroke="#191970" d="M1500.1761,-143.2493C1729.5581,-138.5865 2509.0654,-121.0797 2757.0762,-94 2760.0228,-93.6783 2763.0244,-93.3117 2766.052,-92.9099"/>
<polygon fill="#191970" stroke="#191970" points="1499.9207,-139.7537 1489.9935,-143.4552 1500.0622,-146.7522 1499.9207,-139.7537"/>
</g>
<!-- Node26 -->
<g id="node24" class="node">
<title>Node26</title>
<g id="a_node24"><a xlink:href="performancetests_8cpp.html" target="_top" xlink:title=" ">
<polygon fill="#ffffff" stroke="#000000" points="2925.8154,-70.5 2925.8154,-88.5 3126.3369,-88.5 3126.3369,-70.5 2925.8154,-70.5"/>
<text text-anchor="middle" x="3026.0762" y="-76.5" font-family="Helvetica,sans-Serif" font-size="10.00" fill="#000000">GluonicLQCD/tests/performancetests.cpp</text>
</a>
</g>
</g>
<!-- Node3&#45;&gt;Node26 -->
<g id="edge25" class="edge">
<title>Node3&#45;&gt;Node26</title>
<path fill="none" stroke="#191970" d="M1499.9121,-143.1593C1746.2779,-137.8553 2635.4202,-117.479 2917.0762,-94 2933.0566,-92.6679 2950.2855,-90.6488 2966.223,-88.537"/>
<polygon fill="#191970" stroke="#191970" points="1499.6202,-139.6647 1489.6976,-143.3785 1499.7704,-146.6631 1499.6202,-139.6647"/>
</g>
<!-- Node27 -->
<g id="node25" class="node">
<title>Node27</title>
<g id="a_node25"><a xlink:href="testsuite_8cpp.html" target="_top" xlink:title=" ">
<polygon fill="#ffffff" stroke="#000000" points="3144.8228,-70.5 3144.8228,-88.5 3305.3296,-88.5 3305.3296,-70.5 3144.8228,-70.5"/>
<text text-anchor="middle" x="3225.0762" y="-76.5" font-family="Helvetica,sans-Serif" font-size="10.00" fill="#000000">GluonicLQCD/tests/testsuite.cpp</text>
</a>
</g>
</g>
<!-- Node3&#45;&gt;Node27 -->
<g id="edge26" class="edge">
<title>Node3&#45;&gt;Node27</title>
<path fill="none" stroke="#191970" d="M1500.1949,-143.7112C1769.3179,-140.2278 2808.7579,-125.0038 3135.0762,-94 3148.4684,-92.7276 3162.8893,-90.7016 3176.1795,-88.5627"/>
<polygon fill="#191970" stroke="#191970" points="1499.7788,-140.2161 1489.8246,-143.8445 1499.8688,-147.2156 1499.7788,-140.2161"/>
</g>
<!-- Node9&#45;&gt;Node8 -->
<g id="edge7" class="edge">
<title>Node9&#45;&gt;Node8</title>
<path fill="none" stroke="#191970" d="M579.9498,-60.7143C560.2359,-50.4631 536.235,-37.9826 518.1464,-28.5765"/>
<polygon fill="#191970" stroke="#191970" points="578.4661,-63.8877 588.953,-65.396 581.6956,-57.6771 578.4661,-63.8877"/>
</g>
<!-- Node10 -->
<g id="node8" class="node">
<title>Node10</title>
<g id="a_node8"><a xlink:href="sysprint_8cpp.html" target="_top" xlink:title=" ">
<polygon fill="#ffffff" stroke="#000000" points="562.5,-.5 562.5,-28.5 669.6523,-28.5 669.6523,-.5 562.5,-.5"/>
<text text-anchor="start" x="570.5" y="-16.5" font-family="Helvetica,sans-Serif" font-size="10.00" fill="#000000">GluonicLQCD/config</text>
<text text-anchor="middle" x="616.0762" y="-6.5" font-family="Helvetica,sans-Serif" font-size="10.00" fill="#000000">/sysprint.cpp</text>
</a>
</g>
</g>
<!-- Node9&#45;&gt;Node10 -->
<g id="edge8" class="edge">
<title>Node9&#45;&gt;Node10</title>
<path fill="none" stroke="#191970" d="M616.0762,-55.1081C616.0762,-46.1539 616.0762,-36.3227 616.0762,-28.5765"/>
<polygon fill="#191970" stroke="#191970" points="612.5763,-55.3959 616.0762,-65.396 619.5763,-55.396 612.5763,-55.3959"/>
</g>
<!-- Node9&#45;&gt;Node11 -->
<g id="edge9" class="edge">
<title>Node9&#45;&gt;Node11</title>
<path fill="none" stroke="#191970" d="M654.9692,-61.0471C680.8002,-48.7915 713.5864,-33.236 733.9503,-23.5743"/>
<polygon fill="#191970" stroke="#191970" points="653.3375,-57.9472 645.8031,-65.396 656.3381,-64.2715 653.3375,-57.9472"/>
</g>
</g>
</svg>
