<?xml version="1.0" encoding="UTF-8" standalone="no"?>
<!DOCTYPE svg PUBLIC "-//W3C//DTD SVG 1.1//EN"
 "http://www.w3.org/Graphics/SVG/1.1/DTD/svg11.dtd">
<!-- Generated by graphviz version 2.40.1 (20161225.0304)
 -->
<!-- Title: GLAC/tests/performancetests.cpp Pages: 1 -->
<svg width="1216pt" height="422pt"
 viewBox="0.00 0.00 1216.31 422.00" xmlns="http://www.w3.org/2000/svg" xmlns:xlink="http://www.w3.org/1999/xlink">
<g id="graph0" class="graph" transform="scale(1 1) rotate(0) translate(4 418)">
<title>GLAC/tests/performancetests.cpp</title>
<polygon fill="#ffffff" stroke="transparent" points="-4,4 -4,-418 1212.3076,-418 1212.3076,4 -4,4"/>
<!-- Node0 -->
<g id="node1" class="node">
<title>Node0</title>
<g id="a_node1"><a xlink:title=" ">
<polygon fill="#bfbfbf" stroke="#000000" points="546.7661,-395.5 546.7661,-413.5 712.8296,-413.5 712.8296,-395.5 546.7661,-395.5"/>
<text text-anchor="middle" x="629.7979" y="-401.5" font-family="Helvetica,sans-Serif" font-size="10.00" fill="#000000">GLAC/tests/performancetests.cpp</text>
</a>
</g>
</g>
<!-- Node1 -->
<g id="node2" class="node">
<title>Node1</title>
<g id="a_node2"><a xlink:href="performancetests_8h.html" target="_top" xlink:title=" ">
<polygon fill="#ffffff" stroke="#000000" points="0,-220.5 0,-238.5 101.5957,-238.5 101.5957,-220.5 0,-220.5"/>
<text text-anchor="middle" x="50.7979" y="-226.5" font-family="Helvetica,sans-Serif" font-size="10.00" fill="#000000">performancetests.h</text>
</a>
</g>
</g>
<!-- Node0&#45;&gt;Node1 -->
<g id="edge1" class="edge">
<title>Node0&#45;&gt;Node1</title>
<path fill="none" stroke="#191970" d="M546.5048,-401.1719C385.3659,-394.3275 45.1689,-377.7335 27.7979,-359 -.6736,-328.2954 23.4462,-275.1306 39.4219,-247.4384"/>
<polygon fill="#191970" stroke="#191970" points="42.4729,-249.1564 44.6334,-238.7842 36.4763,-245.5452 42.4729,-249.1564"/>
</g>
<!-- Node8 -->
<g id="node9" class="node">
<title>Node8</title>
<g id="a_node9"><a xlink:title=" ">
<polygon fill="#ffffff" stroke="#bfbfbf" points="1025.5098,-335.5 1025.5098,-353.5 1072.0859,-353.5 1072.0859,-335.5 1025.5098,-335.5"/>
<text text-anchor="middle" x="1048.7979" y="-341.5" font-family="Helvetica,sans-Serif" font-size="10.00" fill="#000000">chrono</text>
</a>
</g>
</g>
<!-- Node0&#45;&gt;Node8 -->
<g id="edge9" class="edge">
<title>Node0&#45;&gt;Node8</title>
<path fill="none" stroke="#191970" d="M713.1458,-397.7246C809.3651,-389.3717 961.479,-374.3839 1016.7979,-359 1018.4542,-358.5394 1020.1338,-358.0044 1021.8114,-357.417"/>
<polygon fill="#191970" stroke="#191970" points="1023.2501,-360.6109 1031.2223,-353.6328 1020.6385,-354.1163 1023.2501,-360.6109"/>
</g>
<!-- Node9 -->
<g id="node10" class="node">
<title>Node9</title>
<g id="a_node10"><a xlink:href="parameters_8h.html" target="_top" xlink:title=" ">
<polygon fill="#ffffff" stroke="#000000" points="903.6084,-335.5 903.6084,-353.5 1007.9873,-353.5 1007.9873,-335.5 903.6084,-335.5"/>
<text text-anchor="middle" x="955.7979" y="-341.5" font-family="Helvetica,sans-Serif" font-size="10.00" fill="#000000">config/parameters.h</text>
</a>
</g>
</g>
<!-- Node0&#45;&gt;Node9 -->
<g id="edge10" class="edge">
<title>Node0&#45;&gt;Node9</title>
<path fill="none" stroke="#191970" d="M685.4632,-395.4706C738.1964,-386.7485 819.5501,-372.8566 889.7979,-359 895.1211,-357.95 900.6752,-356.8061 906.2029,-355.6365"/>
<polygon fill="#191970" stroke="#191970" points="907.0262,-359.0395 916.0686,-353.5182 905.5567,-352.1955 907.0262,-359.0395"/>
</g>
<!-- Node12 -->
<g id="node13" class="node">
<title>Node12</title>
<g id="a_node13"><a xlink:href="communicator_8h.html" target="_top" xlink:title=" ">
<polygon fill="#ffffff" stroke="#000000" points="777.5396,-275.5 777.5396,-293.5 928.0562,-293.5 928.0562,-275.5 777.5396,-275.5"/>
<text text-anchor="middle" x="852.7979" y="-281.5" font-family="Helvetica,sans-Serif" font-size="10.00" fill="#000000">parallelization/communicator.h</text>
</a>
</g>
</g>
<!-- Node0&#45;&gt;Node12 -->
<g id="edge13" class="edge">
<title>Node0&#45;&gt;Node12</title>
<path fill="none" stroke="#191970" d="M713.0905,-398.6927C770.1272,-392.7803 838.6146,-381.1896 856.7979,-359 869.3241,-343.7138 865.4979,-320.1847 860.3621,-303.6684"/>
<polygon fill="#191970" stroke="#191970" points="863.576,-302.2572 856.9567,-293.9846 856.9724,-304.5795 863.576,-302.2572"/>
</g>
<!-- Node20 -->
<g id="node21" class="node">
<title>Node20</title>
<g id="a_node21"><a xlink:title=" ">
<polygon fill="#ffffff" stroke="#bfbfbf" points="1090.1279,-335.5 1090.1279,-353.5 1139.4678,-353.5 1139.4678,-335.5 1090.1279,-335.5"/>
<text text-anchor="middle" x="1114.7979" y="-341.5" font-family="Helvetica,sans-Serif" font-size="10.00" fill="#000000">fstream</text>
</a>
</g>
</g>
<!-- Node0&#45;&gt;Node20 -->
<g id="edge29" class="edge">
<title>Node0&#45;&gt;Node20</title>
<path fill="none" stroke="#191970" d="M712.8671,-399.1333C823.5718,-391.4618 1013.3486,-376.3542 1080.7979,-359 1082.7555,-358.4963 1084.7462,-357.897 1086.7321,-357.2333"/>
<polygon fill="#191970" stroke="#191970" points="1088.3546,-360.3603 1096.4472,-353.5221 1085.8566,-353.8211 1088.3546,-360.3603"/>
</g>
<!-- Node21 -->
<g id="node22" class="node">
<title>Node21</title>
<g id="a_node22"><a xlink:title=" ">
<polygon fill="#ffffff" stroke="#bfbfbf" points="1157.2881,-335.5 1157.2881,-353.5 1208.3076,-353.5 1208.3076,-335.5 1157.2881,-335.5"/>
<text text-anchor="middle" x="1182.7979" y="-341.5" font-family="Helvetica,sans-Serif" font-size="10.00" fill="#000000">iomanip</text>
</a>
</g>
</g>
<!-- Node0&#45;&gt;Node21 -->
<g id="edge30" class="edge">
<title>Node0&#45;&gt;Node21</title>
<path fill="none" stroke="#191970" d="M713.0072,-400.3994C838.1159,-393.6921 1068.5683,-379.0831 1148.7979,-359 1150.7588,-358.5091 1152.7519,-357.9196 1154.7396,-357.2629"/>
<polygon fill="#191970" stroke="#191970" points="1156.3551,-360.3932 1164.4589,-353.5684 1153.8679,-353.85 1156.3551,-360.3932"/>
</g>
<!-- Node22 -->
<g id="node23" class="node">
<title>Node22</title>
<g id="a_node23"><a xlink:href="expluscher_8h.html" target="_top" xlink:title=" ">
<polygon fill="#ffffff" stroke="#000000" points="36.7661,-330.5 36.7661,-358.5 142.8296,-358.5 142.8296,-330.5 36.7661,-330.5"/>
<text text-anchor="start" x="44.7661" y="-346.5" font-family="Helvetica,sans-Serif" font-size="10.00" fill="#000000">math/exponentiation</text>
<text text-anchor="middle" x="89.7979" y="-336.5" font-family="Helvetica,sans-Serif" font-size="10.00" fill="#000000">/expluscher.h</text>
</a>
</g>
</g>
<!-- Node0&#45;&gt;Node22 -->
<g id="edge31" class="edge">
<title>Node0&#45;&gt;Node22</title>
<path fill="none" stroke="#191970" d="M546.4626,-399.9835C452.9798,-394.1461 296.7178,-382.081 153.4337,-359.1284"/>
<polygon fill="#191970" stroke="#191970" points="153.5725,-355.6051 143.1408,-357.4569 152.4504,-362.5146 153.5725,-355.6051"/>
</g>
<!-- Node23 -->
<g id="node24" class="node">
<title>Node23</title>
<g id="a_node24"><a xlink:href="su3exp_8h.html" target="_top" xlink:title=" ">
<polygon fill="#ffffff" stroke="#000000" points="247.5049,-275.5 247.5049,-293.5 304.0908,-293.5 304.0908,-275.5 247.5049,-275.5"/>
<text text-anchor="middle" x="275.7979" y="-281.5" font-family="Helvetica,sans-Serif" font-size="10.00" fill="#000000">su3exp.h</text>
</a>
</g>
</g>
<!-- Node0&#45;&gt;Node23 -->
<g id="edge34" class="edge">
<title>Node0&#45;&gt;Node23</title>
<path fill="none" stroke="#191970" d="M615.558,-395.3409C601.6776,-386.3268 580.0537,-372.0546 561.7979,-359 544.5165,-346.6423 543.2254,-338.5981 523.7979,-330 454.101,-299.1542 364.4894,-289.2194 314.2935,-286.0198"/>
<polygon fill="#191970" stroke="#191970" points="314.3879,-282.5195 304.2019,-285.4342 313.9823,-289.5078 314.3879,-282.5195"/>
</g>
<!-- Node24 -->
<g id="node25" class="node">
<title>Node24</title>
<g id="a_node25"><a xlink:href="taylor2exp_8h.html" target="_top" xlink:title=" ">
<polygon fill="#ffffff" stroke="#000000" points="160.7661,-330.5 160.7661,-358.5 266.8296,-358.5 266.8296,-330.5 160.7661,-330.5"/>
<text text-anchor="start" x="168.7661" y="-346.5" font-family="Helvetica,sans-Serif" font-size="10.00" fill="#000000">math/exponentiation</text>
<text text-anchor="middle" x="213.7979" y="-336.5" font-family="Helvetica,sans-Serif" font-size="10.00" fill="#000000">/taylor2exp.h</text>
</a>
</g>
</g>
<!-- Node0&#45;&gt;Node24 -->
<g id="edge35" class="edge">
<title>Node0&#45;&gt;Node24</title>
<path fill="none" stroke="#191970" d="M546.4598,-396.2134C476.8792,-388.7363 374.9138,-376.4863 277.2101,-359.1483"/>
<polygon fill="#191970" stroke="#191970" points="277.6214,-355.6663 267.1602,-357.344 276.3843,-362.5561 277.6214,-355.6663"/>
</g>
<!-- Node25 -->
<g id="node26" class="node">
<title>Node25</title>
<g id="a_node26"><a xlink:href="taylor4exp_8h.html" target="_top" xlink:title=" ">
<polygon fill="#ffffff" stroke="#000000" points="284.7661,-330.5 284.7661,-358.5 390.8296,-358.5 390.8296,-330.5 284.7661,-330.5"/>
<text text-anchor="start" x="292.7661" y="-346.5" font-family="Helvetica,sans-Serif" font-size="10.00" fill="#000000">math/exponentiation</text>
<text text-anchor="middle" x="337.7979" y="-336.5" font-family="Helvetica,sans-Serif" font-size="10.00" fill="#000000">/taylor4exp.h</text>
</a>
</g>
</g>
<!-- Node0&#45;&gt;Node25 -->
<g id="edge37" class="edge">
<title>Node0&#45;&gt;Node25</title>
<path fill="none" stroke="#191970" d="M581.6824,-395.4813C537.2647,-387.0433 469.2155,-373.8333 400.9425,-359.2068"/>
<polygon fill="#191970" stroke="#191970" points="401.3833,-355.7215 390.8706,-357.0389 399.9102,-362.5648 401.3833,-355.7215"/>
</g>
<!-- Node26 -->
<g id="node27" class="node">
<title>Node26</title>
<g id="a_node27"><a xlink:href="taylorexp_8h.html" target="_top" xlink:title=" ">
<polygon fill="#ffffff" stroke="#000000" points="408.7661,-330.5 408.7661,-358.5 514.8296,-358.5 514.8296,-330.5 408.7661,-330.5"/>
<text text-anchor="start" x="416.7661" y="-346.5" font-family="Helvetica,sans-Serif" font-size="10.00" fill="#000000">math/exponentiation</text>
<text text-anchor="middle" x="461.7979" y="-336.5" font-family="Helvetica,sans-Serif" font-size="10.00" fill="#000000">/taylorexp.h</text>
</a>
</g>
</g>
<!-- Node0&#45;&gt;Node26 -->
<g id="edge39" class="edge">
<title>Node0&#45;&gt;Node26</title>
<path fill="none" stroke="#191970" d="M604.2823,-395.3873C579.5167,-386.5425 541.2866,-372.8888 510.6592,-361.9505"/>
<polygon fill="#191970" stroke="#191970" points="511.6037,-358.5714 501.0091,-358.504 509.2493,-365.1636 511.6037,-358.5714"/>
</g>
<!-- Node27 -->
<g id="node28" class="node">
<title>Node27</title>
<g id="a_node28"><a xlink:href="wilsongaugeaction_8h.html" target="_top" xlink:title=" ">
<polygon fill="#ffffff" stroke="#000000" points="706.2563,-335.5 706.2563,-353.5 847.3394,-353.5 847.3394,-335.5 706.2563,-335.5"/>
<text text-anchor="middle" x="776.7979" y="-341.5" font-family="Helvetica,sans-Serif" font-size="10.00" fill="#000000">actions/wilsongaugeaction.h</text>
</a>
</g>
</g>
<!-- Node0&#45;&gt;Node27 -->
<g id="edge41" class="edge">
<title>Node0&#45;&gt;Node27</title>
<path fill="none" stroke="#191970" d="M652.124,-395.3873C676.983,-385.2407 717.3466,-368.7658 745.3853,-357.3215"/>
<polygon fill="#191970" stroke="#191970" points="746.8074,-360.5214 754.7433,-353.5019 744.1621,-354.0404 746.8074,-360.5214"/>
</g>
<!-- Node29 -->
<g id="node30" class="node">
<title>Node29</title>
<g id="a_node30"><a xlink:href="luscheraction_8h.html" target="_top" xlink:title=" ">
<polygon fill="#ffffff" stroke="#000000" points="570.936,-335.5 570.936,-353.5 688.6597,-353.5 688.6597,-335.5 570.936,-335.5"/>
<text text-anchor="middle" x="629.7979" y="-341.5" font-family="Helvetica,sans-Serif" font-size="10.00" fill="#000000">actions/luscheraction.h</text>
</a>
</g>
</g>
<!-- Node0&#45;&gt;Node29 -->
<g id="edge45" class="edge">
<title>Node0&#45;&gt;Node29</title>
<path fill="none" stroke="#191970" d="M629.7979,-395.3873C629.7979,-387.0174 629.7979,-374.3414 629.7979,-363.735"/>
<polygon fill="#191970" stroke="#191970" points="633.298,-363.6984 629.7979,-353.6985 626.298,-363.6985 633.298,-363.6984"/>
</g>
<!-- Node2 -->
<g id="node3" class="node">
<title>Node2</title>
<g id="a_node3"><a xlink:href="su3matrixgenerator_8h.html" target="_top" xlink:title=" ">
<polygon fill="#ffffff" stroke="#000000" points="5.0396,-165.5 5.0396,-183.5 180.5562,-183.5 180.5562,-165.5 5.0396,-165.5"/>
<text text-anchor="middle" x="92.7979" y="-171.5" font-family="Helvetica,sans-Serif" font-size="10.00" fill="#000000">math/matrices/su3matrixgenerator.h</text>
</a>
</g>
</g>
<!-- Node1&#45;&gt;Node2 -->
<g id="edge2" class="edge">
<title>Node1&#45;&gt;Node2</title>
<path fill="none" stroke="#191970" d="M57.7333,-220.4179C63.6557,-212.6624 72.34,-201.29 79.5843,-191.8035"/>
<polygon fill="#191970" stroke="#191970" points="82.4242,-193.8514 85.7117,-183.7795 76.8609,-189.6029 82.4242,-193.8514"/>
</g>
<!-- Node3 -->
<g id="node4" class="node">
<title>Node3</title>
<g id="a_node4"><a xlink:title=" ">
<polygon fill="#ffffff" stroke="#bfbfbf" points="67.8447,-110.5 67.8447,-128.5 117.751,-128.5 117.751,-110.5 67.8447,-110.5"/>
<text text-anchor="middle" x="92.7979" y="-116.5" font-family="Helvetica,sans-Serif" font-size="10.00" fill="#000000">random</text>
</a>
</g>
</g>
<!-- Node2&#45;&gt;Node3 -->
<g id="edge3" class="edge">
<title>Node2&#45;&gt;Node3</title>
<path fill="none" stroke="#191970" d="M92.7979,-165.4179C92.7979,-158.2164 92.7979,-147.8962 92.7979,-138.8632"/>
<polygon fill="#191970" stroke="#191970" points="96.298,-138.7794 92.7979,-128.7795 89.298,-138.7795 96.298,-138.7794"/>
</g>
<!-- Node4 -->
<g id="node5" class="node">
<title>Node4</title>
<g id="a_node5"><a xlink:href="su3_8h.html" target="_top" xlink:title=" ">
<polygon fill="#ffffff" stroke="#000000" points="148.5664,-110.5 148.5664,-128.5 189.0293,-128.5 189.0293,-110.5 148.5664,-110.5"/>
<text text-anchor="middle" x="168.7979" y="-116.5" font-family="Helvetica,sans-Serif" font-size="10.00" fill="#000000">su3.h</text>
</a>
</g>
</g>
<!-- Node2&#45;&gt;Node4 -->
<g id="edge4" class="edge">
<title>Node2&#45;&gt;Node4</title>
<path fill="none" stroke="#191970" d="M105.3477,-165.4179C116.899,-157.0584 134.2571,-144.4966 147.8994,-134.6239"/>
<polygon fill="#191970" stroke="#191970" points="150.1801,-137.2938 156.2294,-128.5956 146.0762,-131.6229 150.1801,-137.2938"/>
</g>
<!-- Node7 -->
<g id="node8" class="node">
<title>Node7</title>
<g id="a_node8"><a xlink:href="su2_8h.html" target="_top" xlink:title=" ">
<polygon fill="#ffffff" stroke="#000000" points="206.5664,-110.5 206.5664,-128.5 247.0293,-128.5 247.0293,-110.5 206.5664,-110.5"/>
<text text-anchor="middle" x="226.7979" y="-116.5" font-family="Helvetica,sans-Serif" font-size="10.00" fill="#000000">su2.h</text>
</a>
</g>
</g>
<!-- Node2&#45;&gt;Node7 -->
<g id="edge7" class="edge">
<title>Node2&#45;&gt;Node7</title>
<path fill="none" stroke="#191970" d="M114.9252,-165.4179C137.3687,-156.206 172.2449,-141.8912 197.0864,-131.695"/>
<polygon fill="#191970" stroke="#191970" points="198.474,-134.9089 206.396,-127.8739 195.816,-128.4331 198.474,-134.9089"/>
</g>
<!-- Node5 -->
<g id="node6" class="node">
<title>Node5</title>
<g id="a_node6"><a xlink:href="complex_8h.html" target="_top" xlink:title=" ">
<polygon fill="#ffffff" stroke="#000000" points="183.5049,-55.5 183.5049,-73.5 270.0908,-73.5 270.0908,-55.5 183.5049,-55.5"/>
<text text-anchor="middle" x="226.7979" y="-61.5" font-family="Helvetica,sans-Serif" font-size="10.00" fill="#000000">math/complex.h</text>
</a>
</g>
</g>
<!-- Node4&#45;&gt;Node5 -->
<g id="edge5" class="edge">
<title>Node4&#45;&gt;Node5</title>
<path fill="none" stroke="#191970" d="M178.3754,-110.4179C186.8042,-102.425 199.2844,-90.5903 209.4635,-80.9377"/>
<polygon fill="#191970" stroke="#191970" points="212.1643,-83.2001 217.0122,-73.7795 207.3476,-78.1207 212.1643,-83.2001"/>
</g>
<!-- Node6 -->
<g id="node7" class="node">
<title>Node6</title>
<g id="a_node7"><a xlink:title=" ">
<polygon fill="#ffffff" stroke="#bfbfbf" points="199.6255,-.5 199.6255,-18.5 253.9702,-18.5 253.9702,-.5 199.6255,-.5"/>
<text text-anchor="middle" x="226.7979" y="-6.5" font-family="Helvetica,sans-Serif" font-size="10.00" fill="#000000">iostream</text>
</a>
</g>
</g>
<!-- Node5&#45;&gt;Node6 -->
<g id="edge6" class="edge">
<title>Node5&#45;&gt;Node6</title>
<path fill="none" stroke="#191970" d="M226.7979,-55.4179C226.7979,-48.2164 226.7979,-37.8962 226.7979,-28.8632"/>
<polygon fill="#191970" stroke="#191970" points="230.298,-28.7794 226.7979,-18.7795 223.298,-28.7795 230.298,-28.7794"/>
</g>
<!-- Node7&#45;&gt;Node5 -->
<g id="edge8" class="edge">
<title>Node7&#45;&gt;Node5</title>
<path fill="none" stroke="#191970" d="M226.7979,-110.4179C226.7979,-103.2164 226.7979,-92.8962 226.7979,-83.8632"/>
<polygon fill="#191970" stroke="#191970" points="230.298,-83.7794 226.7979,-73.7795 223.298,-83.7795 230.298,-83.7794"/>
</g>
<!-- Node10 -->
<g id="node11" class="node">
<title>Node10</title>
<g id="a_node11"><a xlink:title=" ">
<polygon fill="#ffffff" stroke="#bfbfbf" points="983.5713,-275.5 983.5713,-293.5 1024.0244,-293.5 1024.0244,-275.5 983.5713,-275.5"/>
<text text-anchor="middle" x="1003.7979" y="-281.5" font-family="Helvetica,sans-Serif" font-size="10.00" fill="#000000">string</text>
</a>
</g>
</g>
<!-- Node9&#45;&gt;Node10 -->
<g id="edge11" class="edge">
<title>Node9&#45;&gt;Node10</title>
<path fill="none" stroke="#191970" d="M963.088,-335.3873C970.2068,-326.4888 981.2195,-312.723 989.9965,-301.7517"/>
<polygon fill="#191970" stroke="#191970" points="992.9251,-303.6936 996.4391,-293.6985 987.459,-299.3207 992.9251,-303.6936"/>
</g>
<!-- Node11 -->
<g id="node12" class="node">
<title>Node11</title>
<g id="a_node12"><a xlink:title=" ">
<polygon fill="#ffffff" stroke="#bfbfbf" points="816.1821,-110.5 816.1821,-128.5 859.4136,-128.5 859.4136,-110.5 816.1821,-110.5"/>
<text text-anchor="middle" x="837.7979" y="-116.5" font-family="Helvetica,sans-Serif" font-size="10.00" fill="#000000">vector</text>
</a>
</g>
</g>
<!-- Node9&#45;&gt;Node11 -->
<g id="edge12" class="edge">
<title>Node9&#45;&gt;Node11</title>
<path fill="none" stroke="#191970" d="M955.8207,-335.294C955.4432,-307.0243 950.899,-220.0539 910.7979,-165 900.2674,-150.543 883.6125,-139.6544 868.8685,-132.1596"/>
<polygon fill="#191970" stroke="#191970" points="870.0728,-128.8567 859.539,-127.7211 867.0655,-135.1778 870.0728,-128.8567"/>
</g>
<!-- Node12&#45;&gt;Node11 -->
<g id="edge14" class="edge">
<title>Node12&#45;&gt;Node11</title>
<path fill="none" stroke="#191970" d="M865.1233,-275.2157C874.9858,-266.9515 888.0791,-253.8894 893.7979,-239 905.5901,-208.2978 907.9326,-194.6966 893.7979,-165 887.6807,-152.148 875.9616,-141.7411 864.8186,-134.1407"/>
<polygon fill="#191970" stroke="#191970" points="866.4484,-131.0306 856.1236,-128.6539 862.7128,-136.9505 866.4484,-131.0306"/>
</g>
<!-- Node13 -->
<g id="node14" class="node">
<title>Node13</title>
<g id="a_node14"><a xlink:href="lattice_8h.html" target="_top" xlink:title=" ">
<polygon fill="#ffffff" stroke="#000000" points="629.0615,-220.5 629.0615,-238.5 704.5342,-238.5 704.5342,-220.5 629.0615,-220.5"/>
<text text-anchor="middle" x="666.7979" y="-226.5" font-family="Helvetica,sans-Serif" font-size="10.00" fill="#000000">math/lattice.h</text>
</a>
</g>
</g>
<!-- Node12&#45;&gt;Node13 -->
<g id="edge15" class="edge">
<title>Node12&#45;&gt;Node13</title>
<path fill="none" stroke="#191970" d="M822.0837,-275.4179C790.6233,-266.115 741.5632,-251.608 707.0221,-241.3943"/>
<polygon fill="#191970" stroke="#191970" points="707.8305,-237.9836 697.2485,-238.5042 705.8455,-244.6962 707.8305,-237.9836"/>
</g>
<!-- Node13&#45;&gt;Node11 -->
<g id="edge16" class="edge">
<title>Node13&#45;&gt;Node11</title>
<path fill="none" stroke="#191970" d="M673.7918,-220.4854C684.7107,-206.9132 707.0322,-181.1086 730.7979,-165 754.272,-149.0889 784.205,-136.9387 806.439,-129.2132"/>
<polygon fill="#191970" stroke="#191970" points="807.699,-132.4821 816.0619,-125.9774 805.4679,-125.8472 807.699,-132.4821"/>
</g>
<!-- Node14 -->
<g id="node15" class="node">
<title>Node14</title>
<g id="a_node15"><a xlink:title=" ">
<polygon fill="#ffffff" stroke="#bfbfbf" points="365.5713,-110.5 365.5713,-128.5 406.0244,-128.5 406.0244,-110.5 365.5713,-110.5"/>
<text text-anchor="middle" x="385.7979" y="-116.5" font-family="Helvetica,sans-Serif" font-size="10.00" fill="#000000">mpi.h</text>
</a>
</g>
</g>
<!-- Node13&#45;&gt;Node14 -->
<g id="edge17" class="edge">
<title>Node13&#45;&gt;Node14</title>
<path fill="none" stroke="#191970" d="M628.8051,-226.8414C548.2206,-220.8161 366.0124,-204.9969 347.7979,-184 334.7435,-168.9515 350.9451,-148.8 366.0485,-135.0514"/>
<polygon fill="#191970" stroke="#191970" points="368.3702,-137.6713 373.6857,-128.5063 363.815,-132.3561 368.3702,-137.6713"/>
</g>
<!-- Node15 -->
<g id="node16" class="node">
<title>Node15</title>
<g id="a_node16"><a xlink:href="index_8h.html" target="_top" xlink:title=" ">
<polygon fill="#ffffff" stroke="#000000" points="739.7119,-165.5 739.7119,-183.5 851.8838,-183.5 851.8838,-165.5 739.7119,-165.5"/>
<text text-anchor="middle" x="795.7979" y="-171.5" font-family="Helvetica,sans-Serif" font-size="10.00" fill="#000000">parallelization/index.h</text>
</a>
</g>
</g>
<!-- Node13&#45;&gt;Node15 -->
<g id="edge18" class="edge">
<title>Node13&#45;&gt;Node15</title>
<path fill="none" stroke="#191970" d="M688.0996,-220.4179C709.1069,-211.4613 741.4287,-197.6806 765.185,-187.552"/>
<polygon fill="#191970" stroke="#191970" points="766.6384,-190.7372 774.4645,-183.5956 763.8929,-184.2981 766.6384,-190.7372"/>
</g>
<!-- Node16 -->
<g id="node17" class="node">
<title>Node16</title>
<g id="a_node17"><a xlink:href="neighbours_8h.html" target="_top" xlink:title=" ">
<polygon fill="#ffffff" stroke="#000000" points="545.9238,-165.5 545.9238,-183.5 683.6719,-183.5 683.6719,-165.5 545.9238,-165.5"/>
<text text-anchor="middle" x="614.7979" y="-171.5" font-family="Helvetica,sans-Serif" font-size="10.00" fill="#000000">parallelization/neighbours.h</text>
</a>
</g>
</g>
<!-- Node13&#45;&gt;Node16 -->
<g id="edge20" class="edge">
<title>Node13&#45;&gt;Node16</title>
<path fill="none" stroke="#191970" d="M658.2111,-220.4179C650.729,-212.5041 639.6863,-200.8243 630.6107,-191.2251"/>
<polygon fill="#191970" stroke="#191970" points="632.9846,-188.6414 623.5712,-183.7795 627.898,-193.4505 632.9846,-188.6414"/>
</g>
<!-- Node18 -->
<g id="node19" class="node">
<title>Node18</title>
<g id="a_node19"><a xlink:href="parallelparameters_8h.html" target="_top" xlink:title=" ">
<polygon fill="#ffffff" stroke="#000000" points="357.2563,-165.5 357.2563,-183.5 528.3394,-183.5 528.3394,-165.5 357.2563,-165.5"/>
<text text-anchor="middle" x="442.7979" y="-171.5" font-family="Helvetica,sans-Serif" font-size="10.00" fill="#000000">parallelization/parallelparameters.h</text>
</a>
</g>
</g>
<!-- Node13&#45;&gt;Node18 -->
<g id="edge23" class="edge">
<title>Node13&#45;&gt;Node18</title>
<path fill="none" stroke="#191970" d="M629.8088,-220.4179C591.3518,-210.9753 531.058,-196.171 489.3773,-185.9369"/>
<polygon fill="#191970" stroke="#191970" points="490.0157,-182.4898 479.4695,-183.5042 488.3465,-189.2879 490.0157,-182.4898"/>
</g>
<!-- Node19 -->
<g id="node20" class="node">
<title>Node19</title>
<g id="a_node20"><a xlink:href="functions_8h.html" target="_top" xlink:title=" ">
<polygon fill="#ffffff" stroke="#000000" points="236.6157,-165.5 236.6157,-183.5 300.98,-183.5 300.98,-165.5 236.6157,-165.5"/>
<text text-anchor="middle" x="268.7979" y="-171.5" font-family="Helvetica,sans-Serif" font-size="10.00" fill="#000000">functions.h</text>
</a>
</g>
</g>
<!-- Node13&#45;&gt;Node19 -->
<g id="edge25" class="edge">
<title>Node13&#45;&gt;Node19</title>
<path fill="none" stroke="#191970" d="M628.894,-225.5456C564.2423,-218.5897 428.5924,-203.0774 314.7979,-184 313.7121,-183.818 312.613,-183.6287 311.5049,-183.4335"/>
<polygon fill="#191970" stroke="#191970" points="311.8814,-179.9435 301.4091,-181.5503 310.5977,-186.8248 311.8814,-179.9435"/>
</g>
<!-- Node15&#45;&gt;Node11 -->
<g id="edge19" class="edge">
<title>Node15&#45;&gt;Node11</title>
<path fill="none" stroke="#191970" d="M802.7333,-165.4179C808.6557,-157.6624 817.34,-146.29 824.5843,-136.8035"/>
<polygon fill="#191970" stroke="#191970" points="827.4242,-138.8514 830.7117,-128.7795 821.8609,-134.6029 827.4242,-138.8514"/>
</g>
<!-- Node16&#45;&gt;Node11 -->
<g id="edge22" class="edge">
<title>Node16&#45;&gt;Node11</title>
<path fill="none" stroke="#191970" d="M651.6218,-165.4179C694.7524,-154.7803 765.4733,-137.3379 806.209,-127.291"/>
<polygon fill="#191970" stroke="#191970" points="807.2564,-130.6376 816.1273,-124.8447 805.5801,-123.8413 807.2564,-130.6376"/>
</g>
<!-- Node17 -->
<g id="node18" class="node">
<title>Node17</title>
<g id="a_node18"><a xlink:href="neighbourlist_8h.html" target="_top" xlink:title=" ">
<polygon fill="#ffffff" stroke="#000000" points="574.2759,-110.5 574.2759,-128.5 655.3198,-128.5 655.3198,-110.5 574.2759,-110.5"/>
<text text-anchor="middle" x="614.7979" y="-116.5" font-family="Helvetica,sans-Serif" font-size="10.00" fill="#000000">neighbourlist.h</text>
</a>
</g>
</g>
<!-- Node16&#45;&gt;Node17 -->
<g id="edge21" class="edge">
<title>Node16&#45;&gt;Node17</title>
<path fill="none" stroke="#191970" d="M614.7979,-165.4179C614.7979,-158.2164 614.7979,-147.8962 614.7979,-138.8632"/>
<polygon fill="#191970" stroke="#191970" points="618.298,-138.7794 614.7979,-128.7795 611.298,-138.7795 618.298,-138.7794"/>
</g>
<!-- Node18&#45;&gt;Node14 -->
<g id="edge24" class="edge">
<title>Node18&#45;&gt;Node14</title>
<path fill="none" stroke="#191970" d="M433.3855,-165.4179C425.1019,-157.425 412.8369,-145.5903 402.8333,-135.9377"/>
<polygon fill="#191970" stroke="#191970" points="405.0413,-133.2045 395.4147,-128.7795 400.1807,-138.2419 405.0413,-133.2045"/>
</g>
<!-- Node19&#45;&gt;Node4 -->
<g id="edge26" class="edge">
<title>Node19&#45;&gt;Node4</title>
<path fill="none" stroke="#191970" d="M252.2849,-165.4179C236.5068,-156.7399 212.495,-143.5334 194.2664,-133.5077"/>
<polygon fill="#191970" stroke="#191970" points="195.7843,-130.3481 185.3353,-128.5956 192.4108,-136.4816 195.7843,-130.3481"/>
</g>
<!-- Node19&#45;&gt;Node5 -->
<g id="edge28" class="edge">
<title>Node19&#45;&gt;Node5</title>
<path fill="none" stroke="#191970" d="M268.0298,-165.4376C266.7151,-152.6752 263.3995,-128.8587 255.7979,-110 251.8285,-100.1526 245.6892,-90.1058 240.0796,-81.9666"/>
<polygon fill="#191970" stroke="#191970" points="242.8046,-79.7616 234.1151,-73.7 237.1279,-83.8574 242.8046,-79.7616"/>
</g>
<!-- Node19&#45;&gt;Node7 -->
<g id="edge27" class="edge">
<title>Node19&#45;&gt;Node7</title>
<path fill="none" stroke="#191970" d="M261.8624,-165.4179C255.94,-157.6624 247.2557,-146.29 240.0114,-136.8035"/>
<polygon fill="#191970" stroke="#191970" points="242.7349,-134.6029 233.884,-128.7795 237.1715,-138.8514 242.7349,-134.6029"/>
</g>
<!-- Node22&#45;&gt;Node23 -->
<g id="edge32" class="edge">
<title>Node22&#45;&gt;Node23</title>
<path fill="none" stroke="#191970" d="M133.4066,-330.4327C165.1451,-320.1944 207.6955,-306.4685 237.9957,-296.6942"/>
<polygon fill="#191970" stroke="#191970" points="239.3259,-299.9428 247.7685,-293.5417 237.1769,-293.2808 239.3259,-299.9428"/>
</g>
<!-- Node23&#45;&gt;Node4 -->
<g id="edge33" class="edge">
<title>Node23&#45;&gt;Node4</title>
<path fill="none" stroke="#191970" d="M269.7385,-275.1561C252.5238,-248.6101 203.1092,-172.41 180.4296,-137.4369"/>
<polygon fill="#191970" stroke="#191970" points="183.1683,-135.2273 174.7908,-128.7414 177.2952,-139.036 183.1683,-135.2273"/>
</g>
<!-- Node24&#45;&gt;Node23 -->
<g id="edge36" class="edge">
<title>Node24&#45;&gt;Node23</title>
<path fill="none" stroke="#191970" d="M228.491,-330.2808C237.6671,-321.4008 249.5079,-309.9419 259.0477,-300.7098"/>
<polygon fill="#191970" stroke="#191970" points="261.6588,-303.0536 266.4109,-293.5842 256.7908,-298.0233 261.6588,-303.0536"/>
</g>
<!-- Node25&#45;&gt;Node23 -->
<g id="edge38" class="edge">
<title>Node25&#45;&gt;Node23</title>
<path fill="none" stroke="#191970" d="M323.1047,-330.2808C313.9286,-321.4008 302.0878,-309.9419 292.548,-300.7098"/>
<polygon fill="#191970" stroke="#191970" points="294.8049,-298.0233 285.1848,-293.5842 289.9369,-303.0536 294.8049,-298.0233"/>
</g>
<!-- Node26&#45;&gt;Node23 -->
<g id="edge40" class="edge">
<title>Node26&#45;&gt;Node23</title>
<path fill="none" stroke="#191970" d="M418.1891,-330.4327C386.4506,-320.1944 343.9002,-306.4685 313.6,-296.6942"/>
<polygon fill="#191970" stroke="#191970" points="314.4188,-293.2808 303.8272,-293.5417 312.2698,-299.9428 314.4188,-293.2808"/>
</g>
<!-- Node28 -->
<g id="node29" class="node">
<title>Node28</title>
<g id="a_node29"><a xlink:href="action_8h.html" target="_top" xlink:title=" ">
<polygon fill="#ffffff" stroke="#000000" points="648.2856,-275.5 648.2856,-293.5 699.3101,-293.5 699.3101,-275.5 648.2856,-275.5"/>
<text text-anchor="middle" x="673.7979" y="-281.5" font-family="Helvetica,sans-Serif" font-size="10.00" fill="#000000">action.h</text>
</a>
</g>
</g>
<!-- Node27&#45;&gt;Node28 -->
<g id="edge42" class="edge">
<title>Node27&#45;&gt;Node28</title>
<path fill="none" stroke="#191970" d="M761.1544,-335.3873C744.3446,-325.5952 717.417,-309.9092 697.8978,-298.5388"/>
<polygon fill="#191970" stroke="#191970" points="699.6537,-295.5111 689.2511,-293.5019 696.1302,-301.5597 699.6537,-295.5111"/>
</g>
<!-- Node28&#45;&gt;Node11 -->
<g id="edge44" class="edge">
<title>Node28&#45;&gt;Node11</title>
<path fill="none" stroke="#191970" d="M699.522,-279.4253C741.9531,-269.5144 825.4319,-243.1567 860.7979,-184 869.6205,-169.2423 861.1339,-150.5734 852.0797,-137.1224"/>
<polygon fill="#191970" stroke="#191970" points="854.6709,-134.7382 845.9265,-128.7561 849.0318,-138.8856 854.6709,-134.7382"/>
</g>
<!-- Node28&#45;&gt;Node13 -->
<g id="edge43" class="edge">
<title>Node28&#45;&gt;Node13</title>
<path fill="none" stroke="#191970" d="M672.6419,-275.4179C671.7254,-268.2164 670.4119,-257.8962 669.2623,-248.8632"/>
<polygon fill="#191970" stroke="#191970" points="672.7135,-248.2575 667.9789,-238.7795 665.7695,-249.1414 672.7135,-248.2575"/>
</g>
<!-- Node29&#45;&gt;Node28 -->
<g id="edge46" class="edge">
<title>Node29&#45;&gt;Node28</title>
<path fill="none" stroke="#191970" d="M636.4805,-335.3873C642.9415,-326.5769 652.9014,-312.9951 660.907,-302.0784"/>
<polygon fill="#191970" stroke="#191970" points="663.9611,-303.8323 667.0523,-293.6985 658.3162,-299.6927 663.9611,-303.8323"/>
</g>
</g>
</svg>
