<?xml version="1.0" encoding="UTF-8" standalone="no"?>
<!DOCTYPE svg PUBLIC "-//W3C//DTD SVG 1.1//EN"
 "http://www.w3.org/Graphics/SVG/1.1/DTD/svg11.dtd">
<!-- Generated by graphviz version 2.40.1 (20161225.0304)
 -->
<!-- Title: GLAC/tests/performancetests.h Pages: 1 -->
<svg width="184pt" height="247pt"
 viewBox="0.00 0.00 183.71 247.00" xmlns="http://www.w3.org/2000/svg" xmlns:xlink="http://www.w3.org/1999/xlink">
<g id="graph0" class="graph" transform="scale(1 1) rotate(0) translate(4 243)">
<title>GLAC/tests/performancetests.h</title>
<polygon fill="#ffffff" stroke="transparent" points="-4,4 -4,-243 179.7114,-243 179.7114,4 -4,4"/>
<!-- Node0 -->
<g id="node1" class="node">
<title>Node0</title>
<g id="a_node1"><a xlink:title=" ">
<polygon fill="#bfbfbf" stroke="#000000" points="10.2021,-220.5 10.2021,-238.5 165.7041,-238.5 165.7041,-220.5 10.2021,-220.5"/>
<text text-anchor="middle" x="87.9531" y="-226.5" font-family="Helvetica,sans-Serif" font-size="10.00" fill="#000000">GLAC/tests/performancetests.h</text>
</a>
</g>
</g>
<!-- Node1 -->
<g id="node2" class="node">
<title>Node1</title>
<g id="a_node2"><a xlink:href="su3matrixgenerator_8h.html" target="_top" xlink:title=" ">
<polygon fill="#ffffff" stroke="#000000" points=".1948,-165.5 .1948,-183.5 175.7114,-183.5 175.7114,-165.5 .1948,-165.5"/>
<text text-anchor="middle" x="87.9531" y="-171.5" font-family="Helvetica,sans-Serif" font-size="10.00" fill="#000000">math/matrices/su3matrixgenerator.h</text>
</a>
</g>
</g>
<!-- Node0&#45;&gt;Node1 -->
<g id="edge1" class="edge">
<title>Node0&#45;&gt;Node1</title>
<path fill="none" stroke="#191970" d="M87.9531,-220.4179C87.9531,-213.2164 87.9531,-202.8962 87.9531,-193.8632"/>
<polygon fill="#191970" stroke="#191970" points="91.4532,-193.7794 87.9531,-183.7795 84.4532,-193.7795 91.4532,-193.7794"/>
</g>
<!-- Node2 -->
<g id="node3" class="node">
<title>Node2</title>
<g id="a_node3"><a xlink:title=" ">
<polygon fill="#ffffff" stroke="#bfbfbf" points="0,-110.5 0,-128.5 49.9063,-128.5 49.9063,-110.5 0,-110.5"/>
<text text-anchor="middle" x="24.9531" y="-116.5" font-family="Helvetica,sans-Serif" font-size="10.00" fill="#000000">random</text>
</a>
</g>
</g>
<!-- Node1&#45;&gt;Node2 -->
<g id="edge2" class="edge">
<title>Node1&#45;&gt;Node2</title>
<path fill="none" stroke="#191970" d="M77.55,-165.4179C68.2132,-157.2667 54.2998,-145.1201 43.128,-135.3669"/>
<polygon fill="#191970" stroke="#191970" points="45.4173,-132.7194 35.5823,-128.7795 40.8137,-137.9927 45.4173,-132.7194"/>
</g>
<!-- Node3 -->
<g id="node4" class="node">
<title>Node3</title>
<g id="a_node4"><a xlink:href="su3_8h.html" target="_top" xlink:title=" ">
<polygon fill="#ffffff" stroke="#000000" points="67.7217,-110.5 67.7217,-128.5 108.1846,-128.5 108.1846,-110.5 67.7217,-110.5"/>
<text text-anchor="middle" x="87.9531" y="-116.5" font-family="Helvetica,sans-Serif" font-size="10.00" fill="#000000">su3.h</text>
</a>
</g>
</g>
<!-- Node1&#45;&gt;Node3 -->
<g id="edge3" class="edge">
<title>Node1&#45;&gt;Node3</title>
<path fill="none" stroke="#191970" d="M87.9531,-165.4179C87.9531,-158.2164 87.9531,-147.8962 87.9531,-138.8632"/>
<polygon fill="#191970" stroke="#191970" points="91.4532,-138.7794 87.9531,-128.7795 84.4532,-138.7795 91.4532,-138.7794"/>
</g>
<!-- Node6 -->
<g id="node7" class="node">
<title>Node6</title>
<g id="a_node7"><a xlink:href="su2_8h.html" target="_top" xlink:title=" ">
<polygon fill="#ffffff" stroke="#000000" points="125.7217,-110.5 125.7217,-128.5 166.1846,-128.5 166.1846,-110.5 125.7217,-110.5"/>
<text text-anchor="middle" x="145.9531" y="-116.5" font-family="Helvetica,sans-Serif" font-size="10.00" fill="#000000">su2.h</text>
</a>
</g>
</g>
<!-- Node1&#45;&gt;Node6 -->
<g id="edge6" class="edge">
<title>Node1&#45;&gt;Node6</title>
<path fill="none" stroke="#191970" d="M97.5306,-165.4179C105.9595,-157.425 118.4397,-145.5903 128.6188,-135.9377"/>
<polygon fill="#191970" stroke="#191970" points="131.3196,-138.2001 136.1675,-128.7795 126.5029,-133.1207 131.3196,-138.2001"/>
</g>
<!-- Node4 -->
<g id="node5" class="node">
<title>Node4</title>
<g id="a_node5"><a xlink:href="complex_8h.html" target="_top" xlink:title=" ">
<polygon fill="#ffffff" stroke="#000000" points="73.6602,-55.5 73.6602,-73.5 160.2461,-73.5 160.2461,-55.5 73.6602,-55.5"/>
<text text-anchor="middle" x="116.9531" y="-61.5" font-family="Helvetica,sans-Serif" font-size="10.00" fill="#000000">math/complex.h</text>
</a>
</g>
</g>
<!-- Node3&#45;&gt;Node4 -->
<g id="edge4" class="edge">
<title>Node3&#45;&gt;Node4</title>
<path fill="none" stroke="#191970" d="M92.7419,-110.4179C96.706,-102.8998 102.4622,-91.9829 107.3674,-82.6799"/>
<polygon fill="#191970" stroke="#191970" points="110.4922,-84.2576 112.0603,-73.7795 104.3002,-80.9927 110.4922,-84.2576"/>
</g>
<!-- Node5 -->
<g id="node6" class="node">
<title>Node5</title>
<g id="a_node6"><a xlink:title=" ">
<polygon fill="#ffffff" stroke="#bfbfbf" points="89.7808,-.5 89.7808,-18.5 144.1255,-18.5 144.1255,-.5 89.7808,-.5"/>
<text text-anchor="middle" x="116.9531" y="-6.5" font-family="Helvetica,sans-Serif" font-size="10.00" fill="#000000">iostream</text>
</a>
</g>
</g>
<!-- Node4&#45;&gt;Node5 -->
<g id="edge5" class="edge">
<title>Node4&#45;&gt;Node5</title>
<path fill="none" stroke="#191970" d="M116.9531,-55.4179C116.9531,-48.2164 116.9531,-37.8962 116.9531,-28.8632"/>
<polygon fill="#191970" stroke="#191970" points="120.4532,-28.7794 116.9531,-18.7795 113.4532,-28.7795 120.4532,-28.7794"/>
</g>
<!-- Node6&#45;&gt;Node4 -->
<g id="edge7" class="edge">
<title>Node6&#45;&gt;Node4</title>
<path fill="none" stroke="#191970" d="M141.1644,-110.4179C137.2003,-102.8998 131.4441,-91.9829 126.5389,-82.6799"/>
<polygon fill="#191970" stroke="#191970" points="129.6061,-80.9927 121.8459,-73.7795 123.4141,-84.2576 129.6061,-80.9927"/>
</g>
</g>
</svg>
