<?xml version="1.0" encoding="UTF-8" standalone="no"?>
<!DOCTYPE svg PUBLIC "-//W3C//DTD SVG 1.1//EN"
 "http://www.w3.org/Graphics/SVG/1.1/DTD/svg11.dtd">
<!-- Generated by graphviz version 2.40.1 (20161225.0304)
 -->
<!-- Title: GluonicLQCD/observables/plaquette.cpp Pages: 1 -->
<svg width="995pt" height="422pt"
 viewBox="0.00 0.00 994.69 422.00" xmlns="http://www.w3.org/2000/svg" xmlns:xlink="http://www.w3.org/1999/xlink">
<g id="graph0" class="graph" transform="scale(1 1) rotate(0) translate(4 418)">
<title>GluonicLQCD/observables/plaquette.cpp</title>
<polygon fill="#ffffff" stroke="transparent" points="-4,4 -4,-418 990.6922,-418 990.6922,4 -4,4"/>
<!-- Node0 -->
<g id="node1" class="node">
<title>Node0</title>
<g id="a_node1"><a xlink:title=" ">
<polygon fill="#bfbfbf" stroke="#000000" points="729.9857,-385.5 729.9857,-413.5 864.3743,-413.5 864.3743,-385.5 729.9857,-385.5"/>
<text text-anchor="start" x="737.9857" y="-401.5" font-family="Helvetica,sans-Serif" font-size="10.00" fill="#000000">GluonicLQCD/observables</text>
<text text-anchor="middle" x="797.18" y="-391.5" font-family="Helvetica,sans-Serif" font-size="10.00" fill="#000000">/plaquette.cpp</text>
</a>
</g>
</g>
<!-- Node1 -->
<g id="node2" class="node">
<title>Node1</title>
<g id="a_node2"><a xlink:href="plaquette_8h.html" target="_top" xlink:title=" ">
<polygon fill="#ffffff" stroke="#000000" points="140.4363,-330.5 140.4363,-348.5 205.9236,-348.5 205.9236,-330.5 140.4363,-330.5"/>
<text text-anchor="middle" x="173.18" y="-336.5" font-family="Helvetica,sans-Serif" font-size="10.00" fill="#000000">plaquette.h</text>
</a>
</g>
</g>
<!-- Node0&#45;&gt;Node1 -->
<g id="edge1" class="edge">
<title>Node0&#45;&gt;Node1</title>
<path fill="none" stroke="#191970" d="M729.8253,-396.0612C621.8597,-389.9981 403.5545,-375.472 220.18,-349 218.8823,-348.8127 217.5664,-348.6124 216.2394,-348.4016"/>
<polygon fill="#191970" stroke="#191970" points="216.4202,-344.8805 205.9683,-346.6155 215.2208,-351.7771 216.4202,-344.8805"/>
</g>
<!-- Node4 -->
<g id="node5" class="node">
<title>Node4</title>
<g id="a_node5"><a xlink:title=" ">
<polygon fill="#ffffff" stroke="#bfbfbf" points="227.5643,-110.5 227.5643,-128.5 270.7957,-128.5 270.7957,-110.5 227.5643,-110.5"/>
<text text-anchor="middle" x="249.18" y="-116.5" font-family="Helvetica,sans-Serif" font-size="10.00" fill="#000000">vector</text>
</a>
</g>
</g>
<!-- Node0&#45;&gt;Node4 -->
<g id="edge36" class="edge">
<title>Node0&#45;&gt;Node4</title>
<path fill="none" stroke="#191970" d="M797.18,-385.3366C797.18,-363.6319 797.18,-320.8368 797.18,-284.5 797.18,-284.5 797.18,-284.5 797.18,-229.5 797.18,-199.6154 801.322,-183.9086 778.18,-165 758.8372,-149.1956 392.9217,-127.5308 281.2604,-121.2636"/>
<polygon fill="#191970" stroke="#191970" points="281.1531,-117.7523 270.9736,-120.6896 280.763,-124.7414 281.1531,-117.7523"/>
</g>
<!-- Node10 -->
<g id="node11" class="node">
<title>Node10</title>
<g id="a_node11"><a xlink:href="functions_8h.html" target="_top" xlink:title=" ">
<polygon fill="#ffffff" stroke="#000000" points="824.9979,-165.5 824.9979,-183.5 889.3621,-183.5 889.3621,-165.5 824.9979,-165.5"/>
<text text-anchor="middle" x="857.18" y="-171.5" font-family="Helvetica,sans-Serif" font-size="10.00" fill="#000000">functions.h</text>
</a>
</g>
</g>
<!-- Node0&#45;&gt;Node10 -->
<g id="edge26" class="edge">
<title>Node0&#45;&gt;Node10</title>
<path fill="none" stroke="#191970" d="M801.1505,-385.3641C803.9799,-375.2461 807.8552,-361.2956 811.18,-349 826.4696,-292.457 843.9608,-225.4331 852.2834,-193.3933"/>
<polygon fill="#191970" stroke="#191970" points="855.7022,-194.1525 854.8262,-183.5939 848.9266,-192.3943 855.7022,-194.1525"/>
</g>
<!-- Node17 -->
<g id="node18" class="node">
<title>Node17</title>
<g id="a_node18"><a xlink:href="links_8h.html" target="_top" xlink:title=" ">
<polygon fill="#ffffff" stroke="#000000" points="882.5028,-275.5 882.5028,-293.5 951.8572,-293.5 951.8572,-275.5 882.5028,-275.5"/>
<text text-anchor="middle" x="917.18" y="-281.5" font-family="Helvetica,sans-Serif" font-size="10.00" fill="#000000">math/links.h</text>
</a>
</g>
</g>
<!-- Node0&#45;&gt;Node17 -->
<g id="edge24" class="edge">
<title>Node0&#45;&gt;Node17</title>
<path fill="none" stroke="#191970" d="M811.8944,-385.3987C834.176,-364.0455 876.3783,-323.6017 900.0235,-300.9417"/>
<polygon fill="#191970" stroke="#191970" points="902.7519,-303.1747 907.5501,-293.7286 897.9085,-298.1208 902.7519,-303.1747"/>
</g>
<!-- Node18 -->
<g id="node19" class="node">
<title>Node18</title>
<g id="a_node19"><a xlink:href="parallel_8h.html" target="_top" xlink:title=" ">
<polygon fill="#ffffff" stroke="#000000" points="447.9266,-330.5 447.9266,-348.5 568.4334,-348.5 568.4334,-330.5 447.9266,-330.5"/>
<text text-anchor="middle" x="508.18" y="-336.5" font-family="Helvetica,sans-Serif" font-size="10.00" fill="#000000">parallelization/parallel.h</text>
</a>
</g>
</g>
<!-- Node0&#45;&gt;Node18 -->
<g id="edge27" class="edge">
<title>Node0&#45;&gt;Node18</title>
<path fill="none" stroke="#191970" d="M729.7871,-385.5084C678.6639,-374.8946 609.3302,-360.5 561.9113,-350.6553"/>
<polygon fill="#191970" stroke="#191970" points="562.3457,-347.1709 551.843,-348.565 560.9227,-354.0248 562.3457,-347.1709"/>
</g>
<!-- Node20 -->
<g id="node21" class="node">
<title>Node20</title>
<g id="a_node21"><a xlink:href="parameters_8h.html" target="_top" xlink:title=" ">
<polygon fill="#ffffff" stroke="#000000" points="151.9905,-220.5 151.9905,-238.5 256.3695,-238.5 256.3695,-220.5 151.9905,-220.5"/>
<text text-anchor="middle" x="204.18" y="-226.5" font-family="Helvetica,sans-Serif" font-size="10.00" fill="#000000">config/parameters.h</text>
</a>
</g>
</g>
<!-- Node0&#45;&gt;Node20 -->
<g id="edge33" class="edge">
<title>Node0&#45;&gt;Node20</title>
<path fill="none" stroke="#191970" d="M729.7856,-394.022C657.2543,-387.1952 538.8754,-373.3493 439.18,-349 367.7629,-331.5573 347.2753,-330.0061 283.18,-294 259.4746,-280.6833 235.7826,-260.134 220.6177,-245.8209"/>
<polygon fill="#191970" stroke="#191970" points="222.7525,-243.0173 213.1241,-238.5962 217.894,-248.0567 222.7525,-243.0173"/>
</g>
<!-- Node21 -->
<g id="node22" class="node">
<title>Node21</title>
<g id="a_node22"><a xlink:title=" ">
<polygon fill="#ffffff" stroke="#bfbfbf" points="901.5643,-330.5 901.5643,-348.5 944.7957,-348.5 944.7957,-330.5 901.5643,-330.5"/>
<text text-anchor="middle" x="923.18" y="-336.5" font-family="Helvetica,sans-Serif" font-size="10.00" fill="#000000">cmath</text>
</a>
</g>
</g>
<!-- Node0&#45;&gt;Node21 -->
<g id="edge37" class="edge">
<title>Node0&#45;&gt;Node21</title>
<path fill="none" stroke="#191970" d="M826.7214,-385.4327C847.3176,-375.625 874.6349,-362.6167 894.9398,-352.9477"/>
<polygon fill="#191970" stroke="#191970" points="896.4809,-356.0905 904.0048,-348.6311 893.4714,-349.7704 896.4809,-356.0905"/>
</g>
<!-- Node2 -->
<g id="node3" class="node">
<title>Node2</title>
<g id="a_node3"><a xlink:href="correlator_8h.html" target="_top" xlink:title=" ">
<polygon fill="#ffffff" stroke="#000000" points="75.1653,-275.5 75.1653,-293.5 141.1946,-293.5 141.1946,-275.5 75.1653,-275.5"/>
<text text-anchor="middle" x="108.18" y="-281.5" font-family="Helvetica,sans-Serif" font-size="10.00" fill="#000000">correlator.h</text>
</a>
</g>
</g>
<!-- Node1&#45;&gt;Node2 -->
<g id="edge2" class="edge">
<title>Node1&#45;&gt;Node2</title>
<path fill="none" stroke="#191970" d="M162.4466,-330.4179C152.8134,-322.2667 138.4583,-310.1201 126.9318,-300.3669"/>
<polygon fill="#191970" stroke="#191970" points="129.0413,-297.5671 119.1466,-293.7795 124.5197,-302.9108 129.0413,-297.5671"/>
</g>
<!-- Node3 -->
<g id="node4" class="node">
<title>Node3</title>
<g id="a_node4"><a xlink:href="lattice_8h.html" target="_top" xlink:title=" ">
<polygon fill="#ffffff" stroke="#000000" points="434.4437,-220.5 434.4437,-238.5 509.9163,-238.5 509.9163,-220.5 434.4437,-220.5"/>
<text text-anchor="middle" x="472.18" y="-226.5" font-family="Helvetica,sans-Serif" font-size="10.00" fill="#000000">math/lattice.h</text>
</a>
</g>
</g>
<!-- Node2&#45;&gt;Node3 -->
<g id="edge3" class="edge">
<title>Node2&#45;&gt;Node3</title>
<path fill="none" stroke="#191970" d="M141.4475,-279.4733C206.1485,-269.6971 349.1455,-248.0904 424.1413,-236.7586"/>
<polygon fill="#191970" stroke="#191970" points="424.8922,-240.1849 434.2571,-235.2301 423.8464,-233.2635 424.8922,-240.1849"/>
</g>
<!-- Node2&#45;&gt;Node4 -->
<g id="edge23" class="edge">
<title>Node2&#45;&gt;Node4</title>
<path fill="none" stroke="#191970" d="M75.0619,-278.5548C38.5074,-270.2754 -13.1555,-252.4945 3.18,-220 21.5855,-183.3879 40.2615,-182.783 77.18,-165 123.2052,-142.8304 181.5516,-130.3152 217.0884,-124.2332"/>
<polygon fill="#191970" stroke="#191970" points="218.0453,-127.6231 227.3459,-122.5487 216.9108,-120.7156 218.0453,-127.6231"/>
</g>
<!-- Node15 -->
<g id="node16" class="node">
<title>Node15</title>
<g id="a_node16"><a xlink:href="observablestorer_8h.html" target="_top" xlink:title=" ">
<polygon fill="#ffffff" stroke="#000000" points="12.0916,-220.5 12.0916,-238.5 134.2684,-238.5 134.2684,-220.5 12.0916,-220.5"/>
<text text-anchor="middle" x="73.18" y="-226.5" font-family="Helvetica,sans-Serif" font-size="10.00" fill="#000000">tools/observablestorer.h</text>
</a>
</g>
</g>
<!-- Node2&#45;&gt;Node15 -->
<g id="edge20" class="edge">
<title>Node2&#45;&gt;Node15</title>
<path fill="none" stroke="#191970" d="M102.4005,-275.4179C97.5659,-267.8207 90.5226,-256.7527 84.5624,-247.3866"/>
<polygon fill="#191970" stroke="#191970" points="87.4067,-245.337 79.0851,-238.7795 81.5011,-249.0952 87.4067,-245.337"/>
</g>
<!-- Node3&#45;&gt;Node4 -->
<g id="edge4" class="edge">
<title>Node3&#45;&gt;Node4</title>
<path fill="none" stroke="#191970" d="M457.0666,-220.4217C435.1837,-207.4334 393.2344,-183.1176 356.18,-165 331.1756,-152.7742 302.066,-140.5188 280.527,-131.8124"/>
<polygon fill="#191970" stroke="#191970" points="281.7897,-128.5478 271.2054,-128.0747 279.1845,-135.045 281.7897,-128.5478"/>
</g>
<!-- Node5 -->
<g id="node6" class="node">
<title>Node5</title>
<g id="a_node6"><a xlink:title=" ">
<polygon fill="#ffffff" stroke="#bfbfbf" points="605.9534,-110.5 605.9534,-128.5 646.4066,-128.5 646.4066,-110.5 605.9534,-110.5"/>
<text text-anchor="middle" x="626.18" y="-116.5" font-family="Helvetica,sans-Serif" font-size="10.00" fill="#000000">mpi.h</text>
</a>
</g>
</g>
<!-- Node3&#45;&gt;Node5 -->
<g id="edge5" class="edge">
<title>Node3&#45;&gt;Node5</title>
<path fill="none" stroke="#191970" d="M489.7611,-220.3967C505.935,-211.7567 530.3453,-198.0378 550.18,-184 571.3952,-168.9851 593.8756,-149.3881 608.8347,-135.7532"/>
<polygon fill="#191970" stroke="#191970" points="611.3343,-138.2093 616.3158,-128.8586 606.5904,-133.0619 611.3343,-138.2093"/>
</g>
<!-- Node6 -->
<g id="node7" class="node">
<title>Node6</title>
<g id="a_node7"><a xlink:href="index_8h.html" target="_top" xlink:title=" ">
<polygon fill="#ffffff" stroke="#000000" points="235.0941,-165.5 235.0941,-183.5 347.2659,-183.5 347.2659,-165.5 235.0941,-165.5"/>
<text text-anchor="middle" x="291.18" y="-171.5" font-family="Helvetica,sans-Serif" font-size="10.00" fill="#000000">parallelization/index.h</text>
</a>
</g>
</g>
<!-- Node3&#45;&gt;Node6 -->
<g id="edge6" class="edge">
<title>Node3&#45;&gt;Node6</title>
<path fill="none" stroke="#191970" d="M442.2915,-220.4179C411.8082,-211.155 364.345,-196.7325 330.7565,-186.526"/>
<polygon fill="#191970" stroke="#191970" points="331.3977,-183.0629 320.812,-183.5042 329.3624,-189.7605 331.3977,-183.0629"/>
</g>
<!-- Node7 -->
<g id="node8" class="node">
<title>Node7</title>
<g id="a_node8"><a xlink:href="neighbours_8h.html" target="_top" xlink:title=" ">
<polygon fill="#ffffff" stroke="#000000" points="403.306,-165.5 403.306,-183.5 541.054,-183.5 541.054,-165.5 403.306,-165.5"/>
<text text-anchor="middle" x="472.18" y="-171.5" font-family="Helvetica,sans-Serif" font-size="10.00" fill="#000000">parallelization/neighbours.h</text>
</a>
</g>
</g>
<!-- Node3&#45;&gt;Node7 -->
<g id="edge8" class="edge">
<title>Node3&#45;&gt;Node7</title>
<path fill="none" stroke="#191970" d="M472.18,-220.4179C472.18,-213.2164 472.18,-202.8962 472.18,-193.8632"/>
<polygon fill="#191970" stroke="#191970" points="475.6801,-193.7794 472.18,-183.7795 468.6801,-193.7795 475.6801,-193.7794"/>
</g>
<!-- Node9 -->
<g id="node10" class="node">
<title>Node9</title>
<g id="a_node10"><a xlink:href="parallelparameters_8h.html" target="_top" xlink:title=" ">
<polygon fill="#ffffff" stroke="#000000" points="597.6385,-165.5 597.6385,-183.5 768.7215,-183.5 768.7215,-165.5 597.6385,-165.5"/>
<text text-anchor="middle" x="683.18" y="-171.5" font-family="Helvetica,sans-Serif" font-size="10.00" fill="#000000">parallelization/parallelparameters.h</text>
</a>
</g>
</g>
<!-- Node3&#45;&gt;Node9 -->
<g id="edge11" class="edge">
<title>Node3&#45;&gt;Node9</title>
<path fill="none" stroke="#191970" d="M507.0224,-220.4179C543.0943,-211.0152 599.5621,-196.2961 638.8049,-186.067"/>
<polygon fill="#191970" stroke="#191970" points="639.8428,-189.4135 648.6366,-183.5042 638.0771,-182.6398 639.8428,-189.4135"/>
</g>
<!-- Node3&#45;&gt;Node10 -->
<g id="edge13" class="edge">
<title>Node3&#45;&gt;Node10</title>
<path fill="none" stroke="#191970" d="M510.1489,-224.0759C582.4415,-213.7484 739.3645,-191.3308 814.8913,-180.5412"/>
<polygon fill="#191970" stroke="#191970" points="815.5864,-183.9776 824.9909,-179.0984 814.5964,-177.0479 815.5864,-183.9776"/>
</g>
<!-- Node6&#45;&gt;Node4 -->
<g id="edge7" class="edge">
<title>Node6&#45;&gt;Node4</title>
<path fill="none" stroke="#191970" d="M284.2446,-165.4179C278.3222,-157.6624 269.6378,-146.29 262.3936,-136.8035"/>
<polygon fill="#191970" stroke="#191970" points="265.117,-134.6029 256.2661,-128.7795 259.5536,-138.8514 265.117,-134.6029"/>
</g>
<!-- Node7&#45;&gt;Node4 -->
<g id="edge10" class="edge">
<title>Node7&#45;&gt;Node4</title>
<path fill="none" stroke="#191970" d="M435.3561,-165.4179C392.2254,-154.7803 321.5046,-137.3379 280.7689,-127.291"/>
<polygon fill="#191970" stroke="#191970" points="281.3977,-123.8413 270.8505,-124.8447 279.7214,-130.6376 281.3977,-123.8413"/>
</g>
<!-- Node8 -->
<g id="node9" class="node">
<title>Node8</title>
<g id="a_node9"><a xlink:href="neighbourlist_8h.html" target="_top" xlink:title=" ">
<polygon fill="#ffffff" stroke="#000000" points="431.658,-110.5 431.658,-128.5 512.702,-128.5 512.702,-110.5 431.658,-110.5"/>
<text text-anchor="middle" x="472.18" y="-116.5" font-family="Helvetica,sans-Serif" font-size="10.00" fill="#000000">neighbourlist.h</text>
</a>
</g>
</g>
<!-- Node7&#45;&gt;Node8 -->
<g id="edge9" class="edge">
<title>Node7&#45;&gt;Node8</title>
<path fill="none" stroke="#191970" d="M472.18,-165.4179C472.18,-158.2164 472.18,-147.8962 472.18,-138.8632"/>
<polygon fill="#191970" stroke="#191970" points="475.6801,-138.7794 472.18,-128.7795 468.6801,-138.7795 475.6801,-138.7794"/>
</g>
<!-- Node9&#45;&gt;Node5 -->
<g id="edge12" class="edge">
<title>Node9&#45;&gt;Node5</title>
<path fill="none" stroke="#191970" d="M673.7676,-165.4179C665.4841,-157.425 653.2191,-145.5903 643.2155,-135.9377"/>
<polygon fill="#191970" stroke="#191970" points="645.4234,-133.2045 635.7969,-128.7795 640.5628,-138.2419 645.4234,-133.2045"/>
</g>
<!-- Node11 -->
<g id="node12" class="node">
<title>Node11</title>
<g id="a_node12"><a xlink:href="su3_8h.html" target="_top" xlink:title=" ">
<polygon fill="#ffffff" stroke="#000000" points="905.6678,-110.5 905.6678,-128.5 986.6922,-128.5 986.6922,-110.5 905.6678,-110.5"/>
<text text-anchor="middle" x="946.18" y="-116.5" font-family="Helvetica,sans-Serif" font-size="10.00" fill="#000000">matrices/su3.h</text>
</a>
</g>
</g>
<!-- Node10&#45;&gt;Node11 -->
<g id="edge14" class="edge">
<title>Node10&#45;&gt;Node11</title>
<path fill="none" stroke="#191970" d="M871.8765,-165.4179C885.6614,-156.8992 906.5077,-144.0166 922.6149,-134.0627"/>
<polygon fill="#191970" stroke="#191970" points="924.7948,-136.83 931.4616,-128.5956 921.1149,-130.8753 924.7948,-136.83"/>
</g>
<!-- Node12 -->
<g id="node13" class="node">
<title>Node12</title>
<g id="a_node13"><a xlink:href="complex_8h.html" target="_top" xlink:title=" ">
<polygon fill="#ffffff" stroke="#000000" points="803.887,-55.5 803.887,-73.5 890.473,-73.5 890.473,-55.5 803.887,-55.5"/>
<text text-anchor="middle" x="847.18" y="-61.5" font-family="Helvetica,sans-Serif" font-size="10.00" fill="#000000">math/complex.h</text>
</a>
</g>
</g>
<!-- Node10&#45;&gt;Node12 -->
<g id="edge19" class="edge">
<title>Node10&#45;&gt;Node12</title>
<path fill="none" stroke="#191970" d="M836.9949,-165.3585C822.9953,-157.8069 805.4379,-145.626 797.18,-129 787.8949,-110.3059 805.8547,-91.7674 822.777,-79.3962"/>
<polygon fill="#191970" stroke="#191970" points="825.097,-82.0503 831.382,-73.521 821.1498,-76.2693 825.097,-82.0503"/>
</g>
<!-- Node14 -->
<g id="node15" class="node">
<title>Node14</title>
<g id="a_node15"><a xlink:href="su2_8h.html" target="_top" xlink:title=" ">
<polygon fill="#ffffff" stroke="#000000" points="806.6678,-110.5 806.6678,-128.5 887.6922,-128.5 887.6922,-110.5 806.6678,-110.5"/>
<text text-anchor="middle" x="847.18" y="-116.5" font-family="Helvetica,sans-Serif" font-size="10.00" fill="#000000">matrices/su2.h</text>
</a>
</g>
</g>
<!-- Node10&#45;&gt;Node14 -->
<g id="edge17" class="edge">
<title>Node10&#45;&gt;Node14</title>
<path fill="none" stroke="#191970" d="M855.5287,-165.4179C854.2193,-158.2164 852.3429,-147.8962 850.7006,-138.8632"/>
<polygon fill="#191970" stroke="#191970" points="854.0997,-137.992 848.8672,-128.7795 847.2126,-139.2443 854.0997,-137.992"/>
</g>
<!-- Node11&#45;&gt;Node12 -->
<g id="edge15" class="edge">
<title>Node11&#45;&gt;Node12</title>
<path fill="none" stroke="#191970" d="M929.8322,-110.4179C914.2119,-101.7399 890.4402,-88.5334 872.3938,-78.5077"/>
<polygon fill="#191970" stroke="#191970" points="873.9935,-75.3925 863.5521,-73.5956 870.5939,-81.5117 873.9935,-75.3925"/>
</g>
<!-- Node13 -->
<g id="node14" class="node">
<title>Node13</title>
<g id="a_node14"><a xlink:title=" ">
<polygon fill="#ffffff" stroke="#bfbfbf" points="820.0076,-.5 820.0076,-18.5 874.3524,-18.5 874.3524,-.5 820.0076,-.5"/>
<text text-anchor="middle" x="847.18" y="-6.5" font-family="Helvetica,sans-Serif" font-size="10.00" fill="#000000">iostream</text>
</a>
</g>
</g>
<!-- Node12&#45;&gt;Node13 -->
<g id="edge16" class="edge">
<title>Node12&#45;&gt;Node13</title>
<path fill="none" stroke="#191970" d="M847.18,-55.4179C847.18,-48.2164 847.18,-37.8962 847.18,-28.8632"/>
<polygon fill="#191970" stroke="#191970" points="850.6801,-28.7794 847.18,-18.7795 843.6801,-28.7795 850.6801,-28.7794"/>
</g>
<!-- Node14&#45;&gt;Node12 -->
<g id="edge18" class="edge">
<title>Node14&#45;&gt;Node12</title>
<path fill="none" stroke="#191970" d="M847.18,-110.4179C847.18,-103.2164 847.18,-92.8962 847.18,-83.8632"/>
<polygon fill="#191970" stroke="#191970" points="850.6801,-83.7794 847.18,-73.7795 843.6801,-83.7795 850.6801,-83.7794"/>
</g>
<!-- Node15&#45;&gt;Node4 -->
<g id="edge22" class="edge">
<title>Node15&#45;&gt;Node4</title>
<path fill="none" stroke="#191970" d="M73.2508,-220.2051C73.8724,-206.2666 77.1238,-179.9902 92.18,-165 109.8015,-147.4557 176.8692,-132.6096 217.4285,-124.989"/>
<polygon fill="#191970" stroke="#191970" points="218.1632,-128.4127 227.3678,-123.1661 216.9004,-121.5275 218.1632,-128.4127"/>
</g>
<!-- Node16 -->
<g id="node17" class="node">
<title>Node16</title>
<g id="a_node17"><a xlink:title=" ">
<polygon fill="#ffffff" stroke="#bfbfbf" points="100.9534,-165.5 100.9534,-183.5 141.4066,-183.5 141.4066,-165.5 100.9534,-165.5"/>
<text text-anchor="middle" x="121.18" y="-171.5" font-family="Helvetica,sans-Serif" font-size="10.00" fill="#000000">string</text>
</a>
</g>
</g>
<!-- Node15&#45;&gt;Node16 -->
<g id="edge21" class="edge">
<title>Node15&#45;&gt;Node16</title>
<path fill="none" stroke="#191970" d="M81.1062,-220.4179C87.9437,-212.5833 98.0025,-201.0575 106.3317,-191.5137"/>
<polygon fill="#191970" stroke="#191970" points="109.1432,-193.6151 113.0816,-183.7795 103.8692,-189.0123 109.1432,-193.6151"/>
</g>
<!-- Node17&#45;&gt;Node11 -->
<g id="edge25" class="edge">
<title>Node17&#45;&gt;Node11</title>
<path fill="none" stroke="#191970" d="M918.8223,-275.1561C923.4281,-248.9504 936.5387,-174.3557 942.7875,-138.8021"/>
<polygon fill="#191970" stroke="#191970" points="946.2718,-139.1963 944.5558,-128.7414 939.3775,-137.9845 946.2718,-139.1963"/>
</g>
<!-- Node18&#45;&gt;Node6 -->
<g id="edge31" class="edge">
<title>Node18&#45;&gt;Node6</title>
<path fill="none" stroke="#191970" d="M496.204,-330.3939C460.6359,-303.349 355.3541,-223.2959 311.1143,-189.6574"/>
<polygon fill="#191970" stroke="#191970" points="313.1976,-186.8447 303.1189,-183.578 308.9607,-192.4168 313.1976,-186.8447"/>
</g>
<!-- Node18&#45;&gt;Node9 -->
<g id="edge32" class="edge">
<title>Node18&#45;&gt;Node9</title>
<path fill="none" stroke="#191970" d="M517.838,-330.3939C546.2164,-303.6372 629.6237,-224.996 665.9468,-190.7484"/>
<polygon fill="#191970" stroke="#191970" points="668.4612,-193.1881 673.3361,-183.7814 663.6591,-188.095 668.4612,-193.1881"/>
</g>
<!-- Node19 -->
<g id="node20" class="node">
<title>Node19</title>
<g id="a_node20"><a xlink:href="communicator_8h.html" target="_top" xlink:title=" ">
<polygon fill="#ffffff" stroke="#000000" points="291.8846,-275.5 291.8846,-293.5 378.4754,-293.5 378.4754,-275.5 291.8846,-275.5"/>
<text text-anchor="middle" x="335.18" y="-281.5" font-family="Helvetica,sans-Serif" font-size="10.00" fill="#000000">communicator.h</text>
</a>
</g>
</g>
<!-- Node18&#45;&gt;Node19 -->
<g id="edge28" class="edge">
<title>Node18&#45;&gt;Node19</title>
<path fill="none" stroke="#191970" d="M479.6126,-330.4179C450.6021,-321.1949 405.502,-306.8567 373.4231,-296.6582"/>
<polygon fill="#191970" stroke="#191970" points="374.0928,-293.1985 363.5023,-293.5042 371.9719,-299.8695 374.0928,-293.1985"/>
</g>
<!-- Node19&#45;&gt;Node3 -->
<g id="edge30" class="edge">
<title>Node19&#45;&gt;Node3</title>
<path fill="none" stroke="#191970" d="M357.8028,-275.4179C380.212,-266.4215 414.7445,-252.5581 440.0045,-242.4172"/>
<polygon fill="#191970" stroke="#191970" points="441.5475,-245.5693 449.5236,-238.5956 438.9396,-239.0732 441.5475,-245.5693"/>
</g>
<!-- Node19&#45;&gt;Node4 -->
<g id="edge29" class="edge">
<title>Node19&#45;&gt;Node4</title>
<path fill="none" stroke="#191970" d="M325.1298,-275.2455C298.1685,-250.4175 226.2639,-184.1916 226.18,-184 219.4226,-168.5783 227.1812,-150.4793 235.4627,-137.3852"/>
<polygon fill="#191970" stroke="#191970" points="238.5626,-139.0569 241.3853,-128.845 232.8105,-135.0678 238.5626,-139.0569"/>
</g>
<!-- Node20&#45;&gt;Node4 -->
<g id="edge35" class="edge">
<title>Node20&#45;&gt;Node4</title>
<path fill="none" stroke="#191970" d="M199.3185,-220.2701C193.2026,-207.3088 184.49,-183.2575 193.18,-165 199.2972,-152.148 211.0162,-141.7411 222.1593,-134.1407"/>
<polygon fill="#191970" stroke="#191970" points="224.2651,-136.9505 230.8543,-128.6539 220.5294,-131.0306 224.2651,-136.9505"/>
</g>
<!-- Node20&#45;&gt;Node16 -->
<g id="edge34" class="edge">
<title>Node20&#45;&gt;Node16</title>
<path fill="none" stroke="#191970" d="M190.4742,-220.4179C177.7389,-211.9788 158.5405,-199.257 143.5788,-189.3426"/>
<polygon fill="#191970" stroke="#191970" points="145.1754,-186.2019 134.9061,-183.5956 141.3087,-192.037 145.1754,-186.2019"/>
</g>
</g>
</svg>
