<?xml version="1.0" encoding="UTF-8" standalone="no"?>
<!DOCTYPE svg PUBLIC "-//W3C//DTD SVG 1.1//EN"
 "http://www.w3.org/Graphics/SVG/1.1/DTD/svg11.dtd">
<!-- Generated by graphviz version 2.40.1 (20161225.0304)
 -->
<!-- Title: GluonicLQCD/observables/plaquette.cpp Pages: 1 -->
<svg width="1139pt" height="422pt"
 viewBox="0.00 0.00 1139.13 422.00" xmlns="http://www.w3.org/2000/svg" xmlns:xlink="http://www.w3.org/1999/xlink">
<g id="graph0" class="graph" transform="scale(1 1) rotate(0) translate(4 418)">
<title>GluonicLQCD/observables/plaquette.cpp</title>
<polygon fill="#ffffff" stroke="transparent" points="-4,4 -4,-418 1135.1279,-418 1135.1279,4 -4,4"/>
<!-- Node0 -->
<g id="node1" class="node">
<title>Node0</title>
<g id="a_node1"><a xlink:title=" ">
<polygon fill="#bfbfbf" stroke="#000000" points="811.3179,-385.5 811.3179,-413.5 945.7065,-413.5 945.7065,-385.5 811.3179,-385.5"/>
<text text-anchor="start" x="819.3179" y="-401.5" font-family="Helvetica,sans-Serif" font-size="10.00" fill="#000000">GluonicLQCD/observables</text>
<text text-anchor="middle" x="878.5122" y="-391.5" font-family="Helvetica,sans-Serif" font-size="10.00" fill="#000000">/plaquette.cpp</text>
</a>
</g>
</g>
<!-- Node1 -->
<g id="node2" class="node">
<title>Node1</title>
<g id="a_node2"><a xlink:href="plaquette_8h.html" target="_top" xlink:title=" ">
<polygon fill="#ffffff" stroke="#000000" points="815.7686,-330.5 815.7686,-348.5 881.2559,-348.5 881.2559,-330.5 815.7686,-330.5"/>
<text text-anchor="middle" x="848.5122" y="-336.5" font-family="Helvetica,sans-Serif" font-size="10.00" fill="#000000">plaquette.h</text>
</a>
</g>
</g>
<!-- Node0&#45;&gt;Node1 -->
<g id="edge1" class="edge">
<title>Node0&#45;&gt;Node1</title>
<path fill="none" stroke="#191970" d="M871.4026,-385.2808C867.2734,-377.0224 862.0289,-366.5335 857.602,-357.6796"/>
<polygon fill="#191970" stroke="#191970" points="860.657,-355.9632 853.0543,-348.5842 854.396,-359.0937 860.657,-355.9632"/>
</g>
<!-- Node4 -->
<g id="node5" class="node">
<title>Node4</title>
<g id="a_node5"><a xlink:title=" ">
<polygon fill="#ffffff" stroke="#bfbfbf" points="718.8965,-110.5 718.8965,-128.5 762.1279,-128.5 762.1279,-110.5 718.8965,-110.5"/>
<text text-anchor="middle" x="740.5122" y="-116.5" font-family="Helvetica,sans-Serif" font-size="10.00" fill="#000000">vector</text>
</a>
</g>
</g>
<!-- Node0&#45;&gt;Node4 -->
<g id="edge34" class="edge">
<title>Node0&#45;&gt;Node4</title>
<path fill="none" stroke="#191970" d="M945.6527,-385.4773C997.1635,-370.328 1059.5122,-340.4377 1059.5122,-284.5 1059.5122,-284.5 1059.5122,-284.5 1059.5122,-229.5 1059.5122,-169.1601 852.9507,-134.7021 772.2642,-123.5439"/>
<polygon fill="#191970" stroke="#191970" points="772.5664,-120.053 762.1876,-122.1816 771.6285,-126.9899 772.5664,-120.053"/>
</g>
<!-- Node10 -->
<g id="node11" class="node">
<title>Node10</title>
<g id="a_node11"><a xlink:href="functions_8h.html" target="_top" xlink:title=" ">
<polygon fill="#ffffff" stroke="#000000" points="77.3301,-165.5 77.3301,-183.5 141.6943,-183.5 141.6943,-165.5 77.3301,-165.5"/>
<text text-anchor="middle" x="109.5122" y="-171.5" font-family="Helvetica,sans-Serif" font-size="10.00" fill="#000000">functions.h</text>
</a>
</g>
</g>
<!-- Node0&#45;&gt;Node10 -->
<g id="edge24" class="edge">
<title>Node0&#45;&gt;Node10</title>
<path fill="none" stroke="#191970" d="M811.2021,-390.7429C753.4212,-382.4547 668.2073,-368.3892 595.5122,-349 419.3522,-302.0146 216.37,-219.5557 140.3539,-187.6363"/>
<polygon fill="#191970" stroke="#191970" points="141.471,-184.309 130.8967,-183.6504 138.7523,-190.7595 141.471,-184.309"/>
</g>
<!-- Node17 -->
<g id="node18" class="node">
<title>Node17</title>
<g id="a_node18"><a xlink:href="parallel_8h.html" target="_top" xlink:title=" ">
<polygon fill="#ffffff" stroke="#000000" points="604.2588,-330.5 604.2588,-348.5 724.7656,-348.5 724.7656,-330.5 604.2588,-330.5"/>
<text text-anchor="middle" x="664.5122" y="-336.5" font-family="Helvetica,sans-Serif" font-size="10.00" fill="#000000">parallelization/parallel.h</text>
</a>
</g>
</g>
<!-- Node0&#45;&gt;Node17 -->
<g id="edge25" class="edge">
<title>Node0&#45;&gt;Node17</title>
<path fill="none" stroke="#191970" d="M828.3387,-385.4327C791.346,-375.0609 741.5873,-361.1098 706.6481,-351.3138"/>
<polygon fill="#191970" stroke="#191970" points="707.3346,-347.8714 696.761,-348.5417 705.4448,-354.6115 707.3346,-347.8714"/>
</g>
<!-- Node19 -->
<g id="node20" class="node">
<title>Node19</title>
<g id="a_node20"><a xlink:href="parameters_8h.html" target="_top" xlink:title=" ">
<polygon fill="#ffffff" stroke="#000000" points="927.3228,-220.5 927.3228,-238.5 1031.7017,-238.5 1031.7017,-220.5 927.3228,-220.5"/>
<text text-anchor="middle" x="979.5122" y="-226.5" font-family="Helvetica,sans-Serif" font-size="10.00" fill="#000000">config/parameters.h</text>
</a>
</g>
</g>
<!-- Node0&#45;&gt;Node19 -->
<g id="edge31" class="edge">
<title>Node0&#45;&gt;Node19</title>
<path fill="none" stroke="#191970" d="M886.9497,-385.2983C905.2458,-354.5029 948.5461,-281.6211 968.7642,-247.5907"/>
<polygon fill="#191970" stroke="#191970" points="971.9317,-249.1115 974.0305,-238.7266 965.9137,-245.5361 971.9317,-249.1115"/>
</g>
<!-- Node20 -->
<g id="node21" class="node">
<title>Node20</title>
<g id="a_node21"><a xlink:title=" ">
<polygon fill="#ffffff" stroke="#bfbfbf" points="1087.8965,-330.5 1087.8965,-348.5 1131.1279,-348.5 1131.1279,-330.5 1087.8965,-330.5"/>
<text text-anchor="middle" x="1109.5122" y="-336.5" font-family="Helvetica,sans-Serif" font-size="10.00" fill="#000000">cmath</text>
</a>
</g>
</g>
<!-- Node0&#45;&gt;Node20 -->
<g id="edge35" class="edge">
<title>Node0&#45;&gt;Node20</title>
<path fill="none" stroke="#191970" d="M933.1646,-385.4181C972.2663,-375.3255 1026.1447,-361.3833 1073.5122,-349 1074.9584,-348.6219 1076.4371,-348.2346 1077.9305,-347.8429"/>
<polygon fill="#191970" stroke="#191970" points="1079.0338,-351.1718 1087.8145,-345.243 1077.253,-344.4021 1079.0338,-351.1718"/>
</g>
<!-- Node2 -->
<g id="node3" class="node">
<title>Node2</title>
<g id="a_node3"><a xlink:href="correlator_8h.html" target="_top" xlink:title=" ">
<polygon fill="#ffffff" stroke="#000000" points="792.4976,-275.5 792.4976,-293.5 858.5269,-293.5 858.5269,-275.5 792.4976,-275.5"/>
<text text-anchor="middle" x="825.5122" y="-281.5" font-family="Helvetica,sans-Serif" font-size="10.00" fill="#000000">correlator.h</text>
</a>
</g>
</g>
<!-- Node1&#45;&gt;Node2 -->
<g id="edge2" class="edge">
<title>Node1&#45;&gt;Node2</title>
<path fill="none" stroke="#191970" d="M844.7142,-330.4179C841.6365,-323.0581 837.1966,-312.441 833.3613,-303.2695"/>
<polygon fill="#191970" stroke="#191970" points="836.4799,-301.6549 829.3927,-293.7795 830.0218,-304.3556 836.4799,-301.6549"/>
</g>
<!-- Node3 -->
<g id="node4" class="node">
<title>Node3</title>
<g id="a_node4"><a xlink:href="lattice_8h.html" target="_top" xlink:title=" ">
<polygon fill="#ffffff" stroke="#000000" points="467.7759,-220.5 467.7759,-238.5 543.2485,-238.5 543.2485,-220.5 467.7759,-220.5"/>
<text text-anchor="middle" x="505.5122" y="-226.5" font-family="Helvetica,sans-Serif" font-size="10.00" fill="#000000">math/lattice.h</text>
</a>
</g>
</g>
<!-- Node2&#45;&gt;Node3 -->
<g id="edge3" class="edge">
<title>Node2&#45;&gt;Node3</title>
<path fill="none" stroke="#191970" d="M792.4719,-278.8212C735.6303,-269.0516 619.1246,-249.0271 553.3892,-237.7289"/>
<polygon fill="#191970" stroke="#191970" points="553.7403,-234.238 543.2919,-235.9934 552.5545,-241.1368 553.7403,-234.238"/>
</g>
<!-- Node2&#45;&gt;Node4 -->
<g id="edge23" class="edge">
<title>Node2&#45;&gt;Node4</title>
<path fill="none" stroke="#191970" d="M813.0461,-275.3387C802.4693,-266.963 787.6049,-253.6738 778.5122,-239 758.5247,-206.7442 748.1387,-163.0134 743.5454,-138.3873"/>
<polygon fill="#191970" stroke="#191970" points="746.9921,-137.7784 741.8289,-128.5268 740.0958,-138.979 746.9921,-137.7784"/>
</g>
<!-- Node15 -->
<g id="node16" class="node">
<title>Node15</title>
<g id="a_node16"><a xlink:href="observablestorer_8h.html" target="_top" xlink:title=" ">
<polygon fill="#ffffff" stroke="#000000" points="787.4238,-220.5 787.4238,-238.5 909.6006,-238.5 909.6006,-220.5 787.4238,-220.5"/>
<text text-anchor="middle" x="848.5122" y="-226.5" font-family="Helvetica,sans-Serif" font-size="10.00" fill="#000000">tools/observablestorer.h</text>
</a>
</g>
</g>
<!-- Node2&#45;&gt;Node15 -->
<g id="edge20" class="edge">
<title>Node2&#45;&gt;Node15</title>
<path fill="none" stroke="#191970" d="M829.3102,-275.4179C832.3879,-268.0581 836.8278,-257.441 840.6631,-248.2695"/>
<polygon fill="#191970" stroke="#191970" points="844.0026,-249.3556 844.6317,-238.7795 837.5446,-246.6549 844.0026,-249.3556"/>
</g>
<!-- Node3&#45;&gt;Node4 -->
<g id="edge4" class="edge">
<title>Node3&#45;&gt;Node4</title>
<path fill="none" stroke="#191970" d="M512.6615,-220.0784C523.8668,-205.9744 546.9443,-179.4848 572.5122,-165 615.9959,-140.3656 673.4152,-128.5704 708.614,-123.3069"/>
<polygon fill="#191970" stroke="#191970" points="709.3695,-126.7351 718.7844,-121.8761 708.3943,-119.8034 709.3695,-126.7351"/>
</g>
<!-- Node5 -->
<g id="node6" class="node">
<title>Node5</title>
<g id="a_node6"><a xlink:title=" ">
<polygon fill="#ffffff" stroke="#bfbfbf" points="288.2856,-110.5 288.2856,-128.5 328.7388,-128.5 328.7388,-110.5 288.2856,-110.5"/>
<text text-anchor="middle" x="308.5122" y="-116.5" font-family="Helvetica,sans-Serif" font-size="10.00" fill="#000000">mpi.h</text>
</a>
</g>
</g>
<!-- Node3&#45;&gt;Node5 -->
<g id="edge5" class="edge">
<title>Node3&#45;&gt;Node5</title>
<path fill="none" stroke="#191970" d="M468.4756,-220.477C442.1685,-213.0801 406.6637,-201.0389 378.5122,-184 357.0035,-170.9817 336.3366,-150.6561 323.1076,-136.3066"/>
<polygon fill="#191970" stroke="#191970" points="325.5146,-133.7486 316.228,-128.6488 320.3074,-138.4268 325.5146,-133.7486"/>
</g>
<!-- Node6 -->
<g id="node7" class="node">
<title>Node6</title>
<g id="a_node7"><a xlink:href="index_8h.html" target="_top" xlink:title=" ">
<polygon fill="#ffffff" stroke="#000000" points="581.4263,-165.5 581.4263,-183.5 693.5981,-183.5 693.5981,-165.5 581.4263,-165.5"/>
<text text-anchor="middle" x="637.5122" y="-171.5" font-family="Helvetica,sans-Serif" font-size="10.00" fill="#000000">parallelization/index.h</text>
</a>
</g>
</g>
<!-- Node3&#45;&gt;Node6 -->
<g id="edge6" class="edge">
<title>Node3&#45;&gt;Node6</title>
<path fill="none" stroke="#191970" d="M527.3093,-220.4179C548.8052,-211.4613 581.8786,-197.6806 606.1874,-187.552"/>
<polygon fill="#191970" stroke="#191970" points="607.7981,-190.6726 615.6827,-183.5956 605.1058,-184.2111 607.7981,-190.6726"/>
</g>
<!-- Node7 -->
<g id="node8" class="node">
<title>Node7</title>
<g id="a_node8"><a xlink:href="neighbours_8h.html" target="_top" xlink:title=" ">
<polygon fill="#ffffff" stroke="#000000" points="387.6382,-165.5 387.6382,-183.5 525.3862,-183.5 525.3862,-165.5 387.6382,-165.5"/>
<text text-anchor="middle" x="456.5122" y="-171.5" font-family="Helvetica,sans-Serif" font-size="10.00" fill="#000000">parallelization/neighbours.h</text>
</a>
</g>
</g>
<!-- Node3&#45;&gt;Node7 -->
<g id="edge8" class="edge">
<title>Node3&#45;&gt;Node7</title>
<path fill="none" stroke="#191970" d="M497.4209,-220.4179C490.4409,-212.5833 480.1726,-201.0575 471.6699,-191.5137"/>
<polygon fill="#191970" stroke="#191970" points="474.0448,-188.9178 464.7794,-183.7795 468.8181,-193.5743 474.0448,-188.9178"/>
</g>
<!-- Node9 -->
<g id="node10" class="node">
<title>Node9</title>
<g id="a_node10"><a xlink:href="parallelparameters_8h.html" target="_top" xlink:title=" ">
<polygon fill="#ffffff" stroke="#000000" points="159.9707,-165.5 159.9707,-183.5 331.0537,-183.5 331.0537,-165.5 159.9707,-165.5"/>
<text text-anchor="middle" x="245.5122" y="-171.5" font-family="Helvetica,sans-Serif" font-size="10.00" fill="#000000">parallelization/parallelparameters.h</text>
</a>
</g>
</g>
<!-- Node3&#45;&gt;Node9 -->
<g id="edge11" class="edge">
<title>Node3&#45;&gt;Node9</title>
<path fill="none" stroke="#191970" d="M467.706,-221.5025C423.0383,-212.0536 348.4525,-196.2758 298.1522,-185.6354"/>
<polygon fill="#191970" stroke="#191970" points="298.6275,-182.1585 288.1196,-183.5131 297.1787,-189.007 298.6275,-182.1585"/>
</g>
<!-- Node3&#45;&gt;Node10 -->
<g id="edge13" class="edge">
<title>Node3&#45;&gt;Node10</title>
<path fill="none" stroke="#191970" d="M467.7539,-225.9167C404.462,-219.638 272.7951,-205.4141 152.2622,-184.175"/>
<polygon fill="#191970" stroke="#191970" points="152.5842,-180.6773 142.125,-182.3672 151.3551,-187.5686 152.5842,-180.6773"/>
</g>
<!-- Node6&#45;&gt;Node4 -->
<g id="edge7" class="edge">
<title>Node6&#45;&gt;Node4</title>
<path fill="none" stroke="#191970" d="M654.5206,-165.4179C670.8465,-156.7001 695.7312,-143.4122 714.5376,-133.3699"/>
<polygon fill="#191970" stroke="#191970" points="716.306,-136.3934 723.4786,-128.5956 713.0088,-130.2186 716.306,-136.3934"/>
</g>
<!-- Node7&#45;&gt;Node4 -->
<g id="edge10" class="edge">
<title>Node7&#45;&gt;Node4</title>
<path fill="none" stroke="#191970" d="M503.091,-165.4795C561.1218,-154.2411 658.7246,-135.3392 708.7913,-125.6431"/>
<polygon fill="#191970" stroke="#191970" points="709.57,-129.0574 718.7221,-123.7199 708.2391,-122.1851 709.57,-129.0574"/>
</g>
<!-- Node8 -->
<g id="node9" class="node">
<title>Node8</title>
<g id="a_node9"><a xlink:href="neighbourlist_8h.html" target="_top" xlink:title=" ">
<polygon fill="#ffffff" stroke="#000000" points="415.9902,-110.5 415.9902,-128.5 497.0342,-128.5 497.0342,-110.5 415.9902,-110.5"/>
<text text-anchor="middle" x="456.5122" y="-116.5" font-family="Helvetica,sans-Serif" font-size="10.00" fill="#000000">neighbourlist.h</text>
</a>
</g>
</g>
<!-- Node7&#45;&gt;Node8 -->
<g id="edge9" class="edge">
<title>Node7&#45;&gt;Node8</title>
<path fill="none" stroke="#191970" d="M456.5122,-165.4179C456.5122,-158.2164 456.5122,-147.8962 456.5122,-138.8632"/>
<polygon fill="#191970" stroke="#191970" points="460.0123,-138.7794 456.5122,-128.7795 453.0123,-138.7795 460.0123,-138.7794"/>
</g>
<!-- Node9&#45;&gt;Node5 -->
<g id="edge12" class="edge">
<title>Node9&#45;&gt;Node5</title>
<path fill="none" stroke="#191970" d="M255.9154,-165.4179C265.2522,-157.2667 279.1655,-145.1201 290.3373,-135.3669"/>
<polygon fill="#191970" stroke="#191970" points="292.6516,-137.9927 297.883,-128.7795 288.048,-132.7194 292.6516,-137.9927"/>
</g>
<!-- Node11 -->
<g id="node12" class="node">
<title>Node11</title>
<g id="a_node12"><a xlink:href="su3_8h.html" target="_top" xlink:title=" ">
<polygon fill="#ffffff" stroke="#000000" points="0,-110.5 0,-128.5 81.0244,-128.5 81.0244,-110.5 0,-110.5"/>
<text text-anchor="middle" x="40.5122" y="-116.5" font-family="Helvetica,sans-Serif" font-size="10.00" fill="#000000">matrices/su3.h</text>
</a>
</g>
</g>
<!-- Node10&#45;&gt;Node11 -->
<g id="edge14" class="edge">
<title>Node10&#45;&gt;Node11</title>
<path fill="none" stroke="#191970" d="M98.1183,-165.4179C87.793,-157.1876 72.3575,-144.8839 60.0625,-135.0836"/>
<polygon fill="#191970" stroke="#191970" points="62.1551,-132.2757 52.1537,-128.7795 57.7919,-137.7495 62.1551,-132.2757"/>
</g>
<!-- Node12 -->
<g id="node13" class="node">
<title>Node12</title>
<g id="a_node13"><a xlink:href="complex_8h.html" target="_top" xlink:title=" ">
<polygon fill="#ffffff" stroke="#000000" points="66.2192,-55.5 66.2192,-73.5 152.8052,-73.5 152.8052,-55.5 66.2192,-55.5"/>
<text text-anchor="middle" x="109.5122" y="-61.5" font-family="Helvetica,sans-Serif" font-size="10.00" fill="#000000">math/complex.h</text>
</a>
</g>
</g>
<!-- Node10&#45;&gt;Node12 -->
<g id="edge19" class="edge">
<title>Node10&#45;&gt;Node12</title>
<path fill="none" stroke="#191970" d="M109.5122,-165.4982C109.5122,-147.6913 109.5122,-107.6225 109.5122,-83.6515"/>
<polygon fill="#191970" stroke="#191970" points="113.0123,-83.6261 109.5122,-73.6261 106.0123,-83.6262 113.0123,-83.6261"/>
</g>
<!-- Node14 -->
<g id="node15" class="node">
<title>Node14</title>
<g id="a_node15"><a xlink:href="su2_8h.html" target="_top" xlink:title=" ">
<polygon fill="#ffffff" stroke="#000000" points="138,-110.5 138,-128.5 219.0244,-128.5 219.0244,-110.5 138,-110.5"/>
<text text-anchor="middle" x="178.5122" y="-116.5" font-family="Helvetica,sans-Serif" font-size="10.00" fill="#000000">matrices/su2.h</text>
</a>
</g>
</g>
<!-- Node10&#45;&gt;Node14 -->
<g id="edge17" class="edge">
<title>Node10&#45;&gt;Node14</title>
<path fill="none" stroke="#191970" d="M120.9062,-165.4179C131.2314,-157.1876 146.667,-144.8839 158.9619,-135.0836"/>
<polygon fill="#191970" stroke="#191970" points="161.2326,-137.7495 166.8707,-128.7795 156.8693,-132.2757 161.2326,-137.7495"/>
</g>
<!-- Node11&#45;&gt;Node12 -->
<g id="edge15" class="edge">
<title>Node11&#45;&gt;Node12</title>
<path fill="none" stroke="#191970" d="M51.9062,-110.4179C62.2314,-102.1876 77.667,-89.8839 89.9619,-80.0836"/>
<polygon fill="#191970" stroke="#191970" points="92.2326,-82.7495 97.8707,-73.7795 87.8693,-77.2757 92.2326,-82.7495"/>
</g>
<!-- Node13 -->
<g id="node14" class="node">
<title>Node13</title>
<g id="a_node14"><a xlink:title=" ">
<polygon fill="#ffffff" stroke="#bfbfbf" points="82.3398,-.5 82.3398,-18.5 136.6846,-18.5 136.6846,-.5 82.3398,-.5"/>
<text text-anchor="middle" x="109.5122" y="-6.5" font-family="Helvetica,sans-Serif" font-size="10.00" fill="#000000">iostream</text>
</a>
</g>
</g>
<!-- Node12&#45;&gt;Node13 -->
<g id="edge16" class="edge">
<title>Node12&#45;&gt;Node13</title>
<path fill="none" stroke="#191970" d="M109.5122,-55.4179C109.5122,-48.2164 109.5122,-37.8962 109.5122,-28.8632"/>
<polygon fill="#191970" stroke="#191970" points="113.0123,-28.7794 109.5122,-18.7795 106.0123,-28.7795 113.0123,-28.7794"/>
</g>
<!-- Node14&#45;&gt;Node12 -->
<g id="edge18" class="edge">
<title>Node14&#45;&gt;Node12</title>
<path fill="none" stroke="#191970" d="M167.1183,-110.4179C156.793,-102.1876 141.3575,-89.8839 129.0625,-80.0836"/>
<polygon fill="#191970" stroke="#191970" points="131.1551,-77.2757 121.1537,-73.7795 126.7919,-82.7495 131.1551,-77.2757"/>
</g>
<!-- Node15&#45;&gt;Node4 -->
<g id="edge22" class="edge">
<title>Node15&#45;&gt;Node4</title>
<path fill="none" stroke="#191970" d="M839.6741,-220.4982C821.479,-201.9662 779.6102,-159.3221 756.5213,-135.8056"/>
<polygon fill="#191970" stroke="#191970" points="758.9758,-133.3097 749.4724,-128.6261 753.9809,-138.2139 758.9758,-133.3097"/>
</g>
<!-- Node16 -->
<g id="node17" class="node">
<title>Node16</title>
<g id="a_node17"><a xlink:title=" ">
<polygon fill="#ffffff" stroke="#bfbfbf" points="873.2856,-165.5 873.2856,-183.5 913.7388,-183.5 913.7388,-165.5 873.2856,-165.5"/>
<text text-anchor="middle" x="893.5122" y="-171.5" font-family="Helvetica,sans-Serif" font-size="10.00" fill="#000000">string</text>
</a>
</g>
</g>
<!-- Node15&#45;&gt;Node16 -->
<g id="edge21" class="edge">
<title>Node15&#45;&gt;Node16</title>
<path fill="none" stroke="#191970" d="M855.943,-220.4179C862.2884,-212.6624 871.5931,-201.29 879.3548,-191.8035"/>
<polygon fill="#191970" stroke="#191970" points="882.2964,-193.7354 885.9199,-183.7795 876.8787,-189.3027 882.2964,-193.7354"/>
</g>
<!-- Node17&#45;&gt;Node6 -->
<g id="edge29" class="edge">
<title>Node17&#45;&gt;Node6</title>
<path fill="none" stroke="#191970" d="M662.8748,-330.443C661.2262,-321.2659 658.6309,-306.6567 656.5122,-294 650.5809,-258.5676 644.0951,-217.1464 640.4427,-193.5501"/>
<polygon fill="#191970" stroke="#191970" points="643.8764,-192.8518 638.8921,-183.5027 636.9583,-193.9195 643.8764,-192.8518"/>
</g>
<!-- Node17&#45;&gt;Node9 -->
<g id="edge30" class="edge">
<title>Node17&#45;&gt;Node9</title>
<path fill="none" stroke="#191970" d="M641.3881,-330.3939C571.0651,-302.701 359.6063,-219.4296 278.0696,-187.3209"/>
<polygon fill="#191970" stroke="#191970" points="279.1518,-183.9856 268.5648,-183.578 276.5869,-190.4987 279.1518,-183.9856"/>
</g>
<!-- Node18 -->
<g id="node19" class="node">
<title>Node18</title>
<g id="a_node19"><a xlink:href="communicator_8h.html" target="_top" xlink:title=" ">
<polygon fill="#ffffff" stroke="#000000" points="665.2168,-275.5 665.2168,-293.5 751.8076,-293.5 751.8076,-275.5 665.2168,-275.5"/>
<text text-anchor="middle" x="708.5122" y="-281.5" font-family="Helvetica,sans-Serif" font-size="10.00" fill="#000000">communicator.h</text>
</a>
</g>
</g>
<!-- Node17&#45;&gt;Node18 -->
<g id="edge26" class="edge">
<title>Node17&#45;&gt;Node18</title>
<path fill="none" stroke="#191970" d="M671.7779,-330.4179C677.9823,-322.6624 687.0802,-311.29 694.6694,-301.8035"/>
<polygon fill="#191970" stroke="#191970" points="697.5747,-303.7746 701.0886,-293.7795 692.1086,-299.4017 697.5747,-303.7746"/>
</g>
<!-- Node18&#45;&gt;Node3 -->
<g id="edge28" class="edge">
<title>Node18&#45;&gt;Node3</title>
<path fill="none" stroke="#191970" d="M674.9909,-275.4179C640.3603,-266.0352 586.1903,-251.3586 548.4456,-241.1322"/>
<polygon fill="#191970" stroke="#191970" points="549.3132,-237.7412 538.7459,-238.5042 547.4826,-244.4976 549.3132,-237.7412"/>
</g>
<!-- Node18&#45;&gt;Node4 -->
<g id="edge27" class="edge">
<title>Node18&#45;&gt;Node4</title>
<path fill="none" stroke="#191970" d="M710.3244,-275.1561C715.4067,-248.9504 729.8735,-174.3557 736.7688,-138.8021"/>
<polygon fill="#191970" stroke="#191970" points="740.2519,-139.2249 738.7199,-128.7414 733.38,-137.8921 740.2519,-139.2249"/>
</g>
<!-- Node19&#45;&gt;Node4 -->
<g id="edge33" class="edge">
<title>Node19&#45;&gt;Node4</title>
<path fill="none" stroke="#191970" d="M974.0984,-220.4521C965.1766,-206.3526 946.011,-179.2787 922.5122,-165 875.1899,-136.2454 810.4504,-125.6158 772.3,-121.7192"/>
<polygon fill="#191970" stroke="#191970" points="772.562,-118.2285 762.2813,-120.7892 771.9149,-125.1986 772.562,-118.2285"/>
</g>
<!-- Node19&#45;&gt;Node16 -->
<g id="edge32" class="edge">
<title>Node19&#45;&gt;Node16</title>
<path fill="none" stroke="#191970" d="M965.3111,-220.4179C951.9909,-211.8992 931.8472,-199.0166 916.283,-189.0627"/>
<polygon fill="#191970" stroke="#191970" points="918.0447,-186.0348 907.7345,-183.5956 914.2732,-191.932 918.0447,-186.0348"/>
</g>
</g>
</svg>
