<?xml version="1.0" encoding="UTF-8" standalone="no"?>
<!DOCTYPE svg PUBLIC "-//W3C//DTD SVG 1.1//EN"
 "http://www.w3.org/Graphics/SVG/1.1/DTD/svg11.dtd">
<!-- Generated by graphviz version 2.40.1 (20161225.0304)
 -->
<!-- Title: nlohmann::detail::is_compatible_integer_type_impl&lt; bool, typename, typename &gt; Pages: 1 -->
<svg width="183pt" height="102pt"
 viewBox="0.00 0.00 182.98 102.00" xmlns="http://www.w3.org/2000/svg" xmlns:xlink="http://www.w3.org/1999/xlink">
<g id="graph0" class="graph" transform="scale(1 1) rotate(0) translate(4 98)">
<title>nlohmann::detail::is_compatible_integer_type_impl&lt; bool, typename, typename &gt;</title>
<polygon fill="#ffffff" stroke="transparent" points="-4,4 -4,-98 178.9844,-98 178.9844,4 -4,4"/>
<!-- Node2 -->
<g id="node1" class="node">
<title>Node2</title>
<g id="a_node1"><a xlink:title=" ">
<polygon fill="#bfbfbf" stroke="#000000" points="0,-.5 0,-38.5 174.9844,-38.5 174.9844,-.5 0,-.5"/>
<text text-anchor="start" x="8" y="-26.5" font-family="Helvetica,sans-Serif" font-size="10.00" fill="#000000">nlohmann::detail::is</text>
<text text-anchor="start" x="8" y="-16.5" font-family="Helvetica,sans-Serif" font-size="10.00" fill="#000000">_compatible_integer_type</text>
<text text-anchor="middle" x="87.4922" y="-6.5" font-family="Helvetica,sans-Serif" font-size="10.00" fill="#000000">_impl&lt; bool, typename, typename &gt;</text>
</a>
</g>
</g>
<!-- Node3 -->
<g id="node2" class="node">
<title>Node3</title>
<g id="a_node2"><a xlink:title=" ">
<polygon fill="#ffffff" stroke="#bfbfbf" points="56.6992,-75.5 56.6992,-93.5 118.2852,-93.5 118.2852,-75.5 56.6992,-75.5"/>
<text text-anchor="middle" x="87.4922" y="-81.5" font-family="Helvetica,sans-Serif" font-size="10.00" fill="#000000">false_type</text>
</a>
</g>
</g>
<!-- Node3&#45;&gt;Node2 -->
<g id="edge1" class="edge">
<title>Node3&#45;&gt;Node2</title>
<path fill="none" stroke="#191970" d="M87.4922,-65.4456C87.4922,-56.9924 87.4922,-47.066 87.4922,-38.6068"/>
<polygon fill="#191970" stroke="#191970" points="83.9923,-65.462 87.4922,-75.462 90.9923,-65.4621 83.9923,-65.462"/>
</g>
</g>
</svg>
