<?xml version="1.0" encoding="UTF-8" standalone="no"?>
<!DOCTYPE svg PUBLIC "-//W3C//DTD SVG 1.1//EN"
 "http://www.w3.org/Graphics/SVG/1.1/DTD/svg11.dtd">
<!-- Generated by graphviz version 2.40.1 (20161225.0304)
 -->
<!-- Title: std::hash&lt; nlohmann::json &gt;::operator() Pages: 1 -->
<svg width="266pt" height="37pt"
 viewBox="0.00 0.00 265.85 37.00" xmlns="http://www.w3.org/2000/svg" xmlns:xlink="http://www.w3.org/1999/xlink">
<g id="graph0" class="graph" transform="scale(1 1) rotate(0) translate(4 33)">
<title>std::hash&lt; nlohmann::json &gt;::operator()</title>
<polygon fill="#ffffff" stroke="transparent" points="-4,4 -4,-33 261.8486,-33 261.8486,4 -4,4"/>
<!-- Node0 -->
<g id="node1" class="node">
<title>Node0</title>
<g id="a_node1"><a xlink:title="return a hash value for a JSON object">
<polygon fill="#bfbfbf" stroke="#000000" points="0,-.5 0,-28.5 109.1201,-28.5 109.1201,-.5 0,-.5"/>
<text text-anchor="start" x="8" y="-16.5" font-family="Helvetica,sans-Serif" font-size="10.00" fill="#000000">std::hash&lt; nlohmann</text>
<text text-anchor="middle" x="54.5601" y="-6.5" font-family="Helvetica,sans-Serif" font-size="10.00" fill="#000000">::json &gt;::operator()</text>
</a>
</g>
</g>
<!-- Node1 -->
<g id="node2" class="node">
<title>Node1</title>
<g id="a_node2"><a xlink:href="classnlohmann_1_1basic__json.html#a5319dc1bb9dfe19ce7ff559aaded3422" target="_top" xlink:title="serialization">
<polygon fill="#ffffff" stroke="#000000" points="145.1201,-.5 145.1201,-28.5 257.8486,-28.5 257.8486,-.5 145.1201,-.5"/>
<text text-anchor="start" x="153.1201" y="-16.5" font-family="Helvetica,sans-Serif" font-size="10.00" fill="#000000">nlohmann::basic_json</text>
<text text-anchor="middle" x="201.4844" y="-6.5" font-family="Helvetica,sans-Serif" font-size="10.00" fill="#000000">::dump</text>
</a>
</g>
</g>
<!-- Node0&#45;&gt;Node1 -->
<g id="edge1" class="edge">
<title>Node0&#45;&gt;Node1</title>
<path fill="none" stroke="#191970" d="M109.2693,-14.5C117.5057,-14.5 126.0793,-14.5 134.5368,-14.5"/>
<polygon fill="#191970" stroke="#191970" points="134.765,-18.0001 144.765,-14.5 134.765,-11.0001 134.765,-18.0001"/>
</g>
</g>
</svg>
