<?xml version="1.0" encoding="UTF-8" standalone="no"?>
<!DOCTYPE svg PUBLIC "-//W3C//DTD SVG 1.1//EN"
 "http://www.w3.org/Graphics/SVG/1.1/DTD/svg11.dtd">
<!-- Generated by graphviz version 2.40.1 (20161225.0304)
 -->
<!-- Title: nlohmann::detail::is_compatible_object_type_impl&lt; B, RealType, CompatibleObjectType &gt; Pages: 1 -->
<svg width="167pt" height="112pt"
 viewBox="0.00 0.00 167.13 112.00" xmlns="http://www.w3.org/2000/svg" xmlns:xlink="http://www.w3.org/1999/xlink">
<g id="graph0" class="graph" transform="scale(1 1) rotate(0) translate(4 108)">
<title>nlohmann::detail::is_compatible_object_type_impl&lt; B, RealType, CompatibleObjectType &gt;</title>
<polygon fill="#ffffff" stroke="transparent" points="-4,4 -4,-108 163.1299,-108 163.1299,4 -4,4"/>
<!-- Node0 -->
<g id="node1" class="node">
<title>Node0</title>
<g id="a_node1"><a xlink:title=" ">
<polygon fill="#bfbfbf" stroke="#000000" points="0,-.5 0,-48.5 159.1299,-48.5 159.1299,-.5 0,-.5"/>
<text text-anchor="start" x="8" y="-36.5" font-family="Helvetica,sans-Serif" font-size="10.00" fill="#000000">nlohmann::detail::is</text>
<text text-anchor="start" x="8" y="-26.5" font-family="Helvetica,sans-Serif" font-size="10.00" fill="#000000">_compatible_object_type</text>
<text text-anchor="start" x="8" y="-16.5" font-family="Helvetica,sans-Serif" font-size="10.00" fill="#000000">_impl&lt; B, RealType, Compatible</text>
<text text-anchor="middle" x="79.5649" y="-6.5" font-family="Helvetica,sans-Serif" font-size="10.00" fill="#000000">ObjectType &gt;</text>
</a>
</g>
</g>
<!-- Node1 -->
<g id="node2" class="node">
<title>Node1</title>
<g id="a_node2"><a xlink:title=" ">
<polygon fill="#ffffff" stroke="#bfbfbf" points="39.3237,-85.5 39.3237,-103.5 119.8062,-103.5 119.8062,-85.5 39.3237,-85.5"/>
<text text-anchor="middle" x="79.5649" y="-91.5" font-family="Helvetica,sans-Serif" font-size="10.00" fill="#000000">std::false_type</text>
</a>
</g>
</g>
<!-- Node1&#45;&gt;Node0 -->
<g id="edge1" class="edge">
<title>Node1&#45;&gt;Node0</title>
<path fill="none" stroke="#191970" d="M79.5649,-75.2935C79.5649,-67.0842 79.5649,-57.4082 79.5649,-48.7156"/>
<polygon fill="#191970" stroke="#191970" points="76.065,-75.3487 79.5649,-85.3487 83.065,-75.3488 76.065,-75.3487"/>
</g>
</g>
</svg>
