<?xml version="1.0" encoding="UTF-8" standalone="no"?>
<!DOCTYPE svg PUBLIC "-//W3C//DTD SVG 1.1//EN"
 "http://www.w3.org/Graphics/SVG/1.1/DTD/svg11.dtd">
<!-- Generated by graphviz version 2.40.1 (20161225.0304)
 -->
<!-- Title: GLAC/math/matrices/su3.h Pages: 1 -->
<svg width="117pt" height="147pt"
 viewBox="0.00 0.00 116.80 147.00" xmlns="http://www.w3.org/2000/svg" xmlns:xlink="http://www.w3.org/1999/xlink">
<g id="graph0" class="graph" transform="scale(1 1) rotate(0) translate(4 143)">
<title>GLAC/math/matrices/su3.h</title>
<polygon fill="#ffffff" stroke="transparent" points="-4,4 -4,-143 112.8027,-143 112.8027,4 -4,4"/>
<!-- Node0 -->
<g id="node1" class="node">
<title>Node0</title>
<g id="a_node1"><a xlink:title=" ">
<polygon fill="#bfbfbf" stroke="#000000" points="0,-110.5 0,-138.5 108.8027,-138.5 108.8027,-110.5 0,-110.5"/>
<text text-anchor="start" x="8" y="-126.5" font-family="Helvetica,sans-Serif" font-size="10.00" fill="#000000">GLAC/math/matrices</text>
<text text-anchor="middle" x="54.4014" y="-116.5" font-family="Helvetica,sans-Serif" font-size="10.00" fill="#000000">/su3.h</text>
</a>
</g>
</g>
<!-- Node1 -->
<g id="node2" class="node">
<title>Node1</title>
<g id="a_node2"><a xlink:href="complex_8h.html" target="_top" xlink:title=" ">
<polygon fill="#ffffff" stroke="#000000" points="11.1084,-55.5 11.1084,-73.5 97.6943,-73.5 97.6943,-55.5 11.1084,-55.5"/>
<text text-anchor="middle" x="54.4014" y="-61.5" font-family="Helvetica,sans-Serif" font-size="10.00" fill="#000000">math/complex.h</text>
</a>
</g>
</g>
<!-- Node0&#45;&gt;Node1 -->
<g id="edge1" class="edge">
<title>Node0&#45;&gt;Node1</title>
<path fill="none" stroke="#191970" d="M54.4014,-110.2808C54.4014,-102.3776 54.4014,-92.4316 54.4014,-83.8308"/>
<polygon fill="#191970" stroke="#191970" points="57.9015,-83.5842 54.4014,-73.5842 50.9015,-83.5842 57.9015,-83.5842"/>
</g>
<!-- Node2 -->
<g id="node3" class="node">
<title>Node2</title>
<g id="a_node3"><a xlink:title=" ">
<polygon fill="#ffffff" stroke="#bfbfbf" points="27.229,-.5 27.229,-18.5 81.5737,-18.5 81.5737,-.5 27.229,-.5"/>
<text text-anchor="middle" x="54.4014" y="-6.5" font-family="Helvetica,sans-Serif" font-size="10.00" fill="#000000">iostream</text>
</a>
</g>
</g>
<!-- Node1&#45;&gt;Node2 -->
<g id="edge2" class="edge">
<title>Node1&#45;&gt;Node2</title>
<path fill="none" stroke="#191970" d="M54.4014,-55.4179C54.4014,-48.2164 54.4014,-37.8962 54.4014,-28.8632"/>
<polygon fill="#191970" stroke="#191970" points="57.9015,-28.7794 54.4014,-18.7795 50.9015,-28.7795 57.9015,-28.7794"/>
</g>
</g>
</svg>
