<?xml version="1.0" encoding="UTF-8" standalone="no"?>
<!DOCTYPE svg PUBLIC "-//W3C//DTD SVG 1.1//EN"
 "http://www.w3.org/Graphics/SVG/1.1/DTD/svg11.dtd">
<!-- Generated by graphviz version 2.40.1 (20161225.0304)
 -->
<!-- Title: GLAC/math/matrices/su3.cpp Pages: 1 -->
<svg width="194pt" height="202pt"
 viewBox="0.00 0.00 193.91 202.00" xmlns="http://www.w3.org/2000/svg" xmlns:xlink="http://www.w3.org/1999/xlink">
<g id="graph0" class="graph" transform="scale(1 1) rotate(0) translate(4 198)">
<title>GLAC/math/matrices/su3.cpp</title>
<polygon fill="#ffffff" stroke="transparent" points="-4,4 -4,-198 189.9087,-198 189.9087,4 -4,4"/>
<!-- Node0 -->
<g id="node1" class="node">
<title>Node0</title>
<g id="a_node1"><a xlink:title=" ">
<polygon fill="#bfbfbf" stroke="#000000" points="59.8916,-165.5 59.8916,-193.5 168.6943,-193.5 168.6943,-165.5 59.8916,-165.5"/>
<text text-anchor="start" x="67.8916" y="-181.5" font-family="Helvetica,sans-Serif" font-size="10.00" fill="#000000">GLAC/math/matrices</text>
<text text-anchor="middle" x="114.293" y="-171.5" font-family="Helvetica,sans-Serif" font-size="10.00" fill="#000000">/su3.cpp</text>
</a>
</g>
</g>
<!-- Node1 -->
<g id="node2" class="node">
<title>Node1</title>
<g id="a_node2"><a xlink:href="su3_8h.html" target="_top" xlink:title=" ">
<polygon fill="#ffffff" stroke="#000000" points="35.0615,-110.5 35.0615,-128.5 75.5244,-128.5 75.5244,-110.5 35.0615,-110.5"/>
<text text-anchor="middle" x="55.293" y="-116.5" font-family="Helvetica,sans-Serif" font-size="10.00" fill="#000000">su3.h</text>
</a>
</g>
</g>
<!-- Node0&#45;&gt;Node1 -->
<g id="edge1" class="edge">
<title>Node0&#45;&gt;Node1</title>
<path fill="none" stroke="#191970" d="M100.3108,-165.2808C91.666,-156.4896 80.5359,-145.1708 71.5056,-135.9875"/>
<polygon fill="#191970" stroke="#191970" points="73.7328,-133.2605 64.2258,-128.5842 68.7416,-138.1685 73.7328,-133.2605"/>
</g>
<!-- Node3 -->
<g id="node4" class="node">
<title>Node3</title>
<g id="a_node4"><a xlink:title=" ">
<polygon fill="#ffffff" stroke="#bfbfbf" points="51.1206,-.5 51.1206,-18.5 105.4653,-18.5 105.4653,-.5 51.1206,-.5"/>
<text text-anchor="middle" x="78.293" y="-6.5" font-family="Helvetica,sans-Serif" font-size="10.00" fill="#000000">iostream</text>
</a>
</g>
</g>
<!-- Node0&#45;&gt;Node3 -->
<g id="edge4" class="edge">
<title>Node0&#45;&gt;Node3</title>
<path fill="none" stroke="#191970" d="M113.1047,-165.4931C110.9224,-142.2469 105.5319,-94.3586 95.293,-55 92.9344,-45.9336 89.4214,-36.1675 86.2001,-28.0164"/>
<polygon fill="#191970" stroke="#191970" points="89.4224,-26.6492 82.3847,-18.7295 82.9475,-29.3094 89.4224,-26.6492"/>
</g>
<!-- Node4 -->
<g id="node5" class="node">
<title>Node4</title>
<g id="a_node5"><a xlink:title=" ">
<polygon fill="#ffffff" stroke="#bfbfbf" points="142.6772,-110.5 142.6772,-128.5 185.9087,-128.5 185.9087,-110.5 142.6772,-110.5"/>
<text text-anchor="middle" x="164.293" y="-116.5" font-family="Helvetica,sans-Serif" font-size="10.00" fill="#000000">cmath</text>
</a>
</g>
</g>
<!-- Node0&#45;&gt;Node4 -->
<g id="edge5" class="edge">
<title>Node0&#45;&gt;Node4</title>
<path fill="none" stroke="#191970" d="M126.1423,-165.2808C133.3203,-156.6672 142.5204,-145.6271 150.0875,-136.5466"/>
<polygon fill="#191970" stroke="#191970" points="153.0097,-138.5071 156.7228,-128.5842 147.6322,-134.0258 153.0097,-138.5071"/>
</g>
<!-- Node2 -->
<g id="node3" class="node">
<title>Node2</title>
<g id="a_node3"><a xlink:href="complex_8h.html" target="_top" xlink:title=" ">
<polygon fill="#ffffff" stroke="#000000" points="0,-55.5 0,-73.5 86.5859,-73.5 86.5859,-55.5 0,-55.5"/>
<text text-anchor="middle" x="43.293" y="-61.5" font-family="Helvetica,sans-Serif" font-size="10.00" fill="#000000">math/complex.h</text>
</a>
</g>
</g>
<!-- Node1&#45;&gt;Node2 -->
<g id="edge2" class="edge">
<title>Node1&#45;&gt;Node2</title>
<path fill="none" stroke="#191970" d="M53.3114,-110.4179C51.7229,-103.1372 49.4389,-92.669 47.4528,-83.5659"/>
<polygon fill="#191970" stroke="#191970" points="50.8689,-82.8035 45.3176,-73.7795 44.0298,-84.2957 50.8689,-82.8035"/>
</g>
<!-- Node2&#45;&gt;Node3 -->
<g id="edge3" class="edge">
<title>Node2&#45;&gt;Node3</title>
<path fill="none" stroke="#191970" d="M49.0725,-55.4179C53.9071,-47.8207 60.9504,-36.7527 66.9106,-27.3866"/>
<polygon fill="#191970" stroke="#191970" points="69.9719,-29.0952 72.3879,-18.7795 64.0662,-25.337 69.9719,-29.0952"/>
</g>
</g>
</svg>
