<?xml version="1.0" encoding="UTF-8" standalone="no"?>
<!DOCTYPE svg PUBLIC "-//W3C//DTD SVG 1.1//EN"
 "http://www.w3.org/Graphics/SVG/1.1/DTD/svg11.dtd">
<!-- Generated by graphviz version 2.40.1 (20161225.0304)
 -->
<!-- Title: GluonicLQCD/math/exponentiation/su3exp.h Pages: 1 -->
<svg width="1177pt" height="332pt"
 viewBox="0.00 0.00 1176.53 332.00" xmlns="http://www.w3.org/2000/svg" xmlns:xlink="http://www.w3.org/1999/xlink">
<g id="graph0" class="graph" transform="scale(1 1) rotate(0) translate(4 328)">
<title>GluonicLQCD/math/exponentiation/su3exp.h</title>
<polygon fill="#ffffff" stroke="transparent" points="-4,4 -4,-328 1172.5313,-328 1172.5313,4 -4,4"/>
<!-- Node4 -->
<g id="node1" class="node">
<title>Node4</title>
<g id="a_node1"><a xlink:title=" ">
<polygon fill="#bfbfbf" stroke="#000000" points="583,-295.5 583,-323.5 753.5313,-323.5 753.5313,-295.5 583,-295.5"/>
<text text-anchor="start" x="591" y="-311.5" font-family="Helvetica,sans-Serif" font-size="10.00" fill="#000000">GluonicLQCD/math/exponentiation</text>
<text text-anchor="middle" x="668.2656" y="-301.5" font-family="Helvetica,sans-Serif" font-size="10.00" fill="#000000">/su3exp.h</text>
</a>
</g>
</g>
<!-- Node5 -->
<g id="node2" class="node">
<title>Node5</title>
<g id="a_node2"><a xlink:href="expluscher_8h.html" target="_top" xlink:title=" ">
<polygon fill="#ffffff" stroke="#000000" points="205,-230.5 205,-258.5 375.5313,-258.5 375.5313,-230.5 205,-230.5"/>
<text text-anchor="start" x="213" y="-246.5" font-family="Helvetica,sans-Serif" font-size="10.00" fill="#000000">GluonicLQCD/math/exponentiation</text>
<text text-anchor="middle" x="290.2656" y="-236.5" font-family="Helvetica,sans-Serif" font-size="10.00" fill="#000000">/expluscher.h</text>
</a>
</g>
</g>
<!-- Node4&#45;&gt;Node5 -->
<g id="edge1" class="edge">
<title>Node4&#45;&gt;Node5</title>
<path fill="none" stroke="#191970" d="M576.4725,-293.7155C514.0457,-282.9807 432.1781,-268.9029 372,-258.5549"/>
<polygon fill="#191970" stroke="#191970" points="576.2621,-297.2306 586.7106,-295.476 577.4485,-290.3318 576.2621,-297.2306"/>
</g>
<!-- Node7 -->
<g id="node4" class="node">
<title>Node7</title>
<g id="a_node4"><a xlink:href="flowexpfunctions_8h.html" target="_top" xlink:title=" ">
<polygon fill="#ffffff" stroke="#000000" points="188.3916,-170.5 188.3916,-188.5 376.1396,-188.5 376.1396,-170.5 188.3916,-170.5"/>
<text text-anchor="middle" x="282.2656" y="-176.5" font-family="Helvetica,sans-Serif" font-size="10.00" fill="#000000">GluonicLQCD/math/flowexpfunctions.h</text>
</a>
</g>
</g>
<!-- Node4&#45;&gt;Node7 -->
<g id="edge22" class="edge">
<title>Node4&#45;&gt;Node7</title>
<path fill="none" stroke="#191970" d="M572.7242,-305.9951C442.0677,-300.2035 220.9288,-286.4427 196.2656,-259 171.4618,-231.4008 225.7291,-202.7491 258.9351,-188.5718"/>
<polygon fill="#191970" stroke="#191970" points="572.6037,-309.4931 582.7466,-306.4316 572.9084,-302.4997 572.6037,-309.4931"/>
</g>
<!-- Node13 -->
<g id="node10" class="node">
<title>Node13</title>
<g id="a_node10"><a xlink:href="performancetests_8cpp.html" target="_top" xlink:title=" ">
<polygon fill="#ffffff" stroke="#000000" points="583.0049,-170.5 583.0049,-188.5 783.5264,-188.5 783.5264,-170.5 583.0049,-170.5"/>
<text text-anchor="middle" x="683.2656" y="-176.5" font-family="Helvetica,sans-Serif" font-size="10.00" fill="#000000">GluonicLQCD/tests/performancetests.cpp</text>
</a>
</g>
</g>
<!-- Node4&#45;&gt;Node13 -->
<g id="edge23" class="edge">
<title>Node4&#45;&gt;Node13</title>
<path fill="none" stroke="#191970" d="M725.4711,-291.0331C739.9871,-283.4746 753.8414,-273.0887 762.2656,-259 768.8801,-247.9378 768.4563,-241.3048 762.2656,-230 751.1633,-209.726 728.071,-196.4057 709.7061,-188.5628"/>
<polygon fill="#191970" stroke="#191970" points="723.8975,-287.9059 716.39,-295.3817 726.9209,-294.2194 723.8975,-287.9059"/>
</g>
<!-- Node14 -->
<g id="node11" class="node">
<title>Node14</title>
<g id="a_node11"><a xlink:href="su3exp_8cpp.html" target="_top" xlink:title=" ">
<polygon fill="#ffffff" stroke="#000000" points="998,-230.5 998,-258.5 1168.5313,-258.5 1168.5313,-230.5 998,-230.5"/>
<text text-anchor="start" x="1006" y="-246.5" font-family="Helvetica,sans-Serif" font-size="10.00" fill="#000000">GluonicLQCD/math/exponentiation</text>
<text text-anchor="middle" x="1083.2656" y="-236.5" font-family="Helvetica,sans-Serif" font-size="10.00" fill="#000000">/su3exp.cpp</text>
</a>
</g>
</g>
<!-- Node4&#45;&gt;Node14 -->
<g id="edge10" class="edge">
<title>Node4&#45;&gt;Node14</title>
<path fill="none" stroke="#191970" d="M763.9852,-294.5078C834.605,-283.4468 929.8485,-268.5292 997.8915,-257.8719"/>
<polygon fill="#191970" stroke="#191970" points="763.0886,-291.1054 753.7507,-296.1108 764.1719,-298.0211 763.0886,-291.1054"/>
</g>
<!-- Node15 -->
<g id="node12" class="node">
<title>Node15</title>
<g id="a_node12"><a xlink:href="taylor2exp_8h.html" target="_top" xlink:title=" ">
<polygon fill="#ffffff" stroke="#000000" points="583,-230.5 583,-258.5 753.5313,-258.5 753.5313,-230.5 583,-230.5"/>
<text text-anchor="start" x="591" y="-246.5" font-family="Helvetica,sans-Serif" font-size="10.00" fill="#000000">GluonicLQCD/math/exponentiation</text>
<text text-anchor="middle" x="668.2656" y="-236.5" font-family="Helvetica,sans-Serif" font-size="10.00" fill="#000000">/taylor2exp.h</text>
</a>
</g>
</g>
<!-- Node4&#45;&gt;Node15 -->
<g id="edge11" class="edge">
<title>Node4&#45;&gt;Node15</title>
<path fill="none" stroke="#191970" d="M668.2656,-285.1081C668.2656,-276.1539 668.2656,-266.3227 668.2656,-258.5765"/>
<polygon fill="#191970" stroke="#191970" points="664.7657,-285.3959 668.2656,-295.396 671.7657,-285.396 664.7657,-285.3959"/>
</g>
<!-- Node17 -->
<g id="node14" class="node">
<title>Node17</title>
<g id="a_node14"><a xlink:href="taylor4exp_8h.html" target="_top" xlink:title=" ">
<polygon fill="#ffffff" stroke="#000000" points="394,-230.5 394,-258.5 564.5313,-258.5 564.5313,-230.5 394,-230.5"/>
<text text-anchor="start" x="402" y="-246.5" font-family="Helvetica,sans-Serif" font-size="10.00" fill="#000000">GluonicLQCD/math/exponentiation</text>
<text text-anchor="middle" x="479.2656" y="-236.5" font-family="Helvetica,sans-Serif" font-size="10.00" fill="#000000">/taylor4exp.h</text>
</a>
</g>
</g>
<!-- Node4&#45;&gt;Node17 -->
<g id="edge15" class="edge">
<title>Node4&#45;&gt;Node17</title>
<path fill="none" stroke="#191970" d="M617.6476,-292.0917C587.1376,-281.5988 548.7833,-268.4082 520.1958,-258.5765"/>
<polygon fill="#191970" stroke="#191970" points="616.6608,-295.4534 627.2554,-295.396 618.9373,-288.834 616.6608,-295.4534"/>
</g>
<!-- Node19 -->
<g id="node16" class="node">
<title>Node19</title>
<g id="a_node16"><a xlink:href="taylorexp_8h.html" target="_top" xlink:title=" ">
<polygon fill="#ffffff" stroke="#000000" points="809,-230.5 809,-258.5 979.5313,-258.5 979.5313,-230.5 809,-230.5"/>
<text text-anchor="start" x="817" y="-246.5" font-family="Helvetica,sans-Serif" font-size="10.00" fill="#000000">GluonicLQCD/math/exponentiation</text>
<text text-anchor="middle" x="894.2656" y="-236.5" font-family="Helvetica,sans-Serif" font-size="10.00" fill="#000000">/taylorexp.h</text>
</a>
</g>
</g>
<!-- Node4&#45;&gt;Node19 -->
<g id="edge19" class="edge">
<title>Node4&#45;&gt;Node19</title>
<path fill="none" stroke="#191970" d="M727.096,-292.5797C763.8028,-282.0225 810.4991,-268.5921 845.2031,-258.6109"/>
<polygon fill="#191970" stroke="#191970" points="725.669,-289.3482 717.026,-295.476 727.6039,-296.0755 725.669,-289.3482"/>
</g>
<!-- Node6 -->
<g id="node3" class="node">
<title>Node6</title>
<g id="a_node3"><a xlink:href="expluscher_8cpp.html" target="_top" xlink:title=" ">
<polygon fill="#ffffff" stroke="#000000" points="0,-165.5 0,-193.5 170.5313,-193.5 170.5313,-165.5 0,-165.5"/>
<text text-anchor="start" x="8" y="-181.5" font-family="Helvetica,sans-Serif" font-size="10.00" fill="#000000">GluonicLQCD/math/exponentiation</text>
<text text-anchor="middle" x="85.2656" y="-171.5" font-family="Helvetica,sans-Serif" font-size="10.00" fill="#000000">/expluscher.cpp</text>
</a>
</g>
</g>
<!-- Node5&#45;&gt;Node6 -->
<g id="edge2" class="edge">
<title>Node5&#45;&gt;Node6</title>
<path fill="none" stroke="#191970" d="M236.4744,-227.4442C203.2439,-216.9078 161.114,-203.5495 129.7693,-193.6109"/>
<polygon fill="#191970" stroke="#191970" points="235.4459,-230.7898 246.0361,-230.476 237.5616,-224.1172 235.4459,-230.7898"/>
</g>
<!-- Node5&#45;&gt;Node7 -->
<g id="edge3" class="edge">
<title>Node5&#45;&gt;Node7</title>
<path fill="none" stroke="#191970" d="M287.2964,-220.3747C285.9313,-209.2832 284.3943,-196.7952 283.3825,-188.5743"/>
<polygon fill="#191970" stroke="#191970" points="283.8343,-220.8984 288.5297,-230.396 290.7819,-220.0433 283.8343,-220.8984"/>
</g>
<!-- Node5&#45;&gt;Node13 -->
<g id="edge9" class="edge">
<title>Node5&#45;&gt;Node13</title>
<path fill="none" stroke="#191970" d="M385.1589,-228.8052C461.4718,-216.1834 565.9903,-198.8967 628.8408,-188.5016"/>
<polygon fill="#191970" stroke="#191970" points="384.3517,-225.391 375.0569,-230.476 385.494,-232.2972 384.3517,-225.391"/>
</g>
<!-- Node8 -->
<g id="node5" class="node">
<title>Node8</title>
<g id="a_node5"><a xlink:href="flow_8h.html" target="_top" xlink:title=" ">
<polygon fill="#ffffff" stroke="#000000" points="218.9629,-110.5 218.9629,-128.5 345.5684,-128.5 345.5684,-110.5 218.9629,-110.5"/>
<text text-anchor="middle" x="282.2656" y="-116.5" font-family="Helvetica,sans-Serif" font-size="10.00" fill="#000000">GluonicLQCD/flow/flow.h</text>
</a>
</g>
</g>
<!-- Node7&#45;&gt;Node8 -->
<g id="edge4" class="edge">
<title>Node7&#45;&gt;Node8</title>
<path fill="none" stroke="#191970" d="M282.2656,-160.3734C282.2656,-149.7812 282.2656,-137.0976 282.2656,-128.6985"/>
<polygon fill="#191970" stroke="#191970" points="278.7657,-160.3873 282.2656,-170.3873 285.7657,-160.3873 278.7657,-160.3873"/>
</g>
<!-- Node9 -->
<g id="node6" class="node">
<title>Node9</title>
<g id="a_node6"><a xlink:href="flow_8cpp.html" target="_top" xlink:title=" ">
<polygon fill="#ffffff" stroke="#000000" points="140.6821,-55.5 140.6821,-73.5 277.8491,-73.5 277.8491,-55.5 140.6821,-55.5"/>
<text text-anchor="middle" x="209.2656" y="-61.5" font-family="Helvetica,sans-Serif" font-size="10.00" fill="#000000">GluonicLQCD/flow/flow.cpp</text>
</a>
</g>
</g>
<!-- Node8&#45;&gt;Node9 -->
<g id="edge5" class="edge">
<title>Node8&#45;&gt;Node9</title>
<path fill="none" stroke="#191970" d="M261.892,-104.15C248.9377,-94.3899 232.5914,-82.0742 221.582,-73.7795"/>
<polygon fill="#191970" stroke="#191970" points="260.1182,-107.1957 270.2112,-110.4179 264.3304,-101.6049 260.1182,-107.1957"/>
</g>
<!-- Node10 -->
<g id="node7" class="node">
<title>Node10</title>
<g id="a_node7"><a xlink:href="system_8h.html" target="_top" xlink:title=" ">
<polygon fill="#ffffff" stroke="#000000" points="296.0269,-55.5 296.0269,-73.5 416.5044,-73.5 416.5044,-55.5 296.0269,-55.5"/>
<text text-anchor="middle" x="356.2656" y="-61.5" font-family="Helvetica,sans-Serif" font-size="10.00" fill="#000000">GluonicLQCD/system.h</text>
</a>
</g>
</g>
<!-- Node8&#45;&gt;Node10 -->
<g id="edge6" class="edge">
<title>Node8&#45;&gt;Node10</title>
<path fill="none" stroke="#191970" d="M302.5927,-104.392C315.8721,-94.5222 332.7745,-81.9596 344.0279,-73.5956"/>
<polygon fill="#191970" stroke="#191970" points="300.4233,-101.6435 294.4852,-110.4179 304.599,-107.2617 300.4233,-101.6435"/>
</g>
<!-- Node11 -->
<g id="node8" class="node">
<title>Node11</title>
<g id="a_node8"><a xlink:href="main_8cpp.html" target="_top" xlink:title=" ">
<polygon fill="#ffffff" stroke="#000000" points="223.7437,-.5 223.7437,-18.5 344.7876,-18.5 344.7876,-.5 223.7437,-.5"/>
<text text-anchor="middle" x="284.2656" y="-6.5" font-family="Helvetica,sans-Serif" font-size="10.00" fill="#000000">GluonicLQCD/main.cpp</text>
</a>
</g>
</g>
<!-- Node10&#45;&gt;Node11 -->
<g id="edge7" class="edge">
<title>Node10&#45;&gt;Node11</title>
<path fill="none" stroke="#191970" d="M336.1711,-49.15C323.3943,-39.3899 307.2718,-27.0742 296.4133,-18.7795"/>
<polygon fill="#191970" stroke="#191970" points="334.3049,-52.1288 344.3763,-55.4179 338.5542,-46.5661 334.3049,-52.1288"/>
</g>
<!-- Node12 -->
<g id="node9" class="node">
<title>Node12</title>
<g id="a_node9"><a xlink:href="system_8cpp.html" target="_top" xlink:title=" ">
<polygon fill="#ffffff" stroke="#000000" points="362.7461,-.5 362.7461,-18.5 493.7852,-18.5 493.7852,-.5 362.7461,-.5"/>
<text text-anchor="middle" x="428.2656" y="-6.5" font-family="Helvetica,sans-Serif" font-size="10.00" fill="#000000">GluonicLQCD/system.cpp</text>
</a>
</g>
</g>
<!-- Node10&#45;&gt;Node12 -->
<g id="edge8" class="edge">
<title>Node10&#45;&gt;Node12</title>
<path fill="none" stroke="#191970" d="M376.3601,-49.15C389.137,-39.3899 405.2594,-27.0742 416.118,-18.7795"/>
<polygon fill="#191970" stroke="#191970" points="373.977,-46.5661 368.155,-55.4179 378.2263,-52.1288 373.977,-46.5661"/>
</g>
<!-- Node15&#45;&gt;Node7 -->
<g id="edge13" class="edge">
<title>Node15&#45;&gt;Node7</title>
<path fill="none" stroke="#191970" d="M575.0625,-228.8052C500.1089,-216.1834 397.4521,-198.8967 335.721,-188.5016"/>
<polygon fill="#191970" stroke="#191970" points="574.5422,-232.2668 584.9846,-230.476 575.7047,-225.3639 574.5422,-232.2668"/>
</g>
<!-- Node15&#45;&gt;Node13 -->
<g id="edge14" class="edge">
<title>Node15&#45;&gt;Node13</title>
<path fill="none" stroke="#191970" d="M673.833,-220.3747C676.3926,-209.2832 679.2744,-196.7952 681.1716,-188.5743"/>
<polygon fill="#191970" stroke="#191970" points="670.3587,-219.865 671.5204,-230.396 677.1794,-221.4391 670.3587,-219.865"/>
</g>
<!-- Node16 -->
<g id="node13" class="node">
<title>Node16</title>
<g id="a_node13"><a xlink:href="taylor2exp_8cpp.html" target="_top" xlink:title=" ">
<polygon fill="#ffffff" stroke="#000000" points="802,-165.5 802,-193.5 972.5313,-193.5 972.5313,-165.5 802,-165.5"/>
<text text-anchor="start" x="810" y="-181.5" font-family="Helvetica,sans-Serif" font-size="10.00" fill="#000000">GluonicLQCD/math/exponentiation</text>
<text text-anchor="middle" x="887.2656" y="-171.5" font-family="Helvetica,sans-Serif" font-size="10.00" fill="#000000">/taylor2exp.cpp</text>
</a>
</g>
</g>
<!-- Node15&#45;&gt;Node16 -->
<g id="edge12" class="edge">
<title>Node15&#45;&gt;Node16</title>
<path fill="none" stroke="#191970" d="M725.2739,-227.5797C760.8437,-217.0225 806.0936,-203.5921 839.7227,-193.6109"/>
<polygon fill="#191970" stroke="#191970" points="724.1065,-224.2752 715.5157,-230.476 726.0983,-230.9859 724.1065,-224.2752"/>
</g>
<!-- Node17&#45;&gt;Node7 -->
<g id="edge17" class="edge">
<title>Node17&#45;&gt;Node7</title>
<path fill="none" stroke="#191970" d="M426.7312,-227.1663C389.1071,-214.7522 339.9492,-198.5326 309.7678,-188.5743"/>
<polygon fill="#191970" stroke="#191970" points="425.9264,-230.5863 436.5196,-230.396 428.1198,-223.9388 425.9264,-230.5863"/>
</g>
<!-- Node17&#45;&gt;Node13 -->
<g id="edge18" class="edge">
<title>Node17&#45;&gt;Node13</title>
<path fill="none" stroke="#191970" d="M532.9462,-227.3959C572.0928,-214.9227 623.5883,-198.5148 655.0146,-188.5016"/>
<polygon fill="#191970" stroke="#191970" points="531.7449,-224.1052 523.2794,-230.476 533.8701,-230.7748 531.7449,-224.1052"/>
</g>
<!-- Node18 -->
<g id="node15" class="node">
<title>Node18</title>
<g id="a_node15"><a xlink:href="taylor4exp_8cpp.html" target="_top" xlink:title=" ">
<polygon fill="#ffffff" stroke="#000000" points="394,-165.5 394,-193.5 564.5313,-193.5 564.5313,-165.5 394,-165.5"/>
<text text-anchor="start" x="402" y="-181.5" font-family="Helvetica,sans-Serif" font-size="10.00" fill="#000000">GluonicLQCD/math/exponentiation</text>
<text text-anchor="middle" x="479.2656" y="-171.5" font-family="Helvetica,sans-Serif" font-size="10.00" fill="#000000">/taylor4exp.cpp</text>
</a>
</g>
</g>
<!-- Node17&#45;&gt;Node18 -->
<g id="edge16" class="edge">
<title>Node17&#45;&gt;Node18</title>
<path fill="none" stroke="#191970" d="M479.2656,-220.1081C479.2656,-211.1539 479.2656,-201.3227 479.2656,-193.5765"/>
<polygon fill="#191970" stroke="#191970" points="475.7657,-220.3959 479.2656,-230.396 482.7657,-220.396 475.7657,-220.3959"/>
</g>
<!-- Node19&#45;&gt;Node13 -->
<g id="edge21" class="edge">
<title>Node19&#45;&gt;Node13</title>
<path fill="none" stroke="#191970" d="M839.0003,-227.4751C798.4789,-214.9923 745.0595,-198.536 712.4861,-188.5016"/>
<polygon fill="#191970" stroke="#191970" points="838.1543,-230.8768 848.7415,-230.476 840.2152,-224.187 838.1543,-230.8768"/>
</g>
<!-- Node20 -->
<g id="node17" class="node">
<title>Node20</title>
<g id="a_node17"><a xlink:href="taylorexp_8cpp.html" target="_top" xlink:title=" ">
<polygon fill="#ffffff" stroke="#000000" points="991,-165.5 991,-193.5 1161.5313,-193.5 1161.5313,-165.5 991,-165.5"/>
<text text-anchor="start" x="999" y="-181.5" font-family="Helvetica,sans-Serif" font-size="10.00" fill="#000000">GluonicLQCD/math/exponentiation</text>
<text text-anchor="middle" x="1076.2656" y="-171.5" font-family="Helvetica,sans-Serif" font-size="10.00" fill="#000000">/taylorexp.cpp</text>
</a>
</g>
</g>
<!-- Node19&#45;&gt;Node20 -->
<g id="edge20" class="edge">
<title>Node19&#45;&gt;Node20</title>
<path fill="none" stroke="#191970" d="M943.3909,-226.9553C972.7085,-216.4847 1009.4418,-203.3656 1036.8514,-193.5765"/>
<polygon fill="#191970" stroke="#191970" points="941.9971,-223.7364 933.7569,-230.396 944.3515,-230.3286 941.9971,-223.7364"/>
</g>
</g>
</svg>
