<?xml version="1.0" encoding="UTF-8" standalone="no"?>
<!DOCTYPE svg PUBLIC "-//W3C//DTD SVG 1.1//EN"
 "http://www.w3.org/Graphics/SVG/1.1/DTD/svg11.dtd">
<!-- Generated by graphviz version 2.40.1 (20161225.0304)
 -->
<!-- Title: GluonicLQCD/math/exponentiation/su3exp.cpp Pages: 1 -->
<svg width="180pt" height="257pt"
 viewBox="0.00 0.00 180.28 257.00" xmlns="http://www.w3.org/2000/svg" xmlns:xlink="http://www.w3.org/1999/xlink">
<g id="graph0" class="graph" transform="scale(1 1) rotate(0) translate(4 253)">
<title>GluonicLQCD/math/exponentiation/su3exp.cpp</title>
<polygon fill="#ffffff" stroke="transparent" points="-4,4 -4,-253 176.2827,-253 176.2827,4 -4,4"/>
<!-- Node0 -->
<g id="node1" class="node">
<title>Node0</title>
<g id="a_node1"><a xlink:title=" ">
<polygon fill="#bfbfbf" stroke="#000000" points="1.7515,-220.5 1.7515,-248.5 172.2827,-248.5 172.2827,-220.5 1.7515,-220.5"/>
<text text-anchor="start" x="9.7515" y="-236.5" font-family="Helvetica,sans-Serif" font-size="10.00" fill="#000000">GluonicLQCD/math/exponentiation</text>
<text text-anchor="middle" x="87.0171" y="-226.5" font-family="Helvetica,sans-Serif" font-size="10.00" fill="#000000">/su3exp.cpp</text>
</a>
</g>
</g>
<!-- Node1 -->
<g id="node2" class="node">
<title>Node1</title>
<g id="a_node2"><a xlink:href="su3exp_8h.html" target="_top" xlink:title=" ">
<polygon fill="#ffffff" stroke="#000000" points="24.7241,-165.5 24.7241,-183.5 81.3101,-183.5 81.3101,-165.5 24.7241,-165.5"/>
<text text-anchor="middle" x="53.0171" y="-171.5" font-family="Helvetica,sans-Serif" font-size="10.00" fill="#000000">su3exp.h</text>
</a>
</g>
</g>
<!-- Node0&#45;&gt;Node1 -->
<g id="edge1" class="edge">
<title>Node0&#45;&gt;Node1</title>
<path fill="none" stroke="#191970" d="M78.9596,-220.2808C74.2294,-211.9336 68.2081,-201.3076 63.1574,-192.3946"/>
<polygon fill="#191970" stroke="#191970" points="66.1401,-190.5589 58.1648,-183.5842 60.0499,-194.01 66.1401,-190.5589"/>
</g>
<!-- Node5 -->
<g id="node6" class="node">
<title>Node5</title>
<g id="a_node6"><a xlink:title=" ">
<polygon fill="#ffffff" stroke="#bfbfbf" points="99.4014,-165.5 99.4014,-183.5 142.6328,-183.5 142.6328,-165.5 99.4014,-165.5"/>
<text text-anchor="middle" x="121.0171" y="-171.5" font-family="Helvetica,sans-Serif" font-size="10.00" fill="#000000">cmath</text>
</a>
</g>
</g>
<!-- Node0&#45;&gt;Node5 -->
<g id="edge5" class="edge">
<title>Node0&#45;&gt;Node5</title>
<path fill="none" stroke="#191970" d="M95.0746,-220.2808C99.8047,-211.9336 105.8261,-201.3076 110.8768,-192.3946"/>
<polygon fill="#191970" stroke="#191970" points="113.9843,-194.01 115.8694,-183.5842 107.8941,-190.5589 113.9843,-194.01"/>
</g>
<!-- Node2 -->
<g id="node3" class="node">
<title>Node2</title>
<g id="a_node3"><a xlink:href="su3_8h.html" target="_top" xlink:title=" ">
<polygon fill="#ffffff" stroke="#000000" points="0,-110.5 0,-128.5 106.0342,-128.5 106.0342,-110.5 0,-110.5"/>
<text text-anchor="middle" x="53.0171" y="-116.5" font-family="Helvetica,sans-Serif" font-size="10.00" fill="#000000">math/matrices/su3.h</text>
</a>
</g>
</g>
<!-- Node1&#45;&gt;Node2 -->
<g id="edge2" class="edge">
<title>Node1&#45;&gt;Node2</title>
<path fill="none" stroke="#191970" d="M53.0171,-165.4179C53.0171,-158.2164 53.0171,-147.8962 53.0171,-138.8632"/>
<polygon fill="#191970" stroke="#191970" points="56.5172,-138.7794 53.0171,-128.7795 49.5172,-138.7795 56.5172,-138.7794"/>
</g>
<!-- Node3 -->
<g id="node4" class="node">
<title>Node3</title>
<g id="a_node4"><a xlink:href="complex_8h.html" target="_top" xlink:title=" ">
<polygon fill="#ffffff" stroke="#000000" points="9.7241,-55.5 9.7241,-73.5 96.3101,-73.5 96.3101,-55.5 9.7241,-55.5"/>
<text text-anchor="middle" x="53.0171" y="-61.5" font-family="Helvetica,sans-Serif" font-size="10.00" fill="#000000">math/complex.h</text>
</a>
</g>
</g>
<!-- Node2&#45;&gt;Node3 -->
<g id="edge3" class="edge">
<title>Node2&#45;&gt;Node3</title>
<path fill="none" stroke="#191970" d="M53.0171,-110.4179C53.0171,-103.2164 53.0171,-92.8962 53.0171,-83.8632"/>
<polygon fill="#191970" stroke="#191970" points="56.5172,-83.7794 53.0171,-73.7795 49.5172,-83.7795 56.5172,-83.7794"/>
</g>
<!-- Node4 -->
<g id="node5" class="node">
<title>Node4</title>
<g id="a_node5"><a xlink:title=" ">
<polygon fill="#ffffff" stroke="#bfbfbf" points="25.8447,-.5 25.8447,-18.5 80.1895,-18.5 80.1895,-.5 25.8447,-.5"/>
<text text-anchor="middle" x="53.0171" y="-6.5" font-family="Helvetica,sans-Serif" font-size="10.00" fill="#000000">iostream</text>
</a>
</g>
</g>
<!-- Node3&#45;&gt;Node4 -->
<g id="edge4" class="edge">
<title>Node3&#45;&gt;Node4</title>
<path fill="none" stroke="#191970" d="M53.0171,-55.4179C53.0171,-48.2164 53.0171,-37.8962 53.0171,-28.8632"/>
<polygon fill="#191970" stroke="#191970" points="56.5172,-28.7794 53.0171,-18.7795 49.5172,-28.7795 56.5172,-28.7794"/>
</g>
</g>
</svg>
