<?xml version="1.0" encoding="UTF-8" standalone="no"?>
<!DOCTYPE svg PUBLIC "-//W3C//DTD SVG 1.1//EN"
 "http://www.w3.org/Graphics/SVG/1.1/DTD/svg11.dtd">
<!-- Generated by graphviz version 2.40.1 (20161225.0304)
 -->
<!-- Title: GLAC/math/exponentiation/su3exp.h Pages: 1 -->
<svg width="970pt" height="332pt"
 viewBox="0.00 0.00 970.07 332.00" xmlns="http://www.w3.org/2000/svg" xmlns:xlink="http://www.w3.org/1999/xlink">
<g id="graph0" class="graph" transform="scale(1 1) rotate(0) translate(4 328)">
<title>GLAC/math/exponentiation/su3exp.h</title>
<polygon fill="#ffffff" stroke="transparent" points="-4,4 -4,-328 966.0732,-328 966.0732,4 -4,4"/>
<!-- Node4 -->
<g id="node1" class="node">
<title>Node4</title>
<g id="a_node1"><a xlink:title=" ">
<polygon fill="#bfbfbf" stroke="#000000" points="480,-295.5 480,-323.5 616.0732,-323.5 616.0732,-295.5 480,-295.5"/>
<text text-anchor="start" x="488" y="-311.5" font-family="Helvetica,sans-Serif" font-size="10.00" fill="#000000">GLAC/math/exponentiation</text>
<text text-anchor="middle" x="548.0366" y="-301.5" font-family="Helvetica,sans-Serif" font-size="10.00" fill="#000000">/su3exp.h</text>
</a>
</g>
</g>
<!-- Node5 -->
<g id="node2" class="node">
<title>Node5</title>
<g id="a_node2"><a xlink:href="expluscher_8h.html" target="_top" xlink:title=" ">
<polygon fill="#ffffff" stroke="#000000" points="172,-230.5 172,-258.5 308.0732,-258.5 308.0732,-230.5 172,-230.5"/>
<text text-anchor="start" x="180" y="-246.5" font-family="Helvetica,sans-Serif" font-size="10.00" fill="#000000">GLAC/math/exponentiation</text>
<text text-anchor="middle" x="240.0366" y="-236.5" font-family="Helvetica,sans-Serif" font-size="10.00" fill="#000000">/expluscher.h</text>
</a>
</g>
</g>
<!-- Node4&#45;&gt;Node5 -->
<g id="edge1" class="edge">
<title>Node4&#45;&gt;Node5</title>
<path fill="none" stroke="#191970" d="M471.6641,-293.3824C421.0024,-282.6908 355.1635,-268.7963 306.635,-258.5549"/>
<polygon fill="#191970" stroke="#191970" points="471.0772,-296.8356 481.5844,-295.476 472.5227,-289.9864 471.0772,-296.8356"/>
</g>
<!-- Node7 -->
<g id="node4" class="node">
<title>Node7</title>
<g id="a_node4"><a xlink:href="flowexpfunctions_8h.html" target="_top" xlink:title=" ">
<polygon fill="#ffffff" stroke="#000000" points="154.3916,-170.5 154.3916,-188.5 307.6816,-188.5 307.6816,-170.5 154.3916,-170.5"/>
<text text-anchor="middle" x="231.0366" y="-176.5" font-family="Helvetica,sans-Serif" font-size="10.00" fill="#000000">GLAC/math/flowexpfunctions.h</text>
</a>
</g>
</g>
<!-- Node4&#45;&gt;Node7 -->
<g id="edge22" class="edge">
<title>Node4&#45;&gt;Node7</title>
<path fill="none" stroke="#191970" d="M469.8554,-304.6939C363.1873,-297.3269 182.9301,-281.6732 163.0366,-259 140.8764,-233.7433 186.2564,-203.473 213.1327,-188.6251"/>
<polygon fill="#191970" stroke="#191970" points="469.7258,-308.1931 479.9405,-305.3809 470.2016,-301.2092 469.7258,-308.1931"/>
</g>
<!-- Node13 -->
<g id="node10" class="node">
<title>Node13</title>
<g id="a_node10"><a xlink:href="performancetests_8cpp.html" target="_top" xlink:title=" ">
<polygon fill="#ffffff" stroke="#000000" points="480.0049,-170.5 480.0049,-188.5 646.0684,-188.5 646.0684,-170.5 480.0049,-170.5"/>
<text text-anchor="middle" x="563.0366" y="-176.5" font-family="Helvetica,sans-Serif" font-size="10.00" fill="#000000">GLAC/tests/performancetests.cpp</text>
</a>
</g>
</g>
<!-- Node4&#45;&gt;Node13 -->
<g id="edge23" class="edge">
<title>Node4&#45;&gt;Node13</title>
<path fill="none" stroke="#191970" d="M592.8361,-290.3729C605.5523,-282.5983 617.877,-272.2577 625.0366,-259 631.1611,-247.6592 630.5688,-241.6412 625.0366,-230 616.0985,-211.1918 596.3487,-197.0867 581.5259,-188.6305"/>
<polygon fill="#191970" stroke="#191970" points="591.013,-287.3828 584.0287,-295.3496 594.4568,-293.4772 591.013,-287.3828"/>
</g>
<!-- Node14 -->
<g id="node11" class="node">
<title>Node14</title>
<g id="a_node11"><a xlink:href="su3exp_8cpp.html" target="_top" xlink:title=" ">
<polygon fill="#ffffff" stroke="#000000" points="826,-230.5 826,-258.5 962.0732,-258.5 962.0732,-230.5 826,-230.5"/>
<text text-anchor="start" x="834" y="-246.5" font-family="Helvetica,sans-Serif" font-size="10.00" fill="#000000">GLAC/math/exponentiation</text>
<text text-anchor="middle" x="894.0366" y="-236.5" font-family="Helvetica,sans-Serif" font-size="10.00" fill="#000000">/su3exp.cpp</text>
</a>
</g>
</g>
<!-- Node4&#45;&gt;Node14 -->
<g id="edge10" class="edge">
<title>Node4&#45;&gt;Node14</title>
<path fill="none" stroke="#191970" d="M626.4384,-294.7934C680.0996,-284.7247 752.8746,-271.0639 817.0366,-259 819.8441,-258.4721 822.709,-257.9333 825.6032,-257.3889"/>
<polygon fill="#191970" stroke="#191970" points="625.4918,-291.4099 616.3088,-296.694 626.7827,-298.2898 625.4918,-291.4099"/>
</g>
<!-- Node15 -->
<g id="node12" class="node">
<title>Node15</title>
<g id="a_node12"><a xlink:href="taylor2exp_8h.html" target="_top" xlink:title=" ">
<polygon fill="#ffffff" stroke="#000000" points="480,-230.5 480,-258.5 616.0732,-258.5 616.0732,-230.5 480,-230.5"/>
<text text-anchor="start" x="488" y="-246.5" font-family="Helvetica,sans-Serif" font-size="10.00" fill="#000000">GLAC/math/exponentiation</text>
<text text-anchor="middle" x="548.0366" y="-236.5" font-family="Helvetica,sans-Serif" font-size="10.00" fill="#000000">/taylor2exp.h</text>
</a>
</g>
</g>
<!-- Node4&#45;&gt;Node15 -->
<g id="edge11" class="edge">
<title>Node4&#45;&gt;Node15</title>
<path fill="none" stroke="#191970" d="M548.0366,-285.1081C548.0366,-276.1539 548.0366,-266.3227 548.0366,-258.5765"/>
<polygon fill="#191970" stroke="#191970" points="544.5367,-285.3959 548.0366,-295.396 551.5367,-285.396 544.5367,-285.3959"/>
</g>
<!-- Node17 -->
<g id="node14" class="node">
<title>Node17</title>
<g id="a_node14"><a xlink:href="taylor4exp_8h.html" target="_top" xlink:title=" ">
<polygon fill="#ffffff" stroke="#000000" points="326,-230.5 326,-258.5 462.0732,-258.5 462.0732,-230.5 326,-230.5"/>
<text text-anchor="start" x="334" y="-246.5" font-family="Helvetica,sans-Serif" font-size="10.00" fill="#000000">GLAC/math/exponentiation</text>
<text text-anchor="middle" x="394.0366" y="-236.5" font-family="Helvetica,sans-Serif" font-size="10.00" fill="#000000">/taylor4exp.h</text>
</a>
</g>
</g>
<!-- Node4&#45;&gt;Node17 -->
<g id="edge15" class="edge">
<title>Node4&#45;&gt;Node17</title>
<path fill="none" stroke="#191970" d="M505.1692,-291.4066C480.5832,-281.0294 450.1765,-268.1954 427.3871,-258.5765"/>
<polygon fill="#191970" stroke="#191970" points="504.0469,-294.7319 514.6209,-295.396 506.769,-288.2828 504.0469,-294.7319"/>
</g>
<!-- Node19 -->
<g id="node16" class="node">
<title>Node19</title>
<g id="a_node16"><a xlink:href="taylorexp_8h.html" target="_top" xlink:title=" ">
<polygon fill="#ffffff" stroke="#000000" points="672,-230.5 672,-258.5 808.0732,-258.5 808.0732,-230.5 672,-230.5"/>
<text text-anchor="start" x="680" y="-246.5" font-family="Helvetica,sans-Serif" font-size="10.00" fill="#000000">GLAC/math/exponentiation</text>
<text text-anchor="middle" x="740.0366" y="-236.5" font-family="Helvetica,sans-Serif" font-size="10.00" fill="#000000">/taylorexp.h</text>
</a>
</g>
</g>
<!-- Node4&#45;&gt;Node19 -->
<g id="edge19" class="edge">
<title>Node4&#45;&gt;Node19</title>
<path fill="none" stroke="#191970" d="M599.4581,-292.0917C630.4524,-281.5988 669.4155,-268.4082 698.4568,-258.5765"/>
<polygon fill="#191970" stroke="#191970" points="598.0473,-288.8741 589.6978,-295.396 600.292,-295.5044 598.0473,-288.8741"/>
</g>
<!-- Node6 -->
<g id="node3" class="node">
<title>Node6</title>
<g id="a_node3"><a xlink:href="expluscher_8cpp.html" target="_top" xlink:title=" ">
<polygon fill="#ffffff" stroke="#000000" points="0,-165.5 0,-193.5 136.0732,-193.5 136.0732,-165.5 0,-165.5"/>
<text text-anchor="start" x="8" y="-181.5" font-family="Helvetica,sans-Serif" font-size="10.00" fill="#000000">GLAC/math/exponentiation</text>
<text text-anchor="middle" x="68.0366" y="-171.5" font-family="Helvetica,sans-Serif" font-size="10.00" fill="#000000">/expluscher.cpp</text>
</a>
</g>
</g>
<!-- Node5&#45;&gt;Node6 -->
<g id="edge2" class="edge">
<title>Node5&#45;&gt;Node6</title>
<path fill="none" stroke="#191970" d="M193.2487,-226.8185C165.6021,-216.3707 131.0762,-203.3231 105.2852,-193.5765"/>
<polygon fill="#191970" stroke="#191970" points="192.1236,-230.1349 202.7152,-230.396 194.5981,-223.5868 192.1236,-230.1349"/>
</g>
<!-- Node5&#45;&gt;Node7 -->
<g id="edge3" class="edge">
<title>Node5&#45;&gt;Node7</title>
<path fill="none" stroke="#191970" d="M236.6962,-220.3747C235.1605,-209.2832 233.4313,-196.7952 232.2931,-188.5743"/>
<polygon fill="#191970" stroke="#191970" points="233.2452,-220.9705 238.0838,-230.396 240.1791,-220.0104 233.2452,-220.9705"/>
</g>
<!-- Node5&#45;&gt;Node13 -->
<g id="edge9" class="edge">
<title>Node5&#45;&gt;Node13</title>
<path fill="none" stroke="#191970" d="M317.9726,-228.8163C380.5144,-216.2305 466.1328,-199.0008 517.8519,-188.5929"/>
<polygon fill="#191970" stroke="#191970" points="317.2549,-225.3905 308.1419,-230.7946 318.6359,-232.2529 317.2549,-225.3905"/>
</g>
<!-- Node8 -->
<g id="node5" class="node">
<title>Node8</title>
<g id="a_node5"><a xlink:href="flow_8h.html" target="_top" xlink:title=" ">
<polygon fill="#ffffff" stroke="#000000" points="184.9629,-110.5 184.9629,-128.5 277.1104,-128.5 277.1104,-110.5 184.9629,-110.5"/>
<text text-anchor="middle" x="231.0366" y="-116.5" font-family="Helvetica,sans-Serif" font-size="10.00" fill="#000000">GLAC/flow/flow.h</text>
</a>
</g>
</g>
<!-- Node7&#45;&gt;Node8 -->
<g id="edge4" class="edge">
<title>Node7&#45;&gt;Node8</title>
<path fill="none" stroke="#191970" d="M231.0366,-160.3734C231.0366,-149.7812 231.0366,-137.0976 231.0366,-128.6985"/>
<polygon fill="#191970" stroke="#191970" points="227.5367,-160.3873 231.0366,-170.3873 234.5367,-160.3873 227.5367,-160.3873"/>
</g>
<!-- Node9 -->
<g id="node6" class="node">
<title>Node9</title>
<g id="a_node6"><a xlink:href="flow_8cpp.html" target="_top" xlink:title=" ">
<polygon fill="#ffffff" stroke="#000000" points="123.6821,-55.5 123.6821,-73.5 226.3911,-73.5 226.3911,-55.5 123.6821,-55.5"/>
<text text-anchor="middle" x="175.0366" y="-61.5" font-family="Helvetica,sans-Serif" font-size="10.00" fill="#000000">GLAC/flow/flow.cpp</text>
</a>
</g>
</g>
<!-- Node8&#45;&gt;Node9 -->
<g id="edge5" class="edge">
<title>Node8&#45;&gt;Node9</title>
<path fill="none" stroke="#191970" d="M214.5412,-103.2992C204.75,-93.6828 192.6867,-81.8349 184.4848,-73.7795"/>
<polygon fill="#191970" stroke="#191970" points="212.2024,-105.9078 221.7894,-110.4179 217.1073,-100.9137 212.2024,-105.9078"/>
</g>
<!-- Node10 -->
<g id="node7" class="node">
<title>Node10</title>
<g id="a_node7"><a xlink:href="system_8h.html" target="_top" xlink:title=" ">
<polygon fill="#ffffff" stroke="#000000" points="244.0269,-55.5 244.0269,-73.5 330.0464,-73.5 330.0464,-55.5 244.0269,-55.5"/>
<text text-anchor="middle" x="287.0366" y="-61.5" font-family="Helvetica,sans-Serif" font-size="10.00" fill="#000000">GLAC/system.h</text>
</a>
</g>
</g>
<!-- Node8&#45;&gt;Node10 -->
<g id="edge6" class="edge">
<title>Node8&#45;&gt;Node10</title>
<path fill="none" stroke="#191970" d="M247.532,-103.2992C257.3233,-93.6828 269.3865,-81.8349 277.5884,-73.7795"/>
<polygon fill="#191970" stroke="#191970" points="244.9659,-100.9137 240.2839,-110.4179 249.8709,-105.9078 244.9659,-100.9137"/>
</g>
<!-- Node11 -->
<g id="node8" class="node">
<title>Node11</title>
<g id="a_node8"><a xlink:href="main_8cpp.html" target="_top" xlink:title=" ">
<polygon fill="#ffffff" stroke="#000000" points="188.7437,-.5 188.7437,-18.5 275.3296,-18.5 275.3296,-.5 188.7437,-.5"/>
<text text-anchor="middle" x="232.0366" y="-6.5" font-family="Helvetica,sans-Serif" font-size="10.00" fill="#000000">GLAC/main.cpp</text>
</a>
</g>
</g>
<!-- Node10&#45;&gt;Node11 -->
<g id="edge7" class="edge">
<title>Node10&#45;&gt;Node11</title>
<path fill="none" stroke="#191970" d="M270.8358,-48.2992C261.2194,-38.6828 249.3715,-26.8349 241.3161,-18.7795"/>
<polygon fill="#191970" stroke="#191970" points="268.4085,-50.8217 277.9545,-55.4179 273.3583,-45.8719 268.4085,-50.8217"/>
</g>
<!-- Node12 -->
<g id="node9" class="node">
<title>Node12</title>
<g id="a_node9"><a xlink:href="system_8cpp.html" target="_top" xlink:title=" ">
<polygon fill="#ffffff" stroke="#000000" points="293.7461,-.5 293.7461,-18.5 390.3271,-18.5 390.3271,-.5 293.7461,-.5"/>
<text text-anchor="middle" x="342.0366" y="-6.5" font-family="Helvetica,sans-Serif" font-size="10.00" fill="#000000">GLAC/system.cpp</text>
</a>
</g>
</g>
<!-- Node10&#45;&gt;Node12 -->
<g id="edge8" class="edge">
<title>Node10&#45;&gt;Node12</title>
<path fill="none" stroke="#191970" d="M303.2374,-48.2992C312.8539,-38.6828 324.7017,-26.8349 332.7572,-18.7795"/>
<polygon fill="#191970" stroke="#191970" points="300.715,-45.8719 296.1188,-55.4179 305.6647,-50.8217 300.715,-45.8719"/>
</g>
<!-- Node15&#45;&gt;Node7 -->
<g id="edge13" class="edge">
<title>Node15&#45;&gt;Node7</title>
<path fill="none" stroke="#191970" d="M469.6028,-228.4174C408.2219,-215.8314 325.1155,-198.7906 274.9365,-188.5016"/>
<polygon fill="#191970" stroke="#191970" points="469.1434,-231.8959 479.6426,-230.476 470.5495,-225.0386 469.1434,-231.8959"/>
</g>
<!-- Node15&#45;&gt;Node13 -->
<g id="edge14" class="edge">
<title>Node15&#45;&gt;Node13</title>
<path fill="none" stroke="#191970" d="M553.604,-220.3747C556.1636,-209.2832 559.0454,-196.7952 560.9426,-188.5743"/>
<polygon fill="#191970" stroke="#191970" points="550.1297,-219.865 551.2914,-230.396 556.9504,-221.4391 550.1297,-219.865"/>
</g>
<!-- Node16 -->
<g id="node13" class="node">
<title>Node16</title>
<g id="a_node13"><a xlink:href="taylor2exp_8cpp.html" target="_top" xlink:title=" ">
<polygon fill="#ffffff" stroke="#000000" points="664,-165.5 664,-193.5 800.0732,-193.5 800.0732,-165.5 664,-165.5"/>
<text text-anchor="start" x="672" y="-181.5" font-family="Helvetica,sans-Serif" font-size="10.00" fill="#000000">GLAC/math/exponentiation</text>
<text text-anchor="middle" x="732.0366" y="-171.5" font-family="Helvetica,sans-Serif" font-size="10.00" fill="#000000">/taylor2exp.cpp</text>
</a>
</g>
</g>
<!-- Node15&#45;&gt;Node16 -->
<g id="edge12" class="edge">
<title>Node15&#45;&gt;Node16</title>
<path fill="none" stroke="#191970" d="M597.7018,-226.9553C627.3415,-216.4847 664.4785,-203.3656 692.1893,-193.5765"/>
<polygon fill="#191970" stroke="#191970" points="596.225,-223.7649 587.9619,-230.396 598.5567,-230.3652 596.225,-223.7649"/>
</g>
<!-- Node17&#45;&gt;Node7 -->
<g id="edge17" class="edge">
<title>Node17&#45;&gt;Node7</title>
<path fill="none" stroke="#191970" d="M349.3722,-226.689C318.4025,-214.3391 278.4458,-198.4055 253.7922,-188.5743"/>
<polygon fill="#191970" stroke="#191970" points="348.0829,-229.9429 358.668,-230.396 350.6758,-223.4408 348.0829,-229.9429"/>
</g>
<!-- Node17&#45;&gt;Node13 -->
<g id="edge18" class="edge">
<title>Node17&#45;&gt;Node13</title>
<path fill="none" stroke="#191970" d="M440.3452,-226.689C472.4548,-214.3391 513.8823,-198.4055 539.4434,-188.5743"/>
<polygon fill="#191970" stroke="#191970" points="438.7841,-223.5394 430.7071,-230.396 441.297,-230.0728 438.7841,-223.5394"/>
</g>
<!-- Node18 -->
<g id="node15" class="node">
<title>Node18</title>
<g id="a_node15"><a xlink:href="taylor4exp_8cpp.html" target="_top" xlink:title=" ">
<polygon fill="#ffffff" stroke="#000000" points="326,-165.5 326,-193.5 462.0732,-193.5 462.0732,-165.5 326,-165.5"/>
<text text-anchor="start" x="334" y="-181.5" font-family="Helvetica,sans-Serif" font-size="10.00" fill="#000000">GLAC/math/exponentiation</text>
<text text-anchor="middle" x="394.0366" y="-171.5" font-family="Helvetica,sans-Serif" font-size="10.00" fill="#000000">/taylor4exp.cpp</text>
</a>
</g>
</g>
<!-- Node17&#45;&gt;Node18 -->
<g id="edge16" class="edge">
<title>Node17&#45;&gt;Node18</title>
<path fill="none" stroke="#191970" d="M394.0366,-220.1081C394.0366,-211.1539 394.0366,-201.3227 394.0366,-193.5765"/>
<polygon fill="#191970" stroke="#191970" points="390.5367,-220.3959 394.0366,-230.396 397.5367,-220.396 390.5367,-220.3959"/>
</g>
<!-- Node19&#45;&gt;Node13 -->
<g id="edge21" class="edge">
<title>Node19&#45;&gt;Node13</title>
<path fill="none" stroke="#191970" d="M691.9703,-226.8485C658.2807,-214.4766 614.6332,-198.4479 587.7467,-188.5743"/>
<polygon fill="#191970" stroke="#191970" points="691.0367,-230.2342 701.6303,-230.396 693.4498,-223.6632 691.0367,-230.2342"/>
</g>
<!-- Node20 -->
<g id="node17" class="node">
<title>Node20</title>
<g id="a_node17"><a xlink:href="taylorexp_8cpp.html" target="_top" xlink:title=" ">
<polygon fill="#ffffff" stroke="#000000" points="818,-165.5 818,-193.5 954.0732,-193.5 954.0732,-165.5 818,-165.5"/>
<text text-anchor="start" x="826" y="-181.5" font-family="Helvetica,sans-Serif" font-size="10.00" fill="#000000">GLAC/math/exponentiation</text>
<text text-anchor="middle" x="886.0366" y="-171.5" font-family="Helvetica,sans-Serif" font-size="10.00" fill="#000000">/taylorexp.cpp</text>
</a>
</g>
</g>
<!-- Node19&#45;&gt;Node20 -->
<g id="edge20" class="edge">
<title>Node19&#45;&gt;Node20</title>
<path fill="none" stroke="#191970" d="M780.9869,-226.2687C804.241,-215.9159 832.9087,-203.1528 854.4186,-193.5765"/>
<polygon fill="#191970" stroke="#191970" points="779.4285,-223.1313 771.7164,-230.396 782.2755,-229.5262 779.4285,-223.1313"/>
</g>
</g>
</svg>
