<?xml version="1.0" encoding="UTF-8" standalone="no"?>
<!DOCTYPE svg PUBLIC "-//W3C//DTD SVG 1.1//EN"
 "http://www.w3.org/Graphics/SVG/1.1/DTD/svg11.dtd">
<!-- Generated by graphviz version 2.40.1 (20161225.0304)
 -->
<!-- Title: GluonicLQCD/math/matrices/su3matrixgenerator.h Pages: 1 -->
<svg width="700pt" height="212pt"
 viewBox="0.00 0.00 700.41 212.00" xmlns="http://www.w3.org/2000/svg" xmlns:xlink="http://www.w3.org/1999/xlink">
<g id="graph0" class="graph" transform="scale(1 1) rotate(0) translate(4 208)">
<title>GluonicLQCD/math/matrices/su3matrixgenerator.h</title>
<polygon fill="#ffffff" stroke="transparent" points="-4,4 -4,-208 696.4105,-208 696.4105,4 -4,4"/>
<!-- Node6 -->
<g id="node1" class="node">
<title>Node6</title>
<g id="a_node1"><a xlink:title=" ">
<polygon fill="#bfbfbf" stroke="#000000" points="282.5267,-175.5 282.5267,-203.5 425.7874,-203.5 425.7874,-175.5 282.5267,-175.5"/>
<text text-anchor="start" x="290.5267" y="-191.5" font-family="Helvetica,sans-Serif" font-size="10.00" fill="#000000">GluonicLQCD/math/matrices</text>
<text text-anchor="middle" x="354.1571" y="-181.5" font-family="Helvetica,sans-Serif" font-size="10.00" fill="#000000">/su3matrixgenerator.h</text>
</a>
</g>
</g>
<!-- Node7 -->
<g id="node2" class="node">
<title>Node7</title>
<g id="a_node2"><a xlink:href="system_8h.html" target="_top" xlink:title=" ">
<polygon fill="#ffffff" stroke="#000000" points="19.9183,-115.5 19.9183,-133.5 140.3958,-133.5 140.3958,-115.5 19.9183,-115.5"/>
<text text-anchor="middle" x="80.1571" y="-121.5" font-family="Helvetica,sans-Serif" font-size="10.00" fill="#000000">GluonicLQCD/system.h</text>
</a>
</g>
</g>
<!-- Node6&#45;&gt;Node7 -->
<g id="edge1" class="edge">
<title>Node6&#45;&gt;Node7</title>
<path fill="none" stroke="#191970" d="M285.046,-173.105C232.1248,-160.5507 161.1167,-143.7058 118.1021,-133.5016"/>
<polygon fill="#191970" stroke="#191970" points="284.5026,-176.5732 295.0405,-175.476 286.1184,-169.7622 284.5026,-176.5732"/>
</g>
<!-- Node10 -->
<g id="node5" class="node">
<title>Node10</title>
<g id="a_node5"><a xlink:href="performancetests_8h.html" target="_top" xlink:title=" ">
<polygon fill="#ffffff" stroke="#000000" points="167.1771,-115.5 167.1771,-133.5 357.137,-133.5 357.137,-115.5 167.1771,-115.5"/>
<text text-anchor="middle" x="262.1571" y="-121.5" font-family="Helvetica,sans-Serif" font-size="10.00" fill="#000000">GluonicLQCD/tests/performancetests.h</text>
</a>
</g>
</g>
<!-- Node6&#45;&gt;Node10 -->
<g id="edge4" class="edge">
<title>Node6&#45;&gt;Node10</title>
<path fill="none" stroke="#191970" d="M325.7308,-169.4163C308.7775,-157.4383 288.0759,-142.8122 275.0007,-133.5743"/>
<polygon fill="#191970" stroke="#191970" points="324.0076,-172.4841 334.1944,-175.396 328.0468,-166.7671 324.0076,-172.4841"/>
</g>
<!-- Node13 -->
<g id="node8" class="node">
<title>Node13</title>
<g id="a_node8"><a xlink:href="su3matrixgenerator_8cpp.html" target="_top" xlink:title=" ">
<polygon fill="#ffffff" stroke="#000000" points="375.5267,-110.5 375.5267,-138.5 518.7874,-138.5 518.7874,-110.5 375.5267,-110.5"/>
<text text-anchor="start" x="383.5267" y="-126.5" font-family="Helvetica,sans-Serif" font-size="10.00" fill="#000000">GluonicLQCD/math/matrices</text>
<text text-anchor="middle" x="447.1571" y="-116.5" font-family="Helvetica,sans-Serif" font-size="10.00" fill="#000000">/su3matrixgenerator.cpp</text>
</a>
</g>
</g>
<!-- Node6&#45;&gt;Node13 -->
<g id="edge8" class="edge">
<title>Node6&#45;&gt;Node13</title>
<path fill="none" stroke="#191970" d="M382.8423,-169.4511C397.1493,-159.4517 414.107,-147.5995 427.0168,-138.5765"/>
<polygon fill="#191970" stroke="#191970" points="380.5281,-166.7985 374.3367,-175.396 384.5382,-172.536 380.5281,-166.7985"/>
</g>
<!-- Node14 -->
<g id="node9" class="node">
<title>Node14</title>
<g id="a_node9"><a xlink:href="testsuite_8h.html" target="_top" xlink:title=" ">
<polygon fill="#ffffff" stroke="#000000" points="537.1844,-115.5 537.1844,-133.5 687.1297,-133.5 687.1297,-115.5 537.1844,-115.5"/>
<text text-anchor="middle" x="612.1571" y="-121.5" font-family="Helvetica,sans-Serif" font-size="10.00" fill="#000000">GluonicLQCD/tests/testsuite.h</text>
</a>
</g>
</g>
<!-- Node6&#45;&gt;Node14 -->
<g id="edge9" class="edge">
<title>Node6&#45;&gt;Node14</title>
<path fill="none" stroke="#191970" d="M419.5434,-173.0267C469.3412,-160.4807 536.0092,-143.6845 576.4278,-133.5016"/>
<polygon fill="#191970" stroke="#191970" points="418.6635,-169.6389 409.8216,-175.476 420.3737,-176.4268 418.6635,-169.6389"/>
</g>
<!-- Node8 -->
<g id="node3" class="node">
<title>Node8</title>
<g id="a_node3"><a xlink:href="main_8cpp.html" target="_top" xlink:title=" ">
<polygon fill="#ffffff" stroke="#000000" points="155.6351,-.5 155.6351,-18.5 276.679,-18.5 276.679,-.5 155.6351,-.5"/>
<text text-anchor="middle" x="216.1571" y="-6.5" font-family="Helvetica,sans-Serif" font-size="10.00" fill="#000000">GluonicLQCD/main.cpp</text>
</a>
</g>
</g>
<!-- Node7&#45;&gt;Node8 -->
<g id="edge2" class="edge">
<title>Node7&#45;&gt;Node8</title>
<path fill="none" stroke="#191970" d="M47.088,-110.9714C19.6377,-97.7885 -12.2995,-76.6221 5.1571,-55 23.7832,-31.9291 100.0101,-19.9947 155.5067,-14.2443"/>
<polygon fill="#191970" stroke="#191970" points="45.9726,-114.31 56.5221,-115.2891 48.8857,-107.945 45.9726,-114.31"/>
</g>
<!-- Node9 -->
<g id="node4" class="node">
<title>Node9</title>
<g id="a_node4"><a xlink:href="system_8cpp.html" target="_top" xlink:title=" ">
<polygon fill="#ffffff" stroke="#000000" points="14.6375,-55.5 14.6375,-73.5 145.6766,-73.5 145.6766,-55.5 14.6375,-55.5"/>
<text text-anchor="middle" x="80.1571" y="-61.5" font-family="Helvetica,sans-Serif" font-size="10.00" fill="#000000">GluonicLQCD/system.cpp</text>
</a>
</g>
</g>
<!-- Node7&#45;&gt;Node9 -->
<g id="edge3" class="edge">
<title>Node7&#45;&gt;Node9</title>
<path fill="none" stroke="#191970" d="M80.1571,-105.3734C80.1571,-94.7812 80.1571,-82.0976 80.1571,-73.6985"/>
<polygon fill="#191970" stroke="#191970" points="76.6572,-105.3873 80.1571,-115.3873 83.6572,-105.3873 76.6572,-105.3873"/>
</g>
<!-- Node11 -->
<g id="node6" class="node">
<title>Node11</title>
<g id="a_node6"><a xlink:href="test_8h.html" target="_top" xlink:title=" ">
<polygon fill="#ffffff" stroke="#000000" points="382.7459,-55.5 382.7459,-73.5 511.5682,-73.5 511.5682,-55.5 382.7459,-55.5"/>
<text text-anchor="middle" x="447.1571" y="-61.5" font-family="Helvetica,sans-Serif" font-size="10.00" fill="#000000">GluonicLQCD/tests/test.h</text>
</a>
</g>
</g>
<!-- Node10&#45;&gt;Node11 -->
<g id="edge5" class="edge">
<title>Node10&#45;&gt;Node11</title>
<path fill="none" stroke="#191970" d="M299.7805,-112.2978C335.2494,-100.7944 387.579,-83.8226 419.4013,-73.5019"/>
<polygon fill="#191970" stroke="#191970" points="298.687,-108.9729 290.2546,-115.3873 300.8466,-115.6315 298.687,-108.9729"/>
</g>
<!-- Node12 -->
<g id="node7" class="node">
<title>Node12</title>
<g id="a_node7"><a xlink:href="performancetests_8cpp.html" target="_top" xlink:title=" ">
<polygon fill="#ffffff" stroke="#000000" points="163.8963,-55.5 163.8963,-73.5 364.4178,-73.5 364.4178,-55.5 163.8963,-55.5"/>
<text text-anchor="middle" x="264.1571" y="-61.5" font-family="Helvetica,sans-Serif" font-size="10.00" fill="#000000">GluonicLQCD/tests/performancetests.cpp</text>
</a>
</g>
</g>
<!-- Node10&#45;&gt;Node12 -->
<g id="edge7" class="edge">
<title>Node10&#45;&gt;Node12</title>
<path fill="none" stroke="#191970" d="M262.7946,-105.3734C263.1477,-94.7812 263.5705,-82.0976 263.8504,-73.6985"/>
<polygon fill="#191970" stroke="#191970" points="259.296,-105.2762 262.4608,-115.3873 266.2921,-105.5095 259.296,-105.2762"/>
</g>
<!-- Node11&#45;&gt;Node8 -->
<g id="edge6" class="edge">
<title>Node11&#45;&gt;Node8</title>
<path fill="none" stroke="#191970" d="M399.3063,-53.107C356.2307,-42.8509 293.7683,-27.9789 254.064,-18.5255"/>
<polygon fill="#191970" stroke="#191970" points="398.732,-56.568 409.2708,-55.4795 400.3534,-49.7584 398.732,-56.568"/>
</g>
<!-- Node14&#45;&gt;Node11 -->
<g id="edge10" class="edge">
<title>Node14&#45;&gt;Node11</title>
<path fill="none" stroke="#191970" d="M577.377,-111.8527C545.7729,-100.3603 499.9304,-83.6903 471.9122,-73.5019"/>
<polygon fill="#191970" stroke="#191970" points="576.5031,-115.2591 587.0971,-115.3873 578.8953,-108.6805 576.5031,-115.2591"/>
</g>
<!-- Node15 -->
<g id="node10" class="node">
<title>Node15</title>
<g id="a_node10"><a xlink:href="testsuite_8cpp.html" target="_top" xlink:title=" ">
<polygon fill="#ffffff" stroke="#000000" points="531.9036,-55.5 531.9036,-73.5 692.4105,-73.5 692.4105,-55.5 531.9036,-55.5"/>
<text text-anchor="middle" x="612.1571" y="-61.5" font-family="Helvetica,sans-Serif" font-size="10.00" fill="#000000">GluonicLQCD/tests/testsuite.cpp</text>
</a>
</g>
</g>
<!-- Node14&#45;&gt;Node15 -->
<g id="edge11" class="edge">
<title>Node14&#45;&gt;Node15</title>
<path fill="none" stroke="#191970" d="M612.1571,-105.3734C612.1571,-94.7812 612.1571,-82.0976 612.1571,-73.6985"/>
<polygon fill="#191970" stroke="#191970" points="608.6572,-105.3873 612.1571,-115.3873 615.6572,-105.3873 608.6572,-105.3873"/>
</g>
</g>
</svg>
