<?xml version="1.0" encoding="UTF-8" standalone="no"?>
<!DOCTYPE svg PUBLIC "-//W3C//DTD SVG 1.1//EN"
 "http://www.w3.org/Graphics/SVG/1.1/DTD/svg11.dtd">
<!-- Generated by graphviz version 2.40.1 (20161225.0304)
 -->
<!-- Title: GLAC/observables/supersampler.h Pages: 1 -->
<svg width="882pt" height="467pt"
 viewBox="0.00 0.00 882.24 467.00" xmlns="http://www.w3.org/2000/svg" xmlns:xlink="http://www.w3.org/1999/xlink">
<g id="graph0" class="graph" transform="scale(1 1) rotate(0) translate(4 463)">
<title>GLAC/observables/supersampler.h</title>
<polygon fill="#ffffff" stroke="transparent" points="-4,4 -4,-463 878.2388,-463 878.2388,4 -4,4"/>
<!-- Node0 -->
<g id="node1" class="node">
<title>Node0</title>
<g id="a_node1"><a xlink:title=" ">
<polygon fill="#bfbfbf" stroke="#000000" points="546.9707,-440.5 546.9707,-458.5 718.0537,-458.5 718.0537,-440.5 546.9707,-440.5"/>
<text text-anchor="middle" x="632.5122" y="-446.5" font-family="Helvetica,sans-Serif" font-size="10.00" fill="#000000">GLAC/observables/supersampler.h</text>
</a>
</g>
</g>
<!-- Node1 -->
<g id="node2" class="node">
<title>Node1</title>
<g id="a_node2"><a xlink:href="lattice_8h.html" target="_top" xlink:title=" ">
<polygon fill="#ffffff" stroke="#000000" points="537.7759,-220.5 537.7759,-238.5 613.2485,-238.5 613.2485,-220.5 537.7759,-220.5"/>
<text text-anchor="middle" x="575.5122" y="-226.5" font-family="Helvetica,sans-Serif" font-size="10.00" fill="#000000">math/lattice.h</text>
</a>
</g>
</g>
<!-- Node0&#45;&gt;Node1 -->
<g id="edge1" class="edge">
<title>Node0&#45;&gt;Node1</title>
<path fill="none" stroke="#191970" d="M667.1445,-440.404C723.7611,-423.7325 826.509,-384.8828 791.5122,-330 754.6116,-272.1317 674.795,-247.0575 623.2022,-236.5773"/>
<polygon fill="#191970" stroke="#191970" points="623.7619,-233.1209 613.281,-234.6704 622.4406,-239.9951 623.7619,-233.1209"/>
</g>
<!-- Node13 -->
<g id="node14" class="node">
<title>Node13</title>
<g id="a_node14"><a xlink:href="observables_8h.html" target="_top" xlink:title=" ">
<polygon fill="#ffffff" stroke="#000000" points="463.0322,-385.5 463.0322,-403.5 597.9922,-403.5 597.9922,-385.5 463.0322,-385.5"/>
<text text-anchor="middle" x="530.5122" y="-391.5" font-family="Helvetica,sans-Serif" font-size="10.00" fill="#000000">observables/observables.h</text>
</a>
</g>
</g>
<!-- Node0&#45;&gt;Node13 -->
<g id="edge18" class="edge">
<title>Node0&#45;&gt;Node13</title>
<path fill="none" stroke="#191970" d="M610.5027,-440.4179C592.7758,-431.8195 568.3059,-418.7754 551.0002,-408.7844"/>
<polygon fill="#191970" stroke="#191970" points="552.602,-405.6657 542.2113,-403.5956 549.0432,-411.6935 552.602,-405.6657"/>
</g>
<!-- Node23 -->
<g id="node24" class="node">
<title>Node23</title>
<g id="a_node24"><a xlink:title=" ">
<polygon fill="#ffffff" stroke="#bfbfbf" points="838.7856,-385.5 838.7856,-403.5 874.2388,-403.5 874.2388,-385.5 838.7856,-385.5"/>
<text text-anchor="middle" x="856.5122" y="-391.5" font-family="Helvetica,sans-Serif" font-size="10.00" fill="#000000">map</text>
</a>
</g>
</g>
<!-- Node0&#45;&gt;Node23 -->
<g id="edge42" class="edge">
<title>Node0&#45;&gt;Node23</title>
<path fill="none" stroke="#191970" d="M673.5036,-440.4837C712.4905,-431.7437 772.7114,-417.8155 824.5122,-404 825.9471,-403.6173 827.4153,-403.2161 828.8959,-402.8038"/>
<polygon fill="#191970" stroke="#191970" points="829.981,-406.1336 838.6221,-400.0031 828.044,-399.4069 829.981,-406.1336"/>
</g>
<!-- Node2 -->
<g id="node3" class="node">
<title>Node2</title>
<g id="a_node3"><a xlink:title=" ">
<polygon fill="#ffffff" stroke="#bfbfbf" points="326.8965,-110.5 326.8965,-128.5 370.1279,-128.5 370.1279,-110.5 326.8965,-110.5"/>
<text text-anchor="middle" x="348.5122" y="-116.5" font-family="Helvetica,sans-Serif" font-size="10.00" fill="#000000">vector</text>
</a>
</g>
</g>
<!-- Node1&#45;&gt;Node2 -->
<g id="edge2" class="edge">
<title>Node1&#45;&gt;Node2</title>
<path fill="none" stroke="#191970" d="M537.395,-225.7963C484.2837,-219.8829 391.7904,-206.6103 367.5122,-184 355.244,-172.5746 350.761,-153.6703 349.1892,-139.2735"/>
<polygon fill="#191970" stroke="#191970" points="352.6542,-138.6521 348.4598,-128.9229 345.6715,-139.1442 352.6542,-138.6521"/>
</g>
<!-- Node3 -->
<g id="node4" class="node">
<title>Node3</title>
<g id="a_node4"><a xlink:title=" ">
<polygon fill="#ffffff" stroke="#bfbfbf" points="784.2856,-110.5 784.2856,-128.5 824.7388,-128.5 824.7388,-110.5 784.2856,-110.5"/>
<text text-anchor="middle" x="804.5122" y="-116.5" font-family="Helvetica,sans-Serif" font-size="10.00" fill="#000000">mpi.h</text>
</a>
</g>
</g>
<!-- Node1&#45;&gt;Node3 -->
<g id="edge3" class="edge">
<title>Node1&#45;&gt;Node3</title>
<path fill="none" stroke="#191970" d="M613.405,-225.7397C683.5537,-218.3947 827.8786,-201.3383 842.5122,-184 855.29,-168.8605 839.3789,-148.8825 824.4132,-135.1954"/>
<polygon fill="#191970" stroke="#191970" points="826.6931,-132.5399 816.8301,-128.6703 822.1273,-137.8459 826.6931,-132.5399"/>
</g>
<!-- Node4 -->
<g id="node5" class="node">
<title>Node4</title>
<g id="a_node5"><a xlink:href="index_8h.html" target="_top" xlink:title=" ">
<polygon fill="#ffffff" stroke="#000000" points="376.4263,-165.5 376.4263,-183.5 488.5981,-183.5 488.5981,-165.5 376.4263,-165.5"/>
<text text-anchor="middle" x="432.5122" y="-171.5" font-family="Helvetica,sans-Serif" font-size="10.00" fill="#000000">parallelization/index.h</text>
</a>
</g>
</g>
<!-- Node1&#45;&gt;Node4 -->
<g id="edge4" class="edge">
<title>Node1&#45;&gt;Node4</title>
<path fill="none" stroke="#191970" d="M551.8987,-220.4179C528.4045,-211.3817 492.1439,-197.4353 465.7474,-187.2828"/>
<polygon fill="#191970" stroke="#191970" points="466.7507,-183.9188 456.1608,-183.5956 464.2378,-190.4522 466.7507,-183.9188"/>
</g>
<!-- Node5 -->
<g id="node6" class="node">
<title>Node5</title>
<g id="a_node6"><a xlink:href="neighbours_8h.html" target="_top" xlink:title=" ">
<polygon fill="#ffffff" stroke="#000000" points="506.6382,-165.5 506.6382,-183.5 644.3862,-183.5 644.3862,-165.5 506.6382,-165.5"/>
<text text-anchor="middle" x="575.5122" y="-171.5" font-family="Helvetica,sans-Serif" font-size="10.00" fill="#000000">parallelization/neighbours.h</text>
</a>
</g>
</g>
<!-- Node1&#45;&gt;Node5 -->
<g id="edge6" class="edge">
<title>Node1&#45;&gt;Node5</title>
<path fill="none" stroke="#191970" d="M575.5122,-220.4179C575.5122,-213.2164 575.5122,-202.8962 575.5122,-193.8632"/>
<polygon fill="#191970" stroke="#191970" points="579.0123,-193.7794 575.5122,-183.7795 572.0123,-193.7795 579.0123,-193.7794"/>
</g>
<!-- Node7 -->
<g id="node8" class="node">
<title>Node7</title>
<g id="a_node8"><a xlink:href="parallelparameters_8h.html" target="_top" xlink:title=" ">
<polygon fill="#ffffff" stroke="#000000" points="661.9707,-165.5 661.9707,-183.5 833.0537,-183.5 833.0537,-165.5 661.9707,-165.5"/>
<text text-anchor="middle" x="747.5122" y="-171.5" font-family="Helvetica,sans-Serif" font-size="10.00" fill="#000000">parallelization/parallelparameters.h</text>
</a>
</g>
</g>
<!-- Node1&#45;&gt;Node7 -->
<g id="edge9" class="edge">
<title>Node1&#45;&gt;Node7</title>
<path fill="none" stroke="#191970" d="M603.9145,-220.4179C632.7573,-211.1949 677.5967,-196.8567 709.4902,-186.6582"/>
<polygon fill="#191970" stroke="#191970" points="710.8947,-189.8837 719.3536,-183.5042 708.7627,-183.2163 710.8947,-189.8837"/>
</g>
<!-- Node8 -->
<g id="node9" class="node">
<title>Node8</title>
<g id="a_node9"><a xlink:href="functions_8h.html" target="_top" xlink:title=" ">
<polygon fill="#ffffff" stroke="#000000" points="107.3301,-165.5 107.3301,-183.5 171.6943,-183.5 171.6943,-165.5 107.3301,-165.5"/>
<text text-anchor="middle" x="139.5122" y="-171.5" font-family="Helvetica,sans-Serif" font-size="10.00" fill="#000000">functions.h</text>
</a>
</g>
</g>
<!-- Node1&#45;&gt;Node8 -->
<g id="edge11" class="edge">
<title>Node1&#45;&gt;Node8</title>
<path fill="none" stroke="#191970" d="M537.6318,-225.7502C468.7649,-218.7661 318.5158,-202.7606 192.5122,-184 189.0796,-183.4889 185.5279,-182.9263 181.964,-182.3378"/>
<polygon fill="#191970" stroke="#191970" points="182.4224,-178.8655 171.9759,-180.6322 181.244,-185.7656 182.4224,-178.8655"/>
</g>
<!-- Node4&#45;&gt;Node2 -->
<g id="edge5" class="edge">
<title>Node4&#45;&gt;Node2</title>
<path fill="none" stroke="#191970" d="M418.6413,-165.4179C405.7525,-156.9788 386.3229,-144.257 371.1809,-134.3426"/>
<polygon fill="#191970" stroke="#191970" points="372.6872,-131.1454 362.4037,-128.5956 368.8526,-137.0017 372.6872,-131.1454"/>
</g>
<!-- Node5&#45;&gt;Node2 -->
<g id="edge8" class="edge">
<title>Node5&#45;&gt;Node2</title>
<path fill="none" stroke="#191970" d="M538.282,-165.4795C494.2197,-154.8036 421.6147,-137.2121 380.1522,-127.1661"/>
<polygon fill="#191970" stroke="#191970" points="380.8611,-123.7366 370.3181,-124.7834 379.2127,-130.5398 380.8611,-123.7366"/>
</g>
<!-- Node6 -->
<g id="node7" class="node">
<title>Node6</title>
<g id="a_node7"><a xlink:href="neighbourlist_8h.html" target="_top" xlink:title=" ">
<polygon fill="#ffffff" stroke="#000000" points="534.9902,-110.5 534.9902,-128.5 616.0342,-128.5 616.0342,-110.5 534.9902,-110.5"/>
<text text-anchor="middle" x="575.5122" y="-116.5" font-family="Helvetica,sans-Serif" font-size="10.00" fill="#000000">neighbourlist.h</text>
</a>
</g>
</g>
<!-- Node5&#45;&gt;Node6 -->
<g id="edge7" class="edge">
<title>Node5&#45;&gt;Node6</title>
<path fill="none" stroke="#191970" d="M575.5122,-165.4179C575.5122,-158.2164 575.5122,-147.8962 575.5122,-138.8632"/>
<polygon fill="#191970" stroke="#191970" points="579.0123,-138.7794 575.5122,-128.7795 572.0123,-138.7795 579.0123,-138.7794"/>
</g>
<!-- Node7&#45;&gt;Node3 -->
<g id="edge10" class="edge">
<title>Node7&#45;&gt;Node3</title>
<path fill="none" stroke="#191970" d="M756.9246,-165.4179C765.2081,-157.425 777.4731,-145.5903 787.4767,-135.9377"/>
<polygon fill="#191970" stroke="#191970" points="790.1294,-138.2419 794.8953,-128.7795 785.2688,-133.2045 790.1294,-138.2419"/>
</g>
<!-- Node9 -->
<g id="node10" class="node">
<title>Node9</title>
<g id="a_node10"><a xlink:href="su3_8h.html" target="_top" xlink:title=" ">
<polygon fill="#ffffff" stroke="#000000" points="0,-110.5 0,-128.5 81.0244,-128.5 81.0244,-110.5 0,-110.5"/>
<text text-anchor="middle" x="40.5122" y="-116.5" font-family="Helvetica,sans-Serif" font-size="10.00" fill="#000000">matrices/su3.h</text>
</a>
</g>
</g>
<!-- Node8&#45;&gt;Node9 -->
<g id="edge12" class="edge">
<title>Node8&#45;&gt;Node9</title>
<path fill="none" stroke="#191970" d="M123.1644,-165.4179C107.5441,-156.7399 83.7724,-143.5334 65.726,-133.5077"/>
<polygon fill="#191970" stroke="#191970" points="67.3257,-130.3925 56.8843,-128.5956 63.9261,-136.5117 67.3257,-130.3925"/>
</g>
<!-- Node10 -->
<g id="node11" class="node">
<title>Node10</title>
<g id="a_node11"><a xlink:href="complex_8h.html" target="_top" xlink:title=" ">
<polygon fill="#ffffff" stroke="#000000" points="96.2192,-55.5 96.2192,-73.5 182.8052,-73.5 182.8052,-55.5 96.2192,-55.5"/>
<text text-anchor="middle" x="139.5122" y="-61.5" font-family="Helvetica,sans-Serif" font-size="10.00" fill="#000000">math/complex.h</text>
</a>
</g>
</g>
<!-- Node8&#45;&gt;Node10 -->
<g id="edge17" class="edge">
<title>Node8&#45;&gt;Node10</title>
<path fill="none" stroke="#191970" d="M155.3119,-165.4232C173.4077,-153.7435 199.3655,-132.2889 189.5122,-110 184.0994,-97.7558 173.584,-87.3899 163.5875,-79.6592"/>
<polygon fill="#191970" stroke="#191970" points="165.5992,-76.7949 155.4359,-73.8019 161.5145,-82.4796 165.5992,-76.7949"/>
</g>
<!-- Node12 -->
<g id="node13" class="node">
<title>Node12</title>
<g id="a_node13"><a xlink:href="su2_8h.html" target="_top" xlink:title=" ">
<polygon fill="#ffffff" stroke="#000000" points="99,-110.5 99,-128.5 180.0244,-128.5 180.0244,-110.5 99,-110.5"/>
<text text-anchor="middle" x="139.5122" y="-116.5" font-family="Helvetica,sans-Serif" font-size="10.00" fill="#000000">matrices/su2.h</text>
</a>
</g>
</g>
<!-- Node8&#45;&gt;Node12 -->
<g id="edge15" class="edge">
<title>Node8&#45;&gt;Node12</title>
<path fill="none" stroke="#191970" d="M139.5122,-165.4179C139.5122,-158.2164 139.5122,-147.8962 139.5122,-138.8632"/>
<polygon fill="#191970" stroke="#191970" points="143.0123,-138.7794 139.5122,-128.7795 136.0123,-138.7795 143.0123,-138.7794"/>
</g>
<!-- Node9&#45;&gt;Node10 -->
<g id="edge13" class="edge">
<title>Node9&#45;&gt;Node10</title>
<path fill="none" stroke="#191970" d="M56.86,-110.4179C72.4803,-101.7399 96.252,-88.5334 114.2984,-78.5077"/>
<polygon fill="#191970" stroke="#191970" points="116.0983,-81.5117 123.1401,-73.5956 112.6987,-75.3925 116.0983,-81.5117"/>
</g>
<!-- Node11 -->
<g id="node12" class="node">
<title>Node11</title>
<g id="a_node12"><a xlink:title=" ">
<polygon fill="#ffffff" stroke="#bfbfbf" points="112.3398,-.5 112.3398,-18.5 166.6846,-18.5 166.6846,-.5 112.3398,-.5"/>
<text text-anchor="middle" x="139.5122" y="-6.5" font-family="Helvetica,sans-Serif" font-size="10.00" fill="#000000">iostream</text>
</a>
</g>
</g>
<!-- Node10&#45;&gt;Node11 -->
<g id="edge14" class="edge">
<title>Node10&#45;&gt;Node11</title>
<path fill="none" stroke="#191970" d="M139.5122,-55.4179C139.5122,-48.2164 139.5122,-37.8962 139.5122,-28.8632"/>
<polygon fill="#191970" stroke="#191970" points="143.0123,-28.7794 139.5122,-18.7795 136.0123,-28.7795 143.0123,-28.7794"/>
</g>
<!-- Node12&#45;&gt;Node10 -->
<g id="edge16" class="edge">
<title>Node12&#45;&gt;Node10</title>
<path fill="none" stroke="#191970" d="M139.5122,-110.4179C139.5122,-103.2164 139.5122,-92.8962 139.5122,-83.8632"/>
<polygon fill="#191970" stroke="#191970" points="143.0123,-83.7794 139.5122,-73.7795 136.0123,-83.7795 143.0123,-83.7794"/>
</g>
<!-- Node13&#45;&gt;Node0 -->
<g id="edge41" class="edge">
<title>Node13&#45;&gt;Node0</title>
<path fill="none" stroke="#191970" d="M552.5496,-403.5956C570.2835,-412.1986 594.7531,-425.2435 612.0513,-435.2313"/>
<polygon fill="#191970" stroke="#191970" points="610.4448,-438.3472 620.8353,-440.4179 614.0039,-432.3195 610.4448,-438.3472"/>
</g>
<!-- Node14 -->
<g id="node15" class="node">
<title>Node14</title>
<g id="a_node15"><a xlink:href="correlator_8h.html" target="_top" xlink:title=" ">
<polygon fill="#ffffff" stroke="#000000" points="248.4976,-275.5 248.4976,-293.5 314.5269,-293.5 314.5269,-275.5 248.4976,-275.5"/>
<text text-anchor="middle" x="281.5122" y="-281.5" font-family="Helvetica,sans-Serif" font-size="10.00" fill="#000000">correlator.h</text>
</a>
</g>
</g>
<!-- Node13&#45;&gt;Node14 -->
<g id="edge19" class="edge">
<title>Node13&#45;&gt;Node14</title>
<path fill="none" stroke="#191970" d="M462.8099,-388.8332C403.7262,-382.5393 323.887,-370.3353 300.5122,-349 288.1301,-337.6982 283.6609,-318.7788 282.1233,-304.345"/>
<polygon fill="#191970" stroke="#191970" points="285.5882,-303.7041 281.4236,-293.9622 278.604,-304.1749 285.5882,-303.7041"/>
</g>
<!-- Node17 -->
<g id="node18" class="node">
<title>Node17</title>
<g id="a_node18"><a xlink:href="energydensity_8h.html" target="_top" xlink:title=" ">
<polygon fill="#ffffff" stroke="#000000" points="47.5806,-330.5 47.5806,-348.5 133.4438,-348.5 133.4438,-330.5 47.5806,-330.5"/>
<text text-anchor="middle" x="90.5122" y="-336.5" font-family="Helvetica,sans-Serif" font-size="10.00" fill="#000000">energydensity.h</text>
</a>
</g>
</g>
<!-- Node13&#45;&gt;Node17 -->
<g id="edge25" class="edge">
<title>Node13&#45;&gt;Node17</title>
<path fill="none" stroke="#191970" d="M462.6996,-387.8754C387.2403,-380.2045 261.4694,-366.5307 143.5336,-349.0736"/>
<polygon fill="#191970" stroke="#191970" points="144.0141,-345.6066 133.607,-347.5924 142.981,-352.5299 144.0141,-345.6066"/>
</g>
<!-- Node18 -->
<g id="node19" class="node">
<title>Node18</title>
<g id="a_node19"><a xlink:href="plaquette_8h.html" target="_top" xlink:title=" ">
<polygon fill="#ffffff" stroke="#000000" points="309.7686,-330.5 309.7686,-348.5 375.2559,-348.5 375.2559,-330.5 309.7686,-330.5"/>
<text text-anchor="middle" x="342.5122" y="-336.5" font-family="Helvetica,sans-Serif" font-size="10.00" fill="#000000">plaquette.h</text>
</a>
</g>
</g>
<!-- Node13&#45;&gt;Node18 -->
<g id="edge28" class="edge">
<title>Node13&#45;&gt;Node18</title>
<path fill="none" stroke="#191970" d="M499.4678,-385.4179C467.6691,-376.115 418.0815,-361.608 383.1689,-351.3943"/>
<polygon fill="#191970" stroke="#191970" points="383.8707,-347.9529 373.2902,-348.5042 381.9052,-354.6713 383.8707,-347.9529"/>
</g>
<!-- Node19 -->
<g id="node20" class="node">
<title>Node19</title>
<g id="a_node20"><a xlink:href="topologicalcharge_8h.html" target="_top" xlink:title=" ">
<polygon fill="#ffffff" stroke="#000000" points="151.1479,-330.5 151.1479,-348.5 253.8765,-348.5 253.8765,-330.5 151.1479,-330.5"/>
<text text-anchor="middle" x="202.5122" y="-336.5" font-family="Helvetica,sans-Serif" font-size="10.00" fill="#000000">topologicalcharge.h</text>
</a>
</g>
</g>
<!-- Node13&#45;&gt;Node19 -->
<g id="edge30" class="edge">
<title>Node13&#45;&gt;Node19</title>
<path fill="none" stroke="#191970" d="M476.717,-385.4795C418.2688,-375.6787 325.0626,-360.0496 263.8224,-349.7807"/>
<polygon fill="#191970" stroke="#191970" points="264.3445,-346.3194 253.9034,-348.1174 263.1869,-353.2231 264.3445,-346.3194"/>
</g>
<!-- Node20 -->
<g id="node21" class="node">
<title>Node20</title>
<g id="a_node21"><a xlink:href="mastersampler_8h.html" target="_top" xlink:title=" ">
<polygon fill="#ffffff" stroke="#000000" points="692.5518,-330.5 692.5518,-348.5 782.4727,-348.5 782.4727,-330.5 692.5518,-330.5"/>
<text text-anchor="middle" x="737.5122" y="-336.5" font-family="Helvetica,sans-Serif" font-size="10.00" fill="#000000">mastersampler.h</text>
</a>
</g>
</g>
<!-- Node13&#45;&gt;Node20 -->
<g id="edge32" class="edge">
<title>Node13&#45;&gt;Node20</title>
<path fill="none" stroke="#191970" d="M559.5277,-385.4179C593.0394,-375.9953 648.4491,-361.2336 688.6133,-351.0019"/>
<polygon fill="#191970" stroke="#191970" points="689.6392,-354.3527 698.4735,-348.5042 687.9202,-347.567 689.6392,-354.3527"/>
</g>
<!-- Node21 -->
<g id="node22" class="node">
<title>Node21</title>
<g id="a_node22"><a xlink:href="mastersamplertopcxyz_8h.html" target="_top" xlink:title=" ">
<polygon fill="#ffffff" stroke="#000000" points="393.3276,-330.5 393.3276,-348.5 517.6968,-348.5 517.6968,-330.5 393.3276,-330.5"/>
<text text-anchor="middle" x="455.5122" y="-336.5" font-family="Helvetica,sans-Serif" font-size="10.00" fill="#000000">mastersamplertopcxyz.h</text>
</a>
</g>
</g>
<!-- Node13&#45;&gt;Node21 -->
<g id="edge35" class="edge">
<title>Node13&#45;&gt;Node21</title>
<path fill="none" stroke="#191970" d="M512.9612,-385.4179C500.1577,-377.2667 483.2557,-365.1201 470.9672,-355.3669"/>
<polygon fill="#191970" stroke="#191970" points="472.9055,-352.4294 462.9592,-348.7795 468.4585,-357.8353 472.9055,-352.4294"/>
</g>
<!-- Node22 -->
<g id="node23" class="node">
<title>Node22</title>
<g id="a_node23"><a xlink:href="latticeactionchargedensity_8h.html" target="_top" xlink:title=" ">
<polygon fill="#ffffff" stroke="#000000" points="536.1768,-330.5 536.1768,-348.5 674.8477,-348.5 674.8477,-330.5 536.1768,-330.5"/>
<text text-anchor="middle" x="605.5122" y="-336.5" font-family="Helvetica,sans-Serif" font-size="10.00" fill="#000000">latticeactionchargedensity.h</text>
</a>
</g>
</g>
<!-- Node13&#45;&gt;Node22 -->
<g id="edge38" class="edge">
<title>Node13&#45;&gt;Node22</title>
<path fill="none" stroke="#191970" d="M537.7306,-385.4179C547.4906,-376.9788 564.5374,-364.257 579.2029,-354.3426"/>
<polygon fill="#191970" stroke="#191970" points="581.5087,-357.0152 587.94,-348.5956 577.6619,-351.1669 581.5087,-357.0152"/>
</g>
<!-- Node14&#45;&gt;Node1 -->
<g id="edge20" class="edge">
<title>Node14&#45;&gt;Node1</title>
<path fill="none" stroke="#191970" d="M314.6662,-278.2977C366.6237,-268.5778 467.473,-249.7114 527.411,-238.4985"/>
<polygon fill="#191970" stroke="#191970" points="528.1994,-241.9118 537.3853,-236.6326 526.9122,-235.0312 528.1994,-241.9118"/>
</g>
<!-- Node14&#45;&gt;Node2 -->
<g id="edge24" class="edge">
<title>Node14&#45;&gt;Node2</title>
<path fill="none" stroke="#191970" d="M285.3064,-275.1561C295.9936,-248.837 326.5001,-173.709 340.861,-138.3426"/>
<polygon fill="#191970" stroke="#191970" points="344.2402,-139.3235 344.7596,-128.7414 337.7545,-136.6899 344.2402,-139.3235"/>
</g>
<!-- Node15 -->
<g id="node16" class="node">
<title>Node15</title>
<g id="a_node16"><a xlink:href="observablestorer_8h.html" target="_top" xlink:title=" ">
<polygon fill="#ffffff" stroke="#000000" points="160.4238,-220.5 160.4238,-238.5 282.6006,-238.5 282.6006,-220.5 160.4238,-220.5"/>
<text text-anchor="middle" x="221.5122" y="-226.5" font-family="Helvetica,sans-Serif" font-size="10.00" fill="#000000">tools/observablestorer.h</text>
</a>
</g>
</g>
<!-- Node14&#45;&gt;Node15 -->
<g id="edge21" class="edge">
<title>Node14&#45;&gt;Node15</title>
<path fill="none" stroke="#191970" d="M271.6044,-275.4179C262.7986,-267.3458 249.7183,-255.3556 239.1322,-245.6517"/>
<polygon fill="#191970" stroke="#191970" points="241.3719,-242.9567 231.6353,-238.7795 236.6418,-248.1168 241.3719,-242.9567"/>
</g>
<!-- Node15&#45;&gt;Node2 -->
<g id="edge23" class="edge">
<title>Node15&#45;&gt;Node2</title>
<path fill="none" stroke="#191970" d="M231.9052,-220.4982C253.4873,-201.805 303.3942,-158.5786 330.3899,-135.1964"/>
<polygon fill="#191970" stroke="#191970" points="332.7083,-137.8188 337.9757,-128.6261 328.1253,-132.5276 332.7083,-137.8188"/>
</g>
<!-- Node16 -->
<g id="node17" class="node">
<title>Node16</title>
<g id="a_node17"><a xlink:title=" ">
<polygon fill="#ffffff" stroke="#bfbfbf" points="201.2856,-165.5 201.2856,-183.5 241.7388,-183.5 241.7388,-165.5 201.2856,-165.5"/>
<text text-anchor="middle" x="221.5122" y="-171.5" font-family="Helvetica,sans-Serif" font-size="10.00" fill="#000000">string</text>
</a>
</g>
</g>
<!-- Node15&#45;&gt;Node16 -->
<g id="edge22" class="edge">
<title>Node15&#45;&gt;Node16</title>
<path fill="none" stroke="#191970" d="M221.5122,-220.4179C221.5122,-213.2164 221.5122,-202.8962 221.5122,-193.8632"/>
<polygon fill="#191970" stroke="#191970" points="225.0123,-193.7794 221.5122,-183.7795 218.0123,-193.7795 225.0123,-193.7794"/>
</g>
<!-- Node17&#45;&gt;Node8 -->
<g id="edge27" class="edge">
<title>Node17&#45;&gt;Node8</title>
<path fill="none" stroke="#191970" d="M93.2871,-330.1561C101.103,-303.837 123.4138,-228.709 133.9165,-193.3426"/>
<polygon fill="#191970" stroke="#191970" points="137.2761,-194.324 136.7678,-183.7414 130.5657,-192.3312 137.2761,-194.324"/>
</g>
<!-- Node17&#45;&gt;Node14 -->
<g id="edge26" class="edge">
<title>Node17&#45;&gt;Node14</title>
<path fill="none" stroke="#191970" d="M122.052,-330.4179C154.3581,-321.115 204.737,-306.608 240.2067,-296.3943"/>
<polygon fill="#191970" stroke="#191970" points="241.602,-299.6348 250.243,-293.5042 239.665,-292.9081 241.602,-299.6348"/>
</g>
<!-- Node18&#45;&gt;Node14 -->
<g id="edge29" class="edge">
<title>Node18&#45;&gt;Node14</title>
<path fill="none" stroke="#191970" d="M332.4393,-330.4179C323.4867,-322.3458 310.1884,-310.3556 299.4259,-300.6517"/>
<polygon fill="#191970" stroke="#191970" points="301.5746,-297.8764 291.804,-293.7795 296.8871,-303.0753 301.5746,-297.8764"/>
</g>
<!-- Node19&#45;&gt;Node14 -->
<g id="edge31" class="edge">
<title>Node19&#45;&gt;Node14</title>
<path fill="none" stroke="#191970" d="M215.5575,-330.4179C227.6791,-321.9788 245.9522,-309.257 260.1929,-299.3426"/>
<polygon fill="#191970" stroke="#191970" points="262.2404,-302.1818 268.4476,-293.5956 258.2408,-296.4369 262.2404,-302.1818"/>
</g>
<!-- Node20&#45;&gt;Node1 -->
<g id="edge33" class="edge">
<title>Node20&#45;&gt;Node1</title>
<path fill="none" stroke="#191970" d="M724.2551,-330.4982C696.369,-311.5633 631.4119,-267.4566 597.3077,-244.2994"/>
<polygon fill="#191970" stroke="#191970" points="599.1918,-241.3481 588.9525,-238.6261 595.2595,-247.1393 599.1918,-241.3481"/>
</g>
<!-- Node20&#45;&gt;Node13 -->
<g id="edge34" class="edge">
<title>Node20&#45;&gt;Node13</title>
<path fill="none" stroke="#191970" d="M708.7737,-348.5042C675.3833,-357.8973 619.9922,-372.6566 579.7441,-382.9133"/>
<polygon fill="#191970" stroke="#191970" points="578.6942,-379.5686 569.8604,-385.4179 580.4138,-386.3541 578.6942,-379.5686"/>
</g>
<!-- Node21&#45;&gt;Node1 -->
<g id="edge36" class="edge">
<title>Node21&#45;&gt;Node1</title>
<path fill="none" stroke="#191970" d="M465.3323,-330.4982C485.637,-311.8856 532.475,-268.9508 558.0578,-245.4999"/>
<polygon fill="#191970" stroke="#191970" points="560.5499,-247.9635 565.5564,-238.6261 555.8198,-242.8034 560.5499,-247.9635"/>
</g>
<!-- Node21&#45;&gt;Node13 -->
<g id="edge37" class="edge">
<title>Node21&#45;&gt;Node13</title>
<path fill="none" stroke="#191970" d="M473.0844,-348.5956C485.9696,-356.8003 502.9979,-369.0451 515.299,-378.8251"/>
<polygon fill="#191970" stroke="#191970" points="513.3519,-381.756 523.2938,-385.4179 517.8054,-376.3554 513.3519,-381.756"/>
</g>
<!-- Node22&#45;&gt;Node1 -->
<g id="edge39" class="edge">
<title>Node22&#45;&gt;Node1</title>
<path fill="none" stroke="#191970" d="M603.0572,-330.4982C598.1788,-312.6108 587.1739,-272.2594 580.6469,-248.3271"/>
<polygon fill="#191970" stroke="#191970" points="584.0091,-247.3528 578.0012,-238.6261 577.2557,-249.1947 584.0091,-247.3528"/>
</g>
<!-- Node22&#45;&gt;Node13 -->
<g id="edge40" class="edge">
<title>Node22&#45;&gt;Node13</title>
<path fill="none" stroke="#191970" d="M598.0652,-348.7795C588.2517,-357.2337 571.3126,-369.8651 556.7435,-379.7102"/>
<polygon fill="#191970" stroke="#191970" points="554.4958,-376.9993 548.0633,-385.4179 558.3417,-382.8481 554.4958,-376.9993"/>
</g>
</g>
</svg>
