<?xml version="1.0" encoding="UTF-8" standalone="no"?>
<!DOCTYPE svg PUBLIC "-//W3C//DTD SVG 1.1//EN"
 "http://www.w3.org/Graphics/SVG/1.1/DTD/svg11.dtd">
<!-- Generated by graphviz version 2.40.1 (20161225.0304)
 -->
<!-- Title: GluonicLQCD/observables/supersampler.h Pages: 1 -->
<svg width="757pt" height="232pt"
 viewBox="0.00 0.00 756.53 232.00" xmlns="http://www.w3.org/2000/svg" xmlns:xlink="http://www.w3.org/1999/xlink">
<g id="graph0" class="graph" transform="scale(1 1) rotate(0) translate(4 228)">
<title>GluonicLQCD/observables/supersampler.h</title>
<polygon fill="#ffffff" stroke="transparent" points="-4,4 -4,-228 752.5273,-228 752.5273,4 -4,4"/>
<!-- Node24 -->
<g id="node1" class="node">
<title>Node24</title>
<g id="a_node1"><a xlink:title=" ">
<polygon fill="#bfbfbf" stroke="#000000" points="441.3276,-195.5 441.3276,-223.5 575.7163,-223.5 575.7163,-195.5 441.3276,-195.5"/>
<text text-anchor="start" x="449.3276" y="-211.5" font-family="Helvetica,sans-Serif" font-size="10.00" fill="#000000">GluonicLQCD/observables</text>
<text text-anchor="middle" x="508.522" y="-201.5" font-family="Helvetica,sans-Serif" font-size="10.00" fill="#000000">/supersampler.h</text>
</a>
</g>
</g>
<!-- Node25 -->
<g id="node2" class="node">
<title>Node25</title>
<g id="a_node2"><a xlink:href="observables_8h.html" target="_top" xlink:title=" ">
<polygon fill="#ffffff" stroke="#000000" points="441.3276,-130.5 441.3276,-158.5 575.7163,-158.5 575.7163,-130.5 441.3276,-130.5"/>
<text text-anchor="start" x="449.3276" y="-146.5" font-family="Helvetica,sans-Serif" font-size="10.00" fill="#000000">GluonicLQCD/observables</text>
<text text-anchor="middle" x="508.522" y="-136.5" font-family="Helvetica,sans-Serif" font-size="10.00" fill="#000000">/observables.h</text>
</a>
</g>
</g>
<!-- Node24&#45;&gt;Node25 -->
<g id="edge1" class="edge">
<title>Node24&#45;&gt;Node25</title>
<path fill="none" stroke="#191970" d="M501.9766,-185.4029C501.5275,-176.3703 501.8176,-166.4078 502.8472,-158.5765"/>
<polygon fill="#191970" stroke="#191970" points="498.4923,-185.7359 502.8436,-195.396 505.4661,-185.1309 498.4923,-185.7359"/>
</g>
<!-- Node35 -->
<g id="node12" class="node">
<title>Node35</title>
<g id="a_node12"><a xlink:href="supersampler_8cpp.html" target="_top" xlink:title=" ">
<polygon fill="#ffffff" stroke="#000000" points="593.3276,-130.5 593.3276,-158.5 727.7163,-158.5 727.7163,-130.5 593.3276,-130.5"/>
<text text-anchor="start" x="601.3276" y="-146.5" font-family="Helvetica,sans-Serif" font-size="10.00" fill="#000000">GluonicLQCD/observables</text>
<text text-anchor="middle" x="660.522" y="-136.5" font-family="Helvetica,sans-Serif" font-size="10.00" fill="#000000">/supersampler.cpp</text>
</a>
</g>
</g>
<!-- Node24&#45;&gt;Node35 -->
<g id="edge15" class="edge">
<title>Node24&#45;&gt;Node35</title>
<path fill="none" stroke="#191970" d="M550.8327,-191.4066C575.0994,-181.0294 605.1112,-168.1954 627.6046,-158.5765"/>
<polygon fill="#191970" stroke="#191970" points="549.3221,-188.2459 541.5037,-195.396 552.0745,-194.6821 549.3221,-188.2459"/>
</g>
<!-- Node25&#45;&gt;Node24 -->
<g id="edge14" class="edge">
<title>Node25&#45;&gt;Node24</title>
<path fill="none" stroke="#191970" d="M515.0657,-168.5653C515.5166,-177.5958 515.2282,-187.5597 514.2004,-195.396"/>
<polygon fill="#191970" stroke="#191970" points="518.5503,-168.2355 514.1968,-158.5765 511.5767,-168.8422 518.5503,-168.2355"/>
</g>
<!-- Node26 -->
<g id="node3" class="node">
<title>Node26</title>
<g id="a_node3"><a xlink:href="system_8h.html" target="_top" xlink:title=" ">
<polygon fill="#ffffff" stroke="#000000" points="144.2832,-70.5 144.2832,-88.5 264.7607,-88.5 264.7607,-70.5 144.2832,-70.5"/>
<text text-anchor="middle" x="204.522" y="-76.5" font-family="Helvetica,sans-Serif" font-size="10.00" fill="#000000">GluonicLQCD/system.h</text>
</a>
</g>
</g>
<!-- Node25&#45;&gt;Node26 -->
<g id="edge2" class="edge">
<title>Node25&#45;&gt;Node26</title>
<path fill="none" stroke="#191970" d="M432.9403,-128.3394C374.1125,-115.7611 294.6435,-98.7694 246.6216,-88.5016"/>
<polygon fill="#191970" stroke="#191970" points="432.422,-131.8077 442.9328,-130.476 433.8856,-124.9624 432.422,-131.8077"/>
</g>
<!-- Node29 -->
<g id="node6" class="node">
<title>Node29</title>
<g id="a_node6"><a xlink:href="mastersampler_8h.html" target="_top" xlink:title=" ">
<polygon fill="#ffffff" stroke="#000000" points="289.3276,-65.5 289.3276,-93.5 423.7163,-93.5 423.7163,-65.5 289.3276,-65.5"/>
<text text-anchor="start" x="297.3276" y="-81.5" font-family="Helvetica,sans-Serif" font-size="10.00" fill="#000000">GluonicLQCD/observables</text>
<text text-anchor="middle" x="356.522" y="-71.5" font-family="Helvetica,sans-Serif" font-size="10.00" fill="#000000">/mastersampler.h</text>
</a>
</g>
</g>
<!-- Node25&#45;&gt;Node29 -->
<g id="edge5" class="edge">
<title>Node25&#45;&gt;Node29</title>
<path fill="none" stroke="#191970" d="M460.4237,-126.5442C435.1205,-116.143 405.0874,-103.238 383.7645,-93.5765"/>
<polygon fill="#191970" stroke="#191970" points="459.2806,-129.8579 469.8618,-130.396 461.9257,-123.3768 459.2806,-129.8579"/>
</g>
<!-- Node31 -->
<g id="node8" class="node">
<title>Node31</title>
<g id="a_node8"><a xlink:href="mastersamplertopcxyz_8h.html" target="_top" xlink:title=" ">
<polygon fill="#ffffff" stroke="#000000" points="441.3276,-65.5 441.3276,-93.5 575.7163,-93.5 575.7163,-65.5 441.3276,-65.5"/>
<text text-anchor="start" x="449.3276" y="-81.5" font-family="Helvetica,sans-Serif" font-size="10.00" fill="#000000">GluonicLQCD/observables</text>
<text text-anchor="middle" x="508.522" y="-71.5" font-family="Helvetica,sans-Serif" font-size="10.00" fill="#000000">/mastersamplertopcxyz.h</text>
</a>
</g>
</g>
<!-- Node25&#45;&gt;Node31 -->
<g id="edge8" class="edge">
<title>Node25&#45;&gt;Node31</title>
<path fill="none" stroke="#191970" d="M501.9766,-120.4029C501.5275,-111.3703 501.8176,-101.4078 502.8472,-93.5765"/>
<polygon fill="#191970" stroke="#191970" points="498.4923,-120.7359 502.8436,-130.396 505.4661,-120.1309 498.4923,-120.7359"/>
</g>
<!-- Node33 -->
<g id="node10" class="node">
<title>Node33</title>
<g id="a_node10"><a xlink:href="latticeactionchargedensity_8h.html" target="_top" xlink:title=" ">
<polygon fill="#ffffff" stroke="#000000" points="593.7974,-65.5 593.7974,-93.5 735.2466,-93.5 735.2466,-65.5 593.7974,-65.5"/>
<text text-anchor="start" x="601.7974" y="-81.5" font-family="Helvetica,sans-Serif" font-size="10.00" fill="#000000">GluonicLQCD/observables</text>
<text text-anchor="middle" x="664.522" y="-71.5" font-family="Helvetica,sans-Serif" font-size="10.00" fill="#000000">/latticeactionchargedensity.h</text>
</a>
</g>
</g>
<!-- Node25&#45;&gt;Node33 -->
<g id="edge11" class="edge">
<title>Node25&#45;&gt;Node33</title>
<path fill="none" stroke="#191970" d="M546.1422,-126.2687C570.0368,-115.9159 600.8214,-103.1528 625.0636,-93.5765"/>
<polygon fill="#191970" stroke="#191970" points="544.4562,-123.1857 536.6932,-130.396 547.2582,-129.6005 544.4562,-123.1857"/>
</g>
<!-- Node27 -->
<g id="node4" class="node">
<title>Node27</title>
<g id="a_node4"><a xlink:href="main_8cpp.html" target="_top" xlink:title=" ">
<polygon fill="#ffffff" stroke="#000000" points="0,-5.5 0,-23.5 121.0439,-23.5 121.0439,-5.5 0,-5.5"/>
<text text-anchor="middle" x="60.522" y="-11.5" font-family="Helvetica,sans-Serif" font-size="10.00" fill="#000000">GluonicLQCD/main.cpp</text>
</a>
</g>
</g>
<!-- Node26&#45;&gt;Node27 -->
<g id="edge3" class="edge">
<title>Node26&#45;&gt;Node27</title>
<path fill="none" stroke="#191970" d="M175.1782,-66.2545C147.0866,-53.5743 105.4471,-34.7787 80.8387,-23.6708"/>
<polygon fill="#191970" stroke="#191970" points="173.9449,-69.5379 184.4994,-70.462 176.8249,-63.1577 173.9449,-69.5379"/>
</g>
<!-- Node28 -->
<g id="node5" class="node">
<title>Node28</title>
<g id="a_node5"><a xlink:href="system_8cpp.html" target="_top" xlink:title=" ">
<polygon fill="#ffffff" stroke="#000000" points="139.0024,-5.5 139.0024,-23.5 270.0415,-23.5 270.0415,-5.5 139.0024,-5.5"/>
<text text-anchor="middle" x="204.522" y="-11.5" font-family="Helvetica,sans-Serif" font-size="10.00" fill="#000000">GluonicLQCD/system.cpp</text>
</a>
</g>
</g>
<!-- Node26&#45;&gt;Node28 -->
<g id="edge4" class="edge">
<title>Node26&#45;&gt;Node28</title>
<path fill="none" stroke="#191970" d="M204.522,-60.1265C204.522,-48.1522 204.522,-33.3205 204.522,-23.8821"/>
<polygon fill="#191970" stroke="#191970" points="201.0221,-60.462 204.522,-70.462 208.0221,-60.4621 201.0221,-60.462"/>
</g>
<!-- Node29&#45;&gt;Node25 -->
<g id="edge6" class="edge">
<title>Node29&#45;&gt;Node25</title>
<path fill="none" stroke="#191970" d="M404.5482,-97.4262C429.8424,-107.8226 459.8793,-120.7284 481.2187,-130.396"/>
<polygon fill="#191970" stroke="#191970" points="405.6953,-94.1142 395.1141,-93.5765 403.0506,-100.5953 405.6953,-94.1142"/>
</g>
<!-- Node30 -->
<g id="node7" class="node">
<title>Node30</title>
<g id="a_node7"><a xlink:href="mastersampler_8cpp.html" target="_top" xlink:title=" ">
<polygon fill="#ffffff" stroke="#000000" points="288.3276,-.5 288.3276,-28.5 422.7163,-28.5 422.7163,-.5 288.3276,-.5"/>
<text text-anchor="start" x="296.3276" y="-16.5" font-family="Helvetica,sans-Serif" font-size="10.00" fill="#000000">GluonicLQCD/observables</text>
<text text-anchor="middle" x="355.522" y="-6.5" font-family="Helvetica,sans-Serif" font-size="10.00" fill="#000000">/mastersampler.cpp</text>
</a>
</g>
</g>
<!-- Node29&#45;&gt;Node30 -->
<g id="edge7" class="edge">
<title>Node29&#45;&gt;Node30</title>
<path fill="none" stroke="#191970" d="M356.1467,-55.1081C356.009,-46.1539 355.8577,-36.3227 355.7385,-28.5765"/>
<polygon fill="#191970" stroke="#191970" points="352.6515,-55.451 356.305,-65.396 359.6506,-55.3433 352.6515,-55.451"/>
</g>
<!-- Node31&#45;&gt;Node25 -->
<g id="edge9" class="edge">
<title>Node31&#45;&gt;Node25</title>
<path fill="none" stroke="#191970" d="M515.0657,-103.5653C515.5166,-112.5958 515.2282,-122.5597 514.2004,-130.396"/>
<polygon fill="#191970" stroke="#191970" points="518.5503,-103.2355 514.1968,-93.5765 511.5767,-103.8422 518.5503,-103.2355"/>
</g>
<!-- Node32 -->
<g id="node9" class="node">
<title>Node32</title>
<g id="a_node9"><a xlink:href="mastersamplertopcxyz_8cpp.html" target="_top" xlink:title=" ">
<polygon fill="#ffffff" stroke="#000000" points="440.6675,-.5 440.6675,-28.5 578.3765,-28.5 578.3765,-.5 440.6675,-.5"/>
<text text-anchor="start" x="448.6675" y="-16.5" font-family="Helvetica,sans-Serif" font-size="10.00" fill="#000000">GluonicLQCD/observables</text>
<text text-anchor="middle" x="509.522" y="-6.5" font-family="Helvetica,sans-Serif" font-size="10.00" fill="#000000">/mastersamplertopcxyz.cpp</text>
</a>
</g>
</g>
<!-- Node31&#45;&gt;Node32 -->
<g id="edge10" class="edge">
<title>Node31&#45;&gt;Node32</title>
<path fill="none" stroke="#191970" d="M508.8972,-55.1081C509.035,-46.1539 509.1862,-36.3227 509.3054,-28.5765"/>
<polygon fill="#191970" stroke="#191970" points="505.3933,-55.3433 508.739,-65.396 512.3925,-55.451 505.3933,-55.3433"/>
</g>
<!-- Node33&#45;&gt;Node25 -->
<g id="edge12" class="edge">
<title>Node33&#45;&gt;Node25</title>
<path fill="none" stroke="#191970" d="M626.9704,-97.7016C603.089,-108.0498 572.3047,-120.8135 548.0501,-130.396"/>
<polygon fill="#191970" stroke="#191970" points="628.6505,-100.7871 636.4132,-93.5765 625.8483,-94.3724 628.6505,-100.7871"/>
</g>
<!-- Node34 -->
<g id="node11" class="node">
<title>Node34</title>
<g id="a_node11"><a xlink:href="latticeactionchargedensity_8cpp.html" target="_top" xlink:title=" ">
<polygon fill="#ffffff" stroke="#000000" points="596.5166,-.5 596.5166,-28.5 748.5273,-28.5 748.5273,-.5 596.5166,-.5"/>
<text text-anchor="start" x="604.5166" y="-16.5" font-family="Helvetica,sans-Serif" font-size="10.00" fill="#000000">GluonicLQCD/observables</text>
<text text-anchor="middle" x="672.522" y="-6.5" font-family="Helvetica,sans-Serif" font-size="10.00" fill="#000000">/latticeactionchargedensity.cpp</text>
</a>
</g>
</g>
<!-- Node33&#45;&gt;Node34 -->
<g id="edge13" class="edge">
<title>Node33&#45;&gt;Node34</title>
<path fill="none" stroke="#191970" d="M667.4878,-55.4029C668.5995,-46.3703 669.8256,-36.4078 670.7895,-28.5765"/>
<polygon fill="#191970" stroke="#191970" points="664.0057,-55.0433 666.2579,-65.396 670.9533,-55.8984 664.0057,-55.0433"/>
</g>
</g>
</svg>
