<?xml version="1.0" encoding="UTF-8" standalone="no"?>
<!DOCTYPE svg PUBLIC "-//W3C//DTD SVG 1.1//EN"
 "http://www.w3.org/Graphics/SVG/1.1/DTD/svg11.dtd">
<!-- Generated by graphviz version 2.40.1 (20161225.0304)
 -->
<!-- Title: GLAC/config/sysprint.h Pages: 1 -->
<svg width="415pt" height="82pt"
 viewBox="0.00 0.00 414.77 82.00" xmlns="http://www.w3.org/2000/svg" xmlns:xlink="http://www.w3.org/1999/xlink">
<g id="graph0" class="graph" transform="scale(1 1) rotate(0) translate(4 78)">
<title>GLAC/config/sysprint.h</title>
<polygon fill="#ffffff" stroke="transparent" points="-4,4 -4,-78 410.7656,-78 410.7656,4 -4,4"/>
<!-- Node17 -->
<g id="node1" class="node">
<title>Node17</title>
<g id="a_node1"><a xlink:title=" ">
<polygon fill="#bfbfbf" stroke="#000000" points="168.3423,-55.5 168.3423,-73.5 286.6079,-73.5 286.6079,-55.5 168.3423,-55.5"/>
<text text-anchor="middle" x="227.4751" y="-61.5" font-family="Helvetica,sans-Serif" font-size="10.00" fill="#000000">GLAC/config/sysprint.h</text>
</a>
</g>
</g>
<!-- Node18 -->
<g id="node2" class="node">
<title>Node18</title>
<g id="a_node2"><a xlink:href="parameters_8cpp.html" target="_top" xlink:title=" ">
<polygon fill="#ffffff" stroke="#000000" points="0,-.5 0,-18.5 144.9502,-18.5 144.9502,-.5 0,-.5"/>
<text text-anchor="middle" x="72.4751" y="-6.5" font-family="Helvetica,sans-Serif" font-size="10.00" fill="#000000">GLAC/config/parameters.cpp</text>
</a>
</g>
</g>
<!-- Node17&#45;&gt;Node18 -->
<g id="edge1" class="edge">
<title>Node17&#45;&gt;Node18</title>
<path fill="none" stroke="#191970" d="M192.2167,-51.989C163.4623,-41.7858 123.5367,-27.6186 97.8506,-18.5042"/>
<polygon fill="#191970" stroke="#191970" points="191.2853,-55.3722 201.88,-55.4179 193.6262,-48.7752 191.2853,-55.3722"/>
</g>
<!-- Node19 -->
<g id="node3" class="node">
<title>Node19</title>
<g id="a_node3"><a xlink:href="sysprint_8cpp.html" target="_top" xlink:title=" ">
<polygon fill="#ffffff" stroke="#000000" points="163.0615,-.5 163.0615,-18.5 291.8887,-18.5 291.8887,-.5 163.0615,-.5"/>
<text text-anchor="middle" x="227.4751" y="-6.5" font-family="Helvetica,sans-Serif" font-size="10.00" fill="#000000">GLAC/config/sysprint.cpp</text>
</a>
</g>
</g>
<!-- Node17&#45;&gt;Node19 -->
<g id="edge2" class="edge">
<title>Node17&#45;&gt;Node19</title>
<path fill="none" stroke="#191970" d="M227.4751,-45.383C227.4751,-36.3738 227.4751,-26.0373 227.4751,-18.7795"/>
<polygon fill="#191970" stroke="#191970" points="223.9752,-45.4178 227.4751,-55.4179 230.9752,-45.4179 223.9752,-45.4178"/>
</g>
<!-- Node20 -->
<g id="node4" class="node">
<title>Node20</title>
<g id="a_node4"><a xlink:href="system_8cpp.html" target="_top" xlink:title=" ">
<polygon fill="#ffffff" stroke="#000000" points="310.1846,-.5 310.1846,-18.5 406.7656,-18.5 406.7656,-.5 310.1846,-.5"/>
<text text-anchor="middle" x="358.4751" y="-6.5" font-family="Helvetica,sans-Serif" font-size="10.00" fill="#000000">GLAC/system.cpp</text>
</a>
</g>
</g>
<!-- Node17&#45;&gt;Node20 -->
<g id="edge3" class="edge">
<title>Node17&#45;&gt;Node20</title>
<path fill="none" stroke="#191970" d="M258.5262,-51.4633C282.6421,-41.3383 315.4665,-27.5571 336.811,-18.5956"/>
<polygon fill="#191970" stroke="#191970" points="256.9725,-48.3196 249.1071,-55.4179 259.6823,-54.7738 256.9725,-48.3196"/>
</g>
</g>
</svg>
