<?xml version="1.0" encoding="UTF-8" standalone="no"?>
<!DOCTYPE svg PUBLIC "-//W3C//DTD SVG 1.1//EN"
 "http://www.w3.org/Graphics/SVG/1.1/DTD/svg11.dtd">
<!-- Generated by graphviz version 2.40.1 (20161225.0304)
 -->
<!-- Title: GluonicLQCD/system.h Pages: 1 -->
<svg width="278pt" height="82pt"
 viewBox="0.00 0.00 278.04 82.00" xmlns="http://www.w3.org/2000/svg" xmlns:xlink="http://www.w3.org/1999/xlink">
<g id="graph0" class="graph" transform="scale(1 1) rotate(0) translate(4 78)">
<title>GluonicLQCD/system.h</title>
<polygon fill="#ffffff" stroke="transparent" points="-4,4 -4,-78 274.0415,-78 274.0415,4 -4,4"/>
<!-- Node38 -->
<g id="node1" class="node">
<title>Node38</title>
<g id="a_node1"><a xlink:title=" ">
<polygon fill="#bfbfbf" stroke="#000000" points="72.2832,-55.5 72.2832,-73.5 192.7607,-73.5 192.7607,-55.5 72.2832,-55.5"/>
<text text-anchor="middle" x="132.522" y="-61.5" font-family="Helvetica,sans-Serif" font-size="10.00" fill="#000000">GluonicLQCD/system.h</text>
</a>
</g>
</g>
<!-- Node39 -->
<g id="node2" class="node">
<title>Node39</title>
<g id="a_node2"><a xlink:href="main_8cpp.html" target="_top" xlink:title=" ">
<polygon fill="#ffffff" stroke="#000000" points="0,-.5 0,-18.5 121.0439,-18.5 121.0439,-.5 0,-.5"/>
<text text-anchor="middle" x="60.522" y="-6.5" font-family="Helvetica,sans-Serif" font-size="10.00" fill="#000000">GluonicLQCD/main.cpp</text>
</a>
</g>
</g>
<!-- Node38&#45;&gt;Node39 -->
<g id="edge1" class="edge">
<title>Node38&#45;&gt;Node39</title>
<path fill="none" stroke="#191970" d="M112.4275,-49.15C99.6506,-39.3899 83.5282,-27.0742 72.6696,-18.7795"/>
<polygon fill="#191970" stroke="#191970" points="110.5613,-52.1288 120.6326,-55.4179 114.8106,-46.5661 110.5613,-52.1288"/>
</g>
<!-- Node40 -->
<g id="node3" class="node">
<title>Node40</title>
<g id="a_node3"><a xlink:href="system_8cpp.html" target="_top" xlink:title=" ">
<polygon fill="#ffffff" stroke="#000000" points="139.0024,-.5 139.0024,-18.5 270.0415,-18.5 270.0415,-.5 139.0024,-.5"/>
<text text-anchor="middle" x="204.522" y="-6.5" font-family="Helvetica,sans-Serif" font-size="10.00" fill="#000000">GluonicLQCD/system.cpp</text>
</a>
</g>
</g>
<!-- Node38&#45;&gt;Node40 -->
<g id="edge2" class="edge">
<title>Node38&#45;&gt;Node40</title>
<path fill="none" stroke="#191970" d="M152.6165,-49.15C165.3933,-39.3899 181.5158,-27.0742 192.3743,-18.7795"/>
<polygon fill="#191970" stroke="#191970" points="150.2334,-46.5661 144.4113,-55.4179 154.4827,-52.1288 150.2334,-46.5661"/>
</g>
</g>
</svg>
