<?xml version="1.0" encoding="UTF-8" standalone="no"?>
<!DOCTYPE svg PUBLIC "-//W3C//DTD SVG 1.1//EN"
 "http://www.w3.org/Graphics/SVG/1.1/DTD/svg11.dtd">
<!-- Generated by graphviz version 2.40.1 (20161225.0304)
 -->
<!-- Title: GluonicLQCD/system.h Pages: 1 -->
<svg width="1653pt" height="487pt"
 viewBox="0.00 0.00 1652.63 487.00" xmlns="http://www.w3.org/2000/svg" xmlns:xlink="http://www.w3.org/1999/xlink">
<g id="graph0" class="graph" transform="scale(1 1) rotate(0) translate(4 483)">
<title>GluonicLQCD/system.h</title>
<polygon fill="#ffffff" stroke="transparent" points="-4,4 -4,-483 1648.6304,-483 1648.6304,4 -4,4"/>
<!-- Node0 -->
<g id="node1" class="node">
<title>Node0</title>
<g id="a_node1"><a xlink:title=" ">
<polygon fill="#bfbfbf" stroke="#000000" points="1070.3916,-460.5 1070.3916,-478.5 1190.8691,-478.5 1190.8691,-460.5 1070.3916,-460.5"/>
<text text-anchor="middle" x="1130.6304" y="-466.5" font-family="Helvetica,sans-Serif" font-size="10.00" fill="#000000">GluonicLQCD/system.h</text>
</a>
</g>
</g>
<!-- Node1 -->
<g id="node2" class="node">
<title>Node1</title>
<g id="a_node2"><a xlink:title=" ">
<polygon fill="#ffffff" stroke="#bfbfbf" points="1238.6772,-350.5 1238.6772,-368.5 1288.5835,-368.5 1288.5835,-350.5 1238.6772,-350.5"/>
<text text-anchor="middle" x="1263.6304" y="-356.5" font-family="Helvetica,sans-Serif" font-size="10.00" fill="#000000">random</text>
</a>
</g>
</g>
<!-- Node0&#45;&gt;Node1 -->
<g id="edge1" class="edge">
<title>Node0&#45;&gt;Node1</title>
<path fill="none" stroke="#191970" d="M1141.5143,-460.4982C1164.1161,-441.805 1216.3808,-398.5786 1244.6519,-375.1964"/>
<polygon fill="#191970" stroke="#191970" points="1247.1208,-377.6966 1252.596,-368.6261 1242.6594,-372.3024 1247.1208,-377.6966"/>
</g>
<!-- Node2 -->
<g id="node3" class="node">
<title>Node2</title>
<g id="a_node3"><a xlink:title=" ">
<polygon fill="#ffffff" stroke="#bfbfbf" points="648.3423,-405.5 648.3423,-423.5 694.9185,-423.5 694.9185,-405.5 648.3423,-405.5"/>
<text text-anchor="middle" x="671.6304" y="-411.5" font-family="Helvetica,sans-Serif" font-size="10.00" fill="#000000">chrono</text>
</a>
</g>
</g>
<!-- Node0&#45;&gt;Node2 -->
<g id="edge2" class="edge">
<title>Node0&#45;&gt;Node2</title>
<path fill="none" stroke="#191970" d="M1070.171,-466.3595C989.1717,-461.4191 840.9249,-449.8104 705.1149,-423.7393"/>
<polygon fill="#191970" stroke="#191970" points="705.4287,-420.2347 694.9435,-421.7548 704.0882,-427.1051 705.4287,-420.2347"/>
</g>
<!-- Node3 -->
<g id="node4" class="node">
<title>Node3</title>
<g id="a_node4"><a xlink:href="actions_8h.html" target="_top" xlink:title=" ">
<polygon fill="#ffffff" stroke="#000000" points="107.3867,-405.5 107.3867,-423.5 197.874,-423.5 197.874,-405.5 107.3867,-405.5"/>
<text text-anchor="middle" x="152.6304" y="-411.5" font-family="Helvetica,sans-Serif" font-size="10.00" fill="#000000">actions/actions.h</text>
</a>
</g>
</g>
<!-- Node0&#45;&gt;Node3 -->
<g id="edge3" class="edge">
<title>Node0&#45;&gt;Node3</title>
<path fill="none" stroke="#191970" d="M1070.1901,-466.101C893.2702,-456.1515 378.2466,-427.188 207.9893,-417.6132"/>
<polygon fill="#191970" stroke="#191970" points="208.1732,-414.1181 197.9924,-417.051 207.7801,-421.1071 208.1732,-414.1181"/>
</g>
<!-- Node5 -->
<g id="node6" class="node">
<title>Node5</title>
<g id="a_node6"><a xlink:href="lattice_8h.html" target="_top" xlink:title=" ">
<polygon fill="#ffffff" stroke="#000000" points="803.894,-235.5 803.894,-253.5 879.3667,-253.5 879.3667,-235.5 803.894,-235.5"/>
<text text-anchor="middle" x="841.6304" y="-241.5" font-family="Helvetica,sans-Serif" font-size="10.00" fill="#000000">math/lattice.h</text>
</a>
</g>
</g>
<!-- Node0&#45;&gt;Node5 -->
<g id="edge58" class="edge">
<title>Node0&#45;&gt;Node5</title>
<path fill="none" stroke="#191970" d="M1131.7273,-460.3445C1134.7019,-430.7309 1139.5116,-337.0321 1087.6304,-295 1057.7866,-270.8218 952.4962,-256.0037 889.7476,-249.1144"/>
<polygon fill="#191970" stroke="#191970" points="889.9995,-245.6215 879.6838,-248.0373 889.2545,-252.5817 889.9995,-245.6215"/>
</g>
<!-- Node19 -->
<g id="node20" class="node">
<title>Node19</title>
<g id="a_node20"><a xlink:href="observables_8h.html" target="_top" xlink:title=" ">
<polygon fill="#ffffff" stroke="#000000" points="713.1504,-405.5 713.1504,-423.5 848.1104,-423.5 848.1104,-405.5 713.1504,-405.5"/>
<text text-anchor="middle" x="780.6304" y="-411.5" font-family="Helvetica,sans-Serif" font-size="10.00" fill="#000000">observables/observables.h</text>
</a>
</g>
</g>
<!-- Node0&#45;&gt;Node19 -->
<g id="edge27" class="edge">
<title>Node0&#45;&gt;Node19</title>
<path fill="none" stroke="#191970" d="M1073.2269,-460.4795C1011.5583,-450.7887 913.6278,-435.3996 848.2653,-425.1283"/>
<polygon fill="#191970" stroke="#191970" points="848.4873,-421.6204 838.0652,-423.5255 847.4006,-428.5355 848.4873,-421.6204"/>
</g>
<!-- Node31 -->
<g id="node32" class="node">
<title>Node31</title>
<g id="a_node32"><a xlink:href="su3matrixgenerator_8h.html" target="_top" xlink:title=" ">
<polygon fill="#ffffff" stroke="#000000" points="1234.8721,-405.5 1234.8721,-423.5 1410.3887,-423.5 1410.3887,-405.5 1234.8721,-405.5"/>
<text text-anchor="middle" x="1322.6304" y="-411.5" font-family="Helvetica,sans-Serif" font-size="10.00" fill="#000000">math/matrices/su3matrixgenerator.h</text>
</a>
</g>
</g>
<!-- Node0&#45;&gt;Node31 -->
<g id="edge54" class="edge">
<title>Node0&#45;&gt;Node31</title>
<path fill="none" stroke="#191970" d="M1162.3353,-460.4179C1194.95,-451.0751 1245.8883,-436.4834 1281.5669,-426.263"/>
<polygon fill="#191970" stroke="#191970" points="1282.548,-429.6228 1291.1975,-423.5042 1280.6203,-422.8934 1282.548,-429.6228"/>
</g>
<!-- Node32 -->
<g id="node33" class="node">
<title>Node32</title>
<g id="a_node33"><a xlink:href="flow_8h.html" target="_top" xlink:title=" ">
<polygon fill="#ffffff" stroke="#000000" points="1158.5615,-350.5 1158.5615,-368.5 1220.6992,-368.5 1220.6992,-350.5 1158.5615,-350.5"/>
<text text-anchor="middle" x="1189.6304" y="-356.5" font-family="Helvetica,sans-Serif" font-size="10.00" fill="#000000">flow/flow.h</text>
</a>
</g>
</g>
<!-- Node0&#45;&gt;Node32 -->
<g id="edge59" class="edge">
<title>Node0&#45;&gt;Node32</title>
<path fill="none" stroke="#191970" d="M1135.4586,-460.4982C1145.1392,-442.4496 1167.0867,-401.5306 1179.877,-377.6843"/>
<polygon fill="#191970" stroke="#191970" points="1183.0931,-379.0929 1184.7354,-368.6261 1176.9244,-375.7842 1183.0931,-379.0929"/>
</g>
<!-- Node4 -->
<g id="node5" class="node">
<title>Node4</title>
<g id="a_node5"><a xlink:href="action_8h.html" target="_top" xlink:title=" ">
<polygon fill="#ffffff" stroke="#000000" points="188.1182,-295.5 188.1182,-313.5 239.1426,-313.5 239.1426,-295.5 188.1182,-295.5"/>
<text text-anchor="middle" x="213.6304" y="-301.5" font-family="Helvetica,sans-Serif" font-size="10.00" fill="#000000">action.h</text>
</a>
</g>
</g>
<!-- Node3&#45;&gt;Node4 -->
<g id="edge4" class="edge">
<title>Node3&#45;&gt;Node4</title>
<path fill="none" stroke="#191970" d="M144.7592,-405.232C134.7271,-392.2254 119.8992,-368.1207 130.6304,-350 141.0161,-332.4627 160.8213,-321.2384 178.4807,-314.3265"/>
<polygon fill="#191970" stroke="#191970" points="179.7634,-317.5848 187.9972,-310.9175 177.4027,-310.9949 179.7634,-317.5848"/>
</g>
<!-- Node17 -->
<g id="node18" class="node">
<title>Node17</title>
<g id="a_node18"><a xlink:href="wilsongaugeaction_8h.html" target="_top" xlink:title=" ">
<polygon fill="#ffffff" stroke="#000000" points="139.3203,-350.5 139.3203,-368.5 245.9404,-368.5 245.9404,-350.5 139.3203,-350.5"/>
<text text-anchor="middle" x="192.6304" y="-356.5" font-family="Helvetica,sans-Serif" font-size="10.00" fill="#000000">wilsongaugeaction.h</text>
</a>
</g>
</g>
<!-- Node3&#45;&gt;Node17 -->
<g id="edge23" class="edge">
<title>Node3&#45;&gt;Node17</title>
<path fill="none" stroke="#191970" d="M159.2356,-405.4179C164.8183,-397.7415 172.9782,-386.5217 179.8344,-377.0945"/>
<polygon fill="#191970" stroke="#191970" points="182.8305,-378.9255 185.8817,-368.7795 177.1693,-374.8082 182.8305,-378.9255"/>
</g>
<!-- Node18 -->
<g id="node19" class="node">
<title>Node18</title>
<g id="a_node19"><a xlink:href="luscheraction_8h.html" target="_top" xlink:title=" ">
<polygon fill="#ffffff" stroke="#000000" points="0,-350.5 0,-368.5 83.2607,-368.5 83.2607,-350.5 0,-350.5"/>
<text text-anchor="middle" x="41.6304" y="-356.5" font-family="Helvetica,sans-Serif" font-size="10.00" fill="#000000">luscheraction.h</text>
</a>
</g>
</g>
<!-- Node3&#45;&gt;Node18 -->
<g id="edge25" class="edge">
<title>Node3&#45;&gt;Node18</title>
<path fill="none" stroke="#191970" d="M134.301,-405.4179C116.5463,-396.6205 89.3989,-383.1691 69.0688,-373.0956"/>
<polygon fill="#191970" stroke="#191970" points="70.5013,-369.8994 59.987,-368.5956 67.3934,-376.1716 70.5013,-369.8994"/>
</g>
<!-- Node4&#45;&gt;Node5 -->
<g id="edge5" class="edge">
<title>Node4&#45;&gt;Node5</title>
<path fill="none" stroke="#191970" d="M239.4195,-302.0361C334.8303,-292.9204 668.7347,-261.0187 793.8277,-249.0671"/>
<polygon fill="#191970" stroke="#191970" points="794.2509,-252.5427 803.8727,-248.1074 793.5851,-245.5745 794.2509,-252.5427"/>
</g>
<!-- Node6 -->
<g id="node7" class="node">
<title>Node6</title>
<g id="a_node7"><a xlink:title=" ">
<polygon fill="#ffffff" stroke="#bfbfbf" points="473.0146,-110.5 473.0146,-128.5 516.2461,-128.5 516.2461,-110.5 473.0146,-110.5"/>
<text text-anchor="middle" x="494.6304" y="-116.5" font-family="Helvetica,sans-Serif" font-size="10.00" fill="#000000">vector</text>
</a>
</g>
</g>
<!-- Node4&#45;&gt;Node6 -->
<g id="edge22" class="edge">
<title>Node4&#45;&gt;Node6</title>
<path fill="none" stroke="#191970" d="M220.6663,-295.2302C239.8949,-270.5096 296.0209,-202.3582 357.6304,-165 390.8404,-144.8624 434.0462,-132.432 462.9763,-125.7571"/>
<polygon fill="#191970" stroke="#191970" points="463.9346,-129.1299 472.9439,-123.5547 462.4243,-122.2947 463.9346,-129.1299"/>
</g>
<!-- Node5&#45;&gt;Node6 -->
<g id="edge6" class="edge">
<title>Node5&#45;&gt;Node6</title>
<path fill="none" stroke="#191970" d="M803.8113,-242.5361C731.112,-238.0926 575.2725,-225.1278 532.6304,-194 514.3524,-180.6575 504.2452,-155.9467 499.1347,-138.6559"/>
<polygon fill="#191970" stroke="#191970" points="502.4045,-137.3304 496.4623,-128.5589 495.6375,-139.1215 502.4045,-137.3304"/>
</g>
<!-- Node7 -->
<g id="node8" class="node">
<title>Node7</title>
<g id="a_node8"><a xlink:title=" ">
<polygon fill="#ffffff" stroke="#bfbfbf" points="949.4038,-110.5 949.4038,-128.5 989.8569,-128.5 989.8569,-110.5 949.4038,-110.5"/>
<text text-anchor="middle" x="969.6304" y="-116.5" font-family="Helvetica,sans-Serif" font-size="10.00" fill="#000000">mpi.h</text>
</a>
</g>
</g>
<!-- Node5&#45;&gt;Node7 -->
<g id="edge7" class="edge">
<title>Node5&#45;&gt;Node7</title>
<path fill="none" stroke="#191970" d="M879.6951,-238.268C923.7837,-230.1826 992.3408,-214.6327 1007.6304,-194 1021.3738,-175.4536 1003.3911,-151.2098 987.7876,-135.4981"/>
<polygon fill="#191970" stroke="#191970" points="990.1252,-132.8911 980.4683,-128.5328 985.2996,-137.962 990.1252,-132.8911"/>
</g>
<!-- Node8 -->
<g id="node9" class="node">
<title>Node8</title>
<g id="a_node9"><a xlink:href="index_8h.html" target="_top" xlink:title=" ">
<polygon fill="#ffffff" stroke="#000000" points="541.5444,-170.5 541.5444,-188.5 653.7163,-188.5 653.7163,-170.5 541.5444,-170.5"/>
<text text-anchor="middle" x="597.6304" y="-176.5" font-family="Helvetica,sans-Serif" font-size="10.00" fill="#000000">parallelization/index.h</text>
</a>
</g>
</g>
<!-- Node5&#45;&gt;Node8 -->
<g id="edge8" class="edge">
<title>Node5&#45;&gt;Node8</title>
<path fill="none" stroke="#191970" d="M807.7032,-235.462C764.3042,-223.9008 689.0667,-203.858 641.3947,-191.1585"/>
<polygon fill="#191970" stroke="#191970" points="642.2258,-187.7579 631.6618,-188.5658 640.4238,-194.522 642.2258,-187.7579"/>
</g>
<!-- Node9 -->
<g id="node10" class="node">
<title>Node9</title>
<g id="a_node10"><a xlink:href="neighbours_8h.html" target="_top" xlink:title=" ">
<polygon fill="#ffffff" stroke="#000000" points="671.7563,-170.5 671.7563,-188.5 809.5044,-188.5 809.5044,-170.5 671.7563,-170.5"/>
<text text-anchor="middle" x="740.6304" y="-176.5" font-family="Helvetica,sans-Serif" font-size="10.00" fill="#000000">parallelization/neighbours.h</text>
</a>
</g>
</g>
<!-- Node5&#45;&gt;Node9 -->
<g id="edge10" class="edge">
<title>Node5&#45;&gt;Node9</title>
<path fill="none" stroke="#191970" d="M827.5868,-235.462C811.0222,-224.8017 783.2523,-206.9299 763.5548,-194.2534"/>
<polygon fill="#191970" stroke="#191970" points="765.1835,-191.1394 754.8803,-188.6708 761.3953,-197.0258 765.1835,-191.1394"/>
</g>
<!-- Node11 -->
<g id="node12" class="node">
<title>Node11</title>
<g id="a_node12"><a xlink:href="parallelparameters_8h.html" target="_top" xlink:title=" ">
<polygon fill="#ffffff" stroke="#000000" points="827.0889,-170.5 827.0889,-188.5 998.1719,-188.5 998.1719,-170.5 827.0889,-170.5"/>
<text text-anchor="middle" x="912.6304" y="-176.5" font-family="Helvetica,sans-Serif" font-size="10.00" fill="#000000">parallelization/parallelparameters.h</text>
</a>
</g>
</g>
<!-- Node5&#45;&gt;Node11 -->
<g id="edge13" class="edge">
<title>Node5&#45;&gt;Node11</title>
<path fill="none" stroke="#191970" d="M851.5026,-235.462C862.7145,-225.1976 881.2291,-208.2477 894.9493,-195.6869"/>
<polygon fill="#191970" stroke="#191970" points="897.3697,-198.2163 902.3822,-188.8821 892.6429,-193.0532 897.3697,-198.2163"/>
</g>
<!-- Node12 -->
<g id="node13" class="node">
<title>Node12</title>
<g id="a_node13"><a xlink:href="functions_8h.html" target="_top" xlink:title=" ">
<polygon fill="#ffffff" stroke="#000000" points="1095.4482,-170.5 1095.4482,-188.5 1159.8125,-188.5 1159.8125,-170.5 1095.4482,-170.5"/>
<text text-anchor="middle" x="1127.6304" y="-176.5" font-family="Helvetica,sans-Serif" font-size="10.00" fill="#000000">functions.h</text>
</a>
</g>
</g>
<!-- Node5&#45;&gt;Node12 -->
<g id="edge15" class="edge">
<title>Node5&#45;&gt;Node12</title>
<path fill="none" stroke="#191970" d="M879.609,-235.8685C932.9648,-223.7422 1029.7944,-201.7354 1085.3701,-189.1046"/>
<polygon fill="#191970" stroke="#191970" points="1086.2718,-192.489 1095.2474,-186.8598 1084.7204,-185.6631 1086.2718,-192.489"/>
</g>
<!-- Node8&#45;&gt;Node6 -->
<g id="edge9" class="edge">
<title>Node8&#45;&gt;Node6</title>
<path fill="none" stroke="#191970" d="M581.9869,-170.3873C565.1772,-160.5952 538.2495,-144.9092 518.7303,-133.5388"/>
<polygon fill="#191970" stroke="#191970" points="520.4862,-130.5111 510.0836,-128.5019 516.9627,-136.5597 520.4862,-130.5111"/>
</g>
<!-- Node9&#45;&gt;Node6 -->
<g id="edge12" class="edge">
<title>Node9&#45;&gt;Node6</title>
<path fill="none" stroke="#191970" d="M703.5353,-170.4524C655.2202,-158.6682 571.5838,-138.2691 526.1724,-127.1932"/>
<polygon fill="#191970" stroke="#191970" points="526.8356,-123.7524 516.291,-124.7831 525.1769,-130.553 526.8356,-123.7524"/>
</g>
<!-- Node10 -->
<g id="node11" class="node">
<title>Node10</title>
<g id="a_node11"><a xlink:href="neighbourlist_8h.html" target="_top" xlink:title=" ">
<polygon fill="#ffffff" stroke="#000000" points="700.1084,-110.5 700.1084,-128.5 781.1523,-128.5 781.1523,-110.5 700.1084,-110.5"/>
<text text-anchor="middle" x="740.6304" y="-116.5" font-family="Helvetica,sans-Serif" font-size="10.00" fill="#000000">neighbourlist.h</text>
</a>
</g>
</g>
<!-- Node9&#45;&gt;Node10 -->
<g id="edge11" class="edge">
<title>Node9&#45;&gt;Node10</title>
<path fill="none" stroke="#191970" d="M740.6304,-170.3873C740.6304,-162.0174 740.6304,-149.3414 740.6304,-138.735"/>
<polygon fill="#191970" stroke="#191970" points="744.1305,-138.6984 740.6304,-128.6985 737.1305,-138.6985 744.1305,-138.6984"/>
</g>
<!-- Node11&#45;&gt;Node7 -->
<g id="edge14" class="edge">
<title>Node11&#45;&gt;Node7</title>
<path fill="none" stroke="#191970" d="M921.2874,-170.3873C929.9084,-161.3126 943.3383,-147.1759 953.8572,-136.1033"/>
<polygon fill="#191970" stroke="#191970" points="956.5418,-138.3591 960.8918,-128.6985 951.4668,-133.5379 956.5418,-138.3591"/>
</g>
<!-- Node13 -->
<g id="node14" class="node">
<title>Node13</title>
<g id="a_node14"><a xlink:href="su3_8h.html" target="_top" xlink:title=" ">
<polygon fill="#ffffff" stroke="#000000" points="1308.1182,-110.5 1308.1182,-128.5 1389.1426,-128.5 1389.1426,-110.5 1308.1182,-110.5"/>
<text text-anchor="middle" x="1348.6304" y="-116.5" font-family="Helvetica,sans-Serif" font-size="10.00" fill="#000000">matrices/su3.h</text>
</a>
</g>
</g>
<!-- Node12&#45;&gt;Node13 -->
<g id="edge16" class="edge">
<title>Node12&#45;&gt;Node13</title>
<path fill="none" stroke="#191970" d="M1160.2397,-170.6468C1198.6999,-160.2051 1262.7743,-142.8094 1305.3594,-131.2478"/>
<polygon fill="#191970" stroke="#191970" points="1306.4292,-134.5841 1315.1628,-128.5862 1304.5951,-127.8287 1306.4292,-134.5841"/>
</g>
<!-- Node14 -->
<g id="node15" class="node">
<title>Node14</title>
<g id="a_node15"><a xlink:href="complex_8h.html" target="_top" xlink:title=" ">
<polygon fill="#ffffff" stroke="#000000" points="1153.3374,-55.5 1153.3374,-73.5 1239.9233,-73.5 1239.9233,-55.5 1153.3374,-55.5"/>
<text text-anchor="middle" x="1196.6304" y="-61.5" font-family="Helvetica,sans-Serif" font-size="10.00" fill="#000000">math/complex.h</text>
</a>
</g>
</g>
<!-- Node12&#45;&gt;Node14 -->
<g id="edge21" class="edge">
<title>Node12&#45;&gt;Node14</title>
<path fill="none" stroke="#191970" d="M1128.494,-170.3018C1130.1515,-156.3503 1134.7373,-129.4124 1146.6304,-110 1153.7437,-98.3893 1164.6786,-87.9575 1174.5104,-80.0207"/>
<polygon fill="#191970" stroke="#191970" points="1176.928,-82.578 1182.7427,-73.7213 1172.674,-77.0188 1176.928,-82.578"/>
</g>
<!-- Node16 -->
<g id="node17" class="node">
<title>Node16</title>
<g id="a_node17"><a xlink:href="su2_8h.html" target="_top" xlink:title=" ">
<polygon fill="#ffffff" stroke="#000000" points="1156.1182,-110.5 1156.1182,-128.5 1237.1426,-128.5 1237.1426,-110.5 1156.1182,-110.5"/>
<text text-anchor="middle" x="1196.6304" y="-116.5" font-family="Helvetica,sans-Serif" font-size="10.00" fill="#000000">matrices/su2.h</text>
</a>
</g>
</g>
<!-- Node12&#45;&gt;Node16 -->
<g id="edge19" class="edge">
<title>Node12&#45;&gt;Node16</title>
<path fill="none" stroke="#191970" d="M1138.11,-170.3873C1148.7485,-161.1364 1165.4366,-146.625 1178.2743,-135.4618"/>
<polygon fill="#191970" stroke="#191970" points="1180.8027,-137.9014 1186.0521,-128.6985 1176.2094,-132.6192 1180.8027,-137.9014"/>
</g>
<!-- Node13&#45;&gt;Node14 -->
<g id="edge17" class="edge">
<title>Node13&#45;&gt;Node14</title>
<path fill="none" stroke="#191970" d="M1323.5307,-110.4179C1298.2624,-101.2748 1259.1012,-87.1046 1230.9659,-76.924"/>
<polygon fill="#191970" stroke="#191970" points="1232.109,-73.6156 1221.5147,-73.5042 1229.7272,-80.198 1232.109,-73.6156"/>
</g>
<!-- Node15 -->
<g id="node16" class="node">
<title>Node15</title>
<g id="a_node16"><a xlink:title=" ">
<polygon fill="#ffffff" stroke="#bfbfbf" points="1169.458,-.5 1169.458,-18.5 1223.8027,-18.5 1223.8027,-.5 1169.458,-.5"/>
<text text-anchor="middle" x="1196.6304" y="-6.5" font-family="Helvetica,sans-Serif" font-size="10.00" fill="#000000">iostream</text>
</a>
</g>
</g>
<!-- Node14&#45;&gt;Node15 -->
<g id="edge18" class="edge">
<title>Node14&#45;&gt;Node15</title>
<path fill="none" stroke="#191970" d="M1196.6304,-55.4179C1196.6304,-48.2164 1196.6304,-37.8962 1196.6304,-28.8632"/>
<polygon fill="#191970" stroke="#191970" points="1200.1305,-28.7794 1196.6304,-18.7795 1193.1305,-28.7795 1200.1305,-28.7794"/>
</g>
<!-- Node16&#45;&gt;Node14 -->
<g id="edge20" class="edge">
<title>Node16&#45;&gt;Node14</title>
<path fill="none" stroke="#191970" d="M1196.6304,-110.4179C1196.6304,-103.2164 1196.6304,-92.8962 1196.6304,-83.8632"/>
<polygon fill="#191970" stroke="#191970" points="1200.1305,-83.7794 1196.6304,-73.7795 1193.1305,-83.7795 1200.1305,-83.7794"/>
</g>
<!-- Node17&#45;&gt;Node4 -->
<g id="edge24" class="edge">
<title>Node17&#45;&gt;Node4</title>
<path fill="none" stroke="#191970" d="M196.0981,-350.4179C198.9082,-343.0581 202.962,-332.441 206.4638,-323.2695"/>
<polygon fill="#191970" stroke="#191970" points="209.79,-324.3701 210.0873,-313.7795 203.2505,-321.8732 209.79,-324.3701"/>
</g>
<!-- Node18&#45;&gt;Node4 -->
<g id="edge26" class="edge">
<title>Node18&#45;&gt;Node4</title>
<path fill="none" stroke="#191970" d="M70.0327,-350.4179C99.6503,-340.9471 146.1357,-326.0826 178.1502,-315.8454"/>
<polygon fill="#191970" stroke="#191970" points="179.5375,-319.0764 187.9964,-312.6969 177.4054,-312.409 179.5375,-319.0764"/>
</g>
<!-- Node20 -->
<g id="node21" class="node">
<title>Node20</title>
<g id="a_node21"><a xlink:href="correlator_8h.html" target="_top" xlink:title=" ">
<polygon fill="#ffffff" stroke="#000000" points="422.6157,-295.5 422.6157,-313.5 488.645,-313.5 488.645,-295.5 422.6157,-295.5"/>
<text text-anchor="middle" x="455.6304" y="-301.5" font-family="Helvetica,sans-Serif" font-size="10.00" fill="#000000">correlator.h</text>
</a>
</g>
</g>
<!-- Node19&#45;&gt;Node20 -->
<g id="edge28" class="edge">
<title>Node19&#45;&gt;Node20</title>
<path fill="none" stroke="#191970" d="M712.9241,-406.141C606.9313,-393.0504 413.7846,-369.1745 413.6304,-369 400.1426,-353.7368 417.6073,-333.7824 433.9464,-320.1346"/>
<polygon fill="#191970" stroke="#191970" points="436.5204,-322.5632 442.2182,-313.6309 432.1938,-317.0604 436.5204,-322.5632"/>
</g>
<!-- Node23 -->
<g id="node24" class="node">
<title>Node23</title>
<g id="a_node24"><a xlink:href="energydensity_8h.html" target="_top" xlink:title=" ">
<polygon fill="#ffffff" stroke="#000000" points="614.6987,-350.5 614.6987,-368.5 700.562,-368.5 700.562,-350.5 614.6987,-350.5"/>
<text text-anchor="middle" x="657.6304" y="-356.5" font-family="Helvetica,sans-Serif" font-size="10.00" fill="#000000">energydensity.h</text>
</a>
</g>
</g>
<!-- Node19&#45;&gt;Node23 -->
<g id="edge34" class="edge">
<title>Node19&#45;&gt;Node23</title>
<path fill="none" stroke="#191970" d="M760.3194,-405.4179C740.3782,-396.5011 709.7445,-382.803 687.1219,-372.6873"/>
<polygon fill="#191970" stroke="#191970" points="688.5291,-369.4826 677.9715,-368.5956 685.6717,-375.8728 688.5291,-369.4826"/>
</g>
<!-- Node24 -->
<g id="node25" class="node">
<title>Node24</title>
<g id="a_node25"><a xlink:href="plaquette_8h.html" target="_top" xlink:title=" ">
<polygon fill="#ffffff" stroke="#000000" points="422.8867,-350.5 422.8867,-368.5 488.374,-368.5 488.374,-350.5 422.8867,-350.5"/>
<text text-anchor="middle" x="455.6304" y="-356.5" font-family="Helvetica,sans-Serif" font-size="10.00" fill="#000000">plaquette.h</text>
</a>
</g>
</g>
<!-- Node19&#45;&gt;Node24 -->
<g id="edge37" class="edge">
<title>Node19&#45;&gt;Node24</title>
<path fill="none" stroke="#191970" d="M717.2052,-405.4714C661.9631,-397.3411 579.4998,-384.5659 498.476,-369.068"/>
<polygon fill="#191970" stroke="#191970" points="499.0859,-365.6212 488.6041,-367.1647 497.7606,-372.4946 499.0859,-365.6212"/>
</g>
<!-- Node25 -->
<g id="node26" class="node">
<title>Node25</title>
<g id="a_node26"><a xlink:href="topologicalcharge_8h.html" target="_top" xlink:title=" ">
<polygon fill="#ffffff" stroke="#000000" points="264.2661,-350.5 264.2661,-368.5 366.9946,-368.5 366.9946,-350.5 264.2661,-350.5"/>
<text text-anchor="middle" x="315.6304" y="-356.5" font-family="Helvetica,sans-Serif" font-size="10.00" fill="#000000">topologicalcharge.h</text>
</a>
</g>
</g>
<!-- Node19&#45;&gt;Node25 -->
<g id="edge39" class="edge">
<title>Node19&#45;&gt;Node25</title>
<path fill="none" stroke="#191970" d="M713.0297,-406.114C709.8527,-405.7343 706.7072,-405.3613 703.6304,-405 560.1714,-388.1562 523.892,-387.4473 380.6304,-369 379.5275,-368.858 378.4144,-368.713 377.2934,-368.5655"/>
<polygon fill="#191970" stroke="#191970" points="377.4341,-365.0528 367.0553,-367.1813 376.4962,-371.9897 377.4341,-365.0528"/>
</g>
<!-- Node26 -->
<g id="node27" class="node">
<title>Node26</title>
<g id="a_node27"><a xlink:href="mastersampler_8h.html" target="_top" xlink:title=" ">
<polygon fill="#ffffff" stroke="#000000" points="506.6699,-350.5 506.6699,-368.5 596.5908,-368.5 596.5908,-350.5 506.6699,-350.5"/>
<text text-anchor="middle" x="551.6304" y="-356.5" font-family="Helvetica,sans-Serif" font-size="10.00" fill="#000000">mastersampler.h</text>
</a>
</g>
</g>
<!-- Node19&#45;&gt;Node26 -->
<g id="edge41" class="edge">
<title>Node19&#45;&gt;Node26</title>
<path fill="none" stroke="#191970" d="M737.9186,-405.4795C696.6828,-396.0479 634.7898,-381.2188 593.7559,-370.9634"/>
<polygon fill="#191970" stroke="#191970" points="594.6061,-367.5683 584.0546,-368.5255 592.9,-374.3572 594.6061,-367.5683"/>
</g>
<!-- Node27 -->
<g id="node28" class="node">
<title>Node27</title>
<g id="a_node28"><a xlink:href="mastersamplertopcxyz_8h.html" target="_top" xlink:title=" ">
<polygon fill="#ffffff" stroke="#000000" points="718.4458,-350.5 718.4458,-368.5 842.8149,-368.5 842.8149,-350.5 718.4458,-350.5"/>
<text text-anchor="middle" x="780.6304" y="-356.5" font-family="Helvetica,sans-Serif" font-size="10.00" fill="#000000">mastersamplertopcxyz.h</text>
</a>
</g>
</g>
<!-- Node19&#45;&gt;Node27 -->
<g id="edge44" class="edge">
<title>Node19&#45;&gt;Node27</title>
<path fill="none" stroke="#191970" d="M775.4641,-405.4179C773.9725,-398.2164 773.5345,-387.8962 774.1502,-378.8632"/>
<polygon fill="#191970" stroke="#191970" points="777.643,-379.1392 775.4236,-368.7795 770.6982,-378.2621 777.643,-379.1392"/>
</g>
<!-- Node28 -->
<g id="node29" class="node">
<title>Node28</title>
<g id="a_node29"><a xlink:href="latticeactionchargedensity_8h.html" target="_top" xlink:title=" ">
<polygon fill="#ffffff" stroke="#000000" points="861.2949,-350.5 861.2949,-368.5 999.9658,-368.5 999.9658,-350.5 861.2949,-350.5"/>
<text text-anchor="middle" x="930.6304" y="-356.5" font-family="Helvetica,sans-Serif" font-size="10.00" fill="#000000">latticeactionchargedensity.h</text>
</a>
</g>
</g>
<!-- Node19&#45;&gt;Node28 -->
<g id="edge47" class="edge">
<title>Node19&#45;&gt;Node28</title>
<path fill="none" stroke="#191970" d="M800.2335,-405.4179C823.3762,-396.2348 862.0622,-381.9807 891.377,-371.7909"/>
<polygon fill="#191970" stroke="#191970" points="892.6074,-375.069 900.9233,-368.5042 890.3286,-368.4503 892.6074,-375.069"/>
</g>
<!-- Node29 -->
<g id="node30" class="node">
<title>Node29</title>
<g id="a_node30"><a xlink:href="supersampler_8h.html" target="_top" xlink:title=" ">
<polygon fill="#ffffff" stroke="#000000" points="1018.4434,-350.5 1018.4434,-368.5 1102.8174,-368.5 1102.8174,-350.5 1018.4434,-350.5"/>
<text text-anchor="middle" x="1060.6304" y="-356.5" font-family="Helvetica,sans-Serif" font-size="10.00" fill="#000000">supersampler.h</text>
</a>
</g>
</g>
<!-- Node19&#45;&gt;Node29 -->
<g id="edge50" class="edge">
<title>Node19&#45;&gt;Node29</title>
<path fill="none" stroke="#191970" d="M821.3996,-405.4795C870.8834,-395.3444 954.1947,-378.9766 1008.344,-368.749"/>
<polygon fill="#191970" stroke="#191970" points="1009.2526,-372.1396 1018.4333,-366.8514 1007.9586,-365.2602 1009.2526,-372.1396"/>
</g>
<!-- Node20&#45;&gt;Node5 -->
<g id="edge29" class="edge">
<title>Node20&#45;&gt;Node5</title>
<path fill="none" stroke="#191970" d="M488.8746,-299.3325C557.3045,-288.6957 714.135,-264.3179 793.5975,-251.9663"/>
<polygon fill="#191970" stroke="#191970" points="794.474,-255.3721 803.8177,-250.3776 793.3987,-248.4552 794.474,-255.3721"/>
</g>
<!-- Node20&#45;&gt;Node6 -->
<g id="edge33" class="edge">
<title>Node20&#45;&gt;Node6</title>
<path fill="none" stroke="#191970" d="M457.5644,-295.3258C463.6206,-266.5976 482.3083,-177.9506 490.5984,-138.6259"/>
<polygon fill="#191970" stroke="#191970" points="494.0466,-139.2365 492.6847,-128.7296 487.1971,-137.7925 494.0466,-139.2365"/>
</g>
<!-- Node21 -->
<g id="node22" class="node">
<title>Node21</title>
<g id="a_node22"><a xlink:href="observablestorer_8h.html" target="_top" xlink:title=" ">
<polygon fill="#ffffff" stroke="#000000" points="325.542,-235.5 325.542,-253.5 447.7188,-253.5 447.7188,-235.5 325.542,-235.5"/>
<text text-anchor="middle" x="386.6304" y="-241.5" font-family="Helvetica,sans-Serif" font-size="10.00" fill="#000000">tools/observablestorer.h</text>
</a>
</g>
</g>
<!-- Node20&#45;&gt;Node21 -->
<g id="edge30" class="edge">
<title>Node20&#45;&gt;Node21</title>
<path fill="none" stroke="#191970" d="M445.1508,-295.3873C434.5122,-286.1364 417.8241,-271.625 404.9865,-260.4618"/>
<polygon fill="#191970" stroke="#191970" points="407.0513,-257.6192 397.2086,-253.6985 402.4581,-262.9014 407.0513,-257.6192"/>
</g>
<!-- Node21&#45;&gt;Node6 -->
<g id="edge32" class="edge">
<title>Node21&#45;&gt;Node6</title>
<path fill="none" stroke="#191970" d="M394.7479,-235.1047C412.8967,-214.0992 456.9684,-163.0902 480.0244,-136.4051"/>
<polygon fill="#191970" stroke="#191970" points="482.8227,-138.5198 486.7121,-128.6646 477.5259,-133.9433 482.8227,-138.5198"/>
</g>
<!-- Node22 -->
<g id="node23" class="node">
<title>Node22</title>
<g id="a_node23"><a xlink:title=" ">
<polygon fill="#ffffff" stroke="#bfbfbf" points="366.4038,-170.5 366.4038,-188.5 406.8569,-188.5 406.8569,-170.5 366.4038,-170.5"/>
<text text-anchor="middle" x="386.6304" y="-176.5" font-family="Helvetica,sans-Serif" font-size="10.00" fill="#000000">string</text>
</a>
</g>
</g>
<!-- Node21&#45;&gt;Node22 -->
<g id="edge31" class="edge">
<title>Node21&#45;&gt;Node22</title>
<path fill="none" stroke="#191970" d="M386.6304,-235.462C386.6304,-226.061 386.6304,-211.0518 386.6304,-198.943"/>
<polygon fill="#191970" stroke="#191970" points="390.1305,-198.8821 386.6304,-188.8821 383.1305,-198.8822 390.1305,-198.8821"/>
</g>
<!-- Node23&#45;&gt;Node12 -->
<g id="edge36" class="edge">
<title>Node23&#45;&gt;Node12</title>
<path fill="none" stroke="#191970" d="M681.2598,-350.4504C758.6806,-320.7999 1004.8652,-226.5165 1094.5452,-192.1709"/>
<polygon fill="#191970" stroke="#191970" points="1095.8671,-195.4126 1103.9539,-188.5676 1093.3635,-188.8756 1095.8671,-195.4126"/>
</g>
<!-- Node23&#45;&gt;Node20 -->
<g id="edge35" class="edge">
<title>Node23&#45;&gt;Node20</title>
<path fill="none" stroke="#191970" d="M624.2742,-350.4179C589.8142,-341.0352 535.9111,-326.3586 498.3522,-316.1322"/>
<polygon fill="#191970" stroke="#191970" points="499.2686,-312.7544 488.7004,-313.5042 497.4296,-319.5085 499.2686,-312.7544"/>
</g>
<!-- Node24&#45;&gt;Node20 -->
<g id="edge38" class="edge">
<title>Node24&#45;&gt;Node20</title>
<path fill="none" stroke="#191970" d="M455.6304,-350.4179C455.6304,-343.2164 455.6304,-332.8962 455.6304,-323.8632"/>
<polygon fill="#191970" stroke="#191970" points="459.1305,-323.7794 455.6304,-313.7795 452.1305,-323.7795 459.1305,-323.7794"/>
</g>
<!-- Node25&#45;&gt;Node20 -->
<g id="edge40" class="edge">
<title>Node25&#45;&gt;Node20</title>
<path fill="none" stroke="#191970" d="M338.7485,-350.4179C361.7498,-341.3817 397.2497,-327.4353 423.0924,-317.2828"/>
<polygon fill="#191970" stroke="#191970" points="424.4502,-320.5098 432.4779,-313.5956 421.8905,-313.9946 424.4502,-320.5098"/>
</g>
<!-- Node26&#45;&gt;Node5 -->
<g id="edge42" class="edge">
<title>Node26&#45;&gt;Node5</title>
<path fill="none" stroke="#191970" d="M574.3862,-350.4761C625.5064,-330.2043 749.6027,-280.9937 808.9549,-257.4575"/>
<polygon fill="#191970" stroke="#191970" points="810.5734,-260.5809 818.579,-253.6411 807.993,-254.0739 810.5734,-260.5809"/>
</g>
<!-- Node26&#45;&gt;Node19 -->
<g id="edge43" class="edge">
<title>Node26&#45;&gt;Node19</title>
<path fill="none" stroke="#191970" d="M594.2707,-368.5042C635.4285,-377.9172 697.2131,-392.7192 738.2717,-402.9784"/>
<polygon fill="#191970" stroke="#191970" points="737.4306,-406.3758 747.982,-405.4179 739.1362,-399.5867 737.4306,-406.3758"/>
</g>
<!-- Node27&#45;&gt;Node5 -->
<g id="edge45" class="edge">
<title>Node27&#45;&gt;Node5</title>
<path fill="none" stroke="#191970" d="M785.4169,-350.4761C795.3898,-331.6749 818.5664,-287.9813 831.8363,-262.9642"/>
<polygon fill="#191970" stroke="#191970" points="835.1026,-264.2756 836.6966,-253.8014 828.9187,-260.9954 835.1026,-264.2756"/>
</g>
<!-- Node27&#45;&gt;Node19 -->
<g id="edge46" class="edge">
<title>Node27&#45;&gt;Node19</title>
<path fill="none" stroke="#191970" d="M785.8371,-368.7795C787.3095,-376.0373 787.7283,-386.3738 787.0935,-395.383"/>
<polygon fill="#191970" stroke="#191970" points="783.6073,-395.0517 785.7967,-405.4179 790.5496,-395.949 783.6073,-395.0517"/>
</g>
<!-- Node28&#45;&gt;Node5 -->
<g id="edge48" class="edge">
<title>Node28&#45;&gt;Node5</title>
<path fill="none" stroke="#191970" d="M923.6467,-350.4761C908.9022,-331.4242 874.3759,-286.8117 855.1534,-261.9736"/>
<polygon fill="#191970" stroke="#191970" points="857.7171,-259.5676 848.8288,-253.8014 852.1813,-263.8518 857.7171,-259.5676"/>
</g>
<!-- Node28&#45;&gt;Node19 -->
<g id="edge49" class="edge">
<title>Node28&#45;&gt;Node19</title>
<path fill="none" stroke="#191970" d="M910.9932,-368.5956C887.9044,-377.7562 849.3772,-391.9531 820.1034,-402.1327"/>
<polygon fill="#191970" stroke="#191970" points="818.8811,-398.8519 810.5661,-405.4179 821.1609,-405.4703 818.8811,-398.8519"/>
</g>
<!-- Node29&#45;&gt;Node5 -->
<g id="edge51" class="edge">
<title>Node29&#45;&gt;Node5</title>
<path fill="none" stroke="#191970" d="M1043.4458,-350.4761C1005.3198,-330.4556 913.4422,-282.2094 867.9952,-258.3446"/>
<polygon fill="#191970" stroke="#191970" points="869.5189,-255.1915 859.0381,-253.6411 866.2645,-261.389 869.5189,-255.1915"/>
</g>
<!-- Node29&#45;&gt;Node19 -->
<g id="edge52" class="edge">
<title>Node29&#45;&gt;Node19</title>
<path fill="none" stroke="#191970" d="M1019.8371,-368.5255C972.9988,-378.1185 895.876,-393.2913 841.8503,-403.5583"/>
<polygon fill="#191970" stroke="#191970" points="840.8807,-400.1796 831.7067,-405.4795 842.1833,-407.0574 840.8807,-400.1796"/>
</g>
<!-- Node30 -->
<g id="node31" class="node">
<title>Node30</title>
<g id="a_node31"><a xlink:title=" ">
<polygon fill="#ffffff" stroke="#bfbfbf" points="1042.9038,-295.5 1042.9038,-313.5 1078.3569,-313.5 1078.3569,-295.5 1042.9038,-295.5"/>
<text text-anchor="middle" x="1060.6304" y="-301.5" font-family="Helvetica,sans-Serif" font-size="10.00" fill="#000000">map</text>
</a>
</g>
</g>
<!-- Node29&#45;&gt;Node30 -->
<g id="edge53" class="edge">
<title>Node29&#45;&gt;Node30</title>
<path fill="none" stroke="#191970" d="M1060.6304,-350.4179C1060.6304,-343.2164 1060.6304,-332.8962 1060.6304,-323.8632"/>
<polygon fill="#191970" stroke="#191970" points="1064.1305,-323.7794 1060.6304,-313.7795 1057.1305,-323.7795 1064.1305,-323.7794"/>
</g>
<!-- Node31&#45;&gt;Node1 -->
<g id="edge55" class="edge">
<title>Node31&#45;&gt;Node1</title>
<path fill="none" stroke="#191970" d="M1312.8877,-405.4179C1304.2286,-397.3458 1291.3664,-385.3556 1280.9567,-375.6517"/>
<polygon fill="#191970" stroke="#191970" points="1283.286,-373.0381 1273.5847,-368.7795 1278.5128,-378.1584 1283.286,-373.0381"/>
</g>
<!-- Node31&#45;&gt;Node13 -->
<g id="edge56" class="edge">
<title>Node31&#45;&gt;Node13</title>
<path fill="none" stroke="#191970" d="M1389.349,-405.4741C1483.6648,-390.814 1644.6304,-357.9626 1644.6304,-304.5 1644.6304,-304.5 1644.6304,-304.5 1644.6304,-244.5 1644.6304,-191.8339 1483.5928,-148.8545 1399.0786,-129.9249"/>
<polygon fill="#191970" stroke="#191970" points="1399.6867,-126.475 1389.1673,-127.7366 1398.1775,-133.3103 1399.6867,-126.475"/>
</g>
<!-- Node31&#45;&gt;Node16 -->
<g id="edge57" class="edge">
<title>Node31&#45;&gt;Node16</title>
<path fill="none" stroke="#191970" d="M1320.202,-405.256C1316.5435,-392.2778 1308.833,-368.2067 1297.6304,-350 1269.1001,-303.6322 1238.543,-308.3859 1215.6304,-259 1197.1864,-219.2458 1195.2579,-166.7487 1195.758,-138.8589"/>
<polygon fill="#191970" stroke="#191970" points="1199.2573,-138.933 1196.0662,-128.8302 1192.2606,-138.718 1199.2573,-138.933"/>
</g>
<!-- Node32&#45;&gt;Node4 -->
<g id="edge70" class="edge">
<title>Node32&#45;&gt;Node4</title>
<path fill="none" stroke="#191970" d="M1158.5592,-355.2055C1144.2869,-353.3642 1127.1246,-351.3344 1111.6304,-350 1068.0632,-346.2478 412.6225,-314.1976 249.9551,-306.2686"/>
<polygon fill="#191970" stroke="#191970" points="249.6947,-302.7518 239.5362,-305.7608 249.3539,-309.7435 249.6947,-302.7518"/>
</g>
<!-- Node32&#45;&gt;Node5 -->
<g id="edge60" class="edge">
<title>Node32&#45;&gt;Node5</title>
<path fill="none" stroke="#191970" d="M1185.9944,-350.2477C1179.8251,-335.868 1165.8707,-308.4172 1144.6304,-295 1103.0215,-268.7164 963.9107,-254.0823 889.5186,-247.9621"/>
<polygon fill="#191970" stroke="#191970" points="889.7162,-244.4668 879.468,-247.1547 889.1555,-251.4443 889.7162,-244.4668"/>
</g>
<!-- Node33 -->
<g id="node34" class="node">
<title>Node33</title>
<g id="a_node34"><a xlink:href="flowexpfunctions_8h.html" target="_top" xlink:title=" ">
<polygon fill="#ffffff" stroke="#000000" points="1339.9902,-295.5 1339.9902,-313.5 1463.2705,-313.5 1463.2705,-295.5 1339.9902,-295.5"/>
<text text-anchor="middle" x="1401.6304" y="-301.5" font-family="Helvetica,sans-Serif" font-size="10.00" fill="#000000">math/flowexpfunctions.h</text>
</a>
</g>
</g>
<!-- Node32&#45;&gt;Node33 -->
<g id="edge61" class="edge">
<title>Node32&#45;&gt;Node33</title>
<path fill="none" stroke="#191970" d="M1220.9117,-351.3846C1256.8766,-342.054 1316.1906,-326.666 1356.9969,-316.0794"/>
<polygon fill="#191970" stroke="#191970" points="1357.8891,-319.4639 1366.6897,-313.5648 1356.1312,-312.6882 1357.8891,-319.4639"/>
</g>
<!-- Node34 -->
<g id="node35" class="node">
<title>Node34</title>
<g id="a_node35"><a xlink:href="su3exp_8h.html" target="_top" xlink:title=" ">
<polygon fill="#ffffff" stroke="#000000" points="1348.5986,-165.5 1348.5986,-193.5 1454.6621,-193.5 1454.6621,-165.5 1348.5986,-165.5"/>
<text text-anchor="start" x="1356.5986" y="-181.5" font-family="Helvetica,sans-Serif" font-size="10.00" fill="#000000">math/exponentiation</text>
<text text-anchor="middle" x="1401.6304" y="-171.5" font-family="Helvetica,sans-Serif" font-size="10.00" fill="#000000">/su3exp.h</text>
</a>
</g>
</g>
<!-- Node33&#45;&gt;Node34 -->
<g id="edge62" class="edge">
<title>Node33&#45;&gt;Node34</title>
<path fill="none" stroke="#191970" d="M1422.7742,-295.3709C1437.1795,-287.8913 1455.1239,-275.794 1463.6304,-259 1469.4543,-247.502 1469.1626,-241.6412 1463.6304,-230 1457.8001,-217.7316 1447.3696,-207.4642 1436.7071,-199.4605"/>
<polygon fill="#191970" stroke="#191970" points="1438.3967,-196.3721 1428.1896,-193.5319 1434.3977,-202.1174 1438.3967,-196.3721"/>
</g>
<!-- Node35 -->
<g id="node36" class="node">
<title>Node35</title>
<g id="a_node36"><a xlink:href="expluscher_8h.html" target="_top" xlink:title=" ">
<polygon fill="#ffffff" stroke="#000000" points="1510.5986,-230.5 1510.5986,-258.5 1616.6621,-258.5 1616.6621,-230.5 1510.5986,-230.5"/>
<text text-anchor="start" x="1518.5986" y="-246.5" font-family="Helvetica,sans-Serif" font-size="10.00" fill="#000000">math/exponentiation</text>
<text text-anchor="middle" x="1563.6304" y="-236.5" font-family="Helvetica,sans-Serif" font-size="10.00" fill="#000000">/expluscher.h</text>
</a>
</g>
</g>
<!-- Node33&#45;&gt;Node35 -->
<g id="edge64" class="edge">
<title>Node33&#45;&gt;Node35</title>
<path fill="none" stroke="#191970" d="M1426.2347,-295.3873C1450.0124,-286.5807 1486.6616,-273.007 1516.1301,-262.0927"/>
<polygon fill="#191970" stroke="#191970" points="1517.6576,-265.2594 1525.8195,-258.504 1515.2264,-258.6951 1517.6576,-265.2594"/>
</g>
<!-- Node36 -->
<g id="node37" class="node">
<title>Node36</title>
<g id="a_node37"><a xlink:href="taylor2exp_8h.html" target="_top" xlink:title=" ">
<polygon fill="#ffffff" stroke="#000000" points="1224.5986,-230.5 1224.5986,-258.5 1330.6621,-258.5 1330.6621,-230.5 1224.5986,-230.5"/>
<text text-anchor="start" x="1232.5986" y="-246.5" font-family="Helvetica,sans-Serif" font-size="10.00" fill="#000000">math/exponentiation</text>
<text text-anchor="middle" x="1277.6304" y="-236.5" font-family="Helvetica,sans-Serif" font-size="10.00" fill="#000000">/taylor2exp.h</text>
</a>
</g>
</g>
<!-- Node33&#45;&gt;Node36 -->
<g id="edge66" class="edge">
<title>Node33&#45;&gt;Node36</title>
<path fill="none" stroke="#191970" d="M1382.7974,-295.3873C1365.1313,-286.8392 1338.1826,-273.7995 1315.9881,-263.0602"/>
<polygon fill="#191970" stroke="#191970" points="1317.3342,-259.8234 1306.8082,-258.6183 1314.2853,-266.1245 1317.3342,-259.8234"/>
</g>
<!-- Node37 -->
<g id="node38" class="node">
<title>Node37</title>
<g id="a_node38"><a xlink:href="taylor4exp_8h.html" target="_top" xlink:title=" ">
<polygon fill="#ffffff" stroke="#000000" points="1348.5986,-230.5 1348.5986,-258.5 1454.6621,-258.5 1454.6621,-230.5 1348.5986,-230.5"/>
<text text-anchor="start" x="1356.5986" y="-246.5" font-family="Helvetica,sans-Serif" font-size="10.00" fill="#000000">math/exponentiation</text>
<text text-anchor="middle" x="1401.6304" y="-236.5" font-family="Helvetica,sans-Serif" font-size="10.00" fill="#000000">/taylor4exp.h</text>
</a>
</g>
</g>
<!-- Node33&#45;&gt;Node37 -->
<g id="edge68" class="edge">
<title>Node33&#45;&gt;Node37</title>
<path fill="none" stroke="#191970" d="M1401.6304,-295.3873C1401.6304,-288.3369 1401.6304,-278.2311 1401.6304,-268.8806"/>
<polygon fill="#191970" stroke="#191970" points="1405.1305,-268.8476 1401.6304,-258.8477 1398.1305,-268.8477 1405.1305,-268.8476"/>
</g>
<!-- Node34&#45;&gt;Node13 -->
<g id="edge63" class="edge">
<title>Node34&#45;&gt;Node13</title>
<path fill="none" stroke="#191970" d="M1389.0701,-165.2808C1381.3829,-156.5784 1371.508,-145.3992 1363.4407,-136.2664"/>
<polygon fill="#191970" stroke="#191970" points="1365.8983,-133.7618 1356.6547,-128.5842 1360.652,-138.3961 1365.8983,-133.7618"/>
</g>
<!-- Node35&#45;&gt;Node34 -->
<g id="edge65" class="edge">
<title>Node35&#45;&gt;Node34</title>
<path fill="none" stroke="#191970" d="M1528.4788,-230.396C1504.3841,-220.7284 1472.219,-207.8226 1446.3079,-197.4262"/>
<polygon fill="#191970" stroke="#191970" points="1447.2975,-194.0521 1436.7134,-193.5765 1444.6908,-200.5486 1447.2975,-194.0521"/>
</g>
<!-- Node36&#45;&gt;Node34 -->
<g id="edge67" class="edge">
<title>Node36&#45;&gt;Node34</title>
<path fill="none" stroke="#191970" d="M1304.5365,-230.396C1322.4919,-220.9839 1346.3024,-208.5026 1365.8502,-198.2557"/>
<polygon fill="#191970" stroke="#191970" points="1367.5448,-201.3192 1374.7767,-193.5765 1364.2948,-195.1194 1367.5448,-201.3192"/>
</g>
<!-- Node37&#45;&gt;Node34 -->
<g id="edge69" class="edge">
<title>Node37&#45;&gt;Node34</title>
<path fill="none" stroke="#191970" d="M1401.6304,-230.396C1401.6304,-222.6448 1401.6304,-212.8122 1401.6304,-203.8601"/>
<polygon fill="#191970" stroke="#191970" points="1405.1305,-203.5765 1401.6304,-193.5765 1398.1305,-203.5765 1405.1305,-203.5765"/>
</g>
</g>
</svg>
