<?xml version="1.0" encoding="UTF-8" standalone="no"?>
<!DOCTYPE svg PUBLIC "-//W3C//DTD SVG 1.1//EN"
 "http://www.w3.org/Graphics/SVG/1.1/DTD/svg11.dtd">
<!-- Generated by graphviz version 2.40.1 (20161225.0304)
 -->
<!-- Title: GluonicLQCD/math/exponentiation/taylor2exp.h Pages: 1 -->
<svg width="603pt" height="267pt"
 viewBox="0.00 0.00 602.53 267.00" xmlns="http://www.w3.org/2000/svg" xmlns:xlink="http://www.w3.org/1999/xlink">
<g id="graph0" class="graph" transform="scale(1 1) rotate(0) translate(4 263)">
<title>GluonicLQCD/math/exponentiation/taylor2exp.h</title>
<polygon fill="#ffffff" stroke="transparent" points="-4,4 -4,-263 598.5264,-263 598.5264,4 -4,4"/>
<!-- Node5 -->
<g id="node1" class="node">
<title>Node5</title>
<g id="a_node1"><a xlink:title=" ">
<polygon fill="#bfbfbf" stroke="#000000" points="197,-230.5 197,-258.5 367.5313,-258.5 367.5313,-230.5 197,-230.5"/>
<text text-anchor="start" x="205" y="-246.5" font-family="Helvetica,sans-Serif" font-size="10.00" fill="#000000">GluonicLQCD/math/exponentiation</text>
<text text-anchor="middle" x="282.2656" y="-236.5" font-family="Helvetica,sans-Serif" font-size="10.00" fill="#000000">/taylor2exp.h</text>
</a>
</g>
</g>
<!-- Node6 -->
<g id="node2" class="node">
<title>Node6</title>
<g id="a_node2"><a xlink:href="taylor2exp_8cpp.html" target="_top" xlink:title=" ">
<polygon fill="#ffffff" stroke="#000000" points="0,-165.5 0,-193.5 170.5313,-193.5 170.5313,-165.5 0,-165.5"/>
<text text-anchor="start" x="8" y="-181.5" font-family="Helvetica,sans-Serif" font-size="10.00" fill="#000000">GluonicLQCD/math/exponentiation</text>
<text text-anchor="middle" x="85.2656" y="-171.5" font-family="Helvetica,sans-Serif" font-size="10.00" fill="#000000">/taylor2exp.cpp</text>
</a>
</g>
</g>
<!-- Node5&#45;&gt;Node6 -->
<g id="edge1" class="edge">
<title>Node5&#45;&gt;Node6</title>
<path fill="none" stroke="#191970" d="M229.9176,-227.2278C198.05,-216.7131 157.8549,-203.4508 127.9283,-193.5765"/>
<polygon fill="#191970" stroke="#191970" points="228.9264,-230.5863 239.5196,-230.396 231.1198,-223.9388 228.9264,-230.5863"/>
</g>
<!-- Node7 -->
<g id="node3" class="node">
<title>Node7</title>
<g id="a_node3"><a xlink:href="flowexpfunctions_8h.html" target="_top" xlink:title=" ">
<polygon fill="#ffffff" stroke="#000000" points="188.3916,-170.5 188.3916,-188.5 376.1396,-188.5 376.1396,-170.5 188.3916,-170.5"/>
<text text-anchor="middle" x="282.2656" y="-176.5" font-family="Helvetica,sans-Serif" font-size="10.00" fill="#000000">GluonicLQCD/math/flowexpfunctions.h</text>
</a>
</g>
</g>
<!-- Node5&#45;&gt;Node7 -->
<g id="edge2" class="edge">
<title>Node5&#45;&gt;Node7</title>
<path fill="none" stroke="#191970" d="M282.2656,-220.3747C282.2656,-209.2832 282.2656,-196.7952 282.2656,-188.5743"/>
<polygon fill="#191970" stroke="#191970" points="278.7657,-220.3959 282.2656,-230.396 285.7657,-220.396 278.7657,-220.3959"/>
</g>
<!-- Node13 -->
<g id="node9" class="node">
<title>Node13</title>
<g id="a_node9"><a xlink:href="performancetests_8cpp.html" target="_top" xlink:title=" ">
<polygon fill="#ffffff" stroke="#000000" points="394.0049,-170.5 394.0049,-188.5 594.5264,-188.5 594.5264,-170.5 394.0049,-170.5"/>
<text text-anchor="middle" x="494.2656" y="-176.5" font-family="Helvetica,sans-Serif" font-size="10.00" fill="#000000">GluonicLQCD/tests/performancetests.cpp</text>
</a>
</g>
</g>
<!-- Node5&#45;&gt;Node13 -->
<g id="edge8" class="edge">
<title>Node5&#45;&gt;Node13</title>
<path fill="none" stroke="#191970" d="M337.7929,-227.4751C378.5063,-214.9923 432.1789,-198.536 464.9067,-188.5016"/>
<polygon fill="#191970" stroke="#191970" points="336.5402,-224.1983 328.0055,-230.476 338.5922,-230.8908 336.5402,-224.1983"/>
</g>
<!-- Node8 -->
<g id="node4" class="node">
<title>Node8</title>
<g id="a_node4"><a xlink:href="flow_8h.html" target="_top" xlink:title=" ">
<polygon fill="#ffffff" stroke="#000000" points="218.9629,-110.5 218.9629,-128.5 345.5684,-128.5 345.5684,-110.5 218.9629,-110.5"/>
<text text-anchor="middle" x="282.2656" y="-116.5" font-family="Helvetica,sans-Serif" font-size="10.00" fill="#000000">GluonicLQCD/flow/flow.h</text>
</a>
</g>
</g>
<!-- Node7&#45;&gt;Node8 -->
<g id="edge3" class="edge">
<title>Node7&#45;&gt;Node8</title>
<path fill="none" stroke="#191970" d="M282.2656,-160.3734C282.2656,-149.7812 282.2656,-137.0976 282.2656,-128.6985"/>
<polygon fill="#191970" stroke="#191970" points="278.7657,-160.3873 282.2656,-170.3873 285.7657,-160.3873 278.7657,-160.3873"/>
</g>
<!-- Node9 -->
<g id="node5" class="node">
<title>Node9</title>
<g id="a_node5"><a xlink:href="flow_8cpp.html" target="_top" xlink:title=" ">
<polygon fill="#ffffff" stroke="#000000" points="140.6821,-55.5 140.6821,-73.5 277.8491,-73.5 277.8491,-55.5 140.6821,-55.5"/>
<text text-anchor="middle" x="209.2656" y="-61.5" font-family="Helvetica,sans-Serif" font-size="10.00" fill="#000000">GluonicLQCD/flow/flow.cpp</text>
</a>
</g>
</g>
<!-- Node8&#45;&gt;Node9 -->
<g id="edge4" class="edge">
<title>Node8&#45;&gt;Node9</title>
<path fill="none" stroke="#191970" d="M261.892,-104.15C248.9377,-94.3899 232.5914,-82.0742 221.582,-73.7795"/>
<polygon fill="#191970" stroke="#191970" points="260.1182,-107.1957 270.2112,-110.4179 264.3304,-101.6049 260.1182,-107.1957"/>
</g>
<!-- Node10 -->
<g id="node6" class="node">
<title>Node10</title>
<g id="a_node6"><a xlink:href="system_8h.html" target="_top" xlink:title=" ">
<polygon fill="#ffffff" stroke="#000000" points="296.0269,-55.5 296.0269,-73.5 416.5044,-73.5 416.5044,-55.5 296.0269,-55.5"/>
<text text-anchor="middle" x="356.2656" y="-61.5" font-family="Helvetica,sans-Serif" font-size="10.00" fill="#000000">GluonicLQCD/system.h</text>
</a>
</g>
</g>
<!-- Node8&#45;&gt;Node10 -->
<g id="edge5" class="edge">
<title>Node8&#45;&gt;Node10</title>
<path fill="none" stroke="#191970" d="M302.5927,-104.392C315.8721,-94.5222 332.7745,-81.9596 344.0279,-73.5956"/>
<polygon fill="#191970" stroke="#191970" points="300.4233,-101.6435 294.4852,-110.4179 304.599,-107.2617 300.4233,-101.6435"/>
</g>
<!-- Node11 -->
<g id="node7" class="node">
<title>Node11</title>
<g id="a_node7"><a xlink:href="main_8cpp.html" target="_top" xlink:title=" ">
<polygon fill="#ffffff" stroke="#000000" points="223.7437,-.5 223.7437,-18.5 344.7876,-18.5 344.7876,-.5 223.7437,-.5"/>
<text text-anchor="middle" x="284.2656" y="-6.5" font-family="Helvetica,sans-Serif" font-size="10.00" fill="#000000">GluonicLQCD/main.cpp</text>
</a>
</g>
</g>
<!-- Node10&#45;&gt;Node11 -->
<g id="edge6" class="edge">
<title>Node10&#45;&gt;Node11</title>
<path fill="none" stroke="#191970" d="M336.1711,-49.15C323.3943,-39.3899 307.2718,-27.0742 296.4133,-18.7795"/>
<polygon fill="#191970" stroke="#191970" points="334.3049,-52.1288 344.3763,-55.4179 338.5542,-46.5661 334.3049,-52.1288"/>
</g>
<!-- Node12 -->
<g id="node8" class="node">
<title>Node12</title>
<g id="a_node8"><a xlink:href="system_8cpp.html" target="_top" xlink:title=" ">
<polygon fill="#ffffff" stroke="#000000" points="362.7461,-.5 362.7461,-18.5 493.7852,-18.5 493.7852,-.5 362.7461,-.5"/>
<text text-anchor="middle" x="428.2656" y="-6.5" font-family="Helvetica,sans-Serif" font-size="10.00" fill="#000000">GluonicLQCD/system.cpp</text>
</a>
</g>
</g>
<!-- Node10&#45;&gt;Node12 -->
<g id="edge7" class="edge">
<title>Node10&#45;&gt;Node12</title>
<path fill="none" stroke="#191970" d="M376.3601,-49.15C389.137,-39.3899 405.2594,-27.0742 416.118,-18.7795"/>
<polygon fill="#191970" stroke="#191970" points="373.977,-46.5661 368.155,-55.4179 378.2263,-52.1288 373.977,-46.5661"/>
</g>
</g>
</svg>
