<?xml version="1.0" encoding="UTF-8" standalone="no"?>
<!DOCTYPE svg PUBLIC "-//W3C//DTD SVG 1.1//EN"
 "http://www.w3.org/Graphics/SVG/1.1/DTD/svg11.dtd">
<!-- Generated by graphviz version 2.40.1 (20161225.0304)
 -->
<!-- Title: GLAC/tests/testsuite.cpp Pages: 1 -->
<svg width="1303pt" height="412pt"
 viewBox="0.00 0.00 1302.77 412.00" xmlns="http://www.w3.org/2000/svg" xmlns:xlink="http://www.w3.org/1999/xlink">
<g id="graph0" class="graph" transform="scale(1 1) rotate(0) translate(4 408)">
<title>GLAC/tests/testsuite.cpp</title>
<polygon fill="#ffffff" stroke="transparent" points="-4,4 -4,-408 1298.7691,-408 1298.7691,4 -4,4"/>
<!-- Node0 -->
<g id="node1" class="node">
<title>Node0</title>
<g id="a_node1"><a xlink:title=" ">
<polygon fill="#bfbfbf" stroke="#000000" points="908.5552,-385.5 908.5552,-403.5 1034.6041,-403.5 1034.6041,-385.5 908.5552,-385.5"/>
<text text-anchor="middle" x="971.5797" y="-391.5" font-family="Helvetica,sans-Serif" font-size="10.00" fill="#000000">GLAC/tests/testsuite.cpp</text>
</a>
</g>
</g>
<!-- Node1 -->
<g id="node2" class="node">
<title>Node1</title>
<g id="a_node2"><a xlink:href="testsuite_8h.html" target="_top" xlink:title=" ">
<polygon fill="#ffffff" stroke="#000000" points="267.7891,-275.5 267.7891,-293.5 329.3702,-293.5 329.3702,-275.5 267.7891,-275.5"/>
<text text-anchor="middle" x="298.5797" y="-281.5" font-family="Helvetica,sans-Serif" font-size="10.00" fill="#000000">testsuite.h</text>
</a>
</g>
</g>
<!-- Node0&#45;&gt;Node1 -->
<g id="edge1" class="edge">
<title>Node0&#45;&gt;Node1</title>
<path fill="none" stroke="#191970" d="M908.1749,-393.9295C777.121,-392.0438 480.7815,-383.9277 386.5797,-349 358.4485,-338.5697 331.4407,-316.3551 314.9349,-300.9312"/>
<polygon fill="#191970" stroke="#191970" points="316.9395,-298.0023 307.3104,-293.5829 312.0819,-303.0425 316.9395,-298.0023"/>
</g>
<!-- Node6 -->
<g id="node7" class="node">
<title>Node6</title>
<g id="a_node7"><a xlink:title=" ">
<polygon fill="#ffffff" stroke="#bfbfbf" points="309.4073,-.5 309.4073,-18.5 363.752,-18.5 363.752,-.5 309.4073,-.5"/>
<text text-anchor="middle" x="336.5797" y="-6.5" font-family="Helvetica,sans-Serif" font-size="10.00" fill="#000000">iostream</text>
</a>
</g>
</g>
<!-- Node0&#45;&gt;Node6 -->
<g id="edge28" class="edge">
<title>Node0&#45;&gt;Node6</title>
<path fill="none" stroke="#191970" d="M908.291,-388.8958C759.6241,-374.8822 400.5797,-335.7345 400.5797,-284.5 400.5797,-284.5 400.5797,-284.5 400.5797,-119.5 400.5797,-82.2158 372.7705,-46.2886 353.8147,-26.13"/>
<polygon fill="#191970" stroke="#191970" points="356.0743,-23.4348 346.5797,-18.7335 351.0702,-28.3297 356.0743,-23.4348"/>
</g>
<!-- Node17 -->
<g id="node18" class="node">
<title>Node17</title>
<g id="a_node18"><a xlink:title=" ">
<polygon fill="#ffffff" stroke="#bfbfbf" points="1070.0699,-330.5 1070.0699,-348.5 1121.0894,-348.5 1121.0894,-330.5 1070.0699,-330.5"/>
<text text-anchor="middle" x="1095.5797" y="-336.5" font-family="Helvetica,sans-Serif" font-size="10.00" fill="#000000">iomanip</text>
</a>
</g>
</g>
<!-- Node0&#45;&gt;Node17 -->
<g id="edge29" class="edge">
<title>Node0&#45;&gt;Node17</title>
<path fill="none" stroke="#191970" d="M992.0557,-385.4179C1012.159,-376.5011 1043.0419,-362.803 1065.8484,-352.6873"/>
<polygon fill="#191970" stroke="#191970" points="1067.3511,-355.8496 1075.0732,-348.5956 1064.5129,-349.4508 1067.3511,-355.8496"/>
</g>
<!-- Node18 -->
<g id="node19" class="node">
<title>Node18</title>
<g id="a_node19"><a xlink:title=" ">
<polygon fill="#ffffff" stroke="#bfbfbf" points="1138.6339,-330.5 1138.6339,-348.5 1178.5255,-348.5 1178.5255,-330.5 1138.6339,-330.5"/>
<text text-anchor="middle" x="1158.5797" y="-336.5" font-family="Helvetica,sans-Serif" font-size="10.00" fill="#000000">ctime</text>
</a>
</g>
</g>
<!-- Node0&#45;&gt;Node18 -->
<g id="edge30" class="edge">
<title>Node0&#45;&gt;Node18</title>
<path fill="none" stroke="#191970" d="M1004.9128,-385.4666C1035.1641,-377.1569 1081.2075,-364.2331 1128.8781,-349.4476"/>
<polygon fill="#191970" stroke="#191970" points="1129.9267,-352.7869 1138.4298,-346.4665 1127.8411,-346.1048 1129.9267,-352.7869"/>
</g>
<!-- Node19 -->
<g id="node20" class="node">
<title>Node19</title>
<g id="a_node20"><a xlink:title=" ">
<polygon fill="#ffffff" stroke="#bfbfbf" points="1196.9639,-330.5 1196.9639,-348.5 1240.1954,-348.5 1240.1954,-330.5 1196.9639,-330.5"/>
<text text-anchor="middle" x="1218.5797" y="-336.5" font-family="Helvetica,sans-Serif" font-size="10.00" fill="#000000">cmath</text>
</a>
</g>
</g>
<!-- Node0&#45;&gt;Node19 -->
<g id="edge31" class="edge">
<title>Node0&#45;&gt;Node19</title>
<path fill="none" stroke="#191970" d="M1020.769,-385.4438C1062.5069,-377.4659 1124.1519,-364.9949 1186.6059,-349.0762"/>
<polygon fill="#191970" stroke="#191970" points="1187.8233,-352.3769 1196.6334,-346.4919 1186.0763,-345.5983 1187.8233,-352.3769"/>
</g>
<!-- Node20 -->
<g id="node21" class="node">
<title>Node20</title>
<g id="a_node21"><a xlink:href="communicator_8h.html" target="_top" xlink:title=" ">
<polygon fill="#ffffff" stroke="#000000" points="896.3214,-275.5 896.3214,-293.5 1046.838,-293.5 1046.838,-275.5 896.3214,-275.5"/>
<text text-anchor="middle" x="971.5797" y="-281.5" font-family="Helvetica,sans-Serif" font-size="10.00" fill="#000000">parallelization/communicator.h</text>
</a>
</g>
</g>
<!-- Node0&#45;&gt;Node20 -->
<g id="edge32" class="edge">
<title>Node0&#45;&gt;Node20</title>
<path fill="none" stroke="#191970" d="M971.5797,-385.4982C971.5797,-367.6913 971.5797,-327.6225 971.5797,-303.6515"/>
<polygon fill="#191970" stroke="#191970" points="975.0798,-303.6261 971.5797,-293.6261 968.0798,-303.6262 975.0798,-303.6261"/>
</g>
<!-- Node21 -->
<g id="node22" class="node">
<title>Node21</title>
<g id="a_node22"><a xlink:href="fieldio_8h.html" target="_top" xlink:title=" ">
<polygon fill="#ffffff" stroke="#000000" points="733.065,-275.5 733.065,-293.5 794.0943,-293.5 794.0943,-275.5 733.065,-275.5"/>
<text text-anchor="middle" x="763.5797" y="-281.5" font-family="Helvetica,sans-Serif" font-size="10.00" fill="#000000">io/fieldio.h</text>
</a>
</g>
</g>
<!-- Node0&#45;&gt;Node21 -->
<g id="edge35" class="edge">
<title>Node0&#45;&gt;Node21</title>
<path fill="none" stroke="#191970" d="M918.3989,-385.4585C874.4066,-377.1119 816.2305,-363.7981 797.5797,-349 783.0399,-337.4637 774.002,-317.9833 768.9332,-303.4433"/>
<polygon fill="#191970" stroke="#191970" points="772.145,-301.9896 765.8054,-293.5008 765.4677,-304.0903 772.145,-301.9896"/>
</g>
<!-- Node23 -->
<g id="node24" class="node">
<title>Node23</title>
<g id="a_node24"><a xlink:href="parameters_8h.html" target="_top" xlink:title=" ">
<polygon fill="#ffffff" stroke="#000000" points="1190.3902,-220.5 1190.3902,-238.5 1294.7691,-238.5 1294.7691,-220.5 1190.3902,-220.5"/>
<text text-anchor="middle" x="1242.5797" y="-226.5" font-family="Helvetica,sans-Serif" font-size="10.00" fill="#000000">config/parameters.h</text>
</a>
</g>
</g>
<!-- Node0&#45;&gt;Node23 -->
<g id="edge39" class="edge">
<title>Node0&#45;&gt;Node23</title>
<path fill="none" stroke="#191970" d="M983.0656,-385.4746C999.7215,-372.5505 1031.7457,-348.3123 1060.5797,-330 1113.8618,-296.1607 1179.2754,-261.6569 1215.3839,-243.1867"/>
<polygon fill="#191970" stroke="#191970" points="1217.0087,-246.287 1224.3324,-238.6311 1213.8329,-240.0489 1217.0087,-246.287"/>
</g>
<!-- Node24 -->
<g id="node25" class="node">
<title>Node24</title>
<g id="a_node25"><a xlink:href="plaquette_8h.html" target="_top" xlink:title=" ">
<polygon fill="#ffffff" stroke="#000000" points="806.4864,-330.5 806.4864,-348.5 928.6729,-348.5 928.6729,-330.5 806.4864,-330.5"/>
<text text-anchor="middle" x="867.5797" y="-336.5" font-family="Helvetica,sans-Serif" font-size="10.00" fill="#000000">observables/plaquette.h</text>
</a>
</g>
</g>
<!-- Node0&#45;&gt;Node24 -->
<g id="edge42" class="edge">
<title>Node0&#45;&gt;Node24</title>
<path fill="none" stroke="#191970" d="M954.4062,-385.4179C937.9217,-376.7001 912.7954,-363.4122 893.8064,-353.3699"/>
<polygon fill="#191970" stroke="#191970" points="895.2549,-350.1767 884.7787,-348.5956 891.9824,-356.3646 895.2549,-350.1767"/>
</g>
<!-- Node2 -->
<g id="node3" class="node">
<title>Node2</title>
<g id="a_node3"><a xlink:href="su3matrixgenerator_8h.html" target="_top" xlink:title=" ">
<polygon fill="#ffffff" stroke="#000000" points="12.8214,-165.5 12.8214,-183.5 188.338,-183.5 188.338,-165.5 12.8214,-165.5"/>
<text text-anchor="middle" x="100.5797" y="-171.5" font-family="Helvetica,sans-Serif" font-size="10.00" fill="#000000">math/matrices/su3matrixgenerator.h</text>
</a>
</g>
</g>
<!-- Node1&#45;&gt;Node2 -->
<g id="edge2" class="edge">
<title>Node1&#45;&gt;Node2</title>
<path fill="none" stroke="#191970" d="M275.3473,-275.4742C254.3096,-266.9903 222.7047,-253.4625 196.5797,-239 169.2822,-223.8885 139.7531,-203.3576 120.7591,-189.5542"/>
<polygon fill="#191970" stroke="#191970" points="122.711,-186.6453 112.5782,-183.5505 118.5694,-192.2887 122.711,-186.6453"/>
</g>
<!-- Node8 -->
<g id="node9" class="node">
<title>Node8</title>
<g id="a_node9"><a xlink:href="latticemath_8h.html" target="_top" xlink:title=" ">
<polygon fill="#ffffff" stroke="#000000" points="205.7276,-220.5 205.7276,-238.5 303.4317,-238.5 303.4317,-220.5 205.7276,-220.5"/>
<text text-anchor="middle" x="254.5797" y="-226.5" font-family="Helvetica,sans-Serif" font-size="10.00" fill="#000000">math/latticemath.h</text>
</a>
</g>
</g>
<!-- Node1&#45;&gt;Node8 -->
<g id="edge9" class="edge">
<title>Node1&#45;&gt;Node8</title>
<path fill="none" stroke="#191970" d="M291.314,-275.4179C285.1096,-267.6624 276.0117,-256.29 268.4225,-246.8035"/>
<polygon fill="#191970" stroke="#191970" points="270.9833,-244.4017 262.0032,-238.7795 265.5172,-248.7746 270.9833,-244.4017"/>
</g>
<!-- Node10 -->
<g id="node11" class="node">
<title>Node10</title>
<g id="a_node11"><a xlink:href="lattice_8h.html" target="_top" xlink:title=" ">
<polygon fill="#ffffff" stroke="#000000" points="725.8433,-220.5 725.8433,-238.5 801.316,-238.5 801.316,-220.5 725.8433,-220.5"/>
<text text-anchor="middle" x="763.5797" y="-226.5" font-family="Helvetica,sans-Serif" font-size="10.00" fill="#000000">math/lattice.h</text>
</a>
</g>
</g>
<!-- Node1&#45;&gt;Node10 -->
<g id="edge17" class="edge">
<title>Node1&#45;&gt;Node10</title>
<path fill="none" stroke="#191970" d="M329.4497,-280.8487C408.811,-271.4619 620.3832,-246.4372 715.7678,-235.1552"/>
<polygon fill="#191970" stroke="#191970" points="716.2,-238.6285 725.7197,-233.9781 715.3778,-231.677 716.2,-238.6285"/>
</g>
<!-- Node3 -->
<g id="node4" class="node">
<title>Node3</title>
<g id="a_node4"><a xlink:title=" ">
<polygon fill="#ffffff" stroke="#bfbfbf" points="75.6265,-110.5 75.6265,-128.5 125.5328,-128.5 125.5328,-110.5 75.6265,-110.5"/>
<text text-anchor="middle" x="100.5797" y="-116.5" font-family="Helvetica,sans-Serif" font-size="10.00" fill="#000000">random</text>
</a>
</g>
</g>
<!-- Node2&#45;&gt;Node3 -->
<g id="edge3" class="edge">
<title>Node2&#45;&gt;Node3</title>
<path fill="none" stroke="#191970" d="M100.5797,-165.4179C100.5797,-158.2164 100.5797,-147.8962 100.5797,-138.8632"/>
<polygon fill="#191970" stroke="#191970" points="104.0798,-138.7794 100.5797,-128.7795 97.0798,-138.7795 104.0798,-138.7794"/>
</g>
<!-- Node4 -->
<g id="node5" class="node">
<title>Node4</title>
<g id="a_node5"><a xlink:href="su3_8h.html" target="_top" xlink:title=" ">
<polygon fill="#ffffff" stroke="#000000" points="256.3482,-110.5 256.3482,-128.5 296.8111,-128.5 296.8111,-110.5 256.3482,-110.5"/>
<text text-anchor="middle" x="276.5797" y="-116.5" font-family="Helvetica,sans-Serif" font-size="10.00" fill="#000000">su3.h</text>
</a>
</g>
</g>
<!-- Node2&#45;&gt;Node4 -->
<g id="edge4" class="edge">
<title>Node2&#45;&gt;Node4</title>
<path fill="none" stroke="#191970" d="M129.6778,-165.4746C159.1535,-156.3221 206.0531,-141.7316 246.5797,-129 246.6774,-128.9693 246.7753,-128.9385 246.8734,-128.9077"/>
<polygon fill="#191970" stroke="#191970" points="247.7656,-132.2963 256.2504,-125.9514 245.6608,-125.6202 247.7656,-132.2963"/>
</g>
<!-- Node7 -->
<g id="node8" class="node">
<title>Node7</title>
<g id="a_node8"><a xlink:href="su2_8h.html" target="_top" xlink:title=" ">
<polygon fill="#ffffff" stroke="#000000" points="197.3482,-110.5 197.3482,-128.5 237.8111,-128.5 237.8111,-110.5 197.3482,-110.5"/>
<text text-anchor="middle" x="217.5797" y="-116.5" font-family="Helvetica,sans-Serif" font-size="10.00" fill="#000000">su2.h</text>
</a>
</g>
</g>
<!-- Node2&#45;&gt;Node7 -->
<g id="edge7" class="edge">
<title>Node2&#45;&gt;Node7</title>
<path fill="none" stroke="#191970" d="M119.8998,-165.4179C138.6989,-156.5807 167.4882,-143.0473 188.9485,-132.9591"/>
<polygon fill="#191970" stroke="#191970" points="190.6698,-136.0174 198.2308,-128.5956 187.6918,-129.6824 190.6698,-136.0174"/>
</g>
<!-- Node5 -->
<g id="node6" class="node">
<title>Node5</title>
<g id="a_node6"><a xlink:href="complex_8h.html" target="_top" xlink:title=" ">
<polygon fill="#ffffff" stroke="#000000" points="233.2867,-55.5 233.2867,-73.5 319.8726,-73.5 319.8726,-55.5 233.2867,-55.5"/>
<text text-anchor="middle" x="276.5797" y="-61.5" font-family="Helvetica,sans-Serif" font-size="10.00" fill="#000000">math/complex.h</text>
</a>
</g>
</g>
<!-- Node4&#45;&gt;Node5 -->
<g id="edge5" class="edge">
<title>Node4&#45;&gt;Node5</title>
<path fill="none" stroke="#191970" d="M276.5797,-110.4179C276.5797,-103.2164 276.5797,-92.8962 276.5797,-83.8632"/>
<polygon fill="#191970" stroke="#191970" points="280.0798,-83.7794 276.5797,-73.7795 273.0798,-83.7795 280.0798,-83.7794"/>
</g>
<!-- Node5&#45;&gt;Node6 -->
<g id="edge6" class="edge">
<title>Node5&#45;&gt;Node6</title>
<path fill="none" stroke="#191970" d="M286.4874,-55.4179C295.2933,-47.3458 308.3735,-35.3556 318.9596,-25.6517"/>
<polygon fill="#191970" stroke="#191970" points="321.4501,-28.1168 326.4566,-18.7795 316.72,-22.9567 321.4501,-28.1168"/>
</g>
<!-- Node7&#45;&gt;Node5 -->
<g id="edge8" class="edge">
<title>Node7&#45;&gt;Node5</title>
<path fill="none" stroke="#191970" d="M227.3223,-110.4179C235.9814,-102.3458 248.8436,-90.3556 259.2533,-80.6517"/>
<polygon fill="#191970" stroke="#191970" points="261.6972,-83.1584 266.6253,-73.7795 256.9241,-78.0381 261.6972,-83.1584"/>
</g>
<!-- Node8&#45;&gt;Node4 -->
<g id="edge10" class="edge">
<title>Node8&#45;&gt;Node4</title>
<path fill="none" stroke="#191970" d="M256.38,-220.4982C259.9414,-202.6913 267.9552,-162.6225 272.7494,-138.6515"/>
<polygon fill="#191970" stroke="#191970" points="276.2252,-139.1184 274.7544,-128.6261 269.3612,-137.7455 276.2252,-139.1184"/>
</g>
<!-- Node8&#45;&gt;Node5 -->
<g id="edge12" class="edge">
<title>Node8&#45;&gt;Node5</title>
<path fill="none" stroke="#191970" d="M205.6338,-227.8137C140.0097,-224.405 28.8072,-214.2118 3.5797,-184 -1.8328,-177.5182 .086,-172.6878 3.5797,-165 18.9575,-131.1614 33.3662,-126.6852 66.5797,-110 116.1105,-85.1175 178.8905,-73.7912 222.8531,-68.6672"/>
<polygon fill="#191970" stroke="#191970" points="223.4876,-72.1187 233.047,-67.5506 222.7254,-65.1603 223.4876,-72.1187"/>
</g>
<!-- Node8&#45;&gt;Node7 -->
<g id="edge11" class="edge">
<title>Node8&#45;&gt;Node7</title>
<path fill="none" stroke="#191970" d="M251.5518,-220.4982C245.5351,-202.6108 231.9624,-162.2594 223.9124,-138.3271"/>
<polygon fill="#191970" stroke="#191970" points="227.1549,-136.9885 220.6494,-128.6261 220.5202,-139.2202 227.1549,-136.9885"/>
</g>
<!-- Node9 -->
<g id="node10" class="node">
<title>Node9</title>
<g id="a_node10"><a xlink:href="functions_8h.html" target="_top" xlink:title=" ">
<polygon fill="#ffffff" stroke="#000000" points="282.8926,-165.5 282.8926,-183.5 372.2667,-183.5 372.2667,-165.5 282.8926,-165.5"/>
<text text-anchor="middle" x="327.5797" y="-171.5" font-family="Helvetica,sans-Serif" font-size="10.00" fill="#000000">math/functions.h</text>
</a>
</g>
</g>
<!-- Node8&#45;&gt;Node9 -->
<g id="edge13" class="edge">
<title>Node8&#45;&gt;Node9</title>
<path fill="none" stroke="#191970" d="M266.6341,-220.4179C277.663,-212.1084 294.2028,-199.6469 307.2703,-189.8015"/>
<polygon fill="#191970" stroke="#191970" points="309.3826,-192.5924 315.2633,-183.7795 305.1703,-187.0016 309.3826,-192.5924"/>
</g>
<!-- Node9&#45;&gt;Node4 -->
<g id="edge14" class="edge">
<title>Node9&#45;&gt;Node4</title>
<path fill="none" stroke="#191970" d="M319.158,-165.4179C311.8198,-157.5041 300.9895,-145.8243 292.0884,-136.2251"/>
<polygon fill="#191970" stroke="#191970" points="294.5501,-133.7324 285.1842,-128.7795 289.4172,-138.492 294.5501,-133.7324"/>
</g>
<!-- Node9&#45;&gt;Node5 -->
<g id="edge16" class="edge">
<title>Node9&#45;&gt;Node5</title>
<path fill="none" stroke="#191970" d="M325.2382,-165.4716C321.7756,-152.7496 314.7035,-128.9809 305.5797,-110 300.9209,-100.3081 294.6089,-90.159 289.0632,-81.9117"/>
<polygon fill="#191970" stroke="#191970" points="291.8296,-79.7589 283.2564,-73.5339 286.0765,-83.7466 291.8296,-79.7589"/>
</g>
<!-- Node9&#45;&gt;Node7 -->
<g id="edge15" class="edge">
<title>Node9&#45;&gt;Node7</title>
<path fill="none" stroke="#191970" d="M309.4154,-165.4179C291.8207,-156.6205 264.9179,-143.1691 244.7709,-133.0956"/>
<polygon fill="#191970" stroke="#191970" points="246.2805,-129.9373 235.7709,-128.5956 243.1499,-136.1983 246.2805,-129.9373"/>
</g>
<!-- Node10&#45;&gt;Node9 -->
<g id="edge27" class="edge">
<title>Node10&#45;&gt;Node9</title>
<path fill="none" stroke="#191970" d="M725.6502,-224.7153C648.3472,-214.9638 472.3073,-192.7569 382.4934,-181.4272"/>
<polygon fill="#191970" stroke="#191970" points="382.8635,-177.9462 372.504,-180.1671 381.9873,-184.8912 382.8635,-177.9462"/>
</g>
<!-- Node11 -->
<g id="node12" class="node">
<title>Node11</title>
<g id="a_node12"><a xlink:title=" ">
<polygon fill="#ffffff" stroke="#bfbfbf" points="1006.9639,-110.5 1006.9639,-128.5 1050.1954,-128.5 1050.1954,-110.5 1006.9639,-110.5"/>
<text text-anchor="middle" x="1028.5797" y="-116.5" font-family="Helvetica,sans-Serif" font-size="10.00" fill="#000000">vector</text>
</a>
</g>
</g>
<!-- Node10&#45;&gt;Node11 -->
<g id="edge18" class="edge">
<title>Node10&#45;&gt;Node11</title>
<path fill="none" stroke="#191970" d="M779.1394,-220.3089C805.863,-204.6151 859.5395,-173.5182 879.5797,-165 918.94,-148.2696 966.5235,-134.8478 997.1547,-127.0304"/>
<polygon fill="#191970" stroke="#191970" points="998.0082,-130.4248 1006.8565,-124.5974 996.3054,-123.635 998.0082,-130.4248"/>
</g>
<!-- Node12 -->
<g id="node13" class="node">
<title>Node12</title>
<g id="a_node13"><a xlink:title=" ">
<polygon fill="#ffffff" stroke="#bfbfbf" points="589.3531,-110.5 589.3531,-128.5 629.8062,-128.5 629.8062,-110.5 589.3531,-110.5"/>
<text text-anchor="middle" x="609.5797" y="-116.5" font-family="Helvetica,sans-Serif" font-size="10.00" fill="#000000">mpi.h</text>
</a>
</g>
</g>
<!-- Node10&#45;&gt;Node12 -->
<g id="edge19" class="edge">
<title>Node10&#45;&gt;Node12</title>
<path fill="none" stroke="#191970" d="M745.9986,-220.3967C729.8247,-211.7567 705.4144,-198.0378 685.5797,-184 664.3645,-168.9851 641.8841,-149.3881 626.9249,-135.7532"/>
<polygon fill="#191970" stroke="#191970" points="629.1692,-133.0619 619.4438,-128.8586 624.4253,-138.2093 629.1692,-133.0619"/>
</g>
<!-- Node13 -->
<g id="node14" class="node">
<title>Node13</title>
<g id="a_node14"><a xlink:href="index_8h.html" target="_top" xlink:title=" ">
<polygon fill="#ffffff" stroke="#000000" points="888.4937,-165.5 888.4937,-183.5 1000.6656,-183.5 1000.6656,-165.5 888.4937,-165.5"/>
<text text-anchor="middle" x="944.5797" y="-171.5" font-family="Helvetica,sans-Serif" font-size="10.00" fill="#000000">parallelization/index.h</text>
</a>
</g>
</g>
<!-- Node10&#45;&gt;Node13 -->
<g id="edge20" class="edge">
<title>Node10&#45;&gt;Node13</title>
<path fill="none" stroke="#191970" d="M793.4681,-220.4179C823.9515,-211.155 871.4147,-196.7325 905.0032,-186.526"/>
<polygon fill="#191970" stroke="#191970" points="906.3972,-189.7605 914.9476,-183.5042 904.362,-183.0629 906.3972,-189.7605"/>
</g>
<!-- Node14 -->
<g id="node15" class="node">
<title>Node14</title>
<g id="a_node15"><a xlink:href="neighbours_8h.html" target="_top" xlink:title=" ">
<polygon fill="#ffffff" stroke="#000000" points="694.7056,-165.5 694.7056,-183.5 832.4537,-183.5 832.4537,-165.5 694.7056,-165.5"/>
<text text-anchor="middle" x="763.5797" y="-171.5" font-family="Helvetica,sans-Serif" font-size="10.00" fill="#000000">parallelization/neighbours.h</text>
</a>
</g>
</g>
<!-- Node10&#45;&gt;Node14 -->
<g id="edge22" class="edge">
<title>Node10&#45;&gt;Node14</title>
<path fill="none" stroke="#191970" d="M763.5797,-220.4179C763.5797,-213.2164 763.5797,-202.8962 763.5797,-193.8632"/>
<polygon fill="#191970" stroke="#191970" points="767.0798,-193.7794 763.5797,-183.7795 760.0798,-193.7795 767.0798,-193.7794"/>
</g>
<!-- Node16 -->
<g id="node17" class="node">
<title>Node16</title>
<g id="a_node17"><a xlink:href="parallelparameters_8h.html" target="_top" xlink:title=" ">
<polygon fill="#ffffff" stroke="#000000" points="467.0382,-165.5 467.0382,-183.5 638.1212,-183.5 638.1212,-165.5 467.0382,-165.5"/>
<text text-anchor="middle" x="552.5797" y="-171.5" font-family="Helvetica,sans-Serif" font-size="10.00" fill="#000000">parallelization/parallelparameters.h</text>
</a>
</g>
</g>
<!-- Node10&#45;&gt;Node16 -->
<g id="edge25" class="edge">
<title>Node10&#45;&gt;Node16</title>
<path fill="none" stroke="#191970" d="M728.7373,-220.4179C692.6654,-211.0152 636.1975,-196.2961 596.9548,-186.067"/>
<polygon fill="#191970" stroke="#191970" points="597.6826,-182.6398 587.1231,-183.5042 595.9169,-189.4135 597.6826,-182.6398"/>
</g>
<!-- Node13&#45;&gt;Node11 -->
<g id="edge21" class="edge">
<title>Node13&#45;&gt;Node11</title>
<path fill="none" stroke="#191970" d="M958.4505,-165.4179C971.3394,-156.9788 990.769,-144.257 1005.911,-134.3426"/>
<polygon fill="#191970" stroke="#191970" points="1008.2392,-137.0017 1014.6882,-128.5956 1004.4047,-131.1454 1008.2392,-137.0017"/>
</g>
<!-- Node14&#45;&gt;Node11 -->
<g id="edge24" class="edge">
<title>Node14&#45;&gt;Node11</title>
<path fill="none" stroke="#191970" d="M807.0423,-165.4795C860.4181,-154.4014 949.6723,-135.877 996.9544,-126.0637"/>
<polygon fill="#191970" stroke="#191970" points="997.8482,-129.4529 1006.9283,-123.9937 996.4257,-122.599 997.8482,-129.4529"/>
</g>
<!-- Node15 -->
<g id="node16" class="node">
<title>Node15</title>
<g id="a_node16"><a xlink:href="neighbourlist_8h.html" target="_top" xlink:title=" ">
<polygon fill="#ffffff" stroke="#000000" points="723.0577,-110.5 723.0577,-128.5 804.1016,-128.5 804.1016,-110.5 723.0577,-110.5"/>
<text text-anchor="middle" x="763.5797" y="-116.5" font-family="Helvetica,sans-Serif" font-size="10.00" fill="#000000">neighbourlist.h</text>
</a>
</g>
</g>
<!-- Node14&#45;&gt;Node15 -->
<g id="edge23" class="edge">
<title>Node14&#45;&gt;Node15</title>
<path fill="none" stroke="#191970" d="M763.5797,-165.4179C763.5797,-158.2164 763.5797,-147.8962 763.5797,-138.8632"/>
<polygon fill="#191970" stroke="#191970" points="767.0798,-138.7794 763.5797,-128.7795 760.0798,-138.7795 767.0798,-138.7794"/>
</g>
<!-- Node16&#45;&gt;Node12 -->
<g id="edge26" class="edge">
<title>Node16&#45;&gt;Node12</title>
<path fill="none" stroke="#191970" d="M561.992,-165.4179C570.2756,-157.425 582.5406,-145.5903 592.5442,-135.9377"/>
<polygon fill="#191970" stroke="#191970" points="595.1969,-138.2419 599.9628,-128.7795 590.3362,-133.2045 595.1969,-138.2419"/>
</g>
<!-- Node20&#45;&gt;Node10 -->
<g id="edge34" class="edge">
<title>Node20&#45;&gt;Node10</title>
<path fill="none" stroke="#191970" d="M937.2327,-275.4179C901.7491,-266.0352 846.2449,-251.3586 807.5705,-241.1322"/>
<polygon fill="#191970" stroke="#191970" points="808.1944,-237.6769 797.6319,-238.5042 806.4049,-244.4444 808.1944,-237.6769"/>
</g>
<!-- Node20&#45;&gt;Node11 -->
<g id="edge33" class="edge">
<title>Node20&#45;&gt;Node11</title>
<path fill="none" stroke="#191970" d="M1037.3968,-275.493C1080.1859,-268.1343 1130.3898,-256.1327 1143.5797,-239 1159.4378,-218.4014 1136.4123,-181.8664 1120.5797,-165 1104.0959,-147.4399 1079.3718,-135.7388 1059.7041,-128.605"/>
<polygon fill="#191970" stroke="#191970" points="1060.8272,-125.2901 1050.2327,-125.3741 1058.5672,-131.9152 1060.8272,-125.2901"/>
</g>
<!-- Node21&#45;&gt;Node4 -->
<g id="edge37" class="edge">
<title>Node21&#45;&gt;Node4</title>
<path fill="none" stroke="#191970" d="M735.2352,-275.4521C681.1235,-258.1211 559.4176,-218.8625 457.5797,-184 404.2938,-165.7585 342.5668,-143.5235 306.7093,-130.4967"/>
<polygon fill="#191970" stroke="#191970" points="307.4739,-127.0504 296.8798,-126.9208 305.0808,-133.6287 307.4739,-127.0504"/>
</g>
<!-- Node21&#45;&gt;Node10 -->
<g id="edge38" class="edge">
<title>Node21&#45;&gt;Node10</title>
<path fill="none" stroke="#191970" d="M763.5797,-275.4179C763.5797,-268.2164 763.5797,-257.8962 763.5797,-248.8632"/>
<polygon fill="#191970" stroke="#191970" points="767.0798,-248.7794 763.5797,-238.7795 760.0798,-248.7795 767.0798,-248.7794"/>
</g>
<!-- Node22 -->
<g id="node23" class="node">
<title>Node22</title>
<g id="a_node23"><a xlink:title=" ">
<polygon fill="#ffffff" stroke="#bfbfbf" points="1056.3531,-165.5 1056.3531,-183.5 1096.8062,-183.5 1096.8062,-165.5 1056.3531,-165.5"/>
<text text-anchor="middle" x="1076.5797" y="-171.5" font-family="Helvetica,sans-Serif" font-size="10.00" fill="#000000">string</text>
</a>
</g>
</g>
<!-- Node21&#45;&gt;Node22 -->
<g id="edge36" class="edge">
<title>Node21&#45;&gt;Node22</title>
<path fill="none" stroke="#191970" d="M789.1938,-275.4982C846.5898,-255.3271 985.2683,-206.5902 1046.5753,-185.0447"/>
<polygon fill="#191970" stroke="#191970" points="1047.7935,-188.3265 1056.0674,-181.7088 1045.4726,-181.7224 1047.7935,-188.3265"/>
</g>
<!-- Node23&#45;&gt;Node11 -->
<g id="edge41" class="edge">
<title>Node23&#45;&gt;Node11</title>
<path fill="none" stroke="#191970" d="M1235.5075,-220.1809C1224.4309,-206.2108 1201.6481,-179.8936 1176.5797,-165 1139.7251,-143.1041 1091.3549,-130.8314 1060.1177,-124.6893"/>
<polygon fill="#191970" stroke="#191970" points="1060.6958,-121.2368 1050.2224,-122.8363 1059.4073,-128.1172 1060.6958,-121.2368"/>
</g>
<!-- Node23&#45;&gt;Node22 -->
<g id="edge40" class="edge">
<title>Node23&#45;&gt;Node22</title>
<path fill="none" stroke="#191970" d="M1215.1681,-220.4179C1185.3837,-210.5495 1137.9243,-194.825 1107.0068,-184.5813"/>
<polygon fill="#191970" stroke="#191970" points="1107.7987,-181.1566 1097.2053,-181.3338 1105.5971,-187.8014 1107.7987,-181.1566"/>
</g>
<!-- Node25 -->
<g id="node26" class="node">
<title>Node25</title>
<g id="a_node26"><a xlink:href="correlator_8h.html" target="_top" xlink:title=" ">
<polygon fill="#ffffff" stroke="#000000" points="812.565,-275.5 812.565,-293.5 878.5943,-293.5 878.5943,-275.5 812.565,-275.5"/>
<text text-anchor="middle" x="845.5797" y="-281.5" font-family="Helvetica,sans-Serif" font-size="10.00" fill="#000000">correlator.h</text>
</a>
</g>
</g>
<!-- Node24&#45;&gt;Node25 -->
<g id="edge43" class="edge">
<title>Node24&#45;&gt;Node25</title>
<path fill="none" stroke="#191970" d="M863.9468,-330.4179C861.0029,-323.0581 856.7561,-312.441 853.0875,-303.2695"/>
<polygon fill="#191970" stroke="#191970" points="856.2551,-301.7643 849.2914,-293.7795 849.7557,-304.3641 856.2551,-301.7643"/>
</g>
<!-- Node25&#45;&gt;Node10 -->
<g id="edge44" class="edge">
<title>Node25&#45;&gt;Node10</title>
<path fill="none" stroke="#191970" d="M832.039,-275.4179C819.4571,-266.9788 800.4901,-254.257 785.7086,-244.3426"/>
<polygon fill="#191970" stroke="#191970" points="787.3949,-241.2593 777.1404,-238.5956 783.4957,-247.0727 787.3949,-241.2593"/>
</g>
<!-- Node25&#45;&gt;Node11 -->
<g id="edge48" class="edge">
<title>Node25&#45;&gt;Node11</title>
<path fill="none" stroke="#191970" d="M871.6033,-275.4543C907.8977,-261.5097 973.3292,-231.3165 1009.5797,-184 1019.5633,-170.9687 1024.3118,-152.7912 1026.5641,-139.0535"/>
<polygon fill="#191970" stroke="#191970" points="1030.083,-139.1421 1027.9291,-128.7685 1023.1438,-138.2211 1030.083,-139.1421"/>
</g>
<!-- Node26 -->
<g id="node27" class="node">
<title>Node26</title>
<g id="a_node27"><a xlink:href="observablestorer_8h.html" target="_top" xlink:title=" ">
<polygon fill="#ffffff" stroke="#000000" points="1012.4913,-220.5 1012.4913,-238.5 1134.668,-238.5 1134.668,-220.5 1012.4913,-220.5"/>
<text text-anchor="middle" x="1073.5797" y="-226.5" font-family="Helvetica,sans-Serif" font-size="10.00" fill="#000000">tools/observablestorer.h</text>
</a>
</g>
</g>
<!-- Node25&#45;&gt;Node26 -->
<g id="edge45" class="edge">
<title>Node25&#45;&gt;Node26</title>
<path fill="none" stroke="#191970" d="M878.7328,-276.5025C917.5758,-267.1325 982.2184,-251.5389 1026.309,-240.903"/>
<polygon fill="#191970" stroke="#191970" points="1027.3159,-244.2606 1036.2163,-238.5131 1025.6743,-237.4558 1027.3159,-244.2606"/>
</g>
<!-- Node26&#45;&gt;Node11 -->
<g id="edge47" class="edge">
<title>Node26&#45;&gt;Node11</title>
<path fill="none" stroke="#191970" d="M1084.196,-220.1384C1097.2695,-207.4291 1116.4835,-184.1084 1105.5797,-165 1095.737,-147.7512 1076.5097,-136.3806 1059.7318,-129.32"/>
<polygon fill="#191970" stroke="#191970" points="1060.8151,-125.9865 1050.2256,-125.649 1058.2934,-132.5165 1060.8151,-125.9865"/>
</g>
<!-- Node26&#45;&gt;Node22 -->
<g id="edge46" class="edge">
<title>Node26&#45;&gt;Node22</title>
<path fill="none" stroke="#191970" d="M1074.075,-220.4179C1074.4679,-213.2164 1075.0308,-202.8962 1075.5235,-193.8632"/>
<polygon fill="#191970" stroke="#191970" points="1079.0236,-193.9553 1076.0735,-183.7795 1072.034,-193.574 1079.0236,-193.9553"/>
</g>
</g>
</svg>
