<?xml version="1.0" encoding="UTF-8" standalone="no"?>
<!DOCTYPE svg PUBLIC "-//W3C//DTD SVG 1.1//EN"
 "http://www.w3.org/Graphics/SVG/1.1/DTD/svg11.dtd">
<!-- Generated by graphviz version 2.40.1 (20161225.0304)
 -->
<!-- Title: GluonicLQCD/tests/testsuite.h Pages: 1 -->
<svg width="957pt" height="302pt"
 viewBox="0.00 0.00 957.30 302.00" xmlns="http://www.w3.org/2000/svg" xmlns:xlink="http://www.w3.org/1999/xlink">
<g id="graph0" class="graph" transform="scale(1 1) rotate(0) translate(4 298)">
<title>GluonicLQCD/tests/testsuite.h</title>
<polygon fill="#ffffff" stroke="transparent" points="-4,4 -4,-298 953.2998,-298 953.2998,4 -4,4"/>
<!-- Node0 -->
<g id="node1" class="node">
<title>Node0</title>
<g id="a_node1"><a xlink:title=" ">
<polygon fill="#bfbfbf" stroke="#000000" points="202.7856,-275.5 202.7856,-293.5 352.731,-293.5 352.731,-275.5 202.7856,-275.5"/>
<text text-anchor="middle" x="277.7583" y="-281.5" font-family="Helvetica,sans-Serif" font-size="10.00" fill="#000000">GluonicLQCD/tests/testsuite.h</text>
</a>
</g>
</g>
<!-- Node1 -->
<g id="node2" class="node">
<title>Node1</title>
<g id="a_node2"><a xlink:href="su3matrixgenerator_8h.html" target="_top" xlink:title=" ">
<polygon fill="#ffffff" stroke="#000000" points="0,-165.5 0,-183.5 175.5166,-183.5 175.5166,-165.5 0,-165.5"/>
<text text-anchor="middle" x="87.7583" y="-171.5" font-family="Helvetica,sans-Serif" font-size="10.00" fill="#000000">math/matrices/su3matrixgenerator.h</text>
</a>
</g>
</g>
<!-- Node0&#45;&gt;Node1 -->
<g id="edge1" class="edge">
<title>Node0&#45;&gt;Node1</title>
<path fill="none" stroke="#191970" d="M262.2098,-275.4982C229.2256,-256.4021 152.0197,-211.704 112.3076,-188.7128"/>
<polygon fill="#191970" stroke="#191970" points="113.9296,-185.6076 103.5216,-183.6261 110.4223,-191.6656 113.9296,-185.6076"/>
</g>
<!-- Node7 -->
<g id="node8" class="node">
<title>Node7</title>
<g id="a_node8"><a xlink:href="latticemath_8h.html" target="_top" xlink:title=" ">
<polygon fill="#ffffff" stroke="#000000" points="228.9063,-220.5 228.9063,-238.5 326.6104,-238.5 326.6104,-220.5 228.9063,-220.5"/>
<text text-anchor="middle" x="277.7583" y="-226.5" font-family="Helvetica,sans-Serif" font-size="10.00" fill="#000000">math/latticemath.h</text>
</a>
</g>
</g>
<!-- Node0&#45;&gt;Node7 -->
<g id="edge8" class="edge">
<title>Node0&#45;&gt;Node7</title>
<path fill="none" stroke="#191970" d="M277.7583,-275.4179C277.7583,-268.2164 277.7583,-257.8962 277.7583,-248.8632"/>
<polygon fill="#191970" stroke="#191970" points="281.2584,-248.7794 277.7583,-238.7795 274.2584,-248.7795 281.2584,-248.7794"/>
</g>
<!-- Node9 -->
<g id="node10" class="node">
<title>Node9</title>
<g id="a_node10"><a xlink:href="lattice_8h.html" target="_top" xlink:title=" ">
<polygon fill="#ffffff" stroke="#000000" points="472.022,-220.5 472.022,-238.5 547.4946,-238.5 547.4946,-220.5 472.022,-220.5"/>
<text text-anchor="middle" x="509.7583" y="-226.5" font-family="Helvetica,sans-Serif" font-size="10.00" fill="#000000">math/lattice.h</text>
</a>
</g>
</g>
<!-- Node0&#45;&gt;Node9 -->
<g id="edge16" class="edge">
<title>Node0&#45;&gt;Node9</title>
<path fill="none" stroke="#191970" d="M315.8086,-275.4795C355.7609,-266.008 418.6738,-251.0933 461.9515,-240.8335"/>
<polygon fill="#191970" stroke="#191970" points="462.7643,-244.2379 471.6872,-238.5255 461.1495,-237.4267 462.7643,-244.2379"/>
</g>
<!-- Node2 -->
<g id="node3" class="node">
<title>Node2</title>
<g id="a_node3"><a xlink:title=" ">
<polygon fill="#ffffff" stroke="#bfbfbf" points="62.8052,-110.5 62.8052,-128.5 112.7114,-128.5 112.7114,-110.5 62.8052,-110.5"/>
<text text-anchor="middle" x="87.7583" y="-116.5" font-family="Helvetica,sans-Serif" font-size="10.00" fill="#000000">random</text>
</a>
</g>
</g>
<!-- Node1&#45;&gt;Node2 -->
<g id="edge2" class="edge">
<title>Node1&#45;&gt;Node2</title>
<path fill="none" stroke="#191970" d="M87.7583,-165.4179C87.7583,-158.2164 87.7583,-147.8962 87.7583,-138.8632"/>
<polygon fill="#191970" stroke="#191970" points="91.2584,-138.7794 87.7583,-128.7795 84.2584,-138.7795 91.2584,-138.7794"/>
</g>
<!-- Node3 -->
<g id="node4" class="node">
<title>Node3</title>
<g id="a_node4"><a xlink:href="su3_8h.html" target="_top" xlink:title=" ">
<polygon fill="#ffffff" stroke="#000000" points="244.5269,-110.5 244.5269,-128.5 284.9897,-128.5 284.9897,-110.5 244.5269,-110.5"/>
<text text-anchor="middle" x="264.7583" y="-116.5" font-family="Helvetica,sans-Serif" font-size="10.00" fill="#000000">su3.h</text>
</a>
</g>
</g>
<!-- Node1&#45;&gt;Node3 -->
<g id="edge3" class="edge">
<title>Node1&#45;&gt;Node3</title>
<path fill="none" stroke="#191970" d="M116.9863,-165.4179C149.4141,-155.3414 201.4912,-139.1593 234.3765,-128.9407"/>
<polygon fill="#191970" stroke="#191970" points="235.8189,-132.1576 244.3299,-125.8478 233.7417,-125.4729 235.8189,-132.1576"/>
</g>
<!-- Node6 -->
<g id="node7" class="node">
<title>Node6</title>
<g id="a_node7"><a xlink:href="su2_8h.html" target="_top" xlink:title=" ">
<polygon fill="#ffffff" stroke="#000000" points="184.5269,-110.5 184.5269,-128.5 224.9897,-128.5 224.9897,-110.5 184.5269,-110.5"/>
<text text-anchor="middle" x="204.7583" y="-116.5" font-family="Helvetica,sans-Serif" font-size="10.00" fill="#000000">su2.h</text>
</a>
</g>
</g>
<!-- Node1&#45;&gt;Node6 -->
<g id="edge6" class="edge">
<title>Node1&#45;&gt;Node6</title>
<path fill="none" stroke="#191970" d="M107.0785,-165.4179C125.8776,-156.5807 154.6668,-143.0473 176.1272,-132.9591"/>
<polygon fill="#191970" stroke="#191970" points="177.8485,-136.0174 185.4094,-128.5956 174.8705,-129.6824 177.8485,-136.0174"/>
</g>
<!-- Node4 -->
<g id="node5" class="node">
<title>Node4</title>
<g id="a_node5"><a xlink:href="complex_8h.html" target="_top" xlink:title=" ">
<polygon fill="#ffffff" stroke="#000000" points="247.4653,-55.5 247.4653,-73.5 334.0513,-73.5 334.0513,-55.5 247.4653,-55.5"/>
<text text-anchor="middle" x="290.7583" y="-61.5" font-family="Helvetica,sans-Serif" font-size="10.00" fill="#000000">math/complex.h</text>
</a>
</g>
</g>
<!-- Node3&#45;&gt;Node4 -->
<g id="edge4" class="edge">
<title>Node3&#45;&gt;Node4</title>
<path fill="none" stroke="#191970" d="M269.0517,-110.4179C272.5683,-102.9789 277.6579,-92.2123 282.0251,-82.9742"/>
<polygon fill="#191970" stroke="#191970" points="285.2621,-84.316 286.3716,-73.7795 278.9335,-81.3243 285.2621,-84.316"/>
</g>
<!-- Node5 -->
<g id="node6" class="node">
<title>Node5</title>
<g id="a_node6"><a xlink:title=" ">
<polygon fill="#ffffff" stroke="#bfbfbf" points="263.5859,-.5 263.5859,-18.5 317.9307,-18.5 317.9307,-.5 263.5859,-.5"/>
<text text-anchor="middle" x="290.7583" y="-6.5" font-family="Helvetica,sans-Serif" font-size="10.00" fill="#000000">iostream</text>
</a>
</g>
</g>
<!-- Node4&#45;&gt;Node5 -->
<g id="edge5" class="edge">
<title>Node4&#45;&gt;Node5</title>
<path fill="none" stroke="#191970" d="M290.7583,-55.4179C290.7583,-48.2164 290.7583,-37.8962 290.7583,-28.8632"/>
<polygon fill="#191970" stroke="#191970" points="294.2584,-28.7794 290.7583,-18.7795 287.2584,-28.7795 294.2584,-28.7794"/>
</g>
<!-- Node6&#45;&gt;Node4 -->
<g id="edge7" class="edge">
<title>Node6&#45;&gt;Node4</title>
<path fill="none" stroke="#191970" d="M218.9595,-110.4179C232.2796,-101.8992 252.4233,-89.0166 267.9875,-79.0627"/>
<polygon fill="#191970" stroke="#191970" points="269.9973,-81.932 276.5361,-73.5956 266.2258,-76.0348 269.9973,-81.932"/>
</g>
<!-- Node7&#45;&gt;Node3 -->
<g id="edge9" class="edge">
<title>Node7&#45;&gt;Node3</title>
<path fill="none" stroke="#191970" d="M273.2335,-220.3658C269.048,-211.3702 263.1277,-197.1112 260.7583,-184 258.0424,-168.971 259.3458,-151.6879 261.1619,-138.7973"/>
<polygon fill="#191970" stroke="#191970" points="264.6424,-139.2006 262.8018,-128.7669 257.7341,-138.0711 264.6424,-139.2006"/>
</g>
<!-- Node7&#45;&gt;Node4 -->
<g id="edge11" class="edge">
<title>Node7&#45;&gt;Node4</title>
<path fill="none" stroke="#191970" d="M316.6741,-220.3826C335.8827,-213.7068 357.3363,-202.4812 368.7583,-184 392.2306,-146.0209 344.0039,-102.295 313.3915,-79.7335"/>
<polygon fill="#191970" stroke="#191970" points="315.1007,-76.6536 304.9268,-73.6968 311.0362,-82.3527 315.1007,-76.6536"/>
</g>
<!-- Node7&#45;&gt;Node6 -->
<g id="edge10" class="edge">
<title>Node7&#45;&gt;Node6</title>
<path fill="none" stroke="#191970" d="M271.7844,-220.4982C259.6997,-202.2885 232.1652,-160.798 216.4049,-137.0496"/>
<polygon fill="#191970" stroke="#191970" points="219.2605,-135.023 210.8147,-128.6261 213.428,-138.8936 219.2605,-135.023"/>
</g>
<!-- Node8 -->
<g id="node9" class="node">
<title>Node8</title>
<g id="a_node9"><a xlink:href="functions_8h.html" target="_top" xlink:title=" ">
<polygon fill="#ffffff" stroke="#000000" points="270.0713,-165.5 270.0713,-183.5 359.4453,-183.5 359.4453,-165.5 270.0713,-165.5"/>
<text text-anchor="middle" x="314.7583" y="-171.5" font-family="Helvetica,sans-Serif" font-size="10.00" fill="#000000">math/functions.h</text>
</a>
</g>
</g>
<!-- Node7&#45;&gt;Node8 -->
<g id="edge12" class="edge">
<title>Node7&#45;&gt;Node8</title>
<path fill="none" stroke="#191970" d="M283.8681,-220.4179C289.0322,-212.7415 296.5801,-201.5217 302.922,-192.0945"/>
<polygon fill="#191970" stroke="#191970" points="305.838,-194.0303 308.5158,-183.7795 300.0299,-190.1231 305.838,-194.0303"/>
</g>
<!-- Node8&#45;&gt;Node3 -->
<g id="edge13" class="edge">
<title>Node8&#45;&gt;Node3</title>
<path fill="none" stroke="#191970" d="M306.5018,-165.4179C299.3075,-157.5041 288.6895,-145.8243 279.9629,-136.2251"/>
<polygon fill="#191970" stroke="#191970" points="282.5107,-133.8245 273.1942,-128.7795 277.3311,-138.5332 282.5107,-133.8245"/>
</g>
<!-- Node8&#45;&gt;Node4 -->
<g id="edge15" class="edge">
<title>Node8&#45;&gt;Node4</title>
<path fill="none" stroke="#191970" d="M312.7943,-165.4982C308.9091,-147.6913 300.1668,-107.6225 294.9368,-83.6515"/>
<polygon fill="#191970" stroke="#191970" points="298.3008,-82.6502 292.7495,-73.6261 291.4617,-84.1424 298.3008,-82.6502"/>
</g>
<!-- Node8&#45;&gt;Node6 -->
<g id="edge14" class="edge">
<title>Node8&#45;&gt;Node6</title>
<path fill="none" stroke="#191970" d="M296.594,-165.4179C278.9993,-156.6205 252.0965,-143.1691 231.9495,-133.0956"/>
<polygon fill="#191970" stroke="#191970" points="233.4591,-129.9373 222.9495,-128.5956 230.3286,-136.1983 233.4591,-129.9373"/>
</g>
<!-- Node9&#45;&gt;Node8 -->
<g id="edge26" class="edge">
<title>Node9&#45;&gt;Node8</title>
<path fill="none" stroke="#191970" d="M477.558,-220.4179C444.4337,-211.0751 392.6995,-196.4834 356.4634,-186.263"/>
<polygon fill="#191970" stroke="#191970" points="357.257,-182.8503 346.6823,-183.5042 355.3567,-189.5875 357.257,-182.8503"/>
</g>
<!-- Node10 -->
<g id="node11" class="node">
<title>Node10</title>
<g id="a_node11"><a xlink:title=" ">
<polygon fill="#ffffff" stroke="#bfbfbf" points="488.1426,-110.5 488.1426,-128.5 531.374,-128.5 531.374,-110.5 488.1426,-110.5"/>
<text text-anchor="middle" x="509.7583" y="-116.5" font-family="Helvetica,sans-Serif" font-size="10.00" fill="#000000">vector</text>
</a>
</g>
</g>
<!-- Node9&#45;&gt;Node10 -->
<g id="edge17" class="edge">
<title>Node9&#45;&gt;Node10</title>
<path fill="none" stroke="#191970" d="M487.3009,-220.476C472.2689,-213.1093 453.6642,-201.1051 444.7583,-184 433.9017,-163.1482 457.2756,-144.8646 478.9569,-133.1397"/>
<polygon fill="#191970" stroke="#191970" points="480.7083,-136.1758 488.0405,-128.528 477.5394,-129.9342 480.7083,-136.1758"/>
</g>
<!-- Node11 -->
<g id="node12" class="node">
<title>Node11</title>
<g id="a_node12"><a xlink:title=" ">
<polygon fill="#ffffff" stroke="#bfbfbf" points="786.5317,-110.5 786.5317,-128.5 826.9849,-128.5 826.9849,-110.5 786.5317,-110.5"/>
<text text-anchor="middle" x="806.7583" y="-116.5" font-family="Helvetica,sans-Serif" font-size="10.00" fill="#000000">mpi.h</text>
</a>
</g>
</g>
<!-- Node9&#45;&gt;Node11 -->
<g id="edge18" class="edge">
<title>Node9&#45;&gt;Node11</title>
<path fill="none" stroke="#191970" d="M547.5552,-227.4209C593.0797,-223.6624 670.8926,-213.1689 730.7583,-184 754.911,-172.2319 777.7201,-151.0156 791.9324,-136.1389"/>
<polygon fill="#191970" stroke="#191970" points="794.6652,-138.3392 798.8977,-128.6265 789.5321,-133.5799 794.6652,-138.3392"/>
</g>
<!-- Node12 -->
<g id="node13" class="node">
<title>Node12</title>
<g id="a_node13"><a xlink:href="index_8h.html" target="_top" xlink:title=" ">
<polygon fill="#ffffff" stroke="#000000" points="453.6724,-165.5 453.6724,-183.5 565.8442,-183.5 565.8442,-165.5 453.6724,-165.5"/>
<text text-anchor="middle" x="509.7583" y="-171.5" font-family="Helvetica,sans-Serif" font-size="10.00" fill="#000000">parallelization/index.h</text>
</a>
</g>
</g>
<!-- Node9&#45;&gt;Node12 -->
<g id="edge19" class="edge">
<title>Node9&#45;&gt;Node12</title>
<path fill="none" stroke="#191970" d="M509.7583,-220.4179C509.7583,-213.2164 509.7583,-202.8962 509.7583,-193.8632"/>
<polygon fill="#191970" stroke="#191970" points="513.2584,-193.7794 509.7583,-183.7795 506.2584,-193.7795 513.2584,-193.7794"/>
</g>
<!-- Node13 -->
<g id="node14" class="node">
<title>Node13</title>
<g id="a_node14"><a xlink:href="neighbours_8h.html" target="_top" xlink:title=" ">
<polygon fill="#ffffff" stroke="#000000" points="583.8843,-165.5 583.8843,-183.5 721.6323,-183.5 721.6323,-165.5 583.8843,-165.5"/>
<text text-anchor="middle" x="652.7583" y="-171.5" font-family="Helvetica,sans-Serif" font-size="10.00" fill="#000000">parallelization/neighbours.h</text>
</a>
</g>
</g>
<!-- Node9&#45;&gt;Node13 -->
<g id="edge21" class="edge">
<title>Node9&#45;&gt;Node13</title>
<path fill="none" stroke="#191970" d="M533.3718,-220.4179C556.866,-211.3817 593.1266,-197.4353 619.5231,-187.2828"/>
<polygon fill="#191970" stroke="#191970" points="621.0327,-190.4522 629.1097,-183.5956 618.5198,-183.9188 621.0327,-190.4522"/>
</g>
<!-- Node15 -->
<g id="node16" class="node">
<title>Node15</title>
<g id="a_node16"><a xlink:href="parallelparameters_8h.html" target="_top" xlink:title=" ">
<polygon fill="#ffffff" stroke="#000000" points="778.2168,-165.5 778.2168,-183.5 949.2998,-183.5 949.2998,-165.5 778.2168,-165.5"/>
<text text-anchor="middle" x="863.7583" y="-171.5" font-family="Helvetica,sans-Serif" font-size="10.00" fill="#000000">parallelization/parallelparameters.h</text>
</a>
</g>
</g>
<!-- Node9&#45;&gt;Node15 -->
<g id="edge24" class="edge">
<title>Node9&#45;&gt;Node15</title>
<path fill="none" stroke="#191970" d="M547.6425,-223.614C606.7545,-214.43 721.7886,-196.5574 795.5824,-185.0923"/>
<polygon fill="#191970" stroke="#191970" points="796.3671,-188.5125 805.7112,-183.5186 795.2924,-181.5955 796.3671,-188.5125"/>
</g>
<!-- Node12&#45;&gt;Node10 -->
<g id="edge20" class="edge">
<title>Node12&#45;&gt;Node10</title>
<path fill="none" stroke="#191970" d="M509.7583,-165.4179C509.7583,-158.2164 509.7583,-147.8962 509.7583,-138.8632"/>
<polygon fill="#191970" stroke="#191970" points="513.2584,-138.7794 509.7583,-128.7795 506.2584,-138.7795 513.2584,-138.7794"/>
</g>
<!-- Node13&#45;&gt;Node10 -->
<g id="edge23" class="edge">
<title>Node13&#45;&gt;Node10</title>
<path fill="none" stroke="#191970" d="M629.1448,-165.4179C605.0879,-156.1652 567.6457,-141.7644 541.114,-131.5599"/>
<polygon fill="#191970" stroke="#191970" points="542.1203,-128.197 531.5304,-127.8739 539.6074,-134.7304 542.1203,-128.197"/>
</g>
<!-- Node14 -->
<g id="node15" class="node">
<title>Node14</title>
<g id="a_node15"><a xlink:href="neighbourlist_8h.html" target="_top" xlink:title=" ">
<polygon fill="#ffffff" stroke="#000000" points="612.2363,-110.5 612.2363,-128.5 693.2803,-128.5 693.2803,-110.5 612.2363,-110.5"/>
<text text-anchor="middle" x="652.7583" y="-116.5" font-family="Helvetica,sans-Serif" font-size="10.00" fill="#000000">neighbourlist.h</text>
</a>
</g>
</g>
<!-- Node13&#45;&gt;Node14 -->
<g id="edge22" class="edge">
<title>Node13&#45;&gt;Node14</title>
<path fill="none" stroke="#191970" d="M652.7583,-165.4179C652.7583,-158.2164 652.7583,-147.8962 652.7583,-138.8632"/>
<polygon fill="#191970" stroke="#191970" points="656.2584,-138.7794 652.7583,-128.7795 649.2584,-138.7795 656.2584,-138.7794"/>
</g>
<!-- Node15&#45;&gt;Node11 -->
<g id="edge25" class="edge">
<title>Node15&#45;&gt;Node11</title>
<path fill="none" stroke="#191970" d="M854.3459,-165.4179C846.0624,-157.425 833.7974,-145.5903 823.7938,-135.9377"/>
<polygon fill="#191970" stroke="#191970" points="826.0017,-133.2045 816.3752,-128.7795 821.1411,-138.2419 826.0017,-133.2045"/>
</g>
</g>
</svg>
