<?xml version="1.0" encoding="UTF-8" standalone="no"?>
<!DOCTYPE svg PUBLIC "-//W3C//DTD SVG 1.1//EN"
 "http://www.w3.org/Graphics/SVG/1.1/DTD/svg11.dtd">
<!-- Generated by graphviz version 2.40.1 (20161225.0304)
 -->
<!-- Title: GluonicLQCD/actions/wilsongaugeaction.cpp Pages: 1 -->
<svg width="804pt" height="422pt"
 viewBox="0.00 0.00 803.70 422.00" xmlns="http://www.w3.org/2000/svg" xmlns:xlink="http://www.w3.org/1999/xlink">
<g id="graph0" class="graph" transform="scale(1 1) rotate(0) translate(4 418)">
<title>GluonicLQCD/actions/wilsongaugeaction.cpp</title>
<polygon fill="#ffffff" stroke="transparent" points="-4,4 -4,-418 799.7017,-418 799.7017,4 -4,4"/>
<!-- Node0 -->
<g id="node1" class="node">
<title>Node0</title>
<g id="a_node1"><a xlink:title=" ">
<polygon fill="#bfbfbf" stroke="#000000" points="484.5322,-385.5 484.5322,-413.5 604.4922,-413.5 604.4922,-385.5 484.5322,-385.5"/>
<text text-anchor="start" x="492.5322" y="-401.5" font-family="Helvetica,sans-Serif" font-size="10.00" fill="#000000">GluonicLQCD/actions</text>
<text text-anchor="middle" x="544.5122" y="-391.5" font-family="Helvetica,sans-Serif" font-size="10.00" fill="#000000">/wilsongaugeaction.cpp</text>
</a>
</g>
</g>
<!-- Node1 -->
<g id="node2" class="node">
<title>Node1</title>
<g id="a_node2"><a xlink:href="wilsongaugeaction_8h.html" target="_top" xlink:title=" ">
<polygon fill="#ffffff" stroke="#000000" points="551.2021,-330.5 551.2021,-348.5 657.8223,-348.5 657.8223,-330.5 551.2021,-330.5"/>
<text text-anchor="middle" x="604.5122" y="-336.5" font-family="Helvetica,sans-Serif" font-size="10.00" fill="#000000">wilsongaugeaction.h</text>
</a>
</g>
</g>
<!-- Node0&#45;&gt;Node1 -->
<g id="edge1" class="edge">
<title>Node0&#45;&gt;Node1</title>
<path fill="none" stroke="#191970" d="M558.7314,-385.2808C567.6114,-376.4008 579.0703,-364.9419 588.3024,-355.7098"/>
<polygon fill="#191970" stroke="#191970" points="590.8318,-358.1302 595.428,-348.5842 585.882,-353.1804 590.8318,-358.1302"/>
</g>
<!-- Node10 -->
<g id="node11" class="node">
<title>Node10</title>
<g id="a_node11"><a xlink:href="functions_8h.html" target="_top" xlink:title=" ">
<polygon fill="#ffffff" stroke="#000000" points="77.3301,-165.5 77.3301,-183.5 141.6943,-183.5 141.6943,-165.5 77.3301,-165.5"/>
<text text-anchor="middle" x="109.5122" y="-171.5" font-family="Helvetica,sans-Serif" font-size="10.00" fill="#000000">functions.h</text>
</a>
</g>
</g>
<!-- Node0&#45;&gt;Node10 -->
<g id="edge24" class="edge">
<title>Node0&#45;&gt;Node10</title>
<path fill="none" stroke="#191970" d="M517.301,-385.4252C438.996,-344.9227 213.7574,-228.4199 136.1609,-188.2838"/>
<polygon fill="#191970" stroke="#191970" points="137.528,-185.0505 127.0378,-183.565 134.312,-191.268 137.528,-185.0505"/>
</g>
<!-- Node15 -->
<g id="node16" class="node">
<title>Node15</title>
<g id="a_node16"><a xlink:href="parameters_8h.html" target="_top" xlink:title=" ">
<polygon fill="#ffffff" stroke="#000000" points="691.3228,-330.5 691.3228,-348.5 795.7017,-348.5 795.7017,-330.5 691.3228,-330.5"/>
<text text-anchor="middle" x="743.5122" y="-336.5" font-family="Helvetica,sans-Serif" font-size="10.00" fill="#000000">config/parameters.h</text>
</a>
</g>
</g>
<!-- Node0&#45;&gt;Node15 -->
<g id="edge21" class="edge">
<title>Node0&#45;&gt;Node15</title>
<path fill="none" stroke="#191970" d="M591.1689,-385.4327C625.421,-375.1054 671.4426,-361.2295 703.9107,-351.4402"/>
<polygon fill="#191970" stroke="#191970" points="704.9599,-354.7795 713.5238,-348.5417 702.9392,-348.0775 704.9599,-354.7795"/>
</g>
<!-- Node17 -->
<g id="node18" class="node">
<title>Node17</title>
<g id="a_node18"><a xlink:href="communicator_8h.html" target="_top" xlink:title=" ">
<polygon fill="#ffffff" stroke="#000000" points="420.2539,-275.5 420.2539,-293.5 570.7705,-293.5 570.7705,-275.5 420.2539,-275.5"/>
<text text-anchor="middle" x="495.5122" y="-281.5" font-family="Helvetica,sans-Serif" font-size="10.00" fill="#000000">parallelization/communicator.h</text>
</a>
</g>
</g>
<!-- Node0&#45;&gt;Node17 -->
<g id="edge25" class="edge">
<title>Node0&#45;&gt;Node17</title>
<path fill="none" stroke="#191970" d="M538.5038,-385.3987C529.6836,-364.6982 513.2188,-326.0564 503.424,-303.0684"/>
<polygon fill="#191970" stroke="#191970" points="506.5842,-301.5564 499.4444,-293.7286 500.1444,-304.3003 506.5842,-301.5564"/>
</g>
<!-- Node2 -->
<g id="node3" class="node">
<title>Node2</title>
<g id="a_node3"><a xlink:href="action_8h.html" target="_top" xlink:title=" ">
<polygon fill="#ffffff" stroke="#000000" points="589,-275.5 589,-293.5 640.0244,-293.5 640.0244,-275.5 589,-275.5"/>
<text text-anchor="middle" x="614.5122" y="-281.5" font-family="Helvetica,sans-Serif" font-size="10.00" fill="#000000">action.h</text>
</a>
</g>
</g>
<!-- Node1&#45;&gt;Node2 -->
<g id="edge2" class="edge">
<title>Node1&#45;&gt;Node2</title>
<path fill="none" stroke="#191970" d="M606.1635,-330.4179C607.4729,-323.2164 609.3493,-312.8962 610.9916,-303.8632"/>
<polygon fill="#191970" stroke="#191970" points="614.4796,-304.2443 612.825,-293.7795 607.5926,-302.992 614.4796,-304.2443"/>
</g>
<!-- Node3 -->
<g id="node4" class="node">
<title>Node3</title>
<g id="a_node4"><a xlink:href="lattice_8h.html" target="_top" xlink:title=" ">
<polygon fill="#ffffff" stroke="#000000" points="421.7759,-220.5 421.7759,-238.5 497.2485,-238.5 497.2485,-220.5 421.7759,-220.5"/>
<text text-anchor="middle" x="459.5122" y="-226.5" font-family="Helvetica,sans-Serif" font-size="10.00" fill="#000000">math/lattice.h</text>
</a>
</g>
</g>
<!-- Node2&#45;&gt;Node3 -->
<g id="edge3" class="edge">
<title>Node2&#45;&gt;Node3</title>
<path fill="none" stroke="#191970" d="M588.9171,-275.4179C563.1501,-266.2748 523.2161,-252.1046 494.5254,-241.924"/>
<polygon fill="#191970" stroke="#191970" points="495.4824,-238.5499 484.8877,-238.5042 493.1415,-245.1469 495.4824,-238.5499"/>
</g>
<!-- Node4 -->
<g id="node5" class="node">
<title>Node4</title>
<g id="a_node5"><a xlink:title=" ">
<polygon fill="#ffffff" stroke="#bfbfbf" points="679.8965,-110.5 679.8965,-128.5 723.1279,-128.5 723.1279,-110.5 679.8965,-110.5"/>
<text text-anchor="middle" x="701.5122" y="-116.5" font-family="Helvetica,sans-Serif" font-size="10.00" fill="#000000">vector</text>
</a>
</g>
</g>
<!-- Node2&#45;&gt;Node4 -->
<g id="edge20" class="edge">
<title>Node2&#45;&gt;Node4</title>
<path fill="none" stroke="#191970" d="M640.1714,-278.3959C672.0206,-270.2394 723.5002,-254.9524 734.5122,-239 753.1962,-211.9337 744.6624,-196.2834 734.5122,-165 731.07,-154.3911 724.1234,-144.1855 717.4878,-136.1379"/>
<polygon fill="#191970" stroke="#191970" points="720.0847,-133.791 710.8452,-128.606 714.8347,-138.4211 720.0847,-133.791"/>
</g>
<!-- Node3&#45;&gt;Node4 -->
<g id="edge4" class="edge">
<title>Node3&#45;&gt;Node4</title>
<path fill="none" stroke="#191970" d="M497.513,-224.6932C548.972,-217.5746 637.3962,-202.9985 663.5122,-184 679.0736,-172.6796 689.346,-152.878 695.2418,-138.1925"/>
<polygon fill="#191970" stroke="#191970" points="698.6037,-139.1913 698.7745,-128.5978 692.0349,-136.7726 698.6037,-139.1913"/>
</g>
<!-- Node5 -->
<g id="node6" class="node">
<title>Node5</title>
<g id="a_node6"><a xlink:title=" ">
<polygon fill="#ffffff" stroke="#bfbfbf" points="250.2856,-110.5 250.2856,-128.5 290.7388,-128.5 290.7388,-110.5 250.2856,-110.5"/>
<text text-anchor="middle" x="270.5122" y="-116.5" font-family="Helvetica,sans-Serif" font-size="10.00" fill="#000000">mpi.h</text>
</a>
</g>
</g>
<!-- Node3&#45;&gt;Node5 -->
<g id="edge5" class="edge">
<title>Node3&#45;&gt;Node5</title>
<path fill="none" stroke="#191970" d="M421.6076,-223.7801C347.9387,-212.5769 192.2726,-188.4444 188.5122,-184 168.9824,-160.9178 209.7903,-140.5124 240.5497,-129.1077"/>
<polygon fill="#191970" stroke="#191970" points="241.8353,-132.3655 250.0942,-125.7291 239.4995,-125.7667 241.8353,-132.3655"/>
</g>
<!-- Node6 -->
<g id="node7" class="node">
<title>Node6</title>
<g id="a_node7"><a xlink:href="index_8h.html" target="_top" xlink:title=" ">
<polygon fill="#ffffff" stroke="#000000" points="542.4263,-165.5 542.4263,-183.5 654.5981,-183.5 654.5981,-165.5 542.4263,-165.5"/>
<text text-anchor="middle" x="598.5122" y="-171.5" font-family="Helvetica,sans-Serif" font-size="10.00" fill="#000000">parallelization/index.h</text>
</a>
</g>
</g>
<!-- Node3&#45;&gt;Node6 -->
<g id="edge6" class="edge">
<title>Node3&#45;&gt;Node6</title>
<path fill="none" stroke="#191970" d="M482.4652,-220.4179C505.3022,-211.3817 540.5485,-197.4353 566.2067,-187.2828"/>
<polygon fill="#191970" stroke="#191970" points="567.5143,-190.5295 575.5251,-183.5956 564.9388,-184.0205 567.5143,-190.5295"/>
</g>
<!-- Node7 -->
<g id="node8" class="node">
<title>Node7</title>
<g id="a_node8"><a xlink:href="neighbours_8h.html" target="_top" xlink:title=" ">
<polygon fill="#ffffff" stroke="#000000" points="386.6382,-165.5 386.6382,-183.5 524.3862,-183.5 524.3862,-165.5 386.6382,-165.5"/>
<text text-anchor="middle" x="455.5122" y="-171.5" font-family="Helvetica,sans-Serif" font-size="10.00" fill="#000000">parallelization/neighbours.h</text>
</a>
</g>
</g>
<!-- Node3&#45;&gt;Node7 -->
<g id="edge8" class="edge">
<title>Node3&#45;&gt;Node7</title>
<path fill="none" stroke="#191970" d="M458.8517,-220.4179C458.3279,-213.2164 457.5774,-202.8962 456.9204,-193.8632"/>
<polygon fill="#191970" stroke="#191970" points="460.4033,-193.4992 456.1871,-183.7795 453.4217,-194.007 460.4033,-193.4992"/>
</g>
<!-- Node9 -->
<g id="node10" class="node">
<title>Node9</title>
<g id="a_node10"><a xlink:href="parallelparameters_8h.html" target="_top" xlink:title=" ">
<polygon fill="#ffffff" stroke="#000000" points="197.9707,-165.5 197.9707,-183.5 369.0537,-183.5 369.0537,-165.5 197.9707,-165.5"/>
<text text-anchor="middle" x="283.5122" y="-171.5" font-family="Helvetica,sans-Serif" font-size="10.00" fill="#000000">parallelization/parallelparameters.h</text>
</a>
</g>
</g>
<!-- Node3&#45;&gt;Node9 -->
<g id="edge11" class="edge">
<title>Node3&#45;&gt;Node9</title>
<path fill="none" stroke="#191970" d="M430.4494,-220.4179C400.8081,-211.155 354.6561,-196.7325 321.9954,-186.526"/>
<polygon fill="#191970" stroke="#191970" points="322.9145,-183.1463 312.3257,-183.5042 320.8265,-189.8277 322.9145,-183.1463"/>
</g>
<!-- Node3&#45;&gt;Node10 -->
<g id="edge13" class="edge">
<title>Node3&#45;&gt;Node10</title>
<path fill="none" stroke="#191970" d="M421.7415,-224.1126C352.1113,-214.1367 206.0165,-192.9876 155.5122,-184 154.4284,-183.8071 153.3309,-183.6082 152.2243,-183.4043"/>
<polygon fill="#191970" stroke="#191970" points="152.6179,-179.9161 142.1375,-181.4692 151.2989,-186.7907 152.6179,-179.9161"/>
</g>
<!-- Node6&#45;&gt;Node4 -->
<g id="edge7" class="edge">
<title>Node6&#45;&gt;Node4</title>
<path fill="none" stroke="#191970" d="M615.5206,-165.4179C631.8465,-156.7001 656.7312,-143.4122 675.5376,-133.3699"/>
<polygon fill="#191970" stroke="#191970" points="677.306,-136.3934 684.4786,-128.5956 674.0088,-130.2186 677.306,-136.3934"/>
</g>
<!-- Node7&#45;&gt;Node4 -->
<g id="edge10" class="edge">
<title>Node7&#45;&gt;Node4</title>
<path fill="none" stroke="#191970" d="M495.8586,-165.4795C544.5684,-154.5891 625.4655,-136.5023 669.8912,-126.5697"/>
<polygon fill="#191970" stroke="#191970" points="670.8419,-129.9437 679.8372,-124.346 669.3145,-123.1123 670.8419,-129.9437"/>
</g>
<!-- Node8 -->
<g id="node9" class="node">
<title>Node8</title>
<g id="a_node9"><a xlink:href="neighbourlist_8h.html" target="_top" xlink:title=" ">
<polygon fill="#ffffff" stroke="#000000" points="414.9902,-110.5 414.9902,-128.5 496.0342,-128.5 496.0342,-110.5 414.9902,-110.5"/>
<text text-anchor="middle" x="455.5122" y="-116.5" font-family="Helvetica,sans-Serif" font-size="10.00" fill="#000000">neighbourlist.h</text>
</a>
</g>
</g>
<!-- Node7&#45;&gt;Node8 -->
<g id="edge9" class="edge">
<title>Node7&#45;&gt;Node8</title>
<path fill="none" stroke="#191970" d="M455.5122,-165.4179C455.5122,-158.2164 455.5122,-147.8962 455.5122,-138.8632"/>
<polygon fill="#191970" stroke="#191970" points="459.0123,-138.7794 455.5122,-128.7795 452.0123,-138.7795 459.0123,-138.7794"/>
</g>
<!-- Node9&#45;&gt;Node5 -->
<g id="edge12" class="edge">
<title>Node9&#45;&gt;Node5</title>
<path fill="none" stroke="#191970" d="M281.3655,-165.4179C279.6446,-158.1372 277.1703,-147.669 275.0187,-138.5659"/>
<polygon fill="#191970" stroke="#191970" points="278.412,-137.7062 272.7055,-128.7795 271.5997,-139.3164 278.412,-137.7062"/>
</g>
<!-- Node11 -->
<g id="node12" class="node">
<title>Node11</title>
<g id="a_node12"><a xlink:href="su3_8h.html" target="_top" xlink:title=" ">
<polygon fill="#ffffff" stroke="#000000" points="0,-110.5 0,-128.5 81.0244,-128.5 81.0244,-110.5 0,-110.5"/>
<text text-anchor="middle" x="40.5122" y="-116.5" font-family="Helvetica,sans-Serif" font-size="10.00" fill="#000000">matrices/su3.h</text>
</a>
</g>
</g>
<!-- Node10&#45;&gt;Node11 -->
<g id="edge14" class="edge">
<title>Node10&#45;&gt;Node11</title>
<path fill="none" stroke="#191970" d="M98.1183,-165.4179C87.793,-157.1876 72.3575,-144.8839 60.0625,-135.0836"/>
<polygon fill="#191970" stroke="#191970" points="62.1551,-132.2757 52.1537,-128.7795 57.7919,-137.7495 62.1551,-132.2757"/>
</g>
<!-- Node12 -->
<g id="node13" class="node">
<title>Node12</title>
<g id="a_node13"><a xlink:href="complex_8h.html" target="_top" xlink:title=" ">
<polygon fill="#ffffff" stroke="#000000" points="66.2192,-55.5 66.2192,-73.5 152.8052,-73.5 152.8052,-55.5 66.2192,-55.5"/>
<text text-anchor="middle" x="109.5122" y="-61.5" font-family="Helvetica,sans-Serif" font-size="10.00" fill="#000000">math/complex.h</text>
</a>
</g>
</g>
<!-- Node10&#45;&gt;Node12 -->
<g id="edge19" class="edge">
<title>Node10&#45;&gt;Node12</title>
<path fill="none" stroke="#191970" d="M109.5122,-165.4982C109.5122,-147.6913 109.5122,-107.6225 109.5122,-83.6515"/>
<polygon fill="#191970" stroke="#191970" points="113.0123,-83.6261 109.5122,-73.6261 106.0123,-83.6262 113.0123,-83.6261"/>
</g>
<!-- Node14 -->
<g id="node15" class="node">
<title>Node14</title>
<g id="a_node15"><a xlink:href="su2_8h.html" target="_top" xlink:title=" ">
<polygon fill="#ffffff" stroke="#000000" points="138,-110.5 138,-128.5 219.0244,-128.5 219.0244,-110.5 138,-110.5"/>
<text text-anchor="middle" x="178.5122" y="-116.5" font-family="Helvetica,sans-Serif" font-size="10.00" fill="#000000">matrices/su2.h</text>
</a>
</g>
</g>
<!-- Node10&#45;&gt;Node14 -->
<g id="edge17" class="edge">
<title>Node10&#45;&gt;Node14</title>
<path fill="none" stroke="#191970" d="M120.9062,-165.4179C131.2314,-157.1876 146.667,-144.8839 158.9619,-135.0836"/>
<polygon fill="#191970" stroke="#191970" points="161.2326,-137.7495 166.8707,-128.7795 156.8693,-132.2757 161.2326,-137.7495"/>
</g>
<!-- Node11&#45;&gt;Node12 -->
<g id="edge15" class="edge">
<title>Node11&#45;&gt;Node12</title>
<path fill="none" stroke="#191970" d="M51.9062,-110.4179C62.2314,-102.1876 77.667,-89.8839 89.9619,-80.0836"/>
<polygon fill="#191970" stroke="#191970" points="92.2326,-82.7495 97.8707,-73.7795 87.8693,-77.2757 92.2326,-82.7495"/>
</g>
<!-- Node13 -->
<g id="node14" class="node">
<title>Node13</title>
<g id="a_node14"><a xlink:title=" ">
<polygon fill="#ffffff" stroke="#bfbfbf" points="82.3398,-.5 82.3398,-18.5 136.6846,-18.5 136.6846,-.5 82.3398,-.5"/>
<text text-anchor="middle" x="109.5122" y="-6.5" font-family="Helvetica,sans-Serif" font-size="10.00" fill="#000000">iostream</text>
</a>
</g>
</g>
<!-- Node12&#45;&gt;Node13 -->
<g id="edge16" class="edge">
<title>Node12&#45;&gt;Node13</title>
<path fill="none" stroke="#191970" d="M109.5122,-55.4179C109.5122,-48.2164 109.5122,-37.8962 109.5122,-28.8632"/>
<polygon fill="#191970" stroke="#191970" points="113.0123,-28.7794 109.5122,-18.7795 106.0123,-28.7795 113.0123,-28.7794"/>
</g>
<!-- Node14&#45;&gt;Node12 -->
<g id="edge18" class="edge">
<title>Node14&#45;&gt;Node12</title>
<path fill="none" stroke="#191970" d="M167.1183,-110.4179C156.793,-102.1876 141.3575,-89.8839 129.0625,-80.0836"/>
<polygon fill="#191970" stroke="#191970" points="131.1551,-77.2757 121.1537,-73.7795 126.7919,-82.7495 131.1551,-77.2757"/>
</g>
<!-- Node15&#45;&gt;Node4 -->
<g id="edge23" class="edge">
<title>Node15&#45;&gt;Node4</title>
<path fill="none" stroke="#191970" d="M751.7318,-330.182C758.7998,-321.5014 768.474,-307.849 772.5122,-294 783.591,-256.0049 787.2277,-228.7667 751.5122,-165 744.7911,-153.0001 733.746,-142.452 723.744,-134.5411"/>
<polygon fill="#191970" stroke="#191970" points="725.8131,-131.7181 715.7054,-128.5422 721.6265,-137.3281 725.8131,-131.7181"/>
</g>
<!-- Node16 -->
<g id="node17" class="node">
<title>Node16</title>
<g id="a_node17"><a xlink:title=" ">
<polygon fill="#ffffff" stroke="#bfbfbf" points="723.2856,-275.5 723.2856,-293.5 763.7388,-293.5 763.7388,-275.5 723.2856,-275.5"/>
<text text-anchor="middle" x="743.5122" y="-281.5" font-family="Helvetica,sans-Serif" font-size="10.00" fill="#000000">string</text>
</a>
</g>
</g>
<!-- Node15&#45;&gt;Node16 -->
<g id="edge22" class="edge">
<title>Node15&#45;&gt;Node16</title>
<path fill="none" stroke="#191970" d="M743.5122,-330.4179C743.5122,-323.2164 743.5122,-312.8962 743.5122,-303.8632"/>
<polygon fill="#191970" stroke="#191970" points="747.0123,-303.7794 743.5122,-293.7795 740.0123,-303.7795 747.0123,-303.7794"/>
</g>
<!-- Node17&#45;&gt;Node3 -->
<g id="edge27" class="edge">
<title>Node17&#45;&gt;Node3</title>
<path fill="none" stroke="#191970" d="M489.5675,-275.4179C484.5948,-267.8207 477.3503,-256.7527 471.2198,-247.3866"/>
<polygon fill="#191970" stroke="#191970" points="473.9911,-245.2297 465.586,-238.7795 468.1342,-249.0633 473.9911,-245.2297"/>
</g>
<!-- Node17&#45;&gt;Node4 -->
<g id="edge26" class="edge">
<title>Node17&#45;&gt;Node4</title>
<path fill="none" stroke="#191970" d="M530.6859,-275.47C573.795,-262.5465 645.9721,-234.5588 685.5122,-184 695.5071,-171.2199 699.3492,-153.0176 700.7823,-139.2066"/>
<polygon fill="#191970" stroke="#191970" points="704.3,-139.0721 701.5017,-128.8535 697.3168,-138.5868 704.3,-139.0721"/>
</g>
</g>
</svg>
