<?xml version="1.0" encoding="UTF-8" standalone="no"?>
<!DOCTYPE svg PUBLIC "-//W3C//DTD SVG 1.1//EN"
 "http://www.w3.org/Graphics/SVG/1.1/DTD/svg11.dtd">
<!-- Generated by graphviz version 2.40.1 (20161225.0304)
 -->
<!-- Title: GLAC/actions/wilsongaugeaction.h Pages: 1 -->
<svg width="713pt" height="357pt"
 viewBox="0.00 0.00 713.06 357.00" xmlns="http://www.w3.org/2000/svg" xmlns:xlink="http://www.w3.org/1999/xlink">
<g id="graph0" class="graph" transform="scale(1 1) rotate(0) translate(4 353)">
<title>GLAC/actions/wilsongaugeaction.h</title>
<polygon fill="#ffffff" stroke="transparent" points="-4,4 -4,-353 709.0586,-353 709.0586,4 -4,4"/>
<!-- Node0 -->
<g id="node1" class="node">
<title>Node0</title>
<g id="a_node1"><a xlink:title=" ">
<polygon fill="#bfbfbf" stroke="#000000" points="0,-330.5 0,-348.5 171.0928,-348.5 171.0928,-330.5 0,-330.5"/>
<text text-anchor="middle" x="85.5464" y="-336.5" font-family="Helvetica,sans-Serif" font-size="10.00" fill="#000000">GLAC/actions/wilsongaugeaction.h</text>
</a>
</g>
</g>
<!-- Node1 -->
<g id="node2" class="node">
<title>Node1</title>
<g id="a_node2"><a xlink:href="action_8h.html" target="_top" xlink:title=" ">
<polygon fill="#ffffff" stroke="#000000" points="60.0342,-275.5 60.0342,-293.5 111.0586,-293.5 111.0586,-275.5 60.0342,-275.5"/>
<text text-anchor="middle" x="85.5464" y="-281.5" font-family="Helvetica,sans-Serif" font-size="10.00" fill="#000000">action.h</text>
</a>
</g>
</g>
<!-- Node0&#45;&gt;Node1 -->
<g id="edge1" class="edge">
<title>Node0&#45;&gt;Node1</title>
<path fill="none" stroke="#191970" d="M85.5464,-330.4179C85.5464,-323.2164 85.5464,-312.8962 85.5464,-303.8632"/>
<polygon fill="#191970" stroke="#191970" points="89.0465,-303.7794 85.5464,-293.7795 82.0465,-303.7795 89.0465,-303.7794"/>
</g>
<!-- Node2 -->
<g id="node3" class="node">
<title>Node2</title>
<g id="a_node3"><a xlink:href="lattice_8h.html" target="_top" xlink:title=" ">
<polygon fill="#ffffff" stroke="#000000" points="180.8101,-220.5 180.8101,-238.5 256.2827,-238.5 256.2827,-220.5 180.8101,-220.5"/>
<text text-anchor="middle" x="218.5464" y="-226.5" font-family="Helvetica,sans-Serif" font-size="10.00" fill="#000000">math/lattice.h</text>
</a>
</g>
</g>
<!-- Node1&#45;&gt;Node2 -->
<g id="edge2" class="edge">
<title>Node1&#45;&gt;Node2</title>
<path fill="none" stroke="#191970" d="M107.5086,-275.4179C129.2636,-266.4215 162.7878,-252.5581 187.3103,-242.4172"/>
<polygon fill="#191970" stroke="#191970" points="188.648,-245.6515 196.5515,-238.5956 185.973,-239.1828 188.648,-245.6515"/>
</g>
<!-- Node3 -->
<g id="node4" class="node">
<title>Node3</title>
<g id="a_node4"><a xlink:title=" ">
<polygon fill="#ffffff" stroke="#bfbfbf" points="11.9307,-110.5 11.9307,-128.5 55.1621,-128.5 55.1621,-110.5 11.9307,-110.5"/>
<text text-anchor="middle" x="33.5464" y="-116.5" font-family="Helvetica,sans-Serif" font-size="10.00" fill="#000000">vector</text>
</a>
</g>
</g>
<!-- Node1&#45;&gt;Node3 -->
<g id="edge19" class="edge">
<title>Node1&#45;&gt;Node3</title>
<path fill="none" stroke="#191970" d="M74.1357,-275.4681C54.9557,-259.468 16.9405,-224.0334 2.5464,-184 -3.4537,-167.3124 6.8739,-149.1823 17.1873,-136.4059"/>
<polygon fill="#191970" stroke="#191970" points="19.8442,-138.6845 23.7908,-128.8521 14.5741,-134.0773 19.8442,-138.6845"/>
</g>
<!-- Node2&#45;&gt;Node3 -->
<g id="edge3" class="edge">
<title>Node2&#45;&gt;Node3</title>
<path fill="none" stroke="#191970" d="M180.401,-226.743C126.2888,-221.9487 31.4643,-209.9883 10.5464,-184 -.4604,-170.3252 8.8814,-150.9674 18.7602,-137.0317"/>
<polygon fill="#191970" stroke="#191970" points="21.793,-138.8297 25.121,-128.7711 16.2468,-134.559 21.793,-138.8297"/>
</g>
<!-- Node4 -->
<g id="node5" class="node">
<title>Node4</title>
<g id="a_node5"><a xlink:title=" ">
<polygon fill="#ffffff" stroke="#bfbfbf" points="352.3198,-110.5 352.3198,-128.5 392.7729,-128.5 392.7729,-110.5 352.3198,-110.5"/>
<text text-anchor="middle" x="372.5464" y="-116.5" font-family="Helvetica,sans-Serif" font-size="10.00" fill="#000000">mpi.h</text>
</a>
</g>
</g>
<!-- Node2&#45;&gt;Node4 -->
<g id="edge4" class="edge">
<title>Node2&#45;&gt;Node4</title>
<path fill="none" stroke="#191970" d="M236.1275,-220.3967C252.3014,-211.7567 276.7117,-198.0378 296.5464,-184 317.7616,-168.9851 340.242,-149.3881 355.2011,-135.7532"/>
<polygon fill="#191970" stroke="#191970" points="357.7007,-138.2093 362.6822,-128.8586 352.9568,-133.0619 357.7007,-138.2093"/>
</g>
<!-- Node5 -->
<g id="node6" class="node">
<title>Node5</title>
<g id="a_node6"><a xlink:href="index_8h.html" target="_top" xlink:title=" ">
<polygon fill="#ffffff" stroke="#000000" points="19.4604,-165.5 19.4604,-183.5 131.6323,-183.5 131.6323,-165.5 19.4604,-165.5"/>
<text text-anchor="middle" x="75.5464" y="-171.5" font-family="Helvetica,sans-Serif" font-size="10.00" fill="#000000">parallelization/index.h</text>
</a>
</g>
</g>
<!-- Node2&#45;&gt;Node5 -->
<g id="edge5" class="edge">
<title>Node2&#45;&gt;Node5</title>
<path fill="none" stroke="#191970" d="M194.9328,-220.4179C171.4387,-211.3817 135.1781,-197.4353 108.7816,-187.2828"/>
<polygon fill="#191970" stroke="#191970" points="109.7849,-183.9188 99.195,-183.5956 107.272,-190.4522 109.7849,-183.9188"/>
</g>
<!-- Node6 -->
<g id="node7" class="node">
<title>Node6</title>
<g id="a_node7"><a xlink:href="neighbours_8h.html" target="_top" xlink:title=" ">
<polygon fill="#ffffff" stroke="#000000" points="149.6724,-165.5 149.6724,-183.5 287.4204,-183.5 287.4204,-165.5 149.6724,-165.5"/>
<text text-anchor="middle" x="218.5464" y="-171.5" font-family="Helvetica,sans-Serif" font-size="10.00" fill="#000000">parallelization/neighbours.h</text>
</a>
</g>
</g>
<!-- Node2&#45;&gt;Node6 -->
<g id="edge7" class="edge">
<title>Node2&#45;&gt;Node6</title>
<path fill="none" stroke="#191970" d="M218.5464,-220.4179C218.5464,-213.2164 218.5464,-202.8962 218.5464,-193.8632"/>
<polygon fill="#191970" stroke="#191970" points="222.0465,-193.7794 218.5464,-183.7795 215.0465,-193.7795 222.0465,-193.7794"/>
</g>
<!-- Node8 -->
<g id="node9" class="node">
<title>Node8</title>
<g id="a_node9"><a xlink:href="parallelparameters_8h.html" target="_top" xlink:title=" ">
<polygon fill="#ffffff" stroke="#000000" points="344.0049,-165.5 344.0049,-183.5 515.0879,-183.5 515.0879,-165.5 344.0049,-165.5"/>
<text text-anchor="middle" x="429.5464" y="-171.5" font-family="Helvetica,sans-Serif" font-size="10.00" fill="#000000">parallelization/parallelparameters.h</text>
</a>
</g>
</g>
<!-- Node2&#45;&gt;Node8 -->
<g id="edge10" class="edge">
<title>Node2&#45;&gt;Node8</title>
<path fill="none" stroke="#191970" d="M253.3887,-220.4179C289.4607,-211.0152 345.9285,-196.2961 385.1712,-186.067"/>
<polygon fill="#191970" stroke="#191970" points="386.2091,-189.4135 395.003,-183.5042 384.4435,-182.6398 386.2091,-189.4135"/>
</g>
<!-- Node9 -->
<g id="node10" class="node">
<title>Node9</title>
<g id="a_node10"><a xlink:href="functions_8h.html" target="_top" xlink:title=" ">
<polygon fill="#ffffff" stroke="#000000" points="533.3643,-165.5 533.3643,-183.5 597.7285,-183.5 597.7285,-165.5 533.3643,-165.5"/>
<text text-anchor="middle" x="565.5464" y="-171.5" font-family="Helvetica,sans-Serif" font-size="10.00" fill="#000000">functions.h</text>
</a>
</g>
</g>
<!-- Node2&#45;&gt;Node9 -->
<g id="edge12" class="edge">
<title>Node2&#45;&gt;Node9</title>
<path fill="none" stroke="#191970" d="M256.3969,-224.8635C312.4961,-217.7756 421.213,-203.2136 522.8,-184.2195"/>
<polygon fill="#191970" stroke="#191970" points="523.746,-187.6028 532.9226,-182.3074 522.4467,-180.7244 523.746,-187.6028"/>
</g>
<!-- Node5&#45;&gt;Node3 -->
<g id="edge6" class="edge">
<title>Node5&#45;&gt;Node3</title>
<path fill="none" stroke="#191970" d="M68.6109,-165.4179C62.6886,-157.6624 54.0042,-146.29 46.76,-136.8035"/>
<polygon fill="#191970" stroke="#191970" points="49.4834,-134.6029 40.6325,-128.7795 43.92,-138.8514 49.4834,-134.6029"/>
</g>
<!-- Node6&#45;&gt;Node3 -->
<g id="edge9" class="edge">
<title>Node6&#45;&gt;Node3</title>
<path fill="none" stroke="#191970" d="M187.9974,-165.4179C154.0502,-155.3255 99.5004,-139.1079 65.1381,-128.8921"/>
<polygon fill="#191970" stroke="#191970" points="65.75,-125.4227 55.1672,-125.9278 63.7552,-132.1325 65.75,-125.4227"/>
</g>
<!-- Node7 -->
<g id="node8" class="node">
<title>Node7</title>
<g id="a_node8"><a xlink:href="neighbourlist_8h.html" target="_top" xlink:title=" ">
<polygon fill="#ffffff" stroke="#000000" points="178.0244,-110.5 178.0244,-128.5 259.0684,-128.5 259.0684,-110.5 178.0244,-110.5"/>
<text text-anchor="middle" x="218.5464" y="-116.5" font-family="Helvetica,sans-Serif" font-size="10.00" fill="#000000">neighbourlist.h</text>
</a>
</g>
</g>
<!-- Node6&#45;&gt;Node7 -->
<g id="edge8" class="edge">
<title>Node6&#45;&gt;Node7</title>
<path fill="none" stroke="#191970" d="M218.5464,-165.4179C218.5464,-158.2164 218.5464,-147.8962 218.5464,-138.8632"/>
<polygon fill="#191970" stroke="#191970" points="222.0465,-138.7794 218.5464,-128.7795 215.0465,-138.7795 222.0465,-138.7794"/>
</g>
<!-- Node8&#45;&gt;Node4 -->
<g id="edge11" class="edge">
<title>Node8&#45;&gt;Node4</title>
<path fill="none" stroke="#191970" d="M420.134,-165.4179C411.8505,-157.425 399.5855,-145.5903 389.5819,-135.9377"/>
<polygon fill="#191970" stroke="#191970" points="391.7898,-133.2045 382.1633,-128.7795 386.9292,-138.2419 391.7898,-133.2045"/>
</g>
<!-- Node10 -->
<g id="node11" class="node">
<title>Node10</title>
<g id="a_node11"><a xlink:href="su3_8h.html" target="_top" xlink:title=" ">
<polygon fill="#ffffff" stroke="#000000" points="525.0342,-110.5 525.0342,-128.5 606.0586,-128.5 606.0586,-110.5 525.0342,-110.5"/>
<text text-anchor="middle" x="565.5464" y="-116.5" font-family="Helvetica,sans-Serif" font-size="10.00" fill="#000000">matrices/su3.h</text>
</a>
</g>
</g>
<!-- Node9&#45;&gt;Node10 -->
<g id="edge13" class="edge">
<title>Node9&#45;&gt;Node10</title>
<path fill="none" stroke="#191970" d="M565.5464,-165.4179C565.5464,-158.2164 565.5464,-147.8962 565.5464,-138.8632"/>
<polygon fill="#191970" stroke="#191970" points="569.0465,-138.7794 565.5464,-128.7795 562.0465,-138.7795 569.0465,-138.7794"/>
</g>
<!-- Node11 -->
<g id="node12" class="node">
<title>Node11</title>
<g id="a_node12"><a xlink:href="complex_8h.html" target="_top" xlink:title=" ">
<polygon fill="#ffffff" stroke="#000000" points="522.2534,-55.5 522.2534,-73.5 608.8394,-73.5 608.8394,-55.5 522.2534,-55.5"/>
<text text-anchor="middle" x="565.5464" y="-61.5" font-family="Helvetica,sans-Serif" font-size="10.00" fill="#000000">math/complex.h</text>
</a>
</g>
</g>
<!-- Node9&#45;&gt;Node11 -->
<g id="edge18" class="edge">
<title>Node9&#45;&gt;Node11</title>
<path fill="none" stroke="#191970" d="M549.6227,-165.1981C537.7633,-157.2677 522.4748,-144.6725 515.5464,-129 507.1557,-110.0196 524.7337,-91.6442 541.3116,-79.3948"/>
<polygon fill="#191970" stroke="#191970" points="543.5021,-82.1358 549.7467,-73.5768 539.5276,-76.3735 543.5021,-82.1358"/>
</g>
<!-- Node13 -->
<g id="node14" class="node">
<title>Node13</title>
<g id="a_node14"><a xlink:href="su2_8h.html" target="_top" xlink:title=" ">
<polygon fill="#ffffff" stroke="#000000" points="624.0342,-110.5 624.0342,-128.5 705.0586,-128.5 705.0586,-110.5 624.0342,-110.5"/>
<text text-anchor="middle" x="664.5464" y="-116.5" font-family="Helvetica,sans-Serif" font-size="10.00" fill="#000000">matrices/su2.h</text>
</a>
</g>
</g>
<!-- Node9&#45;&gt;Node13 -->
<g id="edge16" class="edge">
<title>Node9&#45;&gt;Node13</title>
<path fill="none" stroke="#191970" d="M581.8942,-165.4179C597.5145,-156.7399 621.2862,-143.5334 639.3326,-133.5077"/>
<polygon fill="#191970" stroke="#191970" points="641.1324,-136.5117 648.1743,-128.5956 637.7329,-130.3925 641.1324,-136.5117"/>
</g>
<!-- Node10&#45;&gt;Node11 -->
<g id="edge14" class="edge">
<title>Node10&#45;&gt;Node11</title>
<path fill="none" stroke="#191970" d="M565.5464,-110.4179C565.5464,-103.2164 565.5464,-92.8962 565.5464,-83.8632"/>
<polygon fill="#191970" stroke="#191970" points="569.0465,-83.7794 565.5464,-73.7795 562.0465,-83.7795 569.0465,-83.7794"/>
</g>
<!-- Node12 -->
<g id="node13" class="node">
<title>Node12</title>
<g id="a_node13"><a xlink:title=" ">
<polygon fill="#ffffff" stroke="#bfbfbf" points="538.374,-.5 538.374,-18.5 592.7188,-18.5 592.7188,-.5 538.374,-.5"/>
<text text-anchor="middle" x="565.5464" y="-6.5" font-family="Helvetica,sans-Serif" font-size="10.00" fill="#000000">iostream</text>
</a>
</g>
</g>
<!-- Node11&#45;&gt;Node12 -->
<g id="edge15" class="edge">
<title>Node11&#45;&gt;Node12</title>
<path fill="none" stroke="#191970" d="M565.5464,-55.4179C565.5464,-48.2164 565.5464,-37.8962 565.5464,-28.8632"/>
<polygon fill="#191970" stroke="#191970" points="569.0465,-28.7794 565.5464,-18.7795 562.0465,-28.7795 569.0465,-28.7794"/>
</g>
<!-- Node13&#45;&gt;Node11 -->
<g id="edge17" class="edge">
<title>Node13&#45;&gt;Node11</title>
<path fill="none" stroke="#191970" d="M648.1986,-110.4179C632.5782,-101.7399 608.8066,-88.5334 590.7602,-78.5077"/>
<polygon fill="#191970" stroke="#191970" points="592.3599,-75.3925 581.9185,-73.5956 588.9603,-81.5117 592.3599,-75.3925"/>
</g>
</g>
</svg>
