<?xml version="1.0" encoding="UTF-8" standalone="no"?>
<!DOCTYPE svg PUBLIC "-//W3C//DTD SVG 1.1//EN"
 "http://www.w3.org/Graphics/SVG/1.1/DTD/svg11.dtd">
<!-- Generated by graphviz version 2.40.1 (20161225.0304)
 -->
<!-- Title: GluonicLQCD/actions/action.h Pages: 1 -->
<svg width="800pt" height="277pt"
 viewBox="0.00 0.00 799.56 277.00" xmlns="http://www.w3.org/2000/svg" xmlns:xlink="http://www.w3.org/1999/xlink">
<g id="graph0" class="graph" transform="scale(1 1) rotate(0) translate(4 273)">
<title>GluonicLQCD/actions/action.h</title>
<polygon fill="#ffffff" stroke="transparent" points="-4,4 -4,-273 795.5635,-273 795.5635,4 -4,4"/>
<!-- Node13 -->
<g id="node1" class="node">
<title>Node13</title>
<g id="a_node1"><a xlink:title=" ">
<polygon fill="#bfbfbf" stroke="#000000" points="201.9038,-240.5 201.9038,-268.5 314.0562,-268.5 314.0562,-240.5 201.9038,-240.5"/>
<text text-anchor="start" x="209.9038" y="-256.5" font-family="Helvetica,sans-Serif" font-size="10.00" fill="#000000">GluonicLQCD/actions</text>
<text text-anchor="middle" x="257.98" y="-246.5" font-family="Helvetica,sans-Serif" font-size="10.00" fill="#000000">/action.h</text>
</a>
</g>
</g>
<!-- Node14 -->
<g id="node2" class="node">
<title>Node14</title>
<g id="a_node2"><a xlink:href="action_8cpp.html" target="_top" xlink:title=" ">
<polygon fill="#ffffff" stroke="#000000" points="33.9038,-175.5 33.9038,-203.5 146.0562,-203.5 146.0562,-175.5 33.9038,-175.5"/>
<text text-anchor="start" x="41.9038" y="-191.5" font-family="Helvetica,sans-Serif" font-size="10.00" fill="#000000">GluonicLQCD/actions</text>
<text text-anchor="middle" x="89.98" y="-181.5" font-family="Helvetica,sans-Serif" font-size="10.00" fill="#000000">/action.cpp</text>
</a>
</g>
</g>
<!-- Node13&#45;&gt;Node14 -->
<g id="edge1" class="edge">
<title>Node13&#45;&gt;Node14</title>
<path fill="none" stroke="#191970" d="M211.926,-236.6815C184.9821,-226.2568 151.4435,-213.2805 126.3623,-203.5765"/>
<polygon fill="#191970" stroke="#191970" points="210.9372,-240.0517 221.5265,-240.396 213.4631,-233.5233 210.9372,-240.0517"/>
</g>
<!-- Node15 -->
<g id="node3" class="node">
<title>Node15</title>
<g id="a_node3"><a xlink:href="actions_8h.html" target="_top" xlink:title=" ">
<polygon fill="#ffffff" stroke="#000000" points="137.9038,-110.5 137.9038,-138.5 250.0562,-138.5 250.0562,-110.5 137.9038,-110.5"/>
<text text-anchor="start" x="145.9038" y="-126.5" font-family="Helvetica,sans-Serif" font-size="10.00" fill="#000000">GluonicLQCD/actions</text>
<text text-anchor="middle" x="193.98" y="-116.5" font-family="Helvetica,sans-Serif" font-size="10.00" fill="#000000">/actions.h</text>
</a>
</g>
</g>
<!-- Node13&#45;&gt;Node15 -->
<g id="edge2" class="edge">
<title>Node13&#45;&gt;Node15</title>
<path fill="none" stroke="#191970" d="M221.0308,-234.7188C209.93,-226.7623 199.0871,-216.4785 192.98,-204 182.7255,-183.0474 186.4459,-155.1122 190.159,-138.5449"/>
<polygon fill="#191970" stroke="#191970" points="219.2307,-237.7249 229.4959,-240.3472 223.1065,-231.8958 219.2307,-237.7249"/>
</g>
<!-- Node19 -->
<g id="node7" class="node">
<title>Node19</title>
<g id="a_node7"><a xlink:href="wilsongaugeaction_8h.html" target="_top" xlink:title=" ">
<polygon fill="#ffffff" stroke="#000000" points="201.9038,-175.5 201.9038,-203.5 314.0562,-203.5 314.0562,-175.5 201.9038,-175.5"/>
<text text-anchor="start" x="209.9038" y="-191.5" font-family="Helvetica,sans-Serif" font-size="10.00" fill="#000000">GluonicLQCD/actions</text>
<text text-anchor="middle" x="257.98" y="-181.5" font-family="Helvetica,sans-Serif" font-size="10.00" fill="#000000">/wilsongaugeaction.h</text>
</a>
</g>
</g>
<!-- Node13&#45;&gt;Node19 -->
<g id="edge6" class="edge">
<title>Node13&#45;&gt;Node19</title>
<path fill="none" stroke="#191970" d="M257.98,-230.1081C257.98,-221.1539 257.98,-211.3227 257.98,-203.5765"/>
<polygon fill="#191970" stroke="#191970" points="254.4801,-230.3959 257.98,-240.396 261.4801,-230.396 254.4801,-230.3959"/>
</g>
<!-- Node22 -->
<g id="node10" class="node">
<title>Node22</title>
<g id="a_node10"><a xlink:href="luscheraction_8h.html" target="_top" xlink:title=" ">
<polygon fill="#ffffff" stroke="#000000" points="331.9038,-175.5 331.9038,-203.5 444.0562,-203.5 444.0562,-175.5 331.9038,-175.5"/>
<text text-anchor="start" x="339.9038" y="-191.5" font-family="Helvetica,sans-Serif" font-size="10.00" fill="#000000">GluonicLQCD/actions</text>
<text text-anchor="middle" x="387.98" y="-181.5" font-family="Helvetica,sans-Serif" font-size="10.00" fill="#000000">/luscheraction.h</text>
</a>
</g>
</g>
<!-- Node13&#45;&gt;Node22 -->
<g id="edge10" class="edge">
<title>Node13&#45;&gt;Node22</title>
<path fill="none" stroke="#191970" d="M295.2734,-235.8533C315.8278,-225.5761 340.9297,-213.0252 359.827,-203.5765"/>
<polygon fill="#191970" stroke="#191970" points="293.5671,-232.7933 286.188,-240.396 296.6976,-239.0543 293.5671,-232.7933"/>
</g>
<!-- Node24 -->
<g id="node12" class="node">
<title>Node24</title>
<g id="a_node12"><a xlink:href="flow_8h.html" target="_top" xlink:title=" ">
<polygon fill="#ffffff" stroke="#000000" points="562.6772,-180.5 562.6772,-198.5 689.2827,-198.5 689.2827,-180.5 562.6772,-180.5"/>
<text text-anchor="middle" x="625.98" y="-186.5" font-family="Helvetica,sans-Serif" font-size="10.00" fill="#000000">GluonicLQCD/flow/flow.h</text>
</a>
</g>
</g>
<!-- Node13&#45;&gt;Node24 -->
<g id="edge14" class="edge">
<title>Node13&#45;&gt;Node24</title>
<path fill="none" stroke="#191970" d="M324.1302,-242.8159C396.0102,-230.1197 509.3184,-210.106 574.7397,-198.5506"/>
<polygon fill="#191970" stroke="#191970" points="323.5106,-239.371 314.2718,-244.5571 324.7282,-246.2643 323.5106,-239.371"/>
</g>
<!-- Node16 -->
<g id="node4" class="node">
<title>Node16</title>
<g id="a_node4"><a xlink:href="system_8h.html" target="_top" xlink:title=" ">
<polygon fill="#ffffff" stroke="#000000" points="349.7412,-55.5 349.7412,-73.5 470.2188,-73.5 470.2188,-55.5 349.7412,-55.5"/>
<text text-anchor="middle" x="409.98" y="-61.5" font-family="Helvetica,sans-Serif" font-size="10.00" fill="#000000">GluonicLQCD/system.h</text>
</a>
</g>
</g>
<!-- Node15&#45;&gt;Node16 -->
<g id="edge3" class="edge">
<title>Node15&#45;&gt;Node16</title>
<path fill="none" stroke="#191970" d="M254.5046,-107.6876C294.3566,-96.6176 344.9758,-82.5567 377.4298,-73.5417"/>
<polygon fill="#191970" stroke="#191970" points="253.3208,-104.3838 244.6224,-110.4327 255.1943,-111.1285 253.3208,-104.3838"/>
</g>
<!-- Node17 -->
<g id="node5" class="node">
<title>Node17</title>
<g id="a_node5"><a xlink:href="main_8cpp.html" target="_top" xlink:title=" ">
<polygon fill="#ffffff" stroke="#000000" points="277.458,-.5 277.458,-18.5 398.502,-18.5 398.502,-.5 277.458,-.5"/>
<text text-anchor="middle" x="337.98" y="-6.5" font-family="Helvetica,sans-Serif" font-size="10.00" fill="#000000">GluonicLQCD/main.cpp</text>
</a>
</g>
</g>
<!-- Node16&#45;&gt;Node17 -->
<g id="edge4" class="edge">
<title>Node16&#45;&gt;Node17</title>
<path fill="none" stroke="#191970" d="M389.8855,-49.15C377.1086,-39.3899 360.9862,-27.0742 350.1276,-18.7795"/>
<polygon fill="#191970" stroke="#191970" points="388.0193,-52.1288 398.0906,-55.4179 392.2686,-46.5661 388.0193,-52.1288"/>
</g>
<!-- Node18 -->
<g id="node6" class="node">
<title>Node18</title>
<g id="a_node6"><a xlink:href="system_8cpp.html" target="_top" xlink:title=" ">
<polygon fill="#ffffff" stroke="#000000" points="416.4604,-.5 416.4604,-18.5 547.4995,-18.5 547.4995,-.5 416.4604,-.5"/>
<text text-anchor="middle" x="481.98" y="-6.5" font-family="Helvetica,sans-Serif" font-size="10.00" fill="#000000">GluonicLQCD/system.cpp</text>
</a>
</g>
</g>
<!-- Node16&#45;&gt;Node18 -->
<g id="edge5" class="edge">
<title>Node16&#45;&gt;Node18</title>
<path fill="none" stroke="#191970" d="M430.0745,-49.15C442.8513,-39.3899 458.9738,-27.0742 469.8323,-18.7795"/>
<polygon fill="#191970" stroke="#191970" points="427.6914,-46.5661 421.8693,-55.4179 431.9407,-52.1288 427.6914,-46.5661"/>
</g>
<!-- Node19&#45;&gt;Node15 -->
<g id="edge7" class="edge">
<title>Node19&#45;&gt;Node15</title>
<path fill="none" stroke="#191970" d="M236.8346,-168.0243C227.2992,-158.3398 216.3051,-147.1739 207.8399,-138.5765"/>
<polygon fill="#191970" stroke="#191970" points="234.5829,-170.7259 244.0929,-175.396 239.5709,-165.8146 234.5829,-170.7259"/>
</g>
<!-- Node20 -->
<g id="node8" class="node">
<title>Node20</title>
<g id="a_node8"><a xlink:href="wilsongaugeaction_8cpp.html" target="_top" xlink:title=" ">
<polygon fill="#ffffff" stroke="#000000" points="0,-110.5 0,-138.5 119.96,-138.5 119.96,-110.5 0,-110.5"/>
<text text-anchor="start" x="8" y="-126.5" font-family="Helvetica,sans-Serif" font-size="10.00" fill="#000000">GluonicLQCD/actions</text>
<text text-anchor="middle" x="59.98" y="-116.5" font-family="Helvetica,sans-Serif" font-size="10.00" fill="#000000">/wilsongaugeaction.cpp</text>
</a>
</g>
</g>
<!-- Node19&#45;&gt;Node20 -->
<g id="edge8" class="edge">
<title>Node19&#45;&gt;Node20</title>
<path fill="none" stroke="#191970" d="M205.3662,-172.2278C173.3368,-161.7131 132.9377,-148.4508 102.8592,-138.5765"/>
<polygon fill="#191970" stroke="#191970" points="204.4241,-175.6022 215.0169,-175.396 206.6075,-168.9514 204.4241,-175.6022"/>
</g>
<!-- Node21 -->
<g id="node9" class="node">
<title>Node21</title>
<g id="a_node9"><a xlink:href="performancetests_8cpp.html" target="_top" xlink:title=" ">
<polygon fill="#ffffff" stroke="#000000" points="267.7192,-115.5 267.7192,-133.5 468.2407,-133.5 468.2407,-115.5 267.7192,-115.5"/>
<text text-anchor="middle" x="367.98" y="-121.5" font-family="Helvetica,sans-Serif" font-size="10.00" fill="#000000">GluonicLQCD/tests/performancetests.cpp</text>
</a>
</g>
</g>
<!-- Node19&#45;&gt;Node21 -->
<g id="edge9" class="edge">
<title>Node19&#45;&gt;Node21</title>
<path fill="none" stroke="#191970" d="M290.5804,-170.2361C311.098,-158.1121 336.6315,-143.0241 352.6235,-133.5743"/>
<polygon fill="#191970" stroke="#191970" points="288.6771,-167.2954 281.8483,-175.396 292.2382,-173.3219 288.6771,-167.2954"/>
</g>
<!-- Node22&#45;&gt;Node15 -->
<g id="edge11" class="edge">
<title>Node22&#45;&gt;Node15</title>
<path fill="none" stroke="#191970" d="M336.0228,-172.0917C304.7057,-161.5988 265.3368,-148.4082 235.9929,-138.5765"/>
<polygon fill="#191970" stroke="#191970" points="335.291,-175.5376 345.8849,-175.396 337.5149,-168.9003 335.291,-175.5376"/>
</g>
<!-- Node22&#45;&gt;Node21 -->
<g id="edge13" class="edge">
<title>Node22&#45;&gt;Node21</title>
<path fill="none" stroke="#191970" d="M380.6622,-165.7173C377.2234,-154.5412 373.3277,-141.88 370.7721,-133.5743"/>
<polygon fill="#191970" stroke="#191970" points="377.3541,-166.8675 383.6403,-175.396 384.0446,-164.8088 377.3541,-166.8675"/>
</g>
<!-- Node23 -->
<g id="node11" class="node">
<title>Node23</title>
<g id="a_node11"><a xlink:href="luscheraction_8cpp.html" target="_top" xlink:title=" ">
<polygon fill="#ffffff" stroke="#000000" points="485.9038,-110.5 485.9038,-138.5 598.0562,-138.5 598.0562,-110.5 485.9038,-110.5"/>
<text text-anchor="start" x="493.9038" y="-126.5" font-family="Helvetica,sans-Serif" font-size="10.00" fill="#000000">GluonicLQCD/actions</text>
<text text-anchor="middle" x="541.98" y="-116.5" font-family="Helvetica,sans-Serif" font-size="10.00" fill="#000000">/luscheraction.cpp</text>
</a>
</g>
</g>
<!-- Node22&#45;&gt;Node23 -->
<g id="edge12" class="edge">
<title>Node22&#45;&gt;Node23</title>
<path fill="none" stroke="#191970" d="M430.8474,-171.4066C455.4334,-161.0294 485.8401,-148.1954 508.6295,-138.5765"/>
<polygon fill="#191970" stroke="#191970" points="429.2476,-168.2828 421.3957,-175.396 431.9697,-174.7319 429.2476,-168.2828"/>
</g>
<!-- Node24&#45;&gt;Node16 -->
<g id="edge16" class="edge">
<title>Node24&#45;&gt;Node16</title>
<path fill="none" stroke="#191970" d="M626.7513,-170.2153C626.3764,-152.1823 622.8367,-125.7365 606.98,-110 587.8578,-91.0227 520.8396,-78.4447 470.2382,-71.4147"/>
<polygon fill="#191970" stroke="#191970" points="623.2495,-170.3847 626.6481,-180.4196 630.2492,-170.4555 623.2495,-170.3847"/>
</g>
<!-- Node25 -->
<g id="node13" class="node">
<title>Node25</title>
<g id="a_node13"><a xlink:href="flow_8cpp.html" target="_top" xlink:title=" ">
<polygon fill="#ffffff" stroke="#000000" points="654.3965,-115.5 654.3965,-133.5 791.5635,-133.5 791.5635,-115.5 654.3965,-115.5"/>
<text text-anchor="middle" x="722.98" y="-121.5" font-family="Helvetica,sans-Serif" font-size="10.00" fill="#000000">GluonicLQCD/flow/flow.cpp</text>
</a>
</g>
</g>
<!-- Node24&#45;&gt;Node25 -->
<g id="edge15" class="edge">
<title>Node24&#45;&gt;Node25</title>
<path fill="none" stroke="#191970" d="M648.0184,-174.732C666.8561,-162.1088 693.3694,-144.3421 709.2944,-133.6708"/>
<polygon fill="#191970" stroke="#191970" points="645.8264,-171.9877 639.4674,-180.462 649.7231,-177.8028 645.8264,-171.9877"/>
</g>
</g>
</svg>
