<?xml version="1.0" encoding="UTF-8" standalone="no"?>
<!DOCTYPE svg PUBLIC "-//W3C//DTD SVG 1.1//EN"
 "http://www.w3.org/Graphics/SVG/1.1/DTD/svg11.dtd">
<!-- Generated by graphviz version 2.40.1 (20161225.0304)
 -->
<!-- Title: ObservableStorer::gatherResults Pages: 1 -->
<svg width="292pt" height="37pt"
 viewBox="0.00 0.00 292.21 37.00" xmlns="http://www.w3.org/2000/svg" xmlns:xlink="http://www.w3.org/1999/xlink">
<g id="graph0" class="graph" transform="scale(1 1) rotate(0) translate(4 33)">
<title>ObservableStorer::gatherResults</title>
<polygon fill="#ffffff" stroke="transparent" points="-4,4 -4,-33 288.2061,-33 288.2061,4 -4,4"/>
<!-- Node4 -->
<g id="node1" class="node">
<title>Node4</title>
<g id="a_node1"><a xlink:title=" ">
<polygon fill="#bfbfbf" stroke="#000000" points="0,-.5 0,-28.5 128.2803,-28.5 128.2803,-.5 0,-.5"/>
<text text-anchor="start" x="8" y="-16.5" font-family="Helvetica,sans-Serif" font-size="10.00" fill="#000000">ObservableStorer::gather</text>
<text text-anchor="middle" x="64.1401" y="-6.5" font-family="Helvetica,sans-Serif" font-size="10.00" fill="#000000">Results</text>
</a>
</g>
</g>
<!-- Node5 -->
<g id="node2" class="node">
<title>Node5</title>
<g id="a_node2"><a xlink:href="class_parallel_1_1_communicator.html#a7b1f80fb49a0cc83f2031c3415174150" target="_top" xlink:title=" ">
<polygon fill="#ffffff" stroke="#000000" points="164.2803,-.5 164.2803,-28.5 284.2061,-28.5 284.2061,-.5 164.2803,-.5"/>
<text text-anchor="start" x="172.2803" y="-16.5" font-family="Helvetica,sans-Serif" font-size="10.00" fill="#000000">Parallel::Communicator</text>
<text text-anchor="middle" x="224.2432" y="-6.5" font-family="Helvetica,sans-Serif" font-size="10.00" fill="#000000">::getNumProc</text>
</a>
</g>
</g>
<!-- Node4&#45;&gt;Node5 -->
<g id="edge1" class="edge">
<title>Node4&#45;&gt;Node5</title>
<path fill="none" stroke="#191970" d="M128.3377,-14.5C136.7491,-14.5 145.4038,-14.5 153.9099,-14.5"/>
<polygon fill="#191970" stroke="#191970" points="154.1855,-18.0001 164.1854,-14.5 154.1854,-11.0001 154.1855,-18.0001"/>
</g>
</g>
</svg>
