<?xml version="1.0" encoding="UTF-8" standalone="no"?>
<!DOCTYPE svg PUBLIC "-//W3C//DTD SVG 1.1//EN"
 "http://www.w3.org/Graphics/SVG/1.1/DTD/svg11.dtd">
<!-- Generated by graphviz version 2.40.1 (20161225.0304)
 -->
<!-- Title: Lattice::identity Pages: 1 -->
<svg width="308pt" height="27pt"
 viewBox="0.00 0.00 307.53 27.00" xmlns="http://www.w3.org/2000/svg" xmlns:xlink="http://www.w3.org/1999/xlink">
<g id="graph0" class="graph" transform="scale(1 1) rotate(0) translate(4 23)">
<title>Lattice::identity</title>
<polygon fill="#ffffff" stroke="transparent" points="-4,4 -4,-23 303.5313,-23 303.5313,4 -4,4"/>
<!-- Node44 -->
<g id="node1" class="node">
<title>Node44</title>
<g id="a_node1"><a xlink:title=" ">
<polygon fill="#bfbfbf" stroke="#000000" points="216.8271,-.5 216.8271,-18.5 299.5313,-18.5 299.5313,-.5 216.8271,-.5"/>
<text text-anchor="middle" x="258.1792" y="-6.5" font-family="Helvetica,sans-Serif" font-size="10.00" fill="#000000">Lattice::identity</text>
</a>
</g>
</g>
<!-- Node45 -->
<g id="node2" class="node">
<title>Node45</title>
<g id="a_node2"><a xlink:href="class_system.html#a93c8a8258ac8f6382ec393bca1271011" target="_top" xlink:title=" ">
<polygon fill="#ffffff" stroke="#000000" points="73.6748,-.5 73.6748,-18.5 180.8271,-18.5 180.8271,-.5 73.6748,-.5"/>
<text text-anchor="middle" x="127.251" y="-6.5" font-family="Helvetica,sans-Serif" font-size="10.00" fill="#000000">System::latticeSetup</text>
</a>
</g>
</g>
<!-- Node44&#45;&gt;Node45 -->
<g id="edge1" class="edge">
<title>Node44&#45;&gt;Node45</title>
<path fill="none" stroke="#191970" d="M206.6355,-9.5C198.1759,-9.5 189.3912,-9.5 180.8823,-9.5"/>
<polygon fill="#191970" stroke="#191970" points="206.7527,-13.0001 216.7527,-9.5 206.7527,-6.0001 206.7527,-13.0001"/>
</g>
<!-- Node46 -->
<g id="node3" class="node">
<title>Node46</title>
<g id="a_node3"><a xlink:href="main_8cpp.html#a4e6f00a867970a9eedf47b88a27b9eea" target="_top" xlink:title=" ">
<polygon fill="#ffffff" stroke="#000000" points="0,-.5 0,-18.5 37.6748,-18.5 37.6748,-.5 0,-.5"/>
<text text-anchor="middle" x="18.8374" y="-6.5" font-family="Helvetica,sans-Serif" font-size="10.00" fill="#000000">main</text>
</a>
</g>
</g>
<!-- Node45&#45;&gt;Node46 -->
<g id="edge2" class="edge">
<title>Node45&#45;&gt;Node46</title>
<path fill="none" stroke="#191970" d="M63.2463,-9.5C54.0172,-9.5 45.18,-9.5 37.8534,-9.5"/>
<polygon fill="#191970" stroke="#191970" points="63.3618,-13.0001 73.3618,-9.5 63.3618,-6.0001 63.3618,-13.0001"/>
</g>
</g>
</svg>
