<?xml version="1.0" encoding="UTF-8" standalone="no"?>
<!DOCTYPE svg PUBLIC "-//W3C//DTD SVG 1.1//EN"
 "http://www.w3.org/Graphics/SVG/1.1/DTD/svg11.dtd">
<!-- Generated by graphviz version 2.40.1 (20161225.0304)
 -->
<!-- Title: nlohmann::basic_json::value Pages: 1 -->
<svg width="589pt" height="144pt"
 viewBox="0.00 0.00 589.16 144.00" xmlns="http://www.w3.org/2000/svg" xmlns:xlink="http://www.w3.org/1999/xlink">
<g id="graph0" class="graph" transform="scale(1 1) rotate(0) translate(4 140)">
<title>nlohmann::basic_json::value</title>
<polygon fill="#ffffff" stroke="transparent" points="-4,4 -4,-140 585.1553,-140 585.1553,4 -4,4"/>
<!-- Node563 -->
<g id="node1" class="node">
<title>Node563</title>
<g id="a_node1"><a xlink:title="overload for a default value of type const char*">
<polygon fill="#bfbfbf" stroke="#000000" points="0,-64.5 0,-92.5 112.7285,-92.5 112.7285,-64.5 0,-64.5"/>
<text text-anchor="start" x="8" y="-80.5" font-family="Helvetica,sans-Serif" font-size="10.00" fill="#000000">nlohmann::basic_json</text>
<text text-anchor="middle" x="56.3643" y="-70.5" font-family="Helvetica,sans-Serif" font-size="10.00" fill="#000000">::value</text>
</a>
</g>
</g>
<!-- Node564 -->
<g id="node2" class="node">
<title>Node564</title>
<g id="a_node2"><a xlink:href="classnlohmann_1_1basic__json.html#af9c51328fbe1da75eca750be3009917a" target="_top" xlink:title="access specified object element with default value">
<polygon fill="#ffffff" stroke="#000000" points="148.7285,-64.5 148.7285,-92.5 261.457,-92.5 261.457,-64.5 148.7285,-64.5"/>
<text text-anchor="start" x="156.7285" y="-80.5" font-family="Helvetica,sans-Serif" font-size="10.00" fill="#000000">nlohmann::basic_json</text>
<text text-anchor="middle" x="205.0928" y="-70.5" font-family="Helvetica,sans-Serif" font-size="10.00" fill="#000000">::value</text>
</a>
</g>
</g>
<!-- Node563&#45;&gt;Node564 -->
<g id="edge1" class="edge">
<title>Node563&#45;&gt;Node564</title>
<path fill="none" stroke="#191970" d="M113.0164,-78.5C121.3038,-78.5 129.9027,-78.5 138.3682,-78.5"/>
<polygon fill="#191970" stroke="#191970" points="138.5982,-82.0001 148.5981,-78.5 138.5981,-75.0001 138.5982,-82.0001"/>
</g>
<!-- Node565 -->
<g id="node3" class="node">
<title>Node565</title>
<g id="a_node3"><a xlink:href="classnlohmann_1_1basic__json.html#af8f511af124e82e4579f444b4175787c" target="_top" xlink:title="return whether value is an object">
<polygon fill="#ffffff" stroke="#000000" points="457.3062,-107.5 457.3062,-135.5 570.0347,-135.5 570.0347,-107.5 457.3062,-107.5"/>
<text text-anchor="start" x="465.3062" y="-123.5" font-family="Helvetica,sans-Serif" font-size="10.00" fill="#000000">nlohmann::basic_json</text>
<text text-anchor="middle" x="513.6704" y="-113.5" font-family="Helvetica,sans-Serif" font-size="10.00" fill="#000000">::is_object</text>
</a>
</g>
</g>
<!-- Node564&#45;&gt;Node565 -->
<g id="edge2" class="edge">
<title>Node564&#45;&gt;Node565</title>
<path fill="none" stroke="#191970" d="M226.3943,-92.6873C244.4477,-103.8077 271.4743,-118.388 297.457,-124.5 346.512,-136.0394 403.5717,-134.6522 446.753,-130.722"/>
<polygon fill="#191970" stroke="#191970" points="447.248,-134.1904 456.8596,-129.7331 446.5662,-127.2236 447.248,-134.1904"/>
</g>
<!-- Node566 -->
<g id="node4" class="node">
<title>Node566</title>
<g id="a_node4"><a xlink:href="classnlohmann_1_1basic__json.html#aeed33787bd362c7ead59a4ba945392db" target="_top" xlink:title="find an element in a JSON object">
<polygon fill="#ffffff" stroke="#000000" points="297.457,-86.5 297.457,-114.5 410.1855,-114.5 410.1855,-86.5 297.457,-86.5"/>
<text text-anchor="start" x="305.457" y="-102.5" font-family="Helvetica,sans-Serif" font-size="10.00" fill="#000000">nlohmann::basic_json</text>
<text text-anchor="middle" x="353.8213" y="-92.5" font-family="Helvetica,sans-Serif" font-size="10.00" fill="#000000">::find</text>
</a>
</g>
</g>
<!-- Node564&#45;&gt;Node566 -->
<g id="edge3" class="edge">
<title>Node564&#45;&gt;Node566</title>
<path fill="none" stroke="#191970" d="M261.7449,-86.88C270.1233,-88.1194 278.8203,-89.4058 287.3758,-90.6713"/>
<polygon fill="#191970" stroke="#191970" points="286.9221,-94.1422 297.3266,-92.1433 287.9465,-87.2176 286.9221,-94.1422"/>
</g>
<!-- Node567 -->
<g id="node5" class="node">
<title>Node567</title>
<g id="a_node5"><a xlink:href="classnlohmann_1_1basic__json.html#a13e032a02a7fd8a93fdddc2fcbc4763c" target="_top" xlink:title="returns an iterator to one past the last element">
<polygon fill="#ffffff" stroke="#000000" points="446.1855,-70.5 446.1855,-88.5 581.1553,-88.5 581.1553,-70.5 446.1855,-70.5"/>
<text text-anchor="middle" x="513.6704" y="-76.5" font-family="Helvetica,sans-Serif" font-size="10.00" fill="#000000">nlohmann::basic_json::end</text>
</a>
</g>
</g>
<!-- Node564&#45;&gt;Node567 -->
<g id="edge6" class="edge">
<title>Node564&#45;&gt;Node567</title>
<path fill="none" stroke="#191970" d="M261.7518,-77.0794C273.5513,-76.8379 285.9095,-76.625 297.457,-76.5 347.5557,-75.9577 360.0892,-75.774 410.1855,-76.5 418.5172,-76.6207 427.2249,-76.7961 435.8993,-77.0024"/>
<polygon fill="#191970" stroke="#191970" points="435.9576,-80.5049 446.0424,-77.2574 436.1336,-73.5071 435.9576,-80.5049"/>
</g>
<!-- Node568 -->
<g id="node6" class="node">
<title>Node568</title>
<g id="a_node6"><a xlink:href="classnlohmann_1_1basic__json.html#a6b75862bdb4d26650616cf9821430755" target="_top" xlink:title="return the type as string">
<polygon fill="#ffffff" stroke="#000000" points="297.457,-.5 297.457,-28.5 410.1855,-28.5 410.1855,-.5 297.457,-.5"/>
<text text-anchor="start" x="305.457" y="-16.5" font-family="Helvetica,sans-Serif" font-size="10.00" fill="#000000">nlohmann::basic_json</text>
<text text-anchor="middle" x="353.8213" y="-6.5" font-family="Helvetica,sans-Serif" font-size="10.00" fill="#000000">::type_name</text>
</a>
</g>
</g>
<!-- Node564&#45;&gt;Node568 -->
<g id="edge7" class="edge">
<title>Node564&#45;&gt;Node568</title>
<path fill="none" stroke="#191970" d="M237.7319,-64.4549C259.5267,-55.0763 288.3914,-42.6554 311.8857,-32.5455"/>
<polygon fill="#191970" stroke="#191970" points="313.4561,-35.6801 321.2583,-28.5123 310.6892,-29.2501 313.4561,-35.6801"/>
</g>
<!-- Node566&#45;&gt;Node565 -->
<g id="edge5" class="edge">
<title>Node566&#45;&gt;Node565</title>
<path fill="none" stroke="#191970" d="M410.6282,-107.9629C422.4061,-109.5103 434.9169,-111.1538 447.0108,-112.7427"/>
<polygon fill="#191970" stroke="#191970" points="446.6757,-116.2286 457.0464,-114.0611 447.5876,-109.2883 446.6757,-116.2286"/>
</g>
<!-- Node566&#45;&gt;Node567 -->
<g id="edge4" class="edge">
<title>Node566&#45;&gt;Node567</title>
<path fill="none" stroke="#191970" d="M410.6282,-93.0371C418.884,-91.9525 427.4998,-90.8206 436.0798,-89.6934"/>
<polygon fill="#191970" stroke="#191970" points="436.6528,-93.1483 446.1117,-88.3755 435.741,-86.2079 436.6528,-93.1483"/>
</g>
</g>
</svg>
