<?xml version="1.0" encoding="UTF-8" standalone="no"?>
<!DOCTYPE svg PUBLIC "-//W3C//DTD SVG 1.1//EN"
 "http://www.w3.org/Graphics/SVG/1.1/DTD/svg11.dtd">
<!-- Generated by graphviz version 2.40.1 (20161225.0304)
 -->
<!-- Title: nlohmann::basic_json::basic_json Pages: 1 -->
<svg width="567pt" height="199pt"
 viewBox="0.00 0.00 566.91 199.00" xmlns="http://www.w3.org/2000/svg" xmlns:xlink="http://www.w3.org/1999/xlink">
<g id="graph0" class="graph" transform="scale(1 1) rotate(0) translate(4 195)">
<title>nlohmann::basic_json::basic_json</title>
<polygon fill="#ffffff" stroke="transparent" points="-4,4 -4,-195 562.9141,-195 562.9141,4 -4,4"/>
<!-- Node1 -->
<g id="node1" class="node">
<title>Node1</title>
<g id="a_node1"><a xlink:title="create an empty value with a given type">
<polygon fill="#bfbfbf" stroke="#000000" points="446.1855,-70.5 446.1855,-98.5 558.9141,-98.5 558.9141,-70.5 446.1855,-70.5"/>
<text text-anchor="start" x="454.1855" y="-86.5" font-family="Helvetica,sans-Serif" font-size="10.00" fill="#000000">nlohmann::basic_json</text>
<text text-anchor="middle" x="502.5498" y="-76.5" font-family="Helvetica,sans-Serif" font-size="10.00" fill="#000000">::basic_json</text>
</a>
</g>
</g>
<!-- Node2 -->
<g id="node2" class="node">
<title>Node2</title>
<g id="a_node2"><a xlink:href="classnlohmann_1_1basic__json.html#a4a4ec75e4d2845d9bcf7a9e5458e4949" target="_top" xlink:title="explicitly create an array from an initializer list">
<polygon fill="#ffffff" stroke="#000000" points="297.457,-141.5 297.457,-169.5 410.1855,-169.5 410.1855,-141.5 297.457,-141.5"/>
<text text-anchor="start" x="305.457" y="-157.5" font-family="Helvetica,sans-Serif" font-size="10.00" fill="#000000">nlohmann::basic_json</text>
<text text-anchor="middle" x="353.8213" y="-147.5" font-family="Helvetica,sans-Serif" font-size="10.00" fill="#000000">::array</text>
</a>
</g>
</g>
<!-- Node1&#45;&gt;Node2 -->
<g id="edge1" class="edge">
<title>Node1&#45;&gt;Node2</title>
<path fill="none" stroke="#191970" d="M467.8927,-103.4715C450.7196,-112.6247 429.5593,-123.5361 410.1855,-132.5 403.6631,-135.5178 396.6288,-138.5553 389.8148,-141.3889"/>
<polygon fill="#191970" stroke="#191970" points="469.8305,-106.4038 476.9865,-98.5909 466.5202,-100.236 469.8305,-106.4038"/>
</g>
<!-- Node6 -->
<g id="node6" class="node">
<title>Node6</title>
<g id="a_node6"><a xlink:href="classnlohmann_1_1basic__json.html#a9f42ee7d10eee2d5a73fd94ca7f767ca" target="_top" xlink:title="explicitly create an object from an initializer list">
<polygon fill="#ffffff" stroke="#000000" points="297.457,-94.5 297.457,-122.5 410.1855,-122.5 410.1855,-94.5 297.457,-94.5"/>
<text text-anchor="start" x="305.457" y="-110.5" font-family="Helvetica,sans-Serif" font-size="10.00" fill="#000000">nlohmann::basic_json</text>
<text text-anchor="middle" x="353.8213" y="-100.5" font-family="Helvetica,sans-Serif" font-size="10.00" fill="#000000">::object</text>
</a>
</g>
</g>
<!-- Node1&#45;&gt;Node6 -->
<g id="edge5" class="edge">
<title>Node1&#45;&gt;Node6</title>
<path fill="none" stroke="#191970" d="M435.9434,-95.2481C427.3861,-96.629 418.6903,-98.0322 410.3159,-99.3836"/>
<polygon fill="#191970" stroke="#191970" points="436.583,-98.6903 445.8977,-93.6418 435.4678,-91.7797 436.583,-98.6903"/>
</g>
<!-- Node8 -->
<g id="node8" class="node">
<title>Node8</title>
<g id="a_node8"><a xlink:href="classnlohmann_1_1basic__json.html#ac871e3b03fb2eeca9a8de4db2bea760f" target="_top" xlink:title="access specified array element">
<polygon fill="#ffffff" stroke="#000000" points="297.457,-47.5 297.457,-75.5 410.1855,-75.5 410.1855,-47.5 297.457,-47.5"/>
<text text-anchor="start" x="305.457" y="-63.5" font-family="Helvetica,sans-Serif" font-size="10.00" fill="#000000">nlohmann::basic_json</text>
<text text-anchor="middle" x="353.8213" y="-53.5" font-family="Helvetica,sans-Serif" font-size="10.00" fill="#000000">::operator[]</text>
</a>
</g>
</g>
<!-- Node1&#45;&gt;Node8 -->
<g id="edge7" class="edge">
<title>Node1&#45;&gt;Node8</title>
<path fill="none" stroke="#191970" d="M435.9434,-74.1997C427.3861,-72.8764 418.6903,-71.5316 410.3159,-70.2366"/>
<polygon fill="#191970" stroke="#191970" points="435.4802,-77.6696 445.8977,-75.7391 436.55,-70.7518 435.4802,-77.6696"/>
</g>
<!-- Node10 -->
<g id="node10" class="node">
<title>Node10</title>
<g id="a_node10"><a xlink:href="classnlohmann_1_1basic__json.html#ab2716cbe2e997ab8309926b87f044434" target="_top" xlink:title="add an object to an object">
<polygon fill="#ffffff" stroke="#000000" points="297.457,-.5 297.457,-28.5 410.1855,-28.5 410.1855,-.5 297.457,-.5"/>
<text text-anchor="start" x="305.457" y="-16.5" font-family="Helvetica,sans-Serif" font-size="10.00" fill="#000000">nlohmann::basic_json</text>
<text text-anchor="middle" x="353.8213" y="-6.5" font-family="Helvetica,sans-Serif" font-size="10.00" fill="#000000">::push_back</text>
</a>
</g>
</g>
<!-- Node1&#45;&gt;Node10 -->
<g id="edge9" class="edge">
<title>Node1&#45;&gt;Node10</title>
<path fill="none" stroke="#191970" d="M467.1129,-65.5954C450.0648,-56.7259 429.2361,-46.2156 410.1855,-37.5 403.5541,-34.4661 396.4027,-31.3968 389.4935,-28.5316"/>
<polygon fill="#191970" stroke="#191970" points="465.6773,-68.7944 476.1599,-70.3323 468.9243,-62.593 465.6773,-68.7944"/>
</g>
<!-- Node3 -->
<g id="node3" class="node">
<title>Node3</title>
<g id="a_node3"><a xlink:href="classnlohmann_1_1basic__json.html#a86f339e8449cce96b89e86635a7d389e" target="_top" xlink:title="deserialize from an array">
<polygon fill="#ffffff" stroke="#000000" points="148.7285,-141.5 148.7285,-169.5 261.457,-169.5 261.457,-141.5 148.7285,-141.5"/>
<text text-anchor="start" x="156.7285" y="-157.5" font-family="Helvetica,sans-Serif" font-size="10.00" fill="#000000">nlohmann::basic_json</text>
<text text-anchor="middle" x="205.0928" y="-147.5" font-family="Helvetica,sans-Serif" font-size="10.00" fill="#000000">::parse</text>
</a>
</g>
</g>
<!-- Node2&#45;&gt;Node3 -->
<g id="edge2" class="edge">
<title>Node2&#45;&gt;Node3</title>
<path fill="none" stroke="#191970" d="M286.9358,-155.5C278.4686,-155.5 269.8708,-155.5 261.5874,-155.5"/>
<polygon fill="#191970" stroke="#191970" points="287.1692,-159.0001 297.1691,-155.5 287.1691,-152.0001 287.1692,-159.0001"/>
</g>
<!-- Node4 -->
<g id="node4" class="node">
<title>Node4</title>
<g id="a_node4"><a xlink:href="classnlohmann_1_1basic__json.html#ab275a3e00a40189e96d244de6c8f311a" target="_top" xlink:title="deserialize from string literal">
<polygon fill="#ffffff" stroke="#000000" points="0,-162.5 0,-190.5 112.7285,-190.5 112.7285,-162.5 0,-162.5"/>
<text text-anchor="start" x="8" y="-178.5" font-family="Helvetica,sans-Serif" font-size="10.00" fill="#000000">nlohmann::basic_json</text>
<text text-anchor="middle" x="56.3643" y="-168.5" font-family="Helvetica,sans-Serif" font-size="10.00" fill="#000000">::parse</text>
</a>
</g>
</g>
<!-- Node3&#45;&gt;Node4 -->
<g id="edge3" class="edge">
<title>Node3&#45;&gt;Node4</title>
<path fill="none" stroke="#191970" d="M138.4863,-164.9046C129.9291,-166.1129 121.2333,-167.3407 112.8589,-168.5231"/>
<polygon fill="#191970" stroke="#191970" points="139.0282,-168.3629 148.4406,-163.4991 138.0495,-161.4317 139.0282,-168.3629"/>
</g>
<!-- Node5 -->
<g id="node5" class="node">
<title>Node5</title>
<g id="a_node5"><a xlink:href="json_8hpp.html#ae90d59ab420a183cd5fb8588bdc95e06" target="_top" xlink:title="user&#45;defined string literal for JSON values">
<polygon fill="#ffffff" stroke="#000000" points="14.2383,-125.5 14.2383,-143.5 98.4902,-143.5 98.4902,-125.5 14.2383,-125.5"/>
<text text-anchor="middle" x="56.3643" y="-131.5" font-family="Helvetica,sans-Serif" font-size="10.00" fill="#000000">operator&quot;&quot;_json</text>
</a>
</g>
</g>
<!-- Node3&#45;&gt;Node5 -->
<g id="edge4" class="edge">
<title>Node3&#45;&gt;Node5</title>
<path fill="none" stroke="#191970" d="M138.2112,-146.0565C124.7104,-144.1503 110.8774,-142.1971 98.5162,-140.4517"/>
<polygon fill="#191970" stroke="#191970" points="138.0495,-149.5683 148.4406,-147.5009 139.0282,-142.6371 138.0495,-149.5683"/>
</g>
<!-- Node7 -->
<g id="node7" class="node">
<title>Node7</title>
<g id="a_node7"><a xlink:href="classnlohmann_1_1basic__json.html#a543bd5f7490de54c875b2c0912dc9a49" target="_top" xlink:title="creates a diff as a JSON patch">
<polygon fill="#ffffff" stroke="#000000" points="148.7285,-94.5 148.7285,-122.5 261.457,-122.5 261.457,-94.5 148.7285,-94.5"/>
<text text-anchor="start" x="156.7285" y="-110.5" font-family="Helvetica,sans-Serif" font-size="10.00" fill="#000000">nlohmann::basic_json</text>
<text text-anchor="middle" x="205.0928" y="-100.5" font-family="Helvetica,sans-Serif" font-size="10.00" fill="#000000">::diff</text>
</a>
</g>
</g>
<!-- Node6&#45;&gt;Node7 -->
<g id="edge6" class="edge">
<title>Node6&#45;&gt;Node7</title>
<path fill="none" stroke="#191970" d="M286.9358,-108.5C278.4686,-108.5 269.8708,-108.5 261.5874,-108.5"/>
<polygon fill="#191970" stroke="#191970" points="287.1692,-112.0001 297.1691,-108.5 287.1691,-105.0001 287.1692,-112.0001"/>
</g>
<!-- Node9 -->
<g id="node9" class="node">
<title>Node9</title>
<g id="a_node9"><a xlink:href="classnlohmann_1_1basic__json.html#a1416bbec9d9a8eeca21c213cf5290868" target="_top" xlink:title="access specified object element">
<polygon fill="#ffffff" stroke="#000000" points="148.7285,-47.5 148.7285,-75.5 261.457,-75.5 261.457,-47.5 148.7285,-47.5"/>
<text text-anchor="start" x="156.7285" y="-63.5" font-family="Helvetica,sans-Serif" font-size="10.00" fill="#000000">nlohmann::basic_json</text>
<text text-anchor="middle" x="205.0928" y="-53.5" font-family="Helvetica,sans-Serif" font-size="10.00" fill="#000000">::operator[]</text>
</a>
</g>
</g>
<!-- Node8&#45;&gt;Node9 -->
<g id="edge8" class="edge">
<title>Node8&#45;&gt;Node9</title>
<path fill="none" stroke="#191970" d="M286.9358,-61.5C278.4686,-61.5 269.8708,-61.5 261.5874,-61.5"/>
<polygon fill="#191970" stroke="#191970" points="287.1692,-65.0001 297.1691,-61.5 287.1691,-58.0001 287.1692,-65.0001"/>
</g>
</g>
</svg>
