<?xml version="1.0" encoding="UTF-8" standalone="no"?>
<!DOCTYPE svg PUBLIC "-//W3C//DTD SVG 1.1//EN"
 "http://www.w3.org/Graphics/SVG/1.1/DTD/svg11.dtd">
<!-- Generated by graphviz version 2.40.1 (20161225.0304)
 -->
<!-- Title: nlohmann::basic_json::patch Pages: 1 -->
<svg width="454pt" height="417pt"
 viewBox="0.00 0.00 454.32 416.90" xmlns="http://www.w3.org/2000/svg" xmlns:xlink="http://www.w3.org/1999/xlink">
<g id="graph0" class="graph" transform="scale(1 1) rotate(0) translate(4 412.8952)">
<title>nlohmann::basic_json::patch</title>
<polygon fill="#ffffff" stroke="transparent" points="-4,4 -4,-412.8952 450.3232,-412.8952 450.3232,4 -4,4"/>
<!-- Node436 -->
<g id="node1" class="node">
<title>Node436</title>
<g id="a_node1"><a xlink:title="applies a JSON patch">
<polygon fill="#bfbfbf" stroke="#000000" points="0,-197.5 0,-225.5 112.7285,-225.5 112.7285,-197.5 0,-197.5"/>
<text text-anchor="start" x="8" y="-213.5" font-family="Helvetica,sans-Serif" font-size="10.00" fill="#000000">nlohmann::basic_json</text>
<text text-anchor="middle" x="56.3643" y="-203.5" font-family="Helvetica,sans-Serif" font-size="10.00" fill="#000000">::patch</text>
</a>
</g>
</g>
<!-- Node437 -->
<g id="node2" class="node">
<title>Node437</title>
<g id="a_node2"><a xlink:href="classnlohmann_1_1basic__json.html#a73ae333487310e3302135189ce8ff5d8" target="_top" xlink:title="access specified array element with bounds checking">
<polygon fill="#ffffff" stroke="#000000" points="148.7285,-360.5 148.7285,-378.5 275.3535,-378.5 275.3535,-360.5 148.7285,-360.5"/>
<text text-anchor="middle" x="212.041" y="-366.5" font-family="Helvetica,sans-Serif" font-size="10.00" fill="#000000">nlohmann::basic_json::at</text>
</a>
</g>
</g>
<!-- Node436&#45;&gt;Node437 -->
<g id="edge1" class="edge">
<title>Node436&#45;&gt;Node437</title>
<path fill="none" stroke="#191970" d="M61.7958,-225.8426C73.3089,-254.2774 102.9246,-317.9422 148.7285,-351.5 151.0619,-353.2095 153.5527,-354.7569 156.1472,-356.1576"/>
<polygon fill="#191970" stroke="#191970" points="154.7427,-359.3641 165.2891,-360.3768 157.6761,-353.0084 154.7427,-359.3641"/>
</g>
<!-- Node438 -->
<g id="node3" class="node">
<title>Node438</title>
<g id="a_node3"><a xlink:href="classnlohmann_1_1basic__json.html#aef9ce5dd2381caee1f8ddcdb5bdd9c65" target="_top" xlink:title="return whether value is an array">
<polygon fill="#ffffff" stroke="#000000" points="322.4741,-359.5 322.4741,-387.5 435.2026,-387.5 435.2026,-359.5 322.4741,-359.5"/>
<text text-anchor="start" x="330.4741" y="-375.5" font-family="Helvetica,sans-Serif" font-size="10.00" fill="#000000">nlohmann::basic_json</text>
<text text-anchor="middle" x="378.8384" y="-365.5" font-family="Helvetica,sans-Serif" font-size="10.00" fill="#000000">::is_array</text>
</a>
</g>
</g>
<!-- Node436&#45;&gt;Node438 -->
<g id="edge22" class="edge">
<title>Node436&#45;&gt;Node438</title>
<path fill="none" stroke="#191970" d="M58.7148,-225.6467C65.3997,-260.7688 88.1118,-351.7581 148.7285,-388.5 205.2607,-422.7661 284.6007,-406.5872 333.8058,-390.7827"/>
<polygon fill="#191970" stroke="#191970" points="335.1512,-394.0235 343.5291,-387.5381 332.9354,-387.3834 335.1512,-394.0235"/>
</g>
<!-- Node440 -->
<g id="node5" class="node">
<title>Node440</title>
<g id="a_node5"><a xlink:href="classnlohmann_1_1basic__json.html#ac8e523ddc8c2dd7e5d2daf0d49a9c0d7" target="_top" xlink:title="add an object to an array">
<polygon fill="#ffffff" stroke="#000000" points="155.6768,-266.5 155.6768,-294.5 268.4053,-294.5 268.4053,-266.5 155.6768,-266.5"/>
<text text-anchor="start" x="163.6768" y="-282.5" font-family="Helvetica,sans-Serif" font-size="10.00" fill="#000000">nlohmann::basic_json</text>
<text text-anchor="middle" x="212.041" y="-272.5" font-family="Helvetica,sans-Serif" font-size="10.00" fill="#000000">::push_back</text>
</a>
</g>
</g>
<!-- Node436&#45;&gt;Node440 -->
<g id="edge4" class="edge">
<title>Node436&#45;&gt;Node440</title>
<path fill="none" stroke="#191970" d="M82.6646,-225.5978C100.9445,-235.1477 126.0095,-247.7534 148.7285,-257.5 152.8914,-259.2859 157.244,-261.058 161.6336,-262.7794"/>
<polygon fill="#191970" stroke="#191970" points="160.6525,-266.1513 171.243,-266.453 163.1521,-259.6128 160.6525,-266.1513"/>
</g>
<!-- Node442 -->
<g id="node7" class="node">
<title>Node442</title>
<g id="a_node7"><a xlink:href="classnlohmann_1_1basic__json.html#a25e27ad0c6d53c01871c5485e1f75b96" target="_top" xlink:title="returns the number of elements">
<polygon fill="#ffffff" stroke="#000000" points="155.6768,-47.5 155.6768,-75.5 268.4053,-75.5 268.4053,-47.5 155.6768,-47.5"/>
<text text-anchor="start" x="163.6768" y="-63.5" font-family="Helvetica,sans-Serif" font-size="10.00" fill="#000000">nlohmann::basic_json</text>
<text text-anchor="middle" x="212.041" y="-53.5" font-family="Helvetica,sans-Serif" font-size="10.00" fill="#000000">::size</text>
</a>
</g>
</g>
<!-- Node436&#45;&gt;Node442 -->
<g id="edge8" class="edge">
<title>Node436&#45;&gt;Node442</title>
<path fill="none" stroke="#191970" d="M64.0141,-197.3812C77.9594,-172.7731 109.7074,-121.6802 148.7285,-90.5 153.4481,-86.7288 158.7374,-83.3249 164.1942,-80.2886"/>
<polygon fill="#191970" stroke="#191970" points="166.1693,-83.2089 173.4647,-75.5259 162.9704,-76.9825 166.1693,-83.2089"/>
</g>
<!-- Node443 -->
<g id="node8" class="node">
<title>Node443</title>
<g id="a_node8"><a xlink:href="classnlohmann_1_1basic__json.html#a0136728f5db69d4051c77b94307abd6c" target="_top" xlink:title="inserts element">
<polygon fill="#ffffff" stroke="#000000" points="155.6768,-313.5 155.6768,-341.5 268.4053,-341.5 268.4053,-313.5 155.6768,-313.5"/>
<text text-anchor="start" x="163.6768" y="-329.5" font-family="Helvetica,sans-Serif" font-size="10.00" fill="#000000">nlohmann::basic_json</text>
<text text-anchor="middle" x="212.041" y="-319.5" font-family="Helvetica,sans-Serif" font-size="10.00" fill="#000000">::insert</text>
</a>
</g>
</g>
<!-- Node436&#45;&gt;Node443 -->
<g id="edge9" class="edge">
<title>Node436&#45;&gt;Node443</title>
<path fill="none" stroke="#191970" d="M67.0904,-225.7265C82.9237,-245.8369 114.4057,-282.5659 148.7285,-304.5 151.306,-306.1472 154.0178,-307.6978 156.8094,-309.1545"/>
<polygon fill="#191970" stroke="#191970" points="155.3965,-312.3582 165.9307,-313.4902 158.4017,-306.0361 155.3965,-312.3582"/>
</g>
<!-- Node444 -->
<g id="node9" class="node">
<title>Node444</title>
<g id="a_node9"><a xlink:href="classnlohmann_1_1basic__json.html#a0ff28dac23f2bdecee9564d07f51dcdc" target="_top" xlink:title="returns an iterator to the first element">
<polygon fill="#ffffff" stroke="#000000" points="155.6768,-.5 155.6768,-28.5 268.4053,-28.5 268.4053,-.5 155.6768,-.5"/>
<text text-anchor="start" x="163.6768" y="-16.5" font-family="Helvetica,sans-Serif" font-size="10.00" fill="#000000">nlohmann::basic_json</text>
<text text-anchor="middle" x="212.041" y="-6.5" font-family="Helvetica,sans-Serif" font-size="10.00" fill="#000000">::begin</text>
</a>
</g>
</g>
<!-- Node436&#45;&gt;Node444 -->
<g id="edge12" class="edge">
<title>Node436&#45;&gt;Node444</title>
<path fill="none" stroke="#191970" d="M60.1384,-197.102C69.4967,-164.1454 96.8491,-82.6015 148.7285,-37.5 150.2179,-36.2052 151.786,-34.9812 153.416,-33.8243"/>
<polygon fill="#191970" stroke="#191970" points="155.2925,-36.7794 162.0038,-28.5812 151.6449,-30.8048 155.2925,-36.7794"/>
</g>
<!-- Node445 -->
<g id="node10" class="node">
<title>Node445</title>
<g id="a_node10"><a xlink:href="classnlohmann_1_1basic__json.html#af8f511af124e82e4579f444b4175787c" target="_top" xlink:title="return whether value is an object">
<polygon fill="#ffffff" stroke="#000000" points="322.4741,-112.5 322.4741,-140.5 435.2026,-140.5 435.2026,-112.5 322.4741,-112.5"/>
<text text-anchor="start" x="330.4741" y="-128.5" font-family="Helvetica,sans-Serif" font-size="10.00" fill="#000000">nlohmann::basic_json</text>
<text text-anchor="middle" x="378.8384" y="-118.5" font-family="Helvetica,sans-Serif" font-size="10.00" fill="#000000">::is_object</text>
</a>
</g>
</g>
<!-- Node436&#45;&gt;Node445 -->
<g id="edge13" class="edge">
<title>Node436&#45;&gt;Node445</title>
<path fill="none" stroke="#191970" d="M65.6741,-197.4455C80.4081,-176.6351 111.3032,-138.4743 148.7285,-123.5 200.7387,-102.6901 264.8047,-105.5754 312.1184,-112.4426"/>
<polygon fill="#191970" stroke="#191970" points="311.8338,-115.9401 322.2515,-114.0108 312.9044,-109.0225 311.8338,-115.9401"/>
</g>
<!-- Node446 -->
<g id="node11" class="node">
<title>Node446</title>
<g id="a_node11"><a xlink:href="classnlohmann_1_1basic__json.html#aeed33787bd362c7ead59a4ba945392db" target="_top" xlink:title="find an element in a JSON object">
<polygon fill="#ffffff" stroke="#000000" points="155.6768,-133.5 155.6768,-161.5 268.4053,-161.5 268.4053,-133.5 155.6768,-133.5"/>
<text text-anchor="start" x="163.6768" y="-149.5" font-family="Helvetica,sans-Serif" font-size="10.00" fill="#000000">nlohmann::basic_json</text>
<text text-anchor="middle" x="212.041" y="-139.5" font-family="Helvetica,sans-Serif" font-size="10.00" fill="#000000">::find</text>
</a>
</g>
</g>
<!-- Node436&#45;&gt;Node446 -->
<g id="edge14" class="edge">
<title>Node436&#45;&gt;Node446</title>
<path fill="none" stroke="#191970" d="M90.5282,-197.4549C113.4426,-188.0346 143.8231,-175.5449 168.4739,-165.4108"/>
<polygon fill="#191970" stroke="#191970" points="170.0387,-168.5518 177.9568,-161.5123 167.377,-162.0776 170.0387,-168.5518"/>
</g>
<!-- Node447 -->
<g id="node12" class="node">
<title>Node447</title>
<g id="a_node12"><a xlink:href="classnlohmann_1_1basic__json.html#a13e032a02a7fd8a93fdddc2fcbc4763c" target="_top" xlink:title="returns an iterator to one past the last element">
<polygon fill="#ffffff" stroke="#000000" points="311.3535,-181.5 311.3535,-199.5 446.3232,-199.5 446.3232,-181.5 311.3535,-181.5"/>
<text text-anchor="middle" x="378.8384" y="-187.5" font-family="Helvetica,sans-Serif" font-size="10.00" fill="#000000">nlohmann::basic_json::end</text>
</a>
</g>
</g>
<!-- Node436&#45;&gt;Node447 -->
<g id="edge17" class="edge">
<title>Node436&#45;&gt;Node447</title>
<path fill="none" stroke="#191970" d="M112.904,-207.818C165.047,-204.4224 242.9271,-199.3507 300.948,-195.5723"/>
<polygon fill="#191970" stroke="#191970" points="301.4229,-199.0489 311.1743,-194.9064 300.968,-192.0637 301.4229,-199.0489"/>
</g>
<!-- Node448 -->
<g id="node13" class="node">
<title>Node448</title>
<g id="a_node13"><a xlink:href="classnlohmann_1_1basic__json.html#a068a16e76be178e83da6a192916923ed" target="_top" xlink:title="remove element given an iterator">
<polygon fill="#ffffff" stroke="#000000" points="155.6768,-219.5 155.6768,-247.5 268.4053,-247.5 268.4053,-219.5 155.6768,-219.5"/>
<text text-anchor="start" x="163.6768" y="-235.5" font-family="Helvetica,sans-Serif" font-size="10.00" fill="#000000">nlohmann::basic_json</text>
<text text-anchor="middle" x="212.041" y="-225.5" font-family="Helvetica,sans-Serif" font-size="10.00" fill="#000000">::erase</text>
</a>
</g>
</g>
<!-- Node436&#45;&gt;Node448 -->
<g id="edge18" class="edge">
<title>Node436&#45;&gt;Node448</title>
<path fill="none" stroke="#191970" d="M113.0075,-219.5047C123.4828,-220.9851 134.5124,-222.5438 145.2553,-224.0619"/>
<polygon fill="#191970" stroke="#191970" points="145.0485,-227.5674 155.4399,-225.5012 146.0281,-220.6363 145.0485,-227.5674"/>
</g>
<!-- Node437&#45;&gt;Node438 -->
<g id="edge2" class="edge">
<title>Node437&#45;&gt;Node438</title>
<path fill="none" stroke="#191970" d="M275.5758,-371.0236C287.5873,-371.3117 300.1825,-371.6137 312.2839,-371.9039"/>
<polygon fill="#191970" stroke="#191970" points="312.2283,-375.4035 322.3093,-372.1444 312.3961,-368.4055 312.2283,-375.4035"/>
</g>
<!-- Node439 -->
<g id="node4" class="node">
<title>Node439</title>
<g id="a_node4"><a xlink:href="classnlohmann_1_1basic__json.html#a6b75862bdb4d26650616cf9821430755" target="_top" xlink:title="return the type as string">
<polygon fill="#ffffff" stroke="#000000" points="322.4741,-312.5 322.4741,-340.5 435.2026,-340.5 435.2026,-312.5 322.4741,-312.5"/>
<text text-anchor="start" x="330.4741" y="-328.5" font-family="Helvetica,sans-Serif" font-size="10.00" fill="#000000">nlohmann::basic_json</text>
<text text-anchor="middle" x="378.8384" y="-318.5" font-family="Helvetica,sans-Serif" font-size="10.00" fill="#000000">::type_name</text>
</a>
</g>
</g>
<!-- Node437&#45;&gt;Node439 -->
<g id="edge3" class="edge">
<title>Node437&#45;&gt;Node439</title>
<path fill="none" stroke="#191970" d="M247.0072,-360.4858C266.5666,-355.4434 291.5649,-348.9989 314.5242,-343.08"/>
<polygon fill="#191970" stroke="#191970" points="315.4076,-346.4668 324.2173,-340.5812 313.6601,-339.6884 315.4076,-346.4668"/>
</g>
<!-- Node440&#45;&gt;Node438 -->
<g id="edge6" class="edge">
<title>Node440&#45;&gt;Node438</title>
<path fill="none" stroke="#191970" d="M258.2127,-294.5645C264.2549,-297.3737 270.1468,-300.6673 275.3535,-304.5 296.261,-319.8899 290.1884,-335.4663 311.3535,-350.5 313.4727,-352.0053 315.6983,-353.4183 317.9986,-354.7442"/>
<polygon fill="#191970" stroke="#191970" points="316.6774,-357.9996 327.1744,-359.4365 319.8646,-351.7673 316.6774,-357.9996"/>
</g>
<!-- Node440&#45;&gt;Node439 -->
<g id="edge7" class="edge">
<title>Node440&#45;&gt;Node439</title>
<path fill="none" stroke="#191970" d="M262.992,-294.5515C280.3716,-299.3445 299.9785,-304.7517 318.0526,-309.7363"/>
<polygon fill="#191970" stroke="#191970" points="317.3415,-313.1708 327.9122,-312.4554 319.2026,-306.4227 317.3415,-313.1708"/>
</g>
<!-- Node441 -->
<g id="node6" class="node">
<title>Node441</title>
<g id="a_node6"><a xlink:href="classnlohmann_1_1basic__json.html#a8faa039ca82427ed29c486ffd00600c3" target="_top" xlink:title="return whether value is null">
<polygon fill="#ffffff" stroke="#000000" points="322.4741,-265.5 322.4741,-293.5 435.2026,-293.5 435.2026,-265.5 322.4741,-265.5"/>
<text text-anchor="start" x="330.4741" y="-281.5" font-family="Helvetica,sans-Serif" font-size="10.00" fill="#000000">nlohmann::basic_json</text>
<text text-anchor="middle" x="378.8384" y="-271.5" font-family="Helvetica,sans-Serif" font-size="10.00" fill="#000000">::is_null</text>
</a>
</g>
</g>
<!-- Node440&#45;&gt;Node441 -->
<g id="edge5" class="edge">
<title>Node440&#45;&gt;Node441</title>
<path fill="none" stroke="#191970" d="M268.511,-280.1614C282.5044,-280.0776 297.6309,-279.9869 312.0649,-279.9003"/>
<polygon fill="#191970" stroke="#191970" points="312.4478,-283.3982 322.4266,-279.8382 312.4057,-276.3983 312.4478,-283.3982"/>
</g>
<!-- Node443&#45;&gt;Node438 -->
<g id="edge10" class="edge">
<title>Node443&#45;&gt;Node438</title>
<path fill="none" stroke="#191970" d="M262.992,-341.5515C280.3716,-346.3445 299.9785,-351.7517 318.0526,-356.7363"/>
<polygon fill="#191970" stroke="#191970" points="317.3415,-360.1708 327.9122,-359.4554 319.2026,-353.4227 317.3415,-360.1708"/>
</g>
<!-- Node443&#45;&gt;Node439 -->
<g id="edge11" class="edge">
<title>Node443&#45;&gt;Node439</title>
<path fill="none" stroke="#191970" d="M268.511,-327.1614C282.5044,-327.0776 297.6309,-326.9869 312.0649,-326.9003"/>
<polygon fill="#191970" stroke="#191970" points="312.4478,-330.3982 322.4266,-326.8382 312.4057,-323.3983 312.4478,-330.3982"/>
</g>
<!-- Node446&#45;&gt;Node445 -->
<g id="edge16" class="edge">
<title>Node446&#45;&gt;Node445</title>
<path fill="none" stroke="#191970" d="M268.511,-140.3904C282.6403,-138.6115 297.9247,-136.6871 312.4851,-134.854"/>
<polygon fill="#191970" stroke="#191970" points="312.9421,-138.3241 322.4266,-133.6023 312.0676,-131.379 312.9421,-138.3241"/>
</g>
<!-- Node446&#45;&gt;Node447 -->
<g id="edge15" class="edge">
<title>Node446&#45;&gt;Node447</title>
<path fill="none" stroke="#191970" d="M266.6567,-161.5798C288.4571,-167.1999 313.2482,-173.591 333.9711,-178.9333"/>
<polygon fill="#191970" stroke="#191970" points="333.2293,-182.3564 343.7864,-181.4637 334.9768,-175.5781 333.2293,-182.3564"/>
</g>
<!-- Node448&#45;&gt;Node439 -->
<g id="edge21" class="edge">
<title>Node448&#45;&gt;Node439</title>
<path fill="none" stroke="#191970" d="M258.2127,-247.5645C264.2549,-250.3737 270.1468,-253.6673 275.3535,-257.5 296.261,-272.8899 290.1884,-288.4663 311.3535,-303.5 313.4727,-305.0053 315.6983,-306.4183 317.9986,-307.7442"/>
<polygon fill="#191970" stroke="#191970" points="316.6774,-310.9996 327.1744,-312.4365 319.8646,-304.7673 316.6774,-310.9996"/>
</g>
<!-- Node448&#45;&gt;Node447 -->
<g id="edge19" class="edge">
<title>Node448&#45;&gt;Node447</title>
<path fill="none" stroke="#191970" d="M266.6567,-219.4202C288.4571,-213.8001 313.2482,-207.409 333.9711,-202.0667"/>
<polygon fill="#191970" stroke="#191970" points="334.9768,-205.4219 343.7864,-199.5363 333.2293,-198.6436 334.9768,-205.4219"/>
</g>
<!-- Node449 -->
<g id="node14" class="node">
<title>Node449</title>
<g id="a_node14"><a xlink:href="classnlohmann_1_1basic__json.html#a69b596a4a6683b362095c9a139637396" target="_top" xlink:title="return whether value is a string">
<polygon fill="#ffffff" stroke="#000000" points="322.4741,-218.5 322.4741,-246.5 435.2026,-246.5 435.2026,-218.5 322.4741,-218.5"/>
<text text-anchor="start" x="330.4741" y="-234.5" font-family="Helvetica,sans-Serif" font-size="10.00" fill="#000000">nlohmann::basic_json</text>
<text text-anchor="middle" x="378.8384" y="-224.5" font-family="Helvetica,sans-Serif" font-size="10.00" fill="#000000">::is_string</text>
</a>
</g>
</g>
<!-- Node448&#45;&gt;Node449 -->
<g id="edge20" class="edge">
<title>Node448&#45;&gt;Node449</title>
<path fill="none" stroke="#191970" d="M268.511,-233.1614C282.5044,-233.0776 297.6309,-232.9869 312.0649,-232.9003"/>
<polygon fill="#191970" stroke="#191970" points="312.4478,-236.3982 322.4266,-232.8382 312.4057,-229.3983 312.4478,-236.3982"/>
</g>
</g>
</svg>
