<?xml version="1.0" encoding="UTF-8" standalone="no"?>
<!DOCTYPE svg PUBLIC "-//W3C//DTD SVG 1.1//EN"
 "http://www.w3.org/Graphics/SVG/1.1/DTD/svg11.dtd">
<!-- Generated by graphviz version 2.40.1 (20161225.0304)
 -->
<!-- Title: complex::re Pages: 1 -->
<svg width="331pt" height="212pt"
 viewBox="0.00 0.00 330.60 212.00" xmlns="http://www.w3.org/2000/svg" xmlns:xlink="http://www.w3.org/1999/xlink">
<g id="graph0" class="graph" transform="scale(1 1) rotate(0) translate(4 208)">
<title>complex::re</title>
<polygon fill="#ffffff" stroke="transparent" points="-4,4 -4,-208 326.5977,-208 326.5977,4 -4,4"/>
<!-- Node65 -->
<g id="node1" class="node">
<title>Node65</title>
<g id="a_node1"><a xlink:title=" ">
<polygon fill="#bfbfbf" stroke="#000000" points="254.9131,-92.5 254.9131,-110.5 322.5977,-110.5 322.5977,-92.5 254.9131,-92.5"/>
<text text-anchor="middle" x="288.7554" y="-98.5" font-family="Helvetica,sans-Serif" font-size="10.00" fill="#000000">complex::re</text>
</a>
</g>
</g>
<!-- Node66 -->
<g id="node2" class="node">
<title>Node66</title>
<g id="a_node2"><a xlink:href="classcomplex.html#a57fa59491a94c3aeeb5b005fed5d0ed4" target="_top" xlink:title=" ">
<polygon fill="#ffffff" stroke="#000000" points="116.624,-185.5 116.624,-203.5 212.6533,-203.5 212.6533,-185.5 116.624,-185.5"/>
<text text-anchor="middle" x="164.6387" y="-191.5" font-family="Helvetica,sans-Serif" font-size="10.00" fill="#000000">complex::complex</text>
</a>
</g>
</g>
<!-- Node65&#45;&gt;Node66 -->
<g id="edge1" class="edge">
<title>Node65&#45;&gt;Node66</title>
<path fill="none" stroke="#191970" d="M276.4372,-119.1817C263.7973,-136.1073 242.6648,-161.2554 218.9131,-176.5 213.3155,-180.0927 206.9303,-183.0378 200.5532,-185.4281"/>
<polygon fill="#191970" stroke="#191970" points="279.5196,-120.8923 282.5483,-110.7396 273.8493,-116.7876 279.5196,-120.8923"/>
</g>
<!-- Node67 -->
<g id="node3" class="node">
<title>Node67</title>
<g id="a_node3"><a xlink:href="classcomplex.html#a83c122535af669e7f331d71de550e9ba" target="_top" xlink:title=" ">
<polygon fill="#ffffff" stroke="#000000" points="113.6992,-148.5 113.6992,-166.5 215.5781,-166.5 215.5781,-148.5 113.6992,-148.5"/>
<text text-anchor="middle" x="164.6387" y="-154.5" font-family="Helvetica,sans-Serif" font-size="10.00" fill="#000000">complex::operator=</text>
</a>
</g>
</g>
<!-- Node65&#45;&gt;Node67 -->
<g id="edge2" class="edge">
<title>Node65&#45;&gt;Node67</title>
<path fill="none" stroke="#191970" d="M264.9551,-115.8241C251.6913,-123.4532 234.7084,-132.6487 218.9131,-139.5 211.3539,-142.7788 202.9911,-145.8237 195.1405,-148.4416"/>
<polygon fill="#191970" stroke="#191970" points="267.0202,-118.671 273.8857,-110.6016 263.4865,-112.6284 267.0202,-118.671"/>
</g>
<!-- Node68 -->
<g id="node4" class="node">
<title>Node68</title>
<g id="a_node4"><a xlink:href="classcomplex.html#a1916e5817cf8faf91347120309e99e59" target="_top" xlink:title=" ">
<polygon fill="#ffffff" stroke="#000000" points="110.3643,-111.5 110.3643,-129.5 218.9131,-129.5 218.9131,-111.5 110.3643,-111.5"/>
<text text-anchor="middle" x="164.6387" y="-117.5" font-family="Helvetica,sans-Serif" font-size="10.00" fill="#000000">complex::operator *=</text>
</a>
</g>
</g>
<!-- Node65&#45;&gt;Node68 -->
<g id="edge3" class="edge">
<title>Node65&#45;&gt;Node68</title>
<path fill="none" stroke="#191970" d="M244.9219,-108.2101C236.556,-109.4908 227.7052,-110.8457 219.0555,-112.1698"/>
<polygon fill="#191970" stroke="#191970" points="245.4847,-111.6648 254.8399,-106.6918 244.4254,-104.7454 245.4847,-111.6648"/>
</g>
<!-- Node69 -->
<g id="node5" class="node">
<title>Node69</title>
<g id="a_node5"><a xlink:href="classcomplex.html#a2f33210a2ac9f91ad3f1f94958c52ee9" target="_top" xlink:title=" ">
<polygon fill="#ffffff" stroke="#000000" points="112.3101,-74.5 112.3101,-92.5 216.9673,-92.5 216.9673,-74.5 112.3101,-74.5"/>
<text text-anchor="middle" x="164.6387" y="-80.5" font-family="Helvetica,sans-Serif" font-size="10.00" fill="#000000">complex::operator/=</text>
</a>
</g>
</g>
<!-- Node65&#45;&gt;Node69 -->
<g id="edge4" class="edge">
<title>Node65&#45;&gt;Node69</title>
<path fill="none" stroke="#191970" d="M244.6818,-95.1082C235.7748,-93.8165 226.3268,-92.4463 217.1629,-91.1173"/>
<polygon fill="#191970" stroke="#191970" points="244.4411,-98.6099 254.8399,-96.5814 245.4458,-91.6823 244.4411,-98.6099"/>
</g>
<!-- Node70 -->
<g id="node6" class="node">
<title>Node70</title>
<g id="a_node6"><a xlink:href="classcomplex.html#af797416b6b4b45c2bb54958fcd076a0e" target="_top" xlink:title=" ">
<polygon fill="#ffffff" stroke="#000000" points="112.0342,-37.5 112.0342,-55.5 217.2432,-55.5 217.2432,-37.5 112.0342,-37.5"/>
<text text-anchor="middle" x="164.6387" y="-43.5" font-family="Helvetica,sans-Serif" font-size="10.00" fill="#000000">complex::operator&#45;=</text>
</a>
</g>
</g>
<!-- Node65&#45;&gt;Node70 -->
<g id="edge5" class="edge">
<title>Node65&#45;&gt;Node70</title>
<path fill="none" stroke="#191970" d="M263.7867,-87.5563C250.6453,-80.4938 234.1388,-72.0513 218.9131,-65.5 210.568,-61.9093 201.2977,-58.4705 192.8145,-55.5294"/>
<polygon fill="#191970" stroke="#191970" points="262.2386,-90.6985 272.6946,-92.4082 265.5869,-84.5512 262.2386,-90.6985"/>
</g>
<!-- Node71 -->
<g id="node7" class="node">
<title>Node71</title>
<g id="a_node7"><a xlink:href="classcomplex.html#a360f0c3963a8e654ccbc16712294f4d7" target="_top" xlink:title=" ">
<polygon fill="#ffffff" stroke="#000000" points="122.1807,-.5 122.1807,-18.5 207.0967,-18.5 207.0967,-.5 122.1807,-.5"/>
<text text-anchor="middle" x="164.6387" y="-6.5" font-family="Helvetica,sans-Serif" font-size="10.00" fill="#000000">complex::setRe</text>
</a>
</g>
</g>
<!-- Node65&#45;&gt;Node71 -->
<g id="edge6" class="edge">
<title>Node65&#45;&gt;Node71</title>
<path fill="none" stroke="#191970" d="M275.871,-83.8616C263.0719,-67.4685 242.0562,-43.4033 218.9131,-28.5 212.7019,-24.5002 205.5465,-21.2252 198.5118,-18.5902"/>
<polygon fill="#191970" stroke="#191970" points="273.2664,-86.2194 282.0976,-92.0726 278.844,-81.9897 273.2664,-86.2194"/>
</g>
<!-- Node72 -->
<g id="node8" class="node">
<title>Node72</title>
<g id="a_node8"><a xlink:href="class_s_u3_exp.html#a9760c17b9c3a4b6d0a5cd4d88c6d577e" target="_top" xlink:title=" ">
<polygon fill="#ffffff" stroke="#000000" points="0,-.5 0,-18.5 74.3643,-18.5 74.3643,-.5 0,-.5"/>
<text text-anchor="middle" x="37.1821" y="-6.5" font-family="Helvetica,sans-Serif" font-size="10.00" fill="#000000">SU3Exp::exp</text>
</a>
</g>
</g>
<!-- Node71&#45;&gt;Node72 -->
<g id="edge7" class="edge">
<title>Node71&#45;&gt;Node72</title>
<path fill="none" stroke="#191970" d="M111.5637,-9.5C99.1189,-9.5 86.1163,-9.5 74.5272,-9.5"/>
<polygon fill="#191970" stroke="#191970" points="111.843,-13.0001 121.8429,-9.5 111.8429,-6.0001 111.843,-13.0001"/>
</g>
</g>
</svg>
