<?xml version="1.0" encoding="UTF-8" standalone="no"?>
<!DOCTYPE svg PUBLIC "-//W3C//DTD SVG 1.1//EN"
 "http://www.w3.org/Graphics/SVG/1.1/DTD/svg11.dtd">
<!-- Generated by graphviz version 2.40.1 (20161225.0304)
 -->
<!-- Title: nlohmann::basic_json::value Pages: 1 -->
<svg width="440pt" height="144pt"
 viewBox="0.00 0.00 440.43 144.00" xmlns="http://www.w3.org/2000/svg" xmlns:xlink="http://www.w3.org/1999/xlink">
<g id="graph0" class="graph" transform="scale(1 1) rotate(0) translate(4 140)">
<title>nlohmann::basic_json::value</title>
<polygon fill="#ffffff" stroke="transparent" points="-4,4 -4,-140 436.4268,-140 436.4268,4 -4,4"/>
<!-- Node545 -->
<g id="node1" class="node">
<title>Node545</title>
<g id="a_node1"><a xlink:title="access specified object element with default value">
<polygon fill="#bfbfbf" stroke="#000000" points="0,-64.5 0,-92.5 112.7285,-92.5 112.7285,-64.5 0,-64.5"/>
<text text-anchor="start" x="8" y="-80.5" font-family="Helvetica,sans-Serif" font-size="10.00" fill="#000000">nlohmann::basic_json</text>
<text text-anchor="middle" x="56.3643" y="-70.5" font-family="Helvetica,sans-Serif" font-size="10.00" fill="#000000">::value</text>
</a>
</g>
</g>
<!-- Node546 -->
<g id="node2" class="node">
<title>Node546</title>
<g id="a_node2"><a xlink:href="classnlohmann_1_1basic__json.html#af8f511af124e82e4579f444b4175787c" target="_top" xlink:title="return whether value is an object">
<polygon fill="#ffffff" stroke="#000000" points="308.5776,-107.5 308.5776,-135.5 421.3062,-135.5 421.3062,-107.5 308.5776,-107.5"/>
<text text-anchor="start" x="316.5776" y="-123.5" font-family="Helvetica,sans-Serif" font-size="10.00" fill="#000000">nlohmann::basic_json</text>
<text text-anchor="middle" x="364.9419" y="-113.5" font-family="Helvetica,sans-Serif" font-size="10.00" fill="#000000">::is_object</text>
</a>
</g>
</g>
<!-- Node545&#45;&gt;Node546 -->
<g id="edge1" class="edge">
<title>Node545&#45;&gt;Node546</title>
<path fill="none" stroke="#191970" d="M77.6658,-92.6873C95.7192,-103.8077 122.7458,-118.388 148.7285,-124.5 197.7835,-136.0394 254.8432,-134.6522 298.0245,-130.722"/>
<polygon fill="#191970" stroke="#191970" points="298.5195,-134.1904 308.131,-129.7331 297.8377,-127.2236 298.5195,-134.1904"/>
</g>
<!-- Node547 -->
<g id="node3" class="node">
<title>Node547</title>
<g id="a_node3"><a xlink:href="classnlohmann_1_1basic__json.html#aeed33787bd362c7ead59a4ba945392db" target="_top" xlink:title="find an element in a JSON object">
<polygon fill="#ffffff" stroke="#000000" points="148.7285,-86.5 148.7285,-114.5 261.457,-114.5 261.457,-86.5 148.7285,-86.5"/>
<text text-anchor="start" x="156.7285" y="-102.5" font-family="Helvetica,sans-Serif" font-size="10.00" fill="#000000">nlohmann::basic_json</text>
<text text-anchor="middle" x="205.0928" y="-92.5" font-family="Helvetica,sans-Serif" font-size="10.00" fill="#000000">::find</text>
</a>
</g>
</g>
<!-- Node545&#45;&gt;Node547 -->
<g id="edge2" class="edge">
<title>Node545&#45;&gt;Node547</title>
<path fill="none" stroke="#191970" d="M113.0164,-86.88C121.3948,-88.1194 130.0917,-89.4058 138.6472,-90.6713"/>
<polygon fill="#191970" stroke="#191970" points="138.1936,-94.1422 148.5981,-92.1433 139.2179,-87.2176 138.1936,-94.1422"/>
</g>
<!-- Node548 -->
<g id="node4" class="node">
<title>Node548</title>
<g id="a_node4"><a xlink:href="classnlohmann_1_1basic__json.html#a13e032a02a7fd8a93fdddc2fcbc4763c" target="_top" xlink:title="returns an iterator to one past the last element">
<polygon fill="#ffffff" stroke="#000000" points="297.457,-70.5 297.457,-88.5 432.4268,-88.5 432.4268,-70.5 297.457,-70.5"/>
<text text-anchor="middle" x="364.9419" y="-76.5" font-family="Helvetica,sans-Serif" font-size="10.00" fill="#000000">nlohmann::basic_json::end</text>
</a>
</g>
</g>
<!-- Node545&#45;&gt;Node548 -->
<g id="edge5" class="edge">
<title>Node545&#45;&gt;Node548</title>
<path fill="none" stroke="#191970" d="M113.0233,-77.0794C124.8227,-76.8379 137.181,-76.625 148.7285,-76.5 198.8271,-75.9577 211.3607,-75.774 261.457,-76.5 269.7886,-76.6207 278.4964,-76.7961 287.1708,-77.0024"/>
<polygon fill="#191970" stroke="#191970" points="287.2291,-80.5049 297.3139,-77.2574 287.4051,-73.5071 287.2291,-80.5049"/>
</g>
<!-- Node549 -->
<g id="node5" class="node">
<title>Node549</title>
<g id="a_node5"><a xlink:href="classnlohmann_1_1basic__json.html#a6b75862bdb4d26650616cf9821430755" target="_top" xlink:title="return the type as string">
<polygon fill="#ffffff" stroke="#000000" points="148.7285,-.5 148.7285,-28.5 261.457,-28.5 261.457,-.5 148.7285,-.5"/>
<text text-anchor="start" x="156.7285" y="-16.5" font-family="Helvetica,sans-Serif" font-size="10.00" fill="#000000">nlohmann::basic_json</text>
<text text-anchor="middle" x="205.0928" y="-6.5" font-family="Helvetica,sans-Serif" font-size="10.00" fill="#000000">::type_name</text>
</a>
</g>
</g>
<!-- Node545&#45;&gt;Node549 -->
<g id="edge6" class="edge">
<title>Node545&#45;&gt;Node549</title>
<path fill="none" stroke="#191970" d="M89.0034,-64.4549C110.7982,-55.0763 139.6629,-42.6554 163.1572,-32.5455"/>
<polygon fill="#191970" stroke="#191970" points="164.7276,-35.6801 172.5298,-28.5123 161.9607,-29.2501 164.7276,-35.6801"/>
</g>
<!-- Node547&#45;&gt;Node546 -->
<g id="edge4" class="edge">
<title>Node547&#45;&gt;Node546</title>
<path fill="none" stroke="#191970" d="M261.8997,-107.9629C273.6776,-109.5103 286.1884,-111.1538 298.2823,-112.7427"/>
<polygon fill="#191970" stroke="#191970" points="297.9472,-116.2286 308.3179,-114.0611 298.859,-109.2883 297.9472,-116.2286"/>
</g>
<!-- Node547&#45;&gt;Node548 -->
<g id="edge3" class="edge">
<title>Node547&#45;&gt;Node548</title>
<path fill="none" stroke="#191970" d="M261.8997,-93.0371C270.1555,-91.9525 278.7713,-90.8206 287.3513,-89.6934"/>
<polygon fill="#191970" stroke="#191970" points="287.9243,-93.1483 297.3832,-88.3755 287.0124,-86.2079 287.9243,-93.1483"/>
</g>
</g>
</svg>
