<?xml version="1.0" encoding="UTF-8" standalone="no"?>
<!DOCTYPE svg PUBLIC "-//W3C//DTD SVG 1.1//EN"
 "http://www.w3.org/Graphics/SVG/1.1/DTD/svg11.dtd">
<!-- Generated by graphviz version 2.40.1 (20161225.0304)
 -->
<!-- Title: Parameters::getNRandTests Pages: 1 -->
<svg width="449pt" height="27pt"
 viewBox="0.00 0.00 449.25 27.00" xmlns="http://www.w3.org/2000/svg" xmlns:xlink="http://www.w3.org/1999/xlink">
<g id="graph0" class="graph" transform="scale(1 1) rotate(0) translate(4 23)">
<title>Parameters::getNRandTests</title>
<polygon fill="#ffffff" stroke="transparent" points="-4,4 -4,-23 445.2451,-23 445.2451,4 -4,4"/>
<!-- Node226 -->
<g id="node1" class="node">
<title>Node226</title>
<g id="a_node1"><a xlink:title=" ">
<polygon fill="#bfbfbf" stroke="#000000" points="299.6348,-.5 299.6348,-18.5 441.2451,-18.5 441.2451,-.5 299.6348,-.5"/>
<text text-anchor="middle" x="370.4399" y="-6.5" font-family="Helvetica,sans-Serif" font-size="10.00" fill="#000000">Parameters::getNRandTests</text>
</a>
</g>
</g>
<!-- Node227 -->
<g id="node2" class="node">
<title>Node227</title>
<g id="a_node2"><a xlink:href="class_performance_tests.html#aa55ebdbc84db93cc45adfdf7163f90b4" target="_top" xlink:title=" ">
<polygon fill="#ffffff" stroke="#000000" points="147.0391,-.5 147.0391,-18.5 263.6348,-18.5 263.6348,-.5 147.0391,-.5"/>
<text text-anchor="middle" x="205.3369" y="-6.5" font-family="Helvetica,sans-Serif" font-size="10.00" fill="#000000">PerformanceTests::run</text>
</a>
</g>
</g>
<!-- Node226&#45;&gt;Node227 -->
<g id="edge1" class="edge">
<title>Node226&#45;&gt;Node227</title>
<path fill="none" stroke="#191970" d="M289.3791,-9.5C280.7613,-9.5 272.1218,-9.5 263.8365,-9.5"/>
<polygon fill="#191970" stroke="#191970" points="289.4633,-13.0001 299.4632,-9.5 289.4632,-6.0001 289.4633,-13.0001"/>
</g>
<!-- Node228 -->
<g id="node3" class="node">
<title>Node228</title>
<g id="a_node3"><a xlink:href="test_8h.html#a78e241f531e5203858fdb59a4162d6ba" target="_top" xlink:title=" ">
<polygon fill="#ffffff" stroke="#000000" points="0,-.5 0,-18.5 111.0391,-18.5 111.0391,-.5 0,-.5"/>
<text text-anchor="middle" x="55.5195" y="-6.5" font-family="Helvetica,sans-Serif" font-size="10.00" fill="#000000">runPerformanceTests</text>
</a>
</g>
</g>
<!-- Node227&#45;&gt;Node228 -->
<g id="edge2" class="edge">
<title>Node227&#45;&gt;Node228</title>
<path fill="none" stroke="#191970" d="M136.7552,-9.5C128.3009,-9.5 119.7383,-9.5 111.5024,-9.5"/>
<polygon fill="#191970" stroke="#191970" points="136.9846,-13.0001 146.9846,-9.5 136.9846,-6.0001 136.9846,-13.0001"/>
</g>
</g>
</svg>
