<?xml version="1.0" encoding="UTF-8" standalone="no"?>
<!DOCTYPE svg PUBLIC "-//W3C//DTD SVG 1.1//EN"
 "http://www.w3.org/Graphics/SVG/1.1/DTD/svg11.dtd">
<!-- Generated by graphviz version 2.40.1 (20161225.0304)
 -->
<!-- Title: ObservableStorer::gatherResults Pages: 1 -->
<svg width="356pt" height="467pt"
 viewBox="0.00 0.00 356.12 467.00" xmlns="http://www.w3.org/2000/svg" xmlns:xlink="http://www.w3.org/1999/xlink">
<g id="graph0" class="graph" transform="scale(1 1) rotate(0) translate(4 463)">
<title>ObservableStorer::gatherResults</title>
<polygon fill="#ffffff" stroke="transparent" points="-4,4 -4,-463 352.1221,-463 352.1221,4 -4,4"/>
<!-- Node6 -->
<g id="node1" class="node">
<title>Node6</title>
<g id="a_node1"><a xlink:title=" ">
<polygon fill="#bfbfbf" stroke="#000000" points="219.8418,-215.5 219.8418,-243.5 348.1221,-243.5 348.1221,-215.5 219.8418,-215.5"/>
<text text-anchor="start" x="227.8418" y="-231.5" font-family="Helvetica,sans-Serif" font-size="10.00" fill="#000000">ObservableStorer::gather</text>
<text text-anchor="middle" x="283.9819" y="-221.5" font-family="Helvetica,sans-Serif" font-size="10.00" fill="#000000">Results</text>
</a>
</g>
</g>
<!-- Node7 -->
<g id="node2" class="node">
<title>Node7</title>
<g id="a_node2"><a xlink:href="class_correlator.html#a35197b1d12b62ef30b79c0138a26456e" target="_top" xlink:title=" ">
<polygon fill="#ffffff" stroke="#000000" points="31.6821,-440.5 31.6821,-458.5 152.1597,-458.5 152.1597,-440.5 31.6821,-440.5"/>
<text text-anchor="middle" x="91.9209" y="-446.5" font-family="Helvetica,sans-Serif" font-size="10.00" fill="#000000">Correlator::runStatistics</text>
</a>
</g>
</g>
<!-- Node6&#45;&gt;Node7 -->
<g id="edge1" class="edge">
<title>Node6&#45;&gt;Node7</title>
<path fill="none" stroke="#191970" d="M279.2901,-253.6089C269.5875,-296.6169 243.0725,-386.2885 183.8418,-431.5 174.6642,-438.5054 163.5068,-443.0095 152.1737,-445.861"/>
<polygon fill="#191970" stroke="#191970" points="282.7328,-254.2468 281.4043,-243.7356 275.8879,-252.781 282.7328,-254.2468"/>
</g>
<!-- Node8 -->
<g id="node3" class="node">
<title>Node8</title>
<g id="a_node3"><a xlink:href="class_correlator.html#a168512b2ce182d9478db47f100125fa6" target="_top" xlink:title=" ">
<polygon fill="#ffffff" stroke="#000000" points="9.7314,-393.5 9.7314,-421.5 174.1104,-421.5 174.1104,-393.5 9.7314,-393.5"/>
<text text-anchor="start" x="17.7314" y="-409.5" font-family="Helvetica,sans-Serif" font-size="10.00" fill="#000000">Correlator::writeFlowObservables</text>
<text text-anchor="middle" x="91.9209" y="-399.5" font-family="Helvetica,sans-Serif" font-size="10.00" fill="#000000">ToFile</text>
</a>
</g>
</g>
<!-- Node6&#45;&gt;Node8 -->
<g id="edge2" class="edge">
<title>Node6&#45;&gt;Node8</title>
<path fill="none" stroke="#191970" d="M275.2236,-253.3005C261.3093,-287.702 230.8256,-350.8736 183.8418,-384.5 179.026,-387.9467 173.7468,-390.8789 168.2299,-393.373"/>
<polygon fill="#191970" stroke="#191970" points="278.6296,-254.2004 279.0098,-243.6123 272.1098,-251.6523 278.6296,-254.2004"/>
</g>
<!-- Node9 -->
<g id="node4" class="node">
<title>Node9</title>
<g id="a_node4"><a xlink:href="class_energy_density.html#a584e164453ce880a45478c9b48ce2c4b" target="_top" xlink:title=" ">
<polygon fill="#ffffff" stroke="#000000" points="21.3965,-356.5 21.3965,-374.5 162.4453,-374.5 162.4453,-356.5 21.3965,-356.5"/>
<text text-anchor="middle" x="91.9209" y="-362.5" font-family="Helvetica,sans-Serif" font-size="10.00" fill="#000000">EnergyDensity::runStatistics</text>
</a>
</g>
</g>
<!-- Node6&#45;&gt;Node9 -->
<g id="edge3" class="edge">
<title>Node6&#45;&gt;Node9</title>
<path fill="none" stroke="#191970" d="M271.001,-252.701C254.4624,-279.9643 223.2379,-324.4049 183.8418,-347.5 177.2483,-351.3653 169.9775,-354.418 162.5004,-356.8262"/>
<polygon fill="#191970" stroke="#191970" points="274.1632,-254.2289 276.2277,-243.8371 268.1334,-250.6733 274.1632,-254.2289"/>
</g>
<!-- Node10 -->
<g id="node5" class="node">
<title>Node10</title>
<g id="a_node5"><a xlink:href="class_lattice_action_charge_density.html#a54226556dc1497c311e4a4d50bf44c26" target="_top" xlink:title=" ">
<polygon fill="#ffffff" stroke="#000000" points="18.623,-309.5 18.623,-337.5 165.2188,-337.5 165.2188,-309.5 18.623,-309.5"/>
<text text-anchor="start" x="26.623" y="-325.5" font-family="Helvetica,sans-Serif" font-size="10.00" fill="#000000">LatticeActionChargeDensity</text>
<text text-anchor="middle" x="91.9209" y="-315.5" font-family="Helvetica,sans-Serif" font-size="10.00" fill="#000000">::writeFlowObservablesToFile</text>
</a>
</g>
</g>
<!-- Node6&#45;&gt;Node10 -->
<g id="edge4" class="edge">
<title>Node6&#45;&gt;Node10</title>
<path fill="none" stroke="#191970" d="M260.459,-250.036C241.0994,-265.9447 212.3056,-287.4127 183.8418,-300.5 176.3686,-303.9361 168.3082,-306.9073 160.1749,-309.4642"/>
<polygon fill="#191970" stroke="#191970" points="262.7278,-252.7013 268.1499,-243.599 258.2349,-247.3333 262.7278,-252.7013"/>
</g>
<!-- Node11 -->
<g id="node6" class="node">
<title>Node11</title>
<g id="a_node6"><a xlink:href="class_master_sampler.html#ad475928217ac61fae134128904aaa9f8" target="_top" xlink:title=" ">
<polygon fill="#ffffff" stroke="#000000" points="26.1304,-262.5 26.1304,-290.5 157.7114,-290.5 157.7114,-262.5 26.1304,-262.5"/>
<text text-anchor="start" x="34.1304" y="-278.5" font-family="Helvetica,sans-Serif" font-size="10.00" fill="#000000">MasterSampler::writeFlow</text>
<text text-anchor="middle" x="91.9209" y="-268.5" font-family="Helvetica,sans-Serif" font-size="10.00" fill="#000000">ObservablesToFile</text>
</a>
</g>
</g>
<!-- Node6&#45;&gt;Node11 -->
<g id="edge5" class="edge">
<title>Node6&#45;&gt;Node11</title>
<path fill="none" stroke="#191970" d="M216.691,-245.967C194.7066,-251.3469 170.5087,-257.2685 149.3214,-262.4533"/>
<polygon fill="#191970" stroke="#191970" points="217.736,-249.3146 226.6174,-243.5379 216.0721,-242.5153 217.736,-249.3146"/>
</g>
<!-- Node12 -->
<g id="node7" class="node">
<title>Node12</title>
<g id="a_node7"><a xlink:href="class_master_sampler_topc_x_y_z.html#a4fba4290e4406e18ef3f2904c6ae364f" target="_top" xlink:title=" ">
<polygon fill="#ffffff" stroke="#000000" points="18.623,-215.5 18.623,-243.5 165.2188,-243.5 165.2188,-215.5 18.623,-215.5"/>
<text text-anchor="start" x="26.623" y="-231.5" font-family="Helvetica,sans-Serif" font-size="10.00" fill="#000000">MasterSamplerTopcXYZ</text>
<text text-anchor="middle" x="91.9209" y="-221.5" font-family="Helvetica,sans-Serif" font-size="10.00" fill="#000000">::writeFlowObservablesToFile</text>
</a>
</g>
</g>
<!-- Node6&#45;&gt;Node12 -->
<g id="edge6" class="edge">
<title>Node6&#45;&gt;Node12</title>
<path fill="none" stroke="#191970" d="M209.3772,-229.5C194.9232,-229.5 179.7868,-229.5 165.3702,-229.5"/>
<polygon fill="#191970" stroke="#191970" points="209.7614,-233.0001 219.7614,-229.5 209.7613,-226.0001 209.7614,-233.0001"/>
</g>
<!-- Node13 -->
<g id="node8" class="node">
<title>Node13</title>
<g id="a_node8"><a xlink:href="class_master_sampler_topc_x_y_z.html#af748653ded9908f78383185475b9ddeb" target="_top" xlink:title=" ">
<polygon fill="#ffffff" stroke="#000000" points="29.7363,-168.5 29.7363,-196.5 154.1055,-196.5 154.1055,-168.5 29.7363,-168.5"/>
<text text-anchor="start" x="37.7363" y="-184.5" font-family="Helvetica,sans-Serif" font-size="10.00" fill="#000000">MasterSamplerTopcXYZ</text>
<text text-anchor="middle" x="91.9209" y="-174.5" font-family="Helvetica,sans-Serif" font-size="10.00" fill="#000000">::runStatistics</text>
</a>
</g>
</g>
<!-- Node6&#45;&gt;Node13 -->
<g id="edge7" class="edge">
<title>Node6&#45;&gt;Node13</title>
<path fill="none" stroke="#191970" d="M216.691,-213.033C194.7066,-207.6531 170.5087,-201.7315 149.3214,-196.5467"/>
<polygon fill="#191970" stroke="#191970" points="216.0721,-216.4847 226.6174,-215.4621 217.736,-209.6854 216.0721,-216.4847"/>
</g>
<!-- Node14 -->
<g id="node9" class="node">
<title>Node14</title>
<g id="a_node9"><a xlink:href="class_plaquette.html#aa54bf1807d9b192048026f94d585fa4f" target="_top" xlink:title=" ">
<polygon fill="#ffffff" stroke="#000000" points="32.7832,-131.5 32.7832,-149.5 151.0586,-149.5 151.0586,-131.5 32.7832,-131.5"/>
<text text-anchor="middle" x="91.9209" y="-137.5" font-family="Helvetica,sans-Serif" font-size="10.00" fill="#000000">Plaquette::runStatistics</text>
</a>
</g>
</g>
<!-- Node6&#45;&gt;Node14 -->
<g id="edge8" class="edge">
<title>Node6&#45;&gt;Node14</title>
<path fill="none" stroke="#191970" d="M260.5521,-208.9481C241.2452,-193.0908 212.4768,-171.8419 183.8418,-159.5 173.6656,-155.114 162.4099,-151.7174 151.3661,-149.0942"/>
<polygon fill="#191970" stroke="#191970" points="258.3063,-211.6326 268.2192,-215.3723 262.802,-206.2671 258.3063,-211.6326"/>
</g>
<!-- Node15 -->
<g id="node10" class="node">
<title>Node15</title>
<g id="a_node10"><a xlink:href="class_super_sampler.html#a410b650ebccdb03519c88908a3a8013e" target="_top" xlink:title=" ">
<polygon fill="#ffffff" stroke="#000000" points="0,-84.5 0,-112.5 183.8418,-112.5 183.8418,-84.5 0,-84.5"/>
<text text-anchor="start" x="8" y="-100.5" font-family="Helvetica,sans-Serif" font-size="10.00" fill="#000000">SuperSampler::writeFlowObservables</text>
<text text-anchor="middle" x="91.9209" y="-90.5" font-family="Helvetica,sans-Serif" font-size="10.00" fill="#000000">ToFile</text>
</a>
</g>
</g>
<!-- Node6&#45;&gt;Node15 -->
<g id="edge9" class="edge">
<title>Node6&#45;&gt;Node15</title>
<path fill="none" stroke="#191970" d="M268.9009,-206.9827C251.3355,-182.521 220.0581,-144.0591 183.8418,-122.5 177.3225,-118.6191 170.1782,-115.358 162.8439,-112.6193"/>
<polygon fill="#191970" stroke="#191970" points="266.1289,-209.1258 274.7358,-215.3042 271.8604,-205.107 266.1289,-209.1258"/>
</g>
<!-- Node16 -->
<g id="node11" class="node">
<title>Node16</title>
<g id="a_node11"><a xlink:href="class_super_sampler.html#af96f7d461e9159adb4eef9bda9c6ecde" target="_top" xlink:title=" ">
<polygon fill="#ffffff" stroke="#000000" points="21.9507,-47.5 21.9507,-65.5 161.8911,-65.5 161.8911,-47.5 21.9507,-47.5"/>
<text text-anchor="middle" x="91.9209" y="-53.5" font-family="Helvetica,sans-Serif" font-size="10.00" fill="#000000">SuperSampler::runStatistics</text>
</a>
</g>
</g>
<!-- Node6&#45;&gt;Node16 -->
<g id="edge10" class="edge">
<title>Node6&#45;&gt;Node16</title>
<path fill="none" stroke="#191970" d="M275.3589,-205.5962C261.6145,-171.0941 231.3419,-107.9292 183.8418,-75.5 177.2472,-70.9977 169.8094,-67.5229 162.0929,-64.8471"/>
<polygon fill="#191970" stroke="#191970" points="272.2404,-207.2387 279.0945,-215.3179 278.7746,-204.7278 272.2404,-207.2387"/>
</g>
<!-- Node17 -->
<g id="node12" class="node">
<title>Node17</title>
<g id="a_node12"><a xlink:href="class_topological_charge.html#ab9afadb9f37e638c0a168ebab5d41353" target="_top" xlink:title=" ">
<polygon fill="#ffffff" stroke="#000000" points="39.7266,-.5 39.7266,-28.5 144.1152,-28.5 144.1152,-.5 39.7266,-.5"/>
<text text-anchor="start" x="47.7266" y="-16.5" font-family="Helvetica,sans-Serif" font-size="10.00" fill="#000000">TopologicalCharge::</text>
<text text-anchor="middle" x="91.9209" y="-6.5" font-family="Helvetica,sans-Serif" font-size="10.00" fill="#000000">runStatistics</text>
</a>
</g>
</g>
<!-- Node6&#45;&gt;Node17 -->
<g id="edge11" class="edge">
<title>Node6&#45;&gt;Node17</title>
<path fill="none" stroke="#191970" d="M278.2343,-205.621C267.175,-164.9382 238.9958,-82.3441 183.8418,-38.5 172.6092,-29.5708 158.395,-23.9388 144.523,-20.3942"/>
<polygon fill="#191970" stroke="#191970" points="274.8905,-206.6695 280.7961,-215.4658 281.665,-204.9067 274.8905,-206.6695"/>
</g>
</g>
</svg>
