<?xml version="1.0" encoding="UTF-8" standalone="no"?>
<!DOCTYPE svg PUBLIC "-//W3C//DTD SVG 1.1//EN"
 "http://www.w3.org/Graphics/SVG/1.1/DTD/svg11.dtd">
<!-- Generated by graphviz version 2.40.1 (20161225.0304)
 -->
<!-- Title: nlohmann::basic_json::end Pages: 1 -->
<svg width="589pt" height="280pt"
 viewBox="0.00 0.00 589.16 280.42" xmlns="http://www.w3.org/2000/svg" xmlns:xlink="http://www.w3.org/1999/xlink">
<g id="graph0" class="graph" transform="scale(1 1) rotate(0) translate(4 276.4225)">
<title>nlohmann::basic_json::end</title>
<polygon fill="#ffffff" stroke="transparent" points="-4,4 -4,-276.4225 585.1553,-276.4225 585.1553,4 -4,4"/>
<!-- Node131 -->
<g id="node1" class="node">
<title>Node131</title>
<g id="a_node1"><a xlink:title="returns an iterator to one past the last element">
<polygon fill="#bfbfbf" stroke="#000000" points="446.1855,-133.5 446.1855,-151.5 581.1553,-151.5 581.1553,-133.5 446.1855,-133.5"/>
<text text-anchor="middle" x="513.6704" y="-139.5" font-family="Helvetica,sans-Serif" font-size="10.00" fill="#000000">nlohmann::basic_json::end</text>
</a>
</g>
</g>
<!-- Node132 -->
<g id="node2" class="node">
<title>Node132</title>
<g id="a_node2"><a xlink:href="classnlohmann_1_1basic__json.html#af9c51328fbe1da75eca750be3009917a" target="_top" xlink:title="access specified object element with default value">
<polygon fill="#ffffff" stroke="#000000" points="148.7285,-239.5 148.7285,-267.5 261.457,-267.5 261.457,-239.5 148.7285,-239.5"/>
<text text-anchor="start" x="156.7285" y="-255.5" font-family="Helvetica,sans-Serif" font-size="10.00" fill="#000000">nlohmann::basic_json</text>
<text text-anchor="middle" x="205.0928" y="-245.5" font-family="Helvetica,sans-Serif" font-size="10.00" fill="#000000">::value</text>
</a>
</g>
</g>
<!-- Node131&#45;&gt;Node132 -->
<g id="edge1" class="edge">
<title>Node131&#45;&gt;Node132</title>
<path fill="none" stroke="#191970" d="M504.028,-160.3768C488.4196,-187.1798 454.8095,-236.7403 410.1855,-256.5 363.298,-277.262 304.2663,-273.7176 261.5882,-266.6422"/>
<polygon fill="#191970" stroke="#191970" points="507.0967,-162.0603 508.9511,-151.629 500.9964,-158.6272 507.0967,-162.0603"/>
</g>
<!-- Node134 -->
<g id="node4" class="node">
<title>Node134</title>
<g id="a_node4"><a xlink:href="classnlohmann_1_1basic__json.html#a011397134847f36db0ed7d7a93753677" target="_top" xlink:title="access the last element">
<polygon fill="#ffffff" stroke="#000000" points="297.457,-47.5 297.457,-75.5 410.1855,-75.5 410.1855,-47.5 297.457,-47.5"/>
<text text-anchor="start" x="305.457" y="-63.5" font-family="Helvetica,sans-Serif" font-size="10.00" fill="#000000">nlohmann::basic_json</text>
<text text-anchor="middle" x="353.8213" y="-53.5" font-family="Helvetica,sans-Serif" font-size="10.00" fill="#000000">::back</text>
</a>
</g>
</g>
<!-- Node131&#45;&gt;Node134 -->
<g id="edge3" class="edge">
<title>Node131&#45;&gt;Node134</title>
<path fill="none" stroke="#191970" d="M486.4402,-128.7017C457.2433,-113.9068 411.1237,-90.5367 381.6849,-75.6193"/>
<polygon fill="#191970" stroke="#191970" points="485.1422,-131.9676 495.6444,-133.3657 488.3063,-125.7235 485.1422,-131.9676"/>
</g>
<!-- Node135 -->
<g id="node5" class="node">
<title>Node135</title>
<g id="a_node5"><a xlink:href="classnlohmann_1_1basic__json.html#a068a16e76be178e83da6a192916923ed" target="_top" xlink:title="remove element given an iterator">
<polygon fill="#ffffff" stroke="#000000" points="297.457,-171.5 297.457,-199.5 410.1855,-199.5 410.1855,-171.5 297.457,-171.5"/>
<text text-anchor="start" x="305.457" y="-187.5" font-family="Helvetica,sans-Serif" font-size="10.00" fill="#000000">nlohmann::basic_json</text>
<text text-anchor="middle" x="353.8213" y="-177.5" font-family="Helvetica,sans-Serif" font-size="10.00" fill="#000000">::erase</text>
</a>
</g>
</g>
<!-- Node131&#45;&gt;Node135 -->
<g id="edge4" class="edge">
<title>Node131&#45;&gt;Node135</title>
<path fill="none" stroke="#191970" d="M470.4778,-154.119C450.6593,-159.4502 426.9899,-165.8174 406.1671,-171.4188"/>
<polygon fill="#191970" stroke="#191970" points="471.4133,-157.4918 480.1608,-151.5142 469.5949,-150.7321 471.4133,-157.4918"/>
</g>
<!-- Node136 -->
<g id="node6" class="node">
<title>Node136</title>
<g id="a_node6"><a xlink:href="classnlohmann_1_1basic__json.html#a81e0c41a4a9dff4df2f6973f7f8b2a83" target="_top" xlink:title="applies a JSON patch">
<polygon fill="#ffffff" stroke="#000000" points="148.7285,-171.5 148.7285,-199.5 261.457,-199.5 261.457,-171.5 148.7285,-171.5"/>
<text text-anchor="start" x="156.7285" y="-187.5" font-family="Helvetica,sans-Serif" font-size="10.00" fill="#000000">nlohmann::basic_json</text>
<text text-anchor="middle" x="205.0928" y="-177.5" font-family="Helvetica,sans-Serif" font-size="10.00" fill="#000000">::patch</text>
</a>
</g>
</g>
<!-- Node131&#45;&gt;Node136 -->
<g id="edge11" class="edge">
<title>Node131&#45;&gt;Node136</title>
<path fill="none" stroke="#191970" d="M436.1166,-146.8119C394.7594,-149.8306 343.1221,-154.7485 297.457,-162.5 283.7717,-164.8231 269.1228,-168.0979 255.6163,-171.4499"/>
<polygon fill="#191970" stroke="#191970" points="436.3999,-150.3007 446.1279,-146.1034 435.9057,-143.3181 436.3999,-150.3007"/>
</g>
<!-- Node137 -->
<g id="node7" class="node">
<title>Node137</title>
<g id="a_node7"><a xlink:href="classnlohmann_1_1basic__json.html#aeed33787bd362c7ead59a4ba945392db" target="_top" xlink:title="find an element in a JSON object">
<polygon fill="#ffffff" stroke="#000000" points="297.457,-218.5 297.457,-246.5 410.1855,-246.5 410.1855,-218.5 297.457,-218.5"/>
<text text-anchor="start" x="305.457" y="-234.5" font-family="Helvetica,sans-Serif" font-size="10.00" fill="#000000">nlohmann::basic_json</text>
<text text-anchor="middle" x="353.8213" y="-224.5" font-family="Helvetica,sans-Serif" font-size="10.00" fill="#000000">::find</text>
</a>
</g>
</g>
<!-- Node131&#45;&gt;Node137 -->
<g id="edge6" class="edge">
<title>Node131&#45;&gt;Node137</title>
<path fill="none" stroke="#191970" d="M493.1741,-157.4123C472.7791,-171.8503 440.2673,-193.8007 410.1855,-209.5 404.189,-212.6295 397.668,-215.6318 391.2595,-218.3748"/>
<polygon fill="#191970" stroke="#191970" points="495.2867,-160.2044 501.3852,-151.5407 491.2151,-154.5104 495.2867,-160.2044"/>
</g>
<!-- Node138 -->
<g id="node8" class="node">
<title>Node138</title>
<g id="a_node8"><a xlink:href="classnlohmann_1_1basic__json.html#a543bd5f7490de54c875b2c0912dc9a49" target="_top" xlink:title="creates a diff as a JSON patch">
<polygon fill="#ffffff" stroke="#000000" points="148.7285,-107.5 148.7285,-135.5 261.457,-135.5 261.457,-107.5 148.7285,-107.5"/>
<text text-anchor="start" x="156.7285" y="-123.5" font-family="Helvetica,sans-Serif" font-size="10.00" fill="#000000">nlohmann::basic_json</text>
<text text-anchor="middle" x="205.0928" y="-113.5" font-family="Helvetica,sans-Serif" font-size="10.00" fill="#000000">::diff</text>
</a>
</g>
</g>
<!-- Node131&#45;&gt;Node138 -->
<g id="edge12" class="edge">
<title>Node131&#45;&gt;Node138</title>
<path fill="none" stroke="#191970" d="M444.6822,-132.1875C433.1835,-130.7502 421.3635,-129.4445 410.1855,-128.5 360.1297,-124.2706 302.9965,-122.5766 261.7671,-121.9082"/>
<polygon fill="#191970" stroke="#191970" points="444.3142,-135.6689 454.6801,-133.4786 445.2108,-128.7266 444.3142,-135.6689"/>
</g>
<!-- Node139 -->
<g id="node9" class="node">
<title>Node139</title>
<g id="a_node9"><a xlink:href="classnlohmann_1_1basic__json.html#a1ef93e2006dbe52667294f5ef38b0b10" target="_top" xlink:title="returns an iterator to the reverse&#45;beginning">
<polygon fill="#ffffff" stroke="#000000" points="297.457,-.5 297.457,-28.5 410.1855,-28.5 410.1855,-.5 297.457,-.5"/>
<text text-anchor="start" x="305.457" y="-16.5" font-family="Helvetica,sans-Serif" font-size="10.00" fill="#000000">nlohmann::basic_json</text>
<text text-anchor="middle" x="353.8213" y="-6.5" font-family="Helvetica,sans-Serif" font-size="10.00" fill="#000000">::rbegin</text>
</a>
</g>
</g>
<!-- Node131&#45;&gt;Node139 -->
<g id="edge10" class="edge">
<title>Node131&#45;&gt;Node139</title>
<path fill="none" stroke="#191970" d="M500.5353,-125.3659C482.3649,-102.6475 447.5471,-62.5184 410.1855,-37.5 405.1799,-34.1481 399.6091,-31.1486 393.9729,-28.5108"/>
<polygon fill="#191970" stroke="#191970" points="497.929,-127.714 506.8583,-133.4165 503.4341,-123.3903 497.929,-127.714"/>
</g>
<!-- Node133 -->
<g id="node3" class="node">
<title>Node133</title>
<g id="a_node3"><a xlink:href="classnlohmann_1_1basic__json.html#ad6a18403e7fbac9c4efd06facc71fc88" target="_top" xlink:title="overload for a default value of type const char*">
<polygon fill="#ffffff" stroke="#000000" points="0,-239.5 0,-267.5 112.7285,-267.5 112.7285,-239.5 0,-239.5"/>
<text text-anchor="start" x="8" y="-255.5" font-family="Helvetica,sans-Serif" font-size="10.00" fill="#000000">nlohmann::basic_json</text>
<text text-anchor="middle" x="56.3643" y="-245.5" font-family="Helvetica,sans-Serif" font-size="10.00" fill="#000000">::value</text>
</a>
</g>
</g>
<!-- Node132&#45;&gt;Node133 -->
<g id="edge2" class="edge">
<title>Node132&#45;&gt;Node133</title>
<path fill="none" stroke="#191970" d="M138.2073,-253.5C129.7401,-253.5 121.1423,-253.5 112.8589,-253.5"/>
<polygon fill="#191970" stroke="#191970" points="138.4407,-257.0001 148.4406,-253.5 138.4406,-250.0001 138.4407,-257.0001"/>
</g>
<!-- Node135&#45;&gt;Node136 -->
<g id="edge5" class="edge">
<title>Node135&#45;&gt;Node136</title>
<path fill="none" stroke="#191970" d="M286.9358,-185.5C278.4686,-185.5 269.8708,-185.5 261.5874,-185.5"/>
<polygon fill="#191970" stroke="#191970" points="287.1692,-189.0001 297.1691,-185.5 287.1691,-182.0001 287.1692,-189.0001"/>
</g>
<!-- Node137&#45;&gt;Node132 -->
<g id="edge7" class="edge">
<title>Node137&#45;&gt;Node132</title>
<path fill="none" stroke="#191970" d="M287.2149,-241.9046C278.6576,-243.1129 269.9618,-244.3407 261.5874,-245.5231"/>
<polygon fill="#191970" stroke="#191970" points="287.7567,-245.3629 297.1691,-240.4991 286.778,-238.4317 287.7567,-245.3629"/>
</g>
<!-- Node137&#45;&gt;Node136 -->
<g id="edge8" class="edge">
<title>Node137&#45;&gt;Node136</title>
<path fill="none" stroke="#191970" d="M299.2066,-215.2411C282.8237,-210.0639 265.0619,-204.451 249.4283,-199.5106"/>
<polygon fill="#191970" stroke="#191970" points="298.608,-218.7225 309.1978,-218.3985 300.7173,-212.0478 298.608,-218.7225"/>
</g>
<!-- Node137&#45;&gt;Node138 -->
<g id="edge9" class="edge">
<title>Node137&#45;&gt;Node138</title>
<path fill="none" stroke="#191970" d="M303.1371,-213.4369C301.1683,-212.193 299.2654,-210.8813 297.457,-209.5 276.5468,-193.528 280.2916,-180.8741 261.457,-162.5 251.1498,-152.4447 238.2459,-142.8784 227.3866,-135.5193"/>
<polygon fill="#191970" stroke="#191970" points="301.6673,-216.6254 312.1015,-218.4634 305.0909,-210.5197 301.6673,-216.6254"/>
</g>
</g>
</svg>
