<?xml version="1.0" encoding="UTF-8" standalone="no"?>
<!DOCTYPE svg PUBLIC "-//W3C//DTD SVG 1.1//EN"
 "http://www.w3.org/Graphics/SVG/1.1/DTD/svg11.dtd">
<!-- Generated by graphviz version 2.40.1 (20161225.0304)
 -->
<!-- Title: nlohmann::basic_json::operator= Pages: 1 -->
<svg width="364pt" height="58pt"
 viewBox="0.00 0.00 363.70 58.00" xmlns="http://www.w3.org/2000/svg" xmlns:xlink="http://www.w3.org/1999/xlink">
<g id="graph0" class="graph" transform="scale(1 1) rotate(0) translate(4 54)">
<title>nlohmann::basic_json::operator=</title>
<polygon fill="#ffffff" stroke="transparent" points="-4,4 -4,-54 359.6982,-54 359.6982,4 -4,4"/>
<!-- Node357 -->
<g id="node1" class="node">
<title>Node357</title>
<g id="a_node1"><a xlink:title="copy assignment">
<polygon fill="#bfbfbf" stroke="#000000" points="0,-21.5 0,-49.5 112.7285,-49.5 112.7285,-21.5 0,-21.5"/>
<text text-anchor="start" x="8" y="-37.5" font-family="Helvetica,sans-Serif" font-size="10.00" fill="#000000">nlohmann::basic_json</text>
<text text-anchor="middle" x="56.3643" y="-27.5" font-family="Helvetica,sans-Serif" font-size="10.00" fill="#000000">::operator=</text>
</a>
</g>
</g>
<!-- Node358 -->
<g id="node2" class="node">
<title>Node358</title>
<g id="a_node2"><a xlink:href="namespacestd.html#a907191b7578e209391ce938e3b2afdf7" target="_top" xlink:title="exchanges the values of two JSON objects">
<polygon fill="#ffffff" stroke="#000000" points="297.457,-26.5 297.457,-44.5 355.6982,-44.5 355.6982,-26.5 297.457,-26.5"/>
<text text-anchor="middle" x="326.5776" y="-32.5" font-family="Helvetica,sans-Serif" font-size="10.00" fill="#000000">std::swap</text>
</a>
</g>
</g>
<!-- Node357&#45;&gt;Node358 -->
<g id="edge1" class="edge">
<title>Node357&#45;&gt;Node358</title>
<path fill="none" stroke="#191970" d="M113.0194,-37.6309C124.8191,-37.9931 137.1784,-38.3125 148.7285,-38.5 198.8235,-39.3133 211.3687,-39.6531 261.457,-38.5 269.8228,-38.3074 278.7883,-37.9758 287.3093,-37.6016"/>
<polygon fill="#191970" stroke="#191970" points="287.5862,-41.0926 297.4123,-37.1304 287.2601,-34.1002 287.5862,-41.0926"/>
</g>
<!-- Node359 -->
<g id="node3" class="node">
<title>Node359</title>
<g id="a_node3"><a xlink:href="classnlohmann_1_1basic__json.html#a8c9d932353e1ab98a7dc2fc27e002031" target="_top" xlink:title="exchanges the values">
<polygon fill="#ffffff" stroke="#000000" points="148.7285,-.5 148.7285,-28.5 261.457,-28.5 261.457,-.5 148.7285,-.5"/>
<text text-anchor="start" x="156.7285" y="-16.5" font-family="Helvetica,sans-Serif" font-size="10.00" fill="#000000">nlohmann::basic_json</text>
<text text-anchor="middle" x="205.0928" y="-6.5" font-family="Helvetica,sans-Serif" font-size="10.00" fill="#000000">::swap</text>
</a>
</g>
</g>
<!-- Node357&#45;&gt;Node359 -->
<g id="edge2" class="edge">
<title>Node357&#45;&gt;Node359</title>
<path fill="none" stroke="#191970" d="M113.0164,-27.5009C121.3948,-26.3179 130.0917,-25.0899 138.6472,-23.8819"/>
<polygon fill="#191970" stroke="#191970" points="139.1857,-27.3407 148.5981,-22.4769 138.207,-20.4094 139.1857,-27.3407"/>
</g>
<!-- Node359&#45;&gt;Node358 -->
<g id="edge3" class="edge">
<title>Node359&#45;&gt;Node358</title>
<path fill="none" stroke="#191970" d="M261.5674,-24.2623C270.2809,-25.7685 279.1121,-27.2951 287.3391,-28.7172"/>
<polygon fill="#191970" stroke="#191970" points="286.9323,-32.1987 297.3824,-30.4533 288.1247,-25.301 286.9323,-32.1987"/>
</g>
</g>
</svg>
