<?xml version="1.0" encoding="UTF-8" standalone="no"?>
<!DOCTYPE svg PUBLIC "-//W3C//DTD SVG 1.1//EN"
 "http://www.w3.org/Graphics/SVG/1.1/DTD/svg11.dtd">
<!-- Generated by graphviz version 2.40.1 (20161225.0304)
 -->
<!-- Title: ObservableStorer::writeObservableToFile Pages: 1 -->
<svg width="534pt" height="296pt"
 viewBox="0.00 0.00 533.72 296.00" xmlns="http://www.w3.org/2000/svg" xmlns:xlink="http://www.w3.org/1999/xlink">
<g id="graph0" class="graph" transform="scale(1 1) rotate(0) translate(4 292)">
<title>ObservableStorer::writeObservableToFile</title>
<polygon fill="#ffffff" stroke="transparent" points="-4,4 -4,-292 529.7227,-292 529.7227,4 -4,4"/>
<!-- Node109 -->
<g id="node1" class="node">
<title>Node109</title>
<g id="a_node1"><a xlink:title=" ">
<polygon fill="#bfbfbf" stroke="#000000" points="0,-124.5 0,-152.5 172.1768,-152.5 172.1768,-124.5 0,-124.5"/>
<text text-anchor="start" x="8" y="-140.5" font-family="Helvetica,sans-Serif" font-size="10.00" fill="#000000">ObservableStorer::writeObservable</text>
<text text-anchor="middle" x="86.0884" y="-130.5" font-family="Helvetica,sans-Serif" font-size="10.00" fill="#000000">ToFile</text>
</a>
</g>
</g>
<!-- Node110 -->
<g id="node2" class="node">
<title>Node110</title>
<g id="a_node2"><a xlink:href="namespace_i_o.html#ad8cf5aef8f60d10b80292b69a091d5ac" target="_top" xlink:title=" ">
<polygon fill="#ffffff" stroke="#000000" points="208.1768,-129.5 208.1768,-147.5 344.2158,-147.5 344.2158,-129.5 208.1768,-129.5"/>
<text text-anchor="middle" x="276.1963" y="-135.5" font-family="Helvetica,sans-Serif" font-size="10.00" fill="#000000">IO::writeObservablesToFile</text>
</a>
</g>
</g>
<!-- Node109&#45;&gt;Node110 -->
<g id="edge1" class="edge">
<title>Node109&#45;&gt;Node110</title>
<path fill="none" stroke="#191970" d="M172.2426,-138.5C180.7636,-138.5 189.3809,-138.5 197.8172,-138.5"/>
<polygon fill="#191970" stroke="#191970" points="197.9994,-142.0001 207.9993,-138.5 197.9993,-135.0001 197.9994,-142.0001"/>
</g>
<!-- Node111 -->
<g id="node3" class="node">
<title>Node111</title>
<g id="a_node3"><a xlink:href="class_parallel_1_1_communicator.html#a474ab433da0e83ef372d74e26a7e5cb0" target="_top" xlink:title=" ">
<polygon fill="#ffffff" stroke="#000000" points="393.0063,-259.5 393.0063,-287.5 512.9321,-287.5 512.9321,-259.5 393.0063,-259.5"/>
<text text-anchor="start" x="401.0063" y="-275.5" font-family="Helvetica,sans-Serif" font-size="10.00" fill="#000000">Parallel::Communicator</text>
<text text-anchor="middle" x="452.9692" y="-265.5" font-family="Helvetica,sans-Serif" font-size="10.00" fill="#000000">::getProcessRank</text>
</a>
</g>
</g>
<!-- Node110&#45;&gt;Node111 -->
<g id="edge2" class="edge">
<title>Node110&#45;&gt;Node111</title>
<path fill="none" stroke="#191970" d="M282.0825,-147.5212C296.3423,-168.6726 334.9206,-221.8327 380.2158,-250.5 382.8183,-252.1471 385.5482,-253.6847 388.3608,-255.1192"/>
<polygon fill="#191970" stroke="#191970" points="387.0232,-258.3564 397.5707,-259.3571 389.9493,-251.9974 387.0232,-258.3564"/>
</g>
<!-- Node112 -->
<g id="node4" class="node">
<title>Node112</title>
<g id="a_node4"><a xlink:href="class_parameters.html#abace4edb8ece38841b58c5ce6168cbc4" target="_top" xlink:title=" ">
<polygon fill="#ffffff" stroke="#000000" points="391.0557,-222.5 391.0557,-240.5 514.8828,-240.5 514.8828,-222.5 391.0557,-222.5"/>
<text text-anchor="middle" x="452.9692" y="-228.5" font-family="Helvetica,sans-Serif" font-size="10.00" fill="#000000">Parameters::getFilePath</text>
</a>
</g>
</g>
<!-- Node110&#45;&gt;Node112 -->
<g id="edge3" class="edge">
<title>Node110&#45;&gt;Node112</title>
<path fill="none" stroke="#191970" d="M285.9954,-147.5898C303.5321,-163.3665 342.0319,-195.8206 380.2158,-213.5 384.9646,-215.6987 390.017,-217.6509 395.1603,-219.3796"/>
<polygon fill="#191970" stroke="#191970" points="394.5206,-222.8445 405.1076,-222.4349 396.576,-216.153 394.5206,-222.8445"/>
</g>
<!-- Node113 -->
<g id="node5" class="node">
<title>Node113</title>
<g id="a_node5"><a xlink:href="class_parameters.html#afa4cfe5dc4302b1e8f8928606ea9b056" target="_top" xlink:title=" ">
<polygon fill="#ffffff" stroke="#000000" points="380.2158,-185.5 380.2158,-203.5 525.7227,-203.5 525.7227,-185.5 380.2158,-185.5"/>
<text text-anchor="middle" x="452.9692" y="-191.5" font-family="Helvetica,sans-Serif" font-size="10.00" fill="#000000">Parameters::getOutputFolder</text>
</a>
</g>
</g>
<!-- Node110&#45;&gt;Node113 -->
<g id="edge4" class="edge">
<title>Node110&#45;&gt;Node113</title>
<path fill="none" stroke="#191970" d="M298.6848,-147.5129C319.5938,-155.7014 351.7146,-167.7959 380.2158,-176.5 387.6532,-178.7713 395.5833,-180.9632 403.3705,-182.9889"/>
<polygon fill="#191970" stroke="#191970" points="402.5567,-186.3932 413.1103,-185.4594 404.2778,-179.6081 402.5567,-186.3932"/>
</g>
<!-- Node114 -->
<g id="node6" class="node">
<title>Node114</title>
<g id="a_node6"><a xlink:href="class_parameters.html#a181a773d23fdb19d0c4f35e6cf2d5649" target="_top" xlink:title=" ">
<polygon fill="#ffffff" stroke="#000000" points="383.2749,-148.5 383.2749,-166.5 522.6636,-166.5 522.6636,-148.5 383.2749,-148.5"/>
<text text-anchor="middle" x="452.9692" y="-154.5" font-family="Helvetica,sans-Serif" font-size="10.00" fill="#000000">Parameters::getBatchName</text>
</a>
</g>
</g>
<!-- Node110&#45;&gt;Node114 -->
<g id="edge5" class="edge">
<title>Node110&#45;&gt;Node114</title>
<path fill="none" stroke="#191970" d="M344.2885,-145.8187C353.7448,-146.8351 363.5288,-147.8867 373.175,-148.9235"/>
<polygon fill="#191970" stroke="#191970" points="372.8411,-152.4077 383.1579,-149.9965 373.5893,-145.4478 372.8411,-152.4077"/>
</g>
<!-- Node115 -->
<g id="node7" class="node">
<title>Node115</title>
<g id="a_node7"><a xlink:href="class_parameters.html#ae5c64523dc50dca13b417fe3d9e4175c" target="_top" xlink:title=" ">
<polygon fill="#ffffff" stroke="#000000" points="399.1123,-111.5 399.1123,-129.5 506.8262,-129.5 506.8262,-111.5 399.1123,-111.5"/>
<text text-anchor="middle" x="452.9692" y="-117.5" font-family="Helvetica,sans-Serif" font-size="10.00" fill="#000000">Parameters::getBeta</text>
</a>
</g>
</g>
<!-- Node110&#45;&gt;Node115 -->
<g id="edge6" class="edge">
<title>Node110&#45;&gt;Node115</title>
<path fill="none" stroke="#191970" d="M344.2885,-131.5665C358.8457,-130.0842 374.1794,-128.5228 388.5915,-127.0553"/>
<polygon fill="#191970" stroke="#191970" points="389.3046,-130.5009 398.8986,-126.0058 388.5955,-123.5369 389.3046,-130.5009"/>
</g>
<!-- Node116 -->
<g id="node8" class="node">
<title>Node116</title>
<g id="a_node8"><a xlink:href="class_parameters.html#a0fd902d5efcd8dce17dbc3ea4177820d" target="_top" xlink:title=" ">
<polygon fill="#ffffff" stroke="#000000" points="397.7305,-74.5 397.7305,-92.5 508.208,-92.5 508.208,-74.5 397.7305,-74.5"/>
<text text-anchor="middle" x="452.9692" y="-80.5" font-family="Helvetica,sans-Serif" font-size="10.00" fill="#000000">Parameters::getNCor</text>
</a>
</g>
</g>
<!-- Node110&#45;&gt;Node116 -->
<g id="edge7" class="edge">
<title>Node110&#45;&gt;Node116</title>
<path fill="none" stroke="#191970" d="M300.8197,-129.3719C321.7862,-121.7457 352.7836,-110.8153 380.2158,-102.5 388.6574,-99.9412 397.7114,-97.4094 406.4662,-95.0688"/>
<polygon fill="#191970" stroke="#191970" points="407.3939,-98.4439 416.1751,-92.516 405.6138,-91.674 407.3939,-98.4439"/>
</g>
<!-- Node117 -->
<g id="node9" class="node">
<title>Node117</title>
<g id="a_node9"><a xlink:href="class_parameters.html#a03f8c0aa2a31b9bfc016441cb263082c" target="_top" xlink:title=" ">
<polygon fill="#ffffff" stroke="#000000" points="400.7871,-37.5 400.7871,-55.5 505.1514,-55.5 505.1514,-37.5 400.7871,-37.5"/>
<text text-anchor="middle" x="452.9692" y="-43.5" font-family="Helvetica,sans-Serif" font-size="10.00" fill="#000000">Parameters::getNCf</text>
</a>
</g>
</g>
<!-- Node110&#45;&gt;Node117 -->
<g id="edge8" class="edge">
<title>Node110&#45;&gt;Node117</title>
<path fill="none" stroke="#191970" d="M286.3484,-129.4737C304.1226,-114.1288 342.5785,-82.9296 380.2158,-65.5 385.8907,-62.872 391.9895,-60.5622 398.1547,-58.5435"/>
<polygon fill="#191970" stroke="#191970" points="399.2907,-61.8565 407.8462,-55.6072 397.2609,-55.1573 399.2907,-61.8565"/>
</g>
<!-- Node118 -->
<g id="node10" class="node">
<title>Node118</title>
<g id="a_node10"><a xlink:href="class_parameters.html#ad1f56cc1bb6c19f40454b30a5bc82da6" target="_top" xlink:title=" ">
<polygon fill="#ffffff" stroke="#000000" points="391.3413,-.5 391.3413,-18.5 514.5972,-18.5 514.5972,-.5 391.3413,-.5"/>
<text text-anchor="middle" x="452.9692" y="-6.5" font-family="Helvetica,sans-Serif" font-size="10.00" fill="#000000">Parameters::getNTherm</text>
</a>
</g>
</g>
<!-- Node110&#45;&gt;Node118 -->
<g id="edge9" class="edge">
<title>Node110&#45;&gt;Node118</title>
<path fill="none" stroke="#191970" d="M282.0297,-129.4912C296.1755,-108.3962 334.5252,-55.5412 380.2158,-28.5 384.3515,-26.0524 388.8021,-23.9158 393.3916,-22.0515"/>
<polygon fill="#191970" stroke="#191970" points="394.7373,-25.2867 402.9509,-18.5944 392.3567,-18.704 394.7373,-25.2867"/>
</g>
</g>
</svg>
