<?xml version="1.0" encoding="UTF-8" standalone="no"?>
<!DOCTYPE svg PUBLIC "-//W3C//DTD SVG 1.1//EN"
 "http://www.w3.org/Graphics/SVG/1.1/DTD/svg11.dtd">
<!-- Generated by graphviz version 2.40.1 (20161225.0304)
 -->
<!-- Title: Flow::Flow Pages: 1 -->
<svg width="262pt" height="138pt"
 viewBox="0.00 0.00 261.63 138.00" xmlns="http://www.w3.org/2000/svg" xmlns:xlink="http://www.w3.org/1999/xlink">
<g id="graph0" class="graph" transform="scale(1 1) rotate(0) translate(4 134)">
<title>Flow::Flow</title>
<polygon fill="#ffffff" stroke="transparent" points="-4,4 -4,-134 257.6348,-134 257.6348,4 -4,4"/>
<!-- Node0 -->
<g id="node1" class="node">
<title>Node0</title>
<g id="a_node1"><a xlink:title=" ">
<polygon fill="#bfbfbf" stroke="#000000" points="0,-55.5 0,-73.5 63.7832,-73.5 63.7832,-55.5 0,-55.5"/>
<text text-anchor="middle" x="31.8916" y="-61.5" font-family="Helvetica,sans-Serif" font-size="10.00" fill="#000000">Flow::Flow</text>
</a>
</g>
</g>
<!-- Node1 -->
<g id="node2" class="node">
<title>Node1</title>
<g id="a_node2"><a xlink:href="class_parameters.html#a41e524d54a2e4b2448b61d16ef46f534" target="_top" xlink:title=" ">
<polygon fill="#ffffff" stroke="#000000" points="129.5269,-111.5 129.5269,-129.5 223.8911,-129.5 223.8911,-111.5 129.5269,-111.5"/>
<text text-anchor="middle" x="176.709" y="-117.5" font-family="Helvetica,sans-Serif" font-size="10.00" fill="#000000">Parameters::getN</text>
</a>
</g>
</g>
<!-- Node0&#45;&gt;Node1 -->
<g id="edge1" class="edge">
<title>Node0&#45;&gt;Node1</title>
<path fill="none" stroke="#191970" d="M45.3744,-73.5492C58.6883,-82.1153 79.8862,-94.7812 99.7832,-102.5 106.055,-104.9331 112.7473,-107.0946 119.4687,-108.9992"/>
<polygon fill="#191970" stroke="#191970" points="118.7282,-112.4238 129.2916,-111.6077 120.5249,-105.6583 118.7282,-112.4238"/>
</g>
<!-- Node2 -->
<g id="node3" class="node">
<title>Node2</title>
<g id="a_node3"><a xlink:href="class_parameters.html#a96dbafc27f287de83dfaec3bc2d45efe" target="_top" xlink:title=" ">
<polygon fill="#ffffff" stroke="#000000" points="106.1821,-74.5 106.1821,-92.5 247.2358,-92.5 247.2358,-74.5 106.1821,-74.5"/>
<text text-anchor="middle" x="176.709" y="-80.5" font-family="Helvetica,sans-Serif" font-size="10.00" fill="#000000">Parameters::getFlowEpsilon</text>
</a>
</g>
</g>
<!-- Node0&#45;&gt;Node2 -->
<g id="edge2" class="edge">
<title>Node0&#45;&gt;Node2</title>
<path fill="none" stroke="#191970" d="M64.0313,-68.7167C74.187,-70.0491 85.8923,-71.5849 97.8341,-73.1516"/>
<polygon fill="#191970" stroke="#191970" points="97.5217,-76.6406 107.892,-74.4712 98.4323,-69.7 97.5217,-76.6406"/>
</g>
<!-- Node3 -->
<g id="node4" class="node">
<title>Node3</title>
<g id="a_node4"><a xlink:href="class_parameters.html#aff629ab94d99807364926008fb4e1e67" target="_top" xlink:title=" ">
<polygon fill="#ffffff" stroke="#000000" points="99.7832,-37.5 99.7832,-55.5 253.6348,-55.5 253.6348,-37.5 99.7832,-37.5"/>
<text text-anchor="middle" x="176.709" y="-43.5" font-family="Helvetica,sans-Serif" font-size="10.00" fill="#000000">Parameters::getSubLatticeSize</text>
</a>
</g>
</g>
<!-- Node0&#45;&gt;Node3 -->
<g id="edge3" class="edge">
<title>Node0&#45;&gt;Node3</title>
<path fill="none" stroke="#191970" d="M64.0313,-60.5052C73.0614,-59.3828 83.3167,-58.1081 93.874,-56.7959"/>
<polygon fill="#191970" stroke="#191970" points="94.5664,-60.2369 104.0583,-55.5301 93.7029,-53.2903 94.5664,-60.2369"/>
</g>
<!-- Node4 -->
<g id="node5" class="node">
<title>Node4</title>
<g id="a_node5"><a xlink:href="class_lattice.html#a5b4e162f06f7b4b90b4a9335ed2aabb5" target="_top" xlink:title=" ">
<polygon fill="#ffffff" stroke="#000000" points="133.9653,-.5 133.9653,-18.5 219.4526,-18.5 219.4526,-.5 133.9653,-.5"/>
<text text-anchor="middle" x="176.709" y="-6.5" font-family="Helvetica,sans-Serif" font-size="10.00" fill="#000000">Lattice::allocate</text>
</a>
</g>
</g>
<!-- Node0&#45;&gt;Node4 -->
<g id="edge4" class="edge">
<title>Node0&#45;&gt;Node4</title>
<path fill="none" stroke="#191970" d="M46.4959,-55.4003C59.9202,-47.3694 80.59,-35.8309 99.7832,-28.5 107.4577,-25.5687 115.7377,-22.9711 123.9232,-20.711"/>
<polygon fill="#191970" stroke="#191970" points="125.0261,-24.0403 133.8137,-18.1218 123.2533,-17.2685 125.0261,-24.0403"/>
</g>
</g>
</svg>
