<?xml version="1.0" encoding="UTF-8" standalone="no"?>
<!DOCTYPE svg PUBLIC "-//W3C//DTD SVG 1.1//EN"
 "http://www.w3.org/Graphics/SVG/1.1/DTD/svg11.dtd">
<!-- Generated by graphviz version 2.40.1 (20161225.0304)
 -->
<!-- Title: complex::operator= Pages: 1 -->
<svg width="215pt" height="64pt"
 viewBox="0.00 0.00 215.22 64.00" xmlns="http://www.w3.org/2000/svg" xmlns:xlink="http://www.w3.org/1999/xlink">
<g id="graph0" class="graph" transform="scale(1 1) rotate(0) translate(4 60)">
<title>complex::operator=</title>
<polygon fill="#ffffff" stroke="transparent" points="-4,4 -4,-60 211.2236,-60 211.2236,4 -4,4"/>
<!-- Node60 -->
<g id="node1" class="node">
<title>Node60</title>
<g id="a_node1"><a xlink:title=" ">
<polygon fill="#bfbfbf" stroke="#000000" points="0,-18.5 0,-36.5 101.8789,-36.5 101.8789,-18.5 0,-18.5"/>
<text text-anchor="middle" x="50.9395" y="-24.5" font-family="Helvetica,sans-Serif" font-size="10.00" fill="#000000">complex::operator=</text>
</a>
</g>
</g>
<!-- Node61 -->
<g id="node2" class="node">
<title>Node61</title>
<g id="a_node2"><a xlink:href="classcomplex.html#a696019188accc543e7c8297595e297ec" target="_top" xlink:title=" ">
<polygon fill="#ffffff" stroke="#000000" points="138.709,-37.5 138.709,-55.5 206.3936,-55.5 206.3936,-37.5 138.709,-37.5"/>
<text text-anchor="middle" x="172.5513" y="-43.5" font-family="Helvetica,sans-Serif" font-size="10.00" fill="#000000">complex::re</text>
</a>
</g>
</g>
<!-- Node60&#45;&gt;Node61 -->
<g id="edge1" class="edge">
<title>Node60&#45;&gt;Node61</title>
<path fill="none" stroke="#191970" d="M102.1613,-35.5026C110.9297,-36.8726 119.9709,-38.2851 128.5305,-39.6224"/>
<polygon fill="#191970" stroke="#191970" points="128.2615,-43.1228 138.6819,-41.2084 129.3421,-36.2067 128.2615,-43.1228"/>
</g>
<!-- Node62 -->
<g id="node3" class="node">
<title>Node62</title>
<g id="a_node3"><a xlink:href="classcomplex.html#a450461dea92da7f72b96402edafd07c2" target="_top" xlink:title=" ">
<polygon fill="#ffffff" stroke="#000000" points="137.8789,-.5 137.8789,-18.5 207.2236,-18.5 207.2236,-.5 137.8789,-.5"/>
<text text-anchor="middle" x="172.5513" y="-6.5" font-family="Helvetica,sans-Serif" font-size="10.00" fill="#000000">complex::im</text>
</a>
</g>
</g>
<!-- Node60&#45;&gt;Node62 -->
<g id="edge2" class="edge">
<title>Node60&#45;&gt;Node62</title>
<path fill="none" stroke="#191970" d="M102.1613,-19.9185C110.5595,-18.6755 119.2079,-17.3955 127.4438,-16.1764"/>
<polygon fill="#191970" stroke="#191970" points="128.2257,-19.5989 137.6055,-14.6724 127.2008,-12.6744 128.2257,-19.5989"/>
</g>
</g>
</svg>
