<?xml version="1.0" encoding="UTF-8" standalone="no"?>
<!DOCTYPE svg PUBLIC "-//W3C//DTD SVG 1.1//EN"
 "http://www.w3.org/Graphics/SVG/1.1/DTD/svg11.dtd">
<!-- Generated by graphviz version 2.40.1 (20161225.0304)
 -->
<!-- Title: Parameters::getFlowObservablesList Pages: 1 -->
<svg width="569pt" height="27pt"
 viewBox="0.00 0.00 569.04 27.00" xmlns="http://www.w3.org/2000/svg" xmlns:xlink="http://www.w3.org/1999/xlink">
<g id="graph0" class="graph" transform="scale(1 1) rotate(0) translate(4 23)">
<title>Parameters::getFlowObservablesList</title>
<polygon fill="#ffffff" stroke="transparent" points="-4,4 -4,-23 565.043,-23 565.043,4 -4,4"/>
<!-- Node113 -->
<g id="node1" class="node">
<title>Node113</title>
<g id="a_node1"><a xlink:title=" ">
<polygon fill="#bfbfbf" stroke="#000000" points="381.0879,-.5 381.0879,-18.5 561.043,-18.5 561.043,-.5 381.0879,-.5"/>
<text text-anchor="middle" x="471.0654" y="-6.5" font-family="Helvetica,sans-Serif" font-size="10.00" fill="#000000">Parameters::getFlowObservablesList</text>
</a>
</g>
</g>
<!-- Node114 -->
<g id="node2" class="node">
<title>Node114</title>
<g id="a_node2"><a xlink:href="class_sys_print.html#a4572572643f6f4685081a3ae419e5ca9" target="_top" xlink:title=" ">
<polygon fill="#ffffff" stroke="#000000" points="216.8271,-.5 216.8271,-18.5 345.0879,-18.5 345.0879,-.5 216.8271,-.5"/>
<text text-anchor="middle" x="280.9575" y="-6.5" font-family="Helvetica,sans-Serif" font-size="10.00" fill="#000000">SysPrint::printSystemInfo</text>
</a>
</g>
</g>
<!-- Node113&#45;&gt;Node114 -->
<g id="edge1" class="edge">
<title>Node113&#45;&gt;Node114</title>
<path fill="none" stroke="#191970" d="M370.8109,-9.5C362.1204,-9.5 353.488,-9.5 345.2055,-9.5"/>
<polygon fill="#191970" stroke="#191970" points="371.0221,-13.0001 381.022,-9.5 371.022,-6.0001 371.0221,-13.0001"/>
</g>
<!-- Node115 -->
<g id="node3" class="node">
<title>Node115</title>
<g id="a_node3"><a xlink:href="class_system.html#a93c8a8258ac8f6382ec393bca1271011" target="_top" xlink:title=" ">
<polygon fill="#ffffff" stroke="#000000" points="73.6748,-.5 73.6748,-18.5 180.8271,-18.5 180.8271,-.5 73.6748,-.5"/>
<text text-anchor="middle" x="127.251" y="-6.5" font-family="Helvetica,sans-Serif" font-size="10.00" fill="#000000">System::latticeSetup</text>
</a>
</g>
</g>
<!-- Node114&#45;&gt;Node115 -->
<g id="edge2" class="edge">
<title>Node114&#45;&gt;Node115</title>
<path fill="none" stroke="#191970" d="M206.5964,-9.5C197.9829,-9.5 189.3277,-9.5 181.064,-9.5"/>
<polygon fill="#191970" stroke="#191970" points="206.6627,-13.0001 216.6627,-9.5 206.6627,-6.0001 206.6627,-13.0001"/>
</g>
<!-- Node116 -->
<g id="node4" class="node">
<title>Node116</title>
<g id="a_node4"><a xlink:href="main_8cpp.html#a4e6f00a867970a9eedf47b88a27b9eea" target="_top" xlink:title=" ">
<polygon fill="#ffffff" stroke="#000000" points="0,-.5 0,-18.5 37.6748,-18.5 37.6748,-.5 0,-.5"/>
<text text-anchor="middle" x="18.8374" y="-6.5" font-family="Helvetica,sans-Serif" font-size="10.00" fill="#000000">main</text>
</a>
</g>
</g>
<!-- Node115&#45;&gt;Node116 -->
<g id="edge3" class="edge">
<title>Node115&#45;&gt;Node116</title>
<path fill="none" stroke="#191970" d="M63.2463,-9.5C54.0172,-9.5 45.18,-9.5 37.8534,-9.5"/>
<polygon fill="#191970" stroke="#191970" points="63.3618,-13.0001 73.3618,-9.5 63.3618,-6.0001 63.3618,-13.0001"/>
</g>
</g>
</svg>
