<?xml version="1.0" encoding="UTF-8" standalone="no"?>
<!DOCTYPE svg PUBLIC "-//W3C//DTD SVG 1.1//EN"
 "http://www.w3.org/Graphics/SVG/1.1/DTD/svg11.dtd">
<!-- Generated by graphviz version 2.40.1 (20161225.0304)
 -->
<!-- Title: nlohmann::basic_json::swap Pages: 1 -->
<svg width="269pt" height="121pt"
 viewBox="0.00 0.00 269.46 121.00" xmlns="http://www.w3.org/2000/svg" xmlns:xlink="http://www.w3.org/1999/xlink">
<g id="graph0" class="graph" transform="scale(1 1) rotate(0) translate(4 117)">
<title>nlohmann::basic_json::swap</title>
<polygon fill="#ffffff" stroke="transparent" points="-4,4 -4,-117 265.457,-117 265.457,4 -4,4"/>
<!-- Node502 -->
<g id="node1" class="node">
<title>Node502</title>
<g id="a_node1"><a xlink:title="exchanges the values">
<polygon fill="#bfbfbf" stroke="#000000" points="0,-42.5 0,-70.5 112.7285,-70.5 112.7285,-42.5 0,-42.5"/>
<text text-anchor="start" x="8" y="-58.5" font-family="Helvetica,sans-Serif" font-size="10.00" fill="#000000">nlohmann::basic_json</text>
<text text-anchor="middle" x="56.3643" y="-48.5" font-family="Helvetica,sans-Serif" font-size="10.00" fill="#000000">::swap</text>
</a>
</g>
</g>
<!-- Node503 -->
<g id="node2" class="node">
<title>Node503</title>
<g id="a_node2"><a xlink:href="classnlohmann_1_1basic__json.html#aef9ce5dd2381caee1f8ddcdb5bdd9c65" target="_top" xlink:title="return whether value is an array">
<polygon fill="#ffffff" stroke="#000000" points="148.7285,-84.5 148.7285,-112.5 261.457,-112.5 261.457,-84.5 148.7285,-84.5"/>
<text text-anchor="start" x="156.7285" y="-100.5" font-family="Helvetica,sans-Serif" font-size="10.00" fill="#000000">nlohmann::basic_json</text>
<text text-anchor="middle" x="205.0928" y="-90.5" font-family="Helvetica,sans-Serif" font-size="10.00" fill="#000000">::is_array</text>
</a>
</g>
</g>
<!-- Node502&#45;&gt;Node503 -->
<g id="edge1" class="edge">
<title>Node502&#45;&gt;Node503</title>
<path fill="none" stroke="#191970" d="M106.3024,-70.6022C118.8777,-74.1534 132.5014,-78.0006 145.4979,-81.6708"/>
<polygon fill="#191970" stroke="#191970" points="144.7115,-85.0855 155.2864,-84.435 146.614,-78.349 144.7115,-85.0855"/>
</g>
<!-- Node504 -->
<g id="node3" class="node">
<title>Node504</title>
<g id="a_node3"><a xlink:href="namespacestd.html#a907191b7578e209391ce938e3b2afdf7" target="_top" xlink:title="exchanges the values of two JSON objects">
<polygon fill="#ffffff" stroke="#000000" points="175.9722,-47.5 175.9722,-65.5 234.2134,-65.5 234.2134,-47.5 175.9722,-47.5"/>
<text text-anchor="middle" x="205.0928" y="-53.5" font-family="Helvetica,sans-Serif" font-size="10.00" fill="#000000">std::swap</text>
</a>
</g>
</g>
<!-- Node502&#45;&gt;Node504 -->
<g id="edge2" class="edge">
<title>Node502&#45;&gt;Node504</title>
<path fill="none" stroke="#191970" d="M113.0164,-56.5C130.5249,-56.5 149.4242,-56.5 165.5174,-56.5"/>
<polygon fill="#191970" stroke="#191970" points="165.645,-60.0001 175.6449,-56.5 165.6449,-53.0001 165.645,-60.0001"/>
</g>
<!-- Node505 -->
<g id="node4" class="node">
<title>Node505</title>
<g id="a_node4"><a xlink:href="classnlohmann_1_1basic__json.html#a6b75862bdb4d26650616cf9821430755" target="_top" xlink:title="return the type as string">
<polygon fill="#ffffff" stroke="#000000" points="148.7285,-.5 148.7285,-28.5 261.457,-28.5 261.457,-.5 148.7285,-.5"/>
<text text-anchor="start" x="156.7285" y="-16.5" font-family="Helvetica,sans-Serif" font-size="10.00" fill="#000000">nlohmann::basic_json</text>
<text text-anchor="middle" x="205.0928" y="-6.5" font-family="Helvetica,sans-Serif" font-size="10.00" fill="#000000">::type_name</text>
</a>
</g>
</g>
<!-- Node502&#45;&gt;Node505 -->
<g id="edge3" class="edge">
<title>Node502&#45;&gt;Node505</title>
<path fill="none" stroke="#191970" d="M106.3024,-42.3978C118.8777,-38.8466 132.5014,-34.9994 145.4979,-31.3292"/>
<polygon fill="#191970" stroke="#191970" points="146.614,-34.651 155.2864,-28.565 144.7115,-27.9145 146.614,-34.651"/>
</g>
</g>
</svg>
