<?xml version="1.0" encoding="UTF-8" standalone="no"?>
<!DOCTYPE svg PUBLIC "-//W3C//DTD SVG 1.1//EN"
 "http://www.w3.org/Graphics/SVG/1.1/DTD/svg11.dtd">
<!-- Generated by graphviz version 2.40.1 (20161225.0304)
 -->
<!-- Title: Correlator::printStatistics Pages: 1 -->
<svg width="485pt" height="37pt"
 viewBox="0.00 0.00 484.79 37.00" xmlns="http://www.w3.org/2000/svg" xmlns:xlink="http://www.w3.org/1999/xlink">
<g id="graph0" class="graph" transform="scale(1 1) rotate(0) translate(4 33)">
<title>Correlator::printStatistics</title>
<polygon fill="#ffffff" stroke="transparent" points="-4,4 -4,-33 480.792,-33 480.792,4 -4,4"/>
<!-- Node42 -->
<g id="node1" class="node">
<title>Node42</title>
<g id="a_node1"><a xlink:title=" ">
<polygon fill="#bfbfbf" stroke="#000000" points="0,-5.5 0,-23.5 125.4775,-23.5 125.4775,-5.5 0,-5.5"/>
<text text-anchor="middle" x="62.7388" y="-11.5" font-family="Helvetica,sans-Serif" font-size="10.00" fill="#000000">Correlator::printStatistics</text>
</a>
</g>
</g>
<!-- Node43 -->
<g id="node2" class="node">
<title>Node43</title>
<g id="a_node2"><a xlink:href="class_observable_storer.html#a04a12e7da9e21d6947027230c953bffe" target="_top" xlink:title=" ">
<polygon fill="#ffffff" stroke="#000000" points="161.4775,-5.5 161.4775,-23.5 320.8662,-23.5 320.8662,-5.5 161.4775,-5.5"/>
<text text-anchor="middle" x="241.1719" y="-11.5" font-family="Helvetica,sans-Serif" font-size="10.00" fill="#000000">ObservableStorer::printStatistics</text>
</a>
</g>
</g>
<!-- Node42&#45;&gt;Node43 -->
<g id="edge1" class="edge">
<title>Node42&#45;&gt;Node43</title>
<path fill="none" stroke="#191970" d="M125.6476,-14.5C133.941,-14.5 142.5675,-14.5 151.2033,-14.5"/>
<polygon fill="#191970" stroke="#191970" points="151.326,-18.0001 161.326,-14.5 151.326,-11.0001 151.326,-18.0001"/>
</g>
<!-- Node44 -->
<g id="node3" class="node">
<title>Node44</title>
<g id="a_node3"><a xlink:href="class_parallel_1_1_communicator.html#a474ab433da0e83ef372d74e26a7e5cb0" target="_top" xlink:title=" ">
<polygon fill="#ffffff" stroke="#000000" points="356.8662,-.5 356.8662,-28.5 476.792,-28.5 476.792,-.5 356.8662,-.5"/>
<text text-anchor="start" x="364.8662" y="-16.5" font-family="Helvetica,sans-Serif" font-size="10.00" fill="#000000">Parallel::Communicator</text>
<text text-anchor="middle" x="416.8291" y="-6.5" font-family="Helvetica,sans-Serif" font-size="10.00" fill="#000000">::getProcessRank</text>
</a>
</g>
</g>
<!-- Node43&#45;&gt;Node44 -->
<g id="edge2" class="edge">
<title>Node43&#45;&gt;Node44</title>
<path fill="none" stroke="#191970" d="M321.0336,-14.5C329.5387,-14.5 338.1442,-14.5 346.5276,-14.5"/>
<polygon fill="#191970" stroke="#191970" points="346.6217,-18.0001 356.6217,-14.5 346.6217,-11.0001 346.6217,-18.0001"/>
</g>
</g>
</svg>
