<?xml version="1.0" encoding="UTF-8" standalone="no"?>
<!DOCTYPE svg PUBLIC "-//W3C//DTD SVG 1.1//EN"
 "http://www.w3.org/Graphics/SVG/1.1/DTD/svg11.dtd">
<!-- Generated by graphviz version 2.40.1 (20161225.0304)
 -->
<!-- Title: MasterSampler::initializeObservableStorer Pages: 1 -->
<svg width="360pt" height="232pt"
 viewBox="0.00 0.00 360.00 232.00" xmlns="http://www.w3.org/2000/svg" xmlns:xlink="http://www.w3.org/1999/xlink">
<g id="graph0" class="graph" transform="scale(1 1) rotate(0) translate(4 228)">
<title>MasterSampler::initializeObservableStorer</title>
<polygon fill="#ffffff" stroke="transparent" points="-4,4 -4,-228 356.0039,-228 356.0039,4 -4,4"/>
<!-- Node30 -->
<g id="node1" class="node">
<title>Node30</title>
<g id="a_node1"><a xlink:title=" ">
<polygon fill="#bfbfbf" stroke="#000000" points="0,-97.5 0,-125.5 124.9258,-125.5 124.9258,-97.5 0,-97.5"/>
<text text-anchor="start" x="8" y="-113.5" font-family="Helvetica,sans-Serif" font-size="10.00" fill="#000000">MasterSampler::initialize</text>
<text text-anchor="middle" x="62.4629" y="-103.5" font-family="Helvetica,sans-Serif" font-size="10.00" fill="#000000">ObservableStorer</text>
</a>
</g>
</g>
<!-- Node31 -->
<g id="node2" class="node">
<title>Node31</title>
<g id="a_node2"><a xlink:href="class_parameters.html#aae314edb18d426571ab7b6df60da70aa" target="_top" xlink:title=" ">
<polygon fill="#ffffff" stroke="#000000" points="196.2261,-205.5 196.2261,-223.5 316.7036,-223.5 316.7036,-205.5 196.2261,-205.5"/>
<text text-anchor="middle" x="256.4648" y="-211.5" font-family="Helvetica,sans-Serif" font-size="10.00" fill="#000000">Parameters::getNFlows</text>
</a>
</g>
</g>
<!-- Node30&#45;&gt;Node31 -->
<g id="edge1" class="edge">
<title>Node30&#45;&gt;Node31</title>
<path fill="none" stroke="#191970" d="M74.2304,-125.503C91.2576,-144.7694 124.716,-179.0451 160.9258,-196.5 168.8242,-200.3074 177.4513,-203.3108 186.186,-205.6797"/>
<polygon fill="#191970" stroke="#191970" points="185.5153,-209.1188 196.0604,-208.0937 187.1776,-202.319 185.5153,-209.1188"/>
</g>
<!-- Node32 -->
<g id="node3" class="node">
<title>Node32</title>
<g id="a_node3"><a xlink:href="class_parameters.html#a216f85b3c5980a33f8a54c42fb3575c7" target="_top" xlink:title=" ">
<polygon fill="#ffffff" stroke="#000000" points="168.1523,-158.5 168.1523,-186.5 344.7773,-186.5 344.7773,-158.5 168.1523,-158.5"/>
<text text-anchor="start" x="176.1523" y="-174.5" font-family="Helvetica,sans-Serif" font-size="10.00" fill="#000000">Parameters::getStoreThermalization</text>
<text text-anchor="middle" x="256.4648" y="-164.5" font-family="Helvetica,sans-Serif" font-size="10.00" fill="#000000">Observables</text>
</a>
</g>
</g>
<!-- Node30&#45;&gt;Node32 -->
<g id="edge2" class="edge">
<title>Node30&#45;&gt;Node32</title>
<path fill="none" stroke="#191970" d="M95.7972,-125.6282C114.6886,-133.3141 138.8854,-142.627 160.9258,-149.5 168.0602,-151.7248 175.5504,-153.8616 183.0657,-155.8755"/>
<polygon fill="#191970" stroke="#191970" points="182.3724,-159.3117 192.932,-158.4491 184.1393,-152.5383 182.3724,-159.3117"/>
</g>
<!-- Node33 -->
<g id="node4" class="node">
<title>Node33</title>
<g id="a_node4"><a xlink:href="class_parameters.html#a03f8c0aa2a31b9bfc016441cb263082c" target="_top" xlink:title=" ">
<polygon fill="#ffffff" stroke="#000000" points="204.2827,-121.5 204.2827,-139.5 308.647,-139.5 308.647,-121.5 204.2827,-121.5"/>
<text text-anchor="middle" x="256.4648" y="-127.5" font-family="Helvetica,sans-Serif" font-size="10.00" fill="#000000">Parameters::getNCf</text>
</a>
</g>
</g>
<!-- Node30&#45;&gt;Node33 -->
<g id="edge3" class="edge">
<title>Node30&#45;&gt;Node33</title>
<path fill="none" stroke="#191970" d="M125.1819,-117.6425C147.1626,-119.7953 171.8388,-122.212 193.814,-124.3642"/>
<polygon fill="#191970" stroke="#191970" points="193.7365,-127.8732 204.03,-125.3647 194.4188,-120.9066 193.7365,-127.8732"/>
</g>
<!-- Node34 -->
<g id="node5" class="node">
<title>Node34</title>
<g id="a_node5"><a xlink:href="class_parameters.html#ad1f56cc1bb6c19f40454b30a5bc82da6" target="_top" xlink:title=" ">
<polygon fill="#ffffff" stroke="#000000" points="194.8369,-84.5 194.8369,-102.5 318.0928,-102.5 318.0928,-84.5 194.8369,-84.5"/>
<text text-anchor="middle" x="256.4648" y="-90.5" font-family="Helvetica,sans-Serif" font-size="10.00" fill="#000000">Parameters::getNTherm</text>
</a>
</g>
</g>
<!-- Node30&#45;&gt;Node34 -->
<g id="edge4" class="edge">
<title>Node30&#45;&gt;Node34</title>
<path fill="none" stroke="#191970" d="M125.1819,-105.6808C144.1304,-103.9227 165.0819,-101.9787 184.5795,-100.1697"/>
<polygon fill="#191970" stroke="#191970" points="184.9908,-103.6467 194.6247,-99.2377 184.344,-96.6766 184.9908,-103.6467"/>
</g>
<!-- Node35 -->
<g id="node6" class="node">
<title>Node35</title>
<g id="a_node6"><a xlink:href="class_observable_storer.html#a6177ade7609fb0e4b739955eecba20e6" target="_top" xlink:title=" ">
<polygon fill="#ffffff" stroke="#000000" points="177.3271,-37.5 177.3271,-65.5 335.6025,-65.5 335.6025,-37.5 177.3271,-37.5"/>
<text text-anchor="start" x="185.3271" y="-53.5" font-family="Helvetica,sans-Serif" font-size="10.00" fill="#000000">ObservableStorer::setNormalize</text>
<text text-anchor="middle" x="256.4648" y="-43.5" font-family="Helvetica,sans-Serif" font-size="10.00" fill="#000000">ObservableByProcessor</text>
</a>
</g>
</g>
<!-- Node30&#45;&gt;Node35 -->
<g id="edge5" class="edge">
<title>Node30&#45;&gt;Node35</title>
<path fill="none" stroke="#191970" d="M98.167,-97.4251C116.7271,-90.3694 139.8753,-81.9729 160.9258,-75.5 169.2396,-72.9436 178.0209,-70.4556 186.7557,-68.1099"/>
<polygon fill="#191970" stroke="#191970" points="187.7913,-71.4566 196.5706,-65.5258 186.009,-64.6873 187.7913,-71.4566"/>
</g>
<!-- Node36 -->
<g id="node7" class="node">
<title>Node36</title>
<g id="a_node7"><a xlink:href="class_observable_storer.html#a7f4847c4fdbf8764d8f07950c4d4b62a" target="_top" xlink:title=" ">
<polygon fill="#ffffff" stroke="#000000" points="160.9258,-.5 160.9258,-18.5 352.0039,-18.5 352.0039,-.5 160.9258,-.5"/>
<text text-anchor="middle" x="256.4648" y="-6.5" font-family="Helvetica,sans-Serif" font-size="10.00" fill="#000000">ObservableStorer::setObservableName</text>
</a>
</g>
</g>
<!-- Node30&#45;&gt;Node36 -->
<g id="edge6" class="edge">
<title>Node30&#45;&gt;Node36</title>
<path fill="none" stroke="#191970" d="M74.9111,-97.2467C92.2242,-78.3911 125.4659,-45.557 160.9258,-28.5 166.6265,-25.7578 172.7011,-23.4114 178.9185,-21.4035"/>
<polygon fill="#191970" stroke="#191970" points="180.1592,-24.6873 188.7732,-18.5188 178.1926,-17.9692 180.1592,-24.6873"/>
</g>
</g>
</svg>
