<?xml version="1.0" encoding="UTF-8" standalone="no"?>
<!DOCTYPE svg PUBLIC "-//W3C//DTD SVG 1.1//EN"
 "http://www.w3.org/Graphics/SVG/1.1/DTD/svg11.dtd">
<!-- Generated by graphviz version 2.40.1 (20161225.0304)
 -->
<!-- Title: nlohmann::basic_json::is_null Pages: 1 -->
<svg width="418pt" height="225pt"
 viewBox="0.00 0.00 418.19 225.00" xmlns="http://www.w3.org/2000/svg" xmlns:xlink="http://www.w3.org/1999/xlink">
<g id="graph0" class="graph" transform="scale(1 1) rotate(0) translate(4 221)">
<title>nlohmann::basic_json::is_null</title>
<polygon fill="#ffffff" stroke="transparent" points="-4,4 -4,-221 414.1855,-221 414.1855,4 -4,4"/>
<!-- Node257 -->
<g id="node1" class="node">
<title>Node257</title>
<g id="a_node1"><a xlink:title="return whether value is null">
<polygon fill="#bfbfbf" stroke="#000000" points="297.457,-94.5 297.457,-122.5 410.1855,-122.5 410.1855,-94.5 297.457,-94.5"/>
<text text-anchor="start" x="305.457" y="-110.5" font-family="Helvetica,sans-Serif" font-size="10.00" fill="#000000">nlohmann::basic_json</text>
<text text-anchor="middle" x="353.8213" y="-100.5" font-family="Helvetica,sans-Serif" font-size="10.00" fill="#000000">::is_null</text>
</a>
</g>
</g>
<!-- Node258 -->
<g id="node2" class="node">
<title>Node258</title>
<g id="a_node2"><a xlink:href="classnlohmann_1_1basic__json.html#a6362b88718eb5c6d4fed6a61eed44b95" target="_top" xlink:title="return whether type is primitive">
<polygon fill="#ffffff" stroke="#000000" points="148.7285,-188.5 148.7285,-216.5 261.457,-216.5 261.457,-188.5 148.7285,-188.5"/>
<text text-anchor="start" x="156.7285" y="-204.5" font-family="Helvetica,sans-Serif" font-size="10.00" fill="#000000">nlohmann::basic_json</text>
<text text-anchor="middle" x="205.0928" y="-194.5" font-family="Helvetica,sans-Serif" font-size="10.00" fill="#000000">::is_primitive</text>
</a>
</g>
</g>
<!-- Node257&#45;&gt;Node258 -->
<g id="edge1" class="edge">
<title>Node257&#45;&gt;Node258</title>
<path fill="none" stroke="#191970" d="M330.4118,-129.3402C312.4488,-144.6036 286.5516,-165.0852 261.457,-179.5 255.8667,-182.7112 249.7403,-185.6979 243.6506,-188.3849"/>
<polygon fill="#191970" stroke="#191970" points="332.7856,-131.9148 338.0753,-122.735 328.2155,-126.6125 332.7856,-131.9148"/>
</g>
<!-- Node259 -->
<g id="node3" class="node">
<title>Node259</title>
<g id="a_node3"><a xlink:href="classnlohmann_1_1basic__json.html#ac871e3b03fb2eeca9a8de4db2bea760f" target="_top" xlink:title="access specified array element">
<polygon fill="#ffffff" stroke="#000000" points="148.7285,-141.5 148.7285,-169.5 261.457,-169.5 261.457,-141.5 148.7285,-141.5"/>
<text text-anchor="start" x="156.7285" y="-157.5" font-family="Helvetica,sans-Serif" font-size="10.00" fill="#000000">nlohmann::basic_json</text>
<text text-anchor="middle" x="205.0928" y="-147.5" font-family="Helvetica,sans-Serif" font-size="10.00" fill="#000000">::operator[]</text>
</a>
</g>
</g>
<!-- Node257&#45;&gt;Node259 -->
<g id="edge2" class="edge">
<title>Node257&#45;&gt;Node259</title>
<path fill="none" stroke="#191970" d="M299.2066,-125.7589C282.8237,-130.9361 265.0619,-136.549 249.4283,-141.4894"/>
<polygon fill="#191970" stroke="#191970" points="300.7173,-128.9522 309.1978,-122.6015 298.608,-122.2775 300.7173,-128.9522"/>
</g>
<!-- Node261 -->
<g id="node5" class="node">
<title>Node261</title>
<g id="a_node5"><a xlink:href="classnlohmann_1_1basic__json.html#ac8e523ddc8c2dd7e5d2daf0d49a9c0d7" target="_top" xlink:title="add an object to an array">
<polygon fill="#ffffff" stroke="#000000" points="148.7285,-94.5 148.7285,-122.5 261.457,-122.5 261.457,-94.5 148.7285,-94.5"/>
<text text-anchor="start" x="156.7285" y="-110.5" font-family="Helvetica,sans-Serif" font-size="10.00" fill="#000000">nlohmann::basic_json</text>
<text text-anchor="middle" x="205.0928" y="-100.5" font-family="Helvetica,sans-Serif" font-size="10.00" fill="#000000">::push_back</text>
</a>
</g>
</g>
<!-- Node257&#45;&gt;Node261 -->
<g id="edge4" class="edge">
<title>Node257&#45;&gt;Node261</title>
<path fill="none" stroke="#191970" d="M286.9358,-108.5C278.4686,-108.5 269.8708,-108.5 261.5874,-108.5"/>
<polygon fill="#191970" stroke="#191970" points="287.1692,-112.0001 297.1691,-108.5 287.1691,-105.0001 287.1692,-112.0001"/>
</g>
<!-- Node266 -->
<g id="node10" class="node">
<title>Node266</title>
<g id="a_node10"><a xlink:href="classnlohmann_1_1basic__json.html#aacf5eed15a8b66fb1e88910707a5e229" target="_top" xlink:title="add an object to an array">
<polygon fill="#ffffff" stroke="#000000" points="148.7285,-47.5 148.7285,-75.5 261.457,-75.5 261.457,-47.5 148.7285,-47.5"/>
<text text-anchor="start" x="156.7285" y="-63.5" font-family="Helvetica,sans-Serif" font-size="10.00" fill="#000000">nlohmann::basic_json</text>
<text text-anchor="middle" x="205.0928" y="-53.5" font-family="Helvetica,sans-Serif" font-size="10.00" fill="#000000">::emplace_back</text>
</a>
</g>
</g>
<!-- Node257&#45;&gt;Node266 -->
<g id="edge9" class="edge">
<title>Node257&#45;&gt;Node266</title>
<path fill="none" stroke="#191970" d="M299.2066,-91.2411C282.8237,-86.0639 265.0619,-80.451 249.4283,-75.5106"/>
<polygon fill="#191970" stroke="#191970" points="298.608,-94.7225 309.1978,-94.3985 300.7173,-88.0478 298.608,-94.7225"/>
</g>
<!-- Node267 -->
<g id="node11" class="node">
<title>Node267</title>
<g id="a_node11"><a xlink:href="classnlohmann_1_1basic__json.html#a5338e282d1d02bed389d852dd670d98d" target="_top" xlink:title="add an object to an object if key does not exist">
<polygon fill="#ffffff" stroke="#000000" points="148.7285,-.5 148.7285,-28.5 261.457,-28.5 261.457,-.5 148.7285,-.5"/>
<text text-anchor="start" x="156.7285" y="-16.5" font-family="Helvetica,sans-Serif" font-size="10.00" fill="#000000">nlohmann::basic_json</text>
<text text-anchor="middle" x="205.0928" y="-6.5" font-family="Helvetica,sans-Serif" font-size="10.00" fill="#000000">::emplace</text>
</a>
</g>
</g>
<!-- Node257&#45;&gt;Node267 -->
<g id="edge10" class="edge">
<title>Node257&#45;&gt;Node267</title>
<path fill="none" stroke="#191970" d="M329.9722,-87.8153C311.9668,-72.8646 286.2105,-52.8553 261.457,-38.5 255.2928,-34.9251 248.4943,-31.5776 241.8159,-28.5832"/>
<polygon fill="#191970" stroke="#191970" points="327.7628,-90.5304 337.6681,-94.2901 332.2694,-85.174 327.7628,-90.5304"/>
</g>
<!-- Node260 -->
<g id="node4" class="node">
<title>Node260</title>
<g id="a_node4"><a xlink:href="classnlohmann_1_1basic__json.html#a1416bbec9d9a8eeca21c213cf5290868" target="_top" xlink:title="access specified object element">
<polygon fill="#ffffff" stroke="#000000" points="0,-188.5 0,-216.5 112.7285,-216.5 112.7285,-188.5 0,-188.5"/>
<text text-anchor="start" x="8" y="-204.5" font-family="Helvetica,sans-Serif" font-size="10.00" fill="#000000">nlohmann::basic_json</text>
<text text-anchor="middle" x="56.3643" y="-194.5" font-family="Helvetica,sans-Serif" font-size="10.00" fill="#000000">::operator[]</text>
</a>
</g>
</g>
<!-- Node259&#45;&gt;Node260 -->
<g id="edge3" class="edge">
<title>Node259&#45;&gt;Node260</title>
<path fill="none" stroke="#191970" d="M150.4781,-172.7589C134.0951,-177.9361 116.3334,-183.549 100.6998,-188.4894"/>
<polygon fill="#191970" stroke="#191970" points="151.9888,-175.9522 160.4693,-169.6015 149.8794,-169.2775 151.9888,-175.9522"/>
</g>
<!-- Node262 -->
<g id="node6" class="node">
<title>Node262</title>
<g id="a_node6"><a xlink:href="classnlohmann_1_1basic__json.html#aea1085f2d35cc0e1ce119cf0110119e6" target="_top" xlink:title="add an object to an array">
<polygon fill="#ffffff" stroke="#000000" points="0,-141.5 0,-169.5 112.7285,-169.5 112.7285,-141.5 0,-141.5"/>
<text text-anchor="start" x="8" y="-157.5" font-family="Helvetica,sans-Serif" font-size="10.00" fill="#000000">nlohmann::basic_json</text>
<text text-anchor="middle" x="56.3643" y="-147.5" font-family="Helvetica,sans-Serif" font-size="10.00" fill="#000000">::operator+=</text>
</a>
</g>
</g>
<!-- Node261&#45;&gt;Node262 -->
<g id="edge5" class="edge">
<title>Node261&#45;&gt;Node262</title>
<path fill="none" stroke="#191970" d="M150.4781,-125.7589C134.0951,-130.9361 116.3334,-136.549 100.6998,-141.4894"/>
<polygon fill="#191970" stroke="#191970" points="151.9888,-128.9522 160.4693,-122.6015 149.8794,-122.2775 151.9888,-128.9522"/>
</g>
<!-- Node263 -->
<g id="node7" class="node">
<title>Node263</title>
<g id="a_node7"><a xlink:href="classnlohmann_1_1basic__json.html#ab2716cbe2e997ab8309926b87f044434" target="_top" xlink:title="add an object to an object">
<polygon fill="#ffffff" stroke="#000000" points="0,-94.5 0,-122.5 112.7285,-122.5 112.7285,-94.5 0,-94.5"/>
<text text-anchor="start" x="8" y="-110.5" font-family="Helvetica,sans-Serif" font-size="10.00" fill="#000000">nlohmann::basic_json</text>
<text text-anchor="middle" x="56.3643" y="-100.5" font-family="Helvetica,sans-Serif" font-size="10.00" fill="#000000">::push_back</text>
</a>
</g>
</g>
<!-- Node261&#45;&gt;Node263 -->
<g id="edge6" class="edge">
<title>Node261&#45;&gt;Node263</title>
<path fill="none" stroke="#191970" d="M138.2073,-108.5C129.7401,-108.5 121.1423,-108.5 112.8589,-108.5"/>
<polygon fill="#191970" stroke="#191970" points="138.4407,-112.0001 148.4406,-108.5 138.4406,-105.0001 138.4407,-112.0001"/>
</g>
<!-- Node264 -->
<g id="node8" class="node">
<title>Node264</title>
<g id="a_node8"><a xlink:href="classnlohmann_1_1basic__json.html#a81e0c41a4a9dff4df2f6973f7f8b2a83" target="_top" xlink:title="applies a JSON patch">
<polygon fill="#ffffff" stroke="#000000" points="0,-47.5 0,-75.5 112.7285,-75.5 112.7285,-47.5 0,-47.5"/>
<text text-anchor="start" x="8" y="-63.5" font-family="Helvetica,sans-Serif" font-size="10.00" fill="#000000">nlohmann::basic_json</text>
<text text-anchor="middle" x="56.3643" y="-53.5" font-family="Helvetica,sans-Serif" font-size="10.00" fill="#000000">::patch</text>
</a>
</g>
</g>
<!-- Node261&#45;&gt;Node264 -->
<g id="edge7" class="edge">
<title>Node261&#45;&gt;Node264</title>
<path fill="none" stroke="#191970" d="M150.4781,-91.2411C134.0951,-86.0639 116.3334,-80.451 100.6998,-75.5106"/>
<polygon fill="#191970" stroke="#191970" points="149.8794,-94.7225 160.4693,-94.3985 151.9888,-88.0478 149.8794,-94.7225"/>
</g>
<!-- Node265 -->
<g id="node9" class="node">
<title>Node265</title>
<g id="a_node9"><a xlink:href="classnlohmann_1_1basic__json.html#a543bd5f7490de54c875b2c0912dc9a49" target="_top" xlink:title="creates a diff as a JSON patch">
<polygon fill="#ffffff" stroke="#000000" points="0,-.5 0,-28.5 112.7285,-28.5 112.7285,-.5 0,-.5"/>
<text text-anchor="start" x="8" y="-16.5" font-family="Helvetica,sans-Serif" font-size="10.00" fill="#000000">nlohmann::basic_json</text>
<text text-anchor="middle" x="56.3643" y="-6.5" font-family="Helvetica,sans-Serif" font-size="10.00" fill="#000000">::diff</text>
</a>
</g>
</g>
<!-- Node261&#45;&gt;Node265 -->
<g id="edge8" class="edge">
<title>Node261&#45;&gt;Node265</title>
<path fill="none" stroke="#191970" d="M154.4086,-89.4369C152.4398,-88.193 150.5369,-86.8813 148.7285,-85.5 127.8182,-69.528 133.5175,-54.6296 112.7285,-38.5 107.8548,-34.7186 102.2962,-31.4187 96.6134,-28.5763"/>
<polygon fill="#191970" stroke="#191970" points="152.9388,-92.6254 163.373,-94.4634 156.3623,-86.5197 152.9388,-92.6254"/>
</g>
</g>
</svg>
