<?xml version="1.0" encoding="UTF-8" standalone="no"?>
<!DOCTYPE svg PUBLIC "-//W3C//DTD SVG 1.1//EN"
 "http://www.w3.org/Graphics/SVG/1.1/DTD/svg11.dtd">
<!-- Generated by graphviz version 2.40.1 (20161225.0304)
 -->
<!-- Title: Plaquette::Plaquette Pages: 1 -->
<svg width="341pt" height="148pt"
 viewBox="0.00 0.00 341.15 148.00" xmlns="http://www.w3.org/2000/svg" xmlns:xlink="http://www.w3.org/1999/xlink">
<g id="graph0" class="graph" transform="scale(1 1) rotate(0) translate(4 144)">
<title>Plaquette::Plaquette</title>
<polygon fill="#ffffff" stroke="transparent" points="-4,4 -4,-144 337.1465,-144 337.1465,4 -4,4"/>
<!-- Node0 -->
<g id="node1" class="node">
<title>Node0</title>
<g id="a_node1"><a xlink:title=" ">
<polygon fill="#bfbfbf" stroke="#000000" points="0,-58.5 0,-76.5 106.0684,-76.5 106.0684,-58.5 0,-58.5"/>
<text text-anchor="middle" x="53.0342" y="-64.5" font-family="Helvetica,sans-Serif" font-size="10.00" fill="#000000">Plaquette::Plaquette</text>
</a>
</g>
</g>
<!-- Node1 -->
<g id="node2" class="node">
<title>Node1</title>
<g id="a_node2"><a xlink:href="class_observable_storer.html#a7f4847c4fdbf8764d8f07950c4d4b62a" target="_top" xlink:title=" ">
<polygon fill="#ffffff" stroke="#000000" points="142.0684,-121.5 142.0684,-139.5 333.1465,-139.5 333.1465,-121.5 142.0684,-121.5"/>
<text text-anchor="middle" x="237.6074" y="-127.5" font-family="Helvetica,sans-Serif" font-size="10.00" fill="#000000">ObservableStorer::setObservableName</text>
</a>
</g>
</g>
<!-- Node0&#45;&gt;Node1 -->
<g id="edge1" class="edge">
<title>Node0&#45;&gt;Node1</title>
<path fill="none" stroke="#191970" d="M67.9037,-76.6654C85.1351,-86.8886 114.6784,-103.2069 142.0684,-112.5 149.6818,-115.0831 157.7696,-117.3282 165.8917,-119.2715"/>
<polygon fill="#191970" stroke="#191970" points="165.2623,-122.7173 175.7863,-121.4947 166.7969,-115.8875 165.2623,-122.7173"/>
</g>
<!-- Node2 -->
<g id="node3" class="node">
<title>Node2</title>
<g id="a_node3"><a xlink:href="class_observable_storer.html#a6177ade7609fb0e4b739955eecba20e6" target="_top" xlink:title=" ">
<polygon fill="#ffffff" stroke="#000000" points="158.4697,-74.5 158.4697,-102.5 316.7451,-102.5 316.7451,-74.5 158.4697,-74.5"/>
<text text-anchor="start" x="166.4697" y="-90.5" font-family="Helvetica,sans-Serif" font-size="10.00" fill="#000000">ObservableStorer::setNormalize</text>
<text text-anchor="middle" x="237.6074" y="-80.5" font-family="Helvetica,sans-Serif" font-size="10.00" fill="#000000">ObservableByProcessor</text>
</a>
</g>
</g>
<!-- Node0&#45;&gt;Node2 -->
<g id="edge2" class="edge">
<title>Node0&#45;&gt;Node2</title>
<path fill="none" stroke="#191970" d="M106.4204,-73.5741C119.4427,-75.0557 133.73,-76.6812 147.9346,-78.2974"/>
<polygon fill="#191970" stroke="#191970" points="147.9122,-81.8173 158.2438,-79.4703 148.7036,-74.8622 147.9122,-81.8173"/>
</g>
<!-- Node3 -->
<g id="node4" class="node">
<title>Node3</title>
<g id="a_node4"><a xlink:href="class_plaquette.html#a011e1ca450fb40273ec8efa6d094c279" target="_top" xlink:title=" ">
<polygon fill="#ffffff" stroke="#000000" points="174.5732,-37.5 174.5732,-55.5 300.6416,-55.5 300.6416,-37.5 174.5732,-37.5"/>
<text text-anchor="middle" x="237.6074" y="-43.5" font-family="Helvetica,sans-Serif" font-size="10.00" fill="#000000">Plaquette::setLatticeSize</text>
</a>
</g>
</g>
<!-- Node0&#45;&gt;Node3 -->
<g id="edge3" class="edge">
<title>Node0&#45;&gt;Node3</title>
<path fill="none" stroke="#191970" d="M106.4204,-61.4259C124.5532,-59.3629 145.1385,-57.0207 164.5382,-54.8135"/>
<polygon fill="#191970" stroke="#191970" points="165.0155,-58.2819 174.5557,-53.6738 164.2241,-51.3268 165.0155,-58.2819"/>
</g>
<!-- Node4 -->
<g id="node5" class="node">
<title>Node4</title>
<g id="a_node5"><a xlink:href="class_parameters.html#aff629ab94d99807364926008fb4e1e67" target="_top" xlink:title=" ">
<polygon fill="#ffffff" stroke="#000000" points="160.6816,-.5 160.6816,-18.5 314.5332,-18.5 314.5332,-.5 160.6816,-.5"/>
<text text-anchor="middle" x="237.6074" y="-6.5" font-family="Helvetica,sans-Serif" font-size="10.00" fill="#000000">Parameters::getSubLatticeSize</text>
</a>
</g>
</g>
<!-- Node0&#45;&gt;Node4 -->
<g id="edge4" class="edge">
<title>Node0&#45;&gt;Node4</title>
<path fill="none" stroke="#191970" d="M70.6705,-58.4113C88.3254,-49.6424 116.4718,-36.5467 142.0684,-28.5 151.5062,-25.5331 161.6196,-22.9299 171.6071,-20.6793"/>
<polygon fill="#191970" stroke="#191970" points="172.4828,-24.071 181.5228,-18.5457 171.0103,-17.2277 172.4828,-24.071"/>
</g>
</g>
</svg>
