<?xml version="1.0" encoding="UTF-8" standalone="no"?>
<!DOCTYPE svg PUBLIC "-//W3C//DTD SVG 1.1//EN"
 "http://www.w3.org/Graphics/SVG/1.1/DTD/svg11.dtd">
<!-- Generated by graphviz version 2.40.1 (20161225.0304)
 -->
<!-- Title: SU3::inv Pages: 1 -->
<svg width="249pt" height="74pt"
 viewBox="0.00 0.00 249.43 74.00" xmlns="http://www.w3.org/2000/svg" xmlns:xlink="http://www.w3.org/1999/xlink">
<g id="graph0" class="graph" transform="scale(1 1) rotate(0) translate(4 70)">
<title>SU3::inv</title>
<polygon fill="#ffffff" stroke="transparent" points="-4,4 -4,-70 245.4277,-70 245.4277,4 -4,4"/>
<!-- Node17 -->
<g id="node1" class="node">
<title>Node17</title>
<g id="a_node1"><a xlink:title=" ">
<polygon fill="#bfbfbf" stroke="#000000" points="187.6348,-26.5 187.6348,-44.5 241.4277,-44.5 241.4277,-26.5 187.6348,-26.5"/>
<text text-anchor="middle" x="214.5313" y="-32.5" font-family="Helvetica,sans-Serif" font-size="10.00" fill="#000000">SU3::inv</text>
</a>
</g>
</g>
<!-- Node18 -->
<g id="node2" class="node">
<title>Node18</title>
<g id="a_node2"><a xlink:href="class_luscher_action.html#a42285b6e3015935588e1fab6b90c1a11" target="_top" xlink:title="computeStaple computes the staple at given poisition.">
<polygon fill="#ffffff" stroke="#000000" points="0,-47.5 0,-65.5 151.6348,-65.5 151.6348,-47.5 0,-47.5"/>
<text text-anchor="middle" x="75.8174" y="-53.5" font-family="Helvetica,sans-Serif" font-size="10.00" fill="#000000">LuscherAction::computeStaple</text>
</a>
</g>
</g>
<!-- Node17&#45;&gt;Node18 -->
<g id="edge1" class="edge">
<title>Node17&#45;&gt;Node18</title>
<path fill="none" stroke="#191970" d="M177.5678,-41.0959C164.6624,-43.0497 149.8272,-45.2956 135.5471,-47.4575"/>
<polygon fill="#191970" stroke="#191970" points="178.0931,-44.5564 187.4565,-39.5989 177.0453,-37.6352 178.0931,-44.5564"/>
</g>
<!-- Node19 -->
<g id="node3" class="node">
<title>Node19</title>
<g id="a_node3"><a xlink:href="class_wilson_gauge_action.html#af1f6ba42fcc2b923dc3b37bf150bfae9" target="_top" xlink:title="computeStaple computes the staple at given poisition.">
<polygon fill="#ffffff" stroke="#000000" points="21.1279,-.5 21.1279,-28.5 130.5068,-28.5 130.5068,-.5 21.1279,-.5"/>
<text text-anchor="start" x="29.1279" y="-16.5" font-family="Helvetica,sans-Serif" font-size="10.00" fill="#000000">WilsonGaugeAction::</text>
<text text-anchor="middle" x="75.8174" y="-6.5" font-family="Helvetica,sans-Serif" font-size="10.00" fill="#000000">computeStaple</text>
</a>
</g>
</g>
<!-- Node17&#45;&gt;Node19 -->
<g id="edge2" class="edge">
<title>Node17&#45;&gt;Node19</title>
<path fill="none" stroke="#191970" d="M177.4679,-29.8889C163.1058,-27.7147 146.3652,-25.1803 130.6633,-22.8032"/>
<polygon fill="#191970" stroke="#191970" points="177.0453,-33.3648 187.4565,-31.4011 178.0931,-26.4436 177.0453,-33.3648"/>
</g>
</g>
</svg>
