<?xml version="1.0" encoding="UTF-8" standalone="no"?>
<!DOCTYPE svg PUBLIC "-//W3C//DTD SVG 1.1//EN"
 "http://www.w3.org/Graphics/SVG/1.1/DTD/svg11.dtd">
<!-- Generated by graphviz version 2.40.1 (20161225.0304)
 -->
<!-- Title: TopologicalCharge Pages: 1 -->
<svg width="123pt" height="148pt"
 viewBox="0.00 0.00 123.01 148.00" xmlns="http://www.w3.org/2000/svg" xmlns:xlink="http://www.w3.org/1999/xlink">
<g id="graph0" class="graph" transform="scale(1 1) rotate(0) translate(4 144)">
<title>TopologicalCharge</title>
<polygon fill="#ffffff" stroke="transparent" points="-4,4 -4,-144 119.0068,-144 119.0068,4 -4,4"/>
<!-- Node2 -->
<g id="node1" class="node">
<title>Node2</title>
<g id="a_node1"><a xlink:title=" ">
<polygon fill="#bfbfbf" stroke="#000000" points="0,-.5 0,-18.5 98.832,-18.5 98.832,-.5 0,-.5"/>
<text text-anchor="middle" x="49.416" y="-6.5" font-family="Helvetica,sans-Serif" font-size="10.00" fill="#000000">TopologicalCharge</text>
</a>
</g>
</g>
<!-- Node3 -->
<g id="node2" class="node">
<title>Node3</title>
<g id="a_node2"><a xlink:href="class_correlator.html" target="_top" xlink:title=" ">
<polygon fill="#ffffff" stroke="#000000" points="19.187,-56.5 19.187,-74.5 79.645,-74.5 79.645,-56.5 19.187,-56.5"/>
<text text-anchor="middle" x="49.416" y="-62.5" font-family="Helvetica,sans-Serif" font-size="10.00" fill="#000000">Correlator</text>
</a>
</g>
</g>
<!-- Node3&#45;&gt;Node2 -->
<g id="edge1" class="edge">
<title>Node3&#45;&gt;Node2</title>
<path fill="none" stroke="#191970" d="M49.416,-46.2065C49.416,-36.8384 49.416,-26.0262 49.416,-18.5752"/>
<polygon fill="#191970" stroke="#191970" points="45.9161,-46.2527 49.416,-56.2527 52.9161,-46.2528 45.9161,-46.2527"/>
</g>
<!-- Node4 -->
<g id="node3" class="node">
<title>Node4</title>
<g id="a_node3"><a xlink:href="class_observable_storer.html" target="_top" xlink:title=" ">
<polygon fill="#ffffff" stroke="#000000" points="2.2314,-121.5 2.2314,-139.5 96.6006,-139.5 96.6006,-121.5 2.2314,-121.5"/>
<text text-anchor="middle" x="49.416" y="-127.5" font-family="Helvetica,sans-Serif" font-size="10.00" fill="#000000">ObservableStorer</text>
</a>
</g>
</g>
<!-- Node4&#45;&gt;Node3 -->
<g id="edge2" class="edge">
<title>Node4&#45;&gt;Node3</title>
<path fill="none" stroke="#9a32cd" stroke-dasharray="5,2" d="M49.416,-111.1265C49.416,-99.1522 49.416,-84.3205 49.416,-74.8821"/>
<polygon fill="#9a32cd" stroke="#9a32cd" points="45.9161,-111.462 49.416,-121.462 52.9161,-111.4621 45.9161,-111.462"/>
<text text-anchor="middle" x="82.2114" y="-95" font-family="Helvetica,sans-Serif" font-size="10.00" fill="#000000"> m_observable</text>
</g>
</g>
</svg>
