<?xml version="1.0" encoding="UTF-8" standalone="no"?>
<!DOCTYPE svg PUBLIC "-//W3C//DTD SVG 1.1//EN"
 "http://www.w3.org/Graphics/SVG/1.1/DTD/svg11.dtd">
<!-- Generated by graphviz version 2.40.1 (20161225.0304)
 -->
<!-- Title: Parallel::Neighbours::getNeighbours Pages: 1 -->
<svg width="528pt" height="100pt"
 viewBox="0.00 0.00 528.24 100.00" xmlns="http://www.w3.org/2000/svg" xmlns:xlink="http://www.w3.org/1999/xlink">
<g id="graph0" class="graph" transform="scale(1 1) rotate(0) translate(4 96)">
<title>Parallel::Neighbours::getNeighbours</title>
<polygon fill="#ffffff" stroke="transparent" points="-4,4 -4,-96 524.2393,-96 524.2393,4 -4,4"/>
<!-- Node19 -->
<g id="node1" class="node">
<title>Node19</title>
<g id="a_node1"><a xlink:title=" ">
<polygon fill="#bfbfbf" stroke="#000000" points="414.1904,-23.5 414.1904,-51.5 520.2393,-51.5 520.2393,-23.5 414.1904,-23.5"/>
<text text-anchor="start" x="422.1904" y="-39.5" font-family="Helvetica,sans-Serif" font-size="10.00" fill="#000000">Parallel::Neighbours</text>
<text text-anchor="middle" x="467.2148" y="-29.5" font-family="Helvetica,sans-Serif" font-size="10.00" fill="#000000">::getNeighbours</text>
</a>
</g>
</g>
<!-- Node20 -->
<g id="node2" class="node">
<title>Node20</title>
<g id="a_node2"><a xlink:href="class_parallel_1_1_communicator.html#a453ebde0502ed86b8bd95dede6f8e69c" target="_top" xlink:title=" ">
<polygon fill="#ffffff" stroke="#000000" points="207.3687,-47.5 207.3687,-75.5 358.4565,-75.5 358.4565,-47.5 207.3687,-47.5"/>
<text text-anchor="start" x="215.3687" y="-63.5" font-family="Helvetica,sans-Serif" font-size="10.00" fill="#000000">Parallel::Communicator</text>
<text text-anchor="middle" x="282.9126" y="-53.5" font-family="Helvetica,sans-Serif" font-size="10.00" fill="#000000">::getNeighboursNeighbourLink</text>
</a>
</g>
</g>
<!-- Node19&#45;&gt;Node20 -->
<g id="edge1" class="edge">
<title>Node19&#45;&gt;Node20</title>
<path fill="none" stroke="#191970" d="M403.5854,-45.7859C389.1263,-47.6688 373.6278,-49.687 358.719,-51.6284"/>
<polygon fill="#191970" stroke="#191970" points="404.4427,-49.2039 413.907,-44.4418 403.5387,-42.2625 404.4427,-49.2039"/>
</g>
<!-- Node23 -->
<g id="node5" class="node">
<title>Node23</title>
<g id="a_node5"><a xlink:href="class_parallel_1_1_communicator.html#aebe919d44a02b37c98161ff4d3d23f6f" target="_top" xlink:title=" ">
<polygon fill="#ffffff" stroke="#000000" points="187.6348,-.5 187.6348,-28.5 378.1904,-28.5 378.1904,-.5 187.6348,-.5"/>
<text text-anchor="start" x="195.6348" y="-16.5" font-family="Helvetica,sans-Serif" font-size="10.00" fill="#000000">Parallel::Communicator</text>
<text text-anchor="middle" x="282.9126" y="-6.5" font-family="Helvetica,sans-Serif" font-size="10.00" fill="#000000">::getNeighboursNeighbourNegativeLink</text>
</a>
</g>
</g>
<!-- Node19&#45;&gt;Node23 -->
<g id="edge4" class="edge">
<title>Node19&#45;&gt;Node23</title>
<path fill="none" stroke="#191970" d="M403.7414,-29.5788C395.5568,-28.5574 387.0369,-27.4942 378.4778,-26.4261"/>
<polygon fill="#191970" stroke="#191970" points="403.5505,-33.0821 413.907,-30.8474 404.4174,-26.136 403.5505,-33.0821"/>
</g>
<!-- Node21 -->
<g id="node3" class="node">
<title>Node21</title>
<g id="a_node3"><a xlink:href="class_luscher_action.html#a42285b6e3015935588e1fab6b90c1a11" target="_top" xlink:title=" ">
<polygon fill="#ffffff" stroke="#000000" points="0,-73.5 0,-91.5 151.6348,-91.5 151.6348,-73.5 0,-73.5"/>
<text text-anchor="middle" x="75.8174" y="-79.5" font-family="Helvetica,sans-Serif" font-size="10.00" fill="#000000">LuscherAction::computeStaple</text>
</a>
</g>
</g>
<!-- Node20&#45;&gt;Node21 -->
<g id="edge2" class="edge">
<title>Node20&#45;&gt;Node21</title>
<path fill="none" stroke="#191970" d="M197.0156,-70.2102C182.0677,-71.7259 166.6142,-73.293 151.951,-74.7798"/>
<polygon fill="#191970" stroke="#191970" points="197.6715,-73.6617 207.2674,-69.1706 196.9653,-66.6974 197.6715,-73.6617"/>
</g>
<!-- Node22 -->
<g id="node4" class="node">
<title>Node22</title>
<g id="a_node4"><a xlink:href="class_wilson_gauge_action.html#af1f6ba42fcc2b923dc3b37bf150bfae9" target="_top" xlink:title=" ">
<polygon fill="#ffffff" stroke="#000000" points="21.1279,-26.5 21.1279,-54.5 130.5068,-54.5 130.5068,-26.5 21.1279,-26.5"/>
<text text-anchor="start" x="29.1279" y="-42.5" font-family="Helvetica,sans-Serif" font-size="10.00" fill="#000000">WilsonGaugeAction::</text>
<text text-anchor="middle" x="75.8174" y="-32.5" font-family="Helvetica,sans-Serif" font-size="10.00" fill="#000000">computeStaple</text>
</a>
</g>
</g>
<!-- Node20&#45;&gt;Node22 -->
<g id="edge3" class="edge">
<title>Node20&#45;&gt;Node22</title>
<path fill="none" stroke="#191970" d="M197.0266,-52.7909C174.5278,-50.5095 150.8827,-48.1118 130.5107,-46.046"/>
<polygon fill="#191970" stroke="#191970" points="196.9653,-56.3026 207.2674,-53.8294 197.6715,-49.3383 196.9653,-56.3026"/>
</g>
</g>
</svg>
