<?xml version="1.0" encoding="UTF-8" standalone="no"?>
<!DOCTYPE svg PUBLIC "-//W3C//DTD SVG 1.1//EN"
 "http://www.w3.org/Graphics/SVG/1.1/DTD/svg11.dtd">
<!-- Generated by graphviz version 2.40.1 (20161225.0304)
 -->
<!-- Title: nlohmann::basic_json::iter_impl::operator!= Pages: 1 -->
<svg width="271pt" height="37pt"
 viewBox="0.00 0.00 270.56 37.00" xmlns="http://www.w3.org/2000/svg" xmlns:xlink="http://www.w3.org/1999/xlink">
<g id="graph0" class="graph" transform="scale(1 1) rotate(0) translate(4 33)">
<title>nlohmann::basic_json::iter_impl::operator!=</title>
<polygon fill="#ffffff" stroke="transparent" points="-4,4 -4,-33 266.5557,-33 266.5557,4 -4,4"/>
<!-- Node13 -->
<g id="node1" class="node">
<title>Node13</title>
<g id="a_node1"><a xlink:title="comparison: not equal">
<polygon fill="#bfbfbf" stroke="#000000" points="0,-.5 0,-28.5 112.7285,-28.5 112.7285,-.5 0,-.5"/>
<text text-anchor="start" x="8" y="-16.5" font-family="Helvetica,sans-Serif" font-size="10.00" fill="#000000">nlohmann::basic_json</text>
<text text-anchor="middle" x="56.3643" y="-6.5" font-family="Helvetica,sans-Serif" font-size="10.00" fill="#000000">::iter_impl::operator!=</text>
</a>
</g>
</g>
<!-- Node14 -->
<g id="node2" class="node">
<title>Node14</title>
<g id="a_node2"><a xlink:href="classnlohmann_1_1basic__json_1_1iter__impl.html#af3beb0d08550188082ea64d8becd12fb" target="_top" xlink:title="comparison: equal">
<polygon fill="#ffffff" stroke="#000000" points="148.7285,-.5 148.7285,-28.5 262.5557,-28.5 262.5557,-.5 148.7285,-.5"/>
<text text-anchor="start" x="156.7285" y="-16.5" font-family="Helvetica,sans-Serif" font-size="10.00" fill="#000000">nlohmann::basic_json</text>
<text text-anchor="middle" x="205.6421" y="-6.5" font-family="Helvetica,sans-Serif" font-size="10.00" fill="#000000">::iter_impl::operator==</text>
</a>
</g>
</g>
<!-- Node13&#45;&gt;Node14 -->
<g id="edge1" class="edge">
<title>Node13&#45;&gt;Node14</title>
<path fill="none" stroke="#191970" d="M112.7998,-14.5C121.2265,-14.5 129.9829,-14.5 138.6027,-14.5"/>
<polygon fill="#191970" stroke="#191970" points="138.6309,-18.0001 148.6309,-14.5 138.6308,-11.0001 138.6309,-18.0001"/>
</g>
</g>
</svg>
