<?xml version="1.0" encoding="UTF-8" standalone="no"?>
<!DOCTYPE svg PUBLIC "-//W3C//DTD SVG 1.1//EN"
 "http://www.w3.org/Graphics/SVG/1.1/DTD/svg11.dtd">
<!-- Generated by graphviz version 2.40.1 (20161225.0304)
 -->
<!-- Title: SU3::setComplex Pages: 1 -->
<svg width="242pt" height="101pt"
 viewBox="0.00 0.00 241.63 101.00" xmlns="http://www.w3.org/2000/svg" xmlns:xlink="http://www.w3.org/1999/xlink">
<g id="graph0" class="graph" transform="scale(1 1) rotate(0) translate(4 97)">
<title>SU3::setComplex</title>
<polygon fill="#ffffff" stroke="transparent" points="-4,4 -4,-97 237.6299,-97 237.6299,4 -4,4"/>
<!-- Node57 -->
<g id="node1" class="node">
<title>Node57</title>
<g id="a_node1"><a xlink:title=" ">
<polygon fill="#bfbfbf" stroke="#000000" points="139.8223,-37.5 139.8223,-55.5 233.6299,-55.5 233.6299,-37.5 139.8223,-37.5"/>
<text text-anchor="middle" x="186.7261" y="-43.5" font-family="Helvetica,sans-Serif" font-size="10.00" fill="#000000">SU3::setComplex</text>
</a>
</g>
</g>
<!-- Node58 -->
<g id="node2" class="node">
<title>Node58</title>
<g id="a_node2"><a xlink:href="class_exp_luscher.html#a8e4c0689c633728527e1220094c664c1" target="_top" xlink:title=" ">
<polygon fill="#ffffff" stroke="#000000" points="6.6675,-74.5 6.6675,-92.5 97.1548,-92.5 97.1548,-74.5 6.6675,-74.5"/>
<text text-anchor="middle" x="51.9111" y="-80.5" font-family="Helvetica,sans-Serif" font-size="10.00" fill="#000000">ExpLuscher::exp</text>
</a>
</g>
</g>
<!-- Node57&#45;&gt;Node58 -->
<g id="edge1" class="edge">
<title>Node57&#45;&gt;Node58</title>
<path fill="none" stroke="#191970" d="M144.0842,-58.2031C124.9951,-63.4421 102.8283,-69.5258 85.0174,-74.414"/>
<polygon fill="#191970" stroke="#191970" points="145.0296,-61.5731 153.7466,-55.5512 143.1769,-54.8227 145.0296,-61.5731"/>
</g>
<!-- Node59 -->
<g id="node3" class="node">
<title>Node59</title>
<g id="a_node3"><a xlink:href="class_s_u3_exp.html#a9760c17b9c3a4b6d0a5cd4d88c6d577e" target="_top" xlink:title=" ">
<polygon fill="#ffffff" stroke="#000000" points="14.729,-37.5 14.729,-55.5 89.0933,-55.5 89.0933,-37.5 14.729,-37.5"/>
<text text-anchor="middle" x="51.9111" y="-43.5" font-family="Helvetica,sans-Serif" font-size="10.00" fill="#000000">SU3Exp::exp</text>
</a>
</g>
</g>
<!-- Node57&#45;&gt;Node59 -->
<g id="edge2" class="edge">
<title>Node57&#45;&gt;Node59</title>
<path fill="none" stroke="#191970" d="M129.3985,-46.5C115.9028,-46.5 101.8556,-46.5 89.487,-46.5"/>
<polygon fill="#191970" stroke="#191970" points="129.5744,-50.0001 139.5743,-46.5 129.5743,-43.0001 129.5744,-50.0001"/>
</g>
<!-- Node60 -->
<g id="node4" class="node">
<title>Node60</title>
<g id="a_node4"><a xlink:href="class_test_suite.html#af7291e6d8b53443604ee0c1fcf1fadfc" target="_top" xlink:title=" ">
<polygon fill="#ffffff" stroke="#000000" points="0,-.5 0,-18.5 103.8223,-18.5 103.8223,-.5 0,-.5"/>
<text text-anchor="middle" x="51.9111" y="-6.5" font-family="Helvetica,sans-Serif" font-size="10.00" fill="#000000">TestSuite::TestSuite</text>
</a>
</g>
</g>
<!-- Node57&#45;&gt;Node60 -->
<g id="edge3" class="edge">
<title>Node57&#45;&gt;Node60</title>
<path fill="none" stroke="#191970" d="M144.0842,-34.7969C124.9951,-29.5579 102.8283,-23.4742 85.0174,-18.586"/>
<polygon fill="#191970" stroke="#191970" points="143.1769,-38.1773 153.7466,-37.4488 145.0296,-31.4269 143.1769,-38.1773"/>
</g>
</g>
</svg>
