<?xml version="1.0" encoding="UTF-8" standalone="no"?>
<!DOCTYPE svg PUBLIC "-//W3C//DTD SVG 1.1//EN"
 "http://www.w3.org/Graphics/SVG/1.1/DTD/svg11.dtd">
<!-- Generated by graphviz version 2.40.1 (20161225.0304)
 -->
<!-- Title: nlohmann::basic_json::is_string Pages: 1 -->
<svg width="418pt" height="131pt"
 viewBox="0.00 0.00 418.19 131.00" xmlns="http://www.w3.org/2000/svg" xmlns:xlink="http://www.w3.org/1999/xlink">
<g id="graph0" class="graph" transform="scale(1 1) rotate(0) translate(4 127)">
<title>nlohmann::basic_json::is_string</title>
<polygon fill="#ffffff" stroke="transparent" points="-4,4 -4,-127 414.1855,-127 414.1855,4 -4,4"/>
<!-- Node307 -->
<g id="node1" class="node">
<title>Node307</title>
<g id="a_node1"><a xlink:title="return whether value is a string">
<polygon fill="#bfbfbf" stroke="#000000" points="297.457,-47.5 297.457,-75.5 410.1855,-75.5 410.1855,-47.5 297.457,-47.5"/>
<text text-anchor="start" x="305.457" y="-63.5" font-family="Helvetica,sans-Serif" font-size="10.00" fill="#000000">nlohmann::basic_json</text>
<text text-anchor="middle" x="353.8213" y="-53.5" font-family="Helvetica,sans-Serif" font-size="10.00" fill="#000000">::is_string</text>
</a>
</g>
</g>
<!-- Node308 -->
<g id="node2" class="node">
<title>Node308</title>
<g id="a_node2"><a xlink:href="classnlohmann_1_1basic__json.html#a6362b88718eb5c6d4fed6a61eed44b95" target="_top" xlink:title="return whether type is primitive">
<polygon fill="#ffffff" stroke="#000000" points="148.7285,-94.5 148.7285,-122.5 261.457,-122.5 261.457,-94.5 148.7285,-94.5"/>
<text text-anchor="start" x="156.7285" y="-110.5" font-family="Helvetica,sans-Serif" font-size="10.00" fill="#000000">nlohmann::basic_json</text>
<text text-anchor="middle" x="205.0928" y="-100.5" font-family="Helvetica,sans-Serif" font-size="10.00" fill="#000000">::is_primitive</text>
</a>
</g>
</g>
<!-- Node307&#45;&gt;Node308 -->
<g id="edge1" class="edge">
<title>Node307&#45;&gt;Node308</title>
<path fill="none" stroke="#191970" d="M299.2066,-78.7589C282.8237,-83.9361 265.0619,-89.549 249.4283,-94.4894"/>
<polygon fill="#191970" stroke="#191970" points="300.7173,-81.9522 309.1978,-75.6015 298.608,-75.2775 300.7173,-81.9522"/>
</g>
<!-- Node309 -->
<g id="node3" class="node">
<title>Node309</title>
<g id="a_node3"><a xlink:href="classnlohmann_1_1basic__json.html#a068a16e76be178e83da6a192916923ed" target="_top" xlink:title="remove element given an iterator">
<polygon fill="#ffffff" stroke="#000000" points="148.7285,-47.5 148.7285,-75.5 261.457,-75.5 261.457,-47.5 148.7285,-47.5"/>
<text text-anchor="start" x="156.7285" y="-63.5" font-family="Helvetica,sans-Serif" font-size="10.00" fill="#000000">nlohmann::basic_json</text>
<text text-anchor="middle" x="205.0928" y="-53.5" font-family="Helvetica,sans-Serif" font-size="10.00" fill="#000000">::erase</text>
</a>
</g>
</g>
<!-- Node307&#45;&gt;Node309 -->
<g id="edge2" class="edge">
<title>Node307&#45;&gt;Node309</title>
<path fill="none" stroke="#191970" d="M286.9358,-61.5C278.4686,-61.5 269.8708,-61.5 261.5874,-61.5"/>
<polygon fill="#191970" stroke="#191970" points="287.1692,-65.0001 297.1691,-61.5 287.1691,-58.0001 287.1692,-65.0001"/>
</g>
<!-- Node311 -->
<g id="node5" class="node">
<title>Node311</title>
<g id="a_node5"><a xlink:href="classnlohmann_1_1basic__json.html#adaa1ed0a889d86c8e0216a3d66980f76" target="_top" xlink:title="exchanges the values">
<polygon fill="#ffffff" stroke="#000000" points="148.7285,-.5 148.7285,-28.5 261.457,-28.5 261.457,-.5 148.7285,-.5"/>
<text text-anchor="start" x="156.7285" y="-16.5" font-family="Helvetica,sans-Serif" font-size="10.00" fill="#000000">nlohmann::basic_json</text>
<text text-anchor="middle" x="205.0928" y="-6.5" font-family="Helvetica,sans-Serif" font-size="10.00" fill="#000000">::swap</text>
</a>
</g>
</g>
<!-- Node307&#45;&gt;Node311 -->
<g id="edge4" class="edge">
<title>Node307&#45;&gt;Node311</title>
<path fill="none" stroke="#191970" d="M299.2066,-44.2411C282.8237,-39.0639 265.0619,-33.451 249.4283,-28.5106"/>
<polygon fill="#191970" stroke="#191970" points="298.608,-47.7225 309.1978,-47.3985 300.7173,-41.0478 298.608,-47.7225"/>
</g>
<!-- Node310 -->
<g id="node4" class="node">
<title>Node310</title>
<g id="a_node4"><a xlink:href="classnlohmann_1_1basic__json.html#a81e0c41a4a9dff4df2f6973f7f8b2a83" target="_top" xlink:title="applies a JSON patch">
<polygon fill="#ffffff" stroke="#000000" points="0,-47.5 0,-75.5 112.7285,-75.5 112.7285,-47.5 0,-47.5"/>
<text text-anchor="start" x="8" y="-63.5" font-family="Helvetica,sans-Serif" font-size="10.00" fill="#000000">nlohmann::basic_json</text>
<text text-anchor="middle" x="56.3643" y="-53.5" font-family="Helvetica,sans-Serif" font-size="10.00" fill="#000000">::patch</text>
</a>
</g>
</g>
<!-- Node309&#45;&gt;Node310 -->
<g id="edge3" class="edge">
<title>Node309&#45;&gt;Node310</title>
<path fill="none" stroke="#191970" d="M138.2073,-61.5C129.7401,-61.5 121.1423,-61.5 112.8589,-61.5"/>
<polygon fill="#191970" stroke="#191970" points="138.4407,-65.0001 148.4406,-61.5 138.4406,-58.0001 138.4407,-65.0001"/>
</g>
</g>
</svg>
