<?xml version="1.0" encoding="UTF-8" standalone="no"?>
<!DOCTYPE svg PUBLIC "-//W3C//DTD SVG 1.1//EN"
 "http://www.w3.org/Graphics/SVG/1.1/DTD/svg11.dtd">
<!-- Generated by graphviz version 2.40.1 (20161225.0304)
 -->
<!-- Title: nlohmann::basic_json::dump Pages: 1 -->
<svg width="266pt" height="37pt"
 viewBox="0.00 0.00 265.85 37.00" xmlns="http://www.w3.org/2000/svg" xmlns:xlink="http://www.w3.org/1999/xlink">
<g id="graph0" class="graph" transform="scale(1 1) rotate(0) translate(4 33)">
<title>nlohmann::basic_json::dump</title>
<polygon fill="#ffffff" stroke="transparent" points="-4,4 -4,-33 261.8486,-33 261.8486,4 -4,4"/>
<!-- Node115 -->
<g id="node1" class="node">
<title>Node115</title>
<g id="a_node1"><a xlink:title="serialization">
<polygon fill="#bfbfbf" stroke="#000000" points="145.1201,-.5 145.1201,-28.5 257.8486,-28.5 257.8486,-.5 145.1201,-.5"/>
<text text-anchor="start" x="153.1201" y="-16.5" font-family="Helvetica,sans-Serif" font-size="10.00" fill="#000000">nlohmann::basic_json</text>
<text text-anchor="middle" x="201.4844" y="-6.5" font-family="Helvetica,sans-Serif" font-size="10.00" fill="#000000">::dump</text>
</a>
</g>
</g>
<!-- Node116 -->
<g id="node2" class="node">
<title>Node116</title>
<g id="a_node2"><a xlink:href="structstd_1_1hash_3_01nlohmann_1_1json_01_4.html#aec1567d1fa47dbe5b77954dce3a55b64" target="_top" xlink:title="return a hash value for a JSON object">
<polygon fill="#ffffff" stroke="#000000" points="0,-.5 0,-28.5 109.1201,-28.5 109.1201,-.5 0,-.5"/>
<text text-anchor="start" x="8" y="-16.5" font-family="Helvetica,sans-Serif" font-size="10.00" fill="#000000">std::hash&lt; nlohmann</text>
<text text-anchor="middle" x="54.5601" y="-6.5" font-family="Helvetica,sans-Serif" font-size="10.00" fill="#000000">::json &gt;::operator()</text>
</a>
</g>
</g>
<!-- Node115&#45;&gt;Node116 -->
<g id="edge1" class="edge">
<title>Node115&#45;&gt;Node116</title>
<path fill="none" stroke="#191970" d="M134.8727,-14.5C126.4136,-14.5 117.8323,-14.5 109.5827,-14.5"/>
<polygon fill="#191970" stroke="#191970" points="135.0998,-18.0001 145.0998,-14.5 135.0998,-11.0001 135.0998,-18.0001"/>
</g>
</g>
</svg>
