<?xml version="1.0" encoding="UTF-8" standalone="no"?>
<!DOCTYPE svg PUBLIC "-//W3C//DTD SVG 1.1//EN"
 "http://www.w3.org/Graphics/SVG/1.1/DTD/svg11.dtd">
<!-- Generated by graphviz version 2.40.1 (20161225.0304)
 -->
<!-- Title: nlohmann::basic_json::type Pages: 1 -->
<svg width="269pt" height="84pt"
 viewBox="0.00 0.00 269.46 84.00" xmlns="http://www.w3.org/2000/svg" xmlns:xlink="http://www.w3.org/1999/xlink">
<g id="graph0" class="graph" transform="scale(1 1) rotate(0) translate(4 80)">
<title>nlohmann::basic_json::type</title>
<polygon fill="#ffffff" stroke="transparent" points="-4,4 -4,-80 265.457,-80 265.457,4 -4,4"/>
<!-- Node522 -->
<g id="node1" class="node">
<title>Node522</title>
<g id="a_node1"><a xlink:title="return the type of the JSON value (explicit)">
<polygon fill="#bfbfbf" stroke="#000000" points="148.7285,-23.5 148.7285,-51.5 261.457,-51.5 261.457,-23.5 148.7285,-23.5"/>
<text text-anchor="start" x="156.7285" y="-39.5" font-family="Helvetica,sans-Serif" font-size="10.00" fill="#000000">nlohmann::basic_json</text>
<text text-anchor="middle" x="205.0928" y="-29.5" font-family="Helvetica,sans-Serif" font-size="10.00" fill="#000000">::type</text>
</a>
</g>
</g>
<!-- Node523 -->
<g id="node2" class="node">
<title>Node523</title>
<g id="a_node2"><a xlink:href="classnlohmann_1_1basic__json.html#aefa46bd2d96bb77a38d1c8b431eab44f" target="_top" xlink:title="get a pointer value (implicit)">
<polygon fill="#ffffff" stroke="#000000" points="0,-47.5 0,-75.5 112.7285,-75.5 112.7285,-47.5 0,-47.5"/>
<text text-anchor="start" x="8" y="-63.5" font-family="Helvetica,sans-Serif" font-size="10.00" fill="#000000">nlohmann::basic_json</text>
<text text-anchor="middle" x="56.3643" y="-53.5" font-family="Helvetica,sans-Serif" font-size="10.00" fill="#000000">::get_ptr</text>
</a>
</g>
</g>
<!-- Node522&#45;&gt;Node523 -->
<g id="edge1" class="edge">
<title>Node522&#45;&gt;Node523</title>
<path fill="none" stroke="#191970" d="M138.4863,-48.2481C129.9291,-49.629 121.2333,-51.0322 112.8589,-52.3836"/>
<polygon fill="#191970" stroke="#191970" points="139.1259,-51.6903 148.4406,-46.6418 138.0107,-44.7797 139.1259,-51.6903"/>
</g>
<!-- Node524 -->
<g id="node3" class="node">
<title>Node524</title>
<g id="a_node3"><a xlink:href="classnlohmann_1_1basic__json.html#a543bd5f7490de54c875b2c0912dc9a49" target="_top" xlink:title="creates a diff as a JSON patch">
<polygon fill="#ffffff" stroke="#000000" points="0,-.5 0,-28.5 112.7285,-28.5 112.7285,-.5 0,-.5"/>
<text text-anchor="start" x="8" y="-16.5" font-family="Helvetica,sans-Serif" font-size="10.00" fill="#000000">nlohmann::basic_json</text>
<text text-anchor="middle" x="56.3643" y="-6.5" font-family="Helvetica,sans-Serif" font-size="10.00" fill="#000000">::diff</text>
</a>
</g>
</g>
<!-- Node522&#45;&gt;Node524 -->
<g id="edge2" class="edge">
<title>Node522&#45;&gt;Node524</title>
<path fill="none" stroke="#191970" d="M138.4863,-27.1997C129.9291,-25.8764 121.2333,-24.5316 112.8589,-23.2366"/>
<polygon fill="#191970" stroke="#191970" points="138.0232,-30.6696 148.4406,-28.7391 139.093,-23.7518 138.0232,-30.6696"/>
</g>
</g>
</svg>
