<?xml version="1.0" encoding="UTF-8" standalone="no"?>
<!DOCTYPE svg PUBLIC "-//W3C//DTD SVG 1.1//EN"
 "http://www.w3.org/Graphics/SVG/1.1/DTD/svg11.dtd">
<!-- Generated by graphviz version 2.40.1 (20161225.0304)
 -->
<!-- Title: nlohmann::basic_json::json_pointer::to_string Pages: 1 -->
<svg width="277pt" height="37pt"
 viewBox="0.00 0.00 276.68 37.00" xmlns="http://www.w3.org/2000/svg" xmlns:xlink="http://www.w3.org/1999/xlink">
<g id="graph0" class="graph" transform="scale(1 1) rotate(0) translate(4 33)">
<title>nlohmann::basic_json::json_pointer::to_string</title>
<polygon fill="#ffffff" stroke="transparent" points="-4,4 -4,-33 272.6787,-33 272.6787,4 -4,4"/>
<!-- Node6 -->
<g id="node1" class="node">
<title>Node6</title>
<g id="a_node1"><a xlink:title="return a string representation of the JSON pointer">
<polygon fill="#bfbfbf" stroke="#000000" points="148.7285,-.5 148.7285,-28.5 268.6787,-28.5 268.6787,-.5 148.7285,-.5"/>
<text text-anchor="start" x="156.7285" y="-16.5" font-family="Helvetica,sans-Serif" font-size="10.00" fill="#000000">nlohmann::basic_json</text>
<text text-anchor="middle" x="208.7036" y="-6.5" font-family="Helvetica,sans-Serif" font-size="10.00" fill="#000000">::json_pointer::to_string</text>
</a>
</g>
</g>
<!-- Node7 -->
<g id="node2" class="node">
<title>Node7</title>
<g id="a_node2"><a xlink:href="classnlohmann_1_1basic__json_1_1json__pointer.html#aa2583b66886218c1a035e3e507a5f931" target="_top" xlink:title="return a string representation of the JSON pointer">
<polygon fill="#ffffff" stroke="#000000" points="0,-.5 0,-28.5 112.7285,-28.5 112.7285,-.5 0,-.5"/>
<text text-anchor="start" x="8" y="-16.5" font-family="Helvetica,sans-Serif" font-size="10.00" fill="#000000">nlohmann::basic_json</text>
<text text-anchor="middle" x="56.3643" y="-6.5" font-family="Helvetica,sans-Serif" font-size="10.00" fill="#000000">::json_pointer::string</text>
</a>
</g>
</g>
<!-- Node6&#45;&gt;Node7 -->
<g id="edge1" class="edge">
<title>Node6&#45;&gt;Node7</title>
<path fill="none" stroke="#191970" d="M138.2954,-14.5C129.8722,-14.5 121.3545,-14.5 113.1575,-14.5"/>
<polygon fill="#191970" stroke="#191970" points="138.4951,-18.0001 148.4951,-14.5 138.495,-11.0001 138.4951,-18.0001"/>
</g>
</g>
</svg>
