<?xml version="1.0" encoding="UTF-8" standalone="no"?>
<!DOCTYPE svg PUBLIC "-//W3C//DTD SVG 1.1//EN"
 "http://www.w3.org/Graphics/SVG/1.1/DTD/svg11.dtd">
<!-- Generated by graphviz version 2.40.1 (20161225.0304)
 -->
<!-- Title: MasterSamplerTopcXYZ::MasterSamplerTopcXYZ Pages: 1 -->
<svg width="537pt" height="232pt"
 viewBox="0.00 0.00 537.06 232.00" xmlns="http://www.w3.org/2000/svg" xmlns:xlink="http://www.w3.org/1999/xlink">
<g id="graph0" class="graph" transform="scale(1 1) rotate(0) translate(4 228)">
<title>MasterSamplerTopcXYZ::MasterSamplerTopcXYZ</title>
<polygon fill="#ffffff" stroke="transparent" points="-4,4 -4,-228 533.0625,-228 533.0625,4 -4,4"/>
<!-- Node0 -->
<g id="node1" class="node">
<title>Node0</title>
<g id="a_node1"><a xlink:title=" ">
<polygon fill="#bfbfbf" stroke="#000000" points="0,-74.5 0,-102.5 129.9258,-102.5 129.9258,-74.5 0,-74.5"/>
<text text-anchor="start" x="8" y="-90.5" font-family="Helvetica,sans-Serif" font-size="10.00" fill="#000000">MasterSamplerTopcXYZ</text>
<text text-anchor="middle" x="64.9629" y="-80.5" font-family="Helvetica,sans-Serif" font-size="10.00" fill="#000000">::MasterSamplerTopcXYZ</text>
</a>
</g>
</g>
<!-- Node1 -->
<g id="node2" class="node">
<title>Node1</title>
<g id="a_node2"><a xlink:href="class_master_sampler_topc_x_y_z.html#af6d2cf2023d9626908fd26b07a7a0b84" target="_top" xlink:title=" ">
<polygon fill="#ffffff" stroke="#000000" points="166.2065,-116.5 166.2065,-144.5 301.7036,-144.5 301.7036,-116.5 166.2065,-116.5"/>
<text text-anchor="start" x="174.2065" y="-132.5" font-family="Helvetica,sans-Serif" font-size="10.00" fill="#000000">MasterSamplerTopcXYZ</text>
<text text-anchor="middle" x="233.9551" y="-122.5" font-family="Helvetica,sans-Serif" font-size="10.00" fill="#000000">::initializeObservableStorer</text>
</a>
</g>
</g>
<!-- Node0&#45;&gt;Node1 -->
<g id="edge1" class="edge">
<title>Node0&#45;&gt;Node1</title>
<path fill="none" stroke="#191970" d="M121.705,-102.6022C136.4138,-106.2579 152.385,-110.2272 167.5417,-113.9941"/>
<polygon fill="#191970" stroke="#191970" points="166.8138,-117.4196 177.3628,-116.435 168.5022,-110.6263 166.8138,-117.4196"/>
</g>
<!-- Node2 -->
<g id="node3" class="node">
<title>Node2</title>
<g id="a_node3"><a xlink:href="class_parameters.html#aae314edb18d426571ab7b6df60da70aa" target="_top" xlink:title=" ">
<polygon fill="#ffffff" stroke="#000000" points="373.2847,-205.5 373.2847,-223.5 493.7622,-223.5 493.7622,-205.5 373.2847,-205.5"/>
<text text-anchor="middle" x="433.5234" y="-211.5" font-family="Helvetica,sans-Serif" font-size="10.00" fill="#000000">Parameters::getNFlows</text>
</a>
</g>
</g>
<!-- Node0&#45;&gt;Node2 -->
<g id="edge11" class="edge">
<title>Node0&#45;&gt;Node2</title>
<path fill="none" stroke="#191970" d="M82.5011,-102.6509C101.8441,-117.5923 134.4176,-140.8356 165.9258,-154.5 229.6636,-182.1417 307.6814,-197.7658 362.9924,-206.0916"/>
<polygon fill="#191970" stroke="#191970" points="362.646,-209.5781 373.0473,-207.5625 363.6593,-202.6518 362.646,-209.5781"/>
</g>
<!-- Node8 -->
<g id="node9" class="node">
<title>Node8</title>
<g id="a_node9"><a xlink:href="class_parameters.html#a128ccc4cb31e9930a825cfd3b8e83d2e" target="_top" xlink:title=" ">
<polygon fill="#ffffff" stroke="#000000" points="165.9258,-79.5 165.9258,-97.5 301.9844,-97.5 301.9844,-79.5 165.9258,-79.5"/>
<text text-anchor="middle" x="233.9551" y="-85.5" font-family="Helvetica,sans-Serif" font-size="10.00" fill="#000000">Parameters::getLatticeSize</text>
</a>
</g>
</g>
<!-- Node0&#45;&gt;Node8 -->
<g id="edge8" class="edge">
<title>Node0&#45;&gt;Node8</title>
<path fill="none" stroke="#191970" d="M130.2997,-88.5C138.5536,-88.5 147.0651,-88.5 155.4959,-88.5"/>
<polygon fill="#191970" stroke="#191970" points="155.7171,-92.0001 165.7171,-88.5 155.717,-85.0001 155.7171,-92.0001"/>
</g>
<!-- Node9 -->
<g id="node10" class="node">
<title>Node9</title>
<g id="a_node10"><a xlink:href="class_lattice.html#a5b4e162f06f7b4b90b4a9335ed2aabb5" target="_top" xlink:title=" ">
<polygon fill="#ffffff" stroke="#000000" points="191.2114,-42.5 191.2114,-60.5 276.6987,-60.5 276.6987,-42.5 191.2114,-42.5"/>
<text text-anchor="middle" x="233.9551" y="-48.5" font-family="Helvetica,sans-Serif" font-size="10.00" fill="#000000">Lattice::allocate</text>
</a>
</g>
</g>
<!-- Node0&#45;&gt;Node9 -->
<g id="edge9" class="edge">
<title>Node0&#45;&gt;Node9</title>
<path fill="none" stroke="#191970" d="M129.3337,-74.4063C146.9453,-70.5504 165.7954,-66.4232 182.5755,-62.7493"/>
<polygon fill="#191970" stroke="#191970" points="183.7064,-66.0847 192.7264,-60.5268 182.2092,-59.2467 183.7064,-66.0847"/>
</g>
<!-- Node10 -->
<g id="node11" class="node">
<title>Node10</title>
<g id="a_node11"><a xlink:href="class_parameters.html#a237ea1286459e8c648e983464829fe8d" target="_top" xlink:title=" ">
<polygon fill="#ffffff" stroke="#000000" points="166.209,-5.5 166.209,-23.5 301.7012,-23.5 301.7012,-5.5 166.209,-5.5"/>
<text text-anchor="middle" x="233.9551" y="-11.5" font-family="Helvetica,sans-Serif" font-size="10.00" fill="#000000">Parameters::getNTemporal</text>
</a>
</g>
</g>
<!-- Node0&#45;&gt;Node10 -->
<g id="edge10" class="edge">
<title>Node0&#45;&gt;Node10</title>
<path fill="none" stroke="#191970" d="M87.494,-74.2934C107.4912,-62.1608 137.8135,-44.9107 165.9258,-33.5 172.262,-30.9281 179.0659,-28.5752 185.833,-26.4678"/>
<polygon fill="#191970" stroke="#191970" points="187.0667,-29.7528 195.6625,-23.559 185.0804,-23.0405 187.0667,-29.7528"/>
</g>
<!-- Node1&#45;&gt;Node2 -->
<g id="edge2" class="edge">
<title>Node1&#45;&gt;Node2</title>
<path fill="none" stroke="#191970" d="M251.6001,-144.6801C271.4292,-159.874 305.1556,-183.5478 337.9844,-196.5 346.0267,-199.673 354.6756,-202.2969 363.3663,-204.4643"/>
<polygon fill="#191970" stroke="#191970" points="362.6356,-207.8876 373.1662,-206.7225 364.2075,-201.0663 362.6356,-207.8876"/>
</g>
<!-- Node3 -->
<g id="node4" class="node">
<title>Node3</title>
<g id="a_node4"><a xlink:href="class_parameters.html#a216f85b3c5980a33f8a54c42fb3575c7" target="_top" xlink:title=" ">
<polygon fill="#ffffff" stroke="#000000" points="345.2109,-158.5 345.2109,-186.5 521.8359,-186.5 521.8359,-158.5 345.2109,-158.5"/>
<text text-anchor="start" x="353.2109" y="-174.5" font-family="Helvetica,sans-Serif" font-size="10.00" fill="#000000">Parameters::getStoreThermalization</text>
<text text-anchor="middle" x="433.5234" y="-164.5" font-family="Helvetica,sans-Serif" font-size="10.00" fill="#000000">Observables</text>
</a>
</g>
</g>
<!-- Node1&#45;&gt;Node3 -->
<g id="edge3" class="edge">
<title>Node1&#45;&gt;Node3</title>
<path fill="none" stroke="#191970" d="M300.6859,-144.5438C318.7433,-148.344 338.4288,-152.4869 356.9795,-156.391"/>
<polygon fill="#191970" stroke="#191970" points="356.349,-159.8349 366.8555,-158.4694 357.7907,-152.985 356.349,-159.8349"/>
</g>
<!-- Node4 -->
<g id="node5" class="node">
<title>Node4</title>
<g id="a_node5"><a xlink:href="class_parameters.html#a03f8c0aa2a31b9bfc016441cb263082c" target="_top" xlink:title=" ">
<polygon fill="#ffffff" stroke="#000000" points="381.3413,-121.5 381.3413,-139.5 485.7056,-139.5 485.7056,-121.5 381.3413,-121.5"/>
<text text-anchor="middle" x="433.5234" y="-127.5" font-family="Helvetica,sans-Serif" font-size="10.00" fill="#000000">Parameters::getNCf</text>
</a>
</g>
</g>
<!-- Node1&#45;&gt;Node4 -->
<g id="edge4" class="edge">
<title>Node1&#45;&gt;Node4</title>
<path fill="none" stroke="#191970" d="M301.7983,-130.5C324.2347,-130.5 349.0795,-130.5 371.0906,-130.5"/>
<polygon fill="#191970" stroke="#191970" points="371.3143,-134.0001 381.3143,-130.5 371.3142,-127.0001 371.3143,-134.0001"/>
</g>
<!-- Node5 -->
<g id="node6" class="node">
<title>Node5</title>
<g id="a_node6"><a xlink:href="class_parameters.html#ad1f56cc1bb6c19f40454b30a5bc82da6" target="_top" xlink:title=" ">
<polygon fill="#ffffff" stroke="#000000" points="371.8955,-84.5 371.8955,-102.5 495.1514,-102.5 495.1514,-84.5 371.8955,-84.5"/>
<text text-anchor="middle" x="433.5234" y="-90.5" font-family="Helvetica,sans-Serif" font-size="10.00" fill="#000000">Parameters::getNTherm</text>
</a>
</g>
</g>
<!-- Node1&#45;&gt;Node5 -->
<g id="edge5" class="edge">
<title>Node1&#45;&gt;Node5</title>
<path fill="none" stroke="#191970" d="M301.7983,-117.9219C325.5205,-113.5238 351.935,-108.6265 374.8459,-104.3788"/>
<polygon fill="#191970" stroke="#191970" points="375.5725,-107.8038 384.7669,-102.5395 374.2964,-100.9211 375.5725,-107.8038"/>
</g>
<!-- Node6 -->
<g id="node7" class="node">
<title>Node6</title>
<g id="a_node7"><a xlink:href="class_observable_storer.html#a6177ade7609fb0e4b739955eecba20e6" target="_top" xlink:title=" ">
<polygon fill="#ffffff" stroke="#000000" points="354.3857,-37.5 354.3857,-65.5 512.6611,-65.5 512.6611,-37.5 354.3857,-37.5"/>
<text text-anchor="start" x="362.3857" y="-53.5" font-family="Helvetica,sans-Serif" font-size="10.00" fill="#000000">ObservableStorer::setNormalize</text>
<text text-anchor="middle" x="433.5234" y="-43.5" font-family="Helvetica,sans-Serif" font-size="10.00" fill="#000000">ObservableByProcessor</text>
</a>
</g>
</g>
<!-- Node1&#45;&gt;Node6 -->
<g id="edge6" class="edge">
<title>Node1&#45;&gt;Node6</title>
<path fill="none" stroke="#191970" d="M283.3074,-116.4557C289.7709,-113.8608 296.1632,-110.8821 301.9844,-107.5 320.4943,-96.7457 319.0597,-85.5063 337.9844,-75.5 342.4987,-73.1131 347.2597,-70.9564 352.1485,-69.0089"/>
<polygon fill="#191970" stroke="#191970" points="353.492,-72.2442 361.676,-65.5156 351.0823,-65.672 353.492,-72.2442"/>
</g>
<!-- Node7 -->
<g id="node8" class="node">
<title>Node7</title>
<g id="a_node8"><a xlink:href="class_observable_storer.html#a7f4847c4fdbf8764d8f07950c4d4b62a" target="_top" xlink:title=" ">
<polygon fill="#ffffff" stroke="#000000" points="337.9844,-.5 337.9844,-18.5 529.0625,-18.5 529.0625,-.5 337.9844,-.5"/>
<text text-anchor="middle" x="433.5234" y="-6.5" font-family="Helvetica,sans-Serif" font-size="10.00" fill="#000000">ObservableStorer::setObservableName</text>
</a>
</g>
</g>
<!-- Node1&#45;&gt;Node7 -->
<g id="edge7" class="edge">
<title>Node1&#45;&gt;Node7</title>
<path fill="none" stroke="#191970" d="M289.299,-116.35C293.8815,-113.8602 298.1992,-110.9353 301.9844,-107.5 330.8562,-81.2967 307.3529,-51.6228 337.9844,-27.5 339.8159,-26.0576 341.728,-24.7185 343.7065,-23.4756"/>
<polygon fill="#191970" stroke="#191970" points="345.6029,-26.4303 352.7637,-18.6218 342.2964,-20.2604 345.6029,-26.4303"/>
</g>
</g>
</svg>
