<?xml version="1.0" encoding="UTF-8" standalone="no"?>
<!DOCTYPE svg PUBLIC "-//W3C//DTD SVG 1.1//EN"
 "http://www.w3.org/Graphics/SVG/1.1/DTD/svg11.dtd">
<!-- Generated by graphviz version 2.40.1 (20161225.0304)
 -->
<!-- Title: Parameters::getLatticeSize Pages: 1 -->
<svg width="337pt" height="242pt"
 viewBox="0.00 0.00 337.21 242.00" xmlns="http://www.w3.org/2000/svg" xmlns:xlink="http://www.w3.org/1999/xlink">
<g id="graph0" class="graph" transform="scale(1 1) rotate(0) translate(4 238)">
<title>Parameters::getLatticeSize</title>
<polygon fill="#ffffff" stroke="transparent" points="-4,4 -4,-238 333.2109,-238 333.2109,4 -4,4"/>
<!-- Node128 -->
<g id="node1" class="node">
<title>Node128</title>
<g id="a_node1"><a xlink:title=" ">
<polygon fill="#bfbfbf" stroke="#000000" points="193.1523,-105.5 193.1523,-123.5 329.2109,-123.5 329.2109,-105.5 193.1523,-105.5"/>
<text text-anchor="middle" x="261.1816" y="-111.5" font-family="Helvetica,sans-Serif" font-size="10.00" fill="#000000">Parameters::getLatticeSize</text>
</a>
</g>
</g>
<!-- Node129 -->
<g id="node2" class="node">
<title>Node129</title>
<g id="a_node2"><a xlink:href="class_lattice_action_charge_density.html#acda2a43db75cca34586441d4ac7ec39e" target="_top" xlink:title=" ">
<polygon fill="#ffffff" stroke="#000000" points="6.0986,-205.5 6.0986,-233.5 151.0537,-233.5 151.0537,-205.5 6.0986,-205.5"/>
<text text-anchor="start" x="14.0986" y="-221.5" font-family="Helvetica,sans-Serif" font-size="10.00" fill="#000000">LatticeActionChargeDensity</text>
<text text-anchor="middle" x="78.5762" y="-211.5" font-family="Helvetica,sans-Serif" font-size="10.00" fill="#000000">::LatticeActionChargeDensity</text>
</a>
</g>
</g>
<!-- Node128&#45;&gt;Node129 -->
<g id="edge1" class="edge">
<title>Node128&#45;&gt;Node129</title>
<path fill="none" stroke="#191970" d="M244.9275,-130.6294C225.5609,-149.0111 191.4897,-178.7917 157.1523,-196.5 150.5832,-199.8878 143.4407,-202.8483 136.2288,-205.4153"/>
<polygon fill="#191970" stroke="#191970" points="247.5272,-132.9843 252.2851,-123.5179 242.6623,-127.9511 247.5272,-132.9843"/>
</g>
<!-- Node130 -->
<g id="node3" class="node">
<title>Node130</title>
<g id="a_node3"><a xlink:href="class_master_sampler.html#ac5ee503e8391aca36f73872a45bb6bd9" target="_top" xlink:title=" ">
<polygon fill="#ffffff" stroke="#000000" points="0,-168.5 0,-186.5 157.1523,-186.5 157.1523,-168.5 0,-168.5"/>
<text text-anchor="middle" x="78.5762" y="-174.5" font-family="Helvetica,sans-Serif" font-size="10.00" fill="#000000">MasterSampler::MasterSampler</text>
</a>
</g>
</g>
<!-- Node128&#45;&gt;Node130 -->
<g id="edge2" class="edge">
<title>Node128&#45;&gt;Node130</title>
<path fill="none" stroke="#191970" d="M234.0303,-127.8776C213.3435,-137.6661 183.9491,-150.717 157.1523,-159.5 146.7792,-162.8999 135.4326,-165.8991 124.6687,-168.426"/>
<polygon fill="#191970" stroke="#191970" points="235.6538,-130.9808 243.1588,-123.5024 232.6283,-124.6684 235.6538,-130.9808"/>
</g>
<!-- Node131 -->
<g id="node4" class="node">
<title>Node131</title>
<g id="a_node4"><a xlink:href="class_master_sampler_topc_x_y_z.html#ad8ba8f2c50c66d823c551f71fd62a99b" target="_top" xlink:title=" ">
<polygon fill="#ffffff" stroke="#000000" points="13.6133,-121.5 13.6133,-149.5 143.5391,-149.5 143.5391,-121.5 13.6133,-121.5"/>
<text text-anchor="start" x="21.6133" y="-137.5" font-family="Helvetica,sans-Serif" font-size="10.00" fill="#000000">MasterSamplerTopcXYZ</text>
<text text-anchor="middle" x="78.5762" y="-127.5" font-family="Helvetica,sans-Serif" font-size="10.00" fill="#000000">::MasterSamplerTopcXYZ</text>
</a>
</g>
</g>
<!-- Node128&#45;&gt;Node131 -->
<g id="edge3" class="edge">
<title>Node128&#45;&gt;Node131</title>
<path fill="none" stroke="#191970" d="M182.6176,-123.535C169.6442,-125.027 156.3208,-126.5592 143.723,-128.008"/>
<polygon fill="#191970" stroke="#191970" points="183.3918,-126.9691 192.9264,-122.3495 182.592,-120.015 183.3918,-126.9691"/>
</g>
<!-- Node132 -->
<g id="node5" class="node">
<title>Node132</title>
<g id="a_node5"><a xlink:href="class_super_sampler.html#a6bf01b68f9befc5bf01c822e28c0c88d" target="_top" xlink:title=" ">
<polygon fill="#ffffff" stroke="#000000" points="3.877,-84.5 3.877,-102.5 153.2754,-102.5 153.2754,-84.5 3.877,-84.5"/>
<text text-anchor="middle" x="78.5762" y="-90.5" font-family="Helvetica,sans-Serif" font-size="10.00" fill="#000000">SuperSampler::SuperSampler</text>
</a>
</g>
</g>
<!-- Node128&#45;&gt;Node132 -->
<g id="edge4" class="edge">
<title>Node128&#45;&gt;Node132</title>
<path fill="none" stroke="#191970" d="M182.8648,-105.4934C173.1213,-104.3729 163.1765,-103.2292 153.4864,-102.1148"/>
<polygon fill="#191970" stroke="#191970" points="182.592,-108.985 192.9264,-106.6505 183.3918,-102.0309 182.592,-108.985"/>
</g>
<!-- Node133 -->
<g id="node6" class="node">
<title>Node133</title>
<g id="a_node6"><a xlink:href="class_parallel_1_1_communicator.html#a003d94aceebf2fddc6b4ceff584ac8d7" target="_top" xlink:title=" ">
<polygon fill="#ffffff" stroke="#000000" points="15.3589,-37.5 15.3589,-65.5 141.7935,-65.5 141.7935,-37.5 15.3589,-37.5"/>
<text text-anchor="start" x="23.3589" y="-53.5" font-family="Helvetica,sans-Serif" font-size="10.00" fill="#000000">Parallel::Communicator</text>
<text text-anchor="middle" x="78.5762" y="-43.5" font-family="Helvetica,sans-Serif" font-size="10.00" fill="#000000">::checkSubLatticeValidity</text>
</a>
</g>
</g>
<!-- Node128&#45;&gt;Node133 -->
<g id="edge5" class="edge">
<title>Node128&#45;&gt;Node133</title>
<path fill="none" stroke="#191970" d="M228.7313,-101.7408C208.3039,-93.857 181.3217,-83.7127 157.1523,-75.5 147.2934,-72.1499 136.6677,-68.7589 126.5144,-65.6227"/>
<polygon fill="#191970" stroke="#191970" points="227.6028,-105.0571 238.1917,-105.4111 230.1347,-98.531 227.6028,-105.0571"/>
</g>
<!-- Node134 -->
<g id="node7" class="node">
<title>Node134</title>
<g id="a_node7"><a xlink:href="class_system.html#ae317936c9bcf1374d61745572e0f2f8a" target="_top" xlink:title=" ">
<polygon fill="#ffffff" stroke="#000000" points="34.458,-.5 34.458,-18.5 122.6943,-18.5 122.6943,-.5 34.458,-.5"/>
<text text-anchor="middle" x="78.5762" y="-6.5" font-family="Helvetica,sans-Serif" font-size="10.00" fill="#000000">System::System</text>
</a>
</g>
</g>
<!-- Node128&#45;&gt;Node134 -->
<g id="edge6" class="edge">
<title>Node128&#45;&gt;Node134</title>
<path fill="none" stroke="#191970" d="M246.0794,-98.1154C227.1661,-78.5947 192.8826,-46.3821 157.1523,-28.5 146.6097,-23.2237 134.5257,-19.3643 123.0469,-16.56"/>
<polygon fill="#191970" stroke="#191970" points="243.5622,-100.5474 252.9852,-105.3905 248.6391,-95.7281 243.5622,-100.5474"/>
</g>
</g>
</svg>
