<?xml version="1.0" encoding="UTF-8" standalone="no"?>
<!DOCTYPE svg PUBLIC "-//W3C//DTD SVG 1.1//EN"
 "http://www.w3.org/Graphics/SVG/1.1/DTD/svg11.dtd">
<!-- Generated by graphviz version 2.40.1 (20161225.0304)
 -->
<!-- Title: WilsonGaugeAction::updateMuIndex Pages: 1 -->
<svg width="263pt" height="37pt"
 viewBox="0.00 0.00 262.76 37.00" xmlns="http://www.w3.org/2000/svg" xmlns:xlink="http://www.w3.org/1999/xlink">
<g id="graph0" class="graph" transform="scale(1 1) rotate(0) translate(4 33)">
<title>WilsonGaugeAction::updateMuIndex</title>
<polygon fill="#ffffff" stroke="transparent" points="-4,4 -4,-33 258.7578,-33 258.7578,4 -4,4"/>
<!-- Node32 -->
<g id="node1" class="node">
<title>Node32</title>
<g id="a_node1"><a xlink:title=" ">
<polygon fill="#bfbfbf" stroke="#000000" points="145.3789,-.5 145.3789,-28.5 254.7578,-28.5 254.7578,-.5 145.3789,-.5"/>
<text text-anchor="start" x="153.3789" y="-16.5" font-family="Helvetica,sans-Serif" font-size="10.00" fill="#000000">WilsonGaugeAction::</text>
<text text-anchor="middle" x="200.0684" y="-6.5" font-family="Helvetica,sans-Serif" font-size="10.00" fill="#000000">updateMuIndex</text>
</a>
</g>
</g>
<!-- Node33 -->
<g id="node2" class="node">
<title>Node33</title>
<g id="a_node2"><a xlink:href="class_wilson_gauge_action.html#af1f6ba42fcc2b923dc3b37bf150bfae9" target="_top" xlink:title=" ">
<polygon fill="#ffffff" stroke="#000000" points="0,-.5 0,-28.5 109.3789,-28.5 109.3789,-.5 0,-.5"/>
<text text-anchor="start" x="8" y="-16.5" font-family="Helvetica,sans-Serif" font-size="10.00" fill="#000000">WilsonGaugeAction::</text>
<text text-anchor="middle" x="54.6895" y="-6.5" font-family="Helvetica,sans-Serif" font-size="10.00" fill="#000000">computeStaple</text>
</a>
</g>
</g>
<!-- Node32&#45;&gt;Node33 -->
<g id="edge1" class="edge">
<title>Node32&#45;&gt;Node33</title>
<path fill="none" stroke="#191970" d="M134.9365,-14.5C126.5178,-14.5 117.9625,-14.5 109.7287,-14.5"/>
<polygon fill="#191970" stroke="#191970" points="135.1069,-18.0001 145.1068,-14.5 135.1068,-11.0001 135.1069,-18.0001"/>
</g>
</g>
</svg>
