<?xml version="1.0" encoding="UTF-8" standalone="no"?>
<!DOCTYPE svg PUBLIC "-//W3C//DTD SVG 1.1//EN"
 "http://www.w3.org/Graphics/SVG/1.1/DTD/svg11.dtd">
<!-- Generated by graphviz version 2.40.1 (20161225.0304)
 -->
<!-- Title: SuperSampler::SuperSampler Pages: 1 -->
<svg width="557pt" height="232pt"
 viewBox="0.00 0.00 556.54 232.00" xmlns="http://www.w3.org/2000/svg" xmlns:xlink="http://www.w3.org/1999/xlink">
<g id="graph0" class="graph" transform="scale(1 1) rotate(0) translate(4 228)">
<title>SuperSampler::SuperSampler</title>
<polygon fill="#ffffff" stroke="transparent" points="-4,4 -4,-228 552.5352,-228 552.5352,4 -4,4"/>
<!-- Node0 -->
<g id="node1" class="node">
<title>Node0</title>
<g id="a_node1"><a xlink:title=" ">
<polygon fill="#bfbfbf" stroke="#000000" points="0,-79.5 0,-97.5 149.3984,-97.5 149.3984,-79.5 0,-79.5"/>
<text text-anchor="middle" x="74.6992" y="-85.5" font-family="Helvetica,sans-Serif" font-size="10.00" fill="#000000">SuperSampler::SuperSampler</text>
</a>
</g>
</g>
<!-- Node1 -->
<g id="node2" class="node">
<title>Node1</title>
<g id="a_node2"><a xlink:href="class_super_sampler.html#a4429d6ae37247a02259bc0c6d665821c" target="_top" xlink:title=" ">
<polygon fill="#ffffff" stroke="#000000" points="192.9033,-116.5 192.9033,-144.5 313.9521,-144.5 313.9521,-116.5 192.9033,-116.5"/>
<text text-anchor="start" x="200.9033" y="-132.5" font-family="Helvetica,sans-Serif" font-size="10.00" fill="#000000">SuperSampler::initialize</text>
<text text-anchor="middle" x="253.4277" y="-122.5" font-family="Helvetica,sans-Serif" font-size="10.00" fill="#000000">ObservableStorer</text>
</a>
</g>
</g>
<!-- Node0&#45;&gt;Node1 -->
<g id="edge1" class="edge">
<title>Node0&#45;&gt;Node1</title>
<path fill="none" stroke="#191970" d="M113.041,-97.5101C133.6854,-102.3614 159.7931,-108.4965 183.8786,-114.1564"/>
<polygon fill="#191970" stroke="#191970" points="183.1637,-117.5837 193.6992,-116.4642 184.7651,-110.7693 183.1637,-117.5837"/>
</g>
<!-- Node2 -->
<g id="node3" class="node">
<title>Node2</title>
<g id="a_node3"><a xlink:href="class_parameters.html#aae314edb18d426571ab7b6df60da70aa" target="_top" xlink:title=" ">
<polygon fill="#ffffff" stroke="#000000" points="392.7573,-205.5 392.7573,-223.5 513.2349,-223.5 513.2349,-205.5 392.7573,-205.5"/>
<text text-anchor="middle" x="452.9961" y="-211.5" font-family="Helvetica,sans-Serif" font-size="10.00" fill="#000000">Parameters::getNFlows</text>
</a>
</g>
</g>
<!-- Node0&#45;&gt;Node2 -->
<g id="edge11" class="edge">
<title>Node0&#45;&gt;Node2</title>
<path fill="none" stroke="#191970" d="M87.0014,-97.5244C106.7788,-111.6314 147.2966,-138.9037 185.3984,-154.5 249.5904,-180.7758 327.3824,-196.5765 382.5075,-205.3151"/>
<polygon fill="#191970" stroke="#191970" points="382.1107,-208.7953 392.5283,-206.8655 383.1811,-201.8776 382.1107,-208.7953"/>
</g>
<!-- Node8 -->
<g id="node9" class="node">
<title>Node8</title>
<g id="a_node9"><a xlink:href="class_parameters.html#a128ccc4cb31e9930a825cfd3b8e83d2e" target="_top" xlink:title=" ">
<polygon fill="#ffffff" stroke="#000000" points="185.3984,-79.5 185.3984,-97.5 321.457,-97.5 321.457,-79.5 185.3984,-79.5"/>
<text text-anchor="middle" x="253.4277" y="-85.5" font-family="Helvetica,sans-Serif" font-size="10.00" fill="#000000">Parameters::getLatticeSize</text>
</a>
</g>
</g>
<!-- Node0&#45;&gt;Node8 -->
<g id="edge8" class="edge">
<title>Node0&#45;&gt;Node8</title>
<path fill="none" stroke="#191970" d="M149.4606,-88.5C157.8934,-88.5 166.5044,-88.5 174.9824,-88.5"/>
<polygon fill="#191970" stroke="#191970" points="175.2367,-92.0001 185.2367,-88.5 175.2366,-85.0001 175.2367,-92.0001"/>
</g>
<!-- Node9 -->
<g id="node10" class="node">
<title>Node9</title>
<g id="a_node10"><a xlink:href="class_lattice.html#a5b4e162f06f7b4b90b4a9335ed2aabb5" target="_top" xlink:title=" ">
<polygon fill="#ffffff" stroke="#000000" points="210.6841,-42.5 210.6841,-60.5 296.1714,-60.5 296.1714,-42.5 210.6841,-42.5"/>
<text text-anchor="middle" x="253.4277" y="-48.5" font-family="Helvetica,sans-Serif" font-size="10.00" fill="#000000">Lattice::allocate</text>
</a>
</g>
</g>
<!-- Node0&#45;&gt;Node9 -->
<g id="edge9" class="edge">
<title>Node0&#45;&gt;Node9</title>
<path fill="none" stroke="#191970" d="M118.4211,-79.4488C143.1455,-74.3304 174.2414,-67.893 200.3561,-62.4868"/>
<polygon fill="#191970" stroke="#191970" points="201.3831,-65.8485 210.4659,-60.3939 199.964,-58.9938 201.3831,-65.8485"/>
</g>
<!-- Node10 -->
<g id="node11" class="node">
<title>Node10</title>
<g id="a_node11"><a xlink:href="class_parameters.html#a237ea1286459e8c648e983464829fe8d" target="_top" xlink:title=" ">
<polygon fill="#ffffff" stroke="#000000" points="185.6816,-5.5 185.6816,-23.5 321.1738,-23.5 321.1738,-5.5 185.6816,-5.5"/>
<text text-anchor="middle" x="253.4277" y="-11.5" font-family="Helvetica,sans-Serif" font-size="10.00" fill="#000000">Parameters::getNTemporal</text>
</a>
</g>
</g>
<!-- Node0&#45;&gt;Node10 -->
<g id="edge10" class="edge">
<title>Node0&#45;&gt;Node10</title>
<path fill="none" stroke="#191970" d="M90.7673,-79.3072C111.9277,-67.486 150.5411,-46.8891 185.3984,-33.5 192.1666,-30.9003 199.4372,-28.4879 206.6172,-26.315"/>
<polygon fill="#191970" stroke="#191970" points="207.6683,-29.6545 216.2961,-23.5054 205.7168,-22.932 207.6683,-29.6545"/>
</g>
<!-- Node1&#45;&gt;Node2 -->
<g id="edge2" class="edge">
<title>Node1&#45;&gt;Node2</title>
<path fill="none" stroke="#191970" d="M271.0728,-144.6801C290.9019,-159.874 324.6282,-183.5478 357.457,-196.5 365.4993,-199.673 374.1482,-202.2969 382.839,-204.4643"/>
<polygon fill="#191970" stroke="#191970" points="382.1083,-207.8876 392.6389,-206.7225 383.6801,-201.0663 382.1083,-207.8876"/>
</g>
<!-- Node3 -->
<g id="node4" class="node">
<title>Node3</title>
<g id="a_node4"><a xlink:href="class_parameters.html#a216f85b3c5980a33f8a54c42fb3575c7" target="_top" xlink:title=" ">
<polygon fill="#ffffff" stroke="#000000" points="364.6836,-158.5 364.6836,-186.5 541.3086,-186.5 541.3086,-158.5 364.6836,-158.5"/>
<text text-anchor="start" x="372.6836" y="-174.5" font-family="Helvetica,sans-Serif" font-size="10.00" fill="#000000">Parameters::getStoreThermalization</text>
<text text-anchor="middle" x="452.9961" y="-164.5" font-family="Helvetica,sans-Serif" font-size="10.00" fill="#000000">Observables</text>
</a>
</g>
</g>
<!-- Node1&#45;&gt;Node3 -->
<g id="edge3" class="edge">
<title>Node1&#45;&gt;Node3</title>
<path fill="none" stroke="#191970" d="M314.1177,-143.2724C333.729,-147.3997 355.7335,-152.0307 376.3445,-156.3684"/>
<polygon fill="#191970" stroke="#191970" points="375.8276,-159.8362 386.3341,-158.4707 377.2693,-152.9862 375.8276,-159.8362"/>
</g>
<!-- Node4 -->
<g id="node5" class="node">
<title>Node4</title>
<g id="a_node5"><a xlink:href="class_parameters.html#a03f8c0aa2a31b9bfc016441cb263082c" target="_top" xlink:title=" ">
<polygon fill="#ffffff" stroke="#000000" points="400.814,-121.5 400.814,-139.5 505.1782,-139.5 505.1782,-121.5 400.814,-121.5"/>
<text text-anchor="middle" x="452.9961" y="-127.5" font-family="Helvetica,sans-Serif" font-size="10.00" fill="#000000">Parameters::getNCf</text>
</a>
</g>
</g>
<!-- Node1&#45;&gt;Node4 -->
<g id="edge4" class="edge">
<title>Node1&#45;&gt;Node4</title>
<path fill="none" stroke="#191970" d="M314.1177,-130.5C338.3,-130.5 366.1209,-130.5 390.4812,-130.5"/>
<polygon fill="#191970" stroke="#191970" points="390.6887,-134.0001 400.6887,-130.5 390.6886,-127.0001 390.6887,-134.0001"/>
</g>
<!-- Node5 -->
<g id="node6" class="node">
<title>Node5</title>
<g id="a_node6"><a xlink:href="class_parameters.html#ad1f56cc1bb6c19f40454b30a5bc82da6" target="_top" xlink:title=" ">
<polygon fill="#ffffff" stroke="#000000" points="391.3682,-84.5 391.3682,-102.5 514.624,-102.5 514.624,-84.5 391.3682,-84.5"/>
<text text-anchor="middle" x="452.9961" y="-90.5" font-family="Helvetica,sans-Serif" font-size="10.00" fill="#000000">Parameters::getNTherm</text>
</a>
</g>
</g>
<!-- Node1&#45;&gt;Node5 -->
<g id="edge5" class="edge">
<title>Node1&#45;&gt;Node5</title>
<path fill="none" stroke="#191970" d="M314.1177,-119.2481C339.5166,-114.5391 368.9295,-109.0859 394.1307,-104.4136"/>
<polygon fill="#191970" stroke="#191970" points="395.0915,-107.7952 404.2859,-102.5309 393.8154,-100.9125 395.0915,-107.7952"/>
</g>
<!-- Node6 -->
<g id="node7" class="node">
<title>Node6</title>
<g id="a_node7"><a xlink:href="class_observable_storer.html#a6177ade7609fb0e4b739955eecba20e6" target="_top" xlink:title=" ">
<polygon fill="#ffffff" stroke="#000000" points="373.8584,-37.5 373.8584,-65.5 532.1338,-65.5 532.1338,-37.5 373.8584,-37.5"/>
<text text-anchor="start" x="381.8584" y="-53.5" font-family="Helvetica,sans-Serif" font-size="10.00" fill="#000000">ObservableStorer::setNormalize</text>
<text text-anchor="middle" x="452.9961" y="-43.5" font-family="Helvetica,sans-Serif" font-size="10.00" fill="#000000">ObservableByProcessor</text>
</a>
</g>
</g>
<!-- Node1&#45;&gt;Node6 -->
<g id="edge6" class="edge">
<title>Node1&#45;&gt;Node6</title>
<path fill="none" stroke="#191970" d="M302.78,-116.4557C309.2435,-113.8608 315.6358,-110.8821 321.457,-107.5 339.9669,-96.7457 338.5323,-85.5063 357.457,-75.5 361.9714,-73.1131 366.7324,-70.9564 371.6211,-69.0089"/>
<polygon fill="#191970" stroke="#191970" points="372.9646,-72.2442 381.1486,-65.5156 370.5549,-65.672 372.9646,-72.2442"/>
</g>
<!-- Node7 -->
<g id="node8" class="node">
<title>Node7</title>
<g id="a_node8"><a xlink:href="class_observable_storer.html#a7f4847c4fdbf8764d8f07950c4d4b62a" target="_top" xlink:title=" ">
<polygon fill="#ffffff" stroke="#000000" points="357.457,-.5 357.457,-18.5 548.5352,-18.5 548.5352,-.5 357.457,-.5"/>
<text text-anchor="middle" x="452.9961" y="-6.5" font-family="Helvetica,sans-Serif" font-size="10.00" fill="#000000">ObservableStorer::setObservableName</text>
</a>
</g>
</g>
<!-- Node1&#45;&gt;Node7 -->
<g id="edge7" class="edge">
<title>Node1&#45;&gt;Node7</title>
<path fill="none" stroke="#191970" d="M308.7717,-116.35C313.3542,-113.8602 317.6719,-110.9353 321.457,-107.5 350.3289,-81.2967 326.8255,-51.6228 357.457,-27.5 359.2886,-26.0576 361.2007,-24.7185 363.1792,-23.4756"/>
<polygon fill="#191970" stroke="#191970" points="365.0756,-26.4303 372.2364,-18.6218 361.769,-20.2604 365.0756,-26.4303"/>
</g>
</g>
</svg>
