<?xml version="1.0" encoding="UTF-8" standalone="no"?>
<!DOCTYPE svg PUBLIC "-//W3C//DTD SVG 1.1//EN"
 "http://www.w3.org/Graphics/SVG/1.1/DTD/svg11.dtd">
<!-- Generated by graphviz version 2.40.1 (20161225.0304)
 -->
<!-- Title: nlohmann::basic_json::cend Pages: 1 -->
<svg width="440pt" height="168pt"
 viewBox="0.00 0.00 440.43 168.00" xmlns="http://www.w3.org/2000/svg" xmlns:xlink="http://www.w3.org/1999/xlink">
<g id="graph0" class="graph" transform="scale(1 1) rotate(0) translate(4 164)">
<title>nlohmann::basic_json::cend</title>
<polygon fill="#ffffff" stroke="transparent" points="-4,4 -4,-164 436.4268,-164 436.4268,4 -4,4"/>
<!-- Node80 -->
<g id="node1" class="node">
<title>Node80</title>
<g id="a_node1"><a xlink:title="returns a const iterator to one past the last element">
<polygon fill="#bfbfbf" stroke="#000000" points="319.6982,-63.5 319.6982,-91.5 432.4268,-91.5 432.4268,-63.5 319.6982,-63.5"/>
<text text-anchor="start" x="327.6982" y="-79.5" font-family="Helvetica,sans-Serif" font-size="10.00" fill="#000000">nlohmann::basic_json</text>
<text text-anchor="middle" x="376.0625" y="-69.5" font-family="Helvetica,sans-Serif" font-size="10.00" fill="#000000">::cend</text>
</a>
</g>
</g>
<!-- Node81 -->
<g id="node2" class="node">
<title>Node81</title>
<g id="a_node2"><a xlink:href="classnlohmann_1_1basic__json.html#a83fe4a151b3a591f357527d5d9aa1b9f" target="_top" xlink:title="access the last element">
<polygon fill="#ffffff" stroke="#000000" points="159.8491,-131.5 159.8491,-159.5 272.5776,-159.5 272.5776,-131.5 159.8491,-131.5"/>
<text text-anchor="start" x="167.8491" y="-147.5" font-family="Helvetica,sans-Serif" font-size="10.00" fill="#000000">nlohmann::basic_json</text>
<text text-anchor="middle" x="216.2134" y="-137.5" font-family="Helvetica,sans-Serif" font-size="10.00" fill="#000000">::back</text>
</a>
</g>
</g>
<!-- Node80&#45;&gt;Node81 -->
<g id="edge1" class="edge">
<title>Node80&#45;&gt;Node81</title>
<path fill="none" stroke="#191970" d="M340.3906,-96.171C323.4412,-104.7071 302.7616,-114.6435 283.6982,-122.5 276.1451,-125.6128 268.0011,-128.6493 260.0728,-131.442"/>
<polygon fill="#191970" stroke="#191970" points="342.0621,-99.2476 349.3892,-91.5949 338.889,-93.0081 342.0621,-99.2476"/>
</g>
<!-- Node82 -->
<g id="node3" class="node">
<title>Node82</title>
<g id="a_node3"><a xlink:href="classnlohmann_1_1basic__json.html#a6d2f26a0a84787a43c989c88e2b7023b" target="_top" xlink:title="find an element in a JSON object">
<polygon fill="#ffffff" stroke="#000000" points="159.8491,-84.5 159.8491,-112.5 272.5776,-112.5 272.5776,-84.5 159.8491,-84.5"/>
<text text-anchor="start" x="167.8491" y="-100.5" font-family="Helvetica,sans-Serif" font-size="10.00" fill="#000000">nlohmann::basic_json</text>
<text text-anchor="middle" x="216.2134" y="-90.5" font-family="Helvetica,sans-Serif" font-size="10.00" fill="#000000">::find</text>
</a>
</g>
</g>
<!-- Node80&#45;&gt;Node82 -->
<g id="edge2" class="edge">
<title>Node80&#45;&gt;Node82</title>
<path fill="none" stroke="#191970" d="M309.215,-86.282C297.1168,-87.8714 284.6077,-89.5148 272.8373,-91.0611"/>
<polygon fill="#191970" stroke="#191970" points="309.7967,-89.7358 319.2556,-84.9629 308.8849,-82.7954 309.7967,-89.7358"/>
</g>
<!-- Node83 -->
<g id="node4" class="node">
<title>Node83</title>
<g id="a_node4"><a xlink:href="classnlohmann_1_1basic__json.html#a1c15707055088cd5436ae91db72cbe67" target="_top" xlink:title="returns a const iterator to one past the last element">
<polygon fill="#ffffff" stroke="#000000" points="148.7285,-47.5 148.7285,-65.5 283.6982,-65.5 283.6982,-47.5 148.7285,-47.5"/>
<text text-anchor="middle" x="216.2134" y="-53.5" font-family="Helvetica,sans-Serif" font-size="10.00" fill="#000000">nlohmann::basic_json::end</text>
</a>
</g>
</g>
<!-- Node80&#45;&gt;Node83 -->
<g id="edge3" class="edge">
<title>Node80&#45;&gt;Node83</title>
<path fill="none" stroke="#191970" d="M309.1459,-68.7089C300.7567,-67.6068 292.171,-66.4789 283.7721,-65.3755"/>
<polygon fill="#191970" stroke="#191970" points="308.8849,-72.2046 319.2556,-70.0371 309.7967,-65.2642 308.8849,-72.2046"/>
</g>
<!-- Node84 -->
<g id="node5" class="node">
<title>Node84</title>
<g id="a_node5"><a xlink:href="classnlohmann_1_1basic__json.html#a1e0769d22d54573f294da0e5c6abc9de" target="_top" xlink:title="returns a const reverse iterator to the last element">
<polygon fill="#ffffff" stroke="#000000" points="159.8491,-.5 159.8491,-28.5 272.5776,-28.5 272.5776,-.5 159.8491,-.5"/>
<text text-anchor="start" x="167.8491" y="-16.5" font-family="Helvetica,sans-Serif" font-size="10.00" fill="#000000">nlohmann::basic_json</text>
<text text-anchor="middle" x="216.2134" y="-6.5" font-family="Helvetica,sans-Serif" font-size="10.00" fill="#000000">::crbegin</text>
</a>
</g>
</g>
<!-- Node80&#45;&gt;Node84 -->
<g id="edge4" class="edge">
<title>Node80&#45;&gt;Node84</title>
<path fill="none" stroke="#191970" d="M334.286,-59.2566C318.5149,-52.529 300.3588,-44.9737 283.6982,-38.5 275.1211,-35.1672 265.8638,-31.7559 257.0362,-28.5898"/>
<polygon fill="#191970" stroke="#191970" points="333.1929,-62.596 343.7629,-63.3214 335.9523,-56.1628 333.1929,-62.596"/>
</g>
<!-- Node85 -->
<g id="node6" class="node">
<title>Node85</title>
<g id="a_node6"><a xlink:href="classnlohmann_1_1basic__json.html#a515e7618392317dbf4b72d3e18bf2ab2" target="_top" xlink:title="returns a const reverse iterator to the last element">
<polygon fill="#ffffff" stroke="#000000" points="0,-.5 0,-28.5 112.7285,-28.5 112.7285,-.5 0,-.5"/>
<text text-anchor="start" x="8" y="-16.5" font-family="Helvetica,sans-Serif" font-size="10.00" fill="#000000">nlohmann::basic_json</text>
<text text-anchor="middle" x="56.3643" y="-6.5" font-family="Helvetica,sans-Serif" font-size="10.00" fill="#000000">::rbegin</text>
</a>
</g>
</g>
<!-- Node84&#45;&gt;Node85 -->
<g id="edge5" class="edge">
<title>Node84&#45;&gt;Node85</title>
<path fill="none" stroke="#191970" d="M149.3659,-14.5C137.2677,-14.5 124.7586,-14.5 112.9882,-14.5"/>
<polygon fill="#191970" stroke="#191970" points="149.4065,-18.0001 159.4065,-14.5 149.4064,-11.0001 149.4065,-18.0001"/>
</g>
</g>
</svg>
