<?xml version="1.0" encoding="UTF-8" standalone="no"?>
<!DOCTYPE svg PUBLIC "-//W3C//DTD SVG 1.1//EN"
 "http://www.w3.org/Graphics/SVG/1.1/DTD/svg11.dtd">
<!-- Generated by graphviz version 2.40.1 (20161225.0304)
 -->
<!-- Title: nlohmann::basic_json::iter_impl::operator&gt;= Pages: 1 -->
<svg width="271pt" height="37pt"
 viewBox="0.00 0.00 270.56 37.00" xmlns="http://www.w3.org/2000/svg" xmlns:xlink="http://www.w3.org/1999/xlink">
<g id="graph0" class="graph" transform="scale(1 1) rotate(0) translate(4 33)">
<title>nlohmann::basic_json::iter_impl::operator&gt;=</title>
<polygon fill="#ffffff" stroke="transparent" points="-4,4 -4,-33 266.5557,-33 266.5557,4 -4,4"/>
<!-- Node53 -->
<g id="node1" class="node">
<title>Node53</title>
<g id="a_node1"><a xlink:title="comparison: greater than or equal">
<polygon fill="#bfbfbf" stroke="#000000" points="0,-.5 0,-28.5 113.8271,-28.5 113.8271,-.5 0,-.5"/>
<text text-anchor="start" x="8" y="-16.5" font-family="Helvetica,sans-Serif" font-size="10.00" fill="#000000">nlohmann::basic_json</text>
<text text-anchor="middle" x="56.9136" y="-6.5" font-family="Helvetica,sans-Serif" font-size="10.00" fill="#000000">::iter_impl::operator&gt;=</text>
</a>
</g>
</g>
<!-- Node54 -->
<g id="node2" class="node">
<title>Node54</title>
<g id="a_node2"><a xlink:href="classnlohmann_1_1basic__json_1_1iter__impl.html#a63c655881b0b7b7499a333ba77a7e4d1" target="_top" xlink:title="comparison: smaller">
<polygon fill="#ffffff" stroke="#000000" points="149.8271,-.5 149.8271,-28.5 262.5557,-28.5 262.5557,-.5 149.8271,-.5"/>
<text text-anchor="start" x="157.8271" y="-16.5" font-family="Helvetica,sans-Serif" font-size="10.00" fill="#000000">nlohmann::basic_json</text>
<text text-anchor="middle" x="206.1914" y="-6.5" font-family="Helvetica,sans-Serif" font-size="10.00" fill="#000000">::iter_impl::operator&lt;</text>
</a>
</g>
</g>
<!-- Node53&#45;&gt;Node54 -->
<g id="edge1" class="edge">
<title>Node53&#45;&gt;Node54</title>
<path fill="none" stroke="#191970" d="M114.2014,-14.5C122.5018,-14.5 131.1054,-14.5 139.5698,-14.5"/>
<polygon fill="#191970" stroke="#191970" points="139.7958,-18.0001 149.7958,-14.5 139.7957,-11.0001 139.7958,-18.0001"/>
</g>
</g>
</svg>
