<?xml version="1.0" encoding="UTF-8" standalone="no"?>
<!DOCTYPE svg PUBLIC "-//W3C//DTD SVG 1.1//EN"
 "http://www.w3.org/Graphics/SVG/1.1/DTD/svg11.dtd">
<!-- Generated by graphviz version 2.40.1 (20161225.0304)
 -->
<!-- Title: MasterSamplerTopcXYZ::reset Pages: 1 -->
<svg width="304pt" height="101pt"
 viewBox="0.00 0.00 303.86 101.00" xmlns="http://www.w3.org/2000/svg" xmlns:xlink="http://www.w3.org/1999/xlink">
<g id="graph0" class="graph" transform="scale(1 1) rotate(0) translate(4 97)">
<title>MasterSamplerTopcXYZ::reset</title>
<polygon fill="#ffffff" stroke="transparent" points="-4,4 -4,-97 299.8613,-97 299.8613,4 -4,4"/>
<!-- Node58 -->
<g id="node1" class="node">
<title>Node58</title>
<g id="a_node1"><a xlink:title=" ">
<polygon fill="#bfbfbf" stroke="#000000" points="0,-32.5 0,-60.5 124.3691,-60.5 124.3691,-32.5 0,-32.5"/>
<text text-anchor="start" x="8" y="-48.5" font-family="Helvetica,sans-Serif" font-size="10.00" fill="#000000">MasterSamplerTopcXYZ</text>
<text text-anchor="middle" x="62.1846" y="-38.5" font-family="Helvetica,sans-Serif" font-size="10.00" fill="#000000">::reset</text>
</a>
</g>
</g>
<!-- Node59 -->
<g id="node2" class="node">
<title>Node59</title>
<g id="a_node2"><a xlink:href="class_observable_storer.html#a7b6285a532d796816d75262f91d43dad" target="_top" xlink:title=" ">
<polygon fill="#ffffff" stroke="#000000" points="167.0366,-74.5 167.0366,-92.5 289.1938,-92.5 289.1938,-74.5 167.0366,-74.5"/>
<text text-anchor="middle" x="228.1152" y="-80.5" font-family="Helvetica,sans-Serif" font-size="10.00" fill="#000000">ObservableStorer::reset</text>
</a>
</g>
</g>
<!-- Node58&#45;&gt;Node59 -->
<g id="edge1" class="edge">
<title>Node58&#45;&gt;Node59</title>
<path fill="none" stroke="#191970" d="M124.4431,-60.3827C141.9586,-64.2884 160.7895,-68.4874 177.5332,-72.221"/>
<polygon fill="#191970" stroke="#191970" points="177.1363,-75.7184 187.6583,-74.4787 178.6598,-68.8862 177.1363,-75.7184"/>
</g>
<!-- Node60 -->
<g id="node3" class="node">
<title>Node60</title>
<g id="a_node3"><a xlink:href="class_parameters.html#a237ea1286459e8c648e983464829fe8d" target="_top" xlink:title=" ">
<polygon fill="#ffffff" stroke="#000000" points="160.3691,-37.5 160.3691,-55.5 295.8613,-55.5 295.8613,-37.5 160.3691,-37.5"/>
<text text-anchor="middle" x="228.1152" y="-43.5" font-family="Helvetica,sans-Serif" font-size="10.00" fill="#000000">Parameters::getNTemporal</text>
</a>
</g>
</g>
<!-- Node58&#45;&gt;Node60 -->
<g id="edge2" class="edge">
<title>Node58&#45;&gt;Node60</title>
<path fill="none" stroke="#191970" d="M124.4431,-46.5C132.8373,-46.5 141.5337,-46.5 150.1576,-46.5"/>
<polygon fill="#191970" stroke="#191970" points="150.2257,-50.0001 160.2256,-46.5 150.2256,-43.0001 150.2257,-50.0001"/>
</g>
<!-- Node61 -->
<g id="node4" class="node">
<title>Node61</title>
<g id="a_node4"><a xlink:href="class_parameters.html#aae314edb18d426571ab7b6df60da70aa" target="_top" xlink:title=" ">
<polygon fill="#ffffff" stroke="#000000" points="167.8765,-.5 167.8765,-18.5 288.354,-18.5 288.354,-.5 167.8765,-.5"/>
<text text-anchor="middle" x="228.1152" y="-6.5" font-family="Helvetica,sans-Serif" font-size="10.00" fill="#000000">Parameters::getNFlows</text>
</a>
</g>
</g>
<!-- Node58&#45;&gt;Node61 -->
<g id="edge3" class="edge">
<title>Node58&#45;&gt;Node61</title>
<path fill="none" stroke="#191970" d="M124.4431,-32.6173C141.9586,-28.7116 160.7895,-24.5126 177.5332,-20.779"/>
<polygon fill="#191970" stroke="#191970" points="178.6598,-24.1138 187.6583,-18.5213 177.1363,-17.2816 178.6598,-24.1138"/>
</g>
</g>
</svg>
