<?xml version="1.0" encoding="UTF-8" standalone="no"?>
<!DOCTYPE svg PUBLIC "-//W3C//DTD SVG 1.1//EN"
 "http://www.w3.org/Graphics/SVG/1.1/DTD/svg11.dtd">
<!-- Generated by graphviz version 2.40.1 (20161225.0304)
 -->
<!-- Title: nlohmann::basic_json::diff Pages: 1 -->
<svg width="440pt" height="358pt"
 viewBox="0.00 0.00 440.43 358.00" xmlns="http://www.w3.org/2000/svg" xmlns:xlink="http://www.w3.org/1999/xlink">
<g id="graph0" class="graph" transform="scale(1 1) rotate(0) translate(4 354)">
<title>nlohmann::basic_json::diff</title>
<polygon fill="#ffffff" stroke="transparent" points="-4,4 -4,-354 436.4268,-354 436.4268,4 -4,4"/>
<!-- Node99 -->
<g id="node1" class="node">
<title>Node99</title>
<g id="a_node1"><a xlink:title="creates a diff as a JSON patch">
<polygon fill="#bfbfbf" stroke="#000000" points="0,-158.5 0,-186.5 112.7285,-186.5 112.7285,-158.5 0,-158.5"/>
<text text-anchor="start" x="8" y="-174.5" font-family="Helvetica,sans-Serif" font-size="10.00" fill="#000000">nlohmann::basic_json</text>
<text text-anchor="middle" x="56.3643" y="-164.5" font-family="Helvetica,sans-Serif" font-size="10.00" fill="#000000">::diff</text>
</a>
</g>
</g>
<!-- Node100 -->
<g id="node2" class="node">
<title>Node100</title>
<g id="a_node2"><a xlink:href="classnlohmann_1_1basic__json.html#a2b2d781d7f2a4ee41bc0016e931cadf7" target="_top" xlink:title="return the type of the JSON value (explicit)">
<polygon fill="#ffffff" stroke="#000000" points="148.7285,-321.5 148.7285,-349.5 261.457,-349.5 261.457,-321.5 148.7285,-321.5"/>
<text text-anchor="start" x="156.7285" y="-337.5" font-family="Helvetica,sans-Serif" font-size="10.00" fill="#000000">nlohmann::basic_json</text>
<text text-anchor="middle" x="205.0928" y="-327.5" font-family="Helvetica,sans-Serif" font-size="10.00" fill="#000000">::type</text>
</a>
</g>
</g>
<!-- Node99&#45;&gt;Node100 -->
<g id="edge1" class="edge">
<title>Node99&#45;&gt;Node100</title>
<path fill="none" stroke="#191970" d="M62.3109,-186.8492C74.5393,-214.736 105.0716,-276.6501 148.7285,-312.5 150.2906,-313.7828 151.9339,-315.0022 153.6375,-316.1607"/>
<polygon fill="#191970" stroke="#191970" points="152.1756,-319.3629 162.5617,-321.4553 155.7473,-313.3427 152.1756,-319.3629"/>
</g>
<!-- Node101 -->
<g id="node3" class="node">
<title>Node101</title>
<g id="a_node3"><a xlink:href="classnlohmann_1_1basic__json.html#ac8e523ddc8c2dd7e5d2daf0d49a9c0d7" target="_top" xlink:title="add an object to an array">
<polygon fill="#ffffff" stroke="#000000" points="148.7285,-274.5 148.7285,-302.5 261.457,-302.5 261.457,-274.5 148.7285,-274.5"/>
<text text-anchor="start" x="156.7285" y="-290.5" font-family="Helvetica,sans-Serif" font-size="10.00" fill="#000000">nlohmann::basic_json</text>
<text text-anchor="middle" x="205.0928" y="-280.5" font-family="Helvetica,sans-Serif" font-size="10.00" fill="#000000">::push_back</text>
</a>
</g>
</g>
<!-- Node99&#45;&gt;Node101 -->
<g id="edge2" class="edge">
<title>Node99&#45;&gt;Node101</title>
<path fill="none" stroke="#191970" d="M67.2082,-186.5461C83.1848,-206.437 114.8397,-242.9011 148.7285,-265.5 150.9996,-267.0145 153.3861,-268.4575 155.8417,-269.828"/>
<polygon fill="#191970" stroke="#191970" points="154.454,-273.049 164.9528,-274.4718 157.6327,-266.8124 154.454,-273.049"/>
</g>
<!-- Node105 -->
<g id="node7" class="node">
<title>Node105</title>
<g id="a_node7"><a xlink:href="classnlohmann_1_1basic__json.html#a25e27ad0c6d53c01871c5485e1f75b96" target="_top" xlink:title="returns the number of elements">
<polygon fill="#ffffff" stroke="#000000" points="148.7285,-180.5 148.7285,-208.5 261.457,-208.5 261.457,-180.5 148.7285,-180.5"/>
<text text-anchor="start" x="156.7285" y="-196.5" font-family="Helvetica,sans-Serif" font-size="10.00" fill="#000000">nlohmann::basic_json</text>
<text text-anchor="middle" x="205.0928" y="-186.5" font-family="Helvetica,sans-Serif" font-size="10.00" fill="#000000">::size</text>
</a>
</g>
</g>
<!-- Node99&#45;&gt;Node105 -->
<g id="edge6" class="edge">
<title>Node99&#45;&gt;Node105</title>
<path fill="none" stroke="#191970" d="M113.0164,-180.88C121.3948,-182.1194 130.0917,-183.4058 138.6472,-184.6713"/>
<polygon fill="#191970" stroke="#191970" points="138.1936,-188.1422 148.5981,-186.1433 139.2179,-181.2176 138.1936,-188.1422"/>
</g>
<!-- Node106 -->
<g id="node8" class="node">
<title>Node106</title>
<g id="a_node8"><a xlink:href="classnlohmann_1_1basic__json.html#a0136728f5db69d4051c77b94307abd6c" target="_top" xlink:title="inserts element">
<polygon fill="#ffffff" stroke="#000000" points="148.7285,-227.5 148.7285,-255.5 261.457,-255.5 261.457,-227.5 148.7285,-227.5"/>
<text text-anchor="start" x="156.7285" y="-243.5" font-family="Helvetica,sans-Serif" font-size="10.00" fill="#000000">nlohmann::basic_json</text>
<text text-anchor="middle" x="205.0928" y="-233.5" font-family="Helvetica,sans-Serif" font-size="10.00" fill="#000000">::insert</text>
</a>
</g>
</g>
<!-- Node99&#45;&gt;Node106 -->
<g id="edge7" class="edge">
<title>Node99&#45;&gt;Node106</title>
<path fill="none" stroke="#191970" d="M83.1881,-186.5221C101.4869,-195.9233 126.367,-208.3863 148.7285,-218.5 152.3622,-220.1435 156.1493,-221.8022 159.9656,-223.4359"/>
<polygon fill="#191970" stroke="#191970" points="158.8667,-226.7706 169.4415,-227.4225 161.5813,-220.3184 158.8667,-226.7706"/>
</g>
<!-- Node107 -->
<g id="node9" class="node">
<title>Node107</title>
<g id="a_node9"><a xlink:href="classnlohmann_1_1basic__json.html#a13e032a02a7fd8a93fdddc2fcbc4763c" target="_top" xlink:title="returns an iterator to one past the last element">
<polygon fill="#ffffff" stroke="#000000" points="297.457,-142.5 297.457,-160.5 432.4268,-160.5 432.4268,-142.5 297.457,-142.5"/>
<text text-anchor="middle" x="364.9419" y="-148.5" font-family="Helvetica,sans-Serif" font-size="10.00" fill="#000000">nlohmann::basic_json::end</text>
</a>
</g>
</g>
<!-- Node99&#45;&gt;Node107 -->
<g id="edge10" class="edge">
<title>Node99&#45;&gt;Node107</title>
<path fill="none" stroke="#191970" d="M112.9622,-168.6483C161.8358,-165.3222 232.9262,-160.4842 287.1456,-156.7944"/>
<polygon fill="#191970" stroke="#191970" points="287.6688,-160.2669 297.408,-156.096 287.1934,-153.2831 287.6688,-160.2669"/>
</g>
<!-- Node108 -->
<g id="node10" class="node">
<title>Node108</title>
<g id="a_node10"><a xlink:href="classnlohmann_1_1basic__json.html#a0ff28dac23f2bdecee9564d07f51dcdc" target="_top" xlink:title="returns an iterator to the first element">
<polygon fill="#ffffff" stroke="#000000" points="148.7285,-47.5 148.7285,-75.5 261.457,-75.5 261.457,-47.5 148.7285,-47.5"/>
<text text-anchor="start" x="156.7285" y="-63.5" font-family="Helvetica,sans-Serif" font-size="10.00" fill="#000000">nlohmann::basic_json</text>
<text text-anchor="middle" x="205.0928" y="-53.5" font-family="Helvetica,sans-Serif" font-size="10.00" fill="#000000">::begin</text>
</a>
</g>
</g>
<!-- Node99&#45;&gt;Node108 -->
<g id="edge11" class="edge">
<title>Node99&#45;&gt;Node108</title>
<path fill="none" stroke="#191970" d="M68.5624,-158.2179C85.1479,-139.5044 116.4618,-106.5952 148.7285,-85.5 151.6203,-83.6094 154.6857,-81.8122 157.8342,-80.1151"/>
<polygon fill="#191970" stroke="#191970" points="159.475,-83.2079 166.8518,-75.603 156.3426,-76.9478 159.475,-83.2079"/>
</g>
<!-- Node109 -->
<g id="node11" class="node">
<title>Node109</title>
<g id="a_node11"><a xlink:href="classnlohmann_1_1basic__json.html#a9f42ee7d10eee2d5a73fd94ca7f767ca" target="_top" xlink:title="explicitly create an object from an initializer list">
<polygon fill="#ffffff" stroke="#000000" points="148.7285,-.5 148.7285,-28.5 261.457,-28.5 261.457,-.5 148.7285,-.5"/>
<text text-anchor="start" x="156.7285" y="-16.5" font-family="Helvetica,sans-Serif" font-size="10.00" fill="#000000">nlohmann::basic_json</text>
<text text-anchor="middle" x="205.0928" y="-6.5" font-family="Helvetica,sans-Serif" font-size="10.00" fill="#000000">::object</text>
</a>
</g>
</g>
<!-- Node99&#45;&gt;Node109 -->
<g id="edge12" class="edge">
<title>Node99&#45;&gt;Node109</title>
<path fill="none" stroke="#191970" d="M62.6438,-158.2509C75.24,-131.174 106.0801,-71.9248 148.7285,-37.5 150.3014,-36.2304 151.9538,-35.0222 153.6651,-33.8732"/>
<polygon fill="#191970" stroke="#191970" points="155.7688,-36.6966 162.6169,-28.6124 152.2221,-30.6616 155.7688,-36.6966"/>
</g>
<!-- Node111 -->
<g id="node13" class="node">
<title>Node111</title>
<g id="a_node13"><a xlink:href="classnlohmann_1_1basic__json.html#aeed33787bd362c7ead59a4ba945392db" target="_top" xlink:title="find an element in a JSON object">
<polygon fill="#ffffff" stroke="#000000" points="148.7285,-94.5 148.7285,-122.5 261.457,-122.5 261.457,-94.5 148.7285,-94.5"/>
<text text-anchor="start" x="156.7285" y="-110.5" font-family="Helvetica,sans-Serif" font-size="10.00" fill="#000000">nlohmann::basic_json</text>
<text text-anchor="middle" x="205.0928" y="-100.5" font-family="Helvetica,sans-Serif" font-size="10.00" fill="#000000">::find</text>
</a>
</g>
</g>
<!-- Node99&#45;&gt;Node111 -->
<g id="edge14" class="edge">
<title>Node99&#45;&gt;Node111</title>
<path fill="none" stroke="#191970" d="M89.0034,-158.4549C110.7982,-149.0763 139.6629,-136.6554 163.1572,-126.5455"/>
<polygon fill="#191970" stroke="#191970" points="164.7276,-129.6801 172.5298,-122.5123 161.9607,-123.2501 164.7276,-129.6801"/>
</g>
<!-- Node102 -->
<g id="node4" class="node">
<title>Node102</title>
<g id="a_node4"><a xlink:href="classnlohmann_1_1basic__json.html#a8faa039ca82427ed29c486ffd00600c3" target="_top" xlink:title="return whether value is null">
<polygon fill="#ffffff" stroke="#000000" points="308.5776,-321.5 308.5776,-349.5 421.3062,-349.5 421.3062,-321.5 308.5776,-321.5"/>
<text text-anchor="start" x="316.5776" y="-337.5" font-family="Helvetica,sans-Serif" font-size="10.00" fill="#000000">nlohmann::basic_json</text>
<text text-anchor="middle" x="364.9419" y="-327.5" font-family="Helvetica,sans-Serif" font-size="10.00" fill="#000000">::is_null</text>
</a>
</g>
</g>
<!-- Node101&#45;&gt;Node102 -->
<g id="edge3" class="edge">
<title>Node101&#45;&gt;Node102</title>
<path fill="none" stroke="#191970" d="M253.0528,-302.6015C270.2008,-307.6435 289.6992,-313.3766 307.5615,-318.6286"/>
<polygon fill="#191970" stroke="#191970" points="306.7101,-322.0264 317.2914,-321.4894 308.6848,-315.3106 306.7101,-322.0264"/>
</g>
<!-- Node103 -->
<g id="node5" class="node">
<title>Node103</title>
<g id="a_node5"><a xlink:href="classnlohmann_1_1basic__json.html#aef9ce5dd2381caee1f8ddcdb5bdd9c65" target="_top" xlink:title="return whether value is an array">
<polygon fill="#ffffff" stroke="#000000" points="308.5776,-274.5 308.5776,-302.5 421.3062,-302.5 421.3062,-274.5 308.5776,-274.5"/>
<text text-anchor="start" x="316.5776" y="-290.5" font-family="Helvetica,sans-Serif" font-size="10.00" fill="#000000">nlohmann::basic_json</text>
<text text-anchor="middle" x="364.9419" y="-280.5" font-family="Helvetica,sans-Serif" font-size="10.00" fill="#000000">::is_array</text>
</a>
</g>
</g>
<!-- Node101&#45;&gt;Node103 -->
<g id="edge4" class="edge">
<title>Node101&#45;&gt;Node103</title>
<path fill="none" stroke="#191970" d="M261.8997,-288.5C273.6776,-288.5 286.1884,-288.5 298.2823,-288.5"/>
<polygon fill="#191970" stroke="#191970" points="298.318,-292.0001 308.3179,-288.5 298.3179,-285.0001 298.318,-292.0001"/>
</g>
<!-- Node104 -->
<g id="node6" class="node">
<title>Node104</title>
<g id="a_node6"><a xlink:href="classnlohmann_1_1basic__json.html#a6b75862bdb4d26650616cf9821430755" target="_top" xlink:title="return the type as string">
<polygon fill="#ffffff" stroke="#000000" points="308.5776,-227.5 308.5776,-255.5 421.3062,-255.5 421.3062,-227.5 308.5776,-227.5"/>
<text text-anchor="start" x="316.5776" y="-243.5" font-family="Helvetica,sans-Serif" font-size="10.00" fill="#000000">nlohmann::basic_json</text>
<text text-anchor="middle" x="364.9419" y="-233.5" font-family="Helvetica,sans-Serif" font-size="10.00" fill="#000000">::type_name</text>
</a>
</g>
</g>
<!-- Node101&#45;&gt;Node104 -->
<g id="edge5" class="edge">
<title>Node101&#45;&gt;Node104</title>
<path fill="none" stroke="#191970" d="M253.0528,-274.3985C270.2008,-269.3565 289.6992,-263.6234 307.5615,-258.3714"/>
<polygon fill="#191970" stroke="#191970" points="308.6848,-261.6894 317.2914,-255.5106 306.7101,-254.9736 308.6848,-261.6894"/>
</g>
<!-- Node106&#45;&gt;Node103 -->
<g id="edge8" class="edge">
<title>Node106&#45;&gt;Node103</title>
<path fill="none" stroke="#191970" d="M253.0528,-255.6015C270.2008,-260.6435 289.6992,-266.3766 307.5615,-271.6286"/>
<polygon fill="#191970" stroke="#191970" points="306.7101,-275.0264 317.2914,-274.4894 308.6848,-268.3106 306.7101,-275.0264"/>
</g>
<!-- Node106&#45;&gt;Node104 -->
<g id="edge9" class="edge">
<title>Node106&#45;&gt;Node104</title>
<path fill="none" stroke="#191970" d="M261.8997,-241.5C273.6776,-241.5 286.1884,-241.5 298.2823,-241.5"/>
<polygon fill="#191970" stroke="#191970" points="298.318,-245.0001 308.3179,-241.5 298.3179,-238.0001 298.318,-245.0001"/>
</g>
<!-- Node110 -->
<g id="node12" class="node">
<title>Node110</title>
<g id="a_node12"><a xlink:href="classnlohmann_1_1basic__json.html#a32124a16dc80729d964d9caf607c2bc8" target="_top" xlink:title="create an empty value with a given type">
<polygon fill="#ffffff" stroke="#000000" points="308.5776,-.5 308.5776,-28.5 421.3062,-28.5 421.3062,-.5 308.5776,-.5"/>
<text text-anchor="start" x="316.5776" y="-16.5" font-family="Helvetica,sans-Serif" font-size="10.00" fill="#000000">nlohmann::basic_json</text>
<text text-anchor="middle" x="364.9419" y="-6.5" font-family="Helvetica,sans-Serif" font-size="10.00" fill="#000000">::basic_json</text>
</a>
</g>
</g>
<!-- Node109&#45;&gt;Node110 -->
<g id="edge13" class="edge">
<title>Node109&#45;&gt;Node110</title>
<path fill="none" stroke="#191970" d="M261.8997,-14.5C273.6776,-14.5 286.1884,-14.5 298.2823,-14.5"/>
<polygon fill="#191970" stroke="#191970" points="298.318,-18.0001 308.3179,-14.5 298.3179,-11.0001 298.318,-18.0001"/>
</g>
<!-- Node111&#45;&gt;Node107 -->
<g id="edge15" class="edge">
<title>Node111&#45;&gt;Node107</title>
<path fill="none" stroke="#191970" d="M257.4334,-122.5798C278.1527,-128.1534 301.691,-134.4853 321.4499,-139.8005"/>
<polygon fill="#191970" stroke="#191970" points="320.5433,-143.181 331.1092,-142.3989 322.3617,-136.4213 320.5433,-143.181"/>
</g>
<!-- Node112 -->
<g id="node14" class="node">
<title>Node112</title>
<g id="a_node14"><a xlink:href="classnlohmann_1_1basic__json.html#af8f511af124e82e4579f444b4175787c" target="_top" xlink:title="return whether value is an object">
<polygon fill="#ffffff" stroke="#000000" points="308.5776,-94.5 308.5776,-122.5 421.3062,-122.5 421.3062,-94.5 308.5776,-94.5"/>
<text text-anchor="start" x="316.5776" y="-110.5" font-family="Helvetica,sans-Serif" font-size="10.00" fill="#000000">nlohmann::basic_json</text>
<text text-anchor="middle" x="364.9419" y="-100.5" font-family="Helvetica,sans-Serif" font-size="10.00" fill="#000000">::is_object</text>
</a>
</g>
</g>
<!-- Node111&#45;&gt;Node112 -->
<g id="edge16" class="edge">
<title>Node111&#45;&gt;Node112</title>
<path fill="none" stroke="#191970" d="M261.8997,-108.5C273.6776,-108.5 286.1884,-108.5 298.2823,-108.5"/>
<polygon fill="#191970" stroke="#191970" points="298.318,-112.0001 308.3179,-108.5 298.3179,-105.0001 298.318,-112.0001"/>
</g>
</g>
</svg>
