<?xml version="1.0" encoding="UTF-8" standalone="no"?>
<!DOCTYPE svg PUBLIC "-//W3C//DTD SVG 1.1//EN"
 "http://www.w3.org/Graphics/SVG/1.1/DTD/svg11.dtd">
<!-- Generated by graphviz version 2.40.1 (20161225.0304)
 -->
<!-- Title: LatticeActionChargeDensity::printStatistics Pages: 1 -->
<svg width="499pt" height="37pt"
 viewBox="0.00 0.00 498.71 37.00" xmlns="http://www.w3.org/2000/svg" xmlns:xlink="http://www.w3.org/1999/xlink">
<g id="graph0" class="graph" transform="scale(1 1) rotate(0) translate(4 33)">
<title>LatticeActionChargeDensity::printStatistics</title>
<polygon fill="#ffffff" stroke="transparent" points="-4,4 -4,-33 494.7129,-33 494.7129,4 -4,4"/>
<!-- Node65 -->
<g id="node1" class="node">
<title>Node65</title>
<g id="a_node1"><a xlink:title=" ">
<polygon fill="#bfbfbf" stroke="#000000" points="0,-.5 0,-28.5 139.3984,-28.5 139.3984,-.5 0,-.5"/>
<text text-anchor="start" x="8" y="-16.5" font-family="Helvetica,sans-Serif" font-size="10.00" fill="#000000">LatticeActionChargeDensity</text>
<text text-anchor="middle" x="69.6992" y="-6.5" font-family="Helvetica,sans-Serif" font-size="10.00" fill="#000000">::printStatistics</text>
</a>
</g>
</g>
<!-- Node66 -->
<g id="node2" class="node">
<title>Node66</title>
<g id="a_node2"><a xlink:href="class_observable_storer.html#a04a12e7da9e21d6947027230c953bffe" target="_top" xlink:title=" ">
<polygon fill="#ffffff" stroke="#000000" points="175.3984,-5.5 175.3984,-23.5 334.7871,-23.5 334.7871,-5.5 175.3984,-5.5"/>
<text text-anchor="middle" x="255.0928" y="-11.5" font-family="Helvetica,sans-Serif" font-size="10.00" fill="#000000">ObservableStorer::printStatistics</text>
</a>
</g>
</g>
<!-- Node65&#45;&gt;Node66 -->
<g id="edge1" class="edge">
<title>Node65&#45;&gt;Node66</title>
<path fill="none" stroke="#191970" d="M139.5244,-14.5C147.9347,-14.5 156.613,-14.5 165.2581,-14.5"/>
<polygon fill="#191970" stroke="#191970" points="165.3733,-18.0001 175.3733,-14.5 165.3733,-11.0001 165.3733,-18.0001"/>
</g>
<!-- Node67 -->
<g id="node3" class="node">
<title>Node67</title>
<g id="a_node3"><a xlink:href="class_parallel_1_1_communicator.html#a474ab433da0e83ef372d74e26a7e5cb0" target="_top" xlink:title=" ">
<polygon fill="#ffffff" stroke="#000000" points="370.7871,-.5 370.7871,-28.5 490.7129,-28.5 490.7129,-.5 370.7871,-.5"/>
<text text-anchor="start" x="378.7871" y="-16.5" font-family="Helvetica,sans-Serif" font-size="10.00" fill="#000000">Parallel::Communicator</text>
<text text-anchor="middle" x="430.75" y="-6.5" font-family="Helvetica,sans-Serif" font-size="10.00" fill="#000000">::getProcessRank</text>
</a>
</g>
</g>
<!-- Node66&#45;&gt;Node67 -->
<g id="edge2" class="edge">
<title>Node66&#45;&gt;Node67</title>
<path fill="none" stroke="#191970" d="M334.9545,-14.5C343.4596,-14.5 352.0651,-14.5 360.4485,-14.5"/>
<polygon fill="#191970" stroke="#191970" points="360.5426,-18.0001 370.5426,-14.5 360.5425,-11.0001 360.5426,-18.0001"/>
</g>
</g>
</svg>
