<?xml version="1.0" encoding="UTF-8" standalone="no"?>
<!DOCTYPE svg PUBLIC "-//W3C//DTD SVG 1.1//EN"
 "http://www.w3.org/Graphics/SVG/1.1/DTD/svg11.dtd">
<!-- Generated by graphviz version 2.40.1 (20161225.0304)
 -->
<!-- Title: Lattice::allocate Pages: 1 -->
<svg width="462pt" height="733pt"
 viewBox="0.00 0.00 462.04 733.00" xmlns="http://www.w3.org/2000/svg" xmlns:xlink="http://www.w3.org/1999/xlink">
<g id="graph0" class="graph" transform="scale(1 1) rotate(0) translate(4 729)">
<title>Lattice::allocate</title>
<polygon fill="#ffffff" stroke="transparent" points="-4,4 -4,-729 458.0381,-729 458.0381,4 -4,4"/>
<!-- Node11 -->
<g id="node1" class="node">
<title>Node11</title>
<g id="a_node1"><a xlink:title=" ">
<polygon fill="#bfbfbf" stroke="#000000" points="368.5508,-363.5 368.5508,-381.5 454.0381,-381.5 454.0381,-363.5 368.5508,-363.5"/>
<text text-anchor="middle" x="411.2944" y="-369.5" font-family="Helvetica,sans-Serif" font-size="10.00" fill="#000000">Lattice::allocate</text>
</a>
</g>
</g>
<!-- Node12 -->
<g id="node2" class="node">
<title>Node12</title>
<g id="a_node2"><a xlink:href="class_luscher_action.html#a2389aab5b35b4c5ccb0ae5a45f68430b" target="_top" xlink:title=" ">
<polygon fill="#ffffff" stroke="#000000" points="179.8271,-706.5 179.8271,-724.5 328.1221,-724.5 328.1221,-706.5 179.8271,-706.5"/>
<text text-anchor="middle" x="253.9746" y="-712.5" font-family="Helvetica,sans-Serif" font-size="10.00" fill="#000000">LuscherAction::LuscherAction</text>
</a>
</g>
</g>
<!-- Node11&#45;&gt;Node12 -->
<g id="edge1" class="edge">
<title>Node11&#45;&gt;Node12</title>
<path fill="none" stroke="#191970" d="M409.2639,-391.7798C402.2306,-454.8847 376.8826,-653.7196 332.5508,-697.5 328.966,-701.0402 324.8356,-703.9407 320.3838,-706.3113"/>
<polygon fill="#191970" stroke="#191970" points="412.7645,-391.9637 410.3645,-381.6443 405.8054,-391.208 412.7645,-391.9637"/>
</g>
<!-- Node13 -->
<g id="node3" class="node">
<title>Node13</title>
<g id="a_node3"><a xlink:href="class_wilson_gauge_action.html#a50d06446cf93f7e738e88c372920f518" target="_top" xlink:title=" ">
<polygon fill="#ffffff" stroke="#000000" points="199.2852,-659.5 199.2852,-687.5 308.6641,-687.5 308.6641,-659.5 199.2852,-659.5"/>
<text text-anchor="start" x="207.2852" y="-675.5" font-family="Helvetica,sans-Serif" font-size="10.00" fill="#000000">WilsonGaugeAction::</text>
<text text-anchor="middle" x="253.9746" y="-665.5" font-family="Helvetica,sans-Serif" font-size="10.00" fill="#000000">WilsonGaugeAction</text>
</a>
</g>
</g>
<!-- Node11&#45;&gt;Node13 -->
<g id="edge2" class="edge">
<title>Node11&#45;&gt;Node13</title>
<path fill="none" stroke="#191970" d="M408.2997,-391.7935C399.133,-448.4845 369.8022,-612.9218 332.5508,-650.5 326.0463,-657.0615 317.7792,-661.7738 309.0639,-665.1529"/>
<polygon fill="#191970" stroke="#191970" points="411.7928,-392.1124 409.9032,-381.6875 404.8793,-391.0154 411.7928,-392.1124"/>
</g>
<!-- Node14 -->
<g id="node4" class="node">
<title>Node14</title>
<g id="a_node4"><a xlink:href="class_flow.html#a25ae85599c0ae330374f0840efde7ebc" target="_top" xlink:title=" ">
<polygon fill="#ffffff" stroke="#000000" points="222.083,-622.5 222.083,-640.5 285.8662,-640.5 285.8662,-622.5 222.083,-622.5"/>
<text text-anchor="middle" x="253.9746" y="-628.5" font-family="Helvetica,sans-Serif" font-size="10.00" fill="#000000">Flow::Flow</text>
</a>
</g>
</g>
<!-- Node11&#45;&gt;Node14 -->
<g id="edge3" class="edge">
<title>Node11&#45;&gt;Node14</title>
<path fill="none" stroke="#191970" d="M407.5604,-391.6442C397.1461,-443.1146 366.3184,-582.6614 332.5508,-613.5 320.0466,-624.9196 301.8086,-629.5653 286.0504,-631.2895"/>
<polygon fill="#191970" stroke="#191970" points="411.0476,-392.0532 409.5655,-381.5626 404.182,-390.6877 411.0476,-392.0532"/>
</g>
<!-- Node15 -->
<g id="node5" class="node">
<title>Node15</title>
<g id="a_node5"><a xlink:href="class_lattice.html#a0c212e4f17842acee8697ce79eef3dff" target="_top" xlink:title=" ">
<polygon fill="#ffffff" stroke="#000000" points="195.3887,-585.5 195.3887,-603.5 312.5605,-603.5 312.5605,-585.5 195.3887,-585.5"/>
<text text-anchor="middle" x="253.9746" y="-591.5" font-family="Helvetica,sans-Serif" font-size="10.00" fill="#000000">Lattice&lt; SU3 &gt;::Lattice</text>
</a>
</g>
</g>
<!-- Node11&#45;&gt;Node15 -->
<g id="edge4" class="edge">
<title>Node11&#45;&gt;Node15</title>
<path fill="none" stroke="#191970" d="M409.7447,-391.6354C405.3894,-432.2356 389.3476,-527.3045 332.5508,-576.5 326.8384,-581.4479 320.0397,-585.1093 312.8671,-587.8068"/>
<polygon fill="#191970" stroke="#191970" points="413.2456,-391.7913 410.7042,-381.5058 406.2768,-391.1311 413.2456,-391.7913"/>
</g>
<!-- Node16 -->
<g id="node6" class="node">
<title>Node16</title>
<g id="a_node6"><a xlink:href="lattice_8h.html#ab2d48b63b79e5e5ee3ca25483fe98b3e" target="_top" xlink:title=" ">
<polygon fill="#ffffff" stroke="#000000" points="196.1382,-548.5 196.1382,-566.5 311.811,-566.5 311.811,-548.5 196.1382,-548.5"/>
<text text-anchor="middle" x="253.9746" y="-554.5" font-family="Helvetica,sans-Serif" font-size="10.00" fill="#000000">realTraceMultiplication</text>
</a>
</g>
</g>
<!-- Node11&#45;&gt;Node16 -->
<g id="edge5" class="edge">
<title>Node11&#45;&gt;Node16</title>
<path fill="none" stroke="#191970" d="M407.9011,-391.7436C400.6672,-426.8146 380.3197,-501.0531 332.5508,-539.5 326.5544,-544.3262 319.5077,-547.9094 312.1388,-550.5611"/>
<polygon fill="#191970" stroke="#191970" points="411.3564,-392.3091 409.8071,-381.8282 404.4823,-390.9876 411.3564,-392.3091"/>
</g>
<!-- Node20 -->
<g id="node10" class="node">
<title>Node20</title>
<g id="a_node10"><a xlink:href="lattice_8h.html#adb16681d0c7120b111172c031ec74d06" target="_top" xlink:title=" ">
<polygon fill="#ffffff" stroke="#000000" points="193.6382,-437.5 193.6382,-455.5 314.311,-455.5 314.311,-437.5 193.6382,-437.5"/>
<text text-anchor="middle" x="253.9746" y="-443.5" font-family="Helvetica,sans-Serif" font-size="10.00" fill="#000000">imagTraceMultiplication</text>
</a>
</g>
</g>
<!-- Node11&#45;&gt;Node20 -->
<g id="edge9" class="edge">
<title>Node11&#45;&gt;Node20</title>
<path fill="none" stroke="#191970" d="M393.415,-388.3613C378.2276,-401.0244 355.3253,-418.2834 332.5508,-428.5 324.3786,-432.166 315.3815,-435.1241 306.4826,-437.4989"/>
<polygon fill="#191970" stroke="#191970" points="396.083,-390.6848 401.4063,-381.5244 391.5324,-385.3658 396.083,-390.6848"/>
</g>
<!-- Node21 -->
<g id="node11" class="node">
<title>Node21</title>
<g id="a_node11"><a xlink:href="lattice_8h.html#a491004d1505561625a8915464f3c6cab" target="_top" xlink:title=" ">
<polygon fill="#ffffff" stroke="#000000" points="239.4746,-474.5 239.4746,-492.5 268.4746,-492.5 268.4746,-474.5 239.4746,-474.5"/>
<text text-anchor="middle" x="253.9746" y="-480.5" font-family="Helvetica,sans-Serif" font-size="10.00" fill="#000000">inv</text>
</a>
</g>
</g>
<!-- Node11&#45;&gt;Node21 -->
<g id="edge10" class="edge">
<title>Node11&#45;&gt;Node21</title>
<path fill="none" stroke="#191970" d="M401.1994,-390.2909C388.1593,-411.5832 363.4249,-446.7106 332.5508,-465.5 312.5857,-477.6504 285.2305,-481.6083 268.6232,-482.8917"/>
<polygon fill="#191970" stroke="#191970" points="404.2676,-391.9784 406.3479,-381.5898 398.2433,-388.4137 404.2676,-391.9784"/>
</g>
<!-- Node28 -->
<g id="node18" class="node">
<title>Node28</title>
<g id="a_node18"><a xlink:href="lattice_8h.html#a64dd6a80a2d6f4a5fb73f90c31fdb6ac" target="_top" xlink:title=" ">
<polygon fill="#ffffff" stroke="#000000" points="224.0166,-400.5 224.0166,-418.5 283.9326,-418.5 283.9326,-400.5 224.0166,-400.5"/>
<text text-anchor="middle" x="253.9746" y="-406.5" font-family="Helvetica,sans-Serif" font-size="10.00" fill="#000000">transpose</text>
</a>
</g>
</g>
<!-- Node11&#45;&gt;Node28 -->
<g id="edge20" class="edge">
<title>Node11&#45;&gt;Node28</title>
<path fill="none" stroke="#191970" d="M364.2738,-383.9397C353.8348,-386.4532 342.8212,-389.0847 332.5508,-391.5 316.6114,-395.2485 298.8288,-399.3305 284.2172,-402.6581"/>
<polygon fill="#191970" stroke="#191970" points="365.1637,-387.3255 374.0634,-381.577 363.5213,-380.5209 365.1637,-387.3255"/>
</g>
<!-- Node29 -->
<g id="node19" class="node">
<title>Node29</title>
<g id="a_node19"><a xlink:href="lattice_8h.html#a23d5cd768af53db3d528ba7ed2e06439" target="_top" xlink:title=" ">
<polygon fill="#ffffff" stroke="#000000" points="224.29,-363.5 224.29,-381.5 283.6592,-381.5 283.6592,-363.5 224.29,-363.5"/>
<text text-anchor="middle" x="253.9746" y="-369.5" font-family="Helvetica,sans-Serif" font-size="10.00" fill="#000000">conjugate</text>
</a>
</g>
</g>
<!-- Node11&#45;&gt;Node29 -->
<g id="edge21" class="edge">
<title>Node11&#45;&gt;Node29</title>
<path fill="none" stroke="#191970" d="M357.9817,-372.5C333.2813,-372.5 304.8472,-372.5 283.9588,-372.5"/>
<polygon fill="#191970" stroke="#191970" points="358.3061,-376.0001 368.3061,-372.5 358.3061,-369.0001 358.3061,-376.0001"/>
</g>
<!-- Node30 -->
<g id="node20" class="node">
<title>Node30</title>
<g id="a_node20"><a xlink:href="lattice_8h.html#ac9e572cd88422198dd6105892065f862" target="_top" xlink:title=" ">
<polygon fill="#ffffff" stroke="#000000" points="203.7383,-326.5 203.7383,-344.5 304.2109,-344.5 304.2109,-326.5 203.7383,-326.5"/>
<text text-anchor="middle" x="253.9746" y="-332.5" font-family="Helvetica,sans-Serif" font-size="10.00" fill="#000000">makeAntiHermitian</text>
</a>
</g>
</g>
<!-- Node11&#45;&gt;Node30 -->
<g id="edge22" class="edge">
<title>Node11&#45;&gt;Node30</title>
<path fill="none" stroke="#191970" d="M363.0237,-361.1472C340.3216,-355.8079 313.6287,-349.53 292.3344,-344.5218"/>
<polygon fill="#191970" stroke="#191970" points="362.2739,-364.5663 372.8097,-363.4488 363.8766,-357.7522 362.2739,-364.5663"/>
</g>
<!-- Node31 -->
<g id="node21" class="node">
<title>Node31</title>
<g id="a_node21"><a xlink:href="lattice_8h.html#a4ec59a9f0de72a8ac099bd7a6c156d4d" target="_top" xlink:title=" ">
<polygon fill="#ffffff" stroke="#000000" points="212.354,-289.5 212.354,-307.5 295.5952,-307.5 295.5952,-289.5 212.354,-289.5"/>
<text text-anchor="middle" x="253.9746" y="-295.5" font-family="Helvetica,sans-Serif" font-size="10.00" fill="#000000">makeHermitian</text>
</a>
</g>
</g>
<!-- Node11&#45;&gt;Node31 -->
<g id="edge23" class="edge">
<title>Node11&#45;&gt;Node31</title>
<path fill="none" stroke="#191970" d="M392.8175,-356.5879C377.5834,-344.2411 354.9172,-327.5816 332.5508,-317.5 321.0352,-312.3094 307.9048,-308.4201 295.7183,-305.5587"/>
<polygon fill="#191970" stroke="#191970" points="390.9412,-359.5793 400.8698,-363.2769 395.4141,-354.1948 390.9412,-359.5793"/>
</g>
<!-- Node32 -->
<g id="node22" class="node">
<title>Node32</title>
<g id="a_node22"><a xlink:href="lattice_8h.html#a53bbfaed8f54ee3a1db6f8049686ccdf" target="_top" xlink:title=" ">
<polygon fill="#ffffff" stroke="#000000" points="236.8047,-511.5 236.8047,-529.5 271.1445,-529.5 271.1445,-511.5 236.8047,-511.5"/>
<text text-anchor="middle" x="253.9746" y="-517.5" font-family="Helvetica,sans-Serif" font-size="10.00" fill="#000000">shift</text>
</a>
</g>
</g>
<!-- Node11&#45;&gt;Node32 -->
<g id="edge24" class="edge">
<title>Node11&#45;&gt;Node32</title>
<path fill="none" stroke="#191970" d="M405.2291,-391.4432C395.0252,-420.1405 371.6194,-474.2718 332.5508,-502.5 314.4006,-515.614 288.2443,-519.3668 271.1795,-520.3372"/>
<polygon fill="#191970" stroke="#191970" points="408.6032,-392.3913 408.4985,-381.797 401.9737,-390.1443 408.6032,-392.3913"/>
</g>
<!-- Node33 -->
<g id="node23" class="node">
<title>Node33</title>
<g id="a_node23"><a xlink:href="class_energy_density.html#a1d23cfe5690c9daf8b2f0ec8f6471c5f" target="_top" xlink:title=" ">
<polygon fill="#ffffff" stroke="#000000" points="178.167,-252.5 178.167,-270.5 329.7822,-270.5 329.7822,-252.5 178.167,-252.5"/>
<text text-anchor="middle" x="253.9746" y="-258.5" font-family="Helvetica,sans-Serif" font-size="10.00" fill="#000000">EnergyDensity::EnergyDensity</text>
</a>
</g>
</g>
<!-- Node11&#45;&gt;Node33 -->
<g id="edge34" class="edge">
<title>Node11&#45;&gt;Node33</title>
<path fill="none" stroke="#191970" d="M400.9137,-354.6419C387.737,-333.6101 363.0136,-299.1797 332.5508,-280.5 325.731,-276.3181 318.0526,-273.0566 310.2362,-270.5128"/>
<polygon fill="#191970" stroke="#191970" points="397.9587,-356.5191 406.1344,-363.2576 403.9453,-352.8913 397.9587,-356.5191"/>
</g>
<!-- Node34 -->
<g id="node24" class="node">
<title>Node34</title>
<g id="a_node24"><a xlink:href="class_lattice_action_charge_density.html#acda2a43db75cca34586441d4ac7ec39e" target="_top" xlink:title=" ">
<polygon fill="#ffffff" stroke="#000000" points="181.4971,-205.5 181.4971,-233.5 326.4521,-233.5 326.4521,-205.5 181.4971,-205.5"/>
<text text-anchor="start" x="189.4971" y="-221.5" font-family="Helvetica,sans-Serif" font-size="10.00" fill="#000000">LatticeActionChargeDensity</text>
<text text-anchor="middle" x="253.9746" y="-211.5" font-family="Helvetica,sans-Serif" font-size="10.00" fill="#000000">::LatticeActionChargeDensity</text>
</a>
</g>
</g>
<!-- Node11&#45;&gt;Node34 -->
<g id="edge35" class="edge">
<title>Node11&#45;&gt;Node34</title>
<path fill="none" stroke="#191970" d="M404.9352,-354.0372C394.3413,-326.0048 370.4258,-272.8704 332.5508,-243.5 327.4784,-239.5666 321.7614,-236.2745 315.7831,-233.5197"/>
<polygon fill="#191970" stroke="#191970" points="401.6482,-355.2396 408.3445,-363.4499 408.2297,-352.8557 401.6482,-355.2396"/>
</g>
<!-- Node35 -->
<g id="node25" class="node">
<title>Node35</title>
<g id="a_node25"><a xlink:href="class_master_sampler.html#ac5ee503e8391aca36f73872a45bb6bd9" target="_top" xlink:title=" ">
<polygon fill="#ffffff" stroke="#000000" points="175.3984,-168.5 175.3984,-186.5 332.5508,-186.5 332.5508,-168.5 175.3984,-168.5"/>
<text text-anchor="middle" x="253.9746" y="-174.5" font-family="Helvetica,sans-Serif" font-size="10.00" fill="#000000">MasterSampler::MasterSampler</text>
</a>
</g>
</g>
<!-- Node11&#45;&gt;Node35 -->
<g id="edge36" class="edge">
<title>Node11&#45;&gt;Node35</title>
<path fill="none" stroke="#191970" d="M408.2774,-352.8188C401.5936,-316.2092 382.0199,-237.6353 332.5508,-196.5 327.5867,-192.3722 321.8696,-189.1144 315.8303,-186.5472"/>
<polygon fill="#191970" stroke="#191970" points="404.902,-353.8511 410.0161,-363.1299 411.8045,-352.6871 404.902,-353.8511"/>
</g>
<!-- Node36 -->
<g id="node26" class="node">
<title>Node36</title>
<g id="a_node26"><a xlink:href="class_master_sampler_topc_x_y_z.html#ad8ba8f2c50c66d823c551f71fd62a99b" target="_top" xlink:title=" ">
<polygon fill="#ffffff" stroke="#000000" points="189.0117,-121.5 189.0117,-149.5 318.9375,-149.5 318.9375,-121.5 189.0117,-121.5"/>
<text text-anchor="start" x="197.0117" y="-137.5" font-family="Helvetica,sans-Serif" font-size="10.00" fill="#000000">MasterSamplerTopcXYZ</text>
<text text-anchor="middle" x="253.9746" y="-127.5" font-family="Helvetica,sans-Serif" font-size="10.00" fill="#000000">::MasterSamplerTopcXYZ</text>
</a>
</g>
</g>
<!-- Node11&#45;&gt;Node36 -->
<g id="edge37" class="edge">
<title>Node11&#45;&gt;Node36</title>
<path fill="none" stroke="#191970" d="M409.8421,-352.9873C405.6638,-311.1157 389.9262,-212.1099 332.5508,-158.5 328.6041,-154.8124 324.0978,-151.7127 319.285,-149.1078"/>
<polygon fill="#191970" stroke="#191970" points="406.3772,-353.5416 410.7391,-363.1969 413.3504,-352.9289 406.3772,-353.5416"/>
</g>
<!-- Node37 -->
<g id="node27" class="node">
<title>Node37</title>
<g id="a_node27"><a xlink:href="class_super_sampler.html#a6bf01b68f9befc5bf01c822e28c0c88d" target="_top" xlink:title=" ">
<polygon fill="#ffffff" stroke="#000000" points="179.2754,-84.5 179.2754,-102.5 328.6738,-102.5 328.6738,-84.5 179.2754,-84.5"/>
<text text-anchor="middle" x="253.9746" y="-90.5" font-family="Helvetica,sans-Serif" font-size="10.00" fill="#000000">SuperSampler::SuperSampler</text>
</a>
</g>
</g>
<!-- Node11&#45;&gt;Node37 -->
<g id="edge38" class="edge">
<title>Node11&#45;&gt;Node37</title>
<path fill="none" stroke="#191970" d="M408.0424,-353.2165C398.4724,-298.7256 368.7921,-145.363 332.5508,-111.5 328.665,-107.8692 324.2014,-104.9197 319.4173,-102.5292"/>
<polygon fill="#191970" stroke="#191970" points="404.6266,-354.0048 409.7744,-363.265 411.5248,-352.8157 404.6266,-354.0048"/>
</g>
<!-- Node38 -->
<g id="node28" class="node">
<title>Node38</title>
<g id="a_node28"><a xlink:href="class_topological_charge.html#a415e32f865f7b5c83f4ac4471838d514" target="_top" xlink:title=" ">
<polygon fill="#ffffff" stroke="#000000" points="201.7803,-37.5 201.7803,-65.5 306.1689,-65.5 306.1689,-37.5 201.7803,-37.5"/>
<text text-anchor="start" x="209.7803" y="-53.5" font-family="Helvetica,sans-Serif" font-size="10.00" fill="#000000">TopologicalCharge::</text>
<text text-anchor="middle" x="253.9746" y="-43.5" font-family="Helvetica,sans-Serif" font-size="10.00" fill="#000000">TopologicalCharge</text>
</a>
</g>
</g>
<!-- Node11&#45;&gt;Node38 -->
<g id="edge39" class="edge">
<title>Node11&#45;&gt;Node38</title>
<path fill="none" stroke="#191970" d="M408.6639,-353.008C400.2474,-293.4107 372.1905,-115.2011 332.5508,-74.5 325.4104,-67.1684 316.0709,-62.1415 306.3343,-58.7028"/>
<polygon fill="#191970" stroke="#191970" points="405.2461,-353.8438 410.0829,-363.2701 412.1801,-352.8849 405.2461,-353.8438"/>
</g>
<!-- Node39 -->
<g id="node29" class="node">
<title>Node39</title>
<g id="a_node29"><a xlink:href="class_test_suite.html#af7291e6d8b53443604ee0c1fcf1fadfc" target="_top" xlink:title=" ">
<polygon fill="#ffffff" stroke="#000000" points="202.0635,-.5 202.0635,-18.5 305.8857,-18.5 305.8857,-.5 202.0635,-.5"/>
<text text-anchor="middle" x="253.9746" y="-6.5" font-family="Helvetica,sans-Serif" font-size="10.00" fill="#000000">TestSuite::TestSuite</text>
</a>
</g>
</g>
<!-- Node11&#45;&gt;Node39 -->
<g id="edge40" class="edge">
<title>Node11&#45;&gt;Node39</title>
<path fill="none" stroke="#191970" d="M409.5654,-353.3279C403.2718,-287.8357 379.4558,-74.4422 332.5508,-27.5 325.3296,-20.2731 315.8374,-15.7041 305.9565,-12.8648"/>
<polygon fill="#191970" stroke="#191970" points="406.0965,-353.8256 410.5107,-363.4571 413.0662,-353.1751 406.0965,-353.8256"/>
</g>
<!-- Node17 -->
<g id="node7" class="node">
<title>Node17</title>
<g id="a_node7"><a xlink:href="class_lattice_action_charge_density.html#a3dddc75188042c645fbdd1c8b3e80c8a" target="_top" xlink:title=" ">
<polygon fill="#ffffff" stroke="#000000" points="0,-632.5 0,-660.5 139.3984,-660.5 139.3984,-632.5 0,-632.5"/>
<text text-anchor="start" x="8" y="-648.5" font-family="Helvetica,sans-Serif" font-size="10.00" fill="#000000">LatticeActionChargeDensity</text>
<text text-anchor="middle" x="69.6992" y="-638.5" font-family="Helvetica,sans-Serif" font-size="10.00" fill="#000000">::calculate</text>
</a>
</g>
</g>
<!-- Node16&#45;&gt;Node17 -->
<g id="edge6" class="edge">
<title>Node16&#45;&gt;Node17</title>
<path fill="none" stroke="#191970" d="M186.7795,-570.34C182.8018,-572.132 178.9709,-574.1737 175.3984,-576.5 153.3488,-590.8583 160.8449,-608.2555 139.3984,-623.5 134.5171,-626.9698 129.0787,-629.9407 123.4525,-632.4791"/>
<polygon fill="#191970" stroke="#191970" points="188.256,-573.5201 196.2749,-566.5957 185.688,-567.0081 188.256,-573.5201"/>
</g>
<!-- Node18 -->
<g id="node8" class="node">
<title>Node18</title>
<g id="a_node8"><a xlink:href="class_master_sampler_topc_x_y_z.html#a0ea80ad9935db791f00461b7dfd548b7" target="_top" xlink:title=" ">
<polygon fill="#ffffff" stroke="#000000" points="7.5146,-585.5 7.5146,-613.5 131.8838,-613.5 131.8838,-585.5 7.5146,-585.5"/>
<text text-anchor="start" x="15.5146" y="-601.5" font-family="Helvetica,sans-Serif" font-size="10.00" fill="#000000">MasterSamplerTopcXYZ</text>
<text text-anchor="middle" x="69.6992" y="-591.5" font-family="Helvetica,sans-Serif" font-size="10.00" fill="#000000">::calculate</text>
</a>
</g>
</g>
<!-- Node16&#45;&gt;Node18 -->
<g id="edge7" class="edge">
<title>Node16&#45;&gt;Node18</title>
<path fill="none" stroke="#191970" d="M204.4344,-568.7912C181.9273,-573.921 155.0719,-580.0419 131.2814,-585.4642"/>
<polygon fill="#191970" stroke="#191970" points="205.4707,-572.1448 214.4429,-566.5101 203.9151,-565.3199 205.4707,-572.1448"/>
</g>
<!-- Node19 -->
<g id="node9" class="node">
<title>Node19</title>
<g id="a_node9"><a xlink:href="class_super_sampler.html#a7e1457583270077c4fbcb288ea9b954c" target="_top" xlink:title=" ">
<polygon fill="#ffffff" stroke="#000000" points="7.2266,-548.5 7.2266,-566.5 132.1719,-566.5 132.1719,-548.5 7.2266,-548.5"/>
<text text-anchor="middle" x="69.6992" y="-554.5" font-family="Helvetica,sans-Serif" font-size="10.00" fill="#000000">SuperSampler::calculate</text>
</a>
</g>
</g>
<!-- Node16&#45;&gt;Node19 -->
<g id="edge8" class="edge">
<title>Node16&#45;&gt;Node19</title>
<path fill="none" stroke="#191970" d="M185.7666,-557.5C168.2398,-557.5 149.4717,-557.5 132.2471,-557.5"/>
<polygon fill="#191970" stroke="#191970" points="185.9217,-561.0001 195.9217,-557.5 185.9216,-554.0001 185.9217,-561.0001"/>
</g>
<!-- Node21&#45;&gt;Node17 -->
<g id="edge14" class="edge">
<title>Node21&#45;&gt;Node17</title>
<path fill="none" stroke="#191970" d="M228.7713,-483.3494C211.6393,-484.5922 189.5926,-489.0245 175.3984,-502.5 134.7078,-541.1306 178.4818,-583.244 139.3984,-623.5 136.0255,-626.9741 132.1182,-629.9236 127.9095,-632.4277"/>
<polygon fill="#191970" stroke="#191970" points="229.3367,-486.8296 239.1879,-482.9304 229.0553,-479.8353 229.3367,-486.8296"/>
</g>
<!-- Node21&#45;&gt;Node18 -->
<g id="edge16" class="edge">
<title>Node21&#45;&gt;Node18</title>
<path fill="none" stroke="#191970" d="M229.1289,-484.1269C212.3405,-485.7429 190.5565,-490.3015 175.3984,-502.5 146.9049,-525.4303 166.9343,-552.4281 139.3984,-576.5 135.4651,-579.9385 131.0039,-582.8655 126.2848,-585.3568"/>
<polygon fill="#191970" stroke="#191970" points="229.5784,-487.6047 239.3201,-483.4393 229.1071,-480.6205 229.5784,-487.6047"/>
</g>
<!-- Node21&#45;&gt;Node19 -->
<g id="edge18" class="edge">
<title>Node21&#45;&gt;Node19</title>
<path fill="none" stroke="#191970" d="M229.1837,-485.8953C213.0229,-488.2967 191.942,-493.0679 175.3984,-502.5 155.4665,-513.8639 159.2418,-527.9821 139.3984,-539.5 133.1294,-543.1388 126.1233,-546.0527 119.0359,-548.3835"/>
<polygon fill="#191970" stroke="#191970" points="229.9929,-489.3205 239.4697,-484.5833 229.1072,-482.3768 229.9929,-489.3205"/>
</g>
<!-- Node22 -->
<g id="node12" class="node">
<title>Node22</title>
<g id="a_node12"><a xlink:href="class_luscher_action.html#ac11785b2df276816a098a87e6ac514c7" target="_top" xlink:title=" ">
<polygon fill="#ffffff" stroke="#000000" points="6.3892,-380.5 6.3892,-408.5 133.0093,-408.5 133.0093,-380.5 6.3892,-380.5"/>
<text text-anchor="start" x="14.3892" y="-396.5" font-family="Helvetica,sans-Serif" font-size="10.00" fill="#000000">LuscherAction::getAction</text>
<text text-anchor="middle" x="69.6992" y="-386.5" font-family="Helvetica,sans-Serif" font-size="10.00" fill="#000000">Derivative</text>
</a>
</g>
</g>
<!-- Node21&#45;&gt;Node22 -->
<g id="edge11" class="edge">
<title>Node21&#45;&gt;Node22</title>
<path fill="none" stroke="#191970" d="M228.8071,-482.1124C212.4887,-480.2063 191.3737,-475.7662 175.3984,-465.5 153.2627,-451.2749 160.7463,-433.8823 139.3984,-418.5 133.9992,-414.6095 127.9176,-411.3093 121.6537,-408.5201"/>
<polygon fill="#191970" stroke="#191970" points="228.938,-485.639 239.216,-483.0675 229.5777,-478.6683 228.938,-485.639"/>
</g>
<!-- Node23 -->
<g id="node13" class="node">
<title>Node23</title>
<g id="a_node13"><a xlink:href="class_wilson_gauge_action.html#a43cf939cd53495b7225fbeaa8a0ff6e8" target="_top" xlink:title=" ">
<polygon fill="#ffffff" stroke="#000000" points="15.0098,-333.5 15.0098,-361.5 124.3887,-361.5 124.3887,-333.5 15.0098,-333.5"/>
<text text-anchor="start" x="23.0098" y="-349.5" font-family="Helvetica,sans-Serif" font-size="10.00" fill="#000000">WilsonGaugeAction::</text>
<text text-anchor="middle" x="69.6992" y="-339.5" font-family="Helvetica,sans-Serif" font-size="10.00" fill="#000000">getActionDerivative</text>
</a>
</g>
</g>
<!-- Node21&#45;&gt;Node23 -->
<g id="edge12" class="edge">
<title>Node21&#45;&gt;Node23</title>
<path fill="none" stroke="#191970" d="M229.1078,-483.6618C212.1319,-482.4934 190.1337,-478.2972 175.3984,-465.5 141.6215,-436.1657 171.5673,-402.5894 139.3984,-371.5 135.0733,-367.32 129.9869,-363.8658 124.5646,-361.0119"/>
<polygon fill="#191970" stroke="#191970" points="229.2858,-487.171 239.4112,-484.0524 229.551,-480.176 229.2858,-487.171"/>
</g>
<!-- Node24 -->
<g id="node14" class="node">
<title>Node24</title>
<g id="a_node14"><a xlink:href="class_energy_density.html#ae8e5e29257104d881bcabeadc3b2c9e7" target="_top" xlink:title=" ">
<polygon fill="#ffffff" stroke="#000000" points="6.6724,-296.5 6.6724,-314.5 132.7261,-314.5 132.7261,-296.5 6.6724,-296.5"/>
<text text-anchor="middle" x="69.6992" y="-302.5" font-family="Helvetica,sans-Serif" font-size="10.00" fill="#000000">EnergyDensity::calculate</text>
</a>
</g>
</g>
<!-- Node21&#45;&gt;Node24 -->
<g id="edge13" class="edge">
<title>Node21&#45;&gt;Node24</title>
<path fill="none" stroke="#191970" d="M228.9351,-484.1946C211.6953,-483.2983 189.4509,-479.2084 175.3984,-465.5 129.1016,-420.3368 184.7611,-370.6014 139.3984,-324.5 135.352,-320.3876 130.5093,-317.1397 125.2872,-314.5783"/>
<polygon fill="#191970" stroke="#191970" points="229.3409,-487.7028 239.405,-484.3915 229.4726,-480.704 229.3409,-487.7028"/>
</g>
<!-- Node25 -->
<g id="node15" class="node">
<title>Node25</title>
<g id="a_node15"><a xlink:href="class_master_sampler.html#ad3cc7e36498dbf4a39238de3ac59ae8b" target="_top" xlink:title=" ">
<polygon fill="#ffffff" stroke="#000000" points="5.2881,-511.5 5.2881,-529.5 134.1104,-529.5 134.1104,-511.5 5.2881,-511.5"/>
<text text-anchor="middle" x="69.6992" y="-517.5" font-family="Helvetica,sans-Serif" font-size="10.00" fill="#000000">MasterSampler::calculate</text>
</a>
</g>
</g>
<!-- Node21&#45;&gt;Node25 -->
<g id="edge15" class="edge">
<title>Node21&#45;&gt;Node25</title>
<path fill="none" stroke="#191970" d="M229.0458,-488.5054C199.8317,-494.3712 150.8499,-504.206 114.8886,-511.4266"/>
<polygon fill="#191970" stroke="#191970" points="230.0908,-491.8655 239.2061,-486.4653 228.7127,-485.0025 230.0908,-491.8655"/>
</g>
<!-- Node26 -->
<g id="node16" class="node">
<title>Node26</title>
<g id="a_node16"><a xlink:href="class_plaquette.html#a40cae6fd587c14836bdf61e69c615a00" target="_top" xlink:title=" ">
<polygon fill="#ffffff" stroke="#000000" points="18.0591,-474.5 18.0591,-492.5 121.3394,-492.5 121.3394,-474.5 18.0591,-474.5"/>
<text text-anchor="middle" x="69.6992" y="-480.5" font-family="Helvetica,sans-Serif" font-size="10.00" fill="#000000">Plaquette::calculate</text>
</a>
</g>
</g>
<!-- Node21&#45;&gt;Node26 -->
<g id="edge17" class="edge">
<title>Node21&#45;&gt;Node26</title>
<path fill="none" stroke="#191970" d="M228.9256,-483.5C201.4961,-483.5 156.7437,-483.5 121.6578,-483.5"/>
<polygon fill="#191970" stroke="#191970" points="229.2061,-487.0001 239.2061,-483.5 229.206,-480.0001 229.2061,-487.0001"/>
</g>
<!-- Node27 -->
<g id="node17" class="node">
<title>Node27</title>
<g id="a_node17"><a xlink:href="class_topological_charge.html#a8ed78c28c3484df04b1cb24187de2f5b" target="_top" xlink:title=" ">
<polygon fill="#ffffff" stroke="#000000" points="17.5049,-427.5 17.5049,-455.5 121.8936,-455.5 121.8936,-427.5 17.5049,-427.5"/>
<text text-anchor="start" x="25.5049" y="-443.5" font-family="Helvetica,sans-Serif" font-size="10.00" fill="#000000">TopologicalCharge::</text>
<text text-anchor="middle" x="69.6992" y="-433.5" font-family="Helvetica,sans-Serif" font-size="10.00" fill="#000000">calculate</text>
</a>
</g>
</g>
<!-- Node21&#45;&gt;Node27 -->
<g id="edge19" class="edge">
<title>Node21&#45;&gt;Node27</title>
<path fill="none" stroke="#191970" d="M229.3273,-477.8824C202.0397,-471.663 157.2608,-461.457 122.0642,-453.435"/>
<polygon fill="#191970" stroke="#191970" points="228.6783,-481.3242 239.2061,-480.134 230.2339,-474.4992 228.6783,-481.3242"/>
</g>
<!-- Node32&#45;&gt;Node17 -->
<g id="edge28" class="edge">
<title>Node32&#45;&gt;Node17</title>
<path fill="none" stroke="#191970" d="M226.5139,-521.136C210.0196,-522.8601 189.5566,-527.5365 175.3984,-539.5 144.3738,-565.7154 169.3295,-596.0426 139.3984,-623.5 135.6425,-626.9455 131.3586,-629.8759 126.8035,-632.3679"/>
<polygon fill="#191970" stroke="#191970" points="226.9601,-524.6126 236.6738,-520.3824 226.4423,-517.6318 226.9601,-524.6126"/>
</g>
<!-- Node32&#45;&gt;Node18 -->
<g id="edge30" class="edge">
<title>Node32&#45;&gt;Node18</title>
<path fill="none" stroke="#191970" d="M226.5295,-523.3045C210.7639,-525.8245 191.0505,-530.5762 175.3984,-539.5 155.4665,-550.8639 158.8509,-564.3336 139.3984,-576.5 133.9968,-579.8784 128.0463,-582.8146 121.9675,-585.3523"/>
<polygon fill="#191970" stroke="#191970" points="227.2903,-526.7326 236.715,-521.8927 226.3291,-519.7989 227.2903,-526.7326"/>
</g>
<!-- Node32&#45;&gt;Node19 -->
<g id="edge32" class="edge">
<title>Node32&#45;&gt;Node19</title>
<path fill="none" stroke="#191970" d="M226.6278,-525.9909C197.0948,-531.9207 149.5802,-541.461 114.5617,-548.4922"/>
<polygon fill="#191970" stroke="#191970" points="227.5231,-529.381 236.6384,-523.9809 226.1451,-522.518 227.5231,-529.381"/>
</g>
<!-- Node32&#45;&gt;Node22 -->
<g id="edge25" class="edge">
<title>Node32&#45;&gt;Node22</title>
<path fill="none" stroke="#191970" d="M226.5361,-520.2563C210.0501,-518.7583 189.5881,-514.3442 175.3984,-502.5 144.2163,-476.4721 169.152,-446.1496 139.3984,-418.5 135.1798,-414.5796 130.2906,-411.296 125.097,-408.5463"/>
<polygon fill="#191970" stroke="#191970" points="226.4971,-523.7603 236.6897,-520.8684 226.9184,-516.7729 226.4971,-523.7603"/>
</g>
<!-- Node32&#45;&gt;Node23 -->
<g id="edge26" class="edge">
<title>Node32&#45;&gt;Node23</title>
<path fill="none" stroke="#191970" d="M226.255,-520.9412C209.4896,-519.724 188.829,-515.3651 175.3984,-502.5 131.7949,-460.7321 180.7187,-415.528 139.3984,-371.5 135.1946,-367.0207 130.1169,-363.3774 124.6407,-360.4141"/>
<polygon fill="#191970" stroke="#191970" points="226.4655,-524.452 236.5945,-521.3451 226.7388,-517.4573 226.4655,-524.452"/>
</g>
<!-- Node32&#45;&gt;Node24 -->
<g id="edge27" class="edge">
<title>Node32&#45;&gt;Node24</title>
<path fill="none" stroke="#191970" d="M226.2555,-521.2755C209.3131,-520.2132 188.4598,-515.9005 175.3984,-502.5 119.0621,-444.7005 194.5399,-383.4405 139.3984,-324.5 135.5426,-320.3785 130.8887,-317.1189 125.8364,-314.5455"/>
<polygon fill="#191970" stroke="#191970" points="226.6094,-524.7867 236.7032,-521.5671 226.8047,-517.7894 226.6094,-524.7867"/>
</g>
<!-- Node32&#45;&gt;Node25 -->
<g id="edge29" class="edge">
<title>Node32&#45;&gt;Node25</title>
<path fill="none" stroke="#191970" d="M226.391,-520.5C202.1167,-520.5 165.8273,-520.5 134.2833,-520.5"/>
<polygon fill="#191970" stroke="#191970" points="226.6385,-524.0001 236.6384,-520.5 226.6384,-517.0001 226.6385,-524.0001"/>
</g>
<!-- Node32&#45;&gt;Node26 -->
<g id="edge31" class="edge">
<title>Node32&#45;&gt;Node26</title>
<path fill="none" stroke="#191970" d="M226.6278,-515.0091C197.0948,-509.0793 149.5802,-499.539 114.5617,-492.5078"/>
<polygon fill="#191970" stroke="#191970" points="226.1451,-518.482 236.6384,-517.0191 227.5231,-511.619 226.1451,-518.482"/>
</g>
<!-- Node32&#45;&gt;Node27 -->
<g id="edge33" class="edge">
<title>Node32&#45;&gt;Node27</title>
<path fill="none" stroke="#191970" d="M226.5362,-518.1041C210.7729,-515.8049 191.0595,-511.3043 175.3984,-502.5 155.3984,-491.2564 158.7721,-477.7914 139.3984,-465.5 133.3468,-461.6606 126.6076,-458.3525 119.7711,-455.527"/>
<polygon fill="#191970" stroke="#191970" points="226.3645,-521.6096 236.7199,-519.37 227.228,-514.6631 226.3645,-521.6096"/>
</g>
</g>
</svg>
