<?xml version="1.0" encoding="UTF-8" standalone="no"?>
<!DOCTYPE svg PUBLIC "-//W3C//DTD SVG 1.1//EN"
 "http://www.w3.org/Graphics/SVG/1.1/DTD/svg11.dtd">
<!-- Generated by graphviz version 2.40.1 (20161225.0304)
 -->
<!-- Title: SuperSampler::writeFlowObservablesToFile Pages: 1 -->
<svg width="800pt" height="411pt"
 viewBox="0.00 0.00 800.28 411.00" xmlns="http://www.w3.org/2000/svg" xmlns:xlink="http://www.w3.org/1999/xlink">
<g id="graph0" class="graph" transform="scale(1 1) rotate(0) translate(4 407)">
<title>SuperSampler::writeFlowObservablesToFile</title>
<polygon fill="#ffffff" stroke="transparent" points="-4,4 -4,-407 796.2783,-407 796.2783,4 -4,4"/>
<!-- Node71 -->
<g id="node1" class="node">
<title>Node71</title>
<g id="a_node1"><a xlink:title=" ">
<polygon fill="#bfbfbf" stroke="#000000" points="0,-123.5 0,-151.5 183.8418,-151.5 183.8418,-123.5 0,-123.5"/>
<text text-anchor="start" x="8" y="-139.5" font-family="Helvetica,sans-Serif" font-size="10.00" fill="#000000">SuperSampler::writeFlowObservables</text>
<text text-anchor="middle" x="91.9209" y="-129.5" font-family="Helvetica,sans-Serif" font-size="10.00" fill="#000000">ToFile</text>
</a>
</g>
</g>
<!-- Node72 -->
<g id="node2" class="node">
<title>Node72</title>
<g id="a_node2"><a xlink:href="class_observable_storer.html#a593f13b0dd0f9d20608ef6b84fda3f1d" target="_top" xlink:title=" ">
<polygon fill="#ffffff" stroke="#000000" points="251.5215,-256.5 251.5215,-284.5 379.8018,-284.5 379.8018,-256.5 251.5215,-256.5"/>
<text text-anchor="start" x="259.5215" y="-272.5" font-family="Helvetica,sans-Serif" font-size="10.00" fill="#000000">ObservableStorer::gather</text>
<text text-anchor="middle" x="315.6616" y="-262.5" font-family="Helvetica,sans-Serif" font-size="10.00" fill="#000000">Results</text>
</a>
</g>
</g>
<!-- Node71&#45;&gt;Node72 -->
<g id="edge1" class="edge">
<title>Node71&#45;&gt;Node72</title>
<path fill="none" stroke="#191970" d="M104.1634,-151.7288C125.2996,-175.3576 171.0801,-222.5528 219.8418,-247.5 226.749,-251.0338 234.2161,-254.0374 241.828,-256.5877"/>
<polygon fill="#191970" stroke="#191970" points="240.9282,-259.9729 251.5158,-259.5815 242.995,-253.285 240.9282,-259.9729"/>
</g>
<!-- Node74 -->
<g id="node4" class="node">
<title>Node74</title>
<g id="a_node4"><a xlink:href="class_observable_storer.html#af51ebd65eae2a5087cfd47ddf230da93" target="_top" xlink:title=" ">
<polygon fill="#ffffff" stroke="#000000" points="244.5854,-209.5 244.5854,-237.5 386.7378,-237.5 386.7378,-209.5 244.5854,-209.5"/>
<text text-anchor="start" x="252.5854" y="-225.5" font-family="Helvetica,sans-Serif" font-size="10.00" fill="#000000">ObservableStorer::writeFlow</text>
<text text-anchor="middle" x="315.6616" y="-215.5" font-family="Helvetica,sans-Serif" font-size="10.00" fill="#000000">ObservableToFile</text>
</a>
</g>
</g>
<!-- Node71&#45;&gt;Node74 -->
<g id="edge3" class="edge">
<title>Node71&#45;&gt;Node74</title>
<path fill="none" stroke="#191970" d="M120.7035,-151.5713C146.3519,-163.8086 185.0955,-181.5587 219.8418,-194.5 231.1667,-198.718 243.4085,-202.784 255.2335,-206.4695"/>
<polygon fill="#191970" stroke="#191970" points="254.4528,-209.8908 265.0393,-209.4708 256.5015,-203.1973 254.4528,-209.8908"/>
</g>
<!-- Node85 -->
<g id="node15" class="node">
<title>Node85</title>
<g id="a_node15"><a xlink:href="class_parallel_1_1_communicator.html#a3da13427d693e0ce924159e871c83e19" target="_top" xlink:title=" ">
<polygon fill="#ffffff" stroke="#000000" points="240.1299,-123.5 240.1299,-151.5 391.1934,-151.5 391.1934,-123.5 240.1299,-123.5"/>
<text text-anchor="start" x="248.1299" y="-139.5" font-family="Helvetica,sans-Serif" font-size="10.00" fill="#000000">Parallel::Communicator</text>
<text text-anchor="middle" x="315.6616" y="-129.5" font-family="Helvetica,sans-Serif" font-size="10.00" fill="#000000">::reduceToTemporalDimension</text>
</a>
</g>
</g>
<!-- Node71&#45;&gt;Node85 -->
<g id="edge14" class="edge">
<title>Node71&#45;&gt;Node85</title>
<path fill="none" stroke="#191970" d="M183.8934,-137.5C199.0725,-137.5 214.7566,-137.5 229.7789,-137.5"/>
<polygon fill="#191970" stroke="#191970" points="230.0589,-141.0001 240.0589,-137.5 230.0588,-134.0001 230.0589,-141.0001"/>
</g>
<!-- Node86 -->
<g id="node16" class="node">
<title>Node86</title>
<g id="a_node16"><a xlink:href="class_parameters.html#a237ea1286459e8c648e983464829fe8d" target="_top" xlink:title=" ">
<polygon fill="#ffffff" stroke="#000000" points="461.3804,-56.5 461.3804,-74.5 596.8726,-74.5 596.8726,-56.5 461.3804,-56.5"/>
<text text-anchor="middle" x="529.1265" y="-62.5" font-family="Helvetica,sans-Serif" font-size="10.00" fill="#000000">Parameters::getNTemporal</text>
</a>
</g>
</g>
<!-- Node71&#45;&gt;Node86 -->
<g id="edge30" class="edge">
<title>Node71&#45;&gt;Node86</title>
<path fill="none" stroke="#191970" d="M168.312,-123.4971C185.2664,-120.4641 203.1552,-117.3216 219.8418,-114.5 302.1009,-100.5903 396.8763,-85.7496 459.6042,-76.0921"/>
<polygon fill="#191970" stroke="#191970" points="460.4227,-79.5075 469.7747,-74.5285 459.359,-72.5888 460.4227,-79.5075"/>
</g>
<!-- Node88 -->
<g id="node18" class="node">
<title>Node88</title>
<g id="a_node18"><a xlink:href="class_observable_storer.html#ab8885ce7eb3baa3fdb39cda767be6c83" target="_top" xlink:title=" ">
<polygon fill="#ffffff" stroke="#000000" points="233.1792,-37.5 233.1792,-65.5 398.144,-65.5 398.144,-37.5 233.1792,-37.5"/>
<text text-anchor="start" x="241.1792" y="-53.5" font-family="Helvetica,sans-Serif" font-size="10.00" fill="#000000">ObservableStorer::getObservable</text>
<text text-anchor="middle" x="315.6616" y="-43.5" font-family="Helvetica,sans-Serif" font-size="10.00" fill="#000000">Array</text>
</a>
</g>
</g>
<!-- Node71&#45;&gt;Node88 -->
<g id="edge18" class="edge">
<title>Node71&#45;&gt;Node88</title>
<path fill="none" stroke="#191970" d="M120.7035,-123.4287C146.3519,-111.1914 185.0955,-93.4413 219.8418,-80.5 231.1667,-76.282 243.4085,-72.216 255.2335,-68.5305"/>
<polygon fill="#191970" stroke="#191970" points="256.5015,-71.8027 265.0393,-65.5292 254.4528,-65.1092 256.5015,-71.8027"/>
</g>
<!-- Node89 -->
<g id="node19" class="node">
<title>Node89</title>
<g id="a_node19"><a xlink:href="namespace_i_o.html#ad77b7dd770afc8e2eb433d6187ea3616" target="_top" xlink:title=" ">
<polygon fill="#ffffff" stroke="#000000" points="475.5649,-179.5 475.5649,-197.5 582.688,-197.5 582.688,-179.5 475.5649,-179.5"/>
<text text-anchor="middle" x="529.1265" y="-185.5" font-family="Helvetica,sans-Serif" font-size="10.00" fill="#000000">IO::writeMatrixToFile</text>
</a>
</g>
</g>
<!-- Node71&#45;&gt;Node89 -->
<g id="edge19" class="edge">
<title>Node71&#45;&gt;Node89</title>
<path fill="none" stroke="#191970" d="M159.7659,-151.5144C179.1114,-155.1605 200.2536,-158.8141 219.8418,-161.5 304.3168,-173.0831 402.4917,-180.6608 465.178,-184.7604"/>
<polygon fill="#191970" stroke="#191970" points="465.1045,-188.2628 475.3088,-185.4128 465.5544,-181.2773 465.1045,-188.2628"/>
</g>
<!-- Node90 -->
<g id="node20" class="node">
<title>Node90</title>
<g id="a_node20"><a xlink:href="class_observable_storer.html#aa04dd06fe053670f4c8f027aa744277a" target="_top" xlink:title=" ">
<polygon fill="#ffffff" stroke="#000000" points="219.8418,-.5 219.8418,-18.5 411.4814,-18.5 411.4814,-.5 219.8418,-.5"/>
<text text-anchor="middle" x="315.6616" y="-6.5" font-family="Helvetica,sans-Serif" font-size="10.00" fill="#000000">ObservableStorer::getObservableName</text>
</a>
</g>
</g>
<!-- Node71&#45;&gt;Node90 -->
<g id="edge29" class="edge">
<title>Node71&#45;&gt;Node90</title>
<path fill="none" stroke="#191970" d="M103.6973,-123.3878C124.4858,-99.4941 170.2091,-51.3501 219.8418,-27.5 224.5367,-25.2439 229.4875,-23.2702 234.5648,-21.5435"/>
<polygon fill="#191970" stroke="#191970" points="235.9127,-24.7913 244.4507,-18.518 233.8642,-18.0977 235.9127,-24.7913"/>
</g>
<!-- Node73 -->
<g id="node3" class="node">
<title>Node73</title>
<g id="a_node3"><a xlink:href="class_parallel_1_1_communicator.html#a7b1f80fb49a0cc83f2031c3415174150" target="_top" xlink:title=" ">
<polygon fill="#ffffff" stroke="#000000" points="469.1636,-256.5 469.1636,-284.5 589.0894,-284.5 589.0894,-256.5 469.1636,-256.5"/>
<text text-anchor="start" x="477.1636" y="-272.5" font-family="Helvetica,sans-Serif" font-size="10.00" fill="#000000">Parallel::Communicator</text>
<text text-anchor="middle" x="529.1265" y="-262.5" font-family="Helvetica,sans-Serif" font-size="10.00" fill="#000000">::getNumProc</text>
</a>
</g>
</g>
<!-- Node72&#45;&gt;Node73 -->
<g id="edge2" class="edge">
<title>Node72&#45;&gt;Node73</title>
<path fill="none" stroke="#191970" d="M379.9976,-270.5C404.8134,-270.5 433.2803,-270.5 458.647,-270.5"/>
<polygon fill="#191970" stroke="#191970" points="458.9376,-274.0001 468.9376,-270.5 458.9376,-267.0001 458.9376,-274.0001"/>
</g>
<!-- Node75 -->
<g id="node5" class="node">
<title>Node75</title>
<g id="a_node5"><a xlink:href="namespace_i_o.html#a4f554804fd2ccd9c13c73777c5cbbf77" target="_top" xlink:title=" ">
<polygon fill="#ffffff" stroke="#000000" points="453.0503,-216.5 453.0503,-234.5 605.2026,-234.5 605.2026,-216.5 453.0503,-216.5"/>
<text text-anchor="middle" x="529.1265" y="-222.5" font-family="Helvetica,sans-Serif" font-size="10.00" fill="#000000">IO::writeFlowObservableToFile</text>
</a>
</g>
</g>
<!-- Node74&#45;&gt;Node75 -->
<g id="edge4" class="edge">
<title>Node74&#45;&gt;Node75</title>
<path fill="none" stroke="#191970" d="M386.7423,-224.166C404.6506,-224.3338 424.0717,-224.5157 442.6436,-224.6897"/>
<polygon fill="#191970" stroke="#191970" points="442.8266,-228.1915 452.859,-224.7854 442.8922,-221.1918 442.8266,-228.1915"/>
</g>
<!-- Node76 -->
<g id="node6" class="node">
<title>Node76</title>
<g id="a_node6"><a xlink:href="class_parallel_1_1_communicator.html#a474ab433da0e83ef372d74e26a7e5cb0" target="_top" xlink:title=" ">
<polygon fill="#ffffff" stroke="#000000" points="659.562,-337.5 659.562,-365.5 779.4878,-365.5 779.4878,-337.5 659.562,-337.5"/>
<text text-anchor="start" x="667.562" y="-353.5" font-family="Helvetica,sans-Serif" font-size="10.00" fill="#000000">Parallel::Communicator</text>
<text text-anchor="middle" x="719.5249" y="-343.5" font-family="Helvetica,sans-Serif" font-size="10.00" fill="#000000">::getProcessRank</text>
</a>
</g>
</g>
<!-- Node75&#45;&gt;Node76 -->
<g id="edge5" class="edge">
<title>Node75&#45;&gt;Node76</title>
<path fill="none" stroke="#191970" d="M588.0704,-234.5279C596.3074,-237.6637 604.1912,-241.8682 610.7715,-247.5 640.7016,-273.1162 617.3988,-302.2465 646.7715,-328.5 648.0956,-329.6835 649.4805,-330.8061 650.9163,-331.871"/>
<polygon fill="#191970" stroke="#191970" points="649.2995,-334.9891 659.6256,-337.3601 653.0319,-329.0671 649.2995,-334.9891"/>
</g>
<!-- Node77 -->
<g id="node7" class="node">
<title>Node77</title>
<g id="a_node7"><a xlink:href="class_parameters.html#a96dbafc27f287de83dfaec3bc2d45efe" target="_top" xlink:title=" ">
<polygon fill="#ffffff" stroke="#000000" points="648.998,-300.5 648.998,-318.5 790.0518,-318.5 790.0518,-300.5 648.998,-300.5"/>
<text text-anchor="middle" x="719.5249" y="-306.5" font-family="Helvetica,sans-Serif" font-size="10.00" fill="#000000">Parameters::getFlowEpsilon</text>
</a>
</g>
</g>
<!-- Node75&#45;&gt;Node77 -->
<g id="edge6" class="edge">
<title>Node75&#45;&gt;Node77</title>
<path fill="none" stroke="#191970" d="M582.1319,-234.6263C592.1289,-237.7452 602.1431,-241.919 610.7715,-247.5 631.9872,-261.2228 625.4151,-277.9972 646.7715,-291.5 649.777,-293.4003 652.9699,-295.0999 656.2759,-296.6202"/>
<polygon fill="#191970" stroke="#191970" points="655.2464,-299.9781 665.8309,-300.4471 657.8491,-293.4799 655.2464,-299.9781"/>
</g>
<!-- Node78 -->
<g id="node8" class="node">
<title>Node78</title>
<g id="a_node8"><a xlink:href="class_parameters.html#a58f15668b37e705d34d6588e287e4bc0" target="_top" xlink:title=" ">
<polygon fill="#ffffff" stroke="#000000" points="650.9414,-253.5 650.9414,-281.5 788.1084,-281.5 788.1084,-253.5 650.9414,-253.5"/>
<text text-anchor="start" x="658.9414" y="-269.5" font-family="Helvetica,sans-Serif" font-size="10.00" fill="#000000">Parameters::getConfigStart</text>
<text text-anchor="middle" x="719.5249" y="-259.5" font-family="Helvetica,sans-Serif" font-size="10.00" fill="#000000">Number</text>
</a>
</g>
</g>
<!-- Node75&#45;&gt;Node78 -->
<g id="edge7" class="edge">
<title>Node75&#45;&gt;Node78</title>
<path fill="none" stroke="#191970" d="M569.9717,-234.5101C592.1596,-239.4045 620.2714,-245.6057 646.1183,-251.3072"/>
<polygon fill="#191970" stroke="#191970" points="645.3773,-254.7278 655.8965,-253.4642 646.8852,-247.8922 645.3773,-254.7278"/>
</g>
<!-- Node79 -->
<g id="node9" class="node">
<title>Node79</title>
<g id="a_node9"><a xlink:href="class_parameters.html#afa4cfe5dc4302b1e8f8928606ea9b056" target="_top" xlink:title=" ">
<polygon fill="#ffffff" stroke="#000000" points="646.7715,-216.5 646.7715,-234.5 792.2783,-234.5 792.2783,-216.5 646.7715,-216.5"/>
<text text-anchor="middle" x="719.5249" y="-222.5" font-family="Helvetica,sans-Serif" font-size="10.00" fill="#000000">Parameters::getOutputFolder</text>
</a>
</g>
</g>
<!-- Node75&#45;&gt;Node79 -->
<g id="edge8" class="edge">
<title>Node75&#45;&gt;Node79</title>
<path fill="none" stroke="#191970" d="M605.4717,-225.5C615.6364,-225.5 626.0999,-225.5 636.3731,-225.5"/>
<polygon fill="#191970" stroke="#191970" points="636.5649,-229.0001 646.5648,-225.5 636.5648,-222.0001 636.5649,-229.0001"/>
</g>
<!-- Node80 -->
<g id="node10" class="node">
<title>Node80</title>
<g id="a_node10"><a xlink:href="class_parameters.html#a181a773d23fdb19d0c4f35e6cf2d5649" target="_top" xlink:title=" ">
<polygon fill="#ffffff" stroke="#000000" points="649.8306,-179.5 649.8306,-197.5 789.2192,-197.5 789.2192,-179.5 649.8306,-179.5"/>
<text text-anchor="middle" x="719.5249" y="-185.5" font-family="Helvetica,sans-Serif" font-size="10.00" fill="#000000">Parameters::getBatchName</text>
</a>
</g>
</g>
<!-- Node75&#45;&gt;Node80 -->
<g id="edge9" class="edge">
<title>Node75&#45;&gt;Node80</title>
<path fill="none" stroke="#191970" d="M575.7032,-216.4488C602.0788,-211.3232 635.2612,-204.8749 663.1052,-199.464"/>
<polygon fill="#191970" stroke="#191970" points="663.9508,-202.8652 673.0995,-197.5218 662.6154,-195.9938 663.9508,-202.8652"/>
</g>
<!-- Node81 -->
<g id="node11" class="node">
<title>Node81</title>
<g id="a_node11"><a xlink:href="class_parameters.html#abace4edb8ece38841b58c5ce6168cbc4" target="_top" xlink:title=" ">
<polygon fill="#ffffff" stroke="#000000" points="657.6113,-142.5 657.6113,-160.5 781.4385,-160.5 781.4385,-142.5 657.6113,-142.5"/>
<text text-anchor="middle" x="719.5249" y="-148.5" font-family="Helvetica,sans-Serif" font-size="10.00" fill="#000000">Parameters::getFilePath</text>
</a>
</g>
</g>
<!-- Node75&#45;&gt;Node81 -->
<g id="edge10" class="edge">
<title>Node75&#45;&gt;Node81</title>
<path fill="none" stroke="#191970" d="M589.4714,-216.4211C596.893,-214.0945 604.1771,-211.1718 610.7715,-207.5 630.8174,-196.3385 626.9438,-182.0449 646.7715,-170.5 650.9914,-168.0429 655.5315,-165.8982 660.208,-164.027"/>
<polygon fill="#191970" stroke="#191970" points="661.6957,-167.2125 669.94,-160.558 659.3453,-160.6189 661.6957,-167.2125"/>
</g>
<!-- Node82 -->
<g id="node12" class="node">
<title>Node82</title>
<g id="a_node12"><a xlink:href="class_parameters.html#ae5c64523dc50dca13b417fe3d9e4175c" target="_top" xlink:title=" ">
<polygon fill="#ffffff" stroke="#000000" points="665.668,-105.5 665.668,-123.5 773.3818,-123.5 773.3818,-105.5 665.668,-105.5"/>
<text text-anchor="middle" x="719.5249" y="-111.5" font-family="Helvetica,sans-Serif" font-size="10.00" fill="#000000">Parameters::getBeta</text>
</a>
</g>
</g>
<!-- Node75&#45;&gt;Node82 -->
<g id="edge11" class="edge">
<title>Node75&#45;&gt;Node82</title>
<path fill="none" stroke="#191970" d="M595.676,-216.357C601.0835,-214.0044 606.2117,-211.0941 610.7715,-207.5 639.4958,-184.8594 618.4878,-156.6887 646.7715,-133.5 649.6676,-131.1256 652.8282,-129.0448 656.1577,-127.2216"/>
<polygon fill="#191970" stroke="#191970" points="657.7067,-130.3612 665.2997,-122.9722 654.7562,-124.0134 657.7067,-130.3612"/>
</g>
<!-- Node83 -->
<g id="node13" class="node">
<title>Node83</title>
<g id="a_node13"><a xlink:href="class_parameters.html#aae314edb18d426571ab7b6df60da70aa" target="_top" xlink:title=" ">
<polygon fill="#ffffff" stroke="#000000" points="659.2861,-68.5 659.2861,-86.5 779.7637,-86.5 779.7637,-68.5 659.2861,-68.5"/>
<text text-anchor="middle" x="719.5249" y="-74.5" font-family="Helvetica,sans-Serif" font-size="10.00" fill="#000000">Parameters::getNFlows</text>
</a>
</g>
</g>
<!-- Node75&#45;&gt;Node83 -->
<g id="edge12" class="edge">
<title>Node75&#45;&gt;Node83</title>
<path fill="none" stroke="#191970" d="M597.4177,-216.4443C602.2625,-214.052 606.795,-211.1097 610.7715,-207.5 649.1725,-172.6411 609.0478,-132.0907 646.7715,-96.5 648.6824,-94.6971 650.7426,-93.0602 652.9166,-91.5745"/>
<polygon fill="#191970" stroke="#191970" points="654.8065,-94.5268 661.792,-86.561 651.3637,-88.4319 654.8065,-94.5268"/>
</g>
<!-- Node84 -->
<g id="node14" class="node">
<title>Node84</title>
<g id="a_node14"><a xlink:href="class_parameters.html#a07453f20719f54f9fd6f72d311638b39" target="_top" xlink:title=" ">
<polygon fill="#ffffff" stroke="#000000" points="657.604,-384.5 657.604,-402.5 781.4458,-402.5 781.4458,-384.5 657.604,-384.5"/>
<text text-anchor="middle" x="719.5249" y="-390.5" font-family="Helvetica,sans-Serif" font-size="10.00" fill="#000000">Parameters::getVerbose</text>
</a>
</g>
</g>
<!-- Node75&#45;&gt;Node84 -->
<g id="edge13" class="edge">
<title>Node75&#45;&gt;Node84</title>
<path fill="none" stroke="#191970" d="M590.8785,-234.5638C598.2444,-237.7237 605.1355,-241.9254 610.7715,-247.5 652.7871,-289.0576 604.3287,-334.3788 646.7715,-375.5 648.0564,-376.7449 649.4132,-377.908 650.8304,-378.9946"/>
<polygon fill="#191970" stroke="#191970" points="649.1905,-382.0966 659.5284,-384.4158 652.8932,-376.156 649.1905,-382.0966"/>
</g>
<!-- Node85&#45;&gt;Node83 -->
<g id="edge16" class="edge">
<title>Node85&#45;&gt;Node83</title>
<path fill="none" stroke="#191970" d="M391.2392,-150.7735C452.7968,-158.1698 540.6749,-160.7917 610.7715,-131.5 631.3614,-122.8959 627.3328,-107.4597 646.7715,-96.5 651.2064,-93.9996 655.9785,-91.82 660.8823,-89.9216"/>
<polygon fill="#191970" stroke="#191970" points="662.1235,-93.1957 670.4205,-86.607 659.8257,-86.5835 662.1235,-93.1957"/>
</g>
<!-- Node85&#45;&gt;Node86 -->
<g id="edge15" class="edge">
<title>Node85&#45;&gt;Node86</title>
<path fill="none" stroke="#191970" d="M371.9304,-123.4848C385.1857,-119.3652 399.0641,-114.3602 411.4814,-108.5 428.8717,-100.2929 429.8327,-92.1355 447.4814,-84.5 453.7633,-81.7822 460.4927,-79.4218 467.2931,-77.379"/>
<polygon fill="#191970" stroke="#191970" points="468.5653,-80.6582 477.2634,-74.609 466.6914,-73.9137 468.5653,-80.6582"/>
</g>
<!-- Node87 -->
<g id="node17" class="node">
<title>Node87</title>
<g id="a_node17"><a xlink:href="class_parallel_1_1_neighbours.html#ad1a2a616b4089eded3545faf11409b85" target="_top" xlink:title=" ">
<polygon fill="#ffffff" stroke="#000000" points="447.4814,-93.5 447.4814,-121.5 610.7715,-121.5 610.7715,-93.5 447.4814,-93.5"/>
<text text-anchor="start" x="455.4814" y="-109.5" font-family="Helvetica,sans-Serif" font-size="10.00" fill="#000000">Parallel::Neighbours</text>
<text text-anchor="middle" x="529.1265" y="-99.5" font-family="Helvetica,sans-Serif" font-size="10.00" fill="#000000">::getProcessorDimensionPosition</text>
</a>
</g>
</g>
<!-- Node85&#45;&gt;Node87 -->
<g id="edge17" class="edge">
<title>Node85&#45;&gt;Node87</title>
<path fill="none" stroke="#191970" d="M391.2217,-126.8809C406.0779,-124.793 421.8172,-122.5811 437.1429,-120.4272"/>
<polygon fill="#191970" stroke="#191970" points="437.7254,-123.8798 447.1409,-119.0221 436.7511,-116.948 437.7254,-123.8798"/>
</g>
<!-- Node89&#45;&gt;Node76 -->
<g id="edge20" class="edge">
<title>Node89&#45;&gt;Node76</title>
<path fill="none" stroke="#191970" d="M582.7816,-192.5838C593.0724,-195.5449 603.0354,-200.2186 610.7715,-207.5 651.6279,-245.9552 607.4364,-288.49 646.7715,-328.5 648.0484,-329.7989 649.3981,-331.0246 650.809,-332.1812"/>
<polygon fill="#191970" stroke="#191970" points="649.242,-335.3483 659.4789,-338.0791 653.1793,-329.5605 649.242,-335.3483"/>
</g>
<!-- Node89&#45;&gt;Node77 -->
<g id="edge21" class="edge">
<title>Node89&#45;&gt;Node77</title>
<path fill="none" stroke="#191970" d="M583.0048,-193.5312C593.043,-196.4489 602.8504,-200.865 610.7715,-207.5 641.9086,-233.5817 615.8163,-265.2026 646.7715,-291.5 648.5037,-292.9716 650.3384,-294.3262 652.2533,-295.5729"/>
<polygon fill="#191970" stroke="#191970" points="650.6376,-298.6782 661.0955,-300.3761 653.979,-292.5272 650.6376,-298.6782"/>
</g>
<!-- Node89&#45;&gt;Node78 -->
<g id="edge22" class="edge">
<title>Node89&#45;&gt;Node78</title>
<path fill="none" stroke="#191970" d="M583.0366,-196.4396C592.6411,-199.1215 602.2801,-202.707 610.7715,-207.5 630.7521,-218.7781 627.2431,-232.4559 646.7715,-244.5 649.5339,-246.2037 652.4339,-247.792 655.4198,-249.2713"/>
<polygon fill="#191970" stroke="#191970" points="654.028,-252.4829 664.584,-253.3888 656.8969,-246.0978 654.028,-252.4829"/>
</g>
<!-- Node89&#45;&gt;Node79 -->
<g id="edge23" class="edge">
<title>Node89&#45;&gt;Node79</title>
<path fill="none" stroke="#191970" d="M575.7032,-197.5512C602.0788,-202.6768 635.2612,-209.1251 663.1052,-214.536"/>
<polygon fill="#191970" stroke="#191970" points="662.6154,-218.0062 673.0995,-216.4782 663.9508,-211.1348 662.6154,-218.0062"/>
</g>
<!-- Node89&#45;&gt;Node80 -->
<g id="edge24" class="edge">
<title>Node89&#45;&gt;Node80</title>
<path fill="none" stroke="#191970" d="M582.9236,-188.5C600.4478,-188.5 620.2966,-188.5 639.3253,-188.5"/>
<polygon fill="#191970" stroke="#191970" points="639.4873,-192.0001 649.4872,-188.5 639.4872,-185.0001 639.4873,-192.0001"/>
</g>
<!-- Node89&#45;&gt;Node81 -->
<g id="edge25" class="edge">
<title>Node89&#45;&gt;Node81</title>
<path fill="none" stroke="#191970" d="M575.7032,-179.4488C602.0788,-174.3232 635.2612,-167.8749 663.1052,-162.464"/>
<polygon fill="#191970" stroke="#191970" points="663.9508,-165.8652 673.0995,-160.5218 662.6154,-158.9938 663.9508,-165.8652"/>
</g>
<!-- Node89&#45;&gt;Node82 -->
<g id="edge26" class="edge">
<title>Node89&#45;&gt;Node82</title>
<path fill="none" stroke="#191970" d="M572.4393,-179.4513C585.2325,-175.8172 598.9625,-170.9268 610.7715,-164.5 629.3174,-154.4067 628.074,-143.3098 646.7715,-133.5 651.6845,-130.9224 656.9714,-128.6769 662.3726,-126.7244"/>
<polygon fill="#191970" stroke="#191970" points="663.7486,-129.9567 672.1623,-123.5178 661.5696,-123.3045 663.7486,-129.9567"/>
</g>
<!-- Node89&#45;&gt;Node83 -->
<g id="edge27" class="edge">
<title>Node89&#45;&gt;Node83</title>
<path fill="none" stroke="#191970" d="M582.6867,-179.4104C592.7496,-175.9368 602.6474,-171.1357 610.7715,-164.5 637.2559,-142.8676 619.9608,-117.7266 646.7715,-96.5 649.3814,-94.4337 652.1932,-92.5905 655.1409,-90.9464"/>
<polygon fill="#191970" stroke="#191970" points="656.7913,-94.0374 664.325,-86.588 653.7901,-87.7134 656.7913,-94.0374"/>
</g>
<!-- Node89&#45;&gt;Node84 -->
<g id="edge28" class="edge">
<title>Node89&#45;&gt;Node84</title>
<path fill="none" stroke="#191970" d="M582.8044,-192.0074C593.2172,-194.9901 603.2235,-199.8184 610.7715,-207.5 664.2914,-261.9677 593.6312,-320.6618 646.7715,-375.5 647.875,-376.6388 649.0384,-377.71 650.2534,-378.7174"/>
<polygon fill="#191970" stroke="#191970" points="648.6677,-381.8658 658.9347,-384.4813 652.5397,-376.0341 648.6677,-381.8658"/>
</g>
</g>
</svg>
