<?xml version="1.0" encoding="UTF-8" standalone="no"?>
<!DOCTYPE svg PUBLIC "-//W3C//DTD SVG 1.1//EN"
 "http://www.w3.org/Graphics/SVG/1.1/DTD/svg11.dtd">
<!-- Generated by graphviz version 2.40.1 (20161225.0304)
 -->
<!-- Title: SuperSampler::reset Pages: 1 -->
<svg width="287pt" height="101pt"
 viewBox="0.00 0.00 287.20 101.00" xmlns="http://www.w3.org/2000/svg" xmlns:xlink="http://www.w3.org/1999/xlink">
<g id="graph0" class="graph" transform="scale(1 1) rotate(0) translate(4 97)">
<title>SuperSampler::reset</title>
<polygon fill="#ffffff" stroke="transparent" points="-4,4 -4,-97 283.2012,-97 283.2012,4 -4,4"/>
<!-- Node61 -->
<g id="node1" class="node">
<title>Node61</title>
<g id="a_node1"><a xlink:title=" ">
<polygon fill="#bfbfbf" stroke="#000000" points="0,-37.5 0,-55.5 107.709,-55.5 107.709,-37.5 0,-37.5"/>
<text text-anchor="middle" x="53.8545" y="-43.5" font-family="Helvetica,sans-Serif" font-size="10.00" fill="#000000">SuperSampler::reset</text>
</a>
</g>
</g>
<!-- Node62 -->
<g id="node2" class="node">
<title>Node62</title>
<g id="a_node2"><a xlink:href="class_observable_storer.html#a7b6285a532d796816d75262f91d43dad" target="_top" xlink:title=" ">
<polygon fill="#ffffff" stroke="#000000" points="150.3765,-74.5 150.3765,-92.5 272.5337,-92.5 272.5337,-74.5 150.3765,-74.5"/>
<text text-anchor="middle" x="211.4551" y="-80.5" font-family="Helvetica,sans-Serif" font-size="10.00" fill="#000000">ObservableStorer::reset</text>
</a>
</g>
</g>
<!-- Node61&#45;&gt;Node62 -->
<g id="edge1" class="edge">
<title>Node61&#45;&gt;Node62</title>
<path fill="none" stroke="#191970" d="M92.4079,-55.5512C113.7614,-60.5644 140.5046,-66.8429 163.2316,-72.1785"/>
<polygon fill="#191970" stroke="#191970" points="162.4916,-75.5999 173.0268,-74.4782 164.0915,-68.7852 162.4916,-75.5999"/>
</g>
<!-- Node63 -->
<g id="node3" class="node">
<title>Node63</title>
<g id="a_node3"><a xlink:href="class_parameters.html#a237ea1286459e8c648e983464829fe8d" target="_top" xlink:title=" ">
<polygon fill="#ffffff" stroke="#000000" points="143.709,-37.5 143.709,-55.5 279.2012,-55.5 279.2012,-37.5 143.709,-37.5"/>
<text text-anchor="middle" x="211.4551" y="-43.5" font-family="Helvetica,sans-Serif" font-size="10.00" fill="#000000">Parameters::getNTemporal</text>
</a>
</g>
</g>
<!-- Node61&#45;&gt;Node63 -->
<g id="edge2" class="edge">
<title>Node61&#45;&gt;Node63</title>
<path fill="none" stroke="#191970" d="M108.0917,-46.5C116.2833,-46.5 124.8684,-46.5 133.4411,-46.5"/>
<polygon fill="#191970" stroke="#191970" points="133.4748,-50.0001 143.4747,-46.5 133.4747,-43.0001 133.4748,-50.0001"/>
</g>
<!-- Node64 -->
<g id="node4" class="node">
<title>Node64</title>
<g id="a_node4"><a xlink:href="class_parameters.html#aae314edb18d426571ab7b6df60da70aa" target="_top" xlink:title=" ">
<polygon fill="#ffffff" stroke="#000000" points="151.2163,-.5 151.2163,-18.5 271.6938,-18.5 271.6938,-.5 151.2163,-.5"/>
<text text-anchor="middle" x="211.4551" y="-6.5" font-family="Helvetica,sans-Serif" font-size="10.00" fill="#000000">Parameters::getNFlows</text>
</a>
</g>
</g>
<!-- Node61&#45;&gt;Node64 -->
<g id="edge3" class="edge">
<title>Node61&#45;&gt;Node64</title>
<path fill="none" stroke="#191970" d="M92.4079,-37.4488C113.7614,-32.4356 140.5046,-26.1571 163.2316,-20.8215"/>
<polygon fill="#191970" stroke="#191970" points="164.0915,-24.2148 173.0268,-18.5218 162.4916,-17.4001 164.0915,-24.2148"/>
</g>
</g>
</svg>
