<?xml version="1.0" encoding="UTF-8" standalone="no"?>
<!DOCTYPE svg PUBLIC "-//W3C//DTD SVG 1.1//EN"
 "http://www.w3.org/Graphics/SVG/1.1/DTD/svg11.dtd">
<!-- Generated by graphviz version 2.40.1 (20161225.0304)
 -->
<!-- Title: Parallel::Communicator::getNeighboursNeighbourLink Pages: 1 -->
<svg width="347pt" height="74pt"
 viewBox="0.00 0.00 346.72 74.00" xmlns="http://www.w3.org/2000/svg" xmlns:xlink="http://www.w3.org/1999/xlink">
<g id="graph0" class="graph" transform="scale(1 1) rotate(0) translate(4 70)">
<title>Parallel::Communicator::getNeighboursNeighbourLink</title>
<polygon fill="#ffffff" stroke="transparent" points="-4,4 -4,-70 342.7227,-70 342.7227,4 -4,4"/>
<!-- Node40 -->
<g id="node1" class="node">
<title>Node40</title>
<g id="a_node1"><a xlink:title=" ">
<polygon fill="#bfbfbf" stroke="#000000" points="187.6348,-21.5 187.6348,-49.5 338.7227,-49.5 338.7227,-21.5 187.6348,-21.5"/>
<text text-anchor="start" x="195.6348" y="-37.5" font-family="Helvetica,sans-Serif" font-size="10.00" fill="#000000">Parallel::Communicator</text>
<text text-anchor="middle" x="263.1787" y="-27.5" font-family="Helvetica,sans-Serif" font-size="10.00" fill="#000000">::getNeighboursNeighbourLink</text>
</a>
</g>
</g>
<!-- Node41 -->
<g id="node2" class="node">
<title>Node41</title>
<g id="a_node2"><a xlink:href="class_luscher_action.html#a42285b6e3015935588e1fab6b90c1a11" target="_top" xlink:title="computeStaple computes the staple at given poisition.">
<polygon fill="#ffffff" stroke="#000000" points="0,-47.5 0,-65.5 151.6348,-65.5 151.6348,-47.5 0,-47.5"/>
<text text-anchor="middle" x="75.8174" y="-53.5" font-family="Helvetica,sans-Serif" font-size="10.00" fill="#000000">LuscherAction::computeStaple</text>
</a>
</g>
</g>
<!-- Node40&#45;&gt;Node41 -->
<g id="edge1" class="edge">
<title>Node40&#45;&gt;Node41</title>
<path fill="none" stroke="#191970" d="M177.4951,-45.1037C168.9122,-46.0657 160.2392,-47.0378 151.767,-47.9874"/>
<polygon fill="#191970" stroke="#191970" points="177.9639,-48.5731 187.5117,-43.981 177.1841,-41.6167 177.9639,-48.5731"/>
</g>
<!-- Node42 -->
<g id="node3" class="node">
<title>Node42</title>
<g id="a_node3"><a xlink:href="class_wilson_gauge_action.html#af1f6ba42fcc2b923dc3b37bf150bfae9" target="_top" xlink:title="computeStaple computes the staple at given poisition.">
<polygon fill="#ffffff" stroke="#000000" points="21.1279,-.5 21.1279,-28.5 130.5068,-28.5 130.5068,-.5 21.1279,-.5"/>
<text text-anchor="start" x="29.1279" y="-16.5" font-family="Helvetica,sans-Serif" font-size="10.00" fill="#000000">WilsonGaugeAction::</text>
<text text-anchor="middle" x="75.8174" y="-6.5" font-family="Helvetica,sans-Serif" font-size="10.00" fill="#000000">computeStaple</text>
</a>
</g>
</g>
<!-- Node40&#45;&gt;Node42 -->
<g id="edge2" class="edge">
<title>Node40&#45;&gt;Node42</title>
<path fill="none" stroke="#191970" d="M177.1935,-25.8625C161.3984,-24.0922 145.3096,-22.2889 130.7394,-20.6558"/>
<polygon fill="#191970" stroke="#191970" points="177.1841,-29.3833 187.5117,-27.019 177.9639,-22.4269 177.1841,-29.3833"/>
</g>
</g>
</svg>
