<?xml version="1.0" encoding="UTF-8" standalone="no"?>
<!DOCTYPE svg PUBLIC "-//W3C//DTD SVG 1.1//EN"
 "http://www.w3.org/Graphics/SVG/1.1/DTD/svg11.dtd">
<!-- Generated by graphviz version 2.40.1 (20161225.0304)
 -->
<!-- Title: nlohmann::basic_json::erase Pages: 1 -->
<svg width="292pt" height="121pt"
 viewBox="0.00 0.00 291.70 121.00" xmlns="http://www.w3.org/2000/svg" xmlns:xlink="http://www.w3.org/1999/xlink">
<g id="graph0" class="graph" transform="scale(1 1) rotate(0) translate(4 117)">
<title>nlohmann::basic_json::erase</title>
<polygon fill="#ffffff" stroke="transparent" points="-4,4 -4,-117 287.6982,-117 287.6982,4 -4,4"/>
<!-- Node143 -->
<g id="node1" class="node">
<title>Node143</title>
<g id="a_node1"><a xlink:title="remove element given an iterator">
<polygon fill="#bfbfbf" stroke="#000000" points="0,-47.5 0,-75.5 112.7285,-75.5 112.7285,-47.5 0,-47.5"/>
<text text-anchor="start" x="8" y="-63.5" font-family="Helvetica,sans-Serif" font-size="10.00" fill="#000000">nlohmann::basic_json</text>
<text text-anchor="middle" x="56.3643" y="-53.5" font-family="Helvetica,sans-Serif" font-size="10.00" fill="#000000">::erase</text>
</a>
</g>
</g>
<!-- Node144 -->
<g id="node2" class="node">
<title>Node144</title>
<g id="a_node2"><a xlink:href="classnlohmann_1_1basic__json.html#a13e032a02a7fd8a93fdddc2fcbc4763c" target="_top" xlink:title="returns an iterator to one past the last element">
<polygon fill="#ffffff" stroke="#000000" points="148.7285,-94.5 148.7285,-112.5 283.6982,-112.5 283.6982,-94.5 148.7285,-94.5"/>
<text text-anchor="middle" x="216.2134" y="-100.5" font-family="Helvetica,sans-Serif" font-size="10.00" fill="#000000">nlohmann::basic_json::end</text>
</a>
</g>
</g>
<!-- Node143&#45;&gt;Node144 -->
<g id="edge1" class="edge">
<title>Node143&#45;&gt;Node144</title>
<path fill="none" stroke="#191970" d="M110.0364,-75.6022C130.0256,-80.8543 152.4793,-86.754 171.5722,-91.7706"/>
<polygon fill="#191970" stroke="#191970" points="170.9458,-95.2248 181.507,-94.381 172.7247,-88.4546 170.9458,-95.2248"/>
</g>
<!-- Node145 -->
<g id="node3" class="node">
<title>Node145</title>
<g id="a_node3"><a xlink:href="classnlohmann_1_1basic__json.html#a69b596a4a6683b362095c9a139637396" target="_top" xlink:title="return whether value is a string">
<polygon fill="#ffffff" stroke="#000000" points="159.8491,-47.5 159.8491,-75.5 272.5776,-75.5 272.5776,-47.5 159.8491,-47.5"/>
<text text-anchor="start" x="167.8491" y="-63.5" font-family="Helvetica,sans-Serif" font-size="10.00" fill="#000000">nlohmann::basic_json</text>
<text text-anchor="middle" x="216.2134" y="-53.5" font-family="Helvetica,sans-Serif" font-size="10.00" fill="#000000">::is_string</text>
</a>
</g>
</g>
<!-- Node143&#45;&gt;Node145 -->
<g id="edge2" class="edge">
<title>Node143&#45;&gt;Node145</title>
<path fill="none" stroke="#191970" d="M113.1712,-61.5C124.9491,-61.5 137.4599,-61.5 149.5538,-61.5"/>
<polygon fill="#191970" stroke="#191970" points="149.5894,-65.0001 159.5894,-61.5 149.5894,-58.0001 149.5894,-65.0001"/>
</g>
<!-- Node146 -->
<g id="node4" class="node">
<title>Node146</title>
<g id="a_node4"><a xlink:href="classnlohmann_1_1basic__json.html#a6b75862bdb4d26650616cf9821430755" target="_top" xlink:title="return the type as string">
<polygon fill="#ffffff" stroke="#000000" points="159.8491,-.5 159.8491,-28.5 272.5776,-28.5 272.5776,-.5 159.8491,-.5"/>
<text text-anchor="start" x="167.8491" y="-16.5" font-family="Helvetica,sans-Serif" font-size="10.00" fill="#000000">nlohmann::basic_json</text>
<text text-anchor="middle" x="216.2134" y="-6.5" font-family="Helvetica,sans-Serif" font-size="10.00" fill="#000000">::type_name</text>
</a>
</g>
</g>
<!-- Node143&#45;&gt;Node146 -->
<g id="edge3" class="edge">
<title>Node143&#45;&gt;Node146</title>
<path fill="none" stroke="#191970" d="M104.3243,-47.3985C121.4723,-42.3565 140.9707,-36.6234 158.833,-31.3714"/>
<polygon fill="#191970" stroke="#191970" points="159.9563,-34.6894 168.5629,-28.5106 157.9816,-27.9736 159.9563,-34.6894"/>
</g>
</g>
</svg>
