<?xml version="1.0" encoding="UTF-8" standalone="no"?>
<!DOCTYPE svg PUBLIC "-//W3C//DTD SVG 1.1//EN"
 "http://www.w3.org/Graphics/SVG/1.1/DTD/svg11.dtd">
<!-- Generated by graphviz version 2.40.1 (20161225.0304)
 -->
<!-- Title: SU3MatrixGenerator::SU3MatrixGenerator Pages: 1 -->
<svg width="333pt" height="101pt"
 viewBox="0.00 0.00 332.77 101.00" xmlns="http://www.w3.org/2000/svg" xmlns:xlink="http://www.w3.org/1999/xlink">
<g id="graph0" class="graph" transform="scale(1 1) rotate(0) translate(4 97)">
<title>SU3MatrixGenerator::SU3MatrixGenerator</title>
<polygon fill="#ffffff" stroke="transparent" points="-4,4 -4,-97 328.7725,-97 328.7725,4 -4,4"/>
<!-- Node0 -->
<g id="node1" class="node">
<title>Node0</title>
<g id="a_node1"><a xlink:title=" ">
<polygon fill="#bfbfbf" stroke="#000000" points="0,-32.5 0,-60.5 113.2559,-60.5 113.2559,-32.5 0,-32.5"/>
<text text-anchor="start" x="8" y="-48.5" font-family="Helvetica,sans-Serif" font-size="10.00" fill="#000000">SU3MatrixGenerator</text>
<text text-anchor="middle" x="56.6279" y="-38.5" font-family="Helvetica,sans-Serif" font-size="10.00" fill="#000000">::SU3MatrixGenerator</text>
</a>
</g>
</g>
<!-- Node1 -->
<g id="node2" class="node">
<title>Node1</title>
<g id="a_node2"><a xlink:href="class_parameters.html#ac14d1b11099fdfa254fb138d4471ceb2" target="_top" xlink:title=" ">
<polygon fill="#ffffff" stroke="#000000" points="175.1006,-74.5 175.1006,-92.5 298.9277,-92.5 298.9277,-74.5 175.1006,-74.5"/>
<text text-anchor="middle" x="237.0142" y="-80.5" font-family="Helvetica,sans-Serif" font-size="10.00" fill="#000000">Parameters::getSU3Eps</text>
</a>
</g>
</g>
<!-- Node0&#45;&gt;Node1 -->
<g id="edge1" class="edge">
<title>Node0&#45;&gt;Node1</title>
<path fill="none" stroke="#191970" d="M113.7033,-58.207C135.8016,-62.7397 160.98,-67.9042 182.7987,-72.3796"/>
<polygon fill="#191970" stroke="#191970" points="182.3874,-75.868 192.8867,-74.4488 183.794,-69.0108 182.3874,-75.868"/>
</g>
<!-- Node2 -->
<g id="node3" class="node">
<title>Node2</title>
<g id="a_node3"><a xlink:href="class_parameters.html#a92d9e73e333b01745747e55d9ae4f7cc" target="_top" xlink:title=" ">
<polygon fill="#ffffff" stroke="#000000" points="149.2559,-37.5 149.2559,-55.5 324.7725,-55.5 324.7725,-37.5 149.2559,-37.5"/>
<text text-anchor="middle" x="237.0142" y="-43.5" font-family="Helvetica,sans-Serif" font-size="10.00" fill="#000000">Parameters::getRandomMatrixSeed</text>
</a>
</g>
</g>
<!-- Node0&#45;&gt;Node2 -->
<g id="edge2" class="edge">
<title>Node0&#45;&gt;Node2</title>
<path fill="none" stroke="#191970" d="M113.7033,-46.5C121.7897,-46.5 130.2887,-46.5 138.8845,-46.5"/>
<polygon fill="#191970" stroke="#191970" points="139.0009,-50.0001 149.0008,-46.5 139.0008,-43.0001 139.0009,-50.0001"/>
</g>
<!-- Node3 -->
<g id="node4" class="node">
<title>Node3</title>
<g id="a_node4"><a xlink:href="class_s_u3.html#a9f3527fd882882ddfa18d72f5f43176c" target="_top" xlink:title=" ">
<polygon fill="#ffffff" stroke="#000000" points="204.2827,-.5 204.2827,-18.5 269.7456,-18.5 269.7456,-.5 204.2827,-.5"/>
<text text-anchor="middle" x="237.0142" y="-6.5" font-family="Helvetica,sans-Serif" font-size="10.00" fill="#000000">SU3::zeros</text>
</a>
</g>
</g>
<!-- Node0&#45;&gt;Node3 -->
<g id="edge3" class="edge">
<title>Node0&#45;&gt;Node3</title>
<path fill="none" stroke="#191970" d="M113.7033,-34.793C139.8045,-29.4392 170.2028,-23.204 194.2866,-18.2641"/>
<polygon fill="#191970" stroke="#191970" points="195.0979,-21.6706 204.1907,-16.2326 193.6913,-14.8134 195.0979,-21.6706"/>
</g>
</g>
</svg>
