<?xml version="1.0" encoding="UTF-8" standalone="no"?>
<!DOCTYPE svg PUBLIC "-//W3C//DTD SVG 1.1//EN"
 "http://www.w3.org/Graphics/SVG/1.1/DTD/svg11.dtd">
<!-- Generated by graphviz version 2.40.1 (20161225.0304)
 -->
<!-- Title: nlohmann::basic_json::begin Pages: 1 -->
<svg width="269pt" height="225pt"
 viewBox="0.00 0.00 269.46 225.00" xmlns="http://www.w3.org/2000/svg" xmlns:xlink="http://www.w3.org/1999/xlink">
<g id="graph0" class="graph" transform="scale(1 1) rotate(0) translate(4 221)">
<title>nlohmann::basic_json::begin</title>
<polygon fill="#ffffff" stroke="transparent" points="-4,4 -4,-221 265.457,-221 265.457,4 -4,4"/>
<!-- Node64 -->
<g id="node1" class="node">
<title>Node64</title>
<g id="a_node1"><a xlink:title="returns an iterator to the first element">
<polygon fill="#bfbfbf" stroke="#000000" points="148.7285,-94.5 148.7285,-122.5 261.457,-122.5 261.457,-94.5 148.7285,-94.5"/>
<text text-anchor="start" x="156.7285" y="-110.5" font-family="Helvetica,sans-Serif" font-size="10.00" fill="#000000">nlohmann::basic_json</text>
<text text-anchor="middle" x="205.0928" y="-100.5" font-family="Helvetica,sans-Serif" font-size="10.00" fill="#000000">::begin</text>
</a>
</g>
</g>
<!-- Node65 -->
<g id="node2" class="node">
<title>Node65</title>
<g id="a_node2"><a xlink:href="classnlohmann_1_1basic__json.html#a3acba9c6ceb7214e565fe08c3ba5b352" target="_top" xlink:title="access the first element">
<polygon fill="#ffffff" stroke="#000000" points="0,-188.5 0,-216.5 112.7285,-216.5 112.7285,-188.5 0,-188.5"/>
<text text-anchor="start" x="8" y="-204.5" font-family="Helvetica,sans-Serif" font-size="10.00" fill="#000000">nlohmann::basic_json</text>
<text text-anchor="middle" x="56.3643" y="-194.5" font-family="Helvetica,sans-Serif" font-size="10.00" fill="#000000">::front</text>
</a>
</g>
</g>
<!-- Node64&#45;&gt;Node65 -->
<g id="edge1" class="edge">
<title>Node64&#45;&gt;Node65</title>
<path fill="none" stroke="#191970" d="M181.6833,-129.3402C163.7203,-144.6036 137.8231,-165.0852 112.7285,-179.5 107.1382,-182.7112 101.0118,-185.6979 94.9221,-188.3849"/>
<polygon fill="#191970" stroke="#191970" points="184.0571,-131.9148 189.3468,-122.735 179.487,-126.6125 184.0571,-131.9148"/>
</g>
<!-- Node66 -->
<g id="node3" class="node">
<title>Node66</title>
<g id="a_node3"><a xlink:href="classnlohmann_1_1basic__json.html#ac77aed0925d447744676725ab0b6d535" target="_top" xlink:title="returns an iterator to the reverse&#45;end">
<polygon fill="#ffffff" stroke="#000000" points="0,-141.5 0,-169.5 112.7285,-169.5 112.7285,-141.5 0,-141.5"/>
<text text-anchor="start" x="8" y="-157.5" font-family="Helvetica,sans-Serif" font-size="10.00" fill="#000000">nlohmann::basic_json</text>
<text text-anchor="middle" x="56.3643" y="-147.5" font-family="Helvetica,sans-Serif" font-size="10.00" fill="#000000">::rend</text>
</a>
</g>
</g>
<!-- Node64&#45;&gt;Node66 -->
<g id="edge2" class="edge">
<title>Node64&#45;&gt;Node66</title>
<path fill="none" stroke="#191970" d="M150.4781,-125.7589C134.0951,-130.9361 116.3334,-136.549 100.6998,-141.4894"/>
<polygon fill="#191970" stroke="#191970" points="151.9888,-128.9522 160.4693,-122.6015 149.8794,-122.2775 151.9888,-128.9522"/>
</g>
<!-- Node67 -->
<g id="node4" class="node">
<title>Node67</title>
<g id="a_node4"><a xlink:href="classnlohmann_1_1basic__json.html#a5338e282d1d02bed389d852dd670d98d" target="_top" xlink:title="add an object to an object if key does not exist">
<polygon fill="#ffffff" stroke="#000000" points="0,-94.5 0,-122.5 112.7285,-122.5 112.7285,-94.5 0,-94.5"/>
<text text-anchor="start" x="8" y="-110.5" font-family="Helvetica,sans-Serif" font-size="10.00" fill="#000000">nlohmann::basic_json</text>
<text text-anchor="middle" x="56.3643" y="-100.5" font-family="Helvetica,sans-Serif" font-size="10.00" fill="#000000">::emplace</text>
</a>
</g>
</g>
<!-- Node64&#45;&gt;Node67 -->
<g id="edge3" class="edge">
<title>Node64&#45;&gt;Node67</title>
<path fill="none" stroke="#191970" d="M138.2073,-108.5C129.7401,-108.5 121.1423,-108.5 112.8589,-108.5"/>
<polygon fill="#191970" stroke="#191970" points="138.4407,-112.0001 148.4406,-108.5 138.4406,-105.0001 138.4407,-112.0001"/>
</g>
<!-- Node68 -->
<g id="node5" class="node">
<title>Node68</title>
<g id="a_node5"><a xlink:href="classnlohmann_1_1basic__json.html#a81e0c41a4a9dff4df2f6973f7f8b2a83" target="_top" xlink:title="applies a JSON patch">
<polygon fill="#ffffff" stroke="#000000" points="0,-47.5 0,-75.5 112.7285,-75.5 112.7285,-47.5 0,-47.5"/>
<text text-anchor="start" x="8" y="-63.5" font-family="Helvetica,sans-Serif" font-size="10.00" fill="#000000">nlohmann::basic_json</text>
<text text-anchor="middle" x="56.3643" y="-53.5" font-family="Helvetica,sans-Serif" font-size="10.00" fill="#000000">::patch</text>
</a>
</g>
</g>
<!-- Node64&#45;&gt;Node68 -->
<g id="edge4" class="edge">
<title>Node64&#45;&gt;Node68</title>
<path fill="none" stroke="#191970" d="M150.4781,-91.2411C134.0951,-86.0639 116.3334,-80.451 100.6998,-75.5106"/>
<polygon fill="#191970" stroke="#191970" points="149.8794,-94.7225 160.4693,-94.3985 151.9888,-88.0478 149.8794,-94.7225"/>
</g>
<!-- Node69 -->
<g id="node6" class="node">
<title>Node69</title>
<g id="a_node6"><a xlink:href="classnlohmann_1_1basic__json.html#a543bd5f7490de54c875b2c0912dc9a49" target="_top" xlink:title="creates a diff as a JSON patch">
<polygon fill="#ffffff" stroke="#000000" points="0,-.5 0,-28.5 112.7285,-28.5 112.7285,-.5 0,-.5"/>
<text text-anchor="start" x="8" y="-16.5" font-family="Helvetica,sans-Serif" font-size="10.00" fill="#000000">nlohmann::basic_json</text>
<text text-anchor="middle" x="56.3643" y="-6.5" font-family="Helvetica,sans-Serif" font-size="10.00" fill="#000000">::diff</text>
</a>
</g>
</g>
<!-- Node64&#45;&gt;Node69 -->
<g id="edge5" class="edge">
<title>Node64&#45;&gt;Node69</title>
<path fill="none" stroke="#191970" d="M181.2437,-87.8153C163.2383,-72.8646 137.4819,-52.8553 112.7285,-38.5 106.5642,-34.9251 99.7658,-31.5776 93.0874,-28.5832"/>
<polygon fill="#191970" stroke="#191970" points="179.0343,-90.5304 188.9396,-94.2901 183.5409,-85.174 179.0343,-90.5304"/>
</g>
</g>
</svg>
