<?xml version="1.0" encoding="UTF-8" standalone="no"?>
<!DOCTYPE svg PUBLIC "-//W3C//DTD SVG 1.1//EN"
 "http://www.w3.org/Graphics/SVG/1.1/DTD/svg11.dtd">
<!-- Generated by graphviz version 2.40.1 (20161225.0304)
 -->
<!-- Title: EnergyDensity::calculate Pages: 1 -->
<svg width="476pt" height="175pt"
 viewBox="0.00 0.00 475.58 175.00" xmlns="http://www.w3.org/2000/svg" xmlns:xlink="http://www.w3.org/1999/xlink">
<g id="graph0" class="graph" transform="scale(1 1) rotate(0) translate(4 171)">
<title>EnergyDensity::calculate</title>
<polygon fill="#ffffff" stroke="transparent" points="-4,4 -4,-171 471.583,-171 471.583,4 -4,4"/>
<!-- Node7 -->
<g id="node1" class="node">
<title>Node7</title>
<g id="a_node1"><a xlink:title=" ">
<polygon fill="#bfbfbf" stroke="#000000" points="0,-74.5 0,-92.5 126.0537,-92.5 126.0537,-74.5 0,-74.5"/>
<text text-anchor="middle" x="63.0269" y="-80.5" font-family="Helvetica,sans-Serif" font-size="10.00" fill="#000000">EnergyDensity::calculate</text>
</a>
</g>
</g>
<!-- Node8 -->
<g id="node2" class="node">
<title>Node8</title>
<g id="a_node2"><a xlink:href="lattice_8h.html#a53bbfaed8f54ee3a1db6f8049686ccdf" target="_top" xlink:title=" ">
<polygon fill="#ffffff" stroke="#000000" points="214.1118,-111.5 214.1118,-129.5 248.4517,-129.5 248.4517,-111.5 214.1118,-111.5"/>
<text text-anchor="middle" x="231.2817" y="-117.5" font-family="Helvetica,sans-Serif" font-size="10.00" fill="#000000">shift</text>
</a>
</g>
</g>
<!-- Node7&#45;&gt;Node8 -->
<g id="edge1" class="edge">
<title>Node7&#45;&gt;Node8</title>
<path fill="none" stroke="#191970" d="M104.1866,-92.5512C135.2779,-99.3883 177.072,-108.579 204.095,-114.5215"/>
<polygon fill="#191970" stroke="#191970" points="203.4976,-117.9737 214.016,-116.7032 205.0011,-111.1371 203.4976,-117.9737"/>
</g>
<!-- Node13 -->
<g id="node7" class="node">
<title>Node13</title>
<g id="a_node7"><a xlink:href="lattice_8h.html#a491004d1505561625a8915464f3c6cab" target="_top" xlink:title=" ">
<polygon fill="#ffffff" stroke="#000000" points="216.7817,-148.5 216.7817,-166.5 245.7817,-166.5 245.7817,-148.5 216.7817,-148.5"/>
<text text-anchor="middle" x="231.2817" y="-154.5" font-family="Helvetica,sans-Serif" font-size="10.00" fill="#000000">inv</text>
</a>
</g>
</g>
<!-- Node7&#45;&gt;Node13 -->
<g id="edge6" class="edge">
<title>Node7&#45;&gt;Node13</title>
<path fill="none" stroke="#191970" d="M76.5542,-92.6681C95.1087,-104.8815 129.8308,-126.4604 162.0537,-139.5 176.4054,-145.3076 193.1973,-149.7277 206.6488,-152.7342"/>
<polygon fill="#191970" stroke="#191970" points="206.1022,-156.196 216.6101,-154.8419 207.5512,-149.3476 206.1022,-156.196"/>
</g>
<!-- Node14 -->
<g id="node8" class="node">
<title>Node14</title>
<g id="a_node8"><a xlink:href="lattice_8h.html#a0289122f97ef3c8e2dfc3bfaf5b8f52d" target="_top" xlink:title=" ">
<polygon fill="#ffffff" stroke="#000000" points="199.8467,-74.5 199.8467,-92.5 262.7168,-92.5 262.7168,-74.5 199.8467,-74.5"/>
<text text-anchor="middle" x="231.2817" y="-80.5" font-family="Helvetica,sans-Serif" font-size="10.00" fill="#000000">imagTrace</text>
</a>
</g>
</g>
<!-- Node7&#45;&gt;Node14 -->
<g id="edge8" class="edge">
<title>Node7&#45;&gt;Node14</title>
<path fill="none" stroke="#191970" d="M126.1575,-83.5C147.2432,-83.5 170.2089,-83.5 189.2811,-83.5"/>
<polygon fill="#191970" stroke="#191970" points="189.4396,-87.0001 199.4396,-83.5 189.4395,-80.0001 189.4396,-87.0001"/>
</g>
<!-- Node15 -->
<g id="node9" class="node">
<title>Node15</title>
<g id="a_node9"><a xlink:href="lattice_8h.html#aa2ccd37933994e50a9c9669725ee0e9e" target="_top" xlink:title=" ">
<polygon fill="#ffffff" stroke="#000000" points="194.3804,-37.5 194.3804,-55.5 268.1831,-55.5 268.1831,-37.5 194.3804,-37.5"/>
<text text-anchor="middle" x="231.2817" y="-43.5" font-family="Helvetica,sans-Serif" font-size="10.00" fill="#000000">subtractImag</text>
</a>
</g>
</g>
<!-- Node7&#45;&gt;Node15 -->
<g id="edge9" class="edge">
<title>Node7&#45;&gt;Node15</title>
<path fill="none" stroke="#191970" d="M104.1866,-74.4488C128.3852,-69.1274 159.0672,-62.3803 184.2224,-56.8486"/>
<polygon fill="#191970" stroke="#191970" points="185.2588,-60.2044 194.2737,-54.6382 183.7554,-53.3677 185.2588,-60.2044"/>
</g>
<!-- Node16 -->
<g id="node10" class="node">
<title>Node16</title>
<g id="a_node10"><a xlink:href="lattice_8h.html#a2a635fe0bbbaca1e8903db8d3bf61f01" target="_top" xlink:title=" ">
<polygon fill="#ffffff" stroke="#000000" points="162.0537,-.5 162.0537,-18.5 300.5098,-18.5 300.5098,-.5 162.0537,-.5"/>
<text text-anchor="middle" x="231.2817" y="-6.5" font-family="Helvetica,sans-Serif" font-size="10.00" fill="#000000">sumRealTraceMultiplication</text>
</a>
</g>
</g>
<!-- Node7&#45;&gt;Node16 -->
<g id="edge10" class="edge">
<title>Node7&#45;&gt;Node16</title>
<path fill="none" stroke="#191970" d="M76.9247,-74.3708C95.6141,-62.4295 130.1891,-41.5022 162.0537,-28.5 168.4113,-25.9058 175.2387,-23.5483 182.0394,-21.4456"/>
<polygon fill="#191970" stroke="#191970" points="183.3133,-24.7196 191.9261,-18.5495 181.3454,-18.0019 183.3133,-24.7196"/>
</g>
<!-- Node9 -->
<g id="node3" class="node">
<title>Node9</title>
<g id="a_node3"><a xlink:href="class_lattice.html#a5b4e162f06f7b4b90b4a9335ed2aabb5" target="_top" xlink:title=" ">
<polygon fill="#ffffff" stroke="#000000" points="359.3027,-148.5 359.3027,-166.5 444.79,-166.5 444.79,-148.5 359.3027,-148.5"/>
<text text-anchor="middle" x="402.0464" y="-154.5" font-family="Helvetica,sans-Serif" font-size="10.00" fill="#000000">Lattice::allocate</text>
</a>
</g>
</g>
<!-- Node8&#45;&gt;Node9 -->
<g id="edge2" class="edge">
<title>Node8&#45;&gt;Node9</title>
<path fill="none" stroke="#191970" d="M248.5953,-124.2514C272.2876,-129.3848 315.8227,-138.8177 350.4863,-146.3284"/>
<polygon fill="#191970" stroke="#191970" points="349.9502,-149.7933 360.4646,-148.4904 351.4326,-142.9521 349.9502,-149.7933"/>
</g>
<!-- Node10 -->
<g id="node4" class="node">
<title>Node10</title>
<g id="a_node4"><a xlink:href="class_parallel_1_1_index.html#ac406d7ceb12e986a66d64ef98fcef5d3" target="_top" xlink:title=" ">
<polygon fill="#ffffff" stroke="#000000" points="336.5098,-111.5 336.5098,-129.5 467.583,-129.5 467.583,-111.5 336.5098,-111.5"/>
<text text-anchor="middle" x="402.0464" y="-117.5" font-family="Helvetica,sans-Serif" font-size="10.00" fill="#000000">Parallel::Index::cubeIndex</text>
</a>
</g>
</g>
<!-- Node8&#45;&gt;Node10 -->
<g id="edge3" class="edge">
<title>Node8&#45;&gt;Node10</title>
<path fill="none" stroke="#191970" d="M248.5953,-120.5C266.9507,-120.5 297.2162,-120.5 326.0392,-120.5"/>
<polygon fill="#191970" stroke="#191970" points="326.1522,-124.0001 336.1522,-120.5 326.1522,-117.0001 326.1522,-124.0001"/>
</g>
<!-- Node11 -->
<g id="node5" class="node">
<title>Node11</title>
<g id="a_node5"><a xlink:href="class_parallel_1_1_index.html#af31faeef1369fdc0997d1910e008bfe2" target="_top" xlink:title=" ">
<polygon fill="#ffffff" stroke="#000000" points="340.4014,-74.5 340.4014,-92.5 463.6914,-92.5 463.6914,-74.5 340.4014,-74.5"/>
<text text-anchor="middle" x="402.0464" y="-80.5" font-family="Helvetica,sans-Serif" font-size="10.00" fill="#000000">Parallel::Index::getIndex</text>
</a>
</g>
</g>
<!-- Node8&#45;&gt;Node11 -->
<g id="edge4" class="edge">
<title>Node8&#45;&gt;Node11</title>
<path fill="none" stroke="#191970" d="M248.5953,-116.7486C272.2876,-111.6152 315.8227,-102.1823 350.4863,-94.6716"/>
<polygon fill="#191970" stroke="#191970" points="351.4326,-98.0479 360.4646,-92.5096 349.9502,-91.2067 351.4326,-98.0479"/>
</g>
<!-- Node12 -->
<g id="node6" class="node">
<title>Node12</title>
<g id="a_node6"><a xlink:href="class_parallel_1_1_neighbours.html#a84653f3e22436280ac5a4689a24e7146" target="_top" xlink:title=" ">
<polygon fill="#ffffff" stroke="#000000" points="339.293,-37.5 339.293,-55.5 464.7998,-55.5 464.7998,-37.5 339.293,-37.5"/>
<text text-anchor="middle" x="402.0464" y="-43.5" font-family="Helvetica,sans-Serif" font-size="10.00" fill="#000000">Parallel::Neighbours::get</text>
</a>
</g>
</g>
<!-- Node8&#45;&gt;Node12 -->
<g id="edge5" class="edge">
<title>Node8&#45;&gt;Node12</title>
<path fill="none" stroke="#191970" d="M248.4857,-118.6572C263.127,-116.4954 284.2998,-111.9268 300.5098,-102.5 320.3436,-90.9658 316.8382,-77.3088 336.5098,-65.5 340.444,-63.1383 344.688,-61.0563 349.058,-59.2235"/>
<polygon fill="#191970" stroke="#191970" points="350.6143,-62.3783 358.7547,-55.5971 348.1623,-55.8218 350.6143,-62.3783"/>
</g>
<!-- Node13&#45;&gt;Node9 -->
<g id="edge7" class="edge">
<title>Node13&#45;&gt;Node9</title>
<path fill="none" stroke="#191970" d="M245.841,-157.5C268.4511,-157.5 313.1286,-157.5 348.9312,-157.5"/>
<polygon fill="#191970" stroke="#191970" points="349.2445,-161.0001 359.2445,-157.5 349.2445,-154.0001 349.2445,-161.0001"/>
</g>
<!-- Node17 -->
<g id="node11" class="node">
<title>Node17</title>
<g id="a_node11"><a xlink:href="functions_8h.html#a93863171e3da962b61804144857576a7" target="_top" xlink:title=" ">
<polygon fill="#ffffff" stroke="#000000" points="343.7461,-.5 343.7461,-18.5 460.3467,-18.5 460.3467,-.5 343.7461,-.5"/>
<text text-anchor="middle" x="402.0464" y="-6.5" font-family="Helvetica,sans-Serif" font-size="10.00" fill="#000000">traceRealMultiplication</text>
</a>
</g>
</g>
<!-- Node16&#45;&gt;Node17 -->
<g id="edge11" class="edge">
<title>Node16&#45;&gt;Node17</title>
<path fill="none" stroke="#191970" d="M300.7383,-9.5C311.5144,-9.5 322.6415,-9.5 333.3996,-9.5"/>
<polygon fill="#191970" stroke="#191970" points="333.5775,-13.0001 343.5775,-9.5 333.5775,-6.0001 333.5775,-13.0001"/>
</g>
</g>
</svg>
