<?xml version="1.0" encoding="UTF-8" standalone="no"?>
<!DOCTYPE svg PUBLIC "-//W3C//DTD SVG 1.1//EN"
 "http://www.w3.org/Graphics/SVG/1.1/DTD/svg11.dtd">
<!-- Generated by graphviz version 2.40.1 (20161225.0304)
 -->
<!-- Title: nlohmann::basic_json::operator[] Pages: 1 -->
<svg width="269pt" height="178pt"
 viewBox="0.00 0.00 269.46 178.00" xmlns="http://www.w3.org/2000/svg" xmlns:xlink="http://www.w3.org/1999/xlink">
<g id="graph0" class="graph" transform="scale(1 1) rotate(0) translate(4 174)">
<title>nlohmann::basic_json::operator[]</title>
<polygon fill="#ffffff" stroke="transparent" points="-4,4 -4,-174 265.457,-174 265.457,4 -4,4"/>
<!-- Node361 -->
<g id="node1" class="node">
<title>Node361</title>
<g id="a_node1"><a xlink:title="access specified array element">
<polygon fill="#bfbfbf" stroke="#000000" points="0,-70.5 0,-98.5 112.7285,-98.5 112.7285,-70.5 0,-70.5"/>
<text text-anchor="start" x="8" y="-86.5" font-family="Helvetica,sans-Serif" font-size="10.00" fill="#000000">nlohmann::basic_json</text>
<text text-anchor="middle" x="56.3643" y="-76.5" font-family="Helvetica,sans-Serif" font-size="10.00" fill="#000000">::operator[]</text>
</a>
</g>
</g>
<!-- Node362 -->
<g id="node2" class="node">
<title>Node362</title>
<g id="a_node2"><a xlink:href="classnlohmann_1_1basic__json.html#a8faa039ca82427ed29c486ffd00600c3" target="_top" xlink:title="return whether value is null">
<polygon fill="#ffffff" stroke="#000000" points="148.7285,-141.5 148.7285,-169.5 261.457,-169.5 261.457,-141.5 148.7285,-141.5"/>
<text text-anchor="start" x="156.7285" y="-157.5" font-family="Helvetica,sans-Serif" font-size="10.00" fill="#000000">nlohmann::basic_json</text>
<text text-anchor="middle" x="205.0928" y="-147.5" font-family="Helvetica,sans-Serif" font-size="10.00" fill="#000000">::is_null</text>
</a>
</g>
</g>
<!-- Node361&#45;&gt;Node362 -->
<g id="edge1" class="edge">
<title>Node361&#45;&gt;Node362</title>
<path fill="none" stroke="#191970" d="M81.9275,-98.5909C100.2961,-108.5166 125.767,-121.8761 148.7285,-132.5 152.2955,-134.1504 156.0155,-135.8066 159.7689,-137.4322"/>
<polygon fill="#191970" stroke="#191970" points="158.5264,-140.7069 169.0993,-141.3889 161.2593,-134.2625 158.5264,-140.7069"/>
</g>
<!-- Node363 -->
<g id="node3" class="node">
<title>Node363</title>
<g id="a_node3"><a xlink:href="classnlohmann_1_1basic__json.html#aef9ce5dd2381caee1f8ddcdb5bdd9c65" target="_top" xlink:title="return whether value is an array">
<polygon fill="#ffffff" stroke="#000000" points="148.7285,-94.5 148.7285,-122.5 261.457,-122.5 261.457,-94.5 148.7285,-94.5"/>
<text text-anchor="start" x="156.7285" y="-110.5" font-family="Helvetica,sans-Serif" font-size="10.00" fill="#000000">nlohmann::basic_json</text>
<text text-anchor="middle" x="205.0928" y="-100.5" font-family="Helvetica,sans-Serif" font-size="10.00" fill="#000000">::is_array</text>
</a>
</g>
</g>
<!-- Node361&#45;&gt;Node363 -->
<g id="edge2" class="edge">
<title>Node361&#45;&gt;Node363</title>
<path fill="none" stroke="#191970" d="M113.0164,-93.6418C121.3948,-94.9938 130.0917,-96.3972 138.6472,-97.7778"/>
<polygon fill="#191970" stroke="#191970" points="138.1682,-101.2457 148.5981,-99.3836 139.2834,-94.3351 138.1682,-101.2457"/>
</g>
<!-- Node364 -->
<g id="node4" class="node">
<title>Node364</title>
<g id="a_node4"><a xlink:href="classnlohmann_1_1basic__json.html#a32124a16dc80729d964d9caf607c2bc8" target="_top" xlink:title="create an empty value with a given type">
<polygon fill="#ffffff" stroke="#000000" points="148.7285,-47.5 148.7285,-75.5 261.457,-75.5 261.457,-47.5 148.7285,-47.5"/>
<text text-anchor="start" x="156.7285" y="-63.5" font-family="Helvetica,sans-Serif" font-size="10.00" fill="#000000">nlohmann::basic_json</text>
<text text-anchor="middle" x="205.0928" y="-53.5" font-family="Helvetica,sans-Serif" font-size="10.00" fill="#000000">::basic_json</text>
</a>
</g>
</g>
<!-- Node361&#45;&gt;Node364 -->
<g id="edge3" class="edge">
<title>Node361&#45;&gt;Node364</title>
<path fill="none" stroke="#191970" d="M113.0164,-75.7391C121.3948,-74.4434 130.0917,-73.0985 138.6472,-71.7754"/>
<polygon fill="#191970" stroke="#191970" points="139.2505,-75.2238 148.5981,-70.2366 138.1807,-68.306 139.2505,-75.2238"/>
</g>
<!-- Node365 -->
<g id="node5" class="node">
<title>Node365</title>
<g id="a_node5"><a xlink:href="classnlohmann_1_1basic__json.html#a6b75862bdb4d26650616cf9821430755" target="_top" xlink:title="return the type as string">
<polygon fill="#ffffff" stroke="#000000" points="148.7285,-.5 148.7285,-28.5 261.457,-28.5 261.457,-.5 148.7285,-.5"/>
<text text-anchor="start" x="156.7285" y="-16.5" font-family="Helvetica,sans-Serif" font-size="10.00" fill="#000000">nlohmann::basic_json</text>
<text text-anchor="middle" x="205.0928" y="-6.5" font-family="Helvetica,sans-Serif" font-size="10.00" fill="#000000">::type_name</text>
</a>
</g>
</g>
<!-- Node361&#45;&gt;Node365 -->
<g id="edge4" class="edge">
<title>Node361&#45;&gt;Node365</title>
<path fill="none" stroke="#191970" d="M83.6402,-70.3819C101.9217,-61.0519 126.6068,-48.7074 148.7285,-38.5 153.029,-36.5157 157.5388,-34.4955 162.055,-32.512"/>
<polygon fill="#191970" stroke="#191970" points="163.4879,-35.7056 171.2692,-28.5153 160.7023,-29.2837 163.4879,-35.7056"/>
</g>
</g>
</svg>
