<?xml version="1.0" encoding="UTF-8" standalone="no"?>
<!DOCTYPE svg PUBLIC "-//W3C//DTD SVG 1.1//EN"
 "http://www.w3.org/Graphics/SVG/1.1/DTD/svg11.dtd">
<!-- Generated by graphviz version 2.40.1 (20161225.0304)
 -->
<!-- Title: MasterSamplerTopcXYZ::printObservable Pages: 1 -->
<svg width="333pt" height="242pt"
 viewBox="0.00 0.00 333.33 242.00" xmlns="http://www.w3.org/2000/svg" xmlns:xlink="http://www.w3.org/1999/xlink">
<g id="graph0" class="graph" transform="scale(1 1) rotate(0) translate(4 238)">
<title>MasterSamplerTopcXYZ::printObservable</title>
<polygon fill="#ffffff" stroke="transparent" points="-4,4 -4,-238 329.334,-238 329.334,4 -4,4"/>
<!-- Node46 -->
<g id="node1" class="node">
<title>Node46</title>
<g id="a_node1"><a xlink:title=" ">
<polygon fill="#bfbfbf" stroke="#000000" points="0,-107.5 0,-135.5 124.3691,-135.5 124.3691,-107.5 0,-107.5"/>
<text text-anchor="start" x="8" y="-123.5" font-family="Helvetica,sans-Serif" font-size="10.00" fill="#000000">MasterSamplerTopcXYZ</text>
<text text-anchor="middle" x="62.1846" y="-113.5" font-family="Helvetica,sans-Serif" font-size="10.00" fill="#000000">::printObservable</text>
</a>
</g>
</g>
<!-- Node47 -->
<g id="node2" class="node">
<title>Node47</title>
<g id="a_node2"><a xlink:href="class_observable_storer.html#af03e1c58c3e0efff251ef9b65cc8d152" target="_top" xlink:title=" ">
<polygon fill="#ffffff" stroke="#000000" points="160.3691,-215.5 160.3691,-233.5 325.334,-233.5 325.334,-215.5 160.3691,-215.5"/>
<text text-anchor="middle" x="242.8516" y="-221.5" font-family="Helvetica,sans-Serif" font-size="10.00" fill="#000000">ObservableStorer::getObservable</text>
</a>
</g>
</g>
<!-- Node46&#45;&gt;Node47 -->
<g id="edge1" class="edge">
<title>Node46&#45;&gt;Node47</title>
<path fill="none" stroke="#191970" d="M74.2697,-135.6835C91.4092,-154.8393 124.6854,-188.6333 160.3691,-206.5 164.7268,-208.6819 169.344,-210.6006 174.0797,-212.2878"/>
<polygon fill="#191970" stroke="#191970" points="173.3308,-215.7229 183.9217,-215.4358 175.4634,-209.0556 173.3308,-215.7229"/>
</g>
<!-- Node48 -->
<g id="node3" class="node">
<title>Node48</title>
<g id="a_node3"><a xlink:href="class_parameters.html#aae314edb18d426571ab7b6df60da70aa" target="_top" xlink:title=" ">
<polygon fill="#ffffff" stroke="#000000" points="182.6128,-178.5 182.6128,-196.5 303.0903,-196.5 303.0903,-178.5 182.6128,-178.5"/>
<text text-anchor="middle" x="242.8516" y="-184.5" font-family="Helvetica,sans-Serif" font-size="10.00" fill="#000000">Parameters::getNFlows</text>
</a>
</g>
</g>
<!-- Node46&#45;&gt;Node48 -->
<g id="edge2" class="edge">
<title>Node46&#45;&gt;Node48</title>
<path fill="none" stroke="#191970" d="M86.8986,-135.6485C106.3364,-146.2619 134.3844,-160.4605 160.3691,-169.5 167.3956,-171.9444 174.8783,-174.127 182.3601,-176.0557"/>
<polygon fill="#191970" stroke="#191970" points="181.6122,-179.4758 192.1568,-178.4455 183.2711,-172.6752 181.6122,-179.4758"/>
</g>
<!-- Node49 -->
<g id="node4" class="node">
<title>Node49</title>
<g id="a_node4"><a xlink:href="class_parallel_1_1_communicator.html#a6c60f0fbbe23ef0bf342b0157d080007" target="_top" xlink:title=" ">
<polygon fill="#ffffff" stroke="#000000" points="182.8887,-131.5 182.8887,-159.5 302.8145,-159.5 302.8145,-131.5 182.8887,-131.5"/>
<text text-anchor="start" x="190.8887" y="-147.5" font-family="Helvetica,sans-Serif" font-size="10.00" fill="#000000">Parallel::Communicator</text>
<text text-anchor="middle" x="242.8516" y="-137.5" font-family="Helvetica,sans-Serif" font-size="10.00" fill="#000000">::gatherDoubleResults</text>
</a>
</g>
</g>
<!-- Node46&#45;&gt;Node49 -->
<g id="edge3" class="edge">
<title>Node46&#45;&gt;Node49</title>
<path fill="none" stroke="#191970" d="M124.6129,-129.793C140.0913,-131.8492 156.7818,-134.0664 172.606,-136.1685"/>
<polygon fill="#191970" stroke="#191970" points="172.4844,-139.683 182.8583,-137.5304 173.4063,-132.744 172.4844,-139.683"/>
</g>
<!-- Node50 -->
<g id="node5" class="node">
<title>Node50</title>
<g id="a_node5"><a xlink:href="class_parallel_1_1_communicator.html#a474ab433da0e83ef372d74e26a7e5cb0" target="_top" xlink:title=" ">
<polygon fill="#ffffff" stroke="#000000" points="182.8887,-84.5 182.8887,-112.5 302.8145,-112.5 302.8145,-84.5 182.8887,-84.5"/>
<text text-anchor="start" x="190.8887" y="-100.5" font-family="Helvetica,sans-Serif" font-size="10.00" fill="#000000">Parallel::Communicator</text>
<text text-anchor="middle" x="242.8516" y="-90.5" font-family="Helvetica,sans-Serif" font-size="10.00" fill="#000000">::getProcessRank</text>
</a>
</g>
</g>
<!-- Node46&#45;&gt;Node50 -->
<g id="edge4" class="edge">
<title>Node46&#45;&gt;Node50</title>
<path fill="none" stroke="#191970" d="M124.6129,-113.5525C140.0913,-111.582 156.7818,-109.4572 172.606,-107.4427"/>
<polygon fill="#191970" stroke="#191970" points="173.3803,-110.8724 182.8583,-106.1375 172.4963,-103.9285 173.3803,-110.8724"/>
</g>
<!-- Node51 -->
<g id="node6" class="node">
<title>Node51</title>
<g id="a_node6"><a xlink:href="class_parameters.html#a96dbafc27f287de83dfaec3bc2d45efe" target="_top" xlink:title=" ">
<polygon fill="#ffffff" stroke="#000000" points="172.3247,-47.5 172.3247,-65.5 313.3784,-65.5 313.3784,-47.5 172.3247,-47.5"/>
<text text-anchor="middle" x="242.8516" y="-53.5" font-family="Helvetica,sans-Serif" font-size="10.00" fill="#000000">Parameters::getFlowEpsilon</text>
</a>
</g>
</g>
<!-- Node46&#45;&gt;Node51 -->
<g id="edge5" class="edge">
<title>Node46&#45;&gt;Node51</title>
<path fill="none" stroke="#191970" d="M88.2226,-107.4454C107.6556,-97.4186 135.1011,-84.219 160.3691,-75.5 168.4564,-72.7094 177.1311,-70.2054 185.7079,-68.002"/>
<polygon fill="#191970" stroke="#191970" points="186.8115,-71.3351 195.6903,-65.5543 185.1444,-64.5365 186.8115,-71.3351"/>
</g>
<!-- Node52 -->
<g id="node7" class="node">
<title>Node52</title>
<g id="a_node7"><a xlink:href="class_parallel_1_1_communicator.html#a7b1f80fb49a0cc83f2031c3415174150" target="_top" xlink:title=" ">
<polygon fill="#ffffff" stroke="#000000" points="182.8887,-.5 182.8887,-28.5 302.8145,-28.5 302.8145,-.5 182.8887,-.5"/>
<text text-anchor="start" x="190.8887" y="-16.5" font-family="Helvetica,sans-Serif" font-size="10.00" fill="#000000">Parallel::Communicator</text>
<text text-anchor="middle" x="242.8516" y="-6.5" font-family="Helvetica,sans-Serif" font-size="10.00" fill="#000000">::getNumProc</text>
</a>
</g>
</g>
<!-- Node46&#45;&gt;Node52 -->
<g id="edge6" class="edge">
<title>Node46&#45;&gt;Node52</title>
<path fill="none" stroke="#191970" d="M75.1155,-107.3768C92.7066,-88.9728 125.95,-56.9681 160.3691,-38.5 164.5826,-36.2392 169.0345,-34.1682 173.599,-32.275"/>
<polygon fill="#191970" stroke="#191970" points="175.0036,-35.4849 183.086,-28.6347 172.4959,-28.9495 175.0036,-35.4849"/>
</g>
</g>
</svg>
