<?xml version="1.0" encoding="UTF-8" standalone="no"?>
<!DOCTYPE svg PUBLIC "-//W3C//DTD SVG 1.1//EN"
 "http://www.w3.org/Graphics/SVG/1.1/DTD/svg11.dtd">
<!-- Generated by graphviz version 2.40.1 (20161225.0304)
 -->
<!-- Title: Parallel::Communicator::checkSubLatticeValidity Pages: 1 -->
<svg width="324pt" height="138pt"
 viewBox="0.00 0.00 324.29 138.00" xmlns="http://www.w3.org/2000/svg" xmlns:xlink="http://www.w3.org/1999/xlink">
<g id="graph0" class="graph" transform="scale(1 1) rotate(0) translate(4 134)">
<title>Parallel::Communicator::checkSubLatticeValidity</title>
<polygon fill="#ffffff" stroke="transparent" points="-4,4 -4,-134 320.2861,-134 320.2861,4 -4,4"/>
<!-- Node15 -->
<g id="node1" class="node">
<title>Node15</title>
<g id="a_node1"><a xlink:title=" ">
<polygon fill="#bfbfbf" stroke="#000000" points="0,-50.5 0,-78.5 126.4346,-78.5 126.4346,-50.5 0,-50.5"/>
<text text-anchor="start" x="8" y="-66.5" font-family="Helvetica,sans-Serif" font-size="10.00" fill="#000000">Parallel::Communicator</text>
<text text-anchor="middle" x="63.2173" y="-56.5" font-family="Helvetica,sans-Serif" font-size="10.00" fill="#000000">::checkSubLatticeValidity</text>
</a>
</g>
</g>
<!-- Node16 -->
<g id="node2" class="node">
<title>Node16</title>
<g id="a_node2"><a xlink:href="class_parameters.html#a52b90e94a378ec9fe8c504cf546e98fa" target="_top" xlink:title=" ">
<polygon fill="#ffffff" stroke="#000000" points="176.8901,-111.5 176.8901,-129.5 301.8306,-129.5 301.8306,-111.5 176.8901,-111.5"/>
<text text-anchor="middle" x="239.3604" y="-117.5" font-family="Helvetica,sans-Serif" font-size="10.00" fill="#000000">Parameters::getNSpatial</text>
</a>
</g>
</g>
<!-- Node15&#45;&gt;Node16 -->
<g id="edge1" class="edge">
<title>Node15&#45;&gt;Node16</title>
<path fill="none" stroke="#191970" d="M96.8001,-78.6695C115.834,-86.3684 140.2164,-95.6804 162.4346,-102.5 169.9945,-104.8204 178.0512,-107.0087 185.9973,-109.0066"/>
<polygon fill="#191970" stroke="#191970" points="185.4135,-112.4666 195.9576,-111.4311 187.0691,-105.6652 185.4135,-112.4666"/>
</g>
<!-- Node17 -->
<g id="node3" class="node">
<title>Node17</title>
<g id="a_node3"><a xlink:href="class_parameters.html#a237ea1286459e8c648e983464829fe8d" target="_top" xlink:title=" ">
<polygon fill="#ffffff" stroke="#000000" points="171.6143,-74.5 171.6143,-92.5 307.1064,-92.5 307.1064,-74.5 171.6143,-74.5"/>
<text text-anchor="middle" x="239.3604" y="-80.5" font-family="Helvetica,sans-Serif" font-size="10.00" fill="#000000">Parameters::getNTemporal</text>
</a>
</g>
</g>
<!-- Node15&#45;&gt;Node17 -->
<g id="edge2" class="edge">
<title>Node15&#45;&gt;Node17</title>
<path fill="none" stroke="#191970" d="M126.809,-71.3594C138.0129,-72.568 149.7909,-73.8384 161.3356,-75.0837"/>
<polygon fill="#191970" stroke="#191970" points="161.0829,-78.5767 171.4006,-76.1694 161.8336,-71.617 161.0829,-78.5767"/>
</g>
<!-- Node18 -->
<g id="node4" class="node">
<title>Node18</title>
<g id="a_node4"><a xlink:href="class_parameters.html#aff629ab94d99807364926008fb4e1e67" target="_top" xlink:title=" ">
<polygon fill="#ffffff" stroke="#000000" points="162.4346,-37.5 162.4346,-55.5 316.2861,-55.5 316.2861,-37.5 162.4346,-37.5"/>
<text text-anchor="middle" x="239.3604" y="-43.5" font-family="Helvetica,sans-Serif" font-size="10.00" fill="#000000">Parameters::getSubLatticeSize</text>
</a>
</g>
</g>
<!-- Node15&#45;&gt;Node18 -->
<g id="edge3" class="edge">
<title>Node15&#45;&gt;Node18</title>
<path fill="none" stroke="#191970" d="M126.809,-58.0016C135.0958,-57.1548 143.6968,-56.2758 152.2851,-55.3982"/>
<polygon fill="#191970" stroke="#191970" points="152.7493,-58.8691 162.3417,-54.3705 152.0376,-51.9053 152.7493,-58.8691"/>
</g>
<!-- Node19 -->
<g id="node5" class="node">
<title>Node19</title>
<g id="a_node5"><a xlink:href="class_parameters.html#a128ccc4cb31e9930a825cfd3b8e83d2e" target="_top" xlink:title=" ">
<polygon fill="#ffffff" stroke="#000000" points="171.3311,-.5 171.3311,-18.5 307.3896,-18.5 307.3896,-.5 171.3311,-.5"/>
<text text-anchor="middle" x="239.3604" y="-6.5" font-family="Helvetica,sans-Serif" font-size="10.00" fill="#000000">Parameters::getLatticeSize</text>
</a>
</g>
</g>
<!-- Node15&#45;&gt;Node19 -->
<g id="edge4" class="edge">
<title>Node15&#45;&gt;Node19</title>
<path fill="none" stroke="#191970" d="M99.1933,-50.4048C117.8953,-43.3438 141.2209,-34.9486 162.4346,-28.5 171.0412,-25.8837 180.27,-23.3644 189.2417,-21.0631"/>
<polygon fill="#191970" stroke="#191970" points="190.3656,-24.3898 199.2149,-18.564 188.664,-17.5997 190.3656,-24.3898"/>
</g>
</g>
</svg>
