<?xml version="1.0" encoding="UTF-8" standalone="no"?>
<!DOCTYPE svg PUBLIC "-//W3C//DTD SVG 1.1//EN"
 "http://www.w3.org/Graphics/SVG/1.1/DTD/svg11.dtd">
<!-- Generated by graphviz version 2.40.1 (20161225.0304)
 -->
<!-- Title: Correlator Pages: 1 -->
<svg width="244pt" height="249pt"
 viewBox="0.00 0.00 243.86 249.00" xmlns="http://www.w3.org/2000/svg" xmlns:xlink="http://www.w3.org/1999/xlink">
<g id="graph0" class="graph" transform="scale(1 1) rotate(0) translate(4 245)">
<title>Correlator</title>
<polygon fill="#ffffff" stroke="transparent" points="-4,4 -4,-245 239.8564,-245 239.8564,4 -4,4"/>
<!-- Node0 -->
<g id="node1" class="node">
<title>Node0</title>
<g id="a_node1"><a xlink:title=" ">
<polygon fill="#bfbfbf" stroke="#000000" points="0,-111.5 0,-129.5 60.458,-129.5 60.458,-111.5 0,-111.5"/>
<text text-anchor="middle" x="30.229" y="-117.5" font-family="Helvetica,sans-Serif" font-size="10.00" fill="#000000">Correlator</text>
</a>
</g>
</g>
<!-- Node1 -->
<g id="node2" class="node">
<title>Node1</title>
<g id="a_node2"><a xlink:href="class_energy_density.html" target="_top" xlink:title=" ">
<polygon fill="#ffffff" stroke="#000000" points="125.6426,-222.5 125.6426,-240.5 206.6719,-240.5 206.6719,-222.5 125.6426,-222.5"/>
<text text-anchor="middle" x="166.1572" y="-228.5" font-family="Helvetica,sans-Serif" font-size="10.00" fill="#000000">EnergyDensity</text>
</a>
</g>
</g>
<!-- Node0&#45;&gt;Node1 -->
<g id="edge1" class="edge">
<title>Node0&#45;&gt;Node1</title>
<path fill="none" stroke="#191970" d="M38.3584,-138.7345C48.7633,-159.9488 68.8066,-194.4871 96.458,-213.5 105.0054,-219.3771 115.337,-223.3354 125.3973,-226.0013"/>
<polygon fill="#191970" stroke="#191970" points="41.4499,-137.0834 34.0337,-129.517 35.1128,-140.0567 41.4499,-137.0834"/>
</g>
<!-- Node2 -->
<g id="node3" class="node">
<title>Node2</title>
<g id="a_node3"><a xlink:href="class_lattice_action_charge_density.html" target="_top" xlink:title=" ">
<polygon fill="#ffffff" stroke="#000000" points="96.458,-185.5 96.458,-203.5 235.8564,-203.5 235.8564,-185.5 96.458,-185.5"/>
<text text-anchor="middle" x="166.1572" y="-191.5" font-family="Helvetica,sans-Serif" font-size="10.00" fill="#000000">LatticeActionChargeDensity</text>
</a>
</g>
</g>
<!-- Node0&#45;&gt;Node2 -->
<g id="edge2" class="edge">
<title>Node0&#45;&gt;Node2</title>
<path fill="none" stroke="#191970" d="M45.6532,-137.1033C58.2001,-149.664 76.9647,-166.4179 96.458,-176.5 103.4515,-180.1171 111.224,-183.044 118.9685,-185.4013"/>
<polygon fill="#191970" stroke="#191970" points="48.1661,-134.667 38.6935,-129.9215 43.1393,-139.5385 48.1661,-134.667"/>
</g>
<!-- Node3 -->
<g id="node4" class="node">
<title>Node3</title>
<g id="a_node4"><a xlink:href="class_master_sampler.html" target="_top" xlink:title=" ">
<polygon fill="#ffffff" stroke="#000000" points="124.2583,-148.5 124.2583,-166.5 208.0562,-166.5 208.0562,-148.5 124.2583,-148.5"/>
<text text-anchor="middle" x="166.1572" y="-154.5" font-family="Helvetica,sans-Serif" font-size="10.00" fill="#000000">MasterSampler</text>
</a>
</g>
</g>
<!-- Node0&#45;&gt;Node3 -->
<g id="edge3" class="edge">
<title>Node0&#45;&gt;Node3</title>
<path fill="none" stroke="#191970" d="M70.3478,-132.1951C78.9505,-134.6509 87.997,-137.1942 96.458,-139.5 107.4306,-142.4902 119.4095,-145.629 130.2927,-148.4329"/>
<polygon fill="#191970" stroke="#191970" points="71.092,-128.7675 60.5144,-129.372 69.1603,-135.4957 71.092,-128.7675"/>
</g>
<!-- Node4 -->
<g id="node5" class="node">
<title>Node4</title>
<g id="a_node5"><a xlink:href="class_master_sampler_topc_x_y_z.html" target="_top" xlink:title=" ">
<polygon fill="#ffffff" stroke="#000000" points="103.9727,-111.5 103.9727,-129.5 228.3418,-129.5 228.3418,-111.5 103.9727,-111.5"/>
<text text-anchor="middle" x="166.1572" y="-117.5" font-family="Helvetica,sans-Serif" font-size="10.00" fill="#000000">MasterSamplerTopcXYZ</text>
</a>
</g>
</g>
<!-- Node0&#45;&gt;Node4 -->
<g id="edge4" class="edge">
<title>Node0&#45;&gt;Node4</title>
<path fill="none" stroke="#191970" d="M70.7375,-120.5C81.1299,-120.5 92.5518,-120.5 103.7697,-120.5"/>
<polygon fill="#191970" stroke="#191970" points="70.734,-117.0001 60.734,-120.5 70.7339,-124.0001 70.734,-117.0001"/>
</g>
<!-- Node5 -->
<g id="node6" class="node">
<title>Node5</title>
<g id="a_node6"><a xlink:href="class_plaquette.html" target="_top" xlink:title=" ">
<polygon fill="#ffffff" stroke="#000000" points="137.0293,-74.5 137.0293,-92.5 195.2852,-92.5 195.2852,-74.5 137.0293,-74.5"/>
<text text-anchor="middle" x="166.1572" y="-80.5" font-family="Helvetica,sans-Serif" font-size="10.00" fill="#000000">Plaquette</text>
</a>
</g>
</g>
<!-- Node0&#45;&gt;Node5 -->
<g id="edge5" class="edge">
<title>Node0&#45;&gt;Node5</title>
<path fill="none" stroke="#191970" d="M70.4568,-109.5499C91.7008,-103.7672 117.3091,-96.7966 136.6877,-91.5217"/>
<polygon fill="#191970" stroke="#191970" points="69.4636,-106.1928 60.734,-112.1965 71.3022,-112.9471 69.4636,-106.1928"/>
</g>
<!-- Node6 -->
<g id="node7" class="node">
<title>Node6</title>
<g id="a_node7"><a xlink:href="class_super_sampler.html" target="_top" xlink:title=" ">
<polygon fill="#ffffff" stroke="#000000" points="126.1968,-37.5 126.1968,-55.5 206.1177,-55.5 206.1177,-37.5 126.1968,-37.5"/>
<text text-anchor="middle" x="166.1572" y="-43.5" font-family="Helvetica,sans-Serif" font-size="10.00" fill="#000000">SuperSampler</text>
</a>
</g>
</g>
<!-- Node0&#45;&gt;Node6 -->
<g id="edge6" class="edge">
<title>Node0&#45;&gt;Node6</title>
<path fill="none" stroke="#191970" d="M46.1044,-103.9273C58.6986,-91.6758 77.3141,-75.4564 96.458,-65.5 105.5823,-60.7546 116.0125,-57.0998 125.9758,-54.3239"/>
<polygon fill="#191970" stroke="#191970" points="43.3355,-101.7471 38.7526,-111.2995 48.2922,-106.69 43.3355,-101.7471"/>
</g>
<!-- Node7 -->
<g id="node8" class="node">
<title>Node7</title>
<g id="a_node8"><a xlink:href="class_topological_charge.html" target="_top" xlink:title=" ">
<polygon fill="#ffffff" stroke="#000000" points="116.7412,-.5 116.7412,-18.5 215.5732,-18.5 215.5732,-.5 116.7412,-.5"/>
<text text-anchor="middle" x="166.1572" y="-6.5" font-family="Helvetica,sans-Serif" font-size="10.00" fill="#000000">TopologicalCharge</text>
</a>
</g>
</g>
<!-- Node0&#45;&gt;Node7 -->
<g id="edge7" class="edge">
<title>Node0&#45;&gt;Node7</title>
<path fill="none" stroke="#191970" d="M38.6138,-102.2047C49.1544,-81.2532 69.2209,-47.3947 96.458,-28.5 102.5381,-24.2822 109.5178,-20.9993 116.6595,-18.4445"/>
<polygon fill="#191970" stroke="#191970" points="35.404,-100.8032 34.2148,-111.3311 41.7098,-103.8426 35.404,-100.8032"/>
</g>
</g>
</svg>
