<?xml version="1.0" encoding="UTF-8" standalone="no"?>
<!DOCTYPE svg PUBLIC "-//W3C//DTD SVG 1.1//EN"
 "http://www.w3.org/Graphics/SVG/1.1/DTD/svg11.dtd">
<!-- Generated by graphviz version 2.40.1 (20161225.0304)
 -->
<!-- Title: Parallel::Communicator::getPositiveLink Pages: 1 -->
<svg width="316pt" height="74pt"
 viewBox="0.00 0.00 315.56 74.00" xmlns="http://www.w3.org/2000/svg" xmlns:xlink="http://www.w3.org/1999/xlink">
<g id="graph0" class="graph" transform="scale(1 1) rotate(0) translate(4 70)">
<title>Parallel::Communicator::getPositiveLink</title>
<polygon fill="#ffffff" stroke="transparent" points="-4,4 -4,-70 311.5605,-70 311.5605,4 -4,4"/>
<!-- Node76 -->
<g id="node1" class="node">
<title>Node76</title>
<g id="a_node1"><a xlink:title=" ">
<polygon fill="#bfbfbf" stroke="#000000" points="187.6348,-21.5 187.6348,-49.5 307.5605,-49.5 307.5605,-21.5 187.6348,-21.5"/>
<text text-anchor="start" x="195.6348" y="-37.5" font-family="Helvetica,sans-Serif" font-size="10.00" fill="#000000">Parallel::Communicator</text>
<text text-anchor="middle" x="247.5977" y="-27.5" font-family="Helvetica,sans-Serif" font-size="10.00" fill="#000000">::getPositiveLink</text>
</a>
</g>
</g>
<!-- Node77 -->
<g id="node2" class="node">
<title>Node77</title>
<g id="a_node2"><a xlink:href="class_luscher_action.html#a42285b6e3015935588e1fab6b90c1a11" target="_top" xlink:title=" ">
<polygon fill="#ffffff" stroke="#000000" points="0,-47.5 0,-65.5 151.6348,-65.5 151.6348,-47.5 0,-47.5"/>
<text text-anchor="middle" x="75.8174" y="-53.5" font-family="Helvetica,sans-Serif" font-size="10.00" fill="#000000">LuscherAction::computeStaple</text>
</a>
</g>
</g>
<!-- Node76&#45;&gt;Node77 -->
<g id="edge1" class="edge">
<title>Node76&#45;&gt;Node77</title>
<path fill="none" stroke="#191970" d="M177.5827,-44.0593C168.3152,-45.1922 158.7923,-46.3564 149.4659,-47.4965"/>
<polygon fill="#191970" stroke="#191970" points="178.0159,-47.5325 187.5173,-42.8448 177.1664,-40.5842 178.0159,-47.5325"/>
</g>
<!-- Node78 -->
<g id="node3" class="node">
<title>Node78</title>
<g id="a_node3"><a xlink:href="class_wilson_gauge_action.html#af1f6ba42fcc2b923dc3b37bf150bfae9" target="_top" xlink:title=" ">
<polygon fill="#ffffff" stroke="#000000" points="21.1279,-.5 21.1279,-28.5 130.5068,-28.5 130.5068,-.5 21.1279,-.5"/>
<text text-anchor="start" x="29.1279" y="-16.5" font-family="Helvetica,sans-Serif" font-size="10.00" fill="#000000">WilsonGaugeAction::</text>
<text text-anchor="middle" x="75.8174" y="-6.5" font-family="Helvetica,sans-Serif" font-size="10.00" fill="#000000">computeStaple</text>
</a>
</g>
</g>
<!-- Node76&#45;&gt;Node78 -->
<g id="edge2" class="edge">
<title>Node76&#45;&gt;Node78</title>
<path fill="none" stroke="#191970" d="M177.408,-26.9194C161.8339,-25.0155 145.5468,-23.0244 130.6901,-21.2081"/>
<polygon fill="#191970" stroke="#191970" points="177.1664,-30.4158 187.5173,-28.1552 178.0159,-23.4675 177.1664,-30.4158"/>
</g>
</g>
</svg>
