<?xml version="1.0" encoding="UTF-8" standalone="no"?>
<!DOCTYPE svg PUBLIC "-//W3C//DTD SVG 1.1//EN"
 "http://www.w3.org/Graphics/SVG/1.1/DTD/svg11.dtd">
<!-- Generated by graphviz version 2.40.1 (20161225.0304)
 -->
<!-- Title: SU3::identity Pages: 1 -->
<svg width="237pt" height="101pt"
 viewBox="0.00 0.00 237.19 101.00" xmlns="http://www.w3.org/2000/svg" xmlns:xlink="http://www.w3.org/1999/xlink">
<g id="graph0" class="graph" transform="scale(1 1) rotate(0) translate(4 97)">
<title>SU3::identity</title>
<polygon fill="#ffffff" stroke="transparent" points="-4,4 -4,-97 233.1865,-97 233.1865,4 -4,4"/>
<!-- Node10 -->
<g id="node1" class="node">
<title>Node10</title>
<g id="a_node1"><a xlink:title=" ">
<polygon fill="#bfbfbf" stroke="#000000" points="156.4922,-37.5 156.4922,-55.5 229.1865,-55.5 229.1865,-37.5 156.4922,-37.5"/>
<text text-anchor="middle" x="192.8394" y="-43.5" font-family="Helvetica,sans-Serif" font-size="10.00" fill="#000000">SU3::identity</text>
</a>
</g>
</g>
<!-- Node11 -->
<g id="node2" class="node">
<title>Node11</title>
<g id="a_node2"><a xlink:href="class_taylor2_exp.html#ac3b48be4c567e163f7baaa041121a93f" target="_top" xlink:title=" ">
<polygon fill="#ffffff" stroke="#000000" points="0,-74.5 0,-92.5 120.4922,-92.5 120.4922,-74.5 0,-74.5"/>
<text text-anchor="middle" x="60.2461" y="-80.5" font-family="Helvetica,sans-Serif" font-size="10.00" fill="#000000">Taylor2Exp::Taylor2Exp</text>
</a>
</g>
</g>
<!-- Node10&#45;&gt;Node11 -->
<g id="edge1" class="edge">
<title>Node10&#45;&gt;Node11</title>
<path fill="none" stroke="#191970" d="M150.6416,-58.2752C131.9258,-63.4979 110.2439,-69.5482 92.8067,-74.414"/>
<polygon fill="#191970" stroke="#191970" points="151.7121,-61.6103 160.4034,-55.5512 149.8306,-54.8679 151.7121,-61.6103"/>
</g>
<!-- Node12 -->
<g id="node3" class="node">
<title>Node12</title>
<g id="a_node3"><a xlink:href="class_taylor4_exp.html#a0eac1c3288d296110c6a5e11acc0934d" target="_top" xlink:title=" ">
<polygon fill="#ffffff" stroke="#000000" points="0,-37.5 0,-55.5 120.4922,-55.5 120.4922,-37.5 0,-37.5"/>
<text text-anchor="middle" x="60.2461" y="-43.5" font-family="Helvetica,sans-Serif" font-size="10.00" fill="#000000">Taylor4Exp::Taylor4Exp</text>
</a>
</g>
</g>
<!-- Node10&#45;&gt;Node12 -->
<g id="edge2" class="edge">
<title>Node10&#45;&gt;Node12</title>
<path fill="none" stroke="#191970" d="M146.1027,-46.5C137.8654,-46.5 129.1857,-46.5 120.6379,-46.5"/>
<polygon fill="#191970" stroke="#191970" points="146.2567,-50.0001 156.2567,-46.5 146.2566,-43.0001 146.2567,-50.0001"/>
</g>
<!-- Node13 -->
<g id="node4" class="node">
<title>Node13</title>
<g id="a_node4"><a xlink:href="class_taylor_exp.html#ac8929cf53cb6b8d109220c8284169a82" target="_top" xlink:title=" ">
<polygon fill="#ffffff" stroke="#000000" points="5.5615,-.5 5.5615,-18.5 114.9307,-18.5 114.9307,-.5 5.5615,-.5"/>
<text text-anchor="middle" x="60.2461" y="-6.5" font-family="Helvetica,sans-Serif" font-size="10.00" fill="#000000">TaylorExp::TaylorExp</text>
</a>
</g>
</g>
<!-- Node10&#45;&gt;Node13 -->
<g id="edge3" class="edge">
<title>Node10&#45;&gt;Node13</title>
<path fill="none" stroke="#191970" d="M150.6416,-34.7248C131.9258,-29.5021 110.2439,-23.4518 92.8067,-18.586"/>
<polygon fill="#191970" stroke="#191970" points="149.8306,-38.1321 160.4034,-37.4488 151.7121,-31.3897 149.8306,-38.1321"/>
</g>
</g>
</svg>
