<?xml version="1.0" encoding="UTF-8" standalone="no"?>
<!DOCTYPE svg PUBLIC "-//W3C//DTD SVG 1.1//EN"
 "http://www.w3.org/Graphics/SVG/1.1/DTD/svg11.dtd">
<!-- Generated by graphviz version 2.40.1 (20161225.0304)
 -->
<!-- Title: GluonicLQCD/parallelization/communicator.cpp Pages: 1 -->
<svg width="728pt" height="532pt"
 viewBox="0.00 0.00 727.97 532.00" xmlns="http://www.w3.org/2000/svg" xmlns:xlink="http://www.w3.org/1999/xlink">
<g id="graph0" class="graph" transform="scale(1 1) rotate(0) translate(4 528)">
<title>GluonicLQCD/parallelization/communicator.cpp</title>
<polygon fill="#ffffff" stroke="transparent" points="-4,4 -4,-528 723.9673,-528 723.9673,4 -4,4"/>
<!-- Node0 -->
<g id="node1" class="node">
<title>Node0</title>
<g id="a_node1"><a xlink:title=" ">
<polygon fill="#bfbfbf" stroke="#000000" points="347.2856,-495.5 347.2856,-523.5 488.9009,-523.5 488.9009,-495.5 347.2856,-495.5"/>
<text text-anchor="start" x="355.2856" y="-511.5" font-family="Helvetica,sans-Serif" font-size="10.00" fill="#000000">GluonicLQCD/parallelization</text>
<text text-anchor="middle" x="418.0933" y="-501.5" font-family="Helvetica,sans-Serif" font-size="10.00" fill="#000000">/communicator.cpp</text>
</a>
</g>
</g>
<!-- Node1 -->
<g id="node2" class="node">
<title>Node1</title>
<g id="a_node2"><a xlink:href="communicator_8h.html" target="_top" xlink:title=" ">
<polygon fill="#ffffff" stroke="#000000" points="294.7979,-275.5 294.7979,-293.5 381.3887,-293.5 381.3887,-275.5 294.7979,-275.5"/>
<text text-anchor="middle" x="338.0933" y="-281.5" font-family="Helvetica,sans-Serif" font-size="10.00" fill="#000000">communicator.h</text>
</a>
</g>
</g>
<!-- Node0&#45;&gt;Node1 -->
<g id="edge1" class="edge">
<title>Node0&#45;&gt;Node1</title>
<path fill="none" stroke="#191970" d="M397.0056,-495.4049C384.2988,-486.1509 368.4352,-473.1672 357.0933,-459 339.9505,-437.5869 338.3145,-429.8334 329.0933,-404 317.8923,-372.6207 309.9457,-362.5428 317.0933,-330 319.1632,-320.5757 323.381,-310.7774 327.4972,-302.698"/>
<polygon fill="#191970" stroke="#191970" points="330.6138,-304.2932 332.3164,-293.8361 324.4642,-300.949 330.6138,-304.2932"/>
</g>
<!-- Node4 -->
<g id="node5" class="node">
<title>Node4</title>
<g id="a_node5"><a xlink:title=" ">
<polygon fill="#ffffff" stroke="#bfbfbf" points="93.8667,-110.5 93.8667,-128.5 134.3198,-128.5 134.3198,-110.5 93.8667,-110.5"/>
<text text-anchor="middle" x="114.0933" y="-116.5" font-family="Helvetica,sans-Serif" font-size="10.00" fill="#000000">mpi.h</text>
</a>
</g>
</g>
<!-- Node0&#45;&gt;Node4 -->
<g id="edge32" class="edge">
<title>Node0&#45;&gt;Node4</title>
<path fill="none" stroke="#191970" d="M347.1853,-504.6075C227.928,-494.4119 .0933,-465.6262 .0933,-394.5 .0933,-394.5 .0933,-394.5 .0933,-229.5 .0933,-199.6154 -.2798,-187.7546 19.0933,-165 35.8013,-145.3757 62.9062,-133.5685 83.8962,-126.9193"/>
<polygon fill="#191970" stroke="#191970" points="85.0288,-130.2345 93.6368,-124.0577 83.0557,-123.5183 85.0288,-130.2345"/>
</g>
<!-- Node5 -->
<g id="node6" class="node">
<title>Node5</title>
<g id="a_node6"><a xlink:href="index_8h.html" target="_top" xlink:title=" ">
<polygon fill="#ffffff" stroke="#000000" points="414.0073,-165.5 414.0073,-183.5 526.1792,-183.5 526.1792,-165.5 414.0073,-165.5"/>
<text text-anchor="middle" x="470.0933" y="-171.5" font-family="Helvetica,sans-Serif" font-size="10.00" fill="#000000">parallelization/index.h</text>
</a>
</g>
</g>
<!-- Node0&#45;&gt;Node5 -->
<g id="edge21" class="edge">
<title>Node0&#45;&gt;Node5</title>
<path fill="none" stroke="#191970" d="M443.3113,-495.3685C471.2263,-478.0455 514.4732,-445.7706 531.0933,-404 561.3026,-328.0757 508.1685,-232.1473 482.6366,-192.7019"/>
<polygon fill="#191970" stroke="#191970" points="485.2596,-190.3256 476.8077,-183.937 479.4308,-194.2019 485.2596,-190.3256"/>
</g>
<!-- Node6 -->
<g id="node7" class="node">
<title>Node6</title>
<g id="a_node7"><a xlink:href="neighbours_8h.html" target="_top" xlink:title=" ">
<polygon fill="#ffffff" stroke="#000000" points="582.2192,-165.5 582.2192,-183.5 719.9673,-183.5 719.9673,-165.5 582.2192,-165.5"/>
<text text-anchor="middle" x="651.0933" y="-171.5" font-family="Helvetica,sans-Serif" font-size="10.00" fill="#000000">parallelization/neighbours.h</text>
</a>
</g>
</g>
<!-- Node0&#45;&gt;Node6 -->
<g id="edge20" class="edge">
<title>Node0&#45;&gt;Node6</title>
<path fill="none" stroke="#191970" d="M480.4198,-495.3853C530.3472,-479.9598 592.0933,-449.7201 592.0933,-394.5 592.0933,-394.5 592.0933,-394.5 592.0933,-284.5 592.0933,-247.9034 617.7678,-211.7222 635.2436,-191.3338"/>
<polygon fill="#191970" stroke="#191970" points="638.0897,-193.4009 642.1324,-183.6077 632.865,-188.7423 638.0897,-193.4009"/>
</g>
<!-- Node8 -->
<g id="node9" class="node">
<title>Node8</title>
<g id="a_node9"><a xlink:href="parallelparameters_8h.html" target="_top" xlink:title=" ">
<polygon fill="#ffffff" stroke="#000000" points="28.5518,-165.5 28.5518,-183.5 199.6348,-183.5 199.6348,-165.5 28.5518,-165.5"/>
<text text-anchor="middle" x="114.0933" y="-171.5" font-family="Helvetica,sans-Serif" font-size="10.00" fill="#000000">parallelization/parallelparameters.h</text>
</a>
</g>
</g>
<!-- Node0&#45;&gt;Node8 -->
<g id="edge22" class="edge">
<title>Node0&#45;&gt;Node8</title>
<path fill="none" stroke="#191970" d="M360.05,-495.4356C285.3557,-475.6104 165.0933,-437.0791 165.0933,-394.5 165.0933,-394.5 165.0933,-394.5 165.0933,-284.5 165.0933,-248.9272 142.8692,-212.3852 127.7624,-191.655"/>
<polygon fill="#191970" stroke="#191970" points="130.447,-189.4024 121.6185,-183.545 124.8673,-193.6295 130.447,-189.4024"/>
</g>
<!-- Node14 -->
<g id="node15" class="node">
<title>Node14</title>
<g id="a_node15"><a xlink:href="parameters_8h.html" target="_top" xlink:title=" ">
<polygon fill="#ffffff" stroke="#000000" points="365.9038,-440.5 365.9038,-458.5 470.2827,-458.5 470.2827,-440.5 365.9038,-440.5"/>
<text text-anchor="middle" x="418.0933" y="-446.5" font-family="Helvetica,sans-Serif" font-size="10.00" fill="#000000">config/parameters.h</text>
</a>
</g>
</g>
<!-- Node0&#45;&gt;Node14 -->
<g id="edge23" class="edge">
<title>Node0&#45;&gt;Node14</title>
<path fill="none" stroke="#191970" d="M418.0933,-495.2808C418.0933,-487.3776 418.0933,-477.4316 418.0933,-468.8308"/>
<polygon fill="#191970" stroke="#191970" points="421.5934,-468.5842 418.0933,-458.5842 414.5934,-468.5842 421.5934,-468.5842"/>
</g>
<!-- Node18 -->
<g id="node19" class="node">
<title>Node18</title>
<g id="a_node19"><a xlink:title=" ">
<polygon fill="#ffffff" stroke="#bfbfbf" points="620.4775,-440.5 620.4775,-458.5 663.709,-458.5 663.709,-440.5 620.4775,-440.5"/>
<text text-anchor="middle" x="642.0933" y="-446.5" font-family="Helvetica,sans-Serif" font-size="10.00" fill="#000000">cmath</text>
</a>
</g>
</g>
<!-- Node0&#45;&gt;Node18 -->
<g id="edge33" class="edge">
<title>Node0&#45;&gt;Node18</title>
<path fill="none" stroke="#191970" d="M470.6113,-495.4327C513.9227,-483.8314 573.9524,-467.752 610.2922,-458.0181"/>
<polygon fill="#191970" stroke="#191970" points="611.5685,-461.2997 620.3224,-455.3315 609.7573,-454.5381 611.5685,-461.2997"/>
</g>
<!-- Node2 -->
<g id="node3" class="node">
<title>Node2</title>
<g id="a_node3"><a xlink:title=" ">
<polygon fill="#ffffff" stroke="#bfbfbf" points="448.4775,-110.5 448.4775,-128.5 491.709,-128.5 491.709,-110.5 448.4775,-110.5"/>
<text text-anchor="middle" x="470.0933" y="-116.5" font-family="Helvetica,sans-Serif" font-size="10.00" fill="#000000">vector</text>
</a>
</g>
</g>
<!-- Node1&#45;&gt;Node2 -->
<g id="edge2" class="edge">
<title>Node1&#45;&gt;Node2</title>
<path fill="none" stroke="#191970" d="M344.3507,-275.2454C350.4071,-266.1605 359.7274,-251.8373 367.0933,-239 385.4933,-206.9321 380.7916,-192.8629 405.0933,-165 415.9491,-152.5533 430.8943,-141.7849 443.717,-133.8529"/>
<polygon fill="#191970" stroke="#191970" points="445.7712,-136.704 452.59,-128.5951 442.2027,-130.6819 445.7712,-136.704"/>
</g>
<!-- Node3 -->
<g id="node4" class="node">
<title>Node3</title>
<g id="a_node4"><a xlink:href="lattice_8h.html" target="_top" xlink:title=" ">
<polygon fill="#ffffff" stroke="#000000" points="282.3569,-220.5 282.3569,-238.5 357.8296,-238.5 357.8296,-220.5 282.3569,-220.5"/>
<text text-anchor="middle" x="320.0933" y="-226.5" font-family="Helvetica,sans-Serif" font-size="10.00" fill="#000000">math/lattice.h</text>
</a>
</g>
</g>
<!-- Node1&#45;&gt;Node3 -->
<g id="edge3" class="edge">
<title>Node1&#45;&gt;Node3</title>
<path fill="none" stroke="#191970" d="M335.1209,-275.4179C332.7382,-268.1372 329.3122,-257.669 326.333,-248.5659"/>
<polygon fill="#191970" stroke="#191970" points="329.567,-247.1948 323.1302,-238.7795 322.9142,-249.3721 329.567,-247.1948"/>
</g>
<!-- Node3&#45;&gt;Node2 -->
<g id="edge4" class="edge">
<title>Node3&#45;&gt;Node2</title>
<path fill="none" stroke="#191970" d="M325.4462,-220.4889C333.887,-206.9211 351.4684,-181.1223 372.0933,-165 392.1601,-149.3139 418.5095,-137.4675 438.8318,-129.8004"/>
<polygon fill="#191970" stroke="#191970" points="440.0648,-133.0763 448.2701,-126.3738 437.676,-126.4965 440.0648,-133.0763"/>
</g>
<!-- Node3&#45;&gt;Node4 -->
<g id="edge5" class="edge">
<title>Node3&#45;&gt;Node4</title>
<path fill="none" stroke="#191970" d="M305.2257,-220.3514C284.1276,-207.4867 244.1625,-183.5494 209.0933,-165 187.4812,-153.5686 162.5323,-141.6675 143.6264,-132.9051"/>
<polygon fill="#191970" stroke="#191970" points="144.8875,-129.6325 134.3404,-128.6281 141.9591,-135.9906 144.8875,-129.6325"/>
</g>
<!-- Node3&#45;&gt;Node5 -->
<g id="edge6" class="edge">
<title>Node3&#45;&gt;Node5</title>
<path fill="none" stroke="#191970" d="M344.8627,-220.4179C369.6896,-211.3147 408.1071,-197.2283 435.8452,-187.0576"/>
<polygon fill="#191970" stroke="#191970" points="437.3525,-190.2329 445.5363,-183.5042 434.9426,-183.6608 437.3525,-190.2329"/>
</g>
<!-- Node3&#45;&gt;Node6 -->
<g id="edge8" class="edge">
<title>Node3&#45;&gt;Node6</title>
<path fill="none" stroke="#191970" d="M358.0632,-223.1908C413.868,-213.9181 518.7576,-196.4893 586.7309,-185.1946"/>
<polygon fill="#191970" stroke="#191970" points="587.6046,-188.5975 596.8956,-183.5057 586.4571,-181.6922 587.6046,-188.5975"/>
</g>
<!-- Node3&#45;&gt;Node8 -->
<g id="edge11" class="edge">
<title>Node3&#45;&gt;Node8</title>
<path fill="none" stroke="#191970" d="M286.0766,-220.4179C250.9342,-211.0352 195.9637,-196.3586 157.6611,-186.1322"/>
<polygon fill="#191970" stroke="#191970" points="158.3826,-182.7023 147.8181,-183.5042 156.5768,-189.4654 158.3826,-182.7023"/>
</g>
<!-- Node9 -->
<g id="node10" class="node">
<title>Node9</title>
<g id="a_node10"><a xlink:href="functions_8h.html" target="_top" xlink:title=" ">
<polygon fill="#ffffff" stroke="#000000" points="255.9111,-165.5 255.9111,-183.5 320.2754,-183.5 320.2754,-165.5 255.9111,-165.5"/>
<text text-anchor="middle" x="288.0933" y="-171.5" font-family="Helvetica,sans-Serif" font-size="10.00" fill="#000000">functions.h</text>
</a>
</g>
</g>
<!-- Node3&#45;&gt;Node9 -->
<g id="edge13" class="edge">
<title>Node3&#45;&gt;Node9</title>
<path fill="none" stroke="#191970" d="M314.8091,-220.4179C310.435,-212.8998 304.0833,-201.9829 298.6706,-192.6799"/>
<polygon fill="#191970" stroke="#191970" points="301.5464,-190.6628 293.4922,-183.7795 295.496,-194.1831 301.5464,-190.6628"/>
</g>
<!-- Node5&#45;&gt;Node2 -->
<g id="edge7" class="edge">
<title>Node5&#45;&gt;Node2</title>
<path fill="none" stroke="#191970" d="M470.0933,-165.4179C470.0933,-158.2164 470.0933,-147.8962 470.0933,-138.8632"/>
<polygon fill="#191970" stroke="#191970" points="473.5934,-138.7794 470.0933,-128.7795 466.5934,-138.7795 473.5934,-138.7794"/>
</g>
<!-- Node6&#45;&gt;Node2 -->
<g id="edge10" class="edge">
<title>Node6&#45;&gt;Node2</title>
<path fill="none" stroke="#191970" d="M621.2048,-165.4179C588.1736,-155.3808 535.2055,-139.2855 501.5563,-129.0606"/>
<polygon fill="#191970" stroke="#191970" points="502.3628,-125.6477 491.7772,-126.089 500.3276,-132.3453 502.3628,-125.6477"/>
</g>
<!-- Node7 -->
<g id="node8" class="node">
<title>Node7</title>
<g id="a_node8"><a xlink:href="neighbourlist_8h.html" target="_top" xlink:title=" ">
<polygon fill="#ffffff" stroke="#000000" points="610.5713,-110.5 610.5713,-128.5 691.6152,-128.5 691.6152,-110.5 610.5713,-110.5"/>
<text text-anchor="middle" x="651.0933" y="-116.5" font-family="Helvetica,sans-Serif" font-size="10.00" fill="#000000">neighbourlist.h</text>
</a>
</g>
</g>
<!-- Node6&#45;&gt;Node7 -->
<g id="edge9" class="edge">
<title>Node6&#45;&gt;Node7</title>
<path fill="none" stroke="#191970" d="M651.0933,-165.4179C651.0933,-158.2164 651.0933,-147.8962 651.0933,-138.8632"/>
<polygon fill="#191970" stroke="#191970" points="654.5934,-138.7794 651.0933,-128.7795 647.5934,-138.7795 654.5934,-138.7794"/>
</g>
<!-- Node8&#45;&gt;Node4 -->
<g id="edge12" class="edge">
<title>Node8&#45;&gt;Node4</title>
<path fill="none" stroke="#191970" d="M114.0933,-165.4179C114.0933,-158.2164 114.0933,-147.8962 114.0933,-138.8632"/>
<polygon fill="#191970" stroke="#191970" points="117.5934,-138.7794 114.0933,-128.7795 110.5934,-138.7795 117.5934,-138.7794"/>
</g>
<!-- Node10 -->
<g id="node11" class="node">
<title>Node10</title>
<g id="a_node11"><a xlink:href="su3_8h.html" target="_top" xlink:title=" ">
<polygon fill="#ffffff" stroke="#000000" points="346.5811,-110.5 346.5811,-128.5 427.6055,-128.5 427.6055,-110.5 346.5811,-110.5"/>
<text text-anchor="middle" x="387.0933" y="-116.5" font-family="Helvetica,sans-Serif" font-size="10.00" fill="#000000">matrices/su3.h</text>
</a>
</g>
</g>
<!-- Node9&#45;&gt;Node10 -->
<g id="edge14" class="edge">
<title>Node9&#45;&gt;Node10</title>
<path fill="none" stroke="#191970" d="M304.4411,-165.4179C320.0614,-156.7399 343.8331,-143.5334 361.8794,-133.5077"/>
<polygon fill="#191970" stroke="#191970" points="363.6793,-136.5117 370.7211,-128.5956 360.2798,-130.3925 363.6793,-136.5117"/>
</g>
<!-- Node11 -->
<g id="node12" class="node">
<title>Node11</title>
<g id="a_node12"><a xlink:href="complex_8h.html" target="_top" xlink:title=" ">
<polygon fill="#ffffff" stroke="#000000" points="244.8003,-55.5 244.8003,-73.5 331.3862,-73.5 331.3862,-55.5 244.8003,-55.5"/>
<text text-anchor="middle" x="288.0933" y="-61.5" font-family="Helvetica,sans-Serif" font-size="10.00" fill="#000000">math/complex.h</text>
</a>
</g>
</g>
<!-- Node9&#45;&gt;Node11 -->
<g id="edge19" class="edge">
<title>Node9&#45;&gt;Node11</title>
<path fill="none" stroke="#191970" d="M272.1695,-165.1981C260.3102,-157.2677 245.0217,-144.6725 238.0933,-129 229.7025,-110.0196 247.2806,-91.6442 263.8584,-79.3948"/>
<polygon fill="#191970" stroke="#191970" points="266.049,-82.1358 272.2935,-73.5768 262.0745,-76.3735 266.049,-82.1358"/>
</g>
<!-- Node13 -->
<g id="node14" class="node">
<title>Node13</title>
<g id="a_node14"><a xlink:href="su2_8h.html" target="_top" xlink:title=" ">
<polygon fill="#ffffff" stroke="#000000" points="247.5811,-110.5 247.5811,-128.5 328.6055,-128.5 328.6055,-110.5 247.5811,-110.5"/>
<text text-anchor="middle" x="288.0933" y="-116.5" font-family="Helvetica,sans-Serif" font-size="10.00" fill="#000000">matrices/su2.h</text>
</a>
</g>
</g>
<!-- Node9&#45;&gt;Node13 -->
<g id="edge17" class="edge">
<title>Node9&#45;&gt;Node13</title>
<path fill="none" stroke="#191970" d="M288.0933,-165.4179C288.0933,-158.2164 288.0933,-147.8962 288.0933,-138.8632"/>
<polygon fill="#191970" stroke="#191970" points="291.5934,-138.7794 288.0933,-128.7795 284.5934,-138.7795 291.5934,-138.7794"/>
</g>
<!-- Node10&#45;&gt;Node11 -->
<g id="edge15" class="edge">
<title>Node10&#45;&gt;Node11</title>
<path fill="none" stroke="#191970" d="M370.7454,-110.4179C355.1251,-101.7399 331.3535,-88.5334 313.3071,-78.5077"/>
<polygon fill="#191970" stroke="#191970" points="314.9067,-75.3925 304.4654,-73.5956 311.5072,-81.5117 314.9067,-75.3925"/>
</g>
<!-- Node12 -->
<g id="node13" class="node">
<title>Node12</title>
<g id="a_node13"><a xlink:title=" ">
<polygon fill="#ffffff" stroke="#bfbfbf" points="260.9209,-.5 260.9209,-18.5 315.2656,-18.5 315.2656,-.5 260.9209,-.5"/>
<text text-anchor="middle" x="288.0933" y="-6.5" font-family="Helvetica,sans-Serif" font-size="10.00" fill="#000000">iostream</text>
</a>
</g>
</g>
<!-- Node11&#45;&gt;Node12 -->
<g id="edge16" class="edge">
<title>Node11&#45;&gt;Node12</title>
<path fill="none" stroke="#191970" d="M288.0933,-55.4179C288.0933,-48.2164 288.0933,-37.8962 288.0933,-28.8632"/>
<polygon fill="#191970" stroke="#191970" points="291.5934,-28.7794 288.0933,-18.7795 284.5934,-28.7795 291.5934,-28.7794"/>
</g>
<!-- Node13&#45;&gt;Node11 -->
<g id="edge18" class="edge">
<title>Node13&#45;&gt;Node11</title>
<path fill="none" stroke="#191970" d="M288.0933,-110.4179C288.0933,-103.2164 288.0933,-92.8962 288.0933,-83.8632"/>
<polygon fill="#191970" stroke="#191970" points="291.5934,-83.7794 288.0933,-73.7795 284.5934,-83.7795 291.5934,-83.7794"/>
</g>
<!-- Node14&#45;&gt;Node2 -->
<g id="edge25" class="edge">
<title>Node14&#45;&gt;Node2</title>
<path fill="none" stroke="#191970" d="M423.844,-440.3389C444.164,-407.3565 512.5709,-290.9594 535.0933,-184 536.8333,-175.7368 538.993,-172.49 535.0933,-165 527.8245,-151.0391 514.0947,-140.4762 501.1198,-133.0593"/>
<polygon fill="#191970" stroke="#191970" points="502.3879,-129.7716 491.9086,-128.2111 499.1275,-135.966 502.3879,-129.7716"/>
</g>
<!-- Node15 -->
<g id="node16" class="node">
<title>Node15</title>
<g id="a_node16"><a xlink:title=" ">
<polygon fill="#ffffff" stroke="#bfbfbf" points="481.8667,-385.5 481.8667,-403.5 522.3198,-403.5 522.3198,-385.5 481.8667,-385.5"/>
<text text-anchor="middle" x="502.0933" y="-391.5" font-family="Helvetica,sans-Serif" font-size="10.00" fill="#000000">string</text>
</a>
</g>
</g>
<!-- Node14&#45;&gt;Node15 -->
<g id="edge24" class="edge">
<title>Node14&#45;&gt;Node15</title>
<path fill="none" stroke="#191970" d="M431.9642,-440.4179C444.853,-431.9788 464.2826,-419.257 479.4246,-409.3426"/>
<polygon fill="#191970" stroke="#191970" points="481.7528,-412.0017 488.2018,-403.5956 477.9183,-406.1454 481.7528,-412.0017"/>
</g>
<!-- Node16 -->
<g id="node17" class="node">
<title>Node16</title>
<g id="a_node17"><a xlink:href="sysprint_8h.html" target="_top" xlink:title=" ">
<polygon fill="#ffffff" stroke="#000000" points="337.9653,-385.5 337.9653,-403.5 426.2212,-403.5 426.2212,-385.5 337.9653,-385.5"/>
<text text-anchor="middle" x="382.0933" y="-391.5" font-family="Helvetica,sans-Serif" font-size="10.00" fill="#000000">config/sysprint.h</text>
</a>
</g>
</g>
<!-- Node14&#45;&gt;Node16 -->
<g id="edge26" class="edge">
<title>Node14&#45;&gt;Node16</title>
<path fill="none" stroke="#191970" d="M406.9823,-440.4179C400.5043,-432.8998 392.9498,-421.9829 387.5999,-412.6799"/>
<polygon fill="#191970" stroke="#191970" points="390.6864,-411.0291 382.9603,-403.7795 384.4792,-414.2649 390.6864,-411.0291"/>
</g>
<!-- Node16&#45;&gt;Node14 -->
<g id="edge27" class="edge">
<title>Node16&#45;&gt;Node14</title>
<path fill="none" stroke="#191970" d="M393.3739,-403.7795C399.802,-411.2766 407.2561,-422.0587 412.5576,-431.2696"/>
<polygon fill="#191970" stroke="#191970" points="409.5959,-433.1606 417.3149,-440.4179 415.8064,-429.931 409.5959,-433.1606"/>
</g>
<!-- Node17 -->
<g id="node18" class="node">
<title>Node17</title>
<g id="a_node18"><a xlink:href="parallel_8h.html" target="_top" xlink:title=" ">
<polygon fill="#ffffff" stroke="#000000" points="325.8398,-330.5 325.8398,-348.5 446.3467,-348.5 446.3467,-330.5 325.8398,-330.5"/>
<text text-anchor="middle" x="386.0933" y="-336.5" font-family="Helvetica,sans-Serif" font-size="10.00" fill="#000000">parallelization/parallel.h</text>
</a>
</g>
</g>
<!-- Node16&#45;&gt;Node17 -->
<g id="edge28" class="edge">
<title>Node16&#45;&gt;Node17</title>
<path fill="none" stroke="#191970" d="M382.7538,-385.4179C383.2775,-378.2164 384.0281,-367.8962 384.685,-358.8632"/>
<polygon fill="#191970" stroke="#191970" points="388.1837,-359.007 385.4184,-348.7795 381.2022,-358.4992 388.1837,-359.007"/>
</g>
<!-- Node17&#45;&gt;Node1 -->
<g id="edge29" class="edge">
<title>Node17&#45;&gt;Node1</title>
<path fill="none" stroke="#191970" d="M378.167,-330.4179C371.3296,-322.5833 361.2707,-311.0575 352.9416,-301.5137"/>
<polygon fill="#191970" stroke="#191970" points="355.4041,-299.0123 346.1917,-293.7795 350.1301,-303.6151 355.4041,-299.0123"/>
</g>
<!-- Node17&#45;&gt;Node5 -->
<g id="edge30" class="edge">
<title>Node17&#45;&gt;Node5</title>
<path fill="none" stroke="#191970" d="M390.8501,-330.1561C404.3067,-303.7235 442.8262,-228.0604 460.7324,-192.8875"/>
<polygon fill="#191970" stroke="#191970" points="463.9707,-194.2409 465.3886,-183.7414 457.7326,-191.0651 463.9707,-194.2409"/>
</g>
<!-- Node17&#45;&gt;Node8 -->
<g id="edge31" class="edge">
<title>Node17&#45;&gt;Node8</title>
<path fill="none" stroke="#191970" d="M362.8748,-330.3366C342.2253,-321.8615 311.4605,-308.427 286.0933,-294 282.1671,-291.7671 180.6649,-220.9732 135.4628,-189.4211"/>
<polygon fill="#191970" stroke="#191970" points="137.4218,-186.5202 127.2187,-183.6659 133.4149,-192.26 137.4218,-186.5202"/>
</g>
</g>
</svg>
