<?xml version="1.0" encoding="UTF-8" standalone="no"?>
<!DOCTYPE svg PUBLIC "-//W3C//DTD SVG 1.1//EN"
 "http://www.w3.org/Graphics/SVG/1.1/DTD/svg11.dtd">
<!-- Generated by graphviz version 2.40.1 (20161225.0304)
 -->
<!-- Title: GluonicLQCD/parallelization/communicator.h Pages: 1 -->
<svg width="3384pt" height="297pt"
 viewBox="0.00 0.00 3384.28 297.00" xmlns="http://www.w3.org/2000/svg" xmlns:xlink="http://www.w3.org/1999/xlink">
<g id="graph0" class="graph" transform="scale(1 1) rotate(0) translate(4 293)">
<title>GluonicLQCD/parallelization/communicator.h</title>
<polygon fill="#ffffff" stroke="transparent" points="-4,4 -4,-293 3380.2827,-293 3380.2827,4 -4,4"/>
<!-- Node13 -->
<g id="node1" class="node">
<title>Node13</title>
<g id="a_node1"><a xlink:title=" ">
<polygon fill="#bfbfbf" stroke="#000000" points="745.2217,-260.5 745.2217,-288.5 886.8369,-288.5 886.8369,-260.5 745.2217,-260.5"/>
<text text-anchor="start" x="753.2217" y="-276.5" font-family="Helvetica,sans-Serif" font-size="10.00" fill="#000000">GluonicLQCD/parallelization</text>
<text text-anchor="middle" x="816.0293" y="-266.5" font-family="Helvetica,sans-Serif" font-size="10.00" fill="#000000">/communicator.h</text>
</a>
</g>
</g>
<!-- Node14 -->
<g id="node2" class="node">
<title>Node14</title>
<g id="a_node2"><a xlink:href="fieldio_8cpp.html" target="_top" xlink:title=" ">
<polygon fill="#ffffff" stroke="#000000" points="0,-5.5 0,-23.5 136.0586,-23.5 136.0586,-5.5 0,-5.5"/>
<text text-anchor="middle" x="68.0293" y="-11.5" font-family="Helvetica,sans-Serif" font-size="10.00" fill="#000000">GluonicLQCD/io/fieldio.cpp</text>
</a>
</g>
</g>
<!-- Node13&#45;&gt;Node14 -->
<g id="edge1" class="edge">
<title>Node13&#45;&gt;Node14</title>
<path fill="none" stroke="#191970" d="M734.9762,-263.7119C682.1635,-255.535 612.1516,-242.5159 552.0293,-224 362.1414,-165.5201 146.4086,-55.6517 85.0846,-23.5334"/>
<polygon fill="#191970" stroke="#191970" points="734.553,-267.1877 744.9659,-265.2327 735.6066,-260.2674 734.553,-267.1877"/>
</g>
<!-- Node15 -->
<g id="node3" class="node">
<title>Node15</title>
<g id="a_node3"><a xlink:href="observablesio_8cpp.html" target="_top" xlink:title=" ">
<polygon fill="#ffffff" stroke="#000000" points="154.2119,-5.5 154.2119,-23.5 325.8467,-23.5 325.8467,-5.5 154.2119,-5.5"/>
<text text-anchor="middle" x="240.0293" y="-11.5" font-family="Helvetica,sans-Serif" font-size="10.00" fill="#000000">GluonicLQCD/io/observablesio.cpp</text>
</a>
</g>
</g>
<!-- Node13&#45;&gt;Node15 -->
<g id="edge2" class="edge">
<title>Node13&#45;&gt;Node15</title>
<path fill="none" stroke="#191970" d="M739.9293,-258.1192C703.9861,-249.4905 660.7859,-237.82 623.0293,-224 468.5847,-167.4687 300.7784,-56.2455 253.2343,-23.6691"/>
<polygon fill="#191970" stroke="#191970" points="739.3268,-261.5732 749.8641,-260.4715 740.9396,-254.7615 739.3268,-261.5732"/>
</g>
<!-- Node16 -->
<g id="node4" class="node">
<title>Node16</title>
<g id="a_node4"><a xlink:href="test_8h.html" target="_top" xlink:title=" ">
<polygon fill="#ffffff" stroke="#000000" points="495.6182,-135.5 495.6182,-153.5 624.4404,-153.5 624.4404,-135.5 495.6182,-135.5"/>
<text text-anchor="middle" x="560.0293" y="-141.5" font-family="Helvetica,sans-Serif" font-size="10.00" fill="#000000">GluonicLQCD/tests/test.h</text>
</a>
</g>
</g>
<!-- Node13&#45;&gt;Node16 -->
<g id="edge3" class="edge">
<title>Node13&#45;&gt;Node16</title>
<path fill="none" stroke="#191970" d="M754.3381,-257.3211C727.9577,-248.8902 697.2593,-237.6001 671.0293,-224 631.2576,-203.3786 589.7097,-169.8738 570.6862,-153.7486"/>
<polygon fill="#191970" stroke="#191970" points="753.63,-260.7667 764.2188,-260.4112 755.7194,-254.0858 753.63,-260.7667"/>
</g>
<!-- Node18 -->
<g id="node6" class="node">
<title>Node18</title>
<g id="a_node6"><a xlink:href="latticeactionchargedensity_8cpp.html" target="_top" xlink:title=" ">
<polygon fill="#ffffff" stroke="#000000" points="483.0239,-.5 483.0239,-28.5 635.0347,-28.5 635.0347,-.5 483.0239,-.5"/>
<text text-anchor="start" x="491.0239" y="-16.5" font-family="Helvetica,sans-Serif" font-size="10.00" fill="#000000">GluonicLQCD/observables</text>
<text text-anchor="middle" x="559.0293" y="-6.5" font-family="Helvetica,sans-Serif" font-size="10.00" fill="#000000">/latticeactionchargedensity.cpp</text>
</a>
</g>
</g>
<!-- Node13&#45;&gt;Node18 -->
<g id="edge5" class="edge">
<title>Node13&#45;&gt;Node18</title>
<path fill="none" stroke="#191970" d="M794.6138,-252.8345C743.5754,-201.2003 615.8496,-71.9835 573.169,-28.8047"/>
<polygon fill="#191970" stroke="#191970" points="792.3266,-255.4994 801.8458,-260.1509 797.305,-250.5784 792.3266,-255.4994"/>
</g>
<!-- Node19 -->
<g id="node7" class="node">
<title>Node19</title>
<g id="a_node7"><a xlink:href="mastersampler_8cpp.html" target="_top" xlink:title=" ">
<polygon fill="#ffffff" stroke="#000000" points="652.835,-.5 652.835,-28.5 787.2236,-28.5 787.2236,-.5 652.835,-.5"/>
<text text-anchor="start" x="660.835" y="-16.5" font-family="Helvetica,sans-Serif" font-size="10.00" fill="#000000">GluonicLQCD/observables</text>
<text text-anchor="middle" x="720.0293" y="-6.5" font-family="Helvetica,sans-Serif" font-size="10.00" fill="#000000">/mastersampler.cpp</text>
</a>
</g>
</g>
<!-- Node13&#45;&gt;Node19 -->
<g id="edge6" class="edge">
<title>Node13&#45;&gt;Node19</title>
<path fill="none" stroke="#191970" d="M807.1901,-250.5604C787.5998,-197.5034 741.0248,-71.3629 725.311,-28.8047"/>
<polygon fill="#191970" stroke="#191970" points="803.984,-251.9823 810.7312,-260.1509 810.5507,-249.5576 803.984,-251.9823"/>
</g>
<!-- Node20 -->
<g id="node8" class="node">
<title>Node20</title>
<g id="a_node8"><a xlink:href="mastersamplertopcxyz_8cpp.html" target="_top" xlink:title=" ">
<polygon fill="#ffffff" stroke="#000000" points="805.1748,-.5 805.1748,-28.5 942.8838,-28.5 942.8838,-.5 805.1748,-.5"/>
<text text-anchor="start" x="813.1748" y="-16.5" font-family="Helvetica,sans-Serif" font-size="10.00" fill="#000000">GluonicLQCD/observables</text>
<text text-anchor="middle" x="874.0293" y="-6.5" font-family="Helvetica,sans-Serif" font-size="10.00" fill="#000000">/mastersamplertopcxyz.cpp</text>
</a>
</g>
</g>
<!-- Node13&#45;&gt;Node20 -->
<g id="edge7" class="edge">
<title>Node13&#45;&gt;Node20</title>
<path fill="none" stroke="#191970" d="M821.4439,-250.2278C833.3226,-196.9782 861.3643,-71.2742 870.8382,-28.8047"/>
<polygon fill="#191970" stroke="#191970" points="817.9915,-249.6288 819.2302,-260.1509 824.8236,-251.1529 817.9915,-249.6288"/>
</g>
<!-- Node21 -->
<g id="node9" class="node">
<title>Node21</title>
<g id="a_node9"><a xlink:href="supersampler_8cpp.html" target="_top" xlink:title=" ">
<polygon fill="#ffffff" stroke="#000000" points="960.835,-.5 960.835,-28.5 1095.2236,-28.5 1095.2236,-.5 960.835,-.5"/>
<text text-anchor="start" x="968.835" y="-16.5" font-family="Helvetica,sans-Serif" font-size="10.00" fill="#000000">GluonicLQCD/observables</text>
<text text-anchor="middle" x="1028.0293" y="-6.5" font-family="Helvetica,sans-Serif" font-size="10.00" fill="#000000">/supersampler.cpp</text>
</a>
</g>
</g>
<!-- Node13&#45;&gt;Node21 -->
<g id="edge8" class="edge">
<title>Node13&#45;&gt;Node21</title>
<path fill="none" stroke="#191970" d="M834.2169,-252.1945C876.6609,-200.1404 981.3027,-71.8062 1016.3654,-28.8047"/>
<polygon fill="#191970" stroke="#191970" points="831.3362,-250.1889 827.7293,-260.1509 836.7613,-254.6125 831.3362,-250.1889"/>
</g>
<!-- Node22 -->
<g id="node10" class="node">
<title>Node22</title>
<g id="a_node10"><a xlink:href="communicator_8cpp.html" target="_top" xlink:title=" ">
<polygon fill="#ffffff" stroke="#000000" points="1113.2217,-.5 1113.2217,-28.5 1254.8369,-28.5 1254.8369,-.5 1113.2217,-.5"/>
<text text-anchor="start" x="1121.2217" y="-16.5" font-family="Helvetica,sans-Serif" font-size="10.00" fill="#000000">GluonicLQCD/parallelization</text>
<text text-anchor="middle" x="1184.0293" y="-6.5" font-family="Helvetica,sans-Serif" font-size="10.00" fill="#000000">/communicator.cpp</text>
</a>
</g>
</g>
<!-- Node13&#45;&gt;Node22 -->
<g id="edge9" class="edge">
<title>Node13&#45;&gt;Node22</title>
<path fill="none" stroke="#191970" d="M844.6415,-254.2848C916.449,-203.5513 1102.9076,-71.8143 1164.189,-28.5176"/>
<polygon fill="#191970" stroke="#191970" points="842.2235,-251.7077 836.0759,-260.3366 846.2628,-257.4248 842.2235,-251.7077"/>
</g>
<!-- Node23 -->
<g id="node11" class="node">
<title>Node23</title>
<g id="a_node11"><a xlink:href="parallel_8h.html" target="_top" xlink:title=" ">
<polygon fill="#ffffff" stroke="#000000" points="2542.2217,-195.5 2542.2217,-223.5 2683.8369,-223.5 2683.8369,-195.5 2542.2217,-195.5"/>
<text text-anchor="start" x="2550.2217" y="-211.5" font-family="Helvetica,sans-Serif" font-size="10.00" fill="#000000">GluonicLQCD/parallelization</text>
<text text-anchor="middle" x="2613.0293" y="-201.5" font-family="Helvetica,sans-Serif" font-size="10.00" fill="#000000">/parallel.h</text>
</a>
</g>
</g>
<!-- Node13&#45;&gt;Node23 -->
<g id="edge10" class="edge">
<title>Node13&#45;&gt;Node23</title>
<path fill="none" stroke="#191970" d="M897.0276,-271.5702C1199.1698,-260.6413 2257.6682,-222.3539 2542.1736,-212.0629"/>
<polygon fill="#191970" stroke="#191970" points="896.8942,-268.0726 887.0273,-271.9319 897.1473,-275.068 896.8942,-268.0726"/>
</g>
<!-- Node39 -->
<g id="node27" class="node">
<title>Node39</title>
<g id="a_node27"><a xlink:href="testsuite_8cpp.html" target="_top" xlink:title=" ">
<polygon fill="#ffffff" stroke="#000000" points="3215.7759,-5.5 3215.7759,-23.5 3376.2827,-23.5 3376.2827,-5.5 3215.7759,-5.5"/>
<text text-anchor="middle" x="3296.0293" y="-11.5" font-family="Helvetica,sans-Serif" font-size="10.00" fill="#000000">GluonicLQCD/tests/testsuite.cpp</text>
</a>
</g>
</g>
<!-- Node13&#45;&gt;Node39 -->
<g id="edge43" class="edge">
<title>Node13&#45;&gt;Node39</title>
<path fill="none" stroke="#191970" d="M897.0862,-273.7849C1234.0799,-270.6123 2515.0409,-256.5063 2693.0293,-224 2932.0612,-180.3453 3203.9572,-57.7984 3277.0952,-23.5136"/>
<polygon fill="#191970" stroke="#191970" points="896.8853,-270.2865 886.9185,-273.88 896.9508,-277.2862 896.8853,-270.2865"/>
</g>
<!-- Node17 -->
<g id="node5" class="node">
<title>Node17</title>
<g id="a_node5"><a xlink:href="main_8cpp.html" target="_top" xlink:title=" ">
<polygon fill="#ffffff" stroke="#000000" points="343.5073,-5.5 343.5073,-23.5 464.5513,-23.5 464.5513,-5.5 343.5073,-5.5"/>
<text text-anchor="middle" x="404.0293" y="-11.5" font-family="Helvetica,sans-Serif" font-size="10.00" fill="#000000">GluonicLQCD/main.cpp</text>
</a>
</g>
</g>
<!-- Node16&#45;&gt;Node17 -->
<g id="edge4" class="edge">
<title>Node16&#45;&gt;Node17</title>
<path fill="none" stroke="#191970" d="M540.8218,-128.4938C507.8438,-101.0121 441.466,-45.6973 415.1468,-23.7646"/>
<polygon fill="#191970" stroke="#191970" points="538.8873,-131.4376 548.8102,-135.1507 543.3686,-126.0601 538.8873,-131.4376"/>
</g>
<!-- Node24 -->
<g id="node12" class="node">
<title>Node24</title>
<g id="a_node12"><a xlink:href="configloader_8cpp.html" target="_top" xlink:title=" ">
<polygon fill="#ffffff" stroke="#000000" points="2786.4531,-.5 2786.4531,-28.5 2893.6055,-28.5 2893.6055,-.5 2786.4531,-.5"/>
<text text-anchor="start" x="2794.4531" y="-16.5" font-family="Helvetica,sans-Serif" font-size="10.00" fill="#000000">GluonicLQCD/config</text>
<text text-anchor="middle" x="2840.0293" y="-6.5" font-family="Helvetica,sans-Serif" font-size="10.00" fill="#000000">/configloader.cpp</text>
</a>
</g>
</g>
<!-- Node23&#45;&gt;Node24 -->
<g id="edge11" class="edge">
<title>Node23&#45;&gt;Node24</title>
<path fill="none" stroke="#191970" d="M2637.0902,-188.8309C2683.4291,-149.0244 2783.9701,-62.6566 2823.5469,-28.6589"/>
<polygon fill="#191970" stroke="#191970" points="2634.6594,-186.305 2629.3546,-195.4761 2639.2208,-191.6148 2634.6594,-186.305"/>
</g>
<!-- Node25 -->
<g id="node13" class="node">
<title>Node25</title>
<g id="a_node13"><a xlink:href="sysprint_8h.html" target="_top" xlink:title=" ">
<polygon fill="#ffffff" stroke="#000000" points="1693.4531,-130.5 1693.4531,-158.5 1800.6055,-158.5 1800.6055,-130.5 1693.4531,-130.5"/>
<text text-anchor="start" x="1701.4531" y="-146.5" font-family="Helvetica,sans-Serif" font-size="10.00" fill="#000000">GluonicLQCD/config</text>
<text text-anchor="middle" x="1747.0293" y="-136.5" font-family="Helvetica,sans-Serif" font-size="10.00" fill="#000000">/sysprint.h</text>
</a>
</g>
</g>
<!-- Node23&#45;&gt;Node25 -->
<g id="edge12" class="edge">
<title>Node23&#45;&gt;Node25</title>
<path fill="none" stroke="#191970" d="M2531.9863,-203.4171C2356.9996,-190.283 1947.7674,-159.5669 1800.7862,-148.5349"/>
<polygon fill="#191970" stroke="#191970" points="2531.9269,-206.9224 2542.1609,-204.1808 2532.4509,-199.942 2531.9269,-206.9224"/>
</g>
<!-- Node33 -->
<g id="node21" class="node">
<title>Node33</title>
<g id="a_node21"><a xlink:href="correlator_8cpp.html" target="_top" xlink:title=" ">
<polygon fill="#ffffff" stroke="#000000" points="2911.835,-.5 2911.835,-28.5 3046.2236,-28.5 3046.2236,-.5 2911.835,-.5"/>
<text text-anchor="start" x="2919.835" y="-16.5" font-family="Helvetica,sans-Serif" font-size="10.00" fill="#000000">GluonicLQCD/observables</text>
<text text-anchor="middle" x="2979.0293" y="-6.5" font-family="Helvetica,sans-Serif" font-size="10.00" fill="#000000">/correlator.cpp</text>
</a>
</g>
</g>
<!-- Node23&#45;&gt;Node33 -->
<g id="edge38" class="edge">
<title>Node23&#45;&gt;Node33</title>
<path fill="none" stroke="#191970" d="M2648.1838,-190.7701C2721.1405,-151.8998 2887.5861,-63.2197 2952.4542,-28.6589"/>
<polygon fill="#191970" stroke="#191970" points="2646.5309,-187.685 2639.3511,-195.4761 2649.8224,-193.8628 2646.5309,-187.685"/>
</g>
<!-- Node34 -->
<g id="node22" class="node">
<title>Node34</title>
<g id="a_node22"><a xlink:href="plaquette_8cpp.html" target="_top" xlink:title=" ">
<polygon fill="#ffffff" stroke="#000000" points="3063.835,-.5 3063.835,-28.5 3198.2236,-28.5 3198.2236,-.5 3063.835,-.5"/>
<text text-anchor="start" x="3071.835" y="-16.5" font-family="Helvetica,sans-Serif" font-size="10.00" fill="#000000">GluonicLQCD/observables</text>
<text text-anchor="middle" x="3131.0293" y="-6.5" font-family="Helvetica,sans-Serif" font-size="10.00" fill="#000000">/plaquette.cpp</text>
</a>
</g>
</g>
<!-- Node23&#45;&gt;Node34 -->
<g id="edge39" class="edge">
<title>Node23&#45;&gt;Node34</title>
<path fill="none" stroke="#191970" d="M2660.8014,-191.842C2686.8882,-182.1791 2719.7516,-169.9731 2749.0293,-159 2875.8448,-111.4703 3026.0704,-54.4271 3094.1812,-28.5239"/>
<polygon fill="#191970" stroke="#191970" points="2659.3194,-188.6584 2651.1568,-195.4129 2661.7499,-195.2229 2659.3194,-188.6584"/>
</g>
<!-- Node35 -->
<g id="node23" class="node">
<title>Node35</title>
<g id="a_node23"><a xlink:href="observablestorer_8cpp.html" target="_top" xlink:title=" ">
<polygon fill="#ffffff" stroke="#000000" points="1273.271,-.5 1273.271,-28.5 1408.7876,-28.5 1408.7876,-.5 1273.271,-.5"/>
<text text-anchor="start" x="1281.271" y="-16.5" font-family="Helvetica,sans-Serif" font-size="10.00" fill="#000000">GluonicLQCD/observables</text>
<text text-anchor="middle" x="1341.0293" y="-6.5" font-family="Helvetica,sans-Serif" font-size="10.00" fill="#000000">/tools/observablestorer.cpp</text>
</a>
</g>
</g>
<!-- Node23&#45;&gt;Node35 -->
<g id="edge40" class="edge">
<title>Node23&#45;&gt;Node35</title>
<path fill="none" stroke="#191970" d="M2532.0023,-208.6558C2336.6754,-206.0481 1844.1681,-195.9067 1684.0293,-159 1558.7257,-130.1216 1420.9677,-58.8241 1365.8344,-28.506"/>
<polygon fill="#191970" stroke="#191970" points="2532.1532,-212.158 2542.198,-208.7886 2532.2445,-205.1586 2532.1532,-212.158"/>
</g>
<!-- Node36 -->
<g id="node24" class="node">
<title>Node36</title>
<g id="a_node24"><a xlink:href="topologicalcharge_8cpp.html" target="_top" xlink:title=" ">
<polygon fill="#ffffff" stroke="#000000" points="2484.835,-.5 2484.835,-28.5 2619.2236,-28.5 2619.2236,-.5 2484.835,-.5"/>
<text text-anchor="start" x="2492.835" y="-16.5" font-family="Helvetica,sans-Serif" font-size="10.00" fill="#000000">GluonicLQCD/observables</text>
<text text-anchor="middle" x="2552.0293" y="-6.5" font-family="Helvetica,sans-Serif" font-size="10.00" fill="#000000">/topologicalcharge.cpp</text>
</a>
</g>
</g>
<!-- Node23&#45;&gt;Node36 -->
<g id="edge41" class="edge">
<title>Node23&#45;&gt;Node36</title>
<path fill="none" stroke="#191970" d="M2605.609,-185.7793C2592.7789,-144.7651 2566.8294,-61.812 2556.4585,-28.6589"/>
<polygon fill="#191970" stroke="#191970" points="2602.3163,-186.9771 2608.6423,-195.4761 2608.9971,-184.8872 2602.3163,-186.9771"/>
</g>
<!-- Node37 -->
<g id="node25" class="node">
<title>Node37</title>
<g id="a_node25"><a xlink:href="system_8cpp.html" target="_top" xlink:title=" ">
<polygon fill="#ffffff" stroke="#000000" points="2637.5098,-5.5 2637.5098,-23.5 2768.5488,-23.5 2768.5488,-5.5 2637.5098,-5.5"/>
<text text-anchor="middle" x="2703.0293" y="-11.5" font-family="Helvetica,sans-Serif" font-size="10.00" fill="#000000">GluonicLQCD/system.cpp</text>
</a>
</g>
</g>
<!-- Node23&#45;&gt;Node37 -->
<g id="edge42" class="edge">
<title>Node23&#45;&gt;Node37</title>
<path fill="none" stroke="#191970" d="M2623.7242,-186.3278C2643.6052,-143.2521 2685.4492,-52.5901 2698.8241,-23.6112"/>
<polygon fill="#191970" stroke="#191970" points="2620.5147,-184.9298 2619.5019,-195.4761 2626.8704,-187.8632 2620.5147,-184.9298"/>
</g>
<!-- Node26 -->
<g id="node14" class="node">
<title>Node26</title>
<g id="a_node14"><a xlink:href="parameters_8h.html" target="_top" xlink:title=" ">
<polygon fill="#ffffff" stroke="#000000" points="1693.4531,-65.5 1693.4531,-93.5 1800.6055,-93.5 1800.6055,-65.5 1693.4531,-65.5"/>
<text text-anchor="start" x="1701.4531" y="-81.5" font-family="Helvetica,sans-Serif" font-size="10.00" fill="#000000">GluonicLQCD/config</text>
<text text-anchor="middle" x="1747.0293" y="-71.5" font-family="Helvetica,sans-Serif" font-size="10.00" fill="#000000">/parameters.h</text>
</a>
</g>
</g>
<!-- Node25&#45;&gt;Node26 -->
<g id="edge13" class="edge">
<title>Node25&#45;&gt;Node26</title>
<path fill="none" stroke="#191970" d="M1740.484,-120.4029C1740.0348,-111.3703 1740.325,-101.4078 1741.3545,-93.5765"/>
<polygon fill="#191970" stroke="#191970" points="1736.9996,-120.7359 1741.3509,-130.396 1743.9734,-120.1309 1736.9996,-120.7359"/>
</g>
<!-- Node40 -->
<g id="node28" class="node">
<title>Node40</title>
<g id="a_node28"><a xlink:href="sysprint_8cpp.html" target="_top" xlink:title=" ">
<polygon fill="#ffffff" stroke="#000000" points="1568.4531,-65.5 1568.4531,-93.5 1675.6055,-93.5 1675.6055,-65.5 1568.4531,-65.5"/>
<text text-anchor="start" x="1576.4531" y="-81.5" font-family="Helvetica,sans-Serif" font-size="10.00" fill="#000000">GluonicLQCD/config</text>
<text text-anchor="middle" x="1622.0293" y="-71.5" font-family="Helvetica,sans-Serif" font-size="10.00" fill="#000000">/sysprint.cpp</text>
</a>
</g>
</g>
<!-- Node25&#45;&gt;Node40 -->
<g id="edge37" class="edge">
<title>Node25&#45;&gt;Node40</title>
<path fill="none" stroke="#191970" d="M1710.9029,-125.7143C1691.1891,-115.4631 1667.1881,-102.9826 1649.0995,-93.5765"/>
<polygon fill="#191970" stroke="#191970" points="1709.4192,-128.8877 1719.9062,-130.396 1712.6487,-122.6771 1709.4192,-128.8877"/>
</g>
<!-- Node26&#45;&gt;Node14 -->
<g id="edge21" class="edge">
<title>Node26&#45;&gt;Node14</title>
<path fill="none" stroke="#191970" d="M1683.3494,-64.9708C1004.1039,20.227 822.5833,-100.236 145.0293,-29 133.3948,-27.7768 120.8875,-25.739 109.4068,-23.5721"/>
<polygon fill="#191970" stroke="#191970" points="1683.0241,-68.4575 1693.3842,-66.2399 1683.9024,-61.5128 1683.0241,-68.4575"/>
</g>
<!-- Node26&#45;&gt;Node15 -->
<g id="edge22" class="edge">
<title>Node26&#45;&gt;Node15</title>
<path fill="none" stroke="#191970" d="M1683.2487,-64.9525C1087.5228,10.7297 928.905,-82.5908 334.0293,-29 319.8859,-27.7259 304.6368,-25.6714 290.621,-23.5047"/>
<polygon fill="#191970" stroke="#191970" points="1683.0191,-68.4516 1693.3828,-66.2508 1683.9087,-61.5083 1683.0191,-68.4516"/>
</g>
<!-- Node26&#45;&gt;Node17 -->
<g id="edge23" class="edge">
<title>Node26&#45;&gt;Node17</title>
<path fill="none" stroke="#191970" d="M1683.1028,-64.9308C1149.2719,3.44 1005.4143,-91.45 474.0293,-29 463.429,-27.7542 452.051,-25.7091 441.6141,-23.5422"/>
<polygon fill="#191970" stroke="#191970" points="1683.0149,-68.4485 1693.3815,-66.2611 1683.9135,-61.5064 1683.0149,-68.4485"/>
</g>
<!-- Node26&#45;&gt;Node18 -->
<g id="edge26" class="edge">
<title>Node26&#45;&gt;Node18</title>
<path fill="none" stroke="#191970" d="M1683.1678,-64.9304C1224.3242,-5.0464 1101.2043,-75.6857 644.0293,-29 641.1997,-28.711 638.3219,-28.3851 635.4186,-28.0293"/>
<polygon fill="#191970" stroke="#191970" points="1683.0075,-68.4395 1693.3793,-66.2774 1683.9229,-61.4996 1683.0075,-68.4395"/>
</g>
<!-- Node26&#45;&gt;Node19 -->
<g id="edge27" class="edge">
<title>Node26&#45;&gt;Node19</title>
<path fill="none" stroke="#191970" d="M1683.1826,-64.9239C1291.3941,-12.7955 1185.5182,-73.7917 796.0293,-29 793.227,-28.6777 790.373,-28.3108 787.4946,-27.9086"/>
<polygon fill="#191970" stroke="#191970" points="1682.9989,-68.4307 1693.3767,-66.2971 1683.9334,-61.4934 1682.9989,-68.4307"/>
</g>
<!-- Node26&#45;&gt;Node20 -->
<g id="edge28" class="edge">
<title>Node26&#45;&gt;Node20</title>
<path fill="none" stroke="#191970" d="M1683.2567,-64.9203C1360.2339,-20.6358 1272.6693,-66.5039 952.0293,-29 949.1564,-28.664 946.23,-28.2855 943.2781,-27.8738"/>
<polygon fill="#191970" stroke="#191970" points="1682.9861,-68.4162 1693.3727,-66.3259 1683.9496,-61.4828 1682.9861,-68.4162"/>
</g>
<!-- Node26&#45;&gt;Node21 -->
<g id="edge30" class="edge">
<title>Node26&#45;&gt;Node21</title>
<path fill="none" stroke="#191970" d="M1683.394,-64.9198C1427.2919,-28.2594 1357.4628,-60.8976 1104.0293,-29 1101.2306,-28.6477 1098.3796,-28.2557 1095.5038,-27.8328"/>
<polygon fill="#191970" stroke="#191970" points="1682.9672,-68.3945 1693.3665,-66.3687 1683.9737,-61.4672 1682.9672,-68.3945"/>
</g>
<!-- Node26&#45;&gt;Node22 -->
<g id="edge33" class="edge">
<title>Node26&#45;&gt;Node22</title>
<path fill="none" stroke="#191970" d="M1683.2673,-64.862C1497.7822,-36.1681 1446.9098,-53.3379 1264.0293,-29 1261.091,-28.609 1258.0965,-28.1845 1255.0746,-27.7348"/>
<polygon fill="#191970" stroke="#191970" points="1682.9325,-68.3523 1693.3546,-66.4468 1684.019,-61.4371 1682.9325,-68.3523"/>
</g>
<!-- Node26&#45;&gt;Node24 -->
<g id="edge17" class="edge">
<title>Node26&#45;&gt;Node24</title>
<path fill="none" stroke="#191970" d="M1810.6989,-77.8904C2005.1942,-72.7351 2589.7301,-55.4091 2778.0293,-29 2780.7661,-28.6162 2783.5596,-28.169 2786.3728,-27.6746"/>
<polygon fill="#191970" stroke="#191970" points="1810.5422,-74.3932 1800.6379,-78.1554 1810.7266,-81.3908 1810.5422,-74.3932"/>
</g>
<!-- Node26&#45;&gt;Node25 -->
<g id="edge19" class="edge">
<title>Node26&#45;&gt;Node25</title>
<path fill="none" stroke="#191970" d="M1753.5731,-103.5653C1754.024,-112.5958 1753.7355,-122.5597 1752.7077,-130.396"/>
<polygon fill="#191970" stroke="#191970" points="1757.0577,-103.2355 1752.7041,-93.5765 1750.084,-103.8422 1757.0577,-103.2355"/>
</g>
<!-- Node27 -->
<g id="node15" class="node">
<title>Node27</title>
<g id="a_node15"><a xlink:href="action_8cpp.html" target="_top" xlink:title=" ">
<polygon fill="#ffffff" stroke="#000000" points="1426.9531,-.5 1426.9531,-28.5 1539.1055,-28.5 1539.1055,-.5 1426.9531,-.5"/>
<text text-anchor="start" x="1434.9531" y="-16.5" font-family="Helvetica,sans-Serif" font-size="10.00" fill="#000000">GluonicLQCD/actions</text>
<text text-anchor="middle" x="1483.0293" y="-6.5" font-family="Helvetica,sans-Serif" font-size="10.00" fill="#000000">/action.cpp</text>
</a>
</g>
</g>
<!-- Node26&#45;&gt;Node27 -->
<g id="edge14" class="edge">
<title>Node26&#45;&gt;Node27</title>
<path fill="none" stroke="#191970" d="M1683.5758,-63.877C1639.6593,-53.0642 1581.7329,-38.802 1539.4318,-28.387"/>
<polygon fill="#191970" stroke="#191970" points="1682.7399,-67.2756 1693.2867,-66.2679 1684.4135,-60.4786 1682.7399,-67.2756"/>
</g>
<!-- Node28 -->
<g id="node16" class="node">
<title>Node28</title>
<g id="a_node16"><a xlink:href="luscheraction_8cpp.html" target="_top" xlink:title=" ">
<polygon fill="#ffffff" stroke="#000000" points="1556.9531,-.5 1556.9531,-28.5 1669.1055,-28.5 1669.1055,-.5 1556.9531,-.5"/>
<text text-anchor="start" x="1564.9531" y="-16.5" font-family="Helvetica,sans-Serif" font-size="10.00" fill="#000000">GluonicLQCD/actions</text>
<text text-anchor="middle" x="1613.0293" y="-6.5" font-family="Helvetica,sans-Serif" font-size="10.00" fill="#000000">/luscheraction.cpp</text>
</a>
</g>
</g>
<!-- Node26&#45;&gt;Node28 -->
<g id="edge15" class="edge">
<title>Node26&#45;&gt;Node28</title>
<path fill="none" stroke="#191970" d="M1708.8745,-60.9921C1687.6348,-50.6892 1661.615,-38.0677 1642.0486,-28.5765"/>
<polygon fill="#191970" stroke="#191970" points="1707.4284,-64.1806 1717.9533,-65.396 1710.4835,-57.8825 1707.4284,-64.1806"/>
</g>
<!-- Node29 -->
<g id="node17" class="node">
<title>Node29</title>
<g id="a_node17"><a xlink:href="wilsongaugeaction_8cpp.html" target="_top" xlink:title=" ">
<polygon fill="#ffffff" stroke="#000000" points="1687.0493,-.5 1687.0493,-28.5 1807.0093,-28.5 1807.0093,-.5 1687.0493,-.5"/>
<text text-anchor="start" x="1695.0493" y="-16.5" font-family="Helvetica,sans-Serif" font-size="10.00" fill="#000000">GluonicLQCD/actions</text>
<text text-anchor="middle" x="1747.0293" y="-6.5" font-family="Helvetica,sans-Serif" font-size="10.00" fill="#000000">/wilsongaugeaction.cpp</text>
</a>
</g>
</g>
<!-- Node26&#45;&gt;Node29 -->
<g id="edge16" class="edge">
<title>Node26&#45;&gt;Node29</title>
<path fill="none" stroke="#191970" d="M1747.0293,-55.1081C1747.0293,-46.1539 1747.0293,-36.3227 1747.0293,-28.5765"/>
<polygon fill="#191970" stroke="#191970" points="1743.5294,-55.3959 1747.0293,-65.396 1750.5294,-55.396 1743.5294,-55.3959"/>
</g>
<!-- Node30 -->
<g id="node18" class="node">
<title>Node30</title>
<g id="a_node18"><a xlink:href="parameters_8cpp.html" target="_top" xlink:title=" ">
<polygon fill="#ffffff" stroke="#000000" points="1825.4531,-.5 1825.4531,-28.5 1932.6055,-28.5 1932.6055,-.5 1825.4531,-.5"/>
<text text-anchor="start" x="1833.4531" y="-16.5" font-family="Helvetica,sans-Serif" font-size="10.00" fill="#000000">GluonicLQCD/config</text>
<text text-anchor="middle" x="1879.0293" y="-6.5" font-family="Helvetica,sans-Serif" font-size="10.00" fill="#000000">/parameters.cpp</text>
</a>
</g>
</g>
<!-- Node26&#45;&gt;Node30 -->
<g id="edge18" class="edge">
<title>Node26&#45;&gt;Node30</title>
<path fill="none" stroke="#191970" d="M1784.8964,-60.8533C1805.7671,-50.5761 1831.2551,-38.0252 1850.4432,-28.5765"/>
<polygon fill="#191970" stroke="#191970" points="1783.0964,-57.8383 1775.6713,-65.396 1786.1888,-64.1182 1783.0964,-57.8383"/>
</g>
<!-- Node31 -->
<g id="node19" class="node">
<title>Node31</title>
<g id="a_node19"><a xlink:href="flow_8cpp.html" target="_top" xlink:title=" ">
<polygon fill="#ffffff" stroke="#000000" points="1950.4458,-5.5 1950.4458,-23.5 2087.6128,-23.5 2087.6128,-5.5 1950.4458,-5.5"/>
<text text-anchor="middle" x="2019.0293" y="-11.5" font-family="Helvetica,sans-Serif" font-size="10.00" fill="#000000">GluonicLQCD/flow/flow.cpp</text>
</a>
</g>
</g>
<!-- Node26&#45;&gt;Node31 -->
<g id="edge20" class="edge">
<title>Node26&#45;&gt;Node31</title>
<path fill="none" stroke="#191970" d="M1810.7249,-64.2786C1863.6186,-51.6386 1937.0859,-34.0821 1981.1552,-23.5508"/>
<polygon fill="#191970" stroke="#191970" points="1809.6804,-60.9296 1800.7677,-66.6581 1811.3074,-67.7379 1809.6804,-60.9296"/>
</g>
<!-- Node32 -->
<g id="node20" class="node">
<title>Node32</title>
<g id="a_node20"><a xlink:href="su3matrixgenerator_8cpp.html" target="_top" xlink:title=" ">
<polygon fill="#ffffff" stroke="#000000" points="2105.3989,-.5 2105.3989,-28.5 2248.6597,-28.5 2248.6597,-.5 2105.3989,-.5"/>
<text text-anchor="start" x="2113.3989" y="-16.5" font-family="Helvetica,sans-Serif" font-size="10.00" fill="#000000">GluonicLQCD/math/matrices</text>
<text text-anchor="middle" x="2177.0293" y="-6.5" font-family="Helvetica,sans-Serif" font-size="10.00" fill="#000000">/su3matrixgenerator.cpp</text>
</a>
</g>
</g>
<!-- Node26&#45;&gt;Node32 -->
<g id="edge24" class="edge">
<title>Node26&#45;&gt;Node32</title>
<path fill="none" stroke="#191970" d="M1810.8068,-71.0001C1881.0408,-61.4762 1997.2562,-45.2344 2097.0293,-29 2099.6764,-28.5693 2102.3712,-28.1226 2105.0921,-27.6648"/>
<polygon fill="#191970" stroke="#191970" points="1810.226,-67.5467 1800.7855,-72.3557 1811.1645,-74.4835 1810.226,-67.5467"/>
</g>
<!-- Node26&#45;&gt;Node33 -->
<g id="edge25" class="edge">
<title>Node26&#45;&gt;Node33</title>
<path fill="none" stroke="#191970" d="M1811.0728,-77.9259C2021.2762,-72.5671 2688.903,-53.9703 2903.0293,-29 2905.8311,-28.6733 2908.6847,-28.3026 2911.5626,-27.8973"/>
<polygon fill="#191970" stroke="#191970" points="1810.7304,-74.4334 1800.8224,-78.1859 1810.908,-81.4311 1810.7304,-74.4334"/>
</g>
<!-- Node26&#45;&gt;Node34 -->
<g id="edge29" class="edge">
<title>Node26&#45;&gt;Node34</title>
<path fill="none" stroke="#191970" d="M1810.8935,-78.304C2038.5356,-73.8424 2809.7261,-56.9762 3055.0293,-29 3057.8319,-28.6804 3060.6862,-28.3156 3063.5647,-27.9153"/>
<polygon fill="#191970" stroke="#191970" points="1810.7164,-74.8066 1800.7865,-78.5009 1810.8528,-81.8053 1810.7164,-74.8066"/>
</g>
<!-- Node26&#45;&gt;Node35 -->
<g id="edge31" class="edge">
<title>Node26&#45;&gt;Node35</title>
<path fill="none" stroke="#191970" d="M1683.1952,-64.762C1565.5021,-43.5829 1533.0066,-47.5641 1418.0293,-29 1415.0749,-28.523 1412.0596,-28.0209 1409.0157,-27.5015"/>
<polygon fill="#191970" stroke="#191970" points="1682.8612,-68.2587 1693.3268,-66.6089 1684.1167,-61.3722 1682.8612,-68.2587"/>
</g>
<!-- Node26&#45;&gt;Node36 -->
<g id="edge32" class="edge">
<title>Node26&#45;&gt;Node36</title>
<path fill="none" stroke="#191970" d="M1811.0795,-77.6322C1938.2836,-73.3563 2231.5872,-60.6701 2476.0293,-29 2478.8267,-28.6376 2481.6766,-28.237 2484.5515,-27.807"/>
<polygon fill="#191970" stroke="#191970" points="1810.6291,-74.145 1800.75,-77.9731 1810.8601,-81.1412 1810.6291,-74.145"/>
</g>
<!-- Node26&#45;&gt;Node37 -->
<g id="edge34" class="edge">
<title>Node26&#45;&gt;Node37</title>
<path fill="none" stroke="#191970" d="M1810.7169,-78.7642C1956.1247,-76.4484 2323.499,-66.993 2628.0293,-29 2638.952,-27.6373 2650.6759,-25.634 2661.5332,-23.5488"/>
<polygon fill="#191970" stroke="#191970" points="1810.5801,-75.2658 1800.635,-78.9189 1810.6876,-82.265 1810.5801,-75.2658"/>
</g>
<!-- Node38 -->
<g id="node26" class="node">
<title>Node38</title>
<g id="a_node26"><a xlink:href="performancetests_8cpp.html" target="_top" xlink:title=" ">
<polygon fill="#ffffff" stroke="#000000" points="2266.7686,-5.5 2266.7686,-23.5 2467.29,-23.5 2467.29,-5.5 2266.7686,-5.5"/>
<text text-anchor="middle" x="2367.0293" y="-11.5" font-family="Helvetica,sans-Serif" font-size="10.00" fill="#000000">GluonicLQCD/tests/performancetests.cpp</text>
</a>
</g>
</g>
<!-- Node26&#45;&gt;Node38 -->
<g id="edge35" class="edge">
<title>Node26&#45;&gt;Node38</title>
<path fill="none" stroke="#191970" d="M1811.01,-73.8756C1907.8512,-65.2046 2097.3993,-47.6159 2258.0293,-29 2272.2518,-27.3517 2287.4964,-25.4247 2301.9434,-23.5237"/>
<polygon fill="#191970" stroke="#191970" points="1810.4483,-70.4118 1800.7993,-74.7876 1811.071,-77.384 1810.4483,-70.4118"/>
</g>
<!-- Node26&#45;&gt;Node39 -->
<g id="edge36" class="edge">
<title>Node26&#45;&gt;Node39</title>
<path fill="none" stroke="#191970" d="M1810.8024,-78.3729C2054.9036,-73.8911 2930.0484,-56.2422 3207.0293,-29 3220.2722,-27.6975 3234.5328,-25.6614 3247.6753,-23.5224"/>
<polygon fill="#191970" stroke="#191970" points="1810.6125,-74.8757 1800.6781,-78.5578 1810.7404,-81.8745 1810.6125,-74.8757"/>
</g>
</g>
</svg>
