<?xml version="1.0" encoding="UTF-8" standalone="no"?>
<!DOCTYPE svg PUBLIC "-//W3C//DTD SVG 1.1//EN"
 "http://www.w3.org/Graphics/SVG/1.1/DTD/svg11.dtd">
<!-- Generated by graphviz version 2.40.1 (20161225.0304)
 -->
<!-- Title: GluonicLQCD/parallelization/communicator.cpp Pages: 1 -->
<svg width="713pt" height="367pt"
 viewBox="0.00 0.00 713.46 367.00" xmlns="http://www.w3.org/2000/svg" xmlns:xlink="http://www.w3.org/1999/xlink">
<g id="graph0" class="graph" transform="scale(1 1) rotate(0) translate(4 363)">
<title>GluonicLQCD/parallelization/communicator.cpp</title>
<polygon fill="#ffffff" stroke="transparent" points="-4,4 -4,-363 709.4581,-363 709.4581,4 -4,4"/>
<!-- Node0 -->
<g id="node1" class="node">
<title>Node0</title>
<g id="a_node1"><a xlink:title=" ">
<polygon fill="#bfbfbf" stroke="#000000" points="372.7765,-330.5 372.7765,-358.5 514.3917,-358.5 514.3917,-330.5 372.7765,-330.5"/>
<text text-anchor="start" x="380.7765" y="-346.5" font-family="Helvetica,sans-Serif" font-size="10.00" fill="#000000">GluonicLQCD/parallelization</text>
<text text-anchor="middle" x="443.5841" y="-336.5" font-family="Helvetica,sans-Serif" font-size="10.00" fill="#000000">/communicator.cpp</text>
</a>
</g>
</g>
<!-- Node1 -->
<g id="node2" class="node">
<title>Node1</title>
<g id="a_node2"><a xlink:href="communicator_8h.html" target="_top" xlink:title=" ">
<polygon fill="#ffffff" stroke="#000000" points="329.2887,-275.5 329.2887,-293.5 415.8795,-293.5 415.8795,-275.5 329.2887,-275.5"/>
<text text-anchor="middle" x="372.5841" y="-281.5" font-family="Helvetica,sans-Serif" font-size="10.00" fill="#000000">communicator.h</text>
</a>
</g>
</g>
<!-- Node0&#45;&gt;Node1 -->
<g id="edge1" class="edge">
<title>Node0&#45;&gt;Node1</title>
<path fill="none" stroke="#191970" d="M426.7581,-330.2808C416.0399,-321.2232 402.1467,-309.4825 391.1135,-300.1586"/>
<polygon fill="#191970" stroke="#191970" points="393.2308,-297.3655 383.3337,-293.5842 388.7126,-302.7121 393.2308,-297.3655"/>
</g>
<!-- Node4 -->
<g id="node5" class="node">
<title>Node4</title>
<g id="a_node5"><a xlink:title=" ">
<polygon fill="#ffffff" stroke="#bfbfbf" points="79.3576,-110.5 79.3576,-128.5 119.8107,-128.5 119.8107,-110.5 79.3576,-110.5"/>
<text text-anchor="middle" x="99.5841" y="-116.5" font-family="Helvetica,sans-Serif" font-size="10.00" fill="#000000">mpi.h</text>
</a>
</g>
</g>
<!-- Node0&#45;&gt;Node4 -->
<g id="edge26" class="edge">
<title>Node0&#45;&gt;Node4</title>
<path fill="none" stroke="#191970" d="M378.4066,-330.4127C266.9894,-304.8443 47.7126,-247.5315 4.5841,-184 -14.6766,-155.6275 34.8415,-136.2619 69.4029,-126.6096"/>
<polygon fill="#191970" stroke="#191970" points="70.3496,-129.9796 79.1201,-124.0357 68.5572,-123.2129 70.3496,-129.9796"/>
</g>
<!-- Node5 -->
<g id="node6" class="node">
<title>Node5</title>
<g id="a_node6"><a xlink:href="index_8h.html" target="_top" xlink:title=" ">
<polygon fill="#ffffff" stroke="#000000" points="361.4982,-165.5 361.4982,-183.5 473.6701,-183.5 473.6701,-165.5 361.4982,-165.5"/>
<text text-anchor="middle" x="417.5841" y="-171.5" font-family="Helvetica,sans-Serif" font-size="10.00" fill="#000000">parallelization/index.h</text>
</a>
</g>
</g>
<!-- Node0&#45;&gt;Node5 -->
<g id="edge21" class="edge">
<title>Node0&#45;&gt;Node5</title>
<path fill="none" stroke="#191970" d="M441.4121,-330.2983C436.7628,-299.8994 425.8416,-228.4909 420.5549,-193.9244"/>
<polygon fill="#191970" stroke="#191970" points="423.9669,-193.0825 418.9953,-183.7266 417.0474,-194.1409 423.9669,-193.0825"/>
</g>
<!-- Node6 -->
<g id="node7" class="node">
<title>Node6</title>
<g id="a_node7"><a xlink:href="neighbours_8h.html" target="_top" xlink:title=" ">
<polygon fill="#ffffff" stroke="#000000" points="567.7101,-165.5 567.7101,-183.5 705.4581,-183.5 705.4581,-165.5 567.7101,-165.5"/>
<text text-anchor="middle" x="636.5841" y="-171.5" font-family="Helvetica,sans-Serif" font-size="10.00" fill="#000000">parallelization/neighbours.h</text>
</a>
</g>
</g>
<!-- Node0&#45;&gt;Node6 -->
<g id="edge20" class="edge">
<title>Node0&#45;&gt;Node6</title>
<path fill="none" stroke="#191970" d="M514.6064,-331.2231C539.157,-323.7026 565.3121,-312.0311 584.5841,-294 613.931,-266.5428 627.5875,-219.6576 633.1987,-193.5231"/>
<polygon fill="#191970" stroke="#191970" points="636.6328,-194.1984 635.1332,-183.7102 629.765,-192.8444 636.6328,-194.1984"/>
</g>
<!-- Node8 -->
<g id="node9" class="node">
<title>Node8</title>
<g id="a_node9"><a xlink:href="parallelparameters_8h.html" target="_top" xlink:title=" ">
<polygon fill="#ffffff" stroke="#000000" points="14.0426,-165.5 14.0426,-183.5 185.1256,-183.5 185.1256,-165.5 14.0426,-165.5"/>
<text text-anchor="middle" x="99.5841" y="-171.5" font-family="Helvetica,sans-Serif" font-size="10.00" fill="#000000">parallelization/parallelparameters.h</text>
</a>
</g>
</g>
<!-- Node0&#45;&gt;Node8 -->
<g id="edge22" class="edge">
<title>Node0&#45;&gt;Node8</title>
<path fill="none" stroke="#191970" d="M406.5422,-330.478C381.8935,-320.8589 348.9526,-307.4469 320.5841,-294 247.4237,-259.3214 164.1698,-212.1068 123.9223,-188.767"/>
<polygon fill="#191970" stroke="#191970" points="125.5026,-185.6372 115.0991,-183.6327 121.9819,-191.6874 125.5026,-185.6372"/>
</g>
<!-- Node14 -->
<g id="node15" class="node">
<title>Node14</title>
<g id="a_node15"><a xlink:href="parameters_8h.html" target="_top" xlink:title=" ">
<polygon fill="#ffffff" stroke="#000000" points="471.3947,-275.5 471.3947,-293.5 575.7736,-293.5 575.7736,-275.5 471.3947,-275.5"/>
<text text-anchor="middle" x="523.5841" y="-281.5" font-family="Helvetica,sans-Serif" font-size="10.00" fill="#000000">config/parameters.h</text>
</a>
</g>
</g>
<!-- Node0&#45;&gt;Node14 -->
<g id="edge23" class="edge">
<title>Node0&#45;&gt;Node14</title>
<path fill="none" stroke="#191970" d="M462.543,-330.2808C474.8567,-321.0456 490.8894,-309.021 503.4335,-299.613"/>
<polygon fill="#191970" stroke="#191970" points="505.5719,-302.3842 511.4719,-293.5842 501.3718,-296.7842 505.5719,-302.3842"/>
</g>
<!-- Node16 -->
<g id="node17" class="node">
<title>Node16</title>
<g id="a_node17"><a xlink:title=" ">
<polygon fill="#ffffff" stroke="#bfbfbf" points="631.9684,-275.5 631.9684,-293.5 675.1998,-293.5 675.1998,-275.5 631.9684,-275.5"/>
<text text-anchor="middle" x="653.5841" y="-281.5" font-family="Helvetica,sans-Serif" font-size="10.00" fill="#000000">cmath</text>
</a>
</g>
</g>
<!-- Node0&#45;&gt;Node16 -->
<g id="edge27" class="edge">
<title>Node0&#45;&gt;Node16</title>
<path fill="none" stroke="#191970" d="M492.8198,-330.4327C532.7006,-319.0381 587.7013,-303.3237 621.9283,-293.5445"/>
<polygon fill="#191970" stroke="#191970" points="623.1902,-296.8241 631.8438,-290.7115 621.2671,-290.0935 623.1902,-296.8241"/>
</g>
<!-- Node2 -->
<g id="node3" class="node">
<title>Node2</title>
<g id="a_node3"><a xlink:title=" ">
<polygon fill="#ffffff" stroke="#bfbfbf" points="479.9684,-110.5 479.9684,-128.5 523.1998,-128.5 523.1998,-110.5 479.9684,-110.5"/>
<text text-anchor="middle" x="501.5841" y="-116.5" font-family="Helvetica,sans-Serif" font-size="10.00" fill="#000000">vector</text>
</a>
</g>
</g>
<!-- Node1&#45;&gt;Node2 -->
<g id="edge2" class="edge">
<title>Node1&#45;&gt;Node2</title>
<path fill="none" stroke="#191970" d="M386.6635,-275.4732C410.0722,-259.739 456.9515,-225.0227 482.5841,-184 491.1864,-170.2329 496.0494,-152.39 498.6973,-138.9619"/>
<polygon fill="#191970" stroke="#191970" points="502.1809,-139.3567 500.434,-128.9069 495.283,-138.1653 502.1809,-139.3567"/>
</g>
<!-- Node3 -->
<g id="node4" class="node">
<title>Node3</title>
<g id="a_node4"><a xlink:href="lattice_8h.html" target="_top" xlink:title=" ">
<polygon fill="#ffffff" stroke="#000000" points="295.8478,-220.5 295.8478,-238.5 371.3204,-238.5 371.3204,-220.5 295.8478,-220.5"/>
<text text-anchor="middle" x="333.5841" y="-226.5" font-family="Helvetica,sans-Serif" font-size="10.00" fill="#000000">math/lattice.h</text>
</a>
</g>
</g>
<!-- Node1&#45;&gt;Node3 -->
<g id="edge3" class="edge">
<title>Node1&#45;&gt;Node3</title>
<path fill="none" stroke="#191970" d="M366.1441,-275.4179C360.7008,-267.7415 352.745,-256.5217 346.0602,-247.0945"/>
<polygon fill="#191970" stroke="#191970" points="348.8035,-244.9123 340.1641,-238.7795 343.0934,-248.9613 348.8035,-244.9123"/>
</g>
<!-- Node3&#45;&gt;Node2 -->
<g id="edge4" class="edge">
<title>Node3&#45;&gt;Node2</title>
<path fill="none" stroke="#191970" d="M333.6819,-220.232C334.3387,-206.3286 337.6355,-180.0974 352.5841,-165 368.9789,-148.4421 430.8011,-133.5614 469.4741,-125.601"/>
<polygon fill="#191970" stroke="#191970" points="470.5967,-128.9454 479.711,-123.5436 469.2174,-122.0827 470.5967,-128.9454"/>
</g>
<!-- Node3&#45;&gt;Node4 -->
<g id="edge5" class="edge">
<title>Node3&#45;&gt;Node4</title>
<path fill="none" stroke="#191970" d="M312.5797,-220.3334C292.0714,-211.3139 260.0313,-197.0377 232.5841,-184 215.5282,-175.8983 211.5441,-173.3007 194.5841,-165 172.3444,-154.1152 147.055,-142.0164 128.1631,-133.0326"/>
<polygon fill="#191970" stroke="#191970" points="129.4517,-129.7699 118.9171,-128.6416 126.4487,-136.0931 129.4517,-129.7699"/>
</g>
<!-- Node3&#45;&gt;Node5 -->
<g id="edge6" class="edge">
<title>Node3&#45;&gt;Node5</title>
<path fill="none" stroke="#191970" d="M347.455,-220.4179C360.3438,-211.9788 379.7735,-199.257 394.9155,-189.3426"/>
<polygon fill="#191970" stroke="#191970" points="397.2437,-192.0017 403.6926,-183.5956 393.4092,-186.1454 397.2437,-192.0017"/>
</g>
<!-- Node3&#45;&gt;Node6 -->
<g id="edge8" class="edge">
<title>Node3&#45;&gt;Node6</title>
<path fill="none" stroke="#191970" d="M371.3466,-222.6454C422.8912,-213.2891 515.8297,-196.4191 576.8679,-185.3396"/>
<polygon fill="#191970" stroke="#191970" points="577.5386,-188.7751 586.7527,-183.5453 576.2884,-181.8877 577.5386,-188.7751"/>
</g>
<!-- Node3&#45;&gt;Node8 -->
<g id="edge11" class="edge">
<title>Node3&#45;&gt;Node8</title>
<path fill="none" stroke="#191970" d="M295.7279,-220.6022C255.5272,-211.1533 191.859,-196.1885 148.0261,-185.8859"/>
<polygon fill="#191970" stroke="#191970" points="148.7001,-182.449 138.1645,-183.568 147.0984,-189.2633 148.7001,-182.449"/>
</g>
<!-- Node9 -->
<g id="node10" class="node">
<title>Node9</title>
<g id="a_node10"><a xlink:href="functions_8h.html" target="_top" xlink:title=" ">
<polygon fill="#ffffff" stroke="#000000" points="241.402,-165.5 241.402,-183.5 305.7662,-183.5 305.7662,-165.5 241.402,-165.5"/>
<text text-anchor="middle" x="273.5841" y="-171.5" font-family="Helvetica,sans-Serif" font-size="10.00" fill="#000000">functions.h</text>
</a>
</g>
</g>
<!-- Node3&#45;&gt;Node9 -->
<g id="edge13" class="edge">
<title>Node3&#45;&gt;Node9</title>
<path fill="none" stroke="#191970" d="M323.6763,-220.4179C314.8705,-212.3458 301.7902,-200.3556 291.2041,-190.6517"/>
<polygon fill="#191970" stroke="#191970" points="293.4438,-187.9567 283.7072,-183.7795 288.7137,-193.1168 293.4438,-187.9567"/>
</g>
<!-- Node5&#45;&gt;Node2 -->
<g id="edge7" class="edge">
<title>Node5&#45;&gt;Node2</title>
<path fill="none" stroke="#191970" d="M431.455,-165.4179C444.3438,-156.9788 463.7735,-144.257 478.9155,-134.3426"/>
<polygon fill="#191970" stroke="#191970" points="481.2437,-137.0017 487.6926,-128.5956 477.4092,-131.1454 481.2437,-137.0017"/>
</g>
<!-- Node6&#45;&gt;Node2 -->
<g id="edge10" class="edge">
<title>Node6&#45;&gt;Node2</title>
<path fill="none" stroke="#191970" d="M614.2916,-165.4179C592.0773,-156.3676 557.7732,-142.3919 532.8437,-132.2354"/>
<polygon fill="#191970" stroke="#191970" points="534.0433,-128.9448 523.4618,-128.4131 531.4022,-135.4275 534.0433,-128.9448"/>
</g>
<!-- Node7 -->
<g id="node8" class="node">
<title>Node7</title>
<g id="a_node8"><a xlink:href="neighbourlist_8h.html" target="_top" xlink:title=" ">
<polygon fill="#ffffff" stroke="#000000" points="596.0621,-110.5 596.0621,-128.5 677.1061,-128.5 677.1061,-110.5 596.0621,-110.5"/>
<text text-anchor="middle" x="636.5841" y="-116.5" font-family="Helvetica,sans-Serif" font-size="10.00" fill="#000000">neighbourlist.h</text>
</a>
</g>
</g>
<!-- Node6&#45;&gt;Node7 -->
<g id="edge9" class="edge">
<title>Node6&#45;&gt;Node7</title>
<path fill="none" stroke="#191970" d="M636.5841,-165.4179C636.5841,-158.2164 636.5841,-147.8962 636.5841,-138.8632"/>
<polygon fill="#191970" stroke="#191970" points="640.0842,-138.7794 636.5841,-128.7795 633.0842,-138.7795 640.0842,-138.7794"/>
</g>
<!-- Node8&#45;&gt;Node4 -->
<g id="edge12" class="edge">
<title>Node8&#45;&gt;Node4</title>
<path fill="none" stroke="#191970" d="M99.5841,-165.4179C99.5841,-158.2164 99.5841,-147.8962 99.5841,-138.8632"/>
<polygon fill="#191970" stroke="#191970" points="103.0842,-138.7794 99.5841,-128.7795 96.0842,-138.7795 103.0842,-138.7794"/>
</g>
<!-- Node10 -->
<g id="node11" class="node">
<title>Node10</title>
<g id="a_node11"><a xlink:href="su3_8h.html" target="_top" xlink:title=" ">
<polygon fill="#ffffff" stroke="#000000" points="164.0719,-110.5 164.0719,-128.5 245.0963,-128.5 245.0963,-110.5 164.0719,-110.5"/>
<text text-anchor="middle" x="204.5841" y="-116.5" font-family="Helvetica,sans-Serif" font-size="10.00" fill="#000000">matrices/su3.h</text>
</a>
</g>
</g>
<!-- Node9&#45;&gt;Node10 -->
<g id="edge14" class="edge">
<title>Node9&#45;&gt;Node10</title>
<path fill="none" stroke="#191970" d="M262.1902,-165.4179C251.8649,-157.1876 236.4294,-144.8839 224.1344,-135.0836"/>
<polygon fill="#191970" stroke="#191970" points="226.227,-132.2757 216.2256,-128.7795 221.8638,-137.7495 226.227,-132.2757"/>
</g>
<!-- Node11 -->
<g id="node12" class="node">
<title>Node11</title>
<g id="a_node12"><a xlink:href="complex_8h.html" target="_top" xlink:title=" ">
<polygon fill="#ffffff" stroke="#000000" points="230.2912,-55.5 230.2912,-73.5 316.8771,-73.5 316.8771,-55.5 230.2912,-55.5"/>
<text text-anchor="middle" x="273.5841" y="-61.5" font-family="Helvetica,sans-Serif" font-size="10.00" fill="#000000">math/complex.h</text>
</a>
</g>
</g>
<!-- Node9&#45;&gt;Node11 -->
<g id="edge19" class="edge">
<title>Node9&#45;&gt;Node11</title>
<path fill="none" stroke="#191970" d="M273.5841,-165.4982C273.5841,-147.6913 273.5841,-107.6225 273.5841,-83.6515"/>
<polygon fill="#191970" stroke="#191970" points="277.0842,-83.6261 273.5841,-73.6261 270.0842,-83.6262 277.0842,-83.6261"/>
</g>
<!-- Node13 -->
<g id="node14" class="node">
<title>Node13</title>
<g id="a_node14"><a xlink:href="su2_8h.html" target="_top" xlink:title=" ">
<polygon fill="#ffffff" stroke="#000000" points="302.0719,-110.5 302.0719,-128.5 383.0963,-128.5 383.0963,-110.5 302.0719,-110.5"/>
<text text-anchor="middle" x="342.5841" y="-116.5" font-family="Helvetica,sans-Serif" font-size="10.00" fill="#000000">matrices/su2.h</text>
</a>
</g>
</g>
<!-- Node9&#45;&gt;Node13 -->
<g id="edge17" class="edge">
<title>Node9&#45;&gt;Node13</title>
<path fill="none" stroke="#191970" d="M284.9781,-165.4179C295.3033,-157.1876 310.7389,-144.8839 323.0338,-135.0836"/>
<polygon fill="#191970" stroke="#191970" points="325.3045,-137.7495 330.9426,-128.7795 320.9413,-132.2757 325.3045,-137.7495"/>
</g>
<!-- Node10&#45;&gt;Node11 -->
<g id="edge15" class="edge">
<title>Node10&#45;&gt;Node11</title>
<path fill="none" stroke="#191970" d="M215.9781,-110.4179C226.3033,-102.1876 241.7389,-89.8839 254.0338,-80.0836"/>
<polygon fill="#191970" stroke="#191970" points="256.3045,-82.7495 261.9426,-73.7795 251.9413,-77.2757 256.3045,-82.7495"/>
</g>
<!-- Node12 -->
<g id="node13" class="node">
<title>Node12</title>
<g id="a_node13"><a xlink:title=" ">
<polygon fill="#ffffff" stroke="#bfbfbf" points="246.4118,-.5 246.4118,-18.5 300.7565,-18.5 300.7565,-.5 246.4118,-.5"/>
<text text-anchor="middle" x="273.5841" y="-6.5" font-family="Helvetica,sans-Serif" font-size="10.00" fill="#000000">iostream</text>
</a>
</g>
</g>
<!-- Node11&#45;&gt;Node12 -->
<g id="edge16" class="edge">
<title>Node11&#45;&gt;Node12</title>
<path fill="none" stroke="#191970" d="M273.5841,-55.4179C273.5841,-48.2164 273.5841,-37.8962 273.5841,-28.8632"/>
<polygon fill="#191970" stroke="#191970" points="277.0842,-28.7794 273.5841,-18.7795 270.0842,-28.7795 277.0842,-28.7794"/>
</g>
<!-- Node13&#45;&gt;Node11 -->
<g id="edge18" class="edge">
<title>Node13&#45;&gt;Node11</title>
<path fill="none" stroke="#191970" d="M331.1902,-110.4179C320.8649,-102.1876 305.4294,-89.8839 293.1344,-80.0836"/>
<polygon fill="#191970" stroke="#191970" points="295.227,-77.2757 285.2256,-73.7795 290.8638,-82.7495 295.227,-77.2757"/>
</g>
<!-- Node14&#45;&gt;Node2 -->
<g id="edge25" class="edge">
<title>Node14&#45;&gt;Node2</title>
<path fill="none" stroke="#191970" d="M523.7608,-275.4032C523.981,-255.2879 523.5847,-205.5972 515.5841,-165 513.8285,-156.0917 511.0015,-146.4499 508.3459,-138.3447"/>
<polygon fill="#191970" stroke="#191970" points="511.615,-137.088 505.0582,-128.7658 504.9942,-139.3605 511.615,-137.088"/>
</g>
<!-- Node15 -->
<g id="node16" class="node">
<title>Node15</title>
<g id="a_node16"><a xlink:title=" ">
<polygon fill="#ffffff" stroke="#bfbfbf" points="471.3576,-220.5 471.3576,-238.5 511.8107,-238.5 511.8107,-220.5 471.3576,-220.5"/>
<text text-anchor="middle" x="491.5841" y="-226.5" font-family="Helvetica,sans-Serif" font-size="10.00" fill="#000000">string</text>
</a>
</g>
</g>
<!-- Node14&#45;&gt;Node15 -->
<g id="edge24" class="edge">
<title>Node14&#45;&gt;Node15</title>
<path fill="none" stroke="#191970" d="M518.3,-275.4179C513.9258,-267.8998 507.5742,-256.9829 502.1615,-247.6799"/>
<polygon fill="#191970" stroke="#191970" points="505.0373,-245.6628 496.9831,-238.7795 498.9868,-249.1831 505.0373,-245.6628"/>
</g>
</g>
</svg>
