<?xml version="1.0" encoding="UTF-8" standalone="no"?>
<!DOCTYPE svg PUBLIC "-//W3C//DTD SVG 1.1//EN"
 "http://www.w3.org/Graphics/SVG/1.1/DTD/svg11.dtd">
<!-- Generated by graphviz version 2.40.1 (20161225.0304)
 -->
<!-- Title: GluonicLQCD/config/configloader.h Pages: 1 -->
<svg width="254pt" height="102pt"
 viewBox="0.00 0.00 254.10 102.00" xmlns="http://www.w3.org/2000/svg" xmlns:xlink="http://www.w3.org/1999/xlink">
<g id="graph0" class="graph" transform="scale(1 1) rotate(0) translate(4 98)">
<title>GluonicLQCD/config/configloader.h</title>
<polygon fill="#ffffff" stroke="transparent" points="-4,4 -4,-98 250.0981,-98 250.0981,4 -4,4"/>
<!-- Node2 -->
<g id="node1" class="node">
<title>Node2</title>
<g id="a_node1"><a xlink:title=" ">
<polygon fill="#bfbfbf" stroke="#000000" points="66,-65.5 66,-93.5 173.1523,-93.5 173.1523,-65.5 66,-65.5"/>
<text text-anchor="start" x="74" y="-81.5" font-family="Helvetica,sans-Serif" font-size="10.00" fill="#000000">GluonicLQCD/config</text>
<text text-anchor="middle" x="119.5762" y="-71.5" font-family="Helvetica,sans-Serif" font-size="10.00" fill="#000000">/configloader.h</text>
</a>
</g>
</g>
<!-- Node3 -->
<g id="node2" class="node">
<title>Node3</title>
<g id="a_node2"><a xlink:href="configloader_8cpp.html" target="_top" xlink:title=" ">
<polygon fill="#ffffff" stroke="#000000" points="0,-.5 0,-28.5 107.1523,-28.5 107.1523,-.5 0,-.5"/>
<text text-anchor="start" x="8" y="-16.5" font-family="Helvetica,sans-Serif" font-size="10.00" fill="#000000">GluonicLQCD/config</text>
<text text-anchor="middle" x="53.5762" y="-6.5" font-family="Helvetica,sans-Serif" font-size="10.00" fill="#000000">/configloader.cpp</text>
</a>
</g>
</g>
<!-- Node2&#45;&gt;Node3 -->
<g id="edge1" class="edge">
<title>Node2&#45;&gt;Node3</title>
<path fill="none" stroke="#191970" d="M98.0617,-58.3115C88.1614,-48.5612 76.6854,-37.259 67.8692,-28.5765"/>
<polygon fill="#191970" stroke="#191970" points="95.6744,-60.8728 105.2552,-65.396 100.5862,-55.8853 95.6744,-60.8728"/>
</g>
<!-- Node4 -->
<g id="node3" class="node">
<title>Node4</title>
<g id="a_node3"><a xlink:href="main_8cpp.html" target="_top" xlink:title=" ">
<polygon fill="#ffffff" stroke="#000000" points="125.0542,-5.5 125.0542,-23.5 246.0981,-23.5 246.0981,-5.5 125.0542,-5.5"/>
<text text-anchor="middle" x="185.5762" y="-11.5" font-family="Helvetica,sans-Serif" font-size="10.00" fill="#000000">GluonicLQCD/main.cpp</text>
</a>
</g>
</g>
<!-- Node2&#45;&gt;Node4 -->
<g id="edge2" class="edge">
<title>Node2&#45;&gt;Node4</title>
<path fill="none" stroke="#191970" d="M141.3183,-58.0873C153.2137,-46.3721 167.3264,-32.4732 176.3623,-23.5743"/>
<polygon fill="#191970" stroke="#191970" points="138.5661,-55.8854 133.8972,-65.396 143.478,-60.8728 138.5661,-55.8854"/>
</g>
</g>
</svg>
