<?xml version="1.0" encoding="UTF-8" standalone="no"?>
<!DOCTYPE svg PUBLIC "-//W3C//DTD SVG 1.1//EN"
 "http://www.w3.org/Graphics/SVG/1.1/DTD/svg11.dtd">
<!-- Generated by graphviz version 2.40.1 (20161225.0304)
 -->
<!-- Title: GluonicLQCD/config/configloader.cpp Pages: 1 -->
<svg width="2454pt" height="532pt"
 viewBox="0.00 0.00 2453.65 532.00" xmlns="http://www.w3.org/2000/svg" xmlns:xlink="http://www.w3.org/1999/xlink">
<g id="graph0" class="graph" transform="scale(1 1) rotate(0) translate(4 528)">
<title>GluonicLQCD/config/configloader.cpp</title>
<polygon fill="#ffffff" stroke="transparent" points="-4,4 -4,-528 2449.6536,-528 2449.6536,4 -4,4"/>
<!-- Node0 -->
<g id="node1" class="node">
<title>Node0</title>
<g id="a_node1"><a xlink:title=" ">
<polygon fill="#bfbfbf" stroke="#000000" points="1662.536,-495.5 1662.536,-523.5 1769.6883,-523.5 1769.6883,-495.5 1662.536,-495.5"/>
<text text-anchor="start" x="1670.536" y="-511.5" font-family="Helvetica,sans-Serif" font-size="10.00" fill="#000000">GluonicLQCD/config</text>
<text text-anchor="middle" x="1716.1121" y="-501.5" font-family="Helvetica,sans-Serif" font-size="10.00" fill="#000000">/configloader.cpp</text>
</a>
</g>
</g>
<!-- Node1 -->
<g id="node2" class="node">
<title>Node1</title>
<g id="a_node2"><a xlink:href="configloader_8h.html" target="_top" xlink:title=" ">
<polygon fill="#ffffff" stroke="#000000" points="1676.9744,-440.5 1676.9744,-458.5 1755.2498,-458.5 1755.2498,-440.5 1676.9744,-440.5"/>
<text text-anchor="middle" x="1716.1121" y="-446.5" font-family="Helvetica,sans-Serif" font-size="10.00" fill="#000000">configloader.h</text>
</a>
</g>
</g>
<!-- Node0&#45;&gt;Node1 -->
<g id="edge1" class="edge">
<title>Node0&#45;&gt;Node1</title>
<path fill="none" stroke="#191970" d="M1716.1121,-495.2808C1716.1121,-487.3776 1716.1121,-477.4316 1716.1121,-468.8308"/>
<polygon fill="#191970" stroke="#191970" points="1719.6122,-468.5842 1716.1121,-458.5842 1712.6122,-468.5842 1719.6122,-468.5842"/>
</g>
<!-- Node3 -->
<g id="node4" class="node">
<title>Node3</title>
<g id="a_node4"><a xlink:title=" ">
<polygon fill="#ffffff" stroke="#bfbfbf" points="1609.4422,-440.5 1609.4422,-458.5 1658.7821,-458.5 1658.7821,-440.5 1609.4422,-440.5"/>
<text text-anchor="middle" x="1634.1121" y="-446.5" font-family="Helvetica,sans-Serif" font-size="10.00" fill="#000000">fstream</text>
</a>
</g>
</g>
<!-- Node0&#45;&gt;Node3 -->
<g id="edge3" class="edge">
<title>Node0&#45;&gt;Node3</title>
<path fill="none" stroke="#191970" d="M1696.6793,-495.2808C1684.0577,-486.0456 1667.6242,-474.021 1654.7666,-464.613"/>
<polygon fill="#191970" stroke="#191970" points="1656.6643,-461.6647 1646.5272,-458.5842 1652.5307,-467.3139 1656.6643,-461.6647"/>
</g>
<!-- Node4 -->
<g id="node5" class="node">
<title>Node4</title>
<g id="a_node5"><a xlink:href="json_8hpp.html" target="_top" xlink:title=" ">
<polygon fill="#ffffff" stroke="#000000" points="843.8167,-440.5 843.8167,-458.5 910.4076,-458.5 910.4076,-440.5 843.8167,-440.5"/>
<text text-anchor="middle" x="877.1121" y="-446.5" font-family="Helvetica,sans-Serif" font-size="10.00" fill="#000000">lib/json.hpp</text>
</a>
</g>
</g>
<!-- Node0&#45;&gt;Node4 -->
<g id="edge4" class="edge">
<title>Node0&#45;&gt;Node4</title>
<path fill="none" stroke="#191970" d="M1662.3526,-505.6555C1507.4549,-494.5781 1062.2543,-462.7402 920.805,-452.6246"/>
<polygon fill="#191970" stroke="#191970" points="920.9899,-449.129 910.7657,-451.9067 920.4905,-456.1112 920.9899,-449.129"/>
</g>
<!-- Node31 -->
<g id="node32" class="node">
<title>Node31</title>
<g id="a_node32"><a xlink:href="parameters_8h.html" target="_top" xlink:title=" ">
<polygon fill="#ffffff" stroke="#000000" points="1773.6541,-440.5 1773.6541,-458.5 1848.5701,-458.5 1848.5701,-440.5 1773.6541,-440.5"/>
<text text-anchor="middle" x="1811.1121" y="-446.5" font-family="Helvetica,sans-Serif" font-size="10.00" fill="#000000">parameters.h</text>
</a>
</g>
</g>
<!-- Node0&#45;&gt;Node31 -->
<g id="edge32" class="edge">
<title>Node0&#45;&gt;Node31</title>
<path fill="none" stroke="#191970" d="M1738.6258,-495.2808C1753.5295,-485.868 1773.0211,-473.5575 1788.038,-464.0732"/>
<polygon fill="#191970" stroke="#191970" points="1790.1429,-466.8834 1796.7288,-458.5842 1786.4049,-460.9649 1790.1429,-466.8834"/>
</g>
<!-- Node33 -->
<g id="node34" class="node">
<title>Node33</title>
<g id="a_node34"><a xlink:href="parallel_8h.html" target="_top" xlink:title=" ">
<polygon fill="#ffffff" stroke="#000000" points="1847.8587,-330.5 1847.8587,-348.5 1968.3656,-348.5 1968.3656,-330.5 1847.8587,-330.5"/>
<text text-anchor="middle" x="1908.1121" y="-336.5" font-family="Helvetica,sans-Serif" font-size="10.00" fill="#000000">parallelization/parallel.h</text>
</a>
</g>
</g>
<!-- Node0&#45;&gt;Node33 -->
<g id="edge59" class="edge">
<title>Node0&#45;&gt;Node33</title>
<path fill="none" stroke="#191970" d="M1769.8033,-499.6027C1798.1963,-492.2132 1832.2254,-479.7031 1857.1121,-459 1888.0658,-433.2499 1900.6488,-385.3107 1905.4305,-358.6449"/>
<polygon fill="#191970" stroke="#191970" points="1908.9064,-359.0738 1907.033,-348.6459 1901.9946,-357.966 1908.9064,-359.0738"/>
</g>
<!-- Node2 -->
<g id="node3" class="node">
<title>Node2</title>
<g id="a_node3"><a xlink:title=" ">
<polygon fill="#ffffff" stroke="#bfbfbf" points="1695.8856,-385.5 1695.8856,-403.5 1736.3387,-403.5 1736.3387,-385.5 1695.8856,-385.5"/>
<text text-anchor="middle" x="1716.1121" y="-391.5" font-family="Helvetica,sans-Serif" font-size="10.00" fill="#000000">string</text>
</a>
</g>
</g>
<!-- Node1&#45;&gt;Node2 -->
<g id="edge2" class="edge">
<title>Node1&#45;&gt;Node2</title>
<path fill="none" stroke="#191970" d="M1716.1121,-440.4179C1716.1121,-433.2164 1716.1121,-422.8962 1716.1121,-413.8632"/>
<polygon fill="#191970" stroke="#191970" points="1719.6122,-413.7794 1716.1121,-403.7795 1712.6122,-413.7795 1719.6122,-413.7794"/>
</g>
<!-- Node4&#45;&gt;Node2 -->
<g id="edge28" class="edge">
<title>Node4&#45;&gt;Node2</title>
<path fill="none" stroke="#191970" d="M910.476,-448.5754C1042.6695,-444.7634 1529.8666,-429.2669 1682.1121,-404 1683.3705,-403.7912 1684.649,-403.5535 1685.936,-403.2931"/>
<polygon fill="#191970" stroke="#191970" points="1686.8585,-406.6714 1695.7767,-400.9516 1685.2381,-399.8615 1686.8585,-406.6714"/>
</g>
<!-- Node5 -->
<g id="node6" class="node">
<title>Node5</title>
<g id="a_node6"><a xlink:title=" ">
<polygon fill="#ffffff" stroke="#bfbfbf" points="687.5482,-385.5 687.5482,-403.5 744.6761,-403.5 744.6761,-385.5 687.5482,-385.5"/>
<text text-anchor="middle" x="716.1121" y="-391.5" font-family="Helvetica,sans-Serif" font-size="10.00" fill="#000000">algorithm</text>
</a>
</g>
</g>
<!-- Node4&#45;&gt;Node5 -->
<g id="edge5" class="edge">
<title>Node4&#45;&gt;Node5</title>
<path fill="none" stroke="#191970" d="M850.5263,-440.4179C823.645,-431.2348 781.9194,-416.9807 752.0909,-406.7909"/>
<polygon fill="#191970" stroke="#191970" points="753.0645,-403.4249 742.4699,-403.5042 750.8015,-410.0491 753.0645,-403.4249"/>
</g>
<!-- Node6 -->
<g id="node7" class="node">
<title>Node6</title>
<g id="a_node7"><a xlink:title=" ">
<polygon fill="#ffffff" stroke="#bfbfbf" points="762.7205,-385.5 762.7205,-403.5 801.5037,-403.5 801.5037,-385.5 762.7205,-385.5"/>
<text text-anchor="middle" x="782.1121" y="-391.5" font-family="Helvetica,sans-Serif" font-size="10.00" fill="#000000">array</text>
</a>
</g>
</g>
<!-- Node4&#45;&gt;Node6 -->
<g id="edge6" class="edge">
<title>Node4&#45;&gt;Node6</title>
<path fill="none" stroke="#191970" d="M861.4248,-440.4179C846.5732,-431.8195 824.0423,-418.7754 806.7852,-408.7844"/>
<polygon fill="#191970" stroke="#191970" points="808.2307,-405.577 797.8228,-403.5956 804.7234,-411.635 808.2307,-405.577"/>
</g>
<!-- Node7 -->
<g id="node8" class="node">
<title>Node7</title>
<g id="a_node8"><a xlink:title=" ">
<polygon fill="#ffffff" stroke="#bfbfbf" points="819.9964,-385.5 819.9964,-403.5 868.2279,-403.5 868.2279,-385.5 819.9964,-385.5"/>
<text text-anchor="middle" x="844.1121" y="-391.5" font-family="Helvetica,sans-Serif" font-size="10.00" fill="#000000">cassert</text>
</a>
</g>
</g>
<!-- Node4&#45;&gt;Node7 -->
<g id="edge7" class="edge">
<title>Node4&#45;&gt;Node7</title>
<path fill="none" stroke="#191970" d="M871.6629,-440.4179C867.1045,-432.8207 860.4637,-421.7527 854.8441,-412.3866"/>
<polygon fill="#191970" stroke="#191970" points="857.8261,-410.5536 849.6798,-403.7795 851.8236,-414.1552 857.8261,-410.5536"/>
</g>
<!-- Node8 -->
<g id="node9" class="node">
<title>Node8</title>
<g id="a_node9"><a xlink:title=" ">
<polygon fill="#ffffff" stroke="#bfbfbf" points="886.6615,-385.5 886.6615,-403.5 931.5628,-403.5 931.5628,-385.5 886.6615,-385.5"/>
<text text-anchor="middle" x="909.1121" y="-391.5" font-family="Helvetica,sans-Serif" font-size="10.00" fill="#000000">cctype</text>
</a>
</g>
</g>
<!-- Node4&#45;&gt;Node8 -->
<g id="edge8" class="edge">
<title>Node4&#45;&gt;Node8</title>
<path fill="none" stroke="#191970" d="M882.3963,-440.4179C886.7704,-432.8998 893.1221,-421.9829 898.5348,-412.6799"/>
<polygon fill="#191970" stroke="#191970" points="901.7094,-414.1831 903.7132,-403.7795 895.659,-410.6628 901.7094,-414.1831"/>
</g>
<!-- Node9 -->
<g id="node10" class="node">
<title>Node9</title>
<g id="a_node10"><a xlink:title=" ">
<polygon fill="#ffffff" stroke="#bfbfbf" points="949.8783,-385.5 949.8783,-403.5 1000.346,-403.5 1000.346,-385.5 949.8783,-385.5"/>
<text text-anchor="middle" x="975.1121" y="-391.5" font-family="Helvetica,sans-Serif" font-size="10.00" fill="#000000">ciso646</text>
</a>
</g>
</g>
<!-- Node4&#45;&gt;Node9 -->
<g id="edge9" class="edge">
<title>Node4&#45;&gt;Node9</title>
<path fill="none" stroke="#191970" d="M893.2948,-440.4179C908.7574,-431.7399 932.2889,-418.5334 950.153,-408.5077"/>
<polygon fill="#191970" stroke="#191970" points="951.8978,-411.542 958.9054,-403.5956 948.4719,-405.4377 951.8978,-411.542"/>
</g>
<!-- Node10 -->
<g id="node11" class="node">
<title>Node10</title>
<g id="a_node11"><a xlink:title=" ">
<polygon fill="#ffffff" stroke="#bfbfbf" points="1018.4964,-385.5 1018.4964,-403.5 1061.7279,-403.5 1061.7279,-385.5 1018.4964,-385.5"/>
<text text-anchor="middle" x="1040.1121" y="-391.5" font-family="Helvetica,sans-Serif" font-size="10.00" fill="#000000">cmath</text>
</a>
</g>
</g>
<!-- Node4&#45;&gt;Node10 -->
<g id="edge10" class="edge">
<title>Node4&#45;&gt;Node10</title>
<path fill="none" stroke="#191970" d="M904.0283,-440.4179C932.787,-430.714 978.3276,-415.3475 1008.7036,-405.098"/>
<polygon fill="#191970" stroke="#191970" points="1010.0214,-408.3473 1018.3775,-401.8338 1007.7833,-401.7147 1010.0214,-408.3473"/>
</g>
<!-- Node11 -->
<g id="node12" class="node">
<title>Node11</title>
<g id="a_node12"><a xlink:title=" ">
<polygon fill="#ffffff" stroke="#bfbfbf" points="1079.9915,-385.5 1079.9915,-403.5 1128.2327,-403.5 1128.2327,-385.5 1079.9915,-385.5"/>
<text text-anchor="middle" x="1104.1121" y="-391.5" font-family="Helvetica,sans-Serif" font-size="10.00" fill="#000000">cstddef</text>
</a>
</g>
</g>
<!-- Node4&#45;&gt;Node11 -->
<g id="edge11" class="edge">
<title>Node4&#45;&gt;Node11</title>
<path fill="none" stroke="#191970" d="M910.5352,-442.1937C947.3265,-434.0343 1008.4369,-420.1386 1069.7952,-404.2572"/>
<polygon fill="#191970" stroke="#191970" points="1070.8468,-407.6001 1079.6413,-401.6919 1069.0819,-400.8263 1070.8468,-407.6001"/>
</g>
<!-- Node12 -->
<g id="node13" class="node">
<title>Node12</title>
<g id="a_node13"><a xlink:title=" ">
<polygon fill="#ffffff" stroke="#bfbfbf" points="1146.6615,-385.5 1146.6615,-403.5 1191.5628,-403.5 1191.5628,-385.5 1146.6615,-385.5"/>
<text text-anchor="middle" x="1169.1121" y="-391.5" font-family="Helvetica,sans-Serif" font-size="10.00" fill="#000000">cstdint</text>
</a>
</g>
</g>
<!-- Node4&#45;&gt;Node12 -->
<g id="edge12" class="edge">
<title>Node4&#45;&gt;Node12</title>
<path fill="none" stroke="#191970" d="M910.6064,-444.9014C958.5658,-438.0429 1049.7003,-423.9941 1136.7079,-403.8621"/>
<polygon fill="#191970" stroke="#191970" points="1137.5362,-407.2629 1146.4731,-401.5724 1135.9381,-400.4477 1137.5362,-407.2629"/>
</g>
<!-- Node13 -->
<g id="node14" class="node">
<title>Node13</title>
<g id="a_node14"><a xlink:title=" ">
<polygon fill="#ffffff" stroke="#bfbfbf" points="1209.9398,-385.5 1209.9398,-403.5 1254.2845,-403.5 1254.2845,-385.5 1209.9398,-385.5"/>
<text text-anchor="middle" x="1232.1121" y="-391.5" font-family="Helvetica,sans-Serif" font-size="10.00" fill="#000000">cstdlib</text>
</a>
</g>
</g>
<!-- Node4&#45;&gt;Node13 -->
<g id="edge13" class="edge">
<title>Node4&#45;&gt;Node13</title>
<path fill="none" stroke="#191970" d="M910.4139,-446.4581C969.3152,-440.7126 1095.5289,-426.7581 1200.1121,-404 1200.2112,-403.9784 1200.3105,-403.9567 1200.4098,-403.9349"/>
<polygon fill="#191970" stroke="#191970" points="1200.9929,-407.3971 1209.8424,-401.5716 1199.2916,-400.6069 1200.9929,-407.3971"/>
</g>
<!-- Node14 -->
<g id="node15" class="node">
<title>Node14</title>
<g id="a_node15"><a xlink:title=" ">
<polygon fill="#ffffff" stroke="#bfbfbf" points="1272.3856,-385.5 1272.3856,-403.5 1317.8387,-403.5 1317.8387,-385.5 1272.3856,-385.5"/>
<text text-anchor="middle" x="1295.1121" y="-391.5" font-family="Helvetica,sans-Serif" font-size="10.00" fill="#000000">cstring</text>
</a>
</g>
</g>
<!-- Node4&#45;&gt;Node14 -->
<g id="edge14" class="edge">
<title>Node4&#45;&gt;Node14</title>
<path fill="none" stroke="#191970" d="M910.4637,-447.4987C976.0869,-443.1485 1126.6427,-431.1293 1262.0259,-403.8992"/>
<polygon fill="#191970" stroke="#191970" points="1263.064,-407.2593 1272.1597,-401.8262 1261.6611,-400.4014 1263.064,-407.2593"/>
</g>
<!-- Node15 -->
<g id="node16" class="node">
<title>Node15</title>
<g id="a_node16"><a xlink:title=" ">
<polygon fill="#ffffff" stroke="#bfbfbf" points="1335.5482,-385.5 1335.5482,-403.5 1402.6761,-403.5 1402.6761,-385.5 1335.5482,-385.5"/>
<text text-anchor="middle" x="1369.1121" y="-391.5" font-family="Helvetica,sans-Serif" font-size="10.00" fill="#000000">forward_list</text>
</a>
</g>
</g>
<!-- Node4&#45;&gt;Node15 -->
<g id="edge15" class="edge">
<title>Node4&#45;&gt;Node15</title>
<path fill="none" stroke="#191970" d="M910.6016,-447.5128C984.0408,-442.8561 1164.8797,-429.7586 1325.2127,-404.1545"/>
<polygon fill="#191970" stroke="#191970" points="1325.9427,-407.582 1335.2554,-402.5298 1324.8247,-400.6719 1325.9427,-407.582"/>
</g>
<!-- Node16 -->
<g id="node17" class="node">
<title>Node16</title>
<g id="a_node17"><a xlink:title=" ">
<polygon fill="#ffffff" stroke="#bfbfbf" points="1420.7083,-385.5 1420.7083,-403.5 1479.5159,-403.5 1479.5159,-385.5 1420.7083,-385.5"/>
<text text-anchor="middle" x="1450.1121" y="-391.5" font-family="Helvetica,sans-Serif" font-size="10.00" fill="#000000">functional</text>
</a>
</g>
</g>
<!-- Node4&#45;&gt;Node16 -->
<g id="edge16" class="edge">
<title>Node4&#45;&gt;Node16</title>
<path fill="none" stroke="#191970" d="M910.525,-448.5162C993.612,-445.6753 1216.2838,-435.6454 1410.2457,-404.0886"/>
<polygon fill="#191970" stroke="#191970" points="1411.0396,-407.505 1420.3361,-402.423 1409.8995,-400.5985 1411.0396,-407.505"/>
</g>
<!-- Node17 -->
<g id="node18" class="node">
<title>Node17</title>
<g id="a_node18"><a xlink:title=" ">
<polygon fill="#ffffff" stroke="#bfbfbf" points="1497.7699,-385.5 1497.7699,-403.5 1570.4544,-403.5 1570.4544,-385.5 1497.7699,-385.5"/>
<text text-anchor="middle" x="1534.1121" y="-391.5" font-family="Helvetica,sans-Serif" font-size="10.00" fill="#000000">initializer_list</text>
</a>
</g>
</g>
<!-- Node4&#45;&gt;Node17 -->
<g id="edge17" class="edge">
<title>Node4&#45;&gt;Node17</title>
<path fill="none" stroke="#191970" d="M910.7217,-448.5232C1001.8734,-445.5502 1261.5028,-434.9341 1487.4732,-403.8979"/>
<polygon fill="#191970" stroke="#191970" points="1488.1053,-407.3438 1497.5282,-402.5002 1487.1415,-400.4105 1488.1053,-407.3438"/>
</g>
<!-- Node18 -->
<g id="node19" class="node">
<title>Node18</title>
<g id="a_node19"><a xlink:title=" ">
<polygon fill="#ffffff" stroke="#bfbfbf" points="1588.6024,-385.5 1588.6024,-403.5 1639.6219,-403.5 1639.6219,-385.5 1588.6024,-385.5"/>
<text text-anchor="middle" x="1614.1121" y="-391.5" font-family="Helvetica,sans-Serif" font-size="10.00" fill="#000000">iomanip</text>
</a>
</g>
</g>
<!-- Node4&#45;&gt;Node18 -->
<g id="edge18" class="edge">
<title>Node4&#45;&gt;Node18</title>
<path fill="none" stroke="#191970" d="M910.6598,-448.218C1029.177,-443.5531 1428.6111,-426.644 1577.9346,-403.7961"/>
<polygon fill="#191970" stroke="#191970" points="1578.9274,-407.1816 1588.2463,-402.1409 1577.818,-400.2701 1578.9274,-407.1816"/>
</g>
<!-- Node19 -->
<g id="node20" class="node">
<title>Node19</title>
<g id="a_node20"><a xlink:title=" ">
<polygon fill="#ffffff" stroke="#bfbfbf" points="1016.9398,-.5 1016.9398,-18.5 1071.2845,-18.5 1071.2845,-.5 1016.9398,-.5"/>
<text text-anchor="middle" x="1044.1121" y="-6.5" font-family="Helvetica,sans-Serif" font-size="10.00" fill="#000000">iostream</text>
</a>
</g>
</g>
<!-- Node4&#45;&gt;Node19 -->
<g id="edge19" class="edge">
<title>Node4&#45;&gt;Node19</title>
<path fill="none" stroke="#191970" d="M843.6449,-448.7972C689.3797,-445.4223 52.9739,-429.9645 20.1121,-404 -3.3364,-385.473 1.1121,-369.3846 1.1121,-339.5 1.1121,-339.5 1.1121,-339.5 1.1121,-119.5 1.1121,-67.8696 820.0818,-21.3679 1006.613,-11.4461"/>
<polygon fill="#191970" stroke="#191970" points="1006.9494,-14.9333 1016.7505,-10.9098 1006.5796,-7.943 1006.9494,-14.9333"/>
</g>
<!-- Node20 -->
<g id="node21" class="node">
<title>Node20</title>
<g id="a_node21"><a xlink:title=" ">
<polygon fill="#ffffff" stroke="#bfbfbf" points="29.5506,-385.5 29.5506,-403.5 76.6737,-403.5 76.6737,-385.5 29.5506,-385.5"/>
<text text-anchor="middle" x="53.1121" y="-391.5" font-family="Helvetica,sans-Serif" font-size="10.00" fill="#000000">iterator</text>
</a>
</g>
</g>
<!-- Node4&#45;&gt;Node20 -->
<g id="edge20" class="edge">
<title>Node4&#45;&gt;Node20</title>
<path fill="none" stroke="#191970" d="M843.4334,-448.5625C714.8624,-444.8318 254.2271,-430.0406 86.6561,-403.6242"/>
<polygon fill="#191970" stroke="#191970" points="87.1952,-400.1659 76.7587,-401.9907 86.0552,-407.0725 87.1952,-400.1659"/>
</g>
<!-- Node21 -->
<g id="node22" class="node">
<title>Node21</title>
<g id="a_node22"><a xlink:title=" ">
<polygon fill="#ffffff" stroke="#bfbfbf" points="94.7254,-385.5 94.7254,-403.5 133.4989,-403.5 133.4989,-385.5 94.7254,-385.5"/>
<text text-anchor="middle" x="114.1121" y="-391.5" font-family="Helvetica,sans-Serif" font-size="10.00" fill="#000000">limits</text>
</a>
</g>
</g>
<!-- Node4&#45;&gt;Node21 -->
<g id="edge21" class="edge">
<title>Node4&#45;&gt;Node21</title>
<path fill="none" stroke="#191970" d="M843.67,-448.6066C721.5112,-445.1649 298.8905,-431.6479 143.776,-403.7629"/>
<polygon fill="#191970" stroke="#191970" points="143.9913,-400.2415 133.5144,-401.818 142.6877,-407.119 143.9913,-400.2415"/>
</g>
<!-- Node22 -->
<g id="node23" class="node">
<title>Node22</title>
<g id="a_node23"><a xlink:title=" ">
<polygon fill="#ffffff" stroke="#bfbfbf" points="151.0482,-385.5 151.0482,-403.5 193.1761,-403.5 193.1761,-385.5 151.0482,-385.5"/>
<text text-anchor="middle" x="172.1121" y="-391.5" font-family="Helvetica,sans-Serif" font-size="10.00" fill="#000000">locale</text>
</a>
</g>
</g>
<!-- Node4&#45;&gt;Node22 -->
<g id="edge22" class="edge">
<title>Node4&#45;&gt;Node22</title>
<path fill="none" stroke="#191970" d="M843.6061,-448.3033C728.0391,-444.014 345.8274,-428.4448 203.1111,-403.6844"/>
<polygon fill="#191970" stroke="#191970" points="203.7223,-400.2382 193.2564,-401.8858 202.4654,-407.1245 203.7223,-400.2382"/>
</g>
<!-- Node23 -->
<g id="node24" class="node">
<title>Node23</title>
<g id="a_node24"><a xlink:title=" ">
<polygon fill="#ffffff" stroke="#bfbfbf" points="211.3856,-385.5 211.3856,-403.5 246.8387,-403.5 246.8387,-385.5 211.3856,-385.5"/>
<text text-anchor="middle" x="229.1121" y="-391.5" font-family="Helvetica,sans-Serif" font-size="10.00" fill="#000000">map</text>
</a>
</g>
</g>
<!-- Node4&#45;&gt;Node23 -->
<g id="edge23" class="edge">
<title>Node4&#45;&gt;Node23</title>
<path fill="none" stroke="#191970" d="M843.5739,-448.215C734.2522,-443.8478 388.1946,-428.5705 256.7597,-403.4938"/>
<polygon fill="#191970" stroke="#191970" points="257.4265,-400.0579 246.9322,-401.5139 256.044,-406.92 257.4265,-400.0579"/>
</g>
<!-- Node24 -->
<g id="node25" class="node">
<title>Node24</title>
<g id="a_node25"><a xlink:title=" ">
<polygon fill="#ffffff" stroke="#bfbfbf" points="265.0555,-385.5 265.0555,-403.5 317.1688,-403.5 317.1688,-385.5 265.0555,-385.5"/>
<text text-anchor="middle" x="291.1121" y="-391.5" font-family="Helvetica,sans-Serif" font-size="10.00" fill="#000000">memory</text>
</a>
</g>
</g>
<!-- Node4&#45;&gt;Node24 -->
<g id="edge24" class="edge">
<title>Node4&#45;&gt;Node24</title>
<path fill="none" stroke="#191970" d="M843.6127,-448.8593C758.6732,-446.7842 527.9872,-438.339 327.4965,-403.9437"/>
<polygon fill="#191970" stroke="#191970" points="327.8216,-400.4477 317.3692,-402.1794 326.6202,-407.3438 327.8216,-400.4477"/>
</g>
<!-- Node25 -->
<g id="node26" class="node">
<title>Node25</title>
<g id="a_node26"><a xlink:title=" ">
<polygon fill="#ffffff" stroke="#bfbfbf" points="335.3289,-385.5 335.3289,-403.5 386.8953,-403.5 386.8953,-385.5 335.3289,-385.5"/>
<text text-anchor="middle" x="361.1121" y="-391.5" font-family="Helvetica,sans-Serif" font-size="10.00" fill="#000000">numeric</text>
</a>
</g>
</g>
<!-- Node4&#45;&gt;Node25 -->
<g id="edge25" class="edge">
<title>Node4&#45;&gt;Node25</title>
<path fill="none" stroke="#191970" d="M843.6049,-448.2985C766.4159,-445.112 570.0766,-434.6159 397.0429,-403.8674"/>
<polygon fill="#191970" stroke="#191970" points="397.4558,-400.3854 386.9931,-402.0536 396.2125,-407.2741 397.4558,-400.3854"/>
</g>
<!-- Node26 -->
<g id="node27" class="node">
<title>Node26</title>
<g id="a_node27"><a xlink:title=" ">
<polygon fill="#ffffff" stroke="#bfbfbf" points="405.3314,-385.5 405.3314,-403.5 456.8929,-403.5 456.8929,-385.5 405.3314,-385.5"/>
<text text-anchor="middle" x="431.1121" y="-391.5" font-family="Helvetica,sans-Serif" font-size="10.00" fill="#000000">sstream</text>
</a>
</g>
</g>
<!-- Node4&#45;&gt;Node26 -->
<g id="edge26" class="edge">
<title>Node4&#45;&gt;Node26</title>
<path fill="none" stroke="#191970" d="M843.5552,-447.5507C774.6964,-443.1734 612.3877,-430.9171 466.9958,-403.893"/>
<polygon fill="#191970" stroke="#191970" points="467.4775,-400.4222 457.0019,-402.0067 466.1792,-407.3008 467.4775,-400.4222"/>
</g>
<!-- Node27 -->
<g id="node28" class="node">
<title>Node27</title>
<g id="a_node28"><a xlink:title=" ">
<polygon fill="#ffffff" stroke="#bfbfbf" points="474.7108,-385.5 474.7108,-403.5 533.5135,-403.5 533.5135,-385.5 474.7108,-385.5"/>
<text text-anchor="middle" x="504.1121" y="-391.5" font-family="Helvetica,sans-Serif" font-size="10.00" fill="#000000">stdexcept</text>
</a>
</g>
</g>
<!-- Node4&#45;&gt;Node27 -->
<g id="edge27" class="edge">
<title>Node4&#45;&gt;Node27</title>
<path fill="none" stroke="#191970" d="M843.6305,-446.1859C784.8251,-440.0996 659.0142,-425.8947 543.9459,-404.1959"/>
<polygon fill="#191970" stroke="#191970" points="544.3931,-400.7182 533.9139,-402.2796 543.0796,-407.5938 544.3931,-400.7182"/>
</g>
<!-- Node28 -->
<g id="node29" class="node">
<title>Node28</title>
<g id="a_node29"><a xlink:title=" ">
<polygon fill="#ffffff" stroke="#bfbfbf" points="551.0457,-385.5 551.0457,-403.5 613.1785,-403.5 613.1785,-385.5 551.0457,-385.5"/>
<text text-anchor="middle" x="582.1121" y="-391.5" font-family="Helvetica,sans-Serif" font-size="10.00" fill="#000000">type_traits</text>
</a>
</g>
</g>
<!-- Node4&#45;&gt;Node28 -->
<g id="edge29" class="edge">
<title>Node4&#45;&gt;Node28</title>
<path fill="none" stroke="#191970" d="M843.5808,-444.1386C796.5765,-436.4876 708.2078,-421.6117 623.5527,-404.2142"/>
<polygon fill="#191970" stroke="#191970" points="624.0195,-400.7367 613.5175,-402.1361 622.6,-407.5913 624.0195,-400.7367"/>
</g>
<!-- Node29 -->
<g id="node30" class="node">
<title>Node29</title>
<g id="a_node30"><a xlink:title=" ">
<polygon fill="#ffffff" stroke="#bfbfbf" points="630.7205,-385.5 630.7205,-403.5 669.5037,-403.5 669.5037,-385.5 630.7205,-385.5"/>
<text text-anchor="middle" x="650.1121" y="-391.5" font-family="Helvetica,sans-Serif" font-size="10.00" fill="#000000">utility</text>
</a>
</g>
</g>
<!-- Node4&#45;&gt;Node29 -->
<g id="edge30" class="edge">
<title>Node4&#45;&gt;Node29</title>
<path fill="none" stroke="#191970" d="M843.7509,-442.9608C805.9473,-435.313 742.3389,-421.7285 679.3125,-404.141"/>
<polygon fill="#191970" stroke="#191970" points="680.1892,-400.7517 669.6143,-401.401 678.286,-407.4881 680.1892,-400.7517"/>
</g>
<!-- Node30 -->
<g id="node31" class="node">
<title>Node30</title>
<g id="a_node31"><a xlink:title=" ">
<polygon fill="#ffffff" stroke="#bfbfbf" points="1822.4964,-110.5 1822.4964,-128.5 1865.7279,-128.5 1865.7279,-110.5 1822.4964,-110.5"/>
<text text-anchor="middle" x="1844.1121" y="-116.5" font-family="Helvetica,sans-Serif" font-size="10.00" fill="#000000">vector</text>
</a>
</g>
</g>
<!-- Node4&#45;&gt;Node30 -->
<g id="edge31" class="edge">
<title>Node4&#45;&gt;Node30</title>
<path fill="none" stroke="#191970" d="M910.8289,-448.5876C1055.762,-444.5293 1619.8147,-427.2873 1649.1121,-404 1672.5066,-385.4047 1668.1121,-369.3846 1668.1121,-339.5 1668.1121,-339.5 1668.1121,-339.5 1668.1121,-229.5 1668.1121,-162.3886 1761.2732,-134.7049 1812.0373,-124.6016"/>
<polygon fill="#191970" stroke="#191970" points="1812.9916,-127.9839 1822.1775,-122.7046 1811.7044,-121.1032 1812.9916,-127.9839"/>
</g>
<!-- Node31&#45;&gt;Node2 -->
<g id="edge33" class="edge">
<title>Node31&#45;&gt;Node2</title>
<path fill="none" stroke="#191970" d="M1795.4248,-440.4179C1780.5732,-431.8195 1758.0423,-418.7754 1740.7852,-408.7844"/>
<polygon fill="#191970" stroke="#191970" points="1742.2307,-405.577 1731.8228,-403.5956 1738.7234,-411.635 1742.2307,-405.577"/>
</g>
<!-- Node31&#45;&gt;Node30 -->
<g id="edge34" class="edge">
<title>Node31&#45;&gt;Node30</title>
<path fill="none" stroke="#191970" d="M1804.1771,-440.3585C1791.1033,-422.1856 1764.1121,-379.7888 1764.1121,-339.5 1764.1121,-339.5 1764.1121,-339.5 1764.1121,-229.5 1764.1121,-189.5413 1799.067,-154.346 1822.7656,-135.0761"/>
<polygon fill="#191970" stroke="#191970" points="1825.1775,-137.6333 1830.9018,-128.7179 1820.8672,-132.1177 1825.1775,-137.6333"/>
</g>
<!-- Node32 -->
<g id="node33" class="node">
<title>Node32</title>
<g id="a_node33"><a xlink:href="sysprint_8h.html" target="_top" xlink:title=" ">
<polygon fill="#ffffff" stroke="#000000" points="1791.9842,-385.5 1791.9842,-403.5 1880.2401,-403.5 1880.2401,-385.5 1791.9842,-385.5"/>
<text text-anchor="middle" x="1836.1121" y="-391.5" font-family="Helvetica,sans-Serif" font-size="10.00" fill="#000000">config/sysprint.h</text>
</a>
</g>
</g>
<!-- Node31&#45;&gt;Node32 -->
<g id="edge35" class="edge">
<title>Node31&#45;&gt;Node32</title>
<path fill="none" stroke="#191970" d="M1810.0741,-440.4179C1811.9342,-432.8998 1816.4876,-421.9829 1821.4556,-412.6799"/>
<polygon fill="#191970" stroke="#191970" points="1824.6372,-414.174 1826.6874,-403.7795 1818.6025,-410.6267 1824.6372,-414.174"/>
</g>
<!-- Node32&#45;&gt;Node31 -->
<g id="edge36" class="edge">
<title>Node32&#45;&gt;Node31</title>
<path fill="none" stroke="#191970" d="M1837.101,-403.7795C1835.194,-411.3564 1830.6137,-422.2885 1825.6387,-431.563"/>
<polygon fill="#191970" stroke="#191970" points="1822.4804,-430.0279 1820.4067,-440.4179 1828.507,-433.5888 1822.4804,-430.0279"/>
</g>
<!-- Node32&#45;&gt;Node33 -->
<g id="edge37" class="edge">
<title>Node32&#45;&gt;Node33</title>
<path fill="none" stroke="#191970" d="M1848.0015,-385.4179C1858.7757,-377.1876 1874.8823,-364.8839 1887.7119,-355.0836"/>
<polygon fill="#191970" stroke="#191970" points="1890.1424,-357.6313 1895.9645,-348.7795 1885.8931,-352.0685 1890.1424,-357.6313"/>
</g>
<!-- Node34 -->
<g id="node35" class="node">
<title>Node34</title>
<g id="a_node35"><a xlink:href="communicator_8h.html" target="_top" xlink:title=" ">
<polygon fill="#ffffff" stroke="#000000" points="1913.8167,-275.5 1913.8167,-293.5 2000.4076,-293.5 2000.4076,-275.5 1913.8167,-275.5"/>
<text text-anchor="middle" x="1957.1121" y="-281.5" font-family="Helvetica,sans-Serif" font-size="10.00" fill="#000000">communicator.h</text>
</a>
</g>
</g>
<!-- Node33&#45;&gt;Node34 -->
<g id="edge38" class="edge">
<title>Node33&#45;&gt;Node34</title>
<path fill="none" stroke="#191970" d="M1916.2035,-330.4179C1923.1834,-322.5833 1933.4518,-311.0575 1941.9545,-301.5137"/>
<polygon fill="#191970" stroke="#191970" points="1944.8062,-303.5743 1948.845,-293.7795 1939.5796,-298.9178 1944.8062,-303.5743"/>
</g>
<!-- Node37 -->
<g id="node38" class="node">
<title>Node37</title>
<g id="a_node38"><a xlink:href="index_8h.html" target="_top" xlink:title=" ">
<polygon fill="#ffffff" stroke="#000000" points="1830.0262,-165.5 1830.0262,-183.5 1942.1981,-183.5 1942.1981,-165.5 1830.0262,-165.5"/>
<text text-anchor="middle" x="1886.1121" y="-171.5" font-family="Helvetica,sans-Serif" font-size="10.00" fill="#000000">parallelization/index.h</text>
</a>
</g>
</g>
<!-- Node33&#45;&gt;Node37 -->
<g id="edge57" class="edge">
<title>Node33&#45;&gt;Node37</title>
<path fill="none" stroke="#191970" d="M1906.8663,-330.1561C1903.3722,-303.9504 1893.4262,-229.3557 1888.6858,-193.8021"/>
<polygon fill="#191970" stroke="#191970" points="1892.1353,-193.1911 1887.3443,-183.7414 1885.1968,-194.1163 1892.1353,-193.1911"/>
</g>
<!-- Node40 -->
<g id="node41" class="node">
<title>Node40</title>
<g id="a_node41"><a xlink:href="parallelparameters_8h.html" target="_top" xlink:title=" ">
<polygon fill="#ffffff" stroke="#000000" points="2274.5706,-165.5 2274.5706,-183.5 2445.6536,-183.5 2445.6536,-165.5 2274.5706,-165.5"/>
<text text-anchor="middle" x="2360.1121" y="-171.5" font-family="Helvetica,sans-Serif" font-size="10.00" fill="#000000">parallelization/parallelparameters.h</text>
</a>
</g>
</g>
<!-- Node33&#45;&gt;Node40 -->
<g id="edge58" class="edge">
<title>Node33&#45;&gt;Node40</title>
<path fill="none" stroke="#191970" d="M1933.0575,-330.3939C2009.1506,-302.6165 2238.4259,-218.9209 2325.792,-187.0284"/>
<polygon fill="#191970" stroke="#191970" points="2327.0504,-190.295 2335.2439,-183.578 2324.65,-183.7194 2327.0504,-190.295"/>
</g>
<!-- Node34&#45;&gt;Node30 -->
<g id="edge39" class="edge">
<title>Node34&#45;&gt;Node30</title>
<path fill="none" stroke="#191970" d="M1934.026,-275.4274C1901.8415,-261.3603 1844.7805,-230.9198 1821.1121,-184 1813.3683,-168.6488 1821.7148,-150.0569 1830.4429,-136.7854"/>
<polygon fill="#191970" stroke="#191970" points="1833.3645,-138.7172 1836.3533,-128.5526 1827.6782,-134.6348 1833.3645,-138.7172"/>
</g>
<!-- Node35 -->
<g id="node36" class="node">
<title>Node35</title>
<g id="a_node36"><a xlink:href="lattice_8h.html" target="_top" xlink:title=" ">
<polygon fill="#ffffff" stroke="#000000" points="2029.3758,-220.5 2029.3758,-238.5 2104.8485,-238.5 2104.8485,-220.5 2029.3758,-220.5"/>
<text text-anchor="middle" x="2067.1121" y="-226.5" font-family="Helvetica,sans-Serif" font-size="10.00" fill="#000000">math/lattice.h</text>
</a>
</g>
</g>
<!-- Node34&#45;&gt;Node35 -->
<g id="edge40" class="edge">
<title>Node34&#45;&gt;Node35</title>
<path fill="none" stroke="#191970" d="M1975.2764,-275.4179C1992.8711,-266.6205 2019.7739,-253.1691 2039.9209,-243.0956"/>
<polygon fill="#191970" stroke="#191970" points="2041.5419,-246.1983 2048.9209,-238.5956 2038.4113,-239.9373 2041.5419,-246.1983"/>
</g>
<!-- Node35&#45;&gt;Node30 -->
<g id="edge41" class="edge">
<title>Node35&#45;&gt;Node30</title>
<path fill="none" stroke="#191970" d="M2051.9987,-220.4217C2030.1159,-207.4334 1988.1665,-183.1176 1951.1121,-165 1926.1078,-152.7742 1896.9982,-140.5188 1875.4592,-131.8124"/>
<polygon fill="#191970" stroke="#191970" points="1876.7218,-128.5478 1866.1376,-128.0747 1874.1166,-135.045 1876.7218,-128.5478"/>
</g>
<!-- Node36 -->
<g id="node37" class="node">
<title>Node36</title>
<g id="a_node37"><a xlink:title=" ">
<polygon fill="#ffffff" stroke="#bfbfbf" points="2310.8856,-110.5 2310.8856,-128.5 2351.3387,-128.5 2351.3387,-110.5 2310.8856,-110.5"/>
<text text-anchor="middle" x="2331.1121" y="-116.5" font-family="Helvetica,sans-Serif" font-size="10.00" fill="#000000">mpi.h</text>
</a>
</g>
</g>
<!-- Node35&#45;&gt;Node36 -->
<g id="edge42" class="edge">
<title>Node35&#45;&gt;Node36</title>
<path fill="none" stroke="#191970" d="M2104.9965,-221.8581C2138.0834,-214.4564 2186.9614,-201.7426 2227.1121,-184 2257.9214,-170.3854 2290.4572,-148.8963 2310.765,-134.5076"/>
<polygon fill="#191970" stroke="#191970" points="2312.8566,-137.3146 2318.9321,-128.6347 2308.7698,-131.6314 2312.8566,-137.3146"/>
</g>
<!-- Node35&#45;&gt;Node37 -->
<g id="edge43" class="edge">
<title>Node35&#45;&gt;Node37</title>
<path fill="none" stroke="#191970" d="M2037.2237,-220.4179C2006.7403,-211.155 1959.2771,-196.7325 1925.6886,-186.526"/>
<polygon fill="#191970" stroke="#191970" points="1926.3298,-183.0629 1915.7442,-183.5042 1924.2946,-189.7605 1926.3298,-183.0629"/>
</g>
<!-- Node38 -->
<g id="node39" class="node">
<title>Node38</title>
<g id="a_node39"><a xlink:href="neighbours_8h.html" target="_top" xlink:title=" ">
<polygon fill="#ffffff" stroke="#000000" points="1998.2381,-165.5 1998.2381,-183.5 2135.9862,-183.5 2135.9862,-165.5 1998.2381,-165.5"/>
<text text-anchor="middle" x="2067.1121" y="-171.5" font-family="Helvetica,sans-Serif" font-size="10.00" fill="#000000">parallelization/neighbours.h</text>
</a>
</g>
</g>
<!-- Node35&#45;&gt;Node38 -->
<g id="edge45" class="edge">
<title>Node35&#45;&gt;Node38</title>
<path fill="none" stroke="#191970" d="M2067.1121,-220.4179C2067.1121,-213.2164 2067.1121,-202.8962 2067.1121,-193.8632"/>
<polygon fill="#191970" stroke="#191970" points="2070.6122,-193.7794 2067.1121,-183.7795 2063.6122,-193.7795 2070.6122,-193.7794"/>
</g>
<!-- Node35&#45;&gt;Node40 -->
<g id="edge48" class="edge">
<title>Node35&#45;&gt;Node40</title>
<path fill="none" stroke="#191970" d="M2105.1164,-222.3661C2155.0726,-212.9887 2243.3216,-196.4231 2301.7681,-185.452"/>
<polygon fill="#191970" stroke="#191970" points="2302.776,-188.824 2311.9586,-183.5391 2301.4846,-181.9441 2302.776,-188.824"/>
</g>
<!-- Node41 -->
<g id="node42" class="node">
<title>Node41</title>
<g id="a_node42"><a xlink:href="functions_8h.html" target="_top" xlink:title=" ">
<polygon fill="#ffffff" stroke="#000000" points="2153.93,-165.5 2153.93,-183.5 2218.2943,-183.5 2218.2943,-165.5 2153.93,-165.5"/>
<text text-anchor="middle" x="2186.1121" y="-171.5" font-family="Helvetica,sans-Serif" font-size="10.00" fill="#000000">functions.h</text>
</a>
</g>
</g>
<!-- Node35&#45;&gt;Node41 -->
<g id="edge50" class="edge">
<title>Node35&#45;&gt;Node41</title>
<path fill="none" stroke="#191970" d="M2086.7626,-220.4179C2105.9691,-211.5409 2135.4284,-197.9253 2157.2861,-187.823"/>
<polygon fill="#191970" stroke="#191970" points="2158.8236,-190.9682 2166.4325,-183.5956 2155.8867,-184.614 2158.8236,-190.9682"/>
</g>
<!-- Node37&#45;&gt;Node30 -->
<g id="edge44" class="edge">
<title>Node37&#45;&gt;Node30</title>
<path fill="none" stroke="#191970" d="M1879.1767,-165.4179C1873.2543,-157.6624 1864.57,-146.29 1857.3257,-136.8035"/>
<polygon fill="#191970" stroke="#191970" points="1860.0491,-134.6029 1851.1983,-128.7795 1854.4858,-138.8514 1860.0491,-134.6029"/>
</g>
<!-- Node38&#45;&gt;Node30 -->
<g id="edge47" class="edge">
<title>Node38&#45;&gt;Node30</title>
<path fill="none" stroke="#191970" d="M2030.2882,-165.4179C1987.1575,-154.7803 1916.4367,-137.3379 1875.701,-127.291"/>
<polygon fill="#191970" stroke="#191970" points="1876.3299,-123.8413 1865.7827,-124.8447 1874.6536,-130.6376 1876.3299,-123.8413"/>
</g>
<!-- Node39 -->
<g id="node40" class="node">
<title>Node39</title>
<g id="a_node40"><a xlink:href="neighbourlist_8h.html" target="_top" xlink:title=" ">
<polygon fill="#ffffff" stroke="#000000" points="1947.5902,-110.5 1947.5902,-128.5 2028.6341,-128.5 2028.6341,-110.5 1947.5902,-110.5"/>
<text text-anchor="middle" x="1988.1121" y="-116.5" font-family="Helvetica,sans-Serif" font-size="10.00" fill="#000000">neighbourlist.h</text>
</a>
</g>
</g>
<!-- Node38&#45;&gt;Node39 -->
<g id="edge46" class="edge">
<title>Node38&#45;&gt;Node39</title>
<path fill="none" stroke="#191970" d="M2054.0669,-165.4179C2041.9453,-156.9788 2023.6722,-144.257 2009.4315,-134.3426"/>
<polygon fill="#191970" stroke="#191970" points="2011.3835,-131.4369 2001.1768,-128.5956 2007.3839,-137.1818 2011.3835,-131.4369"/>
</g>
<!-- Node40&#45;&gt;Node36 -->
<g id="edge49" class="edge">
<title>Node40&#45;&gt;Node36</title>
<path fill="none" stroke="#191970" d="M2355.3234,-165.4179C2351.3593,-157.8998 2345.6031,-146.9829 2340.6979,-137.6799"/>
<polygon fill="#191970" stroke="#191970" points="2343.7651,-135.9927 2336.0049,-128.7795 2337.5731,-139.2576 2343.7651,-135.9927"/>
</g>
<!-- Node42 -->
<g id="node43" class="node">
<title>Node42</title>
<g id="a_node43"><a xlink:href="su3_8h.html" target="_top" xlink:title=" ">
<polygon fill="#ffffff" stroke="#000000" points="2145.5999,-110.5 2145.5999,-128.5 2226.6243,-128.5 2226.6243,-110.5 2145.5999,-110.5"/>
<text text-anchor="middle" x="2186.1121" y="-116.5" font-family="Helvetica,sans-Serif" font-size="10.00" fill="#000000">matrices/su3.h</text>
</a>
</g>
</g>
<!-- Node41&#45;&gt;Node42 -->
<g id="edge51" class="edge">
<title>Node41&#45;&gt;Node42</title>
<path fill="none" stroke="#191970" d="M2186.1121,-165.4179C2186.1121,-158.2164 2186.1121,-147.8962 2186.1121,-138.8632"/>
<polygon fill="#191970" stroke="#191970" points="2189.6122,-138.7794 2186.1121,-128.7795 2182.6122,-138.7795 2189.6122,-138.7794"/>
</g>
<!-- Node43 -->
<g id="node44" class="node">
<title>Node43</title>
<g id="a_node44"><a xlink:href="complex_8h.html" target="_top" xlink:title=" ">
<polygon fill="#ffffff" stroke="#000000" points="2092.8192,-55.5 2092.8192,-73.5 2179.4051,-73.5 2179.4051,-55.5 2092.8192,-55.5"/>
<text text-anchor="middle" x="2136.1121" y="-61.5" font-family="Helvetica,sans-Serif" font-size="10.00" fill="#000000">math/complex.h</text>
</a>
</g>
</g>
<!-- Node41&#45;&gt;Node43 -->
<g id="edge56" class="edge">
<title>Node41&#45;&gt;Node43</title>
<path fill="none" stroke="#191970" d="M2201.9919,-165.4763C2221.2392,-153.3346 2249.5318,-130.8494 2236.1121,-110 2225.5292,-93.5579 2207.386,-82.9879 2189.4347,-76.2236"/>
<polygon fill="#191970" stroke="#191970" points="2190.1253,-72.7612 2179.5308,-72.8442 2187.8646,-79.3861 2190.1253,-72.7612"/>
</g>
<!-- Node44 -->
<g id="node45" class="node">
<title>Node44</title>
<g id="a_node45"><a xlink:href="su2_8h.html" target="_top" xlink:title=" ">
<polygon fill="#ffffff" stroke="#000000" points="2046.5999,-110.5 2046.5999,-128.5 2127.6243,-128.5 2127.6243,-110.5 2046.5999,-110.5"/>
<text text-anchor="middle" x="2087.1121" y="-116.5" font-family="Helvetica,sans-Serif" font-size="10.00" fill="#000000">matrices/su2.h</text>
</a>
</g>
</g>
<!-- Node41&#45;&gt;Node44 -->
<g id="edge54" class="edge">
<title>Node41&#45;&gt;Node44</title>
<path fill="none" stroke="#191970" d="M2169.7643,-165.4179C2154.144,-156.7399 2130.3723,-143.5334 2112.326,-133.5077"/>
<polygon fill="#191970" stroke="#191970" points="2113.9256,-130.3925 2103.4843,-128.5956 2110.5261,-136.5117 2113.9256,-130.3925"/>
</g>
<!-- Node42&#45;&gt;Node43 -->
<g id="edge52" class="edge">
<title>Node42&#45;&gt;Node43</title>
<path fill="none" stroke="#191970" d="M2177.8557,-110.4179C2170.6613,-102.5041 2160.0433,-90.8243 2151.3168,-81.2251"/>
<polygon fill="#191970" stroke="#191970" points="2153.8646,-78.8245 2144.548,-73.7795 2148.685,-83.5332 2153.8646,-78.8245"/>
</g>
<!-- Node43&#45;&gt;Node19 -->
<g id="edge53" class="edge">
<title>Node43&#45;&gt;Node19</title>
<path fill="none" stroke="#191970" d="M2092.6306,-62.31C1915.2437,-53.3757 1247.875,-19.7628 1081.7425,-11.3953"/>
<polygon fill="#191970" stroke="#191970" points="1081.6984,-7.8887 1071.535,-10.8812 1081.3463,-14.8799 1081.6984,-7.8887"/>
</g>
<!-- Node44&#45;&gt;Node43 -->
<g id="edge55" class="edge">
<title>Node44&#45;&gt;Node43</title>
<path fill="none" stroke="#191970" d="M2095.2035,-110.4179C2102.1834,-102.5833 2112.4518,-91.0575 2120.9545,-81.5137"/>
<polygon fill="#191970" stroke="#191970" points="2123.8062,-83.5743 2127.845,-73.7795 2118.5796,-78.9178 2123.8062,-83.5743"/>
</g>
</g>
</svg>
