<?xml version="1.0" encoding="UTF-8" standalone="no"?>
<!DOCTYPE svg PUBLIC "-//W3C//DTD SVG 1.1//EN"
 "http://www.w3.org/Graphics/SVG/1.1/DTD/svg11.dtd">
<!-- Generated by graphviz version 2.40.1 (20161225.0304)
 -->
<!-- Title: GluonicLQCD/observables/correlator.cpp Pages: 1 -->
<svg width="890pt" height="532pt"
 viewBox="0.00 0.00 889.99 532.00" xmlns="http://www.w3.org/2000/svg" xmlns:xlink="http://www.w3.org/1999/xlink">
<g id="graph0" class="graph" transform="scale(1 1) rotate(0) translate(4 528)">
<title>GluonicLQCD/observables/correlator.cpp</title>
<polygon fill="#ffffff" stroke="transparent" points="-4,4 -4,-528 885.9916,-528 885.9916,4 -4,4"/>
<!-- Node0 -->
<g id="node1" class="node">
<title>Node0</title>
<g id="a_node1"><a xlink:title=" ">
<polygon fill="#bfbfbf" stroke="#000000" points="580.3472,-495.5 580.3472,-523.5 714.7358,-523.5 714.7358,-495.5 580.3472,-495.5"/>
<text text-anchor="start" x="588.3472" y="-511.5" font-family="Helvetica,sans-Serif" font-size="10.00" fill="#000000">GluonicLQCD/observables</text>
<text text-anchor="middle" x="647.5415" y="-501.5" font-family="Helvetica,sans-Serif" font-size="10.00" fill="#000000">/correlator.cpp</text>
</a>
</g>
</g>
<!-- Node1 -->
<g id="node2" class="node">
<title>Node1</title>
<g id="a_node2"><a xlink:href="correlator_8h.html" target="_top" xlink:title=" ">
<polygon fill="#ffffff" stroke="#000000" points="761.5269,-275.5 761.5269,-293.5 827.5562,-293.5 827.5562,-275.5 761.5269,-275.5"/>
<text text-anchor="middle" x="794.5415" y="-281.5" font-family="Helvetica,sans-Serif" font-size="10.00" fill="#000000">correlator.h</text>
</a>
</g>
</g>
<!-- Node0&#45;&gt;Node1 -->
<g id="edge1" class="edge">
<title>Node0&#45;&gt;Node1</title>
<path fill="none" stroke="#191970" d="M668.6941,-495.4566C681.4254,-486.222 697.2918,-473.2406 708.5415,-459 748.4031,-408.5405 776.5416,-336.6158 788.3459,-303.0652"/>
<polygon fill="#191970" stroke="#191970" points="791.6599,-304.1911 791.5987,-293.5964 785.0396,-301.9168 791.6599,-304.1911"/>
</g>
<!-- Node16 -->
<g id="node17" class="node">
<title>Node16</title>
<g id="a_node17"><a xlink:href="parallel_8h.html" target="_top" xlink:title=" ">
<polygon fill="#ffffff" stroke="#000000" points="477.2881,-330.5 477.2881,-348.5 597.7949,-348.5 597.7949,-330.5 477.2881,-330.5"/>
<text text-anchor="middle" x="537.5415" y="-336.5" font-family="Helvetica,sans-Serif" font-size="10.00" fill="#000000">parallelization/parallel.h</text>
</a>
</g>
</g>
<!-- Node0&#45;&gt;Node16 -->
<g id="edge23" class="edge">
<title>Node0&#45;&gt;Node16</title>
<path fill="none" stroke="#191970" d="M626.5949,-495.2903C613.9412,-485.9932 598.0838,-473.0044 586.5415,-459 561.4473,-428.553 547.7001,-383.504 541.5569,-358.3108"/>
<polygon fill="#191970" stroke="#191970" points="544.9636,-357.5073 539.3171,-348.5426 538.1406,-359.0719 544.9636,-357.5073"/>
</g>
<!-- Node18 -->
<g id="node19" class="node">
<title>Node18</title>
<g id="a_node19"><a xlink:href="parameters_8h.html" target="_top" xlink:title=" ">
<polygon fill="#ffffff" stroke="#000000" points="595.3521,-440.5 595.3521,-458.5 699.731,-458.5 699.731,-440.5 595.3521,-440.5"/>
<text text-anchor="middle" x="647.5415" y="-446.5" font-family="Helvetica,sans-Serif" font-size="10.00" fill="#000000">config/parameters.h</text>
</a>
</g>
</g>
<!-- Node0&#45;&gt;Node18 -->
<g id="edge29" class="edge">
<title>Node0&#45;&gt;Node18</title>
<path fill="none" stroke="#191970" d="M647.5415,-495.2808C647.5415,-487.3776 647.5415,-477.4316 647.5415,-468.8308"/>
<polygon fill="#191970" stroke="#191970" points="651.0416,-468.5842 647.5415,-458.5842 644.0416,-468.5842 651.0416,-468.5842"/>
</g>
<!-- Node2 -->
<g id="node3" class="node">
<title>Node2</title>
<g id="a_node3"><a xlink:href="lattice_8h.html" target="_top" xlink:title=" ">
<polygon fill="#ffffff" stroke="#000000" points="389.8052,-220.5 389.8052,-238.5 465.2778,-238.5 465.2778,-220.5 389.8052,-220.5"/>
<text text-anchor="middle" x="427.5415" y="-226.5" font-family="Helvetica,sans-Serif" font-size="10.00" fill="#000000">math/lattice.h</text>
</a>
</g>
</g>
<!-- Node1&#45;&gt;Node2 -->
<g id="edge2" class="edge">
<title>Node1&#45;&gt;Node2</title>
<path fill="none" stroke="#191970" d="M761.3254,-279.5221C696.1083,-269.7484 551.102,-248.0172 475.4945,-236.6864"/>
<polygon fill="#191970" stroke="#191970" points="475.7104,-233.1798 465.3021,-235.1589 474.6729,-240.1025 475.7104,-233.1798"/>
</g>
<!-- Node3 -->
<g id="node4" class="node">
<title>Node3</title>
<g id="a_node4"><a xlink:title=" ">
<polygon fill="#ffffff" stroke="#bfbfbf" points="621.9258,-110.5 621.9258,-128.5 665.1572,-128.5 665.1572,-110.5 621.9258,-110.5"/>
<text text-anchor="middle" x="643.5415" y="-116.5" font-family="Helvetica,sans-Serif" font-size="10.00" fill="#000000">vector</text>
</a>
</g>
</g>
<!-- Node1&#45;&gt;Node3 -->
<g id="edge22" class="edge">
<title>Node1&#45;&gt;Node3</title>
<path fill="none" stroke="#191970" d="M825.5485,-275.4972C855.1385,-265.1412 893.2016,-246.1398 878.5415,-220 837.6405,-147.0712 729.625,-127.053 675.4598,-121.5663"/>
<polygon fill="#191970" stroke="#191970" points="675.6561,-118.0698 665.3806,-120.6514 675.0232,-125.0412 675.6561,-118.0698"/>
</g>
<!-- Node14 -->
<g id="node15" class="node">
<title>Node14</title>
<g id="a_node15"><a xlink:href="observablestorer_8h.html" target="_top" xlink:title=" ">
<polygon fill="#ffffff" stroke="#000000" points="747.4531,-220.5 747.4531,-238.5 869.6299,-238.5 869.6299,-220.5 747.4531,-220.5"/>
<text text-anchor="middle" x="808.5415" y="-226.5" font-family="Helvetica,sans-Serif" font-size="10.00" fill="#000000">tools/observablestorer.h</text>
</a>
</g>
</g>
<!-- Node1&#45;&gt;Node14 -->
<g id="edge19" class="edge">
<title>Node1&#45;&gt;Node14</title>
<path fill="none" stroke="#191970" d="M796.8533,-275.4179C798.7066,-268.1372 801.3712,-257.669 803.6884,-248.5659"/>
<polygon fill="#191970" stroke="#191970" points="807.1044,-249.3338 806.1795,-238.7795 800.3208,-247.607 807.1044,-249.3338"/>
</g>
<!-- Node2&#45;&gt;Node3 -->
<g id="edge3" class="edge">
<title>Node2&#45;&gt;Node3</title>
<path fill="none" stroke="#191970" d="M434.7495,-220.1801C446.0315,-206.209 469.2077,-179.8906 494.5415,-165 531.7268,-143.1434 580.4038,-130.861 611.8252,-124.7061"/>
<polygon fill="#191970" stroke="#191970" points="612.59,-128.1239 621.7782,-122.8487 611.3058,-121.2427 612.59,-128.1239"/>
</g>
<!-- Node4 -->
<g id="node5" class="node">
<title>Node4</title>
<g id="a_node5"><a xlink:title=" ">
<polygon fill="#ffffff" stroke="#bfbfbf" points="80.3149,-110.5 80.3149,-128.5 120.7681,-128.5 120.7681,-110.5 80.3149,-110.5"/>
<text text-anchor="middle" x="100.5415" y="-116.5" font-family="Helvetica,sans-Serif" font-size="10.00" fill="#000000">mpi.h</text>
</a>
</g>
</g>
<!-- Node2&#45;&gt;Node4 -->
<g id="edge4" class="edge">
<title>Node2&#45;&gt;Node4</title>
<path fill="none" stroke="#191970" d="M389.6227,-224.5772C347.0257,-218.2904 276.2919,-205.5594 218.5415,-184 208.9362,-180.4142 156.9545,-151.3806 125.2738,-133.5107"/>
<polygon fill="#191970" stroke="#191970" points="126.9741,-130.4514 116.5458,-128.5804 123.5312,-136.5462 126.9741,-130.4514"/>
</g>
<!-- Node5 -->
<g id="node6" class="node">
<title>Node5</title>
<g id="a_node6"><a xlink:href="index_8h.html" target="_top" xlink:title=" ">
<polygon fill="#ffffff" stroke="#000000" points="503.4556,-165.5 503.4556,-183.5 615.6274,-183.5 615.6274,-165.5 503.4556,-165.5"/>
<text text-anchor="middle" x="559.5415" y="-171.5" font-family="Helvetica,sans-Serif" font-size="10.00" fill="#000000">parallelization/index.h</text>
</a>
</g>
</g>
<!-- Node2&#45;&gt;Node5 -->
<g id="edge5" class="edge">
<title>Node2&#45;&gt;Node5</title>
<path fill="none" stroke="#191970" d="M449.3386,-220.4179C470.8344,-211.4613 503.9079,-197.6806 528.2167,-187.552"/>
<polygon fill="#191970" stroke="#191970" points="529.8274,-190.6726 537.712,-183.5956 527.1351,-184.2111 529.8274,-190.6726"/>
</g>
<!-- Node6 -->
<g id="node7" class="node">
<title>Node6</title>
<g id="a_node7"><a xlink:href="neighbours_8h.html" target="_top" xlink:title=" ">
<polygon fill="#ffffff" stroke="#000000" points="309.6675,-165.5 309.6675,-183.5 447.4155,-183.5 447.4155,-165.5 309.6675,-165.5"/>
<text text-anchor="middle" x="378.5415" y="-171.5" font-family="Helvetica,sans-Serif" font-size="10.00" fill="#000000">parallelization/neighbours.h</text>
</a>
</g>
</g>
<!-- Node2&#45;&gt;Node6 -->
<g id="edge7" class="edge">
<title>Node2&#45;&gt;Node6</title>
<path fill="none" stroke="#191970" d="M419.4502,-220.4179C412.4702,-212.5833 402.2018,-201.0575 393.6992,-191.5137"/>
<polygon fill="#191970" stroke="#191970" points="396.0741,-188.9178 386.8087,-183.7795 390.8474,-193.5743 396.0741,-188.9178"/>
</g>
<!-- Node8 -->
<g id="node9" class="node">
<title>Node8</title>
<g id="a_node9"><a xlink:href="parallelparameters_8h.html" target="_top" xlink:title=" ">
<polygon fill="#ffffff" stroke="#000000" points="0,-165.5 0,-183.5 171.083,-183.5 171.083,-165.5 0,-165.5"/>
<text text-anchor="middle" x="85.5415" y="-171.5" font-family="Helvetica,sans-Serif" font-size="10.00" fill="#000000">parallelization/parallelparameters.h</text>
</a>
</g>
</g>
<!-- Node2&#45;&gt;Node8 -->
<g id="edge10" class="edge">
<title>Node2&#45;&gt;Node8</title>
<path fill="none" stroke="#191970" d="M389.6348,-223.4039C332.2813,-214.1804 222.6518,-196.5499 151.883,-185.169"/>
<polygon fill="#191970" stroke="#191970" points="152.1634,-181.6692 141.7345,-183.5369 151.0519,-188.5804 152.1634,-181.6692"/>
</g>
<!-- Node9 -->
<g id="node10" class="node">
<title>Node9</title>
<g id="a_node10"><a xlink:href="functions_8h.html" target="_top" xlink:title=" ">
<polygon fill="#ffffff" stroke="#000000" points="227.3594,-165.5 227.3594,-183.5 291.7236,-183.5 291.7236,-165.5 227.3594,-165.5"/>
<text text-anchor="middle" x="259.5415" y="-171.5" font-family="Helvetica,sans-Serif" font-size="10.00" fill="#000000">functions.h</text>
</a>
</g>
</g>
<!-- Node2&#45;&gt;Node9 -->
<g id="edge12" class="edge">
<title>Node2&#45;&gt;Node9</title>
<path fill="none" stroke="#191970" d="M399.7997,-220.4179C371.6277,-211.1949 327.831,-196.8567 296.6793,-186.6582"/>
<polygon fill="#191970" stroke="#191970" points="297.6379,-183.2893 287.0453,-183.5042 295.46,-189.9419 297.6379,-183.2893"/>
</g>
<!-- Node5&#45;&gt;Node3 -->
<g id="edge6" class="edge">
<title>Node5&#45;&gt;Node3</title>
<path fill="none" stroke="#191970" d="M573.4124,-165.4179C586.3012,-156.9788 605.7309,-144.257 620.8729,-134.3426"/>
<polygon fill="#191970" stroke="#191970" points="623.2011,-137.0017 629.65,-128.5956 619.3665,-131.1454 623.2011,-137.0017"/>
</g>
<!-- Node6&#45;&gt;Node3 -->
<g id="edge9" class="edge">
<title>Node6&#45;&gt;Node3</title>
<path fill="none" stroke="#191970" d="M422.0041,-165.4795C475.38,-154.4014 564.6342,-135.877 611.9162,-126.0637"/>
<polygon fill="#191970" stroke="#191970" points="612.8101,-129.4529 621.8901,-123.9937 611.3875,-122.599 612.8101,-129.4529"/>
</g>
<!-- Node7 -->
<g id="node8" class="node">
<title>Node7</title>
<g id="a_node8"><a xlink:href="neighbourlist_8h.html" target="_top" xlink:title=" ">
<polygon fill="#ffffff" stroke="#000000" points="389.0195,-110.5 389.0195,-128.5 470.0635,-128.5 470.0635,-110.5 389.0195,-110.5"/>
<text text-anchor="middle" x="429.5415" y="-116.5" font-family="Helvetica,sans-Serif" font-size="10.00" fill="#000000">neighbourlist.h</text>
</a>
</g>
</g>
<!-- Node6&#45;&gt;Node7 -->
<g id="edge8" class="edge">
<title>Node6&#45;&gt;Node7</title>
<path fill="none" stroke="#191970" d="M386.9631,-165.4179C394.3013,-157.5041 405.1317,-145.8243 414.0328,-136.2251"/>
<polygon fill="#191970" stroke="#191970" points="416.7039,-138.492 420.9369,-128.7795 411.571,-133.7324 416.7039,-138.492"/>
</g>
<!-- Node8&#45;&gt;Node4 -->
<g id="edge11" class="edge">
<title>Node8&#45;&gt;Node4</title>
<path fill="none" stroke="#191970" d="M88.0184,-165.4179C90.0041,-158.1372 92.8591,-147.669 95.3417,-138.5659"/>
<polygon fill="#191970" stroke="#191970" points="98.7562,-139.348 98.0107,-128.7795 92.0028,-137.5062 98.7562,-139.348"/>
</g>
<!-- Node10 -->
<g id="node11" class="node">
<title>Node10</title>
<g id="a_node11"><a xlink:href="su3_8h.html" target="_top" xlink:title=" ">
<polygon fill="#ffffff" stroke="#000000" points="191.0293,-110.5 191.0293,-128.5 272.0537,-128.5 272.0537,-110.5 191.0293,-110.5"/>
<text text-anchor="middle" x="231.5415" y="-116.5" font-family="Helvetica,sans-Serif" font-size="10.00" fill="#000000">matrices/su3.h</text>
</a>
</g>
</g>
<!-- Node9&#45;&gt;Node10 -->
<g id="edge13" class="edge">
<title>Node9&#45;&gt;Node10</title>
<path fill="none" stroke="#191970" d="M254.9179,-165.4179C251.1308,-157.9789 245.6496,-147.2123 240.9465,-137.9742"/>
<polygon fill="#191970" stroke="#191970" points="243.9215,-136.1032 236.2656,-128.7795 237.6834,-139.279 243.9215,-136.1032"/>
</g>
<!-- Node11 -->
<g id="node12" class="node">
<title>Node11</title>
<g id="a_node12"><a xlink:href="complex_8h.html" target="_top" xlink:title=" ">
<polygon fill="#ffffff" stroke="#000000" points="188.2485,-55.5 188.2485,-73.5 274.8345,-73.5 274.8345,-55.5 188.2485,-55.5"/>
<text text-anchor="middle" x="231.5415" y="-61.5" font-family="Helvetica,sans-Serif" font-size="10.00" fill="#000000">math/complex.h</text>
</a>
</g>
</g>
<!-- Node9&#45;&gt;Node11 -->
<g id="edge18" class="edge">
<title>Node9&#45;&gt;Node11</title>
<path fill="none" stroke="#191970" d="M229.6236,-165.4465C212.2641,-158.4809 191.8483,-146.9446 181.5415,-129 170.9894,-110.6285 189.8235,-91.7127 207.3145,-79.1564"/>
<polygon fill="#191970" stroke="#191970" points="209.3216,-82.0244 215.6585,-73.5336 205.4098,-76.2195 209.3216,-82.0244"/>
</g>
<!-- Node13 -->
<g id="node14" class="node">
<title>Node13</title>
<g id="a_node14"><a xlink:href="su2_8h.html" target="_top" xlink:title=" ">
<polygon fill="#ffffff" stroke="#000000" points="290.0293,-110.5 290.0293,-128.5 371.0537,-128.5 371.0537,-110.5 290.0293,-110.5"/>
<text text-anchor="middle" x="330.5415" y="-116.5" font-family="Helvetica,sans-Serif" font-size="10.00" fill="#000000">matrices/su2.h</text>
</a>
</g>
</g>
<!-- Node9&#45;&gt;Node13 -->
<g id="edge16" class="edge">
<title>Node9&#45;&gt;Node13</title>
<path fill="none" stroke="#191970" d="M271.2657,-165.4179C281.8903,-157.1876 297.7732,-144.8839 310.4246,-135.0836"/>
<polygon fill="#191970" stroke="#191970" points="312.8005,-137.6704 318.5626,-128.7795 308.5136,-132.1365 312.8005,-137.6704"/>
</g>
<!-- Node10&#45;&gt;Node11 -->
<g id="edge14" class="edge">
<title>Node10&#45;&gt;Node11</title>
<path fill="none" stroke="#191970" d="M231.5415,-110.4179C231.5415,-103.2164 231.5415,-92.8962 231.5415,-83.8632"/>
<polygon fill="#191970" stroke="#191970" points="235.0416,-83.7794 231.5415,-73.7795 228.0416,-83.7795 235.0416,-83.7794"/>
</g>
<!-- Node12 -->
<g id="node13" class="node">
<title>Node12</title>
<g id="a_node13"><a xlink:title=" ">
<polygon fill="#ffffff" stroke="#bfbfbf" points="204.3691,-.5 204.3691,-18.5 258.7139,-18.5 258.7139,-.5 204.3691,-.5"/>
<text text-anchor="middle" x="231.5415" y="-6.5" font-family="Helvetica,sans-Serif" font-size="10.00" fill="#000000">iostream</text>
</a>
</g>
</g>
<!-- Node11&#45;&gt;Node12 -->
<g id="edge15" class="edge">
<title>Node11&#45;&gt;Node12</title>
<path fill="none" stroke="#191970" d="M231.5415,-55.4179C231.5415,-48.2164 231.5415,-37.8962 231.5415,-28.8632"/>
<polygon fill="#191970" stroke="#191970" points="235.0416,-28.7794 231.5415,-18.7795 228.0416,-28.7795 235.0416,-28.7794"/>
</g>
<!-- Node13&#45;&gt;Node11 -->
<g id="edge17" class="edge">
<title>Node13&#45;&gt;Node11</title>
<path fill="none" stroke="#191970" d="M314.1937,-110.4179C298.5734,-101.7399 274.8017,-88.5334 256.7553,-78.5077"/>
<polygon fill="#191970" stroke="#191970" points="258.355,-75.3925 247.9136,-73.5956 254.9554,-81.5117 258.355,-75.3925"/>
</g>
<!-- Node14&#45;&gt;Node3 -->
<g id="edge21" class="edge">
<title>Node14&#45;&gt;Node3</title>
<path fill="none" stroke="#191970" d="M804.8056,-220.2521C798.7556,-206.375 785.5442,-180.1777 766.5415,-165 739.8422,-143.6749 702.1747,-131.7157 675.5751,-125.47"/>
<polygon fill="#191970" stroke="#191970" points="676.1379,-122.0102 665.619,-123.2763 674.6316,-128.8462 676.1379,-122.0102"/>
</g>
<!-- Node15 -->
<g id="node16" class="node">
<title>Node15</title>
<g id="a_node16"><a xlink:title=" ">
<polygon fill="#ffffff" stroke="#bfbfbf" points="717.3149,-165.5 717.3149,-183.5 757.7681,-183.5 757.7681,-165.5 717.3149,-165.5"/>
<text text-anchor="middle" x="737.5415" y="-171.5" font-family="Helvetica,sans-Serif" font-size="10.00" fill="#000000">string</text>
</a>
</g>
</g>
<!-- Node14&#45;&gt;Node15 -->
<g id="edge20" class="edge">
<title>Node14&#45;&gt;Node15</title>
<path fill="none" stroke="#191970" d="M796.8173,-220.4179C786.1927,-212.1876 770.3098,-199.8839 757.6585,-190.0836"/>
<polygon fill="#191970" stroke="#191970" points="759.5694,-187.1365 749.5204,-183.7795 755.2826,-192.6704 759.5694,-187.1365"/>
</g>
<!-- Node16&#45;&gt;Node5 -->
<g id="edge27" class="edge">
<title>Node16&#45;&gt;Node5</title>
<path fill="none" stroke="#191970" d="M538.7874,-330.1561C542.2814,-303.9504 552.2274,-229.3557 556.9679,-193.8021"/>
<polygon fill="#191970" stroke="#191970" points="560.4569,-194.1163 558.3093,-183.7414 553.5183,-193.1911 560.4569,-194.1163"/>
</g>
<!-- Node16&#45;&gt;Node8 -->
<g id="edge28" class="edge">
<title>Node16&#45;&gt;Node8</title>
<path fill="none" stroke="#191970" d="M512.5962,-330.3939C436.5031,-302.6165 207.2277,-218.9209 119.8617,-187.0284"/>
<polygon fill="#191970" stroke="#191970" points="121.0036,-183.7194 110.4097,-183.578 118.6032,-190.295 121.0036,-183.7194"/>
</g>
<!-- Node17 -->
<g id="node18" class="node">
<title>Node17</title>
<g id="a_node18"><a xlink:href="communicator_8h.html" target="_top" xlink:title=" ">
<polygon fill="#ffffff" stroke="#000000" points="445.2461,-275.5 445.2461,-293.5 531.8369,-293.5 531.8369,-275.5 445.2461,-275.5"/>
<text text-anchor="middle" x="488.5415" y="-281.5" font-family="Helvetica,sans-Serif" font-size="10.00" fill="#000000">communicator.h</text>
</a>
</g>
</g>
<!-- Node16&#45;&gt;Node17 -->
<g id="edge24" class="edge">
<title>Node16&#45;&gt;Node17</title>
<path fill="none" stroke="#191970" d="M529.4502,-330.4179C522.4702,-322.5833 512.2018,-311.0575 503.6992,-301.5137"/>
<polygon fill="#191970" stroke="#191970" points="506.0741,-298.9178 496.8087,-293.7795 500.8474,-303.5743 506.0741,-298.9178"/>
</g>
<!-- Node17&#45;&gt;Node2 -->
<g id="edge26" class="edge">
<title>Node17&#45;&gt;Node2</title>
<path fill="none" stroke="#191970" d="M478.4686,-275.4179C469.516,-267.3458 456.2177,-255.3556 445.4552,-245.6517"/>
<polygon fill="#191970" stroke="#191970" points="447.6039,-242.8764 437.8333,-238.7795 442.9164,-248.0753 447.6039,-242.8764"/>
</g>
<!-- Node17&#45;&gt;Node3 -->
<g id="edge25" class="edge">
<title>Node17&#45;&gt;Node3</title>
<path fill="none" stroke="#191970" d="M507.8981,-275.3835C537.4815,-260.4625 593.7447,-228.023 624.5415,-184 633.9515,-170.5487 638.7566,-152.4126 641.1764,-138.7976"/>
<polygon fill="#191970" stroke="#191970" points="644.6799,-139.0339 642.6968,-128.6264 637.7568,-137.999 644.6799,-139.0339"/>
</g>
<!-- Node18&#45;&gt;Node3 -->
<g id="edge31" class="edge">
<title>Node18&#45;&gt;Node3</title>
<path fill="none" stroke="#191970" d="M652.4129,-440.3789C661.8142,-421.8991 681.5415,-378.4779 681.5415,-339.5 681.5415,-339.5 681.5415,-339.5 681.5415,-229.5 681.5415,-195.4876 665.11,-158.6418 653.857,-137.3963"/>
<polygon fill="#191970" stroke="#191970" points="656.8751,-135.6213 648.986,-128.5493 650.7431,-138.9975 656.8751,-135.6213"/>
</g>
<!-- Node18&#45;&gt;Node15 -->
<g id="edge30" class="edge">
<title>Node18&#45;&gt;Node15</title>
<path fill="none" stroke="#191970" d="M660.1048,-440.2818C670.7988,-431.8696 685.9159,-418.5588 695.5415,-404 712.4105,-378.4854 719.5415,-370.0869 719.5415,-339.5 719.5415,-339.5 719.5415,-339.5 719.5415,-284.5 719.5415,-252.2016 727.1928,-215.2607 732.5185,-193.4601"/>
<polygon fill="#191970" stroke="#191970" points="735.9674,-194.0987 735.0387,-183.5446 729.1831,-192.3743 735.9674,-194.0987"/>
</g>
<!-- Node19 -->
<g id="node20" class="node">
<title>Node19</title>
<g id="a_node20"><a xlink:href="sysprint_8h.html" target="_top" xlink:title=" ">
<polygon fill="#ffffff" stroke="#000000" points="565.4136,-385.5 565.4136,-403.5 653.6694,-403.5 653.6694,-385.5 565.4136,-385.5"/>
<text text-anchor="middle" x="609.5415" y="-391.5" font-family="Helvetica,sans-Serif" font-size="10.00" fill="#000000">config/sysprint.h</text>
</a>
</g>
</g>
<!-- Node18&#45;&gt;Node19 -->
<g id="edge32" class="edge">
<title>Node18&#45;&gt;Node19</title>
<path fill="none" stroke="#191970" d="M636.1003,-440.4179C629.3489,-432.8998 621.3974,-421.9829 615.7092,-412.6799"/>
<polygon fill="#191970" stroke="#191970" points="618.6732,-410.8087 610.746,-403.7795 612.5595,-414.2179 618.6732,-410.8087"/>
</g>
<!-- Node19&#45;&gt;Node16 -->
<g id="edge34" class="edge">
<title>Node19&#45;&gt;Node16</title>
<path fill="none" stroke="#191970" d="M597.6522,-385.4179C586.878,-377.1876 570.7713,-364.8839 557.9418,-355.0836"/>
<polygon fill="#191970" stroke="#191970" points="559.7605,-352.0685 549.6892,-348.7795 555.5112,-357.6313 559.7605,-352.0685"/>
</g>
<!-- Node19&#45;&gt;Node18 -->
<g id="edge33" class="edge">
<title>Node19&#45;&gt;Node18</title>
<path fill="none" stroke="#191970" d="M621.1595,-403.7795C627.9316,-411.3564 635.8735,-422.2885 641.522,-431.563"/>
<polygon fill="#191970" stroke="#191970" points="638.522,-433.3703 646.4329,-440.4179 644.6436,-429.9752 638.522,-433.3703"/>
</g>
</g>
</svg>
