<?xml version="1.0" encoding="UTF-8" standalone="no"?>
<!DOCTYPE svg PUBLIC "-//W3C//DTD SVG 1.1//EN"
 "http://www.w3.org/Graphics/SVG/1.1/DTD/svg11.dtd">
<!-- Generated by graphviz version 2.40.1 (20161225.0304)
 -->
<!-- Title: GluonicLQCD/io Pages: 1 -->
<svg width="161pt" height="294pt"
 viewBox="0.00 0.00 160.57 294.00" xmlns="http://www.w3.org/2000/svg" xmlns:xlink="http://www.w3.org/1999/xlink">
<g id="graph0" class="graph" transform="scale(1 1) rotate(0) translate(4 290)">
<title>GluonicLQCD/io</title>
<polygon fill="#ffffff" stroke="transparent" points="-4,4 -4,-290 156.5737,-290 156.5737,4 -4,4"/>
<g id="clust1" class="cluster">
<title>clusterdir_3f09a0a9308f13c2b8951181d225a4cf</title>
<g id="a_clust1"><a xlink:href="dir_3f09a0a9308f13c2b8951181d225a4cf.html" target="_top" xlink:title="GluonicLQCD">
<polygon fill="#ddddee" stroke="#000000" points="67.5737,-208 67.5737,-278 144.5737,-278 144.5737,-208 67.5737,-208"/>
<text text-anchor="middle" x="106.0737" y="-266" font-family="Helvetica,sans-Serif" font-size="10.00" fill="#000000">GluonicLQCD</text>
</a>
</g>
</g>
<!-- dir_9e75dbcc90935552caaf1cb18df4f8ce -->
<g id="node1" class="node">
<title>dir_9e75dbcc90935552caaf1cb18df4f8ce</title>
<g id="a_node1"><a xlink:href="dir_9e75dbcc90935552caaf1cb18df4f8ce.html" target="_top" xlink:title="io">
<polygon fill="#eeeeff" stroke="#000000" points="132.5737,-252 78.5737,-252 78.5737,-216 132.5737,-216 132.5737,-252"/>
<text text-anchor="middle" x="105.5737" y="-231" font-family="Helvetica,sans-Serif" font-size="10.00" fill="#000000">io</text>
</a>
</g>
</g>
<!-- dir_989e9c0c9f16acce756990d917da59a4 -->
<g id="node2" class="node">
<title>dir_989e9c0c9f16acce756990d917da59a4</title>
<g id="a_node2"><a xlink:href="dir_989e9c0c9f16acce756990d917da59a4.html" target="_top" xlink:title="parallelization">
<polygon fill="none" stroke="#000000" points="77.2213,-180 -.0739,-180 -.0739,-144 77.2213,-144 77.2213,-180"/>
<text text-anchor="middle" x="38.5737" y="-159" font-family="Helvetica,sans-Serif" font-size="10.00" fill="#000000">parallelization</text>
</a>
</g>
</g>
<!-- dir_9e75dbcc90935552caaf1cb18df4f8ce&#45;&gt;dir_989e9c0c9f16acce756990d917da59a4 -->
<g id="edge6" class="edge">
<title>dir_9e75dbcc90935552caaf1cb18df4f8ce&#45;&gt;dir_989e9c0c9f16acce756990d917da59a4</title>
<path fill="none" stroke="#000000" d="M88.6668,-215.8314C80.7925,-207.3694 71.2817,-197.1489 62.6724,-187.8971"/>
<polygon fill="#000000" stroke="#000000" points="65.0829,-185.3497 55.7083,-180.4133 59.9584,-190.1183 65.0829,-185.3497"/>
<g id="a_edge6&#45;headlabel"><a xlink:href="dir_000004_000011.html" target="_top" xlink:title="3">
<text text-anchor="middle" x="69.6102" y="-183.047" font-family="Helvetica,sans-Serif" font-size="10.00" fill="#000000">3</text>
</a>
</g>
</g>
<!-- dir_42ec03b7ccf42fefa95a9af8fd921dc0 -->
<g id="node3" class="node">
<title>dir_42ec03b7ccf42fefa95a9af8fd921dc0</title>
<g id="a_node3"><a xlink:href="dir_42ec03b7ccf42fefa95a9af8fd921dc0.html" target="_top" xlink:title="config">
<polygon fill="none" stroke="#000000" points="90.5737,-36 36.5737,-36 36.5737,0 90.5737,0 90.5737,-36"/>
<text text-anchor="middle" x="63.5737" y="-15" font-family="Helvetica,sans-Serif" font-size="10.00" fill="#000000">config</text>
</a>
</g>
</g>
<!-- dir_9e75dbcc90935552caaf1cb18df4f8ce&#45;&gt;dir_42ec03b7ccf42fefa95a9af8fd921dc0 -->
<g id="edge7" class="edge">
<title>dir_9e75dbcc90935552caaf1cb18df4f8ce&#45;&gt;dir_42ec03b7ccf42fefa95a9af8fd921dc0</title>
<path fill="none" stroke="#000000" d="M115.0313,-215.9894C129.9218,-184.9869 154.8585,-120.2245 131.5737,-72 124.6502,-57.6608 111.8638,-45.9615 99.2312,-37.1646"/>
<polygon fill="#000000" stroke="#000000" points="100.8755,-34.059 90.5841,-31.5415 97.0594,-39.9273 100.8755,-34.059"/>
<g id="a_edge7&#45;headlabel"><a xlink:href="dir_000004_000002.html" target="_top" xlink:title="2">
<text text-anchor="middle" x="105.4368" y="-30.6383" font-family="Helvetica,sans-Serif" font-size="10.00" fill="#000000">2</text>
</a>
</g>
</g>
<!-- dir_699b43c0649cdffda9b3cb63579617e5 -->
<g id="node4" class="node">
<title>dir_699b43c0649cdffda9b3cb63579617e5</title>
<g id="a_node4"><a xlink:href="dir_699b43c0649cdffda9b3cb63579617e5.html" target="_top" xlink:title="math">
<polygon fill="#ffffff" stroke="#ff0000" points="122.5737,-108 68.5737,-108 68.5737,-72 122.5737,-72 122.5737,-108"/>
<text text-anchor="middle" x="95.5737" y="-87" font-family="Helvetica,sans-Serif" font-size="10.00" fill="#000000">math</text>
</a>
</g>
</g>
<!-- dir_9e75dbcc90935552caaf1cb18df4f8ce&#45;&gt;dir_699b43c0649cdffda9b3cb63579617e5 -->
<g id="edge8" class="edge">
<title>dir_9e75dbcc90935552caaf1cb18df4f8ce&#45;&gt;dir_699b43c0649cdffda9b3cb63579617e5</title>
<path fill="none" stroke="#000000" d="M104.3072,-215.7623C102.6016,-191.201 99.5492,-147.2474 97.5428,-118.3541"/>
<polygon fill="#000000" stroke="#000000" points="101.0144,-117.8231 96.83,-108.0896 94.0312,-118.3081 101.0144,-117.8231"/>
<g id="a_edge8&#45;headlabel"><a xlink:href="dir_000004_000006.html" target="_top" xlink:title="2">
<text text-anchor="middle" x="104.0958" y="-118.2124" font-family="Helvetica,sans-Serif" font-size="10.00" fill="#000000">2</text>
</a>
</g>
</g>
<!-- dir_989e9c0c9f16acce756990d917da59a4&#45;&gt;dir_42ec03b7ccf42fefa95a9af8fd921dc0 -->
<g id="edge1" class="edge">
<title>dir_989e9c0c9f16acce756990d917da59a4&#45;&gt;dir_42ec03b7ccf42fefa95a9af8fd921dc0</title>
<path fill="none" stroke="#000000" d="M37.0668,-143.7623C38.8791,-119.0928 46.2921,-74.8598 53.2452,-45.9731"/>
<polygon fill="#000000" stroke="#000000" points="56.686,-46.6452 55.7749,-36.0896 49.9046,-44.9095 56.686,-46.6452"/>
<g id="a_edge1&#45;headlabel"><a xlink:href="dir_000011_000002.html" target="_top" xlink:title="1">
<text text-anchor="middle" x="58.5454" y="-47.8315" font-family="Helvetica,sans-Serif" font-size="10.00" fill="#000000">1</text>
</a>
</g>
</g>
<!-- dir_989e9c0c9f16acce756990d917da59a4&#45;&gt;dir_699b43c0649cdffda9b3cb63579617e5 -->
<g id="edge2" class="edge">
<title>dir_989e9c0c9f16acce756990d917da59a4&#45;&gt;dir_699b43c0649cdffda9b3cb63579617e5</title>
<path fill="none" stroke="#000000" d="M47.0048,-143.8314C52.8205,-135.454 60.6274,-125.3531 68.3305,-116.1749"/>
<polygon fill="#000000" stroke="#000000" points="71.1428,-118.273 75.0206,-108.4133 65.8406,-113.7028 71.1428,-118.273"/>
<g id="a_edge2&#45;headlabel"><a xlink:href="dir_000011_000006.html" target="_top" xlink:title="1">
<text text-anchor="middle" x="70.9466" y="-119.8494" font-family="Helvetica,sans-Serif" font-size="10.00" fill="#000000">1</text>
</a>
</g>
</g>
<!-- dir_42ec03b7ccf42fefa95a9af8fd921dc0&#45;&gt;dir_989e9c0c9f16acce756990d917da59a4 -->
<g id="edge3" class="edge">
<title>dir_42ec03b7ccf42fefa95a9af8fd921dc0&#45;&gt;dir_989e9c0c9f16acce756990d917da59a4</title>
<path fill="none" stroke="#000000" d="M65.0915,-36.0896C63.3017,-60.6805 55.899,-104.905 48.944,-133.8531"/>
<polygon fill="#000000" stroke="#000000" points="45.4967,-133.2072 46.4132,-143.7623 52.279,-134.9395 45.4967,-133.2072"/>
<g id="a_edge3&#45;headlabel"><a xlink:href="dir_000002_000011.html" target="_top" xlink:title="2">
<text text-anchor="middle" x="43.6352" y="-126.0218" font-family="Helvetica,sans-Serif" font-size="10.00" fill="#000000">2</text>
</a>
</g>
</g>
<!-- dir_699b43c0649cdffda9b3cb63579617e5&#45;&gt;dir_989e9c0c9f16acce756990d917da59a4 -->
<g id="edge4" class="edge">
<title>dir_699b43c0649cdffda9b3cb63579617e5&#45;&gt;dir_989e9c0c9f16acce756990d917da59a4</title>
<path fill="none" stroke="#000000" d="M86.9726,-108.4133C81.1184,-116.8239 73.2934,-126.9323 65.5925,-136.0923"/>
<polygon fill="#000000" stroke="#000000" points="62.7963,-133.9752 58.9096,-143.8314 68.0944,-138.5502 62.7963,-133.9752"/>
<g id="a_edge4&#45;headlabel"><a xlink:href="dir_000006_000011.html" target="_top" xlink:title="3">
<text text-anchor="middle" x="62.9967" y="-126.3989" font-family="Helvetica,sans-Serif" font-size="10.00" fill="#000000">3</text>
</a>
</g>
</g>
<!-- dir_699b43c0649cdffda9b3cb63579617e5&#45;&gt;dir_42ec03b7ccf42fefa95a9af8fd921dc0 -->
<g id="edge5" class="edge">
<title>dir_699b43c0649cdffda9b3cb63579617e5&#45;&gt;dir_42ec03b7ccf42fefa95a9af8fd921dc0</title>
<path fill="none" stroke="#000000" d="M87.4988,-71.8314C83.9636,-63.8771 79.7377,-54.369 75.8281,-45.5723"/>
<polygon fill="#000000" stroke="#000000" points="79.0172,-44.1299 71.7574,-36.4133 72.6205,-46.9729 79.0172,-44.1299"/>
<g id="a_edge5&#45;headlabel"><a xlink:href="dir_000006_000002.html" target="_top" xlink:title="1">
<text text-anchor="middle" x="83.0716" y="-43.2616" font-family="Helvetica,sans-Serif" font-size="10.00" fill="#000000">1</text>
</a>
</g>
</g>
</g>
</svg>
