<?xml version="1.0" encoding="UTF-8" standalone="no"?>
<!DOCTYPE svg PUBLIC "-//W3C//DTD SVG 1.1//EN"
 "http://www.w3.org/Graphics/SVG/1.1/DTD/svg11.dtd">
<!-- Generated by graphviz version 2.40.1 (20161225.0304)
 -->
<!-- Title: GluonicLQCD Pages: 1 -->
<svg width="346pt" height="508pt"
 viewBox="0.00 0.00 346.00 508.00" xmlns="http://www.w3.org/2000/svg" xmlns:xlink="http://www.w3.org/1999/xlink">
<g id="graph0" class="graph" transform="scale(1 1) rotate(0) translate(4 504)">
<title>GluonicLQCD</title>
<polygon fill="#ffffff" stroke="transparent" points="-4,4 -4,-504 342,-504 342,4 -4,4"/>
<g id="clust1" class="cluster">
<title>clusterdir_3f09a0a9308f13c2b8951181d225a4cf</title>
<g id="a_clust1"><a xlink:href="dir_3f09a0a9308f13c2b8951181d225a4cf.html" target="_top">
<polygon fill="#eeeeff" stroke="#000000" points="8,-8 8,-492 330,-492 330,-8 8,-8"/>
</a>
</g>
</g>
<!-- dir_3f09a0a9308f13c2b8951181d225a4cf -->
<g id="node1" class="node">
<title>dir_3f09a0a9308f13c2b8951181d225a4cf</title>
<text text-anchor="middle" x="126" y="-463" font-family="Helvetica,sans-Serif" font-size="10.00" fill="#000000">GluonicLQCD</text>
</g>
<!-- dir_d54256f8ed9d1ba4550e8250d483f147 -->
<g id="node4" class="node">
<title>dir_d54256f8ed9d1ba4550e8250d483f147</title>
<g id="a_node4"><a xlink:href="dir_d54256f8ed9d1ba4550e8250d483f147.html" target="_top" xlink:title="flow">
<polygon fill="#ffffff" stroke="#000000" points="288,-340 234,-340 234,-304 288,-304 288,-340"/>
<text text-anchor="middle" x="261" y="-319" font-family="Helvetica,sans-Serif" font-size="10.00" fill="#000000">flow</text>
</a>
</g>
</g>
<!-- dir_3f09a0a9308f13c2b8951181d225a4cf&#45;&gt;dir_d54256f8ed9d1ba4550e8250d483f147 -->
<g id="edge21" class="edge">
<title>dir_3f09a0a9308f13c2b8951181d225a4cf&#45;&gt;dir_d54256f8ed9d1ba4550e8250d483f147</title>
<path fill="none" stroke="#000000" d="M147.0898,-447.883C158.6256,-437.6837 172.9741,-424.5158 185,-412 204.7829,-391.4112 225.5928,-366.5103 240.4252,-348.1247"/>
<polygon fill="#000000" stroke="#000000" points="243.2735,-350.1673 246.7944,-340.1746 237.8104,-345.7906 243.2735,-350.1673"/>
<g id="a_edge21&#45;headlabel"><a xlink:href="dir_000000_000003.html" target="_top" xlink:title="1">
<text text-anchor="middle" x="243.2419" y="-351.7479" font-family="Helvetica,sans-Serif" font-size="10.00" fill="#000000">1</text>
</a>
</g>
</g>
<!-- dir_9e75dbcc90935552caaf1cb18df4f8ce -->
<g id="node5" class="node">
<title>dir_9e75dbcc90935552caaf1cb18df4f8ce</title>
<g id="a_node5"><a xlink:href="dir_9e75dbcc90935552caaf1cb18df4f8ce.html" target="_top" xlink:title="io">
<polygon fill="#ffffff" stroke="#000000" points="90,-268 36,-268 36,-232 90,-232 90,-268"/>
<text text-anchor="middle" x="63" y="-247" font-family="Helvetica,sans-Serif" font-size="10.00" fill="#000000">io</text>
</a>
</g>
</g>
<!-- dir_3f09a0a9308f13c2b8951181d225a4cf&#45;&gt;dir_9e75dbcc90935552caaf1cb18df4f8ce -->
<g id="edge22" class="edge">
<title>dir_3f09a0a9308f13c2b8951181d225a4cf&#45;&gt;dir_9e75dbcc90935552caaf1cb18df4f8ce</title>
<path fill="none" stroke="#000000" d="M106.0451,-447.8474C82.8258,-425.2363 45.7837,-384.1644 31,-340 25.9211,-324.8275 26.7712,-319.4311 31,-304 33.5805,-294.5837 38.2742,-285.1443 43.2859,-276.8513"/>
<polygon fill="#000000" stroke="#000000" points="46.2851,-278.6585 48.7641,-268.3577 40.4026,-274.8644 46.2851,-278.6585"/>
<g id="a_edge22&#45;headlabel"><a xlink:href="dir_000000_000004.html" target="_top" xlink:title="6">
<text text-anchor="middle" x="46.7229" y="-280.2182" font-family="Helvetica,sans-Serif" font-size="10.00" fill="#000000">6</text>
</a>
</g>
</g>
<!-- dir_a4d2cabbfa9ce39e497395a7adc9de8f -->
<g id="node8" class="node">
<title>dir_a4d2cabbfa9ce39e497395a7adc9de8f</title>
<g id="a_node8"><a xlink:href="dir_a4d2cabbfa9ce39e497395a7adc9de8f.html" target="_top" xlink:title="observables">
<polygon fill="#ffffff" stroke="#ff0000" points="109.9209,-340 40.0791,-340 40.0791,-304 109.9209,-304 109.9209,-340"/>
<text text-anchor="middle" x="75" y="-319" font-family="Helvetica,sans-Serif" font-size="10.00" fill="#000000">observables</text>
</a>
</g>
</g>
<!-- dir_3f09a0a9308f13c2b8951181d225a4cf&#45;&gt;dir_a4d2cabbfa9ce39e497395a7adc9de8f -->
<g id="edge20" class="edge">
<title>dir_3f09a0a9308f13c2b8951181d225a4cf&#45;&gt;dir_a4d2cabbfa9ce39e497395a7adc9de8f</title>
<path fill="none" stroke="#000000" d="M119.5408,-447.7623C110.7654,-422.9846 95.0003,-378.4714 84.7728,-349.5939"/>
<polygon fill="#000000" stroke="#000000" points="88.0445,-348.3474 81.4067,-340.0896 81.4461,-350.6844 88.0445,-348.3474"/>
<g id="a_edge20&#45;headlabel"><a xlink:href="dir_000000_000009.html" target="_top" xlink:title="3">
<text text-anchor="middle" x="91.9208" y="-347.7879" font-family="Helvetica,sans-Serif" font-size="10.00" fill="#000000">3</text>
</a>
</g>
</g>
<!-- dir_80f6a6728bd800407e006ab7b547c07a -->
<g id="node10" class="node">
<title>dir_80f6a6728bd800407e006ab7b547c07a</title>
<g id="a_node10"><a xlink:href="dir_80f6a6728bd800407e006ab7b547c07a.html" target="_top" xlink:title="tests">
<polygon fill="#ffffff" stroke="#000000" points="176,-412 122,-412 122,-376 176,-376 176,-412"/>
<text text-anchor="middle" x="149" y="-391" font-family="Helvetica,sans-Serif" font-size="10.00" fill="#000000">tests</text>
</a>
</g>
</g>
<!-- dir_3f09a0a9308f13c2b8951181d225a4cf&#45;&gt;dir_80f6a6728bd800407e006ab7b547c07a -->
<g id="edge19" class="edge">
<title>dir_3f09a0a9308f13c2b8951181d225a4cf&#45;&gt;dir_80f6a6728bd800407e006ab7b547c07a</title>
<path fill="none" stroke="#000000" d="M131.8039,-447.8314C134.2908,-440.0463 137.2531,-430.7729 140.0125,-422.1347"/>
<polygon fill="#000000" stroke="#000000" points="143.409,-423.0041 143.118,-412.4133 136.7409,-420.874 143.409,-423.0041"/>
<g id="a_edge19&#45;headlabel"><a xlink:href="dir_000000_000012.html" target="_top" xlink:title="1">
<text text-anchor="middle" x="145.0199" y="-424.2922" font-family="Helvetica,sans-Serif" font-size="10.00" fill="#000000">1</text>
</a>
</g>
</g>
<!-- dir_c02060125093f1f908938da7e8d036d2 -->
<g id="node2" class="node">
<title>dir_c02060125093f1f908938da7e8d036d2</title>
<g id="a_node2"><a xlink:href="dir_c02060125093f1f908938da7e8d036d2.html" target="_top" xlink:title="actions">
<polygon fill="#ffffff" stroke="#000000" points="242,-268 188,-268 188,-232 242,-232 242,-268"/>
<text text-anchor="middle" x="215" y="-247" font-family="Helvetica,sans-Serif" font-size="10.00" fill="#000000">actions</text>
</a>
</g>
</g>
<!-- dir_42ec03b7ccf42fefa95a9af8fd921dc0 -->
<g id="node3" class="node">
<title>dir_42ec03b7ccf42fefa95a9af8fd921dc0</title>
<g id="a_node3"><a xlink:href="dir_42ec03b7ccf42fefa95a9af8fd921dc0.html" target="_top" xlink:title="config">
<polygon fill="#ffffff" stroke="#000000" points="212,-196 158,-196 158,-160 212,-160 212,-196"/>
<text text-anchor="middle" x="185" y="-175" font-family="Helvetica,sans-Serif" font-size="10.00" fill="#000000">config</text>
</a>
</g>
</g>
<!-- dir_c02060125093f1f908938da7e8d036d2&#45;&gt;dir_42ec03b7ccf42fefa95a9af8fd921dc0 -->
<g id="edge1" class="edge">
<title>dir_c02060125093f1f908938da7e8d036d2&#45;&gt;dir_42ec03b7ccf42fefa95a9af8fd921dc0</title>
<path fill="none" stroke="#000000" d="M207.4297,-231.8314C204.1507,-223.9617 200.238,-214.5712 196.6055,-205.8533"/>
<polygon fill="#000000" stroke="#000000" points="199.7492,-204.2979 192.6722,-196.4133 193.2876,-206.9902 199.7492,-204.2979"/>
<g id="a_edge1&#45;headlabel"><a xlink:href="dir_000001_000002.html" target="_top" xlink:title="3">
<text text-anchor="middle" x="203.7525" y="-203.524" font-family="Helvetica,sans-Serif" font-size="10.00" fill="#000000">3</text>
</a>
</g>
</g>
<!-- dir_699b43c0649cdffda9b3cb63579617e5 -->
<g id="node7" class="node">
<title>dir_699b43c0649cdffda9b3cb63579617e5</title>
<g id="a_node7"><a xlink:href="dir_699b43c0649cdffda9b3cb63579617e5.html" target="_top" xlink:title="math">
<polygon fill="#ffffff" stroke="#ff0000" points="171,-52 117,-52 117,-16 171,-16 171,-52"/>
<text text-anchor="middle" x="144" y="-31" font-family="Helvetica,sans-Serif" font-size="10.00" fill="#000000">math</text>
</a>
</g>
</g>
<!-- dir_c02060125093f1f908938da7e8d036d2&#45;&gt;dir_699b43c0649cdffda9b3cb63579617e5 -->
<g id="edge2" class="edge">
<title>dir_c02060125093f1f908938da7e8d036d2&#45;&gt;dir_699b43c0649cdffda9b3cb63579617e5</title>
<path fill="none" stroke="#000000" d="M228.0814,-231.5551C248.7725,-199.8969 283.8842,-134.1727 255,-88 238.9463,-62.3375 206.8156,-48.5544 181.2365,-41.3542"/>
<polygon fill="#000000" stroke="#000000" points="182.0073,-37.9384 171.4494,-38.8224 180.2542,-44.7153 182.0073,-37.9384"/>
<g id="a_edge2&#45;headlabel"><a xlink:href="dir_000001_000006.html" target="_top" xlink:title="3">
<text text-anchor="middle" x="186.1984" y="-33.0898" font-family="Helvetica,sans-Serif" font-size="10.00" fill="#000000">3</text>
</a>
</g>
</g>
<!-- dir_a2781ce1928e1955c4e388a2367749c5 -->
<g id="node6" class="node">
<title>dir_a2781ce1928e1955c4e388a2367749c5</title>
<g id="a_node6"><a xlink:href="dir_a2781ce1928e1955c4e388a2367749c5.html" target="_top" xlink:title="lib">
<polygon fill="#ffffff" stroke="#000000" points="246,-124 192,-124 192,-88 246,-88 246,-124"/>
<text text-anchor="middle" x="219" y="-103" font-family="Helvetica,sans-Serif" font-size="10.00" fill="#000000">lib</text>
</a>
</g>
</g>
<!-- dir_42ec03b7ccf42fefa95a9af8fd921dc0&#45;&gt;dir_a2781ce1928e1955c4e388a2367749c5 -->
<g id="edge6" class="edge">
<title>dir_42ec03b7ccf42fefa95a9af8fd921dc0&#45;&gt;dir_a2781ce1928e1955c4e388a2367749c5</title>
<path fill="none" stroke="#000000" d="M193.5796,-159.8314C197.3358,-151.8771 201.8257,-142.369 205.9798,-133.5723"/>
<polygon fill="#000000" stroke="#000000" points="209.1996,-134.9503 210.3048,-124.4133 202.8699,-131.9612 209.1996,-134.9503"/>
<g id="a_edge6&#45;headlabel"><a xlink:href="dir_000002_000005.html" target="_top" xlink:title="1">
<text text-anchor="middle" x="210.2321" y="-136.4131" font-family="Helvetica,sans-Serif" font-size="10.00" fill="#000000">1</text>
</a>
</g>
</g>
<!-- dir_989e9c0c9f16acce756990d917da59a4 -->
<g id="node9" class="node">
<title>dir_989e9c0c9f16acce756990d917da59a4</title>
<g id="a_node9"><a xlink:href="dir_989e9c0c9f16acce756990d917da59a4.html" target="_top" xlink:title="parallelization">
<polygon fill="#ffffff" stroke="#000000" points="153.6476,-124 76.3524,-124 76.3524,-88 153.6476,-88 153.6476,-124"/>
<text text-anchor="middle" x="115" y="-103" font-family="Helvetica,sans-Serif" font-size="10.00" fill="#000000">parallelization</text>
</a>
</g>
</g>
<!-- dir_42ec03b7ccf42fefa95a9af8fd921dc0&#45;&gt;dir_989e9c0c9f16acce756990d917da59a4 -->
<g id="edge5" class="edge">
<title>dir_42ec03b7ccf42fefa95a9af8fd921dc0&#45;&gt;dir_989e9c0c9f16acce756990d917da59a4</title>
<path fill="none" stroke="#000000" d="M161.3837,-159.8314C152.3321,-151.3694 142.2103,-141.1489 133.6698,-131.8971"/>
<polygon fill="#000000" stroke="#000000" points="136.2202,-129.499 126.9258,-124.4133 131.0201,-134.185 136.2202,-129.499"/>
<g id="a_edge5&#45;headlabel"><a xlink:href="dir_000002_000011.html" target="_top" xlink:title="2">
<text text-anchor="middle" x="140.7357" y="-127.2686" font-family="Helvetica,sans-Serif" font-size="10.00" fill="#000000">2</text>
</a>
</g>
</g>
<!-- dir_d54256f8ed9d1ba4550e8250d483f147&#45;&gt;dir_c02060125093f1f908938da7e8d036d2 -->
<g id="edge23" class="edge">
<title>dir_d54256f8ed9d1ba4550e8250d483f147&#45;&gt;dir_c02060125093f1f908938da7e8d036d2</title>
<path fill="none" stroke="#000000" d="M249.3923,-303.8314C244.2022,-295.7079 237.9768,-285.9637 232.2575,-277.0118"/>
<polygon fill="#000000" stroke="#000000" points="235.0974,-274.9559 226.764,-268.4133 229.1985,-278.7246 235.0974,-274.9559"/>
<g id="a_edge23&#45;headlabel"><a xlink:href="dir_000003_000001.html" target="_top" xlink:title="1">
<text text-anchor="middle" x="239.4253" y="-273.4564" font-family="Helvetica,sans-Serif" font-size="10.00" fill="#000000">1</text>
</a>
</g>
</g>
<!-- dir_d54256f8ed9d1ba4550e8250d483f147&#45;&gt;dir_42ec03b7ccf42fefa95a9af8fd921dc0 -->
<g id="edge25" class="edge">
<title>dir_d54256f8ed9d1ba4550e8250d483f147&#45;&gt;dir_42ec03b7ccf42fefa95a9af8fd921dc0</title>
<path fill="none" stroke="#000000" d="M262.8447,-303.911C263.9453,-284.8453 263.2374,-254.5147 251,-232 243.8885,-218.9161 232.1763,-207.7774 220.5766,-199.0751"/>
<polygon fill="#000000" stroke="#000000" points="222.4059,-196.0823 212.2174,-193.1761 218.3698,-201.8016 222.4059,-196.0823"/>
<g id="a_edge25&#45;headlabel"><a xlink:href="dir_000003_000002.html" target="_top" xlink:title="1">
<text text-anchor="middle" x="226.9799" y="-192.835" font-family="Helvetica,sans-Serif" font-size="10.00" fill="#000000">1</text>
</a>
</g>
</g>
<!-- dir_d54256f8ed9d1ba4550e8250d483f147&#45;&gt;dir_699b43c0649cdffda9b3cb63579617e5 -->
<g id="edge26" class="edge">
<title>dir_d54256f8ed9d1ba4550e8250d483f147&#45;&gt;dir_699b43c0649cdffda9b3cb63579617e5</title>
<path fill="none" stroke="#000000" d="M267.6223,-303.9742C281.7983,-262.0172 310.2731,-156.2148 265,-88 246.3065,-59.8338 209.203,-46.2105 180.9852,-39.715"/>
<polygon fill="#000000" stroke="#000000" points="181.5471,-36.2568 171.0418,-37.6307 180.111,-43.1079 181.5471,-36.2568"/>
<g id="a_edge26&#45;headlabel"><a xlink:href="dir_000003_000006.html" target="_top" xlink:title="2">
<text text-anchor="middle" x="185.6478" y="-31.2153" font-family="Helvetica,sans-Serif" font-size="10.00" fill="#000000">2</text>
</a>
</g>
</g>
<!-- dir_d54256f8ed9d1ba4550e8250d483f147&#45;&gt;dir_989e9c0c9f16acce756990d917da59a4 -->
<g id="edge24" class="edge">
<title>dir_d54256f8ed9d1ba4550e8250d483f147&#45;&gt;dir_989e9c0c9f16acce756990d917da59a4</title>
<path fill="none" stroke="#000000" d="M263.6456,-303.7331C265.7033,-285.3068 267.271,-256.2007 261,-232 251.8175,-196.5637 247.3457,-185.4156 221,-160 204.6496,-144.2268 182.7794,-132.0386 163.1518,-123.2668"/>
<polygon fill="#000000" stroke="#000000" points="164.3011,-119.9516 153.7306,-119.2343 161.5466,-126.3869 164.3011,-119.9516"/>
<g id="a_edge24&#45;headlabel"><a xlink:href="dir_000003_000011.html" target="_top" xlink:title="1">
<text text-anchor="middle" x="168.7229" y="-115.7558" font-family="Helvetica,sans-Serif" font-size="10.00" fill="#000000">1</text>
</a>
</g>
</g>
<!-- dir_9e75dbcc90935552caaf1cb18df4f8ce&#45;&gt;dir_42ec03b7ccf42fefa95a9af8fd921dc0 -->
<g id="edge28" class="edge">
<title>dir_9e75dbcc90935552caaf1cb18df4f8ce&#45;&gt;dir_42ec03b7ccf42fefa95a9af8fd921dc0</title>
<path fill="none" stroke="#000000" d="M90.0758,-234.0209C107.5291,-223.7205 130.4154,-210.2139 149.3426,-199.0437"/>
<polygon fill="#000000" stroke="#000000" points="151.1667,-202.0313 157.9999,-193.9345 147.6089,-196.0028 151.1667,-202.0313"/>
<g id="a_edge28&#45;headlabel"><a xlink:href="dir_000004_000002.html" target="_top" xlink:title="2">
<text text-anchor="middle" x="149.5141" y="-203.3034" font-family="Helvetica,sans-Serif" font-size="10.00" fill="#000000">2</text>
</a>
</g>
</g>
<!-- dir_9e75dbcc90935552caaf1cb18df4f8ce&#45;&gt;dir_699b43c0649cdffda9b3cb63579617e5 -->
<g id="edge29" class="edge">
<title>dir_9e75dbcc90935552caaf1cb18df4f8ce&#45;&gt;dir_699b43c0649cdffda9b3cb63579617e5</title>
<path fill="none" stroke="#000000" d="M58.4087,-231.6496C51.5708,-200.1341 42.0175,-134.6191 67,-88 75.8968,-71.398 92.4111,-58.7932 107.871,-49.9543"/>
<polygon fill="#000000" stroke="#000000" points="109.6206,-52.9878 116.7862,-45.1836 106.3179,-46.8159 109.6206,-52.9878"/>
<g id="a_edge29&#45;headlabel"><a xlink:href="dir_000004_000006.html" target="_top" xlink:title="2">
<text text-anchor="middle" x="107.7909" y="-54.1871" font-family="Helvetica,sans-Serif" font-size="10.00" fill="#000000">2</text>
</a>
</g>
</g>
<!-- dir_9e75dbcc90935552caaf1cb18df4f8ce&#45;&gt;dir_989e9c0c9f16acce756990d917da59a4 -->
<g id="edge27" class="edge">
<title>dir_9e75dbcc90935552caaf1cb18df4f8ce&#45;&gt;dir_989e9c0c9f16acce756990d917da59a4</title>
<path fill="none" stroke="#000000" d="M69.5858,-231.7623C78.5333,-206.9846 94.6076,-162.4714 105.0355,-133.5939"/>
<polygon fill="#000000" stroke="#000000" points="108.3631,-134.6839 108.4676,-124.0896 101.7792,-132.3064 108.3631,-134.6839"/>
<g id="a_edge27&#45;headlabel"><a xlink:href="dir_000004_000011.html" target="_top" xlink:title="3">
<text text-anchor="middle" x="109.8127" y="-136.0292" font-family="Helvetica,sans-Serif" font-size="10.00" fill="#000000">3</text>
</a>
</g>
</g>
<!-- dir_699b43c0649cdffda9b3cb63579617e5&#45;&gt;dir_42ec03b7ccf42fefa95a9af8fd921dc0 -->
<g id="edge18" class="edge">
<title>dir_699b43c0649cdffda9b3cb63579617e5&#45;&gt;dir_42ec03b7ccf42fefa95a9af8fd921dc0</title>
<path fill="none" stroke="#000000" d="M150.9614,-52.347C154.7723,-62.7281 159.4308,-75.9971 163,-88 169.132,-108.6214 174.8618,-132.2619 178.9358,-150.1379"/>
<polygon fill="#000000" stroke="#000000" points="175.5286,-150.9397 181.1337,-159.9305 182.3587,-149.4067 175.5286,-150.9397"/>
<g id="a_edge18&#45;headlabel"><a xlink:href="dir_000006_000002.html" target="_top" xlink:title="1">
<text text-anchor="middle" x="171.9711" y="-145.0542" font-family="Helvetica,sans-Serif" font-size="10.00" fill="#000000">1</text>
</a>
</g>
</g>
<!-- dir_699b43c0649cdffda9b3cb63579617e5&#45;&gt;dir_989e9c0c9f16acce756990d917da59a4 -->
<g id="edge17" class="edge">
<title>dir_699b43c0649cdffda9b3cb63579617e5&#45;&gt;dir_989e9c0c9f16acce756990d917da59a4</title>
<path fill="none" stroke="#000000" d="M142.5596,-52.4133C140.1066,-60.3991 136.4722,-69.9155 132.5686,-78.6975"/>
<polygon fill="#000000" stroke="#000000" points="129.3615,-77.2929 128.2703,-87.8314 135.6952,-80.2735 129.3615,-77.2929"/>
<g id="a_edge17&#45;headlabel"><a xlink:href="dir_000006_000011.html" target="_top" xlink:title="3">
<text text-anchor="middle" x="128.323" y="-69.8315" font-family="Helvetica,sans-Serif" font-size="10.00" fill="#000000">3</text>
</a>
</g>
</g>
<!-- dir_a4d2cabbfa9ce39e497395a7adc9de8f&#45;&gt;dir_42ec03b7ccf42fefa95a9af8fd921dc0 -->
<g id="edge14" class="edge">
<title>dir_a4d2cabbfa9ce39e497395a7adc9de8f&#45;&gt;dir_42ec03b7ccf42fefa95a9af8fd921dc0</title>
<path fill="none" stroke="#000000" d="M88.9316,-303.7623C108.1896,-278.5518 143.0546,-232.9103 165.0662,-204.0952"/>
<polygon fill="#000000" stroke="#000000" points="167.8925,-206.161 171.1815,-196.0896 162.3297,-201.9117 167.8925,-206.161"/>
<g id="a_edge14&#45;headlabel"><a xlink:href="dir_000009_000002.html" target="_top" xlink:title="8">
<text text-anchor="middle" x="167.9667" y="-207.7411" font-family="Helvetica,sans-Serif" font-size="10.00" fill="#000000">8</text>
</a>
</g>
</g>
<!-- dir_a4d2cabbfa9ce39e497395a7adc9de8f&#45;&gt;dir_9e75dbcc90935552caaf1cb18df4f8ce -->
<g id="edge16" class="edge">
<title>dir_a4d2cabbfa9ce39e497395a7adc9de8f&#45;&gt;dir_9e75dbcc90935552caaf1cb18df4f8ce</title>
<path fill="none" stroke="#000000" d="M71.9719,-303.8314C70.6885,-296.131 69.1624,-286.9743 67.7361,-278.4166"/>
<polygon fill="#000000" stroke="#000000" points="71.1653,-277.7018 66.0689,-268.4133 64.2606,-278.8526 71.1653,-277.7018"/>
<g id="a_edge16&#45;headlabel"><a xlink:href="dir_000009_000004.html" target="_top" xlink:title="4">
<text text-anchor="middle" x="74.5568" y="-277.7807" font-family="Helvetica,sans-Serif" font-size="10.00" fill="#000000">4</text>
</a>
</g>
</g>
<!-- dir_a4d2cabbfa9ce39e497395a7adc9de8f&#45;&gt;dir_699b43c0649cdffda9b3cb63579617e5 -->
<g id="edge15" class="edge">
<title>dir_a4d2cabbfa9ce39e497395a7adc9de8f&#45;&gt;dir_699b43c0649cdffda9b3cb63579617e5</title>
<path fill="none" stroke="#000000" d="M52.7787,-303.9032C42.8692,-294.3888 32.26,-281.8349 27,-268 9.0116,-220.687 10.3247,-145.5139 50,-88 63.6844,-68.1629 87.1966,-54.6603 107.2816,-46.1183"/>
<polygon fill="#000000" stroke="#000000" points="108.8171,-49.274 116.8081,-42.3174 106.223,-42.7724 108.8171,-49.274"/>
<g id="a_edge15&#45;headlabel"><a xlink:href="dir_000009_000006.html" target="_top" xlink:title="9">
<text text-anchor="middle" x="106.5306" y="-50.2431" font-family="Helvetica,sans-Serif" font-size="10.00" fill="#000000">9</text>
</a>
</g>
</g>
<!-- dir_a4d2cabbfa9ce39e497395a7adc9de8f&#45;&gt;dir_989e9c0c9f16acce756990d917da59a4 -->
<g id="edge13" class="edge">
<title>dir_a4d2cabbfa9ce39e497395a7adc9de8f&#45;&gt;dir_989e9c0c9f16acce756990d917da59a4</title>
<path fill="none" stroke="#000000" d="M84.9701,-303.5448C90.0176,-293.3531 95.75,-280.2993 99,-268 111.0655,-222.339 114.1967,-167.2605 114.9165,-134.5161"/>
<polygon fill="#000000" stroke="#000000" points="118.4192,-134.3676 115.0776,-124.3136 111.4201,-134.257 118.4192,-134.3676"/>
<g id="a_edge13&#45;headlabel"><a xlink:href="dir_000009_000011.html" target="_top" xlink:title="8">
<text text-anchor="middle" x="121.2015" y="-135.0066" font-family="Helvetica,sans-Serif" font-size="10.00" fill="#000000">8</text>
</a>
</g>
</g>
<!-- dir_989e9c0c9f16acce756990d917da59a4&#45;&gt;dir_42ec03b7ccf42fefa95a9af8fd921dc0 -->
<g id="edge3" class="edge">
<title>dir_989e9c0c9f16acce756990d917da59a4&#45;&gt;dir_42ec03b7ccf42fefa95a9af8fd921dc0</title>
<path fill="none" stroke="#000000" d="M138.6101,-124.1628C147.7308,-132.6891 157.9389,-143.0016 166.5212,-152.3099"/>
<polygon fill="#000000" stroke="#000000" points="163.998,-154.7384 173.2884,-159.8314 169.2018,-150.0564 163.998,-154.7384"/>
<g id="a_edge3&#45;headlabel"><a xlink:href="dir_000011_000002.html" target="_top" xlink:title="1">
<text text-anchor="middle" x="159.4831" y="-150.9652" font-family="Helvetica,sans-Serif" font-size="10.00" fill="#000000">1</text>
</a>
</g>
</g>
<!-- dir_989e9c0c9f16acce756990d917da59a4&#45;&gt;dir_699b43c0649cdffda9b3cb63579617e5 -->
<g id="edge4" class="edge">
<title>dir_989e9c0c9f16acce756990d917da59a4&#45;&gt;dir_699b43c0649cdffda9b3cb63579617e5</title>
<path fill="none" stroke="#000000" d="M116.3655,-87.8314C118.7942,-79.8771 122.4137,-70.369 126.3117,-61.5723"/>
<polygon fill="#000000" stroke="#000000" points="129.5298,-62.9532 130.6075,-52.4133 123.1923,-59.9806 129.5298,-62.9532"/>
<g id="a_edge4&#45;headlabel"><a xlink:href="dir_000011_000006.html" target="_top" xlink:title="1">
<text text-anchor="middle" x="130.574" y="-64.4132" font-family="Helvetica,sans-Serif" font-size="10.00" fill="#000000">1</text>
</a>
</g>
</g>
<!-- dir_80f6a6728bd800407e006ab7b547c07a&#45;&gt;dir_c02060125093f1f908938da7e8d036d2 -->
<g id="edge7" class="edge">
<title>dir_80f6a6728bd800407e006ab7b547c07a&#45;&gt;dir_c02060125093f1f908938da7e8d036d2</title>
<path fill="none" stroke="#000000" d="M157.5902,-375.5185C162.4263,-365.0954 168.5674,-351.8292 174,-340 183.6134,-319.0674 194.4107,-295.3578 202.511,-277.5304"/>
<polygon fill="#000000" stroke="#000000" points="205.7608,-278.8388 206.709,-268.2865 199.3872,-275.9443 205.7608,-278.8388"/>
<g id="a_edge7&#45;headlabel"><a xlink:href="dir_000012_000001.html" target="_top" xlink:title="2">
<text text-anchor="middle" x="206.8596" y="-280.2857" font-family="Helvetica,sans-Serif" font-size="10.00" fill="#000000">2</text>
</a>
</g>
</g>
<!-- dir_80f6a6728bd800407e006ab7b547c07a&#45;&gt;dir_42ec03b7ccf42fefa95a9af8fd921dc0 -->
<g id="edge9" class="edge">
<title>dir_80f6a6728bd800407e006ab7b547c07a&#45;&gt;dir_42ec03b7ccf42fefa95a9af8fd921dc0</title>
<path fill="none" stroke="#000000" d="M152.0074,-375.9555C158.2809,-338.3144 172.8022,-251.1867 180.3126,-206.1246"/>
<polygon fill="#000000" stroke="#000000" points="183.7841,-206.5844 181.9758,-196.1451 176.8794,-205.4336 183.7841,-206.5844"/>
<g id="a_edge9&#45;headlabel"><a xlink:href="dir_000012_000002.html" target="_top" xlink:title="2">
<text text-anchor="middle" x="185.9939" y="-207.5969" font-family="Helvetica,sans-Serif" font-size="10.00" fill="#000000">2</text>
</a>
</g>
</g>
<!-- dir_80f6a6728bd800407e006ab7b547c07a&#45;&gt;dir_9e75dbcc90935552caaf1cb18df4f8ce -->
<g id="edge12" class="edge">
<title>dir_80f6a6728bd800407e006ab7b547c07a&#45;&gt;dir_9e75dbcc90935552caaf1cb18df4f8ce</title>
<path fill="none" stroke="#000000" d="M145.669,-375.9875C141.5674,-356.9855 133.321,-326.7077 119,-304 112.3019,-293.3794 103.0832,-283.3509 94.0581,-274.8853"/>
<polygon fill="#000000" stroke="#000000" points="96.3583,-272.2467 86.5821,-268.163 91.6778,-277.4519 96.3583,-272.2467"/>
<g id="a_edge12&#45;headlabel"><a xlink:href="dir_000012_000004.html" target="_top" xlink:title="1">
<text text-anchor="middle" x="100.9296" y="-269.5388" font-family="Helvetica,sans-Serif" font-size="10.00" fill="#000000">1</text>
</a>
</g>
</g>
<!-- dir_80f6a6728bd800407e006ab7b547c07a&#45;&gt;dir_699b43c0649cdffda9b3cb63579617e5 -->
<g id="edge11" class="edge">
<title>dir_80f6a6728bd800407e006ab7b547c07a&#45;&gt;dir_699b43c0649cdffda9b3cb63579617e5</title>
<path fill="none" stroke="#000000" d="M176.092,-391.5868C209.3557,-387.159 265.2518,-374.7162 297,-340 324.9376,-309.4506 321,-291.3978 321,-250 321,-250 321,-250 321,-178 321,-133.669 310.3129,-118.3498 278,-88 250.9341,-62.5785 210.3589,-48.5002 180.9509,-41.1473"/>
<polygon fill="#000000" stroke="#000000" points="181.5908,-37.7024 171.0551,-38.8194 179.9879,-44.5164 181.5908,-37.7024"/>
<g id="a_edge11&#45;headlabel"><a xlink:href="dir_000012_000006.html" target="_top" xlink:title="9">
<text text-anchor="middle" x="185.7401" y="-32.7616" font-family="Helvetica,sans-Serif" font-size="10.00" fill="#000000">9</text>
</a>
</g>
</g>
<!-- dir_80f6a6728bd800407e006ab7b547c07a&#45;&gt;dir_a4d2cabbfa9ce39e497395a7adc9de8f -->
<g id="edge10" class="edge">
<title>dir_80f6a6728bd800407e006ab7b547c07a&#45;&gt;dir_a4d2cabbfa9ce39e497395a7adc9de8f</title>
<path fill="none" stroke="#000000" d="M130.3267,-375.8314C121.4751,-367.219 110.7514,-356.7851 101.1105,-347.4048"/>
<polygon fill="#000000" stroke="#000000" points="103.2754,-344.6279 93.6674,-340.1628 98.3939,-349.645 103.2754,-344.6279"/>
<g id="a_edge10&#45;headlabel"><a xlink:href="dir_000012_000009.html" target="_top" xlink:title="1">
<text text-anchor="middle" x="107.8317" y="-342.0996" font-family="Helvetica,sans-Serif" font-size="10.00" fill="#000000">1</text>
</a>
</g>
</g>
<!-- dir_80f6a6728bd800407e006ab7b547c07a&#45;&gt;dir_989e9c0c9f16acce756990d917da59a4 -->
<g id="edge8" class="edge">
<title>dir_80f6a6728bd800407e006ab7b547c07a&#45;&gt;dir_989e9c0c9f16acce756990d917da59a4</title>
<path fill="none" stroke="#000000" d="M146.8731,-375.9843C141.125,-327.2939 125.2468,-192.7961 118.3123,-134.0573"/>
<polygon fill="#000000" stroke="#000000" points="121.7744,-133.5295 117.126,-124.0089 114.8227,-134.3503 121.7744,-133.5295"/>
<g id="a_edge8&#45;headlabel"><a xlink:href="dir_000012_000011.html" target="_top" xlink:title="2">
<text text-anchor="middle" x="125.0155" y="-133.7665" font-family="Helvetica,sans-Serif" font-size="10.00" fill="#000000">2</text>
</a>
</g>
</g>
</g>
</svg>
