<?xml version="1.0" encoding="UTF-8" standalone="no"?>
<!DOCTYPE svg PUBLIC "-//W3C//DTD SVG 1.1//EN"
 "http://www.w3.org/Graphics/SVG/1.1/DTD/svg11.dtd">
<!-- Generated by graphviz version 2.40.1 (20161225.0304)
 -->
<!-- Title: GluonicLQCD/observables Pages: 1 -->
<svg width="219pt" height="446pt"
 viewBox="0.00 0.00 219.45 446.00" xmlns="http://www.w3.org/2000/svg" xmlns:xlink="http://www.w3.org/1999/xlink">
<g id="graph0" class="graph" transform="scale(1 1) rotate(0) translate(4 442)">
<title>GluonicLQCD/observables</title>
<polygon fill="#ffffff" stroke="transparent" points="-4,4 -4,-442 215.4461,-442 215.4461,4 -4,4"/>
<g id="clust1" class="cluster">
<title>clusterdir_3f09a0a9308f13c2b8951181d225a4cf</title>
<g id="a_clust1"><a xlink:href="dir_3f09a0a9308f13c2b8951181d225a4cf.html" target="_top" xlink:title="GluonicLQCD">
<polygon fill="#ddddee" stroke="#000000" points="63,-272 63,-430 165,-430 165,-272 63,-272"/>
<text text-anchor="middle" x="114" y="-418" font-family="Helvetica,sans-Serif" font-size="10.00" fill="#000000">GluonicLQCD</text>
</a>
</g>
</g>
<g id="clust2" class="cluster">
<title>clusterdir_a4d2cabbfa9ce39e497395a7adc9de8f</title>
<g id="a_clust2"><a xlink:href="dir_a4d2cabbfa9ce39e497395a7adc9de8f.html" target="_top">
<polygon fill="#eeeeff" stroke="#000000" points="71,-280 71,-404 157,-404 157,-280 71,-280"/>
</a>
</g>
</g>
<!-- dir_a4d2cabbfa9ce39e497395a7adc9de8f -->
<g id="node1" class="node">
<title>dir_a4d2cabbfa9ce39e497395a7adc9de8f</title>
<text text-anchor="middle" x="114" y="-375" font-family="Helvetica,sans-Serif" font-size="10.00" fill="#000000">observables</text>
</g>
<!-- dir_d3213487e914138feadb58522a723471 -->
<g id="node2" class="node">
<title>dir_d3213487e914138feadb58522a723471</title>
<g id="a_node2"><a xlink:href="dir_d3213487e914138feadb58522a723471.html" target="_top" xlink:title="tools">
<polygon fill="#ffffff" stroke="#000000" points="141,-324 87,-324 87,-288 141,-288 141,-324"/>
<text text-anchor="middle" x="114" y="-303" font-family="Helvetica,sans-Serif" font-size="10.00" fill="#000000">tools</text>
</a>
</g>
</g>
<!-- dir_a4d2cabbfa9ce39e497395a7adc9de8f&#45;&gt;dir_d3213487e914138feadb58522a723471 -->
<g id="edge7" class="edge">
<title>dir_a4d2cabbfa9ce39e497395a7adc9de8f&#45;&gt;dir_d3213487e914138feadb58522a723471</title>
<path fill="none" stroke="#000000" d="M114,-359.8314C114,-352.131 114,-342.9743 114,-334.4166"/>
<polygon fill="#000000" stroke="#000000" points="117.5001,-334.4132 114,-324.4133 110.5001,-334.4133 117.5001,-334.4132"/>
<g id="a_edge7&#45;headlabel"><a xlink:href="dir_000009_000010.html" target="_top" xlink:title="1">
<text text-anchor="middle" x="120.3393" y="-335.0079" font-family="Helvetica,sans-Serif" font-size="10.00" fill="#000000">1</text>
</a>
</g>
</g>
<!-- dir_989e9c0c9f16acce756990d917da59a4 -->
<g id="node3" class="node">
<title>dir_989e9c0c9f16acce756990d917da59a4</title>
<g id="a_node3"><a xlink:href="dir_989e9c0c9f16acce756990d917da59a4.html" target="_top" xlink:title="parallelization">
<polygon fill="none" stroke="#000000" points="152.6476,-180 75.3524,-180 75.3524,-144 152.6476,-144 152.6476,-180"/>
<text text-anchor="middle" x="114" y="-159" font-family="Helvetica,sans-Serif" font-size="10.00" fill="#000000">parallelization</text>
</a>
</g>
</g>
<!-- dir_a4d2cabbfa9ce39e497395a7adc9de8f&#45;&gt;dir_989e9c0c9f16acce756990d917da59a4 -->
<g id="edge4" class="edge">
<title>dir_a4d2cabbfa9ce39e497395a7adc9de8f&#45;&gt;dir_989e9c0c9f16acce756990d917da59a4</title>
<path fill="none" stroke="#000000" d="M98.0095,-359.9169C90.3462,-350.0371 81.9834,-337.1563 78,-324 63.9267,-277.5191 83.9944,-222.0131 99.3445,-189.519"/>
<polygon fill="#000000" stroke="#000000" points="102.6498,-190.7281 103.9138,-180.2089 96.3659,-187.6439 102.6498,-190.7281"/>
<g id="a_edge4&#45;headlabel"><a xlink:href="dir_000009_000011.html" target="_top" xlink:title="8">
<text text-anchor="middle" x="103.615" y="-192.2059" font-family="Helvetica,sans-Serif" font-size="10.00" fill="#000000">8</text>
</a>
</g>
</g>
<!-- dir_42ec03b7ccf42fefa95a9af8fd921dc0 -->
<g id="node4" class="node">
<title>dir_42ec03b7ccf42fefa95a9af8fd921dc0</title>
<g id="a_node4"><a xlink:href="dir_42ec03b7ccf42fefa95a9af8fd921dc0.html" target="_top" xlink:title="config">
<polygon fill="none" stroke="#000000" points="127,-36 73,-36 73,0 127,0 127,-36"/>
<text text-anchor="middle" x="100" y="-15" font-family="Helvetica,sans-Serif" font-size="10.00" fill="#000000">config</text>
</a>
</g>
</g>
<!-- dir_a4d2cabbfa9ce39e497395a7adc9de8f&#45;&gt;dir_42ec03b7ccf42fefa95a9af8fd921dc0 -->
<g id="edge5" class="edge">
<title>dir_a4d2cabbfa9ce39e497395a7adc9de8f&#45;&gt;dir_42ec03b7ccf42fefa95a9af8fd921dc0</title>
<path fill="none" stroke="#000000" d="M85.8202,-359.8002C52.0616,-335.5315 0,-289.1626 0,-234 0,-234 0,-234 0,-162 0,-113.1047 39.3778,-68.8706 68.7129,-42.7017"/>
<polygon fill="#000000" stroke="#000000" points="71.0343,-45.3214 76.3014,-36.1285 66.4512,-40.0304 71.0343,-45.3214"/>
<g id="a_edge5&#45;headlabel"><a xlink:href="dir_000009_000002.html" target="_top" xlink:title="8">
<text text-anchor="middle" x="70.1763" y="-46.821" font-family="Helvetica,sans-Serif" font-size="10.00" fill="#000000">8</text>
</a>
</g>
</g>
<!-- dir_699b43c0649cdffda9b3cb63579617e5 -->
<g id="node5" class="node">
<title>dir_699b43c0649cdffda9b3cb63579617e5</title>
<g id="a_node5"><a xlink:href="dir_699b43c0649cdffda9b3cb63579617e5.html" target="_top" xlink:title="math">
<polygon fill="#ffffff" stroke="#ff0000" points="191,-108 137,-108 137,-72 191,-72 191,-108"/>
<text text-anchor="middle" x="164" y="-87" font-family="Helvetica,sans-Serif" font-size="10.00" fill="#000000">math</text>
</a>
</g>
</g>
<!-- dir_a4d2cabbfa9ce39e497395a7adc9de8f&#45;&gt;dir_699b43c0649cdffda9b3cb63579617e5 -->
<g id="edge6" class="edge">
<title>dir_a4d2cabbfa9ce39e497395a7adc9de8f&#45;&gt;dir_699b43c0649cdffda9b3cb63579617e5</title>
<path fill="none" stroke="#000000" d="M136.284,-359.8198C147.3624,-350.011 160.3981,-337.224 170,-324 190.9053,-295.2086 197.0188,-286.6739 205,-252 215.9106,-204.5994 194.9453,-149.8025 179.176,-117.6273"/>
<polygon fill="#000000" stroke="#000000" points="182.1391,-115.7322 174.4899,-108.4013 175.898,-118.9022 182.1391,-115.7322"/>
<g id="a_edge6&#45;headlabel"><a xlink:href="dir_000009_000006.html" target="_top" xlink:title="9">
<text text-anchor="middle" x="186.2983" y="-114.6513" font-family="Helvetica,sans-Serif" font-size="10.00" fill="#000000">9</text>
</a>
</g>
</g>
<!-- dir_9e75dbcc90935552caaf1cb18df4f8ce -->
<g id="node6" class="node">
<title>dir_9e75dbcc90935552caaf1cb18df4f8ce</title>
<g id="a_node6"><a xlink:href="dir_9e75dbcc90935552caaf1cb18df4f8ce.html" target="_top" xlink:title="io">
<polygon fill="none" stroke="#000000" points="196,-252 142,-252 142,-216 196,-216 196,-252"/>
<text text-anchor="middle" x="169" y="-231" font-family="Helvetica,sans-Serif" font-size="10.00" fill="#000000">io</text>
</a>
</g>
</g>
<!-- dir_a4d2cabbfa9ce39e497395a7adc9de8f&#45;&gt;dir_9e75dbcc90935552caaf1cb18df4f8ce -->
<g id="edge8" class="edge">
<title>dir_a4d2cabbfa9ce39e497395a7adc9de8f&#45;&gt;dir_9e75dbcc90935552caaf1cb18df4f8ce</title>
<path fill="none" stroke="#000000" d="M128.8853,-359.5185C136.2462,-349.5296 144.672,-336.6716 150,-324 158.3306,-304.1876 163.1533,-280.3321 165.8541,-262.1605"/>
<polygon fill="#000000" stroke="#000000" points="169.3302,-262.5721 167.2095,-252.1917 162.3941,-261.6289 169.3302,-262.5721"/>
<g id="a_edge8&#45;headlabel"><a xlink:href="dir_000009_000004.html" target="_top" xlink:title="4">
<text text-anchor="middle" x="171.6594" y="-263.5164" font-family="Helvetica,sans-Serif" font-size="10.00" fill="#000000">4</text>
</a>
</g>
</g>
<!-- dir_d3213487e914138feadb58522a723471&#45;&gt;dir_989e9c0c9f16acce756990d917da59a4 -->
<g id="edge11" class="edge">
<title>dir_d3213487e914138feadb58522a723471&#45;&gt;dir_989e9c0c9f16acce756990d917da59a4</title>
<path fill="none" stroke="#000000" d="M114,-287.7623C114,-263.201 114,-219.2474 114,-190.3541"/>
<polygon fill="#000000" stroke="#000000" points="117.5001,-190.0896 114,-180.0896 110.5001,-190.0897 117.5001,-190.0896"/>
<g id="a_edge11&#45;headlabel"><a xlink:href="dir_000010_000011.html" target="_top" xlink:title="1">
<text text-anchor="middle" x="120.3393" y="-190.6842" font-family="Helvetica,sans-Serif" font-size="10.00" fill="#000000">1</text>
</a>
</g>
</g>
<!-- dir_d3213487e914138feadb58522a723471&#45;&gt;dir_42ec03b7ccf42fefa95a9af8fd921dc0 -->
<g id="edge12" class="edge">
<title>dir_d3213487e914138feadb58522a723471&#45;&gt;dir_42ec03b7ccf42fefa95a9af8fd921dc0</title>
<path fill="none" stroke="#000000" d="M104.6496,-287.8288C92.8973,-263.8712 73.3717,-220.0582 66,-180 57.3175,-132.8193 74.4157,-78.2855 87.3642,-46.0502"/>
<polygon fill="#000000" stroke="#000000" points="90.7676,-46.9822 91.3845,-36.4053 84.3064,-44.2889 90.7676,-46.9822"/>
<g id="a_edge12&#45;headlabel"><a xlink:href="dir_000010_000002.html" target="_top" xlink:title="1">
<text text-anchor="middle" x="92.0053" y="-48.3925" font-family="Helvetica,sans-Serif" font-size="10.00" fill="#000000">1</text>
</a>
</g>
</g>
<!-- dir_d3213487e914138feadb58522a723471&#45;&gt;dir_9e75dbcc90935552caaf1cb18df4f8ce -->
<g id="edge13" class="edge">
<title>dir_d3213487e914138feadb58522a723471&#45;&gt;dir_9e75dbcc90935552caaf1cb18df4f8ce</title>
<path fill="none" stroke="#000000" d="M127.8788,-287.8314C134.2136,-279.5386 141.8384,-269.557 148.7926,-260.4533"/>
<polygon fill="#000000" stroke="#000000" points="151.6452,-262.4847 154.9343,-252.4133 146.0825,-258.2353 151.6452,-262.4847"/>
<g id="a_edge13&#45;headlabel"><a xlink:href="dir_000010_000004.html" target="_top" xlink:title="1">
<text text-anchor="middle" x="151.7195" y="-264.0647" font-family="Helvetica,sans-Serif" font-size="10.00" fill="#000000">1</text>
</a>
</g>
</g>
<!-- dir_989e9c0c9f16acce756990d917da59a4&#45;&gt;dir_42ec03b7ccf42fefa95a9af8fd921dc0 -->
<g id="edge1" class="edge">
<title>dir_989e9c0c9f16acce756990d917da59a4&#45;&gt;dir_42ec03b7ccf42fefa95a9af8fd921dc0</title>
<path fill="none" stroke="#000000" d="M107.5537,-143.7623C102.706,-119.201 98.158,-75.2474 97.2592,-46.3541"/>
<polygon fill="#000000" stroke="#000000" points="100.7548,-46.0342 97.1004,-36.0896 93.7556,-46.1426 100.7548,-46.0342"/>
<g id="a_edge1&#45;headlabel"><a xlink:href="dir_000011_000002.html" target="_top" xlink:title="1">
<text text-anchor="middle" x="103.6492" y="-46.5845" font-family="Helvetica,sans-Serif" font-size="10.00" fill="#000000">1</text>
</a>
</g>
</g>
<!-- dir_989e9c0c9f16acce756990d917da59a4&#45;&gt;dir_699b43c0649cdffda9b3cb63579617e5 -->
<g id="edge2" class="edge">
<title>dir_989e9c0c9f16acce756990d917da59a4&#45;&gt;dir_699b43c0649cdffda9b3cb63579617e5</title>
<path fill="none" stroke="#000000" d="M120.6647,-143.8314C125.6154,-135.5386 132.3531,-125.557 139.0952,-116.4533"/>
<polygon fill="#000000" stroke="#000000" points="141.9478,-118.4846 145.237,-108.4133 136.3851,-114.2353 141.9478,-118.4846"/>
<g id="a_edge2&#45;headlabel"><a xlink:href="dir_000011_000006.html" target="_top" xlink:title="1">
<text text-anchor="middle" x="142.022" y="-120.0647" font-family="Helvetica,sans-Serif" font-size="10.00" fill="#000000">1</text>
</a>
</g>
</g>
<!-- dir_42ec03b7ccf42fefa95a9af8fd921dc0&#45;&gt;dir_989e9c0c9f16acce756990d917da59a4 -->
<g id="edge3" class="edge">
<title>dir_42ec03b7ccf42fefa95a9af8fd921dc0&#45;&gt;dir_989e9c0c9f16acce756990d917da59a4</title>
<path fill="none" stroke="#000000" d="M106.417,-36.0896C111.2659,-60.5727 115.8219,-104.5174 116.7353,-133.4713"/>
<polygon fill="#000000" stroke="#000000" points="113.2403,-133.8196 116.9001,-143.7623 120.2394,-133.7075 113.2403,-133.8196"/>
<g id="a_edge3&#45;headlabel"><a xlink:href="dir_000002_000011.html" target="_top" xlink:title="2">
<text text-anchor="middle" x="110.344" y="-127.2709" font-family="Helvetica,sans-Serif" font-size="10.00" fill="#000000">2</text>
</a>
</g>
</g>
<!-- dir_699b43c0649cdffda9b3cb63579617e5&#45;&gt;dir_989e9c0c9f16acce756990d917da59a4 -->
<g id="edge9" class="edge">
<title>dir_699b43c0649cdffda9b3cb63579617e5&#45;&gt;dir_989e9c0c9f16acce756990d917da59a4</title>
<path fill="none" stroke="#000000" d="M157.189,-108.4133C152.2034,-116.7389 145.4484,-126.7282 138.7064,-135.8144"/>
<polygon fill="#000000" stroke="#000000" points="135.8687,-133.7633 132.5695,-143.8314 141.4272,-138.0182 135.8687,-133.7633"/>
<g id="a_edge9&#45;headlabel"><a xlink:href="dir_000006_000011.html" target="_top" xlink:title="3">
<text text-anchor="middle" x="135.7991" y="-126.1832" font-family="Helvetica,sans-Serif" font-size="10.00" fill="#000000">3</text>
</a>
</g>
</g>
<!-- dir_699b43c0649cdffda9b3cb63579617e5&#45;&gt;dir_42ec03b7ccf42fefa95a9af8fd921dc0 -->
<g id="edge10" class="edge">
<title>dir_699b43c0649cdffda9b3cb63579617e5&#45;&gt;dir_42ec03b7ccf42fefa95a9af8fd921dc0</title>
<path fill="none" stroke="#000000" d="M147.8501,-71.8314C140.3283,-63.3694 131.2435,-53.1489 123.0196,-43.8971"/>
<polygon fill="#000000" stroke="#000000" points="125.627,-41.5621 116.3673,-36.4133 120.3951,-46.2127 125.627,-41.5621"/>
<g id="a_edge10&#45;headlabel"><a xlink:href="dir_000006_000002.html" target="_top" xlink:title="1">
<text text-anchor="middle" x="130.1372" y="-39.3624" font-family="Helvetica,sans-Serif" font-size="10.00" fill="#000000">1</text>
</a>
</g>
</g>
<!-- dir_9e75dbcc90935552caaf1cb18df4f8ce&#45;&gt;dir_989e9c0c9f16acce756990d917da59a4 -->
<g id="edge14" class="edge">
<title>dir_9e75dbcc90935552caaf1cb18df4f8ce&#45;&gt;dir_989e9c0c9f16acce756990d917da59a4</title>
<path fill="none" stroke="#000000" d="M155.1212,-215.8314C148.7864,-207.5386 141.1616,-197.557 134.2074,-188.4533"/>
<polygon fill="#000000" stroke="#000000" points="136.9175,-186.2353 128.0657,-180.4133 131.3548,-190.4847 136.9175,-186.2353"/>
<g id="a_edge14&#45;headlabel"><a xlink:href="dir_000004_000011.html" target="_top" xlink:title="3">
<text text-anchor="middle" x="141.3558" y="-184.3683" font-family="Helvetica,sans-Serif" font-size="10.00" fill="#000000">3</text>
</a>
</g>
</g>
<!-- dir_9e75dbcc90935552caaf1cb18df4f8ce&#45;&gt;dir_42ec03b7ccf42fefa95a9af8fd921dc0 -->
<g id="edge15" class="edge">
<title>dir_9e75dbcc90935552caaf1cb18df4f8ce&#45;&gt;dir_42ec03b7ccf42fefa95a9af8fd921dc0</title>
<path fill="none" stroke="#000000" d="M180.2372,-215.5681C197.9323,-183.9296 227.578,-118.2341 200,-72 186.3529,-49.1208 159.2841,-35.3542 136.7476,-27.4522"/>
<polygon fill="#000000" stroke="#000000" points="137.6907,-24.0786 127.0986,-24.3189 135.5287,-30.7364 137.6907,-24.0786"/>
<g id="a_edge15&#45;headlabel"><a xlink:href="dir_000004_000002.html" target="_top" xlink:title="2">
<text text-anchor="middle" x="141.9864" y="-19.4883" font-family="Helvetica,sans-Serif" font-size="10.00" fill="#000000">2</text>
</a>
</g>
</g>
<!-- dir_9e75dbcc90935552caaf1cb18df4f8ce&#45;&gt;dir_699b43c0649cdffda9b3cb63579617e5 -->
<g id="edge16" class="edge">
<title>dir_9e75dbcc90935552caaf1cb18df4f8ce&#45;&gt;dir_699b43c0649cdffda9b3cb63579617e5</title>
<path fill="none" stroke="#000000" d="M168.3667,-215.7623C167.5139,-191.201 165.9878,-147.2474 164.9845,-118.3541"/>
<polygon fill="#000000" stroke="#000000" points="168.4731,-117.9621 164.6281,-108.0896 161.4773,-118.2051 168.4731,-117.9621"/>
<g id="a_edge16&#45;headlabel"><a xlink:href="dir_000004_000006.html" target="_top" xlink:title="2">
<text text-anchor="middle" x="171.4353" y="-118.4561" font-family="Helvetica,sans-Serif" font-size="10.00" fill="#000000">2</text>
</a>
</g>
</g>
</g>
</svg>
