<?xml version="1.0" encoding="UTF-8" standalone="no"?>
<!DOCTYPE svg PUBLIC "-//W3C//DTD SVG 1.1//EN"
 "http://www.w3.org/Graphics/SVG/1.1/DTD/svg11.dtd">
<!-- Generated by graphviz version 2.40.1 (20161225.0304)
 -->
<!-- Title: GluonicLQCD/actions Pages: 1 -->
<svg width="108pt" height="222pt"
 viewBox="0.00 0.00 108.00 222.00" xmlns="http://www.w3.org/2000/svg" xmlns:xlink="http://www.w3.org/1999/xlink">
<g id="graph0" class="graph" transform="scale(1 1) rotate(0) translate(4 218)">
<title>GluonicLQCD/actions</title>
<polygon fill="#ffffff" stroke="transparent" points="-4,4 -4,-218 104,-218 104,4 -4,4"/>
<g id="clust1" class="cluster">
<title>clusterdir_3f09a0a9308f13c2b8951181d225a4cf</title>
<g id="a_clust1"><a xlink:href="dir_3f09a0a9308f13c2b8951181d225a4cf.html" target="_top" xlink:title="GluonicLQCD">
<polygon fill="#ddddee" stroke="#000000" points="8,-136 8,-206 85,-206 85,-136 8,-136"/>
<text text-anchor="middle" x="46.5" y="-194" font-family="Helvetica,sans-Serif" font-size="10.00" fill="#000000">GluonicLQCD</text>
</a>
</g>
</g>
<!-- dir_c02060125093f1f908938da7e8d036d2 -->
<g id="node1" class="node">
<title>dir_c02060125093f1f908938da7e8d036d2</title>
<g id="a_node1"><a xlink:href="dir_c02060125093f1f908938da7e8d036d2.html" target="_top" xlink:title="actions">
<polygon fill="#eeeeff" stroke="#000000" points="73,-180 19,-180 19,-144 73,-144 73,-180"/>
<text text-anchor="middle" x="46" y="-159" font-family="Helvetica,sans-Serif" font-size="10.00" fill="#000000">actions</text>
</a>
</g>
</g>
<!-- dir_42ec03b7ccf42fefa95a9af8fd921dc0 -->
<g id="node2" class="node">
<title>dir_42ec03b7ccf42fefa95a9af8fd921dc0</title>
<g id="a_node2"><a xlink:href="dir_42ec03b7ccf42fefa95a9af8fd921dc0.html" target="_top" xlink:title="config">
<polygon fill="none" stroke="#000000" points="72,-36 18,-36 18,0 72,0 72,-36"/>
<text text-anchor="middle" x="45" y="-15" font-family="Helvetica,sans-Serif" font-size="10.00" fill="#000000">config</text>
</a>
</g>
</g>
<!-- dir_c02060125093f1f908938da7e8d036d2&#45;&gt;dir_42ec03b7ccf42fefa95a9af8fd921dc0 -->
<g id="edge1" class="edge">
<title>dir_c02060125093f1f908938da7e8d036d2&#45;&gt;dir_42ec03b7ccf42fefa95a9af8fd921dc0</title>
<path fill="none" stroke="#000000" d="M42.1587,-143.6001C40.1834,-133.2025 37.9877,-119.9346 37,-108 35.6803,-92.0545 35.8244,-87.9568 37,-72 37.6169,-63.6264 38.7649,-54.5812 40.0026,-46.3322"/>
<polygon fill="#000000" stroke="#000000" points="43.4648,-46.8463 41.585,-36.4196 36.5523,-45.7428 43.4648,-46.8463"/>
<g id="a_edge1&#45;headlabel"><a xlink:href="dir_000001_000002.html" target="_top" xlink:title="3">
<text text-anchor="middle" x="45.702" y="-47.8436" font-family="Helvetica,sans-Serif" font-size="10.00" fill="#000000">3</text>
</a>
</g>
</g>
<!-- dir_699b43c0649cdffda9b3cb63579617e5 -->
<g id="node3" class="node">
<title>dir_699b43c0649cdffda9b3cb63579617e5</title>
<g id="a_node3"><a xlink:href="dir_699b43c0649cdffda9b3cb63579617e5.html" target="_top" xlink:title="math">
<polygon fill="#ffffff" stroke="#ff0000" points="100,-108 46,-108 46,-72 100,-72 100,-108"/>
<text text-anchor="middle" x="73" y="-87" font-family="Helvetica,sans-Serif" font-size="10.00" fill="#000000">math</text>
</a>
</g>
</g>
<!-- dir_c02060125093f1f908938da7e8d036d2&#45;&gt;dir_699b43c0649cdffda9b3cb63579617e5 -->
<g id="edge2" class="edge">
<title>dir_c02060125093f1f908938da7e8d036d2&#45;&gt;dir_699b43c0649cdffda9b3cb63579617e5</title>
<path fill="none" stroke="#000000" d="M52.8132,-143.8314C55.7644,-135.9617 59.2858,-126.5712 62.555,-117.8533"/>
<polygon fill="#000000" stroke="#000000" points="65.8609,-119.0055 66.095,-108.4133 59.3066,-116.5476 65.8609,-119.0055"/>
<g id="a_edge2&#45;headlabel"><a xlink:href="dir_000001_000006.html" target="_top" xlink:title="3">
<text text-anchor="middle" x="67.2573" y="-120.3682" font-family="Helvetica,sans-Serif" font-size="10.00" fill="#000000">3</text>
</a>
</g>
</g>
<!-- dir_699b43c0649cdffda9b3cb63579617e5&#45;&gt;dir_42ec03b7ccf42fefa95a9af8fd921dc0 -->
<g id="edge3" class="edge">
<title>dir_699b43c0649cdffda9b3cb63579617e5&#45;&gt;dir_42ec03b7ccf42fefa95a9af8fd921dc0</title>
<path fill="none" stroke="#000000" d="M65.9344,-71.8314C62.874,-63.9617 59.2221,-54.5712 55.8318,-45.8533"/>
<polygon fill="#000000" stroke="#000000" points="59.0473,-44.4647 52.1607,-36.4133 52.5232,-47.0019 59.0473,-44.4647"/>
<g id="a_edge3&#45;headlabel"><a xlink:href="dir_000006_000002.html" target="_top" xlink:title="1">
<text text-anchor="middle" x="62.9963" y="-43.7859" font-family="Helvetica,sans-Serif" font-size="10.00" fill="#000000">1</text>
</a>
</g>
</g>
</g>
</svg>
