<?xml version="1.0" encoding="UTF-8" standalone="no"?>
<!DOCTYPE svg PUBLIC "-//W3C//DTD SVG 1.1//EN"
 "http://www.w3.org/Graphics/SVG/1.1/DTD/svg11.dtd">
<!-- Generated by graphviz version 2.40.1 (20161225.0304)
 -->
<!-- Title: GluonicLQCD/tests Pages: 1 -->
<svg width="303pt" height="438pt"
 viewBox="0.00 0.00 303.37 438.00" xmlns="http://www.w3.org/2000/svg" xmlns:xlink="http://www.w3.org/1999/xlink">
<g id="graph0" class="graph" transform="scale(1 1) rotate(0) translate(4 434)">
<title>GluonicLQCD/tests</title>
<polygon fill="#ffffff" stroke="transparent" points="-4,4 -4,-434 299.3652,-434 299.3652,4 -4,4"/>
<g id="clust1" class="cluster">
<title>clusterdir_3f09a0a9308f13c2b8951181d225a4cf</title>
<g id="a_clust1"><a xlink:href="dir_3f09a0a9308f13c2b8951181d225a4cf.html" target="_top" xlink:title="GluonicLQCD">
<polygon fill="#ddddee" stroke="#000000" points="91,-352 91,-422 168,-422 168,-352 91,-352"/>
<text text-anchor="middle" x="129.5" y="-410" font-family="Helvetica,sans-Serif" font-size="10.00" fill="#000000">GluonicLQCD</text>
</a>
</g>
</g>
<!-- dir_80f6a6728bd800407e006ab7b547c07a -->
<g id="node1" class="node">
<title>dir_80f6a6728bd800407e006ab7b547c07a</title>
<g id="a_node1"><a xlink:href="dir_80f6a6728bd800407e006ab7b547c07a.html" target="_top" xlink:title="tests">
<polygon fill="#eeeeff" stroke="#000000" points="156,-396 102,-396 102,-360 156,-360 156,-396"/>
<text text-anchor="middle" x="129" y="-375" font-family="Helvetica,sans-Serif" font-size="10.00" fill="#000000">tests</text>
</a>
</g>
</g>
<!-- dir_c02060125093f1f908938da7e8d036d2 -->
<g id="node2" class="node">
<title>dir_c02060125093f1f908938da7e8d036d2</title>
<g id="a_node2"><a xlink:href="dir_c02060125093f1f908938da7e8d036d2.html" target="_top" xlink:title="actions">
<polygon fill="none" stroke="#000000" points="82,-252 28,-252 28,-216 82,-216 82,-252"/>
<text text-anchor="middle" x="55" y="-231" font-family="Helvetica,sans-Serif" font-size="10.00" fill="#000000">actions</text>
</a>
</g>
</g>
<!-- dir_80f6a6728bd800407e006ab7b547c07a&#45;&gt;dir_c02060125093f1f908938da7e8d036d2 -->
<g id="edge6" class="edge">
<title>dir_80f6a6728bd800407e006ab7b547c07a&#45;&gt;dir_c02060125093f1f908938da7e8d036d2</title>
<path fill="none" stroke="#000000" d="M117.1347,-359.8268C110.5864,-349.5001 102.4908,-336.2276 96,-324 85.1319,-303.5263 74.3245,-279.6177 66.5361,-261.5906"/>
<polygon fill="#000000" stroke="#000000" points="69.6878,-260.0589 62.5386,-252.2397 63.2513,-262.8106 69.6878,-260.0589"/>
<g id="a_edge6&#45;headlabel"><a xlink:href="dir_000012_000001.html" target="_top" xlink:title="2">
<text text-anchor="middle" x="73.7115" y="-259.2481" font-family="Helvetica,sans-Serif" font-size="10.00" fill="#000000">2</text>
</a>
</g>
</g>
<!-- dir_989e9c0c9f16acce756990d917da59a4 -->
<g id="node3" class="node">
<title>dir_989e9c0c9f16acce756990d917da59a4</title>
<g id="a_node3"><a xlink:href="dir_989e9c0c9f16acce756990d917da59a4.html" target="_top" xlink:title="parallelization">
<polygon fill="none" stroke="#000000" points="207.6476,-108 130.3524,-108 130.3524,-72 207.6476,-72 207.6476,-108"/>
<text text-anchor="middle" x="169" y="-87" font-family="Helvetica,sans-Serif" font-size="10.00" fill="#000000">parallelization</text>
</a>
</g>
</g>
<!-- dir_80f6a6728bd800407e006ab7b547c07a&#45;&gt;dir_989e9c0c9f16acce756990d917da59a4 -->
<g id="edge7" class="edge">
<title>dir_80f6a6728bd800407e006ab7b547c07a&#45;&gt;dir_989e9c0c9f16acce756990d917da59a4</title>
<path fill="none" stroke="#000000" d="M131.5022,-359.9843C138.2647,-311.2939 156.945,-176.7961 165.1032,-118.0573"/>
<polygon fill="#000000" stroke="#000000" points="168.5897,-118.3953 166.4988,-108.0089 161.6563,-117.4323 168.5897,-118.3953"/>
<g id="a_edge7&#45;headlabel"><a xlink:href="dir_000012_000011.html" target="_top" xlink:title="2">
<text text-anchor="middle" x="170.9076" y="-119.3463" font-family="Helvetica,sans-Serif" font-size="10.00" fill="#000000">2</text>
</a>
</g>
</g>
<!-- dir_42ec03b7ccf42fefa95a9af8fd921dc0 -->
<g id="node4" class="node">
<title>dir_42ec03b7ccf42fefa95a9af8fd921dc0</title>
<g id="a_node4"><a xlink:href="dir_42ec03b7ccf42fefa95a9af8fd921dc0.html" target="_top" xlink:title="config">
<polygon fill="none" stroke="#000000" points="137,-180 83,-180 83,-144 137,-144 137,-180"/>
<text text-anchor="middle" x="110" y="-159" font-family="Helvetica,sans-Serif" font-size="10.00" fill="#000000">config</text>
</a>
</g>
</g>
<!-- dir_80f6a6728bd800407e006ab7b547c07a&#45;&gt;dir_42ec03b7ccf42fefa95a9af8fd921dc0 -->
<g id="edge8" class="edge">
<title>dir_80f6a6728bd800407e006ab7b547c07a&#45;&gt;dir_42ec03b7ccf42fefa95a9af8fd921dc0</title>
<path fill="none" stroke="#000000" d="M127.4128,-359.9555C124.1017,-322.3144 116.4377,-235.1867 112.4739,-190.1246"/>
<polygon fill="#000000" stroke="#000000" points="115.959,-189.7999 111.5961,-180.1451 108.9859,-190.4133 115.959,-189.7999"/>
<g id="a_edge8&#45;headlabel"><a xlink:href="dir_000012_000002.html" target="_top" xlink:title="2">
<text text-anchor="middle" x="119.1022" y="-190.1319" font-family="Helvetica,sans-Serif" font-size="10.00" fill="#000000">2</text>
</a>
</g>
</g>
<!-- dir_a4d2cabbfa9ce39e497395a7adc9de8f -->
<g id="node5" class="node">
<title>dir_a4d2cabbfa9ce39e497395a7adc9de8f</title>
<g id="a_node5"><a xlink:href="dir_a4d2cabbfa9ce39e497395a7adc9de8f.html" target="_top" xlink:title="observables">
<polygon fill="#ffffff" stroke="#ff0000" points="283.9209,-324 214.0791,-324 214.0791,-288 283.9209,-288 283.9209,-324"/>
<text text-anchor="middle" x="249" y="-303" font-family="Helvetica,sans-Serif" font-size="10.00" fill="#000000">observables</text>
</a>
</g>
</g>
<!-- dir_80f6a6728bd800407e006ab7b547c07a&#45;&gt;dir_a4d2cabbfa9ce39e497395a7adc9de8f -->
<g id="edge9" class="edge">
<title>dir_80f6a6728bd800407e006ab7b547c07a&#45;&gt;dir_a4d2cabbfa9ce39e497395a7adc9de8f</title>
<path fill="none" stroke="#000000" d="M156.2299,-361.6621C172.1291,-352.1226 192.4567,-339.926 210.0293,-329.3824"/>
<polygon fill="#000000" stroke="#000000" points="212.1552,-332.1886 218.9294,-324.0423 208.5537,-326.1861 212.1552,-332.1886"/>
<g id="a_edge9&#45;headlabel"><a xlink:href="dir_000012_000009.html" target="_top" xlink:title="1">
<text text-anchor="middle" x="210.5337" y="-333.4726" font-family="Helvetica,sans-Serif" font-size="10.00" fill="#000000">1</text>
</a>
</g>
</g>
<!-- dir_699b43c0649cdffda9b3cb63579617e5 -->
<g id="node6" class="node">
<title>dir_699b43c0649cdffda9b3cb63579617e5</title>
<g id="a_node6"><a xlink:href="dir_699b43c0649cdffda9b3cb63579617e5.html" target="_top" xlink:title="math">
<polygon fill="#ffffff" stroke="#ff0000" points="196,-36 142,-36 142,0 196,0 196,-36"/>
<text text-anchor="middle" x="169" y="-15" font-family="Helvetica,sans-Serif" font-size="10.00" fill="#000000">math</text>
</a>
</g>
</g>
<!-- dir_80f6a6728bd800407e006ab7b547c07a&#45;&gt;dir_699b43c0649cdffda9b3cb63579617e5 -->
<g id="edge10" class="edge">
<title>dir_80f6a6728bd800407e006ab7b547c07a&#45;&gt;dir_699b43c0649cdffda9b3cb63579617e5</title>
<path fill="none" stroke="#000000" d="M101.9574,-363.6214C64.1304,-341.3225 0,-294.5839 0,-234 0,-234 0,-234 0,-162 0,-92.9772 82.683,-50.0604 132.3816,-30.4986"/>
<polygon fill="#000000" stroke="#000000" points="133.7457,-33.7244 141.8472,-26.8968 131.2562,-27.182 133.7457,-33.7244"/>
<g id="a_edge10&#45;headlabel"><a xlink:href="dir_000012_000006.html" target="_top" xlink:title="9">
<text text-anchor="middle" x="131.3958" y="-34.6563" font-family="Helvetica,sans-Serif" font-size="10.00" fill="#000000">9</text>
</a>
</g>
</g>
<!-- dir_9e75dbcc90935552caaf1cb18df4f8ce -->
<g id="node7" class="node">
<title>dir_9e75dbcc90935552caaf1cb18df4f8ce</title>
<g id="a_node7"><a xlink:href="dir_9e75dbcc90935552caaf1cb18df4f8ce.html" target="_top" xlink:title="io">
<polygon fill="none" stroke="#000000" points="268,-252 214,-252 214,-216 268,-216 268,-252"/>
<text text-anchor="middle" x="241" y="-231" font-family="Helvetica,sans-Serif" font-size="10.00" fill="#000000">io</text>
</a>
</g>
</g>
<!-- dir_80f6a6728bd800407e006ab7b547c07a&#45;&gt;dir_9e75dbcc90935552caaf1cb18df4f8ce -->
<g id="edge11" class="edge">
<title>dir_80f6a6728bd800407e006ab7b547c07a&#45;&gt;dir_9e75dbcc90935552caaf1cb18df4f8ce</title>
<path fill="none" stroke="#000000" d="M143.1849,-359.7623C162.793,-334.5518 198.292,-288.9103 220.7038,-260.0952"/>
<polygon fill="#000000" stroke="#000000" points="223.5536,-262.132 226.9303,-252.0896 218.0281,-257.8344 223.5536,-262.132"/>
<g id="a_edge11&#45;headlabel"><a xlink:href="dir_000012_000004.html" target="_top" xlink:title="1">
<text text-anchor="middle" x="223.5879" y="-263.7125" font-family="Helvetica,sans-Serif" font-size="10.00" fill="#000000">1</text>
</a>
</g>
</g>
<!-- dir_c02060125093f1f908938da7e8d036d2&#45;&gt;dir_42ec03b7ccf42fefa95a9af8fd921dc0 -->
<g id="edge1" class="edge">
<title>dir_c02060125093f1f908938da7e8d036d2&#45;&gt;dir_42ec03b7ccf42fefa95a9af8fd921dc0</title>
<path fill="none" stroke="#000000" d="M68.8788,-215.8314C75.2136,-207.5386 82.8384,-197.557 89.7926,-188.4533"/>
<polygon fill="#000000" stroke="#000000" points="92.6452,-190.4847 95.9343,-180.4133 87.0825,-186.2353 92.6452,-190.4847"/>
<g id="a_edge1&#45;headlabel"><a xlink:href="dir_000001_000002.html" target="_top" xlink:title="3">
<text text-anchor="middle" x="92.7195" y="-192.0647" font-family="Helvetica,sans-Serif" font-size="10.00" fill="#000000">3</text>
</a>
</g>
</g>
<!-- dir_c02060125093f1f908938da7e8d036d2&#45;&gt;dir_699b43c0649cdffda9b3cb63579617e5 -->
<g id="edge2" class="edge">
<title>dir_c02060125093f1f908938da7e8d036d2&#45;&gt;dir_699b43c0649cdffda9b3cb63579617e5</title>
<path fill="none" stroke="#000000" d="M57.0582,-215.9651C61.4744,-184.071 74.3457,-116.8551 108,-72 116.0374,-61.2876 126.4743,-51.1122 136.4362,-42.5419"/>
<polygon fill="#000000" stroke="#000000" points="138.8144,-45.1164 144.2686,-36.0334 134.3406,-39.7326 138.8144,-45.1164"/>
<g id="a_edge2&#45;headlabel"><a xlink:href="dir_000001_000006.html" target="_top" xlink:title="3">
<text text-anchor="middle" x="137.8644" y="-46.5975" font-family="Helvetica,sans-Serif" font-size="10.00" fill="#000000">3</text>
</a>
</g>
</g>
<!-- dir_989e9c0c9f16acce756990d917da59a4&#45;&gt;dir_42ec03b7ccf42fefa95a9af8fd921dc0 -->
<g id="edge3" class="edge">
<title>dir_989e9c0c9f16acce756990d917da59a4&#45;&gt;dir_42ec03b7ccf42fefa95a9af8fd921dc0</title>
<path fill="none" stroke="#000000" d="M159.8874,-108.4133C153.7996,-116.8239 145.6938,-126.9323 137.7384,-136.0923"/>
<polygon fill="#000000" stroke="#000000" points="134.8815,-134.0374 130.8406,-143.8314 140.1071,-138.695 134.8815,-134.0374"/>
<g id="a_edge3&#45;headlabel"><a xlink:href="dir_000011_000002.html" target="_top" xlink:title="1">
<text text-anchor="middle" x="135.1537" y="-126.4648" font-family="Helvetica,sans-Serif" font-size="10.00" fill="#000000">1</text>
</a>
</g>
</g>
<!-- dir_989e9c0c9f16acce756990d917da59a4&#45;&gt;dir_699b43c0649cdffda9b3cb63579617e5 -->
<g id="edge4" class="edge">
<title>dir_989e9c0c9f16acce756990d917da59a4&#45;&gt;dir_699b43c0649cdffda9b3cb63579617e5</title>
<path fill="none" stroke="#000000" d="M163.0476,-71.8314C162.2972,-64.131 162.0763,-54.9743 162.3849,-46.4166"/>
<polygon fill="#000000" stroke="#000000" points="165.8792,-46.6161 163.024,-36.4133 158.8935,-46.1697 165.8792,-46.6161"/>
<g id="a_edge4&#45;headlabel"><a xlink:href="dir_000011_000006.html" target="_top" xlink:title="1">
<text text-anchor="middle" x="168.4836" y="-47.3844" font-family="Helvetica,sans-Serif" font-size="10.00" fill="#000000">1</text>
</a>
</g>
</g>
<!-- dir_42ec03b7ccf42fefa95a9af8fd921dc0&#45;&gt;dir_989e9c0c9f16acce756990d917da59a4 -->
<g id="edge5" class="edge">
<title>dir_42ec03b7ccf42fefa95a9af8fd921dc0&#45;&gt;dir_989e9c0c9f16acce756990d917da59a4</title>
<path fill="none" stroke="#000000" d="M118.9358,-143.8314C125.0453,-135.3694 133.2352,-125.1489 141.2708,-115.8971"/>
<polygon fill="#000000" stroke="#000000" points="143.8987,-118.209 147.9353,-108.4133 138.671,-113.5536 143.8987,-118.209"/>
<g id="a_edge5&#45;headlabel"><a xlink:href="dir_000002_000011.html" target="_top" xlink:title="2">
<text text-anchor="middle" x="143.6285" y="-119.7817" font-family="Helvetica,sans-Serif" font-size="10.00" fill="#000000">2</text>
</a>
</g>
</g>
<!-- dir_a4d2cabbfa9ce39e497395a7adc9de8f&#45;&gt;dir_989e9c0c9f16acce756990d917da59a4 -->
<g id="edge12" class="edge">
<title>dir_a4d2cabbfa9ce39e497395a7adc9de8f&#45;&gt;dir_989e9c0c9f16acce756990d917da59a4</title>
<path fill="none" stroke="#000000" d="M261.5331,-287.9401C272.5936,-269.6748 285.7081,-240.6913 277,-216 262.4105,-174.6325 226.975,-137.9035 200.6491,-114.9274"/>
<polygon fill="#000000" stroke="#000000" points="202.6877,-112.0664 192.8046,-108.2486 198.1497,-117.3963 202.6877,-112.0664"/>
<g id="a_edge12&#45;headlabel"><a xlink:href="dir_000009_000011.html" target="_top" xlink:title="8">
<text text-anchor="middle" x="207.2652" y="-109.2348" font-family="Helvetica,sans-Serif" font-size="10.00" fill="#000000">8</text>
</a>
</g>
</g>
<!-- dir_a4d2cabbfa9ce39e497395a7adc9de8f&#45;&gt;dir_42ec03b7ccf42fefa95a9af8fd921dc0 -->
<g id="edge13" class="edge">
<title>dir_a4d2cabbfa9ce39e497395a7adc9de8f&#45;&gt;dir_42ec03b7ccf42fefa95a9af8fd921dc0</title>
<path fill="none" stroke="#000000" d="M231.3956,-287.7623C206.8516,-262.3354 162.2459,-216.1253 134.4764,-187.3569"/>
<polygon fill="#000000" stroke="#000000" points="136.9248,-184.8537 127.4615,-180.0896 131.8884,-189.7153 136.9248,-184.8537"/>
<g id="a_edge13&#45;headlabel"><a xlink:href="dir_000009_000002.html" target="_top" xlink:title="8">
<text text-anchor="middle" x="141.4641" y="-182.4681" font-family="Helvetica,sans-Serif" font-size="10.00" fill="#000000">8</text>
</a>
</g>
</g>
<!-- dir_a4d2cabbfa9ce39e497395a7adc9de8f&#45;&gt;dir_699b43c0649cdffda9b3cb63579617e5 -->
<g id="edge14" class="edge">
<title>dir_a4d2cabbfa9ce39e497395a7adc9de8f&#45;&gt;dir_699b43c0649cdffda9b3cb63579617e5</title>
<path fill="none" stroke="#000000" d="M268.4956,-287.9663C277.5103,-278.2894 287.2551,-265.5757 292,-252 297.279,-236.896 294.9026,-231.7345 292,-216 279.5716,-148.6274 277.4863,-127.2665 237,-72 228.1823,-59.9633 216.0183,-49.1621 204.4135,-40.4402"/>
<polygon fill="#000000" stroke="#000000" points="206.2789,-37.4706 196.1182,-34.469 202.1894,-43.1518 206.2789,-37.4706"/>
<g id="a_edge14&#45;headlabel"><a xlink:href="dir_000009_000006.html" target="_top" xlink:title="9">
<text text-anchor="middle" x="210.855" y="-34.2662" font-family="Helvetica,sans-Serif" font-size="10.00" fill="#000000">9</text>
</a>
</g>
</g>
<!-- dir_a4d2cabbfa9ce39e497395a7adc9de8f&#45;&gt;dir_9e75dbcc90935552caaf1cb18df4f8ce -->
<g id="edge15" class="edge">
<title>dir_a4d2cabbfa9ce39e497395a7adc9de8f&#45;&gt;dir_9e75dbcc90935552caaf1cb18df4f8ce</title>
<path fill="none" stroke="#000000" d="M246.9813,-287.8314C246.1257,-280.131 245.1083,-270.9743 244.1574,-262.4166"/>
<polygon fill="#000000" stroke="#000000" points="247.6289,-261.9656 243.0459,-252.4133 240.6717,-262.7386 247.6289,-261.9656"/>
<g id="a_edge15&#45;headlabel"><a xlink:href="dir_000009_000004.html" target="_top" xlink:title="4">
<text text-anchor="middle" x="250.8477" y="-262.2247" font-family="Helvetica,sans-Serif" font-size="10.00" fill="#000000">4</text>
</a>
</g>
</g>
<!-- dir_699b43c0649cdffda9b3cb63579617e5&#45;&gt;dir_989e9c0c9f16acce756990d917da59a4 -->
<g id="edge16" class="edge">
<title>dir_699b43c0649cdffda9b3cb63579617e5&#45;&gt;dir_989e9c0c9f16acce756990d917da59a4</title>
<path fill="none" stroke="#000000" d="M174.976,-36.4133C175.7071,-44.0593 175.9203,-53.1084 175.6155,-61.5726"/>
<polygon fill="#000000" stroke="#000000" points="172.1048,-61.6264 174.9524,-71.8314 179.0902,-62.078 172.1048,-61.6264"/>
<g id="a_edge16&#45;headlabel"><a xlink:href="dir_000006_000011.html" target="_top" xlink:title="3">
<text text-anchor="middle" x="169.5032" y="-54.8562" font-family="Helvetica,sans-Serif" font-size="10.00" fill="#000000">3</text>
</a>
</g>
</g>
<!-- dir_699b43c0649cdffda9b3cb63579617e5&#45;&gt;dir_42ec03b7ccf42fefa95a9af8fd921dc0 -->
<g id="edge17" class="edge">
<title>dir_699b43c0649cdffda9b3cb63579617e5&#45;&gt;dir_42ec03b7ccf42fefa95a9af8fd921dc0</title>
<path fill="none" stroke="#000000" d="M147.5032,-36.3978C137.7652,-45.9834 127.0911,-58.5103 121,-72 112.2274,-91.4284 109.6579,-115.4867 109.1836,-133.84"/>
<polygon fill="#000000" stroke="#000000" points="105.6833,-133.8852 109.1154,-143.9087 112.6831,-133.9327 105.6833,-133.8852"/>
<g id="a_edge17&#45;headlabel"><a xlink:href="dir_000006_000002.html" target="_top" xlink:title="1">
<text text-anchor="middle" x="102.8684" y="-127.2714" font-family="Helvetica,sans-Serif" font-size="10.00" fill="#000000">1</text>
</a>
</g>
</g>
<!-- dir_9e75dbcc90935552caaf1cb18df4f8ce&#45;&gt;dir_989e9c0c9f16acce756990d917da59a4 -->
<g id="edge18" class="edge">
<title>dir_9e75dbcc90935552caaf1cb18df4f8ce&#45;&gt;dir_989e9c0c9f16acce756990d917da59a4</title>
<path fill="none" stroke="#000000" d="M231.8812,-215.7623C219.4382,-190.8764 197.0411,-146.0822 182.6082,-117.2165"/>
<polygon fill="#000000" stroke="#000000" points="185.6475,-115.4686 178.0448,-108.0896 179.3865,-118.5992 185.6475,-115.4686"/>
<g id="a_edge18&#45;headlabel"><a xlink:href="dir_000004_000011.html" target="_top" xlink:title="3">
<text text-anchor="middle" x="189.7945" y="-114.414" font-family="Helvetica,sans-Serif" font-size="10.00" fill="#000000">3</text>
</a>
</g>
</g>
<!-- dir_9e75dbcc90935552caaf1cb18df4f8ce&#45;&gt;dir_42ec03b7ccf42fefa95a9af8fd921dc0 -->
<g id="edge19" class="edge">
<title>dir_9e75dbcc90935552caaf1cb18df4f8ce&#45;&gt;dir_42ec03b7ccf42fefa95a9af8fd921dc0</title>
<path fill="none" stroke="#000000" d="M213.8567,-219.0816C194.1842,-208.2692 167.3843,-193.5395 145.9364,-181.7513"/>
<polygon fill="#000000" stroke="#000000" points="147.5579,-178.6488 137.1085,-176.8993 144.1863,-184.7833 147.5579,-178.6488"/>
<g id="a_edge19&#45;headlabel"><a xlink:href="dir_000004_000002.html" target="_top" xlink:title="2">
<text text-anchor="middle" x="152.0756" y="-174.8919" font-family="Helvetica,sans-Serif" font-size="10.00" fill="#000000">2</text>
</a>
</g>
</g>
<!-- dir_9e75dbcc90935552caaf1cb18df4f8ce&#45;&gt;dir_699b43c0649cdffda9b3cb63579617e5 -->
<g id="edge20" class="edge">
<title>dir_9e75dbcc90935552caaf1cb18df4f8ce&#45;&gt;dir_699b43c0649cdffda9b3cb63579617e5</title>
<path fill="none" stroke="#000000" d="M241.6093,-215.7858C241.9452,-184.7534 239.5553,-120.3033 217,-72 212.2543,-61.8369 204.9674,-52.1851 197.4936,-43.9275"/>
<polygon fill="#000000" stroke="#000000" points="199.7922,-41.2673 190.3475,-36.4663 194.7368,-46.1092 199.7922,-41.2673"/>
<g id="a_edge20&#45;headlabel"><a xlink:href="dir_000004_000006.html" target="_top" xlink:title="2">
<text text-anchor="middle" x="204.329" y="-38.8994" font-family="Helvetica,sans-Serif" font-size="10.00" fill="#000000">2</text>
</a>
</g>
</g>
</g>
</svg>
