<?xml version="1.0" encoding="UTF-8" standalone="no"?>
<!DOCTYPE svg PUBLIC "-//W3C//DTD SVG 1.1//EN"
 "http://www.w3.org/Graphics/SVG/1.1/DTD/svg11.dtd">
<!-- Generated by graphviz version 2.40.1 (20161225.0304)
 -->
<!-- Title: GluonicLQCD/flow Pages: 1 -->
<svg width="185pt" height="366pt"
 viewBox="0.00 0.00 184.82 366.00" xmlns="http://www.w3.org/2000/svg" xmlns:xlink="http://www.w3.org/1999/xlink">
<g id="graph0" class="graph" transform="scale(1 1) rotate(0) translate(4 362)">
<title>GluonicLQCD/flow</title>
<polygon fill="#ffffff" stroke="transparent" points="-4,4 -4,-362 180.8186,-362 180.8186,4 -4,4"/>
<g id="clust1" class="cluster">
<title>clusterdir_3f09a0a9308f13c2b8951181d225a4cf</title>
<g id="a_clust1"><a xlink:href="dir_3f09a0a9308f13c2b8951181d225a4cf.html" target="_top" xlink:title="GluonicLQCD">
<polygon fill="#ddddee" stroke="#000000" points="28.8186,-280 28.8186,-350 105.8186,-350 105.8186,-280 28.8186,-280"/>
<text text-anchor="middle" x="67.3186" y="-338" font-family="Helvetica,sans-Serif" font-size="10.00" fill="#000000">GluonicLQCD</text>
</a>
</g>
</g>
<!-- dir_d54256f8ed9d1ba4550e8250d483f147 -->
<g id="node1" class="node">
<title>dir_d54256f8ed9d1ba4550e8250d483f147</title>
<g id="a_node1"><a xlink:href="dir_d54256f8ed9d1ba4550e8250d483f147.html" target="_top" xlink:title="flow">
<polygon fill="#eeeeff" stroke="#000000" points="93.8186,-324 39.8186,-324 39.8186,-288 93.8186,-288 93.8186,-324"/>
<text text-anchor="middle" x="66.8186" y="-303" font-family="Helvetica,sans-Serif" font-size="10.00" fill="#000000">flow</text>
</a>
</g>
</g>
<!-- dir_c02060125093f1f908938da7e8d036d2 -->
<g id="node2" class="node">
<title>dir_c02060125093f1f908938da7e8d036d2</title>
<g id="a_node2"><a xlink:href="dir_c02060125093f1f908938da7e8d036d2.html" target="_top" xlink:title="actions">
<polygon fill="none" stroke="#000000" points="66.8186,-252 12.8186,-252 12.8186,-216 66.8186,-216 66.8186,-252"/>
<text text-anchor="middle" x="39.8186" y="-231" font-family="Helvetica,sans-Serif" font-size="10.00" fill="#000000">actions</text>
</a>
</g>
</g>
<!-- dir_d54256f8ed9d1ba4550e8250d483f147&#45;&gt;dir_c02060125093f1f908938da7e8d036d2 -->
<g id="edge8" class="edge">
<title>dir_d54256f8ed9d1ba4550e8250d483f147&#45;&gt;dir_c02060125093f1f908938da7e8d036d2</title>
<path fill="none" stroke="#000000" d="M60.0053,-287.8314C57.0542,-279.9617 53.5328,-270.5712 50.2636,-261.8533"/>
<polygon fill="#000000" stroke="#000000" points="53.512,-260.5476 46.7236,-252.4133 46.9577,-263.0055 53.512,-260.5476"/>
<g id="a_edge8&#45;headlabel"><a xlink:href="dir_000003_000001.html" target="_top" xlink:title="1">
<text text-anchor="middle" x="57.4326" y="-259.9164" font-family="Helvetica,sans-Serif" font-size="10.00" fill="#000000">1</text>
</a>
</g>
</g>
<!-- dir_989e9c0c9f16acce756990d917da59a4 -->
<g id="node3" class="node">
<title>dir_989e9c0c9f16acce756990d917da59a4</title>
<g id="a_node3"><a xlink:href="dir_989e9c0c9f16acce756990d917da59a4.html" target="_top" xlink:title="parallelization">
<polygon fill="none" stroke="#000000" points="139.4662,-108 62.171,-108 62.171,-72 139.4662,-72 139.4662,-108"/>
<text text-anchor="middle" x="100.8186" y="-87" font-family="Helvetica,sans-Serif" font-size="10.00" fill="#000000">parallelization</text>
</a>
</g>
</g>
<!-- dir_d54256f8ed9d1ba4550e8250d483f147&#45;&gt;dir_989e9c0c9f16acce756990d917da59a4 -->
<g id="edge9" class="edge">
<title>dir_d54256f8ed9d1ba4550e8250d483f147&#45;&gt;dir_989e9c0c9f16acce756990d917da59a4</title>
<path fill="none" stroke="#000000" d="M69.956,-287.5146C71.7111,-277.0903 73.921,-263.8241 75.8186,-252 83.3138,-205.2974 91.6148,-150.9497 96.5157,-118.5712"/>
<polygon fill="#000000" stroke="#000000" points="100.0078,-118.8864 98.0414,-108.4757 93.0864,-117.8404 100.0078,-118.8864"/>
<g id="a_edge9&#45;headlabel"><a xlink:href="dir_000003_000011.html" target="_top" xlink:title="1">
<text text-anchor="middle" x="102.2781" y="-119.8649" font-family="Helvetica,sans-Serif" font-size="10.00" fill="#000000">1</text>
</a>
</g>
</g>
<!-- dir_42ec03b7ccf42fefa95a9af8fd921dc0 -->
<g id="node4" class="node">
<title>dir_42ec03b7ccf42fefa95a9af8fd921dc0</title>
<g id="a_node4"><a xlink:href="dir_42ec03b7ccf42fefa95a9af8fd921dc0.html" target="_top" xlink:title="config">
<polygon fill="none" stroke="#000000" points="176.8186,-180 122.8186,-180 122.8186,-144 176.8186,-144 176.8186,-180"/>
<text text-anchor="middle" x="149.8186" y="-159" font-family="Helvetica,sans-Serif" font-size="10.00" fill="#000000">config</text>
</a>
</g>
</g>
<!-- dir_d54256f8ed9d1ba4550e8250d483f147&#45;&gt;dir_42ec03b7ccf42fefa95a9af8fd921dc0 -->
<g id="edge10" class="edge">
<title>dir_d54256f8ed9d1ba4550e8250d483f147&#45;&gt;dir_42ec03b7ccf42fefa95a9af8fd921dc0</title>
<path fill="none" stroke="#000000" d="M82.7205,-287.7841C91.1008,-277.6625 101.1931,-264.5994 108.8186,-252 120.8954,-232.0457 131.7001,-207.9265 139.1821,-189.6811"/>
<polygon fill="#000000" stroke="#000000" points="142.5057,-190.7969 142.984,-180.2129 136.0098,-188.1885 142.5057,-190.7969"/>
<g id="a_edge10&#45;headlabel"><a xlink:href="dir_000003_000002.html" target="_top" xlink:title="1">
<text text-anchor="middle" x="143.8011" y="-192.1906" font-family="Helvetica,sans-Serif" font-size="10.00" fill="#000000">1</text>
</a>
</g>
</g>
<!-- dir_699b43c0649cdffda9b3cb63579617e5 -->
<g id="node5" class="node">
<title>dir_699b43c0649cdffda9b3cb63579617e5</title>
<g id="a_node5"><a xlink:href="dir_699b43c0649cdffda9b3cb63579617e5.html" target="_top" xlink:title="math">
<polygon fill="#ffffff" stroke="#ff0000" points="127.8186,-36 73.8186,-36 73.8186,0 127.8186,0 127.8186,-36"/>
<text text-anchor="middle" x="100.8186" y="-15" font-family="Helvetica,sans-Serif" font-size="10.00" fill="#000000">math</text>
</a>
</g>
</g>
<!-- dir_d54256f8ed9d1ba4550e8250d483f147&#45;&gt;dir_699b43c0649cdffda9b3cb63579617e5 -->
<g id="edge11" class="edge">
<title>dir_d54256f8ed9d1ba4550e8250d483f147&#45;&gt;dir_699b43c0649cdffda9b3cb63579617e5</title>
<path fill="none" stroke="#000000" d="M39.7959,-290.6789C26.297,-281.4052 11.2827,-268.2286 3.8186,-252 -2.8671,-237.4638 1.9156,-231.8864 3.8186,-216 11.652,-150.6042 4.5982,-128.2756 38.8186,-72 45.6654,-60.7404 55.6371,-50.579 65.5895,-42.1881"/>
<polygon fill="#000000" stroke="#000000" points="67.8866,-44.8325 73.5068,-35.8512 63.5125,-39.3675 67.8866,-44.8325"/>
<g id="a_edge11&#45;headlabel"><a xlink:href="dir_000003_000006.html" target="_top" xlink:title="2">
<text text-anchor="middle" x="66.8545" y="-46.2954" font-family="Helvetica,sans-Serif" font-size="10.00" fill="#000000">2</text>
</a>
</g>
</g>
<!-- dir_c02060125093f1f908938da7e8d036d2&#45;&gt;dir_42ec03b7ccf42fefa95a9af8fd921dc0 -->
<g id="edge1" class="edge">
<title>dir_c02060125093f1f908938da7e8d036d2&#45;&gt;dir_42ec03b7ccf42fefa95a9af8fd921dc0</title>
<path fill="none" stroke="#000000" d="M67.0096,-216.2022C81.1564,-206.9425 98.6343,-195.5025 113.8816,-185.5224"/>
<polygon fill="#000000" stroke="#000000" points="116.1089,-188.2476 122.5591,-179.8425 112.2753,-182.3907 116.1089,-188.2476"/>
<g id="a_edge1&#45;headlabel"><a xlink:href="dir_000001_000002.html" target="_top" xlink:title="3">
<text text-anchor="middle" x="114.6563" y="-189.5918" font-family="Helvetica,sans-Serif" font-size="10.00" fill="#000000">3</text>
</a>
</g>
</g>
<!-- dir_c02060125093f1f908938da7e8d036d2&#45;&gt;dir_699b43c0649cdffda9b3cb63579617e5 -->
<g id="edge2" class="edge">
<title>dir_c02060125093f1f908938da7e8d036d2&#45;&gt;dir_699b43c0649cdffda9b3cb63579617e5</title>
<path fill="none" stroke="#000000" d="M37.6525,-215.8621C34.7322,-184.9433 32.0533,-120.6582 52.8186,-72 57.2666,-61.5773 64.5531,-51.7858 72.1208,-43.478"/>
<polygon fill="#000000" stroke="#000000" points="74.6377,-45.9102 79.0764,-36.29 69.6072,-41.0425 74.6377,-45.9102"/>
<g id="a_edge2&#45;headlabel"><a xlink:href="dir_000001_000006.html" target="_top" xlink:title="3">
<text text-anchor="middle" x="74.1784" y="-47.4678" font-family="Helvetica,sans-Serif" font-size="10.00" fill="#000000">3</text>
</a>
</g>
</g>
<!-- dir_989e9c0c9f16acce756990d917da59a4&#45;&gt;dir_42ec03b7ccf42fefa95a9af8fd921dc0 -->
<g id="edge3" class="edge">
<title>dir_989e9c0c9f16acce756990d917da59a4&#45;&gt;dir_42ec03b7ccf42fefa95a9af8fd921dc0</title>
<path fill="none" stroke="#000000" d="M119.3258,-108.4133C125.6561,-116.569 132.4836,-126.3212 138.1661,-135.257"/>
<polygon fill="#000000" stroke="#000000" points="135.205,-137.1238 143.4062,-143.8314 141.178,-133.4735 135.205,-137.1238"/>
<g id="a_edge3&#45;headlabel"><a xlink:href="dir_000011_000002.html" target="_top" xlink:title="1">
<text text-anchor="middle" x="130.908" y="-132.5372" font-family="Helvetica,sans-Serif" font-size="10.00" fill="#000000">1</text>
</a>
</g>
</g>
<!-- dir_989e9c0c9f16acce756990d917da59a4&#45;&gt;dir_699b43c0649cdffda9b3cb63579617e5 -->
<g id="edge4" class="edge">
<title>dir_989e9c0c9f16acce756990d917da59a4&#45;&gt;dir_699b43c0649cdffda9b3cb63579617e5</title>
<path fill="none" stroke="#000000" d="M94.8662,-71.8314C94.1158,-64.131 93.8949,-54.9743 94.2035,-46.4166"/>
<polygon fill="#000000" stroke="#000000" points="97.6978,-46.6161 94.8426,-36.4133 90.712,-46.1697 97.6978,-46.6161"/>
<g id="a_edge4&#45;headlabel"><a xlink:href="dir_000011_000006.html" target="_top" xlink:title="1">
<text text-anchor="middle" x="100.3022" y="-47.3844" font-family="Helvetica,sans-Serif" font-size="10.00" fill="#000000">1</text>
</a>
</g>
</g>
<!-- dir_42ec03b7ccf42fefa95a9af8fd921dc0&#45;&gt;dir_989e9c0c9f16acce756990d917da59a4 -->
<g id="edge5" class="edge">
<title>dir_42ec03b7ccf42fefa95a9af8fd921dc0&#45;&gt;dir_989e9c0c9f16acce756990d917da59a4</title>
<path fill="none" stroke="#000000" d="M131.5014,-143.8314C125.1813,-135.7079 118.3475,-125.9637 112.6422,-117.0118"/>
<polygon fill="#000000" stroke="#000000" points="115.5826,-115.1115 107.3738,-108.4133 109.6139,-118.7686 115.5826,-115.1115"/>
<g id="a_edge5&#45;headlabel"><a xlink:href="dir_000002_000011.html" target="_top" xlink:title="2">
<text text-anchor="middle" x="119.8815" y="-113.6932" font-family="Helvetica,sans-Serif" font-size="10.00" fill="#000000">2</text>
</a>
</g>
</g>
<!-- dir_699b43c0649cdffda9b3cb63579617e5&#45;&gt;dir_989e9c0c9f16acce756990d917da59a4 -->
<g id="edge6" class="edge">
<title>dir_699b43c0649cdffda9b3cb63579617e5&#45;&gt;dir_989e9c0c9f16acce756990d917da59a4</title>
<path fill="none" stroke="#000000" d="M106.7946,-36.4133C107.5257,-44.0593 107.7389,-53.1084 107.4341,-61.5726"/>
<polygon fill="#000000" stroke="#000000" points="103.9234,-61.6264 106.771,-71.8314 110.9088,-62.078 103.9234,-61.6264"/>
<g id="a_edge6&#45;headlabel"><a xlink:href="dir_000006_000011.html" target="_top" xlink:title="3">
<text text-anchor="middle" x="101.3218" y="-54.8562" font-family="Helvetica,sans-Serif" font-size="10.00" fill="#000000">3</text>
</a>
</g>
</g>
<!-- dir_699b43c0649cdffda9b3cb63579617e5&#45;&gt;dir_42ec03b7ccf42fefa95a9af8fd921dc0 -->
<g id="edge7" class="edge">
<title>dir_699b43c0649cdffda9b3cb63579617e5&#45;&gt;dir_42ec03b7ccf42fefa95a9af8fd921dc0</title>
<path fill="none" stroke="#000000" d="M122.9729,-36.1225C132.8666,-45.6429 143.4818,-58.1945 148.8186,-72 156.4015,-91.6157 156.2877,-115.4814 154.4741,-133.7068"/>
<polygon fill="#000000" stroke="#000000" points="150.9904,-133.3612 153.2552,-143.7111 157.939,-134.2079 150.9904,-133.3612"/>
<g id="a_edge7&#45;headlabel"><a xlink:href="dir_000006_000002.html" target="_top" xlink:title="1">
<text text-anchor="middle" x="148.6066" y="-126.4496" font-family="Helvetica,sans-Serif" font-size="10.00" fill="#000000">1</text>
</a>
</g>
</g>
</g>
</svg>
