<?xml version="1.0" encoding="UTF-8" standalone="no"?>
<!DOCTYPE svg PUBLIC "-//W3C//DTD SVG 1.1//EN"
 "http://www.w3.org/Graphics/SVG/1.1/DTD/svg11.dtd">
<!-- Generated by graphviz version 2.40.1 (20161225.0304)
 -->
<!-- Title: GluonicLQCD/io/fieldio.h Pages: 1 -->
<svg width="701pt" height="302pt"
 viewBox="0.00 0.00 701.05 302.00" xmlns="http://www.w3.org/2000/svg" xmlns:xlink="http://www.w3.org/1999/xlink">
<g id="graph0" class="graph" transform="scale(1 1) rotate(0) translate(4 298)">
<title>GluonicLQCD/io/fieldio.h</title>
<polygon fill="#ffffff" stroke="transparent" points="-4,4 -4,-298 697.0537,-298 697.0537,4 -4,4"/>
<!-- Node0 -->
<g id="node1" class="node">
<title>Node0</title>
<g id="a_node1"><a xlink:title=" ">
<polygon fill="#bfbfbf" stroke="#000000" points="41.7637,-275.5 41.7637,-293.5 167.2607,-293.5 167.2607,-275.5 41.7637,-275.5"/>
<text text-anchor="middle" x="104.5122" y="-281.5" font-family="Helvetica,sans-Serif" font-size="10.00" fill="#000000">GluonicLQCD/io/fieldio.h</text>
</a>
</g>
</g>
<!-- Node1 -->
<g id="node2" class="node">
<title>Node1</title>
<g id="a_node2"><a xlink:title=" ">
<polygon fill="#ffffff" stroke="#bfbfbf" points="11.2856,-220.5 11.2856,-238.5 51.7388,-238.5 51.7388,-220.5 11.2856,-220.5"/>
<text text-anchor="middle" x="31.5122" y="-226.5" font-family="Helvetica,sans-Serif" font-size="10.00" fill="#000000">string</text>
</a>
</g>
</g>
<!-- Node0&#45;&gt;Node1 -->
<g id="edge1" class="edge">
<title>Node0&#45;&gt;Node1</title>
<path fill="none" stroke="#191970" d="M92.4577,-275.4179C81.4289,-267.1084 64.889,-254.6469 51.8215,-244.8015"/>
<polygon fill="#191970" stroke="#191970" points="53.9216,-242.0016 43.8286,-238.7795 49.7093,-247.5924 53.9216,-242.0016"/>
</g>
<!-- Node2 -->
<g id="node3" class="node">
<title>Node2</title>
<g id="a_node3"><a xlink:href="links_8h.html" target="_top" xlink:title=" ">
<polygon fill="#ffffff" stroke="#000000" points="69.835,-220.5 69.835,-238.5 139.1895,-238.5 139.1895,-220.5 69.835,-220.5"/>
<text text-anchor="middle" x="104.5122" y="-226.5" font-family="Helvetica,sans-Serif" font-size="10.00" fill="#000000">math/links.h</text>
</a>
</g>
</g>
<!-- Node0&#45;&gt;Node2 -->
<g id="edge2" class="edge">
<title>Node0&#45;&gt;Node2</title>
<path fill="none" stroke="#191970" d="M104.5122,-275.4179C104.5122,-268.2164 104.5122,-257.8962 104.5122,-248.8632"/>
<polygon fill="#191970" stroke="#191970" points="108.0123,-248.7794 104.5122,-238.7795 101.0123,-248.7795 108.0123,-248.7794"/>
</g>
<!-- Node6 -->
<g id="node7" class="node">
<title>Node6</title>
<g id="a_node7"><a xlink:href="lattice_8h.html" target="_top" xlink:title=" ">
<polygon fill="#ffffff" stroke="#000000" points="215.7759,-220.5 215.7759,-238.5 291.2485,-238.5 291.2485,-220.5 215.7759,-220.5"/>
<text text-anchor="middle" x="253.5122" y="-226.5" font-family="Helvetica,sans-Serif" font-size="10.00" fill="#000000">math/lattice.h</text>
</a>
</g>
</g>
<!-- Node0&#45;&gt;Node6 -->
<g id="edge6" class="edge">
<title>Node0&#45;&gt;Node6</title>
<path fill="none" stroke="#191970" d="M129.1165,-275.4179C153.7043,-266.3419 191.7116,-252.3123 219.2454,-242.1488"/>
<polygon fill="#191970" stroke="#191970" points="220.7021,-245.342 228.8713,-238.5956 218.278,-238.7751 220.7021,-245.342"/>
</g>
<!-- Node3 -->
<g id="node4" class="node">
<title>Node3</title>
<g id="a_node4"><a xlink:href="su3_8h.html" target="_top" xlink:title=" ">
<polygon fill="#ffffff" stroke="#000000" points="0,-110.5 0,-128.5 81.0244,-128.5 81.0244,-110.5 0,-110.5"/>
<text text-anchor="middle" x="40.5122" y="-116.5" font-family="Helvetica,sans-Serif" font-size="10.00" fill="#000000">matrices/su3.h</text>
</a>
</g>
</g>
<!-- Node2&#45;&gt;Node3 -->
<g id="edge3" class="edge">
<title>Node2&#45;&gt;Node3</title>
<path fill="none" stroke="#191970" d="M96.0191,-220.2674C88.1863,-211.4287 76.5838,-197.482 68.5122,-184 59.7049,-169.2891 52.1334,-151.3051 47.0928,-138.0677"/>
<polygon fill="#191970" stroke="#191970" points="50.3554,-136.7988 43.6177,-128.6224 43.786,-139.2159 50.3554,-136.7988"/>
</g>
<!-- Node4 -->
<g id="node5" class="node">
<title>Node4</title>
<g id="a_node5"><a xlink:href="complex_8h.html" target="_top" xlink:title=" ">
<polygon fill="#ffffff" stroke="#000000" points="66.2192,-55.5 66.2192,-73.5 152.8052,-73.5 152.8052,-55.5 66.2192,-55.5"/>
<text text-anchor="middle" x="109.5122" y="-61.5" font-family="Helvetica,sans-Serif" font-size="10.00" fill="#000000">math/complex.h</text>
</a>
</g>
</g>
<!-- Node3&#45;&gt;Node4 -->
<g id="edge4" class="edge">
<title>Node3&#45;&gt;Node4</title>
<path fill="none" stroke="#191970" d="M51.9062,-110.4179C62.2314,-102.1876 77.667,-89.8839 89.9619,-80.0836"/>
<polygon fill="#191970" stroke="#191970" points="92.2326,-82.7495 97.8707,-73.7795 87.8693,-77.2757 92.2326,-82.7495"/>
</g>
<!-- Node5 -->
<g id="node6" class="node">
<title>Node5</title>
<g id="a_node6"><a xlink:title=" ">
<polygon fill="#ffffff" stroke="#bfbfbf" points="82.3398,-.5 82.3398,-18.5 136.6846,-18.5 136.6846,-.5 82.3398,-.5"/>
<text text-anchor="middle" x="109.5122" y="-6.5" font-family="Helvetica,sans-Serif" font-size="10.00" fill="#000000">iostream</text>
</a>
</g>
</g>
<!-- Node4&#45;&gt;Node5 -->
<g id="edge5" class="edge">
<title>Node4&#45;&gt;Node5</title>
<path fill="none" stroke="#191970" d="M109.5122,-55.4179C109.5122,-48.2164 109.5122,-37.8962 109.5122,-28.8632"/>
<polygon fill="#191970" stroke="#191970" points="113.0123,-28.7794 109.5122,-18.7795 106.0123,-28.7795 113.0123,-28.7794"/>
</g>
<!-- Node7 -->
<g id="node8" class="node">
<title>Node7</title>
<g id="a_node8"><a xlink:title=" ">
<polygon fill="#ffffff" stroke="#bfbfbf" points="236.8965,-110.5 236.8965,-128.5 280.1279,-128.5 280.1279,-110.5 236.8965,-110.5"/>
<text text-anchor="middle" x="258.5122" y="-116.5" font-family="Helvetica,sans-Serif" font-size="10.00" fill="#000000">vector</text>
</a>
</g>
</g>
<!-- Node6&#45;&gt;Node7 -->
<g id="edge7" class="edge">
<title>Node6&#45;&gt;Node7</title>
<path fill="none" stroke="#191970" d="M231.6532,-220.397C208.1294,-209.1597 175.6972,-188.614 188.5122,-165 196.8489,-149.6381 212.8632,-138.6528 227.4725,-131.3296"/>
<polygon fill="#191970" stroke="#191970" points="229.1618,-134.4048 236.7752,-127.0368 226.2288,-128.0489 229.1618,-134.4048"/>
</g>
<!-- Node8 -->
<g id="node9" class="node">
<title>Node8</title>
<g id="a_node9"><a xlink:title=" ">
<polygon fill="#ffffff" stroke="#bfbfbf" points="530.2856,-110.5 530.2856,-128.5 570.7388,-128.5 570.7388,-110.5 530.2856,-110.5"/>
<text text-anchor="middle" x="550.5122" y="-116.5" font-family="Helvetica,sans-Serif" font-size="10.00" fill="#000000">mpi.h</text>
</a>
</g>
</g>
<!-- Node6&#45;&gt;Node8 -->
<g id="edge8" class="edge">
<title>Node6&#45;&gt;Node8</title>
<path fill="none" stroke="#191970" d="M291.3091,-227.4209C336.8336,-223.6624 414.6465,-213.1689 474.5122,-184 498.6649,-172.2319 521.474,-151.0156 535.6863,-136.1389"/>
<polygon fill="#191970" stroke="#191970" points="538.4191,-138.3392 542.6516,-128.6265 533.286,-133.5799 538.4191,-138.3392"/>
</g>
<!-- Node9 -->
<g id="node10" class="node">
<title>Node9</title>
<g id="a_node10"><a xlink:href="index_8h.html" target="_top" xlink:title=" ">
<polygon fill="#ffffff" stroke="#000000" points="197.4263,-165.5 197.4263,-183.5 309.5981,-183.5 309.5981,-165.5 197.4263,-165.5"/>
<text text-anchor="middle" x="253.5122" y="-171.5" font-family="Helvetica,sans-Serif" font-size="10.00" fill="#000000">parallelization/index.h</text>
</a>
</g>
</g>
<!-- Node6&#45;&gt;Node9 -->
<g id="edge9" class="edge">
<title>Node6&#45;&gt;Node9</title>
<path fill="none" stroke="#191970" d="M253.5122,-220.4179C253.5122,-213.2164 253.5122,-202.8962 253.5122,-193.8632"/>
<polygon fill="#191970" stroke="#191970" points="257.0123,-193.7794 253.5122,-183.7795 250.0123,-193.7795 257.0123,-193.7794"/>
</g>
<!-- Node10 -->
<g id="node11" class="node">
<title>Node10</title>
<g id="a_node11"><a xlink:href="neighbours_8h.html" target="_top" xlink:title=" ">
<polygon fill="#ffffff" stroke="#000000" points="327.6382,-165.5 327.6382,-183.5 465.3862,-183.5 465.3862,-165.5 327.6382,-165.5"/>
<text text-anchor="middle" x="396.5122" y="-171.5" font-family="Helvetica,sans-Serif" font-size="10.00" fill="#000000">parallelization/neighbours.h</text>
</a>
</g>
</g>
<!-- Node6&#45;&gt;Node10 -->
<g id="edge11" class="edge">
<title>Node6&#45;&gt;Node10</title>
<path fill="none" stroke="#191970" d="M277.1257,-220.4179C300.6199,-211.3817 336.8805,-197.4353 363.277,-187.2828"/>
<polygon fill="#191970" stroke="#191970" points="364.7866,-190.4522 372.8636,-183.5956 362.2737,-183.9188 364.7866,-190.4522"/>
</g>
<!-- Node12 -->
<g id="node13" class="node">
<title>Node12</title>
<g id="a_node13"><a xlink:href="parallelparameters_8h.html" target="_top" xlink:title=" ">
<polygon fill="#ffffff" stroke="#000000" points="521.9707,-165.5 521.9707,-183.5 693.0537,-183.5 693.0537,-165.5 521.9707,-165.5"/>
<text text-anchor="middle" x="607.5122" y="-171.5" font-family="Helvetica,sans-Serif" font-size="10.00" fill="#000000">parallelization/parallelparameters.h</text>
</a>
</g>
</g>
<!-- Node6&#45;&gt;Node12 -->
<g id="edge14" class="edge">
<title>Node6&#45;&gt;Node12</title>
<path fill="none" stroke="#191970" d="M291.3964,-223.614C350.5084,-214.43 465.5425,-196.5574 539.3363,-185.0923"/>
<polygon fill="#191970" stroke="#191970" points="540.121,-188.5125 549.4651,-183.5186 539.0463,-181.5955 540.121,-188.5125"/>
</g>
<!-- Node13 -->
<g id="node14" class="node">
<title>Node13</title>
<g id="a_node14"><a xlink:href="functions_8h.html" target="_top" xlink:title=" ">
<polygon fill="#ffffff" stroke="#000000" points="77.3301,-165.5 77.3301,-183.5 141.6943,-183.5 141.6943,-165.5 77.3301,-165.5"/>
<text text-anchor="middle" x="109.5122" y="-171.5" font-family="Helvetica,sans-Serif" font-size="10.00" fill="#000000">functions.h</text>
</a>
</g>
</g>
<!-- Node6&#45;&gt;Node13 -->
<g id="edge16" class="edge">
<title>Node6&#45;&gt;Node13</title>
<path fill="none" stroke="#191970" d="M229.7335,-220.4179C206.0751,-211.3817 169.5609,-197.4353 142.9798,-187.2828"/>
<polygon fill="#191970" stroke="#191970" points="143.9168,-183.8941 133.3262,-183.5956 141.4192,-190.4334 143.9168,-183.8941"/>
</g>
<!-- Node9&#45;&gt;Node7 -->
<g id="edge10" class="edge">
<title>Node9&#45;&gt;Node7</title>
<path fill="none" stroke="#191970" d="M254.3379,-165.4179C254.9925,-158.2164 255.9307,-147.8962 256.7519,-138.8632"/>
<polygon fill="#191970" stroke="#191970" points="260.2488,-139.0553 257.6686,-128.7795 253.2775,-138.4215 260.2488,-139.0553"/>
</g>
<!-- Node10&#45;&gt;Node7 -->
<g id="edge13" class="edge">
<title>Node10&#45;&gt;Node7</title>
<path fill="none" stroke="#191970" d="M373.7243,-165.4179C350.8812,-156.3137 315.5321,-142.2253 290.0124,-132.0544"/>
<polygon fill="#191970" stroke="#191970" points="291.0068,-128.6831 280.4216,-128.232 288.4152,-135.1857 291.0068,-128.6831"/>
</g>
<!-- Node11 -->
<g id="node12" class="node">
<title>Node11</title>
<g id="a_node12"><a xlink:href="neighbourlist_8h.html" target="_top" xlink:title=" ">
<polygon fill="#ffffff" stroke="#000000" points="355.9902,-110.5 355.9902,-128.5 437.0342,-128.5 437.0342,-110.5 355.9902,-110.5"/>
<text text-anchor="middle" x="396.5122" y="-116.5" font-family="Helvetica,sans-Serif" font-size="10.00" fill="#000000">neighbourlist.h</text>
</a>
</g>
</g>
<!-- Node10&#45;&gt;Node11 -->
<g id="edge12" class="edge">
<title>Node10&#45;&gt;Node11</title>
<path fill="none" stroke="#191970" d="M396.5122,-165.4179C396.5122,-158.2164 396.5122,-147.8962 396.5122,-138.8632"/>
<polygon fill="#191970" stroke="#191970" points="400.0123,-138.7794 396.5122,-128.7795 393.0123,-138.7795 400.0123,-138.7794"/>
</g>
<!-- Node12&#45;&gt;Node8 -->
<g id="edge15" class="edge">
<title>Node12&#45;&gt;Node8</title>
<path fill="none" stroke="#191970" d="M598.0998,-165.4179C589.8163,-157.425 577.5513,-145.5903 567.5477,-135.9377"/>
<polygon fill="#191970" stroke="#191970" points="569.7556,-133.2045 560.1291,-128.7795 564.895,-138.2419 569.7556,-133.2045"/>
</g>
<!-- Node13&#45;&gt;Node3 -->
<g id="edge17" class="edge">
<title>Node13&#45;&gt;Node3</title>
<path fill="none" stroke="#191970" d="M98.1183,-165.4179C87.793,-157.1876 72.3575,-144.8839 60.0625,-135.0836"/>
<polygon fill="#191970" stroke="#191970" points="62.1551,-132.2757 52.1537,-128.7795 57.7919,-137.7495 62.1551,-132.2757"/>
</g>
<!-- Node13&#45;&gt;Node4 -->
<g id="edge20" class="edge">
<title>Node13&#45;&gt;Node4</title>
<path fill="none" stroke="#191970" d="M109.5122,-165.4982C109.5122,-147.6913 109.5122,-107.6225 109.5122,-83.6515"/>
<polygon fill="#191970" stroke="#191970" points="113.0123,-83.6261 109.5122,-73.6261 106.0123,-83.6262 113.0123,-83.6261"/>
</g>
<!-- Node14 -->
<g id="node15" class="node">
<title>Node14</title>
<g id="a_node15"><a xlink:href="su2_8h.html" target="_top" xlink:title=" ">
<polygon fill="#ffffff" stroke="#000000" points="138,-110.5 138,-128.5 219.0244,-128.5 219.0244,-110.5 138,-110.5"/>
<text text-anchor="middle" x="178.5122" y="-116.5" font-family="Helvetica,sans-Serif" font-size="10.00" fill="#000000">matrices/su2.h</text>
</a>
</g>
</g>
<!-- Node13&#45;&gt;Node14 -->
<g id="edge18" class="edge">
<title>Node13&#45;&gt;Node14</title>
<path fill="none" stroke="#191970" d="M120.9062,-165.4179C131.2314,-157.1876 146.667,-144.8839 158.9619,-135.0836"/>
<polygon fill="#191970" stroke="#191970" points="161.2326,-137.7495 166.8707,-128.7795 156.8693,-132.2757 161.2326,-137.7495"/>
</g>
<!-- Node14&#45;&gt;Node4 -->
<g id="edge19" class="edge">
<title>Node14&#45;&gt;Node4</title>
<path fill="none" stroke="#191970" d="M167.1183,-110.4179C156.793,-102.1876 141.3575,-89.8839 129.0625,-80.0836"/>
<polygon fill="#191970" stroke="#191970" points="131.1551,-77.2757 121.1537,-73.7795 126.7919,-82.7495 131.1551,-77.2757"/>
</g>
</g>
</svg>
