<?xml version="1.0" encoding="UTF-8" standalone="no"?>
<!DOCTYPE svg PUBLIC "-//W3C//DTD SVG 1.1//EN"
 "http://www.w3.org/Graphics/SVG/1.1/DTD/svg11.dtd">
<!-- Generated by graphviz version 2.40.1 (20161225.0304)
 -->
<!-- Title: GluonicLQCD/io/fieldio.cpp Pages: 1 -->
<svg width="933pt" height="522pt"
 viewBox="0.00 0.00 932.67 522.00" xmlns="http://www.w3.org/2000/svg" xmlns:xlink="http://www.w3.org/1999/xlink">
<g id="graph0" class="graph" transform="scale(1 1) rotate(0) translate(4 518)">
<title>GluonicLQCD/io/fieldio.cpp</title>
<polygon fill="#ffffff" stroke="transparent" points="-4,4 -4,-518 928.6699,-518 928.6699,4 -4,4"/>
<!-- Node0 -->
<g id="node1" class="node">
<title>Node0</title>
<g id="a_node1"><a xlink:title=" ">
<polygon fill="#bfbfbf" stroke="#000000" points="625.9707,-495.5 625.9707,-513.5 762.0293,-513.5 762.0293,-495.5 625.9707,-495.5"/>
<text text-anchor="middle" x="694" y="-501.5" font-family="Helvetica,sans-Serif" font-size="10.00" fill="#000000">GluonicLQCD/io/fieldio.cpp</text>
</a>
</g>
</g>
<!-- Node1 -->
<g id="node2" class="node">
<title>Node1</title>
<g id="a_node2"><a xlink:href="fieldio_8h.html" target="_top" xlink:title=" ">
<polygon fill="#ffffff" stroke="#000000" points="400.7661,-440.5 400.7661,-458.5 451.2339,-458.5 451.2339,-440.5 400.7661,-440.5"/>
<text text-anchor="middle" x="426" y="-446.5" font-family="Helvetica,sans-Serif" font-size="10.00" fill="#000000">fieldio.h</text>
</a>
</g>
</g>
<!-- Node0&#45;&gt;Node1 -->
<g id="edge1" class="edge">
<title>Node0&#45;&gt;Node1</title>
<path fill="none" stroke="#191970" d="M650.0454,-495.4795C597.3353,-484.6621 510.0281,-466.7446 461.428,-456.7707"/>
<polygon fill="#191970" stroke="#191970" points="461.8835,-453.2913 451.384,-454.7094 460.4762,-460.1484 461.8835,-453.2913"/>
</g>
<!-- Node9 -->
<g id="node10" class="node">
<title>Node9</title>
<g id="a_node10"><a xlink:title=" ">
<polygon fill="#ffffff" stroke="#bfbfbf" points="117.7734,-110.5 117.7734,-128.5 158.2266,-128.5 158.2266,-110.5 117.7734,-110.5"/>
<text text-anchor="middle" x="138" y="-116.5" font-family="Helvetica,sans-Serif" font-size="10.00" fill="#000000">mpi.h</text>
</a>
</g>
</g>
<!-- Node0&#45;&gt;Node9 -->
<g id="edge35" class="edge">
<title>Node0&#45;&gt;Node9</title>
<path fill="none" stroke="#191970" d="M625.8753,-500.7973C451.0178,-490.3883 0,-457.4393 0,-394.5 0,-394.5 0,-394.5 0,-229.5 0,-174.7053 67.3514,-142.7848 107.9497,-128.521"/>
<polygon fill="#191970" stroke="#191970" points="109.2696,-131.77 117.6376,-125.2719 107.0437,-125.1333 109.2696,-131.77"/>
</g>
<!-- Node10 -->
<g id="node11" class="node">
<title>Node10</title>
<g id="a_node11"><a xlink:href="index_8h.html" target="_top" xlink:title=" ">
<polygon fill="#ffffff" stroke="#000000" points="569.9141,-165.5 569.9141,-183.5 682.0859,-183.5 682.0859,-165.5 569.9141,-165.5"/>
<text text-anchor="middle" x="626" y="-171.5" font-family="Helvetica,sans-Serif" font-size="10.00" fill="#000000">parallelization/index.h</text>
</a>
</g>
</g>
<!-- Node0&#45;&gt;Node10 -->
<g id="edge33" class="edge">
<title>Node0&#45;&gt;Node10</title>
<path fill="none" stroke="#191970" d="M710.0252,-495.2466C736.3838,-478.6887 786,-441.3047 786,-394.5 786,-394.5 786,-394.5 786,-284.5 786,-230.3704 723.0475,-200.8675 676.1175,-186.3941"/>
<polygon fill="#191970" stroke="#191970" points="676.9559,-182.9925 666.3748,-183.5303 674.9818,-189.7084 676.9559,-182.9925"/>
</g>
<!-- Node16 -->
<g id="node17" class="node">
<title>Node16</title>
<g id="a_node17"><a xlink:href="parameters_8h.html" target="_top" xlink:title=" ">
<polygon fill="#ffffff" stroke="#000000" points="557.8105,-440.5 557.8105,-458.5 662.1895,-458.5 662.1895,-440.5 557.8105,-440.5"/>
<text text-anchor="middle" x="610" y="-446.5" font-family="Helvetica,sans-Serif" font-size="10.00" fill="#000000">config/parameters.h</text>
</a>
</g>
</g>
<!-- Node0&#45;&gt;Node16 -->
<g id="edge22" class="edge">
<title>Node0&#45;&gt;Node16</title>
<path fill="none" stroke="#191970" d="M680.1291,-495.4179C667.2403,-486.9788 647.8106,-474.257 632.6686,-464.3426"/>
<polygon fill="#191970" stroke="#191970" points="634.175,-461.1454 623.8915,-458.5956 630.3404,-467.0017 634.175,-461.1454"/>
</g>
<!-- Node19 -->
<g id="node20" class="node">
<title>Node19</title>
<g id="a_node20"><a xlink:href="communicator_8h.html" target="_top" xlink:title=" ">
<polygon fill="#ffffff" stroke="#000000" points="633.7046,-275.5 633.7046,-293.5 720.2954,-293.5 720.2954,-275.5 633.7046,-275.5"/>
<text text-anchor="middle" x="677" y="-281.5" font-family="Helvetica,sans-Serif" font-size="10.00" fill="#000000">communicator.h</text>
</a>
</g>
</g>
<!-- Node0&#45;&gt;Node19 -->
<g id="edge34" class="edge">
<title>Node0&#45;&gt;Node19</title>
<path fill="none" stroke="#191970" d="M693.2912,-495.327C690.7422,-462.3409 682.0071,-349.2972 678.4874,-303.7484"/>
<polygon fill="#191970" stroke="#191970" points="681.972,-303.4128 677.7119,-293.7122 674.9928,-303.9522 681.972,-303.4128"/>
</g>
<!-- Node20 -->
<g id="node21" class="node">
<title>Node20</title>
<g id="a_node21"><a xlink:title=" ">
<polygon fill="#ffffff" stroke="#bfbfbf" points="814.3843,-440.5 814.3843,-458.5 857.6157,-458.5 857.6157,-440.5 814.3843,-440.5"/>
<text text-anchor="middle" x="836" y="-446.5" font-family="Helvetica,sans-Serif" font-size="10.00" fill="#000000">cmath</text>
</a>
</g>
</g>
<!-- Node0&#45;&gt;Node20 -->
<g id="edge36" class="edge">
<title>Node0&#45;&gt;Node20</title>
<path fill="none" stroke="#191970" d="M717.4484,-495.4179C741.3371,-486.1652 778.5174,-471.7644 804.8635,-461.5599"/>
<polygon fill="#191970" stroke="#191970" points="806.3193,-464.7495 814.3802,-457.8739 803.791,-458.222 806.3193,-464.7495"/>
</g>
<!-- Node21 -->
<g id="node22" class="node">
<title>Node21</title>
<g id="a_node22"><a xlink:title=" ">
<polygon fill="#ffffff" stroke="#bfbfbf" points="875.3301,-440.5 875.3301,-458.5 924.6699,-458.5 924.6699,-440.5 875.3301,-440.5"/>
<text text-anchor="middle" x="900" y="-446.5" font-family="Helvetica,sans-Serif" font-size="10.00" fill="#000000">fstream</text>
</a>
</g>
</g>
<!-- Node0&#45;&gt;Node21 -->
<g id="edge37" class="edge">
<title>Node0&#45;&gt;Node21</title>
<path fill="none" stroke="#191970" d="M729.5166,-495.4149C762.4822,-486.9257 813.1652,-473.7306 865.3863,-459.4069"/>
<polygon fill="#191970" stroke="#191970" points="866.438,-462.7476 875.1511,-456.7201 864.5809,-455.9985 866.438,-462.7476"/>
</g>
<!-- Node2 -->
<g id="node3" class="node">
<title>Node2</title>
<g id="a_node3"><a xlink:title=" ">
<polygon fill="#ffffff" stroke="#bfbfbf" points="456.7734,-385.5 456.7734,-403.5 497.2266,-403.5 497.2266,-385.5 456.7734,-385.5"/>
<text text-anchor="middle" x="477" y="-391.5" font-family="Helvetica,sans-Serif" font-size="10.00" fill="#000000">string</text>
</a>
</g>
</g>
<!-- Node1&#45;&gt;Node2 -->
<g id="edge2" class="edge">
<title>Node1&#45;&gt;Node2</title>
<path fill="none" stroke="#191970" d="M434.4216,-440.4179C441.7598,-432.5041 452.5902,-420.8243 461.4913,-411.2251"/>
<polygon fill="#191970" stroke="#191970" points="464.1624,-413.492 468.3954,-403.7795 459.0295,-408.7324 464.1624,-413.492"/>
</g>
<!-- Node3 -->
<g id="node4" class="node">
<title>Node3</title>
<g id="a_node4"><a xlink:href="links_8h.html" target="_top" xlink:title=" ">
<polygon fill="#ffffff" stroke="#000000" points="180.3228,-330.5 180.3228,-348.5 249.6772,-348.5 249.6772,-330.5 180.3228,-330.5"/>
<text text-anchor="middle" x="215" y="-336.5" font-family="Helvetica,sans-Serif" font-size="10.00" fill="#000000">math/links.h</text>
</a>
</g>
</g>
<!-- Node1&#45;&gt;Node3 -->
<g id="edge3" class="edge">
<title>Node1&#45;&gt;Node3</title>
<path fill="none" stroke="#191970" d="M408.733,-440.4982C371.8714,-421.2813 285.2767,-376.1372 241.4303,-353.2788"/>
<polygon fill="#191970" stroke="#191970" points="242.991,-350.1454 232.5056,-348.6261 239.755,-356.3526 242.991,-350.1454"/>
</g>
<!-- Node7 -->
<g id="node8" class="node">
<title>Node7</title>
<g id="a_node8"><a xlink:href="lattice_8h.html" target="_top" xlink:title=" ">
<polygon fill="#ffffff" stroke="#000000" points="451.2637,-220.5 451.2637,-238.5 526.7363,-238.5 526.7363,-220.5 451.2637,-220.5"/>
<text text-anchor="middle" x="489" y="-226.5" font-family="Helvetica,sans-Serif" font-size="10.00" fill="#000000">math/lattice.h</text>
</a>
</g>
</g>
<!-- Node1&#45;&gt;Node7 -->
<g id="edge7" class="edge">
<title>Node1&#45;&gt;Node7</title>
<path fill="none" stroke="#191970" d="M428.6268,-440.327C438.0929,-407.271 470.5817,-293.8179 483.5706,-248.4598"/>
<polygon fill="#191970" stroke="#191970" points="486.9737,-249.2894 486.362,-238.7122 480.2442,-247.3622 486.9737,-249.2894"/>
</g>
<!-- Node4 -->
<g id="node5" class="node">
<title>Node4</title>
<g id="a_node5"><a xlink:href="su3_8h.html" target="_top" xlink:title=" ">
<polygon fill="#ffffff" stroke="#000000" points="176.4878,-110.5 176.4878,-128.5 257.5122,-128.5 257.5122,-110.5 176.4878,-110.5"/>
<text text-anchor="middle" x="217" y="-116.5" font-family="Helvetica,sans-Serif" font-size="10.00" fill="#000000">matrices/su3.h</text>
</a>
</g>
</g>
<!-- Node3&#45;&gt;Node4 -->
<g id="edge4" class="edge">
<title>Node3&#45;&gt;Node4</title>
<path fill="none" stroke="#191970" d="M194.6324,-330.37C141.4382,-305.2847 5.8907,-232.67 57,-165 63.8164,-155.9749 122.2026,-140.9577 166.4926,-130.6612"/>
<polygon fill="#191970" stroke="#191970" points="167.3111,-134.0644 176.2714,-128.4107 165.7411,-127.2427 167.3111,-134.0644"/>
</g>
<!-- Node5 -->
<g id="node6" class="node">
<title>Node5</title>
<g id="a_node6"><a xlink:href="complex_8h.html" target="_top" xlink:title=" ">
<polygon fill="#ffffff" stroke="#000000" points="272.707,-55.5 272.707,-73.5 359.293,-73.5 359.293,-55.5 272.707,-55.5"/>
<text text-anchor="middle" x="316" y="-61.5" font-family="Helvetica,sans-Serif" font-size="10.00" fill="#000000">math/complex.h</text>
</a>
</g>
</g>
<!-- Node4&#45;&gt;Node5 -->
<g id="edge5" class="edge">
<title>Node4&#45;&gt;Node5</title>
<path fill="none" stroke="#191970" d="M233.3478,-110.4179C248.9681,-101.7399 272.7398,-88.5334 290.7862,-78.5077"/>
<polygon fill="#191970" stroke="#191970" points="292.5861,-81.5117 299.6279,-73.5956 289.1865,-75.3925 292.5861,-81.5117"/>
</g>
<!-- Node6 -->
<g id="node7" class="node">
<title>Node6</title>
<g id="a_node7"><a xlink:title=" ">
<polygon fill="#ffffff" stroke="#bfbfbf" points="288.8276,-.5 288.8276,-18.5 343.1724,-18.5 343.1724,-.5 288.8276,-.5"/>
<text text-anchor="middle" x="316" y="-6.5" font-family="Helvetica,sans-Serif" font-size="10.00" fill="#000000">iostream</text>
</a>
</g>
</g>
<!-- Node5&#45;&gt;Node6 -->
<g id="edge6" class="edge">
<title>Node5&#45;&gt;Node6</title>
<path fill="none" stroke="#191970" d="M316,-55.4179C316,-48.2164 316,-37.8962 316,-28.8632"/>
<polygon fill="#191970" stroke="#191970" points="319.5001,-28.7794 316,-18.7795 312.5001,-28.7795 319.5001,-28.7794"/>
</g>
<!-- Node8 -->
<g id="node9" class="node">
<title>Node8</title>
<g id="a_node9"><a xlink:title=" ">
<polygon fill="#ffffff" stroke="#bfbfbf" points="604.3843,-110.5 604.3843,-128.5 647.6157,-128.5 647.6157,-110.5 604.3843,-110.5"/>
<text text-anchor="middle" x="626" y="-116.5" font-family="Helvetica,sans-Serif" font-size="10.00" fill="#000000">vector</text>
</a>
</g>
</g>
<!-- Node7&#45;&gt;Node8 -->
<g id="edge8" class="edge">
<title>Node7&#45;&gt;Node8</title>
<path fill="none" stroke="#191970" d="M498.4613,-220.3557C511.9296,-207.496 537.5968,-183.5648 561,-165 574.6338,-154.1849 590.6412,-142.9631 603.3592,-134.37"/>
<polygon fill="#191970" stroke="#191970" points="605.5899,-137.0888 611.9575,-128.6209 601.6991,-131.2697 605.5899,-137.0888"/>
</g>
<!-- Node7&#45;&gt;Node9 -->
<g id="edge9" class="edge">
<title>Node7&#45;&gt;Node9</title>
<path fill="none" stroke="#191970" d="M450.928,-222.1646C400.711,-212.2901 315.1735,-194.726 285,-184 267.2083,-177.6754 264.167,-172.8637 247,-165 220.4858,-152.8546 189.7907,-140.1612 167.7431,-131.2771"/>
<polygon fill="#191970" stroke="#191970" points="168.8521,-127.951 158.2677,-127.479 166.2475,-134.4484 168.8521,-127.951"/>
</g>
<!-- Node7&#45;&gt;Node10 -->
<g id="edge10" class="edge">
<title>Node7&#45;&gt;Node10</title>
<path fill="none" stroke="#191970" d="M511.6228,-220.4179C534.032,-211.4215 568.5645,-197.5581 593.8245,-187.4172"/>
<polygon fill="#191970" stroke="#191970" points="595.3675,-190.5693 603.3436,-183.5956 592.7596,-184.0732 595.3675,-190.5693"/>
</g>
<!-- Node11 -->
<g id="node12" class="node">
<title>Node11</title>
<g id="a_node12"><a xlink:href="neighbours_8h.html" target="_top" xlink:title=" ">
<polygon fill="#ffffff" stroke="#000000" points="376.126,-165.5 376.126,-183.5 513.874,-183.5 513.874,-165.5 376.126,-165.5"/>
<text text-anchor="middle" x="445" y="-171.5" font-family="Helvetica,sans-Serif" font-size="10.00" fill="#000000">parallelization/neighbours.h</text>
</a>
</g>
</g>
<!-- Node7&#45;&gt;Node11 -->
<g id="edge12" class="edge">
<title>Node7&#45;&gt;Node11</title>
<path fill="none" stroke="#191970" d="M481.7343,-220.4179C475.5299,-212.6624 466.432,-201.29 458.8428,-191.8035"/>
<polygon fill="#191970" stroke="#191970" points="461.4036,-189.4017 452.4236,-183.7795 455.9375,-193.7746 461.4036,-189.4017"/>
</g>
<!-- Node13 -->
<g id="node14" class="node">
<title>Node13</title>
<g id="a_node14"><a xlink:href="parallelparameters_8h.html" target="_top" xlink:title=" ">
<polygon fill="#ffffff" stroke="#000000" points="66.4585,-165.5 66.4585,-183.5 237.5415,-183.5 237.5415,-165.5 66.4585,-165.5"/>
<text text-anchor="middle" x="152" y="-171.5" font-family="Helvetica,sans-Serif" font-size="10.00" fill="#000000">parallelization/parallelparameters.h</text>
</a>
</g>
</g>
<!-- Node7&#45;&gt;Node13 -->
<g id="edge15" class="edge">
<title>Node7&#45;&gt;Node13</title>
<path fill="none" stroke="#191970" d="M451.2439,-222.4998C446.4523,-221.6416 441.6133,-220.7896 437,-220 363.3873,-207.4013 278.8811,-194.0492 221.1204,-185.0918"/>
<polygon fill="#191970" stroke="#191970" points="221.4316,-181.5983 211.0138,-183.527 220.3605,-188.5159 221.4316,-181.5983"/>
</g>
<!-- Node14 -->
<g id="node15" class="node">
<title>Node14</title>
<g id="a_node15"><a xlink:href="functions_8h.html" target="_top" xlink:title=" ">
<polygon fill="#ffffff" stroke="#000000" points="293.8179,-165.5 293.8179,-183.5 358.1821,-183.5 358.1821,-165.5 293.8179,-165.5"/>
<text text-anchor="middle" x="326" y="-171.5" font-family="Helvetica,sans-Serif" font-size="10.00" fill="#000000">functions.h</text>
</a>
</g>
</g>
<!-- Node7&#45;&gt;Node14 -->
<g id="edge17" class="edge">
<title>Node7&#45;&gt;Node14</title>
<path fill="none" stroke="#191970" d="M462.0839,-220.4179C434.8687,-211.2348 392.6247,-196.9807 362.4257,-186.7909"/>
<polygon fill="#191970" stroke="#191970" points="363.2794,-183.3851 352.6852,-183.5042 361.0413,-190.0177 363.2794,-183.3851"/>
</g>
<!-- Node10&#45;&gt;Node8 -->
<g id="edge11" class="edge">
<title>Node10&#45;&gt;Node8</title>
<path fill="none" stroke="#191970" d="M626,-165.4179C626,-158.2164 626,-147.8962 626,-138.8632"/>
<polygon fill="#191970" stroke="#191970" points="629.5001,-138.7794 626,-128.7795 622.5001,-138.7795 629.5001,-138.7794"/>
</g>
<!-- Node11&#45;&gt;Node8 -->
<g id="edge14" class="edge">
<title>Node11&#45;&gt;Node8</title>
<path fill="none" stroke="#191970" d="M474.8885,-165.4179C507.9197,-155.3808 560.8878,-139.2855 594.5369,-129.0606"/>
<polygon fill="#191970" stroke="#191970" points="595.7657,-132.3453 604.3161,-126.089 593.7305,-125.6477 595.7657,-132.3453"/>
</g>
<!-- Node12 -->
<g id="node13" class="node">
<title>Node12</title>
<g id="a_node13"><a xlink:href="neighbourlist_8h.html" target="_top" xlink:title=" ">
<polygon fill="#ffffff" stroke="#000000" points="413.478,-110.5 413.478,-128.5 494.522,-128.5 494.522,-110.5 413.478,-110.5"/>
<text text-anchor="middle" x="454" y="-116.5" font-family="Helvetica,sans-Serif" font-size="10.00" fill="#000000">neighbourlist.h</text>
</a>
</g>
</g>
<!-- Node11&#45;&gt;Node12 -->
<g id="edge13" class="edge">
<title>Node11&#45;&gt;Node12</title>
<path fill="none" stroke="#191970" d="M446.4862,-165.4179C447.6646,-158.2164 449.3534,-147.8962 450.8315,-138.8632"/>
<polygon fill="#191970" stroke="#191970" points="454.3206,-139.2134 452.4815,-128.7795 447.4125,-138.083 454.3206,-139.2134"/>
</g>
<!-- Node13&#45;&gt;Node9 -->
<g id="edge16" class="edge">
<title>Node13&#45;&gt;Node9</title>
<path fill="none" stroke="#191970" d="M149.6882,-165.4179C147.8349,-158.1372 145.1703,-147.669 142.8531,-138.5659"/>
<polygon fill="#191970" stroke="#191970" points="146.2208,-137.607 140.362,-128.7795 139.4371,-139.3338 146.2208,-137.607"/>
</g>
<!-- Node14&#45;&gt;Node4 -->
<g id="edge18" class="edge">
<title>Node14&#45;&gt;Node4</title>
<path fill="none" stroke="#191970" d="M308.0009,-165.4179C290.645,-156.6603 264.1489,-143.2907 244.2154,-133.2326"/>
<polygon fill="#191970" stroke="#191970" points="245.5304,-129.9758 235.0259,-128.5956 242.377,-136.2253 245.5304,-129.9758"/>
</g>
<!-- Node14&#45;&gt;Node5 -->
<g id="edge21" class="edge">
<title>Node14&#45;&gt;Node5</title>
<path fill="none" stroke="#191970" d="M338.5362,-165.3407C353.4596,-153.2309 375.27,-130.9694 366,-110 360.5872,-97.7558 350.0718,-87.3899 340.0753,-79.6592"/>
<polygon fill="#191970" stroke="#191970" points="342.087,-76.7949 331.9237,-73.8019 338.0023,-82.4796 342.087,-76.7949"/>
</g>
<!-- Node15 -->
<g id="node16" class="node">
<title>Node15</title>
<g id="a_node16"><a xlink:href="su2_8h.html" target="_top" xlink:title=" ">
<polygon fill="#ffffff" stroke="#000000" points="275.4878,-110.5 275.4878,-128.5 356.5122,-128.5 356.5122,-110.5 275.4878,-110.5"/>
<text text-anchor="middle" x="316" y="-116.5" font-family="Helvetica,sans-Serif" font-size="10.00" fill="#000000">matrices/su2.h</text>
</a>
</g>
</g>
<!-- Node14&#45;&gt;Node15 -->
<g id="edge19" class="edge">
<title>Node14&#45;&gt;Node15</title>
<path fill="none" stroke="#191970" d="M324.3487,-165.4179C323.0393,-158.2164 321.1629,-147.8962 319.5206,-138.8632"/>
<polygon fill="#191970" stroke="#191970" points="322.9197,-137.992 317.6872,-128.7795 316.0326,-139.2443 322.9197,-137.992"/>
</g>
<!-- Node15&#45;&gt;Node5 -->
<g id="edge20" class="edge">
<title>Node15&#45;&gt;Node5</title>
<path fill="none" stroke="#191970" d="M316,-110.4179C316,-103.2164 316,-92.8962 316,-83.8632"/>
<polygon fill="#191970" stroke="#191970" points="319.5001,-83.7794 316,-73.7795 312.5001,-83.7795 319.5001,-83.7794"/>
</g>
<!-- Node16&#45;&gt;Node2 -->
<g id="edge23" class="edge">
<title>Node16&#45;&gt;Node2</title>
<path fill="none" stroke="#191970" d="M588.0378,-440.4179C565.8603,-431.2467 531.452,-417.0177 506.8176,-406.8306"/>
<polygon fill="#191970" stroke="#191970" points="507.8281,-403.4611 497.2496,-402.8739 505.153,-409.9298 507.8281,-403.4611"/>
</g>
<!-- Node16&#45;&gt;Node8 -->
<g id="edge24" class="edge">
<title>Node16&#45;&gt;Node8</title>
<path fill="none" stroke="#191970" d="M640.2847,-440.3966C680.9072,-426.0924 748,-394.1894 748,-339.5 748,-339.5 748,-339.5 748,-229.5 748,-180.5446 693.1447,-147.7833 657.0002,-131.5103"/>
<polygon fill="#191970" stroke="#191970" points="658.3794,-128.2935 647.8112,-127.543 655.6047,-134.7201 658.3794,-128.2935"/>
</g>
<!-- Node17 -->
<g id="node18" class="node">
<title>Node17</title>
<g id="a_node18"><a xlink:href="sysprint_8h.html" target="_top" xlink:title=" ">
<polygon fill="#ffffff" stroke="#000000" points="565.8721,-385.5 565.8721,-403.5 654.1279,-403.5 654.1279,-385.5 565.8721,-385.5"/>
<text text-anchor="middle" x="610" y="-391.5" font-family="Helvetica,sans-Serif" font-size="10.00" fill="#000000">config/sysprint.h</text>
</a>
</g>
</g>
<!-- Node16&#45;&gt;Node17 -->
<g id="edge25" class="edge">
<title>Node16&#45;&gt;Node17</title>
<path fill="none" stroke="#191970" d="M604.8337,-440.4179C603.3421,-433.2164 602.9042,-422.8962 603.5198,-413.8632"/>
<polygon fill="#191970" stroke="#191970" points="607.0126,-414.1392 604.7932,-403.7795 600.0678,-413.2621 607.0126,-414.1392"/>
</g>
<!-- Node17&#45;&gt;Node16 -->
<g id="edge26" class="edge">
<title>Node17&#45;&gt;Node16</title>
<path fill="none" stroke="#191970" d="M615.2068,-403.7795C616.6791,-411.0373 617.0979,-421.3738 616.4632,-430.383"/>
<polygon fill="#191970" stroke="#191970" points="612.9769,-430.0517 615.1663,-440.4179 619.9192,-430.949 612.9769,-430.0517"/>
</g>
<!-- Node18 -->
<g id="node19" class="node">
<title>Node18</title>
<g id="a_node19"><a xlink:href="parallel_8h.html" target="_top" xlink:title=" ">
<polygon fill="#ffffff" stroke="#000000" points="545.7466,-330.5 545.7466,-348.5 666.2534,-348.5 666.2534,-330.5 545.7466,-330.5"/>
<text text-anchor="middle" x="606" y="-336.5" font-family="Helvetica,sans-Serif" font-size="10.00" fill="#000000">parallelization/parallel.h</text>
</a>
</g>
</g>
<!-- Node17&#45;&gt;Node18 -->
<g id="edge27" class="edge">
<title>Node17&#45;&gt;Node18</title>
<path fill="none" stroke="#191970" d="M609.3395,-385.4179C608.8157,-378.2164 608.0652,-367.8962 607.4082,-358.8632"/>
<polygon fill="#191970" stroke="#191970" points="610.8911,-358.4992 606.6749,-348.7795 603.9095,-359.007 610.8911,-358.4992"/>
</g>
<!-- Node18&#45;&gt;Node10 -->
<g id="edge31" class="edge">
<title>Node18&#45;&gt;Node10</title>
<path fill="none" stroke="#191970" d="M607.1326,-330.1561C610.309,-303.9504 619.3508,-229.3557 623.6603,-193.8021"/>
<polygon fill="#191970" stroke="#191970" points="627.151,-194.0899 624.8798,-183.7414 620.2019,-193.2475 627.151,-194.0899"/>
</g>
<!-- Node18&#45;&gt;Node13 -->
<g id="edge32" class="edge">
<title>Node18&#45;&gt;Node13</title>
<path fill="none" stroke="#191970" d="M580.9443,-330.3939C504.5145,-302.6165 274.2247,-218.9209 186.472,-187.0284"/>
<polygon fill="#191970" stroke="#191970" points="187.5723,-183.7043 176.9783,-183.578 185.1813,-190.2833 187.5723,-183.7043"/>
</g>
<!-- Node18&#45;&gt;Node19 -->
<g id="edge28" class="edge">
<title>Node18&#45;&gt;Node19</title>
<path fill="none" stroke="#191970" d="M617.7242,-330.4179C628.3488,-322.1876 644.2317,-309.8839 656.8831,-300.0836"/>
<polygon fill="#191970" stroke="#191970" points="659.259,-302.6704 665.0211,-293.7795 654.9721,-297.1365 659.259,-302.6704"/>
</g>
<!-- Node19&#45;&gt;Node7 -->
<g id="edge30" class="edge">
<title>Node19&#45;&gt;Node7</title>
<path fill="none" stroke="#191970" d="M645.9556,-275.4179C614.1569,-266.115 564.5693,-251.608 529.6567,-241.3943"/>
<polygon fill="#191970" stroke="#191970" points="530.3585,-237.9529 519.778,-238.5042 528.393,-244.6713 530.3585,-237.9529"/>
</g>
<!-- Node19&#45;&gt;Node8 -->
<g id="edge29" class="edge">
<title>Node19&#45;&gt;Node8</title>
<path fill="none" stroke="#191970" d="M681.3459,-275.4793C690.7008,-254.67 710.3894,-202.2404 691,-165 683.7312,-151.0391 670.0014,-140.4762 657.0265,-133.0593"/>
<polygon fill="#191970" stroke="#191970" points="658.2947,-129.7716 647.8154,-128.2111 655.0343,-135.966 658.2947,-129.7716"/>
</g>
</g>
</svg>
