<?xml version="1.0" encoding="UTF-8" standalone="no"?>
<!DOCTYPE svg PUBLIC "-//W3C//DTD SVG 1.1//EN"
 "http://www.w3.org/Graphics/SVG/1.1/DTD/svg11.dtd">
<!-- Generated by graphviz version 2.40.1 (20161225.0304)
 -->
<!-- Title: GluonicLQCD/math/flowexpfunctions.h Pages: 1 -->
<svg width="377pt" height="322pt"
 viewBox="0.00 0.00 376.90 322.00" xmlns="http://www.w3.org/2000/svg" xmlns:xlink="http://www.w3.org/1999/xlink">
<g id="graph0" class="graph" transform="scale(1 1) rotate(0) translate(4 318)">
<title>GluonicLQCD/math/flowexpfunctions.h</title>
<polygon fill="#ffffff" stroke="transparent" points="-4,4 -4,-318 372.9001,-318 372.9001,4 -4,4"/>
<!-- Node0 -->
<g id="node1" class="node">
<title>Node0</title>
<g id="a_node1"><a xlink:title=" ">
<polygon fill="#bfbfbf" stroke="#000000" points="35.9943,-295.5 35.9943,-313.5 223.7424,-313.5 223.7424,-295.5 35.9943,-295.5"/>
<text text-anchor="middle" x="129.8683" y="-301.5" font-family="Helvetica,sans-Serif" font-size="10.00" fill="#000000">GluonicLQCD/math/flowexpfunctions.h</text>
</a>
</g>
</g>
<!-- Node1 -->
<g id="node2" class="node">
<title>Node1</title>
<g id="a_node2"><a xlink:href="su3exp_8h.html" target="_top" xlink:title=" ">
<polygon fill="#ffffff" stroke="#000000" points="76.8366,-165.5 76.8366,-193.5 182.9001,-193.5 182.9001,-165.5 76.8366,-165.5"/>
<text text-anchor="start" x="84.8366" y="-181.5" font-family="Helvetica,sans-Serif" font-size="10.00" fill="#000000">math/exponentiation</text>
<text text-anchor="middle" x="129.8683" y="-171.5" font-family="Helvetica,sans-Serif" font-size="10.00" fill="#000000">/su3exp.h</text>
</a>
</g>
</g>
<!-- Node0&#45;&gt;Node1 -->
<g id="edge1" class="edge">
<title>Node0&#45;&gt;Node1</title>
<path fill="none" stroke="#191970" d="M91.3135,-295.4811C58.7966,-287.0018 15.9771,-273.4771 5.8683,-259 -15.1399,-228.9135 26.3637,-207.5773 66.9001,-194.6348"/>
<polygon fill="#191970" stroke="#191970" points="68.0501,-197.9434 76.598,-191.6837 66.0122,-191.2466 68.0501,-197.9434"/>
</g>
<!-- Node5 -->
<g id="node6" class="node">
<title>Node5</title>
<g id="a_node6"><a xlink:href="expluscher_8h.html" target="_top" xlink:title=" ">
<polygon fill="#ffffff" stroke="#000000" points="14.8366,-230.5 14.8366,-258.5 120.9001,-258.5 120.9001,-230.5 14.8366,-230.5"/>
<text text-anchor="start" x="22.8366" y="-246.5" font-family="Helvetica,sans-Serif" font-size="10.00" fill="#000000">math/exponentiation</text>
<text text-anchor="middle" x="67.8683" y="-236.5" font-family="Helvetica,sans-Serif" font-size="10.00" fill="#000000">/expluscher.h</text>
</a>
</g>
</g>
<!-- Node0&#45;&gt;Node5 -->
<g id="edge5" class="edge">
<title>Node0&#45;&gt;Node5</title>
<path fill="none" stroke="#191970" d="M120.4519,-295.3873C112.3831,-287.5788 100.4416,-276.0225 89.9768,-265.8952"/>
<polygon fill="#191970" stroke="#191970" points="92.3143,-263.2868 82.6942,-258.8477 87.4463,-268.317 92.3143,-263.2868"/>
</g>
<!-- Node6 -->
<g id="node7" class="node">
<title>Node6</title>
<g id="a_node7"><a xlink:href="taylor2exp_8h.html" target="_top" xlink:title=" ">
<polygon fill="#ffffff" stroke="#000000" points="138.8366,-230.5 138.8366,-258.5 244.9001,-258.5 244.9001,-230.5 138.8366,-230.5"/>
<text text-anchor="start" x="146.8366" y="-246.5" font-family="Helvetica,sans-Serif" font-size="10.00" fill="#000000">math/exponentiation</text>
<text text-anchor="middle" x="191.8683" y="-236.5" font-family="Helvetica,sans-Serif" font-size="10.00" fill="#000000">/taylor2exp.h</text>
</a>
</g>
</g>
<!-- Node0&#45;&gt;Node6 -->
<g id="edge7" class="edge">
<title>Node0&#45;&gt;Node6</title>
<path fill="none" stroke="#191970" d="M139.2848,-295.3873C147.3535,-287.5788 159.2951,-276.0225 169.7599,-265.8952"/>
<polygon fill="#191970" stroke="#191970" points="172.2904,-268.317 177.0424,-258.8477 167.4224,-263.2868 172.2904,-268.317"/>
</g>
<!-- Node7 -->
<g id="node8" class="node">
<title>Node7</title>
<g id="a_node8"><a xlink:href="taylor4exp_8h.html" target="_top" xlink:title=" ">
<polygon fill="#ffffff" stroke="#000000" points="262.8366,-230.5 262.8366,-258.5 368.9001,-258.5 368.9001,-230.5 262.8366,-230.5"/>
<text text-anchor="start" x="270.8366" y="-246.5" font-family="Helvetica,sans-Serif" font-size="10.00" fill="#000000">math/exponentiation</text>
<text text-anchor="middle" x="315.8683" y="-236.5" font-family="Helvetica,sans-Serif" font-size="10.00" fill="#000000">/taylor4exp.h</text>
</a>
</g>
</g>
<!-- Node0&#45;&gt;Node7 -->
<g id="edge9" class="edge">
<title>Node0&#45;&gt;Node7</title>
<path fill="none" stroke="#191970" d="M158.1177,-295.3873C185.7741,-286.4659 228.597,-272.652 262.6507,-261.667"/>
<polygon fill="#191970" stroke="#191970" points="264.0133,-264.9051 272.4559,-258.504 261.8642,-258.2431 264.0133,-264.9051"/>
</g>
<!-- Node2 -->
<g id="node3" class="node">
<title>Node2</title>
<g id="a_node3"><a xlink:href="su3_8h.html" target="_top" xlink:title=" ">
<polygon fill="#ffffff" stroke="#000000" points="76.8512,-110.5 76.8512,-128.5 182.8854,-128.5 182.8854,-110.5 76.8512,-110.5"/>
<text text-anchor="middle" x="129.8683" y="-116.5" font-family="Helvetica,sans-Serif" font-size="10.00" fill="#000000">math/matrices/su3.h</text>
</a>
</g>
</g>
<!-- Node1&#45;&gt;Node2 -->
<g id="edge2" class="edge">
<title>Node1&#45;&gt;Node2</title>
<path fill="none" stroke="#191970" d="M129.8683,-165.2808C129.8683,-157.3776 129.8683,-147.4316 129.8683,-138.8308"/>
<polygon fill="#191970" stroke="#191970" points="133.3684,-138.5842 129.8683,-128.5842 126.3684,-138.5842 133.3684,-138.5842"/>
</g>
<!-- Node3 -->
<g id="node4" class="node">
<title>Node3</title>
<g id="a_node4"><a xlink:href="complex_8h.html" target="_top" xlink:title=" ">
<polygon fill="#ffffff" stroke="#000000" points="86.5754,-55.5 86.5754,-73.5 173.1613,-73.5 173.1613,-55.5 86.5754,-55.5"/>
<text text-anchor="middle" x="129.8683" y="-61.5" font-family="Helvetica,sans-Serif" font-size="10.00" fill="#000000">math/complex.h</text>
</a>
</g>
</g>
<!-- Node2&#45;&gt;Node3 -->
<g id="edge3" class="edge">
<title>Node2&#45;&gt;Node3</title>
<path fill="none" stroke="#191970" d="M129.8683,-110.4179C129.8683,-103.2164 129.8683,-92.8962 129.8683,-83.8632"/>
<polygon fill="#191970" stroke="#191970" points="133.3684,-83.7794 129.8683,-73.7795 126.3684,-83.7795 133.3684,-83.7794"/>
</g>
<!-- Node4 -->
<g id="node5" class="node">
<title>Node4</title>
<g id="a_node5"><a xlink:title=" ">
<polygon fill="#ffffff" stroke="#bfbfbf" points="102.696,-.5 102.696,-18.5 157.0407,-18.5 157.0407,-.5 102.696,-.5"/>
<text text-anchor="middle" x="129.8683" y="-6.5" font-family="Helvetica,sans-Serif" font-size="10.00" fill="#000000">iostream</text>
</a>
</g>
</g>
<!-- Node3&#45;&gt;Node4 -->
<g id="edge4" class="edge">
<title>Node3&#45;&gt;Node4</title>
<path fill="none" stroke="#191970" d="M129.8683,-55.4179C129.8683,-48.2164 129.8683,-37.8962 129.8683,-28.8632"/>
<polygon fill="#191970" stroke="#191970" points="133.3684,-28.7794 129.8683,-18.7795 126.3684,-28.7795 133.3684,-28.7794"/>
</g>
<!-- Node5&#45;&gt;Node1 -->
<g id="edge6" class="edge">
<title>Node5&#45;&gt;Node1</title>
<path fill="none" stroke="#191970" d="M81.3214,-230.396C89.5272,-221.7931 100.1789,-210.626 109.4133,-200.9448"/>
<polygon fill="#191970" stroke="#191970" points="112.072,-203.2284 116.4415,-193.5765 107.0067,-198.3969 112.072,-203.2284"/>
</g>
<!-- Node6&#45;&gt;Node1 -->
<g id="edge8" class="edge">
<title>Node6&#45;&gt;Node1</title>
<path fill="none" stroke="#191970" d="M178.4153,-230.396C170.2094,-221.7931 159.5578,-210.626 150.3233,-200.9448"/>
<polygon fill="#191970" stroke="#191970" points="152.7299,-198.3969 143.2952,-193.5765 147.6647,-203.2284 152.7299,-198.3969"/>
</g>
<!-- Node7&#45;&gt;Node1 -->
<g id="edge10" class="edge">
<title>Node7&#45;&gt;Node1</title>
<path fill="none" stroke="#191970" d="M275.5091,-230.396C247.3574,-220.558 209.6102,-207.3668 179.5989,-196.879"/>
<polygon fill="#191970" stroke="#191970" points="180.7436,-193.5715 170.1488,-193.5765 178.4343,-200.1796 180.7436,-193.5715"/>
</g>
</g>
</svg>
