<?xml version="1.0" encoding="UTF-8" standalone="no"?>
<!DOCTYPE svg PUBLIC "-//W3C//DTD SVG 1.1//EN"
 "http://www.w3.org/Graphics/SVG/1.1/DTD/svg11.dtd">
<!-- Generated by graphviz version 2.40.1 (20161225.0304)
 -->
<!-- Title: Graphical Class Hierarchy Pages: 1 -->
<svg width="281pt" height="114pt"
 viewBox="0.00 0.00 280.57 114.00" xmlns="http://www.w3.org/2000/svg" xmlns:xlink="http://www.w3.org/1999/xlink">
<g id="graph0" class="graph" transform="scale(1 1) rotate(0) translate(4 110)">
<title>Graphical Class Hierarchy</title>
<polygon fill="#ffffff" stroke="transparent" points="-4,4 -4,-110 276.5703,-110 276.5703,4 -4,4"/>
<!-- Node53 -->
<g id="node1" class="node">
<title>Node53</title>
<g id="a_node1"><a xlink:title=" ">
<polygon fill="#ffffff" stroke="#bfbfbf" points="0,-46.5 0,-64.5 61.5859,-64.5 61.5859,-46.5 0,-46.5"/>
<text text-anchor="middle" x="30.793" y="-52.5" font-family="Helvetica,sans-Serif" font-size="10.00" fill="#000000">false_type</text>
</a>
</g>
</g>
<!-- Node0 -->
<g id="node2" class="node">
<title>Node0</title>
<g id="a_node2"><a xlink:href="structnlohmann_1_1detail_1_1is__compatible__integer__type__impl.html" target="_top" xlink:title=" ">
<polygon fill="#ffffff" stroke="#000000" points="97.5859,-67.5 97.5859,-105.5 272.5703,-105.5 272.5703,-67.5 97.5859,-67.5"/>
<text text-anchor="start" x="105.5859" y="-93.5" font-family="Helvetica,sans-Serif" font-size="10.00" fill="#000000">nlohmann::detail::is</text>
<text text-anchor="start" x="105.5859" y="-83.5" font-family="Helvetica,sans-Serif" font-size="10.00" fill="#000000">_compatible_integer_type</text>
<text text-anchor="middle" x="185.0781" y="-73.5" font-family="Helvetica,sans-Serif" font-size="10.00" fill="#000000">_impl&lt; bool, typename, typename &gt;</text>
</a>
</g>
</g>
<!-- Node53&#45;&gt;Node0 -->
<g id="edge1" class="edge">
<title>Node53&#45;&gt;Node0</title>
<path fill="none" stroke="#191970" d="M71.4897,-63.6771C79.5859,-65.3038 88.3775,-67.0703 97.3642,-68.8759"/>
<polygon fill="#191970" stroke="#191970" points="72.1376,-60.2374 61.6441,-61.6988 70.7586,-67.1002 72.1376,-60.2374"/>
</g>
<!-- Node55 -->
<g id="node3" class="node">
<title>Node55</title>
<g id="a_node3"><a xlink:href="structnlohmann_1_1detail_1_1is__compatible__object__type__impl.html" target="_top" xlink:title=" ">
<polygon fill="#ffffff" stroke="#000000" points="105.5132,-.5 105.5132,-48.5 264.6431,-48.5 264.6431,-.5 105.5132,-.5"/>
<text text-anchor="start" x="113.5132" y="-36.5" font-family="Helvetica,sans-Serif" font-size="10.00" fill="#000000">nlohmann::detail::is</text>
<text text-anchor="start" x="113.5132" y="-26.5" font-family="Helvetica,sans-Serif" font-size="10.00" fill="#000000">_compatible_object_type</text>
<text text-anchor="start" x="113.5132" y="-16.5" font-family="Helvetica,sans-Serif" font-size="10.00" fill="#000000">_impl&lt; B, RealType, Compatible</text>
<text text-anchor="middle" x="185.0781" y="-6.5" font-family="Helvetica,sans-Serif" font-size="10.00" fill="#000000">ObjectType &gt;</text>
</a>
</g>
</g>
<!-- Node53&#45;&gt;Node55 -->
<g id="edge2" class="edge">
<title>Node53&#45;&gt;Node55</title>
<path fill="none" stroke="#191970" d="M71.6697,-47.2868C82.1181,-45.1874 93.7155,-42.8572 105.3908,-40.5113"/>
<polygon fill="#191970" stroke="#191970" points="70.7586,-43.8998 61.6441,-49.3012 72.1376,-50.7626 70.7586,-43.8998"/>
</g>
</g>
</svg>
