<?xml version="1.0" encoding="UTF-8" standalone="no"?>
<!DOCTYPE svg PUBLIC "-//W3C//DTD SVG 1.1//EN"
 "http://www.w3.org/Graphics/SVG/1.1/DTD/svg11.dtd">
<!-- Generated by graphviz version 2.40.1 (20161225.0304)
 -->
<!-- Title: operator&quot;&quot;_json Pages: 1 -->
<svg width="538pt" height="37pt"
 viewBox="0.00 0.00 538.44 37.00" xmlns="http://www.w3.org/2000/svg" xmlns:xlink="http://www.w3.org/1999/xlink">
<g id="graph0" class="graph" transform="scale(1 1) rotate(0) translate(4 33)">
<title>operator&quot;&quot;_json</title>
<polygon fill="#ffffff" stroke="transparent" points="-4,4 -4,-33 534.4375,-33 534.4375,4 -4,4"/>
<!-- Node0 -->
<g id="node1" class="node">
<title>Node0</title>
<g id="a_node1"><a xlink:title="user&#45;defined string literal for JSON values">
<polygon fill="#bfbfbf" stroke="#000000" points="0,-5.5 0,-23.5 84.252,-23.5 84.252,-5.5 0,-5.5"/>
<text text-anchor="middle" x="42.126" y="-11.5" font-family="Helvetica,sans-Serif" font-size="10.00" fill="#000000">operator&quot;&quot;_json</text>
</a>
</g>
</g>
<!-- Node1 -->
<g id="node2" class="node">
<title>Node1</title>
<g id="a_node2"><a xlink:href="classnlohmann_1_1basic__json.html#a86f339e8449cce96b89e86635a7d389e" target="_top" xlink:title="deserialize from an array">
<polygon fill="#ffffff" stroke="#000000" points="120.252,-.5 120.252,-28.5 232.9805,-28.5 232.9805,-.5 120.252,-.5"/>
<text text-anchor="start" x="128.252" y="-16.5" font-family="Helvetica,sans-Serif" font-size="10.00" fill="#000000">nlohmann::basic_json</text>
<text text-anchor="middle" x="176.6162" y="-6.5" font-family="Helvetica,sans-Serif" font-size="10.00" fill="#000000">::parse</text>
</a>
</g>
</g>
<!-- Node0&#45;&gt;Node1 -->
<g id="edge1" class="edge">
<title>Node0&#45;&gt;Node1</title>
<path fill="none" stroke="#191970" d="M84.3105,-14.5C92.3943,-14.5 101.0419,-14.5 109.6827,-14.5"/>
<polygon fill="#191970" stroke="#191970" points="109.7889,-18.0001 119.7889,-14.5 109.7888,-11.0001 109.7889,-18.0001"/>
</g>
<!-- Node2 -->
<g id="node3" class="node">
<title>Node2</title>
<g id="a_node3"><a xlink:href="classnlohmann_1_1basic__json.html#a4a4ec75e4d2845d9bcf7a9e5458e4949" target="_top" xlink:title="explicitly create an array from an initializer list">
<polygon fill="#ffffff" stroke="#000000" points="268.9805,-.5 268.9805,-28.5 381.709,-28.5 381.709,-.5 268.9805,-.5"/>
<text text-anchor="start" x="276.9805" y="-16.5" font-family="Helvetica,sans-Serif" font-size="10.00" fill="#000000">nlohmann::basic_json</text>
<text text-anchor="middle" x="325.3447" y="-6.5" font-family="Helvetica,sans-Serif" font-size="10.00" fill="#000000">::array</text>
</a>
</g>
</g>
<!-- Node1&#45;&gt;Node2 -->
<g id="edge2" class="edge">
<title>Node1&#45;&gt;Node2</title>
<path fill="none" stroke="#191970" d="M233.2684,-14.5C241.5557,-14.5 250.1547,-14.5 258.6202,-14.5"/>
<polygon fill="#191970" stroke="#191970" points="258.8501,-18.0001 268.8501,-14.5 258.8501,-11.0001 258.8501,-18.0001"/>
</g>
<!-- Node3 -->
<g id="node4" class="node">
<title>Node3</title>
<g id="a_node4"><a xlink:href="classnlohmann_1_1basic__json.html#a32124a16dc80729d964d9caf607c2bc8" target="_top" xlink:title="create an empty value with a given type">
<polygon fill="#ffffff" stroke="#000000" points="417.709,-.5 417.709,-28.5 530.4375,-28.5 530.4375,-.5 417.709,-.5"/>
<text text-anchor="start" x="425.709" y="-16.5" font-family="Helvetica,sans-Serif" font-size="10.00" fill="#000000">nlohmann::basic_json</text>
<text text-anchor="middle" x="474.0732" y="-6.5" font-family="Helvetica,sans-Serif" font-size="10.00" fill="#000000">::basic_json</text>
</a>
</g>
</g>
<!-- Node2&#45;&gt;Node3 -->
<g id="edge3" class="edge">
<title>Node2&#45;&gt;Node3</title>
<path fill="none" stroke="#191970" d="M381.9969,-14.5C390.2842,-14.5 398.8832,-14.5 407.3487,-14.5"/>
<polygon fill="#191970" stroke="#191970" points="407.5786,-18.0001 417.5786,-14.5 407.5786,-11.0001 407.5786,-18.0001"/>
</g>
</g>
</svg>
