<?xml version="1.0" encoding="UTF-8" standalone="no"?>
<!DOCTYPE svg PUBLIC "-//W3C//DTD SVG 1.1//EN"
 "http://www.w3.org/Graphics/SVG/1.1/DTD/svg11.dtd">
<!-- Generated by graphviz version 2.40.1 (20161225.0304)
 -->
<!-- Title: shift Pages: 1 -->
<svg width="209pt" height="138pt"
 viewBox="0.00 0.00 209.41 138.00" xmlns="http://www.w3.org/2000/svg" xmlns:xlink="http://www.w3.org/1999/xlink">
<g id="graph0" class="graph" transform="scale(1 1) rotate(0) translate(4 134)">
<title>shift</title>
<polygon fill="#ffffff" stroke="transparent" points="-4,4 -4,-134 205.4131,-134 205.4131,4 -4,4"/>
<!-- Node83 -->
<g id="node1" class="node">
<title>Node83</title>
<g id="a_node1"><a xlink:title=" ">
<polygon fill="#bfbfbf" stroke="#000000" points="0,-55.5 0,-73.5 34.3398,-73.5 34.3398,-55.5 0,-55.5"/>
<text text-anchor="middle" x="17.1699" y="-61.5" font-family="Helvetica,sans-Serif" font-size="10.00" fill="#000000">shift</text>
</a>
</g>
</g>
<!-- Node84 -->
<g id="node2" class="node">
<title>Node84</title>
<g id="a_node2"><a xlink:href="class_lattice.html#a5b4e162f06f7b4b90b4a9335ed2aabb5" target="_top" xlink:title=" ">
<polygon fill="#ffffff" stroke="#000000" points="93.1328,-111.5 93.1328,-129.5 178.6201,-129.5 178.6201,-111.5 93.1328,-111.5"/>
<text text-anchor="middle" x="135.8765" y="-117.5" font-family="Helvetica,sans-Serif" font-size="10.00" fill="#000000">Lattice::allocate</text>
</a>
</g>
</g>
<!-- Node83&#45;&gt;Node84 -->
<g id="edge1" class="edge">
<title>Node83&#45;&gt;Node84</title>
<path fill="none" stroke="#191970" d="M27.4636,-73.5552C37.6936,-82.1258 54.1534,-94.7949 70.3398,-102.5 74.7678,-104.6078 79.4854,-106.5057 84.282,-108.2062"/>
<polygon fill="#191970" stroke="#191970" points="83.5785,-111.6578 94.1708,-111.4235 85.7443,-105.0013 83.5785,-111.6578"/>
</g>
<!-- Node85 -->
<g id="node3" class="node">
<title>Node85</title>
<g id="a_node3"><a xlink:href="class_parallel_1_1_index.html#ac406d7ceb12e986a66d64ef98fcef5d3" target="_top" xlink:title=" ">
<polygon fill="#ffffff" stroke="#000000" points="70.3398,-74.5 70.3398,-92.5 201.4131,-92.5 201.4131,-74.5 70.3398,-74.5"/>
<text text-anchor="middle" x="135.8765" y="-80.5" font-family="Helvetica,sans-Serif" font-size="10.00" fill="#000000">Parallel::Index::cubeIndex</text>
</a>
</g>
</g>
<!-- Node83&#45;&gt;Node85 -->
<g id="edge2" class="edge">
<title>Node83&#45;&gt;Node85</title>
<path fill="none" stroke="#191970" d="M34.4309,-67.2628C43.9617,-68.7883 56.476,-70.7913 69.4476,-72.8675"/>
<polygon fill="#191970" stroke="#191970" points="68.9869,-76.3382 79.4144,-74.4628 70.0933,-69.4262 68.9869,-76.3382"/>
</g>
<!-- Node86 -->
<g id="node4" class="node">
<title>Node86</title>
<g id="a_node4"><a xlink:href="class_parallel_1_1_index.html#af31faeef1369fdc0997d1910e008bfe2" target="_top" xlink:title=" ">
<polygon fill="#ffffff" stroke="#000000" points="74.2314,-37.5 74.2314,-55.5 197.5215,-55.5 197.5215,-37.5 74.2314,-37.5"/>
<text text-anchor="middle" x="135.8765" y="-43.5" font-family="Helvetica,sans-Serif" font-size="10.00" fill="#000000">Parallel::Index::getIndex</text>
</a>
</g>
</g>
<!-- Node83&#45;&gt;Node86 -->
<g id="edge3" class="edge">
<title>Node83&#45;&gt;Node86</title>
<path fill="none" stroke="#191970" d="M34.4309,-61.8826C43.2223,-60.5496 54.552,-58.8316 66.4377,-57.0293"/>
<polygon fill="#191970" stroke="#191970" points="67.1467,-60.4619 76.5089,-55.5022 66.0972,-53.541 67.1467,-60.4619"/>
</g>
<!-- Node87 -->
<g id="node5" class="node">
<title>Node87</title>
<g id="a_node5"><a xlink:href="class_parallel_1_1_neighbours.html#a84653f3e22436280ac5a4689a24e7146" target="_top" xlink:title=" ">
<polygon fill="#ffffff" stroke="#000000" points="73.123,-.5 73.123,-18.5 198.6299,-18.5 198.6299,-.5 73.123,-.5"/>
<text text-anchor="middle" x="135.8765" y="-6.5" font-family="Helvetica,sans-Serif" font-size="10.00" fill="#000000">Parallel::Neighbours::get</text>
</a>
</g>
</g>
<!-- Node83&#45;&gt;Node87 -->
<g id="edge4" class="edge">
<title>Node83&#45;&gt;Node87</title>
<path fill="none" stroke="#191970" d="M28.3642,-55.3817C38.7138,-47.3382 54.7979,-35.7917 70.3398,-28.5 75.6989,-25.9857 81.4627,-23.7291 87.2692,-21.7253"/>
<polygon fill="#191970" stroke="#191970" points="88.5687,-24.984 97.0174,-18.591 86.426,-18.32 88.5687,-24.984"/>
</g>
</g>
</svg>
