<?xml version="1.0" encoding="UTF-8" standalone="no"?>
<!DOCTYPE svg PUBLIC "-//W3C//DTD SVG 1.1//EN"
 "http://www.w3.org/Graphics/SVG/1.1/DTD/svg11.dtd">
<!-- Generated by graphviz version 2.40.1 (20161225.0304)
 -->
<!-- Title: realTraceMultiplication Pages: 1 -->
<svg width="283pt" height="138pt"
 viewBox="0.00 0.00 282.96 138.00" xmlns="http://www.w3.org/2000/svg" xmlns:xlink="http://www.w3.org/1999/xlink">
<g id="graph0" class="graph" transform="scale(1 1) rotate(0) translate(4 134)">
<title>realTraceMultiplication</title>
<polygon fill="#ffffff" stroke="transparent" points="-4,4 -4,-134 278.9629,-134 278.9629,4 -4,4"/>
<!-- Node74 -->
<g id="node1" class="node">
<title>Node74</title>
<g id="a_node1"><a xlink:title=" ">
<polygon fill="#bfbfbf" stroke="#000000" points="0,-55.5 0,-73.5 115.6729,-73.5 115.6729,-55.5 0,-55.5"/>
<text text-anchor="middle" x="57.8364" y="-61.5" font-family="Helvetica,sans-Serif" font-size="10.00" fill="#000000">realTraceMultiplication</text>
</a>
</g>
</g>
<!-- Node75 -->
<g id="node2" class="node">
<title>Node75</title>
<g id="a_node2"><a xlink:href="class_lattice.html#a5b4e162f06f7b4b90b4a9335ed2aabb5" target="_top" xlink:title=" ">
<polygon fill="#ffffff" stroke="#000000" points="170.5742,-111.5 170.5742,-129.5 256.0615,-129.5 256.0615,-111.5 170.5742,-111.5"/>
<text text-anchor="middle" x="213.3179" y="-117.5" font-family="Helvetica,sans-Serif" font-size="10.00" fill="#000000">Lattice::allocate</text>
</a>
</g>
</g>
<!-- Node74&#45;&gt;Node75 -->
<g id="edge1" class="edge">
<title>Node74&#45;&gt;Node75</title>
<path fill="none" stroke="#191970" d="M78.4791,-73.5593C97.3413,-81.6689 126.1052,-93.6155 151.6729,-102.5 157.6857,-104.5894 164.0826,-106.6421 170.3934,-108.5706"/>
<polygon fill="#191970" stroke="#191970" points="169.5884,-111.9828 180.1716,-111.4863 171.5887,-105.2747 169.5884,-111.9828"/>
</g>
<!-- Node76 -->
<g id="node3" class="node">
<title>Node76</title>
<g id="a_node3"><a xlink:href="class_lattice.html#a1e8bfb54f85e78f2c97e8b90d2b47dc9" target="_top" xlink:title=" ">
<polygon fill="#ffffff" stroke="#000000" points="175.5815,-74.5 175.5815,-92.5 251.0542,-92.5 251.0542,-74.5 175.5815,-74.5"/>
<text text-anchor="middle" x="213.3179" y="-80.5" font-family="Helvetica,sans-Serif" font-size="10.00" fill="#000000">Lattice::zeros</text>
</a>
</g>
</g>
<!-- Node74&#45;&gt;Node76 -->
<g id="edge2" class="edge">
<title>Node74&#45;&gt;Node76</title>
<path fill="none" stroke="#191970" d="M115.732,-71.5749C132.0217,-73.5655 149.5573,-75.7084 165.2086,-77.621"/>
<polygon fill="#191970" stroke="#191970" points="164.8388,-81.1018 175.1895,-78.8407 165.6879,-74.1534 164.8388,-81.1018"/>
</g>
<!-- Node77 -->
<g id="node4" class="node">
<title>Node77</title>
<g id="a_node4"><a xlink:href="class_parallel_1_1_index.html#af31faeef1369fdc0997d1910e008bfe2" target="_top" xlink:title=" ">
<polygon fill="#ffffff" stroke="#000000" points="151.6729,-37.5 151.6729,-55.5 274.9629,-55.5 274.9629,-37.5 151.6729,-37.5"/>
<text text-anchor="middle" x="213.3179" y="-43.5" font-family="Helvetica,sans-Serif" font-size="10.00" fill="#000000">Parallel::Index::getIndex</text>
</a>
</g>
</g>
<!-- Node74&#45;&gt;Node77 -->
<g id="edge3" class="edge">
<title>Node74&#45;&gt;Node77</title>
<path fill="none" stroke="#191970" d="M115.732,-57.7975C124.1096,-56.8276 132.8167,-55.8196 141.4275,-54.8227"/>
<polygon fill="#191970" stroke="#191970" points="141.935,-58.2874 151.4661,-53.6605 141.1299,-51.3339 141.935,-58.2874"/>
</g>
<!-- Node78 -->
<g id="node5" class="node">
<title>Node78</title>
<g id="a_node5"><a xlink:href="functions_8h.html#a93863171e3da962b61804144857576a7" target="_top" xlink:title=" ">
<polygon fill="#ffffff" stroke="#000000" points="155.0176,-.5 155.0176,-18.5 271.6182,-18.5 271.6182,-.5 155.0176,-.5"/>
<text text-anchor="middle" x="213.3179" y="-6.5" font-family="Helvetica,sans-Serif" font-size="10.00" fill="#000000">traceRealMultiplication</text>
</a>
</g>
</g>
<!-- Node74&#45;&gt;Node78 -->
<g id="edge4" class="edge">
<title>Node74&#45;&gt;Node78</title>
<path fill="none" stroke="#191970" d="M80.0536,-55.491C98.9702,-47.9375 126.9345,-37.0469 151.6729,-28.5 158.358,-26.1903 165.4966,-23.8639 172.4579,-21.6695"/>
<polygon fill="#191970" stroke="#191970" points="173.9437,-24.8731 182.4569,-18.5663 171.8688,-18.1877 173.9437,-24.8731"/>
</g>
</g>
</svg>
