<?xml version="1.0" encoding="UTF-8" standalone="no"?>
<!DOCTYPE svg PUBLIC "-//W3C//DTD SVG 1.1//EN"
 "http://www.w3.org/Graphics/SVG/1.1/DTD/svg11.dtd">
<!-- Generated by graphviz version 2.40.1 (20161225.0304)
 -->
<!-- Title: GluonicLQCD/observables/latticeactionchargedensity.h Pages: 1 -->
<svg width="881pt" height="477pt"
 viewBox="0.00 0.00 881.05 477.00" xmlns="http://www.w3.org/2000/svg" xmlns:xlink="http://www.w3.org/1999/xlink">
<g id="graph0" class="graph" transform="scale(1 1) rotate(0) translate(4 473)">
<title>GluonicLQCD/observables/latticeactionchargedensity.h</title>
<polygon fill="#ffffff" stroke="transparent" points="-4,4 -4,-473 877.0537,-473 877.0537,4 -4,4"/>
<!-- Node0 -->
<g id="node1" class="node">
<title>Node0</title>
<g id="a_node1"><a xlink:title=" ">
<polygon fill="#bfbfbf" stroke="#000000" points="396.7876,-440.5 396.7876,-468.5 538.2368,-468.5 538.2368,-440.5 396.7876,-440.5"/>
<text text-anchor="start" x="404.7876" y="-456.5" font-family="Helvetica,sans-Serif" font-size="10.00" fill="#000000">GluonicLQCD/observables</text>
<text text-anchor="middle" x="467.5122" y="-446.5" font-family="Helvetica,sans-Serif" font-size="10.00" fill="#000000">/latticeactionchargedensity.h</text>
</a>
</g>
</g>
<!-- Node1 -->
<g id="node2" class="node">
<title>Node1</title>
<g id="a_node2"><a xlink:href="lattice_8h.html" target="_top" xlink:title=" ">
<polygon fill="#ffffff" stroke="#000000" points="536.7759,-220.5 536.7759,-238.5 612.2485,-238.5 612.2485,-220.5 536.7759,-220.5"/>
<text text-anchor="middle" x="574.5122" y="-226.5" font-family="Helvetica,sans-Serif" font-size="10.00" fill="#000000">math/lattice.h</text>
</a>
</g>
</g>
<!-- Node0&#45;&gt;Node1 -->
<g id="edge1" class="edge">
<title>Node0&#45;&gt;Node1</title>
<path fill="none" stroke="#191970" d="M533.2214,-440.4875C612.384,-422.1184 738.1907,-387.6556 765.5122,-349 806.8269,-290.5461 691.4732,-254.5983 622.3261,-238.85"/>
<polygon fill="#191970" stroke="#191970" points="623.0034,-235.4153 612.4834,-236.6727 621.4914,-242.25 623.0034,-235.4153"/>
</g>
<!-- Node13 -->
<g id="node14" class="node">
<title>Node13</title>
<g id="a_node14"><a xlink:href="observables_8h.html" target="_top" xlink:title=" ">
<polygon fill="#ffffff" stroke="#000000" points="400.0322,-385.5 400.0322,-403.5 534.9922,-403.5 534.9922,-385.5 400.0322,-385.5"/>
<text text-anchor="middle" x="467.5122" y="-391.5" font-family="Helvetica,sans-Serif" font-size="10.00" fill="#000000">observables/observables.h</text>
</a>
</g>
</g>
<!-- Node0&#45;&gt;Node13 -->
<g id="edge18" class="edge">
<title>Node0&#45;&gt;Node13</title>
<path fill="none" stroke="#191970" d="M461.6723,-440.2808C460.6547,-432.2888 460.4905,-422.2079 461.1795,-413.5414"/>
<polygon fill="#191970" stroke="#191970" points="464.6547,-413.9594 462.5087,-403.5842 457.7162,-413.0331 464.6547,-413.9594"/>
</g>
<!-- Node2 -->
<g id="node3" class="node">
<title>Node2</title>
<g id="a_node3"><a xlink:title=" ">
<polygon fill="#ffffff" stroke="#bfbfbf" points="373.8965,-110.5 373.8965,-128.5 417.1279,-128.5 417.1279,-110.5 373.8965,-110.5"/>
<text text-anchor="middle" x="395.5122" y="-116.5" font-family="Helvetica,sans-Serif" font-size="10.00" fill="#000000">vector</text>
</a>
</g>
</g>
<!-- Node1&#45;&gt;Node2 -->
<g id="edge2" class="edge">
<title>Node1&#45;&gt;Node2</title>
<path fill="none" stroke="#191970" d="M559.0283,-220.3529C543.632,-211.2287 519.3646,-196.7693 498.5122,-184 470.7697,-167.0115 439.0824,-147.0899 418.2654,-133.9307"/>
<polygon fill="#191970" stroke="#191970" points="420.1076,-130.9545 409.7859,-128.5644 416.3642,-136.8696 420.1076,-130.9545"/>
</g>
<!-- Node3 -->
<g id="node4" class="node">
<title>Node3</title>
<g id="a_node4"><a xlink:title=" ">
<polygon fill="#ffffff" stroke="#bfbfbf" points="710.2856,-110.5 710.2856,-128.5 750.7388,-128.5 750.7388,-110.5 710.2856,-110.5"/>
<text text-anchor="middle" x="730.5122" y="-116.5" font-family="Helvetica,sans-Serif" font-size="10.00" fill="#000000">mpi.h</text>
</a>
</g>
</g>
<!-- Node1&#45;&gt;Node3 -->
<g id="edge3" class="edge">
<title>Node1&#45;&gt;Node3</title>
<path fill="none" stroke="#191970" d="M592.5674,-220.4707C609.172,-211.8818 634.2188,-198.1964 654.5122,-184 675.8093,-169.1015 698.2755,-149.4843 713.2089,-135.8128"/>
<polygon fill="#191970" stroke="#191970" points="715.7172,-138.2602 720.675,-128.897 710.9603,-133.1249 715.7172,-138.2602"/>
</g>
<!-- Node4 -->
<g id="node5" class="node">
<title>Node4</title>
<g id="a_node5"><a xlink:href="index_8h.html" target="_top" xlink:title=" ">
<polygon fill="#ffffff" stroke="#000000" points="339.4263,-165.5 339.4263,-183.5 451.5981,-183.5 451.5981,-165.5 339.4263,-165.5"/>
<text text-anchor="middle" x="395.5122" y="-171.5" font-family="Helvetica,sans-Serif" font-size="10.00" fill="#000000">parallelization/index.h</text>
</a>
</g>
</g>
<!-- Node1&#45;&gt;Node4 -->
<g id="edge4" class="edge">
<title>Node1&#45;&gt;Node4</title>
<path fill="none" stroke="#191970" d="M544.954,-220.4179C514.8075,-211.155 467.8688,-196.7325 434.6514,-186.526"/>
<polygon fill="#191970" stroke="#191970" points="435.4038,-183.0958 424.8168,-183.5042 433.3478,-189.787 435.4038,-183.0958"/>
</g>
<!-- Node5 -->
<g id="node6" class="node">
<title>Node5</title>
<g id="a_node6"><a xlink:href="neighbours_8h.html" target="_top" xlink:title=" ">
<polygon fill="#ffffff" stroke="#000000" points="507.6382,-165.5 507.6382,-183.5 645.3862,-183.5 645.3862,-165.5 507.6382,-165.5"/>
<text text-anchor="middle" x="576.5122" y="-171.5" font-family="Helvetica,sans-Serif" font-size="10.00" fill="#000000">parallelization/neighbours.h</text>
</a>
</g>
</g>
<!-- Node1&#45;&gt;Node5 -->
<g id="edge6" class="edge">
<title>Node1&#45;&gt;Node5</title>
<path fill="none" stroke="#191970" d="M574.8425,-220.4179C575.1043,-213.2164 575.4796,-202.8962 575.8081,-193.8632"/>
<polygon fill="#191970" stroke="#191970" points="579.309,-193.9001 576.1748,-183.7795 572.3136,-193.6456 579.309,-193.9001"/>
</g>
<!-- Node7 -->
<g id="node8" class="node">
<title>Node7</title>
<g id="a_node8"><a xlink:href="parallelparameters_8h.html" target="_top" xlink:title=" ">
<polygon fill="#ffffff" stroke="#000000" points="701.9707,-165.5 701.9707,-183.5 873.0537,-183.5 873.0537,-165.5 701.9707,-165.5"/>
<text text-anchor="middle" x="787.5122" y="-171.5" font-family="Helvetica,sans-Serif" font-size="10.00" fill="#000000">parallelization/parallelparameters.h</text>
</a>
</g>
</g>
<!-- Node1&#45;&gt;Node7 -->
<g id="edge9" class="edge">
<title>Node1&#45;&gt;Node7</title>
<path fill="none" stroke="#191970" d="M609.6848,-220.4179C646.0987,-211.0152 703.1018,-196.2961 742.7165,-186.067"/>
<polygon fill="#191970" stroke="#191970" points="743.834,-189.3933 752.6414,-183.5042 742.0839,-182.6156 743.834,-189.3933"/>
</g>
<!-- Node8 -->
<g id="node9" class="node">
<title>Node8</title>
<g id="a_node9"><a xlink:href="functions_8h.html" target="_top" xlink:title=" ">
<polygon fill="#ffffff" stroke="#000000" points="107.3301,-165.5 107.3301,-183.5 171.6943,-183.5 171.6943,-165.5 107.3301,-165.5"/>
<text text-anchor="middle" x="139.5122" y="-171.5" font-family="Helvetica,sans-Serif" font-size="10.00" fill="#000000">functions.h</text>
</a>
</g>
</g>
<!-- Node1&#45;&gt;Node8 -->
<g id="edge11" class="edge">
<title>Node1&#45;&gt;Node8</title>
<path fill="none" stroke="#191970" d="M536.5658,-225.6708C467.9467,-218.5903 318.7265,-202.4765 193.5122,-184 189.6498,-183.4301 185.6388,-182.7989 181.6261,-182.1407"/>
<polygon fill="#191970" stroke="#191970" points="182.1749,-178.6839 171.7315,-180.4687 181.0085,-185.5861 182.1749,-178.6839"/>
</g>
<!-- Node4&#45;&gt;Node2 -->
<g id="edge5" class="edge">
<title>Node4&#45;&gt;Node2</title>
<path fill="none" stroke="#191970" d="M395.5122,-165.4179C395.5122,-158.2164 395.5122,-147.8962 395.5122,-138.8632"/>
<polygon fill="#191970" stroke="#191970" points="399.0123,-138.7794 395.5122,-128.7795 392.0123,-138.7795 399.0123,-138.7794"/>
</g>
<!-- Node5&#45;&gt;Node2 -->
<g id="edge8" class="edge">
<title>Node5&#45;&gt;Node2</title>
<path fill="none" stroke="#191970" d="M546.6237,-165.4179C513.5925,-155.3808 460.6244,-139.2855 426.9753,-129.0606"/>
<polygon fill="#191970" stroke="#191970" points="427.7818,-125.6477 417.1961,-126.089 425.7465,-132.3453 427.7818,-125.6477"/>
</g>
<!-- Node6 -->
<g id="node7" class="node">
<title>Node6</title>
<g id="a_node7"><a xlink:href="neighbourlist_8h.html" target="_top" xlink:title=" ">
<polygon fill="#ffffff" stroke="#000000" points="535.9902,-110.5 535.9902,-128.5 617.0342,-128.5 617.0342,-110.5 535.9902,-110.5"/>
<text text-anchor="middle" x="576.5122" y="-116.5" font-family="Helvetica,sans-Serif" font-size="10.00" fill="#000000">neighbourlist.h</text>
</a>
</g>
</g>
<!-- Node5&#45;&gt;Node6 -->
<g id="edge7" class="edge">
<title>Node5&#45;&gt;Node6</title>
<path fill="none" stroke="#191970" d="M576.5122,-165.4179C576.5122,-158.2164 576.5122,-147.8962 576.5122,-138.8632"/>
<polygon fill="#191970" stroke="#191970" points="580.0123,-138.7794 576.5122,-128.7795 573.0123,-138.7795 580.0123,-138.7794"/>
</g>
<!-- Node7&#45;&gt;Node3 -->
<g id="edge10" class="edge">
<title>Node7&#45;&gt;Node3</title>
<path fill="none" stroke="#191970" d="M778.0998,-165.4179C769.8163,-157.425 757.5513,-145.5903 747.5477,-135.9377"/>
<polygon fill="#191970" stroke="#191970" points="749.7556,-133.2045 740.1291,-128.7795 744.895,-138.2419 749.7556,-133.2045"/>
</g>
<!-- Node9 -->
<g id="node10" class="node">
<title>Node9</title>
<g id="a_node10"><a xlink:href="su3_8h.html" target="_top" xlink:title=" ">
<polygon fill="#ffffff" stroke="#000000" points="0,-110.5 0,-128.5 81.0244,-128.5 81.0244,-110.5 0,-110.5"/>
<text text-anchor="middle" x="40.5122" y="-116.5" font-family="Helvetica,sans-Serif" font-size="10.00" fill="#000000">matrices/su3.h</text>
</a>
</g>
</g>
<!-- Node8&#45;&gt;Node9 -->
<g id="edge12" class="edge">
<title>Node8&#45;&gt;Node9</title>
<path fill="none" stroke="#191970" d="M123.1644,-165.4179C107.5441,-156.7399 83.7724,-143.5334 65.726,-133.5077"/>
<polygon fill="#191970" stroke="#191970" points="67.3257,-130.3925 56.8843,-128.5956 63.9261,-136.5117 67.3257,-130.3925"/>
</g>
<!-- Node10 -->
<g id="node11" class="node">
<title>Node10</title>
<g id="a_node11"><a xlink:href="complex_8h.html" target="_top" xlink:title=" ">
<polygon fill="#ffffff" stroke="#000000" points="96.2192,-55.5 96.2192,-73.5 182.8052,-73.5 182.8052,-55.5 96.2192,-55.5"/>
<text text-anchor="middle" x="139.5122" y="-61.5" font-family="Helvetica,sans-Serif" font-size="10.00" fill="#000000">math/complex.h</text>
</a>
</g>
</g>
<!-- Node8&#45;&gt;Node10 -->
<g id="edge17" class="edge">
<title>Node8&#45;&gt;Node10</title>
<path fill="none" stroke="#191970" d="M155.3119,-165.4232C173.4077,-153.7435 199.3655,-132.2889 189.5122,-110 184.0994,-97.7558 173.584,-87.3899 163.5875,-79.6592"/>
<polygon fill="#191970" stroke="#191970" points="165.5992,-76.7949 155.4359,-73.8019 161.5145,-82.4796 165.5992,-76.7949"/>
</g>
<!-- Node12 -->
<g id="node13" class="node">
<title>Node12</title>
<g id="a_node13"><a xlink:href="su2_8h.html" target="_top" xlink:title=" ">
<polygon fill="#ffffff" stroke="#000000" points="99,-110.5 99,-128.5 180.0244,-128.5 180.0244,-110.5 99,-110.5"/>
<text text-anchor="middle" x="139.5122" y="-116.5" font-family="Helvetica,sans-Serif" font-size="10.00" fill="#000000">matrices/su2.h</text>
</a>
</g>
</g>
<!-- Node8&#45;&gt;Node12 -->
<g id="edge15" class="edge">
<title>Node8&#45;&gt;Node12</title>
<path fill="none" stroke="#191970" d="M139.5122,-165.4179C139.5122,-158.2164 139.5122,-147.8962 139.5122,-138.8632"/>
<polygon fill="#191970" stroke="#191970" points="143.0123,-138.7794 139.5122,-128.7795 136.0123,-138.7795 143.0123,-138.7794"/>
</g>
<!-- Node9&#45;&gt;Node10 -->
<g id="edge13" class="edge">
<title>Node9&#45;&gt;Node10</title>
<path fill="none" stroke="#191970" d="M56.86,-110.4179C72.4803,-101.7399 96.252,-88.5334 114.2984,-78.5077"/>
<polygon fill="#191970" stroke="#191970" points="116.0983,-81.5117 123.1401,-73.5956 112.6987,-75.3925 116.0983,-81.5117"/>
</g>
<!-- Node11 -->
<g id="node12" class="node">
<title>Node11</title>
<g id="a_node12"><a xlink:title=" ">
<polygon fill="#ffffff" stroke="#bfbfbf" points="112.3398,-.5 112.3398,-18.5 166.6846,-18.5 166.6846,-.5 112.3398,-.5"/>
<text text-anchor="middle" x="139.5122" y="-6.5" font-family="Helvetica,sans-Serif" font-size="10.00" fill="#000000">iostream</text>
</a>
</g>
</g>
<!-- Node10&#45;&gt;Node11 -->
<g id="edge14" class="edge">
<title>Node10&#45;&gt;Node11</title>
<path fill="none" stroke="#191970" d="M139.5122,-55.4179C139.5122,-48.2164 139.5122,-37.8962 139.5122,-28.8632"/>
<polygon fill="#191970" stroke="#191970" points="143.0123,-28.7794 139.5122,-18.7795 136.0123,-28.7795 143.0123,-28.7794"/>
</g>
<!-- Node12&#45;&gt;Node10 -->
<g id="edge16" class="edge">
<title>Node12&#45;&gt;Node10</title>
<path fill="none" stroke="#191970" d="M139.5122,-110.4179C139.5122,-103.2164 139.5122,-92.8962 139.5122,-83.8632"/>
<polygon fill="#191970" stroke="#191970" points="143.0123,-83.7794 139.5122,-73.7795 136.0123,-83.7795 143.0123,-83.7794"/>
</g>
<!-- Node13&#45;&gt;Node0 -->
<g id="edge38" class="edge">
<title>Node13&#45;&gt;Node0</title>
<path fill="none" stroke="#191970" d="M472.5157,-403.5842C473.9723,-410.6598 474.5178,-420.8253 474.1521,-430.2151"/>
<polygon fill="#191970" stroke="#191970" points="470.6555,-430.0349 473.3521,-440.2808 477.6335,-430.5896 470.6555,-430.0349"/>
</g>
<!-- Node14 -->
<g id="node15" class="node">
<title>Node14</title>
<g id="a_node15"><a xlink:href="correlator_8h.html" target="_top" xlink:title=" ">
<polygon fill="#ffffff" stroke="#000000" points="278.4976,-275.5 278.4976,-293.5 344.5269,-293.5 344.5269,-275.5 278.4976,-275.5"/>
<text text-anchor="middle" x="311.5122" y="-281.5" font-family="Helvetica,sans-Serif" font-size="10.00" fill="#000000">correlator.h</text>
</a>
</g>
</g>
<!-- Node13&#45;&gt;Node14 -->
<g id="edge19" class="edge">
<title>Node13&#45;&gt;Node14</title>
<path fill="none" stroke="#191970" d="M454.7461,-385.4982C428.0071,-366.6439 365.8732,-322.8315 332.9213,-299.5962"/>
<polygon fill="#191970" stroke="#191970" points="334.6443,-296.5285 324.4547,-293.6261 330.6104,-302.2493 334.6443,-296.5285"/>
</g>
<!-- Node17 -->
<g id="node18" class="node">
<title>Node17</title>
<g id="a_node18"><a xlink:href="energydensity_8h.html" target="_top" xlink:title=" ">
<polygon fill="#ffffff" stroke="#000000" points="76.5806,-330.5 76.5806,-348.5 162.4438,-348.5 162.4438,-330.5 76.5806,-330.5"/>
<text text-anchor="middle" x="119.5122" y="-336.5" font-family="Helvetica,sans-Serif" font-size="10.00" fill="#000000">energydensity.h</text>
</a>
</g>
</g>
<!-- Node13&#45;&gt;Node17 -->
<g id="edge25" class="edge">
<title>Node13&#45;&gt;Node17</title>
<path fill="none" stroke="#191970" d="M405.3504,-385.4649C347.6232,-376.9561 259.014,-363.5959 172.6048,-349.1482"/>
<polygon fill="#191970" stroke="#191970" points="173.0675,-345.677 162.626,-347.4732 171.9086,-352.5804 173.0675,-345.677"/>
</g>
<!-- Node18 -->
<g id="node19" class="node">
<title>Node18</title>
<g id="a_node19"><a xlink:href="plaquette_8h.html" target="_top" xlink:title=" ">
<polygon fill="#ffffff" stroke="#000000" points="180.7686,-330.5 180.7686,-348.5 246.2559,-348.5 246.2559,-330.5 180.7686,-330.5"/>
<text text-anchor="middle" x="213.5122" y="-336.5" font-family="Helvetica,sans-Serif" font-size="10.00" fill="#000000">plaquette.h</text>
</a>
</g>
</g>
<!-- Node13&#45;&gt;Node18 -->
<g id="edge28" class="edge">
<title>Node13&#45;&gt;Node18</title>
<path fill="none" stroke="#191970" d="M424.846,-385.4872C384.1043,-376.8487 320.7145,-363.3244 256.4246,-349.184"/>
<polygon fill="#191970" stroke="#191970" points="257.0384,-345.7354 246.5195,-347.0021 255.5324,-352.5715 257.0384,-345.7354"/>
</g>
<!-- Node19 -->
<g id="node20" class="node">
<title>Node19</title>
<g id="a_node20"><a xlink:href="topologicalcharge_8h.html" target="_top" xlink:title=" ">
<polygon fill="#ffffff" stroke="#000000" points="264.1479,-330.5 264.1479,-348.5 366.8765,-348.5 366.8765,-330.5 264.1479,-330.5"/>
<text text-anchor="middle" x="315.5122" y="-336.5" font-family="Helvetica,sans-Serif" font-size="10.00" fill="#000000">topologicalcharge.h</text>
</a>
</g>
</g>
<!-- Node13&#45;&gt;Node19 -->
<g id="edge30" class="edge">
<title>Node13&#45;&gt;Node19</title>
<path fill="none" stroke="#191970" d="M442.4125,-385.4179C417.1442,-376.2748 377.9831,-362.1046 349.8477,-351.924"/>
<polygon fill="#191970" stroke="#191970" points="350.9908,-348.6156 340.3966,-348.5042 348.609,-355.198 350.9908,-348.6156"/>
</g>
<!-- Node20 -->
<g id="node21" class="node">
<title>Node20</title>
<g id="a_node21"><a xlink:href="mastersampler_8h.html" target="_top" xlink:title=" ">
<polygon fill="#ffffff" stroke="#000000" points="422.5518,-330.5 422.5518,-348.5 512.4727,-348.5 512.4727,-330.5 422.5518,-330.5"/>
<text text-anchor="middle" x="467.5122" y="-336.5" font-family="Helvetica,sans-Serif" font-size="10.00" fill="#000000">mastersampler.h</text>
</a>
</g>
</g>
<!-- Node13&#45;&gt;Node20 -->
<g id="edge32" class="edge">
<title>Node13&#45;&gt;Node20</title>
<path fill="none" stroke="#191970" d="M462.3459,-385.4179C460.8543,-378.2164 460.4164,-367.8962 461.032,-358.8632"/>
<polygon fill="#191970" stroke="#191970" points="464.5248,-359.1392 462.3054,-348.7795 457.58,-358.2621 464.5248,-359.1392"/>
</g>
<!-- Node21 -->
<g id="node22" class="node">
<title>Node21</title>
<g id="a_node22"><a xlink:href="mastersamplertopcxyz_8h.html" target="_top" xlink:title=" ">
<polygon fill="#ffffff" stroke="#000000" points="632.3276,-330.5 632.3276,-348.5 756.6968,-348.5 756.6968,-330.5 632.3276,-330.5"/>
<text text-anchor="middle" x="694.5122" y="-336.5" font-family="Helvetica,sans-Serif" font-size="10.00" fill="#000000">mastersamplertopcxyz.h</text>
</a>
</g>
</g>
<!-- Node13&#45;&gt;Node21 -->
<g id="edge35" class="edge">
<title>Node13&#45;&gt;Node21</title>
<path fill="none" stroke="#191970" d="M499.8303,-385.4179C537.0032,-375.9354 598.3195,-361.0457 642.2656,-350.8073"/>
<polygon fill="#191970" stroke="#191970" points="643.2482,-354.1724 652.1993,-348.5042 641.6671,-347.3533 643.2482,-354.1724"/>
</g>
<!-- Node22 -->
<g id="node23" class="node">
<title>Node22</title>
<g id="a_node23"><a xlink:href="supersampler_8h.html" target="_top" xlink:title=" ">
<polygon fill="#ffffff" stroke="#000000" points="530.3252,-330.5 530.3252,-348.5 614.6992,-348.5 614.6992,-330.5 530.3252,-330.5"/>
<text text-anchor="middle" x="572.5122" y="-336.5" font-family="Helvetica,sans-Serif" font-size="10.00" fill="#000000">supersampler.h</text>
</a>
</g>
</g>
<!-- Node13&#45;&gt;Node22 -->
<g id="edge39" class="edge">
<title>Node13&#45;&gt;Node22</title>
<path fill="none" stroke="#191970" d="M479.6845,-385.4179C494.7251,-376.5807 520.3179,-363.0473 540.9199,-352.9591"/>
<polygon fill="#191970" stroke="#191970" points="542.4883,-356.0886 549.9787,-348.5956 539.4505,-349.782 542.4883,-356.0886"/>
</g>
<!-- Node14&#45;&gt;Node1 -->
<g id="edge20" class="edge">
<title>Node14&#45;&gt;Node1</title>
<path fill="none" stroke="#191970" d="M344.555,-277.5899C390.5661,-267.9678 474.2054,-250.4767 526.9302,-239.4506"/>
<polygon fill="#191970" stroke="#191970" points="527.6491,-242.8761 536.7209,-237.4031 526.2161,-236.0243 527.6491,-242.8761"/>
</g>
<!-- Node14&#45;&gt;Node2 -->
<g id="edge24" class="edge">
<title>Node14&#45;&gt;Node2</title>
<path fill="none" stroke="#191970" d="M310.6661,-275.2799C309.1791,-254.051 308.1236,-200.8 330.5122,-165 338.9167,-151.561 352.8986,-141.0104 365.7457,-133.467"/>
<polygon fill="#191970" stroke="#191970" points="367.7135,-136.3799 374.8039,-128.5073 364.3517,-130.24 367.7135,-136.3799"/>
</g>
<!-- Node15 -->
<g id="node16" class="node">
<title>Node15</title>
<g id="a_node16"><a xlink:href="observablestorer_8h.html" target="_top" xlink:title=" ">
<polygon fill="#ffffff" stroke="#000000" points="161.4238,-220.5 161.4238,-238.5 283.6006,-238.5 283.6006,-220.5 161.4238,-220.5"/>
<text text-anchor="middle" x="222.5122" y="-226.5" font-family="Helvetica,sans-Serif" font-size="10.00" fill="#000000">tools/observablestorer.h</text>
</a>
</g>
</g>
<!-- Node14&#45;&gt;Node15 -->
<g id="edge21" class="edge">
<title>Node14&#45;&gt;Node15</title>
<path fill="none" stroke="#191970" d="M296.8157,-275.4179C283.0308,-266.8992 262.1845,-254.0166 246.0773,-244.0627"/>
<polygon fill="#191970" stroke="#191970" points="247.5773,-240.8753 237.2306,-238.5956 243.8974,-246.83 247.5773,-240.8753"/>
</g>
<!-- Node15&#45;&gt;Node2 -->
<g id="edge23" class="edge">
<title>Node15&#45;&gt;Node2</title>
<path fill="none" stroke="#191970" d="M231.5475,-220.2488C245.0053,-206.8306 271.5281,-181.7457 297.5122,-165 318.5545,-151.4391 344.29,-139.652 364.1072,-131.4745"/>
<polygon fill="#191970" stroke="#191970" points="365.6292,-134.6347 373.5936,-127.6478 363.0104,-128.143 365.6292,-134.6347"/>
</g>
<!-- Node16 -->
<g id="node17" class="node">
<title>Node16</title>
<g id="a_node17"><a xlink:title=" ">
<polygon fill="#ffffff" stroke="#bfbfbf" points="202.2856,-165.5 202.2856,-183.5 242.7388,-183.5 242.7388,-165.5 202.2856,-165.5"/>
<text text-anchor="middle" x="222.5122" y="-171.5" font-family="Helvetica,sans-Serif" font-size="10.00" fill="#000000">string</text>
</a>
</g>
</g>
<!-- Node15&#45;&gt;Node16 -->
<g id="edge22" class="edge">
<title>Node15&#45;&gt;Node16</title>
<path fill="none" stroke="#191970" d="M222.5122,-220.4179C222.5122,-213.2164 222.5122,-202.8962 222.5122,-193.8632"/>
<polygon fill="#191970" stroke="#191970" points="226.0123,-193.7794 222.5122,-183.7795 219.0123,-193.7795 226.0123,-193.7794"/>
</g>
<!-- Node17&#45;&gt;Node8 -->
<g id="edge27" class="edge">
<title>Node17&#45;&gt;Node8</title>
<path fill="none" stroke="#191970" d="M120.6448,-330.1561C123.8212,-303.9504 132.863,-229.3557 137.1726,-193.8021"/>
<polygon fill="#191970" stroke="#191970" points="140.6632,-194.0899 138.392,-183.7414 133.7141,-193.2475 140.6632,-194.0899"/>
</g>
<!-- Node17&#45;&gt;Node14 -->
<g id="edge26" class="edge">
<title>Node17&#45;&gt;Node14</title>
<path fill="none" stroke="#191970" d="M151.2171,-330.4179C183.8318,-321.0751 234.7701,-306.4834 270.4487,-296.263"/>
<polygon fill="#191970" stroke="#191970" points="271.4298,-299.6228 280.0793,-293.5042 269.5021,-292.8934 271.4298,-299.6228"/>
</g>
<!-- Node18&#45;&gt;Node14 -->
<g id="edge29" class="edge">
<title>Node18&#45;&gt;Node14</title>
<path fill="none" stroke="#191970" d="M229.6949,-330.4179C245.1574,-321.7399 268.689,-308.5334 286.5531,-298.5077"/>
<polygon fill="#191970" stroke="#191970" points="288.2979,-301.542 295.3055,-293.5956 284.872,-295.4377 288.2979,-301.542"/>
</g>
<!-- Node19&#45;&gt;Node14 -->
<g id="edge31" class="edge">
<title>Node19&#45;&gt;Node14</title>
<path fill="none" stroke="#191970" d="M314.8517,-330.4179C314.3279,-323.2164 313.5774,-312.8962 312.9204,-303.8632"/>
<polygon fill="#191970" stroke="#191970" points="316.4033,-303.4992 312.1871,-293.7795 309.4217,-304.007 316.4033,-303.4992"/>
</g>
<!-- Node20&#45;&gt;Node1 -->
<g id="edge33" class="edge">
<title>Node20&#45;&gt;Node1</title>
<path fill="none" stroke="#191970" d="M470.6194,-330.2323C475.4886,-316.7933 485.9931,-291.683 501.5122,-275 513.6942,-261.9044 530.4553,-251.1034 544.8448,-243.3163"/>
<polygon fill="#191970" stroke="#191970" points="546.6116,-246.343 553.8862,-238.6404 543.396,-240.1252 546.6116,-246.343"/>
</g>
<!-- Node20&#45;&gt;Node13 -->
<g id="edge34" class="edge">
<title>Node20&#45;&gt;Node13</title>
<path fill="none" stroke="#191970" d="M472.719,-348.7795C474.1914,-356.0373 474.6101,-366.3738 473.9754,-375.383"/>
<polygon fill="#191970" stroke="#191970" points="470.4892,-375.0517 472.6785,-385.4179 477.4314,-375.949 470.4892,-375.0517"/>
</g>
<!-- Node21&#45;&gt;Node1 -->
<g id="edge36" class="edge">
<title>Node21&#45;&gt;Node1</title>
<path fill="none" stroke="#191970" d="M684.6921,-330.4982C664.3874,-311.8856 617.5494,-268.9508 591.9667,-245.4999"/>
<polygon fill="#191970" stroke="#191970" points="594.2046,-242.8034 584.468,-238.6261 589.4745,-247.9635 594.2046,-242.8034"/>
</g>
<!-- Node21&#45;&gt;Node13 -->
<g id="edge37" class="edge">
<title>Node21&#45;&gt;Node13</title>
<path fill="none" stroke="#191970" d="M662.4162,-348.5255C625.291,-357.9988 563.8758,-372.9136 519.8483,-383.1718"/>
<polygon fill="#191970" stroke="#191970" points="518.8469,-379.8111 509.896,-385.4795 520.4281,-386.6302 518.8469,-379.8111"/>
</g>
<!-- Node22&#45;&gt;Node1 -->
<g id="edge40" class="edge">
<title>Node22&#45;&gt;Node1</title>
<path fill="none" stroke="#191970" d="M572.6759,-330.4982C572.9996,-312.6913 573.7282,-272.6225 574.164,-248.6515"/>
<polygon fill="#191970" stroke="#191970" points="577.6638,-248.6882 574.3463,-238.6261 570.665,-248.5608 577.6638,-248.6882"/>
</g>
<!-- Node22&#45;&gt;Node13 -->
<g id="edge41" class="edge">
<title>Node22&#45;&gt;Node13</title>
<path fill="none" stroke="#191970" d="M560.3169,-348.5956C545.2656,-357.4376 519.67,-370.9716 499.073,-381.0563"/>
<polygon fill="#191970" stroke="#191970" points="497.5079,-377.9253 490.0171,-385.4179 500.5454,-384.2319 497.5079,-377.9253"/>
</g>
<!-- Node23 -->
<g id="node24" class="node">
<title>Node23</title>
<g id="a_node24"><a xlink:title=" ">
<polygon fill="#ffffff" stroke="#bfbfbf" points="510.7856,-275.5 510.7856,-293.5 546.2388,-293.5 546.2388,-275.5 510.7856,-275.5"/>
<text text-anchor="middle" x="528.5122" y="-281.5" font-family="Helvetica,sans-Serif" font-size="10.00" fill="#000000">map</text>
</a>
</g>
</g>
<!-- Node22&#45;&gt;Node23 -->
<g id="edge42" class="edge">
<title>Node22&#45;&gt;Node23</title>
<path fill="none" stroke="#191970" d="M565.2465,-330.4179C559.0421,-322.6624 549.9442,-311.29 542.355,-301.8035"/>
<polygon fill="#191970" stroke="#191970" points="544.9158,-299.4017 535.9358,-293.7795 539.4497,-303.7746 544.9158,-299.4017"/>
</g>
</g>
</svg>
