<?xml version="1.0" encoding="UTF-8" standalone="no"?>
<!DOCTYPE svg PUBLIC "-//W3C//DTD SVG 1.1//EN"
 "http://www.w3.org/Graphics/SVG/1.1/DTD/svg11.dtd">
<!-- Generated by graphviz version 2.40.1 (20161225.0304)
 -->
<!-- Title: shift Pages: 1 -->
<svg width="218pt" height="373pt"
 viewBox="0.00 0.00 217.74 373.00" xmlns="http://www.w3.org/2000/svg" xmlns:xlink="http://www.w3.org/1999/xlink">
<g id="graph0" class="graph" transform="scale(1 1) rotate(0) translate(4 369)">
<title>shift</title>
<polygon fill="#ffffff" stroke="transparent" points="-4,4 -4,-369 213.7383,-369 213.7383,4 -4,4"/>
<!-- Node88 -->
<g id="node1" class="node">
<title>Node88</title>
<g id="a_node1"><a xlink:title=" ">
<polygon fill="#bfbfbf" stroke="#000000" points="175.3984,-168.5 175.3984,-186.5 209.7383,-186.5 209.7383,-168.5 175.3984,-168.5"/>
<text text-anchor="middle" x="192.5684" y="-174.5" font-family="Helvetica,sans-Serif" font-size="10.00" fill="#000000">shift</text>
</a>
</g>
</g>
<!-- Node89 -->
<g id="node2" class="node">
<title>Node89</title>
<g id="a_node2"><a xlink:href="class_luscher_action.html#ac11785b2df276816a098a87e6ac514c7" target="_top" xlink:title=" ">
<polygon fill="#ffffff" stroke="#000000" points="6.3892,-336.5 6.3892,-364.5 133.0093,-364.5 133.0093,-336.5 6.3892,-336.5"/>
<text text-anchor="start" x="14.3892" y="-352.5" font-family="Helvetica,sans-Serif" font-size="10.00" fill="#000000">LuscherAction::getAction</text>
<text text-anchor="middle" x="69.6992" y="-342.5" font-family="Helvetica,sans-Serif" font-size="10.00" fill="#000000">Derivative</text>
</a>
</g>
</g>
<!-- Node88&#45;&gt;Node89 -->
<g id="edge1" class="edge">
<title>Node88&#45;&gt;Node89</title>
<path fill="none" stroke="#191970" d="M191.0638,-196.8793C187.5729,-228.5672 176.1607,-291.5345 139.3984,-327.5 135.8462,-330.9753 131.7586,-333.9255 127.3813,-336.4299"/>
<polygon fill="#191970" stroke="#191970" points="194.5667,-197.0132 192.0238,-186.728 187.5978,-196.3541 194.5667,-197.0132"/>
</g>
<!-- Node90 -->
<g id="node3" class="node">
<title>Node90</title>
<g id="a_node3"><a xlink:href="class_wilson_gauge_action.html#a43cf939cd53495b7225fbeaa8a0ff6e8" target="_top" xlink:title=" ">
<polygon fill="#ffffff" stroke="#000000" points="15.0098,-289.5 15.0098,-317.5 124.3887,-317.5 124.3887,-289.5 15.0098,-289.5"/>
<text text-anchor="start" x="23.0098" y="-305.5" font-family="Helvetica,sans-Serif" font-size="10.00" fill="#000000">WilsonGaugeAction::</text>
<text text-anchor="middle" x="69.6992" y="-295.5" font-family="Helvetica,sans-Serif" font-size="10.00" fill="#000000">getActionDerivative</text>
</a>
</g>
</g>
<!-- Node88&#45;&gt;Node90 -->
<g id="edge2" class="edge">
<title>Node88&#45;&gt;Node90</title>
<path fill="none" stroke="#191970" d="M187.63,-196.3167C180.642,-219.3515 165.6949,-258.057 139.3984,-280.5 134.94,-284.3051 129.8333,-287.4854 124.4554,-290.1425"/>
<polygon fill="#191970" stroke="#191970" points="191.0021,-197.2542 190.3647,-186.6785 184.268,-195.3434 191.0021,-197.2542"/>
</g>
<!-- Node91 -->
<g id="node4" class="node">
<title>Node91</title>
<g id="a_node4"><a xlink:href="class_energy_density.html#ae8e5e29257104d881bcabeadc3b2c9e7" target="_top" xlink:title=" ">
<polygon fill="#ffffff" stroke="#000000" points="6.6724,-252.5 6.6724,-270.5 132.7261,-270.5 132.7261,-252.5 6.6724,-252.5"/>
<text text-anchor="middle" x="69.6992" y="-258.5" font-family="Helvetica,sans-Serif" font-size="10.00" fill="#000000">EnergyDensity::calculate</text>
</a>
</g>
</g>
<!-- Node88&#45;&gt;Node91 -->
<g id="edge3" class="edge">
<title>Node88&#45;&gt;Node91</title>
<path fill="none" stroke="#191970" d="M182.4843,-195.6435C173.2024,-210.6783 158.0639,-231.4651 139.3984,-243.5 133.7265,-247.1571 127.3462,-250.0722 120.8087,-252.3957"/>
<polygon fill="#191970" stroke="#191970" points="185.6655,-197.1384 187.7163,-186.7439 179.631,-193.5908 185.6655,-197.1384"/>
</g>
<!-- Node92 -->
<g id="node5" class="node">
<title>Node92</title>
<g id="a_node5"><a xlink:href="class_lattice_action_charge_density.html#a3dddc75188042c645fbdd1c8b3e80c8a" target="_top" xlink:title=" ">
<polygon fill="#ffffff" stroke="#000000" points="0,-205.5 0,-233.5 139.3984,-233.5 139.3984,-205.5 0,-205.5"/>
<text text-anchor="start" x="8" y="-221.5" font-family="Helvetica,sans-Serif" font-size="10.00" fill="#000000">LatticeActionChargeDensity</text>
<text text-anchor="middle" x="69.6992" y="-211.5" font-family="Helvetica,sans-Serif" font-size="10.00" fill="#000000">::calculate</text>
</a>
</g>
</g>
<!-- Node88&#45;&gt;Node92 -->
<g id="edge4" class="edge">
<title>Node88&#45;&gt;Node92</title>
<path fill="none" stroke="#191970" d="M165.6795,-187.2527C157.278,-190.2612 147.9665,-193.5559 139.3984,-196.5 130.8424,-199.4399 121.671,-202.5183 112.8838,-205.4321"/>
<polygon fill="#191970" stroke="#191970" points="167.1405,-190.4468 175.365,-183.7678 164.7705,-183.8602 167.1405,-190.4468"/>
</g>
<!-- Node93 -->
<g id="node6" class="node">
<title>Node93</title>
<g id="a_node6"><a xlink:href="class_master_sampler.html#ad3cc7e36498dbf4a39238de3ac59ae8b" target="_top" xlink:title=" ">
<polygon fill="#ffffff" stroke="#000000" points="5.2881,-168.5 5.2881,-186.5 134.1104,-186.5 134.1104,-168.5 5.2881,-168.5"/>
<text text-anchor="middle" x="69.6992" y="-174.5" font-family="Helvetica,sans-Serif" font-size="10.00" fill="#000000">MasterSampler::calculate</text>
</a>
</g>
</g>
<!-- Node88&#45;&gt;Node93 -->
<g id="edge5" class="edge">
<title>Node88&#45;&gt;Node93</title>
<path fill="none" stroke="#191970" d="M165.1657,-177.5C155.9423,-177.5 145.2237,-177.5 134.3701,-177.5"/>
<polygon fill="#191970" stroke="#191970" points="165.2248,-181.0001 175.2248,-177.5 165.2248,-174.0001 165.2248,-181.0001"/>
</g>
<!-- Node94 -->
<g id="node7" class="node">
<title>Node94</title>
<g id="a_node7"><a xlink:href="class_master_sampler_topc_x_y_z.html#a0ea80ad9935db791f00461b7dfd548b7" target="_top" xlink:title=" ">
<polygon fill="#ffffff" stroke="#000000" points="7.5146,-121.5 7.5146,-149.5 131.8838,-149.5 131.8838,-121.5 7.5146,-121.5"/>
<text text-anchor="start" x="15.5146" y="-137.5" font-family="Helvetica,sans-Serif" font-size="10.00" fill="#000000">MasterSamplerTopcXYZ</text>
<text text-anchor="middle" x="69.6992" y="-127.5" font-family="Helvetica,sans-Serif" font-size="10.00" fill="#000000">::calculate</text>
</a>
</g>
</g>
<!-- Node88&#45;&gt;Node94 -->
<g id="edge6" class="edge">
<title>Node88&#45;&gt;Node94</title>
<path fill="none" stroke="#191970" d="M165.4277,-168.2226C149.4002,-162.744 128.7907,-155.6991 110.8024,-149.5502"/>
<polygon fill="#191970" stroke="#191970" points="164.6303,-171.6488 175.2248,-171.5715 166.8945,-165.0251 164.6303,-171.6488"/>
</g>
<!-- Node95 -->
<g id="node8" class="node">
<title>Node95</title>
<g id="a_node8"><a xlink:href="class_plaquette.html#a40cae6fd587c14836bdf61e69c615a00" target="_top" xlink:title=" ">
<polygon fill="#ffffff" stroke="#000000" points="18.0591,-84.5 18.0591,-102.5 121.3394,-102.5 121.3394,-84.5 18.0591,-84.5"/>
<text text-anchor="middle" x="69.6992" y="-90.5" font-family="Helvetica,sans-Serif" font-size="10.00" fill="#000000">Plaquette::calculate</text>
</a>
</g>
</g>
<!-- Node88&#45;&gt;Node95 -->
<g id="edge7" class="edge">
<title>Node88&#45;&gt;Node95</title>
<path fill="none" stroke="#191970" d="M182.38,-159.6955C173.033,-144.9286 157.8575,-124.4795 139.3984,-112.5 132.9808,-108.3351 125.6641,-105.0762 118.2413,-102.5281"/>
<polygon fill="#191970" stroke="#191970" points="179.4909,-161.6821 187.6566,-168.4328 185.483,-158.0633 179.4909,-161.6821"/>
</g>
<!-- Node96 -->
<g id="node9" class="node">
<title>Node96</title>
<g id="a_node9"><a xlink:href="class_super_sampler.html#a7e1457583270077c4fbcb288ea9b954c" target="_top" xlink:title=" ">
<polygon fill="#ffffff" stroke="#000000" points="7.2266,-47.5 7.2266,-65.5 132.1719,-65.5 132.1719,-47.5 7.2266,-47.5"/>
<text text-anchor="middle" x="69.6992" y="-53.5" font-family="Helvetica,sans-Serif" font-size="10.00" fill="#000000">SuperSampler::calculate</text>
</a>
</g>
</g>
<!-- Node88&#45;&gt;Node96 -->
<g id="edge8" class="edge">
<title>Node88&#45;&gt;Node96</title>
<path fill="none" stroke="#191970" d="M187.7658,-158.6384C180.9172,-135.5935 166.1131,-97.0239 139.3984,-75.5 134.2222,-71.3295 128.2018,-68.0715 121.9086,-65.5269"/>
<polygon fill="#191970" stroke="#191970" points="184.3963,-159.5856 190.4368,-168.2898 191.1427,-157.7185 184.3963,-159.5856"/>
</g>
<!-- Node97 -->
<g id="node10" class="node">
<title>Node97</title>
<g id="a_node10"><a xlink:href="class_topological_charge.html#a8ed78c28c3484df04b1cb24187de2f5b" target="_top" xlink:title=" ">
<polygon fill="#ffffff" stroke="#000000" points="17.5049,-.5 17.5049,-28.5 121.8936,-28.5 121.8936,-.5 17.5049,-.5"/>
<text text-anchor="start" x="25.5049" y="-16.5" font-family="Helvetica,sans-Serif" font-size="10.00" fill="#000000">TopologicalCharge::</text>
<text text-anchor="middle" x="69.6992" y="-6.5" font-family="Helvetica,sans-Serif" font-size="10.00" fill="#000000">calculate</text>
</a>
</g>
</g>
<!-- Node88&#45;&gt;Node97 -->
<g id="edge9" class="edge">
<title>Node88&#45;&gt;Node97</title>
<path fill="none" stroke="#191970" d="M190.3954,-158.3234C186.0301,-128.6153 173.4932,-71.4639 139.3984,-38.5 134.43,-33.6964 128.4564,-29.8514 122.1228,-26.7744"/>
<polygon fill="#191970" stroke="#191970" points="186.9275,-158.7971 191.6963,-168.258 193.8682,-157.8882 186.9275,-158.7971"/>
</g>
</g>
</svg>
