<?xml version="1.0" encoding="UTF-8" standalone="no"?>
<!DOCTYPE svg PUBLIC "-//W3C//DTD SVG 1.1//EN"
 "http://www.w3.org/Graphics/SVG/1.1/DTD/svg11.dtd">
<!-- Generated by graphviz version 2.40.1 (20161225.0304)
 -->
<!-- Title: inv Pages: 1 -->
<svg width="212pt" height="373pt"
 viewBox="0.00 0.00 212.40 373.00" xmlns="http://www.w3.org/2000/svg" xmlns:xlink="http://www.w3.org/1999/xlink">
<g id="graph0" class="graph" transform="scale(1 1) rotate(0) translate(4 369)">
<title>inv</title>
<polygon fill="#ffffff" stroke="transparent" points="-4,4 -4,-369 208.3984,-369 208.3984,4 -4,4"/>
<!-- Node23 -->
<g id="node1" class="node">
<title>Node23</title>
<g id="a_node1"><a xlink:title=" ">
<polygon fill="#bfbfbf" stroke="#000000" points="175.3984,-168.5 175.3984,-186.5 204.3984,-186.5 204.3984,-168.5 175.3984,-168.5"/>
<text text-anchor="middle" x="189.8984" y="-174.5" font-family="Helvetica,sans-Serif" font-size="10.00" fill="#000000">inv</text>
</a>
</g>
</g>
<!-- Node24 -->
<g id="node2" class="node">
<title>Node24</title>
<g id="a_node2"><a xlink:href="class_luscher_action.html#ac11785b2df276816a098a87e6ac514c7" target="_top" xlink:title="getActionDerivative, computes the derivative of the lattice in given direction.">
<polygon fill="#ffffff" stroke="#000000" points="6.3892,-336.5 6.3892,-364.5 133.0093,-364.5 133.0093,-336.5 6.3892,-336.5"/>
<text text-anchor="start" x="14.3892" y="-352.5" font-family="Helvetica,sans-Serif" font-size="10.00" fill="#000000">LuscherAction::getAction</text>
<text text-anchor="middle" x="69.6992" y="-342.5" font-family="Helvetica,sans-Serif" font-size="10.00" fill="#000000">Derivative</text>
</a>
</g>
</g>
<!-- Node23&#45;&gt;Node24 -->
<g id="edge1" class="edge">
<title>Node23&#45;&gt;Node24</title>
<path fill="none" stroke="#191970" d="M188.773,-196.8587C185.8956,-228.5167 175.6737,-291.4421 139.3984,-327.5 135.8739,-331.0034 131.8056,-333.9732 127.4411,-336.4906"/>
<polygon fill="#191970" stroke="#191970" points="192.2758,-196.9518 189.5355,-186.7175 185.2955,-196.427 192.2758,-196.9518"/>
</g>
<!-- Node25 -->
<g id="node3" class="node">
<title>Node25</title>
<g id="a_node3"><a xlink:href="class_wilson_gauge_action.html#a43cf939cd53495b7225fbeaa8a0ff6e8" target="_top" xlink:title="getActionDerivative, computes the derivative of the lattice in given direction.">
<polygon fill="#ffffff" stroke="#000000" points="15.0098,-289.5 15.0098,-317.5 124.3887,-317.5 124.3887,-289.5 15.0098,-289.5"/>
<text text-anchor="start" x="23.0098" y="-305.5" font-family="Helvetica,sans-Serif" font-size="10.00" fill="#000000">WilsonGaugeAction::</text>
<text text-anchor="middle" x="69.6992" y="-295.5" font-family="Helvetica,sans-Serif" font-size="10.00" fill="#000000">getActionDerivative</text>
</a>
</g>
</g>
<!-- Node23&#45;&gt;Node25 -->
<g id="edge2" class="edge">
<title>Node23&#45;&gt;Node25</title>
<path fill="none" stroke="#191970" d="M185.3865,-196.6186C178.9823,-219.6779 165.0748,-258.1232 139.3984,-280.5 134.9796,-284.351 129.8983,-287.5607 124.5353,-290.2352"/>
<polygon fill="#191970" stroke="#191970" points="188.8433,-197.2292 187.9462,-186.6724 182.0642,-195.4844 188.8433,-197.2292"/>
</g>
<!-- Node26 -->
<g id="node4" class="node">
<title>Node26</title>
<g id="a_node4"><a xlink:href="class_energy_density.html#ae8e5e29257104d881bcabeadc3b2c9e7" target="_top" xlink:title=" ">
<polygon fill="#ffffff" stroke="#000000" points="6.6724,-252.5 6.6724,-270.5 132.7261,-270.5 132.7261,-252.5 6.6724,-252.5"/>
<text text-anchor="middle" x="69.6992" y="-258.5" font-family="Helvetica,sans-Serif" font-size="10.00" fill="#000000">EnergyDensity::calculate</text>
</a>
</g>
</g>
<!-- Node23&#45;&gt;Node26 -->
<g id="edge3" class="edge">
<title>Node23&#45;&gt;Node26</title>
<path fill="none" stroke="#191970" d="M180.5355,-195.6466C171.8538,-210.6833 157.5517,-231.4712 139.3984,-243.5 133.8769,-247.1587 127.6542,-250.074 121.2573,-252.3969"/>
<polygon fill="#191970" stroke="#191970" points="183.6768,-197.1973 185.413,-186.7457 177.538,-193.8334 183.6768,-197.1973"/>
</g>
<!-- Node27 -->
<g id="node5" class="node">
<title>Node27</title>
<g id="a_node5"><a xlink:href="class_lattice_action_charge_density.html#a3dddc75188042c645fbdd1c8b3e80c8a" target="_top" xlink:title=" ">
<polygon fill="#ffffff" stroke="#000000" points="0,-205.5 0,-233.5 139.3984,-233.5 139.3984,-205.5 0,-205.5"/>
<text text-anchor="start" x="8" y="-221.5" font-family="Helvetica,sans-Serif" font-size="10.00" fill="#000000">LatticeActionChargeDensity</text>
<text text-anchor="middle" x="69.6992" y="-211.5" font-family="Helvetica,sans-Serif" font-size="10.00" fill="#000000">::calculate</text>
</a>
</g>
</g>
<!-- Node23&#45;&gt;Node27 -->
<g id="edge4" class="edge">
<title>Node23&#45;&gt;Node27</title>
<path fill="none" stroke="#191970" d="M165.8544,-186.7766C157.5056,-189.9364 148.0648,-193.4413 139.3984,-196.5 130.9873,-199.4687 121.9647,-202.5335 113.294,-205.42"/>
<polygon fill="#191970" stroke="#191970" points="167.2751,-189.9808 175.3712,-183.1467 164.7804,-183.4404 167.2751,-189.9808"/>
</g>
<!-- Node28 -->
<g id="node6" class="node">
<title>Node28</title>
<g id="a_node6"><a xlink:href="class_master_sampler.html#ad3cc7e36498dbf4a39238de3ac59ae8b" target="_top" xlink:title=" ">
<polygon fill="#ffffff" stroke="#000000" points="5.2881,-168.5 5.2881,-186.5 134.1104,-186.5 134.1104,-168.5 5.2881,-168.5"/>
<text text-anchor="middle" x="69.6992" y="-174.5" font-family="Helvetica,sans-Serif" font-size="10.00" fill="#000000">MasterSampler::calculate</text>
</a>
</g>
</g>
<!-- Node23&#45;&gt;Node28 -->
<g id="edge5" class="edge">
<title>Node23&#45;&gt;Node28</title>
<path fill="none" stroke="#191970" d="M165.0107,-177.5C155.9378,-177.5 145.2108,-177.5 134.285,-177.5"/>
<polygon fill="#191970" stroke="#191970" points="165.1597,-181.0001 175.1597,-177.5 165.1596,-174.0001 165.1597,-181.0001"/>
</g>
<!-- Node29 -->
<g id="node7" class="node">
<title>Node29</title>
<g id="a_node7"><a xlink:href="class_master_sampler_topc_x_y_z.html#a0ea80ad9935db791f00461b7dfd548b7" target="_top" xlink:title=" ">
<polygon fill="#ffffff" stroke="#000000" points="7.5146,-121.5 7.5146,-149.5 131.8838,-149.5 131.8838,-121.5 7.5146,-121.5"/>
<text text-anchor="start" x="15.5146" y="-137.5" font-family="Helvetica,sans-Serif" font-size="10.00" fill="#000000">MasterSamplerTopcXYZ</text>
<text text-anchor="middle" x="69.6992" y="-127.5" font-family="Helvetica,sans-Serif" font-size="10.00" fill="#000000">::calculate</text>
</a>
</g>
</g>
<!-- Node23&#45;&gt;Node29 -->
<g id="edge6" class="edge">
<title>Node23&#45;&gt;Node29</title>
<path fill="none" stroke="#191970" d="M165.7993,-168.8506C157.446,-165.8684 148.0164,-162.5195 139.3984,-159.5 130.0984,-156.2415 120.0873,-152.7719 110.6342,-149.5131"/>
<polygon fill="#191970" stroke="#191970" points="164.7333,-172.1864 175.3279,-172.2597 167.0914,-165.5955 164.7333,-172.1864"/>
</g>
<!-- Node30 -->
<g id="node8" class="node">
<title>Node30</title>
<g id="a_node8"><a xlink:href="class_plaquette.html#a40cae6fd587c14836bdf61e69c615a00" target="_top" xlink:title=" ">
<polygon fill="#ffffff" stroke="#000000" points="18.0591,-84.5 18.0591,-102.5 121.3394,-102.5 121.3394,-84.5 18.0591,-84.5"/>
<text text-anchor="middle" x="69.6992" y="-90.5" font-family="Helvetica,sans-Serif" font-size="10.00" fill="#000000">Plaquette::calculate</text>
</a>
</g>
</g>
<!-- Node23&#45;&gt;Node30 -->
<g id="edge7" class="edge">
<title>Node23&#45;&gt;Node30</title>
<path fill="none" stroke="#191970" d="M180.43,-159.6898C171.6823,-144.9193 157.3428,-124.4682 139.3984,-112.5 133.1379,-108.3244 125.9833,-105.0625 118.6976,-102.5152"/>
<polygon fill="#191970" stroke="#191970" points="177.3954,-161.4342 185.3526,-168.4296 183.4945,-157.9989 177.3954,-161.4342"/>
</g>
<!-- Node31 -->
<g id="node9" class="node">
<title>Node31</title>
<g id="a_node9"><a xlink:href="class_super_sampler.html#a7e1457583270077c4fbcb288ea9b954c" target="_top" xlink:title=" ">
<polygon fill="#ffffff" stroke="#000000" points="7.2266,-47.5 7.2266,-65.5 132.1719,-65.5 132.1719,-47.5 7.2266,-47.5"/>
<text text-anchor="middle" x="69.6992" y="-53.5" font-family="Helvetica,sans-Serif" font-size="10.00" fill="#000000">SuperSampler::calculate</text>
</a>
</g>
</g>
<!-- Node23&#45;&gt;Node31 -->
<g id="edge8" class="edge">
<title>Node23&#45;&gt;Node31</title>
<path fill="none" stroke="#191970" d="M185.524,-158.3403C179.2585,-135.2762 165.4907,-96.9738 139.3984,-75.5 134.3627,-71.3556 128.4969,-68.1109 122.3461,-65.5714"/>
<polygon fill="#191970" stroke="#191970" points="182.1933,-159.4481 188.0182,-168.298 188.9835,-157.7472 182.1933,-159.4481"/>
</g>
<!-- Node32 -->
<g id="node10" class="node">
<title>Node32</title>
<g id="a_node10"><a xlink:href="class_topological_charge.html#a8ed78c28c3484df04b1cb24187de2f5b" target="_top" xlink:title=" ">
<polygon fill="#ffffff" stroke="#000000" points="17.5049,-.5 17.5049,-28.5 121.8936,-28.5 121.8936,-.5 17.5049,-.5"/>
<text text-anchor="start" x="25.5049" y="-16.5" font-family="Helvetica,sans-Serif" font-size="10.00" fill="#000000">TopologicalCharge::</text>
<text text-anchor="middle" x="69.6992" y="-6.5" font-family="Helvetica,sans-Serif" font-size="10.00" fill="#000000">calculate</text>
</a>
</g>
</g>
<!-- Node23&#45;&gt;Node32 -->
<g id="edge9" class="edge">
<title>Node23&#45;&gt;Node32</title>
<path fill="none" stroke="#191970" d="M188.078,-157.9482C184.2789,-128.1566 172.854,-71.3962 139.3984,-38.5 134.4707,-33.6547 128.5206,-29.7856 122.1988,-26.6965"/>
<polygon fill="#191970" stroke="#191970" points="184.6413,-158.714 189.2215,-168.2676 191.5987,-157.943 184.6413,-158.714"/>
</g>
</g>
</svg>
