<?xml version="1.0" encoding="UTF-8" standalone="no"?>
<!DOCTYPE svg PUBLIC "-//W3C//DTD SVG 1.1//EN"
 "http://www.w3.org/Graphics/SVG/1.1/DTD/svg11.dtd">
<!-- Generated by graphviz version 2.40.1 (20161225.0304)
 -->
<!-- Title: GluonicLQCD/observables/latticeactionchargedensity.cpp Pages: 1 -->
<svg width="1046pt" height="532pt"
 viewBox="0.00 0.00 1046.17 532.00" xmlns="http://www.w3.org/2000/svg" xmlns:xlink="http://www.w3.org/1999/xlink">
<g id="graph0" class="graph" transform="scale(1 1) rotate(0) translate(4 528)">
<title>GluonicLQCD/observables/latticeactionchargedensity.cpp</title>
<polygon fill="#ffffff" stroke="transparent" points="-4,4 -4,-528 1042.1723,-528 1042.1723,4 -4,4"/>
<!-- Node0 -->
<g id="node1" class="node">
<title>Node0</title>
<g id="a_node1"><a xlink:title=" ">
<polygon fill="#bfbfbf" stroke="#000000" points="157.6522,-495.5 157.6522,-523.5 309.663,-523.5 309.663,-495.5 157.6522,-495.5"/>
<text text-anchor="start" x="165.6522" y="-511.5" font-family="Helvetica,sans-Serif" font-size="10.00" fill="#000000">GluonicLQCD/observables</text>
<text text-anchor="middle" x="233.6576" y="-501.5" font-family="Helvetica,sans-Serif" font-size="10.00" fill="#000000">/latticeactionchargedensity.cpp</text>
</a>
</g>
</g>
<!-- Node1 -->
<g id="node2" class="node">
<title>Node1</title>
<g id="a_node2"><a xlink:href="latticeactionchargedensity_8h.html" target="_top" xlink:title=" ">
<polygon fill="#ffffff" stroke="#000000" points="600.3222,-440.5 600.3222,-458.5 738.9931,-458.5 738.9931,-440.5 600.3222,-440.5"/>
<text text-anchor="middle" x="669.6576" y="-446.5" font-family="Helvetica,sans-Serif" font-size="10.00" fill="#000000">latticeactionchargedensity.h</text>
</a>
</g>
</g>
<!-- Node0&#45;&gt;Node1 -->
<g id="edge1" class="edge">
<title>Node0&#45;&gt;Node1</title>
<path fill="none" stroke="#191970" d="M309.8523,-499.0145C389.677,-488.0294 514.3113,-470.8779 593.9523,-459.9182"/>
<polygon fill="#191970" stroke="#191970" points="594.4876,-463.3776 603.917,-458.5469 593.5332,-456.4429 594.4876,-463.3776"/>
</g>
<!-- Node25 -->
<g id="node26" class="node">
<title>Node25</title>
<g id="a_node26"><a xlink:title=" ">
<polygon fill="#ffffff" stroke="#bfbfbf" points="162.0419,-440.5 162.0419,-458.5 205.2733,-458.5 205.2733,-440.5 162.0419,-440.5"/>
<text text-anchor="middle" x="183.6576" y="-446.5" font-family="Helvetica,sans-Serif" font-size="10.00" fill="#000000">cmath</text>
</a>
</g>
</g>
<!-- Node0&#45;&gt;Node25 -->
<g id="edge44" class="edge">
<title>Node0&#45;&gt;Node25</title>
<path fill="none" stroke="#191970" d="M221.8083,-495.2808C214.6303,-486.6672 205.4302,-475.6271 197.8631,-466.5466"/>
<polygon fill="#191970" stroke="#191970" points="200.3184,-464.0258 191.2278,-458.5842 194.9409,-468.5071 200.3184,-464.0258"/>
</g>
<!-- Node26 -->
<g id="node27" class="node">
<title>Node26</title>
<g id="a_node27"><a xlink:href="communicator_8h.html" target="_top" xlink:title=" ">
<polygon fill="#ffffff" stroke="#000000" points="249.3993,-275.5 249.3993,-293.5 399.9159,-293.5 399.9159,-275.5 249.3993,-275.5"/>
<text text-anchor="middle" x="324.6576" y="-281.5" font-family="Helvetica,sans-Serif" font-size="10.00" fill="#000000">parallelization/communicator.h</text>
</a>
</g>
</g>
<!-- Node0&#45;&gt;Node26 -->
<g id="edge45" class="edge">
<title>Node0&#45;&gt;Node26</title>
<path fill="none" stroke="#191970" d="M231.2361,-495.1302C226.5809,-462.8431 219.5604,-383.2229 252.6576,-330 261.4972,-315.7852 276.598,-305.2449 290.6941,-297.9089"/>
<polygon fill="#191970" stroke="#191970" points="292.2519,-301.0434 299.7362,-293.5444 289.209,-294.7394 292.2519,-301.0434"/>
</g>
<!-- Node27 -->
<g id="node28" class="node">
<title>Node27</title>
<g id="a_node28"><a xlink:href="parameters_8h.html" target="_top" xlink:title=" ">
<polygon fill="#ffffff" stroke="#000000" points="39.4682,-440.5 39.4682,-458.5 143.8471,-458.5 143.8471,-440.5 39.4682,-440.5"/>
<text text-anchor="middle" x="91.6576" y="-446.5" font-family="Helvetica,sans-Serif" font-size="10.00" fill="#000000">config/parameters.h</text>
</a>
</g>
</g>
<!-- Node0&#45;&gt;Node27 -->
<g id="edge48" class="edge">
<title>Node0&#45;&gt;Node27</title>
<path fill="none" stroke="#191970" d="M200.3649,-495.4327C176.8383,-485.4918 145.53,-472.263 122.5564,-462.5558"/>
<polygon fill="#191970" stroke="#191970" points="123.8415,-459.2993 113.2678,-458.6311 121.117,-465.7473 123.8415,-459.2993"/>
</g>
<!-- Node30 -->
<g id="node31" class="node">
<title>Node30</title>
<g id="a_node31"><a xlink:href="fieldio_8h.html" target="_top" xlink:title=" ">
<polygon fill="#ffffff" stroke="#000000" points="977.143,-275.5 977.143,-293.5 1038.1723,-293.5 1038.1723,-275.5 977.143,-275.5"/>
<text text-anchor="middle" x="1007.6576" y="-281.5" font-family="Helvetica,sans-Serif" font-size="10.00" fill="#000000">io/fieldio.h</text>
</a>
</g>
</g>
<!-- Node0&#45;&gt;Node30 -->
<g id="edge57" class="edge">
<title>Node0&#45;&gt;Node30</title>
<path fill="none" stroke="#191970" d="M309.6883,-508.1373C474.0692,-503.6737 855.4905,-484.6651 951.6576,-404 982.9913,-377.7173 997.8552,-329.9882 1003.9832,-303.4985"/>
<polygon fill="#191970" stroke="#191970" points="1007.4377,-304.0803 1006.0972,-293.5706 1000.5912,-302.6224 1007.4377,-304.0803"/>
</g>
<!-- Node2 -->
<g id="node3" class="node">
<title>Node2</title>
<g id="a_node3"><a xlink:href="lattice_8h.html" target="_top" xlink:title=" ">
<polygon fill="#ffffff" stroke="#000000" points="610.9213,-220.5 610.9213,-238.5 686.3939,-238.5 686.3939,-220.5 610.9213,-220.5"/>
<text text-anchor="middle" x="648.6576" y="-226.5" font-family="Helvetica,sans-Serif" font-size="10.00" fill="#000000">math/lattice.h</text>
</a>
</g>
</g>
<!-- Node1&#45;&gt;Node2 -->
<g id="edge2" class="edge">
<title>Node1&#45;&gt;Node2</title>
<path fill="none" stroke="#191970" d="M739.1921,-446.1305C837.365,-438.4042 999.5199,-413.0421 950.6576,-330 925.1318,-286.6184 898.6976,-292.9101 851.6576,-275 849.8179,-274.2996 756.2614,-253.4344 696.8134,-240.2057"/>
<polygon fill="#191970" stroke="#191970" points="697.3842,-236.7472 686.8628,-237.9919 695.864,-243.5802 697.3842,-236.7472"/>
</g>
<!-- Node14 -->
<g id="node15" class="node">
<title>Node14</title>
<g id="a_node15"><a xlink:href="observables_8h.html" target="_top" xlink:title=" ">
<polygon fill="#ffffff" stroke="#000000" points="602.1776,-385.5 602.1776,-403.5 737.1376,-403.5 737.1376,-385.5 602.1776,-385.5"/>
<text text-anchor="middle" x="669.6576" y="-391.5" font-family="Helvetica,sans-Serif" font-size="10.00" fill="#000000">observables/observables.h</text>
</a>
</g>
</g>
<!-- Node1&#45;&gt;Node14 -->
<g id="edge19" class="edge">
<title>Node1&#45;&gt;Node14</title>
<path fill="none" stroke="#191970" d="M664.4913,-440.4179C662.9997,-433.2164 662.5618,-422.8962 663.1774,-413.8632"/>
<polygon fill="#191970" stroke="#191970" points="666.6703,-414.1392 664.4508,-403.7795 659.7254,-413.2621 666.6703,-414.1392"/>
</g>
<!-- Node3 -->
<g id="node4" class="node">
<title>Node3</title>
<g id="a_node4"><a xlink:title=" ">
<polygon fill="#ffffff" stroke="#bfbfbf" points="185.0419,-110.5 185.0419,-128.5 228.2733,-128.5 228.2733,-110.5 185.0419,-110.5"/>
<text text-anchor="middle" x="206.6576" y="-116.5" font-family="Helvetica,sans-Serif" font-size="10.00" fill="#000000">vector</text>
</a>
</g>
</g>
<!-- Node2&#45;&gt;Node3 -->
<g id="edge3" class="edge">
<title>Node2&#45;&gt;Node3</title>
<path fill="none" stroke="#191970" d="M610.7869,-227.1663C555.2125,-222.9227 448.8233,-211.6685 362.6576,-184 344.6794,-178.227 341.9308,-172.6276 324.6576,-165 295.8354,-152.2725 262.2485,-139.517 238.2948,-130.7641"/>
<polygon fill="#191970" stroke="#191970" points="239.2549,-127.3892 228.6608,-127.2696 236.868,-133.9697 239.2549,-127.3892"/>
</g>
<!-- Node4 -->
<g id="node5" class="node">
<title>Node4</title>
<g id="a_node5"><a xlink:title=" ">
<polygon fill="#ffffff" stroke="#bfbfbf" points="605.4311,-110.5 605.4311,-128.5 645.8842,-128.5 645.8842,-110.5 605.4311,-110.5"/>
<text text-anchor="middle" x="625.6576" y="-116.5" font-family="Helvetica,sans-Serif" font-size="10.00" fill="#000000">mpi.h</text>
</a>
</g>
</g>
<!-- Node2&#45;&gt;Node4 -->
<g id="edge4" class="edge">
<title>Node2&#45;&gt;Node4</title>
<path fill="none" stroke="#191970" d="M667.8234,-220.4894C689.715,-208.8779 720.9009,-187.4939 707.6576,-165 696.4549,-145.972 674.1071,-134.3349 655.5675,-127.5982"/>
<polygon fill="#191970" stroke="#191970" points="656.6209,-124.2601 646.0274,-124.4263 654.4124,-130.9026 656.6209,-124.2601"/>
</g>
<!-- Node5 -->
<g id="node6" class="node">
<title>Node5</title>
<g id="a_node6"><a xlink:href="index_8h.html" target="_top" xlink:title=" ">
<polygon fill="#ffffff" stroke="#000000" points="28.5717,-165.5 28.5717,-183.5 140.7436,-183.5 140.7436,-165.5 28.5717,-165.5"/>
<text text-anchor="middle" x="84.6576" y="-171.5" font-family="Helvetica,sans-Serif" font-size="10.00" fill="#000000">parallelization/index.h</text>
</a>
</g>
</g>
<!-- Node2&#45;&gt;Node5 -->
<g id="edge5" class="edge">
<title>Node2&#45;&gt;Node5</title>
<path fill="none" stroke="#191970" d="M610.7762,-225.8059C516.4604,-216.6084 270.1657,-192.5903 151.0618,-180.9756"/>
<polygon fill="#191970" stroke="#191970" points="151.2712,-177.4795 140.9787,-179.9923 150.5918,-184.4464 151.2712,-177.4795"/>
</g>
<!-- Node6 -->
<g id="node7" class="node">
<title>Node6</title>
<g id="a_node7"><a xlink:href="neighbours_8h.html" target="_top" xlink:title=" ">
<polygon fill="#ffffff" stroke="#000000" points="371.7836,-165.5 371.7836,-183.5 509.5316,-183.5 509.5316,-165.5 371.7836,-165.5"/>
<text text-anchor="middle" x="440.6576" y="-171.5" font-family="Helvetica,sans-Serif" font-size="10.00" fill="#000000">parallelization/neighbours.h</text>
</a>
</g>
</g>
<!-- Node2&#45;&gt;Node6 -->
<g id="edge7" class="edge">
<title>Node2&#45;&gt;Node6</title>
<path fill="none" stroke="#191970" d="M614.3106,-220.4179C578.8271,-211.0352 523.3229,-196.3586 484.6485,-186.1322"/>
<polygon fill="#191970" stroke="#191970" points="485.2724,-182.6769 474.7099,-183.5042 483.4829,-189.4444 485.2724,-182.6769"/>
</g>
<!-- Node8 -->
<g id="node9" class="node">
<title>Node8</title>
<g id="a_node9"><a xlink:href="parallelparameters_8h.html" target="_top" xlink:title=" ">
<polygon fill="#ffffff" stroke="#000000" points="527.1161,-165.5 527.1161,-183.5 698.1991,-183.5 698.1991,-165.5 527.1161,-165.5"/>
<text text-anchor="middle" x="612.6576" y="-171.5" font-family="Helvetica,sans-Serif" font-size="10.00" fill="#000000">parallelization/parallelparameters.h</text>
</a>
</g>
</g>
<!-- Node2&#45;&gt;Node8 -->
<g id="edge10" class="edge">
<title>Node2&#45;&gt;Node8</title>
<path fill="none" stroke="#191970" d="M642.7129,-220.4179C637.7402,-212.8207 630.4957,-201.7527 624.3652,-192.3866"/>
<polygon fill="#191970" stroke="#191970" points="627.1365,-190.2297 618.7314,-183.7795 621.2796,-194.0633 627.1365,-190.2297"/>
</g>
<!-- Node9 -->
<g id="node10" class="node">
<title>Node9</title>
<g id="a_node10"><a xlink:href="functions_8h.html" target="_top" xlink:title=" ">
<polygon fill="#ffffff" stroke="#000000" points="754.4755,-165.5 754.4755,-183.5 818.8397,-183.5 818.8397,-165.5 754.4755,-165.5"/>
<text text-anchor="middle" x="786.6576" y="-171.5" font-family="Helvetica,sans-Serif" font-size="10.00" fill="#000000">functions.h</text>
</a>
</g>
</g>
<!-- Node2&#45;&gt;Node9 -->
<g id="edge12" class="edge">
<title>Node2&#45;&gt;Node9</title>
<path fill="none" stroke="#191970" d="M671.4455,-220.4179C694.0183,-211.4215 728.8028,-197.5581 754.2473,-187.4172"/>
<polygon fill="#191970" stroke="#191970" points="755.8423,-190.5493 763.8359,-183.5956 753.2506,-184.0467 755.8423,-190.5493"/>
</g>
<!-- Node5&#45;&gt;Node3 -->
<g id="edge6" class="edge">
<title>Node5&#45;&gt;Node3</title>
<path fill="none" stroke="#191970" d="M104.8034,-165.4179C124.4942,-156.5409 154.6961,-142.9253 177.1049,-132.823"/>
<polygon fill="#191970" stroke="#191970" points="178.8039,-135.8963 186.4819,-128.5956 175.927,-129.5148 178.8039,-135.8963"/>
</g>
<!-- Node6&#45;&gt;Node3 -->
<g id="edge9" class="edge">
<title>Node6&#45;&gt;Node3</title>
<path fill="none" stroke="#191970" d="M402.2793,-165.4795C356.5225,-154.7247 280.9061,-136.9516 238.3306,-126.9445"/>
<polygon fill="#191970" stroke="#191970" points="239.0439,-123.5169 228.5084,-124.6359 237.4422,-130.3312 239.0439,-123.5169"/>
</g>
<!-- Node7 -->
<g id="node8" class="node">
<title>Node7</title>
<g id="a_node8"><a xlink:href="neighbourlist_8h.html" target="_top" xlink:title=" ">
<polygon fill="#ffffff" stroke="#000000" points="400.1356,-110.5 400.1356,-128.5 481.1796,-128.5 481.1796,-110.5 400.1356,-110.5"/>
<text text-anchor="middle" x="440.6576" y="-116.5" font-family="Helvetica,sans-Serif" font-size="10.00" fill="#000000">neighbourlist.h</text>
</a>
</g>
</g>
<!-- Node6&#45;&gt;Node7 -->
<g id="edge8" class="edge">
<title>Node6&#45;&gt;Node7</title>
<path fill="none" stroke="#191970" d="M440.6576,-165.4179C440.6576,-158.2164 440.6576,-147.8962 440.6576,-138.8632"/>
<polygon fill="#191970" stroke="#191970" points="444.1577,-138.7794 440.6576,-128.7795 437.1577,-138.7795 444.1577,-138.7794"/>
</g>
<!-- Node8&#45;&gt;Node4 -->
<g id="edge11" class="edge">
<title>Node8&#45;&gt;Node4</title>
<path fill="none" stroke="#191970" d="M614.8043,-165.4179C616.5252,-158.1372 618.9995,-147.669 621.1511,-138.5659"/>
<polygon fill="#191970" stroke="#191970" points="624.5701,-139.3164 623.4643,-128.7795 617.7578,-137.7062 624.5701,-139.3164"/>
</g>
<!-- Node10 -->
<g id="node11" class="node">
<title>Node10</title>
<g id="a_node11"><a xlink:href="su3_8h.html" target="_top" xlink:title=" ">
<polygon fill="#ffffff" stroke="#000000" points="849.1454,-110.5 849.1454,-128.5 930.1698,-128.5 930.1698,-110.5 849.1454,-110.5"/>
<text text-anchor="middle" x="889.6576" y="-116.5" font-family="Helvetica,sans-Serif" font-size="10.00" fill="#000000">matrices/su3.h</text>
</a>
</g>
</g>
<!-- Node9&#45;&gt;Node10 -->
<g id="edge13" class="edge">
<title>Node9&#45;&gt;Node10</title>
<path fill="none" stroke="#191970" d="M803.666,-165.4179C819.9919,-156.7001 844.8766,-143.4122 863.683,-133.3699"/>
<polygon fill="#191970" stroke="#191970" points="865.4515,-136.3934 872.624,-128.5956 862.1542,-130.2186 865.4515,-136.3934"/>
</g>
<!-- Node11 -->
<g id="node12" class="node">
<title>Node11</title>
<g id="a_node12"><a xlink:href="complex_8h.html" target="_top" xlink:title=" ">
<polygon fill="#ffffff" stroke="#000000" points="777.3646,-55.5 777.3646,-73.5 863.9506,-73.5 863.9506,-55.5 777.3646,-55.5"/>
<text text-anchor="middle" x="820.6576" y="-61.5" font-family="Helvetica,sans-Serif" font-size="10.00" fill="#000000">math/complex.h</text>
</a>
</g>
</g>
<!-- Node9&#45;&gt;Node11 -->
<g id="edge18" class="edge">
<title>Node9&#45;&gt;Node11</title>
<path fill="none" stroke="#191970" d="M789.7314,-165.463C792.8252,-156.3014 797.6936,-141.7039 801.6576,-129 806.391,-113.8306 811.4627,-96.5564 815.1746,-83.7049"/>
<polygon fill="#191970" stroke="#191970" points="818.6476,-84.2913 818.0438,-73.7137 811.9195,-82.3591 818.6476,-84.2913"/>
</g>
<!-- Node13 -->
<g id="node14" class="node">
<title>Node13</title>
<g id="a_node14"><a xlink:href="su2_8h.html" target="_top" xlink:title=" ">
<polygon fill="#ffffff" stroke="#000000" points="711.1454,-110.5 711.1454,-128.5 792.1698,-128.5 792.1698,-110.5 711.1454,-110.5"/>
<text text-anchor="middle" x="751.6576" y="-116.5" font-family="Helvetica,sans-Serif" font-size="10.00" fill="#000000">matrices/su2.h</text>
</a>
</g>
</g>
<!-- Node9&#45;&gt;Node13 -->
<g id="edge16" class="edge">
<title>Node9&#45;&gt;Node13</title>
<path fill="none" stroke="#191970" d="M780.8781,-165.4179C776.0435,-157.8207 769.0002,-146.7527 763.04,-137.3866"/>
<polygon fill="#191970" stroke="#191970" points="765.8843,-135.337 757.5627,-128.7795 759.9787,-139.0952 765.8843,-135.337"/>
</g>
<!-- Node10&#45;&gt;Node11 -->
<g id="edge14" class="edge">
<title>Node10&#45;&gt;Node11</title>
<path fill="none" stroke="#191970" d="M878.2637,-110.4179C867.9384,-102.1876 852.5029,-89.8839 840.2079,-80.0836"/>
<polygon fill="#191970" stroke="#191970" points="842.3005,-77.2757 832.2991,-73.7795 837.9373,-82.7495 842.3005,-77.2757"/>
</g>
<!-- Node12 -->
<g id="node13" class="node">
<title>Node12</title>
<g id="a_node13"><a xlink:title=" ">
<polygon fill="#ffffff" stroke="#bfbfbf" points="793.4853,-.5 793.4853,-18.5 847.83,-18.5 847.83,-.5 793.4853,-.5"/>
<text text-anchor="middle" x="820.6576" y="-6.5" font-family="Helvetica,sans-Serif" font-size="10.00" fill="#000000">iostream</text>
</a>
</g>
</g>
<!-- Node11&#45;&gt;Node12 -->
<g id="edge15" class="edge">
<title>Node11&#45;&gt;Node12</title>
<path fill="none" stroke="#191970" d="M820.6576,-55.4179C820.6576,-48.2164 820.6576,-37.8962 820.6576,-28.8632"/>
<polygon fill="#191970" stroke="#191970" points="824.1577,-28.7794 820.6576,-18.7795 817.1577,-28.7795 824.1577,-28.7794"/>
</g>
<!-- Node13&#45;&gt;Node11 -->
<g id="edge17" class="edge">
<title>Node13&#45;&gt;Node11</title>
<path fill="none" stroke="#191970" d="M763.0516,-110.4179C773.3768,-102.1876 788.8124,-89.8839 801.1073,-80.0836"/>
<polygon fill="#191970" stroke="#191970" points="803.378,-82.7495 809.0161,-73.7795 799.0148,-77.2757 803.378,-82.7495"/>
</g>
<!-- Node14&#45;&gt;Node1 -->
<g id="edge39" class="edge">
<title>Node14&#45;&gt;Node1</title>
<path fill="none" stroke="#191970" d="M674.8644,-403.7795C676.3368,-411.0373 676.7556,-421.3738 676.1208,-430.383"/>
<polygon fill="#191970" stroke="#191970" points="672.6346,-430.0517 674.8239,-440.4179 679.5768,-430.949 672.6346,-430.0517"/>
</g>
<!-- Node15 -->
<g id="node16" class="node">
<title>Node15</title>
<g id="a_node16"><a xlink:href="correlator_8h.html" target="_top" xlink:title=" ">
<polygon fill="#ffffff" stroke="#000000" points="417.643,-275.5 417.643,-293.5 483.6723,-293.5 483.6723,-275.5 417.643,-275.5"/>
<text text-anchor="middle" x="450.6576" y="-281.5" font-family="Helvetica,sans-Serif" font-size="10.00" fill="#000000">correlator.h</text>
</a>
</g>
</g>
<!-- Node14&#45;&gt;Node15 -->
<g id="edge20" class="edge">
<title>Node14&#45;&gt;Node15</title>
<path fill="none" stroke="#191970" d="M619.1505,-385.4635C574.8974,-376.817 514.6175,-363.0472 494.6576,-349 478.0852,-337.3368 465.8632,-317.2989 458.5622,-302.6453"/>
<polygon fill="#191970" stroke="#191970" points="461.7066,-301.1066 454.301,-293.5298 455.3652,-304.0711 461.7066,-301.1066"/>
</g>
<!-- Node18 -->
<g id="node19" class="node">
<title>Node18</title>
<g id="a_node19"><a xlink:href="energydensity_8h.html" target="_top" xlink:title=" ">
<polygon fill="#ffffff" stroke="#000000" points="503.726,-330.5 503.726,-348.5 589.5893,-348.5 589.5893,-330.5 503.726,-330.5"/>
<text text-anchor="middle" x="546.6576" y="-336.5" font-family="Helvetica,sans-Serif" font-size="10.00" fill="#000000">energydensity.h</text>
</a>
</g>
</g>
<!-- Node14&#45;&gt;Node18 -->
<g id="edge26" class="edge">
<title>Node14&#45;&gt;Node18</title>
<path fill="none" stroke="#191970" d="M649.3467,-385.4179C629.4055,-376.5011 598.7717,-362.803 576.1491,-352.6873"/>
<polygon fill="#191970" stroke="#191970" points="577.5564,-349.4826 566.9987,-348.5956 574.6989,-355.8728 577.5564,-349.4826"/>
</g>
<!-- Node19 -->
<g id="node20" class="node">
<title>Node19</title>
<g id="a_node20"><a xlink:href="plaquette_8h.html" target="_top" xlink:title=" ">
<polygon fill="#ffffff" stroke="#000000" points="261.914,-330.5 261.914,-348.5 327.4013,-348.5 327.4013,-330.5 261.914,-330.5"/>
<text text-anchor="middle" x="294.6576" y="-336.5" font-family="Helvetica,sans-Serif" font-size="10.00" fill="#000000">plaquette.h</text>
</a>
</g>
</g>
<!-- Node14&#45;&gt;Node19 -->
<g id="edge29" class="edge">
<title>Node14&#45;&gt;Node19</title>
<path fill="none" stroke="#191970" d="M602.0996,-387.0097C536.8714,-379.3827 435.1245,-366.45 337.6441,-349.0476"/>
<polygon fill="#191970" stroke="#191970" points="338.08,-345.5698 327.6174,-347.2388 336.8372,-352.4586 338.08,-345.5698"/>
</g>
<!-- Node20 -->
<g id="node21" class="node">
<title>Node20</title>
<g id="a_node21"><a xlink:href="topologicalcharge_8h.html" target="_top" xlink:title=" ">
<polygon fill="#ffffff" stroke="#000000" points="345.2934,-330.5 345.2934,-348.5 448.0219,-348.5 448.0219,-330.5 345.2934,-330.5"/>
<text text-anchor="middle" x="396.6576" y="-336.5" font-family="Helvetica,sans-Serif" font-size="10.00" fill="#000000">topologicalcharge.h</text>
</a>
</g>
</g>
<!-- Node14&#45;&gt;Node20 -->
<g id="edge31" class="edge">
<title>Node14&#45;&gt;Node20</title>
<path fill="none" stroke="#191970" d="M624.8829,-385.4795C577.3752,-375.9083 502.2774,-360.7787 451.3126,-350.5111"/>
<polygon fill="#191970" stroke="#191970" points="451.9511,-347.0695 441.4568,-348.5255 450.5685,-353.9316 451.9511,-347.0695"/>
</g>
<!-- Node21 -->
<g id="node22" class="node">
<title>Node21</title>
<g id="a_node22"><a xlink:href="mastersampler_8h.html" target="_top" xlink:title=" ">
<polygon fill="#ffffff" stroke="#000000" points="851.6972,-330.5 851.6972,-348.5 941.6181,-348.5 941.6181,-330.5 851.6972,-330.5"/>
<text text-anchor="middle" x="896.6576" y="-336.5" font-family="Helvetica,sans-Serif" font-size="10.00" fill="#000000">mastersampler.h</text>
</a>
</g>
</g>
<!-- Node14&#45;&gt;Node21 -->
<g id="edge33" class="edge">
<title>Node14&#45;&gt;Node21</title>
<path fill="none" stroke="#191970" d="M701.9757,-385.4179C739.1486,-375.9354 800.4649,-361.0457 844.411,-350.8073"/>
<polygon fill="#191970" stroke="#191970" points="845.3936,-354.1724 854.3447,-348.5042 843.8125,-347.3533 845.3936,-354.1724"/>
</g>
<!-- Node22 -->
<g id="node23" class="node">
<title>Node22</title>
<g id="a_node23"><a xlink:href="mastersamplertopcxyz_8h.html" target="_top" xlink:title=" ">
<polygon fill="#ffffff" stroke="#000000" points="607.473,-330.5 607.473,-348.5 731.8422,-348.5 731.8422,-330.5 607.473,-330.5"/>
<text text-anchor="middle" x="669.6576" y="-336.5" font-family="Helvetica,sans-Serif" font-size="10.00" fill="#000000">mastersamplertopcxyz.h</text>
</a>
</g>
</g>
<!-- Node14&#45;&gt;Node22 -->
<g id="edge36" class="edge">
<title>Node14&#45;&gt;Node22</title>
<path fill="none" stroke="#191970" d="M664.4913,-385.4179C662.9997,-378.2164 662.5618,-367.8962 663.1774,-358.8632"/>
<polygon fill="#191970" stroke="#191970" points="666.6703,-359.1392 664.4508,-348.7795 659.7254,-358.2621 666.6703,-359.1392"/>
</g>
<!-- Node23 -->
<g id="node24" class="node">
<title>Node23</title>
<g id="a_node24"><a xlink:href="supersampler_8h.html" target="_top" xlink:title=" ">
<polygon fill="#ffffff" stroke="#000000" points="749.4706,-330.5 749.4706,-348.5 833.8446,-348.5 833.8446,-330.5 749.4706,-330.5"/>
<text text-anchor="middle" x="791.6576" y="-336.5" font-family="Helvetica,sans-Serif" font-size="10.00" fill="#000000">supersampler.h</text>
</a>
</g>
</g>
<!-- Node14&#45;&gt;Node23 -->
<g id="edge40" class="edge">
<title>Node14&#45;&gt;Node23</title>
<path fill="none" stroke="#191970" d="M684.6371,-385.4179C702.6494,-376.4613 732.992,-362.6806 756.8635,-352.552"/>
<polygon fill="#191970" stroke="#191970" points="758.4404,-355.6862 766.3128,-348.5956 755.7369,-349.2294 758.4404,-355.6862"/>
</g>
<!-- Node15&#45;&gt;Node2 -->
<g id="edge21" class="edge">
<title>Node15&#45;&gt;Node2</title>
<path fill="none" stroke="#191970" d="M483.3533,-275.4179C516.9872,-266.0751 569.5173,-251.4834 606.3109,-241.263"/>
<polygon fill="#191970" stroke="#191970" points="607.5441,-244.553 616.2425,-238.5042 605.6705,-237.8084 607.5441,-244.553"/>
</g>
<!-- Node15&#45;&gt;Node3 -->
<g id="edge25" class="edge">
<title>Node15&#45;&gt;Node3</title>
<path fill="none" stroke="#191970" d="M417.2056,-276.8441C414.3167,-276.2101 411.437,-275.5876 408.6576,-275 327.558,-257.8546 283.1899,-298.6754 225.6576,-239 199.8751,-212.2571 200.6455,-165.4418 203.5878,-139.0441"/>
<polygon fill="#191970" stroke="#191970" points="207.1016,-139.1732 204.9577,-128.7975 200.1633,-138.2455 207.1016,-139.1732"/>
</g>
<!-- Node16 -->
<g id="node17" class="node">
<title>Node16</title>
<g id="a_node17"><a xlink:href="observablestorer_8h.html" target="_top" xlink:title=" ">
<polygon fill="#ffffff" stroke="#000000" points="234.5692,-220.5 234.5692,-238.5 356.746,-238.5 356.746,-220.5 234.5692,-220.5"/>
<text text-anchor="middle" x="295.6576" y="-226.5" font-family="Helvetica,sans-Serif" font-size="10.00" fill="#000000">tools/observablestorer.h</text>
</a>
</g>
</g>
<!-- Node15&#45;&gt;Node16 -->
<g id="edge22" class="edge">
<title>Node15&#45;&gt;Node16</title>
<path fill="none" stroke="#191970" d="M425.0625,-275.4179C399.2956,-266.2748 359.3615,-252.1046 330.6708,-241.924"/>
<polygon fill="#191970" stroke="#191970" points="331.6279,-238.5499 321.0331,-238.5042 329.2869,-245.1469 331.6279,-238.5499"/>
</g>
<!-- Node16&#45;&gt;Node3 -->
<g id="edge24" class="edge">
<title>Node16&#45;&gt;Node3</title>
<path fill="none" stroke="#191970" d="M288.3744,-220.4982C273.5106,-202.1273 239.4759,-160.0619 220.3501,-136.4233"/>
<polygon fill="#191970" stroke="#191970" points="223.0524,-134.1988 214.0415,-128.6261 217.6105,-138.6018 223.0524,-134.1988"/>
</g>
<!-- Node17 -->
<g id="node18" class="node">
<title>Node17</title>
<g id="a_node18"><a xlink:title=" ">
<polygon fill="#ffffff" stroke="#bfbfbf" points="275.4311,-165.5 275.4311,-183.5 315.8842,-183.5 315.8842,-165.5 275.4311,-165.5"/>
<text text-anchor="middle" x="295.6576" y="-171.5" font-family="Helvetica,sans-Serif" font-size="10.00" fill="#000000">string</text>
</a>
</g>
</g>
<!-- Node16&#45;&gt;Node17 -->
<g id="edge23" class="edge">
<title>Node16&#45;&gt;Node17</title>
<path fill="none" stroke="#191970" d="M295.6576,-220.4179C295.6576,-213.2164 295.6576,-202.8962 295.6576,-193.8632"/>
<polygon fill="#191970" stroke="#191970" points="299.1577,-193.7794 295.6576,-183.7795 292.1577,-193.7795 299.1577,-193.7794"/>
</g>
<!-- Node18&#45;&gt;Node9 -->
<g id="edge28" class="edge">
<title>Node18&#45;&gt;Node9</title>
<path fill="none" stroke="#191970" d="M560.2883,-330.4592C586.5911,-312.9797 646.1262,-273.2513 695.6576,-239 719.8847,-222.2468 747.4487,-202.6308 765.8308,-189.4687"/>
<polygon fill="#191970" stroke="#191970" points="767.975,-192.2381 774.0624,-183.5666 763.896,-186.5493 767.975,-192.2381"/>
</g>
<!-- Node18&#45;&gt;Node15 -->
<g id="edge27" class="edge">
<title>Node18&#45;&gt;Node15</title>
<path fill="none" stroke="#191970" d="M530.8052,-330.4179C515.7972,-321.8195 493.0292,-308.7754 475.5904,-298.7844"/>
<polygon fill="#191970" stroke="#191970" points="476.9504,-295.5299 466.5336,-293.5956 473.4706,-301.6037 476.9504,-295.5299"/>
</g>
<!-- Node19&#45;&gt;Node15 -->
<g id="edge30" class="edge">
<title>Node19&#45;&gt;Node15</title>
<path fill="none" stroke="#191970" d="M320.4178,-330.4179C346.351,-321.2748 386.5428,-307.1046 415.4185,-296.924"/>
<polygon fill="#191970" stroke="#191970" points="416.8512,-300.1302 425.1184,-293.5042 414.5236,-293.5285 416.8512,-300.1302"/>
</g>
<!-- Node20&#45;&gt;Node15 -->
<g id="edge32" class="edge">
<title>Node20&#45;&gt;Node15</title>
<path fill="none" stroke="#191970" d="M405.5746,-330.4179C413.4222,-322.425 425.0416,-310.5903 434.5187,-300.9377"/>
<polygon fill="#191970" stroke="#191970" points="437.0384,-303.3672 441.5469,-293.7795 432.0435,-298.463 437.0384,-303.3672"/>
</g>
<!-- Node21&#45;&gt;Node2 -->
<g id="edge34" class="edge">
<title>Node21&#45;&gt;Node2</title>
<path fill="none" stroke="#191970" d="M888.977,-330.0535C876.9663,-315.917 852.3353,-289.3855 825.6576,-275 785.07,-253.1138 733.5192,-241.4131 696.5348,-235.387"/>
<polygon fill="#191970" stroke="#191970" points="696.9287,-231.9064 686.5108,-233.8341 695.857,-238.8239 696.9287,-231.9064"/>
</g>
<!-- Node21&#45;&gt;Node14 -->
<g id="edge35" class="edge">
<title>Node21&#45;&gt;Node14</title>
<path fill="none" stroke="#191970" d="M864.5616,-348.5255C827.4364,-357.9988 766.0212,-372.9136 721.9937,-383.1718"/>
<polygon fill="#191970" stroke="#191970" points="720.9923,-379.8111 712.0414,-385.4795 722.5735,-386.6302 720.9923,-379.8111"/>
</g>
<!-- Node22&#45;&gt;Node2 -->
<g id="edge37" class="edge">
<title>Node22&#45;&gt;Node2</title>
<path fill="none" stroke="#191970" d="M667.9391,-330.4982C664.5396,-312.6913 656.8901,-272.6225 652.3138,-248.6515"/>
<polygon fill="#191970" stroke="#191970" points="655.7131,-247.7924 650.3999,-238.6261 648.8373,-249.1051 655.7131,-247.7924"/>
</g>
<!-- Node22&#45;&gt;Node14 -->
<g id="edge38" class="edge">
<title>Node22&#45;&gt;Node14</title>
<path fill="none" stroke="#191970" d="M674.8644,-348.7795C676.3368,-356.0373 676.7556,-366.3738 676.1208,-375.383"/>
<polygon fill="#191970" stroke="#191970" points="672.6346,-375.0517 674.8239,-385.4179 679.5768,-375.949 672.6346,-375.0517"/>
</g>
<!-- Node23&#45;&gt;Node2 -->
<g id="edge41" class="edge">
<title>Node23&#45;&gt;Node2</title>
<path fill="none" stroke="#191970" d="M779.9553,-330.4982C755.5494,-311.7244 698.9748,-268.2055 668.6714,-244.8952"/>
<polygon fill="#191970" stroke="#191970" points="670.5819,-241.9491 660.5216,-238.6261 666.3139,-247.4975 670.5819,-241.9491"/>
</g>
<!-- Node23&#45;&gt;Node14 -->
<g id="edge42" class="edge">
<title>Node23&#45;&gt;Node14</title>
<path fill="none" stroke="#191970" d="M776.651,-348.5956C758.6263,-357.5571 728.2808,-371.3383 704.4157,-381.4633"/>
<polygon fill="#191970" stroke="#191970" points="702.8424,-378.3275 694.9698,-385.4179 705.5457,-384.7845 702.8424,-378.3275"/>
</g>
<!-- Node24 -->
<g id="node25" class="node">
<title>Node24</title>
<g id="a_node25"><a xlink:title=" ">
<polygon fill="#ffffff" stroke="#bfbfbf" points="780.9311,-275.5 780.9311,-293.5 816.3842,-293.5 816.3842,-275.5 780.9311,-275.5"/>
<text text-anchor="middle" x="798.6576" y="-281.5" font-family="Helvetica,sans-Serif" font-size="10.00" fill="#000000">map</text>
</a>
</g>
</g>
<!-- Node23&#45;&gt;Node24 -->
<g id="edge43" class="edge">
<title>Node23&#45;&gt;Node24</title>
<path fill="none" stroke="#191970" d="M792.8135,-330.4179C793.7301,-323.2164 795.0436,-312.8962 796.1932,-303.8632"/>
<polygon fill="#191970" stroke="#191970" points="799.686,-304.1414 797.4766,-293.7795 792.742,-303.2575 799.686,-304.1414"/>
</g>
<!-- Node26&#45;&gt;Node2 -->
<g id="edge47" class="edge">
<title>Node26&#45;&gt;Node2</title>
<path fill="none" stroke="#191970" d="M377.7968,-275.4795C439.7407,-264.9643 541.2067,-247.7401 600.795,-237.6248"/>
<polygon fill="#191970" stroke="#191970" points="601.4273,-241.0676 610.7005,-235.9433 600.2558,-234.1664 601.4273,-241.0676"/>
</g>
<!-- Node26&#45;&gt;Node3 -->
<g id="edge46" class="edge">
<title>Node26&#45;&gt;Node3</title>
<path fill="none" stroke="#191970" d="M281.9581,-275.4183C247.5902,-267.1407 203.3179,-253.9503 192.6576,-239 171.1272,-208.8049 186.1934,-163.0165 197.4511,-137.7857"/>
<polygon fill="#191970" stroke="#191970" points="200.6732,-139.159 201.7817,-128.6223 194.3444,-136.168 200.6732,-139.159"/>
</g>
<!-- Node27&#45;&gt;Node3 -->
<g id="edge50" class="edge">
<title>Node27&#45;&gt;Node3</title>
<path fill="none" stroke="#191970" d="M76.2207,-440.4659C50.258,-423.9763 .6576,-386.3438 .6576,-339.5 .6576,-339.5 .6576,-339.5 .6576,-229.5 .6576,-199.6154 -1.9728,-185.6206 19.6576,-165 41.7477,-143.9412 127.5376,-129.7676 174.8649,-123.3765"/>
<polygon fill="#191970" stroke="#191970" points="175.439,-126.8312 184.8988,-122.0603 174.5285,-119.8907 175.439,-126.8312"/>
</g>
<!-- Node27&#45;&gt;Node17 -->
<g id="edge49" class="edge">
<title>Node27&#45;&gt;Node17</title>
<path fill="none" stroke="#191970" d="M103.6943,-440.4288C114.8959,-431.7042 131.7542,-417.8347 144.6576,-404 193.4028,-351.7366 181.905,-315.6901 240.6576,-275 288.1858,-242.0836 330.8912,-285.1922 365.6576,-239 381.3425,-218.1603 351.0774,-198.4995 325.5606,-186.4857"/>
<polygon fill="#191970" stroke="#191970" points="326.6773,-183.1513 316.1193,-182.2692 323.8228,-189.5429 326.6773,-183.1513"/>
</g>
<!-- Node28 -->
<g id="node29" class="node">
<title>Node28</title>
<g id="a_node29"><a xlink:href="sysprint_8h.html" target="_top" xlink:title=" ">
<polygon fill="#ffffff" stroke="#000000" points="47.5297,-385.5 47.5297,-403.5 135.7855,-403.5 135.7855,-385.5 47.5297,-385.5"/>
<text text-anchor="middle" x="91.6576" y="-391.5" font-family="Helvetica,sans-Serif" font-size="10.00" fill="#000000">config/sysprint.h</text>
</a>
</g>
</g>
<!-- Node27&#45;&gt;Node28 -->
<g id="edge51" class="edge">
<title>Node27&#45;&gt;Node28</title>
<path fill="none" stroke="#191970" d="M86.4913,-440.4179C84.9997,-433.2164 84.5618,-422.8962 85.1774,-413.8632"/>
<polygon fill="#191970" stroke="#191970" points="88.6703,-414.1392 86.4508,-403.7795 81.7254,-413.2621 88.6703,-414.1392"/>
</g>
<!-- Node28&#45;&gt;Node27 -->
<g id="edge52" class="edge">
<title>Node28&#45;&gt;Node27</title>
<path fill="none" stroke="#191970" d="M96.8644,-403.7795C98.3368,-411.0373 98.7556,-421.3738 98.1208,-430.383"/>
<polygon fill="#191970" stroke="#191970" points="94.6346,-430.0517 96.8239,-440.4179 101.5768,-430.949 94.6346,-430.0517"/>
</g>
<!-- Node29 -->
<g id="node30" class="node">
<title>Node29</title>
<g id="a_node30"><a xlink:href="parallel_8h.html" target="_top" xlink:title=" ">
<polygon fill="#ffffff" stroke="#000000" points="39.4042,-330.5 39.4042,-348.5 159.911,-348.5 159.911,-330.5 39.4042,-330.5"/>
<text text-anchor="middle" x="99.6576" y="-336.5" font-family="Helvetica,sans-Serif" font-size="10.00" fill="#000000">parallelization/parallel.h</text>
</a>
</g>
</g>
<!-- Node28&#45;&gt;Node29 -->
<g id="edge53" class="edge">
<title>Node28&#45;&gt;Node29</title>
<path fill="none" stroke="#191970" d="M92.9787,-385.4179C94.0261,-378.2164 95.5273,-367.8962 96.8412,-358.8632"/>
<polygon fill="#191970" stroke="#191970" points="100.3319,-359.1791 98.3079,-348.7795 93.4048,-358.1715 100.3319,-359.1791"/>
</g>
<!-- Node29&#45;&gt;Node5 -->
<g id="edge55" class="edge">
<title>Node29&#45;&gt;Node5</title>
<path fill="none" stroke="#191970" d="M98.8082,-330.1561C96.4258,-303.9504 89.6445,-229.3557 86.4124,-193.8021"/>
<polygon fill="#191970" stroke="#191970" points="89.8888,-193.3834 85.4977,-183.7414 82.9176,-194.0172 89.8888,-193.3834"/>
</g>
<!-- Node29&#45;&gt;Node8 -->
<g id="edge56" class="edge">
<title>Node29&#45;&gt;Node8</title>
<path fill="none" stroke="#191970" d="M117.0725,-330.3956C143.3202,-316.937 194.8294,-291.5443 240.6576,-275 271.703,-263.7924 475.9601,-210.1381 567.9191,-186.1426"/>
<polygon fill="#191970" stroke="#191970" points="568.9794,-189.4832 577.7725,-183.5728 567.2129,-182.7097 568.9794,-189.4832"/>
</g>
<!-- Node29&#45;&gt;Node26 -->
<g id="edge54" class="edge">
<title>Node29&#45;&gt;Node26</title>
<path fill="none" stroke="#191970" d="M136.5598,-330.4795C175.1435,-321.0479 235.8079,-306.2188 277.7621,-295.9634"/>
<polygon fill="#191970" stroke="#191970" points="278.8524,-299.3 287.7352,-293.5255 277.1901,-292.5002 278.8524,-299.3"/>
</g>
<!-- Node30&#45;&gt;Node2 -->
<g id="edge61" class="edge">
<title>Node30&#45;&gt;Node2</title>
<path fill="none" stroke="#191970" d="M976.7233,-277.697C972.0206,-276.7418 967.2172,-275.8108 962.6576,-275 868.8396,-258.3174 758.4321,-243.4043 696.6968,-235.4871"/>
<polygon fill="#191970" stroke="#191970" points="696.8463,-231.9779 686.4837,-234.1843 695.9605,-238.9216 696.8463,-231.9779"/>
</g>
<!-- Node30&#45;&gt;Node17 -->
<g id="edge58" class="edge">
<title>Node30&#45;&gt;Node17</title>
<path fill="none" stroke="#191970" d="M976.6766,-277.9387C971.9804,-276.9502 967.1912,-275.9455 962.6576,-275 844.0513,-250.2646 815.3554,-238.7547 695.6576,-220 548.5896,-196.9568 510.372,-202.4517 362.6576,-184 350.6976,-182.506 337.563,-180.6837 326.1163,-179.0362"/>
<polygon fill="#191970" stroke="#191970" points="326.5605,-175.5641 316.1605,-177.5867 325.5519,-182.491 326.5605,-175.5641"/>
</g>
<!-- Node31 -->
<g id="node32" class="node">
<title>Node31</title>
<g id="a_node32"><a xlink:href="links_8h.html" target="_top" xlink:title=" ">
<polygon fill="#ffffff" stroke="#000000" points="951.9804,-220.5 951.9804,-238.5 1021.3349,-238.5 1021.3349,-220.5 951.9804,-220.5"/>
<text text-anchor="middle" x="986.6576" y="-226.5" font-family="Helvetica,sans-Serif" font-size="10.00" fill="#000000">math/links.h</text>
</a>
</g>
</g>
<!-- Node30&#45;&gt;Node31 -->
<g id="edge59" class="edge">
<title>Node30&#45;&gt;Node31</title>
<path fill="none" stroke="#191970" d="M1004.1899,-275.4179C1001.3798,-268.0581 997.326,-257.441 993.8242,-248.2695"/>
<polygon fill="#191970" stroke="#191970" points="997.0375,-246.8732 990.2007,-238.7795 990.498,-249.3701 997.0375,-246.8732"/>
</g>
<!-- Node31&#45;&gt;Node10 -->
<g id="edge60" class="edge">
<title>Node31&#45;&gt;Node10</title>
<path fill="none" stroke="#191970" d="M978.7197,-220.4982C962.5199,-202.1273 925.4258,-160.0619 904.5809,-136.4233"/>
<polygon fill="#191970" stroke="#191970" points="906.9443,-133.8116 897.7052,-128.6261 901.6941,-138.4414 906.9443,-133.8116"/>
</g>
</g>
</svg>
