<?xml version="1.0" encoding="UTF-8" standalone="no"?>
<!DOCTYPE svg PUBLIC "-//W3C//DTD SVG 1.1//EN"
 "http://www.w3.org/Graphics/SVG/1.1/DTD/svg11.dtd">
<!-- Generated by graphviz version 2.40.1 (20161225.0304)
 -->
<!-- Title: GluonicLQCD/math/links.h Pages: 1 -->
<svg width="972pt" height="267pt"
 viewBox="0.00 0.00 972.22 267.00" xmlns="http://www.w3.org/2000/svg" xmlns:xlink="http://www.w3.org/1999/xlink">
<g id="graph0" class="graph" transform="scale(1 1) rotate(0) translate(4 263)">
<title>GluonicLQCD/math/links.h</title>
<polygon fill="#ffffff" stroke="transparent" points="-4,4 -4,-263 968.2236,-263 968.2236,4 -4,4"/>
<!-- Node4 -->
<g id="node1" class="node">
<title>Node4</title>
<g id="a_node1"><a xlink:title=" ">
<polygon fill="#bfbfbf" stroke="#000000" points="587.1182,-240.5 587.1182,-258.5 720.9404,-258.5 720.9404,-240.5 587.1182,-240.5"/>
<text text-anchor="middle" x="654.0293" y="-246.5" font-family="Helvetica,sans-Serif" font-size="10.00" fill="#000000">GluonicLQCD/math/links.h</text>
</a>
</g>
</g>
<!-- Node5 -->
<g id="node2" class="node">
<title>Node5</title>
<g id="a_node2"><a xlink:href="fieldio_8h.html" target="_top" xlink:title=" ">
<polygon fill="#ffffff" stroke="#000000" points="327.2808,-180.5 327.2808,-198.5 452.7778,-198.5 452.7778,-180.5 327.2808,-180.5"/>
<text text-anchor="middle" x="390.0293" y="-186.5" font-family="Helvetica,sans-Serif" font-size="10.00" fill="#000000">GluonicLQCD/io/fieldio.h</text>
</a>
</g>
</g>
<!-- Node4&#45;&gt;Node5 -->
<g id="edge1" class="edge">
<title>Node4&#45;&gt;Node5</title>
<path fill="none" stroke="#191970" d="M604.1654,-238.1673C553.5871,-226.6722 476.3097,-209.1092 429.7302,-198.5229"/>
<polygon fill="#191970" stroke="#191970" points="603.693,-241.6491 614.22,-240.4524 605.2444,-234.8232 603.693,-241.6491"/>
</g>
<!-- Node10 -->
<g id="node7" class="node">
<title>Node10</title>
<g id="a_node7"><a xlink:href="latticemath_8h.html" target="_top" xlink:title=" ">
<polygon fill="#ffffff" stroke="#000000" points="487.9434,-180.5 487.9434,-198.5 650.1152,-198.5 650.1152,-180.5 487.9434,-180.5"/>
<text text-anchor="middle" x="569.0293" y="-186.5" font-family="Helvetica,sans-Serif" font-size="10.00" fill="#000000">GluonicLQCD/math/latticemath.h</text>
</a>
</g>
</g>
<!-- Node4&#45;&gt;Node10 -->
<g id="edge6" class="edge">
<title>Node4&#45;&gt;Node10</title>
<path fill="none" stroke="#191970" d="M632.8524,-234.5516C616.8031,-223.2227 595.2783,-208.0287 581.782,-198.5019"/>
<polygon fill="#191970" stroke="#191970" points="630.9315,-237.4798 641.1196,-240.3873 634.9683,-231.761 630.9315,-237.4798"/>
</g>
<!-- Node14 -->
<g id="node11" class="node">
<title>Node14</title>
<g id="a_node11"><a xlink:href="links_8cpp.html" target="_top" xlink:title=" ">
<polygon fill="#ffffff" stroke="#000000" points="667.8374,-180.5 667.8374,-198.5 812.2212,-198.5 812.2212,-180.5 667.8374,-180.5"/>
<text text-anchor="middle" x="740.0293" y="-186.5" font-family="Helvetica,sans-Serif" font-size="10.00" fill="#000000">GluonicLQCD/math/links.cpp</text>
</a>
</g>
</g>
<!-- Node4&#45;&gt;Node14 -->
<g id="edge11" class="edge">
<title>Node4&#45;&gt;Node14</title>
<path fill="none" stroke="#191970" d="M675.4553,-234.5516C691.6935,-223.2227 713.4715,-208.0287 727.1266,-198.5019"/>
<polygon fill="#191970" stroke="#191970" points="673.2895,-231.795 667.0908,-240.3873 677.2948,-237.5359 673.2895,-231.795"/>
</g>
<!-- Node15 -->
<g id="node12" class="node">
<title>Node15</title>
<g id="a_node12"><a xlink:href="plaquette_8cpp.html" target="_top" xlink:title=" ">
<polygon fill="#ffffff" stroke="#000000" points="829.835,-175.5 829.835,-203.5 964.2236,-203.5 964.2236,-175.5 829.835,-175.5"/>
<text text-anchor="start" x="837.835" y="-191.5" font-family="Helvetica,sans-Serif" font-size="10.00" fill="#000000">GluonicLQCD/observables</text>
<text text-anchor="middle" x="897.0293" y="-181.5" font-family="Helvetica,sans-Serif" font-size="10.00" fill="#000000">/plaquette.cpp</text>
</a>
</g>
</g>
<!-- Node4&#45;&gt;Node15 -->
<g id="edge12" class="edge">
<title>Node4&#45;&gt;Node15</title>
<path fill="none" stroke="#191970" d="M700.3843,-238.0543C740.1639,-228.2322 797.6378,-214.0411 840.1854,-203.5355"/>
<polygon fill="#191970" stroke="#191970" points="699.5414,-234.6573 690.672,-240.4524 701.2194,-241.4532 699.5414,-234.6573"/>
</g>
<!-- Node6 -->
<g id="node3" class="node">
<title>Node6</title>
<g id="a_node3"><a xlink:href="fieldio_8cpp.html" target="_top" xlink:title=" ">
<polygon fill="#ffffff" stroke="#000000" points="0,-115.5 0,-133.5 136.0586,-133.5 136.0586,-115.5 0,-115.5"/>
<text text-anchor="middle" x="68.0293" y="-121.5" font-family="Helvetica,sans-Serif" font-size="10.00" fill="#000000">GluonicLQCD/io/fieldio.cpp</text>
</a>
</g>
</g>
<!-- Node5&#45;&gt;Node6 -->
<g id="edge2" class="edge">
<title>Node5&#45;&gt;Node6</title>
<path fill="none" stroke="#191970" d="M335.1486,-178.4216C272.3808,-165.7511 170.8129,-145.2482 112.6804,-133.5134"/>
<polygon fill="#191970" stroke="#191970" points="334.7617,-181.914 345.2566,-180.462 336.1469,-175.0524 334.7617,-181.914"/>
</g>
<!-- Node7 -->
<g id="node4" class="node">
<title>Node7</title>
<g id="a_node4"><a xlink:href="latticeactionchargedensity_8cpp.html" target="_top" xlink:title=" ">
<polygon fill="#ffffff" stroke="#000000" points="154.0239,-110.5 154.0239,-138.5 306.0347,-138.5 306.0347,-110.5 154.0239,-110.5"/>
<text text-anchor="start" x="162.0239" y="-126.5" font-family="Helvetica,sans-Serif" font-size="10.00" fill="#000000">GluonicLQCD/observables</text>
<text text-anchor="middle" x="230.0293" y="-116.5" font-family="Helvetica,sans-Serif" font-size="10.00" fill="#000000">/latticeactionchargedensity.cpp</text>
</a>
</g>
</g>
<!-- Node5&#45;&gt;Node7 -->
<g id="edge3" class="edge">
<title>Node5&#45;&gt;Node7</title>
<path fill="none" stroke="#191970" d="M358.4019,-176.6514C331.3796,-165.6736 292.5675,-149.9062 264.7038,-138.5865"/>
<polygon fill="#191970" stroke="#191970" points="357.2,-179.9408 367.782,-180.462 359.8347,-173.4556 357.2,-179.9408"/>
</g>
<!-- Node8 -->
<g id="node5" class="node">
<title>Node8</title>
<g id="a_node5"><a xlink:href="system_8cpp.html" target="_top" xlink:title=" ">
<polygon fill="#ffffff" stroke="#000000" points="324.5098,-115.5 324.5098,-133.5 455.5488,-133.5 455.5488,-115.5 324.5098,-115.5"/>
<text text-anchor="middle" x="390.0293" y="-121.5" font-family="Helvetica,sans-Serif" font-size="10.00" fill="#000000">GluonicLQCD/system.cpp</text>
</a>
</g>
</g>
<!-- Node5&#45;&gt;Node8 -->
<g id="edge4" class="edge">
<title>Node5&#45;&gt;Node8</title>
<path fill="none" stroke="#191970" d="M390.0293,-170.1265C390.0293,-158.1522 390.0293,-143.3205 390.0293,-133.8821"/>
<polygon fill="#191970" stroke="#191970" points="386.5294,-170.462 390.0293,-180.462 393.5294,-170.4621 386.5294,-170.462"/>
</g>
<!-- Node9 -->
<g id="node6" class="node">
<title>Node9</title>
<g id="a_node6"><a xlink:href="testsuite_8cpp.html" target="_top" xlink:title=" ">
<polygon fill="#ffffff" stroke="#000000" points="403.7759,-55.5 403.7759,-73.5 564.2827,-73.5 564.2827,-55.5 403.7759,-55.5"/>
<text text-anchor="middle" x="484.0293" y="-61.5" font-family="Helvetica,sans-Serif" font-size="10.00" fill="#000000">GluonicLQCD/tests/testsuite.cpp</text>
</a>
</g>
</g>
<!-- Node5&#45;&gt;Node9 -->
<g id="edge5" class="edge">
<title>Node5&#45;&gt;Node9</title>
<path fill="none" stroke="#191970" d="M420.5715,-175.6312C436.045,-167.1341 453.8707,-154.8319 465.0293,-139 479.3324,-118.7067 482.8813,-88.5741 483.7526,-73.6126"/>
<polygon fill="#191970" stroke="#191970" points="418.5879,-172.7171 411.3217,-180.4276 421.8103,-178.9313 418.5879,-172.7171"/>
</g>
<!-- Node11 -->
<g id="node8" class="node">
<title>Node11</title>
<g id="a_node8"><a xlink:href="testsuite_8h.html" target="_top" xlink:title=" ">
<polygon fill="#ffffff" stroke="#000000" points="512.0566,-115.5 512.0566,-133.5 662.002,-133.5 662.002,-115.5 512.0566,-115.5"/>
<text text-anchor="middle" x="587.0293" y="-121.5" font-family="Helvetica,sans-Serif" font-size="10.00" fill="#000000">GluonicLQCD/tests/testsuite.h</text>
</a>
</g>
</g>
<!-- Node10&#45;&gt;Node11 -->
<g id="edge7" class="edge">
<title>Node10&#45;&gt;Node11</title>
<path fill="none" stroke="#191970" d="M574.292,-170.4959C577.6254,-158.4586 581.7905,-143.4178 584.4312,-133.8821"/>
<polygon fill="#191970" stroke="#191970" points="570.8279,-169.8906 571.5321,-180.462 577.574,-171.7588 570.8279,-169.8906"/>
</g>
<!-- Node11&#45;&gt;Node9 -->
<g id="edge10" class="edge">
<title>Node11&#45;&gt;Node9</title>
<path fill="none" stroke="#191970" d="M562.7076,-110.332C543.1327,-98.9291 516.2155,-83.2492 499.4825,-73.5019"/>
<polygon fill="#191970" stroke="#191970" points="560.9832,-113.378 571.3858,-115.3873 564.5067,-107.3295 560.9832,-113.378"/>
</g>
<!-- Node12 -->
<g id="node9" class="node">
<title>Node12</title>
<g id="a_node9"><a xlink:href="test_8h.html" target="_top" xlink:title=" ">
<polygon fill="#ffffff" stroke="#000000" points="582.6182,-55.5 582.6182,-73.5 711.4404,-73.5 711.4404,-55.5 582.6182,-55.5"/>
<text text-anchor="middle" x="647.0293" y="-61.5" font-family="Helvetica,sans-Serif" font-size="10.00" fill="#000000">GluonicLQCD/tests/test.h</text>
</a>
</g>
</g>
<!-- Node11&#45;&gt;Node12 -->
<g id="edge8" class="edge">
<title>Node11&#45;&gt;Node12</title>
<path fill="none" stroke="#191970" d="M603.5282,-108.0011C614.5815,-96.9478 628.7244,-82.8049 637.8308,-73.6985"/>
<polygon fill="#191970" stroke="#191970" points="600.7382,-105.8413 596.142,-115.3873 605.688,-110.7911 600.7382,-105.8413"/>
</g>
<!-- Node13 -->
<g id="node10" class="node">
<title>Node13</title>
<g id="a_node10"><a xlink:href="main_8cpp.html" target="_top" xlink:title=" ">
<polygon fill="#ffffff" stroke="#000000" points="586.5073,-.5 586.5073,-18.5 707.5513,-18.5 707.5513,-.5 586.5073,-.5"/>
<text text-anchor="middle" x="647.0293" y="-6.5" font-family="Helvetica,sans-Serif" font-size="10.00" fill="#000000">GluonicLQCD/main.cpp</text>
</a>
</g>
</g>
<!-- Node12&#45;&gt;Node13 -->
<g id="edge9" class="edge">
<title>Node12&#45;&gt;Node13</title>
<path fill="none" stroke="#191970" d="M647.0293,-45.383C647.0293,-36.3738 647.0293,-26.0373 647.0293,-18.7795"/>
<polygon fill="#191970" stroke="#191970" points="643.5294,-45.4178 647.0293,-55.4179 650.5294,-45.4179 643.5294,-45.4178"/>
</g>
</g>
</svg>
