<?xml version="1.0" encoding="UTF-8" standalone="no"?>
<!DOCTYPE svg PUBLIC "-//W3C//DTD SVG 1.1//EN"
 "http://www.w3.org/Graphics/SVG/1.1/DTD/svg11.dtd">
<!-- Generated by graphviz version 2.40.1 (20161225.0304)
 -->
<!-- Title: GluonicLQCD/math/links.cpp Pages: 1 -->
<svg width="152pt" height="247pt"
 viewBox="0.00 0.00 152.38 247.00" xmlns="http://www.w3.org/2000/svg" xmlns:xlink="http://www.w3.org/1999/xlink">
<g id="graph0" class="graph" transform="scale(1 1) rotate(0) translate(4 243)">
<title>GluonicLQCD/math/links.cpp</title>
<polygon fill="#ffffff" stroke="transparent" points="-4,4 -4,-243 148.3838,-243 148.3838,4 -4,4"/>
<!-- Node0 -->
<g id="node1" class="node">
<title>Node0</title>
<g id="a_node1"><a xlink:title=" ">
<polygon fill="#bfbfbf" stroke="#000000" points="0,-220.5 0,-238.5 144.3838,-238.5 144.3838,-220.5 0,-220.5"/>
<text text-anchor="middle" x="72.1919" y="-226.5" font-family="Helvetica,sans-Serif" font-size="10.00" fill="#000000">GluonicLQCD/math/links.cpp</text>
</a>
</g>
</g>
<!-- Node1 -->
<g id="node2" class="node">
<title>Node1</title>
<g id="a_node2"><a xlink:href="links_8h.html" target="_top" xlink:title=" ">
<polygon fill="#ffffff" stroke="#000000" points="50.0195,-165.5 50.0195,-183.5 94.3643,-183.5 94.3643,-165.5 50.0195,-165.5"/>
<text text-anchor="middle" x="72.1919" y="-171.5" font-family="Helvetica,sans-Serif" font-size="10.00" fill="#000000">links.h</text>
</a>
</g>
</g>
<!-- Node0&#45;&gt;Node1 -->
<g id="edge1" class="edge">
<title>Node0&#45;&gt;Node1</title>
<path fill="none" stroke="#191970" d="M72.1919,-220.4179C72.1919,-213.2164 72.1919,-202.8962 72.1919,-193.8632"/>
<polygon fill="#191970" stroke="#191970" points="75.692,-193.7794 72.1919,-183.7795 68.692,-193.7795 75.692,-193.7794"/>
</g>
<!-- Node2 -->
<g id="node3" class="node">
<title>Node2</title>
<g id="a_node3"><a xlink:href="su3_8h.html" target="_top" xlink:title=" ">
<polygon fill="#ffffff" stroke="#000000" points="31.6797,-110.5 31.6797,-128.5 112.7041,-128.5 112.7041,-110.5 31.6797,-110.5"/>
<text text-anchor="middle" x="72.1919" y="-116.5" font-family="Helvetica,sans-Serif" font-size="10.00" fill="#000000">matrices/su3.h</text>
</a>
</g>
</g>
<!-- Node1&#45;&gt;Node2 -->
<g id="edge2" class="edge">
<title>Node1&#45;&gt;Node2</title>
<path fill="none" stroke="#191970" d="M72.1919,-165.4179C72.1919,-158.2164 72.1919,-147.8962 72.1919,-138.8632"/>
<polygon fill="#191970" stroke="#191970" points="75.692,-138.7794 72.1919,-128.7795 68.692,-138.7795 75.692,-138.7794"/>
</g>
<!-- Node3 -->
<g id="node4" class="node">
<title>Node3</title>
<g id="a_node4"><a xlink:href="complex_8h.html" target="_top" xlink:title=" ">
<polygon fill="#ffffff" stroke="#000000" points="28.8989,-55.5 28.8989,-73.5 115.4849,-73.5 115.4849,-55.5 28.8989,-55.5"/>
<text text-anchor="middle" x="72.1919" y="-61.5" font-family="Helvetica,sans-Serif" font-size="10.00" fill="#000000">math/complex.h</text>
</a>
</g>
</g>
<!-- Node2&#45;&gt;Node3 -->
<g id="edge3" class="edge">
<title>Node2&#45;&gt;Node3</title>
<path fill="none" stroke="#191970" d="M72.1919,-110.4179C72.1919,-103.2164 72.1919,-92.8962 72.1919,-83.8632"/>
<polygon fill="#191970" stroke="#191970" points="75.692,-83.7794 72.1919,-73.7795 68.692,-83.7795 75.692,-83.7794"/>
</g>
<!-- Node4 -->
<g id="node5" class="node">
<title>Node4</title>
<g id="a_node5"><a xlink:title=" ">
<polygon fill="#ffffff" stroke="#bfbfbf" points="45.0195,-.5 45.0195,-18.5 99.3643,-18.5 99.3643,-.5 45.0195,-.5"/>
<text text-anchor="middle" x="72.1919" y="-6.5" font-family="Helvetica,sans-Serif" font-size="10.00" fill="#000000">iostream</text>
</a>
</g>
</g>
<!-- Node3&#45;&gt;Node4 -->
<g id="edge4" class="edge">
<title>Node3&#45;&gt;Node4</title>
<path fill="none" stroke="#191970" d="M72.1919,-55.4179C72.1919,-48.2164 72.1919,-37.8962 72.1919,-28.8632"/>
<polygon fill="#191970" stroke="#191970" points="75.692,-28.7794 72.1919,-18.7795 68.692,-28.7795 75.692,-28.7794"/>
</g>
</g>
</svg>
