<?xml version="1.0" encoding="UTF-8" standalone="no"?>
<!DOCTYPE svg PUBLIC "-//W3C//DTD SVG 1.1//EN"
 "http://www.w3.org/Graphics/SVG/1.1/DTD/svg11.dtd">
<!-- Generated by graphviz version 2.40.1 (20161225.0304)
 -->
<!-- Title: GluonicLQCD/math/links.h Pages: 1 -->
<svg width="142pt" height="192pt"
 viewBox="0.00 0.00 141.82 192.00" xmlns="http://www.w3.org/2000/svg" xmlns:xlink="http://www.w3.org/1999/xlink">
<g id="graph0" class="graph" transform="scale(1 1) rotate(0) translate(4 188)">
<title>GluonicLQCD/math/links.h</title>
<polygon fill="#ffffff" stroke="transparent" points="-4,4 -4,-188 137.8223,-188 137.8223,4 -4,4"/>
<!-- Node0 -->
<g id="node1" class="node">
<title>Node0</title>
<g id="a_node1"><a xlink:title=" ">
<polygon fill="#bfbfbf" stroke="#000000" points="0,-165.5 0,-183.5 133.8223,-183.5 133.8223,-165.5 0,-165.5"/>
<text text-anchor="middle" x="66.9111" y="-171.5" font-family="Helvetica,sans-Serif" font-size="10.00" fill="#000000">GluonicLQCD/math/links.h</text>
</a>
</g>
</g>
<!-- Node1 -->
<g id="node2" class="node">
<title>Node1</title>
<g id="a_node2"><a xlink:href="su3_8h.html" target="_top" xlink:title=" ">
<polygon fill="#ffffff" stroke="#000000" points="26.3989,-110.5 26.3989,-128.5 107.4233,-128.5 107.4233,-110.5 26.3989,-110.5"/>
<text text-anchor="middle" x="66.9111" y="-116.5" font-family="Helvetica,sans-Serif" font-size="10.00" fill="#000000">matrices/su3.h</text>
</a>
</g>
</g>
<!-- Node0&#45;&gt;Node1 -->
<g id="edge1" class="edge">
<title>Node0&#45;&gt;Node1</title>
<path fill="none" stroke="#191970" d="M66.9111,-165.4179C66.9111,-158.2164 66.9111,-147.8962 66.9111,-138.8632"/>
<polygon fill="#191970" stroke="#191970" points="70.4112,-138.7794 66.9111,-128.7795 63.4112,-138.7795 70.4112,-138.7794"/>
</g>
<!-- Node2 -->
<g id="node3" class="node">
<title>Node2</title>
<g id="a_node3"><a xlink:href="complex_8h.html" target="_top" xlink:title=" ">
<polygon fill="#ffffff" stroke="#000000" points="23.6182,-55.5 23.6182,-73.5 110.2041,-73.5 110.2041,-55.5 23.6182,-55.5"/>
<text text-anchor="middle" x="66.9111" y="-61.5" font-family="Helvetica,sans-Serif" font-size="10.00" fill="#000000">math/complex.h</text>
</a>
</g>
</g>
<!-- Node1&#45;&gt;Node2 -->
<g id="edge2" class="edge">
<title>Node1&#45;&gt;Node2</title>
<path fill="none" stroke="#191970" d="M66.9111,-110.4179C66.9111,-103.2164 66.9111,-92.8962 66.9111,-83.8632"/>
<polygon fill="#191970" stroke="#191970" points="70.4112,-83.7794 66.9111,-73.7795 63.4112,-83.7795 70.4112,-83.7794"/>
</g>
<!-- Node3 -->
<g id="node4" class="node">
<title>Node3</title>
<g id="a_node4"><a xlink:title=" ">
<polygon fill="#ffffff" stroke="#bfbfbf" points="39.7388,-.5 39.7388,-18.5 94.0835,-18.5 94.0835,-.5 39.7388,-.5"/>
<text text-anchor="middle" x="66.9111" y="-6.5" font-family="Helvetica,sans-Serif" font-size="10.00" fill="#000000">iostream</text>
</a>
</g>
</g>
<!-- Node2&#45;&gt;Node3 -->
<g id="edge3" class="edge">
<title>Node2&#45;&gt;Node3</title>
<path fill="none" stroke="#191970" d="M66.9111,-55.4179C66.9111,-48.2164 66.9111,-37.8962 66.9111,-28.8632"/>
<polygon fill="#191970" stroke="#191970" points="70.4112,-28.7794 66.9111,-18.7795 63.4112,-28.7795 70.4112,-28.7794"/>
</g>
</g>
</svg>
