<?xml version="1.0" encoding="UTF-8" standalone="no"?>
<!DOCTYPE svg PUBLIC "-//W3C//DTD SVG 1.1//EN"
 "http://www.w3.org/Graphics/SVG/1.1/DTD/svg11.dtd">
<!-- Generated by graphviz version 2.40.1 (20161225.0304)
 -->
<!-- Title: GluonicLQCD/observables/mastersampler.cpp Pages: 1 -->
<svg width="992pt" height="532pt"
 viewBox="0.00 0.00 992.22 532.00" xmlns="http://www.w3.org/2000/svg" xmlns:xlink="http://www.w3.org/1999/xlink">
<g id="graph0" class="graph" transform="scale(1 1) rotate(0) translate(4 528)">
<title>GluonicLQCD/observables/mastersampler.cpp</title>
<polygon fill="#ffffff" stroke="transparent" points="-4,4 -4,-528 988.2216,-528 988.2216,4 -4,4"/>
<!-- Node0 -->
<g id="node1" class="node">
<title>Node0</title>
<g id="a_node1"><a xlink:title=" ">
<polygon fill="#bfbfbf" stroke="#000000" points="290.8057,-495.5 290.8057,-523.5 425.1943,-523.5 425.1943,-495.5 290.8057,-495.5"/>
<text text-anchor="start" x="298.8057" y="-511.5" font-family="Helvetica,sans-Serif" font-size="10.00" fill="#000000">GluonicLQCD/observables</text>
<text text-anchor="middle" x="358" y="-501.5" font-family="Helvetica,sans-Serif" font-size="10.00" fill="#000000">/mastersampler.cpp</text>
</a>
</g>
</g>
<!-- Node1 -->
<g id="node2" class="node">
<title>Node1</title>
<g id="a_node2"><a xlink:href="mastersampler_8h.html" target="_top" xlink:title=" ">
<polygon fill="#ffffff" stroke="#000000" points="508.0396,-440.5 508.0396,-458.5 597.9604,-458.5 597.9604,-440.5 508.0396,-440.5"/>
<text text-anchor="middle" x="553" y="-446.5" font-family="Helvetica,sans-Serif" font-size="10.00" fill="#000000">mastersampler.h</text>
</a>
</g>
</g>
<!-- Node0&#45;&gt;Node1 -->
<g id="edge1" class="edge">
<title>Node0&#45;&gt;Node1</title>
<path fill="none" stroke="#191970" d="M403.7188,-495.4327C437.1378,-485.1499 481.9905,-471.3491 513.7823,-461.567"/>
<polygon fill="#191970" stroke="#191970" points="515.0859,-464.8279 523.6144,-458.5417 513.0273,-458.1374 515.0859,-464.8279"/>
</g>
<!-- Node25 -->
<g id="node26" class="node">
<title>Node25</title>
<g id="a_node26"><a xlink:title=" ">
<polygon fill="#ffffff" stroke="#bfbfbf" points="616.3843,-440.5 616.3843,-458.5 659.6157,-458.5 659.6157,-440.5 616.3843,-440.5"/>
<text text-anchor="middle" x="638" y="-446.5" font-family="Helvetica,sans-Serif" font-size="10.00" fill="#000000">cmath</text>
</a>
</g>
</g>
<!-- Node0&#45;&gt;Node25 -->
<g id="edge44" class="edge">
<title>Node0&#45;&gt;Node25</title>
<path fill="none" stroke="#191970" d="M425.2451,-497.6957C473.2215,-488.8517 539.4167,-475.7951 606.2031,-459.0152"/>
<polygon fill="#191970" stroke="#191970" points="607.228,-462.3661 616.059,-456.5125 605.5052,-455.5814 607.228,-462.3661"/>
</g>
<!-- Node26 -->
<g id="node27" class="node">
<title>Node26</title>
<g id="a_node27"><a xlink:href="communicator_8h.html" target="_top" xlink:title=" ">
<polygon fill="#ffffff" stroke="#000000" points="103.7417,-275.5 103.7417,-293.5 254.2583,-293.5 254.2583,-275.5 103.7417,-275.5"/>
<text text-anchor="middle" x="179" y="-281.5" font-family="Helvetica,sans-Serif" font-size="10.00" fill="#000000">parallelization/communicator.h</text>
</a>
</g>
</g>
<!-- Node0&#45;&gt;Node26 -->
<g id="edge45" class="edge">
<title>Node0&#45;&gt;Node26</title>
<path fill="none" stroke="#191970" d="M290.5577,-506.0558C221.0066,-500.9254 119.358,-488.4801 95,-459 58.4811,-414.8018 65.6613,-379.258 95,-330 103.9963,-314.8957 119.9441,-304.4988 135.5444,-297.5006"/>
<polygon fill="#191970" stroke="#191970" points="137.2182,-300.5974 145.1476,-293.5707 134.5669,-294.1189 137.2182,-300.5974"/>
</g>
<!-- Node27 -->
<g id="node28" class="node">
<title>Node27</title>
<g id="a_node28"><a xlink:href="parameters_8h.html" target="_top" xlink:title=" ">
<polygon fill="#ffffff" stroke="#000000" points="103.8105,-440.5 103.8105,-458.5 208.1895,-458.5 208.1895,-440.5 103.8105,-440.5"/>
<text text-anchor="middle" x="156" y="-446.5" font-family="Helvetica,sans-Serif" font-size="10.00" fill="#000000">config/parameters.h</text>
</a>
</g>
</g>
<!-- Node0&#45;&gt;Node27 -->
<g id="edge48" class="edge">
<title>Node0&#45;&gt;Node27</title>
<path fill="none" stroke="#191970" d="M310.64,-495.4327C275.8715,-485.1054 229.1561,-471.2295 196.1985,-461.4402"/>
<polygon fill="#191970" stroke="#191970" points="197.0231,-458.034 186.4405,-458.5417 195.03,-464.7443 197.0231,-458.034"/>
</g>
<!-- Node2 -->
<g id="node3" class="node">
<title>Node2</title>
<g id="a_node3"><a xlink:href="lattice_8h.html" target="_top" xlink:title=" ">
<polygon fill="#ffffff" stroke="#000000" points="550.2637,-220.5 550.2637,-238.5 625.7363,-238.5 625.7363,-220.5 550.2637,-220.5"/>
<text text-anchor="middle" x="588" y="-226.5" font-family="Helvetica,sans-Serif" font-size="10.00" fill="#000000">math/lattice.h</text>
</a>
</g>
</g>
<!-- Node1&#45;&gt;Node2 -->
<g id="edge2" class="edge">
<title>Node1&#45;&gt;Node2</title>
<path fill="none" stroke="#191970" d="M597.8868,-440.4657C704.8897,-418.7225 967.0033,-364.1563 979,-349 1023.8563,-292.33 749.9286,-250.2016 636.0043,-235.3397"/>
<polygon fill="#191970" stroke="#191970" points="636.1821,-231.8338 625.817,-234.0279 635.2881,-238.7765 636.1821,-231.8338"/>
</g>
<!-- Node14 -->
<g id="node15" class="node">
<title>Node14</title>
<g id="a_node15"><a xlink:href="observables_8h.html" target="_top" xlink:title=" ">
<polygon fill="#ffffff" stroke="#000000" points="485.52,-385.5 485.52,-403.5 620.48,-403.5 620.48,-385.5 485.52,-385.5"/>
<text text-anchor="middle" x="553" y="-391.5" font-family="Helvetica,sans-Serif" font-size="10.00" fill="#000000">observables/observables.h</text>
</a>
</g>
</g>
<!-- Node1&#45;&gt;Node14 -->
<g id="edge19" class="edge">
<title>Node1&#45;&gt;Node14</title>
<path fill="none" stroke="#191970" d="M547.8337,-440.4179C546.3421,-433.2164 545.9042,-422.8962 546.5198,-413.8632"/>
<polygon fill="#191970" stroke="#191970" points="550.0126,-414.1392 547.7932,-403.7795 543.0678,-413.2621 550.0126,-414.1392"/>
</g>
<!-- Node3 -->
<g id="node4" class="node">
<title>Node3</title>
<g id="a_node4"><a xlink:title=" ">
<polygon fill="#ffffff" stroke="#bfbfbf" points="252.3843,-110.5 252.3843,-128.5 295.6157,-128.5 295.6157,-110.5 252.3843,-110.5"/>
<text text-anchor="middle" x="274" y="-116.5" font-family="Helvetica,sans-Serif" font-size="10.00" fill="#000000">vector</text>
</a>
</g>
</g>
<!-- Node2&#45;&gt;Node3 -->
<g id="edge3" class="edge">
<title>Node2&#45;&gt;Node3</title>
<path fill="none" stroke="#191970" d="M549.9737,-221.4802C514.5373,-213.5435 460.4776,-200.2462 415,-184 409.3329,-181.9755 342.7684,-151.3002 303.1592,-132.9936"/>
<polygon fill="#191970" stroke="#191970" points="304.269,-129.6507 293.7233,-128.6308 301.3312,-136.0044 304.269,-129.6507"/>
</g>
<!-- Node4 -->
<g id="node5" class="node">
<title>Node4</title>
<g id="a_node5"><a xlink:title=" ">
<polygon fill="#ffffff" stroke="#bfbfbf" points="657.7734,-110.5 657.7734,-128.5 698.2266,-128.5 698.2266,-110.5 657.7734,-110.5"/>
<text text-anchor="middle" x="678" y="-116.5" font-family="Helvetica,sans-Serif" font-size="10.00" fill="#000000">mpi.h</text>
</a>
</g>
</g>
<!-- Node2&#45;&gt;Node4 -->
<g id="edge4" class="edge">
<title>Node2&#45;&gt;Node4</title>
<path fill="none" stroke="#191970" d="M625.7722,-224.8733C671.3026,-218.43 743.7482,-205.1099 760,-184 778.2654,-160.2744 738.7474,-140.2943 708.4568,-129.1158"/>
<polygon fill="#191970" stroke="#191970" points="709.2297,-125.6779 698.6349,-125.6696 706.9121,-132.2831 709.2297,-125.6779"/>
</g>
<!-- Node5 -->
<g id="node6" class="node">
<title>Node5</title>
<g id="a_node6"><a xlink:href="index_8h.html" target="_top" xlink:title=" ">
<polygon fill="#ffffff" stroke="#000000" points="217.9141,-165.5 217.9141,-183.5 330.0859,-183.5 330.0859,-165.5 217.9141,-165.5"/>
<text text-anchor="middle" x="274" y="-171.5" font-family="Helvetica,sans-Serif" font-size="10.00" fill="#000000">parallelization/index.h</text>
</a>
</g>
</g>
<!-- Node2&#45;&gt;Node5 -->
<g id="edge5" class="edge">
<title>Node2&#45;&gt;Node5</title>
<path fill="none" stroke="#191970" d="M550.1243,-222.8657C496.8624,-213.5364 399.2278,-196.4348 335.4819,-185.2691"/>
<polygon fill="#191970" stroke="#191970" points="336.0079,-181.8081 325.554,-183.5302 334.8001,-188.7031 336.0079,-181.8081"/>
</g>
<!-- Node6 -->
<g id="node7" class="node">
<title>Node6</title>
<g id="a_node7"><a xlink:href="neighbours_8h.html" target="_top" xlink:title=" ">
<polygon fill="#ffffff" stroke="#000000" points="424.126,-165.5 424.126,-183.5 561.874,-183.5 561.874,-165.5 424.126,-165.5"/>
<text text-anchor="middle" x="493" y="-171.5" font-family="Helvetica,sans-Serif" font-size="10.00" fill="#000000">parallelization/neighbours.h</text>
</a>
</g>
</g>
<!-- Node2&#45;&gt;Node6 -->
<g id="edge7" class="edge">
<title>Node2&#45;&gt;Node6</title>
<path fill="none" stroke="#191970" d="M572.3127,-220.4179C557.461,-211.8195 534.9302,-198.7754 517.6731,-188.7844"/>
<polygon fill="#191970" stroke="#191970" points="519.1185,-185.577 508.7106,-183.5956 515.6113,-191.635 519.1185,-185.577"/>
</g>
<!-- Node8 -->
<g id="node9" class="node">
<title>Node8</title>
<g id="a_node9"><a xlink:href="parallelparameters_8h.html" target="_top" xlink:title=" ">
<polygon fill="#ffffff" stroke="#000000" points="579.4585,-165.5 579.4585,-183.5 750.5415,-183.5 750.5415,-165.5 579.4585,-165.5"/>
<text text-anchor="middle" x="665" y="-171.5" font-family="Helvetica,sans-Serif" font-size="10.00" fill="#000000">parallelization/parallelparameters.h</text>
</a>
</g>
</g>
<!-- Node2&#45;&gt;Node8 -->
<g id="edge10" class="edge">
<title>Node2&#45;&gt;Node8</title>
<path fill="none" stroke="#191970" d="M600.715,-220.4179C612.4183,-212.0584 630.0047,-199.4966 643.8265,-189.6239"/>
<polygon fill="#191970" stroke="#191970" points="646.1631,-192.2561 652.2661,-183.5956 642.0944,-186.56 646.1631,-192.2561"/>
</g>
<!-- Node9 -->
<g id="node10" class="node">
<title>Node9</title>
<g id="a_node10"><a xlink:href="functions_8h.html" target="_top" xlink:title=" ">
<polygon fill="#ffffff" stroke="#000000" points="806.8179,-165.5 806.8179,-183.5 871.1821,-183.5 871.1821,-165.5 806.8179,-165.5"/>
<text text-anchor="middle" x="839" y="-171.5" font-family="Helvetica,sans-Serif" font-size="10.00" fill="#000000">functions.h</text>
</a>
</g>
</g>
<!-- Node2&#45;&gt;Node9 -->
<g id="edge12" class="edge">
<title>Node2&#45;&gt;Node9</title>
<path fill="none" stroke="#191970" d="M625.849,-221.2064C671.6536,-211.1695 748.5718,-194.3149 796.4084,-183.8328"/>
<polygon fill="#191970" stroke="#191970" points="797.4259,-187.193 806.445,-181.6336 795.9275,-180.3552 797.4259,-187.193"/>
</g>
<!-- Node5&#45;&gt;Node3 -->
<g id="edge6" class="edge">
<title>Node5&#45;&gt;Node3</title>
<path fill="none" stroke="#191970" d="M274,-165.4179C274,-158.2164 274,-147.8962 274,-138.8632"/>
<polygon fill="#191970" stroke="#191970" points="277.5001,-138.7794 274,-128.7795 270.5001,-138.7795 277.5001,-138.7794"/>
</g>
<!-- Node6&#45;&gt;Node3 -->
<g id="edge9" class="edge">
<title>Node6&#45;&gt;Node3</title>
<path fill="none" stroke="#191970" d="M456.8366,-165.4179C414.7031,-154.8364 345.7595,-137.5218 305.658,-127.4506"/>
<polygon fill="#191970" stroke="#191970" points="306.4294,-124.0358 295.878,-124.9945 304.7243,-130.8249 306.4294,-124.0358"/>
</g>
<!-- Node7 -->
<g id="node8" class="node">
<title>Node7</title>
<g id="a_node8"><a xlink:href="neighbourlist_8h.html" target="_top" xlink:title=" ">
<polygon fill="#ffffff" stroke="#000000" points="452.478,-110.5 452.478,-128.5 533.522,-128.5 533.522,-110.5 452.478,-110.5"/>
<text text-anchor="middle" x="493" y="-116.5" font-family="Helvetica,sans-Serif" font-size="10.00" fill="#000000">neighbourlist.h</text>
</a>
</g>
</g>
<!-- Node6&#45;&gt;Node7 -->
<g id="edge8" class="edge">
<title>Node6&#45;&gt;Node7</title>
<path fill="none" stroke="#191970" d="M493,-165.4179C493,-158.2164 493,-147.8962 493,-138.8632"/>
<polygon fill="#191970" stroke="#191970" points="496.5001,-138.7794 493,-128.7795 489.5001,-138.7795 496.5001,-138.7794"/>
</g>
<!-- Node8&#45;&gt;Node4 -->
<g id="edge11" class="edge">
<title>Node8&#45;&gt;Node4</title>
<path fill="none" stroke="#191970" d="M667.1467,-165.4179C668.8676,-158.1372 671.3419,-147.669 673.4935,-138.5659"/>
<polygon fill="#191970" stroke="#191970" points="676.9125,-139.3164 675.8067,-128.7795 670.1002,-137.7062 676.9125,-139.3164"/>
</g>
<!-- Node10 -->
<g id="node11" class="node">
<title>Node10</title>
<g id="a_node11"><a xlink:href="su3_8h.html" target="_top" xlink:title=" ">
<polygon fill="#ffffff" stroke="#000000" points="867.4878,-110.5 867.4878,-128.5 948.5122,-128.5 948.5122,-110.5 867.4878,-110.5"/>
<text text-anchor="middle" x="908" y="-116.5" font-family="Helvetica,sans-Serif" font-size="10.00" fill="#000000">matrices/su3.h</text>
</a>
</g>
</g>
<!-- Node9&#45;&gt;Node10 -->
<g id="edge13" class="edge">
<title>Node9&#45;&gt;Node10</title>
<path fill="none" stroke="#191970" d="M850.3939,-165.4179C860.7192,-157.1876 876.1547,-144.8839 888.4497,-135.0836"/>
<polygon fill="#191970" stroke="#191970" points="890.7204,-137.7495 896.3585,-128.7795 886.3571,-132.2757 890.7204,-137.7495"/>
</g>
<!-- Node11 -->
<g id="node12" class="node">
<title>Node11</title>
<g id="a_node12"><a xlink:href="complex_8h.html" target="_top" xlink:title=" ">
<polygon fill="#ffffff" stroke="#000000" points="795.707,-55.5 795.707,-73.5 882.293,-73.5 882.293,-55.5 795.707,-55.5"/>
<text text-anchor="middle" x="839" y="-61.5" font-family="Helvetica,sans-Serif" font-size="10.00" fill="#000000">math/complex.h</text>
</a>
</g>
</g>
<!-- Node9&#45;&gt;Node11 -->
<g id="edge18" class="edge">
<title>Node9&#45;&gt;Node11</title>
<path fill="none" stroke="#191970" d="M839,-165.4982C839,-147.6913 839,-107.6225 839,-83.6515"/>
<polygon fill="#191970" stroke="#191970" points="842.5001,-83.6261 839,-73.6261 835.5001,-83.6262 842.5001,-83.6261"/>
</g>
<!-- Node13 -->
<g id="node14" class="node">
<title>Node13</title>
<g id="a_node14"><a xlink:href="su2_8h.html" target="_top" xlink:title=" ">
<polygon fill="#ffffff" stroke="#000000" points="729.4878,-110.5 729.4878,-128.5 810.5122,-128.5 810.5122,-110.5 729.4878,-110.5"/>
<text text-anchor="middle" x="770" y="-116.5" font-family="Helvetica,sans-Serif" font-size="10.00" fill="#000000">matrices/su2.h</text>
</a>
</g>
</g>
<!-- Node9&#45;&gt;Node13 -->
<g id="edge16" class="edge">
<title>Node9&#45;&gt;Node13</title>
<path fill="none" stroke="#191970" d="M827.6061,-165.4179C817.2808,-157.1876 801.8453,-144.8839 789.5503,-135.0836"/>
<polygon fill="#191970" stroke="#191970" points="791.6429,-132.2757 781.6415,-128.7795 787.2796,-137.7495 791.6429,-132.2757"/>
</g>
<!-- Node10&#45;&gt;Node11 -->
<g id="edge14" class="edge">
<title>Node10&#45;&gt;Node11</title>
<path fill="none" stroke="#191970" d="M896.6061,-110.4179C886.2808,-102.1876 870.8453,-89.8839 858.5503,-80.0836"/>
<polygon fill="#191970" stroke="#191970" points="860.6429,-77.2757 850.6415,-73.7795 856.2796,-82.7495 860.6429,-77.2757"/>
</g>
<!-- Node12 -->
<g id="node13" class="node">
<title>Node12</title>
<g id="a_node13"><a xlink:title=" ">
<polygon fill="#ffffff" stroke="#bfbfbf" points="811.8276,-.5 811.8276,-18.5 866.1724,-18.5 866.1724,-.5 811.8276,-.5"/>
<text text-anchor="middle" x="839" y="-6.5" font-family="Helvetica,sans-Serif" font-size="10.00" fill="#000000">iostream</text>
</a>
</g>
</g>
<!-- Node11&#45;&gt;Node12 -->
<g id="edge15" class="edge">
<title>Node11&#45;&gt;Node12</title>
<path fill="none" stroke="#191970" d="M839,-55.4179C839,-48.2164 839,-37.8962 839,-28.8632"/>
<polygon fill="#191970" stroke="#191970" points="842.5001,-28.7794 839,-18.7795 835.5001,-28.7795 842.5001,-28.7794"/>
</g>
<!-- Node13&#45;&gt;Node11 -->
<g id="edge17" class="edge">
<title>Node13&#45;&gt;Node11</title>
<path fill="none" stroke="#191970" d="M781.3939,-110.4179C791.7192,-102.1876 807.1547,-89.8839 819.4497,-80.0836"/>
<polygon fill="#191970" stroke="#191970" points="821.7204,-82.7495 827.3585,-73.7795 817.3571,-77.2757 821.7204,-82.7495"/>
</g>
<!-- Node14&#45;&gt;Node1 -->
<g id="edge33" class="edge">
<title>Node14&#45;&gt;Node1</title>
<path fill="none" stroke="#191970" d="M558.2068,-403.7795C559.6791,-411.0373 560.0979,-421.3738 559.4632,-430.383"/>
<polygon fill="#191970" stroke="#191970" points="555.9769,-430.0517 558.1663,-440.4179 562.9192,-430.949 555.9769,-430.0517"/>
</g>
<!-- Node15 -->
<g id="node16" class="node">
<title>Node15</title>
<g id="a_node16"><a xlink:href="correlator_8h.html" target="_top" xlink:title=" ">
<polygon fill="#ffffff" stroke="#000000" points="347.9854,-275.5 347.9854,-293.5 414.0146,-293.5 414.0146,-275.5 347.9854,-275.5"/>
<text text-anchor="middle" x="381" y="-281.5" font-family="Helvetica,sans-Serif" font-size="10.00" fill="#000000">correlator.h</text>
</a>
</g>
</g>
<!-- Node14&#45;&gt;Node15 -->
<g id="edge20" class="edge">
<title>Node14&#45;&gt;Node15</title>
<path fill="none" stroke="#191970" d="M536.6589,-385.4297C520.7318,-376.4815 495.9241,-362.2566 475,-349 449.3091,-332.7234 420.5919,-312.7475 401.7379,-299.3778"/>
<polygon fill="#191970" stroke="#191970" points="403.7494,-296.5134 393.5735,-293.5636 399.6889,-302.2154 403.7494,-296.5134"/>
</g>
<!-- Node18 -->
<g id="node19" class="node">
<title>Node18</title>
<g id="a_node19"><a xlink:href="energydensity_8h.html" target="_top" xlink:title=" ">
<polygon fill="#ffffff" stroke="#000000" points="640.0684,-330.5 640.0684,-348.5 725.9316,-348.5 725.9316,-330.5 640.0684,-330.5"/>
<text text-anchor="middle" x="683" y="-336.5" font-family="Helvetica,sans-Serif" font-size="10.00" fill="#000000">energydensity.h</text>
</a>
</g>
</g>
<!-- Node14&#45;&gt;Node18 -->
<g id="edge26" class="edge">
<title>Node14&#45;&gt;Node18</title>
<path fill="none" stroke="#191970" d="M574.4669,-385.4179C595.637,-376.4613 628.2094,-362.6806 652.1498,-352.552"/>
<polygon fill="#191970" stroke="#191970" points="653.6553,-355.7155 661.5013,-348.5956 650.9278,-349.2687 653.6553,-355.7155"/>
</g>
<!-- Node19 -->
<g id="node20" class="node">
<title>Node19</title>
<g id="a_node20"><a xlink:href="plaquette_8h.html" target="_top" xlink:title=" ">
<polygon fill="#ffffff" stroke="#000000" points="242.2563,-330.5 242.2563,-348.5 307.7437,-348.5 307.7437,-330.5 242.2563,-330.5"/>
<text text-anchor="middle" x="275" y="-336.5" font-family="Helvetica,sans-Serif" font-size="10.00" fill="#000000">plaquette.h</text>
</a>
</g>
</g>
<!-- Node14&#45;&gt;Node19 -->
<g id="edge29" class="edge">
<title>Node14&#45;&gt;Node19</title>
<path fill="none" stroke="#191970" d="M503.6392,-385.4588C457.9762,-376.9878 387.9639,-363.7296 317.8803,-349.1353"/>
<polygon fill="#191970" stroke="#191970" points="318.498,-345.6889 307.9933,-347.0675 317.065,-352.5406 318.498,-345.6889"/>
</g>
<!-- Node20 -->
<g id="node21" class="node">
<title>Node20</title>
<g id="a_node21"><a xlink:href="topologicalcharge_8h.html" target="_top" xlink:title=" ">
<polygon fill="#ffffff" stroke="#000000" points="325.6357,-330.5 325.6357,-348.5 428.3643,-348.5 428.3643,-330.5 325.6357,-330.5"/>
<text text-anchor="middle" x="377" y="-336.5" font-family="Helvetica,sans-Serif" font-size="10.00" fill="#000000">topologicalcharge.h</text>
</a>
</g>
</g>
<!-- Node14&#45;&gt;Node20 -->
<g id="edge31" class="edge">
<title>Node14&#45;&gt;Node20</title>
<path fill="none" stroke="#191970" d="M523.9372,-385.4179C494.2959,-376.155 448.1439,-361.7325 415.4832,-351.526"/>
<polygon fill="#191970" stroke="#191970" points="416.4023,-348.1463 405.8135,-348.5042 414.3143,-354.8277 416.4023,-348.1463"/>
</g>
<!-- Node21 -->
<g id="node22" class="node">
<title>Node21</title>
<g id="a_node22"><a xlink:href="mastersamplertopcxyz_8h.html" target="_top" xlink:title=" ">
<polygon fill="#ffffff" stroke="#000000" points="845.8154,-330.5 845.8154,-348.5 970.1846,-348.5 970.1846,-330.5 845.8154,-330.5"/>
<text text-anchor="middle" x="908" y="-336.5" font-family="Helvetica,sans-Serif" font-size="10.00" fill="#000000">mastersamplertopcxyz.h</text>
</a>
</g>
</g>
<!-- Node14&#45;&gt;Node21 -->
<g id="edge34" class="edge">
<title>Node14&#45;&gt;Node21</title>
<path fill="none" stroke="#191970" d="M606.07,-385.4795C667.0861,-375.7108 767.424,-360.1518 835.5734,-349.8816"/>
<polygon fill="#191970" stroke="#191970" points="836.4361,-353.2913 845.8046,-348.3433 835.3953,-346.3691 836.4361,-353.2913"/>
</g>
<!-- Node22 -->
<g id="node23" class="node">
<title>Node22</title>
<g id="a_node23"><a xlink:href="latticeactionchargedensity_8h.html" target="_top" xlink:title=" ">
<polygon fill="#ffffff" stroke="#000000" points="483.6646,-330.5 483.6646,-348.5 622.3354,-348.5 622.3354,-330.5 483.6646,-330.5"/>
<text text-anchor="middle" x="553" y="-336.5" font-family="Helvetica,sans-Serif" font-size="10.00" fill="#000000">latticeactionchargedensity.h</text>
</a>
</g>
</g>
<!-- Node14&#45;&gt;Node22 -->
<g id="edge37" class="edge">
<title>Node14&#45;&gt;Node22</title>
<path fill="none" stroke="#191970" d="M547.8337,-385.4179C546.3421,-378.2164 545.9042,-367.8962 546.5198,-358.8632"/>
<polygon fill="#191970" stroke="#191970" points="550.0126,-359.1392 547.7932,-348.7795 543.0678,-358.2621 550.0126,-359.1392"/>
</g>
<!-- Node23 -->
<g id="node24" class="node">
<title>Node23</title>
<g id="a_node24"><a xlink:href="supersampler_8h.html" target="_top" xlink:title=" ">
<polygon fill="#ffffff" stroke="#000000" points="743.813,-330.5 743.813,-348.5 828.187,-348.5 828.187,-330.5 743.813,-330.5"/>
<text text-anchor="middle" x="786" y="-336.5" font-family="Helvetica,sans-Serif" font-size="10.00" fill="#000000">supersampler.h</text>
</a>
</g>
</g>
<!-- Node14&#45;&gt;Node23 -->
<g id="edge40" class="edge">
<title>Node14&#45;&gt;Node23</title>
<path fill="none" stroke="#191970" d="M586.3089,-385.4179C624.8252,-375.8587 688.4766,-360.8045 733.6097,-350.5598"/>
<polygon fill="#191970" stroke="#191970" points="734.5305,-353.9401 743.5133,-348.3224 732.9879,-347.1122 734.5305,-353.9401"/>
</g>
<!-- Node15&#45;&gt;Node2 -->
<g id="edge21" class="edge">
<title>Node15&#45;&gt;Node2</title>
<path fill="none" stroke="#191970" d="M414.2581,-275.6633C449.4031,-266.3253 505.0075,-251.5511 543.816,-241.2397"/>
<polygon fill="#191970" stroke="#191970" points="545.0251,-244.54 553.791,-238.5894 543.2275,-237.7747 545.0251,-244.54"/>
</g>
<!-- Node15&#45;&gt;Node3 -->
<g id="edge25" class="edge">
<title>Node15&#45;&gt;Node3</title>
<path fill="none" stroke="#191970" d="M379.7165,-275.1987C376.3711,-253.7992 365.7156,-200.2139 339,-165 329.2187,-152.1073 314.7255,-141.4653 301.9051,-133.7236"/>
<polygon fill="#191970" stroke="#191970" points="303.3756,-130.5327 292.9569,-128.6083 299.9015,-136.6098 303.3756,-130.5327"/>
</g>
<!-- Node16 -->
<g id="node17" class="node">
<title>Node16</title>
<g id="a_node17"><a xlink:href="observablestorer_8h.html" target="_top" xlink:title=" ">
<polygon fill="#ffffff" stroke="#000000" points="128.9116,-220.5 128.9116,-238.5 251.0884,-238.5 251.0884,-220.5 128.9116,-220.5"/>
<text text-anchor="middle" x="190" y="-226.5" font-family="Helvetica,sans-Serif" font-size="10.00" fill="#000000">tools/observablestorer.h</text>
</a>
</g>
</g>
<!-- Node15&#45;&gt;Node16 -->
<g id="edge22" class="edge">
<title>Node15&#45;&gt;Node16</title>
<path fill="none" stroke="#191970" d="M349.4602,-275.4179C317.1541,-266.115 266.7752,-251.608 231.3055,-241.3943"/>
<polygon fill="#191970" stroke="#191970" points="231.8472,-237.9081 221.2692,-238.5042 229.9102,-244.6348 231.8472,-237.9081"/>
</g>
<!-- Node16&#45;&gt;Node3 -->
<g id="edge24" class="edge">
<title>Node16&#45;&gt;Node3</title>
<path fill="none" stroke="#191970" d="M190.7865,-220.3324C192.3244,-207.0182 196.7351,-182.0617 209,-165 218.3813,-151.9497 232.7138,-141.3435 245.5354,-133.6646"/>
<polygon fill="#191970" stroke="#191970" points="247.5242,-136.5611 254.512,-128.5974 244.0831,-130.4653 247.5242,-136.5611"/>
</g>
<!-- Node17 -->
<g id="node18" class="node">
<title>Node17</title>
<g id="a_node18"><a xlink:title=" ">
<polygon fill="#ffffff" stroke="#bfbfbf" points="93.7734,-165.5 93.7734,-183.5 134.2266,-183.5 134.2266,-165.5 93.7734,-165.5"/>
<text text-anchor="middle" x="114" y="-171.5" font-family="Helvetica,sans-Serif" font-size="10.00" fill="#000000">string</text>
</a>
</g>
</g>
<!-- Node16&#45;&gt;Node17 -->
<g id="edge23" class="edge">
<title>Node16&#45;&gt;Node17</title>
<path fill="none" stroke="#191970" d="M177.4501,-220.4179C165.8989,-212.0584 148.5408,-199.4966 134.8985,-189.6239"/>
<polygon fill="#191970" stroke="#191970" points="136.7216,-186.6229 126.5685,-183.5956 132.6177,-192.2938 136.7216,-186.6229"/>
</g>
<!-- Node18&#45;&gt;Node9 -->
<g id="edge28" class="edge">
<title>Node18&#45;&gt;Node9</title>
<path fill="none" stroke="#191970" d="M685.7287,-330.4412C690.0091,-317.2626 699.2579,-292.4734 713,-275 742.0612,-238.0482 787.2465,-206.3121 814.8753,-188.8611"/>
<polygon fill="#191970" stroke="#191970" points="816.8656,-191.7454 823.5233,-183.5037 813.1792,-185.7947 816.8656,-191.7454"/>
</g>
<!-- Node18&#45;&gt;Node15 -->
<g id="edge27" class="edge">
<title>Node18&#45;&gt;Node15</title>
<path fill="none" stroke="#191970" d="M639.8702,-331.6182C636.8684,-331.0704 633.8891,-330.5268 631,-330 558.4726,-316.7749 474.1025,-301.4272 424.2573,-292.3638"/>
<polygon fill="#191970" stroke="#191970" points="424.6264,-288.8736 414.1616,-290.5281 423.3742,-295.7606 424.6264,-288.8736"/>
</g>
<!-- Node19&#45;&gt;Node15 -->
<g id="edge30" class="edge">
<title>Node19&#45;&gt;Node15</title>
<path fill="none" stroke="#191970" d="M292.5037,-330.4179C309.382,-321.6603 335.1488,-308.2907 354.5336,-298.2326"/>
<polygon fill="#191970" stroke="#191970" points="356.2059,-301.308 363.4703,-293.5956 352.982,-295.0946 356.2059,-301.308"/>
</g>
<!-- Node20&#45;&gt;Node15 -->
<g id="edge32" class="edge">
<title>Node20&#45;&gt;Node15</title>
<path fill="none" stroke="#191970" d="M377.6605,-330.4179C378.1843,-323.2164 378.9348,-312.8962 379.5918,-303.8632"/>
<polygon fill="#191970" stroke="#191970" points="383.0905,-304.007 380.3251,-293.7795 376.1089,-303.4992 383.0905,-304.007"/>
</g>
<!-- Node21&#45;&gt;Node2 -->
<g id="edge35" class="edge">
<title>Node21&#45;&gt;Node2</title>
<path fill="none" stroke="#191970" d="M893.9211,-330.4856C871.7782,-316.6769 827.0933,-290.2852 786,-275 736.325,-256.5228 676.7471,-244.0603 636.0068,-236.9177"/>
<polygon fill="#191970" stroke="#191970" points="636.5199,-233.4547 626.0725,-235.216 635.338,-240.3542 636.5199,-233.4547"/>
</g>
<!-- Node21&#45;&gt;Node14 -->
<g id="edge36" class="edge">
<title>Node21&#45;&gt;Node14</title>
<path fill="none" stroke="#191970" d="M854.8992,-348.5255C794.2322,-358.2381 694.7204,-373.6707 626.6088,-383.9402"/>
<polygon fill="#191970" stroke="#191970" points="625.7451,-380.5307 616.377,-385.4795 626.7865,-387.4528 625.7451,-380.5307"/>
</g>
<!-- Node22&#45;&gt;Node2 -->
<g id="edge38" class="edge">
<title>Node22&#45;&gt;Node2</title>
<path fill="none" stroke="#191970" d="M555.8642,-330.4982C561.5557,-312.6108 574.3947,-272.2594 582.0096,-248.3271"/>
<polygon fill="#191970" stroke="#191970" points="585.3994,-249.2166 585.0962,-238.6261 578.7289,-247.0942 585.3994,-249.2166"/>
</g>
<!-- Node22&#45;&gt;Node14 -->
<g id="edge39" class="edge">
<title>Node22&#45;&gt;Node14</title>
<path fill="none" stroke="#191970" d="M558.2068,-348.7795C559.6791,-356.0373 560.0979,-366.3738 559.4632,-375.383"/>
<polygon fill="#191970" stroke="#191970" points="555.9769,-375.0517 558.1663,-385.4179 562.9192,-375.949 555.9769,-375.0517"/>
</g>
<!-- Node23&#45;&gt;Node2 -->
<g id="edge41" class="edge">
<title>Node23&#45;&gt;Node2</title>
<path fill="none" stroke="#191970" d="M785.991,-330.142C785.4501,-316.1211 782.3026,-289.7385 767,-275 748.4276,-257.1123 682.5376,-243.7414 636.1168,-236.2724"/>
<polygon fill="#191970" stroke="#191970" points="636.3685,-232.7692 625.9474,-234.6796 635.2853,-239.6849 636.3685,-232.7692"/>
</g>
<!-- Node23&#45;&gt;Node14 -->
<g id="edge42" class="edge">
<title>Node23&#45;&gt;Node14</title>
<path fill="none" stroke="#191970" d="M752.9194,-348.5255C714.6804,-358.0187 651.4529,-372.9765 606.287,-383.2365"/>
<polygon fill="#191970" stroke="#191970" points="605.3496,-379.8601 596.3678,-385.4795 606.8935,-386.6877 605.3496,-379.8601"/>
</g>
<!-- Node24 -->
<g id="node25" class="node">
<title>Node24</title>
<g id="a_node25"><a xlink:title=" ">
<polygon fill="#ffffff" stroke="#bfbfbf" points="722.2734,-275.5 722.2734,-293.5 757.7266,-293.5 757.7266,-275.5 722.2734,-275.5"/>
<text text-anchor="middle" x="740" y="-281.5" font-family="Helvetica,sans-Serif" font-size="10.00" fill="#000000">map</text>
</a>
</g>
</g>
<!-- Node23&#45;&gt;Node24 -->
<g id="edge43" class="edge">
<title>Node23&#45;&gt;Node24</title>
<path fill="none" stroke="#191970" d="M778.404,-330.4179C771.8515,-322.5833 762.2118,-311.0575 754.2296,-301.5137"/>
<polygon fill="#191970" stroke="#191970" points="756.8614,-299.2048 747.761,-293.7795 751.4918,-303.6957 756.8614,-299.2048"/>
</g>
<!-- Node26&#45;&gt;Node2 -->
<g id="edge47" class="edge">
<title>Node26&#45;&gt;Node2</title>
<path fill="none" stroke="#191970" d="M246.08,-275.4795C328.7009,-264.3691 467.0205,-245.7686 539.8279,-235.9779"/>
<polygon fill="#191970" stroke="#191970" points="540.6358,-239.4009 550.0801,-234.5992 539.7029,-232.4633 540.6358,-239.4009"/>
</g>
<!-- Node26&#45;&gt;Node3 -->
<g id="edge46" class="edge">
<title>Node26&#45;&gt;Node3</title>
<path fill="none" stroke="#191970" d="M161.9961,-275.3512C126.9497,-255.3358 52.5749,-206.1575 85,-165 104.2151,-140.6101 193.4453,-127.7754 242.118,-122.4851"/>
<polygon fill="#191970" stroke="#191970" points="242.5502,-125.9591 252.1333,-121.4408 241.8243,-118.9968 242.5502,-125.9591"/>
</g>
<!-- Node27&#45;&gt;Node3 -->
<g id="edge50" class="edge">
<title>Node27&#45;&gt;Node3</title>
<path fill="none" stroke="#191970" d="M136.5579,-440.4289C94.7394,-419.4203 0,-363.1468 0,-284.5 0,-284.5 0,-284.5 0,-229.5 0,-185.8714 35.1081,-184.7706 74,-165 128.9278,-137.0776 200.9766,-126.1143 241.9061,-121.941"/>
<polygon fill="#191970" stroke="#191970" points="242.4725,-125.4031 252.0987,-120.9776 241.8137,-118.4342 242.4725,-125.4031"/>
</g>
<!-- Node27&#45;&gt;Node17 -->
<g id="edge49" class="edge">
<title>Node27&#45;&gt;Node17</title>
<path fill="none" stroke="#191970" d="M142.2346,-440.4538C130.495,-432.1518 113.8436,-418.9062 103,-404 84.7184,-378.8692 76,-370.577 76,-339.5 76,-339.5 76,-339.5 76,-284.5 76,-250.4876 92.4315,-213.6418 103.6845,-192.3963"/>
<polygon fill="#191970" stroke="#191970" points="106.7984,-193.9975 108.5555,-183.5493 100.6664,-190.6213 106.7984,-193.9975"/>
</g>
<!-- Node28 -->
<g id="node29" class="node">
<title>Node28</title>
<g id="a_node29"><a xlink:href="sysprint_8h.html" target="_top" xlink:title=" ">
<polygon fill="#ffffff" stroke="#000000" points="111.8721,-385.5 111.8721,-403.5 200.1279,-403.5 200.1279,-385.5 111.8721,-385.5"/>
<text text-anchor="middle" x="156" y="-391.5" font-family="Helvetica,sans-Serif" font-size="10.00" fill="#000000">config/sysprint.h</text>
</a>
</g>
</g>
<!-- Node27&#45;&gt;Node28 -->
<g id="edge51" class="edge">
<title>Node27&#45;&gt;Node28</title>
<path fill="none" stroke="#191970" d="M150.8337,-440.4179C149.3421,-433.2164 148.9042,-422.8962 149.5198,-413.8632"/>
<polygon fill="#191970" stroke="#191970" points="153.0126,-414.1392 150.7932,-403.7795 146.0678,-413.2621 153.0126,-414.1392"/>
</g>
<!-- Node28&#45;&gt;Node27 -->
<g id="edge52" class="edge">
<title>Node28&#45;&gt;Node27</title>
<path fill="none" stroke="#191970" d="M161.2068,-403.7795C162.6791,-411.0373 163.0979,-421.3738 162.4632,-430.383"/>
<polygon fill="#191970" stroke="#191970" points="158.9769,-430.0517 161.1663,-440.4179 165.9192,-430.949 158.9769,-430.0517"/>
</g>
<!-- Node29 -->
<g id="node30" class="node">
<title>Node29</title>
<g id="a_node30"><a xlink:href="parallel_8h.html" target="_top" xlink:title=" ">
<polygon fill="#ffffff" stroke="#000000" points="103.7466,-330.5 103.7466,-348.5 224.2534,-348.5 224.2534,-330.5 103.7466,-330.5"/>
<text text-anchor="middle" x="164" y="-336.5" font-family="Helvetica,sans-Serif" font-size="10.00" fill="#000000">parallelization/parallel.h</text>
</a>
</g>
</g>
<!-- Node28&#45;&gt;Node29 -->
<g id="edge53" class="edge">
<title>Node28&#45;&gt;Node29</title>
<path fill="none" stroke="#191970" d="M157.321,-385.4179C158.3685,-378.2164 159.8696,-367.8962 161.1835,-358.8632"/>
<polygon fill="#191970" stroke="#191970" points="164.6743,-359.1791 162.6503,-348.7795 157.7472,-358.1715 164.6743,-359.1791"/>
</g>
<!-- Node29&#45;&gt;Node5 -->
<g id="edge55" class="edge">
<title>Node29&#45;&gt;Node5</title>
<path fill="none" stroke="#191970" d="M206.5256,-330.4721C226.9377,-323.8693 249.7778,-312.6827 263,-294 284.0831,-264.21 281.4637,-219.2364 277.708,-193.8066"/>
<polygon fill="#191970" stroke="#191970" points="281.104,-192.8979 275.9834,-183.6227 274.2022,-194.0667 281.104,-192.8979"/>
</g>
<!-- Node29&#45;&gt;Node8 -->
<g id="edge56" class="edge">
<title>Node29&#45;&gt;Node8</title>
<path fill="none" stroke="#191970" d="M187.3506,-330.4357C220.7677,-317.5686 284.2476,-293.5146 339,-275 440.7748,-240.5847 562.0033,-204.4804 624.0133,-186.3611"/>
<polygon fill="#191970" stroke="#191970" points="625.1851,-189.6652 633.8054,-183.5056 623.2254,-182.9451 625.1851,-189.6652"/>
</g>
<!-- Node29&#45;&gt;Node26 -->
<g id="edge54" class="edge">
<title>Node29&#45;&gt;Node26</title>
<path fill="none" stroke="#191970" d="M166.4769,-330.4179C168.4626,-323.1372 171.3176,-312.669 173.8002,-303.5659"/>
<polygon fill="#191970" stroke="#191970" points="177.2147,-304.348 176.4692,-293.7795 170.4613,-302.5062 177.2147,-304.348"/>
</g>
</g>
</svg>
