<?xml version="1.0" encoding="UTF-8" standalone="no"?>
<!DOCTYPE svg PUBLIC "-//W3C//DTD SVG 1.1//EN"
 "http://www.w3.org/Graphics/SVG/1.1/DTD/svg11.dtd">
<!-- Generated by graphviz version 2.40.1 (20161225.0304)
 -->
<!-- Title: GluonicLQCD/observables/mastersampler.cpp Pages: 1 -->
<svg width="1159pt" height="532pt"
 viewBox="0.00 0.00 1159.13 532.00" xmlns="http://www.w3.org/2000/svg" xmlns:xlink="http://www.w3.org/1999/xlink">
<g id="graph0" class="graph" transform="scale(1 1) rotate(0) translate(4 528)">
<title>GluonicLQCD/observables/mastersampler.cpp</title>
<polygon fill="#ffffff" stroke="transparent" points="-4,4 -4,-528 1155.1279,-528 1155.1279,4 -4,4"/>
<!-- Node0 -->
<g id="node1" class="node">
<title>Node0</title>
<g id="a_node1"><a xlink:title=" ">
<polygon fill="#bfbfbf" stroke="#000000" points="986.3179,-495.5 986.3179,-523.5 1120.7065,-523.5 1120.7065,-495.5 986.3179,-495.5"/>
<text text-anchor="start" x="994.3179" y="-511.5" font-family="Helvetica,sans-Serif" font-size="10.00" fill="#000000">GluonicLQCD/observables</text>
<text text-anchor="middle" x="1053.5122" y="-501.5" font-family="Helvetica,sans-Serif" font-size="10.00" fill="#000000">/mastersampler.cpp</text>
</a>
</g>
</g>
<!-- Node1 -->
<g id="node2" class="node">
<title>Node1</title>
<g id="a_node2"><a xlink:href="mastersampler_8h.html" target="_top" xlink:title=" ">
<polygon fill="#ffffff" stroke="#000000" points="646.5518,-440.5 646.5518,-458.5 736.4727,-458.5 736.4727,-440.5 646.5518,-440.5"/>
<text text-anchor="middle" x="691.5122" y="-446.5" font-family="Helvetica,sans-Serif" font-size="10.00" fill="#000000">mastersampler.h</text>
</a>
</g>
</g>
<!-- Node0&#45;&gt;Node1 -->
<g id="edge1" class="edge">
<title>Node0&#45;&gt;Node1</title>
<path fill="none" stroke="#191970" d="M986.2712,-498.3551C917.1769,-486.903 810.8891,-469.2862 746.6014,-458.6308"/>
<polygon fill="#191970" stroke="#191970" points="747.0941,-455.1648 736.6563,-456.9825 745.9494,-462.0706 747.0941,-455.1648"/>
</g>
<!-- Node25 -->
<g id="node26" class="node">
<title>Node25</title>
<g id="a_node26"><a xlink:title=" ">
<polygon fill="#ffffff" stroke="#bfbfbf" points="1107.8965,-440.5 1107.8965,-458.5 1151.1279,-458.5 1151.1279,-440.5 1107.8965,-440.5"/>
<text text-anchor="middle" x="1129.5122" y="-446.5" font-family="Helvetica,sans-Serif" font-size="10.00" fill="#000000">cmath</text>
</a>
</g>
</g>
<!-- Node0&#45;&gt;Node25 -->
<g id="edge44" class="edge">
<title>Node0&#45;&gt;Node25</title>
<path fill="none" stroke="#191970" d="M1071.5231,-495.2808C1083.1087,-486.1344 1098.1597,-474.252 1110.0244,-464.8851"/>
<polygon fill="#191970" stroke="#191970" points="1112.3255,-467.5278 1118.0056,-458.5842 1107.988,-462.0336 1112.3255,-467.5278"/>
</g>
<!-- Node26 -->
<g id="node27" class="node">
<title>Node26</title>
<g id="a_node27"><a xlink:href="communicator_8h.html" target="_top" xlink:title=" ">
<polygon fill="#ffffff" stroke="#000000" points="901.2539,-275.5 901.2539,-293.5 1051.7705,-293.5 1051.7705,-275.5 901.2539,-275.5"/>
<text text-anchor="middle" x="976.5122" y="-281.5" font-family="Helvetica,sans-Serif" font-size="10.00" fill="#000000">parallelization/communicator.h</text>
</a>
</g>
</g>
<!-- Node0&#45;&gt;Node26 -->
<g id="edge45" class="edge">
<title>Node0&#45;&gt;Node26</title>
<path fill="none" stroke="#191970" d="M1048.6955,-495.4252C1035.3732,-456.4964 998.0238,-347.3585 982.9457,-303.2991"/>
<polygon fill="#191970" stroke="#191970" points="986.2456,-302.1319 979.6962,-293.8039 979.6227,-304.3984 986.2456,-302.1319"/>
</g>
<!-- Node27 -->
<g id="node28" class="node">
<title>Node27</title>
<g id="a_node28"><a xlink:href="parameters_8h.html" target="_top" xlink:title=" ">
<polygon fill="#ffffff" stroke="#000000" points="906.3228,-220.5 906.3228,-238.5 1010.7017,-238.5 1010.7017,-220.5 906.3228,-220.5"/>
<text text-anchor="middle" x="958.5122" y="-226.5" font-family="Helvetica,sans-Serif" font-size="10.00" fill="#000000">config/parameters.h</text>
</a>
</g>
</g>
<!-- Node0&#45;&gt;Node27 -->
<g id="edge48" class="edge">
<title>Node0&#45;&gt;Node27</title>
<path fill="none" stroke="#191970" d="M1058.8994,-495.2118C1066.515,-473.6962 1079.5122,-431.5492 1079.5122,-394.5 1079.5122,-394.5 1079.5122,-394.5 1079.5122,-339.5 1079.5122,-309.6154 1080.1915,-297.4902 1060.5122,-275 1046.8117,-259.3426 1026.6776,-248.8172 1007.9096,-241.8724"/>
<polygon fill="#191970" stroke="#191970" points="1008.8556,-238.4967 998.2609,-238.5589 1006.5819,-245.1172 1008.8556,-238.4967"/>
</g>
<!-- Node2 -->
<g id="node3" class="node">
<title>Node2</title>
<g id="a_node3"><a xlink:href="lattice_8h.html" target="_top" xlink:title=" ">
<polygon fill="#ffffff" stroke="#000000" points="433.7759,-220.5 433.7759,-238.5 509.2485,-238.5 509.2485,-220.5 433.7759,-220.5"/>
<text text-anchor="middle" x="471.5122" y="-226.5" font-family="Helvetica,sans-Serif" font-size="10.00" fill="#000000">math/lattice.h</text>
</a>
</g>
</g>
<!-- Node1&#45;&gt;Node2 -->
<g id="edge2" class="edge">
<title>Node1&#45;&gt;Node2</title>
<path fill="none" stroke="#191970" d="M721.1733,-440.4184C768.7774,-424.0214 854.7552,-385.9027 832.5122,-330 820.0755,-298.7433 810.3537,-290.5287 780.5122,-275 736.0647,-251.8707 594.7567,-238.4235 519.5999,-232.7331"/>
<polygon fill="#191970" stroke="#191970" points="519.6822,-229.2297 509.451,-231.9814 519.1651,-236.2106 519.6822,-229.2297"/>
</g>
<!-- Node14 -->
<g id="node15" class="node">
<title>Node14</title>
<g id="a_node15"><a xlink:href="observables_8h.html" target="_top" xlink:title=" ">
<polygon fill="#ffffff" stroke="#000000" points="442.0322,-385.5 442.0322,-403.5 576.9922,-403.5 576.9922,-385.5 442.0322,-385.5"/>
<text text-anchor="middle" x="509.5122" y="-391.5" font-family="Helvetica,sans-Serif" font-size="10.00" fill="#000000">observables/observables.h</text>
</a>
</g>
</g>
<!-- Node1&#45;&gt;Node14 -->
<g id="edge19" class="edge">
<title>Node1&#45;&gt;Node14</title>
<path fill="none" stroke="#191970" d="M656.2923,-440.4179C623.8624,-431.1949 576.2339,-416.8567 544.0321,-406.6582"/>
<polygon fill="#191970" stroke="#191970" points="544.7487,-403.213 534.1578,-403.5042 542.6187,-409.881 544.7487,-403.213"/>
</g>
<!-- Node3 -->
<g id="node4" class="node">
<title>Node3</title>
<g id="a_node4"><a xlink:title=" ">
<polygon fill="#ffffff" stroke="#bfbfbf" points="729.8965,-110.5 729.8965,-128.5 773.1279,-128.5 773.1279,-110.5 729.8965,-110.5"/>
<text text-anchor="middle" x="751.5122" y="-116.5" font-family="Helvetica,sans-Serif" font-size="10.00" fill="#000000">vector</text>
</a>
</g>
</g>
<!-- Node2&#45;&gt;Node3 -->
<g id="edge3" class="edge">
<title>Node2&#45;&gt;Node3</title>
<path fill="none" stroke="#191970" d="M509.2904,-224.7423C564.3508,-217.3164 663.4684,-201.9464 694.5122,-184 714.0399,-172.711 730.3553,-152.312 740.458,-137.4699"/>
<polygon fill="#191970" stroke="#191970" points="743.6611,-138.9637 746.1711,-128.6705 737.79,-135.1518 743.6611,-138.9637"/>
</g>
<!-- Node4 -->
<g id="node5" class="node">
<title>Node4</title>
<g id="a_node5"><a xlink:title=" ">
<polygon fill="#ffffff" stroke="#bfbfbf" points="312.2856,-110.5 312.2856,-128.5 352.7388,-128.5 352.7388,-110.5 312.2856,-110.5"/>
<text text-anchor="middle" x="332.5122" y="-116.5" font-family="Helvetica,sans-Serif" font-size="10.00" fill="#000000">mpi.h</text>
</a>
</g>
</g>
<!-- Node2&#45;&gt;Node4 -->
<g id="edge4" class="edge">
<title>Node2&#45;&gt;Node4</title>
<path fill="none" stroke="#191970" d="M458.2607,-220.3816C445.3573,-211.3978 425.2921,-197.1473 408.5122,-184 388.0532,-167.9701 365.4417,-148.549 350.245,-135.2329"/>
<polygon fill="#191970" stroke="#191970" points="352.444,-132.5057 342.626,-128.5235 347.8178,-137.7591 352.444,-132.5057"/>
</g>
<!-- Node5 -->
<g id="node6" class="node">
<title>Node5</title>
<g id="a_node6"><a xlink:href="index_8h.html" target="_top" xlink:title=" ">
<polygon fill="#ffffff" stroke="#000000" points="573.4263,-165.5 573.4263,-183.5 685.5981,-183.5 685.5981,-165.5 573.4263,-165.5"/>
<text text-anchor="middle" x="629.5122" y="-171.5" font-family="Helvetica,sans-Serif" font-size="10.00" fill="#000000">parallelization/index.h</text>
</a>
</g>
</g>
<!-- Node2&#45;&gt;Node5 -->
<g id="edge5" class="edge">
<title>Node2&#45;&gt;Node5</title>
<path fill="none" stroke="#191970" d="M497.6027,-220.4179C523.8684,-211.2748 564.5754,-197.1046 593.8213,-186.924"/>
<polygon fill="#191970" stroke="#191970" points="595.3521,-190.0973 603.6456,-183.5042 593.0507,-183.4863 595.3521,-190.0973"/>
</g>
<!-- Node6 -->
<g id="node7" class="node">
<title>Node6</title>
<g id="a_node7"><a xlink:href="neighbours_8h.html" target="_top" xlink:title=" ">
<polygon fill="#ffffff" stroke="#000000" points="417.6382,-165.5 417.6382,-183.5 555.3862,-183.5 555.3862,-165.5 417.6382,-165.5"/>
<text text-anchor="middle" x="486.5122" y="-171.5" font-family="Helvetica,sans-Serif" font-size="10.00" fill="#000000">parallelization/neighbours.h</text>
</a>
</g>
</g>
<!-- Node2&#45;&gt;Node6 -->
<g id="edge7" class="edge">
<title>Node2&#45;&gt;Node6</title>
<path fill="none" stroke="#191970" d="M473.9892,-220.4179C475.9748,-213.1372 478.8298,-202.669 481.3124,-193.5659"/>
<polygon fill="#191970" stroke="#191970" points="484.7269,-194.348 483.9814,-183.7795 477.9735,-192.5062 484.7269,-194.348"/>
</g>
<!-- Node8 -->
<g id="node9" class="node">
<title>Node8</title>
<g id="a_node9"><a xlink:href="parallelparameters_8h.html" target="_top" xlink:title=" ">
<polygon fill="#ffffff" stroke="#000000" points="189.9707,-165.5 189.9707,-183.5 361.0537,-183.5 361.0537,-165.5 189.9707,-165.5"/>
<text text-anchor="middle" x="275.5122" y="-171.5" font-family="Helvetica,sans-Serif" font-size="10.00" fill="#000000">parallelization/parallelparameters.h</text>
</a>
</g>
</g>
<!-- Node2&#45;&gt;Node8 -->
<g id="edge10" class="edge">
<title>Node2&#45;&gt;Node8</title>
<path fill="none" stroke="#191970" d="M439.1468,-220.4179C405.8526,-211.0751 353.8531,-196.4834 317.4312,-186.263"/>
<polygon fill="#191970" stroke="#191970" points="318.1737,-182.8362 307.5999,-183.5042 316.2824,-189.5759 318.1737,-182.8362"/>
</g>
<!-- Node9 -->
<g id="node10" class="node">
<title>Node9</title>
<g id="a_node10"><a xlink:href="functions_8h.html" target="_top" xlink:title=" ">
<polygon fill="#ffffff" stroke="#000000" points="107.3301,-165.5 107.3301,-183.5 171.6943,-183.5 171.6943,-165.5 107.3301,-165.5"/>
<text text-anchor="middle" x="139.5122" y="-171.5" font-family="Helvetica,sans-Serif" font-size="10.00" fill="#000000">functions.h</text>
</a>
</g>
</g>
<!-- Node2&#45;&gt;Node9 -->
<g id="edge12" class="edge">
<title>Node2&#45;&gt;Node9</title>
<path fill="none" stroke="#191970" d="M433.6906,-224.4801C379.8785,-217.1426 277.933,-202.522 182.0007,-184.1872"/>
<polygon fill="#191970" stroke="#191970" points="182.6222,-180.7426 172.1403,-182.2851 181.2963,-187.6159 182.6222,-180.7426"/>
</g>
<!-- Node5&#45;&gt;Node3 -->
<g id="edge6" class="edge">
<title>Node5&#45;&gt;Node3</title>
<path fill="none" stroke="#191970" d="M649.658,-165.4179C669.3488,-156.5409 699.5507,-142.9253 721.9595,-132.823"/>
<polygon fill="#191970" stroke="#191970" points="723.6585,-135.8963 731.3365,-128.5956 720.7816,-129.5148 723.6585,-135.8963"/>
</g>
<!-- Node6&#45;&gt;Node3 -->
<g id="edge9" class="edge">
<title>Node6&#45;&gt;Node3</title>
<path fill="none" stroke="#191970" d="M529.9748,-165.4795C583.3507,-154.4014 672.6049,-135.877 719.8869,-126.0637"/>
<polygon fill="#191970" stroke="#191970" points="720.7808,-129.4529 729.8608,-123.9937 719.3582,-122.599 720.7808,-129.4529"/>
</g>
<!-- Node7 -->
<g id="node8" class="node">
<title>Node7</title>
<g id="a_node8"><a xlink:href="neighbourlist_8h.html" target="_top" xlink:title=" ">
<polygon fill="#ffffff" stroke="#000000" points="445.9902,-110.5 445.9902,-128.5 527.0342,-128.5 527.0342,-110.5 445.9902,-110.5"/>
<text text-anchor="middle" x="486.5122" y="-116.5" font-family="Helvetica,sans-Serif" font-size="10.00" fill="#000000">neighbourlist.h</text>
</a>
</g>
</g>
<!-- Node6&#45;&gt;Node7 -->
<g id="edge8" class="edge">
<title>Node6&#45;&gt;Node7</title>
<path fill="none" stroke="#191970" d="M486.5122,-165.4179C486.5122,-158.2164 486.5122,-147.8962 486.5122,-138.8632"/>
<polygon fill="#191970" stroke="#191970" points="490.0123,-138.7794 486.5122,-128.7795 483.0123,-138.7795 490.0123,-138.7794"/>
</g>
<!-- Node8&#45;&gt;Node4 -->
<g id="edge11" class="edge">
<title>Node8&#45;&gt;Node4</title>
<path fill="none" stroke="#191970" d="M284.9246,-165.4179C293.2081,-157.425 305.4731,-145.5903 315.4767,-135.9377"/>
<polygon fill="#191970" stroke="#191970" points="318.1294,-138.2419 322.8953,-128.7795 313.2688,-133.2045 318.1294,-138.2419"/>
</g>
<!-- Node10 -->
<g id="node11" class="node">
<title>Node10</title>
<g id="a_node11"><a xlink:href="su3_8h.html" target="_top" xlink:title=" ">
<polygon fill="#ffffff" stroke="#000000" points="0,-110.5 0,-128.5 81.0244,-128.5 81.0244,-110.5 0,-110.5"/>
<text text-anchor="middle" x="40.5122" y="-116.5" font-family="Helvetica,sans-Serif" font-size="10.00" fill="#000000">matrices/su3.h</text>
</a>
</g>
</g>
<!-- Node9&#45;&gt;Node10 -->
<g id="edge13" class="edge">
<title>Node9&#45;&gt;Node10</title>
<path fill="none" stroke="#191970" d="M123.1644,-165.4179C107.5441,-156.7399 83.7724,-143.5334 65.726,-133.5077"/>
<polygon fill="#191970" stroke="#191970" points="67.3257,-130.3925 56.8843,-128.5956 63.9261,-136.5117 67.3257,-130.3925"/>
</g>
<!-- Node11 -->
<g id="node12" class="node">
<title>Node11</title>
<g id="a_node12"><a xlink:href="complex_8h.html" target="_top" xlink:title=" ">
<polygon fill="#ffffff" stroke="#000000" points="96.2192,-55.5 96.2192,-73.5 182.8052,-73.5 182.8052,-55.5 96.2192,-55.5"/>
<text text-anchor="middle" x="139.5122" y="-61.5" font-family="Helvetica,sans-Serif" font-size="10.00" fill="#000000">math/complex.h</text>
</a>
</g>
</g>
<!-- Node9&#45;&gt;Node11 -->
<g id="edge18" class="edge">
<title>Node9&#45;&gt;Node11</title>
<path fill="none" stroke="#191970" d="M155.3119,-165.4232C173.4077,-153.7435 199.3655,-132.2889 189.5122,-110 184.0994,-97.7558 173.584,-87.3899 163.5875,-79.6592"/>
<polygon fill="#191970" stroke="#191970" points="165.5992,-76.7949 155.4359,-73.8019 161.5145,-82.4796 165.5992,-76.7949"/>
</g>
<!-- Node13 -->
<g id="node14" class="node">
<title>Node13</title>
<g id="a_node14"><a xlink:href="su2_8h.html" target="_top" xlink:title=" ">
<polygon fill="#ffffff" stroke="#000000" points="99,-110.5 99,-128.5 180.0244,-128.5 180.0244,-110.5 99,-110.5"/>
<text text-anchor="middle" x="139.5122" y="-116.5" font-family="Helvetica,sans-Serif" font-size="10.00" fill="#000000">matrices/su2.h</text>
</a>
</g>
</g>
<!-- Node9&#45;&gt;Node13 -->
<g id="edge16" class="edge">
<title>Node9&#45;&gt;Node13</title>
<path fill="none" stroke="#191970" d="M139.5122,-165.4179C139.5122,-158.2164 139.5122,-147.8962 139.5122,-138.8632"/>
<polygon fill="#191970" stroke="#191970" points="143.0123,-138.7794 139.5122,-128.7795 136.0123,-138.7795 143.0123,-138.7794"/>
</g>
<!-- Node10&#45;&gt;Node11 -->
<g id="edge14" class="edge">
<title>Node10&#45;&gt;Node11</title>
<path fill="none" stroke="#191970" d="M56.86,-110.4179C72.4803,-101.7399 96.252,-88.5334 114.2984,-78.5077"/>
<polygon fill="#191970" stroke="#191970" points="116.0983,-81.5117 123.1401,-73.5956 112.6987,-75.3925 116.0983,-81.5117"/>
</g>
<!-- Node12 -->
<g id="node13" class="node">
<title>Node12</title>
<g id="a_node13"><a xlink:title=" ">
<polygon fill="#ffffff" stroke="#bfbfbf" points="112.3398,-.5 112.3398,-18.5 166.6846,-18.5 166.6846,-.5 112.3398,-.5"/>
<text text-anchor="middle" x="139.5122" y="-6.5" font-family="Helvetica,sans-Serif" font-size="10.00" fill="#000000">iostream</text>
</a>
</g>
</g>
<!-- Node11&#45;&gt;Node12 -->
<g id="edge15" class="edge">
<title>Node11&#45;&gt;Node12</title>
<path fill="none" stroke="#191970" d="M139.5122,-55.4179C139.5122,-48.2164 139.5122,-37.8962 139.5122,-28.8632"/>
<polygon fill="#191970" stroke="#191970" points="143.0123,-28.7794 139.5122,-18.7795 136.0123,-28.7795 143.0123,-28.7794"/>
</g>
<!-- Node13&#45;&gt;Node11 -->
<g id="edge17" class="edge">
<title>Node13&#45;&gt;Node11</title>
<path fill="none" stroke="#191970" d="M139.5122,-110.4179C139.5122,-103.2164 139.5122,-92.8962 139.5122,-83.8632"/>
<polygon fill="#191970" stroke="#191970" points="143.0123,-83.7794 139.5122,-73.7795 136.0123,-83.7795 143.0123,-83.7794"/>
</g>
<!-- Node14&#45;&gt;Node1 -->
<g id="edge33" class="edge">
<title>Node14&#45;&gt;Node1</title>
<path fill="none" stroke="#191970" d="M544.4581,-403.5042C576.802,-412.6983 624.4309,-427.0336 656.7195,-437.2554"/>
<polygon fill="#191970" stroke="#191970" points="656.0341,-440.7106 666.6249,-440.4179 658.1632,-434.0422 656.0341,-440.7106"/>
</g>
<!-- Node15 -->
<g id="node16" class="node">
<title>Node15</title>
<g id="a_node16"><a xlink:href="correlator_8h.html" target="_top" xlink:title=" ">
<polygon fill="#ffffff" stroke="#000000" points="705.4976,-275.5 705.4976,-293.5 771.5269,-293.5 771.5269,-275.5 705.4976,-275.5"/>
<text text-anchor="middle" x="738.5122" y="-281.5" font-family="Helvetica,sans-Serif" font-size="10.00" fill="#000000">correlator.h</text>
</a>
</g>
</g>
<!-- Node14&#45;&gt;Node15 -->
<g id="edge20" class="edge">
<title>Node14&#45;&gt;Node15</title>
<path fill="none" stroke="#191970" d="M577.2754,-389.11C662.9128,-381.599 801.0919,-366.8741 816.5122,-349 834.1466,-328.5594 802.5232,-309.4228 774.4129,-297.3869"/>
<polygon fill="#191970" stroke="#191970" points="775.6721,-294.1206 765.0908,-293.5857 773.029,-300.6025 775.6721,-294.1206"/>
</g>
<!-- Node18 -->
<g id="node19" class="node">
<title>Node18</title>
<g id="a_node19"><a xlink:href="energydensity_8h.html" target="_top" xlink:title=" ">
<polygon fill="#ffffff" stroke="#000000" points="517.5806,-330.5 517.5806,-348.5 603.4438,-348.5 603.4438,-330.5 517.5806,-330.5"/>
<text text-anchor="middle" x="560.5122" y="-336.5" font-family="Helvetica,sans-Serif" font-size="10.00" fill="#000000">energydensity.h</text>
</a>
</g>
</g>
<!-- Node14&#45;&gt;Node18 -->
<g id="edge26" class="edge">
<title>Node14&#45;&gt;Node18</title>
<path fill="none" stroke="#191970" d="M517.9338,-385.4179C525.272,-377.5041 536.1024,-365.8243 545.0035,-356.2251"/>
<polygon fill="#191970" stroke="#191970" points="547.6746,-358.492 551.9076,-348.7795 542.5417,-353.7324 547.6746,-358.492"/>
</g>
<!-- Node19 -->
<g id="node20" class="node">
<title>Node19</title>
<g id="a_node20"><a xlink:href="plaquette_8h.html" target="_top" xlink:title=" ">
<polygon fill="#ffffff" stroke="#000000" points="621.7686,-330.5 621.7686,-348.5 687.2559,-348.5 687.2559,-330.5 621.7686,-330.5"/>
<text text-anchor="middle" x="654.5122" y="-336.5" font-family="Helvetica,sans-Serif" font-size="10.00" fill="#000000">plaquette.h</text>
</a>
</g>
</g>
<!-- Node14&#45;&gt;Node19 -->
<g id="edge29" class="edge">
<title>Node14&#45;&gt;Node19</title>
<path fill="none" stroke="#191970" d="M533.456,-385.4179C557.3837,-376.3419 594.3707,-362.3123 621.1653,-352.1488"/>
<polygon fill="#191970" stroke="#191970" points="622.4242,-355.4147 630.5328,-348.5956 619.9415,-348.8697 622.4242,-355.4147"/>
</g>
<!-- Node20 -->
<g id="node21" class="node">
<title>Node20</title>
<g id="a_node21"><a xlink:href="topologicalcharge_8h.html" target="_top" xlink:title=" ">
<polygon fill="#ffffff" stroke="#000000" points="705.1479,-330.5 705.1479,-348.5 807.8765,-348.5 807.8765,-330.5 705.1479,-330.5"/>
<text text-anchor="middle" x="756.5122" y="-336.5" font-family="Helvetica,sans-Serif" font-size="10.00" fill="#000000">topologicalcharge.h</text>
</a>
</g>
</g>
<!-- Node14&#45;&gt;Node20 -->
<g id="edge31" class="edge">
<title>Node14&#45;&gt;Node20</title>
<path fill="none" stroke="#191970" d="M550.0226,-385.4795C592.7372,-375.9681 660.1031,-360.9676 706.1953,-350.7042"/>
<polygon fill="#191970" stroke="#191970" points="706.9794,-354.1154 715.9796,-348.5255 705.458,-347.2827 706.9794,-354.1154"/>
</g>
<!-- Node21 -->
<g id="node22" class="node">
<title>Node21</title>
<g id="a_node22"><a xlink:href="mastersamplertopcxyz_8h.html" target="_top" xlink:title=" ">
<polygon fill="#ffffff" stroke="#000000" points="115.3276,-330.5 115.3276,-348.5 239.6968,-348.5 239.6968,-330.5 115.3276,-330.5"/>
<text text-anchor="middle" x="177.5122" y="-336.5" font-family="Helvetica,sans-Serif" font-size="10.00" fill="#000000">mastersamplertopcxyz.h</text>
</a>
</g>
</g>
<!-- Node14&#45;&gt;Node21 -->
<g id="edge34" class="edge">
<title>Node14&#45;&gt;Node21</title>
<path fill="none" stroke="#191970" d="M449.9074,-385.4795C389.6391,-375.8285 297.158,-360.5262 236.9513,-350.2554"/>
<polygon fill="#191970" stroke="#191970" points="237.2857,-346.7619 226.8387,-348.5255 236.1053,-353.6616 237.2857,-346.7619"/>
</g>
<!-- Node22 -->
<g id="node23" class="node">
<title>Node22</title>
<g id="a_node23"><a xlink:href="latticeactionchargedensity_8h.html" target="_top" xlink:title=" ">
<polygon fill="#ffffff" stroke="#000000" points="258.1768,-330.5 258.1768,-348.5 396.8477,-348.5 396.8477,-330.5 258.1768,-330.5"/>
<text text-anchor="middle" x="327.5122" y="-336.5" font-family="Helvetica,sans-Serif" font-size="10.00" fill="#000000">latticeactionchargedensity.h</text>
</a>
</g>
</g>
<!-- Node14&#45;&gt;Node22 -->
<g id="edge37" class="edge">
<title>Node14&#45;&gt;Node22</title>
<path fill="none" stroke="#191970" d="M474.2923,-385.4179C441.8624,-376.1949 394.2339,-361.8567 362.0321,-351.6582"/>
<polygon fill="#191970" stroke="#191970" points="362.7487,-348.213 352.1578,-348.5042 360.6187,-354.881 362.7487,-348.213"/>
</g>
<!-- Node23 -->
<g id="node24" class="node">
<title>Node23</title>
<g id="a_node24"><a xlink:href="supersampler_8h.html" target="_top" xlink:title=" ">
<polygon fill="#ffffff" stroke="#000000" points="415.3252,-330.5 415.3252,-348.5 499.6992,-348.5 499.6992,-330.5 415.3252,-330.5"/>
<text text-anchor="middle" x="457.5122" y="-336.5" font-family="Helvetica,sans-Serif" font-size="10.00" fill="#000000">supersampler.h</text>
</a>
</g>
</g>
<!-- Node14&#45;&gt;Node23 -->
<g id="edge40" class="edge">
<title>Node14&#45;&gt;Node23</title>
<path fill="none" stroke="#191970" d="M495.7591,-385.4179C486.8204,-377.6624 475.684,-366.29 467.5524,-356.8035"/>
<polygon fill="#191970" stroke="#191970" points="470.0819,-354.3646 461.0787,-348.7795 464.6339,-358.76 470.0819,-354.3646"/>
</g>
<!-- Node15&#45;&gt;Node2 -->
<g id="edge21" class="edge">
<title>Node15&#45;&gt;Node2</title>
<path fill="none" stroke="#191970" d="M705.2363,-277.6454C658.4832,-268.0146 573.0824,-250.4227 519.4732,-239.3796"/>
<polygon fill="#191970" stroke="#191970" points="520.0236,-235.9196 509.5231,-237.33 518.6113,-242.7756 520.0236,-235.9196"/>
</g>
<!-- Node15&#45;&gt;Node3 -->
<g id="edge25" class="edge">
<title>Node15&#45;&gt;Node3</title>
<path fill="none" stroke="#191970" d="M739.2484,-275.1561C741.3131,-248.9504 747.1902,-174.3557 749.9914,-138.8021"/>
<polygon fill="#191970" stroke="#191970" points="753.4877,-138.9854 750.7841,-128.7414 746.5094,-138.4356 753.4877,-138.9854"/>
</g>
<!-- Node16 -->
<g id="node17" class="node">
<title>Node16</title>
<g id="a_node17"><a xlink:href="observablestorer_8h.html" target="_top" xlink:title=" ">
<polygon fill="#ffffff" stroke="#000000" points="766.4238,-220.5 766.4238,-238.5 888.6006,-238.5 888.6006,-220.5 766.4238,-220.5"/>
<text text-anchor="middle" x="827.5122" y="-226.5" font-family="Helvetica,sans-Serif" font-size="10.00" fill="#000000">tools/observablestorer.h</text>
</a>
</g>
</g>
<!-- Node15&#45;&gt;Node16 -->
<g id="edge22" class="edge">
<title>Node15&#45;&gt;Node16</title>
<path fill="none" stroke="#191970" d="M753.2087,-275.4179C766.9936,-266.8992 787.84,-254.0166 803.9471,-244.0627"/>
<polygon fill="#191970" stroke="#191970" points="806.127,-246.83 812.7938,-238.5956 802.4471,-240.8753 806.127,-246.83"/>
</g>
<!-- Node16&#45;&gt;Node3 -->
<g id="edge24" class="edge">
<title>Node16&#45;&gt;Node3</title>
<path fill="none" stroke="#191970" d="M821.2928,-220.4982C808.7115,-202.2885 780.0454,-160.798 763.6374,-137.0496"/>
<polygon fill="#191970" stroke="#191970" points="766.3815,-134.8639 757.8175,-128.6261 760.6223,-138.843 766.3815,-134.8639"/>
</g>
<!-- Node17 -->
<g id="node18" class="node">
<title>Node17</title>
<g id="a_node18"><a xlink:title=" ">
<polygon fill="#ffffff" stroke="#bfbfbf" points="858.2856,-165.5 858.2856,-183.5 898.7388,-183.5 898.7388,-165.5 858.2856,-165.5"/>
<text text-anchor="middle" x="878.5122" y="-171.5" font-family="Helvetica,sans-Serif" font-size="10.00" fill="#000000">string</text>
</a>
</g>
</g>
<!-- Node16&#45;&gt;Node17 -->
<g id="edge23" class="edge">
<title>Node16&#45;&gt;Node17</title>
<path fill="none" stroke="#191970" d="M835.9338,-220.4179C843.272,-212.5041 854.1024,-200.8243 863.0035,-191.2251"/>
<polygon fill="#191970" stroke="#191970" points="865.6746,-193.492 869.9076,-183.7795 860.5417,-188.7324 865.6746,-193.492"/>
</g>
<!-- Node18&#45;&gt;Node9 -->
<g id="edge28" class="edge">
<title>Node18&#45;&gt;Node9</title>
<path fill="none" stroke="#191970" d="M537.2777,-330.3939C466.619,-302.701 254.1509,-219.4296 172.225,-187.3209"/>
<polygon fill="#191970" stroke="#191970" points="173.2625,-183.9684 162.6749,-183.578 170.7082,-190.4857 173.2625,-183.9684"/>
</g>
<!-- Node18&#45;&gt;Node15 -->
<g id="edge27" class="edge">
<title>Node18&#45;&gt;Node15</title>
<path fill="none" stroke="#191970" d="M589.9053,-330.4179C619.8834,-321.155 666.5599,-306.7325 699.5917,-296.526"/>
<polygon fill="#191970" stroke="#191970" points="700.8503,-299.8005 709.3713,-293.5042 698.7837,-293.1124 700.8503,-299.8005"/>
</g>
<!-- Node19&#45;&gt;Node15 -->
<g id="edge30" class="edge">
<title>Node19&#45;&gt;Node15</title>
<path fill="none" stroke="#191970" d="M668.3831,-330.4179C681.2719,-321.9788 700.7016,-309.257 715.8436,-299.3426"/>
<polygon fill="#191970" stroke="#191970" points="718.1718,-302.0017 724.6207,-293.5956 714.3372,-296.1454 718.1718,-302.0017"/>
</g>
<!-- Node20&#45;&gt;Node15 -->
<g id="edge32" class="edge">
<title>Node20&#45;&gt;Node15</title>
<path fill="none" stroke="#191970" d="M753.5399,-330.4179C751.1571,-323.1372 747.7311,-312.669 744.7519,-303.5659"/>
<polygon fill="#191970" stroke="#191970" points="747.986,-302.1948 741.5491,-293.7795 741.3332,-304.3721 747.986,-302.1948"/>
</g>
<!-- Node21&#45;&gt;Node2 -->
<g id="edge35" class="edge">
<title>Node21&#45;&gt;Node2</title>
<path fill="none" stroke="#191970" d="M201.5715,-330.4982C253.7946,-310.959 377.6578,-264.6156 437.7082,-242.1478"/>
<polygon fill="#191970" stroke="#191970" points="438.9811,-245.4085 447.1205,-238.6261 436.5281,-238.8524 438.9811,-245.4085"/>
</g>
<!-- Node21&#45;&gt;Node14 -->
<g id="edge36" class="edge">
<title>Node21&#45;&gt;Node14</title>
<path fill="none" stroke="#191970" d="M237.1478,-348.5255C297.427,-358.1783 389.9081,-373.4808 450.1039,-383.7498"/>
<polygon fill="#191970" stroke="#191970" points="449.7674,-387.243 460.2144,-385.4795 450.9478,-380.3433 449.7674,-387.243"/>
</g>
<!-- Node22&#45;&gt;Node2 -->
<g id="edge38" class="edge">
<title>Node22&#45;&gt;Node2</title>
<path fill="none" stroke="#191970" d="M339.2963,-330.4982C363.8729,-311.7244 420.8432,-268.2055 451.3585,-244.8952"/>
<polygon fill="#191970" stroke="#191970" points="453.7432,-247.4779 459.5653,-238.6261 449.4939,-241.9152 453.7432,-247.4779"/>
</g>
<!-- Node22&#45;&gt;Node14 -->
<g id="edge39" class="edge">
<title>Node22&#45;&gt;Node14</title>
<path fill="none" stroke="#191970" d="M362.4581,-348.5042C394.802,-357.6983 442.4309,-372.0336 474.7195,-382.2554"/>
<polygon fill="#191970" stroke="#191970" points="474.0341,-385.7106 484.6249,-385.4179 476.1632,-379.0422 474.0341,-385.7106"/>
</g>
<!-- Node23&#45;&gt;Node2 -->
<g id="edge41" class="edge">
<title>Node23&#45;&gt;Node2</title>
<path fill="none" stroke="#191970" d="M458.6579,-330.4982C460.9242,-312.6913 466.0239,-272.6225 469.0747,-248.6515"/>
<polygon fill="#191970" stroke="#191970" points="472.5601,-248.988 470.3507,-238.6261 465.6161,-248.1042 472.5601,-248.988"/>
</g>
<!-- Node23&#45;&gt;Node14 -->
<g id="edge42" class="edge">
<title>Node23&#45;&gt;Node14</title>
<path fill="none" stroke="#191970" d="M471.4923,-348.7795C480.4678,-356.5956 491.597,-367.9823 499.6774,-377.4365"/>
<polygon fill="#191970" stroke="#191970" points="497.0992,-379.8157 506.0918,-385.4179 502.5555,-375.4306 497.0992,-379.8157"/>
</g>
<!-- Node24 -->
<g id="node25" class="node">
<title>Node24</title>
<g id="a_node25"><a xlink:title=" ">
<polygon fill="#ffffff" stroke="#bfbfbf" points="485.7856,-275.5 485.7856,-293.5 521.2388,-293.5 521.2388,-275.5 485.7856,-275.5"/>
<text text-anchor="middle" x="503.5122" y="-281.5" font-family="Helvetica,sans-Serif" font-size="10.00" fill="#000000">map</text>
</a>
</g>
</g>
<!-- Node23&#45;&gt;Node24 -->
<g id="edge43" class="edge">
<title>Node23&#45;&gt;Node24</title>
<path fill="none" stroke="#191970" d="M465.1082,-330.4179C471.6608,-322.5833 481.3005,-311.0575 489.2826,-301.5137"/>
<polygon fill="#191970" stroke="#191970" points="492.0204,-303.6957 495.7512,-293.7795 486.6508,-299.2048 492.0204,-303.6957"/>
</g>
<!-- Node26&#45;&gt;Node2 -->
<g id="edge47" class="edge">
<title>Node26&#45;&gt;Node2</title>
<path fill="none" stroke="#191970" d="M901.1814,-276.2957C795.7841,-264.8167 607.3668,-244.296 519.3169,-234.7064"/>
<polygon fill="#191970" stroke="#191970" points="519.6618,-231.2234 509.3416,-233.62 518.9038,-238.1822 519.6618,-231.2234"/>
</g>
<!-- Node26&#45;&gt;Node3 -->
<g id="edge46" class="edge">
<title>Node26&#45;&gt;Node3</title>
<path fill="none" stroke="#191970" d="M990.1316,-275.4012C1006.6432,-263.1765 1030.9294,-240.5995 1019.5122,-220 997.1539,-179.66 973.9373,-183.092 931.5122,-165 881.8586,-143.8254 820.1392,-130.8831 783.3893,-124.4639"/>
<polygon fill="#191970" stroke="#191970" points="783.7156,-120.9695 773.2718,-122.752 782.5478,-127.8714 783.7156,-120.9695"/>
</g>
<!-- Node27&#45;&gt;Node3 -->
<g id="edge50" class="edge">
<title>Node27&#45;&gt;Node3</title>
<path fill="none" stroke="#191970" d="M953.5933,-220.0859C945.7472,-205.9918 929.061,-179.5149 907.5122,-165 869.402,-139.3297 816.6394,-127.906 783.2949,-122.9917"/>
<polygon fill="#191970" stroke="#191970" points="783.5754,-119.4976 773.1943,-121.615 782.6301,-126.4335 783.5754,-119.4976"/>
</g>
<!-- Node27&#45;&gt;Node17 -->
<g id="edge49" class="edge">
<title>Node27&#45;&gt;Node17</title>
<path fill="none" stroke="#191970" d="M945.3018,-220.4179C933.0268,-211.9788 914.5223,-199.257 900.1014,-189.3426"/>
<polygon fill="#191970" stroke="#191970" points="901.9655,-186.3768 891.7422,-183.5956 897.9998,-192.1451 901.9655,-186.3768"/>
</g>
</g>
</svg>
