<?xml version="1.0" encoding="UTF-8" standalone="no"?>
<!DOCTYPE svg PUBLIC "-//W3C//DTD SVG 1.1//EN"
 "http://www.w3.org/Graphics/SVG/1.1/DTD/svg11.dtd">
<!-- Generated by graphviz version 2.40.1 (20161225.0304)
 -->
<!-- Title: GluonicLQCD/observables/mastersamplertopcxyz.h Pages: 1 -->
<svg width="753pt" height="232pt"
 viewBox="0.00 0.00 752.72 232.00" xmlns="http://www.w3.org/2000/svg" xmlns:xlink="http://www.w3.org/1999/xlink">
<g id="graph0" class="graph" transform="scale(1 1) rotate(0) translate(4 228)">
<title>GluonicLQCD/observables/mastersamplertopcxyz.h</title>
<polygon fill="#ffffff" stroke="transparent" points="-4,4 -4,-228 748.7163,-228 748.7163,4 -4,4"/>
<!-- Node24 -->
<g id="node1" class="node">
<title>Node24</title>
<g id="a_node1"><a xlink:title=" ">
<polygon fill="#bfbfbf" stroke="#000000" points="446.3276,-195.5 446.3276,-223.5 580.7163,-223.5 580.7163,-195.5 446.3276,-195.5"/>
<text text-anchor="start" x="454.3276" y="-211.5" font-family="Helvetica,sans-Serif" font-size="10.00" fill="#000000">GluonicLQCD/observables</text>
<text text-anchor="middle" x="513.522" y="-201.5" font-family="Helvetica,sans-Serif" font-size="10.00" fill="#000000">/mastersamplertopcxyz.h</text>
</a>
</g>
</g>
<!-- Node25 -->
<g id="node2" class="node">
<title>Node25</title>
<g id="a_node2"><a xlink:href="observables_8h.html" target="_top" xlink:title=" ">
<polygon fill="#ffffff" stroke="#000000" points="446.3276,-130.5 446.3276,-158.5 580.7163,-158.5 580.7163,-130.5 446.3276,-130.5"/>
<text text-anchor="start" x="454.3276" y="-146.5" font-family="Helvetica,sans-Serif" font-size="10.00" fill="#000000">GluonicLQCD/observables</text>
<text text-anchor="middle" x="513.522" y="-136.5" font-family="Helvetica,sans-Serif" font-size="10.00" fill="#000000">/observables.h</text>
</a>
</g>
</g>
<!-- Node24&#45;&gt;Node25 -->
<g id="edge1" class="edge">
<title>Node24&#45;&gt;Node25</title>
<path fill="none" stroke="#191970" d="M506.9766,-185.4029C506.5275,-176.3703 506.8176,-166.4078 507.8472,-158.5765"/>
<polygon fill="#191970" stroke="#191970" points="503.4923,-185.7359 507.8436,-195.396 510.4661,-185.1309 503.4923,-185.7359"/>
</g>
<!-- Node35 -->
<g id="node12" class="node">
<title>Node35</title>
<g id="a_node12"><a xlink:href="mastersamplertopcxyz_8cpp.html" target="_top" xlink:title=" ">
<polygon fill="#ffffff" stroke="#000000" points="598.6675,-130.5 598.6675,-158.5 736.3765,-158.5 736.3765,-130.5 598.6675,-130.5"/>
<text text-anchor="start" x="606.6675" y="-146.5" font-family="Helvetica,sans-Serif" font-size="10.00" fill="#000000">GluonicLQCD/observables</text>
<text text-anchor="middle" x="667.522" y="-136.5" font-family="Helvetica,sans-Serif" font-size="10.00" fill="#000000">/mastersamplertopcxyz.cpp</text>
</a>
</g>
</g>
<!-- Node24&#45;&gt;Node35 -->
<g id="edge15" class="edge">
<title>Node24&#45;&gt;Node35</title>
<path fill="none" stroke="#191970" d="M556.3894,-191.4066C580.9754,-181.0294 611.3821,-168.1954 634.1715,-158.5765"/>
<polygon fill="#191970" stroke="#191970" points="554.7896,-188.2828 546.9377,-195.396 557.5117,-194.7319 554.7896,-188.2828"/>
</g>
<!-- Node25&#45;&gt;Node24 -->
<g id="edge8" class="edge">
<title>Node25&#45;&gt;Node24</title>
<path fill="none" stroke="#191970" d="M520.0657,-168.5653C520.5166,-177.5958 520.2282,-187.5597 519.2004,-195.396"/>
<polygon fill="#191970" stroke="#191970" points="523.5503,-168.2355 519.1968,-158.5765 516.5767,-168.8422 523.5503,-168.2355"/>
</g>
<!-- Node26 -->
<g id="node3" class="node">
<title>Node26</title>
<g id="a_node3"><a xlink:href="system_8h.html" target="_top" xlink:title=" ">
<polygon fill="#ffffff" stroke="#000000" points="144.2832,-70.5 144.2832,-88.5 264.7607,-88.5 264.7607,-70.5 144.2832,-70.5"/>
<text text-anchor="middle" x="204.522" y="-76.5" font-family="Helvetica,sans-Serif" font-size="10.00" fill="#000000">GluonicLQCD/system.h</text>
</a>
</g>
</g>
<!-- Node25&#45;&gt;Node26 -->
<g id="edge2" class="edge">
<title>Node25&#45;&gt;Node26</title>
<path fill="none" stroke="#191970" d="M437.0676,-128.4174C377.2357,-115.8314 296.2266,-98.7906 247.314,-88.5016"/>
<polygon fill="#191970" stroke="#191970" points="436.3477,-131.8424 446.854,-130.476 437.7887,-124.9924 436.3477,-131.8424"/>
</g>
<!-- Node29 -->
<g id="node6" class="node">
<title>Node29</title>
<g id="a_node6"><a xlink:href="mastersampler_8h.html" target="_top" xlink:title=" ">
<polygon fill="#ffffff" stroke="#000000" points="290.3276,-65.5 290.3276,-93.5 424.7163,-93.5 424.7163,-65.5 290.3276,-65.5"/>
<text text-anchor="start" x="298.3276" y="-81.5" font-family="Helvetica,sans-Serif" font-size="10.00" fill="#000000">GluonicLQCD/observables</text>
<text text-anchor="middle" x="357.522" y="-71.5" font-family="Helvetica,sans-Serif" font-size="10.00" fill="#000000">/mastersampler.h</text>
</a>
</g>
</g>
<!-- Node25&#45;&gt;Node29 -->
<g id="edge5" class="edge">
<title>Node25&#45;&gt;Node29</title>
<path fill="none" stroke="#191970" d="M464.6613,-126.6815C438.6473,-116.2568 407.6447,-103.2805 385.6308,-93.5765"/>
<polygon fill="#191970" stroke="#191970" points="463.4084,-129.9498 473.9939,-130.396 465.9971,-123.446 463.4084,-129.9498"/>
</g>
<!-- Node31 -->
<g id="node8" class="node">
<title>Node31</title>
<g id="a_node8"><a xlink:href="latticeactionchargedensity_8h.html" target="_top" xlink:title=" ">
<polygon fill="#ffffff" stroke="#000000" points="442.7974,-65.5 442.7974,-93.5 584.2466,-93.5 584.2466,-65.5 442.7974,-65.5"/>
<text text-anchor="start" x="450.7974" y="-81.5" font-family="Helvetica,sans-Serif" font-size="10.00" fill="#000000">GluonicLQCD/observables</text>
<text text-anchor="middle" x="513.522" y="-71.5" font-family="Helvetica,sans-Serif" font-size="10.00" fill="#000000">/latticeactionchargedensity.h</text>
</a>
</g>
</g>
<!-- Node25&#45;&gt;Node31 -->
<g id="edge9" class="edge">
<title>Node25&#45;&gt;Node31</title>
<path fill="none" stroke="#191970" d="M506.9766,-120.4029C506.5275,-111.3703 506.8176,-101.4078 507.8472,-93.5765"/>
<polygon fill="#191970" stroke="#191970" points="503.4923,-120.7359 507.8436,-130.396 510.4661,-120.1309 503.4923,-120.7359"/>
</g>
<!-- Node33 -->
<g id="node10" class="node">
<title>Node33</title>
<g id="a_node10"><a xlink:href="supersampler_8h.html" target="_top" xlink:title=" ">
<polygon fill="#ffffff" stroke="#000000" points="602.3276,-65.5 602.3276,-93.5 736.7163,-93.5 736.7163,-65.5 602.3276,-65.5"/>
<text text-anchor="start" x="610.3276" y="-81.5" font-family="Helvetica,sans-Serif" font-size="10.00" fill="#000000">GluonicLQCD/observables</text>
<text text-anchor="middle" x="669.522" y="-71.5" font-family="Helvetica,sans-Serif" font-size="10.00" fill="#000000">/supersampler.h</text>
</a>
</g>
</g>
<!-- Node25&#45;&gt;Node33 -->
<g id="edge12" class="edge">
<title>Node25&#45;&gt;Node33</title>
<path fill="none" stroke="#191970" d="M551.1422,-126.2687C575.0368,-115.9159 605.8214,-103.1528 630.0636,-93.5765"/>
<polygon fill="#191970" stroke="#191970" points="549.4562,-123.1857 541.6932,-130.396 552.2582,-129.6005 549.4562,-123.1857"/>
</g>
<!-- Node27 -->
<g id="node4" class="node">
<title>Node27</title>
<g id="a_node4"><a xlink:href="main_8cpp.html" target="_top" xlink:title=" ">
<polygon fill="#ffffff" stroke="#000000" points="0,-5.5 0,-23.5 121.0439,-23.5 121.0439,-5.5 0,-5.5"/>
<text text-anchor="middle" x="60.522" y="-11.5" font-family="Helvetica,sans-Serif" font-size="10.00" fill="#000000">GluonicLQCD/main.cpp</text>
</a>
</g>
</g>
<!-- Node26&#45;&gt;Node27 -->
<g id="edge3" class="edge">
<title>Node26&#45;&gt;Node27</title>
<path fill="none" stroke="#191970" d="M175.1782,-66.2545C147.0866,-53.5743 105.4471,-34.7787 80.8387,-23.6708"/>
<polygon fill="#191970" stroke="#191970" points="173.9449,-69.5379 184.4994,-70.462 176.8249,-63.1577 173.9449,-69.5379"/>
</g>
<!-- Node28 -->
<g id="node5" class="node">
<title>Node28</title>
<g id="a_node5"><a xlink:href="system_8cpp.html" target="_top" xlink:title=" ">
<polygon fill="#ffffff" stroke="#000000" points="139.0024,-5.5 139.0024,-23.5 270.0415,-23.5 270.0415,-5.5 139.0024,-5.5"/>
<text text-anchor="middle" x="204.522" y="-11.5" font-family="Helvetica,sans-Serif" font-size="10.00" fill="#000000">GluonicLQCD/system.cpp</text>
</a>
</g>
</g>
<!-- Node26&#45;&gt;Node28 -->
<g id="edge4" class="edge">
<title>Node26&#45;&gt;Node28</title>
<path fill="none" stroke="#191970" d="M204.522,-60.1265C204.522,-48.1522 204.522,-33.3205 204.522,-23.8821"/>
<polygon fill="#191970" stroke="#191970" points="201.0221,-60.462 204.522,-70.462 208.0221,-60.4621 201.0221,-60.462"/>
</g>
<!-- Node29&#45;&gt;Node25 -->
<g id="edge6" class="edge">
<title>Node29&#45;&gt;Node25</title>
<path fill="none" stroke="#191970" d="M406.3089,-97.2889C432.3135,-107.7088 463.3198,-120.6858 485.3507,-130.396"/>
<polygon fill="#191970" stroke="#191970" points="407.5659,-94.0222 396.9804,-93.5765 404.9775,-100.5261 407.5659,-94.0222"/>
</g>
<!-- Node30 -->
<g id="node7" class="node">
<title>Node30</title>
<g id="a_node7"><a xlink:href="mastersampler_8cpp.html" target="_top" xlink:title=" ">
<polygon fill="#ffffff" stroke="#000000" points="288.3276,-.5 288.3276,-28.5 422.7163,-28.5 422.7163,-.5 288.3276,-.5"/>
<text text-anchor="start" x="296.3276" y="-16.5" font-family="Helvetica,sans-Serif" font-size="10.00" fill="#000000">GluonicLQCD/observables</text>
<text text-anchor="middle" x="355.522" y="-6.5" font-family="Helvetica,sans-Serif" font-size="10.00" fill="#000000">/mastersampler.cpp</text>
</a>
</g>
</g>
<!-- Node29&#45;&gt;Node30 -->
<g id="edge7" class="edge">
<title>Node29&#45;&gt;Node30</title>
<path fill="none" stroke="#191970" d="M356.7715,-55.1081C356.4959,-46.1539 356.1934,-36.3227 355.9551,-28.5765"/>
<polygon fill="#191970" stroke="#191970" points="353.282,-55.5084 357.088,-65.396 360.2787,-55.293 353.282,-55.5084"/>
</g>
<!-- Node31&#45;&gt;Node25 -->
<g id="edge10" class="edge">
<title>Node31&#45;&gt;Node25</title>
<path fill="none" stroke="#191970" d="M520.0657,-103.5653C520.5166,-112.5958 520.2282,-122.5597 519.2004,-130.396"/>
<polygon fill="#191970" stroke="#191970" points="523.5503,-103.2355 519.1968,-93.5765 516.5767,-103.8422 523.5503,-103.2355"/>
</g>
<!-- Node32 -->
<g id="node9" class="node">
<title>Node32</title>
<g id="a_node9"><a xlink:href="latticeactionchargedensity_8cpp.html" target="_top" xlink:title=" ">
<polygon fill="#ffffff" stroke="#000000" points="440.5166,-.5 440.5166,-28.5 592.5273,-28.5 592.5273,-.5 440.5166,-.5"/>
<text text-anchor="start" x="448.5166" y="-16.5" font-family="Helvetica,sans-Serif" font-size="10.00" fill="#000000">GluonicLQCD/observables</text>
<text text-anchor="middle" x="516.522" y="-6.5" font-family="Helvetica,sans-Serif" font-size="10.00" fill="#000000">/latticeactionchargedensity.cpp</text>
</a>
</g>
</g>
<!-- Node31&#45;&gt;Node32 -->
<g id="edge11" class="edge">
<title>Node31&#45;&gt;Node32</title>
<path fill="none" stroke="#191970" d="M514.6341,-55.4029C515.051,-46.3703 515.5108,-36.4078 515.8723,-28.5765"/>
<polygon fill="#191970" stroke="#191970" points="511.1378,-55.2452 514.1729,-65.396 518.1303,-55.568 511.1378,-55.2452"/>
</g>
<!-- Node33&#45;&gt;Node25 -->
<g id="edge13" class="edge">
<title>Node33&#45;&gt;Node25</title>
<path fill="none" stroke="#191970" d="M631.9704,-97.7016C608.089,-108.0498 577.3047,-120.8135 553.0501,-130.396"/>
<polygon fill="#191970" stroke="#191970" points="633.6505,-100.7871 641.4132,-93.5765 630.8483,-94.3724 633.6505,-100.7871"/>
</g>
<!-- Node34 -->
<g id="node11" class="node">
<title>Node34</title>
<g id="a_node11"><a xlink:href="supersampler_8cpp.html" target="_top" xlink:title=" ">
<polygon fill="#ffffff" stroke="#000000" points="610.3276,-.5 610.3276,-28.5 744.7163,-28.5 744.7163,-.5 610.3276,-.5"/>
<text text-anchor="start" x="618.3276" y="-16.5" font-family="Helvetica,sans-Serif" font-size="10.00" fill="#000000">GluonicLQCD/observables</text>
<text text-anchor="middle" x="677.522" y="-6.5" font-family="Helvetica,sans-Serif" font-size="10.00" fill="#000000">/supersampler.cpp</text>
</a>
</g>
</g>
<!-- Node33&#45;&gt;Node34 -->
<g id="edge14" class="edge">
<title>Node33&#45;&gt;Node34</title>
<path fill="none" stroke="#191970" d="M672.4878,-55.4029C673.5995,-46.3703 674.8256,-36.4078 675.7895,-28.5765"/>
<polygon fill="#191970" stroke="#191970" points="669.0057,-55.0433 671.2579,-65.396 675.9533,-55.8984 669.0057,-55.0433"/>
</g>
</g>
</svg>
