<?xml version="1.0" encoding="UTF-8" standalone="no"?>
<!DOCTYPE svg PUBLIC "-//W3C//DTD SVG 1.1//EN"
 "http://www.w3.org/Graphics/SVG/1.1/DTD/svg11.dtd">
<!-- Generated by graphviz version 2.40.1 (20161225.0304)
 -->
<!-- Title: GluonicLQCD/observables/mastersamplertopcxyz.cpp Pages: 1 -->
<svg width="1330pt" height="532pt"
 viewBox="0.00 0.00 1330.19 532.00" xmlns="http://www.w3.org/2000/svg" xmlns:xlink="http://www.w3.org/1999/xlink">
<g id="graph0" class="graph" transform="scale(1 1) rotate(0) translate(4 528)">
<title>GluonicLQCD/observables/mastersamplertopcxyz.cpp</title>
<polygon fill="#ffffff" stroke="transparent" points="-4,4 -4,-528 1326.187,-528 1326.187,4 -4,4"/>
<!-- Node0 -->
<g id="node1" class="node">
<title>Node0</title>
<g id="a_node1"><a xlink:title=" ">
<polygon fill="#bfbfbf" stroke="#000000" points="957.3325,-495.5 957.3325,-523.5 1095.0415,-523.5 1095.0415,-495.5 957.3325,-495.5"/>
<text text-anchor="start" x="965.3325" y="-511.5" font-family="Helvetica,sans-Serif" font-size="10.00" fill="#000000">GluonicLQCD/observables</text>
<text text-anchor="middle" x="1026.187" y="-501.5" font-family="Helvetica,sans-Serif" font-size="10.00" fill="#000000">/mastersamplertopcxyz.cpp</text>
</a>
</g>
</g>
<!-- Node1 -->
<g id="node2" class="node">
<title>Node1</title>
<g id="a_node2"><a xlink:href="mastersamplertopcxyz_8h.html" target="_top" xlink:title=" ">
<polygon fill="#ffffff" stroke="#000000" points="508.0024,-440.5 508.0024,-458.5 632.3716,-458.5 632.3716,-440.5 508.0024,-440.5"/>
<text text-anchor="middle" x="570.187" y="-446.5" font-family="Helvetica,sans-Serif" font-size="10.00" fill="#000000">mastersamplertopcxyz.h</text>
</a>
</g>
</g>
<!-- Node0&#45;&gt;Node1 -->
<g id="edge1" class="edge">
<title>Node0&#45;&gt;Node1</title>
<path fill="none" stroke="#191970" d="M956.9304,-500.3873C871.9708,-489.2084 728.6306,-470.3478 642.3601,-458.9965"/>
<polygon fill="#191970" stroke="#191970" points="642.7594,-455.5189 632.3883,-457.6844 641.8462,-462.4591 642.7594,-455.5189"/>
</g>
<!-- Node25 -->
<g id="node26" class="node">
<title>Node25</title>
<g id="a_node26"><a xlink:title=" ">
<polygon fill="#ffffff" stroke="#bfbfbf" points="1176.5713,-440.5 1176.5713,-458.5 1219.8027,-458.5 1219.8027,-440.5 1176.5713,-440.5"/>
<text text-anchor="middle" x="1198.187" y="-446.5" font-family="Helvetica,sans-Serif" font-size="10.00" fill="#000000">cmath</text>
</a>
</g>
</g>
<!-- Node0&#45;&gt;Node25 -->
<g id="edge44" class="edge">
<title>Node0&#45;&gt;Node25</title>
<path fill="none" stroke="#191970" d="M1066.5134,-495.4327C1097.1111,-484.759 1138.5754,-470.2948 1166.7418,-460.4692"/>
<polygon fill="#191970" stroke="#191970" points="1168.1834,-463.6733 1176.4726,-457.0748 1165.8777,-457.0639 1168.1834,-463.6733"/>
</g>
<!-- Node26 -->
<g id="node27" class="node">
<title>Node26</title>
<g id="a_node27"><a xlink:href="communicator_8h.html" target="_top" xlink:title=" ">
<polygon fill="#ffffff" stroke="#000000" points="699.9287,-275.5 699.9287,-293.5 850.4453,-293.5 850.4453,-275.5 699.9287,-275.5"/>
<text text-anchor="middle" x="775.187" y="-281.5" font-family="Helvetica,sans-Serif" font-size="10.00" fill="#000000">parallelization/communicator.h</text>
</a>
</g>
</g>
<!-- Node0&#45;&gt;Node26 -->
<g id="edge45" class="edge">
<title>Node0&#45;&gt;Node26</title>
<path fill="none" stroke="#191970" d="M1006.2624,-495.4414C969.2769,-468.9047 888.3058,-408.7196 828.187,-349 813.316,-334.2277 798.3321,-315.5606 788.109,-302.1141"/>
<polygon fill="#191970" stroke="#191970" points="790.6452,-299.6614 781.852,-293.7511 785.0402,-303.8549 790.6452,-299.6614"/>
</g>
<!-- Node27 -->
<g id="node28" class="node">
<title>Node27</title>
<g id="a_node28"><a xlink:href="parameters_8h.html" target="_top" xlink:title=" ">
<polygon fill="#ffffff" stroke="#000000" points="1053.9976,-440.5 1053.9976,-458.5 1158.3765,-458.5 1158.3765,-440.5 1053.9976,-440.5"/>
<text text-anchor="middle" x="1106.187" y="-446.5" font-family="Helvetica,sans-Serif" font-size="10.00" fill="#000000">config/parameters.h</text>
</a>
</g>
</g>
<!-- Node0&#45;&gt;Node27 -->
<g id="edge48" class="edge">
<title>Node0&#45;&gt;Node27</title>
<path fill="none" stroke="#191970" d="M1045.1459,-495.2808C1057.4596,-486.0456 1073.4923,-474.021 1086.0364,-464.613"/>
<polygon fill="#191970" stroke="#191970" points="1088.1748,-467.3842 1094.0748,-458.5842 1083.9747,-461.7842 1088.1748,-467.3842"/>
</g>
<!-- Node30 -->
<g id="node31" class="node">
<title>Node30</title>
<g id="a_node31"><a xlink:href="observablesio_8h.html" target="_top" xlink:title=" ">
<polygon fill="#ffffff" stroke="#000000" points="1197.8843,-220.5 1197.8843,-238.5 1294.4897,-238.5 1294.4897,-220.5 1197.8843,-220.5"/>
<text text-anchor="middle" x="1246.187" y="-226.5" font-family="Helvetica,sans-Serif" font-size="10.00" fill="#000000">io/observablesio.h</text>
</a>
</g>
</g>
<!-- Node0&#45;&gt;Node30 -->
<g id="edge57" class="edge">
<title>Node0&#45;&gt;Node30</title>
<path fill="none" stroke="#191970" d="M1025.0838,-495.3126C1023.865,-470.9643 1024.3396,-420.4271 1045.187,-385 1086.2541,-315.2127 1171.7478,-265.5656 1216.859,-243.0502"/>
<polygon fill="#191970" stroke="#191970" points="1218.654,-246.0688 1226.1034,-238.535 1215.5818,-239.7789 1218.654,-246.0688"/>
</g>
<!-- Node2 -->
<g id="node3" class="node">
<title>Node2</title>
<g id="a_node3"><a xlink:href="lattice_8h.html" target="_top" xlink:title=" ">
<polygon fill="#ffffff" stroke="#000000" points="542.4507,-220.5 542.4507,-238.5 617.9233,-238.5 617.9233,-220.5 542.4507,-220.5"/>
<text text-anchor="middle" x="580.187" y="-226.5" font-family="Helvetica,sans-Serif" font-size="10.00" fill="#000000">math/lattice.h</text>
</a>
</g>
</g>
<!-- Node1&#45;&gt;Node2 -->
<g id="edge2" class="edge">
<title>Node1&#45;&gt;Node2</title>
<path fill="none" stroke="#191970" d="M587.5619,-440.2947C613.8435,-425.2549 662.7042,-392.6589 682.187,-349 701.9823,-304.6409 644.876,-264.1693 608.2815,-243.643"/>
<polygon fill="#191970" stroke="#191970" points="609.4915,-240.3178 599.032,-238.6295 606.1557,-246.4719 609.4915,-240.3178"/>
</g>
<!-- Node14 -->
<g id="node15" class="node">
<title>Node14</title>
<g id="a_node15"><a xlink:href="observables_8h.html" target="_top" xlink:title=" ">
<polygon fill="#ffffff" stroke="#000000" points="289.707,-385.5 289.707,-403.5 424.667,-403.5 424.667,-385.5 289.707,-385.5"/>
<text text-anchor="middle" x="357.187" y="-391.5" font-family="Helvetica,sans-Serif" font-size="10.00" fill="#000000">observables/observables.h</text>
</a>
</g>
</g>
<!-- Node1&#45;&gt;Node14 -->
<g id="edge19" class="edge">
<title>Node1&#45;&gt;Node14</title>
<path fill="none" stroke="#191970" d="M529.8481,-440.4179C491.5682,-431.0352 434.5749,-416.3586 396.6044,-406.1322"/>
<polygon fill="#191970" stroke="#191970" points="397.4751,-402.742 386.9077,-403.5042 395.644,-409.4982 397.4751,-402.742"/>
</g>
<!-- Node3 -->
<g id="node4" class="node">
<title>Node3</title>
<g id="a_node4"><a xlink:title=" ">
<polygon fill="#ffffff" stroke="#bfbfbf" points="1002.5713,-110.5 1002.5713,-128.5 1045.8027,-128.5 1045.8027,-110.5 1002.5713,-110.5"/>
<text text-anchor="middle" x="1024.187" y="-116.5" font-family="Helvetica,sans-Serif" font-size="10.00" fill="#000000">vector</text>
</a>
</g>
</g>
<!-- Node2&#45;&gt;Node3 -->
<g id="edge3" class="edge">
<title>Node2&#45;&gt;Node3</title>
<path fill="none" stroke="#191970" d="M589.216,-220.1239C603.8566,-205.5745 634.36,-177.8955 666.187,-165 725.13,-141.1178 915.7307,-126.4994 992.1032,-121.4713"/>
<polygon fill="#191970" stroke="#191970" points="992.7595,-124.9363 1002.5131,-120.7991 992.3084,-117.9509 992.7595,-124.9363"/>
</g>
<!-- Node4 -->
<g id="node5" class="node">
<title>Node4</title>
<g id="a_node5"><a xlink:title=" ">
<polygon fill="#ffffff" stroke="#bfbfbf" points="501.9604,-110.5 501.9604,-128.5 542.4136,-128.5 542.4136,-110.5 501.9604,-110.5"/>
<text text-anchor="middle" x="522.187" y="-116.5" font-family="Helvetica,sans-Serif" font-size="10.00" fill="#000000">mpi.h</text>
</a>
</g>
</g>
<!-- Node2&#45;&gt;Node4 -->
<g id="edge4" class="edge">
<title>Node2&#45;&gt;Node4</title>
<path fill="none" stroke="#191970" d="M542.4,-224.3208C517.886,-218.7868 487.7156,-207.3925 472.187,-184 460.4024,-166.2474 479.7195,-147.093 497.6631,-134.3105"/>
<polygon fill="#191970" stroke="#191970" points="499.8573,-137.0535 506.2192,-128.5813 495.9625,-131.237 499.8573,-137.0535"/>
</g>
<!-- Node5 -->
<g id="node6" class="node">
<title>Node5</title>
<g id="a_node6"><a xlink:href="index_8h.html" target="_top" xlink:title=" ">
<polygon fill="#ffffff" stroke="#000000" points="865.1011,-165.5 865.1011,-183.5 977.2729,-183.5 977.2729,-165.5 865.1011,-165.5"/>
<text text-anchor="middle" x="921.187" y="-171.5" font-family="Helvetica,sans-Serif" font-size="10.00" fill="#000000">parallelization/index.h</text>
</a>
</g>
</g>
<!-- Node2&#45;&gt;Node5 -->
<g id="edge5" class="edge">
<title>Node2&#45;&gt;Node5</title>
<path fill="none" stroke="#191970" d="M617.9829,-223.4039C675.1687,-214.1804 784.4776,-196.5499 855.0395,-185.169"/>
<polygon fill="#191970" stroke="#191970" points="855.8432,-188.5846 865.1583,-183.5369 854.7286,-181.674 855.8432,-188.5846"/>
</g>
<!-- Node6 -->
<g id="node7" class="node">
<title>Node6</title>
<g id="a_node7"><a xlink:href="neighbours_8h.html" target="_top" xlink:title=" ">
<polygon fill="#ffffff" stroke="#000000" points="481.313,-165.5 481.313,-183.5 619.061,-183.5 619.061,-165.5 481.313,-165.5"/>
<text text-anchor="middle" x="550.187" y="-171.5" font-family="Helvetica,sans-Serif" font-size="10.00" fill="#000000">parallelization/neighbours.h</text>
</a>
</g>
</g>
<!-- Node2&#45;&gt;Node6 -->
<g id="edge7" class="edge">
<title>Node2&#45;&gt;Node6</title>
<path fill="none" stroke="#191970" d="M575.2331,-220.4179C571.1324,-212.8998 565.1777,-201.9829 560.1033,-192.6799"/>
<polygon fill="#191970" stroke="#191970" points="563.1097,-190.8824 555.2485,-183.7795 556.9645,-194.2344 563.1097,-190.8824"/>
</g>
<!-- Node8 -->
<g id="node9" class="node">
<title>Node8</title>
<g id="a_node9"><a xlink:href="parallelparameters_8h.html" target="_top" xlink:title=" ">
<polygon fill="#ffffff" stroke="#000000" points="675.6455,-165.5 675.6455,-183.5 846.7285,-183.5 846.7285,-165.5 675.6455,-165.5"/>
<text text-anchor="middle" x="761.187" y="-171.5" font-family="Helvetica,sans-Serif" font-size="10.00" fill="#000000">parallelization/parallelparameters.h</text>
</a>
</g>
</g>
<!-- Node2&#45;&gt;Node8 -->
<g id="edge10" class="edge">
<title>Node2&#45;&gt;Node8</title>
<path fill="none" stroke="#191970" d="M610.0755,-220.4179C640.5588,-211.155 688.022,-196.7325 721.6105,-186.526"/>
<polygon fill="#191970" stroke="#191970" points="723.0046,-189.7605 731.555,-183.5042 720.9693,-183.0629 723.0046,-189.7605"/>
</g>
<!-- Node9 -->
<g id="node10" class="node">
<title>Node9</title>
<g id="a_node10"><a xlink:href="functions_8h.html" target="_top" xlink:title=" ">
<polygon fill="#ffffff" stroke="#000000" points="361.0049,-165.5 361.0049,-183.5 425.3691,-183.5 425.3691,-165.5 361.0049,-165.5"/>
<text text-anchor="middle" x="393.187" y="-171.5" font-family="Helvetica,sans-Serif" font-size="10.00" fill="#000000">functions.h</text>
</a>
</g>
</g>
<!-- Node2&#45;&gt;Node9 -->
<g id="edge12" class="edge">
<title>Node2&#45;&gt;Node9</title>
<path fill="none" stroke="#191970" d="M549.3078,-220.4179C517.6782,-211.115 468.3543,-196.608 433.6275,-186.3943"/>
<polygon fill="#191970" stroke="#191970" points="434.3826,-182.9682 423.8013,-183.5042 432.4074,-189.6837 434.3826,-182.9682"/>
</g>
<!-- Node5&#45;&gt;Node3 -->
<g id="edge6" class="edge">
<title>Node5&#45;&gt;Node3</title>
<path fill="none" stroke="#191970" d="M938.1954,-165.4179C954.5213,-156.7001 979.406,-143.4122 998.2124,-133.3699"/>
<polygon fill="#191970" stroke="#191970" points="999.9809,-136.3934 1007.1534,-128.5956 996.6836,-130.2186 999.9809,-136.3934"/>
</g>
<!-- Node6&#45;&gt;Node3 -->
<g id="edge9" class="edge">
<title>Node6&#45;&gt;Node3</title>
<path fill="none" stroke="#191970" d="M619.1107,-166.5025C723.1198,-154.434 916.1079,-132.0408 992.1761,-123.2144"/>
<polygon fill="#191970" stroke="#191970" points="992.9964,-126.6427 1002.5263,-122.0134 992.1896,-119.6894 992.9964,-126.6427"/>
</g>
<!-- Node7 -->
<g id="node8" class="node">
<title>Node7</title>
<g id="a_node8"><a xlink:href="neighbourlist_8h.html" target="_top" xlink:title=" ">
<polygon fill="#ffffff" stroke="#000000" points="560.665,-110.5 560.665,-128.5 641.709,-128.5 641.709,-110.5 560.665,-110.5"/>
<text text-anchor="middle" x="601.187" y="-116.5" font-family="Helvetica,sans-Serif" font-size="10.00" fill="#000000">neighbourlist.h</text>
</a>
</g>
</g>
<!-- Node6&#45;&gt;Node7 -->
<g id="edge8" class="edge">
<title>Node6&#45;&gt;Node7</title>
<path fill="none" stroke="#191970" d="M558.6086,-165.4179C565.9468,-157.5041 576.7772,-145.8243 585.6783,-136.2251"/>
<polygon fill="#191970" stroke="#191970" points="588.3494,-138.492 592.5824,-128.7795 583.2165,-133.7324 588.3494,-138.492"/>
</g>
<!-- Node8&#45;&gt;Node4 -->
<g id="edge11" class="edge">
<title>Node8&#45;&gt;Node4</title>
<path fill="none" stroke="#191970" d="M712.4668,-165.4256C671.9393,-157.5443 612.5783,-145.2336 552.7042,-129.2196"/>
<polygon fill="#191970" stroke="#191970" points="553.2703,-125.7469 542.7031,-126.5108 551.4403,-132.5034 553.2703,-125.7469"/>
</g>
<!-- Node10 -->
<g id="node11" class="node">
<title>Node10</title>
<g id="a_node11"><a xlink:href="su3_8h.html" target="_top" xlink:title=" ">
<polygon fill="#ffffff" stroke="#000000" points="303.6748,-110.5 303.6748,-128.5 384.6992,-128.5 384.6992,-110.5 303.6748,-110.5"/>
<text text-anchor="middle" x="344.187" y="-116.5" font-family="Helvetica,sans-Serif" font-size="10.00" fill="#000000">matrices/su3.h</text>
</a>
</g>
</g>
<!-- Node9&#45;&gt;Node10 -->
<g id="edge13" class="edge">
<title>Node9&#45;&gt;Node10</title>
<path fill="none" stroke="#191970" d="M385.0957,-165.4179C378.1157,-157.5833 367.8474,-146.0575 359.3447,-136.5137"/>
<polygon fill="#191970" stroke="#191970" points="361.7196,-133.9178 352.4542,-128.7795 356.4929,-138.5743 361.7196,-133.9178"/>
</g>
<!-- Node11 -->
<g id="node12" class="node">
<title>Node11</title>
<g id="a_node12"><a xlink:href="complex_8h.html" target="_top" xlink:title=" ">
<polygon fill="#ffffff" stroke="#000000" points="300.894,-55.5 300.894,-73.5 387.48,-73.5 387.48,-55.5 300.894,-55.5"/>
<text text-anchor="middle" x="344.187" y="-61.5" font-family="Helvetica,sans-Serif" font-size="10.00" fill="#000000">math/complex.h</text>
</a>
</g>
</g>
<!-- Node9&#45;&gt;Node11 -->
<g id="edge18" class="edge">
<title>Node9&#45;&gt;Node11</title>
<path fill="none" stroke="#191970" d="M360.8804,-169.0421C337.9639,-163.3017 308.7838,-151.7732 294.187,-129 282.6886,-111.0607 301.9556,-91.939 319.8092,-79.2151"/>
<polygon fill="#191970" stroke="#191970" points="321.9578,-81.9886 328.3192,-73.5161 318.0627,-76.1724 321.9578,-81.9886"/>
</g>
<!-- Node13 -->
<g id="node14" class="node">
<title>Node13</title>
<g id="a_node14"><a xlink:href="su2_8h.html" target="_top" xlink:title=" ">
<polygon fill="#ffffff" stroke="#000000" points="402.6748,-110.5 402.6748,-128.5 483.6992,-128.5 483.6992,-110.5 402.6748,-110.5"/>
<text text-anchor="middle" x="443.187" y="-116.5" font-family="Helvetica,sans-Serif" font-size="10.00" fill="#000000">matrices/su2.h</text>
</a>
</g>
</g>
<!-- Node9&#45;&gt;Node13 -->
<g id="edge16" class="edge">
<title>Node9&#45;&gt;Node13</title>
<path fill="none" stroke="#191970" d="M401.4435,-165.4179C408.6378,-157.5041 419.2558,-145.8243 427.9824,-136.2251"/>
<polygon fill="#191970" stroke="#191970" points="430.6142,-138.5332 434.7511,-128.7795 425.4346,-133.8245 430.6142,-138.5332"/>
</g>
<!-- Node10&#45;&gt;Node11 -->
<g id="edge14" class="edge">
<title>Node10&#45;&gt;Node11</title>
<path fill="none" stroke="#191970" d="M344.187,-110.4179C344.187,-103.2164 344.187,-92.8962 344.187,-83.8632"/>
<polygon fill="#191970" stroke="#191970" points="347.6871,-83.7794 344.187,-73.7795 340.6871,-83.7795 347.6871,-83.7794"/>
</g>
<!-- Node12 -->
<g id="node13" class="node">
<title>Node12</title>
<g id="a_node13"><a xlink:title=" ">
<polygon fill="#ffffff" stroke="#bfbfbf" points="317.0146,-.5 317.0146,-18.5 371.3594,-18.5 371.3594,-.5 317.0146,-.5"/>
<text text-anchor="middle" x="344.187" y="-6.5" font-family="Helvetica,sans-Serif" font-size="10.00" fill="#000000">iostream</text>
</a>
</g>
</g>
<!-- Node11&#45;&gt;Node12 -->
<g id="edge15" class="edge">
<title>Node11&#45;&gt;Node12</title>
<path fill="none" stroke="#191970" d="M344.187,-55.4179C344.187,-48.2164 344.187,-37.8962 344.187,-28.8632"/>
<polygon fill="#191970" stroke="#191970" points="347.6871,-28.7794 344.187,-18.7795 340.6871,-28.7795 347.6871,-28.7794"/>
</g>
<!-- Node13&#45;&gt;Node11 -->
<g id="edge17" class="edge">
<title>Node13&#45;&gt;Node11</title>
<path fill="none" stroke="#191970" d="M426.8392,-110.4179C411.2189,-101.7399 387.4472,-88.5334 369.4008,-78.5077"/>
<polygon fill="#191970" stroke="#191970" points="371.0005,-75.3925 360.5591,-73.5956 367.601,-81.5117 371.0005,-75.3925"/>
</g>
<!-- Node14&#45;&gt;Node1 -->
<g id="edge36" class="edge">
<title>Node14&#45;&gt;Node1</title>
<path fill="none" stroke="#191970" d="M397.208,-403.5042C435.3838,-412.8575 492.3776,-427.5316 530.4533,-437.7826"/>
<polygon fill="#191970" stroke="#191970" points="529.6134,-441.1812 540.1807,-440.4179 531.4438,-434.4247 529.6134,-441.1812"/>
</g>
<!-- Node15 -->
<g id="node16" class="node">
<title>Node15</title>
<g id="a_node16"><a xlink:href="correlator_8h.html" target="_top" xlink:title=" ">
<polygon fill="#ffffff" stroke="#000000" points="573.1724,-275.5 573.1724,-293.5 639.2017,-293.5 639.2017,-275.5 573.1724,-275.5"/>
<text text-anchor="middle" x="606.187" y="-281.5" font-family="Helvetica,sans-Serif" font-size="10.00" fill="#000000">correlator.h</text>
</a>
</g>
</g>
<!-- Node14&#45;&gt;Node15 -->
<g id="edge20" class="edge">
<title>Node14&#45;&gt;Node15</title>
<path fill="none" stroke="#191970" d="M425.0212,-389.1737C511.1859,-381.7082 650.6379,-367.0064 666.187,-349 681.5612,-331.1962 656.8026,-311.5029 634.5862,-298.6173"/>
<polygon fill="#191970" stroke="#191970" points="636.1078,-295.4597 625.6598,-293.7017 632.7311,-301.5914 636.1078,-295.4597"/>
</g>
<!-- Node18 -->
<g id="node19" class="node">
<title>Node18</title>
<g id="a_node19"><a xlink:href="energydensity_8h.html" target="_top" xlink:title=" ">
<polygon fill="#ffffff" stroke="#000000" points="367.2554,-330.5 367.2554,-348.5 453.1187,-348.5 453.1187,-330.5 367.2554,-330.5"/>
<text text-anchor="middle" x="410.187" y="-336.5" font-family="Helvetica,sans-Serif" font-size="10.00" fill="#000000">energydensity.h</text>
</a>
</g>
</g>
<!-- Node14&#45;&gt;Node18 -->
<g id="edge26" class="edge">
<title>Node14&#45;&gt;Node18</title>
<path fill="none" stroke="#191970" d="M365.9389,-385.4179C373.5649,-377.5041 384.8199,-365.8243 394.0701,-356.2251"/>
<polygon fill="#191970" stroke="#191970" points="396.8263,-358.4089 401.245,-348.7795 391.7857,-353.5516 396.8263,-358.4089"/>
</g>
<!-- Node19 -->
<g id="node20" class="node">
<title>Node19</title>
<g id="a_node20"><a xlink:href="plaquette_8h.html" target="_top" xlink:title=" ">
<polygon fill="#ffffff" stroke="#000000" points="471.4434,-330.5 471.4434,-348.5 536.9307,-348.5 536.9307,-330.5 471.4434,-330.5"/>
<text text-anchor="middle" x="504.187" y="-336.5" font-family="Helvetica,sans-Serif" font-size="10.00" fill="#000000">plaquette.h</text>
</a>
</g>
</g>
<!-- Node14&#45;&gt;Node19 -->
<g id="edge29" class="edge">
<title>Node14&#45;&gt;Node19</title>
<path fill="none" stroke="#191970" d="M381.4611,-385.4179C405.7188,-376.3419 443.2159,-362.3123 470.3802,-352.1488"/>
<polygon fill="#191970" stroke="#191970" points="471.7375,-355.378 479.8769,-348.5956 469.2845,-348.8219 471.7375,-355.378"/>
</g>
<!-- Node20 -->
<g id="node21" class="node">
<title>Node20</title>
<g id="a_node21"><a xlink:href="topologicalcharge_8h.html" target="_top" xlink:title=" ">
<polygon fill="#ffffff" stroke="#000000" points="554.8228,-330.5 554.8228,-348.5 657.5513,-348.5 657.5513,-330.5 554.8228,-330.5"/>
<text text-anchor="middle" x="606.187" y="-336.5" font-family="Helvetica,sans-Serif" font-size="10.00" fill="#000000">topologicalcharge.h</text>
</a>
</g>
</g>
<!-- Node14&#45;&gt;Node20 -->
<g id="edge31" class="edge">
<title>Node14&#45;&gt;Node20</title>
<path fill="none" stroke="#191970" d="M398.0255,-385.4795C441.0858,-375.9681 508.9973,-360.9676 555.4627,-350.7042"/>
<polygon fill="#191970" stroke="#191970" points="556.3165,-354.1 565.3262,-348.5255 554.8067,-347.2648 556.3165,-354.1"/>
</g>
<!-- Node21 -->
<g id="node22" class="node">
<title>Node21</title>
<g id="a_node22"><a xlink:href="mastersampler_8h.html" target="_top" xlink:title=" ">
<polygon fill="#ffffff" stroke="#000000" points="259.2266,-330.5 259.2266,-348.5 349.1475,-348.5 349.1475,-330.5 259.2266,-330.5"/>
<text text-anchor="middle" x="304.187" y="-336.5" font-family="Helvetica,sans-Serif" font-size="10.00" fill="#000000">mastersampler.h</text>
</a>
</g>
</g>
<!-- Node14&#45;&gt;Node21 -->
<g id="edge33" class="edge">
<title>Node14&#45;&gt;Node21</title>
<path fill="none" stroke="#191970" d="M343.2688,-385.4179C334.0964,-377.5833 322.6141,-366.0575 314.2886,-356.5137"/>
<polygon fill="#191970" stroke="#191970" points="316.9799,-354.2759 307.9223,-348.7795 311.5753,-358.7246 316.9799,-354.2759"/>
</g>
<!-- Node22 -->
<g id="node23" class="node">
<title>Node22</title>
<g id="a_node23"><a xlink:href="latticeactionchargedensity_8h.html" target="_top" xlink:title=" ">
<polygon fill="#ffffff" stroke="#000000" points="102.8516,-330.5 102.8516,-348.5 241.5225,-348.5 241.5225,-330.5 102.8516,-330.5"/>
<text text-anchor="middle" x="172.187" y="-336.5" font-family="Helvetica,sans-Serif" font-size="10.00" fill="#000000">latticeactionchargedensity.h</text>
</a>
</g>
</g>
<!-- Node14&#45;&gt;Node22 -->
<g id="edge37" class="edge">
<title>Node14&#45;&gt;Node22</title>
<path fill="none" stroke="#191970" d="M321.4717,-385.4179C288.3962,-376.155 239.7087,-361.7325 206.9455,-351.526"/>
<polygon fill="#191970" stroke="#191970" points="207.9131,-348.1614 197.3238,-348.5042 205.8156,-354.8398 207.9131,-348.1614"/>
</g>
<!-- Node23 -->
<g id="node24" class="node">
<title>Node23</title>
<g id="a_node24"><a xlink:href="supersampler_8h.html" target="_top" xlink:title=" ">
<polygon fill="#ffffff" stroke="#000000" points="0,-330.5 0,-348.5 84.374,-348.5 84.374,-330.5 0,-330.5"/>
<text text-anchor="middle" x="42.187" y="-336.5" font-family="Helvetica,sans-Serif" font-size="10.00" fill="#000000">supersampler.h</text>
</a>
</g>
</g>
<!-- Node14&#45;&gt;Node23 -->
<g id="edge40" class="edge">
<title>Node14&#45;&gt;Node23</title>
<path fill="none" stroke="#191970" d="M297.4451,-385.495C244.6244,-376.8267 165.4596,-363.2311 92.6769,-350.328"/>
<polygon fill="#191970" stroke="#191970" points="92.9106,-346.8148 82.4527,-348.5125 91.6867,-353.707 92.9106,-346.8148"/>
</g>
<!-- Node15&#45;&gt;Node2 -->
<g id="edge21" class="edge">
<title>Node15&#45;&gt;Node2</title>
<path fill="none" stroke="#191970" d="M601.8936,-275.4179C598.3771,-267.9789 593.2874,-257.2123 588.9203,-247.9742"/>
<polygon fill="#191970" stroke="#191970" points="592.0118,-246.3243 584.5737,-238.7795 585.6833,-249.316 592.0118,-246.3243"/>
</g>
<!-- Node15&#45;&gt;Node3 -->
<g id="edge25" class="edge">
<title>Node15&#45;&gt;Node3</title>
<path fill="none" stroke="#191970" d="M639.3836,-279.0512C721.3239,-265.0875 930.5752,-226.1426 986.187,-184 1001.5241,-172.3776 1011.8316,-152.6233 1017.797,-138.0314"/>
<polygon fill="#191970" stroke="#191970" points="1021.1343,-139.1007 1021.3832,-128.5088 1014.5834,-136.6336 1021.1343,-139.1007"/>
</g>
<!-- Node16 -->
<g id="node17" class="node">
<title>Node16</title>
<g id="a_node17"><a xlink:href="observablestorer_8h.html" target="_top" xlink:title=" ">
<polygon fill="#ffffff" stroke="#000000" points="982.0986,-220.5 982.0986,-238.5 1104.2754,-238.5 1104.2754,-220.5 982.0986,-220.5"/>
<text text-anchor="middle" x="1043.187" y="-226.5" font-family="Helvetica,sans-Serif" font-size="10.00" fill="#000000">tools/observablestorer.h</text>
</a>
</g>
</g>
<!-- Node15&#45;&gt;Node16 -->
<g id="edge22" class="edge">
<title>Node15&#45;&gt;Node16</title>
<path fill="none" stroke="#191970" d="M639.6267,-280.3078C703.4858,-272.2997 847.2134,-254.2643 968.187,-239 969.2938,-238.8603 970.4099,-238.7195 971.5332,-238.5777"/>
<polygon fill="#191970" stroke="#191970" points="972.3103,-242.0074 981.7927,-237.2815 971.4328,-235.0626 972.3103,-242.0074"/>
</g>
<!-- Node16&#45;&gt;Node3 -->
<g id="edge24" class="edge">
<title>Node16&#45;&gt;Node3</title>
<path fill="none" stroke="#191970" d="M1041.6322,-220.4982C1038.5564,-202.6913 1031.6354,-162.6225 1027.495,-138.6515"/>
<polygon fill="#191970" stroke="#191970" points="1030.9144,-137.8845 1025.7633,-128.6261 1024.0166,-139.076 1030.9144,-137.8845"/>
</g>
<!-- Node17 -->
<g id="node18" class="node">
<title>Node17</title>
<g id="a_node18"><a xlink:title=" ">
<polygon fill="#ffffff" stroke="#bfbfbf" points="1159.9604,-165.5 1159.9604,-183.5 1200.4136,-183.5 1200.4136,-165.5 1159.9604,-165.5"/>
<text text-anchor="middle" x="1180.187" y="-171.5" font-family="Helvetica,sans-Serif" font-size="10.00" fill="#000000">string</text>
</a>
</g>
</g>
<!-- Node16&#45;&gt;Node17 -->
<g id="edge23" class="edge">
<title>Node16&#45;&gt;Node17</title>
<path fill="none" stroke="#191970" d="M1065.8098,-220.4179C1088.8899,-211.1521 1124.8302,-196.7236 1150.2549,-186.5165"/>
<polygon fill="#191970" stroke="#191970" points="1151.7931,-189.6706 1159.7692,-182.6969 1149.1852,-183.1745 1151.7931,-189.6706"/>
</g>
<!-- Node18&#45;&gt;Node9 -->
<g id="edge28" class="edge">
<title>Node18&#45;&gt;Node9</title>
<path fill="none" stroke="#191970" d="M409.2243,-330.1561C406.5243,-303.9504 398.8388,-229.3557 395.1757,-193.8021"/>
<polygon fill="#191970" stroke="#191970" points="398.6457,-193.33 394.1392,-183.7414 391.6826,-194.0475 398.6457,-193.33"/>
</g>
<!-- Node18&#45;&gt;Node15 -->
<g id="edge27" class="edge">
<title>Node18&#45;&gt;Node15</title>
<path fill="none" stroke="#191970" d="M442.5524,-330.4179C475.8466,-321.0751 527.8461,-306.4834 564.268,-296.263"/>
<polygon fill="#191970" stroke="#191970" points="565.4168,-299.5759 574.0993,-293.5042 563.5255,-292.8362 565.4168,-299.5759"/>
</g>
<!-- Node19&#45;&gt;Node15 -->
<g id="edge30" class="edge">
<title>Node19&#45;&gt;Node15</title>
<path fill="none" stroke="#191970" d="M521.0302,-330.4179C537.1977,-321.7001 561.8408,-308.4122 580.4646,-298.3699"/>
<polygon fill="#191970" stroke="#191970" points="582.178,-301.4225 589.3188,-293.5956 578.8556,-295.2611 582.178,-301.4225"/>
</g>
<!-- Node20&#45;&gt;Node15 -->
<g id="edge32" class="edge">
<title>Node20&#45;&gt;Node15</title>
<path fill="none" stroke="#191970" d="M606.187,-330.4179C606.187,-323.2164 606.187,-312.8962 606.187,-303.8632"/>
<polygon fill="#191970" stroke="#191970" points="609.6871,-303.7794 606.187,-293.7795 602.6871,-303.7795 609.6871,-303.7794"/>
</g>
<!-- Node21&#45;&gt;Node2 -->
<g id="edge34" class="edge">
<title>Node21&#45;&gt;Node2</title>
<path fill="none" stroke="#191970" d="M349.5138,-330.4473C404.4321,-319.2914 491.3658,-300.959 505.187,-294 529.0009,-282.0097 551.5144,-260.8408 565.5465,-246.0356"/>
<polygon fill="#191970" stroke="#191970" points="568.2266,-248.2919 572.4239,-238.564 563.0763,-243.5512 568.2266,-248.2919"/>
</g>
<!-- Node21&#45;&gt;Node14 -->
<g id="edge35" class="edge">
<title>Node21&#45;&gt;Node14</title>
<path fill="none" stroke="#191970" d="M318.3358,-348.7795C327.4534,-356.5956 338.7897,-367.9823 347.042,-377.4365"/>
<polygon fill="#191970" stroke="#191970" points="344.5481,-379.9145 353.6015,-385.4179 349.9561,-375.4699 344.5481,-379.9145"/>
</g>
<!-- Node22&#45;&gt;Node2 -->
<g id="edge38" class="edge">
<title>Node22&#45;&gt;Node2</title>
<path fill="none" stroke="#191970" d="M237.292,-330.4916C316.2188,-319.3824 441.32,-301.0993 462.187,-294 481.134,-287.5539 527.6272,-260.813 556.2728,-243.8516"/>
<polygon fill="#191970" stroke="#191970" points="558.0836,-246.8469 564.8887,-238.7264 554.5049,-240.8308 558.0836,-246.8469"/>
</g>
<!-- Node22&#45;&gt;Node14 -->
<g id="edge39" class="edge">
<title>Node22&#45;&gt;Node14</title>
<path fill="none" stroke="#191970" d="M207.624,-348.5042C240.6116,-357.7381 289.2997,-372.1578 322.1521,-382.3879"/>
<polygon fill="#191970" stroke="#191970" points="321.2151,-385.7621 331.8043,-385.4179 323.3117,-379.0834 321.2151,-385.7621"/>
</g>
<!-- Node23&#45;&gt;Node2 -->
<g id="edge41" class="edge">
<title>Node23&#45;&gt;Node2</title>
<path fill="none" stroke="#191970" d="M84.403,-330.8685C183.0514,-310.6987 428.184,-260.5787 532.2459,-239.3021"/>
<polygon fill="#191970" stroke="#191970" points="533.0655,-242.707 542.1617,-237.2747 531.6632,-235.8489 533.0655,-242.707"/>
</g>
<!-- Node23&#45;&gt;Node14 -->
<g id="edge42" class="edge">
<title>Node23&#45;&gt;Node14</title>
<path fill="none" stroke="#191970" d="M84.5914,-345.6787C90.8788,-346.7943 97.2236,-347.9394 103.187,-349 171.4063,-361.1324 249.6614,-374.6153 301.1597,-383.7317"/>
<polygon fill="#191970" stroke="#191970" points="300.6338,-387.1929 311.0916,-385.495 301.8575,-380.3007 300.6338,-387.1929"/>
</g>
<!-- Node24 -->
<g id="node25" class="node">
<title>Node24</title>
<g id="a_node25"><a xlink:title=" ">
<polygon fill="#ffffff" stroke="#bfbfbf" points="24.4604,-275.5 24.4604,-293.5 59.9136,-293.5 59.9136,-275.5 24.4604,-275.5"/>
<text text-anchor="middle" x="42.187" y="-281.5" font-family="Helvetica,sans-Serif" font-size="10.00" fill="#000000">map</text>
</a>
</g>
</g>
<!-- Node23&#45;&gt;Node24 -->
<g id="edge43" class="edge">
<title>Node23&#45;&gt;Node24</title>
<path fill="none" stroke="#191970" d="M42.187,-330.4179C42.187,-323.2164 42.187,-312.8962 42.187,-303.8632"/>
<polygon fill="#191970" stroke="#191970" points="45.6871,-303.7794 42.187,-293.7795 38.6871,-303.7795 45.6871,-303.7794"/>
</g>
<!-- Node26&#45;&gt;Node2 -->
<g id="edge47" class="edge">
<title>Node26&#45;&gt;Node2</title>
<path fill="none" stroke="#191970" d="M742.9867,-275.4179C709.8624,-266.0751 658.1282,-251.4834 621.8921,-241.263"/>
<polygon fill="#191970" stroke="#191970" points="622.6857,-237.8503 612.111,-238.5042 620.7854,-244.5875 622.6857,-237.8503"/>
</g>
<!-- Node26&#45;&gt;Node3 -->
<g id="edge46" class="edge">
<title>Node26&#45;&gt;Node3</title>
<path fill="none" stroke="#191970" d="M850.5715,-279.544C944.8822,-272.5622 1096.1598,-258.4729 1113.187,-239 1144.5819,-203.0956 1084.5895,-156.9232 1048.562,-133.8971"/>
<polygon fill="#191970" stroke="#191970" points="1050.3285,-130.874 1039.989,-128.562 1046.63,-136.8172 1050.3285,-130.874"/>
</g>
<!-- Node27&#45;&gt;Node3 -->
<g id="edge50" class="edge">
<title>Node27&#45;&gt;Node3</title>
<path fill="none" stroke="#191970" d="M1138.0586,-440.452C1198.1426,-422.4431 1322.187,-380.3202 1322.187,-339.5 1322.187,-339.5 1322.187,-339.5 1322.187,-229.5 1322.187,-173.2738 1133.1226,-136.8293 1056.181,-124.3259"/>
<polygon fill="#191970" stroke="#191970" points="1056.5256,-120.8368 1046.0997,-122.7209 1055.425,-127.7497 1056.5256,-120.8368"/>
</g>
<!-- Node27&#45;&gt;Node17 -->
<g id="edge49" class="edge">
<title>Node27&#45;&gt;Node17</title>
<path fill="none" stroke="#191970" d="M1118.1833,-440.2741C1128.3488,-431.857 1142.6037,-418.5434 1151.187,-404 1166.3764,-378.2635 1170.187,-369.3846 1170.187,-339.5 1170.187,-339.5 1170.187,-339.5 1170.187,-284.5 1170.187,-252.4941 1174.4378,-215.4642 1177.3965,-193.5663"/>
<polygon fill="#191970" stroke="#191970" points="1180.8711,-193.991 1178.7966,-183.6012 1173.9392,-193.017 1180.8711,-193.991"/>
</g>
<!-- Node28 -->
<g id="node29" class="node">
<title>Node28</title>
<g id="a_node29"><a xlink:href="sysprint_8h.html" target="_top" xlink:title=" ">
<polygon fill="#ffffff" stroke="#000000" points="1054.0591,-385.5 1054.0591,-403.5 1142.3149,-403.5 1142.3149,-385.5 1054.0591,-385.5"/>
<text text-anchor="middle" x="1098.187" y="-391.5" font-family="Helvetica,sans-Serif" font-size="10.00" fill="#000000">config/sysprint.h</text>
</a>
</g>
</g>
<!-- Node27&#45;&gt;Node28 -->
<g id="edge51" class="edge">
<title>Node27&#45;&gt;Node28</title>
<path fill="none" stroke="#191970" d="M1099.6997,-440.4179C1097.1606,-433.2164 1095.2215,-422.8962 1094.5233,-413.8632"/>
<polygon fill="#191970" stroke="#191970" points="1098.0211,-413.7105 1094.33,-403.7795 1091.0224,-413.8447 1098.0211,-413.7105"/>
</g>
<!-- Node28&#45;&gt;Node27 -->
<g id="edge52" class="edge">
<title>Node28&#45;&gt;Node27</title>
<path fill="none" stroke="#191970" d="M1104.7435,-403.7795C1107.2716,-411.0373 1109.1939,-421.3738 1109.8695,-430.383"/>
<polygon fill="#191970" stroke="#191970" points="1106.3705,-430.476 1110.0323,-440.4179 1113.3695,-430.3624 1106.3705,-430.476"/>
</g>
<!-- Node29 -->
<g id="node30" class="node">
<title>Node29</title>
<g id="a_node30"><a xlink:href="parallel_8h.html" target="_top" xlink:title=" ">
<polygon fill="#ffffff" stroke="#000000" points="836.9336,-330.5 836.9336,-348.5 957.4404,-348.5 957.4404,-330.5 836.9336,-330.5"/>
<text text-anchor="middle" x="897.187" y="-336.5" font-family="Helvetica,sans-Serif" font-size="10.00" fill="#000000">parallelization/parallel.h</text>
</a>
</g>
</g>
<!-- Node28&#45;&gt;Node29 -->
<g id="edge53" class="edge">
<title>Node28&#45;&gt;Node29</title>
<path fill="none" stroke="#191970" d="M1064.9959,-385.4179C1030.8525,-376.0751 977.5264,-361.4834 940.1754,-351.263"/>
<polygon fill="#191970" stroke="#191970" points="940.6625,-347.7677 930.0933,-348.5042 938.815,-354.5195 940.6625,-347.7677"/>
</g>
<!-- Node29&#45;&gt;Node5 -->
<g id="edge55" class="edge">
<title>Node29&#45;&gt;Node5</title>
<path fill="none" stroke="#191970" d="M898.5461,-330.1561C902.3579,-303.9504 913.208,-229.3557 918.3794,-193.8021"/>
<polygon fill="#191970" stroke="#191970" points="921.8669,-194.1411 919.8428,-183.7414 914.9398,-193.1334 921.8669,-194.1411"/>
</g>
<!-- Node29&#45;&gt;Node8 -->
<g id="edge56" class="edge">
<title>Node29&#45;&gt;Node8</title>
<path fill="none" stroke="#191970" d="M892.6661,-330.3043C886.1192,-317.3837 873.2355,-293.3803 859.187,-275 834.3642,-242.5229 799.9981,-209.4596 779.251,-190.5208"/>
<polygon fill="#191970" stroke="#191970" points="781.5308,-187.8637 771.763,-183.7599 776.8397,-193.0593 781.5308,-187.8637"/>
</g>
<!-- Node29&#45;&gt;Node26 -->
<g id="edge54" class="edge">
<title>Node29&#45;&gt;Node26</title>
<path fill="none" stroke="#191970" d="M877.0412,-330.4179C857.3504,-321.5409 827.1485,-307.9253 804.7397,-297.823"/>
<polygon fill="#191970" stroke="#191970" points="805.9177,-294.5148 795.3628,-293.5956 803.0407,-300.8963 805.9177,-294.5148"/>
</g>
<!-- Node30&#45;&gt;Node3 -->
<g id="edge59" class="edge">
<title>Node30&#45;&gt;Node3</title>
<path fill="none" stroke="#191970" d="M1243.5555,-220.4552C1238.9737,-206.3597 1228.1603,-179.2914 1209.187,-165 1185.2286,-146.9536 1102.3577,-131.6397 1056.0774,-124.2448"/>
<polygon fill="#191970" stroke="#191970" points="1056.3946,-120.7519 1045.9736,-122.6633 1055.3121,-127.6677 1056.3946,-120.7519"/>
</g>
<!-- Node30&#45;&gt;Node17 -->
<g id="edge58" class="edge">
<title>Node30&#45;&gt;Node17</title>
<path fill="none" stroke="#191970" d="M1235.2885,-220.4179C1225.5071,-212.2667 1210.9312,-200.1201 1199.2273,-190.3669"/>
<polygon fill="#191970" stroke="#191970" points="1201.2453,-187.4926 1191.3224,-183.7795 1196.7639,-192.8701 1201.2453,-187.4926"/>
</g>
</g>
</svg>
