<?xml version="1.0" encoding="UTF-8" standalone="no"?>
<!DOCTYPE svg PUBLIC "-//W3C//DTD SVG 1.1//EN"
 "http://www.w3.org/Graphics/SVG/1.1/DTD/svg11.dtd">
<!-- Generated by graphviz version 2.40.1 (20161225.0304)
 -->
<!-- Title: IO::writeMatrixToFile Pages: 1 -->
<svg width="297pt" height="343pt"
 viewBox="0.00 0.00 296.63 343.00" xmlns="http://www.w3.org/2000/svg" xmlns:xlink="http://www.w3.org/1999/xlink">
<g id="graph0" class="graph" transform="scale(1 1) rotate(0) translate(4 339)">
<title>IO::writeMatrixToFile</title>
<polygon fill="#ffffff" stroke="transparent" points="-4,4 -4,-339 292.6299,-339 292.6299,4 -4,4"/>
<!-- Node17 -->
<g id="node1" class="node">
<title>Node17</title>
<g id="a_node1"><a xlink:title=" ">
<polygon fill="#bfbfbf" stroke="#000000" points="0,-148.5 0,-166.5 107.123,-166.5 107.123,-148.5 0,-148.5"/>
<text text-anchor="middle" x="53.5615" y="-154.5" font-family="Helvetica,sans-Serif" font-size="10.00" fill="#000000">IO::writeMatrixToFile</text>
</a>
</g>
</g>
<!-- Node18 -->
<g id="node2" class="node">
<title>Node18</title>
<g id="a_node2"><a xlink:href="class_parallel_1_1_communicator.html#a474ab433da0e83ef372d74e26a7e5cb0" target="_top" xlink:title=" ">
<polygon fill="#ffffff" stroke="#000000" points="155.9136,-306.5 155.9136,-334.5 275.8394,-334.5 275.8394,-306.5 155.9136,-306.5"/>
<text text-anchor="start" x="163.9136" y="-322.5" font-family="Helvetica,sans-Serif" font-size="10.00" fill="#000000">Parallel::Communicator</text>
<text text-anchor="middle" x="215.8765" y="-312.5" font-family="Helvetica,sans-Serif" font-size="10.00" fill="#000000">::getProcessRank</text>
</a>
</g>
</g>
<!-- Node17&#45;&gt;Node18 -->
<g id="edge1" class="edge">
<title>Node17&#45;&gt;Node18</title>
<path fill="none" stroke="#191970" d="M56.8028,-166.5694C66.1357,-191.3875 95.4891,-260.9917 143.123,-297.5 144.9597,-298.9077 146.8845,-300.2304 148.8768,-301.4731"/>
<polygon fill="#191970" stroke="#191970" points="147.5238,-304.7214 157.9808,-306.4251 150.8687,-298.5722 147.5238,-304.7214"/>
</g>
<!-- Node19 -->
<g id="node3" class="node">
<title>Node19</title>
<g id="a_node3"><a xlink:href="class_parameters.html#a96dbafc27f287de83dfaec3bc2d45efe" target="_top" xlink:title=" ">
<polygon fill="#ffffff" stroke="#000000" points="145.3496,-269.5 145.3496,-287.5 286.4033,-287.5 286.4033,-269.5 145.3496,-269.5"/>
<text text-anchor="middle" x="215.8765" y="-275.5" font-family="Helvetica,sans-Serif" font-size="10.00" fill="#000000">Parameters::getFlowEpsilon</text>
</a>
</g>
</g>
<!-- Node17&#45;&gt;Node19 -->
<g id="edge2" class="edge">
<title>Node17&#45;&gt;Node19</title>
<path fill="none" stroke="#191970" d="M58.7391,-166.5806C70.7694,-186.8172 102.6896,-235.7763 143.123,-260.5 146.3076,-262.4472 149.692,-264.1841 153.1916,-265.7333"/>
<polygon fill="#191970" stroke="#191970" points="152.0767,-269.0549 162.6656,-269.4113 154.6101,-262.5294 152.0767,-269.0549"/>
</g>
<!-- Node20 -->
<g id="node4" class="node">
<title>Node20</title>
<g id="a_node4"><a xlink:href="class_parameters.html#a58f15668b37e705d34d6588e287e4bc0" target="_top" xlink:title=" ">
<polygon fill="#ffffff" stroke="#000000" points="147.293,-222.5 147.293,-250.5 284.46,-250.5 284.46,-222.5 147.293,-222.5"/>
<text text-anchor="start" x="155.293" y="-238.5" font-family="Helvetica,sans-Serif" font-size="10.00" fill="#000000">Parameters::getConfigStart</text>
<text text-anchor="middle" x="215.8765" y="-228.5" font-family="Helvetica,sans-Serif" font-size="10.00" fill="#000000">Number</text>
</a>
</g>
</g>
<!-- Node17&#45;&gt;Node20 -->
<g id="edge3" class="edge">
<title>Node17&#45;&gt;Node20</title>
<path fill="none" stroke="#191970" d="M65.7489,-166.5251C82.4766,-178.5764 113.8196,-199.9723 143.123,-213.5 147.2255,-215.3938 151.5262,-217.1913 155.8997,-218.8845"/>
<polygon fill="#191970" stroke="#191970" points="154.9476,-222.2633 165.5413,-222.4215 157.3585,-215.6915 154.9476,-222.2633"/>
</g>
<!-- Node21 -->
<g id="node5" class="node">
<title>Node21</title>
<g id="a_node5"><a xlink:href="class_parameters.html#afa4cfe5dc4302b1e8f8928606ea9b056" target="_top" xlink:title=" ">
<polygon fill="#ffffff" stroke="#000000" points="143.123,-185.5 143.123,-203.5 288.6299,-203.5 288.6299,-185.5 143.123,-185.5"/>
<text text-anchor="middle" x="215.8765" y="-191.5" font-family="Helvetica,sans-Serif" font-size="10.00" fill="#000000">Parameters::getOutputFolder</text>
</a>
</g>
</g>
<!-- Node17&#45;&gt;Node21 -->
<g id="edge4" class="edge">
<title>Node17&#45;&gt;Node21</title>
<path fill="none" stroke="#191970" d="M93.2682,-166.5512C115.359,-171.5869 143.0508,-177.8992 166.5251,-183.2503"/>
<polygon fill="#191970" stroke="#191970" points="165.7709,-186.6681 176.2987,-185.4782 167.3267,-179.8431 165.7709,-186.6681"/>
</g>
<!-- Node22 -->
<g id="node6" class="node">
<title>Node22</title>
<g id="a_node6"><a xlink:href="class_parameters.html#a181a773d23fdb19d0c4f35e6cf2d5649" target="_top" xlink:title=" ">
<polygon fill="#ffffff" stroke="#000000" points="146.1821,-148.5 146.1821,-166.5 285.5708,-166.5 285.5708,-148.5 146.1821,-148.5"/>
<text text-anchor="middle" x="215.8765" y="-154.5" font-family="Helvetica,sans-Serif" font-size="10.00" fill="#000000">Parameters::getBatchName</text>
</a>
</g>
</g>
<!-- Node17&#45;&gt;Node22 -->
<g id="edge5" class="edge">
<title>Node17&#45;&gt;Node22</title>
<path fill="none" stroke="#191970" d="M107.1593,-157.5C116.4115,-157.5 126.2059,-157.5 135.9761,-157.5"/>
<polygon fill="#191970" stroke="#191970" points="136.1251,-161.0001 146.125,-157.5 136.125,-154.0001 136.1251,-161.0001"/>
</g>
<!-- Node23 -->
<g id="node7" class="node">
<title>Node23</title>
<g id="a_node7"><a xlink:href="class_parameters.html#abace4edb8ece38841b58c5ce6168cbc4" target="_top" xlink:title=" ">
<polygon fill="#ffffff" stroke="#000000" points="153.9629,-111.5 153.9629,-129.5 277.79,-129.5 277.79,-111.5 153.9629,-111.5"/>
<text text-anchor="middle" x="215.8765" y="-117.5" font-family="Helvetica,sans-Serif" font-size="10.00" fill="#000000">Parameters::getFilePath</text>
</a>
</g>
</g>
<!-- Node17&#45;&gt;Node23 -->
<g id="edge6" class="edge">
<title>Node17&#45;&gt;Node23</title>
<path fill="none" stroke="#191970" d="M93.2682,-148.4488C115.359,-143.4131 143.0508,-137.1008 166.5251,-131.7497"/>
<polygon fill="#191970" stroke="#191970" points="167.3267,-135.1569 176.2987,-129.5218 165.7709,-128.3319 167.3267,-135.1569"/>
</g>
<!-- Node24 -->
<g id="node8" class="node">
<title>Node24</title>
<g id="a_node8"><a xlink:href="class_parameters.html#ae5c64523dc50dca13b417fe3d9e4175c" target="_top" xlink:title=" ">
<polygon fill="#ffffff" stroke="#000000" points="162.0195,-74.5 162.0195,-92.5 269.7334,-92.5 269.7334,-74.5 162.0195,-74.5"/>
<text text-anchor="middle" x="215.8765" y="-80.5" font-family="Helvetica,sans-Serif" font-size="10.00" fill="#000000">Parameters::getBeta</text>
</a>
</g>
</g>
<!-- Node17&#45;&gt;Node24 -->
<g id="edge7" class="edge">
<title>Node17&#45;&gt;Node24</title>
<path fill="none" stroke="#191970" d="M65.6794,-148.4342C82.3285,-136.3693 113.5826,-115.0972 143.123,-102.5 149.3354,-99.8508 156.0081,-97.4964 162.7013,-95.4259"/>
<polygon fill="#191970" stroke="#191970" points="163.8409,-98.7397 172.4712,-92.5941 161.8921,-92.0164 163.8409,-98.7397"/>
</g>
<!-- Node25 -->
<g id="node9" class="node">
<title>Node25</title>
<g id="a_node9"><a xlink:href="class_parameters.html#aae314edb18d426571ab7b6df60da70aa" target="_top" xlink:title=" ">
<polygon fill="#ffffff" stroke="#000000" points="155.6377,-37.5 155.6377,-55.5 276.1152,-55.5 276.1152,-37.5 155.6377,-37.5"/>
<text text-anchor="middle" x="215.8765" y="-43.5" font-family="Helvetica,sans-Serif" font-size="10.00" fill="#000000">Parameters::getNFlows</text>
</a>
</g>
</g>
<!-- Node17&#45;&gt;Node25 -->
<g id="edge8" class="edge">
<title>Node17&#45;&gt;Node25</title>
<path fill="none" stroke="#191970" d="M59.7922,-148.3298C72.9242,-129.7313 105.364,-87.4788 143.123,-65.5 147.3433,-63.0435 151.8836,-60.8991 156.5603,-59.0283"/>
<polygon fill="#191970" stroke="#191970" points="158.0479,-62.2138 166.2925,-55.5596 155.6978,-55.6201 158.0479,-62.2138"/>
</g>
<!-- Node26 -->
<g id="node10" class="node">
<title>Node26</title>
<g id="a_node10"><a xlink:href="class_parameters.html#a07453f20719f54f9fd6f72d311638b39" target="_top" xlink:title=" ">
<polygon fill="#ffffff" stroke="#000000" points="153.9556,-.5 153.9556,-18.5 277.7974,-18.5 277.7974,-.5 153.9556,-.5"/>
<text text-anchor="middle" x="215.8765" y="-6.5" font-family="Helvetica,sans-Serif" font-size="10.00" fill="#000000">Parameters::getVerbose</text>
</a>
</g>
</g>
<!-- Node17&#45;&gt;Node26 -->
<g id="edge9" class="edge">
<title>Node17&#45;&gt;Node26</title>
<path fill="none" stroke="#191970" d="M57.207,-148.3398C67.1436,-124.593 97.0779,-60.6603 143.123,-28.5 146.4006,-26.2107 149.9352,-24.1973 153.6184,-22.4265"/>
<polygon fill="#191970" stroke="#191970" points="155.1365,-25.5856 163.0182,-18.5053 152.4415,-19.1252 155.1365,-25.5856"/>
</g>
</g>
</svg>
