<?xml version="1.0" encoding="UTF-8" standalone="no"?>
<!DOCTYPE svg PUBLIC "-//W3C//DTD SVG 1.1//EN"
 "http://www.w3.org/Graphics/SVG/1.1/DTD/svg11.dtd">
<!-- Generated by graphviz version 2.40.1 (20161225.0304)
 -->
<!-- Title: GluonicLQCD/parallelization/neighbourlist.cpp Pages: 1 -->
<svg width="231pt" height="92pt"
 viewBox="0.00 0.00 231.03 92.00" xmlns="http://www.w3.org/2000/svg" xmlns:xlink="http://www.w3.org/1999/xlink">
<g id="graph0" class="graph" transform="scale(1 1) rotate(0) translate(4 88)">
<title>GluonicLQCD/parallelization/neighbourlist.cpp</title>
<polygon fill="#ffffff" stroke="transparent" points="-4,4 -4,-88 227.0317,-88 227.0317,4 -4,4"/>
<!-- Node0 -->
<g id="node1" class="node">
<title>Node0</title>
<g id="a_node1"><a xlink:title=" ">
<polygon fill="#bfbfbf" stroke="#000000" points="55.7144,-55.5 55.7144,-83.5 197.3296,-83.5 197.3296,-55.5 55.7144,-55.5"/>
<text text-anchor="start" x="63.7144" y="-71.5" font-family="Helvetica,sans-Serif" font-size="10.00" fill="#000000">GluonicLQCD/parallelization</text>
<text text-anchor="middle" x="126.522" y="-61.5" font-family="Helvetica,sans-Serif" font-size="10.00" fill="#000000">/neighbourlist.cpp</text>
</a>
</g>
</g>
<!-- Node1 -->
<g id="node2" class="node">
<title>Node1</title>
<g id="a_node2"><a xlink:href="neighbourlist_8h.html" target="_top" xlink:title=" ">
<polygon fill="#ffffff" stroke="#000000" points="0,-.5 0,-18.5 81.0439,-18.5 81.0439,-.5 0,-.5"/>
<text text-anchor="middle" x="40.522" y="-6.5" font-family="Helvetica,sans-Serif" font-size="10.00" fill="#000000">neighbourlist.h</text>
</a>
</g>
</g>
<!-- Node0&#45;&gt;Node1 -->
<g id="edge1" class="edge">
<title>Node0&#45;&gt;Node1</title>
<path fill="none" stroke="#191970" d="M106.1412,-55.2808C92.7767,-45.9568 75.337,-33.7895 61.796,-24.3423"/>
<polygon fill="#191970" stroke="#191970" points="63.7466,-21.4356 53.5426,-18.5842 59.7413,-27.1765 63.7466,-21.4356"/>
</g>
<!-- Node2 -->
<g id="node3" class="node">
<title>Node2</title>
<g id="a_node3"><a xlink:title=" ">
<polygon fill="#ffffff" stroke="#bfbfbf" points="99.3496,-.5 99.3496,-18.5 153.6943,-18.5 153.6943,-.5 99.3496,-.5"/>
<text text-anchor="middle" x="126.522" y="-6.5" font-family="Helvetica,sans-Serif" font-size="10.00" fill="#000000">iostream</text>
</a>
</g>
</g>
<!-- Node0&#45;&gt;Node2 -->
<g id="edge2" class="edge">
<title>Node0&#45;&gt;Node2</title>
<path fill="none" stroke="#191970" d="M126.522,-55.2808C126.522,-47.3776 126.522,-37.4316 126.522,-28.8308"/>
<polygon fill="#191970" stroke="#191970" points="130.0221,-28.5842 126.522,-18.5842 123.0221,-28.5842 130.0221,-28.5842"/>
</g>
<!-- Node3 -->
<g id="node4" class="node">
<title>Node3</title>
<g id="a_node4"><a xlink:title=" ">
<polygon fill="#ffffff" stroke="#bfbfbf" points="172.0122,-.5 172.0122,-18.5 223.0317,-18.5 223.0317,-.5 172.0122,-.5"/>
<text text-anchor="middle" x="197.522" y="-6.5" font-family="Helvetica,sans-Serif" font-size="10.00" fill="#000000">iomanip</text>
</a>
</g>
</g>
<!-- Node0&#45;&gt;Node3 -->
<g id="edge3" class="edge">
<title>Node0&#45;&gt;Node3</title>
<path fill="none" stroke="#191970" d="M143.348,-55.2808C154.0662,-46.2232 167.9594,-34.4825 178.9926,-25.1586"/>
<polygon fill="#191970" stroke="#191970" points="181.3935,-27.7121 186.7723,-18.5842 176.8753,-22.3655 181.3935,-27.7121"/>
</g>
</g>
</svg>
