<?xml version="1.0" encoding="UTF-8" standalone="no"?>
<!DOCTYPE svg PUBLIC "-//W3C//DTD SVG 1.1//EN"
 "http://www.w3.org/Graphics/SVG/1.1/DTD/svg11.dtd">
<!-- Generated by graphviz version 2.40.1 (20161225.0304)
 -->
<!-- Title: GluonicLQCD/io/observablesio.cpp Pages: 1 -->
<svg width="912pt" height="522pt"
 viewBox="0.00 0.00 911.51 522.00" xmlns="http://www.w3.org/2000/svg" xmlns:xlink="http://www.w3.org/1999/xlink">
<g id="graph0" class="graph" transform="scale(1 1) rotate(0) translate(4 518)">
<title>GluonicLQCD/io/observablesio.cpp</title>
<polygon fill="#ffffff" stroke="transparent" points="-4,4 -4,-518 907.5122,-518 907.5122,4 -4,4"/>
<!-- Node0 -->
<g id="node1" class="node">
<title>Node0</title>
<g id="a_node1"><a xlink:title=" ">
<polygon fill="#bfbfbf" stroke="#000000" points="204.1826,-495.5 204.1826,-513.5 375.8174,-513.5 375.8174,-495.5 204.1826,-495.5"/>
<text text-anchor="middle" x="290" y="-501.5" font-family="Helvetica,sans-Serif" font-size="10.00" fill="#000000">GluonicLQCD/io/observablesio.cpp</text>
</a>
</g>
</g>
<!-- Node1 -->
<g id="node2" class="node">
<title>Node1</title>
<g id="a_node2"><a xlink:href="observablesio_8h.html" target="_top" xlink:title=" ">
<polygon fill="#ffffff" stroke="#000000" points="42.978,-440.5 42.978,-458.5 129.022,-458.5 129.022,-440.5 42.978,-440.5"/>
<text text-anchor="middle" x="86" y="-446.5" font-family="Helvetica,sans-Serif" font-size="10.00" fill="#000000">observablesio.h</text>
</a>
</g>
</g>
<!-- Node0&#45;&gt;Node1 -->
<g id="edge1" class="edge">
<title>Node0&#45;&gt;Node1</title>
<path fill="none" stroke="#191970" d="M256.3135,-495.4179C221.5124,-486.0352 167.0755,-471.3586 129.1449,-461.1322"/>
<polygon fill="#191970" stroke="#191970" points="129.9638,-457.7281 119.3974,-458.5042 128.1416,-464.4867 129.9638,-457.7281"/>
</g>
<!-- Node3 -->
<g id="node4" class="node">
<title>Node3</title>
<g id="a_node4"><a xlink:title=" ">
<polygon fill="#ffffff" stroke="#bfbfbf" points="130.3843,-110.5 130.3843,-128.5 173.6157,-128.5 173.6157,-110.5 130.3843,-110.5"/>
<text text-anchor="middle" x="152" y="-116.5" font-family="Helvetica,sans-Serif" font-size="10.00" fill="#000000">vector</text>
</a>
</g>
</g>
<!-- Node0&#45;&gt;Node3 -->
<g id="edge35" class="edge">
<title>Node0&#45;&gt;Node3</title>
<path fill="none" stroke="#191970" d="M203.8877,-497.3169C140.4074,-490.5424 60.6571,-478.4683 34,-459 7.8304,-439.8878 0,-426.9056 0,-394.5 0,-394.5 0,-394.5 0,-229.5 0,-170.5706 75.9067,-139.9963 120.4377,-127.1301"/>
<polygon fill="#191970" stroke="#191970" points="121.5073,-130.466 130.2221,-124.4408 119.6521,-123.7163 121.5073,-130.466"/>
</g>
<!-- Node4 -->
<g id="node5" class="node">
<title>Node4</title>
<g id="a_node5"><a xlink:href="parameters_8h.html" target="_top" xlink:title=" ">
<polygon fill="#ffffff" stroke="#000000" points="153.8105,-440.5 153.8105,-458.5 258.1895,-458.5 258.1895,-440.5 153.8105,-440.5"/>
<text text-anchor="middle" x="206" y="-446.5" font-family="Helvetica,sans-Serif" font-size="10.00" fill="#000000">config/parameters.h</text>
</a>
</g>
</g>
<!-- Node0&#45;&gt;Node4 -->
<g id="edge4" class="edge">
<title>Node0&#45;&gt;Node4</title>
<path fill="none" stroke="#191970" d="M276.1291,-495.4179C263.2403,-486.9788 243.8106,-474.257 228.6686,-464.3426"/>
<polygon fill="#191970" stroke="#191970" points="230.175,-461.1454 219.8915,-458.5956 226.3404,-467.0017 230.175,-461.1454"/>
</g>
<!-- Node7 -->
<g id="node8" class="node">
<title>Node7</title>
<g id="a_node8"><a xlink:href="communicator_8h.html" target="_top" xlink:title=" ">
<polygon fill="#ffffff" stroke="#000000" points="213.7046,-275.5 213.7046,-293.5 300.2954,-293.5 300.2954,-275.5 213.7046,-275.5"/>
<text text-anchor="middle" x="257" y="-281.5" font-family="Helvetica,sans-Serif" font-size="10.00" fill="#000000">communicator.h</text>
</a>
</g>
</g>
<!-- Node0&#45;&gt;Node7 -->
<g id="edge31" class="edge">
<title>Node0&#45;&gt;Node7</title>
<path fill="none" stroke="#191970" d="M289.6153,-495.3219C288.3897,-469.2117 283.8704,-392.3771 271,-330 269.1652,-321.1077 266.327,-311.4682 263.6844,-303.3604"/>
<polygon fill="#191970" stroke="#191970" points="266.9581,-302.116 260.424,-293.7759 260.331,-304.3703 266.9581,-302.116"/>
</g>
<!-- Node19 -->
<g id="node20" class="node">
<title>Node19</title>
<g id="a_node20"><a xlink:title=" ">
<polygon fill="#ffffff" stroke="#bfbfbf" points="318.3843,-440.5 318.3843,-458.5 361.6157,-458.5 361.6157,-440.5 318.3843,-440.5"/>
<text text-anchor="middle" x="340" y="-446.5" font-family="Helvetica,sans-Serif" font-size="10.00" fill="#000000">cmath</text>
</a>
</g>
</g>
<!-- Node0&#45;&gt;Node19 -->
<g id="edge32" class="edge">
<title>Node0&#45;&gt;Node19</title>
<path fill="none" stroke="#191970" d="M298.2565,-495.4179C305.4508,-487.5041 316.0688,-475.8243 324.7954,-466.2251"/>
<polygon fill="#191970" stroke="#191970" points="327.4272,-468.5332 331.5641,-458.7795 322.2476,-463.8245 327.4272,-468.5332"/>
</g>
<!-- Node20 -->
<g id="node21" class="node">
<title>Node20</title>
<g id="a_node21"><a xlink:title=" ">
<polygon fill="#ffffff" stroke="#bfbfbf" points="379.3301,-440.5 379.3301,-458.5 428.6699,-458.5 428.6699,-440.5 379.3301,-440.5"/>
<text text-anchor="middle" x="404" y="-446.5" font-family="Helvetica,sans-Serif" font-size="10.00" fill="#000000">fstream</text>
</a>
</g>
</g>
<!-- Node0&#45;&gt;Node20 -->
<g id="edge33" class="edge">
<title>Node0&#45;&gt;Node20</title>
<path fill="none" stroke="#191970" d="M308.8248,-495.4179C327.1418,-486.5807 355.1929,-473.0473 376.103,-462.9591"/>
<polygon fill="#191970" stroke="#191970" points="377.6615,-466.0933 385.1473,-458.5956 374.6198,-459.7887 377.6615,-466.0933"/>
</g>
<!-- Node21 -->
<g id="node22" class="node">
<title>Node21</title>
<g id="a_node22"><a xlink:title=" ">
<polygon fill="#ffffff" stroke="#bfbfbf" points="446.4902,-440.5 446.4902,-458.5 497.5098,-458.5 497.5098,-440.5 446.4902,-440.5"/>
<text text-anchor="middle" x="472" y="-446.5" font-family="Helvetica,sans-Serif" font-size="10.00" fill="#000000">iomanip</text>
</a>
</g>
</g>
<!-- Node0&#45;&gt;Node21 -->
<g id="edge34" class="edge">
<title>Node0&#45;&gt;Node21</title>
<path fill="none" stroke="#191970" d="M320.0536,-495.4179C351.9863,-485.7679 402.4496,-470.518 436.3639,-460.2692"/>
<polygon fill="#191970" stroke="#191970" points="437.7589,-463.504 446.3189,-457.2608 435.7339,-456.8033 437.7589,-463.504"/>
</g>
<!-- Node2 -->
<g id="node3" class="node">
<title>Node2</title>
<g id="a_node3"><a xlink:title=" ">
<polygon fill="#ffffff" stroke="#bfbfbf" points="65.7734,-385.5 65.7734,-403.5 106.2266,-403.5 106.2266,-385.5 65.7734,-385.5"/>
<text text-anchor="middle" x="86" y="-391.5" font-family="Helvetica,sans-Serif" font-size="10.00" fill="#000000">string</text>
</a>
</g>
</g>
<!-- Node1&#45;&gt;Node2 -->
<g id="edge2" class="edge">
<title>Node1&#45;&gt;Node2</title>
<path fill="none" stroke="#191970" d="M86,-440.4179C86,-433.2164 86,-422.8962 86,-413.8632"/>
<polygon fill="#191970" stroke="#191970" points="89.5001,-413.7794 86,-403.7795 82.5001,-413.7795 89.5001,-413.7794"/>
</g>
<!-- Node1&#45;&gt;Node3 -->
<g id="edge3" class="edge">
<title>Node1&#45;&gt;Node3</title>
<path fill="none" stroke="#191970" d="M78.9174,-440.382C65.5654,-422.2503 38,-379.9223 38,-339.5 38,-339.5 38,-339.5 38,-229.5 38,-183.1177 87.4731,-150.1085 121.2368,-132.9816"/>
<polygon fill="#191970" stroke="#191970" points="122.8303,-136.0986 130.2891,-128.5742 119.766,-129.8049 122.8303,-136.0986"/>
</g>
<!-- Node4&#45;&gt;Node2 -->
<g id="edge5" class="edge">
<title>Node4&#45;&gt;Node2</title>
<path fill="none" stroke="#191970" d="M186.1844,-440.4179C166.8165,-431.5409 137.1097,-417.9253 115.0683,-407.823"/>
<polygon fill="#191970" stroke="#191970" points="116.394,-404.5805 105.845,-403.5956 113.4773,-410.944 116.394,-404.5805"/>
</g>
<!-- Node4&#45;&gt;Node3 -->
<g id="edge6" class="edge">
<title>Node4&#45;&gt;Node3</title>
<path fill="none" stroke="#191970" d="M191.5868,-440.2525C179.765,-432.0107 163.3473,-418.9609 153,-404 121.2206,-358.0511 114,-340.368 114,-284.5 114,-284.5 114,-284.5 114,-229.5 114,-195.4876 130.4315,-158.6418 141.6845,-137.3963"/>
<polygon fill="#191970" stroke="#191970" points="144.7984,-138.9975 146.5555,-128.5493 138.6664,-135.6213 144.7984,-138.9975"/>
</g>
<!-- Node5 -->
<g id="node6" class="node">
<title>Node5</title>
<g id="a_node6"><a xlink:href="sysprint_8h.html" target="_top" xlink:title=" ">
<polygon fill="#ffffff" stroke="#000000" points="161.8721,-385.5 161.8721,-403.5 250.1279,-403.5 250.1279,-385.5 161.8721,-385.5"/>
<text text-anchor="middle" x="206" y="-391.5" font-family="Helvetica,sans-Serif" font-size="10.00" fill="#000000">config/sysprint.h</text>
</a>
</g>
</g>
<!-- Node4&#45;&gt;Node5 -->
<g id="edge7" class="edge">
<title>Node4&#45;&gt;Node5</title>
<path fill="none" stroke="#191970" d="M200.8337,-440.4179C199.3421,-433.2164 198.9042,-422.8962 199.5198,-413.8632"/>
<polygon fill="#191970" stroke="#191970" points="203.0126,-414.1392 200.7932,-403.7795 196.0678,-413.2621 203.0126,-414.1392"/>
</g>
<!-- Node5&#45;&gt;Node4 -->
<g id="edge8" class="edge">
<title>Node5&#45;&gt;Node4</title>
<path fill="none" stroke="#191970" d="M211.2068,-403.7795C212.6791,-411.0373 213.0979,-421.3738 212.4632,-430.383"/>
<polygon fill="#191970" stroke="#191970" points="208.9769,-430.0517 211.1663,-440.4179 215.9192,-430.949 208.9769,-430.0517"/>
</g>
<!-- Node6 -->
<g id="node7" class="node">
<title>Node6</title>
<g id="a_node7"><a xlink:href="parallel_8h.html" target="_top" xlink:title=" ">
<polygon fill="#ffffff" stroke="#000000" points="141.7466,-330.5 141.7466,-348.5 262.2534,-348.5 262.2534,-330.5 141.7466,-330.5"/>
<text text-anchor="middle" x="202" y="-336.5" font-family="Helvetica,sans-Serif" font-size="10.00" fill="#000000">parallelization/parallel.h</text>
</a>
</g>
</g>
<!-- Node5&#45;&gt;Node6 -->
<g id="edge9" class="edge">
<title>Node5&#45;&gt;Node6</title>
<path fill="none" stroke="#191970" d="M205.3395,-385.4179C204.8157,-378.2164 204.0652,-367.8962 203.4082,-358.8632"/>
<polygon fill="#191970" stroke="#191970" points="206.8911,-358.4992 202.6749,-348.7795 199.9095,-359.007 206.8911,-358.4992"/>
</g>
<!-- Node6&#45;&gt;Node7 -->
<g id="edge10" class="edge">
<title>Node6&#45;&gt;Node7</title>
<path fill="none" stroke="#191970" d="M211.0821,-330.4179C219.075,-322.425 230.9097,-310.5903 240.5623,-300.9377"/>
<polygon fill="#191970" stroke="#191970" points="243.1243,-303.3254 247.7205,-293.7795 238.1746,-298.3757 243.1243,-303.3254"/>
</g>
<!-- Node10 -->
<g id="node11" class="node">
<title>Node10</title>
<g id="a_node11"><a xlink:href="index_8h.html" target="_top" xlink:title=" ">
<polygon fill="#ffffff" stroke="#000000" points="179.9141,-165.5 179.9141,-183.5 292.0859,-183.5 292.0859,-165.5 179.9141,-165.5"/>
<text text-anchor="middle" x="236" y="-171.5" font-family="Helvetica,sans-Serif" font-size="10.00" fill="#000000">parallelization/index.h</text>
</a>
</g>
</g>
<!-- Node6&#45;&gt;Node10 -->
<g id="edge29" class="edge">
<title>Node6&#45;&gt;Node10</title>
<path fill="none" stroke="#191970" d="M201.7017,-330.2343C201.4614,-317.6336 201.6069,-294.4357 205,-275 210.1106,-245.7261 221.2524,-213.0546 228.6912,-193.1371"/>
<polygon fill="#191970" stroke="#191970" points="231.9866,-194.3184 232.2867,-183.7278 225.4477,-191.8197 231.9866,-194.3184"/>
</g>
<!-- Node13 -->
<g id="node14" class="node">
<title>Node13</title>
<g id="a_node14"><a xlink:href="parallelparameters_8h.html" target="_top" xlink:title=" ">
<polygon fill="#ffffff" stroke="#000000" points="542.4585,-165.5 542.4585,-183.5 713.5415,-183.5 713.5415,-165.5 542.4585,-165.5"/>
<text text-anchor="middle" x="628" y="-171.5" font-family="Helvetica,sans-Serif" font-size="10.00" fill="#000000">parallelization/parallelparameters.h</text>
</a>
</g>
</g>
<!-- Node6&#45;&gt;Node13 -->
<g id="edge30" class="edge">
<title>Node6&#45;&gt;Node13</title>
<path fill="none" stroke="#191970" d="M225.8682,-330.4216C271.9479,-312.8778 376.3546,-273.0443 464,-239 509.7466,-221.2306 562.553,-200.4059 595.6114,-187.3312"/>
<polygon fill="#191970" stroke="#191970" points="597.1964,-190.4681 605.2072,-183.5343 594.6209,-183.9592 597.1964,-190.4681"/>
</g>
<!-- Node7&#45;&gt;Node3 -->
<g id="edge11" class="edge">
<title>Node7&#45;&gt;Node3</title>
<path fill="none" stroke="#191970" d="M246.6647,-275.2907C228.7098,-258.7468 191.6991,-222.1484 171,-184 163.258,-169.7314 158.3205,-151.9319 155.4253,-138.6479"/>
<polygon fill="#191970" stroke="#191970" points="158.8364,-137.8556 153.4568,-128.7281 151.9702,-139.2181 158.8364,-137.8556"/>
</g>
<!-- Node8 -->
<g id="node9" class="node">
<title>Node8</title>
<g id="a_node9"><a xlink:href="lattice_8h.html" target="_top" xlink:title=" ">
<polygon fill="#ffffff" stroke="#000000" points="379.2637,-220.5 379.2637,-238.5 454.7363,-238.5 454.7363,-220.5 379.2637,-220.5"/>
<text text-anchor="middle" x="417" y="-226.5" font-family="Helvetica,sans-Serif" font-size="10.00" fill="#000000">math/lattice.h</text>
</a>
</g>
</g>
<!-- Node7&#45;&gt;Node8 -->
<g id="edge12" class="edge">
<title>Node7&#45;&gt;Node8</title>
<path fill="none" stroke="#191970" d="M283.4207,-275.4179C310.1351,-266.2348 351.6015,-251.9807 381.2447,-241.7909"/>
<polygon fill="#191970" stroke="#191970" points="382.4869,-245.065 390.8059,-238.5042 380.2113,-238.4452 382.4869,-245.065"/>
</g>
<!-- Node8&#45;&gt;Node3 -->
<g id="edge13" class="edge">
<title>Node8&#45;&gt;Node3</title>
<path fill="none" stroke="#191970" d="M401.4402,-220.3089C374.7166,-204.6151 321.0402,-173.5182 301,-165 261.6396,-148.2696 214.0562,-134.8478 183.4249,-127.0304"/>
<polygon fill="#191970" stroke="#191970" points="184.2742,-123.635 173.7232,-124.5974 182.5715,-130.4248 184.2742,-123.635"/>
</g>
<!-- Node9 -->
<g id="node10" class="node">
<title>Node9</title>
<g id="a_node10"><a xlink:title=" ">
<polygon fill="#ffffff" stroke="#bfbfbf" points="550.7734,-110.5 550.7734,-128.5 591.2266,-128.5 591.2266,-110.5 550.7734,-110.5"/>
<text text-anchor="middle" x="571" y="-116.5" font-family="Helvetica,sans-Serif" font-size="10.00" fill="#000000">mpi.h</text>
</a>
</g>
</g>
<!-- Node8&#45;&gt;Node9 -->
<g id="edge14" class="edge">
<title>Node8&#45;&gt;Node9</title>
<path fill="none" stroke="#191970" d="M434.5811,-220.3967C450.755,-211.7567 475.1653,-198.0378 495,-184 516.2152,-168.9851 538.6956,-149.3881 553.6547,-135.7532"/>
<polygon fill="#191970" stroke="#191970" points="556.1543,-138.2093 561.1358,-128.8586 551.4104,-133.0619 556.1543,-138.2093"/>
</g>
<!-- Node8&#45;&gt;Node10 -->
<g id="edge15" class="edge">
<title>Node8&#45;&gt;Node10</title>
<path fill="none" stroke="#191970" d="M387.1115,-220.4179C356.6282,-211.155 309.165,-196.7325 275.5765,-186.526"/>
<polygon fill="#191970" stroke="#191970" points="276.2177,-183.0629 265.632,-183.5042 274.1824,-189.7605 276.2177,-183.0629"/>
</g>
<!-- Node11 -->
<g id="node12" class="node">
<title>Node11</title>
<g id="a_node12"><a xlink:href="neighbours_8h.html" target="_top" xlink:title=" ">
<polygon fill="#ffffff" stroke="#000000" points="348.126,-165.5 348.126,-183.5 485.874,-183.5 485.874,-165.5 348.126,-165.5"/>
<text text-anchor="middle" x="417" y="-171.5" font-family="Helvetica,sans-Serif" font-size="10.00" fill="#000000">parallelization/neighbours.h</text>
</a>
</g>
</g>
<!-- Node8&#45;&gt;Node11 -->
<g id="edge17" class="edge">
<title>Node8&#45;&gt;Node11</title>
<path fill="none" stroke="#191970" d="M417,-220.4179C417,-213.2164 417,-202.8962 417,-193.8632"/>
<polygon fill="#191970" stroke="#191970" points="420.5001,-193.7794 417,-183.7795 413.5001,-193.7795 420.5001,-193.7794"/>
</g>
<!-- Node8&#45;&gt;Node13 -->
<g id="edge20" class="edge">
<title>Node8&#45;&gt;Node13</title>
<path fill="none" stroke="#191970" d="M451.8424,-220.4179C487.9143,-211.0152 544.3821,-196.2961 583.6249,-186.067"/>
<polygon fill="#191970" stroke="#191970" points="584.6628,-189.4135 593.4566,-183.5042 582.8971,-182.6398 584.6628,-189.4135"/>
</g>
<!-- Node14 -->
<g id="node15" class="node">
<title>Node14</title>
<g id="a_node15"><a xlink:href="functions_8h.html" target="_top" xlink:title=" ">
<polygon fill="#ffffff" stroke="#000000" points="731.8179,-165.5 731.8179,-183.5 796.1821,-183.5 796.1821,-165.5 731.8179,-165.5"/>
<text text-anchor="middle" x="764" y="-171.5" font-family="Helvetica,sans-Serif" font-size="10.00" fill="#000000">functions.h</text>
</a>
</g>
</g>
<!-- Node8&#45;&gt;Node14 -->
<g id="edge22" class="edge">
<title>Node8&#45;&gt;Node14</title>
<path fill="none" stroke="#191970" d="M454.8506,-224.8635C510.9497,-217.7756 619.6666,-203.2136 721.2536,-184.2195"/>
<polygon fill="#191970" stroke="#191970" points="722.1996,-187.6028 731.3762,-182.3074 720.9003,-180.7244 722.1996,-187.6028"/>
</g>
<!-- Node10&#45;&gt;Node3 -->
<g id="edge16" class="edge">
<title>Node10&#45;&gt;Node3</title>
<path fill="none" stroke="#191970" d="M222.1291,-165.4179C209.2403,-156.9788 189.8106,-144.257 174.6686,-134.3426"/>
<polygon fill="#191970" stroke="#191970" points="176.175,-131.1454 165.8915,-128.5956 172.3404,-137.0017 176.175,-131.1454"/>
</g>
<!-- Node11&#45;&gt;Node3 -->
<g id="edge19" class="edge">
<title>Node11&#45;&gt;Node3</title>
<path fill="none" stroke="#191970" d="M373.5374,-165.4795C320.1615,-154.4014 230.9073,-135.877 183.6253,-126.0637"/>
<polygon fill="#191970" stroke="#191970" points="184.154,-122.599 173.6514,-123.9937 182.7314,-129.4529 184.154,-122.599"/>
</g>
<!-- Node12 -->
<g id="node13" class="node">
<title>Node12</title>
<g id="a_node13"><a xlink:href="neighbourlist_8h.html" target="_top" xlink:title=" ">
<polygon fill="#ffffff" stroke="#000000" points="376.478,-110.5 376.478,-128.5 457.522,-128.5 457.522,-110.5 376.478,-110.5"/>
<text text-anchor="middle" x="417" y="-116.5" font-family="Helvetica,sans-Serif" font-size="10.00" fill="#000000">neighbourlist.h</text>
</a>
</g>
</g>
<!-- Node11&#45;&gt;Node12 -->
<g id="edge18" class="edge">
<title>Node11&#45;&gt;Node12</title>
<path fill="none" stroke="#191970" d="M417,-165.4179C417,-158.2164 417,-147.8962 417,-138.8632"/>
<polygon fill="#191970" stroke="#191970" points="420.5001,-138.7794 417,-128.7795 413.5001,-138.7795 420.5001,-138.7794"/>
</g>
<!-- Node13&#45;&gt;Node9 -->
<g id="edge21" class="edge">
<title>Node13&#45;&gt;Node9</title>
<path fill="none" stroke="#191970" d="M618.5876,-165.4179C610.3041,-157.425 598.0391,-145.5903 588.0355,-135.9377"/>
<polygon fill="#191970" stroke="#191970" points="590.2434,-133.2045 580.6169,-128.7795 585.3828,-138.2419 590.2434,-133.2045"/>
</g>
<!-- Node15 -->
<g id="node16" class="node">
<title>Node15</title>
<g id="a_node16"><a xlink:href="su3_8h.html" target="_top" xlink:title=" ">
<polygon fill="#ffffff" stroke="#000000" points="723.4878,-110.5 723.4878,-128.5 804.5122,-128.5 804.5122,-110.5 723.4878,-110.5"/>
<text text-anchor="middle" x="764" y="-116.5" font-family="Helvetica,sans-Serif" font-size="10.00" fill="#000000">matrices/su3.h</text>
</a>
</g>
</g>
<!-- Node14&#45;&gt;Node15 -->
<g id="edge23" class="edge">
<title>Node14&#45;&gt;Node15</title>
<path fill="none" stroke="#191970" d="M764,-165.4179C764,-158.2164 764,-147.8962 764,-138.8632"/>
<polygon fill="#191970" stroke="#191970" points="767.5001,-138.7794 764,-128.7795 760.5001,-138.7795 767.5001,-138.7794"/>
</g>
<!-- Node16 -->
<g id="node17" class="node">
<title>Node16</title>
<g id="a_node17"><a xlink:href="complex_8h.html" target="_top" xlink:title=" ">
<polygon fill="#ffffff" stroke="#000000" points="720.707,-55.5 720.707,-73.5 807.293,-73.5 807.293,-55.5 720.707,-55.5"/>
<text text-anchor="middle" x="764" y="-61.5" font-family="Helvetica,sans-Serif" font-size="10.00" fill="#000000">math/complex.h</text>
</a>
</g>
</g>
<!-- Node14&#45;&gt;Node16 -->
<g id="edge28" class="edge">
<title>Node14&#45;&gt;Node16</title>
<path fill="none" stroke="#191970" d="M748.2003,-165.4232C730.1046,-153.7435 704.1467,-132.2889 714,-110 719.4128,-97.7558 729.9282,-87.3899 739.9247,-79.6592"/>
<polygon fill="#191970" stroke="#191970" points="741.9977,-82.4796 748.0763,-73.8019 737.913,-76.7949 741.9977,-82.4796"/>
</g>
<!-- Node18 -->
<g id="node19" class="node">
<title>Node18</title>
<g id="a_node19"><a xlink:href="su2_8h.html" target="_top" xlink:title=" ">
<polygon fill="#ffffff" stroke="#000000" points="822.4878,-110.5 822.4878,-128.5 903.5122,-128.5 903.5122,-110.5 822.4878,-110.5"/>
<text text-anchor="middle" x="863" y="-116.5" font-family="Helvetica,sans-Serif" font-size="10.00" fill="#000000">matrices/su2.h</text>
</a>
</g>
</g>
<!-- Node14&#45;&gt;Node18 -->
<g id="edge26" class="edge">
<title>Node14&#45;&gt;Node18</title>
<path fill="none" stroke="#191970" d="M780.3478,-165.4179C795.9681,-156.7399 819.7398,-143.5334 837.7862,-133.5077"/>
<polygon fill="#191970" stroke="#191970" points="839.5861,-136.5117 846.6279,-128.5956 836.1865,-130.3925 839.5861,-136.5117"/>
</g>
<!-- Node15&#45;&gt;Node16 -->
<g id="edge24" class="edge">
<title>Node15&#45;&gt;Node16</title>
<path fill="none" stroke="#191970" d="M764,-110.4179C764,-103.2164 764,-92.8962 764,-83.8632"/>
<polygon fill="#191970" stroke="#191970" points="767.5001,-83.7794 764,-73.7795 760.5001,-83.7795 767.5001,-83.7794"/>
</g>
<!-- Node17 -->
<g id="node18" class="node">
<title>Node17</title>
<g id="a_node18"><a xlink:title=" ">
<polygon fill="#ffffff" stroke="#bfbfbf" points="736.8276,-.5 736.8276,-18.5 791.1724,-18.5 791.1724,-.5 736.8276,-.5"/>
<text text-anchor="middle" x="764" y="-6.5" font-family="Helvetica,sans-Serif" font-size="10.00" fill="#000000">iostream</text>
</a>
</g>
</g>
<!-- Node16&#45;&gt;Node17 -->
<g id="edge25" class="edge">
<title>Node16&#45;&gt;Node17</title>
<path fill="none" stroke="#191970" d="M764,-55.4179C764,-48.2164 764,-37.8962 764,-28.8632"/>
<polygon fill="#191970" stroke="#191970" points="767.5001,-28.7794 764,-18.7795 760.5001,-28.7795 767.5001,-28.7794"/>
</g>
<!-- Node18&#45;&gt;Node16 -->
<g id="edge27" class="edge">
<title>Node18&#45;&gt;Node16</title>
<path fill="none" stroke="#191970" d="M846.6522,-110.4179C831.0319,-101.7399 807.2602,-88.5334 789.2138,-78.5077"/>
<polygon fill="#191970" stroke="#191970" points="790.8135,-75.3925 780.3721,-73.5956 787.4139,-81.5117 790.8135,-75.3925"/>
</g>
</g>
</svg>
