<?xml version="1.0" encoding="UTF-8" standalone="no"?>
<!DOCTYPE svg PUBLIC "-//W3C//DTD SVG 1.1//EN"
 "http://www.w3.org/Graphics/SVG/1.1/DTD/svg11.dtd">
<!-- Generated by graphviz version 2.40.1 (20161225.0304)
 -->
<!-- Title: GluonicLQCD/observables/tools/observablestorer.cpp Pages: 1 -->
<svg width="928pt" height="532pt"
 viewBox="0.00 0.00 927.75 532.00" xmlns="http://www.w3.org/2000/svg" xmlns:xlink="http://www.w3.org/1999/xlink">
<g id="graph0" class="graph" transform="scale(1 1) rotate(0) translate(4 528)">
<title>GluonicLQCD/observables/tools/observablestorer.cpp</title>
<polygon fill="#ffffff" stroke="transparent" points="-4,4 -4,-528 923.7534,-528 923.7534,4 -4,4"/>
<!-- Node0 -->
<g id="node1" class="node">
<title>Node0</title>
<g id="a_node1"><a xlink:title=" ">
<polygon fill="#bfbfbf" stroke="#000000" points="254.3794,-495.5 254.3794,-523.5 389.896,-523.5 389.896,-495.5 254.3794,-495.5"/>
<text text-anchor="start" x="262.3794" y="-511.5" font-family="Helvetica,sans-Serif" font-size="10.00" fill="#000000">GluonicLQCD/observables</text>
<text text-anchor="middle" x="322.1377" y="-501.5" font-family="Helvetica,sans-Serif" font-size="10.00" fill="#000000">/tools/observablestorer.cpp</text>
</a>
</g>
</g>
<!-- Node1 -->
<g id="node2" class="node">
<title>Node1</title>
<g id="a_node2"><a xlink:href="observablestorer_8h.html" target="_top" xlink:title=" ">
<polygon fill="#ffffff" stroke="#000000" points="0,-440.5 0,-458.5 98.2754,-458.5 98.2754,-440.5 0,-440.5"/>
<text text-anchor="middle" x="49.1377" y="-446.5" font-family="Helvetica,sans-Serif" font-size="10.00" fill="#000000">observablestorer.h</text>
</a>
</g>
</g>
<!-- Node0&#45;&gt;Node1 -->
<g id="edge1" class="edge">
<title>Node0&#45;&gt;Node1</title>
<path fill="none" stroke="#191970" d="M258.1313,-495.4327C209.927,-484.8383 144.7306,-470.5094 100.0475,-460.689"/>
<polygon fill="#191970" stroke="#191970" points="100.7958,-457.27 90.2775,-458.5417 99.2931,-464.1068 100.7958,-457.27"/>
</g>
<!-- Node4 -->
<g id="node5" class="node">
<title>Node4</title>
<g id="a_node5"><a xlink:href="observablesio_8h.html" target="_top" xlink:title=" ">
<polygon fill="#ffffff" stroke="#000000" points="115.835,-440.5 115.835,-458.5 212.4404,-458.5 212.4404,-440.5 115.835,-440.5"/>
<text text-anchor="middle" x="164.1377" y="-446.5" font-family="Helvetica,sans-Serif" font-size="10.00" fill="#000000">io/observablesio.h</text>
</a>
</g>
</g>
<!-- Node0&#45;&gt;Node4 -->
<g id="edge4" class="edge">
<title>Node0&#45;&gt;Node4</title>
<path fill="none" stroke="#191970" d="M285.0937,-495.4327C258.6824,-485.4031 223.4574,-472.0265 197.8355,-462.2966"/>
<polygon fill="#191970" stroke="#191970" points="198.774,-458.9092 188.1828,-458.6311 196.2889,-465.4533 198.774,-458.9092"/>
</g>
<!-- Node5 -->
<g id="node6" class="node">
<title>Node5</title>
<g id="a_node6"><a xlink:href="parallel_8h.html" target="_top" xlink:title=" ">
<polygon fill="#ffffff" stroke="#000000" points="301.8843,-330.5 301.8843,-348.5 422.3911,-348.5 422.3911,-330.5 301.8843,-330.5"/>
<text text-anchor="middle" x="362.1377" y="-336.5" font-family="Helvetica,sans-Serif" font-size="10.00" fill="#000000">parallelization/parallel.h</text>
</a>
</g>
</g>
<!-- Node0&#45;&gt;Node5 -->
<g id="edge7" class="edge">
<title>Node0&#45;&gt;Node5</title>
<path fill="none" stroke="#191970" d="M329.1347,-495.2391C333.7449,-485.2976 339.5684,-471.6079 343.1377,-459 352.9236,-424.433 358.114,-382.7211 360.4816,-358.8362"/>
<polygon fill="#191970" stroke="#191970" points="363.9876,-358.9327 361.4249,-348.6524 357.0174,-358.287 363.9876,-358.9327"/>
</g>
<!-- Node8 -->
<g id="node9" class="node">
<title>Node8</title>
<g id="a_node9"><a xlink:title=" ">
<polygon fill="#ffffff" stroke="#bfbfbf" points="713.9111,-110.5 713.9111,-128.5 754.3643,-128.5 754.3643,-110.5 713.9111,-110.5"/>
<text text-anchor="middle" x="734.1377" y="-116.5" font-family="Helvetica,sans-Serif" font-size="10.00" fill="#000000">mpi.h</text>
</a>
</g>
</g>
<!-- Node0&#45;&gt;Node8 -->
<g id="edge36" class="edge">
<title>Node0&#45;&gt;Node8</title>
<path fill="none" stroke="#191970" d="M390.0948,-501.6893C532.2886,-484.4248 848.1377,-440.8585 848.1377,-394.5 848.1377,-394.5 848.1377,-394.5 848.1377,-229.5 848.1377,-199.6154 848.5108,-187.7546 829.1377,-165 812.4297,-145.3757 785.3248,-133.5685 764.3348,-126.9193"/>
<polygon fill="#191970" stroke="#191970" points="765.1753,-123.5183 754.5942,-124.0577 763.2022,-130.2345 765.1753,-123.5183"/>
</g>
<!-- Node18 -->
<g id="node19" class="node">
<title>Node18</title>
<g id="a_node19"><a xlink:href="parameters_8h.html" target="_top" xlink:title=" ">
<polygon fill="#ffffff" stroke="#000000" points="229.9482,-440.5 229.9482,-458.5 334.3271,-458.5 334.3271,-440.5 229.9482,-440.5"/>
<text text-anchor="middle" x="282.1377" y="-446.5" font-family="Helvetica,sans-Serif" font-size="10.00" fill="#000000">config/parameters.h</text>
</a>
</g>
</g>
<!-- Node0&#45;&gt;Node18 -->
<g id="edge29" class="edge">
<title>Node0&#45;&gt;Node18</title>
<path fill="none" stroke="#191970" d="M312.6583,-495.2808C307.0342,-486.8448 299.8586,-476.0813 293.8782,-467.1107"/>
<polygon fill="#191970" stroke="#191970" points="296.653,-464.9632 288.1938,-458.5842 290.8287,-468.8462 296.653,-464.9632"/>
</g>
<!-- Node20 -->
<g id="node21" class="node">
<title>Node20</title>
<g id="a_node21"><a xlink:title=" ">
<polygon fill="#ffffff" stroke="#bfbfbf" points="876.522,-440.5 876.522,-458.5 919.7534,-458.5 919.7534,-440.5 876.522,-440.5"/>
<text text-anchor="middle" x="898.1377" y="-446.5" font-family="Helvetica,sans-Serif" font-size="10.00" fill="#000000">cmath</text>
</a>
</g>
</g>
<!-- Node0&#45;&gt;Node20 -->
<g id="edge35" class="edge">
<title>Node0&#45;&gt;Node20</title>
<path fill="none" stroke="#191970" d="M389.9655,-506.7454C492.7636,-501.764 693.8679,-488.8604 862.1377,-459 863.4265,-458.7713 864.7367,-458.5193 866.0568,-458.2492"/>
<polygon fill="#191970" stroke="#191970" points="867.2265,-461.5712 876.1808,-455.908 865.6493,-454.7511 867.2265,-461.5712"/>
</g>
<!-- Node2 -->
<g id="node3" class="node">
<title>Node2</title>
<g id="a_node3"><a xlink:title=" ">
<polygon fill="#ffffff" stroke="#bfbfbf" points="124.9111,-385.5 124.9111,-403.5 165.3643,-403.5 165.3643,-385.5 124.9111,-385.5"/>
<text text-anchor="middle" x="145.1377" y="-391.5" font-family="Helvetica,sans-Serif" font-size="10.00" fill="#000000">string</text>
</a>
</g>
</g>
<!-- Node1&#45;&gt;Node2 -->
<g id="edge2" class="edge">
<title>Node1&#45;&gt;Node2</title>
<path fill="none" stroke="#191970" d="M64.9901,-440.4179C79.9981,-431.8195 102.7661,-418.7754 120.2049,-408.7844"/>
<polygon fill="#191970" stroke="#191970" points="122.3247,-411.6037 129.2617,-403.5956 118.8449,-405.5299 122.3247,-411.6037"/>
</g>
<!-- Node3 -->
<g id="node4" class="node">
<title>Node3</title>
<g id="a_node4"><a xlink:title=" ">
<polygon fill="#ffffff" stroke="#bfbfbf" points="154.522,-110.5 154.522,-128.5 197.7534,-128.5 197.7534,-110.5 154.522,-110.5"/>
<text text-anchor="middle" x="176.1377" y="-116.5" font-family="Helvetica,sans-Serif" font-size="10.00" fill="#000000">vector</text>
</a>
</g>
</g>
<!-- Node1&#45;&gt;Node3 -->
<g id="edge3" class="edge">
<title>Node1&#45;&gt;Node3</title>
<path fill="none" stroke="#191970" d="M49.6939,-440.3774C50.793,-421.5371 53.1377,-376.9553 53.1377,-339.5 53.1377,-339.5 53.1377,-339.5 53.1377,-229.5 53.1377,-180.1914 108.7388,-147.4626 145.1753,-131.3085"/>
<polygon fill="#191970" stroke="#191970" points="146.5966,-134.5075 154.4309,-127.3749 143.8586,-128.0652 146.5966,-134.5075"/>
</g>
<!-- Node4&#45;&gt;Node2 -->
<g id="edge5" class="edge">
<title>Node4&#45;&gt;Node2</title>
<path fill="none" stroke="#191970" d="M161.0002,-440.4179C158.4578,-433.0581 154.7901,-422.441 151.6217,-413.2695"/>
<polygon fill="#191970" stroke="#191970" points="154.9168,-412.0885 148.3433,-403.7795 148.3004,-414.3742 154.9168,-412.0885"/>
</g>
<!-- Node4&#45;&gt;Node3 -->
<g id="edge6" class="edge">
<title>Node4&#45;&gt;Node3</title>
<path fill="none" stroke="#191970" d="M151.3202,-440.4436C140.4632,-432.1351 125.2498,-418.8856 116.1377,-404 100.5352,-378.5118 97.1377,-369.3846 97.1377,-339.5 97.1377,-339.5 97.1377,-339.5 97.1377,-229.5 97.1377,-198.423 105.9747,-190.2167 124.1377,-165 132.4632,-153.4412 144.2539,-142.8155 154.5035,-134.7444"/>
<polygon fill="#191970" stroke="#191970" points="156.7686,-137.4198 162.6408,-128.6011 152.5509,-131.8331 156.7686,-137.4198"/>
</g>
<!-- Node6 -->
<g id="node7" class="node">
<title>Node6</title>
<g id="a_node7"><a xlink:href="communicator_8h.html" target="_top" xlink:title=" ">
<polygon fill="#ffffff" stroke="#000000" points="247.8423,-275.5 247.8423,-293.5 334.4331,-293.5 334.4331,-275.5 247.8423,-275.5"/>
<text text-anchor="middle" x="291.1377" y="-281.5" font-family="Helvetica,sans-Serif" font-size="10.00" fill="#000000">communicator.h</text>
</a>
</g>
</g>
<!-- Node5&#45;&gt;Node6 -->
<g id="edge8" class="edge">
<title>Node5&#45;&gt;Node6</title>
<path fill="none" stroke="#191970" d="M350.4135,-330.4179C339.7889,-322.1876 323.906,-309.8839 311.2546,-300.0836"/>
<polygon fill="#191970" stroke="#191970" points="313.1656,-297.1365 303.1166,-293.7795 308.8787,-302.6704 313.1656,-297.1365"/>
</g>
<!-- Node9 -->
<g id="node10" class="node">
<title>Node9</title>
<g id="a_node10"><a xlink:href="index_8h.html" target="_top" xlink:title=" ">
<polygon fill="#ffffff" stroke="#000000" points="204.0518,-165.5 204.0518,-183.5 316.2236,-183.5 316.2236,-165.5 204.0518,-165.5"/>
<text text-anchor="middle" x="260.1377" y="-171.5" font-family="Helvetica,sans-Serif" font-size="10.00" fill="#000000">parallelization/index.h</text>
</a>
</g>
</g>
<!-- Node5&#45;&gt;Node9 -->
<g id="edge27" class="edge">
<title>Node5&#45;&gt;Node9</title>
<path fill="none" stroke="#191970" d="M360.6363,-330.2958C358.2647,-317.365 352.8874,-293.3498 343.1377,-275 325.4858,-241.7777 295.7563,-209.3207 277.0805,-190.6462"/>
<polygon fill="#191970" stroke="#191970" points="279.4105,-188.0289 269.8208,-183.5246 274.5085,-193.026 279.4105,-188.0289"/>
</g>
<!-- Node12 -->
<g id="node13" class="node">
<title>Node12</title>
<g id="a_node13"><a xlink:href="parallelparameters_8h.html" target="_top" xlink:title=" ">
<polygon fill="#ffffff" stroke="#000000" points="648.5962,-165.5 648.5962,-183.5 819.6792,-183.5 819.6792,-165.5 648.5962,-165.5"/>
<text text-anchor="middle" x="734.1377" y="-171.5" font-family="Helvetica,sans-Serif" font-size="10.00" fill="#000000">parallelization/parallelparameters.h</text>
</a>
</g>
</g>
<!-- Node5&#45;&gt;Node12 -->
<g id="edge28" class="edge">
<title>Node5&#45;&gt;Node12</title>
<path fill="none" stroke="#191970" d="M382.6679,-330.3939C444.7851,-302.8419 630.9352,-220.2753 704.1188,-187.8148"/>
<polygon fill="#191970" stroke="#191970" points="705.9489,-190.832 713.6709,-183.578 703.1107,-184.4332 705.9489,-190.832"/>
</g>
<!-- Node6&#45;&gt;Node3 -->
<g id="edge9" class="edge">
<title>Node6&#45;&gt;Node3</title>
<path fill="none" stroke="#191970" d="M279.2241,-275.3054C258.9791,-259.0598 217.8538,-223.2649 195.1377,-184 187.0084,-169.9484 182.1044,-152.1302 179.3205,-138.7838"/>
<polygon fill="#191970" stroke="#191970" points="182.7334,-137.9927 177.4564,-128.8055 175.8524,-139.2782 182.7334,-137.9927"/>
</g>
<!-- Node7 -->
<g id="node8" class="node">
<title>Node7</title>
<g id="a_node8"><a xlink:href="lattice_8h.html" target="_top" xlink:title=" ">
<polygon fill="#ffffff" stroke="#000000" points="403.4014,-220.5 403.4014,-238.5 478.874,-238.5 478.874,-220.5 403.4014,-220.5"/>
<text text-anchor="middle" x="441.1377" y="-226.5" font-family="Helvetica,sans-Serif" font-size="10.00" fill="#000000">math/lattice.h</text>
</a>
</g>
</g>
<!-- Node6&#45;&gt;Node7 -->
<g id="edge10" class="edge">
<title>Node6&#45;&gt;Node7</title>
<path fill="none" stroke="#191970" d="M315.9071,-275.4179C340.734,-266.3147 379.1515,-252.2283 406.8896,-242.0576"/>
<polygon fill="#191970" stroke="#191970" points="408.3969,-245.2329 416.5808,-238.5042 405.9871,-238.6608 408.3969,-245.2329"/>
</g>
<!-- Node7&#45;&gt;Node3 -->
<g id="edge11" class="edge">
<title>Node7&#45;&gt;Node3</title>
<path fill="none" stroke="#191970" d="M425.5779,-220.3089C398.8543,-204.6151 345.1778,-173.5182 325.1377,-165 285.7773,-148.2696 238.1939,-134.8478 207.5626,-127.0304"/>
<polygon fill="#191970" stroke="#191970" points="208.4119,-123.635 197.8609,-124.5974 206.7092,-130.4248 208.4119,-123.635"/>
</g>
<!-- Node7&#45;&gt;Node8 -->
<g id="edge12" class="edge">
<title>Node7&#45;&gt;Node8</title>
<path fill="none" stroke="#191970" d="M478.9658,-220.8609C511.8044,-212.8636 560.3522,-199.8358 601.1377,-184 618.7398,-177.1656 622.1777,-173.3007 639.1377,-165 661.3774,-154.1152 686.6668,-142.0164 705.5587,-133.0326"/>
<polygon fill="#191970" stroke="#191970" points="707.2732,-136.0931 714.8047,-128.6416 704.2702,-129.7699 707.2732,-136.0931"/>
</g>
<!-- Node7&#45;&gt;Node9 -->
<g id="edge13" class="edge">
<title>Node7&#45;&gt;Node9</title>
<path fill="none" stroke="#191970" d="M411.2492,-220.4179C380.7659,-211.155 333.3027,-196.7325 299.7142,-186.526"/>
<polygon fill="#191970" stroke="#191970" points="300.3554,-183.0629 289.7697,-183.5042 298.3201,-189.7605 300.3554,-183.0629"/>
</g>
<!-- Node10 -->
<g id="node11" class="node">
<title>Node10</title>
<g id="a_node11"><a xlink:href="neighbours_8h.html" target="_top" xlink:title=" ">
<polygon fill="#ffffff" stroke="#000000" points="372.2637,-165.5 372.2637,-183.5 510.0117,-183.5 510.0117,-165.5 372.2637,-165.5"/>
<text text-anchor="middle" x="441.1377" y="-171.5" font-family="Helvetica,sans-Serif" font-size="10.00" fill="#000000">parallelization/neighbours.h</text>
</a>
</g>
</g>
<!-- Node7&#45;&gt;Node10 -->
<g id="edge15" class="edge">
<title>Node7&#45;&gt;Node10</title>
<path fill="none" stroke="#191970" d="M441.1377,-220.4179C441.1377,-213.2164 441.1377,-202.8962 441.1377,-193.8632"/>
<polygon fill="#191970" stroke="#191970" points="444.6378,-193.7794 441.1377,-183.7795 437.6378,-193.7795 444.6378,-193.7794"/>
</g>
<!-- Node7&#45;&gt;Node12 -->
<g id="edge18" class="edge">
<title>Node7&#45;&gt;Node12</title>
<path fill="none" stroke="#191970" d="M479.1419,-222.3661C529.0982,-212.9887 617.3471,-196.4231 675.7936,-185.452"/>
<polygon fill="#191970" stroke="#191970" points="676.8016,-188.824 685.9842,-183.5391 675.5101,-181.9441 676.8016,-188.824"/>
</g>
<!-- Node13 -->
<g id="node14" class="node">
<title>Node13</title>
<g id="a_node14"><a xlink:href="functions_8h.html" target="_top" xlink:title=" ">
<polygon fill="#ffffff" stroke="#000000" points="527.9556,-165.5 527.9556,-183.5 592.3198,-183.5 592.3198,-165.5 527.9556,-165.5"/>
<text text-anchor="middle" x="560.1377" y="-171.5" font-family="Helvetica,sans-Serif" font-size="10.00" fill="#000000">functions.h</text>
</a>
</g>
</g>
<!-- Node7&#45;&gt;Node13 -->
<g id="edge20" class="edge">
<title>Node7&#45;&gt;Node13</title>
<path fill="none" stroke="#191970" d="M460.7881,-220.4179C479.9947,-211.5409 509.454,-197.9253 531.3117,-187.823"/>
<polygon fill="#191970" stroke="#191970" points="532.8491,-190.9682 540.4581,-183.5956 529.9123,-184.614 532.8491,-190.9682"/>
</g>
<!-- Node9&#45;&gt;Node3 -->
<g id="edge14" class="edge">
<title>Node9&#45;&gt;Node3</title>
<path fill="none" stroke="#191970" d="M246.2668,-165.4179C233.378,-156.9788 213.9483,-144.257 198.8063,-134.3426"/>
<polygon fill="#191970" stroke="#191970" points="200.3127,-131.1454 190.0292,-128.5956 196.4781,-137.0017 200.3127,-131.1454"/>
</g>
<!-- Node10&#45;&gt;Node3 -->
<g id="edge17" class="edge">
<title>Node10&#45;&gt;Node3</title>
<path fill="none" stroke="#191970" d="M397.6751,-165.4795C344.2992,-154.4014 255.045,-135.877 207.763,-126.0637"/>
<polygon fill="#191970" stroke="#191970" points="208.2917,-122.599 197.7891,-123.9937 206.8691,-129.4529 208.2917,-122.599"/>
</g>
<!-- Node11 -->
<g id="node12" class="node">
<title>Node11</title>
<g id="a_node12"><a xlink:href="neighbourlist_8h.html" target="_top" xlink:title=" ">
<polygon fill="#ffffff" stroke="#000000" points="364.6157,-110.5 364.6157,-128.5 445.6597,-128.5 445.6597,-110.5 364.6157,-110.5"/>
<text text-anchor="middle" x="405.1377" y="-116.5" font-family="Helvetica,sans-Serif" font-size="10.00" fill="#000000">neighbourlist.h</text>
</a>
</g>
</g>
<!-- Node10&#45;&gt;Node11 -->
<g id="edge16" class="edge">
<title>Node10&#45;&gt;Node11</title>
<path fill="none" stroke="#191970" d="M435.193,-165.4179C430.2203,-157.8207 422.9758,-146.7527 416.8453,-137.3866"/>
<polygon fill="#191970" stroke="#191970" points="419.6166,-135.2297 411.2115,-128.7795 413.7597,-139.0633 419.6166,-135.2297"/>
</g>
<!-- Node12&#45;&gt;Node8 -->
<g id="edge19" class="edge">
<title>Node12&#45;&gt;Node8</title>
<path fill="none" stroke="#191970" d="M734.1377,-165.4179C734.1377,-158.2164 734.1377,-147.8962 734.1377,-138.8632"/>
<polygon fill="#191970" stroke="#191970" points="737.6378,-138.7794 734.1377,-128.7795 730.6378,-138.7795 737.6378,-138.7794"/>
</g>
<!-- Node14 -->
<g id="node15" class="node">
<title>Node14</title>
<g id="a_node15"><a xlink:href="su3_8h.html" target="_top" xlink:title=" ">
<polygon fill="#ffffff" stroke="#000000" points="601.6255,-110.5 601.6255,-128.5 682.6499,-128.5 682.6499,-110.5 601.6255,-110.5"/>
<text text-anchor="middle" x="642.1377" y="-116.5" font-family="Helvetica,sans-Serif" font-size="10.00" fill="#000000">matrices/su3.h</text>
</a>
</g>
</g>
<!-- Node13&#45;&gt;Node14 -->
<g id="edge21" class="edge">
<title>Node13&#45;&gt;Node14</title>
<path fill="none" stroke="#191970" d="M573.6783,-165.4179C586.2603,-156.9788 605.2273,-144.257 620.0088,-134.3426"/>
<polygon fill="#191970" stroke="#191970" points="622.2217,-137.0727 628.5769,-128.5956 618.3224,-131.2593 622.2217,-137.0727"/>
</g>
<!-- Node15 -->
<g id="node16" class="node">
<title>Node15</title>
<g id="a_node16"><a xlink:href="complex_8h.html" target="_top" xlink:title=" ">
<polygon fill="#ffffff" stroke="#000000" points="529.8447,-55.5 529.8447,-73.5 616.4307,-73.5 616.4307,-55.5 529.8447,-55.5"/>
<text text-anchor="middle" x="573.1377" y="-61.5" font-family="Helvetica,sans-Serif" font-size="10.00" fill="#000000">math/complex.h</text>
</a>
</g>
</g>
<!-- Node13&#45;&gt;Node15 -->
<g id="edge26" class="edge">
<title>Node13&#45;&gt;Node15</title>
<path fill="none" stroke="#191970" d="M561.2015,-165.4982C563.306,-147.6913 568.0414,-107.6225 570.8743,-83.6515"/>
<polygon fill="#191970" stroke="#191970" points="574.3612,-83.9678 572.0592,-73.6261 567.4096,-83.1462 574.3612,-83.9678"/>
</g>
<!-- Node17 -->
<g id="node18" class="node">
<title>Node17</title>
<g id="a_node18"><a xlink:href="su2_8h.html" target="_top" xlink:title=" ">
<polygon fill="#ffffff" stroke="#000000" points="463.6255,-110.5 463.6255,-128.5 544.6499,-128.5 544.6499,-110.5 463.6255,-110.5"/>
<text text-anchor="middle" x="504.1377" y="-116.5" font-family="Helvetica,sans-Serif" font-size="10.00" fill="#000000">matrices/su2.h</text>
</a>
</g>
</g>
<!-- Node13&#45;&gt;Node17 -->
<g id="edge24" class="edge">
<title>Node13&#45;&gt;Node17</title>
<path fill="none" stroke="#191970" d="M550.8904,-165.4179C542.7522,-157.425 530.7024,-145.5903 520.8743,-135.9377"/>
<polygon fill="#191970" stroke="#191970" points="523.1729,-133.2895 513.5859,-128.7795 518.2679,-138.2836 523.1729,-133.2895"/>
</g>
<!-- Node14&#45;&gt;Node15 -->
<g id="edge22" class="edge">
<title>Node14&#45;&gt;Node15</title>
<path fill="none" stroke="#191970" d="M630.7437,-110.4179C620.4185,-102.1876 604.983,-89.8839 592.688,-80.0836"/>
<polygon fill="#191970" stroke="#191970" points="594.7806,-77.2757 584.7792,-73.7795 590.4173,-82.7495 594.7806,-77.2757"/>
</g>
<!-- Node16 -->
<g id="node17" class="node">
<title>Node16</title>
<g id="a_node17"><a xlink:title=" ">
<polygon fill="#ffffff" stroke="#bfbfbf" points="545.9653,-.5 545.9653,-18.5 600.3101,-18.5 600.3101,-.5 545.9653,-.5"/>
<text text-anchor="middle" x="573.1377" y="-6.5" font-family="Helvetica,sans-Serif" font-size="10.00" fill="#000000">iostream</text>
</a>
</g>
</g>
<!-- Node15&#45;&gt;Node16 -->
<g id="edge23" class="edge">
<title>Node15&#45;&gt;Node16</title>
<path fill="none" stroke="#191970" d="M573.1377,-55.4179C573.1377,-48.2164 573.1377,-37.8962 573.1377,-28.8632"/>
<polygon fill="#191970" stroke="#191970" points="576.6378,-28.7794 573.1377,-18.7795 569.6378,-28.7795 576.6378,-28.7794"/>
</g>
<!-- Node17&#45;&gt;Node15 -->
<g id="edge25" class="edge">
<title>Node17&#45;&gt;Node15</title>
<path fill="none" stroke="#191970" d="M515.5316,-110.4179C525.8569,-102.1876 541.2924,-89.8839 553.5874,-80.0836"/>
<polygon fill="#191970" stroke="#191970" points="555.858,-82.7495 561.4962,-73.7795 551.4948,-77.2757 555.858,-82.7495"/>
</g>
<!-- Node18&#45;&gt;Node2 -->
<g id="edge30" class="edge">
<title>Node18&#45;&gt;Node2</title>
<path fill="none" stroke="#191970" d="M259.5149,-440.4179C236.4348,-431.1521 200.4945,-416.7236 175.0698,-406.5165"/>
<polygon fill="#191970" stroke="#191970" points="176.1395,-403.1745 165.5555,-402.6969 173.5316,-409.6706 176.1395,-403.1745"/>
</g>
<!-- Node18&#45;&gt;Node3 -->
<g id="edge31" class="edge">
<title>Node18&#45;&gt;Node3</title>
<path fill="none" stroke="#191970" d="M266.6737,-440.2887C254.5565,-432.2446 238.2691,-419.4514 229.1377,-404 176.9492,-315.691 174.2935,-187.2846 175.3576,-138.9064"/>
<polygon fill="#191970" stroke="#191970" points="178.8642,-138.7414 175.671,-128.6392 171.8674,-138.5277 178.8642,-138.7414"/>
</g>
<!-- Node19 -->
<g id="node20" class="node">
<title>Node19</title>
<g id="a_node20"><a xlink:href="sysprint_8h.html" target="_top" xlink:title=" ">
<polygon fill="#ffffff" stroke="#000000" points="238.0098,-385.5 238.0098,-403.5 326.2656,-403.5 326.2656,-385.5 238.0098,-385.5"/>
<text text-anchor="middle" x="282.1377" y="-391.5" font-family="Helvetica,sans-Serif" font-size="10.00" fill="#000000">config/sysprint.h</text>
</a>
</g>
</g>
<!-- Node18&#45;&gt;Node19 -->
<g id="edge32" class="edge">
<title>Node18&#45;&gt;Node19</title>
<path fill="none" stroke="#191970" d="M276.9714,-440.4179C275.4798,-433.2164 275.0419,-422.8962 275.6575,-413.8632"/>
<polygon fill="#191970" stroke="#191970" points="279.1503,-414.1392 276.9309,-403.7795 272.2055,-413.2621 279.1503,-414.1392"/>
</g>
<!-- Node19&#45;&gt;Node5 -->
<g id="edge34" class="edge">
<title>Node19&#45;&gt;Node5</title>
<path fill="none" stroke="#191970" d="M295.3481,-385.4179C307.6231,-376.9788 326.1276,-364.257 340.5485,-354.3426"/>
<polygon fill="#191970" stroke="#191970" points="342.6501,-357.1451 348.9077,-348.5956 338.6844,-351.3768 342.6501,-357.1451"/>
</g>
<!-- Node19&#45;&gt;Node18 -->
<g id="edge33" class="edge">
<title>Node19&#45;&gt;Node18</title>
<path fill="none" stroke="#191970" d="M287.3445,-403.7795C288.8168,-411.0373 289.2356,-421.3738 288.6008,-430.383"/>
<polygon fill="#191970" stroke="#191970" points="285.1146,-430.0517 287.304,-440.4179 292.0569,-430.949 285.1146,-430.0517"/>
</g>
</g>
</svg>
