<?xml version="1.0" encoding="UTF-8" standalone="no"?>
<!DOCTYPE svg PUBLIC "-//W3C//DTD SVG 1.1//EN"
 "http://www.w3.org/Graphics/SVG/1.1/DTD/svg11.dtd">
<!-- Generated by graphviz version 2.40.1 (20161225.0304)
 -->
<!-- Title: GluonicLQCD/io/observablesio.h Pages: 1 -->
<svg width="642pt" height="92pt"
 viewBox="0.00 0.00 641.58 92.00" xmlns="http://www.w3.org/2000/svg" xmlns:xlink="http://www.w3.org/1999/xlink">
<g id="graph0" class="graph" transform="scale(1 1) rotate(0) translate(4 88)">
<title>GluonicLQCD/io/observablesio.h</title>
<polygon fill="#ffffff" stroke="transparent" points="-4,4 -4,-88 637.5757,-88 637.5757,4 -4,4"/>
<!-- Node3 -->
<g id="node1" class="node">
<title>Node3</title>
<g id="a_node1"><a xlink:title=" ">
<polygon fill="#bfbfbf" stroke="#000000" points="255.2808,-65.5 255.2808,-83.5 416.354,-83.5 416.354,-65.5 255.2808,-65.5"/>
<text text-anchor="middle" x="335.8174" y="-71.5" font-family="Helvetica,sans-Serif" font-size="10.00" fill="#000000">GluonicLQCD/io/observablesio.h</text>
</a>
</g>
</g>
<!-- Node4 -->
<g id="node2" class="node">
<title>Node4</title>
<g id="a_node2"><a xlink:href="observablesio_8cpp.html" target="_top" xlink:title=" ">
<polygon fill="#ffffff" stroke="#000000" points="0,-5.5 0,-23.5 171.6348,-23.5 171.6348,-5.5 0,-5.5"/>
<text text-anchor="middle" x="85.8174" y="-11.5" font-family="Helvetica,sans-Serif" font-size="10.00" fill="#000000">GluonicLQCD/io/observablesio.cpp</text>
</a>
</g>
</g>
<!-- Node3&#45;&gt;Node4 -->
<g id="edge1" class="edge">
<title>Node3&#45;&gt;Node4</title>
<path fill="none" stroke="#191970" d="M288.2974,-63.0952C240.3962,-51.5989 167.4303,-34.0871 123.4129,-23.5229"/>
<polygon fill="#191970" stroke="#191970" points="287.5785,-66.522 298.1192,-65.4524 289.2121,-59.7153 287.5785,-66.522"/>
</g>
<!-- Node5 -->
<g id="node3" class="node">
<title>Node5</title>
<g id="a_node3"><a xlink:href="mastersamplertopcxyz_8cpp.html" target="_top" xlink:title=" ">
<polygon fill="#ffffff" stroke="#000000" points="189.9629,-.5 189.9629,-28.5 327.6719,-28.5 327.6719,-.5 189.9629,-.5"/>
<text text-anchor="start" x="197.9629" y="-16.5" font-family="Helvetica,sans-Serif" font-size="10.00" fill="#000000">GluonicLQCD/observables</text>
<text text-anchor="middle" x="258.8174" y="-6.5" font-family="Helvetica,sans-Serif" font-size="10.00" fill="#000000">/mastersamplertopcxyz.cpp</text>
</a>
</g>
</g>
<!-- Node3&#45;&gt;Node5 -->
<g id="edge2" class="edge">
<title>Node3&#45;&gt;Node5</title>
<path fill="none" stroke="#191970" d="M316.012,-59.0673C303.9564,-49.6732 288.6711,-37.7627 276.9358,-28.6183"/>
<polygon fill="#191970" stroke="#191970" points="314.0834,-62.0016 324.1227,-65.3873 318.386,-56.4799 314.0834,-62.0016"/>
</g>
<!-- Node6 -->
<g id="node4" class="node">
<title>Node6</title>
<g id="a_node4"><a xlink:href="supersampler_8cpp.html" target="_top" xlink:title=" ">
<polygon fill="#ffffff" stroke="#000000" points="345.623,-.5 345.623,-28.5 480.0117,-28.5 480.0117,-.5 345.623,-.5"/>
<text text-anchor="start" x="353.623" y="-16.5" font-family="Helvetica,sans-Serif" font-size="10.00" fill="#000000">GluonicLQCD/observables</text>
<text text-anchor="middle" x="412.8174" y="-6.5" font-family="Helvetica,sans-Serif" font-size="10.00" fill="#000000">/supersampler.cpp</text>
</a>
</g>
</g>
<!-- Node3&#45;&gt;Node6 -->
<g id="edge3" class="edge">
<title>Node3&#45;&gt;Node6</title>
<path fill="none" stroke="#191970" d="M355.6227,-59.0673C367.6784,-49.6732 382.9636,-37.7627 394.6989,-28.6183"/>
<polygon fill="#191970" stroke="#191970" points="353.2488,-56.4799 347.512,-65.3873 357.5513,-62.0016 353.2488,-56.4799"/>
</g>
<!-- Node7 -->
<g id="node5" class="node">
<title>Node7</title>
<g id="a_node5"><a xlink:href="observablestorer_8cpp.html" target="_top" xlink:title=" ">
<polygon fill="#ffffff" stroke="#000000" points="498.0591,-.5 498.0591,-28.5 633.5757,-28.5 633.5757,-.5 498.0591,-.5"/>
<text text-anchor="start" x="506.0591" y="-16.5" font-family="Helvetica,sans-Serif" font-size="10.00" fill="#000000">GluonicLQCD/observables</text>
<text text-anchor="middle" x="565.8174" y="-6.5" font-family="Helvetica,sans-Serif" font-size="10.00" fill="#000000">/tools/observablestorer.cpp</text>
</a>
</g>
</g>
<!-- Node3&#45;&gt;Node7 -->
<g id="edge4" class="edge">
<title>Node3&#45;&gt;Node7</title>
<path fill="none" stroke="#191970" d="M380.4317,-62.8615C418.0911,-53.0373 472.1145,-38.9442 512.1353,-28.504"/>
<polygon fill="#191970" stroke="#191970" points="379.5421,-59.4763 370.7494,-65.3873 381.3091,-66.2497 379.5421,-59.4763"/>
</g>
</g>
</svg>
