<?xml version="1.0" encoding="UTF-8" standalone="no"?>
<!DOCTYPE svg PUBLIC "-//W3C//DTD SVG 1.1//EN"
 "http://www.w3.org/Graphics/SVG/1.1/DTD/svg11.dtd">
<!-- Generated by graphviz version 2.40.1 (20161225.0304)
 -->
<!-- Title: GluonicLQCD/observables/observables.h Pages: 1 -->
<svg width="909pt" height="167pt"
 viewBox="0.00 0.00 908.72 167.00" xmlns="http://www.w3.org/2000/svg" xmlns:xlink="http://www.w3.org/1999/xlink">
<g id="graph0" class="graph" transform="scale(1 1) rotate(0) translate(4 163)">
<title>GluonicLQCD/observables/observables.h</title>
<polygon fill="#ffffff" stroke="transparent" points="-4,4 -4,-163 904.7163,-163 904.7163,4 -4,4"/>
<!-- Node24 -->
<g id="node1" class="node">
<title>Node24</title>
<g id="a_node1"><a xlink:title=" ">
<polygon fill="#bfbfbf" stroke="#000000" points="442.3276,-130.5 442.3276,-158.5 576.7163,-158.5 576.7163,-130.5 442.3276,-130.5"/>
<text text-anchor="start" x="450.3276" y="-146.5" font-family="Helvetica,sans-Serif" font-size="10.00" fill="#000000">GluonicLQCD/observables</text>
<text text-anchor="middle" x="509.522" y="-136.5" font-family="Helvetica,sans-Serif" font-size="10.00" fill="#000000">/observables.h</text>
</a>
</g>
</g>
<!-- Node25 -->
<g id="node2" class="node">
<title>Node25</title>
<g id="a_node2"><a xlink:href="system_8h.html" target="_top" xlink:title=" ">
<polygon fill="#ffffff" stroke="#000000" points="144.2832,-70.5 144.2832,-88.5 264.7607,-88.5 264.7607,-70.5 144.2832,-70.5"/>
<text text-anchor="middle" x="204.522" y="-76.5" font-family="Helvetica,sans-Serif" font-size="10.00" fill="#000000">GluonicLQCD/system.h</text>
</a>
</g>
</g>
<!-- Node24&#45;&gt;Node25 -->
<g id="edge1" class="edge">
<title>Node24&#45;&gt;Node25</title>
<path fill="none" stroke="#191970" d="M433.6917,-128.3394C374.6704,-115.7611 294.9399,-98.7694 246.7601,-88.5016"/>
<polygon fill="#191970" stroke="#191970" points="433.2071,-131.8147 443.717,-130.476 434.6662,-124.9684 433.2071,-131.8147"/>
</g>
<!-- Node28 -->
<g id="node5" class="node">
<title>Node28</title>
<g id="a_node5"><a xlink:href="mastersampler_8h.html" target="_top" xlink:title=" ">
<polygon fill="#ffffff" stroke="#000000" points="290.3276,-65.5 290.3276,-93.5 424.7163,-93.5 424.7163,-65.5 290.3276,-65.5"/>
<text text-anchor="start" x="298.3276" y="-81.5" font-family="Helvetica,sans-Serif" font-size="10.00" fill="#000000">GluonicLQCD/observables</text>
<text text-anchor="middle" x="357.522" y="-71.5" font-family="Helvetica,sans-Serif" font-size="10.00" fill="#000000">/mastersampler.h</text>
</a>
</g>
</g>
<!-- Node24&#45;&gt;Node28 -->
<g id="edge4" class="edge">
<title>Node24&#45;&gt;Node28</title>
<path fill="none" stroke="#191970" d="M461.4237,-126.5442C436.1205,-116.143 406.0874,-103.238 384.7645,-93.5765"/>
<polygon fill="#191970" stroke="#191970" points="460.2806,-129.8579 470.8618,-130.396 462.9257,-123.3768 460.2806,-129.8579"/>
</g>
<!-- Node30 -->
<g id="node7" class="node">
<title>Node30</title>
<g id="a_node7"><a xlink:href="mastersamplertopcxyz_8h.html" target="_top" xlink:title=" ">
<polygon fill="#ffffff" stroke="#000000" points="442.3276,-65.5 442.3276,-93.5 576.7163,-93.5 576.7163,-65.5 442.3276,-65.5"/>
<text text-anchor="start" x="450.3276" y="-81.5" font-family="Helvetica,sans-Serif" font-size="10.00" fill="#000000">GluonicLQCD/observables</text>
<text text-anchor="middle" x="509.522" y="-71.5" font-family="Helvetica,sans-Serif" font-size="10.00" fill="#000000">/mastersamplertopcxyz.h</text>
</a>
</g>
</g>
<!-- Node24&#45;&gt;Node30 -->
<g id="edge7" class="edge">
<title>Node24&#45;&gt;Node30</title>
<path fill="none" stroke="#191970" d="M502.9766,-120.4029C502.5275,-111.3703 502.8176,-101.4078 503.8472,-93.5765"/>
<polygon fill="#191970" stroke="#191970" points="499.4923,-120.7359 503.8436,-130.396 506.4661,-120.1309 499.4923,-120.7359"/>
</g>
<!-- Node32 -->
<g id="node9" class="node">
<title>Node32</title>
<g id="a_node9"><a xlink:href="latticeactionchargedensity_8h.html" target="_top" xlink:title=" ">
<polygon fill="#ffffff" stroke="#000000" points="594.7974,-65.5 594.7974,-93.5 736.2466,-93.5 736.2466,-65.5 594.7974,-65.5"/>
<text text-anchor="start" x="602.7974" y="-81.5" font-family="Helvetica,sans-Serif" font-size="10.00" fill="#000000">GluonicLQCD/observables</text>
<text text-anchor="middle" x="665.522" y="-71.5" font-family="Helvetica,sans-Serif" font-size="10.00" fill="#000000">/latticeactionchargedensity.h</text>
</a>
</g>
</g>
<!-- Node24&#45;&gt;Node32 -->
<g id="edge10" class="edge">
<title>Node24&#45;&gt;Node32</title>
<path fill="none" stroke="#191970" d="M547.1422,-126.2687C571.0368,-115.9159 601.8214,-103.1528 626.0636,-93.5765"/>
<polygon fill="#191970" stroke="#191970" points="545.4562,-123.1857 537.6932,-130.396 548.2582,-129.6005 545.4562,-123.1857"/>
</g>
<!-- Node34 -->
<g id="node11" class="node">
<title>Node34</title>
<g id="a_node11"><a xlink:href="supersampler_8h.html" target="_top" xlink:title=" ">
<polygon fill="#ffffff" stroke="#000000" points="754.3276,-65.5 754.3276,-93.5 888.7163,-93.5 888.7163,-65.5 754.3276,-65.5"/>
<text text-anchor="start" x="762.3276" y="-81.5" font-family="Helvetica,sans-Serif" font-size="10.00" fill="#000000">GluonicLQCD/observables</text>
<text text-anchor="middle" x="821.522" y="-71.5" font-family="Helvetica,sans-Serif" font-size="10.00" fill="#000000">/supersampler.h</text>
</a>
</g>
</g>
<!-- Node24&#45;&gt;Node34 -->
<g id="edge13" class="edge">
<title>Node24&#45;&gt;Node34</title>
<path fill="none" stroke="#191970" d="M581.0005,-128.3749C633.0536,-117.2749 703.029,-102.7252 754.1152,-92.3949"/>
<polygon fill="#191970" stroke="#191970" points="580.2169,-124.9632 571.1693,-130.476 581.68,-131.8086 580.2169,-124.9632"/>
</g>
<!-- Node26 -->
<g id="node3" class="node">
<title>Node26</title>
<g id="a_node3"><a xlink:href="main_8cpp.html" target="_top" xlink:title=" ">
<polygon fill="#ffffff" stroke="#000000" points="0,-5.5 0,-23.5 121.0439,-23.5 121.0439,-5.5 0,-5.5"/>
<text text-anchor="middle" x="60.522" y="-11.5" font-family="Helvetica,sans-Serif" font-size="10.00" fill="#000000">GluonicLQCD/main.cpp</text>
</a>
</g>
</g>
<!-- Node25&#45;&gt;Node26 -->
<g id="edge2" class="edge">
<title>Node25&#45;&gt;Node26</title>
<path fill="none" stroke="#191970" d="M175.1782,-66.2545C147.0866,-53.5743 105.4471,-34.7787 80.8387,-23.6708"/>
<polygon fill="#191970" stroke="#191970" points="173.9449,-69.5379 184.4994,-70.462 176.8249,-63.1577 173.9449,-69.5379"/>
</g>
<!-- Node27 -->
<g id="node4" class="node">
<title>Node27</title>
<g id="a_node4"><a xlink:href="system_8cpp.html" target="_top" xlink:title=" ">
<polygon fill="#ffffff" stroke="#000000" points="139.0024,-5.5 139.0024,-23.5 270.0415,-23.5 270.0415,-5.5 139.0024,-5.5"/>
<text text-anchor="middle" x="204.522" y="-11.5" font-family="Helvetica,sans-Serif" font-size="10.00" fill="#000000">GluonicLQCD/system.cpp</text>
</a>
</g>
</g>
<!-- Node25&#45;&gt;Node27 -->
<g id="edge3" class="edge">
<title>Node25&#45;&gt;Node27</title>
<path fill="none" stroke="#191970" d="M204.522,-60.1265C204.522,-48.1522 204.522,-33.3205 204.522,-23.8821"/>
<polygon fill="#191970" stroke="#191970" points="201.0221,-60.462 204.522,-70.462 208.0221,-60.4621 201.0221,-60.462"/>
</g>
<!-- Node28&#45;&gt;Node24 -->
<g id="edge5" class="edge">
<title>Node28&#45;&gt;Node24</title>
<path fill="none" stroke="#191970" d="M405.5482,-97.4262C430.8424,-107.8226 460.8793,-120.7284 482.2187,-130.396"/>
<polygon fill="#191970" stroke="#191970" points="406.6953,-94.1142 396.1141,-93.5765 404.0506,-100.5953 406.6953,-94.1142"/>
</g>
<!-- Node29 -->
<g id="node6" class="node">
<title>Node29</title>
<g id="a_node6"><a xlink:href="mastersampler_8cpp.html" target="_top" xlink:title=" ">
<polygon fill="#ffffff" stroke="#000000" points="288.3276,-.5 288.3276,-28.5 422.7163,-28.5 422.7163,-.5 288.3276,-.5"/>
<text text-anchor="start" x="296.3276" y="-16.5" font-family="Helvetica,sans-Serif" font-size="10.00" fill="#000000">GluonicLQCD/observables</text>
<text text-anchor="middle" x="355.522" y="-6.5" font-family="Helvetica,sans-Serif" font-size="10.00" fill="#000000">/mastersampler.cpp</text>
</a>
</g>
</g>
<!-- Node28&#45;&gt;Node29 -->
<g id="edge6" class="edge">
<title>Node28&#45;&gt;Node29</title>
<path fill="none" stroke="#191970" d="M356.7715,-55.1081C356.4959,-46.1539 356.1934,-36.3227 355.9551,-28.5765"/>
<polygon fill="#191970" stroke="#191970" points="353.282,-55.5084 357.088,-65.396 360.2787,-55.293 353.282,-55.5084"/>
</g>
<!-- Node30&#45;&gt;Node24 -->
<g id="edge8" class="edge">
<title>Node30&#45;&gt;Node24</title>
<path fill="none" stroke="#191970" d="M516.0657,-103.5653C516.5166,-112.5958 516.2282,-122.5597 515.2004,-130.396"/>
<polygon fill="#191970" stroke="#191970" points="519.5503,-103.2355 515.1968,-93.5765 512.5767,-103.8422 519.5503,-103.2355"/>
</g>
<!-- Node31 -->
<g id="node8" class="node">
<title>Node31</title>
<g id="a_node8"><a xlink:href="mastersamplertopcxyz_8cpp.html" target="_top" xlink:title=" ">
<polygon fill="#ffffff" stroke="#000000" points="440.6675,-.5 440.6675,-28.5 578.3765,-28.5 578.3765,-.5 440.6675,-.5"/>
<text text-anchor="start" x="448.6675" y="-16.5" font-family="Helvetica,sans-Serif" font-size="10.00" fill="#000000">GluonicLQCD/observables</text>
<text text-anchor="middle" x="509.522" y="-6.5" font-family="Helvetica,sans-Serif" font-size="10.00" fill="#000000">/mastersamplertopcxyz.cpp</text>
</a>
</g>
</g>
<!-- Node30&#45;&gt;Node31 -->
<g id="edge9" class="edge">
<title>Node30&#45;&gt;Node31</title>
<path fill="none" stroke="#191970" d="M509.522,-55.1081C509.522,-46.1539 509.522,-36.3227 509.522,-28.5765"/>
<polygon fill="#191970" stroke="#191970" points="506.0221,-55.3959 509.522,-65.396 513.0221,-55.396 506.0221,-55.3959"/>
</g>
<!-- Node32&#45;&gt;Node24 -->
<g id="edge11" class="edge">
<title>Node32&#45;&gt;Node24</title>
<path fill="none" stroke="#191970" d="M627.9704,-97.7016C604.089,-108.0498 573.3047,-120.8135 549.0501,-130.396"/>
<polygon fill="#191970" stroke="#191970" points="629.6505,-100.7871 637.4132,-93.5765 626.8483,-94.3724 629.6505,-100.7871"/>
</g>
<!-- Node33 -->
<g id="node10" class="node">
<title>Node33</title>
<g id="a_node10"><a xlink:href="latticeactionchargedensity_8cpp.html" target="_top" xlink:title=" ">
<polygon fill="#ffffff" stroke="#000000" points="596.5166,-.5 596.5166,-28.5 748.5273,-28.5 748.5273,-.5 596.5166,-.5"/>
<text text-anchor="start" x="604.5166" y="-16.5" font-family="Helvetica,sans-Serif" font-size="10.00" fill="#000000">GluonicLQCD/observables</text>
<text text-anchor="middle" x="672.522" y="-6.5" font-family="Helvetica,sans-Serif" font-size="10.00" fill="#000000">/latticeactionchargedensity.cpp</text>
</a>
</g>
</g>
<!-- Node32&#45;&gt;Node33 -->
<g id="edge12" class="edge">
<title>Node32&#45;&gt;Node33</title>
<path fill="none" stroke="#191970" d="M668.117,-55.4029C669.0898,-46.3703 670.1627,-36.4078 671.006,-28.5765"/>
<polygon fill="#191970" stroke="#191970" points="664.6318,-55.0787 667.0409,-65.396 671.5916,-55.8282 664.6318,-55.0787"/>
</g>
<!-- Node34&#45;&gt;Node24 -->
<g id="edge14" class="edge">
<title>Node34&#45;&gt;Node24</title>
<path fill="none" stroke="#191970" d="M750.0647,-95.6206C698.051,-106.7123 628.1336,-121.2502 577.0512,-131.5804"/>
<polygon fill="#191970" stroke="#191970" points="750.8409,-99.0338 759.8885,-93.521 749.3778,-92.1884 750.8409,-99.0338"/>
</g>
<!-- Node35 -->
<g id="node12" class="node">
<title>Node35</title>
<g id="a_node12"><a xlink:href="supersampler_8cpp.html" target="_top" xlink:title=" ">
<polygon fill="#ffffff" stroke="#000000" points="766.3276,-.5 766.3276,-28.5 900.7163,-28.5 900.7163,-.5 766.3276,-.5"/>
<text text-anchor="start" x="774.3276" y="-16.5" font-family="Helvetica,sans-Serif" font-size="10.00" fill="#000000">GluonicLQCD/observables</text>
<text text-anchor="middle" x="833.522" y="-6.5" font-family="Helvetica,sans-Serif" font-size="10.00" fill="#000000">/supersampler.cpp</text>
</a>
</g>
</g>
<!-- Node34&#45;&gt;Node35 -->
<g id="edge15" class="edge">
<title>Node34&#45;&gt;Node35</title>
<path fill="none" stroke="#191970" d="M825.9707,-55.4029C827.6382,-46.3703 829.4775,-36.4078 830.9232,-28.5765"/>
<polygon fill="#191970" stroke="#191970" points="822.4995,-54.9267 824.1258,-65.396 829.3832,-56.1976 822.4995,-54.9267"/>
</g>
</g>
</svg>
