<?xml version="1.0" encoding="UTF-8" standalone="no"?>
<!DOCTYPE svg PUBLIC "-//W3C//DTD SVG 1.1//EN"
 "http://www.w3.org/Graphics/SVG/1.1/DTD/svg11.dtd">
<!-- Generated by graphviz version 2.40.1 (20161225.0304)
 -->
<!-- Title: GluonicLQCD/config/parameters.cpp Pages: 1 -->
<svg width="715pt" height="532pt"
 viewBox="0.00 0.00 715.19 532.00" xmlns="http://www.w3.org/2000/svg" xmlns:xlink="http://www.w3.org/1999/xlink">
<g id="graph0" class="graph" transform="scale(1 1) rotate(0) translate(4 528)">
<title>GluonicLQCD/config/parameters.cpp</title>
<polygon fill="#ffffff" stroke="transparent" points="-4,4 -4,-528 711.188,-528 711.188,4 -4,4"/>
<!-- Node0 -->
<g id="node1" class="node">
<title>Node0</title>
<g id="a_node1"><a xlink:title=" ">
<polygon fill="#bfbfbf" stroke="#000000" points="592.9961,-495.5 592.9961,-523.5 700.1485,-523.5 700.1485,-495.5 592.9961,-495.5"/>
<text text-anchor="start" x="600.9961" y="-511.5" font-family="Helvetica,sans-Serif" font-size="10.00" fill="#000000">GluonicLQCD/config</text>
<text text-anchor="middle" x="646.5723" y="-501.5" font-family="Helvetica,sans-Serif" font-size="10.00" fill="#000000">/parameters.cpp</text>
</a>
</g>
</g>
<!-- Node1 -->
<g id="node2" class="node">
<title>Node1</title>
<g id="a_node2"><a xlink:href="parameters_8h.html" target="_top" xlink:title=" ">
<polygon fill="#ffffff" stroke="#000000" points="571.1143,-440.5 571.1143,-458.5 646.0303,-458.5 646.0303,-440.5 571.1143,-440.5"/>
<text text-anchor="middle" x="608.5723" y="-446.5" font-family="Helvetica,sans-Serif" font-size="10.00" fill="#000000">parameters.h</text>
</a>
</g>
</g>
<!-- Node0&#45;&gt;Node1 -->
<g id="edge1" class="edge">
<title>Node0&#45;&gt;Node1</title>
<path fill="none" stroke="#191970" d="M637.5668,-495.2808C632.224,-486.8448 625.4071,-476.0813 619.7258,-467.1107"/>
<polygon fill="#191970" stroke="#191970" points="622.6331,-465.1597 614.3256,-458.5842 616.7193,-468.9051 622.6331,-465.1597"/>
</g>
<!-- Node18 -->
<g id="node19" class="node">
<title>Node18</title>
<g id="a_node19"><a xlink:title=" ">
<polygon fill="#ffffff" stroke="#bfbfbf" points="663.9566,-440.5 663.9566,-458.5 707.188,-458.5 707.188,-440.5 663.9566,-440.5"/>
<text text-anchor="middle" x="685.5723" y="-446.5" font-family="Helvetica,sans-Serif" font-size="10.00" fill="#000000">cmath</text>
</a>
</g>
</g>
<!-- Node0&#45;&gt;Node18 -->
<g id="edge28" class="edge">
<title>Node0&#45;&gt;Node18</title>
<path fill="none" stroke="#191970" d="M655.8148,-495.2808C661.2982,-486.8448 668.2945,-476.0813 674.1253,-467.1107"/>
<polygon fill="#191970" stroke="#191970" points="677.1522,-468.8761 679.6676,-458.5842 671.2831,-465.0612 677.1522,-468.8761"/>
</g>
<!-- Node2 -->
<g id="node3" class="node">
<title>Node2</title>
<g id="a_node3"><a xlink:title=" ">
<polygon fill="#ffffff" stroke="#bfbfbf" points="506.3457,-385.5 506.3457,-403.5 546.7989,-403.5 546.7989,-385.5 506.3457,-385.5"/>
<text text-anchor="middle" x="526.5723" y="-391.5" font-family="Helvetica,sans-Serif" font-size="10.00" fill="#000000">string</text>
</a>
</g>
</g>
<!-- Node1&#45;&gt;Node2 -->
<g id="edge2" class="edge">
<title>Node1&#45;&gt;Node2</title>
<path fill="none" stroke="#191970" d="M595.0317,-440.4179C582.4497,-431.9788 563.4827,-419.257 548.7012,-409.3426"/>
<polygon fill="#191970" stroke="#191970" points="550.3876,-406.2593 540.1331,-403.5956 546.4883,-412.0727 550.3876,-406.2593"/>
</g>
<!-- Node3 -->
<g id="node4" class="node">
<title>Node3</title>
<g id="a_node4"><a xlink:title=" ">
<polygon fill="#ffffff" stroke="#bfbfbf" points="558.9566,-110.5 558.9566,-128.5 602.188,-128.5 602.188,-110.5 558.9566,-110.5"/>
<text text-anchor="middle" x="580.5723" y="-116.5" font-family="Helvetica,sans-Serif" font-size="10.00" fill="#000000">vector</text>
</a>
</g>
</g>
<!-- Node1&#45;&gt;Node3 -->
<g id="edge3" class="edge">
<title>Node1&#45;&gt;Node3</title>
<path fill="none" stroke="#191970" d="M624.9459,-440.3358C651.8775,-423.9126 702.5723,-386.7261 702.5723,-339.5 702.5723,-339.5 702.5723,-339.5 702.5723,-229.5 702.5723,-180.5446 647.717,-147.7833 611.5725,-131.5103"/>
<polygon fill="#191970" stroke="#191970" points="612.9517,-128.2935 602.3835,-127.543 610.177,-134.7201 612.9517,-128.2935"/>
</g>
<!-- Node4 -->
<g id="node5" class="node">
<title>Node4</title>
<g id="a_node5"><a xlink:href="sysprint_8h.html" target="_top" xlink:title=" ">
<polygon fill="#ffffff" stroke="#000000" points="564.4444,-385.5 564.4444,-403.5 652.7002,-403.5 652.7002,-385.5 564.4444,-385.5"/>
<text text-anchor="middle" x="608.5723" y="-391.5" font-family="Helvetica,sans-Serif" font-size="10.00" fill="#000000">config/sysprint.h</text>
</a>
</g>
</g>
<!-- Node1&#45;&gt;Node4 -->
<g id="edge4" class="edge">
<title>Node1&#45;&gt;Node4</title>
<path fill="none" stroke="#191970" d="M603.406,-440.4179C601.9144,-433.2164 601.4765,-422.8962 602.0921,-413.8632"/>
<polygon fill="#191970" stroke="#191970" points="605.585,-414.1392 603.3655,-403.7795 598.6401,-413.2621 605.585,-414.1392"/>
</g>
<!-- Node4&#45;&gt;Node1 -->
<g id="edge5" class="edge">
<title>Node4&#45;&gt;Node1</title>
<path fill="none" stroke="#191970" d="M613.7791,-403.7795C615.2515,-411.0373 615.6703,-421.3738 615.0355,-430.383"/>
<polygon fill="#191970" stroke="#191970" points="611.5493,-430.0517 613.7386,-440.4179 618.4915,-430.949 611.5493,-430.0517"/>
</g>
<!-- Node5 -->
<g id="node6" class="node">
<title>Node5</title>
<g id="a_node6"><a xlink:href="parallel_8h.html" target="_top" xlink:title=" ">
<polygon fill="#ffffff" stroke="#000000" points="527.3189,-330.5 527.3189,-348.5 647.8257,-348.5 647.8257,-330.5 527.3189,-330.5"/>
<text text-anchor="middle" x="587.5723" y="-336.5" font-family="Helvetica,sans-Serif" font-size="10.00" fill="#000000">parallelization/parallel.h</text>
</a>
</g>
</g>
<!-- Node4&#45;&gt;Node5 -->
<g id="edge6" class="edge">
<title>Node4&#45;&gt;Node5</title>
<path fill="none" stroke="#191970" d="M605.1046,-385.4179C602.2945,-378.0581 598.2407,-367.441 594.7389,-358.2695"/>
<polygon fill="#191970" stroke="#191970" points="597.9522,-356.8732 591.1154,-348.7795 591.4127,-359.3701 597.9522,-356.8732"/>
</g>
<!-- Node6 -->
<g id="node7" class="node">
<title>Node6</title>
<g id="a_node7"><a xlink:href="communicator_8h.html" target="_top" xlink:title=" ">
<polygon fill="#ffffff" stroke="#000000" points="588.2769,-275.5 588.2769,-293.5 674.8677,-293.5 674.8677,-275.5 588.2769,-275.5"/>
<text text-anchor="middle" x="631.5723" y="-281.5" font-family="Helvetica,sans-Serif" font-size="10.00" fill="#000000">communicator.h</text>
</a>
</g>
</g>
<!-- Node5&#45;&gt;Node6 -->
<g id="edge7" class="edge">
<title>Node5&#45;&gt;Node6</title>
<path fill="none" stroke="#191970" d="M594.838,-330.4179C601.0424,-322.6624 610.1403,-311.29 617.7295,-301.8035"/>
<polygon fill="#191970" stroke="#191970" points="620.6348,-303.7746 624.1487,-293.7795 615.1687,-299.4017 620.6348,-303.7746"/>
</g>
<!-- Node9 -->
<g id="node10" class="node">
<title>Node9</title>
<g id="a_node10"><a xlink:href="index_8h.html" target="_top" xlink:title=" ">
<polygon fill="#ffffff" stroke="#000000" points="524.4864,-165.5 524.4864,-183.5 636.6582,-183.5 636.6582,-165.5 524.4864,-165.5"/>
<text text-anchor="middle" x="580.5723" y="-171.5" font-family="Helvetica,sans-Serif" font-size="10.00" fill="#000000">parallelization/index.h</text>
</a>
</g>
</g>
<!-- Node5&#45;&gt;Node9 -->
<g id="edge26" class="edge">
<title>Node5&#45;&gt;Node9</title>
<path fill="none" stroke="#191970" d="M585.5116,-330.4969C583.5338,-321.3616 580.6876,-306.7842 579.5723,-294 576.4886,-258.6532 577.9711,-217.2033 579.2953,-193.5784"/>
<polygon fill="#191970" stroke="#191970" points="582.7936,-193.7129 579.912,-183.5175 575.8067,-193.2846 582.7936,-193.7129"/>
</g>
<!-- Node12 -->
<g id="node13" class="node">
<title>Node12</title>
<g id="a_node13"><a xlink:href="parallelparameters_8h.html" target="_top" xlink:title=" ">
<polygon fill="#ffffff" stroke="#000000" points="103.0308,-165.5 103.0308,-183.5 274.1138,-183.5 274.1138,-165.5 103.0308,-165.5"/>
<text text-anchor="middle" x="188.5723" y="-171.5" font-family="Helvetica,sans-Serif" font-size="10.00" fill="#000000">parallelization/parallelparameters.h</text>
</a>
</g>
</g>
<!-- Node5&#45;&gt;Node12 -->
<g id="edge27" class="edge">
<title>Node5&#45;&gt;Node12</title>
<path fill="none" stroke="#191970" d="M565.552,-330.3939C498.6538,-302.7292 297.6299,-219.599 219.813,-187.4191"/>
<polygon fill="#191970" stroke="#191970" points="221.1031,-184.1652 210.5246,-183.578 218.4281,-190.6339 221.1031,-184.1652"/>
</g>
<!-- Node6&#45;&gt;Node3 -->
<g id="edge8" class="edge">
<title>Node6&#45;&gt;Node3</title>
<path fill="none" stroke="#191970" d="M635.9182,-275.4793C645.2731,-254.67 664.9618,-202.2404 645.5723,-165 638.3035,-151.0391 624.5737,-140.4762 611.5988,-133.0593"/>
<polygon fill="#191970" stroke="#191970" points="612.867,-129.7716 602.3877,-128.2111 609.6066,-135.966 612.867,-129.7716"/>
</g>
<!-- Node7 -->
<g id="node8" class="node">
<title>Node7</title>
<g id="a_node8"><a xlink:href="lattice_8h.html" target="_top" xlink:title=" ">
<polygon fill="#ffffff" stroke="#000000" points="361.836,-220.5 361.836,-238.5 437.3086,-238.5 437.3086,-220.5 361.836,-220.5"/>
<text text-anchor="middle" x="399.5723" y="-226.5" font-family="Helvetica,sans-Serif" font-size="10.00" fill="#000000">math/lattice.h</text>
</a>
</g>
</g>
<!-- Node6&#45;&gt;Node7 -->
<g id="edge9" class="edge">
<title>Node6&#45;&gt;Node7</title>
<path fill="none" stroke="#191970" d="M593.522,-275.4795C553.5697,-266.008 490.6568,-251.0933 447.3791,-240.8335"/>
<polygon fill="#191970" stroke="#191970" points="448.1811,-237.4267 437.6434,-238.5255 446.5663,-244.2379 448.1811,-237.4267"/>
</g>
<!-- Node7&#45;&gt;Node3 -->
<g id="edge10" class="edge">
<title>Node7&#45;&gt;Node3</title>
<path fill="none" stroke="#191970" d="M415.4937,-220.4076C431.318,-211.325 456.2409,-196.8963 477.5723,-184 505.411,-167.1696 537.0786,-147.2156 557.8648,-134.0057"/>
<polygon fill="#191970" stroke="#191970" points="559.7743,-136.9392 566.3302,-128.6162 556.015,-131.0343 559.7743,-136.9392"/>
</g>
<!-- Node8 -->
<g id="node9" class="node">
<title>Node8</title>
<g id="a_node9"><a xlink:title=" ">
<polygon fill="#ffffff" stroke="#bfbfbf" points="246.3457,-110.5 246.3457,-128.5 286.7989,-128.5 286.7989,-110.5 246.3457,-110.5"/>
<text text-anchor="middle" x="266.5723" y="-116.5" font-family="Helvetica,sans-Serif" font-size="10.00" fill="#000000">mpi.h</text>
</a>
</g>
</g>
<!-- Node7&#45;&gt;Node8 -->
<g id="edge11" class="edge">
<title>Node7&#45;&gt;Node8</title>
<path fill="none" stroke="#191970" d="M380.1363,-220.4795C363.6071,-212.2867 339.7329,-199.1851 321.5723,-184 304.9024,-170.0613 289.165,-150.7441 278.8302,-136.8899"/>
<polygon fill="#191970" stroke="#191970" points="281.5759,-134.7146 272.8633,-128.6861 275.9148,-138.832 281.5759,-134.7146"/>
</g>
<!-- Node7&#45;&gt;Node9 -->
<g id="edge12" class="edge">
<title>Node7&#45;&gt;Node9</title>
<path fill="none" stroke="#191970" d="M429.4608,-220.4179C459.9441,-211.155 507.4073,-196.7325 540.9958,-186.526"/>
<polygon fill="#191970" stroke="#191970" points="542.3899,-189.7605 550.9403,-183.5042 540.3546,-183.0629 542.3899,-189.7605"/>
</g>
<!-- Node10 -->
<g id="node11" class="node">
<title>Node10</title>
<g id="a_node11"><a xlink:href="neighbours_8h.html" target="_top" xlink:title=" ">
<polygon fill="#ffffff" stroke="#000000" points="330.6983,-165.5 330.6983,-183.5 468.4463,-183.5 468.4463,-165.5 330.6983,-165.5"/>
<text text-anchor="middle" x="399.5723" y="-171.5" font-family="Helvetica,sans-Serif" font-size="10.00" fill="#000000">parallelization/neighbours.h</text>
</a>
</g>
</g>
<!-- Node7&#45;&gt;Node10 -->
<g id="edge14" class="edge">
<title>Node7&#45;&gt;Node10</title>
<path fill="none" stroke="#191970" d="M399.5723,-220.4179C399.5723,-213.2164 399.5723,-202.8962 399.5723,-193.8632"/>
<polygon fill="#191970" stroke="#191970" points="403.0724,-193.7794 399.5723,-183.7795 396.0724,-193.7795 403.0724,-193.7794"/>
</g>
<!-- Node7&#45;&gt;Node12 -->
<g id="edge17" class="edge">
<title>Node7&#45;&gt;Node12</title>
<path fill="none" stroke="#191970" d="M364.73,-220.4179C328.658,-211.0152 272.1902,-196.2961 232.9474,-186.067"/>
<polygon fill="#191970" stroke="#191970" points="233.6752,-182.6398 223.1157,-183.5042 231.9096,-189.4135 233.6752,-182.6398"/>
</g>
<!-- Node13 -->
<g id="node14" class="node">
<title>Node13</title>
<g id="a_node14"><a xlink:href="functions_8h.html" target="_top" xlink:title=" ">
<polygon fill="#ffffff" stroke="#000000" points="20.3902,-165.5 20.3902,-183.5 84.7544,-183.5 84.7544,-165.5 20.3902,-165.5"/>
<text text-anchor="middle" x="52.5723" y="-171.5" font-family="Helvetica,sans-Serif" font-size="10.00" fill="#000000">functions.h</text>
</a>
</g>
</g>
<!-- Node7&#45;&gt;Node13 -->
<g id="edge19" class="edge">
<title>Node7&#45;&gt;Node13</title>
<path fill="none" stroke="#191970" d="M361.7218,-224.8635C305.6226,-217.7756 196.9057,-203.2136 95.3187,-184.2195"/>
<polygon fill="#191970" stroke="#191970" points="95.672,-180.7244 85.1961,-182.3074 94.3727,-187.6028 95.672,-180.7244"/>
</g>
<!-- Node9&#45;&gt;Node3 -->
<g id="edge13" class="edge">
<title>Node9&#45;&gt;Node3</title>
<path fill="none" stroke="#191970" d="M580.5723,-165.4179C580.5723,-158.2164 580.5723,-147.8962 580.5723,-138.8632"/>
<polygon fill="#191970" stroke="#191970" points="584.0724,-138.7794 580.5723,-128.7795 577.0724,-138.7795 584.0724,-138.7794"/>
</g>
<!-- Node10&#45;&gt;Node3 -->
<g id="edge16" class="edge">
<title>Node10&#45;&gt;Node3</title>
<path fill="none" stroke="#191970" d="M429.4608,-165.4179C462.492,-155.3808 515.4601,-139.2855 549.1092,-129.0606"/>
<polygon fill="#191970" stroke="#191970" points="550.338,-132.3453 558.8884,-126.089 548.3028,-125.6477 550.338,-132.3453"/>
</g>
<!-- Node11 -->
<g id="node12" class="node">
<title>Node11</title>
<g id="a_node12"><a xlink:href="neighbourlist_8h.html" target="_top" xlink:title=" ">
<polygon fill="#ffffff" stroke="#000000" points="359.0503,-110.5 359.0503,-128.5 440.0943,-128.5 440.0943,-110.5 359.0503,-110.5"/>
<text text-anchor="middle" x="399.5723" y="-116.5" font-family="Helvetica,sans-Serif" font-size="10.00" fill="#000000">neighbourlist.h</text>
</a>
</g>
</g>
<!-- Node10&#45;&gt;Node11 -->
<g id="edge15" class="edge">
<title>Node10&#45;&gt;Node11</title>
<path fill="none" stroke="#191970" d="M399.5723,-165.4179C399.5723,-158.2164 399.5723,-147.8962 399.5723,-138.8632"/>
<polygon fill="#191970" stroke="#191970" points="403.0724,-138.7794 399.5723,-128.7795 396.0724,-138.7795 403.0724,-138.7794"/>
</g>
<!-- Node12&#45;&gt;Node8 -->
<g id="edge18" class="edge">
<title>Node12&#45;&gt;Node8</title>
<path fill="none" stroke="#191970" d="M201.4524,-165.4179C213.3077,-157.0584 231.1226,-144.4966 245.1239,-134.6239"/>
<polygon fill="#191970" stroke="#191970" points="247.5174,-137.2188 253.6731,-128.5956 243.4835,-131.498 247.5174,-137.2188"/>
</g>
<!-- Node14 -->
<g id="node15" class="node">
<title>Node14</title>
<g id="a_node15"><a xlink:href="su3_8h.html" target="_top" xlink:title=" ">
<polygon fill="#ffffff" stroke="#000000" points="12.0601,-110.5 12.0601,-128.5 93.0845,-128.5 93.0845,-110.5 12.0601,-110.5"/>
<text text-anchor="middle" x="52.5723" y="-116.5" font-family="Helvetica,sans-Serif" font-size="10.00" fill="#000000">matrices/su3.h</text>
</a>
</g>
</g>
<!-- Node13&#45;&gt;Node14 -->
<g id="edge20" class="edge">
<title>Node13&#45;&gt;Node14</title>
<path fill="none" stroke="#191970" d="M52.5723,-165.4179C52.5723,-158.2164 52.5723,-147.8962 52.5723,-138.8632"/>
<polygon fill="#191970" stroke="#191970" points="56.0724,-138.7794 52.5723,-128.7795 49.0724,-138.7795 56.0724,-138.7794"/>
</g>
<!-- Node15 -->
<g id="node16" class="node">
<title>Node15</title>
<g id="a_node16"><a xlink:href="complex_8h.html" target="_top" xlink:title=" ">
<polygon fill="#ffffff" stroke="#000000" points="9.2793,-55.5 9.2793,-73.5 95.8653,-73.5 95.8653,-55.5 9.2793,-55.5"/>
<text text-anchor="middle" x="52.5723" y="-61.5" font-family="Helvetica,sans-Serif" font-size="10.00" fill="#000000">math/complex.h</text>
</a>
</g>
</g>
<!-- Node13&#45;&gt;Node15 -->
<g id="edge25" class="edge">
<title>Node13&#45;&gt;Node15</title>
<path fill="none" stroke="#191970" d="M36.6486,-165.1981C24.7892,-157.2677 9.5007,-144.6725 2.5723,-129 -5.8184,-110.0196 11.7597,-91.6442 28.3375,-79.3948"/>
<polygon fill="#191970" stroke="#191970" points="30.528,-82.1358 36.7726,-73.5768 26.5535,-76.3735 30.528,-82.1358"/>
</g>
<!-- Node17 -->
<g id="node18" class="node">
<title>Node17</title>
<g id="a_node18"><a xlink:href="su2_8h.html" target="_top" xlink:title=" ">
<polygon fill="#ffffff" stroke="#000000" points="111.0601,-110.5 111.0601,-128.5 192.0845,-128.5 192.0845,-110.5 111.0601,-110.5"/>
<text text-anchor="middle" x="151.5723" y="-116.5" font-family="Helvetica,sans-Serif" font-size="10.00" fill="#000000">matrices/su2.h</text>
</a>
</g>
</g>
<!-- Node13&#45;&gt;Node17 -->
<g id="edge23" class="edge">
<title>Node13&#45;&gt;Node17</title>
<path fill="none" stroke="#191970" d="M68.9201,-165.4179C84.5405,-156.7399 108.3121,-143.5334 126.3585,-133.5077"/>
<polygon fill="#191970" stroke="#191970" points="128.1584,-136.5117 135.2002,-128.5956 124.7588,-130.3925 128.1584,-136.5117"/>
</g>
<!-- Node14&#45;&gt;Node15 -->
<g id="edge21" class="edge">
<title>Node14&#45;&gt;Node15</title>
<path fill="none" stroke="#191970" d="M52.5723,-110.4179C52.5723,-103.2164 52.5723,-92.8962 52.5723,-83.8632"/>
<polygon fill="#191970" stroke="#191970" points="56.0724,-83.7794 52.5723,-73.7795 49.0724,-83.7795 56.0724,-83.7794"/>
</g>
<!-- Node16 -->
<g id="node17" class="node">
<title>Node16</title>
<g id="a_node17"><a xlink:title=" ">
<polygon fill="#ffffff" stroke="#bfbfbf" points="25.3999,-.5 25.3999,-18.5 79.7447,-18.5 79.7447,-.5 25.3999,-.5"/>
<text text-anchor="middle" x="52.5723" y="-6.5" font-family="Helvetica,sans-Serif" font-size="10.00" fill="#000000">iostream</text>
</a>
</g>
</g>
<!-- Node15&#45;&gt;Node16 -->
<g id="edge22" class="edge">
<title>Node15&#45;&gt;Node16</title>
<path fill="none" stroke="#191970" d="M52.5723,-55.4179C52.5723,-48.2164 52.5723,-37.8962 52.5723,-28.8632"/>
<polygon fill="#191970" stroke="#191970" points="56.0724,-28.7794 52.5723,-18.7795 49.0724,-28.7795 56.0724,-28.7794"/>
</g>
<!-- Node17&#45;&gt;Node15 -->
<g id="edge24" class="edge">
<title>Node17&#45;&gt;Node15</title>
<path fill="none" stroke="#191970" d="M135.2245,-110.4179C119.6042,-101.7399 95.8325,-88.5334 77.7861,-78.5077"/>
<polygon fill="#191970" stroke="#191970" points="79.3858,-75.3925 68.9444,-73.5956 75.9863,-81.5117 79.3858,-75.3925"/>
</g>
</g>
</svg>
