<?xml version="1.0" encoding="UTF-8" standalone="no"?>
<!DOCTYPE svg PUBLIC "-//W3C//DTD SVG 1.1//EN"
 "http://www.w3.org/Graphics/SVG/1.1/DTD/svg11.dtd">
<!-- Generated by graphviz version 2.40.1 (20161225.0304)
 -->
<!-- Title: GluonicLQCD/parallelization/parallel.h Pages: 1 -->
<svg width="3385pt" height="232pt"
 viewBox="0.00 0.00 3385.10 232.00" xmlns="http://www.w3.org/2000/svg" xmlns:xlink="http://www.w3.org/1999/xlink">
<g id="graph0" class="graph" transform="scale(1 1) rotate(0) translate(4 228)">
<title>GluonicLQCD/parallelization/parallel.h</title>
<polygon fill="#ffffff" stroke="transparent" points="-4,4 -4,-228 3381.0957,-228 3381.0957,4 -4,4"/>
<!-- Node14 -->
<g id="node1" class="node">
<title>Node14</title>
<g id="a_node1"><a xlink:title=" ">
<polygon fill="#bfbfbf" stroke="#000000" points="2783.7686,-195.5 2783.7686,-223.5 2925.3838,-223.5 2925.3838,-195.5 2783.7686,-195.5"/>
<text text-anchor="start" x="2791.7686" y="-211.5" font-family="Helvetica,sans-Serif" font-size="10.00" fill="#000000">GluonicLQCD/parallelization</text>
<text text-anchor="middle" x="2854.5762" y="-201.5" font-family="Helvetica,sans-Serif" font-size="10.00" fill="#000000">/parallel.h</text>
</a>
</g>
</g>
<!-- Node15 -->
<g id="node2" class="node">
<title>Node15</title>
<g id="a_node2"><a xlink:href="configloader_8cpp.html" target="_top" xlink:title=" ">
<polygon fill="#ffffff" stroke="#000000" points="0,-.5 0,-28.5 107.1523,-28.5 107.1523,-.5 0,-.5"/>
<text text-anchor="start" x="8" y="-16.5" font-family="Helvetica,sans-Serif" font-size="10.00" fill="#000000">GluonicLQCD/config</text>
<text text-anchor="middle" x="53.5762" y="-6.5" font-family="Helvetica,sans-Serif" font-size="10.00" fill="#000000">/configloader.cpp</text>
</a>
</g>
</g>
<!-- Node14&#45;&gt;Node15 -->
<g id="edge1" class="edge">
<title>Node14&#45;&gt;Node15</title>
<path fill="none" stroke="#191970" d="M2773.4662,-206.8317C2588.6724,-200.5374 2122.2075,-183.4329 1732.5762,-159 1013.4462,-113.9051 828.6745,-138.9885 116.5762,-29 113.5814,-28.5374 110.5175,-28.0111 107.4324,-27.4397"/>
<polygon fill="#191970" stroke="#191970" points="2773.5296,-210.3358 2783.6426,-207.1771 2773.7671,-203.3398 2773.5296,-210.3358"/>
</g>
<!-- Node16 -->
<g id="node3" class="node">
<title>Node16</title>
<g id="a_node3"><a xlink:href="sysprint_8h.html" target="_top" xlink:title=" ">
<polygon fill="#ffffff" stroke="#000000" points="1742,-130.5 1742,-158.5 1849.1523,-158.5 1849.1523,-130.5 1742,-130.5"/>
<text text-anchor="start" x="1750" y="-146.5" font-family="Helvetica,sans-Serif" font-size="10.00" fill="#000000">GluonicLQCD/config</text>
<text text-anchor="middle" x="1795.5762" y="-136.5" font-family="Helvetica,sans-Serif" font-size="10.00" fill="#000000">/sysprint.h</text>
</a>
</g>
</g>
<!-- Node14&#45;&gt;Node16 -->
<g id="edge2" class="edge">
<title>Node14&#45;&gt;Node16</title>
<path fill="none" stroke="#191970" d="M2773.2448,-204.508C2566.04,-191.79 2022.4762,-158.4268 1849.3565,-147.801"/>
<polygon fill="#191970" stroke="#191970" points="2773.2521,-208.0149 2783.4478,-205.1342 2773.681,-201.0281 2773.2521,-208.0149"/>
</g>
<!-- Node27 -->
<g id="node14" class="node">
<title>Node27</title>
<g id="a_node14"><a xlink:href="correlator_8cpp.html" target="_top" xlink:title=" ">
<polygon fill="#ffffff" stroke="#000000" points="2635.3818,-.5 2635.3818,-28.5 2769.7705,-28.5 2769.7705,-.5 2635.3818,-.5"/>
<text text-anchor="start" x="2643.3818" y="-16.5" font-family="Helvetica,sans-Serif" font-size="10.00" fill="#000000">GluonicLQCD/observables</text>
<text text-anchor="middle" x="2702.5762" y="-6.5" font-family="Helvetica,sans-Serif" font-size="10.00" fill="#000000">/correlator.cpp</text>
</a>
</g>
</g>
<!-- Node14&#45;&gt;Node27 -->
<g id="edge28" class="edge">
<title>Node14&#45;&gt;Node27</title>
<path fill="none" stroke="#191970" d="M2837.4897,-187.5798C2806.0467,-147.2418 2739.8393,-62.3047 2713.6128,-28.6589"/>
<polygon fill="#191970" stroke="#191970" points="2834.7364,-189.7408 2843.6447,-195.4761 2840.2573,-185.4373 2834.7364,-189.7408"/>
</g>
<!-- Node31 -->
<g id="node18" class="node">
<title>Node31</title>
<g id="a_node18"><a xlink:href="plaquette_8cpp.html" target="_top" xlink:title=" ">
<polygon fill="#ffffff" stroke="#000000" points="2787.3818,-.5 2787.3818,-28.5 2921.7705,-28.5 2921.7705,-.5 2787.3818,-.5"/>
<text text-anchor="start" x="2795.3818" y="-16.5" font-family="Helvetica,sans-Serif" font-size="10.00" fill="#000000">GluonicLQCD/observables</text>
<text text-anchor="middle" x="2854.5762" y="-6.5" font-family="Helvetica,sans-Serif" font-size="10.00" fill="#000000">/plaquette.cpp</text>
</a>
</g>
</g>
<!-- Node14&#45;&gt;Node31 -->
<g id="edge29" class="edge">
<title>Node14&#45;&gt;Node31</title>
<path fill="none" stroke="#191970" d="M2854.5762,-185.2545C2854.5762,-144.0615 2854.5762,-61.6712 2854.5762,-28.6589"/>
<polygon fill="#191970" stroke="#191970" points="2851.0763,-185.476 2854.5762,-195.4761 2858.0763,-185.4761 2851.0763,-185.476"/>
</g>
<!-- Node33 -->
<g id="node20" class="node">
<title>Node33</title>
<g id="a_node20"><a xlink:href="observablestorer_8cpp.html" target="_top" xlink:title=" ">
<polygon fill="#ffffff" stroke="#000000" points="2939.8179,-.5 2939.8179,-28.5 3075.3345,-28.5 3075.3345,-.5 2939.8179,-.5"/>
<text text-anchor="start" x="2947.8179" y="-16.5" font-family="Helvetica,sans-Serif" font-size="10.00" fill="#000000">GluonicLQCD/observables</text>
<text text-anchor="middle" x="3007.5762" y="-6.5" font-family="Helvetica,sans-Serif" font-size="10.00" fill="#000000">/tools/observablestorer.cpp</text>
</a>
</g>
</g>
<!-- Node14&#45;&gt;Node33 -->
<g id="edge30" class="edge">
<title>Node14&#45;&gt;Node33</title>
<path fill="none" stroke="#191970" d="M2871.7751,-187.5798C2903.4249,-147.2418 2970.0679,-62.3047 2996.4669,-28.6589"/>
<polygon fill="#191970" stroke="#191970" points="2868.9989,-185.4482 2865.5796,-195.4761 2874.5061,-189.7692 2868.9989,-185.4482"/>
</g>
<!-- Node34 -->
<g id="node21" class="node">
<title>Node34</title>
<g id="a_node21"><a xlink:href="topologicalcharge_8cpp.html" target="_top" xlink:title=" ">
<polygon fill="#ffffff" stroke="#000000" points="3093.3818,-.5 3093.3818,-28.5 3227.7705,-28.5 3227.7705,-.5 3093.3818,-.5"/>
<text text-anchor="start" x="3101.3818" y="-16.5" font-family="Helvetica,sans-Serif" font-size="10.00" fill="#000000">GluonicLQCD/observables</text>
<text text-anchor="middle" x="3160.5762" y="-6.5" font-family="Helvetica,sans-Serif" font-size="10.00" fill="#000000">/topologicalcharge.cpp</text>
</a>
</g>
</g>
<!-- Node14&#45;&gt;Node34 -->
<g id="edge31" class="edge">
<title>Node14&#45;&gt;Node34</title>
<path fill="none" stroke="#191970" d="M2885.0945,-190.0521C2946.6616,-150.8181 3084.455,-63.0086 3138.3577,-28.6589"/>
<polygon fill="#191970" stroke="#191970" points="2883.1352,-187.1503 2876.5829,-195.4761 2886.8971,-193.0536 2883.1352,-187.1503"/>
</g>
<!-- Node36 -->
<g id="node23" class="node">
<title>Node36</title>
<g id="a_node23"><a xlink:href="system_8cpp.html" target="_top" xlink:title=" ">
<polygon fill="#ffffff" stroke="#000000" points="3246.0566,-5.5 3246.0566,-23.5 3377.0957,-23.5 3377.0957,-5.5 3246.0566,-5.5"/>
<text text-anchor="middle" x="3311.5762" y="-11.5" font-family="Helvetica,sans-Serif" font-size="10.00" fill="#000000">GluonicLQCD/system.cpp</text>
</a>
</g>
</g>
<!-- Node14&#45;&gt;Node36 -->
<g id="edge32" class="edge">
<title>Node14&#45;&gt;Node36</title>
<path fill="none" stroke="#191970" d="M2896.754,-191.5029C2991.817,-150.9399 3219.9973,-53.5763 3290.4767,-23.5031"/>
<polygon fill="#191970" stroke="#191970" points="2895.2665,-188.3322 2887.4425,-195.4761 2898.0138,-194.7706 2895.2665,-188.3322"/>
</g>
<!-- Node17 -->
<g id="node4" class="node">
<title>Node17</title>
<g id="a_node4"><a xlink:href="parameters_8h.html" target="_top" xlink:title=" ">
<polygon fill="#ffffff" stroke="#000000" points="1680,-65.5 1680,-93.5 1787.1523,-93.5 1787.1523,-65.5 1680,-65.5"/>
<text text-anchor="start" x="1688" y="-81.5" font-family="Helvetica,sans-Serif" font-size="10.00" fill="#000000">GluonicLQCD/config</text>
<text text-anchor="middle" x="1733.5762" y="-71.5" font-family="Helvetica,sans-Serif" font-size="10.00" fill="#000000">/parameters.h</text>
</a>
</g>
</g>
<!-- Node16&#45;&gt;Node17 -->
<g id="edge3" class="edge">
<title>Node16&#45;&gt;Node17</title>
<path fill="none" stroke="#191970" d="M1768.9929,-123.3115C1759.0165,-113.5612 1748.4686,-102.259 1741.3282,-93.5765"/>
<polygon fill="#191970" stroke="#191970" points="1766.7857,-126.0423 1776.4447,-130.396 1771.6088,-120.9691 1766.7857,-126.0423"/>
</g>
<!-- Node39 -->
<g id="node26" class="node">
<title>Node39</title>
<g id="a_node26"><a xlink:href="sysprint_8cpp.html" target="_top" xlink:title=" ">
<polygon fill="#ffffff" stroke="#000000" points="1805,-65.5 1805,-93.5 1912.1523,-93.5 1912.1523,-65.5 1805,-65.5"/>
<text text-anchor="start" x="1813" y="-81.5" font-family="Helvetica,sans-Serif" font-size="10.00" fill="#000000">GluonicLQCD/config</text>
<text text-anchor="middle" x="1858.5762" y="-71.5" font-family="Helvetica,sans-Serif" font-size="10.00" fill="#000000">/sysprint.cpp</text>
</a>
</g>
</g>
<!-- Node16&#45;&gt;Node39 -->
<g id="edge27" class="edge">
<title>Node16&#45;&gt;Node39</title>
<path fill="none" stroke="#191970" d="M1816.3911,-123.0243C1825.7776,-113.3398 1836.5999,-102.1739 1844.9328,-93.5765"/>
<polygon fill="#191970" stroke="#191970" points="1813.6927,-120.7793 1809.2462,-130.396 1818.7192,-125.6512 1813.6927,-120.7793"/>
</g>
<!-- Node17&#45;&gt;Node15 -->
<g id="edge7" class="edge">
<title>Node17&#45;&gt;Node15</title>
<path fill="none" stroke="#191970" d="M1669.9548,-78.2474C1389.7034,-72.63 272.2895,-49.1548 116.5762,-29 113.5709,-28.611 110.4988,-28.1428 107.4073,-27.6164"/>
<polygon fill="#191970" stroke="#191970" points="1669.8898,-81.7467 1679.9578,-78.4474 1670.0298,-74.7481 1669.8898,-81.7467"/>
</g>
<!-- Node17&#45;&gt;Node16 -->
<g id="edge9" class="edge">
<title>Node17&#45;&gt;Node16</title>
<path fill="none" stroke="#191970" d="M1760.1278,-100.6576C1770.1031,-110.4046 1780.6539,-121.7079 1787.8015,-130.396"/>
<polygon fill="#191970" stroke="#191970" points="1762.3373,-97.929 1752.6778,-93.5765 1757.5148,-103.0028 1762.3373,-97.929"/>
</g>
<!-- Node18 -->
<g id="node5" class="node">
<title>Node18</title>
<g id="a_node5"><a xlink:href="action_8cpp.html" target="_top" xlink:title=" ">
<polygon fill="#ffffff" stroke="#000000" points="2375.5,-.5 2375.5,-28.5 2487.6523,-28.5 2487.6523,-.5 2375.5,-.5"/>
<text text-anchor="start" x="2383.5" y="-16.5" font-family="Helvetica,sans-Serif" font-size="10.00" fill="#000000">GluonicLQCD/actions</text>
<text text-anchor="middle" x="2431.5762" y="-6.5" font-family="Helvetica,sans-Serif" font-size="10.00" fill="#000000">/action.cpp</text>
</a>
</g>
</g>
<!-- Node17&#45;&gt;Node18 -->
<g id="edge4" class="edge">
<title>Node17&#45;&gt;Node18</title>
<path fill="none" stroke="#191970" d="M1797.4193,-64.8903C2048.9561,-28.8775 2118.145,-64.3195 2366.5762,-29 2369.4379,-28.5931 2372.3606,-28.1275 2375.3051,-27.6183"/>
<polygon fill="#191970" stroke="#191970" points="1796.6309,-61.4681 1787.2395,-66.3723 1797.6394,-68.3951 1796.6309,-61.4681"/>
</g>
<!-- Node19 -->
<g id="node6" class="node">
<title>Node19</title>
<g id="a_node6"><a xlink:href="luscheraction_8cpp.html" target="_top" xlink:title=" ">
<polygon fill="#ffffff" stroke="#000000" points="2505.5,-.5 2505.5,-28.5 2617.6523,-28.5 2617.6523,-.5 2505.5,-.5"/>
<text text-anchor="start" x="2513.5" y="-16.5" font-family="Helvetica,sans-Serif" font-size="10.00" fill="#000000">GluonicLQCD/actions</text>
<text text-anchor="middle" x="2561.5762" y="-6.5" font-family="Helvetica,sans-Serif" font-size="10.00" fill="#000000">/luscheraction.cpp</text>
</a>
</g>
</g>
<!-- Node17&#45;&gt;Node19 -->
<g id="edge5" class="edge">
<title>Node17&#45;&gt;Node19</title>
<path fill="none" stroke="#191970" d="M1797.3767,-64.9148C2106.2763,-22.3642 2190.7857,-70.6579 2496.5762,-29 2499.4402,-28.6098 2502.3648,-28.1576 2505.3107,-27.6591"/>
<polygon fill="#191970" stroke="#191970" points="1796.6526,-61.4819 1787.2338,-66.3333 1797.6223,-68.4145 1796.6526,-61.4819"/>
</g>
<!-- Node20 -->
<g id="node7" class="node">
<title>Node20</title>
<g id="a_node7"><a xlink:href="wilsongaugeaction_8cpp.html" target="_top" xlink:title=" ">
<polygon fill="#ffffff" stroke="#000000" points="125.5962,-.5 125.5962,-28.5 245.5562,-28.5 245.5562,-.5 125.5962,-.5"/>
<text text-anchor="start" x="133.5962" y="-16.5" font-family="Helvetica,sans-Serif" font-size="10.00" fill="#000000">GluonicLQCD/actions</text>
<text text-anchor="middle" x="185.5762" y="-6.5" font-family="Helvetica,sans-Serif" font-size="10.00" fill="#000000">/wilsongaugeaction.cpp</text>
</a>
</g>
</g>
<!-- Node17&#45;&gt;Node20 -->
<g id="edge6" class="edge">
<title>Node17&#45;&gt;Node20</title>
<path fill="none" stroke="#191970" d="M1669.7616,-78.7912C1423.4887,-75.8278 534.7766,-62.9658 254.5762,-29 251.6597,-28.6465 248.6837,-28.2318 245.6848,-27.7705"/>
<polygon fill="#191970" stroke="#191970" points="1669.9314,-82.2934 1679.9724,-78.9128 1670.0148,-75.2939 1669.9314,-82.2934"/>
</g>
<!-- Node21 -->
<g id="node8" class="node">
<title>Node21</title>
<g id="a_node8"><a xlink:href="parameters_8cpp.html" target="_top" xlink:title=" ">
<polygon fill="#ffffff" stroke="#000000" points="264,-.5 264,-28.5 371.1523,-28.5 371.1523,-.5 264,-.5"/>
<text text-anchor="start" x="272" y="-16.5" font-family="Helvetica,sans-Serif" font-size="10.00" fill="#000000">GluonicLQCD/config</text>
<text text-anchor="middle" x="317.5762" y="-6.5" font-family="Helvetica,sans-Serif" font-size="10.00" fill="#000000">/parameters.cpp</text>
</a>
</g>
</g>
<!-- Node17&#45;&gt;Node21 -->
<g id="edge8" class="edge">
<title>Node17&#45;&gt;Node21</title>
<path fill="none" stroke="#191970" d="M1669.7589,-78.7487C1436.9501,-75.7542 633.7087,-63.1325 379.5762,-29 376.8372,-28.6321 374.0419,-28.1978 371.2274,-27.7136"/>
<polygon fill="#191970" stroke="#191970" points="1669.7162,-82.2483 1679.7599,-78.8759 1669.8053,-75.2489 1669.7162,-82.2483"/>
</g>
<!-- Node22 -->
<g id="node9" class="node">
<title>Node22</title>
<g id="a_node9"><a xlink:href="flow_8cpp.html" target="_top" xlink:title=" ">
<polygon fill="#ffffff" stroke="#000000" points="388.9927,-5.5 388.9927,-23.5 526.1597,-23.5 526.1597,-5.5 388.9927,-5.5"/>
<text text-anchor="middle" x="457.5762" y="-11.5" font-family="Helvetica,sans-Serif" font-size="10.00" fill="#000000">GluonicLQCD/flow/flow.cpp</text>
</a>
</g>
</g>
<!-- Node17&#45;&gt;Node22 -->
<g id="edge10" class="edge">
<title>Node17&#45;&gt;Node22</title>
<path fill="none" stroke="#191970" d="M1669.7601,-78.0045C1454.8379,-72.7806 758.4208,-54.281 535.5762,-29 524.08,-27.6958 511.7303,-25.6863 500.3249,-23.5748"/>
<polygon fill="#191970" stroke="#191970" points="1669.8461,-81.5075 1679.9279,-78.2505 1670.0155,-74.5096 1669.8461,-81.5075"/>
</g>
<!-- Node23 -->
<g id="node10" class="node">
<title>Node23</title>
<g id="a_node10"><a xlink:href="fieldio_8cpp.html" target="_top" xlink:title=" ">
<polygon fill="#ffffff" stroke="#000000" points="544.5469,-5.5 544.5469,-23.5 680.6055,-23.5 680.6055,-5.5 544.5469,-5.5"/>
<text text-anchor="middle" x="612.5762" y="-11.5" font-family="Helvetica,sans-Serif" font-size="10.00" fill="#000000">GluonicLQCD/io/fieldio.cpp</text>
</a>
</g>
</g>
<!-- Node17&#45;&gt;Node23 -->
<g id="edge11" class="edge">
<title>Node17&#45;&gt;Node23</title>
<path fill="none" stroke="#191970" d="M1669.8329,-77.5702C1473.7103,-71.4503 881.0099,-51.5457 689.5762,-29 678.2281,-27.6635 666.0369,-25.6429 654.7777,-23.5311"/>
<polygon fill="#191970" stroke="#191970" points="1669.871,-81.0729 1679.9749,-77.8854 1670.0885,-74.0763 1669.871,-81.0729"/>
</g>
<!-- Node24 -->
<g id="node11" class="node">
<title>Node24</title>
<g id="a_node11"><a xlink:href="observablesio_8cpp.html" target="_top" xlink:title=" ">
<polygon fill="#ffffff" stroke="#000000" points="698.7588,-5.5 698.7588,-23.5 870.3936,-23.5 870.3936,-5.5 698.7588,-5.5"/>
<text text-anchor="middle" x="784.5762" y="-11.5" font-family="Helvetica,sans-Serif" font-size="10.00" fill="#000000">GluonicLQCD/io/observablesio.cpp</text>
</a>
</g>
</g>
<!-- Node17&#45;&gt;Node24 -->
<g id="edge12" class="edge">
<title>Node17&#45;&gt;Node24</title>
<path fill="none" stroke="#191970" d="M1669.618,-77.7784C1527.1876,-73.4945 1173.2096,-60.3553 878.5762,-29 865.112,-27.5671 850.6289,-25.5645 837.161,-23.5041"/>
<polygon fill="#191970" stroke="#191970" points="1669.8099,-81.2855 1679.9092,-78.0835 1670.0174,-74.2886 1669.8099,-81.2855"/>
</g>
<!-- Node25 -->
<g id="node12" class="node">
<title>Node25</title>
<g id="a_node12"><a xlink:href="main_8cpp.html" target="_top" xlink:title=" ">
<polygon fill="#ffffff" stroke="#000000" points="888.0542,-5.5 888.0542,-23.5 1009.0981,-23.5 1009.0981,-5.5 888.0542,-5.5"/>
<text text-anchor="middle" x="948.5762" y="-11.5" font-family="Helvetica,sans-Serif" font-size="10.00" fill="#000000">GluonicLQCD/main.cpp</text>
</a>
</g>
</g>
<!-- Node17&#45;&gt;Node25 -->
<g id="edge13" class="edge">
<title>Node17&#45;&gt;Node25</title>
<path fill="none" stroke="#191970" d="M1669.674,-77.9215C1544.1453,-74.175 1256.7593,-62.4068 1017.5762,-29 1007.6352,-27.6115 996.9833,-25.6249 987.0958,-23.5657"/>
<polygon fill="#191970" stroke="#191970" points="1669.7745,-81.4258 1679.8723,-78.2187 1669.9785,-74.4288 1669.7745,-81.4258"/>
</g>
<!-- Node26 -->
<g id="node13" class="node">
<title>Node26</title>
<g id="a_node13"><a xlink:href="su3matrixgenerator_8cpp.html" target="_top" xlink:title=" ">
<polygon fill="#ffffff" stroke="#000000" points="1026.9458,-.5 1026.9458,-28.5 1170.2065,-28.5 1170.2065,-.5 1026.9458,-.5"/>
<text text-anchor="start" x="1034.9458" y="-16.5" font-family="Helvetica,sans-Serif" font-size="10.00" fill="#000000">GluonicLQCD/math/matrices</text>
<text text-anchor="middle" x="1098.5762" y="-6.5" font-family="Helvetica,sans-Serif" font-size="10.00" fill="#000000">/su3matrixgenerator.cpp</text>
</a>
</g>
</g>
<!-- Node17&#45;&gt;Node26 -->
<g id="edge14" class="edge">
<title>Node17&#45;&gt;Node26</title>
<path fill="none" stroke="#191970" d="M1669.6607,-75.4722C1566.3334,-68.5571 1356.3186,-52.8299 1179.5762,-29 1176.603,-28.5991 1173.5726,-28.1665 1170.5143,-27.7099"/>
<polygon fill="#191970" stroke="#191970" points="1669.7134,-78.9833 1679.9233,-76.1534 1670.1772,-71.9986 1669.7134,-78.9833"/>
</g>
<!-- Node17&#45;&gt;Node27 -->
<g id="edge15" class="edge">
<title>Node17&#45;&gt;Node27</title>
<path fill="none" stroke="#191970" d="M1797.3138,-64.9342C2163.6009,-15.7115 2262.6939,-71.3671 2626.5762,-29 2629.3781,-28.6738 2632.2317,-28.3035 2635.1097,-27.8986"/>
<polygon fill="#191970" stroke="#191970" points="1796.6667,-61.4899 1787.2301,-66.3065 1797.6108,-68.4259 1796.6667,-61.4899"/>
</g>
<!-- Node28 -->
<g id="node15" class="node">
<title>Node28</title>
<g id="a_node15"><a xlink:href="latticeactionchargedensity_8cpp.html" target="_top" xlink:title=" ">
<polygon fill="#ffffff" stroke="#000000" points="1188.5708,-.5 1188.5708,-28.5 1340.5815,-28.5 1340.5815,-.5 1188.5708,-.5"/>
<text text-anchor="start" x="1196.5708" y="-16.5" font-family="Helvetica,sans-Serif" font-size="10.00" fill="#000000">GluonicLQCD/observables</text>
<text text-anchor="middle" x="1264.5762" y="-6.5" font-family="Helvetica,sans-Serif" font-size="10.00" fill="#000000">/latticeactionchargedensity.cpp</text>
</a>
</g>
</g>
<!-- Node17&#45;&gt;Node28 -->
<g id="edge16" class="edge">
<title>Node17&#45;&gt;Node28</title>
<path fill="none" stroke="#191970" d="M1669.8131,-71.871C1593.539,-62.5703 1462.0425,-45.9816 1349.5762,-29 1346.7637,-28.5753 1343.9005,-28.1338 1341.0096,-27.6804"/>
<polygon fill="#191970" stroke="#191970" points="1669.3967,-75.346 1679.7461,-73.079 1670.2418,-68.3972 1669.3967,-75.346"/>
</g>
<!-- Node29 -->
<g id="node16" class="node">
<title>Node29</title>
<g id="a_node16"><a xlink:href="mastersampler_8cpp.html" target="_top" xlink:title=" ">
<polygon fill="#ffffff" stroke="#000000" points="1358.3818,-.5 1358.3818,-28.5 1492.7705,-28.5 1492.7705,-.5 1358.3818,-.5"/>
<text text-anchor="start" x="1366.3818" y="-16.5" font-family="Helvetica,sans-Serif" font-size="10.00" fill="#000000">GluonicLQCD/observables</text>
<text text-anchor="middle" x="1425.5762" y="-6.5" font-family="Helvetica,sans-Serif" font-size="10.00" fill="#000000">/mastersampler.cpp</text>
</a>
</g>
</g>
<!-- Node17&#45;&gt;Node29 -->
<g id="edge17" class="edge">
<title>Node17&#45;&gt;Node29</title>
<path fill="none" stroke="#191970" d="M1669.8277,-66.0466C1617.8586,-55.0791 1544.7001,-39.6398 1492.0166,-28.5215"/>
<polygon fill="#191970" stroke="#191970" points="1669.4194,-69.5375 1679.9267,-68.1779 1670.8649,-62.6883 1669.4194,-69.5375"/>
</g>
<!-- Node30 -->
<g id="node17" class="node">
<title>Node30</title>
<g id="a_node17"><a xlink:href="mastersamplertopcxyz_8cpp.html" target="_top" xlink:title=" ">
<polygon fill="#ffffff" stroke="#000000" points="1510.7217,-.5 1510.7217,-28.5 1648.4307,-28.5 1648.4307,-.5 1510.7217,-.5"/>
<text text-anchor="start" x="1518.7217" y="-16.5" font-family="Helvetica,sans-Serif" font-size="10.00" fill="#000000">GluonicLQCD/observables</text>
<text text-anchor="middle" x="1579.5762" y="-6.5" font-family="Helvetica,sans-Serif" font-size="10.00" fill="#000000">/mastersamplertopcxyz.cpp</text>
</a>
</g>
</g>
<!-- Node17&#45;&gt;Node30 -->
<g id="edge18" class="edge">
<title>Node17&#45;&gt;Node30</title>
<path fill="none" stroke="#191970" d="M1690.7087,-61.4066C1666.1227,-51.0294 1635.716,-38.1954 1612.9267,-28.5765"/>
<polygon fill="#191970" stroke="#191970" points="1689.5865,-64.7319 1700.1605,-65.396 1692.3085,-58.2828 1689.5865,-64.7319"/>
</g>
<!-- Node17&#45;&gt;Node31 -->
<g id="edge19" class="edge">
<title>Node17&#45;&gt;Node31</title>
<path fill="none" stroke="#191970" d="M1797.1992,-64.9593C2230.65,-8.0209 2347.449,-77.7358 2778.5762,-29 2781.3791,-28.6831 2784.2336,-28.3207 2787.1124,-27.9223"/>
<polygon fill="#191970" stroke="#191970" points="1796.679,-61.4976 1787.2271,-66.2842 1797.6009,-68.4366 1796.679,-61.4976"/>
</g>
<!-- Node32 -->
<g id="node19" class="node">
<title>Node32</title>
<g id="a_node19"><a xlink:href="supersampler_8cpp.html" target="_top" xlink:title=" ">
<polygon fill="#ffffff" stroke="#000000" points="1666.3818,-.5 1666.3818,-28.5 1800.7705,-28.5 1800.7705,-.5 1666.3818,-.5"/>
<text text-anchor="start" x="1674.3818" y="-16.5" font-family="Helvetica,sans-Serif" font-size="10.00" fill="#000000">GluonicLQCD/observables</text>
<text text-anchor="middle" x="1733.5762" y="-6.5" font-family="Helvetica,sans-Serif" font-size="10.00" fill="#000000">/supersampler.cpp</text>
</a>
</g>
</g>
<!-- Node17&#45;&gt;Node32 -->
<g id="edge20" class="edge">
<title>Node17&#45;&gt;Node32</title>
<path fill="none" stroke="#191970" d="M1733.5762,-55.1081C1733.5762,-46.1539 1733.5762,-36.3227 1733.5762,-28.5765"/>
<polygon fill="#191970" stroke="#191970" points="1730.0763,-55.3959 1733.5762,-65.396 1737.0763,-55.396 1730.0763,-55.3959"/>
</g>
<!-- Node17&#45;&gt;Node33 -->
<g id="edge21" class="edge">
<title>Node17&#45;&gt;Node33</title>
<path fill="none" stroke="#191970" d="M1797.2367,-64.9614C2297.7362,-.3212 2432.176,-83.5013 2930.5762,-29 2933.5511,-28.6747 2936.5834,-28.2982 2939.6412,-27.8817"/>
<polygon fill="#191970" stroke="#191970" points="1796.6879,-61.5033 1787.2249,-66.2678 1797.5937,-68.4444 1796.6879,-61.5033"/>
</g>
<!-- Node17&#45;&gt;Node34 -->
<g id="edge22" class="edge">
<title>Node17&#45;&gt;Node34</title>
<path fill="none" stroke="#191970" d="M1797.3171,-64.9567C2365.7214,7.47 2518.1552,-90.54 3084.5762,-29 3087.3805,-28.6953 3090.2361,-28.3431 3093.1158,-27.9531"/>
<polygon fill="#191970" stroke="#191970" points="1796.6949,-61.5078 1787.2232,-66.2551 1797.5881,-68.4506 1796.6949,-61.5078"/>
</g>
<!-- Node35 -->
<g id="node22" class="node">
<title>Node35</title>
<g id="a_node22"><a xlink:href="communicator_8cpp.html" target="_top" xlink:title=" ">
<polygon fill="#ffffff" stroke="#000000" points="1818.7686,-.5 1818.7686,-28.5 1960.3838,-28.5 1960.3838,-.5 1818.7686,-.5"/>
<text text-anchor="start" x="1826.7686" y="-16.5" font-family="Helvetica,sans-Serif" font-size="10.00" fill="#000000">GluonicLQCD/parallelization</text>
<text text-anchor="middle" x="1889.5762" y="-6.5" font-family="Helvetica,sans-Serif" font-size="10.00" fill="#000000">/communicator.cpp</text>
</a>
</g>
</g>
<!-- Node17&#45;&gt;Node35 -->
<g id="edge23" class="edge">
<title>Node17&#45;&gt;Node35</title>
<path fill="none" stroke="#191970" d="M1776.6701,-61.5442C1801.6329,-51.143 1832.6051,-38.238 1855.7926,-28.5765"/>
<polygon fill="#191970" stroke="#191970" points="1775.3105,-58.319 1767.4258,-65.396 1778.0028,-64.7805 1775.3105,-58.319"/>
</g>
<!-- Node17&#45;&gt;Node36 -->
<g id="edge24" class="edge">
<title>Node17&#45;&gt;Node36</title>
<path fill="none" stroke="#191970" d="M1797.5549,-64.931C2432.8567,15.1481 2603.0839,-97.6699 3236.5762,-29 3247.915,-27.7709 3260.0996,-25.7312 3271.2821,-23.5642"/>
<polygon fill="#191970" stroke="#191970" points="1796.7004,-61.5114 1787.222,-66.2453 1797.5837,-68.4555 1796.7004,-61.5114"/>
</g>
<!-- Node37 -->
<g id="node24" class="node">
<title>Node37</title>
<g id="a_node24"><a xlink:href="performancetests_8cpp.html" target="_top" xlink:title=" ">
<polygon fill="#ffffff" stroke="#000000" points="1978.3154,-5.5 1978.3154,-23.5 2178.8369,-23.5 2178.8369,-5.5 1978.3154,-5.5"/>
<text text-anchor="middle" x="2078.5762" y="-11.5" font-family="Helvetica,sans-Serif" font-size="10.00" fill="#000000">GluonicLQCD/tests/performancetests.cpp</text>
</a>
</g>
</g>
<!-- Node17&#45;&gt;Node37 -->
<g id="edge25" class="edge">
<title>Node17&#45;&gt;Node37</title>
<path fill="none" stroke="#191970" d="M1797.2612,-64.7072C1881.2062,-47.5935 1968.0966,-32.6319 2023.0977,-23.5038"/>
<polygon fill="#191970" stroke="#191970" points="1796.3985,-61.3112 1787.3061,-66.7499 1797.8056,-68.1684 1796.3985,-61.3112"/>
</g>
<!-- Node38 -->
<g id="node25" class="node">
<title>Node38</title>
<g id="a_node25"><a xlink:href="testsuite_8cpp.html" target="_top" xlink:title=" ">
<polygon fill="#ffffff" stroke="#000000" points="2197.3228,-5.5 2197.3228,-23.5 2357.8296,-23.5 2357.8296,-5.5 2197.3228,-5.5"/>
<text text-anchor="middle" x="2277.5762" y="-11.5" font-family="Helvetica,sans-Serif" font-size="10.00" fill="#000000">GluonicLQCD/tests/testsuite.cpp</text>
</a>
</g>
</g>
<!-- Node17&#45;&gt;Node38 -->
<g id="edge26" class="edge">
<title>Node17&#45;&gt;Node38</title>
<path fill="none" stroke="#191970" d="M1797.1927,-64.8724C1970.0192,-37.5163 2017.2209,-50.5201 2187.5762,-29 2199.8235,-27.4529 2212.9627,-25.5024 2225.3133,-23.538"/>
<polygon fill="#191970" stroke="#191970" points="1796.5731,-61.427 1787.2542,-66.4677 1797.6826,-68.3385 1796.5731,-61.427"/>
</g>
</g>
</svg>
