<?xml version="1.0" encoding="UTF-8" standalone="no"?>
<!DOCTYPE svg PUBLIC "-//W3C//DTD SVG 1.1//EN"
 "http://www.w3.org/Graphics/SVG/1.1/DTD/svg11.dtd">
<!-- Generated by graphviz version 2.40.1 (20161225.0304)
 -->
<!-- Title: GluonicLQCD/parallelization/parallel.h Pages: 1 -->
<svg width="917pt" height="167pt"
 viewBox="0.00 0.00 916.77 167.00" xmlns="http://www.w3.org/2000/svg" xmlns:xlink="http://www.w3.org/1999/xlink">
<g id="graph0" class="graph" transform="scale(1 1) rotate(0) translate(4 163)">
<title>GluonicLQCD/parallelization/parallel.h</title>
<polygon fill="#ffffff" stroke="transparent" points="-4,4 -4,-163 912.7705,-163 912.7705,4 -4,4"/>
<!-- Node14 -->
<g id="node1" class="node">
<title>Node14</title>
<g id="a_node1"><a xlink:title=" ">
<polygon fill="#bfbfbf" stroke="#000000" points="312.7686,-130.5 312.7686,-158.5 454.3838,-158.5 454.3838,-130.5 312.7686,-130.5"/>
<text text-anchor="start" x="320.7686" y="-146.5" font-family="Helvetica,sans-Serif" font-size="10.00" fill="#000000">GluonicLQCD/parallelization</text>
<text text-anchor="middle" x="383.5762" y="-136.5" font-family="Helvetica,sans-Serif" font-size="10.00" fill="#000000">/parallel.h</text>
</a>
</g>
</g>
<!-- Node15 -->
<g id="node2" class="node">
<title>Node15</title>
<g id="a_node2"><a xlink:href="configloader_8cpp.html" target="_top" xlink:title=" ">
<polygon fill="#ffffff" stroke="#000000" points="28,-65.5 28,-93.5 135.1523,-93.5 135.1523,-65.5 28,-65.5"/>
<text text-anchor="start" x="36" y="-81.5" font-family="Helvetica,sans-Serif" font-size="10.00" fill="#000000">GluonicLQCD/config</text>
<text text-anchor="middle" x="81.5762" y="-71.5" font-family="Helvetica,sans-Serif" font-size="10.00" fill="#000000">/configloader.cpp</text>
</a>
</g>
</g>
<!-- Node14&#45;&gt;Node15 -->
<g id="edge1" class="edge">
<title>Node14&#45;&gt;Node15</title>
<path fill="none" stroke="#191970" d="M305.1551,-128.46C258.2219,-118.7457 197.4193,-105.9593 143.5762,-94 140.8783,-93.4008 138.1161,-92.7803 135.3279,-92.1484"/>
<polygon fill="#191970" stroke="#191970" points="304.4507,-131.8883 314.9522,-130.4849 305.8676,-125.0332 304.4507,-131.8883"/>
</g>
<!-- Node16 -->
<g id="node3" class="node">
<title>Node16</title>
<g id="a_node3"><a xlink:href="sysprint_8h.html" target="_top" xlink:title=" ">
<polygon fill="#ffffff" stroke="#000000" points="153,-65.5 153,-93.5 260.1523,-93.5 260.1523,-65.5 153,-65.5"/>
<text text-anchor="start" x="161" y="-81.5" font-family="Helvetica,sans-Serif" font-size="10.00" fill="#000000">GluonicLQCD/config</text>
<text text-anchor="middle" x="206.5762" y="-71.5" font-family="Helvetica,sans-Serif" font-size="10.00" fill="#000000">/sysprint.h</text>
</a>
</g>
</g>
<!-- Node14&#45;&gt;Node16 -->
<g id="edge2" class="edge">
<title>Node14&#45;&gt;Node16</title>
<path fill="none" stroke="#191970" d="M335.4282,-126.8185C306.9779,-116.3707 271.4483,-103.3231 244.9076,-93.5765"/>
<polygon fill="#191970" stroke="#191970" points="334.5762,-130.2342 345.1698,-130.396 336.9893,-123.6632 334.5762,-130.2342"/>
</g>
<!-- Node19 -->
<g id="node6" class="node">
<title>Node19</title>
<g id="a_node6"><a xlink:href="system_8cpp.html" target="_top" xlink:title=" ">
<polygon fill="#ffffff" stroke="#000000" points="250.0566,-5.5 250.0566,-23.5 381.0957,-23.5 381.0957,-5.5 250.0566,-5.5"/>
<text text-anchor="middle" x="315.5762" y="-11.5" font-family="Helvetica,sans-Serif" font-size="10.00" fill="#000000">GluonicLQCD/system.cpp</text>
</a>
</g>
</g>
<!-- Node14&#45;&gt;Node19 -->
<g id="edge10" class="edge">
<title>Node14&#45;&gt;Node19</title>
<path fill="none" stroke="#191970" d="M339.6696,-125.4551C327.0031,-117.651 314.6922,-107.2722 307.5762,-94 295.3842,-71.2607 305.1319,-39.597 311.3741,-23.981"/>
<polygon fill="#191970" stroke="#191970" points="338.0147,-128.5405 348.436,-130.4506 341.4804,-122.4586 338.0147,-128.5405"/>
</g>
<!-- Node20 -->
<g id="node7" class="node">
<title>Node20</title>
<g id="a_node7"><a xlink:href="correlator_8cpp.html" target="_top" xlink:title=" ">
<polygon fill="#ffffff" stroke="#000000" points="316.3818,-65.5 316.3818,-93.5 450.7705,-93.5 450.7705,-65.5 316.3818,-65.5"/>
<text text-anchor="start" x="324.3818" y="-81.5" font-family="Helvetica,sans-Serif" font-size="10.00" fill="#000000">GluonicLQCD/observables</text>
<text text-anchor="middle" x="383.5762" y="-71.5" font-family="Helvetica,sans-Serif" font-size="10.00" fill="#000000">/correlator.cpp</text>
</a>
</g>
</g>
<!-- Node14&#45;&gt;Node20 -->
<g id="edge6" class="edge">
<title>Node14&#45;&gt;Node20</title>
<path fill="none" stroke="#191970" d="M383.5762,-120.1081C383.5762,-111.1539 383.5762,-101.3227 383.5762,-93.5765"/>
<polygon fill="#191970" stroke="#191970" points="380.0763,-120.3959 383.5762,-130.396 387.0763,-120.396 380.0763,-120.3959"/>
</g>
<!-- Node21 -->
<g id="node8" class="node">
<title>Node21</title>
<g id="a_node8"><a xlink:href="plaquette_8cpp.html" target="_top" xlink:title=" ">
<polygon fill="#ffffff" stroke="#000000" points="468.3818,-65.5 468.3818,-93.5 602.7705,-93.5 602.7705,-65.5 468.3818,-65.5"/>
<text text-anchor="start" x="476.3818" y="-81.5" font-family="Helvetica,sans-Serif" font-size="10.00" fill="#000000">GluonicLQCD/observables</text>
<text text-anchor="middle" x="535.5762" y="-71.5" font-family="Helvetica,sans-Serif" font-size="10.00" fill="#000000">/plaquette.cpp</text>
</a>
</g>
</g>
<!-- Node14&#45;&gt;Node21 -->
<g id="edge7" class="edge">
<title>Node14&#45;&gt;Node21</title>
<path fill="none" stroke="#191970" d="M425.8869,-126.4066C450.1536,-116.0294 480.1654,-103.1954 502.6588,-93.5765"/>
<polygon fill="#191970" stroke="#191970" points="424.3763,-123.2459 416.5579,-130.396 427.1287,-129.6821 424.3763,-123.2459"/>
</g>
<!-- Node22 -->
<g id="node9" class="node">
<title>Node22</title>
<g id="a_node9"><a xlink:href="observablestorer_8cpp.html" target="_top" xlink:title=" ">
<polygon fill="#ffffff" stroke="#000000" points="620.8179,-65.5 620.8179,-93.5 756.3345,-93.5 756.3345,-65.5 620.8179,-65.5"/>
<text text-anchor="start" x="628.8179" y="-81.5" font-family="Helvetica,sans-Serif" font-size="10.00" fill="#000000">GluonicLQCD/observables</text>
<text text-anchor="middle" x="688.5762" y="-71.5" font-family="Helvetica,sans-Serif" font-size="10.00" fill="#000000">/tools/observablestorer.cpp</text>
</a>
</g>
</g>
<!-- Node14&#45;&gt;Node22 -->
<g id="edge8" class="edge">
<title>Node14&#45;&gt;Node22</title>
<path fill="none" stroke="#191970" d="M459.2048,-128.3824C509.373,-117.6908 574.5707,-103.7963 622.6265,-93.5549"/>
<polygon fill="#191970" stroke="#191970" points="458.4319,-124.9684 449.3811,-130.476 459.891,-131.8147 458.4319,-124.9684"/>
</g>
<!-- Node23 -->
<g id="node10" class="node">
<title>Node23</title>
<g id="a_node10"><a xlink:href="topologicalcharge_8cpp.html" target="_top" xlink:title=" ">
<polygon fill="#ffffff" stroke="#000000" points="774.3818,-65.5 774.3818,-93.5 908.7705,-93.5 908.7705,-65.5 774.3818,-65.5"/>
<text text-anchor="start" x="782.3818" y="-81.5" font-family="Helvetica,sans-Serif" font-size="10.00" fill="#000000">GluonicLQCD/observables</text>
<text text-anchor="middle" x="841.5762" y="-71.5" font-family="Helvetica,sans-Serif" font-size="10.00" fill="#000000">/topologicalcharge.cpp</text>
</a>
</g>
</g>
<!-- Node14&#45;&gt;Node23 -->
<g id="edge9" class="edge">
<title>Node14&#45;&gt;Node23</title>
<path fill="none" stroke="#191970" d="M464.6812,-135.1399C542.1438,-125.8785 662.0789,-110.7002 765.5762,-94 768.361,-93.5506 771.2003,-93.0774 774.0665,-92.5873"/>
<polygon fill="#191970" stroke="#191970" points="464.0256,-131.6931 454.5097,-136.3511 464.8534,-138.644 464.0256,-131.6931"/>
</g>
<!-- Node17 -->
<g id="node4" class="node">
<title>Node17</title>
<g id="a_node4"><a xlink:href="parameters_8cpp.html" target="_top" xlink:title=" ">
<polygon fill="#ffffff" stroke="#000000" points="0,-.5 0,-28.5 107.1523,-28.5 107.1523,-.5 0,-.5"/>
<text text-anchor="start" x="8" y="-16.5" font-family="Helvetica,sans-Serif" font-size="10.00" fill="#000000">GluonicLQCD/config</text>
<text text-anchor="middle" x="53.5762" y="-6.5" font-family="Helvetica,sans-Serif" font-size="10.00" fill="#000000">/parameters.cpp</text>
</a>
</g>
</g>
<!-- Node16&#45;&gt;Node17 -->
<g id="edge3" class="edge">
<title>Node16&#45;&gt;Node17</title>
<path fill="none" stroke="#191970" d="M163.9871,-61.4066C139.5607,-51.0294 109.3515,-38.1954 86.7101,-28.5765"/>
<polygon fill="#191970" stroke="#191970" points="162.805,-64.7071 173.3775,-65.396 165.5422,-58.2644 162.805,-64.7071"/>
</g>
<!-- Node18 -->
<g id="node5" class="node">
<title>Node18</title>
<g id="a_node5"><a xlink:href="sysprint_8cpp.html" target="_top" xlink:title=" ">
<polygon fill="#ffffff" stroke="#000000" points="125,-.5 125,-28.5 232.1523,-28.5 232.1523,-.5 125,-.5"/>
<text text-anchor="start" x="133" y="-16.5" font-family="Helvetica,sans-Serif" font-size="10.00" fill="#000000">GluonicLQCD/config</text>
<text text-anchor="middle" x="178.5762" y="-6.5" font-family="Helvetica,sans-Serif" font-size="10.00" fill="#000000">/sysprint.cpp</text>
</a>
</g>
</g>
<!-- Node16&#45;&gt;Node18 -->
<g id="edge4" class="edge">
<title>Node16&#45;&gt;Node18</title>
<path fill="none" stroke="#191970" d="M196.4491,-55.9907C192.4919,-46.8044 188.0867,-36.5781 184.6399,-28.5765"/>
<polygon fill="#191970" stroke="#191970" points="193.3298,-57.5965 200.5006,-65.396 199.7587,-54.8271 193.3298,-57.5965"/>
</g>
<!-- Node16&#45;&gt;Node19 -->
<g id="edge5" class="edge">
<title>Node16&#45;&gt;Node19</title>
<path fill="none" stroke="#191970" d="M238.8802,-60.2361C259.2113,-48.1121 284.5126,-33.0241 300.3593,-23.5743"/>
<polygon fill="#191970" stroke="#191970" points="237.0237,-57.2681 230.2275,-65.396 240.609,-63.2802 237.0237,-57.2681"/>
</g>
</g>
</svg>
