<?xml version="1.0" encoding="UTF-8" standalone="no"?>
<!DOCTYPE svg PUBLIC "-//W3C//DTD SVG 1.1//EN"
 "http://www.w3.org/Graphics/SVG/1.1/DTD/svg11.dtd">
<!-- Generated by graphviz version 2.40.1 (20161225.0304)
 -->
<!-- Title: GluonicLQCD/config/parameters.h Pages: 1 -->
<svg width="3509pt" height="167pt"
 viewBox="0.00 0.00 3509.33 167.00" xmlns="http://www.w3.org/2000/svg" xmlns:xlink="http://www.w3.org/1999/xlink">
<g id="graph0" class="graph" transform="scale(1 1) rotate(0) translate(4 163)">
<title>GluonicLQCD/config/parameters.h</title>
<polygon fill="#ffffff" stroke="transparent" points="-4,4 -4,-163 3505.3296,-163 3505.3296,4 -4,4"/>
<!-- Node17 -->
<g id="node1" class="node">
<title>Node17</title>
<g id="a_node1"><a xlink:title=" ">
<polygon fill="#bfbfbf" stroke="#000000" points="1507.5,-130.5 1507.5,-158.5 1614.6523,-158.5 1614.6523,-130.5 1507.5,-130.5"/>
<text text-anchor="start" x="1515.5" y="-146.5" font-family="Helvetica,sans-Serif" font-size="10.00" fill="#000000">GluonicLQCD/config</text>
<text text-anchor="middle" x="1561.0762" y="-136.5" font-family="Helvetica,sans-Serif" font-size="10.00" fill="#000000">/parameters.h</text>
</a>
</g>
</g>
<!-- Node18 -->
<g id="node2" class="node">
<title>Node18</title>
<g id="a_node2"><a xlink:href="action_8cpp.html" target="_top" xlink:title=" ">
<polygon fill="#ffffff" stroke="#000000" points="0,-65.5 0,-93.5 112.1523,-93.5 112.1523,-65.5 0,-65.5"/>
<text text-anchor="start" x="8" y="-81.5" font-family="Helvetica,sans-Serif" font-size="10.00" fill="#000000">GluonicLQCD/actions</text>
<text text-anchor="middle" x="56.0762" y="-71.5" font-family="Helvetica,sans-Serif" font-size="10.00" fill="#000000">/action.cpp</text>
</a>
</g>
</g>
<!-- Node17&#45;&gt;Node18 -->
<g id="edge1" class="edge">
<title>Node17&#45;&gt;Node18</title>
<path fill="none" stroke="#191970" d="M1497.3078,-143.8277C1255.2239,-141.0324 393.0596,-128.8032 121.0762,-94 118.209,-93.6331 115.282,-93.1996 112.3341,-92.716"/>
<polygon fill="#191970" stroke="#191970" points="1497.3126,-147.3279 1507.352,-143.9423 1497.3926,-140.3283 1497.3126,-147.3279"/>
</g>
<!-- Node19 -->
<g id="node3" class="node">
<title>Node19</title>
<g id="a_node3"><a xlink:href="luscheraction_8cpp.html" target="_top" xlink:title=" ">
<polygon fill="#ffffff" stroke="#000000" points="130,-65.5 130,-93.5 242.1523,-93.5 242.1523,-65.5 130,-65.5"/>
<text text-anchor="start" x="138" y="-81.5" font-family="Helvetica,sans-Serif" font-size="10.00" fill="#000000">GluonicLQCD/actions</text>
<text text-anchor="middle" x="186.0762" y="-71.5" font-family="Helvetica,sans-Serif" font-size="10.00" fill="#000000">/luscheraction.cpp</text>
</a>
</g>
</g>
<!-- Node17&#45;&gt;Node19 -->
<g id="edge2" class="edge">
<title>Node17&#45;&gt;Node19</title>
<path fill="none" stroke="#191970" d="M1497.0825,-143.5671C1268.9841,-140.0024 496.2917,-125.8112 251.0762,-94 248.2097,-93.6281 245.2831,-93.1906 242.3356,-92.7038"/>
<polygon fill="#191970" stroke="#191970" points="1497.1569,-147.0685 1507.2099,-143.7239 1497.2653,-140.0694 1497.1569,-147.0685"/>
</g>
<!-- Node20 -->
<g id="node4" class="node">
<title>Node20</title>
<g id="a_node4"><a xlink:href="wilsongaugeaction_8cpp.html" target="_top" xlink:title=" ">
<polygon fill="#ffffff" stroke="#000000" points="260.0962,-65.5 260.0962,-93.5 380.0562,-93.5 380.0562,-65.5 260.0962,-65.5"/>
<text text-anchor="start" x="268.0962" y="-81.5" font-family="Helvetica,sans-Serif" font-size="10.00" fill="#000000">GluonicLQCD/actions</text>
<text text-anchor="middle" x="320.0762" y="-71.5" font-family="Helvetica,sans-Serif" font-size="10.00" fill="#000000">/wilsongaugeaction.cpp</text>
</a>
</g>
</g>
<!-- Node17&#45;&gt;Node20 -->
<g id="edge3" class="edge">
<title>Node17&#45;&gt;Node20</title>
<path fill="none" stroke="#191970" d="M1497.1739,-143.1296C1285.1805,-138.3661 606.28,-121.3141 389.0762,-94 386.1613,-93.6334 383.1866,-93.2082 380.1888,-92.7384"/>
<polygon fill="#191970" stroke="#191970" points="1497.134,-146.6295 1507.2097,-143.3537 1497.2904,-139.6312 1497.134,-146.6295"/>
</g>
<!-- Node21 -->
<g id="node5" class="node">
<title>Node21</title>
<g id="a_node5"><a xlink:href="configloader_8cpp.html" target="_top" xlink:title=" ">
<polygon fill="#ffffff" stroke="#000000" points="398.5,-65.5 398.5,-93.5 505.6523,-93.5 505.6523,-65.5 398.5,-65.5"/>
<text text-anchor="start" x="406.5" y="-81.5" font-family="Helvetica,sans-Serif" font-size="10.00" fill="#000000">GluonicLQCD/config</text>
<text text-anchor="middle" x="452.0762" y="-71.5" font-family="Helvetica,sans-Serif" font-size="10.00" fill="#000000">/configloader.cpp</text>
</a>
</g>
</g>
<!-- Node17&#45;&gt;Node21 -->
<g id="edge4" class="edge">
<title>Node17&#45;&gt;Node21</title>
<path fill="none" stroke="#191970" d="M1497.103,-142.9376C1300.2805,-137.8901 705.5219,-120.7776 514.0762,-94 511.3392,-93.6172 508.5456,-93.1709 505.7324,-92.6771"/>
<polygon fill="#191970" stroke="#191970" points="1497.1953,-146.441 1507.2812,-143.1969 1497.3737,-139.4433 1497.1953,-146.441"/>
</g>
<!-- Node22 -->
<g id="node6" class="node">
<title>Node22</title>
<g id="a_node6"><a xlink:href="parameters_8cpp.html" target="_top" xlink:title=" ">
<polygon fill="#ffffff" stroke="#000000" points="523.5,-65.5 523.5,-93.5 630.6523,-93.5 630.6523,-65.5 523.5,-65.5"/>
<text text-anchor="start" x="531.5" y="-81.5" font-family="Helvetica,sans-Serif" font-size="10.00" fill="#000000">GluonicLQCD/config</text>
<text text-anchor="middle" x="577.0762" y="-71.5" font-family="Helvetica,sans-Serif" font-size="10.00" fill="#000000">/parameters.cpp</text>
</a>
</g>
</g>
<!-- Node17&#45;&gt;Node22 -->
<g id="edge5" class="edge">
<title>Node17&#45;&gt;Node22</title>
<path fill="none" stroke="#191970" d="M1497.1512,-142.4572C1316.6176,-136.4561 805.2525,-117.7959 639.0762,-94 636.3405,-93.6083 633.5478,-93.1547 630.7355,-92.6553"/>
<polygon fill="#191970" stroke="#191970" points="1497.1759,-145.9598 1507.2861,-142.7923 1497.4073,-138.9637 1497.1759,-145.9598"/>
</g>
<!-- Node23 -->
<g id="node7" class="node">
<title>Node23</title>
<g id="a_node7"><a xlink:href="sysprint_8h.html" target="_top" xlink:title=" ">
<polygon fill="#ffffff" stroke="#000000" points="648.5,-65.5 648.5,-93.5 755.6523,-93.5 755.6523,-65.5 648.5,-65.5"/>
<text text-anchor="start" x="656.5" y="-81.5" font-family="Helvetica,sans-Serif" font-size="10.00" fill="#000000">GluonicLQCD/config</text>
<text text-anchor="middle" x="702.0762" y="-71.5" font-family="Helvetica,sans-Serif" font-size="10.00" fill="#000000">/sysprint.h</text>
</a>
</g>
</g>
<!-- Node17&#45;&gt;Node23 -->
<g id="edge6" class="edge">
<title>Node17&#45;&gt;Node23</title>
<path fill="none" stroke="#191970" d="M1496.7901,-141.9926C1331.8716,-135.1002 897.2585,-114.9814 755.0762,-94 754.0919,-93.8548 753.1003,-93.7018 752.1033,-93.5419"/>
<polygon fill="#191970" stroke="#191970" points="1497.1203,-145.5093 1507.257,-142.4273 1497.4109,-138.5153 1497.1203,-145.5093"/>
</g>
<!-- Node25 -->
<g id="node9" class="node">
<title>Node25</title>
<g id="a_node9"><a xlink:href="flow_8cpp.html" target="_top" xlink:title=" ">
<polygon fill="#ffffff" stroke="#000000" points="773.4927,-70.5 773.4927,-88.5 910.6597,-88.5 910.6597,-70.5 773.4927,-70.5"/>
<text text-anchor="middle" x="842.0762" y="-76.5" font-family="Helvetica,sans-Serif" font-size="10.00" fill="#000000">GluonicLQCD/flow/flow.cpp</text>
</a>
</g>
</g>
<!-- Node17&#45;&gt;Node25 -->
<g id="edge9" class="edge">
<title>Node17&#45;&gt;Node25</title>
<path fill="none" stroke="#191970" d="M1497.1845,-141.6956C1381.6281,-136.1281 1130.366,-121.7516 920.0762,-94 909.0154,-92.5403 897.1452,-90.5527 886.0852,-88.5174"/>
<polygon fill="#191970" stroke="#191970" points="1497.1165,-145.1962 1507.2717,-142.1757 1497.4494,-138.2041 1497.1165,-145.1962"/>
</g>
<!-- Node26 -->
<g id="node10" class="node">
<title>Node26</title>
<g id="a_node10"><a xlink:href="fieldio_8cpp.html" target="_top" xlink:title=" ">
<polygon fill="#ffffff" stroke="#000000" points="929.0469,-70.5 929.0469,-88.5 1065.1055,-88.5 1065.1055,-70.5 929.0469,-70.5"/>
<text text-anchor="middle" x="997.0762" y="-76.5" font-family="Helvetica,sans-Serif" font-size="10.00" fill="#000000">GluonicLQCD/io/fieldio.cpp</text>
</a>
</g>
</g>
<!-- Node17&#45;&gt;Node26 -->
<g id="edge10" class="edge">
<title>Node17&#45;&gt;Node26</title>
<path fill="none" stroke="#191970" d="M1497.0817,-139.5642C1403.7823,-131.9833 1225.0765,-116.0081 1074.0762,-94 1063.5768,-92.4697 1052.3272,-90.5259 1041.7592,-88.5625"/>
<polygon fill="#191970" stroke="#191970" points="1496.9592,-143.0656 1507.2083,-140.3813 1497.5222,-136.0883 1496.9592,-143.0656"/>
</g>
<!-- Node27 -->
<g id="node11" class="node">
<title>Node27</title>
<g id="a_node11"><a xlink:href="observablesio_8cpp.html" target="_top" xlink:title=" ">
<polygon fill="#ffffff" stroke="#000000" points="1083.2588,-70.5 1083.2588,-88.5 1254.8936,-88.5 1254.8936,-70.5 1083.2588,-70.5"/>
<text text-anchor="middle" x="1169.0762" y="-76.5" font-family="Helvetica,sans-Serif" font-size="10.00" fill="#000000">GluonicLQCD/io/observablesio.cpp</text>
</a>
</g>
</g>
<!-- Node17&#45;&gt;Node27 -->
<g id="edge11" class="edge">
<title>Node17&#45;&gt;Node27</title>
<path fill="none" stroke="#191970" d="M1497.4481,-133.9494C1421.3037,-121.3234 1295.12,-100.4001 1223.3697,-88.5028"/>
<polygon fill="#191970" stroke="#191970" points="1496.9543,-137.4153 1507.3922,-135.5983 1498.0995,-130.5096 1496.9543,-137.4153"/>
</g>
<!-- Node28 -->
<g id="node12" class="node">
<title>Node28</title>
<g id="a_node12"><a xlink:href="main_8cpp.html" target="_top" xlink:title=" ">
<polygon fill="#ffffff" stroke="#000000" points="1272.5542,-70.5 1272.5542,-88.5 1393.5981,-88.5 1393.5981,-70.5 1272.5542,-70.5"/>
<text text-anchor="middle" x="1333.0762" y="-76.5" font-family="Helvetica,sans-Serif" font-size="10.00" fill="#000000">GluonicLQCD/main.cpp</text>
</a>
</g>
</g>
<!-- Node17&#45;&gt;Node28 -->
<g id="edge12" class="edge">
<title>Node17&#45;&gt;Node28</title>
<path fill="none" stroke="#191970" d="M1502.1896,-127.7122C1458.3052,-115.2013 1400.072,-98.5997 1364.6509,-88.5016"/>
<polygon fill="#191970" stroke="#191970" points="1501.3078,-131.1002 1511.8843,-130.476 1503.227,-124.3684 1501.3078,-131.1002"/>
</g>
<!-- Node29 -->
<g id="node13" class="node">
<title>Node29</title>
<g id="a_node13"><a xlink:href="su3matrixgenerator_8cpp.html" target="_top" xlink:title=" ">
<polygon fill="#ffffff" stroke="#000000" points="1411.4458,-65.5 1411.4458,-93.5 1554.7065,-93.5 1554.7065,-65.5 1411.4458,-65.5"/>
<text text-anchor="start" x="1419.4458" y="-81.5" font-family="Helvetica,sans-Serif" font-size="10.00" fill="#000000">GluonicLQCD/math/matrices</text>
<text text-anchor="middle" x="1483.0762" y="-71.5" font-family="Helvetica,sans-Serif" font-size="10.00" fill="#000000">/su3matrixgenerator.cpp</text>
</a>
</g>
</g>
<!-- Node17&#45;&gt;Node29 -->
<g id="edge13" class="edge">
<title>Node17&#45;&gt;Node29</title>
<path fill="none" stroke="#191970" d="M1536.336,-123.8832C1524.4827,-114.0054 1510.5913,-102.4293 1499.968,-93.5765"/>
<polygon fill="#191970" stroke="#191970" points="1534.2284,-126.6829 1544.1513,-130.396 1538.7098,-121.3053 1534.2284,-126.6829"/>
</g>
<!-- Node30 -->
<g id="node14" class="node">
<title>Node30</title>
<g id="a_node14"><a xlink:href="correlator_8cpp.html" target="_top" xlink:title=" ">
<polygon fill="#ffffff" stroke="#000000" points="1572.8818,-65.5 1572.8818,-93.5 1707.2705,-93.5 1707.2705,-65.5 1572.8818,-65.5"/>
<text text-anchor="start" x="1580.8818" y="-81.5" font-family="Helvetica,sans-Serif" font-size="10.00" fill="#000000">GluonicLQCD/observables</text>
<text text-anchor="middle" x="1640.0762" y="-71.5" font-family="Helvetica,sans-Serif" font-size="10.00" fill="#000000">/correlator.cpp</text>
</a>
</g>
</g>
<!-- Node17&#45;&gt;Node30 -->
<g id="edge14" class="edge">
<title>Node17&#45;&gt;Node30</title>
<path fill="none" stroke="#191970" d="M1586.1335,-123.8832C1598.1388,-114.0054 1612.2083,-102.4293 1622.9678,-93.5765"/>
<polygon fill="#191970" stroke="#191970" points="1583.7164,-121.3395 1578.218,-130.396 1588.1639,-126.745 1583.7164,-121.3395"/>
</g>
<!-- Node31 -->
<g id="node15" class="node">
<title>Node31</title>
<g id="a_node15"><a xlink:href="latticeactionchargedensity_8cpp.html" target="_top" xlink:title=" ">
<polygon fill="#ffffff" stroke="#000000" points="1725.0708,-65.5 1725.0708,-93.5 1877.0815,-93.5 1877.0815,-65.5 1725.0708,-65.5"/>
<text text-anchor="start" x="1733.0708" y="-81.5" font-family="Helvetica,sans-Serif" font-size="10.00" fill="#000000">GluonicLQCD/observables</text>
<text text-anchor="middle" x="1801.0762" y="-71.5" font-family="Helvetica,sans-Serif" font-size="10.00" fill="#000000">/latticeactionchargedensity.cpp</text>
</a>
</g>
</g>
<!-- Node17&#45;&gt;Node31 -->
<g id="edge15" class="edge">
<title>Node17&#45;&gt;Node31</title>
<path fill="none" stroke="#191970" d="M1622.5538,-127.8498C1661.683,-117.2523 1711.8056,-103.6775 1748.9743,-93.6109"/>
<polygon fill="#191970" stroke="#191970" points="1621.5944,-124.4835 1612.8571,-130.476 1623.4244,-131.2401 1621.5944,-124.4835"/>
</g>
<!-- Node32 -->
<g id="node16" class="node">
<title>Node32</title>
<g id="a_node16"><a xlink:href="mastersampler_8cpp.html" target="_top" xlink:title=" ">
<polygon fill="#ffffff" stroke="#000000" points="1894.8818,-65.5 1894.8818,-93.5 2029.2705,-93.5 2029.2705,-65.5 1894.8818,-65.5"/>
<text text-anchor="start" x="1902.8818" y="-81.5" font-family="Helvetica,sans-Serif" font-size="10.00" fill="#000000">GluonicLQCD/observables</text>
<text text-anchor="middle" x="1962.0762" y="-71.5" font-family="Helvetica,sans-Serif" font-size="10.00" fill="#000000">/mastersampler.cpp</text>
</a>
</g>
</g>
<!-- Node17&#45;&gt;Node32 -->
<g id="edge16" class="edge">
<title>Node17&#45;&gt;Node32</title>
<path fill="none" stroke="#191970" d="M1625.1246,-135.2118C1690.7498,-125.5391 1795.6841,-109.6409 1886.0762,-94 1888.8557,-93.519 1891.6906,-93.0194 1894.5531,-92.5074"/>
<polygon fill="#191970" stroke="#191970" points="1624.3223,-131.792 1614.938,-136.7097 1625.3408,-138.7175 1624.3223,-131.792"/>
</g>
<!-- Node33 -->
<g id="node17" class="node">
<title>Node33</title>
<g id="a_node17"><a xlink:href="mastersamplertopcxyz_8cpp.html" target="_top" xlink:title=" ">
<polygon fill="#ffffff" stroke="#000000" points="2047.2217,-65.5 2047.2217,-93.5 2184.9307,-93.5 2184.9307,-65.5 2047.2217,-65.5"/>
<text text-anchor="start" x="2055.2217" y="-81.5" font-family="Helvetica,sans-Serif" font-size="10.00" fill="#000000">GluonicLQCD/observables</text>
<text text-anchor="middle" x="2116.0762" y="-71.5" font-family="Helvetica,sans-Serif" font-size="10.00" fill="#000000">/mastersamplertopcxyz.cpp</text>
</a>
</g>
</g>
<!-- Node17&#45;&gt;Node33 -->
<g id="edge17" class="edge">
<title>Node17&#45;&gt;Node33</title>
<path fill="none" stroke="#191970" d="M1625.1339,-139.3235C1716.8812,-131.5452 1890.8861,-115.439 2038.0762,-94 2041.0747,-93.5632 2044.134,-93.0945 2047.2213,-92.6024"/>
<polygon fill="#191970" stroke="#191970" points="1624.57,-135.8585 1614.899,-140.1855 1625.1575,-142.8338 1624.57,-135.8585"/>
</g>
<!-- Node34 -->
<g id="node18" class="node">
<title>Node34</title>
<g id="a_node18"><a xlink:href="plaquette_8cpp.html" target="_top" xlink:title=" ">
<polygon fill="#ffffff" stroke="#000000" points="2202.8818,-65.5 2202.8818,-93.5 2337.2705,-93.5 2337.2705,-65.5 2202.8818,-65.5"/>
<text text-anchor="start" x="2210.8818" y="-81.5" font-family="Helvetica,sans-Serif" font-size="10.00" fill="#000000">GluonicLQCD/observables</text>
<text text-anchor="middle" x="2270.0762" y="-71.5" font-family="Helvetica,sans-Serif" font-size="10.00" fill="#000000">/plaquette.cpp</text>
</a>
</g>
</g>
<!-- Node17&#45;&gt;Node34 -->
<g id="edge18" class="edge">
<title>Node17&#45;&gt;Node34</title>
<path fill="none" stroke="#191970" d="M1625.0602,-141.703C1739.5845,-136.1835 1987.004,-121.9291 2194.0762,-94 2196.8717,-93.623 2199.7199,-93.2102 2202.5935,-92.7701"/>
<polygon fill="#191970" stroke="#191970" points="1624.881,-138.2074 1615.0587,-142.179 1625.2138,-145.1995 1624.881,-138.2074"/>
</g>
<!-- Node35 -->
<g id="node19" class="node">
<title>Node35</title>
<g id="a_node19"><a xlink:href="supersampler_8cpp.html" target="_top" xlink:title=" ">
<polygon fill="#ffffff" stroke="#000000" points="2354.8818,-65.5 2354.8818,-93.5 2489.2705,-93.5 2489.2705,-65.5 2354.8818,-65.5"/>
<text text-anchor="start" x="2362.8818" y="-81.5" font-family="Helvetica,sans-Serif" font-size="10.00" fill="#000000">GluonicLQCD/observables</text>
<text text-anchor="middle" x="2422.0762" y="-71.5" font-family="Helvetica,sans-Serif" font-size="10.00" fill="#000000">/supersampler.cpp</text>
</a>
</g>
</g>
<!-- Node17&#45;&gt;Node35 -->
<g id="edge19" class="edge">
<title>Node17&#45;&gt;Node35</title>
<path fill="none" stroke="#191970" d="M1625.1775,-143.0727C1759.4104,-139.4919 2079.6908,-127.8471 2346.0762,-94 2348.8745,-93.6444 2351.7251,-93.2497 2354.6006,-92.8244"/>
<polygon fill="#191970" stroke="#191970" points="1624.9747,-139.5767 1615.0694,-143.3364 1625.1573,-146.5744 1624.9747,-139.5767"/>
</g>
<!-- Node36 -->
<g id="node20" class="node">
<title>Node36</title>
<g id="a_node20"><a xlink:href="observablestorer_8cpp.html" target="_top" xlink:title=" ">
<polygon fill="#ffffff" stroke="#000000" points="2507.3179,-65.5 2507.3179,-93.5 2642.8345,-93.5 2642.8345,-65.5 2507.3179,-65.5"/>
<text text-anchor="start" x="2515.3179" y="-81.5" font-family="Helvetica,sans-Serif" font-size="10.00" fill="#000000">GluonicLQCD/observables</text>
<text text-anchor="middle" x="2575.0762" y="-71.5" font-family="Helvetica,sans-Serif" font-size="10.00" fill="#000000">/tools/observablestorer.cpp</text>
</a>
</g>
</g>
<!-- Node17&#45;&gt;Node36 -->
<g id="edge20" class="edge">
<title>Node17&#45;&gt;Node36</title>
<path fill="none" stroke="#191970" d="M1624.9873,-143.9646C1776.9126,-142.0588 2171.3905,-133.3874 2498.0762,-94 2501.0473,-93.6418 2504.0765,-93.238 2507.1317,-92.7993"/>
<polygon fill="#191970" stroke="#191970" points="1624.8602,-140.4657 1614.9029,-144.0855 1624.9442,-147.4652 1624.8602,-140.4657"/>
</g>
<!-- Node37 -->
<g id="node21" class="node">
<title>Node37</title>
<g id="a_node21"><a xlink:href="topologicalcharge_8cpp.html" target="_top" xlink:title=" ">
<polygon fill="#ffffff" stroke="#000000" points="2660.8818,-65.5 2660.8818,-93.5 2795.2705,-93.5 2795.2705,-65.5 2660.8818,-65.5"/>
<text text-anchor="start" x="2668.8818" y="-81.5" font-family="Helvetica,sans-Serif" font-size="10.00" fill="#000000">GluonicLQCD/observables</text>
<text text-anchor="middle" x="2728.0762" y="-71.5" font-family="Helvetica,sans-Serif" font-size="10.00" fill="#000000">/topologicalcharge.cpp</text>
</a>
</g>
</g>
<!-- Node17&#45;&gt;Node37 -->
<g id="edge21" class="edge">
<title>Node17&#45;&gt;Node37</title>
<path fill="none" stroke="#191970" d="M1624.9222,-142.7398C1827.0096,-136.9801 2451.1385,-117.6969 2652.0762,-94 2654.8776,-93.6696 2657.7308,-93.2959 2660.6084,-92.8881"/>
<polygon fill="#191970" stroke="#191970" points="1624.665,-139.2456 1614.7683,-143.0279 1624.8636,-146.2428 1624.665,-139.2456"/>
</g>
<!-- Node38 -->
<g id="node22" class="node">
<title>Node38</title>
<g id="a_node22"><a xlink:href="communicator_8cpp.html" target="_top" xlink:title=" ">
<polygon fill="#ffffff" stroke="#000000" points="2813.2686,-65.5 2813.2686,-93.5 2954.8838,-93.5 2954.8838,-65.5 2813.2686,-65.5"/>
<text text-anchor="start" x="2821.2686" y="-81.5" font-family="Helvetica,sans-Serif" font-size="10.00" fill="#000000">GluonicLQCD/parallelization</text>
<text text-anchor="middle" x="2884.0762" y="-71.5" font-family="Helvetica,sans-Serif" font-size="10.00" fill="#000000">/communicator.cpp</text>
</a>
</g>
</g>
<!-- Node17&#45;&gt;Node38 -->
<g id="edge22" class="edge">
<title>Node17&#45;&gt;Node38</title>
<path fill="none" stroke="#191970" d="M1625.0595,-143.0749C1845.4157,-137.9832 2572.0225,-119.6186 2804.0762,-94 2807.0225,-93.6747 2810.0237,-93.3053 2813.0511,-92.901"/>
<polygon fill="#191970" stroke="#191970" points="1624.8699,-139.5783 1614.953,-143.3073 1625.0308,-146.5764 1624.8699,-139.5783"/>
</g>
<!-- Node39 -->
<g id="node23" class="node">
<title>Node39</title>
<g id="a_node23"><a xlink:href="system_8cpp.html" target="_top" xlink:title=" ">
<polygon fill="#ffffff" stroke="#000000" points="2972.5566,-70.5 2972.5566,-88.5 3103.5957,-88.5 3103.5957,-70.5 2972.5566,-70.5"/>
<text text-anchor="middle" x="3038.0762" y="-76.5" font-family="Helvetica,sans-Serif" font-size="10.00" fill="#000000">GluonicLQCD/system.cpp</text>
</a>
</g>
</g>
<!-- Node17&#45;&gt;Node39 -->
<g id="edge23" class="edge">
<title>Node17&#45;&gt;Node39</title>
<path fill="none" stroke="#191970" d="M1625.134,-143.5356C1863.5529,-139.7373 2699.3962,-124.5024 2964.0762,-94 2975.1308,-92.726 2987.0026,-90.6995 2997.9302,-88.5606"/>
<polygon fill="#191970" stroke="#191970" points="1624.8442,-140.0396 1614.9008,-143.6974 1624.9549,-147.0387 1624.8442,-140.0396"/>
</g>
<!-- Node40 -->
<g id="node24" class="node">
<title>Node40</title>
<g id="a_node24"><a xlink:href="performancetests_8cpp.html" target="_top" xlink:title=" ">
<polygon fill="#ffffff" stroke="#000000" points="3121.8154,-70.5 3121.8154,-88.5 3322.3369,-88.5 3322.3369,-70.5 3121.8154,-70.5"/>
<text text-anchor="middle" x="3222.0762" y="-76.5" font-family="Helvetica,sans-Serif" font-size="10.00" fill="#000000">GluonicLQCD/tests/performancetests.cpp</text>
</a>
</g>
</g>
<!-- Node17&#45;&gt;Node40 -->
<g id="edge24" class="edge">
<title>Node17&#45;&gt;Node40</title>
<path fill="none" stroke="#191970" d="M1625.0112,-143.2717C1878.9414,-138.2612 2816.7738,-118.4675 3113.0762,-94 3129.1528,-92.6725 3146.492,-90.6415 3162.5088,-88.5161"/>
<polygon fill="#191970" stroke="#191970" points="1624.7787,-139.7755 1614.8494,-143.4715 1624.9163,-146.7741 1624.7787,-139.7755"/>
</g>
<!-- Node41 -->
<g id="node25" class="node">
<title>Node41</title>
<g id="a_node25"><a xlink:href="testsuite_8cpp.html" target="_top" xlink:title=" ">
<polygon fill="#ffffff" stroke="#000000" points="3340.8228,-70.5 3340.8228,-88.5 3501.3296,-88.5 3501.3296,-70.5 3340.8228,-70.5"/>
<text text-anchor="middle" x="3421.0762" y="-76.5" font-family="Helvetica,sans-Serif" font-size="10.00" fill="#000000">GluonicLQCD/tests/testsuite.cpp</text>
</a>
</g>
</g>
<!-- Node17&#45;&gt;Node41 -->
<g id="edge25" class="edge">
<title>Node17&#45;&gt;Node41</title>
<path fill="none" stroke="#191970" d="M1625.1473,-143.8C1901.1467,-140.6107 2990.0015,-126.2008 3331.0762,-94 3344.4691,-92.7356 3358.8904,-90.7123 3372.1805,-88.5734"/>
<polygon fill="#191970" stroke="#191970" points="1624.8662,-140.3029 1614.907,-143.9175 1624.9465,-147.3024 1624.8662,-140.3029"/>
</g>
<!-- Node23&#45;&gt;Node17 -->
<g id="edge7" class="edge">
<title>Node23&#45;&gt;Node17</title>
<path fill="none" stroke="#191970" d="M765.9085,-92.836C768.3279,-93.2615 770.7232,-93.6528 773.0762,-94 915.8942,-115.0753 1353.7641,-135.2801 1507.2964,-142.0843"/>
<polygon fill="#191970" stroke="#191970" points="766.3532,-89.3578 755.8741,-90.9196 765.0399,-96.2335 766.3532,-89.3578"/>
</g>
<!-- Node24 -->
<g id="node8" class="node">
<title>Node24</title>
<g id="a_node8"><a xlink:href="sysprint_8cpp.html" target="_top" xlink:title=" ">
<polygon fill="#ffffff" stroke="#000000" points="648.5,-.5 648.5,-28.5 755.6523,-28.5 755.6523,-.5 648.5,-.5"/>
<text text-anchor="start" x="656.5" y="-16.5" font-family="Helvetica,sans-Serif" font-size="10.00" fill="#000000">GluonicLQCD/config</text>
<text text-anchor="middle" x="702.0762" y="-6.5" font-family="Helvetica,sans-Serif" font-size="10.00" fill="#000000">/sysprint.cpp</text>
</a>
</g>
</g>
<!-- Node23&#45;&gt;Node24 -->
<g id="edge8" class="edge">
<title>Node23&#45;&gt;Node24</title>
<path fill="none" stroke="#191970" d="M702.0762,-55.1081C702.0762,-46.1539 702.0762,-36.3227 702.0762,-28.5765"/>
<polygon fill="#191970" stroke="#191970" points="698.5763,-55.3959 702.0762,-65.396 705.5763,-55.396 698.5763,-55.3959"/>
</g>
</g>
</svg>
