<?xml version="1.0" encoding="UTF-8" standalone="no"?>
<!DOCTYPE svg PUBLIC "-//W3C//DTD SVG 1.1//EN"
 "http://www.w3.org/Graphics/SVG/1.1/DTD/svg11.dtd">
<!-- Generated by graphviz version 2.40.1 (20161225.0304)
 -->
<!-- Title: GluonicLQCD/tests/performancetests.h Pages: 1 -->
<svg width="356pt" height="137pt"
 viewBox="0.00 0.00 355.67 137.00" xmlns="http://www.w3.org/2000/svg" xmlns:xlink="http://www.w3.org/1999/xlink">
<g id="graph0" class="graph" transform="scale(1 1) rotate(0) translate(4 133)">
<title>GluonicLQCD/tests/performancetests.h</title>
<polygon fill="#ffffff" stroke="transparent" points="-4,4 -4,-133 351.6719,-133 351.6719,4 -4,4"/>
<!-- Node7 -->
<g id="node1" class="node">
<title>Node7</title>
<g id="a_node1"><a xlink:title=" ">
<polygon fill="#bfbfbf" stroke="#000000" points="60.4312,-110.5 60.4312,-128.5 250.3911,-128.5 250.3911,-110.5 60.4312,-110.5"/>
<text text-anchor="middle" x="155.4111" y="-116.5" font-family="Helvetica,sans-Serif" font-size="10.00" fill="#000000">GluonicLQCD/tests/performancetests.h</text>
</a>
</g>
</g>
<!-- Node8 -->
<g id="node2" class="node">
<title>Node8</title>
<g id="a_node2"><a xlink:href="test_8h.html" target="_top" xlink:title=" ">
<polygon fill="#ffffff" stroke="#000000" points="0,-55.5 0,-73.5 128.8223,-73.5 128.8223,-55.5 0,-55.5"/>
<text text-anchor="middle" x="64.4111" y="-61.5" font-family="Helvetica,sans-Serif" font-size="10.00" fill="#000000">GluonicLQCD/tests/test.h</text>
</a>
</g>
</g>
<!-- Node7&#45;&gt;Node8 -->
<g id="edge1" class="edge">
<title>Node7&#45;&gt;Node8</title>
<path fill="none" stroke="#191970" d="M131.8028,-105.2313C115.2776,-95.2435 93.6943,-82.1986 79.4603,-73.5956"/>
<polygon fill="#191970" stroke="#191970" points="130.0156,-108.2406 140.3843,-110.4179 133.6365,-102.2498 130.0156,-108.2406"/>
</g>
<!-- Node10 -->
<g id="node4" class="node">
<title>Node10</title>
<g id="a_node4"><a xlink:href="performancetests_8cpp.html" target="_top" xlink:title=" ">
<polygon fill="#ffffff" stroke="#000000" points="147.1504,-55.5 147.1504,-73.5 347.6719,-73.5 347.6719,-55.5 147.1504,-55.5"/>
<text text-anchor="middle" x="247.4111" y="-61.5" font-family="Helvetica,sans-Serif" font-size="10.00" fill="#000000">GluonicLQCD/tests/performancetests.cpp</text>
</a>
</g>
</g>
<!-- Node7&#45;&gt;Node10 -->
<g id="edge3" class="edge">
<title>Node7&#45;&gt;Node10</title>
<path fill="none" stroke="#191970" d="M179.2789,-105.2313C195.9857,-95.2435 217.8062,-82.1986 232.1966,-73.5956"/>
<polygon fill="#191970" stroke="#191970" points="177.3903,-102.2825 170.6031,-110.4179 180.9822,-108.2907 177.3903,-102.2825"/>
</g>
<!-- Node9 -->
<g id="node3" class="node">
<title>Node9</title>
<g id="a_node3"><a xlink:href="main_8cpp.html" target="_top" xlink:title=" ">
<polygon fill="#ffffff" stroke="#000000" points="3.8892,-.5 3.8892,-18.5 124.9331,-18.5 124.9331,-.5 3.8892,-.5"/>
<text text-anchor="middle" x="64.4111" y="-6.5" font-family="Helvetica,sans-Serif" font-size="10.00" fill="#000000">GluonicLQCD/main.cpp</text>
</a>
</g>
</g>
<!-- Node8&#45;&gt;Node9 -->
<g id="edge2" class="edge">
<title>Node8&#45;&gt;Node9</title>
<path fill="none" stroke="#191970" d="M64.4111,-45.383C64.4111,-36.3738 64.4111,-26.0373 64.4111,-18.7795"/>
<polygon fill="#191970" stroke="#191970" points="60.9112,-45.4178 64.4111,-55.4179 67.9112,-45.4179 60.9112,-45.4178"/>
</g>
</g>
</svg>
