<?xml version="1.0" encoding="UTF-8" standalone="no"?>
<!DOCTYPE svg PUBLIC "-//W3C//DTD SVG 1.1//EN"
 "http://www.w3.org/Graphics/SVG/1.1/DTD/svg11.dtd">
<!-- Generated by graphviz version 2.40.1 (20161225.0304)
 -->
<!-- Title: GluonicLQCD/tests/performancetests.cpp Pages: 1 -->
<svg width="991pt" height="532pt"
 viewBox="0.00 0.00 990.88 532.00" xmlns="http://www.w3.org/2000/svg" xmlns:xlink="http://www.w3.org/1999/xlink">
<g id="graph0" class="graph" transform="scale(1 1) rotate(0) translate(4 528)">
<title>GluonicLQCD/tests/performancetests.cpp</title>
<polygon fill="#ffffff" stroke="transparent" points="-4,4 -4,-528 986.8787,-528 986.8787,4 -4,4"/>
<!-- Node0 -->
<g id="node1" class="node">
<title>Node0</title>
<g id="a_node1"><a xlink:title=" ">
<polygon fill="#bfbfbf" stroke="#000000" points="438.3299,-505.5 438.3299,-523.5 638.8514,-523.5 638.8514,-505.5 438.3299,-505.5"/>
<text text-anchor="middle" x="538.5906" y="-511.5" font-family="Helvetica,sans-Serif" font-size="10.00" fill="#000000">GluonicLQCD/tests/performancetests.cpp</text>
</a>
</g>
</g>
<!-- Node1 -->
<g id="node2" class="node">
<title>Node1</title>
<g id="a_node2"><a xlink:href="performancetests_8h.html" target="_top" xlink:title=" ">
<polygon fill="#ffffff" stroke="#000000" points="835.7928,-330.5 835.7928,-348.5 937.3885,-348.5 937.3885,-330.5 835.7928,-330.5"/>
<text text-anchor="middle" x="886.5906" y="-336.5" font-family="Helvetica,sans-Serif" font-size="10.00" fill="#000000">performancetests.h</text>
</a>
</g>
</g>
<!-- Node0&#45;&gt;Node1 -->
<g id="edge1" class="edge">
<title>Node0&#45;&gt;Node1</title>
<path fill="none" stroke="#191970" d="M639.165,-508.1627C736.9684,-500.949 873.1634,-487.6941 889.5906,-469 916.4559,-438.4274 903.8376,-386.3614 894.1345,-358.4701"/>
<polygon fill="#191970" stroke="#191970" points="897.2863,-356.9035 890.5237,-348.7477 890.7243,-359.3407 897.2863,-356.9035"/>
</g>
<!-- Node8 -->
<g id="node9" class="node">
<title>Node8</title>
<g id="a_node9"><a xlink:title=" ">
<polygon fill="#ffffff" stroke="#bfbfbf" points="936.3026,-445.5 936.3026,-463.5 982.8787,-463.5 982.8787,-445.5 936.3026,-445.5"/>
<text text-anchor="middle" x="959.5906" y="-451.5" font-family="Helvetica,sans-Serif" font-size="10.00" fill="#000000">chrono</text>
</a>
</g>
</g>
<!-- Node0&#45;&gt;Node8 -->
<g id="edge9" class="edge">
<title>Node0&#45;&gt;Node8</title>
<path fill="none" stroke="#191970" d="M638.908,-509.6391C717.1367,-504.1707 828.0089,-492.7198 922.5906,-469 924.9057,-468.4194 927.2707,-467.731 929.6299,-466.9744"/>
<polygon fill="#191970" stroke="#191970" points="930.9066,-470.2351 939.1525,-463.5827 928.5578,-463.6409 930.9066,-470.2351"/>
</g>
<!-- Node9 -->
<g id="node10" class="node">
<title>Node9</title>
<g id="a_node10"><a xlink:href="parameters_8h.html" target="_top" xlink:title=" ">
<polygon fill="#ffffff" stroke="#000000" points="97.4012,-445.5 97.4012,-463.5 201.7801,-463.5 201.7801,-445.5 97.4012,-445.5"/>
<text text-anchor="middle" x="149.5906" y="-451.5" font-family="Helvetica,sans-Serif" font-size="10.00" fill="#000000">config/parameters.h</text>
</a>
</g>
</g>
<!-- Node0&#45;&gt;Node9 -->
<g id="edge10" class="edge">
<title>Node0&#45;&gt;Node9</title>
<path fill="none" stroke="#191970" d="M479.9322,-505.4524C407.7664,-494.3215 285.7676,-475.5042 211.9469,-464.1179"/>
<polygon fill="#191970" stroke="#191970" points="212.2771,-460.6276 201.8604,-462.5622 211.21,-467.5457 212.2771,-460.6276"/>
</g>
<!-- Node22 -->
<g id="node23" class="node">
<title>Node22</title>
<g id="a_node23"><a xlink:href="expluscher_8h.html" target="_top" xlink:title=" ">
<polygon fill="#ffffff" stroke="#000000" points="526.5589,-440.5 526.5589,-468.5 632.6224,-468.5 632.6224,-440.5 526.5589,-440.5"/>
<text text-anchor="start" x="534.5589" y="-456.5" font-family="Helvetica,sans-Serif" font-size="10.00" fill="#000000">math/exponentiation</text>
<text text-anchor="middle" x="579.5906" y="-446.5" font-family="Helvetica,sans-Serif" font-size="10.00" fill="#000000">/expluscher.h</text>
</a>
</g>
</g>
<!-- Node0&#45;&gt;Node22 -->
<g id="edge34" class="edge">
<title>Node0&#45;&gt;Node22</title>
<path fill="none" stroke="#191970" d="M544.8177,-505.3873C549.8944,-497.9579 557.2896,-487.1356 563.9562,-477.3796"/>
<polygon fill="#191970" stroke="#191970" points="567.0342,-479.0788 569.7864,-468.8477 561.2547,-475.1294 567.0342,-479.0788"/>
</g>
<!-- Node23 -->
<g id="node24" class="node">
<title>Node23</title>
<g id="a_node24"><a xlink:href="su3exp_8h.html" target="_top" xlink:title=" ">
<polygon fill="#ffffff" stroke="#000000" points="613.2977,-385.5 613.2977,-403.5 669.8836,-403.5 669.8836,-385.5 613.2977,-385.5"/>
<text text-anchor="middle" x="641.5906" y="-391.5" font-family="Helvetica,sans-Serif" font-size="10.00" fill="#000000">su3exp.h</text>
</a>
</g>
</g>
<!-- Node0&#45;&gt;Node23 -->
<g id="edge37" class="edge">
<title>Node0&#45;&gt;Node23</title>
<path fill="none" stroke="#191970" d="M531.5292,-505.4323C520.8508,-490.5353 503.281,-460.4933 517.5906,-440 527.7333,-425.4744 570.806,-411.9076 603.3621,-403.4339"/>
<polygon fill="#191970" stroke="#191970" points="604.2457,-406.8207 613.08,-400.9722 602.5267,-400.035 604.2457,-406.8207"/>
</g>
<!-- Node24 -->
<g id="node25" class="node">
<title>Node24</title>
<g id="a_node25"><a xlink:href="taylor2exp_8h.html" target="_top" xlink:title=" ">
<polygon fill="#ffffff" stroke="#000000" points="650.5589,-440.5 650.5589,-468.5 756.6224,-468.5 756.6224,-440.5 650.5589,-440.5"/>
<text text-anchor="start" x="658.5589" y="-456.5" font-family="Helvetica,sans-Serif" font-size="10.00" fill="#000000">math/exponentiation</text>
<text text-anchor="middle" x="703.5906" y="-446.5" font-family="Helvetica,sans-Serif" font-size="10.00" fill="#000000">/taylor2exp.h</text>
</a>
</g>
</g>
<!-- Node0&#45;&gt;Node24 -->
<g id="edge38" class="edge">
<title>Node0&#45;&gt;Node24</title>
<path fill="none" stroke="#191970" d="M563.6506,-505.3873C587.9739,-496.5425 625.5214,-482.8888 655.6018,-471.9505"/>
<polygon fill="#191970" stroke="#191970" points="656.8778,-475.2108 665.0796,-468.504 654.4855,-468.6322 656.8778,-475.2108"/>
</g>
<!-- Node25 -->
<g id="node26" class="node">
<title>Node25</title>
<g id="a_node26"><a xlink:href="taylor4exp_8h.html" target="_top" xlink:title=" ">
<polygon fill="#ffffff" stroke="#000000" points="774.5589,-440.5 774.5589,-468.5 880.6224,-468.5 880.6224,-440.5 774.5589,-440.5"/>
<text text-anchor="start" x="782.5589" y="-456.5" font-family="Helvetica,sans-Serif" font-size="10.00" fill="#000000">math/exponentiation</text>
<text text-anchor="middle" x="827.5906" y="-446.5" font-family="Helvetica,sans-Serif" font-size="10.00" fill="#000000">/taylor4exp.h</text>
</a>
</g>
</g>
<!-- Node0&#45;&gt;Node25 -->
<g id="edge40" class="edge">
<title>Node0&#45;&gt;Node25</title>
<path fill="none" stroke="#191970" d="M586.0722,-505.4404C629.9062,-496.9739 697.0646,-483.7434 764.5582,-469.187"/>
<polygon fill="#191970" stroke="#191970" points="765.4835,-472.5678 774.5159,-467.0301 764.0016,-465.7264 765.4835,-472.5678"/>
</g>
<!-- Node26 -->
<g id="node27" class="node">
<title>Node26</title>
<g id="a_node27"><a xlink:href="taylorexp_8h.html" target="_top" xlink:title=" ">
<polygon fill="#ffffff" stroke="#000000" points="364.5589,-440.5 364.5589,-468.5 470.6224,-468.5 470.6224,-440.5 364.5589,-440.5"/>
<text text-anchor="start" x="372.5589" y="-456.5" font-family="Helvetica,sans-Serif" font-size="10.00" fill="#000000">math/exponentiation</text>
<text text-anchor="middle" x="417.5906" y="-446.5" font-family="Helvetica,sans-Serif" font-size="10.00" fill="#000000">/taylorexp.h</text>
</a>
</g>
</g>
<!-- Node0&#45;&gt;Node26 -->
<g id="edge42" class="edge">
<title>Node0&#45;&gt;Node26</title>
<path fill="none" stroke="#191970" d="M520.2133,-505.3873C503.0516,-496.8773 476.9125,-483.9158 455.3107,-473.2042"/>
<polygon fill="#191970" stroke="#191970" points="456.5764,-469.9252 446.0625,-468.6183 453.4667,-476.1965 456.5764,-469.9252"/>
</g>
<!-- Node27 -->
<g id="node28" class="node">
<title>Node27</title>
<g id="a_node28"><a xlink:href="wilsongaugeaction_8h.html" target="_top" xlink:title=" ">
<polygon fill="#ffffff" stroke="#000000" points="228.0491,-330.5 228.0491,-348.5 369.1321,-348.5 369.1321,-330.5 228.0491,-330.5"/>
<text text-anchor="middle" x="298.5906" y="-336.5" font-family="Helvetica,sans-Serif" font-size="10.00" fill="#000000">actions/wilsongaugeaction.h</text>
</a>
</g>
</g>
<!-- Node0&#45;&gt;Node27 -->
<g id="edge44" class="edge">
<title>Node0&#45;&gt;Node27</title>
<path fill="none" stroke="#191970" d="M471.6002,-505.4574C423.9113,-497.7819 365.1283,-485.3992 346.5906,-469 314.0755,-440.2358 303.5433,-387.383 300.1633,-358.9024"/>
<polygon fill="#191970" stroke="#191970" points="303.6152,-358.2459 299.1348,-348.6451 296.6501,-358.9444 303.6152,-358.2459"/>
</g>
<!-- Node29 -->
<g id="node30" class="node">
<title>Node29</title>
<g id="a_node30"><a xlink:href="luscheraction_8h.html" target="_top" xlink:title=" ">
<polygon fill="#ffffff" stroke="#000000" points="332.7288,-385.5 332.7288,-403.5 450.4525,-403.5 450.4525,-385.5 332.7288,-385.5"/>
<text text-anchor="middle" x="391.5906" y="-391.5" font-family="Helvetica,sans-Serif" font-size="10.00" fill="#000000">actions/luscheraction.h</text>
</a>
</g>
</g>
<!-- Node0&#45;&gt;Node29 -->
<g id="edge48" class="edge">
<title>Node0&#45;&gt;Node29</title>
<path fill="none" stroke="#191970" d="M464.696,-505.4408C420.0927,-498.2833 369.3022,-486.5382 355.5906,-469 341.5243,-451.008 358.8138,-426.63 373.9383,-410.7369"/>
<polygon fill="#191970" stroke="#191970" points="376.4132,-413.2118 381.0422,-403.6817 371.4805,-408.245 376.4132,-413.2118"/>
</g>
<!-- Node2 -->
<g id="node3" class="node">
<title>Node2</title>
<g id="a_node3"><a xlink:href="su3matrixgenerator_8h.html" target="_top" xlink:title=" ">
<polygon fill="#ffffff" stroke="#000000" points="776.8323,-165.5 776.8323,-183.5 952.3489,-183.5 952.3489,-165.5 776.8323,-165.5"/>
<text text-anchor="middle" x="864.5906" y="-171.5" font-family="Helvetica,sans-Serif" font-size="10.00" fill="#000000">math/matrices/su3matrixgenerator.h</text>
</a>
</g>
</g>
<!-- Node1&#45;&gt;Node2 -->
<g id="edge2" class="edge">
<title>Node1&#45;&gt;Node2</title>
<path fill="none" stroke="#191970" d="M885.3448,-330.1561C881.8507,-303.9504 871.9047,-229.3557 867.1643,-193.8021"/>
<polygon fill="#191970" stroke="#191970" points="870.6138,-193.1911 865.8228,-183.7414 863.6752,-194.1163 870.6138,-193.1911"/>
</g>
<!-- Node3 -->
<g id="node4" class="node">
<title>Node3</title>
<g id="a_node4"><a xlink:title=" ">
<polygon fill="#ffffff" stroke="#bfbfbf" points="839.6375,-110.5 839.6375,-128.5 889.5438,-128.5 889.5438,-110.5 839.6375,-110.5"/>
<text text-anchor="middle" x="864.5906" y="-116.5" font-family="Helvetica,sans-Serif" font-size="10.00" fill="#000000">random</text>
</a>
</g>
</g>
<!-- Node2&#45;&gt;Node3 -->
<g id="edge3" class="edge">
<title>Node2&#45;&gt;Node3</title>
<path fill="none" stroke="#191970" d="M864.5906,-165.4179C864.5906,-158.2164 864.5906,-147.8962 864.5906,-138.8632"/>
<polygon fill="#191970" stroke="#191970" points="868.0907,-138.7794 864.5906,-128.7795 861.0907,-138.7795 868.0907,-138.7794"/>
</g>
<!-- Node4 -->
<g id="node5" class="node">
<title>Node4</title>
<g id="a_node5"><a xlink:href="su3_8h.html" target="_top" xlink:title=" ">
<polygon fill="#ffffff" stroke="#000000" points="751.3592,-110.5 751.3592,-128.5 791.8221,-128.5 791.8221,-110.5 751.3592,-110.5"/>
<text text-anchor="middle" x="771.5906" y="-116.5" font-family="Helvetica,sans-Serif" font-size="10.00" fill="#000000">su3.h</text>
</a>
</g>
</g>
<!-- Node2&#45;&gt;Node4 -->
<g id="edge4" class="edge">
<title>Node2&#45;&gt;Node4</title>
<path fill="none" stroke="#191970" d="M849.2336,-165.4179C834.6946,-156.8195 812.6381,-143.7754 795.7443,-133.7844"/>
<polygon fill="#191970" stroke="#191970" points="797.3596,-130.6735 786.9705,-128.5956 793.7963,-136.6987 797.3596,-130.6735"/>
</g>
<!-- Node7 -->
<g id="node8" class="node">
<title>Node7</title>
<g id="a_node8"><a xlink:href="su2_8h.html" target="_top" xlink:title=" ">
<polygon fill="#ffffff" stroke="#000000" points="693.3592,-110.5 693.3592,-128.5 733.8221,-128.5 733.8221,-110.5 693.3592,-110.5"/>
<text text-anchor="middle" x="713.5906" y="-116.5" font-family="Helvetica,sans-Serif" font-size="10.00" fill="#000000">su2.h</text>
</a>
</g>
</g>
<!-- Node2&#45;&gt;Node7 -->
<g id="edge7" class="edge">
<title>Node2&#45;&gt;Node7</title>
<path fill="none" stroke="#191970" d="M839.6561,-165.4179C813.3954,-155.8527 772.0297,-140.7858 743.9023,-130.5407"/>
<polygon fill="#191970" stroke="#191970" points="744.7851,-127.1373 734.1911,-127.0035 742.3893,-133.7146 744.7851,-127.1373"/>
</g>
<!-- Node5 -->
<g id="node6" class="node">
<title>Node5</title>
<g id="a_node6"><a xlink:href="complex_8h.html" target="_top" xlink:title=" ">
<polygon fill="#ffffff" stroke="#000000" points="670.2977,-55.5 670.2977,-73.5 756.8836,-73.5 756.8836,-55.5 670.2977,-55.5"/>
<text text-anchor="middle" x="713.5906" y="-61.5" font-family="Helvetica,sans-Serif" font-size="10.00" fill="#000000">math/complex.h</text>
</a>
</g>
</g>
<!-- Node4&#45;&gt;Node5 -->
<g id="edge5" class="edge">
<title>Node4&#45;&gt;Node5</title>
<path fill="none" stroke="#191970" d="M762.0131,-110.4179C753.5843,-102.425 741.1041,-90.5903 730.925,-80.9377"/>
<polygon fill="#191970" stroke="#191970" points="733.0408,-78.1207 723.3762,-73.7795 728.2242,-83.2001 733.0408,-78.1207"/>
</g>
<!-- Node6 -->
<g id="node7" class="node">
<title>Node6</title>
<g id="a_node7"><a xlink:title=" ">
<polygon fill="#ffffff" stroke="#bfbfbf" points="686.4183,-.5 686.4183,-18.5 740.763,-18.5 740.763,-.5 686.4183,-.5"/>
<text text-anchor="middle" x="713.5906" y="-6.5" font-family="Helvetica,sans-Serif" font-size="10.00" fill="#000000">iostream</text>
</a>
</g>
</g>
<!-- Node5&#45;&gt;Node6 -->
<g id="edge6" class="edge">
<title>Node5&#45;&gt;Node6</title>
<path fill="none" stroke="#191970" d="M713.5906,-55.4179C713.5906,-48.2164 713.5906,-37.8962 713.5906,-28.8632"/>
<polygon fill="#191970" stroke="#191970" points="717.0907,-28.7794 713.5906,-18.7795 710.0907,-28.7795 717.0907,-28.7794"/>
</g>
<!-- Node7&#45;&gt;Node5 -->
<g id="edge8" class="edge">
<title>Node7&#45;&gt;Node5</title>
<path fill="none" stroke="#191970" d="M713.5906,-110.4179C713.5906,-103.2164 713.5906,-92.8962 713.5906,-83.8632"/>
<polygon fill="#191970" stroke="#191970" points="717.0907,-83.7794 713.5906,-73.7795 710.0907,-83.7795 717.0907,-83.7794"/>
</g>
<!-- Node10 -->
<g id="node11" class="node">
<title>Node10</title>
<g id="a_node11"><a xlink:title=" ">
<polygon fill="#ffffff" stroke="#bfbfbf" points="47.3641,-385.5 47.3641,-403.5 87.8172,-403.5 87.8172,-385.5 47.3641,-385.5"/>
<text text-anchor="middle" x="67.5906" y="-391.5" font-family="Helvetica,sans-Serif" font-size="10.00" fill="#000000">string</text>
</a>
</g>
</g>
<!-- Node9&#45;&gt;Node10 -->
<g id="edge11" class="edge">
<title>Node9&#45;&gt;Node10</title>
<path fill="none" stroke="#191970" d="M137.1366,-445.3873C124.178,-435.9054 103.6665,-420.897 88.2709,-409.6319"/>
<polygon fill="#191970" stroke="#191970" points="90.0303,-406.5824 79.8932,-403.5019 85.8967,-412.2316 90.0303,-406.5824"/>
</g>
<!-- Node11 -->
<g id="node12" class="node">
<title>Node11</title>
<g id="a_node12"><a xlink:title=" ">
<polygon fill="#ffffff" stroke="#bfbfbf" points="165.9749,-110.5 165.9749,-128.5 209.2064,-128.5 209.2064,-110.5 165.9749,-110.5"/>
<text text-anchor="middle" x="187.5906" y="-116.5" font-family="Helvetica,sans-Serif" font-size="10.00" fill="#000000">vector</text>
</a>
</g>
</g>
<!-- Node9&#45;&gt;Node11 -->
<g id="edge12" class="edge">
<title>Node9&#45;&gt;Node11</title>
<path fill="none" stroke="#191970" d="M117.2599,-445.4217C73.4378,-430.9105 .5906,-397.9913 .5906,-339.5 .5906,-339.5 .5906,-339.5 .5906,-229.5 .5906,-199.6154 -1.7719,-185.898 19.5906,-165 38.8474,-146.162 112.7744,-131.4932 155.877,-124.3242"/>
<polygon fill="#191970" stroke="#191970" points="156.5511,-127.7607 165.8622,-122.7057 155.431,-120.8509 156.5511,-127.7607"/>
</g>
<!-- Node12 -->
<g id="node13" class="node">
<title>Node12</title>
<g id="a_node13"><a xlink:href="sysprint_8h.html" target="_top" xlink:title=" ">
<polygon fill="#ffffff" stroke="#000000" points="105.4627,-385.5 105.4627,-403.5 193.7186,-403.5 193.7186,-385.5 105.4627,-385.5"/>
<text text-anchor="middle" x="149.5906" y="-391.5" font-family="Helvetica,sans-Serif" font-size="10.00" fill="#000000">config/sysprint.h</text>
</a>
</g>
</g>
<!-- Node9&#45;&gt;Node12 -->
<g id="edge13" class="edge">
<title>Node9&#45;&gt;Node12</title>
<path fill="none" stroke="#191970" d="M144.5813,-445.3873C142.8631,-437.0174 142.4169,-424.3414 143.2427,-413.735"/>
<polygon fill="#191970" stroke="#191970" points="146.7288,-414.0697 144.5638,-403.6985 139.7886,-413.1562 146.7288,-414.0697"/>
</g>
<!-- Node12&#45;&gt;Node9 -->
<g id="edge14" class="edge">
<title>Node12&#45;&gt;Node9</title>
<path fill="none" stroke="#191970" d="M154.6175,-403.6985C156.327,-412.0976 156.7645,-424.7812 155.9301,-435.3734"/>
<polygon fill="#191970" stroke="#191970" points="152.4472,-435.0135 154.6,-445.3873 159.3863,-435.9352 152.4472,-435.0135"/>
</g>
<!-- Node13 -->
<g id="node14" class="node">
<title>Node13</title>
<g id="a_node14"><a xlink:href="parallel_8h.html" target="_top" xlink:title=" ">
<polygon fill="#ffffff" stroke="#000000" points="89.3372,-330.5 89.3372,-348.5 209.8441,-348.5 209.8441,-330.5 89.3372,-330.5"/>
<text text-anchor="middle" x="149.5906" y="-336.5" font-family="Helvetica,sans-Serif" font-size="10.00" fill="#000000">parallelization/parallel.h</text>
</a>
</g>
</g>
<!-- Node12&#45;&gt;Node13 -->
<g id="edge15" class="edge">
<title>Node12&#45;&gt;Node13</title>
<path fill="none" stroke="#191970" d="M149.5906,-385.4179C149.5906,-378.2164 149.5906,-367.8962 149.5906,-358.8632"/>
<polygon fill="#191970" stroke="#191970" points="153.0907,-358.7794 149.5906,-348.7795 146.0907,-358.7795 153.0907,-358.7794"/>
</g>
<!-- Node14 -->
<g id="node15" class="node">
<title>Node14</title>
<g id="a_node15"><a xlink:href="communicator_8h.html" target="_top" xlink:title=" ">
<polygon fill="#ffffff" stroke="#000000" points="125.2952,-275.5 125.2952,-293.5 211.886,-293.5 211.886,-275.5 125.2952,-275.5"/>
<text text-anchor="middle" x="168.5906" y="-281.5" font-family="Helvetica,sans-Serif" font-size="10.00" fill="#000000">communicator.h</text>
</a>
</g>
</g>
<!-- Node13&#45;&gt;Node14 -->
<g id="edge16" class="edge">
<title>Node13&#45;&gt;Node14</title>
<path fill="none" stroke="#191970" d="M152.7281,-330.4179C155.2706,-323.0581 158.9383,-312.441 162.1066,-303.2695"/>
<polygon fill="#191970" stroke="#191970" points="165.4279,-304.3742 165.385,-293.7795 158.8116,-302.0885 165.4279,-304.3742"/>
</g>
<!-- Node17 -->
<g id="node18" class="node">
<title>Node17</title>
<g id="a_node18"><a xlink:href="index_8h.html" target="_top" xlink:title=" ">
<polygon fill="#ffffff" stroke="#000000" points="28.5047,-165.5 28.5047,-183.5 140.6766,-183.5 140.6766,-165.5 28.5047,-165.5"/>
<text text-anchor="middle" x="84.5906" y="-171.5" font-family="Helvetica,sans-Serif" font-size="10.00" fill="#000000">parallelization/index.h</text>
</a>
</g>
</g>
<!-- Node13&#45;&gt;Node17 -->
<g id="edge32" class="edge">
<title>Node13&#45;&gt;Node17</title>
<path fill="none" stroke="#191970" d="M141.4152,-330.3869C133.9595,-321.6327 123.1374,-307.7431 116.5906,-294 100.6428,-260.5223 91.6509,-217.8452 87.4864,-193.6056"/>
<polygon fill="#191970" stroke="#191970" points="90.9173,-192.8973 85.8625,-183.586 84.0075,-194.0172 90.9173,-192.8973"/>
</g>
<!-- Node20 -->
<g id="node21" class="node">
<title>Node20</title>
<g id="a_node21"><a xlink:href="parallelparameters_8h.html" target="_top" xlink:title=" ">
<polygon fill="#ffffff" stroke="#000000" points="467.0491,-165.5 467.0491,-183.5 638.1321,-183.5 638.1321,-165.5 467.0491,-165.5"/>
<text text-anchor="middle" x="552.5906" y="-171.5" font-family="Helvetica,sans-Serif" font-size="10.00" fill="#000000">parallelization/parallelparameters.h</text>
</a>
</g>
</g>
<!-- Node13&#45;&gt;Node20 -->
<g id="edge33" class="edge">
<title>Node13&#45;&gt;Node20</title>
<path fill="none" stroke="#191970" d="M209.8805,-331.4006C251.5561,-324.5407 307.7138,-312.762 354.5906,-294 424.3952,-266.0615 498.0249,-215.0527 532.531,-189.6757"/>
<polygon fill="#191970" stroke="#191970" points="534.8744,-192.295 540.8136,-183.5213 530.6994,-186.6762 534.8744,-192.295"/>
</g>
<!-- Node14&#45;&gt;Node11 -->
<g id="edge17" class="edge">
<title>Node14&#45;&gt;Node11</title>
<path fill="none" stroke="#191970" d="M169.6666,-275.1561C172.6842,-248.9504 181.2739,-174.3557 185.368,-138.8021"/>
<polygon fill="#191970" stroke="#191970" points="188.8595,-139.0762 186.5265,-128.7414 181.9054,-138.2753 188.8595,-139.0762"/>
</g>
<!-- Node15 -->
<g id="node16" class="node">
<title>Node15</title>
<g id="a_node16"><a xlink:href="lattice_8h.html" target="_top" xlink:title=" ">
<polygon fill="#ffffff" stroke="#000000" points="292.8543,-220.5 292.8543,-238.5 368.327,-238.5 368.327,-220.5 292.8543,-220.5"/>
<text text-anchor="middle" x="330.5906" y="-226.5" font-family="Helvetica,sans-Serif" font-size="10.00" fill="#000000">math/lattice.h</text>
</a>
</g>
</g>
<!-- Node14&#45;&gt;Node15 -->
<g id="edge18" class="edge">
<title>Node14&#45;&gt;Node15</title>
<path fill="none" stroke="#191970" d="M195.3416,-275.4179C222.3899,-266.2348 264.3746,-251.9807 294.3884,-241.7909"/>
<polygon fill="#191970" stroke="#191970" points="295.7252,-245.0333 304.0691,-238.5042 293.4748,-238.4049 295.7252,-245.0333"/>
</g>
<!-- Node15&#45;&gt;Node11 -->
<g id="edge19" class="edge">
<title>Node15&#45;&gt;Node11</title>
<path fill="none" stroke="#191970" d="M316.1642,-220.3442C302.3809,-211.448 281.1624,-197.3622 263.5906,-184 242.902,-168.2676 220.3303,-148.7949 205.2058,-135.3854"/>
<polygon fill="#191970" stroke="#191970" points="207.4196,-132.67 197.6286,-128.6217 202.758,-137.8921 207.4196,-132.67"/>
</g>
<!-- Node16 -->
<g id="node17" class="node">
<title>Node16</title>
<g id="a_node17"><a xlink:title=" ">
<polygon fill="#ffffff" stroke="#bfbfbf" points="475.3641,-110.5 475.3641,-128.5 515.8172,-128.5 515.8172,-110.5 475.3641,-110.5"/>
<text text-anchor="middle" x="495.5906" y="-116.5" font-family="Helvetica,sans-Serif" font-size="10.00" fill="#000000">mpi.h</text>
</a>
</g>
</g>
<!-- Node15&#45;&gt;Node16 -->
<g id="edge20" class="edge">
<title>Node15&#45;&gt;Node16</title>
<path fill="none" stroke="#191970" d="M351.4918,-220.4844C370.0255,-212.1064 397.5013,-198.7313 419.5906,-184 441.4571,-169.4173 464.1274,-149.4359 478.9517,-135.5941"/>
<polygon fill="#191970" stroke="#191970" points="481.4725,-138.0272 486.3252,-128.609 476.6584,-132.9454 481.4725,-138.0272"/>
</g>
<!-- Node15&#45;&gt;Node17 -->
<g id="edge21" class="edge">
<title>Node15&#45;&gt;Node17</title>
<path fill="none" stroke="#191970" d="M292.6923,-221.0268C250.3778,-211.5662 181.7071,-196.213 134.9153,-185.7514"/>
<polygon fill="#191970" stroke="#191970" points="135.5104,-182.2981 124.9876,-183.5318 133.983,-189.1295 135.5104,-182.2981"/>
</g>
<!-- Node18 -->
<g id="node19" class="node">
<title>Node18</title>
<g id="a_node19"><a xlink:href="neighbours_8h.html" target="_top" xlink:title=" ">
<polygon fill="#ffffff" stroke="#000000" points="272.7166,-165.5 272.7166,-183.5 410.4647,-183.5 410.4647,-165.5 272.7166,-165.5"/>
<text text-anchor="middle" x="341.5906" y="-171.5" font-family="Helvetica,sans-Serif" font-size="10.00" fill="#000000">parallelization/neighbours.h</text>
</a>
</g>
</g>
<!-- Node15&#45;&gt;Node18 -->
<g id="edge23" class="edge">
<title>Node15&#45;&gt;Node18</title>
<path fill="none" stroke="#191970" d="M332.4071,-220.4179C333.8474,-213.2164 335.9114,-202.8962 337.718,-193.8632"/>
<polygon fill="#191970" stroke="#191970" points="341.2055,-194.2717 339.7347,-183.7795 334.3415,-192.8988 341.2055,-194.2717"/>
</g>
<!-- Node15&#45;&gt;Node20 -->
<g id="edge26" class="edge">
<title>Node15&#45;&gt;Node20</title>
<path fill="none" stroke="#191970" d="M367.2494,-220.4179C405.363,-210.9753 465.1185,-196.171 506.4271,-185.9369"/>
<polygon fill="#191970" stroke="#191970" points="507.3815,-189.3064 516.2464,-183.5042 505.6981,-182.5118 507.3815,-189.3064"/>
</g>
<!-- Node21 -->
<g id="node22" class="node">
<title>Node21</title>
<g id="a_node22"><a xlink:href="functions_8h.html" target="_top" xlink:title=" ">
<polygon fill="#ffffff" stroke="#000000" points="656.4085,-165.5 656.4085,-183.5 720.7728,-183.5 720.7728,-165.5 656.4085,-165.5"/>
<text text-anchor="middle" x="688.5906" y="-171.5" font-family="Helvetica,sans-Serif" font-size="10.00" fill="#000000">functions.h</text>
</a>
</g>
</g>
<!-- Node15&#45;&gt;Node21 -->
<g id="edge28" class="edge">
<title>Node15&#45;&gt;Node21</title>
<path fill="none" stroke="#191970" d="M368.3353,-225.1377C426.1135,-218.2302 540.1361,-203.6944 646.0736,-184.1658"/>
<polygon fill="#191970" stroke="#191970" points="646.7798,-187.5946 655.9696,-182.3224 645.4978,-180.713 646.7798,-187.5946"/>
</g>
<!-- Node17&#45;&gt;Node11 -->
<g id="edge22" class="edge">
<title>Node17&#45;&gt;Node11</title>
<path fill="none" stroke="#191970" d="M101.599,-165.4179C117.925,-156.7001 142.8096,-143.4122 161.6161,-133.3699"/>
<polygon fill="#191970" stroke="#191970" points="163.3845,-136.3934 170.557,-128.5956 160.0872,-130.2186 163.3845,-136.3934"/>
</g>
<!-- Node18&#45;&gt;Node11 -->
<g id="edge25" class="edge">
<title>Node18&#45;&gt;Node11</title>
<path fill="none" stroke="#191970" d="M316.1607,-165.4179C289.5665,-155.9199 247.7829,-140.9972 219.1113,-130.7574"/>
<polygon fill="#191970" stroke="#191970" points="220.1577,-127.4146 209.563,-127.3473 217.8033,-134.0068 220.1577,-127.4146"/>
</g>
<!-- Node19 -->
<g id="node20" class="node">
<title>Node19</title>
<g id="a_node20"><a xlink:href="neighbourlist_8h.html" target="_top" xlink:title=" ">
<polygon fill="#ffffff" stroke="#000000" points="301.0687,-110.5 301.0687,-128.5 382.1126,-128.5 382.1126,-110.5 301.0687,-110.5"/>
<text text-anchor="middle" x="341.5906" y="-116.5" font-family="Helvetica,sans-Serif" font-size="10.00" fill="#000000">neighbourlist.h</text>
</a>
</g>
</g>
<!-- Node18&#45;&gt;Node19 -->
<g id="edge24" class="edge">
<title>Node18&#45;&gt;Node19</title>
<path fill="none" stroke="#191970" d="M341.5906,-165.4179C341.5906,-158.2164 341.5906,-147.8962 341.5906,-138.8632"/>
<polygon fill="#191970" stroke="#191970" points="345.0907,-138.7794 341.5906,-128.7795 338.0907,-138.7795 345.0907,-138.7794"/>
</g>
<!-- Node20&#45;&gt;Node16 -->
<g id="edge27" class="edge">
<title>Node20&#45;&gt;Node16</title>
<path fill="none" stroke="#191970" d="M543.1782,-165.4179C534.8947,-157.425 522.6297,-145.5903 512.6261,-135.9377"/>
<polygon fill="#191970" stroke="#191970" points="514.834,-133.2045 505.2075,-128.7795 509.9734,-138.2419 514.834,-133.2045"/>
</g>
<!-- Node21&#45;&gt;Node4 -->
<g id="edge29" class="edge">
<title>Node21&#45;&gt;Node4</title>
<path fill="none" stroke="#191970" d="M702.2964,-165.4179C715.0318,-156.9788 734.2301,-144.257 749.1919,-134.3426"/>
<polygon fill="#191970" stroke="#191970" points="751.4619,-137.037 757.8645,-128.5956 747.5952,-131.2019 751.4619,-137.037"/>
</g>
<!-- Node21&#45;&gt;Node5 -->
<g id="edge31" class="edge">
<title>Node21&#45;&gt;Node5</title>
<path fill="none" stroke="#191970" d="M686.0435,-165.094C683.0266,-152.3343 679.0631,-128.9568 684.5906,-110 687.5246,-99.9378 693.4338,-89.9795 699.157,-81.9564"/>
<polygon fill="#191970" stroke="#191970" points="702.0841,-83.8901 705.3711,-73.818 696.5205,-79.642 702.0841,-83.8901"/>
</g>
<!-- Node21&#45;&gt;Node7 -->
<g id="edge30" class="edge">
<title>Node21&#45;&gt;Node7</title>
<path fill="none" stroke="#191970" d="M692.7189,-165.4179C696.1002,-157.9789 700.9941,-147.2123 705.1933,-137.9742"/>
<polygon fill="#191970" stroke="#191970" points="708.4209,-139.3315 709.3727,-128.7795 702.0483,-136.4348 708.4209,-139.3315"/>
</g>
<!-- Node22&#45;&gt;Node23 -->
<g id="edge35" class="edge">
<title>Node22&#45;&gt;Node23</title>
<path fill="none" stroke="#191970" d="M594.2838,-440.2808C603.4598,-431.4008 615.3007,-419.9419 624.8405,-410.7098"/>
<polygon fill="#191970" stroke="#191970" points="627.4516,-413.0536 632.2036,-403.5842 622.5836,-408.0233 627.4516,-413.0536"/>
</g>
<!-- Node23&#45;&gt;Node4 -->
<g id="edge36" class="edge">
<title>Node23&#45;&gt;Node4</title>
<path fill="none" stroke="#191970" d="M661.2161,-385.4394C692.1061,-369.668 748.5906,-334.0538 748.5906,-284.5 748.5906,-284.5 748.5906,-284.5 748.5906,-229.5 748.5906,-196.9538 758.3568,-160.1156 765.1614,-138.3987"/>
<polygon fill="#191970" stroke="#191970" points="768.5252,-139.3723 768.2953,-128.78 761.8696,-137.2038 768.5252,-139.3723"/>
</g>
<!-- Node24&#45;&gt;Node23 -->
<g id="edge39" class="edge">
<title>Node24&#45;&gt;Node23</title>
<path fill="none" stroke="#191970" d="M688.8975,-440.2808C679.7214,-431.4008 667.8806,-419.9419 658.3408,-410.7098"/>
<polygon fill="#191970" stroke="#191970" points="660.5977,-408.0233 650.9776,-403.5842 655.7297,-413.0536 660.5977,-408.0233"/>
</g>
<!-- Node25&#45;&gt;Node23 -->
<g id="edge41" class="edge">
<title>Node25&#45;&gt;Node23</title>
<path fill="none" stroke="#191970" d="M783.9819,-440.4327C752.2434,-430.1944 709.693,-416.4685 679.3928,-406.6942"/>
<polygon fill="#191970" stroke="#191970" points="680.2116,-403.2808 669.62,-403.5417 678.0625,-409.9428 680.2116,-403.2808"/>
</g>
<!-- Node26&#45;&gt;Node23 -->
<g id="edge43" class="edge">
<title>Node26&#45;&gt;Node23</title>
<path fill="none" stroke="#191970" d="M470.1087,-440.4327C510.8874,-429.5098 566.4863,-414.6172 603.1796,-404.7887"/>
<polygon fill="#191970" stroke="#191970" points="604.2457,-408.1266 612.9996,-402.1583 602.4345,-401.3649 604.2457,-408.1266"/>
</g>
<!-- Node28 -->
<g id="node29" class="node">
<title>Node28</title>
<g id="a_node29"><a xlink:href="action_8h.html" target="_top" xlink:title=" ">
<polygon fill="#ffffff" stroke="#000000" points="294.0784,-275.5 294.0784,-293.5 345.1028,-293.5 345.1028,-275.5 294.0784,-275.5"/>
<text text-anchor="middle" x="319.5906" y="-281.5" font-family="Helvetica,sans-Serif" font-size="10.00" fill="#000000">action.h</text>
</a>
</g>
</g>
<!-- Node27&#45;&gt;Node28 -->
<g id="edge45" class="edge">
<title>Node27&#45;&gt;Node28</title>
<path fill="none" stroke="#191970" d="M302.0584,-330.4179C304.8685,-323.0581 308.9222,-312.441 312.4241,-303.2695"/>
<polygon fill="#191970" stroke="#191970" points="315.7503,-304.3701 316.0476,-293.7795 309.2107,-301.8732 315.7503,-304.3701"/>
</g>
<!-- Node28&#45;&gt;Node11 -->
<g id="edge47" class="edge">
<title>Node28&#45;&gt;Node11</title>
<path fill="none" stroke="#191970" d="M311.9122,-275.4558C297.1142,-257.9705 263.7114,-218.2327 236.5906,-184 224.1028,-168.2375 210.2769,-149.9589 200.5044,-136.8935"/>
<polygon fill="#191970" stroke="#191970" points="203.2357,-134.7013 194.4526,-128.7761 197.6236,-138.8853 203.2357,-134.7013"/>
</g>
<!-- Node28&#45;&gt;Node15 -->
<g id="edge46" class="edge">
<title>Node28&#45;&gt;Node15</title>
<path fill="none" stroke="#191970" d="M321.4071,-275.4179C322.8474,-268.2164 324.9114,-257.8962 326.718,-248.8632"/>
<polygon fill="#191970" stroke="#191970" points="330.2055,-249.2717 328.7347,-238.7795 323.3415,-247.8988 330.2055,-249.2717"/>
</g>
<!-- Node29&#45;&gt;Node28 -->
<g id="edge49" class="edge">
<title>Node29&#45;&gt;Node28</title>
<path fill="none" stroke="#191970" d="M391.7048,-385.4378C391.4651,-372.2549 389.4495,-347.4603 378.5906,-330 370.6429,-317.2206 357.7332,-306.6592 346.0132,-298.9393"/>
<polygon fill="#191970" stroke="#191970" points="347.73,-295.8858 337.3847,-293.6 344.0466,-301.8383 347.73,-295.8858"/>
</g>
</g>
</svg>
