<?xml version="1.0" encoding="UTF-8" standalone="no"?>
<!DOCTYPE svg PUBLIC "-//W3C//DTD SVG 1.1//EN"
 "http://www.w3.org/Graphics/SVG/1.1/DTD/svg11.dtd">
<!-- Generated by graphviz version 2.40.1 (20161225.0304)
 -->
<!-- Title: GluonicLQCD/observables/plaquette.cpp Pages: 1 -->
<svg width="1109pt" height="532pt"
 viewBox="0.00 0.00 1109.13 532.00" xmlns="http://www.w3.org/2000/svg" xmlns:xlink="http://www.w3.org/1999/xlink">
<g id="graph0" class="graph" transform="scale(1 1) rotate(0) translate(4 528)">
<title>GluonicLQCD/observables/plaquette.cpp</title>
<polygon fill="#ffffff" stroke="transparent" points="-4,4 -4,-528 1105.1279,-528 1105.1279,4 -4,4"/>
<!-- Node0 -->
<g id="node1" class="node">
<title>Node0</title>
<g id="a_node1"><a xlink:title=" ">
<polygon fill="#bfbfbf" stroke="#000000" points="676.3179,-495.5 676.3179,-523.5 810.7065,-523.5 810.7065,-495.5 676.3179,-495.5"/>
<text text-anchor="start" x="684.3179" y="-511.5" font-family="Helvetica,sans-Serif" font-size="10.00" fill="#000000">GluonicLQCD/observables</text>
<text text-anchor="middle" x="743.5122" y="-501.5" font-family="Helvetica,sans-Serif" font-size="10.00" fill="#000000">/plaquette.cpp</text>
</a>
</g>
</g>
<!-- Node1 -->
<g id="node2" class="node">
<title>Node1</title>
<g id="a_node2"><a xlink:href="plaquette_8h.html" target="_top" xlink:title=" ">
<polygon fill="#ffffff" stroke="#000000" points="845.7686,-385.5 845.7686,-403.5 911.2559,-403.5 911.2559,-385.5 845.7686,-385.5"/>
<text text-anchor="middle" x="878.5122" y="-391.5" font-family="Helvetica,sans-Serif" font-size="10.00" fill="#000000">plaquette.h</text>
</a>
</g>
</g>
<!-- Node0&#45;&gt;Node1 -->
<g id="edge1" class="edge">
<title>Node0&#45;&gt;Node1</title>
<path fill="none" stroke="#191970" d="M760.6999,-495.4664C772.9748,-485.3965 789.8429,-471.4617 804.5122,-459 823.8,-442.6148 845.6113,-423.5354 860.5282,-410.4009"/>
<polygon fill="#191970" stroke="#191970" points="862.8614,-413.0099 868.0463,-403.7704 858.2313,-407.7599 862.8614,-413.0099"/>
</g>
<!-- Node4 -->
<g id="node5" class="node">
<title>Node4</title>
<g id="a_node5"><a xlink:title=" ">
<polygon fill="#ffffff" stroke="#bfbfbf" points="738.8965,-110.5 738.8965,-128.5 782.1279,-128.5 782.1279,-110.5 738.8965,-110.5"/>
<text text-anchor="middle" x="760.5122" y="-116.5" font-family="Helvetica,sans-Serif" font-size="10.00" fill="#000000">vector</text>
</a>
</g>
</g>
<!-- Node0&#45;&gt;Node4 -->
<g id="edge39" class="edge">
<title>Node0&#45;&gt;Node4</title>
<path fill="none" stroke="#191970" d="M810.9281,-496.3894C895.4822,-477.9766 1029.5122,-441.3938 1029.5122,-394.5 1029.5122,-394.5 1029.5122,-394.5 1029.5122,-229.5 1029.5122,-182.077 987.3009,-185.4466 944.5122,-165 894.3838,-141.0461 830.3447,-128.8975 792.5466,-123.4016"/>
<polygon fill="#191970" stroke="#191970" points="792.5444,-119.868 782.1589,-121.9636 791.5845,-126.8019 792.5444,-119.868"/>
</g>
<!-- Node10 -->
<g id="node11" class="node">
<title>Node10</title>
<g id="a_node11"><a xlink:href="functions_8h.html" target="_top" xlink:title=" ">
<polygon fill="#ffffff" stroke="#000000" points="97.3301,-165.5 97.3301,-183.5 161.6943,-183.5 161.6943,-165.5 97.3301,-165.5"/>
<text text-anchor="middle" x="129.5122" y="-171.5" font-family="Helvetica,sans-Serif" font-size="10.00" fill="#000000">functions.h</text>
</a>
</g>
</g>
<!-- Node0&#45;&gt;Node10 -->
<g id="edge26" class="edge">
<title>Node0&#45;&gt;Node10</title>
<path fill="none" stroke="#191970" d="M676.1697,-505.2162C556.3312,-495.7317 318.5122,-467.6896 318.5122,-394.5 318.5122,-394.5 318.5122,-394.5 318.5122,-284.5 318.5122,-249.3847 219.8249,-207.5812 165.0738,-187.0909"/>
<polygon fill="#191970" stroke="#191970" points="165.9889,-183.698 155.3956,-183.5194 163.5654,-190.2651 165.9889,-183.698"/>
</g>
<!-- Node17 -->
<g id="node18" class="node">
<title>Node17</title>
<g id="a_node18"><a xlink:href="links_8h.html" target="_top" xlink:title=" ">
<polygon fill="#ffffff" stroke="#000000" points="192.835,-330.5 192.835,-348.5 262.1895,-348.5 262.1895,-330.5 192.835,-330.5"/>
<text text-anchor="middle" x="227.5122" y="-336.5" font-family="Helvetica,sans-Serif" font-size="10.00" fill="#000000">math/links.h</text>
</a>
</g>
</g>
<!-- Node0&#45;&gt;Node17 -->
<g id="edge24" class="edge">
<title>Node0&#45;&gt;Node17</title>
<path fill="none" stroke="#191970" d="M676.2809,-504.9336C561.0945,-496.6448 335.3738,-478.1971 304.5122,-459 266.5853,-435.408 243.8007,-385.4505 233.7034,-358.1955"/>
<polygon fill="#191970" stroke="#191970" points="236.9679,-356.9282 230.3474,-348.6567 230.3647,-359.2515 236.9679,-356.9282"/>
</g>
<!-- Node18 -->
<g id="node19" class="node">
<title>Node18</title>
<g id="a_node19"><a xlink:href="parallel_8h.html" target="_top" xlink:title=" ">
<polygon fill="#ffffff" stroke="#000000" points="571.2588,-330.5 571.2588,-348.5 691.7656,-348.5 691.7656,-330.5 571.2588,-330.5"/>
<text text-anchor="middle" x="631.5122" y="-336.5" font-family="Helvetica,sans-Serif" font-size="10.00" fill="#000000">parallelization/parallel.h</text>
</a>
</g>
</g>
<!-- Node0&#45;&gt;Node18 -->
<g id="edge27" class="edge">
<title>Node0&#45;&gt;Node18</title>
<path fill="none" stroke="#191970" d="M722.9867,-495.3889C710.3384,-486.0344 694.3356,-472.9487 682.5122,-459 664.2259,-437.4266 661.6997,-429.9739 650.5122,-404 644.1625,-389.2581 639.1526,-371.7448 635.8749,-358.6901"/>
<polygon fill="#191970" stroke="#191970" points="639.2707,-357.8413 633.5378,-348.9315 632.4632,-359.4717 639.2707,-357.8413"/>
</g>
<!-- Node20 -->
<g id="node21" class="node">
<title>Node20</title>
<g id="a_node21"><a xlink:href="parameters_8h.html" target="_top" xlink:title=" ">
<polygon fill="#ffffff" stroke="#000000" points="691.3228,-440.5 691.3228,-458.5 795.7017,-458.5 795.7017,-440.5 691.3228,-440.5"/>
<text text-anchor="middle" x="743.5122" y="-446.5" font-family="Helvetica,sans-Serif" font-size="10.00" fill="#000000">config/parameters.h</text>
</a>
</g>
</g>
<!-- Node0&#45;&gt;Node20 -->
<g id="edge33" class="edge">
<title>Node0&#45;&gt;Node20</title>
<path fill="none" stroke="#191970" d="M743.5122,-495.2808C743.5122,-487.3776 743.5122,-477.4316 743.5122,-468.8308"/>
<polygon fill="#191970" stroke="#191970" points="747.0123,-468.5842 743.5122,-458.5842 740.0123,-468.5842 747.0123,-468.5842"/>
</g>
<!-- Node22 -->
<g id="node23" class="node">
<title>Node22</title>
<g id="a_node23"><a xlink:title=" ">
<polygon fill="#ffffff" stroke="#bfbfbf" points="1057.8965,-440.5 1057.8965,-458.5 1101.1279,-458.5 1101.1279,-440.5 1057.8965,-440.5"/>
<text text-anchor="middle" x="1079.5122" y="-446.5" font-family="Helvetica,sans-Serif" font-size="10.00" fill="#000000">cmath</text>
</a>
</g>
</g>
<!-- Node0&#45;&gt;Node22 -->
<g id="edge40" class="edge">
<title>Node0&#45;&gt;Node22</title>
<path fill="none" stroke="#191970" d="M810.8682,-499.959C871.8901,-490.8895 964.1321,-476.1176 1043.5122,-459 1044.9734,-458.6849 1046.4644,-458.3492 1047.9678,-457.9992"/>
<polygon fill="#191970" stroke="#191970" points="1049.0186,-461.3449 1057.8873,-455.5486 1047.3397,-454.5492 1049.0186,-461.3449"/>
</g>
<!-- Node2 -->
<g id="node3" class="node">
<title>Node2</title>
<g id="a_node3"><a xlink:href="correlator_8h.html" target="_top" xlink:title=" ">
<polygon fill="#ffffff" stroke="#000000" points="862.4976,-275.5 862.4976,-293.5 928.5269,-293.5 928.5269,-275.5 862.4976,-275.5"/>
<text text-anchor="middle" x="895.5122" y="-281.5" font-family="Helvetica,sans-Serif" font-size="10.00" fill="#000000">correlator.h</text>
</a>
</g>
</g>
<!-- Node1&#45;&gt;Node2 -->
<g id="edge2" class="edge">
<title>Node1&#45;&gt;Node2</title>
<path fill="none" stroke="#191970" d="M879.9034,-385.4982C882.6554,-367.6913 888.8478,-327.6225 892.5524,-303.6515"/>
<polygon fill="#191970" stroke="#191970" points="896.0333,-304.0434 894.1018,-293.6261 889.1155,-302.9742 896.0333,-304.0434"/>
</g>
<!-- Node3 -->
<g id="node4" class="node">
<title>Node3</title>
<g id="a_node4"><a xlink:href="lattice_8h.html" target="_top" xlink:title=" ">
<polygon fill="#ffffff" stroke="#000000" points="518.7759,-220.5 518.7759,-238.5 594.2485,-238.5 594.2485,-220.5 518.7759,-220.5"/>
<text text-anchor="middle" x="556.5122" y="-226.5" font-family="Helvetica,sans-Serif" font-size="10.00" fill="#000000">math/lattice.h</text>
</a>
</g>
</g>
<!-- Node2&#45;&gt;Node3 -->
<g id="edge3" class="edge">
<title>Node2&#45;&gt;Node3</title>
<path fill="none" stroke="#191970" d="M862.3902,-279.1262C802.172,-269.3563 674.5375,-248.6487 604.682,-237.3152"/>
<polygon fill="#191970" stroke="#191970" points="604.8292,-233.7933 594.3977,-235.6466 603.7081,-240.703 604.8292,-233.7933"/>
</g>
<!-- Node2&#45;&gt;Node4 -->
<g id="edge23" class="edge">
<title>Node2&#45;&gt;Node4</title>
<path fill="none" stroke="#191970" d="M922.8617,-275.4971C950.0481,-264.8987 985.9076,-245.4651 972.5122,-220 937.4595,-153.3637 842.4926,-130.5603 792.4131,-123.0321"/>
<polygon fill="#191970" stroke="#191970" points="792.8323,-119.5568 782.4457,-121.6473 791.8689,-126.4902 792.8323,-119.5568"/>
</g>
<!-- Node15 -->
<g id="node16" class="node">
<title>Node15</title>
<g id="a_node16"><a xlink:href="observablestorer_8h.html" target="_top" xlink:title=" ">
<polygon fill="#ffffff" stroke="#000000" points="841.4238,-220.5 841.4238,-238.5 963.6006,-238.5 963.6006,-220.5 841.4238,-220.5"/>
<text text-anchor="middle" x="902.5122" y="-226.5" font-family="Helvetica,sans-Serif" font-size="10.00" fill="#000000">tools/observablestorer.h</text>
</a>
</g>
</g>
<!-- Node2&#45;&gt;Node15 -->
<g id="edge20" class="edge">
<title>Node2&#45;&gt;Node15</title>
<path fill="none" stroke="#191970" d="M896.6681,-275.4179C897.5847,-268.2164 898.8981,-257.8962 900.0478,-248.8632"/>
<polygon fill="#191970" stroke="#191970" points="903.5405,-249.1414 901.3312,-238.7795 896.5966,-248.2575 903.5405,-249.1414"/>
</g>
<!-- Node3&#45;&gt;Node4 -->
<g id="edge4" class="edge">
<title>Node3&#45;&gt;Node4</title>
<path fill="none" stroke="#191970" d="M559.1866,-220.0489C563.6828,-205.9064 574.1185,-179.3672 592.5122,-165 613.6871,-148.4604 686.5151,-132.943 729.0134,-125.0092"/>
<polygon fill="#191970" stroke="#191970" points="729.6556,-128.4499 738.8612,-123.205 728.3941,-121.5644 729.6556,-128.4499"/>
</g>
<!-- Node5 -->
<g id="node6" class="node">
<title>Node5</title>
<g id="a_node6"><a xlink:title=" ">
<polygon fill="#ffffff" stroke="#bfbfbf" points="302.2856,-110.5 302.2856,-128.5 342.7388,-128.5 342.7388,-110.5 302.2856,-110.5"/>
<text text-anchor="middle" x="322.5122" y="-116.5" font-family="Helvetica,sans-Serif" font-size="10.00" fill="#000000">mpi.h</text>
</a>
</g>
</g>
<!-- Node3&#45;&gt;Node5 -->
<g id="edge5" class="edge">
<title>Node3&#45;&gt;Node5</title>
<path fill="none" stroke="#191970" d="M518.7308,-223.2869C485.6038,-216.7759 436.8793,-204.5661 398.5122,-184 375.09,-171.4448 352.4209,-150.7435 338.0293,-136.1867"/>
<polygon fill="#191970" stroke="#191970" points="340.3925,-133.595 330.9334,-128.8225 335.3517,-138.4521 340.3925,-133.595"/>
</g>
<!-- Node6 -->
<g id="node7" class="node">
<title>Node6</title>
<g id="a_node7"><a xlink:href="index_8h.html" target="_top" xlink:title=" ">
<polygon fill="#ffffff" stroke="#000000" points="601.4263,-165.5 601.4263,-183.5 713.5981,-183.5 713.5981,-165.5 601.4263,-165.5"/>
<text text-anchor="middle" x="657.5122" y="-171.5" font-family="Helvetica,sans-Serif" font-size="10.00" fill="#000000">parallelization/index.h</text>
</a>
</g>
</g>
<!-- Node3&#45;&gt;Node6 -->
<g id="edge6" class="edge">
<title>Node3&#45;&gt;Node6</title>
<path fill="none" stroke="#191970" d="M573.1903,-220.4179C589.1262,-211.7399 613.3781,-198.5334 631.789,-188.5077"/>
<polygon fill="#191970" stroke="#191970" points="633.7009,-191.4519 640.8093,-183.5956 630.3532,-185.3043 633.7009,-191.4519"/>
</g>
<!-- Node7 -->
<g id="node8" class="node">
<title>Node7</title>
<g id="a_node8"><a xlink:href="neighbours_8h.html" target="_top" xlink:title=" ">
<polygon fill="#ffffff" stroke="#000000" points="407.6382,-165.5 407.6382,-183.5 545.3862,-183.5 545.3862,-165.5 407.6382,-165.5"/>
<text text-anchor="middle" x="476.5122" y="-171.5" font-family="Helvetica,sans-Serif" font-size="10.00" fill="#000000">parallelization/neighbours.h</text>
</a>
</g>
</g>
<!-- Node3&#45;&gt;Node7 -->
<g id="edge8" class="edge">
<title>Node3&#45;&gt;Node7</title>
<path fill="none" stroke="#191970" d="M543.3018,-220.4179C531.0268,-211.9788 512.5223,-199.257 498.1014,-189.3426"/>
<polygon fill="#191970" stroke="#191970" points="499.9655,-186.3768 489.7422,-183.5956 495.9998,-192.1451 499.9655,-186.3768"/>
</g>
<!-- Node9 -->
<g id="node10" class="node">
<title>Node9</title>
<g id="a_node10"><a xlink:href="parallelparameters_8h.html" target="_top" xlink:title=" ">
<polygon fill="#ffffff" stroke="#000000" points="179.9707,-165.5 179.9707,-183.5 351.0537,-183.5 351.0537,-165.5 179.9707,-165.5"/>
<text text-anchor="middle" x="265.5122" y="-171.5" font-family="Helvetica,sans-Serif" font-size="10.00" fill="#000000">parallelization/parallelparameters.h</text>
</a>
</g>
</g>
<!-- Node3&#45;&gt;Node9 -->
<g id="edge11" class="edge">
<title>Node3&#45;&gt;Node9</title>
<path fill="none" stroke="#191970" d="M518.7674,-222.3661C469.1522,-212.9887 381.5055,-196.4231 323.458,-185.452"/>
<polygon fill="#191970" stroke="#191970" points="323.8131,-181.9572 313.337,-183.5391 322.513,-188.8354 323.8131,-181.9572"/>
</g>
<!-- Node3&#45;&gt;Node10 -->
<g id="edge13" class="edge">
<title>Node3&#45;&gt;Node10</title>
<path fill="none" stroke="#191970" d="M518.5061,-226.4219C450.756,-220.6318 304.5179,-206.7648 172.0383,-184.1143"/>
<polygon fill="#191970" stroke="#191970" points="172.5701,-180.6544 162.1197,-182.3973 171.3761,-187.5518 172.5701,-180.6544"/>
</g>
<!-- Node6&#45;&gt;Node4 -->
<g id="edge7" class="edge">
<title>Node6&#45;&gt;Node4</title>
<path fill="none" stroke="#191970" d="M674.5206,-165.4179C690.8465,-156.7001 715.7312,-143.4122 734.5376,-133.3699"/>
<polygon fill="#191970" stroke="#191970" points="736.306,-136.3934 743.4786,-128.5956 733.0088,-130.2186 736.306,-136.3934"/>
</g>
<!-- Node7&#45;&gt;Node4 -->
<g id="edge10" class="edge">
<title>Node7&#45;&gt;Node4</title>
<path fill="none" stroke="#191970" d="M523.091,-165.4795C581.1218,-154.2411 678.7246,-135.3392 728.7913,-125.6431"/>
<polygon fill="#191970" stroke="#191970" points="729.57,-129.0574 738.7221,-123.7199 728.2391,-122.1851 729.57,-129.0574"/>
</g>
<!-- Node8 -->
<g id="node9" class="node">
<title>Node8</title>
<g id="a_node9"><a xlink:href="neighbourlist_8h.html" target="_top" xlink:title=" ">
<polygon fill="#ffffff" stroke="#000000" points="435.9902,-110.5 435.9902,-128.5 517.0342,-128.5 517.0342,-110.5 435.9902,-110.5"/>
<text text-anchor="middle" x="476.5122" y="-116.5" font-family="Helvetica,sans-Serif" font-size="10.00" fill="#000000">neighbourlist.h</text>
</a>
</g>
</g>
<!-- Node7&#45;&gt;Node8 -->
<g id="edge9" class="edge">
<title>Node7&#45;&gt;Node8</title>
<path fill="none" stroke="#191970" d="M476.5122,-165.4179C476.5122,-158.2164 476.5122,-147.8962 476.5122,-138.8632"/>
<polygon fill="#191970" stroke="#191970" points="480.0123,-138.7794 476.5122,-128.7795 473.0123,-138.7795 480.0123,-138.7794"/>
</g>
<!-- Node9&#45;&gt;Node5 -->
<g id="edge12" class="edge">
<title>Node9&#45;&gt;Node5</title>
<path fill="none" stroke="#191970" d="M274.9246,-165.4179C283.2081,-157.425 295.4731,-145.5903 305.4767,-135.9377"/>
<polygon fill="#191970" stroke="#191970" points="308.1294,-138.2419 312.8953,-128.7795 303.2688,-133.2045 308.1294,-138.2419"/>
</g>
<!-- Node11 -->
<g id="node12" class="node">
<title>Node11</title>
<g id="a_node12"><a xlink:href="su3_8h.html" target="_top" xlink:title=" ">
<polygon fill="#ffffff" stroke="#000000" points="0,-110.5 0,-128.5 81.0244,-128.5 81.0244,-110.5 0,-110.5"/>
<text text-anchor="middle" x="40.5122" y="-116.5" font-family="Helvetica,sans-Serif" font-size="10.00" fill="#000000">matrices/su3.h</text>
</a>
</g>
</g>
<!-- Node10&#45;&gt;Node11 -->
<g id="edge14" class="edge">
<title>Node10&#45;&gt;Node11</title>
<path fill="none" stroke="#191970" d="M114.8157,-165.4179C101.0308,-156.8992 80.1845,-144.0166 64.0773,-134.0627"/>
<polygon fill="#191970" stroke="#191970" points="65.5773,-130.8753 55.2306,-128.5956 61.8974,-136.83 65.5773,-130.8753"/>
</g>
<!-- Node12 -->
<g id="node13" class="node">
<title>Node12</title>
<g id="a_node13"><a xlink:href="complex_8h.html" target="_top" xlink:title=" ">
<polygon fill="#ffffff" stroke="#000000" points="96.2192,-55.5 96.2192,-73.5 182.8052,-73.5 182.8052,-55.5 96.2192,-55.5"/>
<text text-anchor="middle" x="139.5122" y="-61.5" font-family="Helvetica,sans-Serif" font-size="10.00" fill="#000000">math/complex.h</text>
</a>
</g>
</g>
<!-- Node10&#45;&gt;Node12 -->
<g id="edge19" class="edge">
<title>Node10&#45;&gt;Node12</title>
<path fill="none" stroke="#191970" d="M149.6973,-165.3585C163.6969,-157.8069 181.2544,-145.626 189.5122,-129 198.7973,-110.3059 180.8375,-91.7674 163.9152,-79.3962"/>
<polygon fill="#191970" stroke="#191970" points="165.5424,-76.2693 155.3102,-73.521 161.5952,-82.0503 165.5424,-76.2693"/>
</g>
<!-- Node14 -->
<g id="node15" class="node">
<title>Node14</title>
<g id="a_node15"><a xlink:href="su2_8h.html" target="_top" xlink:title=" ">
<polygon fill="#ffffff" stroke="#000000" points="99,-110.5 99,-128.5 180.0244,-128.5 180.0244,-110.5 99,-110.5"/>
<text text-anchor="middle" x="139.5122" y="-116.5" font-family="Helvetica,sans-Serif" font-size="10.00" fill="#000000">matrices/su2.h</text>
</a>
</g>
</g>
<!-- Node10&#45;&gt;Node14 -->
<g id="edge17" class="edge">
<title>Node10&#45;&gt;Node14</title>
<path fill="none" stroke="#191970" d="M131.1635,-165.4179C132.4729,-158.2164 134.3493,-147.8962 135.9916,-138.8632"/>
<polygon fill="#191970" stroke="#191970" points="139.4796,-139.2443 137.825,-128.7795 132.5926,-137.992 139.4796,-139.2443"/>
</g>
<!-- Node11&#45;&gt;Node12 -->
<g id="edge15" class="edge">
<title>Node11&#45;&gt;Node12</title>
<path fill="none" stroke="#191970" d="M56.86,-110.4179C72.4803,-101.7399 96.252,-88.5334 114.2984,-78.5077"/>
<polygon fill="#191970" stroke="#191970" points="116.0983,-81.5117 123.1401,-73.5956 112.6987,-75.3925 116.0983,-81.5117"/>
</g>
<!-- Node13 -->
<g id="node14" class="node">
<title>Node13</title>
<g id="a_node14"><a xlink:title=" ">
<polygon fill="#ffffff" stroke="#bfbfbf" points="112.3398,-.5 112.3398,-18.5 166.6846,-18.5 166.6846,-.5 112.3398,-.5"/>
<text text-anchor="middle" x="139.5122" y="-6.5" font-family="Helvetica,sans-Serif" font-size="10.00" fill="#000000">iostream</text>
</a>
</g>
</g>
<!-- Node12&#45;&gt;Node13 -->
<g id="edge16" class="edge">
<title>Node12&#45;&gt;Node13</title>
<path fill="none" stroke="#191970" d="M139.5122,-55.4179C139.5122,-48.2164 139.5122,-37.8962 139.5122,-28.8632"/>
<polygon fill="#191970" stroke="#191970" points="143.0123,-28.7794 139.5122,-18.7795 136.0123,-28.7795 143.0123,-28.7794"/>
</g>
<!-- Node14&#45;&gt;Node12 -->
<g id="edge18" class="edge">
<title>Node14&#45;&gt;Node12</title>
<path fill="none" stroke="#191970" d="M139.5122,-110.4179C139.5122,-103.2164 139.5122,-92.8962 139.5122,-83.8632"/>
<polygon fill="#191970" stroke="#191970" points="143.0123,-83.7794 139.5122,-73.7795 136.0123,-83.7795 143.0123,-83.7794"/>
</g>
<!-- Node15&#45;&gt;Node4 -->
<g id="edge22" class="edge">
<title>Node15&#45;&gt;Node4</title>
<path fill="none" stroke="#191970" d="M900.3634,-220.3355C896.6929,-206.5673 887.9659,-180.5104 871.5122,-165 849.3671,-144.1244 816.3376,-132.2559 792.0645,-125.9136"/>
<polygon fill="#191970" stroke="#191970" points="792.7994,-122.4903 782.2551,-123.5236 791.1423,-129.2914 792.7994,-122.4903"/>
</g>
<!-- Node16 -->
<g id="node17" class="node">
<title>Node16</title>
<g id="a_node17"><a xlink:title=" ">
<polygon fill="#ffffff" stroke="#bfbfbf" points="822.2856,-165.5 822.2856,-183.5 862.7388,-183.5 862.7388,-165.5 822.2856,-165.5"/>
<text text-anchor="middle" x="842.5122" y="-171.5" font-family="Helvetica,sans-Serif" font-size="10.00" fill="#000000">string</text>
</a>
</g>
</g>
<!-- Node15&#45;&gt;Node16 -->
<g id="edge21" class="edge">
<title>Node15&#45;&gt;Node16</title>
<path fill="none" stroke="#191970" d="M892.6044,-220.4179C883.7986,-212.3458 870.7183,-200.3556 860.1322,-190.6517"/>
<polygon fill="#191970" stroke="#191970" points="862.3719,-187.9567 852.6353,-183.7795 857.6418,-193.1168 862.3719,-187.9567"/>
</g>
<!-- Node17&#45;&gt;Node11 -->
<g id="edge25" class="edge">
<title>Node17&#45;&gt;Node11</title>
<path fill="none" stroke="#191970" d="M218.7493,-330.2912C196.3489,-306.6263 135.4528,-241.5043 88.5122,-184 75.8899,-168.5371 62.3918,-150.2234 52.9348,-137.0687"/>
<polygon fill="#191970" stroke="#191970" points="55.7517,-134.9907 47.0937,-128.8842 50.0539,-139.0571 55.7517,-134.9907"/>
</g>
<!-- Node18&#45;&gt;Node6 -->
<g id="edge31" class="edge">
<title>Node18&#45;&gt;Node6</title>
<path fill="none" stroke="#191970" d="M632.9846,-330.1561C637.114,-303.9504 648.8683,-229.3557 654.4707,-193.8021"/>
<polygon fill="#191970" stroke="#191970" points="657.9567,-194.1643 656.056,-183.7414 651.042,-193.0747 657.9567,-194.1643"/>
</g>
<!-- Node18&#45;&gt;Node9 -->
<g id="edge32" class="edge">
<title>Node18&#45;&gt;Node9</title>
<path fill="none" stroke="#191970" d="M611.3131,-330.3939C550.1978,-302.8419 367.0502,-220.2753 295.0469,-187.8148"/>
<polygon fill="#191970" stroke="#191970" points="296.2038,-184.4972 285.6489,-183.578 293.3268,-190.8787 296.2038,-184.4972"/>
</g>
<!-- Node19 -->
<g id="node20" class="node">
<title>Node19</title>
<g id="a_node20"><a xlink:href="communicator_8h.html" target="_top" xlink:title=" ">
<polygon fill="#ffffff" stroke="#000000" points="543.2168,-275.5 543.2168,-293.5 629.8076,-293.5 629.8076,-275.5 543.2168,-275.5"/>
<text text-anchor="middle" x="586.5122" y="-281.5" font-family="Helvetica,sans-Serif" font-size="10.00" fill="#000000">communicator.h</text>
</a>
</g>
</g>
<!-- Node18&#45;&gt;Node19 -->
<g id="edge28" class="edge">
<title>Node18&#45;&gt;Node19</title>
<path fill="none" stroke="#191970" d="M624.0814,-330.4179C617.736,-322.6624 608.4313,-311.29 600.6696,-301.8035"/>
<polygon fill="#191970" stroke="#191970" points="603.1458,-299.3027 594.1045,-293.7795 597.728,-303.7354 603.1458,-299.3027"/>
</g>
<!-- Node19&#45;&gt;Node3 -->
<g id="edge30" class="edge">
<title>Node19&#45;&gt;Node3</title>
<path fill="none" stroke="#191970" d="M581.5583,-275.4179C577.4576,-267.8998 571.5029,-256.9829 566.4285,-247.6799"/>
<polygon fill="#191970" stroke="#191970" points="569.4349,-245.8824 561.5737,-238.7795 563.2897,-249.2344 569.4349,-245.8824"/>
</g>
<!-- Node19&#45;&gt;Node4 -->
<g id="edge29" class="edge">
<title>Node19&#45;&gt;Node4</title>
<path fill="none" stroke="#191970" d="M602.8169,-275.4215C630.1342,-259.6112 685.7622,-224.7856 722.5122,-184 734.9913,-170.1506 745.4159,-151.5718 752.1707,-137.9113"/>
<polygon fill="#191970" stroke="#191970" points="755.4716,-139.1188 756.594,-128.5835 749.1467,-136.1194 755.4716,-139.1188"/>
</g>
<!-- Node20&#45;&gt;Node4 -->
<g id="edge35" class="edge">
<title>Node20&#45;&gt;Node4</title>
<path fill="none" stroke="#191970" d="M748.097,-440.3458C756.9453,-421.8064 775.5122,-378.2833 775.5122,-339.5 775.5122,-339.5 775.5122,-339.5 775.5122,-284.5 775.5122,-231.7035 767.801,-169.7931 763.4363,-138.9798"/>
<polygon fill="#191970" stroke="#191970" points="766.8551,-138.168 761.9505,-128.7768 759.9282,-139.1768 766.8551,-138.168"/>
</g>
<!-- Node20&#45;&gt;Node16 -->
<g id="edge34" class="edge">
<title>Node20&#45;&gt;Node16</title>
<path fill="none" stroke="#191970" d="M755.5323,-440.1744C765.768,-431.6933 780.2477,-418.3418 789.5122,-404 806.1089,-378.3075 813.5122,-370.0869 813.5122,-339.5 813.5122,-339.5 813.5122,-339.5 813.5122,-284.5 813.5122,-251.4038 825.9388,-214.5018 834.5231,-192.9585"/>
<polygon fill="#191970" stroke="#191970" points="837.7646,-194.2787 838.3572,-183.7004 831.2972,-191.6003 837.7646,-194.2787"/>
</g>
<!-- Node21 -->
<g id="node22" class="node">
<title>Node21</title>
<g id="a_node22"><a xlink:href="sysprint_8h.html" target="_top" xlink:title=" ">
<polygon fill="#ffffff" stroke="#000000" points="659.3843,-385.5 659.3843,-403.5 747.6401,-403.5 747.6401,-385.5 659.3843,-385.5"/>
<text text-anchor="middle" x="703.5122" y="-391.5" font-family="Helvetica,sans-Serif" font-size="10.00" fill="#000000">config/sysprint.h</text>
</a>
</g>
</g>
<!-- Node20&#45;&gt;Node21 -->
<g id="edge36" class="edge">
<title>Node20&#45;&gt;Node21</title>
<path fill="none" stroke="#191970" d="M731.7407,-440.4179C724.642,-432.8207 716.1915,-421.7527 710.1515,-412.3866"/>
<polygon fill="#191970" stroke="#191970" points="713.1613,-410.6003 705.0541,-403.7795 707.1383,-414.1673 713.1613,-410.6003"/>
</g>
<!-- Node21&#45;&gt;Node18 -->
<g id="edge38" class="edge">
<title>Node21&#45;&gt;Node18</title>
<path fill="none" stroke="#191970" d="M691.6229,-385.4179C680.8487,-377.1876 664.742,-364.8839 651.9125,-355.0836"/>
<polygon fill="#191970" stroke="#191970" points="653.7312,-352.0685 643.6599,-348.7795 649.4819,-357.6313 653.7312,-352.0685"/>
</g>
<!-- Node21&#45;&gt;Node20 -->
<g id="edge37" class="edge">
<title>Node21&#45;&gt;Node20</title>
<path fill="none" stroke="#191970" d="M715.4677,-403.7795C722.5153,-411.3564 730.8547,-422.2885 736.8405,-431.563"/>
<polygon fill="#191970" stroke="#191970" points="733.9725,-433.5895 742.0733,-440.4179 739.9988,-430.0281 733.9725,-433.5895"/>
</g>
</g>
</svg>
