<?xml version="1.0" encoding="UTF-8" standalone="no"?>
<!DOCTYPE svg PUBLIC "-//W3C//DTD SVG 1.1//EN"
 "http://www.w3.org/Graphics/SVG/1.1/DTD/svg11.dtd">
<!-- Generated by graphviz version 2.40.1 (20161225.0304)
 -->
<!-- Title: nlohmann::detail::conjunction&lt; B1, Bn... &gt; Pages: 1 -->
<svg width="154pt" height="112pt"
 viewBox="0.00 0.00 153.53 112.00" xmlns="http://www.w3.org/2000/svg" xmlns:xlink="http://www.w3.org/1999/xlink">
<g id="graph0" class="graph" transform="scale(1 1) rotate(0) translate(4 108)">
<title>nlohmann::detail::conjunction&lt; B1, Bn... &gt;</title>
<polygon fill="#ffffff" stroke="transparent" points="-4,4 -4,-108 149.5313,-108 149.5313,4 -4,4"/>
<!-- Node2 -->
<g id="node1" class="node">
<title>Node2</title>
<g id="a_node1"><a xlink:title=" ">
<polygon fill="#bfbfbf" stroke="#000000" points="0,-.5 0,-28.5 145.5313,-28.5 145.5313,-.5 0,-.5"/>
<text text-anchor="start" x="8" y="-16.5" font-family="Helvetica,sans-Serif" font-size="10.00" fill="#000000">nlohmann::detail::conjunction</text>
<text text-anchor="middle" x="72.7656" y="-6.5" font-family="Helvetica,sans-Serif" font-size="10.00" fill="#000000">&lt; B1, Bn... &gt;</text>
</a>
</g>
</g>
<!-- Node3 -->
<g id="node2" class="node">
<title>Node3</title>
<g id="a_node2"><a xlink:title=" ">
<polygon fill="#ffffff" stroke="#bfbfbf" points="12.5146,-65.5 12.5146,-103.5 133.0166,-103.5 133.0166,-65.5 12.5146,-65.5"/>
<text text-anchor="start" x="20.5146" y="-91.5" font-family="Helvetica,sans-Serif" font-size="10.00" fill="#000000">std::conditional&lt; bool</text>
<text text-anchor="start" x="20.5146" y="-81.5" font-family="Helvetica,sans-Serif" font-size="10.00" fill="#000000">(B1::value), conjunction</text>
<text text-anchor="middle" x="72.7656" y="-71.5" font-family="Helvetica,sans-Serif" font-size="10.00" fill="#000000">&lt; Bn... &gt;, B1 &gt;::type</text>
</a>
</g>
</g>
<!-- Node3&#45;&gt;Node2 -->
<g id="edge1" class="edge">
<title>Node3&#45;&gt;Node2</title>
<path fill="none" stroke="#191970" d="M72.7656,-55.1346C72.7656,-46.0837 72.7656,-36.5165 72.7656,-28.9404"/>
<polygon fill="#191970" stroke="#191970" points="69.2657,-55.3722 72.7656,-65.3722 76.2657,-55.3722 69.2657,-55.3722"/>
</g>
</g>
</svg>
