<?xml version="1.0" encoding="UTF-8" standalone="no"?>
<!DOCTYPE svg PUBLIC "-//W3C//DTD SVG 1.1//EN"
 "http://www.w3.org/Graphics/SVG/1.1/DTD/svg11.dtd">
<!-- Generated by graphviz version 2.40.1 (20161225.0304)
 -->
<!-- Title: GluonicLQCD/math/matrices/su2.h Pages: 1 -->
<svg width="151pt" height="147pt"
 viewBox="0.00 0.00 151.26 147.00" xmlns="http://www.w3.org/2000/svg" xmlns:xlink="http://www.w3.org/1999/xlink">
<g id="graph0" class="graph" transform="scale(1 1) rotate(0) translate(4 143)">
<title>GluonicLQCD/math/matrices/su2.h</title>
<polygon fill="#ffffff" stroke="transparent" points="-4,4 -4,-143 147.2607,-143 147.2607,4 -4,4"/>
<!-- Node0 -->
<g id="node1" class="node">
<title>Node0</title>
<g id="a_node1"><a xlink:title=" ">
<polygon fill="#bfbfbf" stroke="#000000" points="0,-110.5 0,-138.5 143.2607,-138.5 143.2607,-110.5 0,-110.5"/>
<text text-anchor="start" x="8" y="-126.5" font-family="Helvetica,sans-Serif" font-size="10.00" fill="#000000">GluonicLQCD/math/matrices</text>
<text text-anchor="middle" x="71.6304" y="-116.5" font-family="Helvetica,sans-Serif" font-size="10.00" fill="#000000">/su2.h</text>
</a>
</g>
</g>
<!-- Node1 -->
<g id="node2" class="node">
<title>Node1</title>
<g id="a_node2"><a xlink:href="complex_8h.html" target="_top" xlink:title=" ">
<polygon fill="#ffffff" stroke="#000000" points="28.3374,-55.5 28.3374,-73.5 114.9233,-73.5 114.9233,-55.5 28.3374,-55.5"/>
<text text-anchor="middle" x="71.6304" y="-61.5" font-family="Helvetica,sans-Serif" font-size="10.00" fill="#000000">math/complex.h</text>
</a>
</g>
</g>
<!-- Node0&#45;&gt;Node1 -->
<g id="edge1" class="edge">
<title>Node0&#45;&gt;Node1</title>
<path fill="none" stroke="#191970" d="M71.6304,-110.2808C71.6304,-102.3776 71.6304,-92.4316 71.6304,-83.8308"/>
<polygon fill="#191970" stroke="#191970" points="75.1305,-83.5842 71.6304,-73.5842 68.1305,-83.5842 75.1305,-83.5842"/>
</g>
<!-- Node2 -->
<g id="node3" class="node">
<title>Node2</title>
<g id="a_node3"><a xlink:title=" ">
<polygon fill="#ffffff" stroke="#bfbfbf" points="44.458,-.5 44.458,-18.5 98.8027,-18.5 98.8027,-.5 44.458,-.5"/>
<text text-anchor="middle" x="71.6304" y="-6.5" font-family="Helvetica,sans-Serif" font-size="10.00" fill="#000000">iostream</text>
</a>
</g>
</g>
<!-- Node1&#45;&gt;Node2 -->
<g id="edge2" class="edge">
<title>Node1&#45;&gt;Node2</title>
<path fill="none" stroke="#191970" d="M71.6304,-55.4179C71.6304,-48.2164 71.6304,-37.8962 71.6304,-28.8632"/>
<polygon fill="#191970" stroke="#191970" points="75.1305,-28.7794 71.6304,-18.7795 68.1305,-28.7795 75.1305,-28.7794"/>
</g>
</g>
</svg>
