<?xml version="1.0" encoding="UTF-8" standalone="no"?>
<!DOCTYPE svg PUBLIC "-//W3C//DTD SVG 1.1//EN"
 "http://www.w3.org/Graphics/SVG/1.1/DTD/svg11.dtd">
<!-- Generated by graphviz version 2.40.1 (20161225.0304)
 -->
<!-- Title: GluonicLQCD/math/exponentiation/su3exp.h Pages: 1 -->
<svg width="179pt" height="202pt"
 viewBox="0.00 0.00 178.53 202.00" xmlns="http://www.w3.org/2000/svg" xmlns:xlink="http://www.w3.org/1999/xlink">
<g id="graph0" class="graph" transform="scale(1 1) rotate(0) translate(4 198)">
<title>GluonicLQCD/math/exponentiation/su3exp.h</title>
<polygon fill="#ffffff" stroke="transparent" points="-4,4 -4,-198 174.5313,-198 174.5313,4 -4,4"/>
<!-- Node0 -->
<g id="node1" class="node">
<title>Node0</title>
<g id="a_node1"><a xlink:title=" ">
<polygon fill="#bfbfbf" stroke="#000000" points="0,-165.5 0,-193.5 170.5313,-193.5 170.5313,-165.5 0,-165.5"/>
<text text-anchor="start" x="8" y="-181.5" font-family="Helvetica,sans-Serif" font-size="10.00" fill="#000000">GluonicLQCD/math/exponentiation</text>
<text text-anchor="middle" x="85.2656" y="-171.5" font-family="Helvetica,sans-Serif" font-size="10.00" fill="#000000">/su3exp.h</text>
</a>
</g>
</g>
<!-- Node1 -->
<g id="node2" class="node">
<title>Node1</title>
<g id="a_node2"><a xlink:href="su3_8h.html" target="_top" xlink:title=" ">
<polygon fill="#ffffff" stroke="#000000" points="32.2485,-110.5 32.2485,-128.5 138.2827,-128.5 138.2827,-110.5 32.2485,-110.5"/>
<text text-anchor="middle" x="85.2656" y="-116.5" font-family="Helvetica,sans-Serif" font-size="10.00" fill="#000000">math/matrices/su3.h</text>
</a>
</g>
</g>
<!-- Node0&#45;&gt;Node1 -->
<g id="edge1" class="edge">
<title>Node0&#45;&gt;Node1</title>
<path fill="none" stroke="#191970" d="M85.2656,-165.2808C85.2656,-157.3776 85.2656,-147.4316 85.2656,-138.8308"/>
<polygon fill="#191970" stroke="#191970" points="88.7657,-138.5842 85.2656,-128.5842 81.7657,-138.5842 88.7657,-138.5842"/>
</g>
<!-- Node2 -->
<g id="node3" class="node">
<title>Node2</title>
<g id="a_node3"><a xlink:href="complex_8h.html" target="_top" xlink:title=" ">
<polygon fill="#ffffff" stroke="#000000" points="41.9727,-55.5 41.9727,-73.5 128.5586,-73.5 128.5586,-55.5 41.9727,-55.5"/>
<text text-anchor="middle" x="85.2656" y="-61.5" font-family="Helvetica,sans-Serif" font-size="10.00" fill="#000000">math/complex.h</text>
</a>
</g>
</g>
<!-- Node1&#45;&gt;Node2 -->
<g id="edge2" class="edge">
<title>Node1&#45;&gt;Node2</title>
<path fill="none" stroke="#191970" d="M85.2656,-110.4179C85.2656,-103.2164 85.2656,-92.8962 85.2656,-83.8632"/>
<polygon fill="#191970" stroke="#191970" points="88.7657,-83.7794 85.2656,-73.7795 81.7657,-83.7795 88.7657,-83.7794"/>
</g>
<!-- Node3 -->
<g id="node4" class="node">
<title>Node3</title>
<g id="a_node4"><a xlink:title=" ">
<polygon fill="#ffffff" stroke="#bfbfbf" points="58.0933,-.5 58.0933,-18.5 112.438,-18.5 112.438,-.5 58.0933,-.5"/>
<text text-anchor="middle" x="85.2656" y="-6.5" font-family="Helvetica,sans-Serif" font-size="10.00" fill="#000000">iostream</text>
</a>
</g>
</g>
<!-- Node2&#45;&gt;Node3 -->
<g id="edge3" class="edge">
<title>Node2&#45;&gt;Node3</title>
<path fill="none" stroke="#191970" d="M85.2656,-55.4179C85.2656,-48.2164 85.2656,-37.8962 85.2656,-28.8632"/>
<polygon fill="#191970" stroke="#191970" points="88.7657,-28.7794 85.2656,-18.7795 81.7657,-28.7795 88.7657,-28.7794"/>
</g>
</g>
</svg>
