<?xml version="1.0" encoding="UTF-8" standalone="no"?>
<!DOCTYPE svg PUBLIC "-//W3C//DTD SVG 1.1//EN"
 "http://www.w3.org/Graphics/SVG/1.1/DTD/svg11.dtd">
<!-- Generated by graphviz version 2.40.1 (20161225.0304)
 -->
<!-- Title: GluonicLQCD/math/matrices/su3matrixgenerator.cpp Pages: 1 -->
<svg width="476pt" height="257pt"
 viewBox="0.00 0.00 476.01 257.00" xmlns="http://www.w3.org/2000/svg" xmlns:xlink="http://www.w3.org/1999/xlink">
<g id="graph0" class="graph" transform="scale(1 1) rotate(0) translate(4 253)">
<title>GluonicLQCD/math/matrices/su3matrixgenerator.cpp</title>
<polygon fill="#ffffff" stroke="transparent" points="-4,4 -4,-253 472.0054,-253 472.0054,4 -4,4"/>
<!-- Node0 -->
<g id="node1" class="node">
<title>Node0</title>
<g id="a_node1"><a xlink:title=" ">
<polygon fill="#bfbfbf" stroke="#000000" points="42.1855,-220.5 42.1855,-248.5 185.4463,-248.5 185.4463,-220.5 42.1855,-220.5"/>
<text text-anchor="start" x="50.1855" y="-236.5" font-family="Helvetica,sans-Serif" font-size="10.00" fill="#000000">GluonicLQCD/math/matrices</text>
<text text-anchor="middle" x="113.8159" y="-226.5" font-family="Helvetica,sans-Serif" font-size="10.00" fill="#000000">/su3matrixgenerator.cpp</text>
</a>
</g>
</g>
<!-- Node1 -->
<g id="node2" class="node">
<title>Node1</title>
<g id="a_node2"><a xlink:href="su3matrixgenerator_8h.html" target="_top" xlink:title=" ">
<polygon fill="#ffffff" stroke="#000000" points="58.8433,-165.5 58.8433,-183.5 168.7886,-183.5 168.7886,-165.5 58.8433,-165.5"/>
<text text-anchor="middle" x="113.8159" y="-171.5" font-family="Helvetica,sans-Serif" font-size="10.00" fill="#000000">su3matrixgenerator.h</text>
</a>
</g>
</g>
<!-- Node0&#45;&gt;Node1 -->
<g id="edge1" class="edge">
<title>Node0&#45;&gt;Node1</title>
<path fill="none" stroke="#191970" d="M113.8159,-220.2808C113.8159,-212.3776 113.8159,-202.4316 113.8159,-193.8308"/>
<polygon fill="#191970" stroke="#191970" points="117.316,-193.5842 113.8159,-183.5842 110.316,-193.5842 117.316,-193.5842"/>
</g>
<!-- Node2 -->
<g id="node3" class="node">
<title>Node2</title>
<g id="a_node3"><a xlink:title=" ">
<polygon fill="#ffffff" stroke="#bfbfbf" points="23.8628,-110.5 23.8628,-128.5 73.769,-128.5 73.769,-110.5 23.8628,-110.5"/>
<text text-anchor="middle" x="48.8159" y="-116.5" font-family="Helvetica,sans-Serif" font-size="10.00" fill="#000000">random</text>
</a>
</g>
</g>
<!-- Node0&#45;&gt;Node2 -->
<g id="edge8" class="edge">
<title>Node0&#45;&gt;Node2</title>
<path fill="none" stroke="#191970" d="M86.1891,-220.408C72.6068,-211.8735 57.531,-199.606 49.8159,-184 42.914,-170.0389 43.2154,-152.2128 44.9309,-138.8404"/>
<polygon fill="#191970" stroke="#191970" points="48.4067,-139.2734 46.5774,-128.8377 41.4996,-138.1364 48.4067,-139.2734"/>
</g>
<!-- Node4 -->
<g id="node5" class="node">
<title>Node4</title>
<g id="a_node5"><a xlink:href="complex_8h.html" target="_top" xlink:title=" ">
<polygon fill="#ffffff" stroke="#000000" points="70.523,-55.5 70.523,-73.5 157.1089,-73.5 157.1089,-55.5 70.523,-55.5"/>
<text text-anchor="middle" x="113.8159" y="-61.5" font-family="Helvetica,sans-Serif" font-size="10.00" fill="#000000">math/complex.h</text>
</a>
</g>
</g>
<!-- Node0&#45;&gt;Node4 -->
<g id="edge15" class="edge">
<title>Node0&#45;&gt;Node4</title>
<path fill="none" stroke="#191970" d="M87.9131,-220.4647C50.1935,-198.1322 -12.5292,-152.6626 14.8159,-110 25.1941,-93.8084 42.9443,-83.3012 60.5739,-76.5171"/>
<polygon fill="#191970" stroke="#191970" points="62.0206,-79.7192 70.3081,-73.1187 59.7133,-73.1104 62.0206,-79.7192"/>
</g>
<!-- Node5 -->
<g id="node6" class="node">
<title>Node5</title>
<g id="a_node6"><a xlink:title=" ">
<polygon fill="#ffffff" stroke="#bfbfbf" points="6.6436,-.5 6.6436,-18.5 60.9883,-18.5 60.9883,-.5 6.6436,-.5"/>
<text text-anchor="middle" x="33.8159" y="-6.5" font-family="Helvetica,sans-Serif" font-size="10.00" fill="#000000">iostream</text>
</a>
</g>
</g>
<!-- Node0&#45;&gt;Node5 -->
<g id="edge10" class="edge">
<title>Node0&#45;&gt;Node5</title>
<path fill="none" stroke="#191970" d="M69.1271,-220.3649C50.7264,-212.4211 30.7363,-200.6712 17.8159,-184 -17.9885,-137.8016 8.9604,-62.6618 24.6376,-28.0414"/>
<polygon fill="#191970" stroke="#191970" points="27.9553,-29.2121 29.0591,-18.6749 21.6251,-26.2239 27.9553,-29.2121"/>
</g>
<!-- Node7 -->
<g id="node8" class="node">
<title>Node7</title>
<g id="a_node8"><a xlink:title=" ">
<polygon fill="#ffffff" stroke="#bfbfbf" points="294.3062,-165.5 294.3062,-183.5 345.3257,-183.5 345.3257,-165.5 294.3062,-165.5"/>
<text text-anchor="middle" x="319.8159" y="-171.5" font-family="Helvetica,sans-Serif" font-size="10.00" fill="#000000">iomanip</text>
</a>
</g>
</g>
<!-- Node0&#45;&gt;Node7 -->
<g id="edge9" class="edge">
<title>Node0&#45;&gt;Node7</title>
<path fill="none" stroke="#191970" d="M162.1138,-220.4327C199.5106,-209.5404 250.4606,-194.7006 284.2077,-184.8713"/>
<polygon fill="#191970" stroke="#191970" points="285.4723,-188.1485 294.0945,-181.9917 283.5147,-181.4278 285.4723,-188.1485"/>
</g>
<!-- Node8 -->
<g id="node9" class="node">
<title>Node8</title>
<g id="a_node9"><a xlink:href="functions_8h.html" target="_top" xlink:title=" ">
<polygon fill="#ffffff" stroke="#000000" points="187.1289,-165.5 187.1289,-183.5 276.5029,-183.5 276.5029,-165.5 187.1289,-165.5"/>
<text text-anchor="middle" x="231.8159" y="-171.5" font-family="Helvetica,sans-Serif" font-size="10.00" fill="#000000">math/functions.h</text>
</a>
</g>
</g>
<!-- Node0&#45;&gt;Node8 -->
<g id="edge11" class="edge">
<title>Node0&#45;&gt;Node8</title>
<path fill="none" stroke="#191970" d="M141.4817,-220.4327C160.5956,-210.7137 185.8905,-197.8519 204.8509,-188.211"/>
<polygon fill="#191970" stroke="#191970" points="206.5307,-191.2834 213.8582,-183.6311 203.3579,-185.0437 206.5307,-191.2834"/>
</g>
<!-- Node9 -->
<g id="node10" class="node">
<title>Node9</title>
<g id="a_node10"><a xlink:href="parameters_8h.html" target="_top" xlink:title=" ">
<polygon fill="#ffffff" stroke="#000000" points="363.6265,-165.5 363.6265,-183.5 468.0054,-183.5 468.0054,-165.5 363.6265,-165.5"/>
<text text-anchor="middle" x="415.8159" y="-171.5" font-family="Helvetica,sans-Serif" font-size="10.00" fill="#000000">config/parameters.h</text>
</a>
</g>
</g>
<!-- Node0&#45;&gt;Node9 -->
<g id="edge16" class="edge">
<title>Node0&#45;&gt;Node9</title>
<path fill="none" stroke="#191970" d="M184.6215,-220.4327C238.2825,-209.7715 310.9783,-195.3287 360.43,-185.5038"/>
<polygon fill="#191970" stroke="#191970" points="361.1797,-188.9234 370.3059,-183.5417 359.8155,-182.0576 361.1797,-188.9234"/>
</g>
<!-- Node1&#45;&gt;Node2 -->
<g id="edge2" class="edge">
<title>Node1&#45;&gt;Node2</title>
<path fill="none" stroke="#191970" d="M103.0825,-165.4179C93.4493,-157.2667 79.0943,-145.1201 67.5678,-135.3669"/>
<polygon fill="#191970" stroke="#191970" points="69.6772,-132.5671 59.7825,-128.7795 65.1556,-137.9108 69.6772,-132.5671"/>
</g>
<!-- Node3 -->
<g id="node4" class="node">
<title>Node3</title>
<g id="a_node4"><a xlink:href="su3_8h.html" target="_top" xlink:title=" ">
<polygon fill="#ffffff" stroke="#000000" points="93.5845,-110.5 93.5845,-128.5 134.0474,-128.5 134.0474,-110.5 93.5845,-110.5"/>
<text text-anchor="middle" x="113.8159" y="-116.5" font-family="Helvetica,sans-Serif" font-size="10.00" fill="#000000">su3.h</text>
</a>
</g>
</g>
<!-- Node1&#45;&gt;Node3 -->
<g id="edge3" class="edge">
<title>Node1&#45;&gt;Node3</title>
<path fill="none" stroke="#191970" d="M113.8159,-165.4179C113.8159,-158.2164 113.8159,-147.8962 113.8159,-138.8632"/>
<polygon fill="#191970" stroke="#191970" points="117.316,-138.7794 113.8159,-128.7795 110.316,-138.7795 117.316,-138.7794"/>
</g>
<!-- Node6 -->
<g id="node7" class="node">
<title>Node6</title>
<g id="a_node7"><a xlink:href="su2_8h.html" target="_top" xlink:title=" ">
<polygon fill="#ffffff" stroke="#000000" points="151.5845,-110.5 151.5845,-128.5 192.0474,-128.5 192.0474,-110.5 151.5845,-110.5"/>
<text text-anchor="middle" x="171.8159" y="-116.5" font-family="Helvetica,sans-Serif" font-size="10.00" fill="#000000">su2.h</text>
</a>
</g>
</g>
<!-- Node1&#45;&gt;Node6 -->
<g id="edge6" class="edge">
<title>Node1&#45;&gt;Node6</title>
<path fill="none" stroke="#191970" d="M123.3934,-165.4179C131.8223,-157.425 144.3025,-145.5903 154.4816,-135.9377"/>
<polygon fill="#191970" stroke="#191970" points="157.1824,-138.2001 162.0303,-128.7795 152.3657,-133.1207 157.1824,-138.2001"/>
</g>
<!-- Node3&#45;&gt;Node4 -->
<g id="edge4" class="edge">
<title>Node3&#45;&gt;Node4</title>
<path fill="none" stroke="#191970" d="M113.8159,-110.4179C113.8159,-103.2164 113.8159,-92.8962 113.8159,-83.8632"/>
<polygon fill="#191970" stroke="#191970" points="117.316,-83.7794 113.8159,-73.7795 110.316,-83.7795 117.316,-83.7794"/>
</g>
<!-- Node4&#45;&gt;Node5 -->
<g id="edge5" class="edge">
<title>Node4&#45;&gt;Node5</title>
<path fill="none" stroke="#191970" d="M100.6055,-55.4179C88.3305,-46.9788 69.8261,-34.257 55.4051,-24.3426"/>
<polygon fill="#191970" stroke="#191970" points="57.2692,-21.3768 47.0459,-18.5956 53.3035,-27.1451 57.2692,-21.3768"/>
</g>
<!-- Node6&#45;&gt;Node4 -->
<g id="edge7" class="edge">
<title>Node6&#45;&gt;Node4</title>
<path fill="none" stroke="#191970" d="M162.2384,-110.4179C153.8095,-102.425 141.3294,-90.5903 131.1503,-80.9377"/>
<polygon fill="#191970" stroke="#191970" points="133.2661,-78.1207 123.6015,-73.7795 128.4495,-83.2001 133.2661,-78.1207"/>
</g>
<!-- Node8&#45;&gt;Node3 -->
<g id="edge12" class="edge">
<title>Node8&#45;&gt;Node3</title>
<path fill="none" stroke="#191970" d="M212.3306,-165.4179C193.2855,-156.5409 164.0737,-142.9253 142.3997,-132.823"/>
<polygon fill="#191970" stroke="#191970" points="143.8726,-129.648 133.3302,-128.5956 140.9153,-135.9927 143.8726,-129.648"/>
</g>
<!-- Node8&#45;&gt;Node4 -->
<g id="edge14" class="edge">
<title>Node8&#45;&gt;Node4</title>
<path fill="none" stroke="#191970" d="M229.3514,-165.0725C225.3708,-151.4345 216.3594,-126.0786 200.8159,-110 187.0502,-95.7604 167.8575,-85.0735 151.0001,-77.6478"/>
<polygon fill="#191970" stroke="#191970" points="151.9803,-74.2646 141.4033,-73.6503 149.2887,-80.7265 151.9803,-74.2646"/>
</g>
<!-- Node8&#45;&gt;Node6 -->
<g id="edge13" class="edge">
<title>Node8&#45;&gt;Node6</title>
<path fill="none" stroke="#191970" d="M221.9081,-165.4179C213.1023,-157.3458 200.022,-145.3556 189.4359,-135.6517"/>
<polygon fill="#191970" stroke="#191970" points="191.6756,-132.9567 181.939,-128.7795 186.9455,-138.1168 191.6756,-132.9567"/>
</g>
<!-- Node10 -->
<g id="node11" class="node">
<title>Node10</title>
<g id="a_node11"><a xlink:title=" ">
<polygon fill="#ffffff" stroke="#bfbfbf" points="365.5894,-110.5 365.5894,-128.5 406.0425,-128.5 406.0425,-110.5 365.5894,-110.5"/>
<text text-anchor="middle" x="385.8159" y="-116.5" font-family="Helvetica,sans-Serif" font-size="10.00" fill="#000000">string</text>
</a>
</g>
</g>
<!-- Node9&#45;&gt;Node10 -->
<g id="edge17" class="edge">
<title>Node9&#45;&gt;Node10</title>
<path fill="none" stroke="#191970" d="M410.862,-165.4179C406.7613,-157.8998 400.8066,-146.9829 395.7322,-137.6799"/>
<polygon fill="#191970" stroke="#191970" points="398.7387,-135.8824 390.8774,-128.7795 392.5934,-139.2344 398.7387,-135.8824"/>
</g>
<!-- Node11 -->
<g id="node12" class="node">
<title>Node11</title>
<g id="a_node12"><a xlink:title=" ">
<polygon fill="#ffffff" stroke="#bfbfbf" points="424.2002,-110.5 424.2002,-128.5 467.4316,-128.5 467.4316,-110.5 424.2002,-110.5"/>
<text text-anchor="middle" x="445.8159" y="-116.5" font-family="Helvetica,sans-Serif" font-size="10.00" fill="#000000">vector</text>
</a>
</g>
</g>
<!-- Node9&#45;&gt;Node11 -->
<g id="edge18" class="edge">
<title>Node9&#45;&gt;Node11</title>
<path fill="none" stroke="#191970" d="M420.7698,-165.4179C424.8706,-157.8998 430.8253,-146.9829 435.8996,-137.6799"/>
<polygon fill="#191970" stroke="#191970" points="439.0385,-139.2344 440.7544,-128.7795 432.8932,-135.8824 439.0385,-139.2344"/>
</g>
</g>
</svg>
