<?xml version="1.0" encoding="UTF-8" standalone="no"?>
<!DOCTYPE svg PUBLIC "-//W3C//DTD SVG 1.1//EN"
 "http://www.w3.org/Graphics/SVG/1.1/DTD/svg11.dtd">
<!-- Generated by graphviz version 2.40.1 (20161225.0304)
 -->
<!-- Title: GluonicLQCD/math/matrices/su3matrixgenerator.cpp Pages: 1 -->
<svg width="936pt" height="532pt"
 viewBox="0.00 0.00 935.54 532.00" xmlns="http://www.w3.org/2000/svg" xmlns:xlink="http://www.w3.org/1999/xlink">
<g id="graph0" class="graph" transform="scale(1 1) rotate(0) translate(4 528)">
<title>GluonicLQCD/math/matrices/su3matrixgenerator.cpp</title>
<polygon fill="#ffffff" stroke="transparent" points="-4,4 -4,-528 931.5415,-528 931.5415,4 -4,4"/>
<!-- Node0 -->
<g id="node1" class="node">
<title>Node0</title>
<g id="a_node1"><a xlink:title=" ">
<polygon fill="#bfbfbf" stroke="#000000" points="100.3696,-495.5 100.3696,-523.5 243.6304,-523.5 243.6304,-495.5 100.3696,-495.5"/>
<text text-anchor="start" x="108.3696" y="-511.5" font-family="Helvetica,sans-Serif" font-size="10.00" fill="#000000">GluonicLQCD/math/matrices</text>
<text text-anchor="middle" x="172" y="-501.5" font-family="Helvetica,sans-Serif" font-size="10.00" fill="#000000">/su3matrixgenerator.cpp</text>
</a>
</g>
</g>
<!-- Node1 -->
<g id="node2" class="node">
<title>Node1</title>
<g id="a_node2"><a xlink:href="su3matrixgenerator_8h.html" target="_top" xlink:title=" ">
<polygon fill="#ffffff" stroke="#000000" points="117.0273,-440.5 117.0273,-458.5 226.9727,-458.5 226.9727,-440.5 117.0273,-440.5"/>
<text text-anchor="middle" x="172" y="-446.5" font-family="Helvetica,sans-Serif" font-size="10.00" fill="#000000">su3matrixgenerator.h</text>
</a>
</g>
</g>
<!-- Node0&#45;&gt;Node1 -->
<g id="edge1" class="edge">
<title>Node0&#45;&gt;Node1</title>
<path fill="none" stroke="#191970" d="M172,-495.2808C172,-487.3776 172,-477.4316 172,-468.8308"/>
<polygon fill="#191970" stroke="#191970" points="175.5001,-468.5842 172,-458.5842 168.5001,-468.5842 175.5001,-468.5842"/>
</g>
<!-- Node2 -->
<g id="node3" class="node">
<title>Node2</title>
<g id="a_node3"><a xlink:title=" ">
<polygon fill="#ffffff" stroke="#bfbfbf" points="66.0469,-385.5 66.0469,-403.5 115.9531,-403.5 115.9531,-385.5 66.0469,-385.5"/>
<text text-anchor="middle" x="91" y="-391.5" font-family="Helvetica,sans-Serif" font-size="10.00" fill="#000000">random</text>
</a>
</g>
</g>
<!-- Node0&#45;&gt;Node2 -->
<g id="edge8" class="edge">
<title>Node0&#45;&gt;Node2</title>
<path fill="none" stroke="#191970" d="M147.1316,-495.4058C133.6822,-486.5791 117.8542,-474.0331 108,-459 99.0723,-445.3804 94.8232,-427.261 92.8065,-413.6951"/>
<polygon fill="#191970" stroke="#191970" points="96.2574,-413.0777 91.5838,-403.5694 89.3079,-413.9169 96.2574,-413.0777"/>
</g>
<!-- Node4 -->
<g id="node5" class="node">
<title>Node4</title>
<g id="a_node5"><a xlink:href="complex_8h.html" target="_top" xlink:title=" ">
<polygon fill="#ffffff" stroke="#000000" points="100.707,-55.5 100.707,-73.5 187.293,-73.5 187.293,-55.5 100.707,-55.5"/>
<text text-anchor="middle" x="144" y="-61.5" font-family="Helvetica,sans-Serif" font-size="10.00" fill="#000000">math/complex.h</text>
</a>
</g>
</g>
<!-- Node0&#45;&gt;Node4 -->
<g id="edge15" class="edge">
<title>Node0&#45;&gt;Node4</title>
<path fill="none" stroke="#191970" d="M133.2416,-495.412C93.6664,-478.2349 38,-445.0832 38,-394.5 38,-394.5 38,-394.5 38,-174.5 38,-129.6028 84.3536,-95.9825 115.7549,-78.3581"/>
<polygon fill="#191970" stroke="#191970" points="117.4174,-81.4381 124.558,-73.611 114.0949,-75.2768 117.4174,-81.4381"/>
</g>
<!-- Node5 -->
<g id="node6" class="node">
<title>Node5</title>
<g id="a_node6"><a xlink:title=" ">
<polygon fill="#ffffff" stroke="#bfbfbf" points="44.8276,-.5 44.8276,-18.5 99.1724,-18.5 99.1724,-.5 44.8276,-.5"/>
<text text-anchor="middle" x="72" y="-6.5" font-family="Helvetica,sans-Serif" font-size="10.00" fill="#000000">iostream</text>
</a>
</g>
</g>
<!-- Node0&#45;&gt;Node5 -->
<g id="edge10" class="edge">
<title>Node0&#45;&gt;Node5</title>
<path fill="none" stroke="#191970" d="M111.3592,-495.4734C61.8394,-479.9998 0,-449.6383 0,-394.5 0,-394.5 0,-394.5 0,-119.5 0,-80.8438 31.5131,-45.1906 52.8427,-25.486"/>
<polygon fill="#191970" stroke="#191970" points="55.2818,-28.0009 60.432,-18.742 50.632,-22.7683 55.2818,-28.0009"/>
</g>
<!-- Node7 -->
<g id="node8" class="node">
<title>Node7</title>
<g id="a_node8"><a xlink:title=" ">
<polygon fill="#ffffff" stroke="#bfbfbf" points="437.4902,-440.5 437.4902,-458.5 488.5098,-458.5 488.5098,-440.5 437.4902,-440.5"/>
<text text-anchor="middle" x="463" y="-446.5" font-family="Helvetica,sans-Serif" font-size="10.00" fill="#000000">iomanip</text>
</a>
</g>
</g>
<!-- Node0&#45;&gt;Node7 -->
<g id="edge9" class="edge">
<title>Node0&#45;&gt;Node7</title>
<path fill="none" stroke="#191970" d="M243.7397,-496.7436C292.8082,-487.695 359.5315,-474.7602 427.4162,-459.0056"/>
<polygon fill="#191970" stroke="#191970" points="428.4987,-462.3469 437.4384,-456.6608 426.904,-455.5309 428.4987,-462.3469"/>
</g>
<!-- Node8 -->
<g id="node9" class="node">
<title>Node8</title>
<g id="a_node9"><a xlink:href="functions_8h.html" target="_top" xlink:title=" ">
<polygon fill="#ffffff" stroke="#000000" points="210.313,-165.5 210.313,-183.5 299.687,-183.5 299.687,-165.5 210.313,-165.5"/>
<text text-anchor="middle" x="255" y="-171.5" font-family="Helvetica,sans-Serif" font-size="10.00" fill="#000000">math/functions.h</text>
</a>
</g>
</g>
<!-- Node0&#45;&gt;Node8 -->
<g id="edge11" class="edge">
<title>Node0&#45;&gt;Node8</title>
<path fill="none" stroke="#191970" d="M196.7045,-495.2967C210.1009,-486.4347 225.9306,-473.8899 236,-459 252.741,-434.2447 255,-424.3846 255,-394.5 255,-394.5 255,-394.5 255,-284.5 255,-252.7718 255,-215.8957 255,-193.917"/>
<polygon fill="#191970" stroke="#191970" points="258.5001,-193.6266 255,-183.6267 251.5001,-193.6267 258.5001,-193.6266"/>
</g>
<!-- Node9 -->
<g id="node10" class="node">
<title>Node9</title>
<g id="a_node10"><a xlink:href="parameters_8h.html" target="_top" xlink:title=" ">
<polygon fill="#ffffff" stroke="#000000" points="314.8105,-440.5 314.8105,-458.5 419.1895,-458.5 419.1895,-440.5 314.8105,-440.5"/>
<text text-anchor="middle" x="367" y="-446.5" font-family="Helvetica,sans-Serif" font-size="10.00" fill="#000000">config/parameters.h</text>
</a>
</g>
</g>
<!-- Node0&#45;&gt;Node9 -->
<g id="edge16" class="edge">
<title>Node0&#45;&gt;Node9</title>
<path fill="none" stroke="#191970" d="M217.7188,-495.4327C251.1378,-485.1499 295.9905,-471.3491 327.7823,-461.567"/>
<polygon fill="#191970" stroke="#191970" points="329.0859,-464.8279 337.6144,-458.5417 327.0273,-458.1374 329.0859,-464.8279"/>
</g>
<!-- Node1&#45;&gt;Node2 -->
<g id="edge2" class="edge">
<title>Node1&#45;&gt;Node2</title>
<path fill="none" stroke="#191970" d="M158.6245,-440.4179C146.196,-431.9788 127.4603,-419.257 112.8591,-409.3426"/>
<polygon fill="#191970" stroke="#191970" points="114.6346,-406.3176 104.3954,-403.5956 110.7023,-412.1088 114.6346,-406.3176"/>
</g>
<!-- Node3 -->
<g id="node4" class="node">
<title>Node3</title>
<g id="a_node4"><a xlink:href="su3_8h.html" target="_top" xlink:title=" ">
<polygon fill="#ffffff" stroke="#000000" points="181.7686,-110.5 181.7686,-128.5 222.2314,-128.5 222.2314,-110.5 181.7686,-110.5"/>
<text text-anchor="middle" x="202" y="-116.5" font-family="Helvetica,sans-Serif" font-size="10.00" fill="#000000">su3.h</text>
</a>
</g>
</g>
<!-- Node1&#45;&gt;Node3 -->
<g id="edge3" class="edge">
<title>Node1&#45;&gt;Node3</title>
<path fill="none" stroke="#191970" d="M173.3905,-440.3988C176.1382,-421.5979 182,-377.0849 182,-339.5 182,-339.5 182,-339.5 182,-229.5 182,-197.103 190.5015,-160.192 196.4189,-138.4242"/>
<polygon fill="#191970" stroke="#191970" points="199.8648,-139.1007 199.2191,-128.5255 193.1292,-137.1952 199.8648,-139.1007"/>
</g>
<!-- Node6 -->
<g id="node7" class="node">
<title>Node6</title>
<g id="a_node7"><a xlink:href="su2_8h.html" target="_top" xlink:title=" ">
<polygon fill="#ffffff" stroke="#000000" points="123.7686,-110.5 123.7686,-128.5 164.2314,-128.5 164.2314,-110.5 123.7686,-110.5"/>
<text text-anchor="middle" x="144" y="-116.5" font-family="Helvetica,sans-Serif" font-size="10.00" fill="#000000">su2.h</text>
</a>
</g>
</g>
<!-- Node1&#45;&gt;Node6 -->
<g id="edge6" class="edge">
<title>Node1&#45;&gt;Node6</title>
<path fill="none" stroke="#191970" d="M167.9883,-440.2851C160.246,-421.6366 144,-377.9271 144,-339.5 144,-339.5 144,-339.5 144,-229.5 144,-197.7718 144,-160.8957 144,-138.917"/>
<polygon fill="#191970" stroke="#191970" points="147.5001,-138.6266 144,-128.6267 140.5001,-138.6267 147.5001,-138.6266"/>
</g>
<!-- Node3&#45;&gt;Node4 -->
<g id="edge4" class="edge">
<title>Node3&#45;&gt;Node4</title>
<path fill="none" stroke="#191970" d="M192.4225,-110.4179C183.9936,-102.425 171.5134,-90.5903 161.3344,-80.9377"/>
<polygon fill="#191970" stroke="#191970" points="163.4502,-78.1207 153.7856,-73.7795 158.6335,-83.2001 163.4502,-78.1207"/>
</g>
<!-- Node4&#45;&gt;Node5 -->
<g id="edge5" class="edge">
<title>Node4&#45;&gt;Node5</title>
<path fill="none" stroke="#191970" d="M132.1107,-55.4179C121.3365,-47.1876 105.2298,-34.8839 92.4003,-25.0836"/>
<polygon fill="#191970" stroke="#191970" points="94.219,-22.0685 84.1477,-18.7795 89.9697,-27.6313 94.219,-22.0685"/>
</g>
<!-- Node6&#45;&gt;Node4 -->
<g id="edge7" class="edge">
<title>Node6&#45;&gt;Node4</title>
<path fill="none" stroke="#191970" d="M144,-110.4179C144,-103.2164 144,-92.8962 144,-83.8632"/>
<polygon fill="#191970" stroke="#191970" points="147.5001,-83.7794 144,-73.7795 140.5001,-83.7795 147.5001,-83.7794"/>
</g>
<!-- Node8&#45;&gt;Node3 -->
<g id="edge12" class="edge">
<title>Node8&#45;&gt;Node3</title>
<path fill="none" stroke="#191970" d="M246.2481,-165.4179C238.6222,-157.5041 227.3671,-145.8243 218.1169,-136.2251"/>
<polygon fill="#191970" stroke="#191970" points="220.4013,-133.5516 210.942,-128.7795 215.3607,-138.4089 220.4013,-133.5516"/>
</g>
<!-- Node8&#45;&gt;Node4 -->
<g id="edge14" class="edge">
<title>Node8&#45;&gt;Node4</title>
<path fill="none" stroke="#191970" d="M253.6707,-165.0866C251.3099,-151.4662 245.2225,-126.1321 231,-110 218.1849,-95.4643 199.594,-84.8656 182.8847,-77.5738"/>
<polygon fill="#191970" stroke="#191970" points="183.9023,-74.2085 173.3218,-73.6579 181.2496,-80.6864 183.9023,-74.2085"/>
</g>
<!-- Node8&#45;&gt;Node6 -->
<g id="edge13" class="edge">
<title>Node8&#45;&gt;Node6</title>
<path fill="none" stroke="#191970" d="M236.6706,-165.4179C218.9159,-156.6205 191.7686,-143.1691 171.4384,-133.0956"/>
<polygon fill="#191970" stroke="#191970" points="172.8709,-129.8994 162.3566,-128.5956 169.763,-136.1716 172.8709,-129.8994"/>
</g>
<!-- Node10 -->
<g id="node11" class="node">
<title>Node10</title>
<g id="a_node11"><a xlink:title=" ">
<polygon fill="#ffffff" stroke="#bfbfbf" points="461.7734,-385.5 461.7734,-403.5 502.2266,-403.5 502.2266,-385.5 461.7734,-385.5"/>
<text text-anchor="middle" x="482" y="-391.5" font-family="Helvetica,sans-Serif" font-size="10.00" fill="#000000">string</text>
</a>
</g>
</g>
<!-- Node9&#45;&gt;Node10 -->
<g id="edge17" class="edge">
<title>Node9&#45;&gt;Node10</title>
<path fill="none" stroke="#191970" d="M385.9899,-440.4179C404.4676,-431.5807 432.7648,-418.0473 453.8583,-407.9591"/>
<polygon fill="#191970" stroke="#191970" points="455.4706,-411.0677 462.9819,-403.5956 452.4504,-404.7528 455.4706,-411.0677"/>
</g>
<!-- Node11 -->
<g id="node12" class="node">
<title>Node11</title>
<g id="a_node12"><a xlink:title=" ">
<polygon fill="#ffffff" stroke="#bfbfbf" points="428.3843,-110.5 428.3843,-128.5 471.6157,-128.5 471.6157,-110.5 428.3843,-110.5"/>
<text text-anchor="middle" x="450" y="-116.5" font-family="Helvetica,sans-Serif" font-size="10.00" fill="#000000">vector</text>
</a>
</g>
</g>
<!-- Node9&#45;&gt;Node11 -->
<g id="edge18" class="edge">
<title>Node9&#45;&gt;Node11</title>
<path fill="none" stroke="#191970" d="M361.4123,-440.4697C350.6284,-422.1531 328,-379.0109 328,-339.5 328,-339.5 328,-339.5 328,-229.5 328,-180.5446 382.8553,-147.7833 418.9998,-131.5103"/>
<polygon fill="#191970" stroke="#191970" points="420.3953,-134.7201 428.1888,-127.543 417.6206,-128.2935 420.3953,-134.7201"/>
</g>
<!-- Node12 -->
<g id="node13" class="node">
<title>Node12</title>
<g id="a_node13"><a xlink:href="sysprint_8h.html" target="_top" xlink:title=" ">
<polygon fill="#ffffff" stroke="#000000" points="355.8721,-385.5 355.8721,-403.5 444.1279,-403.5 444.1279,-385.5 355.8721,-385.5"/>
<text text-anchor="middle" x="400" y="-391.5" font-family="Helvetica,sans-Serif" font-size="10.00" fill="#000000">config/sysprint.h</text>
</a>
</g>
</g>
<!-- Node9&#45;&gt;Node12 -->
<g id="edge19" class="edge">
<title>Node9&#45;&gt;Node12</title>
<path fill="none" stroke="#191970" d="M367.283,-440.4179C370.2989,-432.7415 376.638,-421.5217 383.0986,-412.0945"/>
<polygon fill="#191970" stroke="#191970" points="386.1112,-413.9062 389.2256,-403.7795 380.4758,-409.7538 386.1112,-413.9062"/>
</g>
<!-- Node12&#45;&gt;Node9 -->
<g id="edge20" class="edge">
<title>Node12&#45;&gt;Node9</title>
<path fill="none" stroke="#191970" d="M399.6391,-403.7795C396.5667,-411.5159 390.1984,-422.7503 383.7359,-432.1465"/>
<polygon fill="#191970" stroke="#191970" points="380.7503,-430.2974 377.6156,-440.4179 386.3773,-434.4611 380.7503,-430.2974"/>
</g>
<!-- Node13 -->
<g id="node14" class="node">
<title>Node13</title>
<g id="a_node14"><a xlink:href="parallel_8h.html" target="_top" xlink:title=" ">
<polygon fill="#ffffff" stroke="#000000" points="424.7466,-330.5 424.7466,-348.5 545.2534,-348.5 545.2534,-330.5 424.7466,-330.5"/>
<text text-anchor="middle" x="485" y="-336.5" font-family="Helvetica,sans-Serif" font-size="10.00" fill="#000000">parallelization/parallel.h</text>
</a>
</g>
</g>
<!-- Node12&#45;&gt;Node13 -->
<g id="edge21" class="edge">
<title>Node12&#45;&gt;Node13</title>
<path fill="none" stroke="#191970" d="M414.036,-385.4179C427.2013,-376.8992 447.1108,-364.0166 462.494,-354.0627"/>
<polygon fill="#191970" stroke="#191970" points="464.4488,-356.9667 470.9431,-348.5956 460.646,-351.0897 464.4488,-356.9667"/>
</g>
<!-- Node14 -->
<g id="node15" class="node">
<title>Node14</title>
<g id="a_node15"><a xlink:href="communicator_8h.html" target="_top" xlink:title=" ">
<polygon fill="#ffffff" stroke="#000000" points="477.7046,-275.5 477.7046,-293.5 564.2954,-293.5 564.2954,-275.5 477.7046,-275.5"/>
<text text-anchor="middle" x="521" y="-281.5" font-family="Helvetica,sans-Serif" font-size="10.00" fill="#000000">communicator.h</text>
</a>
</g>
</g>
<!-- Node13&#45;&gt;Node14 -->
<g id="edge22" class="edge">
<title>Node13&#45;&gt;Node14</title>
<path fill="none" stroke="#191970" d="M490.9447,-330.4179C495.9174,-322.8207 503.1619,-311.7527 509.2924,-302.3866"/>
<polygon fill="#191970" stroke="#191970" points="512.378,-304.0633 514.9262,-293.7795 506.5211,-300.2297 512.378,-304.0633"/>
</g>
<!-- Node17 -->
<g id="node18" class="node">
<title>Node17</title>
<g id="a_node18"><a xlink:href="index_8h.html" target="_top" xlink:title=" ">
<polygon fill="#ffffff" stroke="#000000" points="393.9141,-165.5 393.9141,-183.5 506.0859,-183.5 506.0859,-165.5 393.9141,-165.5"/>
<text text-anchor="middle" x="450" y="-171.5" font-family="Helvetica,sans-Serif" font-size="10.00" fill="#000000">parallelization/index.h</text>
</a>
</g>
</g>
<!-- Node13&#45;&gt;Node17 -->
<g id="edge35" class="edge">
<title>Node13&#45;&gt;Node17</title>
<path fill="none" stroke="#191970" d="M481.1882,-330.2402C477.5802,-321.1515 472.2464,-306.8256 469,-294 460.1847,-259.1729 454.6681,-217.5483 451.977,-193.7502"/>
<polygon fill="#191970" stroke="#191970" points="455.4351,-193.1734 450.8807,-183.6074 448.4756,-193.9256 455.4351,-193.1734"/>
</g>
<!-- Node20 -->
<g id="node21" class="node">
<title>Node20</title>
<g id="a_node21"><a xlink:href="parallelparameters_8h.html" target="_top" xlink:title=" ">
<polygon fill="#ffffff" stroke="#000000" points="756.4585,-165.5 756.4585,-183.5 927.5415,-183.5 927.5415,-165.5 756.4585,-165.5"/>
<text text-anchor="middle" x="842" y="-171.5" font-family="Helvetica,sans-Serif" font-size="10.00" fill="#000000">parallelization/parallelparameters.h</text>
</a>
</g>
</g>
<!-- Node13&#45;&gt;Node20 -->
<g id="edge36" class="edge">
<title>Node13&#45;&gt;Node20</title>
<path fill="none" stroke="#191970" d="M504.7024,-330.3939C564.3148,-302.8419 742.9589,-220.2753 813.1915,-187.8148"/>
<polygon fill="#191970" stroke="#191970" points="814.7496,-190.9506 822.3585,-183.578 811.8127,-184.5964 814.7496,-190.9506"/>
</g>
<!-- Node14&#45;&gt;Node11 -->
<g id="edge23" class="edge">
<title>Node14&#45;&gt;Node11</title>
<path fill="none" stroke="#191970" d="M497.9138,-275.4274C465.7293,-261.3603 408.6684,-230.9198 385,-184 374.4747,-163.1347 397.4693,-144.9645 418.9588,-133.2741"/>
<polygon fill="#191970" stroke="#191970" points="420.6591,-136.3358 427.9743,-128.6717 417.4763,-130.1012 420.6591,-136.3358"/>
</g>
<!-- Node15 -->
<g id="node16" class="node">
<title>Node15</title>
<g id="a_node16"><a xlink:href="lattice_8h.html" target="_top" xlink:title=" ">
<polygon fill="#ffffff" stroke="#000000" points="496.2637,-220.5 496.2637,-238.5 571.7363,-238.5 571.7363,-220.5 496.2637,-220.5"/>
<text text-anchor="middle" x="534" y="-226.5" font-family="Helvetica,sans-Serif" font-size="10.00" fill="#000000">math/lattice.h</text>
</a>
</g>
</g>
<!-- Node14&#45;&gt;Node15 -->
<g id="edge24" class="edge">
<title>Node14&#45;&gt;Node15</title>
<path fill="none" stroke="#191970" d="M523.1467,-275.4179C524.8676,-268.1372 527.3419,-257.669 529.4935,-248.5659"/>
<polygon fill="#191970" stroke="#191970" points="532.9125,-249.3164 531.8067,-238.7795 526.1002,-247.7062 532.9125,-249.3164"/>
</g>
<!-- Node15&#45;&gt;Node8 -->
<g id="edge34" class="edge">
<title>Node15&#45;&gt;Node8</title>
<path fill="none" stroke="#191970" d="M496.0825,-222.0252C447.9727,-212.5412 364.6567,-196.1169 309.6768,-185.2786"/>
<polygon fill="#191970" stroke="#191970" points="310.2436,-181.823 299.7554,-183.3228 308.8896,-188.6909 310.2436,-181.823"/>
</g>
<!-- Node15&#45;&gt;Node11 -->
<g id="edge25" class="edge">
<title>Node15&#45;&gt;Node11</title>
<path fill="none" stroke="#191970" d="M533.2135,-220.3324C531.6756,-207.0182 527.2649,-182.0617 515,-165 505.6187,-151.9497 491.2862,-141.3435 478.4646,-133.6646"/>
<polygon fill="#191970" stroke="#191970" points="479.9169,-130.4653 469.488,-128.5974 476.4758,-136.5611 479.9169,-130.4653"/>
</g>
<!-- Node16 -->
<g id="node17" class="node">
<title>Node16</title>
<g id="a_node17"><a xlink:title=" ">
<polygon fill="#ffffff" stroke="#bfbfbf" points="764.7734,-110.5 764.7734,-128.5 805.2266,-128.5 805.2266,-110.5 764.7734,-110.5"/>
<text text-anchor="middle" x="785" y="-116.5" font-family="Helvetica,sans-Serif" font-size="10.00" fill="#000000">mpi.h</text>
</a>
</g>
</g>
<!-- Node15&#45;&gt;Node16 -->
<g id="edge26" class="edge">
<title>Node15&#45;&gt;Node16</title>
<path fill="none" stroke="#191970" d="M571.9504,-224.6526C608.639,-218.8357 664.9838,-206.8621 709,-184 732.5836,-171.7506 755.2204,-150.9882 769.5604,-136.3336"/>
<polygon fill="#191970" stroke="#191970" points="772.265,-138.5687 776.6268,-128.9133 767.1959,-133.7413 772.265,-138.5687"/>
</g>
<!-- Node15&#45;&gt;Node17 -->
<g id="edge27" class="edge">
<title>Node15&#45;&gt;Node17</title>
<path fill="none" stroke="#191970" d="M520.1291,-220.4179C507.2403,-211.9788 487.8106,-199.257 472.6686,-189.3426"/>
<polygon fill="#191970" stroke="#191970" points="474.175,-186.1454 463.8915,-183.5956 470.3404,-192.0017 474.175,-186.1454"/>
</g>
<!-- Node18 -->
<g id="node19" class="node">
<title>Node18</title>
<g id="a_node19"><a xlink:href="neighbours_8h.html" target="_top" xlink:title=" ">
<polygon fill="#ffffff" stroke="#000000" points="562.126,-165.5 562.126,-183.5 699.874,-183.5 699.874,-165.5 562.126,-165.5"/>
<text text-anchor="middle" x="631" y="-171.5" font-family="Helvetica,sans-Serif" font-size="10.00" fill="#000000">parallelization/neighbours.h</text>
</a>
</g>
</g>
<!-- Node15&#45;&gt;Node18 -->
<g id="edge29" class="edge">
<title>Node15&#45;&gt;Node18</title>
<path fill="none" stroke="#191970" d="M550.0176,-220.4179C565.1819,-211.8195 588.1871,-198.7754 605.8075,-188.7844"/>
<polygon fill="#191970" stroke="#191970" points="607.986,-191.5727 614.9586,-183.5956 604.5333,-185.4834 607.986,-191.5727"/>
</g>
<!-- Node15&#45;&gt;Node20 -->
<g id="edge32" class="edge">
<title>Node15&#45;&gt;Node20</title>
<path fill="none" stroke="#191970" d="M571.7668,-222.7559C624.035,-213.4223 719.0113,-196.4623 781.3018,-185.339"/>
<polygon fill="#191970" stroke="#191970" points="782.1591,-188.7413 791.388,-183.5378 780.9285,-181.8503 782.1591,-188.7413"/>
</g>
<!-- Node17&#45;&gt;Node11 -->
<g id="edge28" class="edge">
<title>Node17&#45;&gt;Node11</title>
<path fill="none" stroke="#191970" d="M450,-165.4179C450,-158.2164 450,-147.8962 450,-138.8632"/>
<polygon fill="#191970" stroke="#191970" points="453.5001,-138.7794 450,-128.7795 446.5001,-138.7795 453.5001,-138.7794"/>
</g>
<!-- Node18&#45;&gt;Node11 -->
<g id="edge31" class="edge">
<title>Node18&#45;&gt;Node11</title>
<path fill="none" stroke="#191970" d="M601.1115,-165.4179C568.0803,-155.3808 515.1122,-139.2855 481.4631,-129.0606"/>
<polygon fill="#191970" stroke="#191970" points="482.2695,-125.6477 471.6839,-126.089 480.2343,-132.3453 482.2695,-125.6477"/>
</g>
<!-- Node19 -->
<g id="node20" class="node">
<title>Node19</title>
<g id="a_node20"><a xlink:href="neighbourlist_8h.html" target="_top" xlink:title=" ">
<polygon fill="#ffffff" stroke="#000000" points="590.478,-110.5 590.478,-128.5 671.522,-128.5 671.522,-110.5 590.478,-110.5"/>
<text text-anchor="middle" x="631" y="-116.5" font-family="Helvetica,sans-Serif" font-size="10.00" fill="#000000">neighbourlist.h</text>
</a>
</g>
</g>
<!-- Node18&#45;&gt;Node19 -->
<g id="edge30" class="edge">
<title>Node18&#45;&gt;Node19</title>
<path fill="none" stroke="#191970" d="M631,-165.4179C631,-158.2164 631,-147.8962 631,-138.8632"/>
<polygon fill="#191970" stroke="#191970" points="634.5001,-138.7794 631,-128.7795 627.5001,-138.7795 634.5001,-138.7794"/>
</g>
<!-- Node20&#45;&gt;Node16 -->
<g id="edge33" class="edge">
<title>Node20&#45;&gt;Node16</title>
<path fill="none" stroke="#191970" d="M832.5876,-165.4179C824.3041,-157.425 812.0391,-145.5903 802.0355,-135.9377"/>
<polygon fill="#191970" stroke="#191970" points="804.2434,-133.2045 794.6169,-128.7795 799.3828,-138.2419 804.2434,-133.2045"/>
</g>
</g>
</svg>
