<?xml version="1.0" encoding="UTF-8" standalone="no"?>
<!DOCTYPE svg PUBLIC "-//W3C//DTD SVG 1.1//EN"
 "http://www.w3.org/Graphics/SVG/1.1/DTD/svg11.dtd">
<!-- Generated by graphviz version 2.40.1 (20161225.0304)
 -->
<!-- Title: GluonicLQCD/observables/supersampler.cpp Pages: 1 -->
<svg width="1166pt" height="532pt"
 viewBox="0.00 0.00 1166.50 532.00" xmlns="http://www.w3.org/2000/svg" xmlns:xlink="http://www.w3.org/1999/xlink">
<g id="graph0" class="graph" transform="scale(1 1) rotate(0) translate(4 528)">
<title>GluonicLQCD/observables/supersampler.cpp</title>
<polygon fill="#ffffff" stroke="transparent" points="-4,4 -4,-528 1162.4955,-528 1162.4955,4 -4,4"/>
<!-- Node0 -->
<g id="node1" class="node">
<title>Node0</title>
<g id="a_node1"><a xlink:title=" ">
<polygon fill="#bfbfbf" stroke="#000000" points="847.3012,-495.5 847.3012,-523.5 981.6899,-523.5 981.6899,-495.5 847.3012,-495.5"/>
<text text-anchor="start" x="855.3012" y="-511.5" font-family="Helvetica,sans-Serif" font-size="10.00" fill="#000000">GluonicLQCD/observables</text>
<text text-anchor="middle" x="914.4955" y="-501.5" font-family="Helvetica,sans-Serif" font-size="10.00" fill="#000000">/supersampler.cpp</text>
</a>
</g>
</g>
<!-- Node1 -->
<g id="node2" class="node">
<title>Node1</title>
<g id="a_node2"><a xlink:href="supersampler_8h.html" target="_top" xlink:title=" ">
<polygon fill="#ffffff" stroke="#000000" points="315.3085,-440.5 315.3085,-458.5 399.6825,-458.5 399.6825,-440.5 315.3085,-440.5"/>
<text text-anchor="middle" x="357.4955" y="-446.5" font-family="Helvetica,sans-Serif" font-size="10.00" fill="#000000">supersampler.h</text>
</a>
</g>
</g>
<!-- Node0&#45;&gt;Node1 -->
<g id="edge1" class="edge">
<title>Node0&#45;&gt;Node1</title>
<path fill="none" stroke="#191970" d="M847.031,-502.2327C734.6033,-490.122 511.2728,-466.0649 409.821,-455.1365"/>
<polygon fill="#191970" stroke="#191970" points="410.1264,-451.6492 399.8091,-454.058 409.3767,-458.609 410.1264,-451.6492"/>
</g>
<!-- Node25 -->
<g id="node26" class="node">
<title>Node25</title>
<g id="a_node26"><a xlink:title=" ">
<polygon fill="#ffffff" stroke="#bfbfbf" points="800.8798,-440.5 800.8798,-458.5 844.1113,-458.5 844.1113,-440.5 800.8798,-440.5"/>
<text text-anchor="middle" x="822.4955" y="-446.5" font-family="Helvetica,sans-Serif" font-size="10.00" fill="#000000">cmath</text>
</a>
</g>
</g>
<!-- Node0&#45;&gt;Node25 -->
<g id="edge44" class="edge">
<title>Node0&#45;&gt;Node25</title>
<path fill="none" stroke="#191970" d="M892.6928,-495.2808C878.2597,-485.868 859.3837,-473.5575 844.841,-464.0732"/>
<polygon fill="#191970" stroke="#191970" points="846.7127,-461.1153 836.4246,-458.5842 842.8888,-466.9786 846.7127,-461.1153"/>
</g>
<!-- Node26 -->
<g id="node27" class="node">
<title>Node26</title>
<g id="a_node27"><a xlink:href="communicator_8h.html" target="_top" xlink:title=" ">
<polygon fill="#ffffff" stroke="#000000" points="942.2372,-275.5 942.2372,-293.5 1092.7538,-293.5 1092.7538,-275.5 942.2372,-275.5"/>
<text text-anchor="middle" x="1017.4955" y="-281.5" font-family="Helvetica,sans-Serif" font-size="10.00" fill="#000000">parallelization/communicator.h</text>
</a>
</g>
</g>
<!-- Node0&#45;&gt;Node26 -->
<g id="edge45" class="edge">
<title>Node0&#45;&gt;Node26</title>
<path fill="none" stroke="#191970" d="M938.0099,-495.4483C950.9314,-486.5561 966.1814,-473.9311 975.4955,-459 1006.6241,-409.0993 1014.6822,-337.9237 1016.7676,-303.9705"/>
<polygon fill="#191970" stroke="#191970" points="1020.2818,-303.7709 1017.2842,-293.609 1013.2905,-303.4223 1020.2818,-303.7709"/>
</g>
<!-- Node27 -->
<g id="node28" class="node">
<title>Node27</title>
<g id="a_node28"><a xlink:href="parameters_8h.html" target="_top" xlink:title=" ">
<polygon fill="#ffffff" stroke="#000000" points="862.3061,-440.5 862.3061,-458.5 966.685,-458.5 966.685,-440.5 862.3061,-440.5"/>
<text text-anchor="middle" x="914.4955" y="-446.5" font-family="Helvetica,sans-Serif" font-size="10.00" fill="#000000">config/parameters.h</text>
</a>
</g>
</g>
<!-- Node0&#45;&gt;Node27 -->
<g id="edge48" class="edge">
<title>Node0&#45;&gt;Node27</title>
<path fill="none" stroke="#191970" d="M914.4955,-495.2808C914.4955,-487.3776 914.4955,-477.4316 914.4955,-468.8308"/>
<polygon fill="#191970" stroke="#191970" points="917.9956,-468.5842 914.4955,-458.5842 910.9956,-468.5842 917.9956,-468.5842"/>
</g>
<!-- Node30 -->
<g id="node31" class="node">
<title>Node30</title>
<g id="a_node31"><a xlink:href="observablesio_8h.html" target="_top" xlink:title=" ">
<polygon fill="#ffffff" stroke="#000000" points="942.1928,-220.5 942.1928,-238.5 1038.7983,-238.5 1038.7983,-220.5 942.1928,-220.5"/>
<text text-anchor="middle" x="990.4955" y="-226.5" font-family="Helvetica,sans-Serif" font-size="10.00" fill="#000000">io/observablesio.h</text>
</a>
</g>
</g>
<!-- Node0&#45;&gt;Node30 -->
<g id="edge57" class="edge">
<title>Node0&#45;&gt;Node30</title>
<path fill="none" stroke="#191970" d="M981.9476,-500.2961C1042.0259,-487.8539 1120.4955,-459.2158 1120.4955,-394.5 1120.4955,-394.5 1120.4955,-394.5 1120.4955,-339.5 1120.4955,-309.6154 1121.5163,-297.1868 1101.4955,-275 1086.9868,-258.9216 1065.9508,-248.3979 1046.084,-241.5692"/>
<polygon fill="#191970" stroke="#191970" points="1047.0493,-238.2035 1036.4588,-238.5055 1044.9262,-244.8737 1047.0493,-238.2035"/>
</g>
<!-- Node2 -->
<g id="node3" class="node">
<title>Node2</title>
<g id="a_node3"><a xlink:href="lattice_8h.html" target="_top" xlink:title=" ">
<polygon fill="#ffffff" stroke="#000000" points="314.7592,-220.5 314.7592,-238.5 390.2319,-238.5 390.2319,-220.5 314.7592,-220.5"/>
<text text-anchor="middle" x="352.4955" y="-226.5" font-family="Helvetica,sans-Serif" font-size="10.00" fill="#000000">math/lattice.h</text>
</a>
</g>
</g>
<!-- Node1&#45;&gt;Node2 -->
<g id="edge2" class="edge">
<title>Node1&#45;&gt;Node2</title>
<path fill="none" stroke="#191970" d="M315.2661,-443.8336C230.0104,-431.4372 42.2193,-398.9629 4.4955,-349 -34.0596,-297.936 200.8287,-253.6135 304.8117,-236.7513"/>
<polygon fill="#191970" stroke="#191970" points="305.4289,-240.1971 314.7492,-235.1589 304.3213,-233.2853 305.4289,-240.1971"/>
</g>
<!-- Node14 -->
<g id="node15" class="node">
<title>Node14</title>
<g id="a_node15"><a xlink:href="observables_8h.html" target="_top" xlink:title=" ">
<polygon fill="#ffffff" stroke="#000000" points="290.0155,-385.5 290.0155,-403.5 424.9755,-403.5 424.9755,-385.5 290.0155,-385.5"/>
<text text-anchor="middle" x="357.4955" y="-391.5" font-family="Helvetica,sans-Serif" font-size="10.00" fill="#000000">observables/observables.h</text>
</a>
</g>
</g>
<!-- Node1&#45;&gt;Node14 -->
<g id="edge19" class="edge">
<title>Node1&#45;&gt;Node14</title>
<path fill="none" stroke="#191970" d="M352.3292,-440.4179C350.8377,-433.2164 350.3997,-422.8962 351.0153,-413.8632"/>
<polygon fill="#191970" stroke="#191970" points="354.5082,-414.1392 352.2888,-403.7795 347.5633,-413.2621 354.5082,-414.1392"/>
</g>
<!-- Node24 -->
<g id="node25" class="node">
<title>Node24</title>
<g id="a_node25"><a xlink:title=" ">
<polygon fill="#ffffff" stroke="#bfbfbf" points="236.769,-385.5 236.769,-403.5 272.2221,-403.5 272.2221,-385.5 236.769,-385.5"/>
<text text-anchor="middle" x="254.4955" y="-391.5" font-family="Helvetica,sans-Serif" font-size="10.00" fill="#000000">map</text>
</a>
</g>
</g>
<!-- Node1&#45;&gt;Node24 -->
<g id="edge43" class="edge">
<title>Node1&#45;&gt;Node24</title>
<path fill="none" stroke="#191970" d="M340.4872,-440.4179C324.1612,-431.7001 299.2765,-418.4122 280.4701,-408.3699"/>
<polygon fill="#191970" stroke="#191970" points="281.999,-405.2186 271.5292,-403.5956 278.7017,-411.3934 281.999,-405.2186"/>
</g>
<!-- Node3 -->
<g id="node4" class="node">
<title>Node3</title>
<g id="a_node4"><a xlink:title=" ">
<polygon fill="#ffffff" stroke="#bfbfbf" points="784.8798,-110.5 784.8798,-128.5 828.1113,-128.5 828.1113,-110.5 784.8798,-110.5"/>
<text text-anchor="middle" x="806.4955" y="-116.5" font-family="Helvetica,sans-Serif" font-size="10.00" fill="#000000">vector</text>
</a>
</g>
</g>
<!-- Node2&#45;&gt;Node3 -->
<g id="edge3" class="edge">
<title>Node2&#45;&gt;Node3</title>
<path fill="none" stroke="#191970" d="M390.2942,-225.9172C439.6475,-220.487 528.2563,-208.1438 600.4955,-184 618.4041,-178.0146 620.8508,-171.7236 638.4955,-165 684.8128,-147.3506 740.7483,-133.6385 774.9605,-126.0641"/>
<polygon fill="#191970" stroke="#191970" points="775.8188,-129.4593 784.8459,-123.9129 774.3303,-122.6194 775.8188,-129.4593"/>
</g>
<!-- Node4 -->
<g id="node5" class="node">
<title>Node4</title>
<g id="a_node5"><a xlink:title=" ">
<polygon fill="#ffffff" stroke="#bfbfbf" points="317.269,-110.5 317.269,-128.5 357.7221,-128.5 357.7221,-110.5 317.269,-110.5"/>
<text text-anchor="middle" x="337.4955" y="-116.5" font-family="Helvetica,sans-Serif" font-size="10.00" fill="#000000">mpi.h</text>
</a>
</g>
</g>
<!-- Node2&#45;&gt;Node4 -->
<g id="edge4" class="edge">
<title>Node2&#45;&gt;Node4</title>
<path fill="none" stroke="#191970" d="M314.5576,-222.1153C293.276,-215.8233 268.4649,-204.4089 255.4955,-184 239.5236,-158.8662 277.8903,-139.4117 307.3866,-128.7086"/>
<polygon fill="#191970" stroke="#191970" points="308.6389,-131.9792 316.9583,-125.4188 306.3636,-125.3593 308.6389,-131.9792"/>
</g>
<!-- Node5 -->
<g id="node6" class="node">
<title>Node5</title>
<g id="a_node6"><a xlink:href="index_8h.html" target="_top" xlink:title=" ">
<polygon fill="#ffffff" stroke="#000000" points="647.4096,-165.5 647.4096,-183.5 759.5815,-183.5 759.5815,-165.5 647.4096,-165.5"/>
<text text-anchor="middle" x="703.4955" y="-171.5" font-family="Helvetica,sans-Serif" font-size="10.00" fill="#000000">parallelization/index.h</text>
</a>
</g>
</g>
<!-- Node2&#45;&gt;Node5 -->
<g id="edge5" class="edge">
<title>Node2&#45;&gt;Node5</title>
<path fill="none" stroke="#191970" d="M390.3922,-223.5618C449.4793,-214.3031 564.3343,-196.3059 637.3025,-184.8721"/>
<polygon fill="#191970" stroke="#191970" points="637.9728,-188.3099 647.3104,-183.3039 636.8891,-181.3943 637.9728,-188.3099"/>
</g>
<!-- Node6 -->
<g id="node7" class="node">
<title>Node6</title>
<g id="a_node7"><a xlink:href="neighbours_8h.html" target="_top" xlink:title=" ">
<polygon fill="#ffffff" stroke="#000000" points="453.6215,-165.5 453.6215,-183.5 591.3696,-183.5 591.3696,-165.5 453.6215,-165.5"/>
<text text-anchor="middle" x="522.4955" y="-171.5" font-family="Helvetica,sans-Serif" font-size="10.00" fill="#000000">parallelization/neighbours.h</text>
</a>
</g>
</g>
<!-- Node2&#45;&gt;Node6 -->
<g id="edge7" class="edge">
<title>Node2&#45;&gt;Node6</title>
<path fill="none" stroke="#191970" d="M380.5676,-220.4179C409.0749,-211.1949 453.393,-196.8567 484.9156,-186.6582"/>
<polygon fill="#191970" stroke="#191970" points="486.2273,-189.9125 494.6643,-183.5042 484.0725,-183.2524 486.2273,-189.9125"/>
</g>
<!-- Node8 -->
<g id="node9" class="node">
<title>Node8</title>
<g id="a_node9"><a xlink:href="parallelparameters_8h.html" target="_top" xlink:title=" ">
<polygon fill="#ffffff" stroke="#000000" points="264.954,-165.5 264.954,-183.5 436.037,-183.5 436.037,-165.5 264.954,-165.5"/>
<text text-anchor="middle" x="350.4955" y="-171.5" font-family="Helvetica,sans-Serif" font-size="10.00" fill="#000000">parallelization/parallelparameters.h</text>
</a>
</g>
</g>
<!-- Node2&#45;&gt;Node8 -->
<g id="edge10" class="edge">
<title>Node2&#45;&gt;Node8</title>
<path fill="none" stroke="#191970" d="M352.1653,-220.4179C351.9034,-213.2164 351.5281,-202.8962 351.1996,-193.8632"/>
<polygon fill="#191970" stroke="#191970" points="354.6941,-193.6456 350.833,-183.7795 347.6988,-193.9001 354.6941,-193.6456"/>
</g>
<!-- Node9 -->
<g id="node10" class="node">
<title>Node9</title>
<g id="a_node10"><a xlink:href="functions_8h.html" target="_top" xlink:title=" ">
<polygon fill="#ffffff" stroke="#000000" points="144.3134,-165.5 144.3134,-183.5 208.6777,-183.5 208.6777,-165.5 144.3134,-165.5"/>
<text text-anchor="middle" x="176.4955" y="-171.5" font-family="Helvetica,sans-Serif" font-size="10.00" fill="#000000">functions.h</text>
</a>
</g>
</g>
<!-- Node2&#45;&gt;Node9 -->
<g id="edge12" class="edge">
<title>Node2&#45;&gt;Node9</title>
<path fill="none" stroke="#191970" d="M323.4327,-220.4179C293.7914,-211.155 247.6394,-196.7325 214.9787,-186.526"/>
<polygon fill="#191970" stroke="#191970" points="215.8978,-183.1463 205.309,-183.5042 213.8098,-189.8277 215.8978,-183.1463"/>
</g>
<!-- Node5&#45;&gt;Node3 -->
<g id="edge6" class="edge">
<title>Node5&#45;&gt;Node3</title>
<path fill="none" stroke="#191970" d="M720.5039,-165.4179C736.8299,-156.7001 761.7145,-143.4122 780.521,-133.3699"/>
<polygon fill="#191970" stroke="#191970" points="782.2894,-136.3934 789.4619,-128.5956 778.9921,-130.2186 782.2894,-136.3934"/>
</g>
<!-- Node6&#45;&gt;Node3 -->
<g id="edge9" class="edge">
<title>Node6&#45;&gt;Node3</title>
<path fill="none" stroke="#191970" d="M569.0743,-165.4795C627.1051,-154.2411 724.7079,-135.3392 774.7746,-125.6431"/>
<polygon fill="#191970" stroke="#191970" points="775.5534,-129.0574 784.7055,-123.7199 774.2224,-122.1851 775.5534,-129.0574"/>
</g>
<!-- Node7 -->
<g id="node8" class="node">
<title>Node7</title>
<g id="a_node8"><a xlink:href="neighbourlist_8h.html" target="_top" xlink:title=" ">
<polygon fill="#ffffff" stroke="#000000" points="481.9736,-110.5 481.9736,-128.5 563.0175,-128.5 563.0175,-110.5 481.9736,-110.5"/>
<text text-anchor="middle" x="522.4955" y="-116.5" font-family="Helvetica,sans-Serif" font-size="10.00" fill="#000000">neighbourlist.h</text>
</a>
</g>
</g>
<!-- Node6&#45;&gt;Node7 -->
<g id="edge8" class="edge">
<title>Node6&#45;&gt;Node7</title>
<path fill="none" stroke="#191970" d="M522.4955,-165.4179C522.4955,-158.2164 522.4955,-147.8962 522.4955,-138.8632"/>
<polygon fill="#191970" stroke="#191970" points="525.9956,-138.7794 522.4955,-128.7795 518.9956,-138.7795 525.9956,-138.7794"/>
</g>
<!-- Node8&#45;&gt;Node4 -->
<g id="edge11" class="edge">
<title>Node8&#45;&gt;Node4</title>
<path fill="none" stroke="#191970" d="M348.3488,-165.4179C346.628,-158.1372 344.1537,-147.669 342.002,-138.5659"/>
<polygon fill="#191970" stroke="#191970" points="345.3953,-137.7062 339.6889,-128.7795 338.583,-139.3164 345.3953,-137.7062"/>
</g>
<!-- Node10 -->
<g id="node11" class="node">
<title>Node10</title>
<g id="a_node11"><a xlink:href="su3_8h.html" target="_top" xlink:title=" ">
<polygon fill="#ffffff" stroke="#000000" points="66.9833,-110.5 66.9833,-128.5 148.0077,-128.5 148.0077,-110.5 66.9833,-110.5"/>
<text text-anchor="middle" x="107.4955" y="-116.5" font-family="Helvetica,sans-Serif" font-size="10.00" fill="#000000">matrices/su3.h</text>
</a>
</g>
</g>
<!-- Node9&#45;&gt;Node10 -->
<g id="edge13" class="edge">
<title>Node9&#45;&gt;Node10</title>
<path fill="none" stroke="#191970" d="M165.1016,-165.4179C154.7763,-157.1876 139.3408,-144.8839 127.0458,-135.0836"/>
<polygon fill="#191970" stroke="#191970" points="129.1384,-132.2757 119.137,-128.7795 124.7752,-137.7495 129.1384,-132.2757"/>
</g>
<!-- Node11 -->
<g id="node12" class="node">
<title>Node11</title>
<g id="a_node12"><a xlink:href="complex_8h.html" target="_top" xlink:title=" ">
<polygon fill="#ffffff" stroke="#000000" points="133.2026,-55.5 133.2026,-73.5 219.7885,-73.5 219.7885,-55.5 133.2026,-55.5"/>
<text text-anchor="middle" x="176.4955" y="-61.5" font-family="Helvetica,sans-Serif" font-size="10.00" fill="#000000">math/complex.h</text>
</a>
</g>
</g>
<!-- Node9&#45;&gt;Node11 -->
<g id="edge18" class="edge">
<title>Node9&#45;&gt;Node11</title>
<path fill="none" stroke="#191970" d="M176.4955,-165.4982C176.4955,-147.6913 176.4955,-107.6225 176.4955,-83.6515"/>
<polygon fill="#191970" stroke="#191970" points="179.9956,-83.6261 176.4955,-73.6261 172.9956,-83.6262 179.9956,-83.6261"/>
</g>
<!-- Node13 -->
<g id="node14" class="node">
<title>Node13</title>
<g id="a_node14"><a xlink:href="su2_8h.html" target="_top" xlink:title=" ">
<polygon fill="#ffffff" stroke="#000000" points="204.9833,-110.5 204.9833,-128.5 286.0077,-128.5 286.0077,-110.5 204.9833,-110.5"/>
<text text-anchor="middle" x="245.4955" y="-116.5" font-family="Helvetica,sans-Serif" font-size="10.00" fill="#000000">matrices/su2.h</text>
</a>
</g>
</g>
<!-- Node9&#45;&gt;Node13 -->
<g id="edge16" class="edge">
<title>Node9&#45;&gt;Node13</title>
<path fill="none" stroke="#191970" d="M187.8895,-165.4179C198.2148,-157.1876 213.6503,-144.8839 225.9453,-135.0836"/>
<polygon fill="#191970" stroke="#191970" points="228.2159,-137.7495 233.854,-128.7795 223.8527,-132.2757 228.2159,-137.7495"/>
</g>
<!-- Node10&#45;&gt;Node11 -->
<g id="edge14" class="edge">
<title>Node10&#45;&gt;Node11</title>
<path fill="none" stroke="#191970" d="M118.8895,-110.4179C129.2148,-102.1876 144.6503,-89.8839 156.9453,-80.0836"/>
<polygon fill="#191970" stroke="#191970" points="159.2159,-82.7495 164.854,-73.7795 154.8527,-77.2757 159.2159,-82.7495"/>
</g>
<!-- Node12 -->
<g id="node13" class="node">
<title>Node12</title>
<g id="a_node13"><a xlink:title=" ">
<polygon fill="#ffffff" stroke="#bfbfbf" points="149.3232,-.5 149.3232,-18.5 203.6679,-18.5 203.6679,-.5 149.3232,-.5"/>
<text text-anchor="middle" x="176.4955" y="-6.5" font-family="Helvetica,sans-Serif" font-size="10.00" fill="#000000">iostream</text>
</a>
</g>
</g>
<!-- Node11&#45;&gt;Node12 -->
<g id="edge15" class="edge">
<title>Node11&#45;&gt;Node12</title>
<path fill="none" stroke="#191970" d="M176.4955,-55.4179C176.4955,-48.2164 176.4955,-37.8962 176.4955,-28.8632"/>
<polygon fill="#191970" stroke="#191970" points="179.9956,-28.7794 176.4955,-18.7795 172.9956,-28.7795 179.9956,-28.7794"/>
</g>
<!-- Node13&#45;&gt;Node11 -->
<g id="edge17" class="edge">
<title>Node13&#45;&gt;Node11</title>
<path fill="none" stroke="#191970" d="M234.1016,-110.4179C223.7763,-102.1876 208.3408,-89.8839 196.0458,-80.0836"/>
<polygon fill="#191970" stroke="#191970" points="198.1384,-77.2757 188.137,-73.7795 193.7752,-82.7495 198.1384,-77.2757"/>
</g>
<!-- Node14&#45;&gt;Node1 -->
<g id="edge42" class="edge">
<title>Node14&#45;&gt;Node1</title>
<path fill="none" stroke="#191970" d="M362.7023,-403.7795C364.1747,-411.0373 364.5935,-421.3738 363.9587,-430.383"/>
<polygon fill="#191970" stroke="#191970" points="360.4725,-430.0517 362.6619,-440.4179 367.4147,-430.949 360.4725,-430.0517"/>
</g>
<!-- Node15 -->
<g id="node16" class="node">
<title>Node15</title>
<g id="a_node16"><a xlink:href="correlator_8h.html" target="_top" xlink:title=" ">
<polygon fill="#ffffff" stroke="#000000" points="566.4809,-275.5 566.4809,-293.5 632.5102,-293.5 632.5102,-275.5 566.4809,-275.5"/>
<text text-anchor="middle" x="599.4955" y="-281.5" font-family="Helvetica,sans-Serif" font-size="10.00" fill="#000000">correlator.h</text>
</a>
</g>
</g>
<!-- Node14&#45;&gt;Node15 -->
<g id="edge20" class="edge">
<title>Node14&#45;&gt;Node15</title>
<path fill="none" stroke="#191970" d="M425.2942,-387.9804C503.1652,-379.7944 621.9979,-364.8864 635.4955,-349 648.1063,-334.1574 633.0836,-314.2245 618.7766,-300.4651"/>
<polygon fill="#191970" stroke="#191970" points="620.8528,-297.6244 611.082,-293.5276 616.1654,-302.8233 620.8528,-297.6244"/>
</g>
<!-- Node18 -->
<g id="node19" class="node">
<title>Node18</title>
<g id="a_node19"><a xlink:href="energydensity_8h.html" target="_top" xlink:title=" ">
<polygon fill="#ffffff" stroke="#000000" points="420.5639,-330.5 420.5639,-348.5 506.4272,-348.5 506.4272,-330.5 420.5639,-330.5"/>
<text text-anchor="middle" x="463.4955" y="-336.5" font-family="Helvetica,sans-Serif" font-size="10.00" fill="#000000">energydensity.h</text>
</a>
</g>
</g>
<!-- Node14&#45;&gt;Node18 -->
<g id="edge26" class="edge">
<title>Node14&#45;&gt;Node18</title>
<path fill="none" stroke="#191970" d="M374.9993,-385.4179C391.8775,-376.6603 417.6443,-363.2907 437.0292,-353.2326"/>
<polygon fill="#191970" stroke="#191970" points="438.7015,-356.308 445.9658,-348.5956 435.4775,-350.0946 438.7015,-356.308"/>
</g>
<!-- Node19 -->
<g id="node20" class="node">
<title>Node19</title>
<g id="a_node20"><a xlink:href="plaquette_8h.html" target="_top" xlink:title=" ">
<polygon fill="#ffffff" stroke="#000000" points="682.7519,-330.5 682.7519,-348.5 748.2392,-348.5 748.2392,-330.5 682.7519,-330.5"/>
<text text-anchor="middle" x="715.4955" y="-336.5" font-family="Helvetica,sans-Serif" font-size="10.00" fill="#000000">plaquette.h</text>
</a>
</g>
</g>
<!-- Node14&#45;&gt;Node19 -->
<g id="edge29" class="edge">
<title>Node14&#45;&gt;Node19</title>
<path fill="none" stroke="#191970" d="M425.0035,-385.6972C488.1128,-377.2138 584.8998,-363.5526 668.4955,-349 669.7872,-348.7751 671.0979,-348.542 672.4203,-348.3024"/>
<polygon fill="#191970" stroke="#191970" points="673.4895,-351.6626 682.6683,-346.3711 672.1931,-344.7837 673.4895,-351.6626"/>
</g>
<!-- Node20 -->
<g id="node21" class="node">
<title>Node20</title>
<g id="a_node21"><a xlink:href="topologicalcharge_8h.html" target="_top" xlink:title=" ">
<polygon fill="#ffffff" stroke="#000000" points="524.1313,-330.5 524.1313,-348.5 626.8598,-348.5 626.8598,-330.5 524.1313,-330.5"/>
<text text-anchor="middle" x="575.4955" y="-336.5" font-family="Helvetica,sans-Serif" font-size="10.00" fill="#000000">topologicalcharge.h</text>
</a>
</g>
</g>
<!-- Node14&#45;&gt;Node20 -->
<g id="edge31" class="edge">
<title>Node14&#45;&gt;Node20</title>
<path fill="none" stroke="#191970" d="M393.4938,-385.4179C430.8416,-375.9953 489.3514,-361.2336 529.9062,-351.0019"/>
<polygon fill="#191970" stroke="#191970" points="530.9662,-354.3442 539.8061,-348.5042 529.2537,-347.5569 530.9662,-354.3442"/>
</g>
<!-- Node21 -->
<g id="node22" class="node">
<title>Node21</title>
<g id="a_node22"><a xlink:href="mastersampler_8h.html" target="_top" xlink:title=" ">
<polygon fill="#ffffff" stroke="#000000" points="312.5351,-330.5 312.5351,-348.5 402.456,-348.5 402.456,-330.5 312.5351,-330.5"/>
<text text-anchor="middle" x="357.4955" y="-336.5" font-family="Helvetica,sans-Serif" font-size="10.00" fill="#000000">mastersampler.h</text>
</a>
</g>
</g>
<!-- Node14&#45;&gt;Node21 -->
<g id="edge33" class="edge">
<title>Node14&#45;&gt;Node21</title>
<path fill="none" stroke="#191970" d="M352.3292,-385.4179C350.8377,-378.2164 350.3997,-367.8962 351.0153,-358.8632"/>
<polygon fill="#191970" stroke="#191970" points="354.5082,-359.1392 352.2888,-348.7795 347.5633,-358.2621 354.5082,-359.1392"/>
</g>
<!-- Node22 -->
<g id="node23" class="node">
<title>Node22</title>
<g id="a_node23"><a xlink:href="mastersamplertopcxyz_8h.html" target="_top" xlink:title=" ">
<polygon fill="#ffffff" stroke="#000000" points="13.311,-330.5 13.311,-348.5 137.6801,-348.5 137.6801,-330.5 13.311,-330.5"/>
<text text-anchor="middle" x="75.4955" y="-336.5" font-family="Helvetica,sans-Serif" font-size="10.00" fill="#000000">mastersamplertopcxyz.h</text>
</a>
</g>
</g>
<!-- Node14&#45;&gt;Node22 -->
<g id="edge36" class="edge">
<title>Node14&#45;&gt;Node22</title>
<path fill="none" stroke="#191970" d="M306.0912,-385.4795C255.0221,-375.9083 177.3235,-360.7787 126.4238,-350.5111"/>
<polygon fill="#191970" stroke="#191970" points="127.1127,-347.0796 116.617,-348.5255 125.7236,-353.9404 127.1127,-347.0796"/>
</g>
<!-- Node23 -->
<g id="node24" class="node">
<title>Node23</title>
<g id="a_node24"><a xlink:href="latticeactionchargedensity_8h.html" target="_top" xlink:title=" ">
<polygon fill="#ffffff" stroke="#000000" points="156.1601,-330.5 156.1601,-348.5 294.831,-348.5 294.831,-330.5 156.1601,-330.5"/>
<text text-anchor="middle" x="225.4955" y="-336.5" font-family="Helvetica,sans-Serif" font-size="10.00" fill="#000000">latticeactionchargedensity.h</text>
</a>
</g>
</g>
<!-- Node14&#45;&gt;Node23 -->
<g id="edge39" class="edge">
<title>Node14&#45;&gt;Node23</title>
<path fill="none" stroke="#191970" d="M330.5321,-385.4179C307.285,-376.5011 274.1781,-362.803 251.2839,-352.6873"/>
<polygon fill="#191970" stroke="#191970" points="252.7128,-349.4922 242.1559,-348.5956 249.8495,-355.8799 252.7128,-349.4922"/>
</g>
<!-- Node15&#45;&gt;Node2 -->
<g id="edge21" class="edge">
<title>Node15&#45;&gt;Node2</title>
<path fill="none" stroke="#191970" d="M566.4403,-277.1395C523.8544,-267.6568 449.5073,-251.1018 400.6405,-240.2205"/>
<polygon fill="#191970" stroke="#191970" points="401.1419,-236.7465 390.6202,-237.9893 399.6204,-243.5792 401.1419,-236.7465"/>
</g>
<!-- Node15&#45;&gt;Node3 -->
<g id="edge25" class="edge">
<title>Node15&#45;&gt;Node3</title>
<path fill="none" stroke="#191970" d="M622.131,-275.442C656.9958,-260.5993 724.4136,-228.2628 768.4955,-184 781.6506,-170.791 791.9937,-152.135 798.5461,-138.2827"/>
<polygon fill="#191970" stroke="#191970" points="801.9021,-139.3526 802.8016,-128.796 795.5153,-136.4876 801.9021,-139.3526"/>
</g>
<!-- Node16 -->
<g id="node17" class="node">
<title>Node16</title>
<g id="a_node17"><a xlink:href="observablestorer_8h.html" target="_top" xlink:title=" ">
<polygon fill="#ffffff" stroke="#000000" points="764.4072,-220.5 764.4072,-238.5 886.5839,-238.5 886.5839,-220.5 764.4072,-220.5"/>
<text text-anchor="middle" x="825.4955" y="-226.5" font-family="Helvetica,sans-Serif" font-size="10.00" fill="#000000">tools/observablestorer.h</text>
</a>
</g>
</g>
<!-- Node15&#45;&gt;Node16 -->
<g id="edge22" class="edge">
<title>Node15&#45;&gt;Node16</title>
<path fill="none" stroke="#191970" d="M632.8426,-276.3846C671.3447,-267.0146 734.9487,-251.5357 778.4653,-240.9454"/>
<polygon fill="#191970" stroke="#191970" points="779.3587,-244.3302 788.2475,-238.5648 777.7034,-237.5287 779.3587,-244.3302"/>
</g>
<!-- Node16&#45;&gt;Node3 -->
<g id="edge24" class="edge">
<title>Node16&#45;&gt;Node3</title>
<path fill="none" stroke="#191970" d="M823.9407,-220.4982C820.8649,-202.6913 813.944,-162.6225 809.8035,-138.6515"/>
<polygon fill="#191970" stroke="#191970" points="813.2229,-137.8845 808.0719,-128.6261 806.3251,-139.076 813.2229,-137.8845"/>
</g>
<!-- Node17 -->
<g id="node18" class="node">
<title>Node17</title>
<g id="a_node18"><a xlink:title=" ">
<polygon fill="#ffffff" stroke="#bfbfbf" points="894.269,-165.5 894.269,-183.5 934.7221,-183.5 934.7221,-165.5 894.269,-165.5"/>
<text text-anchor="middle" x="914.4955" y="-171.5" font-family="Helvetica,sans-Serif" font-size="10.00" fill="#000000">string</text>
</a>
</g>
</g>
<!-- Node16&#45;&gt;Node17 -->
<g id="edge23" class="edge">
<title>Node16&#45;&gt;Node17</title>
<path fill="none" stroke="#191970" d="M840.1921,-220.4179C853.9769,-211.8992 874.8233,-199.0166 890.9304,-189.0627"/>
<polygon fill="#191970" stroke="#191970" points="893.1104,-191.83 899.7772,-183.5956 889.4305,-185.8753 893.1104,-191.83"/>
</g>
<!-- Node18&#45;&gt;Node9 -->
<g id="edge28" class="edge">
<title>Node18&#45;&gt;Node9</title>
<path fill="none" stroke="#191970" d="M447.6564,-330.3939C400.1246,-303.0673 258.46,-221.6224 201.0582,-188.6214"/>
<polygon fill="#191970" stroke="#191970" points="202.6996,-185.5279 192.2858,-183.578 199.2107,-191.5965 202.6996,-185.5279"/>
</g>
<!-- Node18&#45;&gt;Node15 -->
<g id="edge27" class="edge">
<title>Node18&#45;&gt;Node15</title>
<path fill="none" stroke="#191970" d="M485.9532,-330.4179C508.1988,-321.4215 542.4792,-307.5581 567.5549,-297.4172"/>
<polygon fill="#191970" stroke="#191970" points="569.0461,-300.5895 577.0045,-293.5956 566.4217,-294.1001 569.0461,-300.5895"/>
</g>
<!-- Node19&#45;&gt;Node15 -->
<g id="edge30" class="edge">
<title>Node19&#45;&gt;Node15</title>
<path fill="none" stroke="#191970" d="M696.3405,-330.4179C677.7021,-321.5807 649.1589,-308.0473 627.8819,-297.9591"/>
<polygon fill="#191970" stroke="#191970" points="629.2143,-294.7174 618.679,-293.5956 626.2153,-301.0424 629.2143,-294.7174"/>
</g>
<!-- Node20&#45;&gt;Node15 -->
<g id="edge32" class="edge">
<title>Node20&#45;&gt;Node15</title>
<path fill="none" stroke="#191970" d="M579.4586,-330.4179C582.7047,-322.9789 587.4029,-312.2123 591.4341,-302.9742"/>
<polygon fill="#191970" stroke="#191970" points="594.6547,-304.3447 595.4463,-293.7795 588.2389,-301.545 594.6547,-304.3447"/>
</g>
<!-- Node21&#45;&gt;Node2 -->
<g id="edge34" class="edge">
<title>Node21&#45;&gt;Node2</title>
<path fill="none" stroke="#191970" d="M357.0864,-330.4982C356.277,-312.6913 354.4556,-272.6225 353.3661,-248.6515"/>
<polygon fill="#191970" stroke="#191970" points="356.8609,-248.4569 352.9104,-238.6261 349.8681,-248.7748 356.8609,-248.4569"/>
</g>
<!-- Node21&#45;&gt;Node14 -->
<g id="edge35" class="edge">
<title>Node21&#45;&gt;Node14</title>
<path fill="none" stroke="#191970" d="M362.7023,-348.7795C364.1747,-356.0373 364.5935,-366.3738 363.9587,-375.383"/>
<polygon fill="#191970" stroke="#191970" points="360.4725,-375.0517 362.6619,-385.4179 367.4147,-375.949 360.4725,-375.0517"/>
</g>
<!-- Node22&#45;&gt;Node2 -->
<g id="edge37" class="edge">
<title>Node22&#45;&gt;Node2</title>
<path fill="none" stroke="#191970" d="M98.1636,-330.4982C147.1641,-311.0396 263.1067,-264.9974 319.9431,-242.4269"/>
<polygon fill="#191970" stroke="#191970" points="321.512,-245.5699 329.5142,-238.6261 318.9285,-239.0641 321.512,-245.5699"/>
</g>
<!-- Node22&#45;&gt;Node14 -->
<g id="edge38" class="edge">
<title>Node22&#45;&gt;Node14</title>
<path fill="none" stroke="#191970" d="M126.9261,-348.5255C178.0044,-358.0985 255.703,-373.2282 306.5934,-383.4942"/>
<polygon fill="#191970" stroke="#191970" points="305.9025,-386.9253 316.3983,-385.4795 307.2918,-380.0645 305.9025,-386.9253"/>
</g>
<!-- Node23&#45;&gt;Node2 -->
<g id="edge40" class="edge">
<title>Node23&#45;&gt;Node2</title>
<path fill="none" stroke="#191970" d="M235.8885,-330.4982C257.4707,-311.805 307.3775,-268.5786 334.3733,-245.1964"/>
<polygon fill="#191970" stroke="#191970" points="336.6916,-247.8188 341.959,-238.6261 332.1086,-242.5276 336.6916,-247.8188"/>
</g>
<!-- Node23&#45;&gt;Node14 -->
<g id="edge41" class="edge">
<title>Node23&#45;&gt;Node14</title>
<path fill="none" stroke="#191970" d="M252.4941,-348.5956C275.6474,-357.4774 308.5624,-371.0937 331.4347,-381.1924"/>
<polygon fill="#191970" stroke="#191970" points="330.3078,-384.5227 340.8647,-385.4179 333.1702,-378.1347 330.3078,-384.5227"/>
</g>
<!-- Node26&#45;&gt;Node2 -->
<g id="edge47" class="edge">
<title>Node26&#45;&gt;Node2</title>
<path fill="none" stroke="#191970" d="M942.1819,-278.2711C804.3441,-266.8709 515.1558,-242.9531 400.6559,-233.4832"/>
<polygon fill="#191970" stroke="#191970" points="400.7075,-229.9756 390.453,-232.6393 400.1304,-236.9518 400.7075,-229.9756"/>
</g>
<!-- Node26&#45;&gt;Node3 -->
<g id="edge46" class="edge">
<title>Node26&#45;&gt;Node3</title>
<path fill="none" stroke="#191970" d="M1027.4344,-275.1674C1039.675,-262.4909 1057.6702,-239.2073 1047.4955,-220 1027.126,-181.5473 1005.925,-183.4078 966.4955,-165 924.1112,-145.2127 871.3107,-132.2502 838.2414,-125.3974"/>
<polygon fill="#191970" stroke="#191970" points="838.7298,-121.9257 828.2362,-123.3863 837.3503,-128.7884 838.7298,-121.9257"/>
</g>
<!-- Node27&#45;&gt;Node3 -->
<g id="edge50" class="edge">
<title>Node27&#45;&gt;Node3</title>
<path fill="none" stroke="#191970" d="M959.8182,-440.434C1030.3812,-423.3819 1158.4955,-379.3601 1158.4955,-284.5 1158.4955,-284.5 1158.4955,-284.5 1158.4955,-229.5 1158.4955,-162.7369 924.8866,-131.7487 838.2898,-122.5552"/>
<polygon fill="#191970" stroke="#191970" points="838.5559,-119.0641 828.2491,-121.5175 837.8363,-126.027 838.5559,-119.0641"/>
</g>
<!-- Node27&#45;&gt;Node17 -->
<g id="edge49" class="edge">
<title>Node27&#45;&gt;Node17</title>
<path fill="none" stroke="#191970" d="M914.4955,-440.3733C914.4955,-421.5256 914.4955,-376.9306 914.4955,-339.5 914.4955,-339.5 914.4955,-339.5 914.4955,-284.5 914.4955,-252.7718 914.4955,-215.8957 914.4955,-193.917"/>
<polygon fill="#191970" stroke="#191970" points="917.9956,-193.6266 914.4955,-183.6267 910.9956,-193.6267 917.9956,-193.6266"/>
</g>
<!-- Node28 -->
<g id="node29" class="node">
<title>Node28</title>
<g id="a_node29"><a xlink:href="sysprint_8h.html" target="_top" xlink:title=" ">
<polygon fill="#ffffff" stroke="#000000" points="798.3676,-385.5 798.3676,-403.5 886.6235,-403.5 886.6235,-385.5 798.3676,-385.5"/>
<text text-anchor="middle" x="842.4955" y="-391.5" font-family="Helvetica,sans-Serif" font-size="10.00" fill="#000000">config/sysprint.h</text>
</a>
</g>
</g>
<!-- Node27&#45;&gt;Node28 -->
<g id="edge51" class="edge">
<title>Node27&#45;&gt;Node28</title>
<path fill="none" stroke="#191970" d="M897.4399,-440.4179C885.081,-432.2667 868.8416,-420.1201 857.0851,-410.3669"/>
<polygon fill="#191970" stroke="#191970" points="859.2976,-407.6534 849.4364,-403.7795 854.7295,-412.9574 859.2976,-407.6534"/>
</g>
<!-- Node28&#45;&gt;Node27 -->
<g id="edge52" class="edge">
<title>Node28&#45;&gt;Node27</title>
<path fill="none" stroke="#191970" d="M859.5716,-403.5956C872.0092,-411.8003 888.3697,-424.0451 900.1373,-433.8251"/>
<polygon fill="#191970" stroke="#191970" points="897.9162,-436.5315 907.7725,-440.4179 902.491,-431.2333 897.9162,-436.5315"/>
</g>
<!-- Node29 -->
<g id="node30" class="node">
<title>Node29</title>
<g id="a_node30"><a xlink:href="parallel_8h.html" target="_top" xlink:title=" ">
<polygon fill="#ffffff" stroke="#000000" points="766.2421,-330.5 766.2421,-348.5 886.7489,-348.5 886.7489,-330.5 766.2421,-330.5"/>
<text text-anchor="middle" x="826.4955" y="-336.5" font-family="Helvetica,sans-Serif" font-size="10.00" fill="#000000">parallelization/parallel.h</text>
</a>
</g>
</g>
<!-- Node28&#45;&gt;Node29 -->
<g id="edge53" class="edge">
<title>Node28&#45;&gt;Node29</title>
<path fill="none" stroke="#191970" d="M839.8535,-385.4179C837.7354,-378.1372 834.6901,-367.669 832.042,-358.5659"/>
<polygon fill="#191970" stroke="#191970" points="835.3491,-357.4037 829.195,-348.7795 828.6277,-359.3591 835.3491,-357.4037"/>
</g>
<!-- Node29&#45;&gt;Node5 -->
<g id="edge55" class="edge">
<title>Node29&#45;&gt;Node5</title>
<path fill="none" stroke="#191970" d="M819.5301,-330.1561C799.6567,-303.4967 742.4514,-226.7578 716.5341,-191.9907"/>
<polygon fill="#191970" stroke="#191970" points="719.1674,-189.667 710.3846,-183.7414 713.5551,-193.8507 719.1674,-189.667"/>
</g>
<!-- Node29&#45;&gt;Node8 -->
<g id="edge56" class="edge">
<title>Node29&#45;&gt;Node8</title>
<path fill="none" stroke="#191970" d="M800.4621,-330.3965C764.6612,-317.8836 698.2128,-294.6811 641.4955,-275 549.7501,-243.164 441.6516,-205.8942 386.6266,-186.9402"/>
<polygon fill="#191970" stroke="#191970" points="387.5805,-183.567 376.9858,-183.6196 385.3009,-190.1854 387.5805,-183.567"/>
</g>
<!-- Node29&#45;&gt;Node26 -->
<g id="edge54" class="edge">
<title>Node29&#45;&gt;Node26</title>
<path fill="none" stroke="#191970" d="M858.0353,-330.4179C890.3415,-321.115 940.7204,-306.608 976.19,-296.3943"/>
<polygon fill="#191970" stroke="#191970" points="977.5854,-299.6348 986.2264,-293.5042 975.6483,-292.9081 977.5854,-299.6348"/>
</g>
<!-- Node30&#45;&gt;Node3 -->
<g id="edge59" class="edge">
<title>Node30&#45;&gt;Node3</title>
<path fill="none" stroke="#191970" d="M986.0888,-220.176C979.0233,-206.1995 963.8587,-179.8741 943.4955,-165 911.9525,-141.9596 868.0363,-130.109 838.5051,-124.3632"/>
<polygon fill="#191970" stroke="#191970" points="838.7903,-120.8578 828.3256,-122.5131 837.5386,-127.745 838.7903,-120.8578"/>
</g>
<!-- Node30&#45;&gt;Node17 -->
<g id="edge58" class="edge">
<title>Node30&#45;&gt;Node17</title>
<path fill="none" stroke="#191970" d="M977.9457,-220.4179C966.3944,-212.0584 949.0363,-199.4966 935.394,-189.6239"/>
<polygon fill="#191970" stroke="#191970" points="937.2172,-186.6229 927.064,-183.5956 933.1133,-192.2938 937.2172,-186.6229"/>
</g>
</g>
</svg>
