<?xml version="1.0" encoding="UTF-8" standalone="no"?>
<!DOCTYPE svg PUBLIC "-//W3C//DTD SVG 1.1//EN"
 "http://www.w3.org/Graphics/SVG/1.1/DTD/svg11.dtd">
<!-- Generated by graphviz version 2.40.1 (20161225.0304)
 -->
<!-- Title: GluonicLQCD/config/sysprint.h Pages: 1 -->
<svg width="758pt" height="422pt"
 viewBox="0.00 0.00 757.77 422.00" xmlns="http://www.w3.org/2000/svg" xmlns:xlink="http://www.w3.org/1999/xlink">
<g id="graph0" class="graph" transform="scale(1 1) rotate(0) translate(4 418)">
<title>GluonicLQCD/config/sysprint.h</title>
<polygon fill="#ffffff" stroke="transparent" points="-4,4 -4,-418 753.7681,-418 753.7681,4 -4,4"/>
<!-- Node0 -->
<g id="node1" class="node">
<title>Node0</title>
<g id="a_node1"><a xlink:title=" ">
<polygon fill="#bfbfbf" stroke="#000000" points="627.9653,-385.5 627.9653,-413.5 735.1177,-413.5 735.1177,-385.5 627.9653,-385.5"/>
<text text-anchor="start" x="635.9653" y="-401.5" font-family="Helvetica,sans-Serif" font-size="10.00" fill="#000000">GluonicLQCD/config</text>
<text text-anchor="middle" x="681.5415" y="-391.5" font-family="Helvetica,sans-Serif" font-size="10.00" fill="#000000">/sysprint.h</text>
</a>
</g>
</g>
<!-- Node1 -->
<g id="node2" class="node">
<title>Node1</title>
<g id="a_node2"><a xlink:href="parameters_8h.html" target="_top" xlink:title=" ">
<polygon fill="#ffffff" stroke="#000000" points="644.0835,-330.5 644.0835,-348.5 718.9995,-348.5 718.9995,-330.5 644.0835,-330.5"/>
<text text-anchor="middle" x="681.5415" y="-336.5" font-family="Helvetica,sans-Serif" font-size="10.00" fill="#000000">parameters.h</text>
</a>
</g>
</g>
<!-- Node0&#45;&gt;Node1 -->
<g id="edge1" class="edge">
<title>Node0&#45;&gt;Node1</title>
<path fill="none" stroke="#191970" d="M675.7016,-385.2808C674.684,-377.2888 674.5198,-367.2079 675.2088,-358.5414"/>
<polygon fill="#191970" stroke="#191970" points="678.684,-358.9594 676.538,-348.5842 671.7455,-358.0331 678.684,-358.9594"/>
</g>
<!-- Node4 -->
<g id="node5" class="node">
<title>Node4</title>
<g id="a_node5"><a xlink:href="parallel_8h.html" target="_top" xlink:title=" ">
<polygon fill="#ffffff" stroke="#000000" points="492.2881,-330.5 492.2881,-348.5 612.7949,-348.5 612.7949,-330.5 492.2881,-330.5"/>
<text text-anchor="middle" x="552.5415" y="-336.5" font-family="Helvetica,sans-Serif" font-size="10.00" fill="#000000">parallelization/parallel.h</text>
</a>
</g>
</g>
<!-- Node0&#45;&gt;Node4 -->
<g id="edge5" class="edge">
<title>Node0&#45;&gt;Node4</title>
<path fill="none" stroke="#191970" d="M651.2967,-385.4327C630.2102,-375.625 602.2424,-362.6167 581.4541,-352.9477"/>
<polygon fill="#191970" stroke="#191970" points="582.7166,-349.6749 572.1733,-348.6311 579.7644,-356.022 582.7166,-349.6749"/>
</g>
<!-- Node1&#45;&gt;Node0 -->
<g id="edge4" class="edge">
<title>Node1&#45;&gt;Node0</title>
<path fill="none" stroke="#191970" d="M686.545,-348.5842C688.0016,-355.6598 688.5471,-365.8253 688.1814,-375.2151"/>
<polygon fill="#191970" stroke="#191970" points="684.6848,-375.0349 687.3814,-385.2808 691.6628,-375.5896 684.6848,-375.0349"/>
</g>
<!-- Node2 -->
<g id="node3" class="node">
<title>Node2</title>
<g id="a_node3"><a xlink:title=" ">
<polygon fill="#ffffff" stroke="#bfbfbf" points="709.3149,-275.5 709.3149,-293.5 749.7681,-293.5 749.7681,-275.5 709.3149,-275.5"/>
<text text-anchor="middle" x="729.5415" y="-281.5" font-family="Helvetica,sans-Serif" font-size="10.00" fill="#000000">string</text>
</a>
</g>
</g>
<!-- Node1&#45;&gt;Node2 -->
<g id="edge2" class="edge">
<title>Node1&#45;&gt;Node2</title>
<path fill="none" stroke="#191970" d="M689.4677,-330.4179C696.3052,-322.5833 706.364,-311.0575 714.6932,-301.5137"/>
<polygon fill="#191970" stroke="#191970" points="717.5047,-303.6151 721.4431,-293.7795 712.2307,-299.0123 717.5047,-303.6151"/>
</g>
<!-- Node3 -->
<g id="node4" class="node">
<title>Node3</title>
<g id="a_node4"><a xlink:title=" ">
<polygon fill="#ffffff" stroke="#bfbfbf" points="537.9258,-110.5 537.9258,-128.5 581.1572,-128.5 581.1572,-110.5 537.9258,-110.5"/>
<text text-anchor="middle" x="559.5415" y="-116.5" font-family="Helvetica,sans-Serif" font-size="10.00" fill="#000000">vector</text>
</a>
</g>
</g>
<!-- Node1&#45;&gt;Node3 -->
<g id="edge3" class="edge">
<title>Node1&#45;&gt;Node3</title>
<path fill="none" stroke="#191970" d="M681.9124,-330.4744C682.5863,-302.7734 681.1435,-217.6628 641.5415,-165 629.0265,-148.3576 608.5491,-136.9874 591.1892,-129.7754"/>
<polygon fill="#191970" stroke="#191970" points="592.0014,-126.3373 581.4119,-126.0012 589.4805,-132.8677 592.0014,-126.3373"/>
</g>
<!-- Node5 -->
<g id="node6" class="node">
<title>Node5</title>
<g id="a_node6"><a xlink:href="communicator_8h.html" target="_top" xlink:title=" ">
<polygon fill="#ffffff" stroke="#000000" points="567.2461,-275.5 567.2461,-293.5 653.8369,-293.5 653.8369,-275.5 567.2461,-275.5"/>
<text text-anchor="middle" x="610.5415" y="-281.5" font-family="Helvetica,sans-Serif" font-size="10.00" fill="#000000">communicator.h</text>
</a>
</g>
</g>
<!-- Node4&#45;&gt;Node5 -->
<g id="edge6" class="edge">
<title>Node4&#45;&gt;Node5</title>
<path fill="none" stroke="#191970" d="M562.119,-330.4179C570.5479,-322.425 583.0281,-310.5903 593.2072,-300.9377"/>
<polygon fill="#191970" stroke="#191970" points="595.908,-303.2001 600.7559,-293.7795 591.0913,-298.1207 595.908,-303.2001"/>
</g>
<!-- Node8 -->
<g id="node9" class="node">
<title>Node8</title>
<g id="a_node9"><a xlink:href="index_8h.html" target="_top" xlink:title=" ">
<polygon fill="#ffffff" stroke="#000000" points="503.4556,-165.5 503.4556,-183.5 615.6274,-183.5 615.6274,-165.5 503.4556,-165.5"/>
<text text-anchor="middle" x="559.5415" y="-171.5" font-family="Helvetica,sans-Serif" font-size="10.00" fill="#000000">parallelization/index.h</text>
</a>
</g>
</g>
<!-- Node4&#45;&gt;Node8 -->
<g id="edge25" class="edge">
<title>Node4&#45;&gt;Node8</title>
<path fill="none" stroke="#191970" d="M552.9379,-330.1561C554.0497,-303.9504 557.2143,-229.3557 558.7226,-193.8021"/>
<polygon fill="#191970" stroke="#191970" points="562.2223,-193.8808 559.1494,-183.7414 555.2286,-193.584 562.2223,-193.8808"/>
</g>
<!-- Node11 -->
<g id="node12" class="node">
<title>Node11</title>
<g id="a_node12"><a xlink:href="parallelparameters_8h.html" target="_top" xlink:title=" ">
<polygon fill="#ffffff" stroke="#000000" points="0,-165.5 0,-183.5 171.083,-183.5 171.083,-165.5 0,-165.5"/>
<text text-anchor="middle" x="85.5415" y="-171.5" font-family="Helvetica,sans-Serif" font-size="10.00" fill="#000000">parallelization/parallelparameters.h</text>
</a>
</g>
</g>
<!-- Node4&#45;&gt;Node11 -->
<g id="edge26" class="edge">
<title>Node4&#45;&gt;Node11</title>
<path fill="none" stroke="#191970" d="M526.7684,-330.3939C448.0703,-302.5883 210.7853,-218.751 120.7264,-186.9315"/>
<polygon fill="#191970" stroke="#191970" points="121.8298,-183.6094 111.235,-183.578 119.4978,-190.2095 121.8298,-183.6094"/>
</g>
<!-- Node5&#45;&gt;Node3 -->
<g id="edge7" class="edge">
<title>Node5&#45;&gt;Node3</title>
<path fill="none" stroke="#191970" d="M614.8874,-275.4793C624.2423,-254.67 643.9309,-202.2404 624.5415,-165 617.2727,-151.0391 603.5429,-140.4762 590.568,-133.0593"/>
<polygon fill="#191970" stroke="#191970" points="591.8362,-129.7716 581.3569,-128.2111 588.5758,-135.966 591.8362,-129.7716"/>
</g>
<!-- Node6 -->
<g id="node7" class="node">
<title>Node6</title>
<g id="a_node7"><a xlink:href="lattice_8h.html" target="_top" xlink:title=" ">
<polygon fill="#ffffff" stroke="#000000" points="340.8052,-220.5 340.8052,-238.5 416.2778,-238.5 416.2778,-220.5 340.8052,-220.5"/>
<text text-anchor="middle" x="378.5415" y="-226.5" font-family="Helvetica,sans-Serif" font-size="10.00" fill="#000000">math/lattice.h</text>
</a>
</g>
</g>
<!-- Node5&#45;&gt;Node6 -->
<g id="edge8" class="edge">
<title>Node5&#45;&gt;Node6</title>
<path fill="none" stroke="#191970" d="M572.4912,-275.4795C532.5389,-266.008 469.626,-251.0933 426.3483,-240.8335"/>
<polygon fill="#191970" stroke="#191970" points="427.1503,-237.4267 416.6126,-238.5255 425.5355,-244.2379 427.1503,-237.4267"/>
</g>
<!-- Node6&#45;&gt;Node3 -->
<g id="edge9" class="edge">
<title>Node6&#45;&gt;Node3</title>
<path fill="none" stroke="#191970" d="M394.4629,-220.4076C410.2872,-211.325 435.2101,-196.8963 456.5415,-184 484.3802,-167.1696 516.0478,-147.2156 536.834,-134.0057"/>
<polygon fill="#191970" stroke="#191970" points="538.7435,-136.9392 545.2994,-128.6162 534.9842,-131.0343 538.7435,-136.9392"/>
</g>
<!-- Node7 -->
<g id="node8" class="node">
<title>Node7</title>
<g id="a_node8"><a xlink:title=" ">
<polygon fill="#ffffff" stroke="#bfbfbf" points="80.3149,-110.5 80.3149,-128.5 120.7681,-128.5 120.7681,-110.5 80.3149,-110.5"/>
<text text-anchor="middle" x="100.5415" y="-116.5" font-family="Helvetica,sans-Serif" font-size="10.00" fill="#000000">mpi.h</text>
</a>
</g>
</g>
<!-- Node6&#45;&gt;Node7 -->
<g id="edge10" class="edge">
<title>Node6&#45;&gt;Node7</title>
<path fill="none" stroke="#191970" d="M340.5652,-221.2325C307.6327,-213.4706 259.0304,-200.5793 218.5415,-184 200.118,-176.456 153.8729,-150.3383 125.0512,-133.7418"/>
<polygon fill="#191970" stroke="#191970" points="126.7729,-130.6945 116.363,-128.7236 123.2718,-136.756 126.7729,-130.6945"/>
</g>
<!-- Node6&#45;&gt;Node8 -->
<g id="edge11" class="edge">
<title>Node6&#45;&gt;Node8</title>
<path fill="none" stroke="#191970" d="M408.43,-220.4179C438.9133,-211.155 486.3765,-196.7325 519.965,-186.526"/>
<polygon fill="#191970" stroke="#191970" points="521.3591,-189.7605 529.9095,-183.5042 519.3238,-183.0629 521.3591,-189.7605"/>
</g>
<!-- Node9 -->
<g id="node10" class="node">
<title>Node9</title>
<g id="a_node10"><a xlink:href="neighbours_8h.html" target="_top" xlink:title=" ">
<polygon fill="#ffffff" stroke="#000000" points="309.6675,-165.5 309.6675,-183.5 447.4155,-183.5 447.4155,-165.5 309.6675,-165.5"/>
<text text-anchor="middle" x="378.5415" y="-171.5" font-family="Helvetica,sans-Serif" font-size="10.00" fill="#000000">parallelization/neighbours.h</text>
</a>
</g>
</g>
<!-- Node6&#45;&gt;Node9 -->
<g id="edge13" class="edge">
<title>Node6&#45;&gt;Node9</title>
<path fill="none" stroke="#191970" d="M378.5415,-220.4179C378.5415,-213.2164 378.5415,-202.8962 378.5415,-193.8632"/>
<polygon fill="#191970" stroke="#191970" points="382.0416,-193.7794 378.5415,-183.7795 375.0416,-193.7795 382.0416,-193.7794"/>
</g>
<!-- Node6&#45;&gt;Node11 -->
<g id="edge16" class="edge">
<title>Node6&#45;&gt;Node11</title>
<path fill="none" stroke="#191970" d="M340.5372,-222.3661C290.581,-212.9887 202.332,-196.4231 143.8856,-185.452"/>
<polygon fill="#191970" stroke="#191970" points="144.1691,-181.9441 133.695,-183.5391 142.8776,-188.824 144.1691,-181.9441"/>
</g>
<!-- Node12 -->
<g id="node13" class="node">
<title>Node12</title>
<g id="a_node13"><a xlink:href="functions_8h.html" target="_top" xlink:title=" ">
<polygon fill="#ffffff" stroke="#000000" points="227.3594,-165.5 227.3594,-183.5 291.7236,-183.5 291.7236,-165.5 227.3594,-165.5"/>
<text text-anchor="middle" x="259.5415" y="-171.5" font-family="Helvetica,sans-Serif" font-size="10.00" fill="#000000">functions.h</text>
</a>
</g>
</g>
<!-- Node6&#45;&gt;Node12 -->
<g id="edge18" class="edge">
<title>Node6&#45;&gt;Node12</title>
<path fill="none" stroke="#191970" d="M358.8911,-220.4179C339.6845,-211.5409 310.2252,-197.9253 288.3675,-187.823"/>
<polygon fill="#191970" stroke="#191970" points="289.7669,-184.614 279.2211,-183.5956 286.8301,-190.9682 289.7669,-184.614"/>
</g>
<!-- Node8&#45;&gt;Node3 -->
<g id="edge12" class="edge">
<title>Node8&#45;&gt;Node3</title>
<path fill="none" stroke="#191970" d="M559.5415,-165.4179C559.5415,-158.2164 559.5415,-147.8962 559.5415,-138.8632"/>
<polygon fill="#191970" stroke="#191970" points="563.0416,-138.7794 559.5415,-128.7795 556.0416,-138.7795 563.0416,-138.7794"/>
</g>
<!-- Node9&#45;&gt;Node3 -->
<g id="edge15" class="edge">
<title>Node9&#45;&gt;Node3</title>
<path fill="none" stroke="#191970" d="M408.43,-165.4179C441.4612,-155.3808 494.4293,-139.2855 528.0784,-129.0606"/>
<polygon fill="#191970" stroke="#191970" points="529.3072,-132.3453 537.8576,-126.089 527.272,-125.6477 529.3072,-132.3453"/>
</g>
<!-- Node10 -->
<g id="node11" class="node">
<title>Node10</title>
<g id="a_node11"><a xlink:href="neighbourlist_8h.html" target="_top" xlink:title=" ">
<polygon fill="#ffffff" stroke="#000000" points="389.0195,-110.5 389.0195,-128.5 470.0635,-128.5 470.0635,-110.5 389.0195,-110.5"/>
<text text-anchor="middle" x="429.5415" y="-116.5" font-family="Helvetica,sans-Serif" font-size="10.00" fill="#000000">neighbourlist.h</text>
</a>
</g>
</g>
<!-- Node9&#45;&gt;Node10 -->
<g id="edge14" class="edge">
<title>Node9&#45;&gt;Node10</title>
<path fill="none" stroke="#191970" d="M386.9631,-165.4179C394.3013,-157.5041 405.1317,-145.8243 414.0328,-136.2251"/>
<polygon fill="#191970" stroke="#191970" points="416.7039,-138.492 420.9369,-128.7795 411.571,-133.7324 416.7039,-138.492"/>
</g>
<!-- Node11&#45;&gt;Node7 -->
<g id="edge17" class="edge">
<title>Node11&#45;&gt;Node7</title>
<path fill="none" stroke="#191970" d="M88.0184,-165.4179C90.0041,-158.1372 92.8591,-147.669 95.3417,-138.5659"/>
<polygon fill="#191970" stroke="#191970" points="98.7562,-139.348 98.0107,-128.7795 92.0028,-137.5062 98.7562,-139.348"/>
</g>
<!-- Node13 -->
<g id="node14" class="node">
<title>Node13</title>
<g id="a_node14"><a xlink:href="su3_8h.html" target="_top" xlink:title=" ">
<polygon fill="#ffffff" stroke="#000000" points="191.0293,-110.5 191.0293,-128.5 272.0537,-128.5 272.0537,-110.5 191.0293,-110.5"/>
<text text-anchor="middle" x="231.5415" y="-116.5" font-family="Helvetica,sans-Serif" font-size="10.00" fill="#000000">matrices/su3.h</text>
</a>
</g>
</g>
<!-- Node12&#45;&gt;Node13 -->
<g id="edge19" class="edge">
<title>Node12&#45;&gt;Node13</title>
<path fill="none" stroke="#191970" d="M254.9179,-165.4179C251.1308,-157.9789 245.6496,-147.2123 240.9465,-137.9742"/>
<polygon fill="#191970" stroke="#191970" points="243.9215,-136.1032 236.2656,-128.7795 237.6834,-139.279 243.9215,-136.1032"/>
</g>
<!-- Node14 -->
<g id="node15" class="node">
<title>Node14</title>
<g id="a_node15"><a xlink:href="complex_8h.html" target="_top" xlink:title=" ">
<polygon fill="#ffffff" stroke="#000000" points="188.2485,-55.5 188.2485,-73.5 274.8345,-73.5 274.8345,-55.5 188.2485,-55.5"/>
<text text-anchor="middle" x="231.5415" y="-61.5" font-family="Helvetica,sans-Serif" font-size="10.00" fill="#000000">math/complex.h</text>
</a>
</g>
</g>
<!-- Node12&#45;&gt;Node14 -->
<g id="edge24" class="edge">
<title>Node12&#45;&gt;Node14</title>
<path fill="none" stroke="#191970" d="M229.6236,-165.4465C212.2641,-158.4809 191.8483,-146.9446 181.5415,-129 170.9894,-110.6285 189.8235,-91.7127 207.3145,-79.1564"/>
<polygon fill="#191970" stroke="#191970" points="209.3216,-82.0244 215.6585,-73.5336 205.4098,-76.2195 209.3216,-82.0244"/>
</g>
<!-- Node16 -->
<g id="node17" class="node">
<title>Node16</title>
<g id="a_node17"><a xlink:href="su2_8h.html" target="_top" xlink:title=" ">
<polygon fill="#ffffff" stroke="#000000" points="290.0293,-110.5 290.0293,-128.5 371.0537,-128.5 371.0537,-110.5 290.0293,-110.5"/>
<text text-anchor="middle" x="330.5415" y="-116.5" font-family="Helvetica,sans-Serif" font-size="10.00" fill="#000000">matrices/su2.h</text>
</a>
</g>
</g>
<!-- Node12&#45;&gt;Node16 -->
<g id="edge22" class="edge">
<title>Node12&#45;&gt;Node16</title>
<path fill="none" stroke="#191970" d="M271.2657,-165.4179C281.8903,-157.1876 297.7732,-144.8839 310.4246,-135.0836"/>
<polygon fill="#191970" stroke="#191970" points="312.8005,-137.6704 318.5626,-128.7795 308.5136,-132.1365 312.8005,-137.6704"/>
</g>
<!-- Node13&#45;&gt;Node14 -->
<g id="edge20" class="edge">
<title>Node13&#45;&gt;Node14</title>
<path fill="none" stroke="#191970" d="M231.5415,-110.4179C231.5415,-103.2164 231.5415,-92.8962 231.5415,-83.8632"/>
<polygon fill="#191970" stroke="#191970" points="235.0416,-83.7794 231.5415,-73.7795 228.0416,-83.7795 235.0416,-83.7794"/>
</g>
<!-- Node15 -->
<g id="node16" class="node">
<title>Node15</title>
<g id="a_node16"><a xlink:title=" ">
<polygon fill="#ffffff" stroke="#bfbfbf" points="204.3691,-.5 204.3691,-18.5 258.7139,-18.5 258.7139,-.5 204.3691,-.5"/>
<text text-anchor="middle" x="231.5415" y="-6.5" font-family="Helvetica,sans-Serif" font-size="10.00" fill="#000000">iostream</text>
</a>
</g>
</g>
<!-- Node14&#45;&gt;Node15 -->
<g id="edge21" class="edge">
<title>Node14&#45;&gt;Node15</title>
<path fill="none" stroke="#191970" d="M231.5415,-55.4179C231.5415,-48.2164 231.5415,-37.8962 231.5415,-28.8632"/>
<polygon fill="#191970" stroke="#191970" points="235.0416,-28.7794 231.5415,-18.7795 228.0416,-28.7795 235.0416,-28.7794"/>
</g>
<!-- Node16&#45;&gt;Node14 -->
<g id="edge23" class="edge">
<title>Node16&#45;&gt;Node14</title>
<path fill="none" stroke="#191970" d="M314.1937,-110.4179C298.5734,-101.7399 274.8017,-88.5334 256.7553,-78.5077"/>
<polygon fill="#191970" stroke="#191970" points="258.355,-75.3925 247.9136,-73.5956 254.9554,-81.5117 258.355,-75.3925"/>
</g>
</g>
</svg>
