<?xml version="1.0" encoding="UTF-8" standalone="no"?>
<!DOCTYPE svg PUBLIC "-//W3C//DTD SVG 1.1//EN"
 "http://www.w3.org/Graphics/SVG/1.1/DTD/svg11.dtd">
<!-- Generated by graphviz version 2.40.1 (20161225.0304)
 -->
<!-- Title: GluonicLQCD/config/sysprint.h Pages: 1 -->
<svg width="3384pt" height="167pt"
 viewBox="0.00 0.00 3384.33 167.00" xmlns="http://www.w3.org/2000/svg" xmlns:xlink="http://www.w3.org/1999/xlink">
<g id="graph0" class="graph" transform="scale(1 1) rotate(0) translate(4 163)">
<title>GluonicLQCD/config/sysprint.h</title>
<polygon fill="#ffffff" stroke="transparent" points="-4,4 -4,-163 3380.3296,-163 3380.3296,4 -4,4"/>
<!-- Node17 -->
<g id="node1" class="node">
<title>Node17</title>
<g id="a_node1"><a xlink:title=" ">
<polygon fill="#bfbfbf" stroke="#000000" points="1541.5,-130.5 1541.5,-158.5 1648.6523,-158.5 1648.6523,-130.5 1541.5,-130.5"/>
<text text-anchor="start" x="1549.5" y="-146.5" font-family="Helvetica,sans-Serif" font-size="10.00" fill="#000000">GluonicLQCD/config</text>
<text text-anchor="middle" x="1595.0762" y="-136.5" font-family="Helvetica,sans-Serif" font-size="10.00" fill="#000000">/sysprint.h</text>
</a>
</g>
</g>
<!-- Node18 -->
<g id="node2" class="node">
<title>Node18</title>
<g id="a_node2"><a xlink:href="parameters_8h.html" target="_top" xlink:title=" ">
<polygon fill="#ffffff" stroke="#000000" points="1541.5,-65.5 1541.5,-93.5 1648.6523,-93.5 1648.6523,-65.5 1541.5,-65.5"/>
<text text-anchor="start" x="1549.5" y="-81.5" font-family="Helvetica,sans-Serif" font-size="10.00" fill="#000000">GluonicLQCD/config</text>
<text text-anchor="middle" x="1595.0762" y="-71.5" font-family="Helvetica,sans-Serif" font-size="10.00" fill="#000000">/parameters.h</text>
</a>
</g>
</g>
<!-- Node17&#45;&gt;Node18 -->
<g id="edge1" class="edge">
<title>Node17&#45;&gt;Node18</title>
<path fill="none" stroke="#191970" d="M1588.5308,-120.4029C1588.0817,-111.3703 1588.3718,-101.4078 1589.4014,-93.5765"/>
<polygon fill="#191970" stroke="#191970" points="1585.0465,-120.7359 1589.3978,-130.396 1592.0203,-120.1309 1585.0465,-120.7359"/>
</g>
<!-- Node41 -->
<g id="node25" class="node">
<title>Node41</title>
<g id="a_node25"><a xlink:href="sysprint_8cpp.html" target="_top" xlink:title=" ">
<polygon fill="#ffffff" stroke="#000000" points="1666.5,-65.5 1666.5,-93.5 1773.6523,-93.5 1773.6523,-65.5 1666.5,-65.5"/>
<text text-anchor="start" x="1674.5" y="-81.5" font-family="Helvetica,sans-Serif" font-size="10.00" fill="#000000">GluonicLQCD/config</text>
<text text-anchor="middle" x="1720.0762" y="-71.5" font-family="Helvetica,sans-Serif" font-size="10.00" fill="#000000">/sysprint.cpp</text>
</a>
</g>
</g>
<!-- Node17&#45;&gt;Node41 -->
<g id="edge25" class="edge">
<title>Node17&#45;&gt;Node41</title>
<path fill="none" stroke="#191970" d="M1631.2025,-125.7143C1650.9164,-115.4631 1674.9173,-102.9826 1693.006,-93.5765"/>
<polygon fill="#191970" stroke="#191970" points="1629.4567,-122.6771 1622.1993,-130.396 1632.6862,-128.8877 1629.4567,-122.6771"/>
</g>
<!-- Node18&#45;&gt;Node17 -->
<g id="edge7" class="edge">
<title>Node18&#45;&gt;Node17</title>
<path fill="none" stroke="#191970" d="M1601.6199,-103.5653C1602.0708,-112.5958 1601.7824,-122.5597 1600.7546,-130.396"/>
<polygon fill="#191970" stroke="#191970" points="1605.1045,-103.2355 1600.751,-93.5765 1598.1309,-103.8422 1605.1045,-103.2355"/>
</g>
<!-- Node19 -->
<g id="node3" class="node">
<title>Node19</title>
<g id="a_node3"><a xlink:href="action_8cpp.html" target="_top" xlink:title=" ">
<polygon fill="#ffffff" stroke="#000000" points="0,-.5 0,-28.5 112.1523,-28.5 112.1523,-.5 0,-.5"/>
<text text-anchor="start" x="8" y="-16.5" font-family="Helvetica,sans-Serif" font-size="10.00" fill="#000000">GluonicLQCD/actions</text>
<text text-anchor="middle" x="56.0762" y="-6.5" font-family="Helvetica,sans-Serif" font-size="10.00" fill="#000000">/action.cpp</text>
</a>
</g>
</g>
<!-- Node18&#45;&gt;Node19 -->
<g id="edge2" class="edge">
<title>Node18&#45;&gt;Node19</title>
<path fill="none" stroke="#191970" d="M1531.0508,-78.8848C1284.9824,-76.2754 399.9575,-64.5714 121.0762,-29 118.2089,-28.6343 115.2817,-28.2017 112.3337,-27.7188"/>
<polygon fill="#191970" stroke="#191970" points="1531.2187,-82.3866 1541.2548,-78.9916 1531.2921,-75.387 1531.2187,-82.3866"/>
</g>
<!-- Node20 -->
<g id="node4" class="node">
<title>Node20</title>
<g id="a_node4"><a xlink:href="luscheraction_8cpp.html" target="_top" xlink:title=" ">
<polygon fill="#ffffff" stroke="#000000" points="130,-.5 130,-28.5 242.1523,-28.5 242.1523,-.5 130,-.5"/>
<text text-anchor="start" x="138" y="-16.5" font-family="Helvetica,sans-Serif" font-size="10.00" fill="#000000">GluonicLQCD/actions</text>
<text text-anchor="middle" x="186.0762" y="-6.5" font-family="Helvetica,sans-Serif" font-size="10.00" fill="#000000">/luscheraction.cpp</text>
</a>
</g>
</g>
<!-- Node18&#45;&gt;Node20 -->
<g id="edge3" class="edge">
<title>Node18&#45;&gt;Node20</title>
<path fill="none" stroke="#191970" d="M1531.0045,-78.6382C1299.001,-75.2767 503.2328,-61.5868 251.0762,-29 248.2095,-28.6295 245.2828,-28.1931 242.3352,-27.7072"/>
<polygon fill="#191970" stroke="#191970" points="1531.249,-82.142 1541.2982,-78.7859 1531.3495,-75.1427 1531.249,-82.142"/>
</g>
<!-- Node21 -->
<g id="node5" class="node">
<title>Node21</title>
<g id="a_node5"><a xlink:href="wilsongaugeaction_8cpp.html" target="_top" xlink:title=" ">
<polygon fill="#ffffff" stroke="#000000" points="260.0962,-.5 260.0962,-28.5 380.0562,-28.5 380.0562,-.5 260.0962,-.5"/>
<text text-anchor="start" x="268.0962" y="-16.5" font-family="Helvetica,sans-Serif" font-size="10.00" fill="#000000">GluonicLQCD/actions</text>
<text text-anchor="middle" x="320.0762" y="-6.5" font-family="Helvetica,sans-Serif" font-size="10.00" fill="#000000">/wilsongaugeaction.cpp</text>
</a>
</g>
</g>
<!-- Node18&#45;&gt;Node21 -->
<g id="edge4" class="edge">
<title>Node18&#45;&gt;Node21</title>
<path fill="none" stroke="#191970" d="M1531.1807,-78.2193C1315.1788,-73.6711 613.2259,-57.0495 389.0762,-29 386.1611,-28.6352 383.1862,-28.2114 380.1882,-27.7428"/>
<polygon fill="#191970" stroke="#191970" points="1531.3269,-81.723 1541.3979,-78.433 1531.4733,-74.7245 1531.3269,-81.723"/>
</g>
<!-- Node22 -->
<g id="node6" class="node">
<title>Node22</title>
<g id="a_node6"><a xlink:href="configloader_8cpp.html" target="_top" xlink:title=" ">
<polygon fill="#ffffff" stroke="#000000" points="398.5,-.5 398.5,-28.5 505.6523,-28.5 505.6523,-.5 398.5,-.5"/>
<text text-anchor="start" x="406.5" y="-16.5" font-family="Helvetica,sans-Serif" font-size="10.00" fill="#000000">GluonicLQCD/config</text>
<text text-anchor="middle" x="452.0762" y="-6.5" font-family="Helvetica,sans-Serif" font-size="10.00" fill="#000000">/configloader.cpp</text>
</a>
</g>
</g>
<!-- Node18&#45;&gt;Node22 -->
<g id="edge5" class="edge">
<title>Node18&#45;&gt;Node22</title>
<path fill="none" stroke="#191970" d="M1531.0778,-78.049C1329.9803,-73.2471 712.4154,-56.5887 514.0762,-29 511.3389,-28.6193 508.545,-28.1746 505.7317,-27.6821"/>
<polygon fill="#191970" stroke="#191970" points="1531.1049,-81.5505 1541.1851,-78.2887 1531.271,-74.5525 1531.1049,-81.5505"/>
</g>
<!-- Node23 -->
<g id="node7" class="node">
<title>Node23</title>
<g id="a_node7"><a xlink:href="parameters_8cpp.html" target="_top" xlink:title=" ">
<polygon fill="#ffffff" stroke="#000000" points="523.5,-.5 523.5,-28.5 630.6523,-28.5 630.6523,-.5 523.5,-.5"/>
<text text-anchor="start" x="531.5" y="-16.5" font-family="Helvetica,sans-Serif" font-size="10.00" fill="#000000">GluonicLQCD/config</text>
<text text-anchor="middle" x="577.0762" y="-6.5" font-family="Helvetica,sans-Serif" font-size="10.00" fill="#000000">/parameters.cpp</text>
</a>
</g>
</g>
<!-- Node18&#45;&gt;Node23 -->
<g id="edge6" class="edge">
<title>Node18&#45;&gt;Node23</title>
<path fill="none" stroke="#191970" d="M1531.3548,-77.6069C1346.4887,-71.8808 812.1787,-53.6161 639.0762,-29 636.3401,-28.6109 633.5472,-28.1595 630.7345,-27.6618"/>
<polygon fill="#191970" stroke="#191970" points="1531.3572,-81.1085 1541.4602,-77.9181 1531.5728,-74.1118 1531.3572,-81.1085"/>
</g>
<!-- Node24 -->
<g id="node8" class="node">
<title>Node24</title>
<g id="a_node8"><a xlink:href="flow_8cpp.html" target="_top" xlink:title=" ">
<polygon fill="#ffffff" stroke="#000000" points="648.4927,-5.5 648.4927,-23.5 785.6597,-23.5 785.6597,-5.5 648.4927,-5.5"/>
<text text-anchor="middle" x="717.0762" y="-11.5" font-family="Helvetica,sans-Serif" font-size="10.00" fill="#000000">GluonicLQCD/flow/flow.cpp</text>
</a>
</g>
</g>
<!-- Node18&#45;&gt;Node24 -->
<g id="edge8" class="edge">
<title>Node18&#45;&gt;Node24</title>
<path fill="none" stroke="#191970" d="M1530.7763,-78.0737C1394.6073,-74.4755 1067.305,-62.7702 795.0762,-29 783.8677,-27.6096 771.8368,-25.6222 760.6604,-23.5629"/>
<polygon fill="#191970" stroke="#191970" points="1530.9381,-81.579 1541.0253,-78.3387 1531.1191,-74.5813 1530.9381,-81.579"/>
</g>
<!-- Node25 -->
<g id="node9" class="node">
<title>Node25</title>
<g id="a_node9"><a xlink:href="fieldio_8cpp.html" target="_top" xlink:title=" ">
<polygon fill="#ffffff" stroke="#000000" points="804.0469,-5.5 804.0469,-23.5 940.1055,-23.5 940.1055,-5.5 804.0469,-5.5"/>
<text text-anchor="middle" x="872.0762" y="-11.5" font-family="Helvetica,sans-Serif" font-size="10.00" fill="#000000">GluonicLQCD/io/fieldio.cpp</text>
</a>
</g>
</g>
<!-- Node18&#45;&gt;Node25 -->
<g id="edge9" class="edge">
<title>Node18&#45;&gt;Node25</title>
<path fill="none" stroke="#191970" d="M1531.1249,-76.7957C1414.8576,-71.3695 1161.2426,-57.1856 949.0762,-29 938.1537,-27.549 926.4344,-25.5646 915.516,-23.5295"/>
<polygon fill="#191970" stroke="#191970" points="1531.1213,-80.2992 1541.2718,-77.2632 1531.4436,-73.3066 1531.1213,-80.2992"/>
</g>
<!-- Node26 -->
<g id="node10" class="node">
<title>Node26</title>
<g id="a_node10"><a xlink:href="observablesio_8cpp.html" target="_top" xlink:title=" ">
<polygon fill="#ffffff" stroke="#000000" points="958.2588,-5.5 958.2588,-23.5 1129.8936,-23.5 1129.8936,-5.5 958.2588,-5.5"/>
<text text-anchor="middle" x="1044.0762" y="-11.5" font-family="Helvetica,sans-Serif" font-size="10.00" fill="#000000">GluonicLQCD/io/observablesio.cpp</text>
</a>
</g>
</g>
<!-- Node18&#45;&gt;Node26 -->
<g id="edge10" class="edge">
<title>Node18&#45;&gt;Node26</title>
<path fill="none" stroke="#191970" d="M1531.0189,-73.2986C1442.5264,-64.5318 1277.946,-47.5072 1138.0762,-29 1125.7988,-27.3755 1112.6472,-25.4583 1100.1872,-23.5594"/>
<polygon fill="#191970" stroke="#191970" points="1530.8705,-76.8009 1541.1661,-74.3007 1531.5585,-69.8348 1530.8705,-76.8009"/>
</g>
<!-- Node27 -->
<g id="node11" class="node">
<title>Node27</title>
<g id="a_node11"><a xlink:href="main_8cpp.html" target="_top" xlink:title=" ">
<polygon fill="#ffffff" stroke="#000000" points="1147.5542,-5.5 1147.5542,-23.5 1268.5981,-23.5 1268.5981,-5.5 1147.5542,-5.5"/>
<text text-anchor="middle" x="1208.0762" y="-11.5" font-family="Helvetica,sans-Serif" font-size="10.00" fill="#000000">GluonicLQCD/main.cpp</text>
</a>
</g>
</g>
<!-- Node18&#45;&gt;Node27 -->
<g id="edge11" class="edge">
<title>Node18&#45;&gt;Node27</title>
<path fill="none" stroke="#191970" d="M1531.498,-70.3524C1467.191,-60.8773 1365.003,-45.21 1277.0762,-29 1268.1681,-27.3577 1258.6445,-25.4533 1249.6057,-23.5755"/>
<polygon fill="#191970" stroke="#191970" points="1531.0831,-73.829 1541.4856,-71.8191 1532.1002,-66.9032 1531.0831,-73.829"/>
</g>
<!-- Node28 -->
<g id="node12" class="node">
<title>Node28</title>
<g id="a_node12"><a xlink:href="su3matrixgenerator_8cpp.html" target="_top" xlink:title=" ">
<polygon fill="#ffffff" stroke="#000000" points="1286.4458,-.5 1286.4458,-28.5 1429.7065,-28.5 1429.7065,-.5 1286.4458,-.5"/>
<text text-anchor="start" x="1294.4458" y="-16.5" font-family="Helvetica,sans-Serif" font-size="10.00" fill="#000000">GluonicLQCD/math/matrices</text>
<text text-anchor="middle" x="1358.0762" y="-6.5" font-family="Helvetica,sans-Serif" font-size="10.00" fill="#000000">/su3matrixgenerator.cpp</text>
</a>
</g>
</g>
<!-- Node18&#45;&gt;Node28 -->
<g id="edge12" class="edge">
<title>Node18&#45;&gt;Node28</title>
<path fill="none" stroke="#191970" d="M1533.8753,-62.7149C1495.3077,-52.1373 1446.0754,-38.6348 1409.5267,-28.6109"/>
<polygon fill="#191970" stroke="#191970" points="1533.3729,-66.2063 1543.9425,-65.476 1535.2244,-59.4556 1533.3729,-66.2063"/>
</g>
<!-- Node29 -->
<g id="node13" class="node">
<title>Node29</title>
<g id="a_node13"><a xlink:href="correlator_8cpp.html" target="_top" xlink:title=" ">
<polygon fill="#ffffff" stroke="#000000" points="1447.8818,-.5 1447.8818,-28.5 1582.2705,-28.5 1582.2705,-.5 1447.8818,-.5"/>
<text text-anchor="start" x="1455.8818" y="-16.5" font-family="Helvetica,sans-Serif" font-size="10.00" fill="#000000">GluonicLQCD/observables</text>
<text text-anchor="middle" x="1515.0762" y="-6.5" font-family="Helvetica,sans-Serif" font-size="10.00" fill="#000000">/correlator.cpp</text>
</a>
</g>
</g>
<!-- Node18&#45;&gt;Node29 -->
<g id="edge13" class="edge">
<title>Node18&#45;&gt;Node29</title>
<path fill="none" stroke="#191970" d="M1569.7016,-58.8832C1557.5444,-49.0054 1543.2968,-37.4293 1532.4011,-28.5765"/>
<polygon fill="#191970" stroke="#191970" points="1567.7491,-61.8064 1577.7174,-65.396 1572.1633,-56.3736 1567.7491,-61.8064"/>
</g>
<!-- Node30 -->
<g id="node14" class="node">
<title>Node30</title>
<g id="a_node14"><a xlink:href="latticeactionchargedensity_8cpp.html" target="_top" xlink:title=" ">
<polygon fill="#ffffff" stroke="#000000" points="1600.0708,-.5 1600.0708,-28.5 1752.0815,-28.5 1752.0815,-.5 1600.0708,-.5"/>
<text text-anchor="start" x="1608.0708" y="-16.5" font-family="Helvetica,sans-Serif" font-size="10.00" fill="#000000">GluonicLQCD/observables</text>
<text text-anchor="middle" x="1676.0762" y="-6.5" font-family="Helvetica,sans-Serif" font-size="10.00" fill="#000000">/latticeactionchargedensity.cpp</text>
</a>
</g>
</g>
<!-- Node18&#45;&gt;Node30 -->
<g id="edge14" class="edge">
<title>Node18&#45;&gt;Node30</title>
<path fill="none" stroke="#191970" d="M1620.7679,-58.8832C1633.0771,-49.0054 1647.5027,-37.4293 1658.5347,-28.5765"/>
<polygon fill="#191970" stroke="#191970" points="1618.2607,-56.4075 1612.652,-65.396 1622.6418,-61.867 1618.2607,-56.4075"/>
</g>
<!-- Node31 -->
<g id="node15" class="node">
<title>Node31</title>
<g id="a_node15"><a xlink:href="mastersampler_8cpp.html" target="_top" xlink:title=" ">
<polygon fill="#ffffff" stroke="#000000" points="1769.8818,-.5 1769.8818,-28.5 1904.2705,-28.5 1904.2705,-.5 1769.8818,-.5"/>
<text text-anchor="start" x="1777.8818" y="-16.5" font-family="Helvetica,sans-Serif" font-size="10.00" fill="#000000">GluonicLQCD/observables</text>
<text text-anchor="middle" x="1837.0762" y="-6.5" font-family="Helvetica,sans-Serif" font-size="10.00" fill="#000000">/mastersampler.cpp</text>
</a>
</g>
</g>
<!-- Node18&#45;&gt;Node31 -->
<g id="edge15" class="edge">
<title>Node18&#45;&gt;Node31</title>
<path fill="none" stroke="#191970" d="M1657.0661,-62.8498C1696.5214,-52.2523 1747.0616,-38.6775 1784.5401,-28.6109"/>
<polygon fill="#191970" stroke="#191970" points="1656.0384,-59.5017 1647.2886,-65.476 1657.8543,-66.2621 1656.0384,-59.5017"/>
</g>
<!-- Node32 -->
<g id="node16" class="node">
<title>Node32</title>
<g id="a_node16"><a xlink:href="mastersamplertopcxyz_8cpp.html" target="_top" xlink:title=" ">
<polygon fill="#ffffff" stroke="#000000" points="1922.2217,-.5 1922.2217,-28.5 2059.9307,-28.5 2059.9307,-.5 1922.2217,-.5"/>
<text text-anchor="start" x="1930.2217" y="-16.5" font-family="Helvetica,sans-Serif" font-size="10.00" fill="#000000">GluonicLQCD/observables</text>
<text text-anchor="middle" x="1991.0762" y="-6.5" font-family="Helvetica,sans-Serif" font-size="10.00" fill="#000000">/mastersamplertopcxyz.cpp</text>
</a>
</g>
</g>
<!-- Node18&#45;&gt;Node32 -->
<g id="edge16" class="edge">
<title>Node18&#45;&gt;Node32</title>
<path fill="none" stroke="#191970" d="M1658.8661,-64.7587C1771.7658,-44.0827 1802.8902,-46.9801 1913.0762,-29 1916.0668,-28.512 1919.1195,-28.0008 1922.2015,-27.4739"/>
<polygon fill="#191970" stroke="#191970" points="1657.9768,-61.3639 1648.7821,-66.6278 1659.2526,-68.2466 1657.9768,-61.3639"/>
</g>
<!-- Node33 -->
<g id="node17" class="node">
<title>Node33</title>
<g id="a_node17"><a xlink:href="plaquette_8cpp.html" target="_top" xlink:title=" ">
<polygon fill="#ffffff" stroke="#000000" points="2077.8818,-.5 2077.8818,-28.5 2212.2705,-28.5 2212.2705,-.5 2077.8818,-.5"/>
<text text-anchor="start" x="2085.8818" y="-16.5" font-family="Helvetica,sans-Serif" font-size="10.00" fill="#000000">GluonicLQCD/observables</text>
<text text-anchor="middle" x="2145.0762" y="-6.5" font-family="Helvetica,sans-Serif" font-size="10.00" fill="#000000">/plaquette.cpp</text>
</a>
</g>
</g>
<!-- Node18&#45;&gt;Node33 -->
<g id="edge17" class="edge">
<title>Node18&#45;&gt;Node33</title>
<path fill="none" stroke="#191970" d="M1658.6329,-64.8916C1840.3263,-36.6258 1890.2112,-53.8122 2069.0762,-29 2071.8702,-28.6124 2074.7173,-28.1908 2077.5899,-27.7435"/>
<polygon fill="#191970" stroke="#191970" points="1658.083,-61.435 1648.7519,-66.453 1659.1756,-68.3492 1658.083,-61.435"/>
</g>
<!-- Node34 -->
<g id="node18" class="node">
<title>Node34</title>
<g id="a_node18"><a xlink:href="supersampler_8cpp.html" target="_top" xlink:title=" ">
<polygon fill="#ffffff" stroke="#000000" points="2229.8818,-.5 2229.8818,-28.5 2364.2705,-28.5 2364.2705,-.5 2229.8818,-.5"/>
<text text-anchor="start" x="2237.8818" y="-16.5" font-family="Helvetica,sans-Serif" font-size="10.00" fill="#000000">GluonicLQCD/observables</text>
<text text-anchor="middle" x="2297.0762" y="-6.5" font-family="Helvetica,sans-Serif" font-size="10.00" fill="#000000">/supersampler.cpp</text>
</a>
</g>
</g>
<!-- Node18&#45;&gt;Node34 -->
<g id="edge18" class="edge">
<title>Node18&#45;&gt;Node34</title>
<path fill="none" stroke="#191970" d="M1658.7986,-64.9044C1907.3345,-29.115 1975.1799,-60.1813 2221.0762,-29 2223.8746,-28.6451 2226.7253,-28.2509 2229.6009,-27.8262"/>
<polygon fill="#191970" stroke="#191970" points="1658.1283,-61.4651 1648.7398,-66.3749 1659.141,-68.3914 1658.1283,-61.4651"/>
</g>
<!-- Node35 -->
<g id="node19" class="node">
<title>Node35</title>
<g id="a_node19"><a xlink:href="observablestorer_8cpp.html" target="_top" xlink:title=" ">
<polygon fill="#ffffff" stroke="#000000" points="2382.3179,-.5 2382.3179,-28.5 2517.8345,-28.5 2517.8345,-.5 2382.3179,-.5"/>
<text text-anchor="start" x="2390.3179" y="-16.5" font-family="Helvetica,sans-Serif" font-size="10.00" fill="#000000">GluonicLQCD/observables</text>
<text text-anchor="middle" x="2450.0762" y="-6.5" font-family="Helvetica,sans-Serif" font-size="10.00" fill="#000000">/tools/observablestorer.cpp</text>
</a>
</g>
</g>
<!-- Node18&#45;&gt;Node35 -->
<g id="edge19" class="edge">
<title>Node18&#45;&gt;Node35</title>
<path fill="none" stroke="#191970" d="M1659.0875,-64.8857C1974.4169,-21.5208 2060.0734,-66.1653 2373.0762,-29 2376.048,-28.6471 2379.0776,-28.2478 2382.1333,-27.8127"/>
<polygon fill="#191970" stroke="#191970" points="1658.154,-61.482 1648.7333,-66.3298 1659.1209,-68.4149 1658.154,-61.482"/>
</g>
<!-- Node36 -->
<g id="node20" class="node">
<title>Node36</title>
<g id="a_node20"><a xlink:href="topologicalcharge_8cpp.html" target="_top" xlink:title=" ">
<polygon fill="#ffffff" stroke="#000000" points="2535.8818,-.5 2535.8818,-28.5 2670.2705,-28.5 2670.2705,-.5 2535.8818,-.5"/>
<text text-anchor="start" x="2543.8818" y="-16.5" font-family="Helvetica,sans-Serif" font-size="10.00" fill="#000000">GluonicLQCD/observables</text>
<text text-anchor="middle" x="2603.0762" y="-6.5" font-family="Helvetica,sans-Serif" font-size="10.00" fill="#000000">/topologicalcharge.cpp</text>
</a>
</g>
</g>
<!-- Node18&#45;&gt;Node36 -->
<g id="edge20" class="edge">
<title>Node18&#45;&gt;Node36</title>
<path fill="none" stroke="#191970" d="M1658.7097,-64.951C2042.2896,-13.7328 2145.9172,-73.0043 2527.0762,-29 2529.8784,-28.6765 2532.7322,-28.3085 2535.6105,-27.9055"/>
<polygon fill="#191970" stroke="#191970" points="1658.1702,-61.492 1648.7292,-66.3001 1659.1079,-68.4289 1658.1702,-61.492"/>
</g>
<!-- Node37 -->
<g id="node21" class="node">
<title>Node37</title>
<g id="a_node21"><a xlink:href="communicator_8cpp.html" target="_top" xlink:title=" ">
<polygon fill="#ffffff" stroke="#000000" points="2688.2686,-.5 2688.2686,-28.5 2829.8838,-28.5 2829.8838,-.5 2688.2686,-.5"/>
<text text-anchor="start" x="2696.2686" y="-16.5" font-family="Helvetica,sans-Serif" font-size="10.00" fill="#000000">GluonicLQCD/parallelization</text>
<text text-anchor="middle" x="2759.0762" y="-6.5" font-family="Helvetica,sans-Serif" font-size="10.00" fill="#000000">/communicator.cpp</text>
</a>
</g>
</g>
<!-- Node18&#45;&gt;Node37 -->
<g id="edge21" class="edge">
<title>Node18&#45;&gt;Node37</title>
<path fill="none" stroke="#191970" d="M1658.7547,-64.9537C2109.3673,-6.0233 2230.4938,-77.2989 2679.0762,-29 2682.0233,-28.6827 2685.0253,-28.3198 2688.0532,-27.9211"/>
<polygon fill="#191970" stroke="#191970" points="1658.1814,-61.499 1648.7264,-66.2795 1659.0989,-68.4386 1658.1814,-61.499"/>
</g>
<!-- Node38 -->
<g id="node22" class="node">
<title>Node38</title>
<g id="a_node22"><a xlink:href="system_8cpp.html" target="_top" xlink:title=" ">
<polygon fill="#ffffff" stroke="#000000" points="2847.5566,-5.5 2847.5566,-23.5 2978.5957,-23.5 2978.5957,-5.5 2847.5566,-5.5"/>
<text text-anchor="middle" x="2913.0762" y="-11.5" font-family="Helvetica,sans-Serif" font-size="10.00" fill="#000000">GluonicLQCD/system.cpp</text>
</a>
</g>
</g>
<!-- Node18&#45;&gt;Node38 -->
<g id="edge22" class="edge">
<title>Node18&#45;&gt;Node38</title>
<path fill="none" stroke="#191970" d="M1658.7603,-64.9604C2179.9865,2.0339 2320.1058,-87.3537 2839.0762,-29 2850.2644,-27.742 2862.2867,-25.6928 2873.3201,-23.526"/>
<polygon fill="#191970" stroke="#191970" points="1658.1904,-61.505 1648.7243,-66.2636 1659.0918,-68.4467 1658.1904,-61.505"/>
</g>
<!-- Node39 -->
<g id="node23" class="node">
<title>Node39</title>
<g id="a_node23"><a xlink:href="performancetests_8cpp.html" target="_top" xlink:title=" ">
<polygon fill="#ffffff" stroke="#000000" points="2996.8154,-5.5 2996.8154,-23.5 3197.3369,-23.5 3197.3369,-5.5 2996.8154,-5.5"/>
<text text-anchor="middle" x="3097.0762" y="-11.5" font-family="Helvetica,sans-Serif" font-size="10.00" fill="#000000">GluonicLQCD/tests/performancetests.cpp</text>
</a>
</g>
</g>
<!-- Node18&#45;&gt;Node39 -->
<g id="edge23" class="edge">
<title>Node18&#45;&gt;Node39</title>
<path fill="none" stroke="#191970" d="M1658.7088,-64.9701C2245.7228,9.7986 2401.4926,-75.818 2988.0762,-29 3004.3466,-27.7014 3021.9074,-25.6528 3038.0817,-23.5"/>
<polygon fill="#191970" stroke="#191970" points="1658.1957,-61.5072 1648.7229,-66.2522 1659.0872,-68.4502 1658.1957,-61.5072"/>
</g>
<!-- Node40 -->
<g id="node24" class="node">
<title>Node40</title>
<g id="a_node24"><a xlink:href="testsuite_8cpp.html" target="_top" xlink:title=" ">
<polygon fill="#ffffff" stroke="#000000" points="3215.8228,-5.5 3215.8228,-23.5 3376.3296,-23.5 3376.3296,-5.5 3215.8228,-5.5"/>
<text text-anchor="middle" x="3296.0762" y="-11.5" font-family="Helvetica,sans-Serif" font-size="10.00" fill="#000000">GluonicLQCD/tests/testsuite.cpp</text>
</a>
</g>
</g>
<!-- Node18&#45;&gt;Node40 -->
<g id="edge24" class="edge">
<title>Node18&#45;&gt;Node40</title>
<path fill="none" stroke="#191970" d="M1658.8139,-64.9631C2341.976,20.7652 2523.6741,-91.606 3206.0762,-29 3219.63,-27.7565 3234.2343,-25.7121 3247.6535,-23.5452"/>
<polygon fill="#191970" stroke="#191970" points="1658.2031,-61.5124 1648.7212,-66.2394 1659.0813,-68.4571 1658.2031,-61.5124"/>
</g>
</g>
</svg>
