<?xml version="1.0" encoding="UTF-8" standalone="no"?>
<!DOCTYPE svg PUBLIC "-//W3C//DTD SVG 1.1//EN"
 "http://www.w3.org/Graphics/SVG/1.1/DTD/svg11.dtd">
<!-- Generated by graphviz version 2.40.1 (20161225.0304)
 -->
<!-- Title: GluonicLQCD/config/sysprint.h Pages: 1 -->
<svg width="389pt" height="102pt"
 viewBox="0.00 0.00 389.10 102.00" xmlns="http://www.w3.org/2000/svg" xmlns:xlink="http://www.w3.org/1999/xlink">
<g id="graph0" class="graph" transform="scale(1 1) rotate(0) translate(4 98)">
<title>GluonicLQCD/config/sysprint.h</title>
<polygon fill="#ffffff" stroke="transparent" points="-4,4 -4,-98 385.0957,-98 385.0957,4 -4,4"/>
<!-- Node17 -->
<g id="node1" class="node">
<title>Node17</title>
<g id="a_node1"><a xlink:title=" ">
<polygon fill="#bfbfbf" stroke="#000000" points="125,-65.5 125,-93.5 232.1523,-93.5 232.1523,-65.5 125,-65.5"/>
<text text-anchor="start" x="133" y="-81.5" font-family="Helvetica,sans-Serif" font-size="10.00" fill="#000000">GluonicLQCD/config</text>
<text text-anchor="middle" x="178.5762" y="-71.5" font-family="Helvetica,sans-Serif" font-size="10.00" fill="#000000">/sysprint.h</text>
</a>
</g>
</g>
<!-- Node18 -->
<g id="node2" class="node">
<title>Node18</title>
<g id="a_node2"><a xlink:href="parameters_8cpp.html" target="_top" xlink:title=" ">
<polygon fill="#ffffff" stroke="#000000" points="0,-.5 0,-28.5 107.1523,-28.5 107.1523,-.5 0,-.5"/>
<text text-anchor="start" x="8" y="-16.5" font-family="Helvetica,sans-Serif" font-size="10.00" fill="#000000">GluonicLQCD/config</text>
<text text-anchor="middle" x="53.5762" y="-6.5" font-family="Helvetica,sans-Serif" font-size="10.00" fill="#000000">/parameters.cpp</text>
</a>
</g>
</g>
<!-- Node17&#45;&gt;Node18 -->
<g id="edge1" class="edge">
<title>Node17&#45;&gt;Node18</title>
<path fill="none" stroke="#191970" d="M142.4498,-60.7143C122.7359,-50.4631 98.735,-37.9826 80.6464,-28.5765"/>
<polygon fill="#191970" stroke="#191970" points="140.9661,-63.8877 151.453,-65.396 144.1956,-57.6771 140.9661,-63.8877"/>
</g>
<!-- Node19 -->
<g id="node3" class="node">
<title>Node19</title>
<g id="a_node3"><a xlink:href="sysprint_8cpp.html" target="_top" xlink:title=" ">
<polygon fill="#ffffff" stroke="#000000" points="125,-.5 125,-28.5 232.1523,-28.5 232.1523,-.5 125,-.5"/>
<text text-anchor="start" x="133" y="-16.5" font-family="Helvetica,sans-Serif" font-size="10.00" fill="#000000">GluonicLQCD/config</text>
<text text-anchor="middle" x="178.5762" y="-6.5" font-family="Helvetica,sans-Serif" font-size="10.00" fill="#000000">/sysprint.cpp</text>
</a>
</g>
</g>
<!-- Node17&#45;&gt;Node19 -->
<g id="edge2" class="edge">
<title>Node17&#45;&gt;Node19</title>
<path fill="none" stroke="#191970" d="M178.5762,-55.1081C178.5762,-46.1539 178.5762,-36.3227 178.5762,-28.5765"/>
<polygon fill="#191970" stroke="#191970" points="175.0763,-55.3959 178.5762,-65.396 182.0763,-55.396 175.0763,-55.3959"/>
</g>
<!-- Node20 -->
<g id="node4" class="node">
<title>Node20</title>
<g id="a_node4"><a xlink:href="system_8cpp.html" target="_top" xlink:title=" ">
<polygon fill="#ffffff" stroke="#000000" points="250.0566,-5.5 250.0566,-23.5 381.0957,-23.5 381.0957,-5.5 250.0566,-5.5"/>
<text text-anchor="middle" x="315.5762" y="-11.5" font-family="Helvetica,sans-Serif" font-size="10.00" fill="#000000">GluonicLQCD/system.cpp</text>
</a>
</g>
</g>
<!-- Node17&#45;&gt;Node20 -->
<g id="edge3" class="edge">
<title>Node17&#45;&gt;Node20</title>
<path fill="none" stroke="#191970" d="M217.4692,-61.0471C243.3002,-48.7915 276.0864,-33.236 296.4503,-23.5743"/>
<polygon fill="#191970" stroke="#191970" points="215.8375,-57.9472 208.3031,-65.396 218.8381,-64.2715 215.8375,-57.9472"/>
</g>
</g>
</svg>
