<?xml version="1.0" encoding="UTF-8" standalone="no"?>
<!DOCTYPE svg PUBLIC "-//W3C//DTD SVG 1.1//EN"
 "http://www.w3.org/Graphics/SVG/1.1/DTD/svg11.dtd">
<!-- Generated by graphviz version 2.40.1 (20161225.0304)
 -->
<!-- Title: GluonicLQCD/tests/testsuite.h Pages: 1 -->
<svg width="316pt" height="137pt"
 viewBox="0.00 0.00 315.66 137.00" xmlns="http://www.w3.org/2000/svg" xmlns:xlink="http://www.w3.org/1999/xlink">
<g id="graph0" class="graph" transform="scale(1 1) rotate(0) translate(4 133)">
<title>GluonicLQCD/tests/testsuite.h</title>
<polygon fill="#ffffff" stroke="transparent" points="-4,4 -4,-133 311.6646,-133 311.6646,4 -4,4"/>
<!-- Node17 -->
<g id="node1" class="node">
<title>Node17</title>
<g id="a_node1"><a xlink:title=" ">
<polygon fill="#bfbfbf" stroke="#000000" points="70.4385,-110.5 70.4385,-128.5 220.3838,-128.5 220.3838,-110.5 70.4385,-110.5"/>
<text text-anchor="middle" x="145.4111" y="-116.5" font-family="Helvetica,sans-Serif" font-size="10.00" fill="#000000">GluonicLQCD/tests/testsuite.h</text>
</a>
</g>
</g>
<!-- Node18 -->
<g id="node2" class="node">
<title>Node18</title>
<g id="a_node2"><a xlink:href="test_8h.html" target="_top" xlink:title=" ">
<polygon fill="#ffffff" stroke="#000000" points="0,-55.5 0,-73.5 128.8223,-73.5 128.8223,-55.5 0,-55.5"/>
<text text-anchor="middle" x="64.4111" y="-61.5" font-family="Helvetica,sans-Serif" font-size="10.00" fill="#000000">GluonicLQCD/tests/test.h</text>
</a>
</g>
</g>
<!-- Node17&#45;&gt;Node18 -->
<g id="edge1" class="edge">
<title>Node17&#45;&gt;Node18</title>
<path fill="none" stroke="#191970" d="M123.5754,-104.6733C108.9786,-94.7619 90.2417,-82.0393 77.8065,-73.5956"/>
<polygon fill="#191970" stroke="#191970" points="121.7964,-107.6959 132.0356,-110.4179 125.7287,-101.9047 121.7964,-107.6959"/>
</g>
<!-- Node20 -->
<g id="node4" class="node">
<title>Node20</title>
<g id="a_node4"><a xlink:href="testsuite_8cpp.html" target="_top" xlink:title=" ">
<polygon fill="#ffffff" stroke="#000000" points="147.1577,-55.5 147.1577,-73.5 307.6646,-73.5 307.6646,-55.5 147.1577,-55.5"/>
<text text-anchor="middle" x="227.4111" y="-61.5" font-family="Helvetica,sans-Serif" font-size="10.00" fill="#000000">GluonicLQCD/tests/testsuite.cpp</text>
</a>
</g>
</g>
<!-- Node17&#45;&gt;Node20 -->
<g id="edge3" class="edge">
<title>Node17&#45;&gt;Node20</title>
<path fill="none" stroke="#191970" d="M167.5164,-104.6733C182.2934,-94.7619 201.2616,-82.0393 213.8504,-73.5956"/>
<polygon fill="#191970" stroke="#191970" points="165.307,-101.9408 158.9518,-110.4179 169.2063,-107.7542 165.307,-101.9408"/>
</g>
<!-- Node19 -->
<g id="node3" class="node">
<title>Node19</title>
<g id="a_node3"><a xlink:href="main_8cpp.html" target="_top" xlink:title=" ">
<polygon fill="#ffffff" stroke="#000000" points="3.8892,-.5 3.8892,-18.5 124.9331,-18.5 124.9331,-.5 3.8892,-.5"/>
<text text-anchor="middle" x="64.4111" y="-6.5" font-family="Helvetica,sans-Serif" font-size="10.00" fill="#000000">GluonicLQCD/main.cpp</text>
</a>
</g>
</g>
<!-- Node18&#45;&gt;Node19 -->
<g id="edge2" class="edge">
<title>Node18&#45;&gt;Node19</title>
<path fill="none" stroke="#191970" d="M64.4111,-45.383C64.4111,-36.3738 64.4111,-26.0373 64.4111,-18.7795"/>
<polygon fill="#191970" stroke="#191970" points="60.9112,-45.4178 64.4111,-55.4179 67.9112,-45.4179 60.9112,-45.4178"/>
</g>
</g>
</svg>
