<?xml version="1.0" encoding="UTF-8" standalone="no"?>
<!DOCTYPE svg PUBLIC "-//W3C//DTD SVG 1.1//EN"
 "http://www.w3.org/Graphics/SVG/1.1/DTD/svg11.dtd">
<!-- Generated by graphviz version 2.40.1 (20161225.0304)
 -->
<!-- Title: GluonicLQCD/tests/testsuite.cpp Pages: 1 -->
<svg width="1379pt" height="522pt"
 viewBox="0.00 0.00 1378.70 522.00" xmlns="http://www.w3.org/2000/svg" xmlns:xlink="http://www.w3.org/1999/xlink">
<g id="graph0" class="graph" transform="scale(1 1) rotate(0) translate(4 518)">
<title>GluonicLQCD/tests/testsuite.cpp</title>
<polygon fill="#ffffff" stroke="transparent" points="-4,4 -4,-518 1374.7042,-518 1374.7042,4 -4,4"/>
<!-- Node0 -->
<g id="node1" class="node">
<title>Node0</title>
<g id="a_node1"><a xlink:title=" ">
<polygon fill="#bfbfbf" stroke="#000000" points="584.3575,-495.5 584.3575,-513.5 744.8643,-513.5 744.8643,-495.5 584.3575,-495.5"/>
<text text-anchor="middle" x="664.6109" y="-501.5" font-family="Helvetica,sans-Serif" font-size="10.00" fill="#000000">GluonicLQCD/tests/testsuite.cpp</text>
</a>
</g>
</g>
<!-- Node1 -->
<g id="node2" class="node">
<title>Node1</title>
<g id="a_node2"><a xlink:href="testsuite_8h.html" target="_top" xlink:title=" ">
<polygon fill="#ffffff" stroke="#000000" points="326.8204,-275.5 326.8204,-293.5 388.4014,-293.5 388.4014,-275.5 326.8204,-275.5"/>
<text text-anchor="middle" x="357.6109" y="-281.5" font-family="Helvetica,sans-Serif" font-size="10.00" fill="#000000">testsuite.h</text>
</a>
</g>
</g>
<!-- Node0&#45;&gt;Node1 -->
<g id="edge1" class="edge">
<title>Node0&#45;&gt;Node1</title>
<path fill="none" stroke="#191970" d="M606.6492,-495.4929C558.6281,-487.1687 494.9301,-473.8683 473.6109,-459 415.7653,-418.6576 379.0076,-339.3454 364.5717,-303.2206"/>
<polygon fill="#191970" stroke="#191970" points="367.824,-301.9267 360.9504,-293.8642 361.2959,-304.4534 367.824,-301.9267"/>
</g>
<!-- Node6 -->
<g id="node7" class="node">
<title>Node6</title>
<g id="a_node7"><a xlink:title=" ">
<polygon fill="#ffffff" stroke="#bfbfbf" points="364.4385,-.5 364.4385,-18.5 418.7833,-18.5 418.7833,-.5 364.4385,-.5"/>
<text text-anchor="middle" x="391.6109" y="-6.5" font-family="Helvetica,sans-Serif" font-size="10.00" fill="#000000">iostream</text>
</a>
</g>
</g>
<!-- Node0&#45;&gt;Node6 -->
<g id="edge30" class="edge">
<title>Node0&#45;&gt;Node6</title>
<path fill="none" stroke="#191970" d="M614.3891,-495.4835C574.1206,-487.2931 521.8965,-474.1929 506.6109,-459 485.4152,-437.9328 487.6109,-424.3846 487.6109,-394.5 487.6109,-394.5 487.6109,-394.5 487.6109,-119.5 487.6109,-76.5008 445.4557,-42.1864 417.0143,-23.9283"/>
<polygon fill="#191970" stroke="#191970" points="418.6815,-20.8444 408.3328,-18.5739 415.0069,-26.8024 418.6815,-20.8444"/>
</g>
<!-- Node18 -->
<g id="node19" class="node">
<title>Node18</title>
<g id="a_node19"><a xlink:title=" ">
<polygon fill="#ffffff" stroke="#bfbfbf" points="516.1011,-440.5 516.1011,-458.5 567.1207,-458.5 567.1207,-440.5 516.1011,-440.5"/>
<text text-anchor="middle" x="541.6109" y="-446.5" font-family="Helvetica,sans-Serif" font-size="10.00" fill="#000000">iomanip</text>
</a>
</g>
</g>
<!-- Node0&#45;&gt;Node18 -->
<g id="edge31" class="edge">
<title>Node0&#45;&gt;Node18</title>
<path fill="none" stroke="#191970" d="M644.3,-495.4179C624.3588,-486.5011 593.725,-472.803 571.1024,-462.6873"/>
<polygon fill="#191970" stroke="#191970" points="572.5097,-459.4826 561.952,-458.5956 569.6522,-465.8728 572.5097,-459.4826"/>
</g>
<!-- Node19 -->
<g id="node20" class="node">
<title>Node19</title>
<g id="a_node20"><a xlink:title=" ">
<polygon fill="#ffffff" stroke="#bfbfbf" points="584.6651,-440.5 584.6651,-458.5 624.5567,-458.5 624.5567,-440.5 584.6651,-440.5"/>
<text text-anchor="middle" x="604.6109" y="-446.5" font-family="Helvetica,sans-Serif" font-size="10.00" fill="#000000">ctime</text>
</a>
</g>
</g>
<!-- Node0&#45;&gt;Node19 -->
<g id="edge32" class="edge">
<title>Node0&#45;&gt;Node19</title>
<path fill="none" stroke="#191970" d="M654.7031,-495.4179C645.8973,-487.3458 632.817,-475.3556 622.2309,-465.6517"/>
<polygon fill="#191970" stroke="#191970" points="624.4706,-462.9567 614.7339,-458.7795 619.7405,-468.1168 624.4706,-462.9567"/>
</g>
<!-- Node20 -->
<g id="node21" class="node">
<title>Node20</title>
<g id="a_node21"><a xlink:title=" ">
<polygon fill="#ffffff" stroke="#bfbfbf" points="642.9952,-440.5 642.9952,-458.5 686.2266,-458.5 686.2266,-440.5 642.9952,-440.5"/>
<text text-anchor="middle" x="664.6109" y="-446.5" font-family="Helvetica,sans-Serif" font-size="10.00" fill="#000000">cmath</text>
</a>
</g>
</g>
<!-- Node0&#45;&gt;Node20 -->
<g id="edge33" class="edge">
<title>Node0&#45;&gt;Node20</title>
<path fill="none" stroke="#191970" d="M664.6109,-495.4179C664.6109,-488.2164 664.6109,-477.8962 664.6109,-468.8632"/>
<polygon fill="#191970" stroke="#191970" points="668.111,-468.7794 664.6109,-458.7795 661.111,-468.7795 668.111,-468.7794"/>
</g>
<!-- Node21 -->
<g id="node22" class="node">
<title>Node21</title>
<g id="a_node22"><a xlink:href="communicator_8h.html" target="_top" xlink:title=" ">
<polygon fill="#ffffff" stroke="#000000" points="750.3526,-275.5 750.3526,-293.5 900.8692,-293.5 900.8692,-275.5 750.3526,-275.5"/>
<text text-anchor="middle" x="825.6109" y="-281.5" font-family="Helvetica,sans-Serif" font-size="10.00" fill="#000000">parallelization/communicator.h</text>
</a>
</g>
</g>
<!-- Node0&#45;&gt;Node21 -->
<g id="edge34" class="edge">
<title>Node0&#45;&gt;Node21</title>
<path fill="none" stroke="#191970" d="M676.502,-495.4378C687.0472,-486.9293 702.3287,-473.386 712.6109,-459 749.2704,-407.7087 733.4673,-380.1974 771.6109,-330 780.5068,-318.2929 792.92,-307.5684 803.6021,-299.4754"/>
<polygon fill="#191970" stroke="#191970" points="805.6738,-302.2965 811.6976,-293.5807 801.5534,-296.6377 805.6738,-302.2965"/>
</g>
<!-- Node22 -->
<g id="node23" class="node">
<title>Node22</title>
<g id="a_node23"><a xlink:href="fieldio_8h.html" target="_top" xlink:title=" ">
<polygon fill="#ffffff" stroke="#000000" points="633.0963,-275.5 633.0963,-293.5 694.1255,-293.5 694.1255,-275.5 633.0963,-275.5"/>
<text text-anchor="middle" x="663.6109" y="-281.5" font-family="Helvetica,sans-Serif" font-size="10.00" fill="#000000">io/fieldio.h</text>
</a>
</g>
</g>
<!-- Node0&#45;&gt;Node22 -->
<g id="edge37" class="edge">
<title>Node0&#45;&gt;Node22</title>
<path fill="none" stroke="#191970" d="M673.3879,-495.2857C680.937,-486.6749 691.2743,-473.0668 695.6109,-459 712.7232,-403.4916 687.2567,-335.0665 672.6584,-302.8798"/>
<polygon fill="#191970" stroke="#191970" points="675.7938,-301.3226 668.3684,-293.7652 669.4603,-304.3037 675.7938,-301.3226"/>
</g>
<!-- Node24 -->
<g id="node25" class="node">
<title>Node24</title>
<g id="a_node25"><a xlink:href="parameters_8h.html" target="_top" xlink:title=" ">
<polygon fill="#ffffff" stroke="#000000" points="796.4214,-440.5 796.4214,-458.5 900.8004,-458.5 900.8004,-440.5 796.4214,-440.5"/>
<text text-anchor="middle" x="848.6109" y="-446.5" font-family="Helvetica,sans-Serif" font-size="10.00" fill="#000000">config/parameters.h</text>
</a>
</g>
</g>
<!-- Node0&#45;&gt;Node24 -->
<g id="edge41" class="edge">
<title>Node0&#45;&gt;Node24</title>
<path fill="none" stroke="#191970" d="M694.9948,-495.4179C726.1169,-486.115 774.6495,-471.608 808.8192,-461.3943"/>
<polygon fill="#191970" stroke="#191970" points="809.909,-464.7216 818.4877,-458.5042 807.9042,-458.0148 809.909,-464.7216"/>
</g>
<!-- Node27 -->
<g id="node28" class="node">
<title>Node27</title>
<g id="a_node28"><a xlink:href="plaquette_8h.html" target="_top" xlink:title=" ">
<polygon fill="#ffffff" stroke="#000000" points="1248.5176,-385.5 1248.5176,-403.5 1370.7042,-403.5 1370.7042,-385.5 1248.5176,-385.5"/>
<text text-anchor="middle" x="1309.6109" y="-391.5" font-family="Helvetica,sans-Serif" font-size="10.00" fill="#000000">observables/plaquette.h</text>
</a>
</g>
</g>
<!-- Node0&#45;&gt;Node27 -->
<g id="edge50" class="edge">
<title>Node0&#45;&gt;Node27</title>
<path fill="none" stroke="#191970" d="M717.394,-495.4982C835.3006,-475.3901 1119.6616,-426.8945 1246.5921,-405.2474"/>
<polygon fill="#191970" stroke="#191970" points="1247.2824,-408.6803 1256.5516,-403.5489 1246.1055,-401.7799 1247.2824,-408.6803"/>
</g>
<!-- Node2 -->
<g id="node3" class="node">
<title>Node2</title>
<g id="a_node3"><a xlink:href="su3matrixgenerator_8h.html" target="_top" xlink:title=" ">
<polygon fill="#ffffff" stroke="#000000" points="12.8526,-165.5 12.8526,-183.5 188.3692,-183.5 188.3692,-165.5 12.8526,-165.5"/>
<text text-anchor="middle" x="100.6109" y="-171.5" font-family="Helvetica,sans-Serif" font-size="10.00" fill="#000000">math/matrices/su3matrixgenerator.h</text>
</a>
</g>
</g>
<!-- Node1&#45;&gt;Node2 -->
<g id="edge2" class="edge">
<title>Node1&#45;&gt;Node2</title>
<path fill="none" stroke="#191970" d="M328.274,-275.4692C301.6451,-266.9818 261.4808,-253.4519 227.6109,-239 191.3074,-223.5097 150.9051,-202.2625 125.6268,-188.4584"/>
<polygon fill="#191970" stroke="#191970" points="127.1682,-185.3118 116.7193,-183.5598 123.7951,-191.4455 127.1682,-185.3118"/>
</g>
<!-- Node8 -->
<g id="node9" class="node">
<title>Node8</title>
<g id="a_node9"><a xlink:href="latticemath_8h.html" target="_top" xlink:title=" ">
<polygon fill="#ffffff" stroke="#000000" points="236.7588,-220.5 236.7588,-238.5 334.463,-238.5 334.463,-220.5 236.7588,-220.5"/>
<text text-anchor="middle" x="285.6109" y="-226.5" font-family="Helvetica,sans-Serif" font-size="10.00" fill="#000000">math/latticemath.h</text>
</a>
</g>
</g>
<!-- Node1&#45;&gt;Node8 -->
<g id="edge9" class="edge">
<title>Node1&#45;&gt;Node8</title>
<path fill="none" stroke="#191970" d="M345.7216,-275.4179C334.9474,-267.1876 318.8407,-254.8839 306.0112,-245.0836"/>
<polygon fill="#191970" stroke="#191970" points="307.8299,-242.0685 297.7586,-238.7795 303.5806,-247.6313 307.8299,-242.0685"/>
</g>
<!-- Node11 -->
<g id="node12" class="node">
<title>Node11</title>
<g id="a_node12"><a xlink:href="lattice_8h.html" target="_top" xlink:title=" ">
<polygon fill="#ffffff" stroke="#000000" points="762.8746,-220.5 762.8746,-238.5 838.3472,-238.5 838.3472,-220.5 762.8746,-220.5"/>
<text text-anchor="middle" x="800.6109" y="-226.5" font-family="Helvetica,sans-Serif" font-size="10.00" fill="#000000">math/lattice.h</text>
</a>
</g>
</g>
<!-- Node1&#45;&gt;Node11 -->
<g id="edge19" class="edge">
<title>Node1&#45;&gt;Node11</title>
<path fill="none" stroke="#191970" d="M388.4101,-280.6762C464.3617,-271.2465 661.0713,-246.8243 752.5368,-235.4686"/>
<polygon fill="#191970" stroke="#191970" points="753.1374,-238.921 762.63,-234.2155 752.2749,-231.9743 753.1374,-238.921"/>
</g>
<!-- Node3 -->
<g id="node4" class="node">
<title>Node3</title>
<g id="a_node4"><a xlink:title=" ">
<polygon fill="#ffffff" stroke="#bfbfbf" points="75.6578,-110.5 75.6578,-128.5 125.564,-128.5 125.564,-110.5 75.6578,-110.5"/>
<text text-anchor="middle" x="100.6109" y="-116.5" font-family="Helvetica,sans-Serif" font-size="10.00" fill="#000000">random</text>
</a>
</g>
</g>
<!-- Node2&#45;&gt;Node3 -->
<g id="edge3" class="edge">
<title>Node2&#45;&gt;Node3</title>
<path fill="none" stroke="#191970" d="M100.6109,-165.4179C100.6109,-158.2164 100.6109,-147.8962 100.6109,-138.8632"/>
<polygon fill="#191970" stroke="#191970" points="104.111,-138.7794 100.6109,-128.7795 97.111,-138.7795 104.111,-138.7794"/>
</g>
<!-- Node4 -->
<g id="node5" class="node">
<title>Node4</title>
<g id="a_node5"><a xlink:href="su3_8h.html" target="_top" xlink:title=" ">
<polygon fill="#ffffff" stroke="#000000" points="286.3795,-110.5 286.3795,-128.5 326.8423,-128.5 326.8423,-110.5 286.3795,-110.5"/>
<text text-anchor="middle" x="306.6109" y="-116.5" font-family="Helvetica,sans-Serif" font-size="10.00" fill="#000000">su3.h</text>
</a>
</g>
</g>
<!-- Node2&#45;&gt;Node4 -->
<g id="edge4" class="edge">
<title>Node2&#45;&gt;Node4</title>
<path fill="none" stroke="#191970" d="M134.6276,-165.4179C174.1121,-154.8759 238.6272,-137.651 276.4084,-127.5638"/>
<polygon fill="#191970" stroke="#191970" points="277.5541,-130.8806 286.3128,-124.9194 275.7483,-124.1175 277.5541,-130.8806"/>
</g>
<!-- Node7 -->
<g id="node8" class="node">
<title>Node7</title>
<g id="a_node8"><a xlink:href="su2_8h.html" target="_top" xlink:title=" ">
<polygon fill="#ffffff" stroke="#000000" points="207.3795,-110.5 207.3795,-128.5 247.8423,-128.5 247.8423,-110.5 207.3795,-110.5"/>
<text text-anchor="middle" x="227.6109" y="-116.5" font-family="Helvetica,sans-Serif" font-size="10.00" fill="#000000">su2.h</text>
</a>
</g>
</g>
<!-- Node2&#45;&gt;Node7 -->
<g id="edge7" class="edge">
<title>Node2&#45;&gt;Node7</title>
<path fill="none" stroke="#191970" d="M121.5824,-165.4179C142.2953,-156.4477 174.1812,-142.6388 197.579,-132.5059"/>
<polygon fill="#191970" stroke="#191970" points="199.2442,-135.599 207.0297,-128.4131 196.4623,-129.1755 199.2442,-135.599"/>
</g>
<!-- Node5 -->
<g id="node6" class="node">
<title>Node5</title>
<g id="a_node6"><a xlink:href="complex_8h.html" target="_top" xlink:title=" ">
<polygon fill="#ffffff" stroke="#000000" points="263.3179,-55.5 263.3179,-73.5 349.9039,-73.5 349.9039,-55.5 263.3179,-55.5"/>
<text text-anchor="middle" x="306.6109" y="-61.5" font-family="Helvetica,sans-Serif" font-size="10.00" fill="#000000">math/complex.h</text>
</a>
</g>
</g>
<!-- Node4&#45;&gt;Node5 -->
<g id="edge5" class="edge">
<title>Node4&#45;&gt;Node5</title>
<path fill="none" stroke="#191970" d="M306.6109,-110.4179C306.6109,-103.2164 306.6109,-92.8962 306.6109,-83.8632"/>
<polygon fill="#191970" stroke="#191970" points="310.111,-83.7794 306.6109,-73.7795 303.111,-83.7795 310.111,-83.7794"/>
</g>
<!-- Node5&#45;&gt;Node6 -->
<g id="edge6" class="edge">
<title>Node5&#45;&gt;Node6</title>
<path fill="none" stroke="#191970" d="M320.6469,-55.4179C333.8122,-46.8992 353.7217,-34.0166 369.1049,-24.0627"/>
<polygon fill="#191970" stroke="#191970" points="371.0597,-26.9667 377.554,-18.5956 367.2569,-21.0897 371.0597,-26.9667"/>
</g>
<!-- Node7&#45;&gt;Node5 -->
<g id="edge8" class="edge">
<title>Node7&#45;&gt;Node5</title>
<path fill="none" stroke="#191970" d="M240.6561,-110.4179C252.7778,-101.9788 271.0509,-89.257 285.2916,-79.3426"/>
<polygon fill="#191970" stroke="#191970" points="287.3391,-82.1818 293.5463,-73.5956 283.3395,-76.4369 287.3391,-82.1818"/>
</g>
<!-- Node8&#45;&gt;Node4 -->
<g id="edge10" class="edge">
<title>Node8&#45;&gt;Node4</title>
<path fill="none" stroke="#191970" d="M281.0152,-220.1266C275.416,-207.4038 267.4241,-184.0679 273.6109,-165 277.0531,-154.3911 283.9997,-144.1855 290.6354,-136.1379"/>
<polygon fill="#191970" stroke="#191970" points="293.2884,-138.4211 297.2779,-128.606 288.0384,-133.791 293.2884,-138.4211"/>
</g>
<!-- Node8&#45;&gt;Node5 -->
<g id="edge12" class="edge">
<title>Node8&#45;&gt;Node5</title>
<path fill="none" stroke="#191970" d="M236.6223,-225.0322C159.89,-217.534 18.5217,-201.5094 3.6109,-184 -1.864,-177.5709 .1172,-172.6878 3.6109,-165 18.9887,-131.1614 33.1833,-126.2519 66.6109,-110 98.7894,-94.3554 192.8178,-79.5668 253.1812,-71.3026"/>
<polygon fill="#191970" stroke="#191970" points="253.8599,-74.7428 263.301,-69.9349 252.9223,-67.8059 253.8599,-74.7428"/>
</g>
<!-- Node8&#45;&gt;Node7 -->
<g id="edge11" class="edge">
<title>Node8&#45;&gt;Node7</title>
<path fill="none" stroke="#191970" d="M280.8645,-220.4982C271.348,-202.4496 249.7725,-161.5306 237.199,-137.6843"/>
<polygon fill="#191970" stroke="#191970" points="240.183,-135.8394 232.4229,-128.6261 233.991,-139.1043 240.183,-135.8394"/>
</g>
<!-- Node9 -->
<g id="node10" class="node">
<title>Node9</title>
<g id="a_node10"><a xlink:href="links_8h.html" target="_top" xlink:title=" ">
<polygon fill="#ffffff" stroke="#000000" points="282.9337,-165.5 282.9337,-183.5 352.2881,-183.5 352.2881,-165.5 282.9337,-165.5"/>
<text text-anchor="middle" x="317.6109" y="-171.5" font-family="Helvetica,sans-Serif" font-size="10.00" fill="#000000">math/links.h</text>
</a>
</g>
</g>
<!-- Node8&#45;&gt;Node9 -->
<g id="edge13" class="edge">
<title>Node8&#45;&gt;Node9</title>
<path fill="none" stroke="#191970" d="M290.895,-220.4179C295.2692,-212.8998 301.6209,-201.9829 307.0335,-192.6799"/>
<polygon fill="#191970" stroke="#191970" points="310.2082,-194.1831 312.2119,-183.7795 304.1577,-190.6628 310.2082,-194.1831"/>
</g>
<!-- Node10 -->
<g id="node11" class="node">
<title>Node10</title>
<g id="a_node11"><a xlink:href="functions_8h.html" target="_top" xlink:title=" ">
<polygon fill="#ffffff" stroke="#000000" points="369.9239,-165.5 369.9239,-183.5 459.2979,-183.5 459.2979,-165.5 369.9239,-165.5"/>
<text text-anchor="middle" x="414.6109" y="-171.5" font-family="Helvetica,sans-Serif" font-size="10.00" fill="#000000">math/functions.h</text>
</a>
</g>
</g>
<!-- Node8&#45;&gt;Node10 -->
<g id="edge15" class="edge">
<title>Node8&#45;&gt;Node10</title>
<path fill="none" stroke="#191970" d="M306.9126,-220.4179C327.9199,-211.4613 360.2417,-197.6806 383.998,-187.552"/>
<polygon fill="#191970" stroke="#191970" points="385.4514,-190.7372 393.2775,-183.5956 382.706,-184.2981 385.4514,-190.7372"/>
</g>
<!-- Node9&#45;&gt;Node4 -->
<g id="edge14" class="edge">
<title>Node9&#45;&gt;Node4</title>
<path fill="none" stroke="#191970" d="M315.7945,-165.4179C314.3542,-158.2164 312.2901,-147.8962 310.4835,-138.8632"/>
<polygon fill="#191970" stroke="#191970" points="313.8601,-137.8988 308.4668,-128.7795 306.996,-139.2717 313.8601,-137.8988"/>
</g>
<!-- Node10&#45;&gt;Node4 -->
<g id="edge16" class="edge">
<title>Node10&#45;&gt;Node4</title>
<path fill="none" stroke="#191970" d="M396.7769,-165.4179C379.5802,-156.6603 353.3273,-143.2907 333.5766,-133.2326"/>
<polygon fill="#191970" stroke="#191970" points="334.9708,-130.0148 324.4714,-128.5956 331.7941,-136.2526 334.9708,-130.0148"/>
</g>
<!-- Node10&#45;&gt;Node5 -->
<g id="edge18" class="edge">
<title>Node10&#45;&gt;Node5</title>
<path fill="none" stroke="#191970" d="M405.7728,-165.4982C387.5777,-146.9662 345.7089,-104.3221 322.62,-80.8056"/>
<polygon fill="#191970" stroke="#191970" points="325.0745,-78.3097 315.5711,-73.6261 320.0796,-83.2139 325.0745,-78.3097"/>
</g>
<!-- Node10&#45;&gt;Node7 -->
<g id="edge17" class="edge">
<title>Node10&#45;&gt;Node7</title>
<path fill="none" stroke="#191970" d="M383.7317,-165.4179C348.8534,-155.1596 292.4595,-138.5731 257.848,-128.3933"/>
<polygon fill="#191970" stroke="#191970" points="258.435,-124.9177 247.8537,-125.4538 256.4598,-131.6333 258.435,-124.9177"/>
</g>
<!-- Node11&#45;&gt;Node10 -->
<g id="edge29" class="edge">
<title>Node11&#45;&gt;Node10</title>
<path fill="none" stroke="#191970" d="M762.5433,-224.0759C693.9194,-214.2978 549.2339,-193.682 469.7641,-182.3586"/>
<polygon fill="#191970" stroke="#191970" points="469.861,-178.8371 459.4672,-180.8914 468.8735,-185.7671 469.861,-178.8371"/>
</g>
<!-- Node12 -->
<g id="node13" class="node">
<title>Node12</title>
<g id="a_node13"><a xlink:title=" ">
<polygon fill="#ffffff" stroke="#bfbfbf" points="1009.9952,-110.5 1009.9952,-128.5 1053.2266,-128.5 1053.2266,-110.5 1009.9952,-110.5"/>
<text text-anchor="middle" x="1031.6109" y="-116.5" font-family="Helvetica,sans-Serif" font-size="10.00" fill="#000000">vector</text>
</a>
</g>
</g>
<!-- Node11&#45;&gt;Node12 -->
<g id="edge20" class="edge">
<title>Node11&#45;&gt;Node12</title>
<path fill="none" stroke="#191970" d="M819.0672,-220.4277C844.7046,-207.8533 892.5753,-184.4748 933.6109,-165 956.6616,-154.0605 982.8836,-141.9009 1002.3995,-132.906"/>
<polygon fill="#191970" stroke="#191970" points="1004.0488,-135.9999 1011.6692,-128.6392 1001.1218,-129.6412 1004.0488,-135.9999"/>
</g>
<!-- Node13 -->
<g id="node14" class="node">
<title>Node13</title>
<g id="a_node14"><a xlink:title=" ">
<polygon fill="#ffffff" stroke="#bfbfbf" points="638.3843,-110.5 638.3843,-128.5 678.8375,-128.5 678.8375,-110.5 638.3843,-110.5"/>
<text text-anchor="middle" x="658.6109" y="-116.5" font-family="Helvetica,sans-Serif" font-size="10.00" fill="#000000">mpi.h</text>
</a>
</g>
</g>
<!-- Node11&#45;&gt;Node13 -->
<g id="edge21" class="edge">
<title>Node11&#45;&gt;Node13</title>
<path fill="none" stroke="#191970" d="M786.6746,-220.4802C773.1169,-211.5694 752.0676,-197.3715 734.6109,-184 713.9775,-168.1952 691.3963,-148.7351 676.2543,-135.3483"/>
<polygon fill="#191970" stroke="#191970" points="678.4647,-132.6301 668.6671,-128.5978 673.8117,-137.8598 678.4647,-132.6301"/>
</g>
<!-- Node14 -->
<g id="node15" class="node">
<title>Node14</title>
<g id="a_node15"><a xlink:href="index_8h.html" target="_top" xlink:title=" ">
<polygon fill="#ffffff" stroke="#000000" points="975.525,-165.5 975.525,-183.5 1087.6968,-183.5 1087.6968,-165.5 975.525,-165.5"/>
<text text-anchor="middle" x="1031.6109" y="-171.5" font-family="Helvetica,sans-Serif" font-size="10.00" fill="#000000">parallelization/index.h</text>
</a>
</g>
</g>
<!-- Node11&#45;&gt;Node14 -->
<g id="edge22" class="edge">
<title>Node11&#45;&gt;Node14</title>
<path fill="none" stroke="#191970" d="M838.4972,-220.4795C878.1935,-211.0279 940.6554,-196.1561 983.7377,-185.8984"/>
<polygon fill="#191970" stroke="#191970" points="984.7866,-189.2466 993.7039,-183.5255 983.1652,-182.4369 984.7866,-189.2466"/>
</g>
<!-- Node15 -->
<g id="node16" class="node">
<title>Node15</title>
<g id="a_node16"><a xlink:href="neighbours_8h.html" target="_top" xlink:title=" ">
<polygon fill="#ffffff" stroke="#000000" points="743.7369,-165.5 743.7369,-183.5 881.4849,-183.5 881.4849,-165.5 743.7369,-165.5"/>
<text text-anchor="middle" x="812.6109" y="-171.5" font-family="Helvetica,sans-Serif" font-size="10.00" fill="#000000">parallelization/neighbours.h</text>
</a>
</g>
</g>
<!-- Node11&#45;&gt;Node15 -->
<g id="edge24" class="edge">
<title>Node11&#45;&gt;Node15</title>
<path fill="none" stroke="#191970" d="M802.5925,-220.4179C804.181,-213.1372 806.4649,-202.669 808.4511,-193.5659"/>
<polygon fill="#191970" stroke="#191970" points="811.8741,-194.2957 810.5863,-183.7795 805.035,-192.8035 811.8741,-194.2957"/>
</g>
<!-- Node17 -->
<g id="node18" class="node">
<title>Node17</title>
<g id="a_node18"><a xlink:href="parallelparameters_8h.html" target="_top" xlink:title=" ">
<polygon fill="#ffffff" stroke="#000000" points="516.0694,-165.5 516.0694,-183.5 687.1524,-183.5 687.1524,-165.5 516.0694,-165.5"/>
<text text-anchor="middle" x="601.6109" y="-171.5" font-family="Helvetica,sans-Serif" font-size="10.00" fill="#000000">parallelization/parallelparameters.h</text>
</a>
</g>
</g>
<!-- Node11&#45;&gt;Node17 -->
<g id="edge27" class="edge">
<title>Node11&#45;&gt;Node17</title>
<path fill="none" stroke="#191970" d="M767.7501,-220.4179C733.9463,-211.0751 681.1509,-196.4834 644.1715,-186.263"/>
<polygon fill="#191970" stroke="#191970" points="644.7608,-182.7947 634.1898,-183.5042 642.896,-189.5418 644.7608,-182.7947"/>
</g>
<!-- Node14&#45;&gt;Node12 -->
<g id="edge23" class="edge">
<title>Node14&#45;&gt;Node12</title>
<path fill="none" stroke="#191970" d="M1031.6109,-165.4179C1031.6109,-158.2164 1031.6109,-147.8962 1031.6109,-138.8632"/>
<polygon fill="#191970" stroke="#191970" points="1035.111,-138.7794 1031.6109,-128.7795 1028.111,-138.7795 1035.111,-138.7794"/>
</g>
<!-- Node15&#45;&gt;Node12 -->
<g id="edge26" class="edge">
<title>Node15&#45;&gt;Node12</title>
<path fill="none" stroke="#191970" d="M848.7743,-165.4179C890.9078,-154.8364 959.8514,-137.5218 999.9529,-127.4506"/>
<polygon fill="#191970" stroke="#191970" points="1000.8866,-130.8249 1009.7329,-124.9945 999.1815,-124.0358 1000.8866,-130.8249"/>
</g>
<!-- Node16 -->
<g id="node17" class="node">
<title>Node16</title>
<g id="a_node17"><a xlink:href="neighbourlist_8h.html" target="_top" xlink:title=" ">
<polygon fill="#ffffff" stroke="#000000" points="772.0889,-110.5 772.0889,-128.5 853.1329,-128.5 853.1329,-110.5 772.0889,-110.5"/>
<text text-anchor="middle" x="812.6109" y="-116.5" font-family="Helvetica,sans-Serif" font-size="10.00" fill="#000000">neighbourlist.h</text>
</a>
</g>
</g>
<!-- Node15&#45;&gt;Node16 -->
<g id="edge25" class="edge">
<title>Node15&#45;&gt;Node16</title>
<path fill="none" stroke="#191970" d="M812.6109,-165.4179C812.6109,-158.2164 812.6109,-147.8962 812.6109,-138.8632"/>
<polygon fill="#191970" stroke="#191970" points="816.111,-138.7794 812.6109,-128.7795 809.111,-138.7795 816.111,-138.7794"/>
</g>
<!-- Node17&#45;&gt;Node13 -->
<g id="edge28" class="edge">
<title>Node17&#45;&gt;Node13</title>
<path fill="none" stroke="#191970" d="M611.0233,-165.4179C619.3068,-157.425 631.5718,-145.5903 641.5754,-135.9377"/>
<polygon fill="#191970" stroke="#191970" points="644.2281,-138.2419 648.994,-128.7795 639.3675,-133.2045 644.2281,-138.2419"/>
</g>
<!-- Node21&#45;&gt;Node11 -->
<g id="edge36" class="edge">
<title>Node21&#45;&gt;Node11</title>
<path fill="none" stroke="#191970" d="M821.4827,-275.4179C818.1013,-267.9789 813.2074,-257.2123 809.0082,-247.9742"/>
<polygon fill="#191970" stroke="#191970" points="812.1532,-246.4348 804.8288,-238.7795 805.7806,-249.3315 812.1532,-246.4348"/>
</g>
<!-- Node21&#45;&gt;Node12 -->
<g id="edge35" class="edge">
<title>Node21&#45;&gt;Node12</title>
<path fill="none" stroke="#191970" d="M835.5608,-275.4154C858.1833,-254.9074 915.4839,-203.7895 966.6109,-165 980.5631,-154.4146 996.6893,-143.1207 1009.3888,-134.4331"/>
<polygon fill="#191970" stroke="#191970" points="1011.6464,-137.1306 1017.9502,-128.6151 1007.712,-131.3409 1011.6464,-137.1306"/>
</g>
<!-- Node22&#45;&gt;Node9 -->
<g id="edge39" class="edge">
<title>Node22&#45;&gt;Node9</title>
<path fill="none" stroke="#191970" d="M635.2963,-275.4982C573.4563,-255.8381 426.2589,-209.0413 356.0911,-186.7336"/>
<polygon fill="#191970" stroke="#191970" points="356.9072,-183.3205 346.3168,-183.6261 354.7863,-189.9915 356.9072,-183.3205"/>
</g>
<!-- Node22&#45;&gt;Node11 -->
<g id="edge40" class="edge">
<title>Node22&#45;&gt;Node11</title>
<path fill="none" stroke="#191970" d="M686.2337,-275.4179C708.6429,-266.4215 743.1754,-252.5581 768.4354,-242.4172"/>
<polygon fill="#191970" stroke="#191970" points="769.9784,-245.5693 777.9545,-238.5956 767.3705,-239.0732 769.9784,-245.5693"/>
</g>
<!-- Node23 -->
<g id="node24" class="node">
<title>Node23</title>
<g id="a_node24"><a xlink:title=" ">
<polygon fill="#ffffff" stroke="#bfbfbf" points="908.3843,-220.5 908.3843,-238.5 948.8375,-238.5 948.8375,-220.5 908.3843,-220.5"/>
<text text-anchor="middle" x="928.6109" y="-226.5" font-family="Helvetica,sans-Serif" font-size="10.00" fill="#000000">string</text>
</a>
</g>
</g>
<!-- Node22&#45;&gt;Node23 -->
<g id="edge38" class="edge">
<title>Node22&#45;&gt;Node23</title>
<path fill="none" stroke="#191970" d="M694.2686,-278.1371C745.2739,-267.5511 846.9794,-246.4424 897.9721,-235.859"/>
<polygon fill="#191970" stroke="#191970" points="898.9671,-239.2272 908.0472,-233.7679 897.5446,-232.3732 898.9671,-239.2272"/>
</g>
<!-- Node24&#45;&gt;Node12 -->
<g id="edge43" class="edge">
<title>Node24&#45;&gt;Node12</title>
<path fill="none" stroke="#191970" d="M896.1028,-440.4774C996.3894,-420.7691 1220.6109,-372.9634 1220.6109,-339.5 1220.6109,-339.5 1220.6109,-339.5 1220.6109,-229.5 1220.6109,-157.6032 1117.1855,-131.8825 1063.3518,-123.3644"/>
<polygon fill="#191970" stroke="#191970" points="1063.6951,-119.8772 1053.2916,-121.8815 1062.6743,-126.8024 1063.6951,-119.8772"/>
</g>
<!-- Node24&#45;&gt;Node23 -->
<g id="edge42" class="edge">
<title>Node24&#45;&gt;Node23</title>
<path fill="none" stroke="#191970" d="M864.2936,-440.4141C876.5377,-432.4427 892.889,-419.6863 901.6109,-404 929.7287,-353.43 931.0617,-282.572 929.8214,-248.8319"/>
<polygon fill="#191970" stroke="#191970" points="933.3023,-248.3556 929.3151,-238.5397 926.3108,-248.6996 933.3023,-248.3556"/>
</g>
<!-- Node25 -->
<g id="node26" class="node">
<title>Node25</title>
<g id="a_node26"><a xlink:href="sysprint_8h.html" target="_top" xlink:title=" ">
<polygon fill="#ffffff" stroke="#000000" points="804.483,-385.5 804.483,-403.5 892.7388,-403.5 892.7388,-385.5 804.483,-385.5"/>
<text text-anchor="middle" x="848.6109" y="-391.5" font-family="Helvetica,sans-Serif" font-size="10.00" fill="#000000">config/sysprint.h</text>
</a>
</g>
</g>
<!-- Node24&#45;&gt;Node25 -->
<g id="edge44" class="edge">
<title>Node24&#45;&gt;Node25</title>
<path fill="none" stroke="#191970" d="M843.4446,-440.4179C841.953,-433.2164 841.5151,-422.8962 842.1307,-413.8632"/>
<polygon fill="#191970" stroke="#191970" points="845.6235,-414.1392 843.4041,-403.7795 838.6787,-413.2621 845.6235,-414.1392"/>
</g>
<!-- Node25&#45;&gt;Node24 -->
<g id="edge45" class="edge">
<title>Node25&#45;&gt;Node24</title>
<path fill="none" stroke="#191970" d="M853.8177,-403.7795C855.29,-411.0373 855.7088,-421.3738 855.0741,-430.383"/>
<polygon fill="#191970" stroke="#191970" points="851.5878,-430.0517 853.7772,-440.4179 858.5301,-430.949 851.5878,-430.0517"/>
</g>
<!-- Node26 -->
<g id="node27" class="node">
<title>Node26</title>
<g id="a_node27"><a xlink:href="parallel_8h.html" target="_top" xlink:title=" ">
<polygon fill="#ffffff" stroke="#000000" points="780.3575,-330.5 780.3575,-348.5 900.8643,-348.5 900.8643,-330.5 780.3575,-330.5"/>
<text text-anchor="middle" x="840.6109" y="-336.5" font-family="Helvetica,sans-Serif" font-size="10.00" fill="#000000">parallelization/parallel.h</text>
</a>
</g>
</g>
<!-- Node25&#45;&gt;Node26 -->
<g id="edge46" class="edge">
<title>Node25&#45;&gt;Node26</title>
<path fill="none" stroke="#191970" d="M847.2899,-385.4179C846.2424,-378.2164 844.7413,-367.8962 843.4274,-358.8632"/>
<polygon fill="#191970" stroke="#191970" points="846.8637,-358.1715 841.9606,-348.7795 839.9366,-359.1791 846.8637,-358.1715"/>
</g>
<!-- Node26&#45;&gt;Node14 -->
<g id="edge48" class="edge">
<title>Node26&#45;&gt;Node14</title>
<path fill="none" stroke="#191970" d="M856.2745,-330.364C870.6589,-321.7016 892.3028,-307.968 909.6109,-294 950.8888,-260.6878 994.0565,-215.5731 1016.3128,-191.4217"/>
<polygon fill="#191970" stroke="#191970" points="1019.1104,-193.5489 1023.2756,-183.8071 1013.9445,-188.8251 1019.1104,-193.5489"/>
</g>
<!-- Node26&#45;&gt;Node17 -->
<g id="edge49" class="edge">
<title>Node26&#45;&gt;Node17</title>
<path fill="none" stroke="#191970" d="M816.0439,-330.4166C795.3987,-322.2749 765.5189,-309.28 741.6109,-294 692.5313,-262.6325 642.3683,-215.3519 617.5457,-190.7205"/>
<polygon fill="#191970" stroke="#191970" points="619.9508,-188.1756 610.4103,-183.568 614.9951,-193.1195 619.9508,-188.1756"/>
</g>
<!-- Node26&#45;&gt;Node21 -->
<g id="edge47" class="edge">
<title>Node26&#45;&gt;Node21</title>
<path fill="none" stroke="#191970" d="M838.134,-330.4179C836.1483,-323.1372 833.2933,-312.669 830.8107,-303.5659"/>
<polygon fill="#191970" stroke="#191970" points="834.1496,-302.5062 828.1417,-293.7795 827.3962,-304.348 834.1496,-302.5062"/>
</g>
<!-- Node28 -->
<g id="node29" class="node">
<title>Node28</title>
<g id="a_node29"><a xlink:href="correlator_8h.html" target="_top" xlink:title=" ">
<polygon fill="#ffffff" stroke="#000000" points="1093.5963,-330.5 1093.5963,-348.5 1159.6255,-348.5 1159.6255,-330.5 1093.5963,-330.5"/>
<text text-anchor="middle" x="1126.6109" y="-336.5" font-family="Helvetica,sans-Serif" font-size="10.00" fill="#000000">correlator.h</text>
</a>
</g>
</g>
<!-- Node27&#45;&gt;Node28 -->
<g id="edge51" class="edge">
<title>Node27&#45;&gt;Node28</title>
<path fill="none" stroke="#191970" d="M1279.3922,-385.4179C1248.4391,-376.115 1200.1704,-361.608 1166.1863,-351.3943"/>
<polygon fill="#191970" stroke="#191970" points="1167.1546,-348.0307 1156.5704,-348.5042 1165.1398,-354.7344 1167.1546,-348.0307"/>
</g>
<!-- Node28&#45;&gt;Node11 -->
<g id="edge52" class="edge">
<title>Node28&#45;&gt;Node11</title>
<path fill="none" stroke="#191970" d="M1099.933,-330.4982C1041.7869,-310.8784 903.5467,-264.2329 837.2742,-241.871"/>
<polygon fill="#191970" stroke="#191970" points="838.2516,-238.507 827.6575,-238.6261 836.0136,-245.1396 838.2516,-238.507"/>
</g>
<!-- Node28&#45;&gt;Node12 -->
<g id="edge56" class="edge">
<title>Node28&#45;&gt;Node12</title>
<path fill="none" stroke="#191970" d="M1137.4036,-330.2937C1146.3575,-321.8891 1158.43,-308.5828 1163.6109,-294 1166.4379,-286.0428 1165.3986,-283.253 1163.6109,-275 1152.2421,-222.5148 1150.0363,-204.4607 1113.6109,-165 1099.6717,-149.8993 1079.5427,-138.6281 1062.7168,-131.0812"/>
<polygon fill="#191970" stroke="#191970" points="1063.836,-127.754 1053.2635,-127.0673 1061.1002,-134.1973 1063.836,-127.754"/>
</g>
<!-- Node29 -->
<g id="node30" class="node">
<title>Node29</title>
<g id="a_node30"><a xlink:href="observablestorer_8h.html" target="_top" xlink:title=" ">
<polygon fill="#ffffff" stroke="#000000" points="1032.5225,-275.5 1032.5225,-293.5 1154.6993,-293.5 1154.6993,-275.5 1032.5225,-275.5"/>
<text text-anchor="middle" x="1093.6109" y="-281.5" font-family="Helvetica,sans-Serif" font-size="10.00" fill="#000000">tools/observablestorer.h</text>
</a>
</g>
</g>
<!-- Node28&#45;&gt;Node29 -->
<g id="edge53" class="edge">
<title>Node28&#45;&gt;Node29</title>
<path fill="none" stroke="#191970" d="M1121.1616,-330.4179C1116.6033,-322.8207 1109.9625,-311.7527 1104.3429,-302.3866"/>
<polygon fill="#191970" stroke="#191970" points="1107.3248,-300.5536 1099.1786,-293.7795 1101.3223,-304.1552 1107.3248,-300.5536"/>
</g>
<!-- Node29&#45;&gt;Node12 -->
<g id="edge55" class="edge">
<title>Node29&#45;&gt;Node12</title>
<path fill="none" stroke="#191970" d="M1096.6343,-275.4459C1103.0389,-254.5663 1115.8747,-201.9991 1096.6109,-165 1089.3421,-151.0391 1075.6123,-140.4762 1062.6374,-133.0593"/>
<polygon fill="#191970" stroke="#191970" points="1063.9056,-129.7716 1053.4263,-128.2111 1060.6452,-135.966 1063.9056,-129.7716"/>
</g>
<!-- Node29&#45;&gt;Node23 -->
<g id="edge54" class="edge">
<title>Node29&#45;&gt;Node23</title>
<path fill="none" stroke="#191970" d="M1066.3645,-275.4179C1036.7595,-265.5495 989.586,-249.825 958.8548,-239.5813"/>
<polygon fill="#191970" stroke="#191970" points="959.706,-236.1758 949.1123,-236.3338 957.4923,-242.8165 959.706,-236.1758"/>
</g>
</g>
</svg>
