<?xml version="1.0" encoding="UTF-8" standalone="no"?>
<!DOCTYPE svg PUBLIC "-//W3C//DTD SVG 1.1//EN"
 "http://www.w3.org/Graphics/SVG/1.1/DTD/svg11.dtd">
<!-- Generated by graphviz version 2.40.1 (20161225.0304)
 -->
<!-- Title: GluonicLQCD/tests/testsuite.cpp Pages: 1 -->
<svg width="1366pt" height="412pt"
 viewBox="0.00 0.00 1366.19 412.00" xmlns="http://www.w3.org/2000/svg" xmlns:xlink="http://www.w3.org/1999/xlink">
<g id="graph0" class="graph" transform="scale(1 1) rotate(0) translate(4 408)">
<title>GluonicLQCD/tests/testsuite.cpp</title>
<polygon fill="#ffffff" stroke="transparent" points="-4,4 -4,-408 1362.1895,-408 1362.1895,4 -4,4"/>
<!-- Node0 -->
<g id="node1" class="node">
<title>Node0</title>
<g id="a_node1"><a xlink:title=" ">
<polygon fill="#bfbfbf" stroke="#000000" points="954.7466,-385.5 954.7466,-403.5 1115.2534,-403.5 1115.2534,-385.5 954.7466,-385.5"/>
<text text-anchor="middle" x="1035" y="-391.5" font-family="Helvetica,sans-Serif" font-size="10.00" fill="#000000">GluonicLQCD/tests/testsuite.cpp</text>
</a>
</g>
</g>
<!-- Node1 -->
<g id="node2" class="node">
<title>Node1</title>
<g id="a_node2"><a xlink:href="testsuite_8h.html" target="_top" xlink:title=" ">
<polygon fill="#ffffff" stroke="#000000" points="430.2095,-275.5 430.2095,-293.5 491.7905,-293.5 491.7905,-275.5 430.2095,-275.5"/>
<text text-anchor="middle" x="461" y="-281.5" font-family="Helvetica,sans-Serif" font-size="10.00" fill="#000000">testsuite.h</text>
</a>
</g>
</g>
<!-- Node0&#45;&gt;Node1 -->
<g id="edge1" class="edge">
<title>Node0&#45;&gt;Node1</title>
<path fill="none" stroke="#191970" d="M988.0272,-385.4982C878.1412,-364.4399 605.7935,-312.2479 502.0377,-292.3644"/>
<polygon fill="#191970" stroke="#191970" points="502.4377,-288.8774 491.9576,-290.4327 501.1202,-295.7523 502.4377,-288.8774"/>
</g>
<!-- Node6 -->
<g id="node7" class="node">
<title>Node6</title>
<g id="a_node7"><a xlink:title=" ">
<polygon fill="#ffffff" stroke="#bfbfbf" points="97.8276,-.5 97.8276,-18.5 152.1724,-18.5 152.1724,-.5 97.8276,-.5"/>
<text text-anchor="middle" x="125" y="-6.5" font-family="Helvetica,sans-Serif" font-size="10.00" fill="#000000">iostream</text>
</a>
</g>
</g>
<!-- Node0&#45;&gt;Node6 -->
<g id="edge30" class="edge">
<title>Node0&#45;&gt;Node6</title>
<path fill="none" stroke="#191970" d="M954.6465,-390.1606C711.4687,-376.5014 0,-332.4418 0,-284.5 0,-284.5 0,-284.5 0,-119.5 0,-71.2038 53.2388,-39.0954 90.2272,-22.6158"/>
<polygon fill="#191970" stroke="#191970" points="91.8804,-25.7157 99.7044,-18.5718 89.1331,-19.2774 91.8804,-25.7157"/>
</g>
<!-- Node18 -->
<g id="node19" class="node">
<title>Node18</title>
<g id="a_node19"><a xlink:title=" ">
<polygon fill="#ffffff" stroke="#bfbfbf" points="1133.4902,-330.5 1133.4902,-348.5 1184.5098,-348.5 1184.5098,-330.5 1133.4902,-330.5"/>
<text text-anchor="middle" x="1159" y="-336.5" font-family="Helvetica,sans-Serif" font-size="10.00" fill="#000000">iomanip</text>
</a>
</g>
</g>
<!-- Node0&#45;&gt;Node18 -->
<g id="edge31" class="edge">
<title>Node0&#45;&gt;Node18</title>
<path fill="none" stroke="#191970" d="M1055.4761,-385.4179C1075.5794,-376.5011 1106.4622,-362.803 1129.2687,-352.6873"/>
<polygon fill="#191970" stroke="#191970" points="1130.7715,-355.8496 1138.4935,-348.5956 1127.9332,-349.4508 1130.7715,-355.8496"/>
</g>
<!-- Node19 -->
<g id="node20" class="node">
<title>Node19</title>
<g id="a_node20"><a xlink:title=" ">
<polygon fill="#ffffff" stroke="#bfbfbf" points="1202.0542,-330.5 1202.0542,-348.5 1241.9458,-348.5 1241.9458,-330.5 1202.0542,-330.5"/>
<text text-anchor="middle" x="1222" y="-336.5" font-family="Helvetica,sans-Serif" font-size="10.00" fill="#000000">ctime</text>
</a>
</g>
</g>
<!-- Node0&#45;&gt;Node19 -->
<g id="edge32" class="edge">
<title>Node0&#45;&gt;Node19</title>
<path fill="none" stroke="#191970" d="M1068.3331,-385.4666C1098.5844,-377.1569 1144.6278,-364.2331 1192.2985,-349.4476"/>
<polygon fill="#191970" stroke="#191970" points="1193.347,-352.7869 1201.8501,-346.4665 1191.2614,-346.1048 1193.347,-352.7869"/>
</g>
<!-- Node20 -->
<g id="node21" class="node">
<title>Node20</title>
<g id="a_node21"><a xlink:title=" ">
<polygon fill="#ffffff" stroke="#bfbfbf" points="1260.3843,-330.5 1260.3843,-348.5 1303.6157,-348.5 1303.6157,-330.5 1260.3843,-330.5"/>
<text text-anchor="middle" x="1282" y="-336.5" font-family="Helvetica,sans-Serif" font-size="10.00" fill="#000000">cmath</text>
</a>
</g>
</g>
<!-- Node0&#45;&gt;Node20 -->
<g id="edge33" class="edge">
<title>Node0&#45;&gt;Node20</title>
<path fill="none" stroke="#191970" d="M1084.1894,-385.4438C1125.9273,-377.4659 1187.5722,-364.9949 1250.0262,-349.0762"/>
<polygon fill="#191970" stroke="#191970" points="1251.2436,-352.3769 1260.0537,-346.4919 1249.4966,-345.5983 1251.2436,-352.3769"/>
</g>
<!-- Node21 -->
<g id="node22" class="node">
<title>Node21</title>
<g id="a_node22"><a xlink:href="communicator_8h.html" target="_top" xlink:title=" ">
<polygon fill="#ffffff" stroke="#000000" points="959.7417,-275.5 959.7417,-293.5 1110.2583,-293.5 1110.2583,-275.5 959.7417,-275.5"/>
<text text-anchor="middle" x="1035" y="-281.5" font-family="Helvetica,sans-Serif" font-size="10.00" fill="#000000">parallelization/communicator.h</text>
</a>
</g>
</g>
<!-- Node0&#45;&gt;Node21 -->
<g id="edge34" class="edge">
<title>Node0&#45;&gt;Node21</title>
<path fill="none" stroke="#191970" d="M1035,-385.4982C1035,-367.6913 1035,-327.6225 1035,-303.6515"/>
<polygon fill="#191970" stroke="#191970" points="1038.5001,-303.6261 1035,-293.6261 1031.5001,-303.6262 1038.5001,-303.6261"/>
</g>
<!-- Node22 -->
<g id="node23" class="node">
<title>Node22</title>
<g id="a_node23"><a xlink:href="fieldio_8h.html" target="_top" xlink:title=" ">
<polygon fill="#ffffff" stroke="#000000" points="796.4854,-275.5 796.4854,-293.5 857.5146,-293.5 857.5146,-275.5 796.4854,-275.5"/>
<text text-anchor="middle" x="827" y="-281.5" font-family="Helvetica,sans-Serif" font-size="10.00" fill="#000000">io/fieldio.h</text>
</a>
</g>
</g>
<!-- Node0&#45;&gt;Node22 -->
<g id="edge37" class="edge">
<title>Node0&#45;&gt;Node22</title>
<path fill="none" stroke="#191970" d="M981.8192,-385.4585C937.8269,-377.1119 879.6508,-363.7981 861,-349 846.4603,-337.4637 837.4223,-317.9833 832.3535,-303.4433"/>
<polygon fill="#191970" stroke="#191970" points="835.5654,-301.9896 829.2257,-293.5008 828.888,-304.0903 835.5654,-301.9896"/>
</g>
<!-- Node24 -->
<g id="node25" class="node">
<title>Node24</title>
<g id="a_node25"><a xlink:href="parameters_8h.html" target="_top" xlink:title=" ">
<polygon fill="#ffffff" stroke="#000000" points="1253.8105,-220.5 1253.8105,-238.5 1358.1895,-238.5 1358.1895,-220.5 1253.8105,-220.5"/>
<text text-anchor="middle" x="1306" y="-226.5" font-family="Helvetica,sans-Serif" font-size="10.00" fill="#000000">config/parameters.h</text>
</a>
</g>
</g>
<!-- Node0&#45;&gt;Node24 -->
<g id="edge41" class="edge">
<title>Node0&#45;&gt;Node24</title>
<path fill="none" stroke="#191970" d="M1046.4859,-385.4746C1063.1419,-372.5505 1095.1661,-348.3123 1124,-330 1177.2821,-296.1607 1242.6958,-261.6569 1278.8043,-243.1867"/>
<polygon fill="#191970" stroke="#191970" points="1280.429,-246.287 1287.7528,-238.6311 1277.2532,-240.0489 1280.429,-246.287"/>
</g>
<!-- Node25 -->
<g id="node26" class="node">
<title>Node25</title>
<g id="a_node26"><a xlink:href="plaquette_8h.html" target="_top" xlink:title=" ">
<polygon fill="#ffffff" stroke="#000000" points="869.9067,-330.5 869.9067,-348.5 992.0933,-348.5 992.0933,-330.5 869.9067,-330.5"/>
<text text-anchor="middle" x="931" y="-336.5" font-family="Helvetica,sans-Serif" font-size="10.00" fill="#000000">observables/plaquette.h</text>
</a>
</g>
</g>
<!-- Node0&#45;&gt;Node25 -->
<g id="edge44" class="edge">
<title>Node0&#45;&gt;Node25</title>
<path fill="none" stroke="#191970" d="M1017.8265,-385.4179C1001.342,-376.7001 976.2158,-363.4122 957.2268,-353.3699"/>
<polygon fill="#191970" stroke="#191970" points="958.6752,-350.1767 948.199,-348.5956 955.4027,-356.3646 958.6752,-350.1767"/>
</g>
<!-- Node2 -->
<g id="node3" class="node">
<title>Node2</title>
<g id="a_node3"><a xlink:href="su3matrixgenerator_8h.html" target="_top" xlink:title=" ">
<polygon fill="#ffffff" stroke="#000000" points="66.2417,-165.5 66.2417,-183.5 241.7583,-183.5 241.7583,-165.5 66.2417,-165.5"/>
<text text-anchor="middle" x="154" y="-171.5" font-family="Helvetica,sans-Serif" font-size="10.00" fill="#000000">math/matrices/su3matrixgenerator.h</text>
</a>
</g>
</g>
<!-- Node1&#45;&gt;Node2 -->
<g id="edge2" class="edge">
<title>Node1&#45;&gt;Node2</title>
<path fill="none" stroke="#191970" d="M430.1127,-278.8705C393.7455,-271.748 331.8546,-258.0698 281,-239 243.6321,-224.9875 202.9072,-203.0093 177.908,-188.6773"/>
<polygon fill="#191970" stroke="#191970" points="179.5432,-185.5796 169.1366,-183.5913 176.0319,-191.6353 179.5432,-185.5796"/>
</g>
<!-- Node8 -->
<g id="node9" class="node">
<title>Node8</title>
<g id="a_node9"><a xlink:href="latticemath_8h.html" target="_top" xlink:title=" ">
<polygon fill="#ffffff" stroke="#000000" points="290.1479,-220.5 290.1479,-238.5 387.8521,-238.5 387.8521,-220.5 290.1479,-220.5"/>
<text text-anchor="middle" x="339" y="-226.5" font-family="Helvetica,sans-Serif" font-size="10.00" fill="#000000">math/latticemath.h</text>
</a>
</g>
</g>
<!-- Node1&#45;&gt;Node8 -->
<g id="edge9" class="edge">
<title>Node1&#45;&gt;Node8</title>
<path fill="none" stroke="#191970" d="M440.8542,-275.4179C421.1634,-266.5409 390.9615,-252.9253 368.5527,-242.823"/>
<polygon fill="#191970" stroke="#191970" points="369.7306,-239.5148 359.1757,-238.5956 366.8537,-245.8963 369.7306,-239.5148"/>
</g>
<!-- Node11 -->
<g id="node12" class="node">
<title>Node11</title>
<g id="a_node12"><a xlink:href="lattice_8h.html" target="_top" xlink:title=" ">
<polygon fill="#ffffff" stroke="#000000" points="789.2637,-220.5 789.2637,-238.5 864.7363,-238.5 864.7363,-220.5 789.2637,-220.5"/>
<text text-anchor="middle" x="827" y="-226.5" font-family="Helvetica,sans-Serif" font-size="10.00" fill="#000000">math/lattice.h</text>
</a>
</g>
</g>
<!-- Node1&#45;&gt;Node11 -->
<g id="edge19" class="edge">
<title>Node1&#45;&gt;Node11</title>
<path fill="none" stroke="#191970" d="M491.8895,-279.8581C555.6711,-270.2735 702.3384,-248.2333 778.7402,-236.7522"/>
<polygon fill="#191970" stroke="#191970" points="779.6697,-240.1519 789.0385,-235.2046 778.6294,-233.2296 779.6697,-240.1519"/>
</g>
<!-- Node3 -->
<g id="node4" class="node">
<title>Node3</title>
<g id="a_node4"><a xlink:title=" ">
<polygon fill="#ffffff" stroke="#bfbfbf" points="129.0469,-110.5 129.0469,-128.5 178.9531,-128.5 178.9531,-110.5 129.0469,-110.5"/>
<text text-anchor="middle" x="154" y="-116.5" font-family="Helvetica,sans-Serif" font-size="10.00" fill="#000000">random</text>
</a>
</g>
</g>
<!-- Node2&#45;&gt;Node3 -->
<g id="edge3" class="edge">
<title>Node2&#45;&gt;Node3</title>
<path fill="none" stroke="#191970" d="M154,-165.4179C154,-158.2164 154,-147.8962 154,-138.8632"/>
<polygon fill="#191970" stroke="#191970" points="157.5001,-138.7794 154,-128.7795 150.5001,-138.7795 157.5001,-138.7794"/>
</g>
<!-- Node4 -->
<g id="node5" class="node">
<title>Node4</title>
<g id="a_node5"><a xlink:href="su3_8h.html" target="_top" xlink:title=" ">
<polygon fill="#ffffff" stroke="#000000" points="297.7686,-110.5 297.7686,-128.5 338.2314,-128.5 338.2314,-110.5 297.7686,-110.5"/>
<text text-anchor="middle" x="318" y="-116.5" font-family="Helvetica,sans-Serif" font-size="10.00" fill="#000000">su3.h</text>
</a>
</g>
</g>
<!-- Node2&#45;&gt;Node4 -->
<g id="edge4" class="edge">
<title>Node2&#45;&gt;Node4</title>
<path fill="none" stroke="#191970" d="M181.0813,-165.4179C210.5069,-155.5495 257.3945,-139.825 287.9394,-129.5813"/>
<polygon fill="#191970" stroke="#191970" points="289.2547,-132.8319 297.6228,-126.3338 287.0289,-126.1951 289.2547,-132.8319"/>
</g>
<!-- Node7 -->
<g id="node8" class="node">
<title>Node7</title>
<g id="a_node8"><a xlink:href="su2_8h.html" target="_top" xlink:title=" ">
<polygon fill="#ffffff" stroke="#000000" points="239.7686,-110.5 239.7686,-128.5 280.2314,-128.5 280.2314,-110.5 239.7686,-110.5"/>
<text text-anchor="middle" x="260" y="-116.5" font-family="Helvetica,sans-Serif" font-size="10.00" fill="#000000">su2.h</text>
</a>
</g>
</g>
<!-- Node2&#45;&gt;Node7 -->
<g id="edge7" class="edge">
<title>Node2&#45;&gt;Node7</title>
<path fill="none" stroke="#191970" d="M171.5037,-165.4179C188.382,-156.6603 214.1488,-143.2907 233.5336,-133.2326"/>
<polygon fill="#191970" stroke="#191970" points="235.2059,-136.308 242.4703,-128.5956 231.982,-130.0946 235.2059,-136.308"/>
</g>
<!-- Node5 -->
<g id="node6" class="node">
<title>Node5</title>
<g id="a_node6"><a xlink:href="complex_8h.html" target="_top" xlink:title=" ">
<polygon fill="#ffffff" stroke="#000000" points="216.707,-55.5 216.707,-73.5 303.293,-73.5 303.293,-55.5 216.707,-55.5"/>
<text text-anchor="middle" x="260" y="-61.5" font-family="Helvetica,sans-Serif" font-size="10.00" fill="#000000">math/complex.h</text>
</a>
</g>
</g>
<!-- Node4&#45;&gt;Node5 -->
<g id="edge5" class="edge">
<title>Node4&#45;&gt;Node5</title>
<path fill="none" stroke="#191970" d="M308.4225,-110.4179C299.9936,-102.425 287.5134,-90.5903 277.3344,-80.9377"/>
<polygon fill="#191970" stroke="#191970" points="279.4502,-78.1207 269.7856,-73.7795 274.6335,-83.2001 279.4502,-78.1207"/>
</g>
<!-- Node5&#45;&gt;Node6 -->
<g id="edge6" class="edge">
<title>Node5&#45;&gt;Node6</title>
<path fill="none" stroke="#191970" d="M237.7075,-55.4179C215.6254,-46.4215 181.5971,-32.5581 156.7058,-22.4172"/>
<polygon fill="#191970" stroke="#191970" points="157.9071,-19.1273 147.3256,-18.5956 155.266,-25.61 157.9071,-19.1273"/>
</g>
<!-- Node7&#45;&gt;Node5 -->
<g id="edge8" class="edge">
<title>Node7&#45;&gt;Node5</title>
<path fill="none" stroke="#191970" d="M260,-110.4179C260,-103.2164 260,-92.8962 260,-83.8632"/>
<polygon fill="#191970" stroke="#191970" points="263.5001,-83.7794 260,-73.7795 256.5001,-83.7795 263.5001,-83.7794"/>
</g>
<!-- Node8&#45;&gt;Node4 -->
<g id="edge10" class="edge">
<title>Node8&#45;&gt;Node4</title>
<path fill="none" stroke="#191970" d="M336.1884,-220.1651C333.5175,-211.0207 329.5422,-196.6548 327,-184 323.9687,-168.9106 321.6164,-151.6314 320.0781,-138.7576"/>
<polygon fill="#191970" stroke="#191970" points="323.5469,-138.2844 318.9392,-128.744 316.5918,-139.0755 323.5469,-138.2844"/>
</g>
<!-- Node8&#45;&gt;Node5 -->
<g id="edge12" class="edge">
<title>Node8&#45;&gt;Node5</title>
<path fill="none" stroke="#191970" d="M290.0114,-225.0322C213.2791,-217.534 71.9108,-201.5094 57,-184 24.7149,-146.0882 68.2557,-139.3504 120,-110 147.2229,-94.5586 180.4373,-83.4786 207.6815,-76.1208"/>
<polygon fill="#191970" stroke="#191970" points="208.6347,-79.4893 217.4266,-73.5772 206.8668,-72.7162 208.6347,-79.4893"/>
</g>
<!-- Node8&#45;&gt;Node7 -->
<g id="edge11" class="edge">
<title>Node8&#45;&gt;Node7</title>
<path fill="none" stroke="#191970" d="M332.5351,-220.4982C319.4572,-202.2885 289.6595,-160.798 272.6038,-137.0496"/>
<polygon fill="#191970" stroke="#191970" points="275.2304,-134.7068 266.5542,-128.6261 269.5448,-138.7902 275.2304,-134.7068"/>
</g>
<!-- Node9 -->
<g id="node10" class="node">
<title>Node9</title>
<g id="a_node10"><a xlink:href="links_8h.html" target="_top" xlink:title=" ">
<polygon fill="#ffffff" stroke="#000000" points="336.3228,-165.5 336.3228,-183.5 405.6772,-183.5 405.6772,-165.5 336.3228,-165.5"/>
<text text-anchor="middle" x="371" y="-171.5" font-family="Helvetica,sans-Serif" font-size="10.00" fill="#000000">math/links.h</text>
</a>
</g>
</g>
<!-- Node8&#45;&gt;Node9 -->
<g id="edge13" class="edge">
<title>Node8&#45;&gt;Node9</title>
<path fill="none" stroke="#191970" d="M344.2841,-220.4179C348.6583,-212.8998 355.01,-201.9829 360.4226,-192.6799"/>
<polygon fill="#191970" stroke="#191970" points="363.5973,-194.1831 365.601,-183.7795 357.5468,-190.6628 363.5973,-194.1831"/>
</g>
<!-- Node10 -->
<g id="node11" class="node">
<title>Node10</title>
<g id="a_node11"><a xlink:href="functions_8h.html" target="_top" xlink:title=" ">
<polygon fill="#ffffff" stroke="#000000" points="423.313,-165.5 423.313,-183.5 512.687,-183.5 512.687,-165.5 423.313,-165.5"/>
<text text-anchor="middle" x="468" y="-171.5" font-family="Helvetica,sans-Serif" font-size="10.00" fill="#000000">math/functions.h</text>
</a>
</g>
</g>
<!-- Node8&#45;&gt;Node10 -->
<g id="edge15" class="edge">
<title>Node8&#45;&gt;Node10</title>
<path fill="none" stroke="#191970" d="M360.3017,-220.4179C381.309,-211.4613 413.6308,-197.6806 437.3871,-187.552"/>
<polygon fill="#191970" stroke="#191970" points="438.8405,-190.7372 446.6666,-183.5956 436.0951,-184.2981 438.8405,-190.7372"/>
</g>
<!-- Node9&#45;&gt;Node4 -->
<g id="edge14" class="edge">
<title>Node9&#45;&gt;Node4</title>
<path fill="none" stroke="#191970" d="M362.2481,-165.4179C354.6222,-157.5041 343.3671,-145.8243 334.1169,-136.2251"/>
<polygon fill="#191970" stroke="#191970" points="336.4013,-133.5516 326.942,-128.7795 331.3607,-138.4089 336.4013,-133.5516"/>
</g>
<!-- Node10&#45;&gt;Node4 -->
<g id="edge16" class="edge">
<title>Node10&#45;&gt;Node4</title>
<path fill="none" stroke="#191970" d="M443.2306,-165.4179C417.1438,-155.8527 376.0521,-140.7858 348.111,-130.5407"/>
<polygon fill="#191970" stroke="#191970" points="349.0577,-127.16 338.464,-127.0035 346.6479,-133.7321 349.0577,-127.16"/>
</g>
<!-- Node10&#45;&gt;Node5 -->
<g id="edge18" class="edge">
<title>Node10&#45;&gt;Node5</title>
<path fill="none" stroke="#191970" d="M451.1881,-165.4846C427.8396,-152.9762 384.26,-129.6738 347,-110 326.6515,-99.2557 303.5704,-87.1902 286.2974,-78.1847"/>
<polygon fill="#191970" stroke="#191970" points="287.8388,-75.0413 277.3531,-73.5244 284.6042,-81.2492 287.8388,-75.0413"/>
</g>
<!-- Node10&#45;&gt;Node7 -->
<g id="edge17" class="edge">
<title>Node10&#45;&gt;Node7</title>
<path fill="none" stroke="#191970" d="M429.3873,-165.484C395.1288,-157.3074 343.5255,-144.5599 290.4628,-129.2979"/>
<polygon fill="#191970" stroke="#191970" points="291.121,-125.8445 280.5417,-126.4194 289.1704,-132.5673 291.121,-125.8445"/>
</g>
<!-- Node11&#45;&gt;Node10 -->
<g id="edge29" class="edge">
<title>Node11&#45;&gt;Node10</title>
<path fill="none" stroke="#191970" d="M789.0967,-223.8647C732.166,-215.3747 621.2046,-198.7278 527,-184 525.7027,-183.7972 524.3894,-183.5912 523.065,-183.3828"/>
<polygon fill="#191970" stroke="#191970" points="523.1954,-179.86 512.771,-181.7529 522.1006,-186.7738 523.1954,-179.86"/>
</g>
<!-- Node12 -->
<g id="node13" class="node">
<title>Node12</title>
<g id="a_node13"><a xlink:title=" ">
<polygon fill="#ffffff" stroke="#bfbfbf" points="1070.3843,-110.5 1070.3843,-128.5 1113.6157,-128.5 1113.6157,-110.5 1070.3843,-110.5"/>
<text text-anchor="middle" x="1092" y="-116.5" font-family="Helvetica,sans-Serif" font-size="10.00" fill="#000000">vector</text>
</a>
</g>
</g>
<!-- Node11&#45;&gt;Node12 -->
<g id="edge20" class="edge">
<title>Node11&#45;&gt;Node12</title>
<path fill="none" stroke="#191970" d="M842.5598,-220.3089C869.2834,-204.6151 922.9598,-173.5182 943,-165 982.3604,-148.2696 1029.9438,-134.8478 1060.5751,-127.0304"/>
<polygon fill="#191970" stroke="#191970" points="1061.4285,-130.4248 1070.2768,-124.5974 1059.7258,-123.635 1061.4285,-130.4248"/>
</g>
<!-- Node13 -->
<g id="node14" class="node">
<title>Node13</title>
<g id="a_node14"><a xlink:title=" ">
<polygon fill="#ffffff" stroke="#bfbfbf" points="577.7734,-110.5 577.7734,-128.5 618.2266,-128.5 618.2266,-110.5 577.7734,-110.5"/>
<text text-anchor="middle" x="598" y="-116.5" font-family="Helvetica,sans-Serif" font-size="10.00" fill="#000000">mpi.h</text>
</a>
</g>
</g>
<!-- Node11&#45;&gt;Node13 -->
<g id="edge21" class="edge">
<title>Node11&#45;&gt;Node13</title>
<path fill="none" stroke="#191970" d="M789.1072,-225.7397C718.9585,-218.3947 574.6336,-201.3383 560,-184 547.2222,-168.8605 563.1333,-148.8825 578.0991,-135.1954"/>
<polygon fill="#191970" stroke="#191970" points="580.3849,-137.8459 585.6821,-128.6703 575.8191,-132.5399 580.3849,-137.8459"/>
</g>
<!-- Node14 -->
<g id="node15" class="node">
<title>Node14</title>
<g id="a_node15"><a xlink:href="index_8h.html" target="_top" xlink:title=" ">
<polygon fill="#ffffff" stroke="#000000" points="951.9141,-165.5 951.9141,-183.5 1064.0859,-183.5 1064.0859,-165.5 951.9141,-165.5"/>
<text text-anchor="middle" x="1008" y="-171.5" font-family="Helvetica,sans-Serif" font-size="10.00" fill="#000000">parallelization/index.h</text>
</a>
</g>
</g>
<!-- Node11&#45;&gt;Node14 -->
<g id="edge22" class="edge">
<title>Node11&#45;&gt;Node14</title>
<path fill="none" stroke="#191970" d="M856.8885,-220.4179C887.3718,-211.155 934.835,-196.7325 968.4235,-186.526"/>
<polygon fill="#191970" stroke="#191970" points="969.8176,-189.7605 978.368,-183.5042 967.7823,-183.0629 969.8176,-189.7605"/>
</g>
<!-- Node15 -->
<g id="node16" class="node">
<title>Node15</title>
<g id="a_node16"><a xlink:href="neighbours_8h.html" target="_top" xlink:title=" ">
<polygon fill="#ffffff" stroke="#000000" points="758.126,-165.5 758.126,-183.5 895.874,-183.5 895.874,-165.5 758.126,-165.5"/>
<text text-anchor="middle" x="827" y="-171.5" font-family="Helvetica,sans-Serif" font-size="10.00" fill="#000000">parallelization/neighbours.h</text>
</a>
</g>
</g>
<!-- Node11&#45;&gt;Node15 -->
<g id="edge24" class="edge">
<title>Node11&#45;&gt;Node15</title>
<path fill="none" stroke="#191970" d="M827,-220.4179C827,-213.2164 827,-202.8962 827,-193.8632"/>
<polygon fill="#191970" stroke="#191970" points="830.5001,-193.7794 827,-183.7795 823.5001,-193.7795 830.5001,-193.7794"/>
</g>
<!-- Node17 -->
<g id="node18" class="node">
<title>Node17</title>
<g id="a_node18"><a xlink:href="parallelparameters_8h.html" target="_top" xlink:title=" ">
<polygon fill="#ffffff" stroke="#000000" points="569.4585,-165.5 569.4585,-183.5 740.5415,-183.5 740.5415,-165.5 569.4585,-165.5"/>
<text text-anchor="middle" x="655" y="-171.5" font-family="Helvetica,sans-Serif" font-size="10.00" fill="#000000">parallelization/parallelparameters.h</text>
</a>
</g>
</g>
<!-- Node11&#45;&gt;Node17 -->
<g id="edge27" class="edge">
<title>Node11&#45;&gt;Node17</title>
<path fill="none" stroke="#191970" d="M798.5977,-220.4179C769.755,-211.1949 724.9155,-196.8567 693.022,-186.6582"/>
<polygon fill="#191970" stroke="#191970" points="693.7495,-183.2163 683.1586,-183.5042 691.6175,-189.8837 693.7495,-183.2163"/>
</g>
<!-- Node14&#45;&gt;Node12 -->
<g id="edge23" class="edge">
<title>Node14&#45;&gt;Node12</title>
<path fill="none" stroke="#191970" d="M1021.8709,-165.4179C1034.7597,-156.9788 1054.1894,-144.257 1069.3314,-134.3426"/>
<polygon fill="#191970" stroke="#191970" points="1071.6596,-137.0017 1078.1085,-128.5956 1067.825,-131.1454 1071.6596,-137.0017"/>
</g>
<!-- Node15&#45;&gt;Node12 -->
<g id="edge26" class="edge">
<title>Node15&#45;&gt;Node12</title>
<path fill="none" stroke="#191970" d="M870.4626,-165.4795C923.8385,-154.4014 1013.0927,-135.877 1060.3747,-126.0637"/>
<polygon fill="#191970" stroke="#191970" points="1061.2686,-129.4529 1070.3486,-123.9937 1059.846,-122.599 1061.2686,-129.4529"/>
</g>
<!-- Node16 -->
<g id="node17" class="node">
<title>Node16</title>
<g id="a_node17"><a xlink:href="neighbourlist_8h.html" target="_top" xlink:title=" ">
<polygon fill="#ffffff" stroke="#000000" points="786.478,-110.5 786.478,-128.5 867.522,-128.5 867.522,-110.5 786.478,-110.5"/>
<text text-anchor="middle" x="827" y="-116.5" font-family="Helvetica,sans-Serif" font-size="10.00" fill="#000000">neighbourlist.h</text>
</a>
</g>
</g>
<!-- Node15&#45;&gt;Node16 -->
<g id="edge25" class="edge">
<title>Node15&#45;&gt;Node16</title>
<path fill="none" stroke="#191970" d="M827,-165.4179C827,-158.2164 827,-147.8962 827,-138.8632"/>
<polygon fill="#191970" stroke="#191970" points="830.5001,-138.7794 827,-128.7795 823.5001,-138.7795 830.5001,-138.7794"/>
</g>
<!-- Node17&#45;&gt;Node13 -->
<g id="edge28" class="edge">
<title>Node17&#45;&gt;Node13</title>
<path fill="none" stroke="#191970" d="M645.5876,-165.4179C637.3041,-157.425 625.0391,-145.5903 615.0355,-135.9377"/>
<polygon fill="#191970" stroke="#191970" points="617.2434,-133.2045 607.6169,-128.7795 612.3828,-138.2419 617.2434,-133.2045"/>
</g>
<!-- Node21&#45;&gt;Node11 -->
<g id="edge36" class="edge">
<title>Node21&#45;&gt;Node11</title>
<path fill="none" stroke="#191970" d="M1000.653,-275.4179C965.1695,-266.0352 909.6653,-251.3586 870.9908,-241.1322"/>
<polygon fill="#191970" stroke="#191970" points="871.6148,-237.6769 861.0523,-238.5042 869.8253,-244.4444 871.6148,-237.6769"/>
</g>
<!-- Node21&#45;&gt;Node12 -->
<g id="edge35" class="edge">
<title>Node21&#45;&gt;Node12</title>
<path fill="none" stroke="#191970" d="M1081.1947,-275.4369C1120.0386,-266.9781 1171.6242,-253.5101 1187,-239 1205.917,-221.1481 1202.4871,-209.616 1207,-184 1208.4651,-175.6836 1211.7473,-171.9837 1207,-165 1188.5648,-137.8804 1151.1956,-126.925 1124.0453,-122.4994"/>
<polygon fill="#191970" stroke="#191970" points="1124.2326,-118.9913 1113.8417,-121.0597 1123.2545,-125.9226 1124.2326,-118.9913"/>
</g>
<!-- Node22&#45;&gt;Node9 -->
<g id="edge39" class="edge">
<title>Node22&#45;&gt;Node9</title>
<path fill="none" stroke="#191970" d="M796.3725,-277.1118C717.6507,-258.1219 507.9749,-207.5422 415.6747,-185.2768"/>
<polygon fill="#191970" stroke="#191970" points="416.3443,-181.838 405.8024,-182.8953 414.7028,-188.6428 416.3443,-181.838"/>
</g>
<!-- Node22&#45;&gt;Node11 -->
<g id="edge40" class="edge">
<title>Node22&#45;&gt;Node11</title>
<path fill="none" stroke="#191970" d="M827,-275.4179C827,-268.2164 827,-257.8962 827,-248.8632"/>
<polygon fill="#191970" stroke="#191970" points="830.5001,-248.7794 827,-238.7795 823.5001,-248.7795 830.5001,-248.7794"/>
</g>
<!-- Node23 -->
<g id="node24" class="node">
<title>Node23</title>
<g id="a_node24"><a xlink:title=" ">
<polygon fill="#ffffff" stroke="#bfbfbf" points="1157.7734,-165.5 1157.7734,-183.5 1198.2266,-183.5 1198.2266,-165.5 1157.7734,-165.5"/>
<text text-anchor="middle" x="1178" y="-171.5" font-family="Helvetica,sans-Serif" font-size="10.00" fill="#000000">string</text>
</a>
</g>
</g>
<!-- Node22&#45;&gt;Node23 -->
<g id="edge38" class="edge">
<title>Node22&#45;&gt;Node23</title>
<path fill="none" stroke="#191970" d="M857.9358,-276.783C860.9887,-276.1328 864.0485,-275.5246 867,-275 933.5432,-263.172 1120.7339,-286.3105 1169,-239 1180.7103,-227.5215 1182.0408,-208.3472 1180.9939,-193.881"/>
<polygon fill="#191970" stroke="#191970" points="1184.4711,-193.4817 1179.8624,-183.9418 1177.516,-194.2735 1184.4711,-193.4817"/>
</g>
<!-- Node24&#45;&gt;Node12 -->
<g id="edge43" class="edge">
<title>Node24&#45;&gt;Node12</title>
<path fill="none" stroke="#191970" d="M1298.9279,-220.1809C1287.8512,-206.2108 1265.0685,-179.8936 1240,-165 1203.1454,-143.1041 1154.7752,-130.8314 1123.538,-124.6893"/>
<polygon fill="#191970" stroke="#191970" points="1124.1161,-121.2368 1113.6427,-122.8363 1122.8277,-128.1172 1124.1161,-121.2368"/>
</g>
<!-- Node24&#45;&gt;Node23 -->
<g id="edge42" class="edge">
<title>Node24&#45;&gt;Node23</title>
<path fill="none" stroke="#191970" d="M1284.8634,-220.4179C1263.7693,-211.354 1231.1779,-197.3499 1207.5323,-187.1897"/>
<polygon fill="#191970" stroke="#191970" points="1208.8913,-183.9642 1198.3218,-183.232 1206.1277,-190.3956 1208.8913,-183.9642"/>
</g>
<!-- Node26 -->
<g id="node27" class="node">
<title>Node26</title>
<g id="a_node27"><a xlink:href="correlator_8h.html" target="_top" xlink:title=" ">
<polygon fill="#ffffff" stroke="#000000" points="875.9854,-275.5 875.9854,-293.5 942.0146,-293.5 942.0146,-275.5 875.9854,-275.5"/>
<text text-anchor="middle" x="909" y="-281.5" font-family="Helvetica,sans-Serif" font-size="10.00" fill="#000000">correlator.h</text>
</a>
</g>
</g>
<!-- Node25&#45;&gt;Node26 -->
<g id="edge45" class="edge">
<title>Node25&#45;&gt;Node26</title>
<path fill="none" stroke="#191970" d="M927.3671,-330.4179C924.4232,-323.0581 920.1764,-312.441 916.5078,-303.2695"/>
<polygon fill="#191970" stroke="#191970" points="919.6754,-301.7643 912.7118,-293.7795 913.1761,-304.3641 919.6754,-301.7643"/>
</g>
<!-- Node26&#45;&gt;Node11 -->
<g id="edge46" class="edge">
<title>Node26&#45;&gt;Node11</title>
<path fill="none" stroke="#191970" d="M895.4594,-275.4179C882.8774,-266.9788 863.9104,-254.257 849.1289,-244.3426"/>
<polygon fill="#191970" stroke="#191970" points="850.8153,-241.2593 840.5607,-238.5956 846.916,-247.0727 850.8153,-241.2593"/>
</g>
<!-- Node26&#45;&gt;Node12 -->
<g id="edge50" class="edge">
<title>Node26&#45;&gt;Node12</title>
<path fill="none" stroke="#191970" d="M927.3441,-275.4026C965.7841,-256.0109 1052.8947,-210.2428 1073,-184 1082.9836,-170.9687 1087.7321,-152.7912 1089.9845,-139.0535"/>
<polygon fill="#191970" stroke="#191970" points="1093.5033,-139.1421 1091.3494,-128.7685 1086.5642,-138.2211 1093.5033,-139.1421"/>
</g>
<!-- Node27 -->
<g id="node28" class="node">
<title>Node27</title>
<g id="a_node28"><a xlink:href="observablestorer_8h.html" target="_top" xlink:title=" ">
<polygon fill="#ffffff" stroke="#000000" points="1037.9116,-220.5 1037.9116,-238.5 1160.0884,-238.5 1160.0884,-220.5 1037.9116,-220.5"/>
<text text-anchor="middle" x="1099" y="-226.5" font-family="Helvetica,sans-Serif" font-size="10.00" fill="#000000">tools/observablestorer.h</text>
</a>
</g>
</g>
<!-- Node26&#45;&gt;Node27 -->
<g id="edge47" class="edge">
<title>Node26&#45;&gt;Node27</title>
<path fill="none" stroke="#191970" d="M940.3746,-275.4179C972.5117,-266.115 1022.6268,-251.608 1057.9108,-241.3943"/>
<polygon fill="#191970" stroke="#191970" points="1059.2621,-244.6468 1067.8945,-238.5042 1057.3157,-237.9229 1059.2621,-244.6468"/>
</g>
<!-- Node27&#45;&gt;Node12 -->
<g id="edge49" class="edge">
<title>Node27&#45;&gt;Node12</title>
<path fill="none" stroke="#191970" d="M1101.4871,-220.2835C1104.5338,-207.7386 1108.9478,-184.6037 1106,-165 1104.6499,-156.0213 1101.8803,-146.3695 1099.1582,-138.2759"/>
<polygon fill="#191970" stroke="#191970" points="1102.4017,-136.952 1095.7305,-128.7213 1095.8129,-139.3158 1102.4017,-136.952"/>
</g>
<!-- Node27&#45;&gt;Node23 -->
<g id="edge48" class="edge">
<title>Node27&#45;&gt;Node23</title>
<path fill="none" stroke="#191970" d="M1112.0452,-220.4179C1124.1669,-211.9788 1142.44,-199.257 1156.6807,-189.3426"/>
<polygon fill="#191970" stroke="#191970" points="1158.7282,-192.1818 1164.9354,-183.5956 1154.7286,-186.4369 1158.7282,-192.1818"/>
</g>
</g>
</svg>
