<?xml version="1.0" encoding="UTF-8" standalone="no"?>
<!DOCTYPE svg PUBLIC "-//W3C//DTD SVG 1.1//EN"
 "http://www.w3.org/Graphics/SVG/1.1/DTD/svg11.dtd">
<!-- Generated by graphviz version 2.40.1 (20161225.0304)
 -->
<!-- Title: GluonicLQCD/observables/topologicalcharge.cpp Pages: 1 -->
<svg width="1046pt" height="532pt"
 viewBox="0.00 0.00 1045.88 532.00" xmlns="http://www.w3.org/2000/svg" xmlns:xlink="http://www.w3.org/1999/xlink">
<g id="graph0" class="graph" transform="scale(1 1) rotate(0) translate(4 528)">
<title>GluonicLQCD/observables/topologicalcharge.cpp</title>
<polygon fill="#ffffff" stroke="transparent" points="-4,4 -4,-528 1041.8765,-528 1041.8765,4 -4,4"/>
<!-- Node0 -->
<g id="node1" class="node">
<title>Node0</title>
<g id="a_node1"><a xlink:title=" ">
<polygon fill="#bfbfbf" stroke="#000000" points="558.3179,-495.5 558.3179,-523.5 692.7065,-523.5 692.7065,-495.5 558.3179,-495.5"/>
<text text-anchor="start" x="566.3179" y="-511.5" font-family="Helvetica,sans-Serif" font-size="10.00" fill="#000000">GluonicLQCD/observables</text>
<text text-anchor="middle" x="625.5122" y="-501.5" font-family="Helvetica,sans-Serif" font-size="10.00" fill="#000000">/topologicalcharge.cpp</text>
</a>
</g>
</g>
<!-- Node1 -->
<g id="node2" class="node">
<title>Node1</title>
<g id="a_node2"><a xlink:href="topologicalcharge_8h.html" target="_top" xlink:title=" ">
<polygon fill="#ffffff" stroke="#000000" points="935.1479,-385.5 935.1479,-403.5 1037.8765,-403.5 1037.8765,-385.5 935.1479,-385.5"/>
<text text-anchor="middle" x="986.5122" y="-391.5" font-family="Helvetica,sans-Serif" font-size="10.00" fill="#000000">topologicalcharge.h</text>
</a>
</g>
</g>
<!-- Node0&#45;&gt;Node1 -->
<g id="edge1" class="edge">
<title>Node0&#45;&gt;Node1</title>
<path fill="none" stroke="#191970" d="M641.0067,-495.2869C659.4615,-479.1978 691.9086,-453.4787 724.5122,-440 742.7351,-432.4664 853.3266,-414.7231 924.8817,-403.7529"/>
<polygon fill="#191970" stroke="#191970" points="925.7835,-407.1558 935.1401,-402.1855 924.7262,-400.2361 925.7835,-407.1558"/>
</g>
<!-- Node10 -->
<g id="node11" class="node">
<title>Node10</title>
<g id="a_node11"><a xlink:href="functions_8h.html" target="_top" xlink:title=" ">
<polygon fill="#ffffff" stroke="#000000" points="77.3301,-165.5 77.3301,-183.5 141.6943,-183.5 141.6943,-165.5 77.3301,-165.5"/>
<text text-anchor="middle" x="109.5122" y="-171.5" font-family="Helvetica,sans-Serif" font-size="10.00" fill="#000000">functions.h</text>
</a>
</g>
</g>
<!-- Node0&#45;&gt;Node10 -->
<g id="edge24" class="edge">
<title>Node0&#45;&gt;Node10</title>
<path fill="none" stroke="#191970" d="M558.0112,-505.2468C437.8908,-495.8126 199.5122,-467.85 199.5122,-394.5 199.5122,-394.5 199.5122,-394.5 199.5122,-284.5 199.5122,-242.6011 159.9152,-207.8889 133.2506,-189.2637"/>
<polygon fill="#191970" stroke="#191970" points="135.0329,-186.2447 124.7795,-183.5769 131.1313,-192.0566 135.0329,-186.2447"/>
</g>
<!-- Node17 -->
<g id="node18" class="node">
<title>Node17</title>
<g id="a_node18"><a xlink:href="parallel_8h.html" target="_top" xlink:title=" ">
<polygon fill="#ffffff" stroke="#000000" points="485.2588,-330.5 485.2588,-348.5 605.7656,-348.5 605.7656,-330.5 485.2588,-330.5"/>
<text text-anchor="middle" x="545.5122" y="-336.5" font-family="Helvetica,sans-Serif" font-size="10.00" fill="#000000">parallelization/parallel.h</text>
</a>
</g>
</g>
<!-- Node0&#45;&gt;Node17 -->
<g id="edge25" class="edge">
<title>Node0&#45;&gt;Node17</title>
<path fill="none" stroke="#191970" d="M600.9387,-495.2984C588.0082,-486.515 573.0969,-474.0463 564.5122,-459 546.4482,-427.3393 544.143,-383.697 544.5328,-358.8613"/>
<polygon fill="#191970" stroke="#191970" points="548.0396,-358.7082 544.8688,-348.599 541.0433,-358.479 548.0396,-358.7082"/>
</g>
<!-- Node19 -->
<g id="node20" class="node">
<title>Node19</title>
<g id="a_node20"><a xlink:href="parameters_8h.html" target="_top" xlink:title=" ">
<polygon fill="#ffffff" stroke="#000000" points="573.3228,-440.5 573.3228,-458.5 677.7017,-458.5 677.7017,-440.5 573.3228,-440.5"/>
<text text-anchor="middle" x="625.5122" y="-446.5" font-family="Helvetica,sans-Serif" font-size="10.00" fill="#000000">config/parameters.h</text>
</a>
</g>
</g>
<!-- Node0&#45;&gt;Node19 -->
<g id="edge31" class="edge">
<title>Node0&#45;&gt;Node19</title>
<path fill="none" stroke="#191970" d="M625.5122,-495.2808C625.5122,-487.3776 625.5122,-477.4316 625.5122,-468.8308"/>
<polygon fill="#191970" stroke="#191970" points="629.0123,-468.5842 625.5122,-458.5842 622.0123,-468.5842 629.0123,-468.5842"/>
</g>
<!-- Node21 -->
<g id="node22" class="node">
<title>Node21</title>
<g id="a_node22"><a xlink:title=" ">
<polygon fill="#ffffff" stroke="#bfbfbf" points="733.8965,-440.5 733.8965,-458.5 777.1279,-458.5 777.1279,-440.5 733.8965,-440.5"/>
<text text-anchor="middle" x="755.5122" y="-446.5" font-family="Helvetica,sans-Serif" font-size="10.00" fill="#000000">cmath</text>
</a>
</g>
</g>
<!-- Node0&#45;&gt;Node21 -->
<g id="edge37" class="edge">
<title>Node0&#45;&gt;Node21</title>
<path fill="none" stroke="#191970" d="M655.9914,-495.4327C677.2415,-485.625 705.426,-472.6167 726.3755,-462.9477"/>
<polygon fill="#191970" stroke="#191970" points="728.1154,-465.9996 735.7282,-458.6311 725.1819,-459.6438 728.1154,-465.9996"/>
</g>
<!-- Node2 -->
<g id="node3" class="node">
<title>Node2</title>
<g id="a_node3"><a xlink:href="correlator_8h.html" target="_top" xlink:title=" ">
<polygon fill="#ffffff" stroke="#000000" points="769.4976,-275.5 769.4976,-293.5 835.5269,-293.5 835.5269,-275.5 769.4976,-275.5"/>
<text text-anchor="middle" x="802.5122" y="-281.5" font-family="Helvetica,sans-Serif" font-size="10.00" fill="#000000">correlator.h</text>
</a>
</g>
</g>
<!-- Node1&#45;&gt;Node2 -->
<g id="edge2" class="edge">
<title>Node1&#45;&gt;Node2</title>
<path fill="none" stroke="#191970" d="M971.4547,-385.4982C939.6469,-366.4827 865.3745,-322.0807 826.775,-299.005"/>
<polygon fill="#191970" stroke="#191970" points="828.1569,-295.7533 817.7778,-293.6261 824.565,-301.7615 828.1569,-295.7533"/>
</g>
<!-- Node3 -->
<g id="node4" class="node">
<title>Node3</title>
<g id="a_node4"><a xlink:href="lattice_8h.html" target="_top" xlink:title=" ">
<polygon fill="#ffffff" stroke="#000000" points="504.7759,-220.5 504.7759,-238.5 580.2485,-238.5 580.2485,-220.5 504.7759,-220.5"/>
<text text-anchor="middle" x="542.5122" y="-226.5" font-family="Helvetica,sans-Serif" font-size="10.00" fill="#000000">math/lattice.h</text>
</a>
</g>
</g>
<!-- Node2&#45;&gt;Node3 -->
<g id="edge3" class="edge">
<title>Node2&#45;&gt;Node3</title>
<path fill="none" stroke="#191970" d="M769.3189,-277.4783C724.0136,-267.8945 642.5193,-250.6554 590.5463,-239.6611"/>
<polygon fill="#191970" stroke="#191970" points="591.0726,-236.195 580.5648,-237.5496 589.6239,-243.0435 591.0726,-236.195"/>
</g>
<!-- Node4 -->
<g id="node5" class="node">
<title>Node4</title>
<g id="a_node5"><a xlink:title=" ">
<polygon fill="#ffffff" stroke="#bfbfbf" points="699.8965,-110.5 699.8965,-128.5 743.1279,-128.5 743.1279,-110.5 699.8965,-110.5"/>
<text text-anchor="middle" x="721.5122" y="-116.5" font-family="Helvetica,sans-Serif" font-size="10.00" fill="#000000">vector</text>
</a>
</g>
</g>
<!-- Node2&#45;&gt;Node4 -->
<g id="edge23" class="edge">
<title>Node2&#45;&gt;Node4</title>
<path fill="none" stroke="#191970" d="M817.3489,-275.3744C828.8056,-267.38 843.7997,-254.6119 850.5122,-239 853.8477,-231.2422 852.9762,-228.077 850.5122,-220 841.9159,-191.821 835.6815,-184.4029 813.5122,-165 795.8139,-149.5102 771.9088,-137.8977 752.9022,-130.282"/>
<polygon fill="#191970" stroke="#191970" points="754.0585,-126.977 743.4683,-126.6645 751.5522,-133.5129 754.0585,-126.977"/>
</g>
<!-- Node15 -->
<g id="node16" class="node">
<title>Node15</title>
<g id="a_node16"><a xlink:href="observablestorer_8h.html" target="_top" xlink:title=" ">
<polygon fill="#ffffff" stroke="#000000" points="719.4238,-220.5 719.4238,-238.5 841.6006,-238.5 841.6006,-220.5 719.4238,-220.5"/>
<text text-anchor="middle" x="780.5122" y="-226.5" font-family="Helvetica,sans-Serif" font-size="10.00" fill="#000000">tools/observablestorer.h</text>
</a>
</g>
</g>
<!-- Node2&#45;&gt;Node15 -->
<g id="edge20" class="edge">
<title>Node2&#45;&gt;Node15</title>
<path fill="none" stroke="#191970" d="M798.8794,-275.4179C795.9354,-268.0581 791.6886,-257.441 788.02,-248.2695"/>
<polygon fill="#191970" stroke="#191970" points="791.1876,-246.7643 784.224,-238.7795 784.6883,-249.3641 791.1876,-246.7643"/>
</g>
<!-- Node3&#45;&gt;Node4 -->
<g id="edge4" class="edge">
<title>Node3&#45;&gt;Node4</title>
<path fill="none" stroke="#191970" d="M544.3321,-220.1453C547.545,-206.1287 555.5535,-179.7516 572.5122,-165 605.7499,-136.088 657.0065,-125.5475 689.9001,-121.7047"/>
<polygon fill="#191970" stroke="#191970" points="690.299,-125.1823 699.8885,-120.6776 689.5829,-118.219 690.299,-125.1823"/>
</g>
<!-- Node5 -->
<g id="node6" class="node">
<title>Node5</title>
<g id="a_node6"><a xlink:title=" ">
<polygon fill="#ffffff" stroke="#bfbfbf" points="288.2856,-110.5 288.2856,-128.5 328.7388,-128.5 328.7388,-110.5 288.2856,-110.5"/>
<text text-anchor="middle" x="308.5122" y="-116.5" font-family="Helvetica,sans-Serif" font-size="10.00" fill="#000000">mpi.h</text>
</a>
</g>
</g>
<!-- Node3&#45;&gt;Node5 -->
<g id="edge5" class="edge">
<title>Node3&#45;&gt;Node5</title>
<path fill="none" stroke="#191970" d="M504.7629,-224.2367C470.2154,-218.2455 418.537,-206.2612 378.5122,-184 356.5404,-171.7796 335.9608,-151.3035 322.8789,-136.7005"/>
<polygon fill="#191970" stroke="#191970" points="325.2907,-134.1399 316.0891,-128.888 320.0072,-138.7318 325.2907,-134.1399"/>
</g>
<!-- Node6 -->
<g id="node7" class="node">
<title>Node6</title>
<g id="a_node7"><a xlink:href="index_8h.html" target="_top" xlink:title=" ">
<polygon fill="#ffffff" stroke="#000000" points="581.4263,-165.5 581.4263,-183.5 693.5981,-183.5 693.5981,-165.5 581.4263,-165.5"/>
<text text-anchor="middle" x="637.5122" y="-171.5" font-family="Helvetica,sans-Serif" font-size="10.00" fill="#000000">parallelization/index.h</text>
</a>
</g>
</g>
<!-- Node3&#45;&gt;Node6 -->
<g id="edge6" class="edge">
<title>Node3&#45;&gt;Node6</title>
<path fill="none" stroke="#191970" d="M558.1995,-220.4179C573.0512,-211.8195 595.582,-198.7754 612.8391,-188.7844"/>
<polygon fill="#191970" stroke="#191970" points="614.901,-191.635 621.8016,-183.5956 611.3937,-185.577 614.901,-191.635"/>
</g>
<!-- Node7 -->
<g id="node8" class="node">
<title>Node7</title>
<g id="a_node8"><a xlink:href="neighbours_8h.html" target="_top" xlink:title=" ">
<polygon fill="#ffffff" stroke="#000000" points="387.6382,-165.5 387.6382,-183.5 525.3862,-183.5 525.3862,-165.5 387.6382,-165.5"/>
<text text-anchor="middle" x="456.5122" y="-171.5" font-family="Helvetica,sans-Serif" font-size="10.00" fill="#000000">parallelization/neighbours.h</text>
</a>
</g>
</g>
<!-- Node3&#45;&gt;Node7 -->
<g id="edge8" class="edge">
<title>Node3&#45;&gt;Node7</title>
<path fill="none" stroke="#191970" d="M528.3111,-220.4179C514.9909,-211.8992 494.8472,-199.0166 479.283,-189.0627"/>
<polygon fill="#191970" stroke="#191970" points="481.0447,-186.0348 470.7345,-183.5956 477.2732,-191.932 481.0447,-186.0348"/>
</g>
<!-- Node9 -->
<g id="node10" class="node">
<title>Node9</title>
<g id="a_node10"><a xlink:href="parallelparameters_8h.html" target="_top" xlink:title=" ">
<polygon fill="#ffffff" stroke="#000000" points="159.9707,-165.5 159.9707,-183.5 331.0537,-183.5 331.0537,-165.5 159.9707,-165.5"/>
<text text-anchor="middle" x="245.5122" y="-171.5" font-family="Helvetica,sans-Serif" font-size="10.00" fill="#000000">parallelization/parallelparameters.h</text>
</a>
</g>
</g>
<!-- Node3&#45;&gt;Node9 -->
<g id="edge11" class="edge">
<title>Node3&#45;&gt;Node9</title>
<path fill="none" stroke="#191970" d="M504.5953,-222.4783C453.9636,-213.1021 363.7644,-196.3985 304.2863,-185.3841"/>
<polygon fill="#191970" stroke="#191970" points="304.7559,-181.9116 294.2858,-183.5321 303.4812,-188.7946 304.7559,-181.9116"/>
</g>
<!-- Node3&#45;&gt;Node10 -->
<g id="edge13" class="edge">
<title>Node3&#45;&gt;Node10</title>
<path fill="none" stroke="#191970" d="M504.7431,-226.5348C436.3144,-220.8561 287.1344,-207.0723 152.2192,-184.1414"/>
<polygon fill="#191970" stroke="#191970" points="152.5676,-180.6499 142.1187,-182.4026 151.38,-187.5485 152.5676,-180.6499"/>
</g>
<!-- Node6&#45;&gt;Node4 -->
<g id="edge7" class="edge">
<title>Node6&#45;&gt;Node4</title>
<path fill="none" stroke="#191970" d="M651.3831,-165.4179C664.2719,-156.9788 683.7016,-144.257 698.8436,-134.3426"/>
<polygon fill="#191970" stroke="#191970" points="701.1718,-137.0017 707.6207,-128.5956 697.3372,-131.1454 701.1718,-137.0017"/>
</g>
<!-- Node7&#45;&gt;Node4 -->
<g id="edge10" class="edge">
<title>Node7&#45;&gt;Node4</title>
<path fill="none" stroke="#191970" d="M499.9748,-165.4795C553.3507,-154.4014 642.6049,-135.877 689.8869,-126.0637"/>
<polygon fill="#191970" stroke="#191970" points="690.7808,-129.4529 699.8608,-123.9937 689.3582,-122.599 690.7808,-129.4529"/>
</g>
<!-- Node8 -->
<g id="node9" class="node">
<title>Node8</title>
<g id="a_node9"><a xlink:href="neighbourlist_8h.html" target="_top" xlink:title=" ">
<polygon fill="#ffffff" stroke="#000000" points="415.9902,-110.5 415.9902,-128.5 497.0342,-128.5 497.0342,-110.5 415.9902,-110.5"/>
<text text-anchor="middle" x="456.5122" y="-116.5" font-family="Helvetica,sans-Serif" font-size="10.00" fill="#000000">neighbourlist.h</text>
</a>
</g>
</g>
<!-- Node7&#45;&gt;Node8 -->
<g id="edge9" class="edge">
<title>Node7&#45;&gt;Node8</title>
<path fill="none" stroke="#191970" d="M456.5122,-165.4179C456.5122,-158.2164 456.5122,-147.8962 456.5122,-138.8632"/>
<polygon fill="#191970" stroke="#191970" points="460.0123,-138.7794 456.5122,-128.7795 453.0123,-138.7795 460.0123,-138.7794"/>
</g>
<!-- Node9&#45;&gt;Node5 -->
<g id="edge12" class="edge">
<title>Node9&#45;&gt;Node5</title>
<path fill="none" stroke="#191970" d="M255.9154,-165.4179C265.2522,-157.2667 279.1655,-145.1201 290.3373,-135.3669"/>
<polygon fill="#191970" stroke="#191970" points="292.6516,-137.9927 297.883,-128.7795 288.048,-132.7194 292.6516,-137.9927"/>
</g>
<!-- Node11 -->
<g id="node12" class="node">
<title>Node11</title>
<g id="a_node12"><a xlink:href="su3_8h.html" target="_top" xlink:title=" ">
<polygon fill="#ffffff" stroke="#000000" points="0,-110.5 0,-128.5 81.0244,-128.5 81.0244,-110.5 0,-110.5"/>
<text text-anchor="middle" x="40.5122" y="-116.5" font-family="Helvetica,sans-Serif" font-size="10.00" fill="#000000">matrices/su3.h</text>
</a>
</g>
</g>
<!-- Node10&#45;&gt;Node11 -->
<g id="edge14" class="edge">
<title>Node10&#45;&gt;Node11</title>
<path fill="none" stroke="#191970" d="M98.1183,-165.4179C87.793,-157.1876 72.3575,-144.8839 60.0625,-135.0836"/>
<polygon fill="#191970" stroke="#191970" points="62.1551,-132.2757 52.1537,-128.7795 57.7919,-137.7495 62.1551,-132.2757"/>
</g>
<!-- Node12 -->
<g id="node13" class="node">
<title>Node12</title>
<g id="a_node13"><a xlink:href="complex_8h.html" target="_top" xlink:title=" ">
<polygon fill="#ffffff" stroke="#000000" points="66.2192,-55.5 66.2192,-73.5 152.8052,-73.5 152.8052,-55.5 66.2192,-55.5"/>
<text text-anchor="middle" x="109.5122" y="-61.5" font-family="Helvetica,sans-Serif" font-size="10.00" fill="#000000">math/complex.h</text>
</a>
</g>
</g>
<!-- Node10&#45;&gt;Node12 -->
<g id="edge19" class="edge">
<title>Node10&#45;&gt;Node12</title>
<path fill="none" stroke="#191970" d="M109.5122,-165.4982C109.5122,-147.6913 109.5122,-107.6225 109.5122,-83.6515"/>
<polygon fill="#191970" stroke="#191970" points="113.0123,-83.6261 109.5122,-73.6261 106.0123,-83.6262 113.0123,-83.6261"/>
</g>
<!-- Node14 -->
<g id="node15" class="node">
<title>Node14</title>
<g id="a_node15"><a xlink:href="su2_8h.html" target="_top" xlink:title=" ">
<polygon fill="#ffffff" stroke="#000000" points="138,-110.5 138,-128.5 219.0244,-128.5 219.0244,-110.5 138,-110.5"/>
<text text-anchor="middle" x="178.5122" y="-116.5" font-family="Helvetica,sans-Serif" font-size="10.00" fill="#000000">matrices/su2.h</text>
</a>
</g>
</g>
<!-- Node10&#45;&gt;Node14 -->
<g id="edge17" class="edge">
<title>Node10&#45;&gt;Node14</title>
<path fill="none" stroke="#191970" d="M120.9062,-165.4179C131.2314,-157.1876 146.667,-144.8839 158.9619,-135.0836"/>
<polygon fill="#191970" stroke="#191970" points="161.2326,-137.7495 166.8707,-128.7795 156.8693,-132.2757 161.2326,-137.7495"/>
</g>
<!-- Node11&#45;&gt;Node12 -->
<g id="edge15" class="edge">
<title>Node11&#45;&gt;Node12</title>
<path fill="none" stroke="#191970" d="M51.9062,-110.4179C62.2314,-102.1876 77.667,-89.8839 89.9619,-80.0836"/>
<polygon fill="#191970" stroke="#191970" points="92.2326,-82.7495 97.8707,-73.7795 87.8693,-77.2757 92.2326,-82.7495"/>
</g>
<!-- Node13 -->
<g id="node14" class="node">
<title>Node13</title>
<g id="a_node14"><a xlink:title=" ">
<polygon fill="#ffffff" stroke="#bfbfbf" points="82.3398,-.5 82.3398,-18.5 136.6846,-18.5 136.6846,-.5 82.3398,-.5"/>
<text text-anchor="middle" x="109.5122" y="-6.5" font-family="Helvetica,sans-Serif" font-size="10.00" fill="#000000">iostream</text>
</a>
</g>
</g>
<!-- Node12&#45;&gt;Node13 -->
<g id="edge16" class="edge">
<title>Node12&#45;&gt;Node13</title>
<path fill="none" stroke="#191970" d="M109.5122,-55.4179C109.5122,-48.2164 109.5122,-37.8962 109.5122,-28.8632"/>
<polygon fill="#191970" stroke="#191970" points="113.0123,-28.7794 109.5122,-18.7795 106.0123,-28.7795 113.0123,-28.7794"/>
</g>
<!-- Node14&#45;&gt;Node12 -->
<g id="edge18" class="edge">
<title>Node14&#45;&gt;Node12</title>
<path fill="none" stroke="#191970" d="M167.1183,-110.4179C156.793,-102.1876 141.3575,-89.8839 129.0625,-80.0836"/>
<polygon fill="#191970" stroke="#191970" points="131.1551,-77.2757 121.1537,-73.7795 126.7919,-82.7495 131.1551,-77.2757"/>
</g>
<!-- Node15&#45;&gt;Node4 -->
<g id="edge22" class="edge">
<title>Node15&#45;&gt;Node4</title>
<path fill="none" stroke="#191970" d="M787.3634,-220.191C796.0598,-207.1357 808.7684,-182.9735 798.5122,-165 788.6695,-147.7512 769.4423,-136.3806 752.6643,-129.32"/>
<polygon fill="#191970" stroke="#191970" points="753.7477,-125.9865 743.1582,-125.649 751.2259,-132.5165 753.7477,-125.9865"/>
</g>
<!-- Node16 -->
<g id="node17" class="node">
<title>Node16</title>
<g id="a_node17"><a xlink:title=" ">
<polygon fill="#ffffff" stroke="#bfbfbf" points="749.2856,-165.5 749.2856,-183.5 789.7388,-183.5 789.7388,-165.5 749.2856,-165.5"/>
<text text-anchor="middle" x="769.5122" y="-171.5" font-family="Helvetica,sans-Serif" font-size="10.00" fill="#000000">string</text>
</a>
</g>
</g>
<!-- Node15&#45;&gt;Node16 -->
<g id="edge21" class="edge">
<title>Node15&#45;&gt;Node16</title>
<path fill="none" stroke="#191970" d="M778.6958,-220.4179C777.2555,-213.2164 775.1914,-202.8962 773.3848,-193.8632"/>
<polygon fill="#191970" stroke="#191970" points="776.7614,-192.8988 771.3681,-183.7795 769.8973,-194.2717 776.7614,-192.8988"/>
</g>
<!-- Node17&#45;&gt;Node6 -->
<g id="edge29" class="edge">
<title>Node17&#45;&gt;Node6</title>
<path fill="none" stroke="#191970" d="M559.4367,-330.1826C570.8462,-321.8981 586.6628,-308.8249 596.5122,-294 617.6688,-262.1561 629.0227,-218.2762 634.1146,-193.5131"/>
<polygon fill="#191970" stroke="#191970" points="637.5708,-194.0742 636.0263,-183.5926 630.6973,-192.7497 637.5708,-194.0742"/>
</g>
<!-- Node17&#45;&gt;Node9 -->
<g id="edge30" class="edge">
<title>Node17&#45;&gt;Node9</title>
<path fill="none" stroke="#191970" d="M528.9556,-330.3939C479.1684,-303.0109 330.5783,-221.2863 270.8175,-188.4179"/>
<polygon fill="#191970" stroke="#191970" points="272.4666,-185.3305 262.0177,-183.578 269.0931,-191.464 272.4666,-185.3305"/>
</g>
<!-- Node18 -->
<g id="node19" class="node">
<title>Node18</title>
<g id="a_node19"><a xlink:href="communicator_8h.html" target="_top" xlink:title=" ">
<polygon fill="#ffffff" stroke="#000000" points="501.2168,-275.5 501.2168,-293.5 587.8076,-293.5 587.8076,-275.5 501.2168,-275.5"/>
<text text-anchor="middle" x="544.5122" y="-281.5" font-family="Helvetica,sans-Serif" font-size="10.00" fill="#000000">communicator.h</text>
</a>
</g>
</g>
<!-- Node17&#45;&gt;Node18 -->
<g id="edge26" class="edge">
<title>Node17&#45;&gt;Node18</title>
<path fill="none" stroke="#191970" d="M545.3471,-330.4179C545.2161,-323.2164 545.0285,-312.8962 544.8643,-303.8632"/>
<polygon fill="#191970" stroke="#191970" points="548.3622,-303.7141 544.6809,-293.7795 541.3634,-303.8415 548.3622,-303.7141"/>
</g>
<!-- Node18&#45;&gt;Node3 -->
<g id="edge28" class="edge">
<title>Node18&#45;&gt;Node3</title>
<path fill="none" stroke="#191970" d="M544.1819,-275.4179C543.9201,-268.2164 543.5448,-257.8962 543.2163,-248.8632"/>
<polygon fill="#191970" stroke="#191970" points="546.7108,-248.6456 542.8496,-238.7795 539.7154,-248.9001 546.7108,-248.6456"/>
</g>
<!-- Node18&#45;&gt;Node4 -->
<g id="edge27" class="edge">
<title>Node18&#45;&gt;Node4</title>
<path fill="none" stroke="#191970" d="M569.0041,-275.429C603.8551,-261.2716 667.4123,-230.618 702.5122,-184 712.3864,-170.8856 717.1457,-152.7163 719.43,-139.0029"/>
<polygon fill="#191970" stroke="#191970" points="722.9461,-139.1206 720.8246,-128.7404 716.0098,-138.178 722.9461,-139.1206"/>
</g>
<!-- Node19&#45;&gt;Node4 -->
<g id="edge33" class="edge">
<title>Node19&#45;&gt;Node4</title>
<path fill="none" stroke="#191970" d="M676.2538,-440.4791C757.4434,-424.5849 907.5122,-388.5696 907.5122,-339.5 907.5122,-339.5 907.5122,-339.5 907.5122,-229.5 907.5122,-158.6298 806.2317,-132.4549 753.1436,-123.6028"/>
<polygon fill="#191970" stroke="#191970" points="753.6325,-120.1368 743.2128,-122.0553 752.5546,-127.0534 753.6325,-120.1368"/>
</g>
<!-- Node19&#45;&gt;Node16 -->
<g id="edge32" class="edge">
<title>Node19&#45;&gt;Node16</title>
<path fill="none" stroke="#191970" d="M638.0564,-440.3865C648.6831,-432.0414 663.5771,-418.7702 672.5122,-404 687.9804,-378.4301 691.5122,-369.3846 691.5122,-339.5 691.5122,-339.5 691.5122,-339.5 691.5122,-284.5 691.5122,-254.6154 693.6339,-244.6619 710.5122,-220 719.1282,-207.4106 732.3276,-196.7641 744.0587,-188.9422"/>
<polygon fill="#191970" stroke="#191970" points="746.0534,-191.8222 752.6431,-183.526 742.3181,-185.9021 746.0534,-191.8222"/>
</g>
<!-- Node20 -->
<g id="node21" class="node">
<title>Node20</title>
<g id="a_node21"><a xlink:href="sysprint_8h.html" target="_top" xlink:title=" ">
<polygon fill="#ffffff" stroke="#000000" points="575.3843,-385.5 575.3843,-403.5 663.6401,-403.5 663.6401,-385.5 575.3843,-385.5"/>
<text text-anchor="middle" x="619.5122" y="-391.5" font-family="Helvetica,sans-Serif" font-size="10.00" fill="#000000">config/sysprint.h</text>
</a>
</g>
</g>
<!-- Node19&#45;&gt;Node20 -->
<g id="edge34" class="edge">
<title>Node19&#45;&gt;Node20</title>
<path fill="none" stroke="#191970" d="M619.3551,-440.4179C617.0779,-433.2164 615.5141,-422.8962 615.1443,-413.8632"/>
<polygon fill="#191970" stroke="#191970" points="618.6452,-413.8382 615.3177,-403.7795 611.6462,-413.7178 618.6452,-413.8382"/>
</g>
<!-- Node20&#45;&gt;Node17 -->
<g id="edge36" class="edge">
<title>Node20&#45;&gt;Node17</title>
<path fill="none" stroke="#191970" d="M607.2926,-385.4179C596.0453,-377.0584 579.144,-364.4966 565.8607,-354.6239"/>
<polygon fill="#191970" stroke="#191970" points="567.8638,-351.7518 557.75,-348.5956 563.6881,-357.37 567.8638,-351.7518"/>
</g>
<!-- Node20&#45;&gt;Node19 -->
<g id="edge35" class="edge">
<title>Node20&#45;&gt;Node19</title>
<path fill="none" stroke="#191970" d="M625.7313,-403.7795C627.9954,-411.0373 629.5418,-421.3738 629.8899,-430.383"/>
<polygon fill="#191970" stroke="#191970" points="626.3899,-430.3494 629.6877,-440.4179 633.3885,-430.4904 626.3899,-430.3494"/>
</g>
</g>
</svg>
