<?xml version="1.0" encoding="UTF-8" standalone="no"?>
<!DOCTYPE svg PUBLIC "-//W3C//DTD SVG 1.1//EN"
 "http://www.w3.org/Graphics/SVG/1.1/DTD/svg11.dtd">
<!-- Generated by graphviz version 2.40.1 (20161225.0304)
 -->
<!-- Title: GluonicLQCD/actions/wilsongaugeaction.h Pages: 1 -->
<svg width="553pt" height="212pt"
 viewBox="0.00 0.00 552.78 212.00" xmlns="http://www.w3.org/2000/svg" xmlns:xlink="http://www.w3.org/1999/xlink">
<g id="graph0" class="graph" transform="scale(1 1) rotate(0) translate(4 208)">
<title>GluonicLQCD/actions/wilsongaugeaction.h</title>
<polygon fill="#ffffff" stroke="transparent" points="-4,4 -4,-208 548.7827,-208 548.7827,4 -4,4"/>
<!-- Node14 -->
<g id="node1" class="node">
<title>Node14</title>
<g id="a_node1"><a xlink:title=" ">
<polygon fill="#bfbfbf" stroke="#000000" points="210.4458,-175.5 210.4458,-203.5 322.5981,-203.5 322.5981,-175.5 210.4458,-175.5"/>
<text text-anchor="start" x="218.4458" y="-191.5" font-family="Helvetica,sans-Serif" font-size="10.00" fill="#000000">GluonicLQCD/actions</text>
<text text-anchor="middle" x="266.522" y="-181.5" font-family="Helvetica,sans-Serif" font-size="10.00" fill="#000000">/wilsongaugeaction.h</text>
</a>
</g>
</g>
<!-- Node15 -->
<g id="node2" class="node">
<title>Node15</title>
<g id="a_node2"><a xlink:href="actions_8h.html" target="_top" xlink:title=" ">
<polygon fill="#ffffff" stroke="#000000" points="76.4458,-110.5 76.4458,-138.5 188.5981,-138.5 188.5981,-110.5 76.4458,-110.5"/>
<text text-anchor="start" x="84.4458" y="-126.5" font-family="Helvetica,sans-Serif" font-size="10.00" fill="#000000">GluonicLQCD/actions</text>
<text text-anchor="middle" x="132.522" y="-116.5" font-family="Helvetica,sans-Serif" font-size="10.00" fill="#000000">/actions.h</text>
</a>
</g>
</g>
<!-- Node14&#45;&gt;Node15 -->
<g id="edge1" class="edge">
<title>Node14&#45;&gt;Node15</title>
<path fill="none" stroke="#191970" d="M228.3671,-170.9921C207.1275,-160.6892 181.1077,-148.0677 161.5412,-138.5765"/>
<polygon fill="#191970" stroke="#191970" points="226.9211,-174.1806 237.446,-175.396 229.9762,-167.8825 226.9211,-174.1806"/>
</g>
<!-- Node19 -->
<g id="node6" class="node">
<title>Node19</title>
<g id="a_node6"><a xlink:href="wilsongaugeaction_8cpp.html" target="_top" xlink:title=" ">
<polygon fill="#ffffff" stroke="#000000" points="206.542,-110.5 206.542,-138.5 326.502,-138.5 326.502,-110.5 206.542,-110.5"/>
<text text-anchor="start" x="214.542" y="-126.5" font-family="Helvetica,sans-Serif" font-size="10.00" fill="#000000">GluonicLQCD/actions</text>
<text text-anchor="middle" x="266.522" y="-116.5" font-family="Helvetica,sans-Serif" font-size="10.00" fill="#000000">/wilsongaugeaction.cpp</text>
</a>
</g>
</g>
<!-- Node14&#45;&gt;Node19 -->
<g id="edge5" class="edge">
<title>Node14&#45;&gt;Node19</title>
<path fill="none" stroke="#191970" d="M266.522,-165.1081C266.522,-156.1539 266.522,-146.3227 266.522,-138.5765"/>
<polygon fill="#191970" stroke="#191970" points="263.0221,-165.3959 266.522,-175.396 270.0221,-165.396 263.0221,-165.3959"/>
</g>
<!-- Node20 -->
<g id="node7" class="node">
<title>Node20</title>
<g id="a_node7"><a xlink:href="performancetests_8cpp.html" target="_top" xlink:title=" ">
<polygon fill="#ffffff" stroke="#000000" points="344.2612,-115.5 344.2612,-133.5 544.7827,-133.5 544.7827,-115.5 344.2612,-115.5"/>
<text text-anchor="middle" x="444.522" y="-121.5" font-family="Helvetica,sans-Serif" font-size="10.00" fill="#000000">GluonicLQCD/tests/performancetests.cpp</text>
</a>
</g>
</g>
<!-- Node14&#45;&gt;Node20 -->
<g id="edge6" class="edge">
<title>Node14&#45;&gt;Node20</title>
<path fill="none" stroke="#191970" d="M314.8599,-171.8485C348.7398,-159.4766 392.6339,-143.4479 419.6723,-133.5743"/>
<polygon fill="#191970" stroke="#191970" points="313.3381,-168.6781 305.1453,-175.396 315.7392,-175.2534 313.3381,-168.6781"/>
</g>
<!-- Node16 -->
<g id="node3" class="node">
<title>Node16</title>
<g id="a_node3"><a xlink:href="system_8h.html" target="_top" xlink:title=" ">
<polygon fill="#ffffff" stroke="#000000" points="72.2832,-55.5 72.2832,-73.5 192.7607,-73.5 192.7607,-55.5 72.2832,-55.5"/>
<text text-anchor="middle" x="132.522" y="-61.5" font-family="Helvetica,sans-Serif" font-size="10.00" fill="#000000">GluonicLQCD/system.h</text>
</a>
</g>
</g>
<!-- Node15&#45;&gt;Node16 -->
<g id="edge2" class="edge">
<title>Node15&#45;&gt;Node16</title>
<path fill="none" stroke="#191970" d="M132.522,-100.2151C132.522,-90.8253 132.522,-80.6598 132.522,-73.5842"/>
<polygon fill="#191970" stroke="#191970" points="129.0221,-100.2808 132.522,-110.2808 136.0221,-100.2809 129.0221,-100.2808"/>
</g>
<!-- Node17 -->
<g id="node4" class="node">
<title>Node17</title>
<g id="a_node4"><a xlink:href="main_8cpp.html" target="_top" xlink:title=" ">
<polygon fill="#ffffff" stroke="#000000" points="0,-.5 0,-18.5 121.0439,-18.5 121.0439,-.5 0,-.5"/>
<text text-anchor="middle" x="60.522" y="-6.5" font-family="Helvetica,sans-Serif" font-size="10.00" fill="#000000">GluonicLQCD/main.cpp</text>
</a>
</g>
</g>
<!-- Node16&#45;&gt;Node17 -->
<g id="edge3" class="edge">
<title>Node16&#45;&gt;Node17</title>
<path fill="none" stroke="#191970" d="M112.4275,-49.15C99.6506,-39.3899 83.5282,-27.0742 72.6696,-18.7795"/>
<polygon fill="#191970" stroke="#191970" points="110.5613,-52.1288 120.6326,-55.4179 114.8106,-46.5661 110.5613,-52.1288"/>
</g>
<!-- Node18 -->
<g id="node5" class="node">
<title>Node18</title>
<g id="a_node5"><a xlink:href="system_8cpp.html" target="_top" xlink:title=" ">
<polygon fill="#ffffff" stroke="#000000" points="139.0024,-.5 139.0024,-18.5 270.0415,-18.5 270.0415,-.5 139.0024,-.5"/>
<text text-anchor="middle" x="204.522" y="-6.5" font-family="Helvetica,sans-Serif" font-size="10.00" fill="#000000">GluonicLQCD/system.cpp</text>
</a>
</g>
</g>
<!-- Node16&#45;&gt;Node18 -->
<g id="edge4" class="edge">
<title>Node16&#45;&gt;Node18</title>
<path fill="none" stroke="#191970" d="M152.6165,-49.15C165.3933,-39.3899 181.5158,-27.0742 192.3743,-18.7795"/>
<polygon fill="#191970" stroke="#191970" points="150.2334,-46.5661 144.4113,-55.4179 154.4827,-52.1288 150.2334,-46.5661"/>
</g>
</g>
</svg>
