<?xml version="1.0" encoding="UTF-8" standalone="no"?>
<!DOCTYPE svg PUBLIC "-//W3C//DTD SVG 1.1//EN"
 "http://www.w3.org/Graphics/SVG/1.1/DTD/svg11.dtd">
<!-- Generated by graphviz version 2.40.1 (20161225.0304)
 -->
<!-- Title: GluonicLQCD/actions/wilsongaugeaction.cpp Pages: 1 -->
<svg width="836pt" height="532pt"
 viewBox="0.00 0.00 836.10 532.00" xmlns="http://www.w3.org/2000/svg" xmlns:xlink="http://www.w3.org/1999/xlink">
<g id="graph0" class="graph" transform="scale(1 1) rotate(0) translate(4 528)">
<title>GluonicLQCD/actions/wilsongaugeaction.cpp</title>
<polygon fill="#ffffff" stroke="transparent" points="-4,4 -4,-528 832.1028,-528 832.1028,4 -4,4"/>
<!-- Node0 -->
<g id="node1" class="node">
<title>Node0</title>
<g id="a_node1"><a xlink:title=" ">
<polygon fill="#bfbfbf" stroke="#000000" points="270.6107,-495.5 270.6107,-523.5 390.5706,-523.5 390.5706,-495.5 270.6107,-495.5"/>
<text text-anchor="start" x="278.6107" y="-511.5" font-family="Helvetica,sans-Serif" font-size="10.00" fill="#000000">GluonicLQCD/actions</text>
<text text-anchor="middle" x="330.5906" y="-501.5" font-family="Helvetica,sans-Serif" font-size="10.00" fill="#000000">/wilsongaugeaction.cpp</text>
</a>
</g>
</g>
<!-- Node1 -->
<g id="node2" class="node">
<title>Node1</title>
<g id="a_node2"><a xlink:href="wilsongaugeaction_8h.html" target="_top" xlink:title=" ">
<polygon fill="#ffffff" stroke="#000000" points="277.2806,-440.5 277.2806,-458.5 383.9007,-458.5 383.9007,-440.5 277.2806,-440.5"/>
<text text-anchor="middle" x="330.5906" y="-446.5" font-family="Helvetica,sans-Serif" font-size="10.00" fill="#000000">wilsongaugeaction.h</text>
</a>
</g>
</g>
<!-- Node0&#45;&gt;Node1 -->
<g id="edge1" class="edge">
<title>Node0&#45;&gt;Node1</title>
<path fill="none" stroke="#191970" d="M330.5906,-495.2808C330.5906,-487.3776 330.5906,-477.4316 330.5906,-468.8308"/>
<polygon fill="#191970" stroke="#191970" points="334.0907,-468.5842 330.5906,-458.5842 327.0907,-468.5842 334.0907,-468.5842"/>
</g>
<!-- Node10 -->
<g id="node11" class="node">
<title>Node10</title>
<g id="a_node11"><a xlink:href="functions_8h.html" target="_top" xlink:title=" ">
<polygon fill="#ffffff" stroke="#000000" points="656.4085,-165.5 656.4085,-183.5 720.7728,-183.5 720.7728,-165.5 656.4085,-165.5"/>
<text text-anchor="middle" x="688.5906" y="-171.5" font-family="Helvetica,sans-Serif" font-size="10.00" fill="#000000">functions.h</text>
</a>
</g>
</g>
<!-- Node0&#45;&gt;Node10 -->
<g id="edge32" class="edge">
<title>Node0&#45;&gt;Node10</title>
<path fill="none" stroke="#191970" d="M390.6007,-497.0394C471.5165,-478.4806 605.5906,-440.7511 605.5906,-394.5 605.5906,-394.5 605.5906,-394.5 605.5906,-284.5 605.5906,-243.839 642.1751,-208.6831 666.7664,-189.6449"/>
<polygon fill="#191970" stroke="#191970" points="668.954,-192.3797 674.8849,-183.6004 664.7737,-186.765 668.954,-192.3797"/>
</g>
<!-- Node15 -->
<g id="node16" class="node">
<title>Node15</title>
<g id="a_node16"><a xlink:href="parameters_8h.html" target="_top" xlink:title=" ">
<polygon fill="#ffffff" stroke="#000000" points="137.4012,-440.5 137.4012,-458.5 241.7801,-458.5 241.7801,-440.5 137.4012,-440.5"/>
<text text-anchor="middle" x="189.5906" y="-446.5" font-family="Helvetica,sans-Serif" font-size="10.00" fill="#000000">config/parameters.h</text>
</a>
</g>
</g>
<!-- Node0&#45;&gt;Node15 -->
<g id="edge21" class="edge">
<title>Node0&#45;&gt;Node15</title>
<path fill="none" stroke="#191970" d="M297.5324,-495.4327C274.1714,-485.4918 243.0836,-472.263 220.2718,-462.5558"/>
<polygon fill="#191970" stroke="#191970" points="221.6206,-459.3261 211.0486,-458.6311 218.8797,-465.7672 221.6206,-459.3261"/>
</g>
<!-- Node2 -->
<g id="node3" class="node">
<title>Node2</title>
<g id="a_node3"><a xlink:href="action_8h.html" target="_top" xlink:title=" ">
<polygon fill="#ffffff" stroke="#000000" points="305.0784,-275.5 305.0784,-293.5 356.1028,-293.5 356.1028,-275.5 305.0784,-275.5"/>
<text text-anchor="middle" x="330.5906" y="-281.5" font-family="Helvetica,sans-Serif" font-size="10.00" fill="#000000">action.h</text>
</a>
</g>
</g>
<!-- Node1&#45;&gt;Node2 -->
<g id="edge2" class="edge">
<title>Node1&#45;&gt;Node2</title>
<path fill="none" stroke="#191970" d="M330.5906,-440.1561C330.5906,-413.9504 330.5906,-339.3557 330.5906,-303.8021"/>
<polygon fill="#191970" stroke="#191970" points="334.0907,-303.7414 330.5906,-293.7414 327.0907,-303.7414 334.0907,-303.7414"/>
</g>
<!-- Node3 -->
<g id="node4" class="node">
<title>Node3</title>
<g id="a_node4"><a xlink:href="lattice_8h.html" target="_top" xlink:title=" ">
<polygon fill="#ffffff" stroke="#000000" points="297.8543,-220.5 297.8543,-238.5 373.327,-238.5 373.327,-220.5 297.8543,-220.5"/>
<text text-anchor="middle" x="335.5906" y="-226.5" font-family="Helvetica,sans-Serif" font-size="10.00" fill="#000000">math/lattice.h</text>
</a>
</g>
</g>
<!-- Node2&#45;&gt;Node3 -->
<g id="edge3" class="edge">
<title>Node2&#45;&gt;Node3</title>
<path fill="none" stroke="#191970" d="M331.4163,-275.4179C332.071,-268.2164 333.0092,-257.8962 333.8303,-248.8632"/>
<polygon fill="#191970" stroke="#191970" points="337.3272,-249.0553 334.7471,-238.7795 330.356,-248.4215 337.3272,-249.0553"/>
</g>
<!-- Node4 -->
<g id="node5" class="node">
<title>Node4</title>
<g id="a_node5"><a xlink:title=" ">
<polygon fill="#ffffff" stroke="#bfbfbf" points="165.9749,-110.5 165.9749,-128.5 209.2064,-128.5 209.2064,-110.5 165.9749,-110.5"/>
<text text-anchor="middle" x="187.5906" y="-116.5" font-family="Helvetica,sans-Serif" font-size="10.00" fill="#000000">vector</text>
</a>
</g>
</g>
<!-- Node2&#45;&gt;Node4 -->
<g id="edge20" class="edge">
<title>Node2&#45;&gt;Node4</title>
<path fill="none" stroke="#191970" d="M321.4493,-275.3703C304.2553,-258.0605 266.1699,-219.0584 236.5906,-184 223.6228,-168.63 209.8531,-150.3054 200.2238,-137.123"/>
<polygon fill="#191970" stroke="#191970" points="202.9806,-134.9625 194.2795,-128.9177 197.3118,-139.0693 202.9806,-134.9625"/>
</g>
<!-- Node3&#45;&gt;Node4 -->
<g id="edge4" class="edge">
<title>Node3&#45;&gt;Node4</title>
<path fill="none" stroke="#191970" d="M319.7242,-220.3479C304.8499,-211.5662 282.1799,-197.658 263.5906,-184 242.6453,-168.6109 220.1182,-149.0788 205.0742,-135.5614"/>
<polygon fill="#191970" stroke="#191970" points="207.3035,-132.8582 197.5439,-128.735 202.6021,-138.0445 207.3035,-132.8582"/>
</g>
<!-- Node5 -->
<g id="node6" class="node">
<title>Node5</title>
<g id="a_node6"><a xlink:title=" ">
<polygon fill="#ffffff" stroke="#bfbfbf" points="475.3641,-110.5 475.3641,-128.5 515.8172,-128.5 515.8172,-110.5 475.3641,-110.5"/>
<text text-anchor="middle" x="495.5906" y="-116.5" font-family="Helvetica,sans-Serif" font-size="10.00" fill="#000000">mpi.h</text>
</a>
</g>
</g>
<!-- Node3&#45;&gt;Node5 -->
<g id="edge5" class="edge">
<title>Node3&#45;&gt;Node5</title>
<path fill="none" stroke="#191970" d="M354.9307,-220.4555C372.3955,-211.959 398.5115,-198.4234 419.5906,-184 441.2818,-169.1578 463.9848,-149.2249 478.8647,-135.4653"/>
<polygon fill="#191970" stroke="#191970" points="481.3652,-137.9187 486.2703,-128.5277 476.5795,-132.8101 481.3652,-137.9187"/>
</g>
<!-- Node6 -->
<g id="node7" class="node">
<title>Node6</title>
<g id="a_node7"><a xlink:href="index_8h.html" target="_top" xlink:title=" ">
<polygon fill="#ffffff" stroke="#000000" points="28.5047,-165.5 28.5047,-183.5 140.6766,-183.5 140.6766,-165.5 28.5047,-165.5"/>
<text text-anchor="middle" x="84.5906" y="-171.5" font-family="Helvetica,sans-Serif" font-size="10.00" fill="#000000">parallelization/index.h</text>
</a>
</g>
</g>
<!-- Node3&#45;&gt;Node6 -->
<g id="edge6" class="edge">
<title>Node3&#45;&gt;Node6</title>
<path fill="none" stroke="#191970" d="M297.7416,-221.2064C254.526,-211.7368 183.6146,-196.1985 135.5616,-185.6689"/>
<polygon fill="#191970" stroke="#191970" points="136.1901,-182.2237 125.6727,-183.502 134.6918,-189.0615 136.1901,-182.2237"/>
</g>
<!-- Node7 -->
<g id="node8" class="node">
<title>Node7</title>
<g id="a_node8"><a xlink:href="neighbours_8h.html" target="_top" xlink:title=" ">
<polygon fill="#ffffff" stroke="#000000" points="272.7166,-165.5 272.7166,-183.5 410.4647,-183.5 410.4647,-165.5 272.7166,-165.5"/>
<text text-anchor="middle" x="341.5906" y="-171.5" font-family="Helvetica,sans-Serif" font-size="10.00" fill="#000000">parallelization/neighbours.h</text>
</a>
</g>
</g>
<!-- Node3&#45;&gt;Node7 -->
<g id="edge8" class="edge">
<title>Node3&#45;&gt;Node7</title>
<path fill="none" stroke="#191970" d="M336.5814,-220.4179C337.367,-213.2164 338.4929,-202.8962 339.4783,-193.8632"/>
<polygon fill="#191970" stroke="#191970" points="342.9731,-194.1001 340.5783,-183.7795 336.0144,-193.3409 342.9731,-194.1001"/>
</g>
<!-- Node9 -->
<g id="node10" class="node">
<title>Node9</title>
<g id="a_node10"><a xlink:href="parallelparameters_8h.html" target="_top" xlink:title=" ">
<polygon fill="#ffffff" stroke="#000000" points="467.0491,-165.5 467.0491,-183.5 638.1321,-183.5 638.1321,-165.5 467.0491,-165.5"/>
<text text-anchor="middle" x="552.5906" y="-171.5" font-family="Helvetica,sans-Serif" font-size="10.00" fill="#000000">parallelization/parallelparameters.h</text>
</a>
</g>
</g>
<!-- Node3&#45;&gt;Node9 -->
<g id="edge11" class="edge">
<title>Node3&#45;&gt;Node9</title>
<path fill="none" stroke="#191970" d="M371.4238,-220.4179C408.6002,-210.9953 466.8417,-196.2336 507.2105,-186.0019"/>
<polygon fill="#191970" stroke="#191970" points="508.2314,-189.3539 517.0649,-183.5042 506.5115,-182.5684 508.2314,-189.3539"/>
</g>
<!-- Node3&#45;&gt;Node10 -->
<g id="edge13" class="edge">
<title>Node3&#45;&gt;Node10</title>
<path fill="none" stroke="#191970" d="M373.7011,-224.9765C430.8136,-217.9721 542.1773,-203.4442 645.9515,-184.1933"/>
<polygon fill="#191970" stroke="#191970" points="646.7844,-187.5982 655.9684,-182.3157 645.4947,-180.718 646.7844,-187.5982"/>
</g>
<!-- Node6&#45;&gt;Node4 -->
<g id="edge7" class="edge">
<title>Node6&#45;&gt;Node4</title>
<path fill="none" stroke="#191970" d="M101.599,-165.4179C117.925,-156.7001 142.8096,-143.4122 161.6161,-133.3699"/>
<polygon fill="#191970" stroke="#191970" points="163.3845,-136.3934 170.557,-128.5956 160.0872,-130.2186 163.3845,-136.3934"/>
</g>
<!-- Node7&#45;&gt;Node4 -->
<g id="edge10" class="edge">
<title>Node7&#45;&gt;Node4</title>
<path fill="none" stroke="#191970" d="M316.1607,-165.4179C289.5665,-155.9199 247.7829,-140.9972 219.1113,-130.7574"/>
<polygon fill="#191970" stroke="#191970" points="220.1577,-127.4146 209.563,-127.3473 217.8033,-134.0068 220.1577,-127.4146"/>
</g>
<!-- Node8 -->
<g id="node9" class="node">
<title>Node8</title>
<g id="a_node9"><a xlink:href="neighbourlist_8h.html" target="_top" xlink:title=" ">
<polygon fill="#ffffff" stroke="#000000" points="301.0687,-110.5 301.0687,-128.5 382.1126,-128.5 382.1126,-110.5 301.0687,-110.5"/>
<text text-anchor="middle" x="341.5906" y="-116.5" font-family="Helvetica,sans-Serif" font-size="10.00" fill="#000000">neighbourlist.h</text>
</a>
</g>
</g>
<!-- Node7&#45;&gt;Node8 -->
<g id="edge9" class="edge">
<title>Node7&#45;&gt;Node8</title>
<path fill="none" stroke="#191970" d="M341.5906,-165.4179C341.5906,-158.2164 341.5906,-147.8962 341.5906,-138.8632"/>
<polygon fill="#191970" stroke="#191970" points="345.0907,-138.7794 341.5906,-128.7795 338.0907,-138.7795 345.0907,-138.7794"/>
</g>
<!-- Node9&#45;&gt;Node5 -->
<g id="edge12" class="edge">
<title>Node9&#45;&gt;Node5</title>
<path fill="none" stroke="#191970" d="M543.1782,-165.4179C534.8947,-157.425 522.6297,-145.5903 512.6261,-135.9377"/>
<polygon fill="#191970" stroke="#191970" points="514.834,-133.2045 505.2075,-128.7795 509.9734,-138.2419 514.834,-133.2045"/>
</g>
<!-- Node11 -->
<g id="node12" class="node">
<title>Node11</title>
<g id="a_node12"><a xlink:href="su3_8h.html" target="_top" xlink:title=" ">
<polygon fill="#ffffff" stroke="#000000" points="648.0784,-110.5 648.0784,-128.5 729.1028,-128.5 729.1028,-110.5 648.0784,-110.5"/>
<text text-anchor="middle" x="688.5906" y="-116.5" font-family="Helvetica,sans-Serif" font-size="10.00" fill="#000000">matrices/su3.h</text>
</a>
</g>
</g>
<!-- Node10&#45;&gt;Node11 -->
<g id="edge14" class="edge">
<title>Node10&#45;&gt;Node11</title>
<path fill="none" stroke="#191970" d="M688.5906,-165.4179C688.5906,-158.2164 688.5906,-147.8962 688.5906,-138.8632"/>
<polygon fill="#191970" stroke="#191970" points="692.0907,-138.7794 688.5906,-128.7795 685.0907,-138.7795 692.0907,-138.7794"/>
</g>
<!-- Node12 -->
<g id="node13" class="node">
<title>Node12</title>
<g id="a_node13"><a xlink:href="complex_8h.html" target="_top" xlink:title=" ">
<polygon fill="#ffffff" stroke="#000000" points="645.2977,-55.5 645.2977,-73.5 731.8836,-73.5 731.8836,-55.5 645.2977,-55.5"/>
<text text-anchor="middle" x="688.5906" y="-61.5" font-family="Helvetica,sans-Serif" font-size="10.00" fill="#000000">math/complex.h</text>
</a>
</g>
</g>
<!-- Node10&#45;&gt;Node12 -->
<g id="edge19" class="edge">
<title>Node10&#45;&gt;Node12</title>
<path fill="none" stroke="#191970" d="M672.7909,-165.4232C654.6952,-153.7435 628.7373,-132.2889 638.5906,-110 644.0034,-97.7558 654.5189,-87.3899 664.5153,-79.6592"/>
<polygon fill="#191970" stroke="#191970" points="666.5884,-82.4796 672.6669,-73.8019 662.5036,-76.7949 666.5884,-82.4796"/>
</g>
<!-- Node14 -->
<g id="node15" class="node">
<title>Node14</title>
<g id="a_node15"><a xlink:href="su2_8h.html" target="_top" xlink:title=" ">
<polygon fill="#ffffff" stroke="#000000" points="747.0784,-110.5 747.0784,-128.5 828.1028,-128.5 828.1028,-110.5 747.0784,-110.5"/>
<text text-anchor="middle" x="787.5906" y="-116.5" font-family="Helvetica,sans-Serif" font-size="10.00" fill="#000000">matrices/su2.h</text>
</a>
</g>
</g>
<!-- Node10&#45;&gt;Node14 -->
<g id="edge17" class="edge">
<title>Node10&#45;&gt;Node14</title>
<path fill="none" stroke="#191970" d="M704.9385,-165.4179C720.5588,-156.7399 744.3304,-143.5334 762.3768,-133.5077"/>
<polygon fill="#191970" stroke="#191970" points="764.1767,-136.5117 771.2185,-128.5956 760.7772,-130.3925 764.1767,-136.5117"/>
</g>
<!-- Node11&#45;&gt;Node12 -->
<g id="edge15" class="edge">
<title>Node11&#45;&gt;Node12</title>
<path fill="none" stroke="#191970" d="M688.5906,-110.4179C688.5906,-103.2164 688.5906,-92.8962 688.5906,-83.8632"/>
<polygon fill="#191970" stroke="#191970" points="692.0907,-83.7794 688.5906,-73.7795 685.0907,-83.7795 692.0907,-83.7794"/>
</g>
<!-- Node13 -->
<g id="node14" class="node">
<title>Node13</title>
<g id="a_node14"><a xlink:title=" ">
<polygon fill="#ffffff" stroke="#bfbfbf" points="661.4183,-.5 661.4183,-18.5 715.763,-18.5 715.763,-.5 661.4183,-.5"/>
<text text-anchor="middle" x="688.5906" y="-6.5" font-family="Helvetica,sans-Serif" font-size="10.00" fill="#000000">iostream</text>
</a>
</g>
</g>
<!-- Node12&#45;&gt;Node13 -->
<g id="edge16" class="edge">
<title>Node12&#45;&gt;Node13</title>
<path fill="none" stroke="#191970" d="M688.5906,-55.4179C688.5906,-48.2164 688.5906,-37.8962 688.5906,-28.8632"/>
<polygon fill="#191970" stroke="#191970" points="692.0907,-28.7794 688.5906,-18.7795 685.0907,-28.7795 692.0907,-28.7794"/>
</g>
<!-- Node14&#45;&gt;Node12 -->
<g id="edge18" class="edge">
<title>Node14&#45;&gt;Node12</title>
<path fill="none" stroke="#191970" d="M771.2428,-110.4179C755.6225,-101.7399 731.8508,-88.5334 713.8045,-78.5077"/>
<polygon fill="#191970" stroke="#191970" points="715.4041,-75.3925 704.9628,-73.5956 712.0046,-81.5117 715.4041,-75.3925"/>
</g>
<!-- Node15&#45;&gt;Node4 -->
<g id="edge23" class="edge">
<title>Node15&#45;&gt;Node4</title>
<path fill="none" stroke="#191970" d="M137.1946,-441.8994C81.261,-430.4772 .5906,-402.997 .5906,-339.5 .5906,-339.5 .5906,-339.5 .5906,-229.5 .5906,-199.6154 -1.7719,-185.898 19.5906,-165 38.8474,-146.162 112.7744,-131.4932 155.877,-124.3242"/>
<polygon fill="#191970" stroke="#191970" points="156.5511,-127.7607 165.8622,-122.7057 155.431,-120.8509 156.5511,-127.7607"/>
</g>
<!-- Node16 -->
<g id="node17" class="node">
<title>Node16</title>
<g id="a_node17"><a xlink:title=" ">
<polygon fill="#ffffff" stroke="#bfbfbf" points="251.3641,-385.5 251.3641,-403.5 291.8172,-403.5 291.8172,-385.5 251.3641,-385.5"/>
<text text-anchor="middle" x="271.5906" y="-391.5" font-family="Helvetica,sans-Serif" font-size="10.00" fill="#000000">string</text>
</a>
</g>
</g>
<!-- Node15&#45;&gt;Node16 -->
<g id="edge22" class="edge">
<title>Node15&#45;&gt;Node16</title>
<path fill="none" stroke="#191970" d="M203.1313,-440.4179C215.7132,-431.9788 234.6802,-419.257 249.4617,-409.3426"/>
<polygon fill="#191970" stroke="#191970" points="251.6746,-412.0727 258.0299,-403.5956 247.7753,-406.2593 251.6746,-412.0727"/>
</g>
<!-- Node17 -->
<g id="node18" class="node">
<title>Node17</title>
<g id="a_node18"><a xlink:href="sysprint_8h.html" target="_top" xlink:title=" ">
<polygon fill="#ffffff" stroke="#000000" points="145.4627,-385.5 145.4627,-403.5 233.7186,-403.5 233.7186,-385.5 145.4627,-385.5"/>
<text text-anchor="middle" x="189.5906" y="-391.5" font-family="Helvetica,sans-Serif" font-size="10.00" fill="#000000">config/sysprint.h</text>
</a>
</g>
</g>
<!-- Node15&#45;&gt;Node17 -->
<g id="edge24" class="edge">
<title>Node15&#45;&gt;Node17</title>
<path fill="none" stroke="#191970" d="M184.4243,-440.4179C182.9328,-433.2164 182.4948,-422.8962 183.1104,-413.8632"/>
<polygon fill="#191970" stroke="#191970" points="186.6033,-414.1392 184.3839,-403.7795 179.6584,-413.2621 186.6033,-414.1392"/>
</g>
<!-- Node17&#45;&gt;Node15 -->
<g id="edge25" class="edge">
<title>Node17&#45;&gt;Node15</title>
<path fill="none" stroke="#191970" d="M194.7974,-403.7795C196.2698,-411.0373 196.6886,-421.3738 196.0538,-430.383"/>
<polygon fill="#191970" stroke="#191970" points="192.5676,-430.0517 194.757,-440.4179 199.5099,-430.949 192.5676,-430.0517"/>
</g>
<!-- Node18 -->
<g id="node19" class="node">
<title>Node18</title>
<g id="a_node19"><a xlink:href="parallel_8h.html" target="_top" xlink:title=" ">
<polygon fill="#ffffff" stroke="#000000" points="129.3372,-330.5 129.3372,-348.5 249.8441,-348.5 249.8441,-330.5 129.3372,-330.5"/>
<text text-anchor="middle" x="189.5906" y="-336.5" font-family="Helvetica,sans-Serif" font-size="10.00" fill="#000000">parallelization/parallel.h</text>
</a>
</g>
</g>
<!-- Node17&#45;&gt;Node18 -->
<g id="edge26" class="edge">
<title>Node17&#45;&gt;Node18</title>
<path fill="none" stroke="#191970" d="M189.5906,-385.4179C189.5906,-378.2164 189.5906,-367.8962 189.5906,-358.8632"/>
<polygon fill="#191970" stroke="#191970" points="193.0907,-358.7794 189.5906,-348.7795 186.0907,-358.7795 193.0907,-358.7794"/>
</g>
<!-- Node18&#45;&gt;Node6 -->
<g id="edge30" class="edge">
<title>Node18&#45;&gt;Node6</title>
<path fill="none" stroke="#191970" d="M176.1704,-330.343C164.707,-321.9701 148.4021,-308.6826 137.5906,-294 114.0287,-262.0016 97.9045,-217.8737 90.0659,-193.1764"/>
<polygon fill="#191970" stroke="#191970" points="93.4057,-192.1292 87.133,-183.5909 86.712,-194.1773 93.4057,-192.1292"/>
</g>
<!-- Node18&#45;&gt;Node9 -->
<g id="edge31" class="edge">
<title>Node18&#45;&gt;Node9</title>
<path fill="none" stroke="#191970" d="M241.8486,-330.4966C277.6373,-323.2558 325.6613,-311.3928 365.5906,-294 431.1332,-265.4503 499.9061,-215.506 532.7926,-190.1809"/>
<polygon fill="#191970" stroke="#191970" points="535.3413,-192.6324 541.0841,-183.7289 531.0425,-187.1079 535.3413,-192.6324"/>
</g>
<!-- Node19 -->
<g id="node20" class="node">
<title>Node19</title>
<g id="a_node20"><a xlink:href="communicator_8h.html" target="_top" xlink:title=" ">
<polygon fill="#ffffff" stroke="#000000" points="146.2952,-275.5 146.2952,-293.5 232.886,-293.5 232.886,-275.5 146.2952,-275.5"/>
<text text-anchor="middle" x="189.5906" y="-281.5" font-family="Helvetica,sans-Serif" font-size="10.00" fill="#000000">communicator.h</text>
</a>
</g>
</g>
<!-- Node18&#45;&gt;Node19 -->
<g id="edge27" class="edge">
<title>Node18&#45;&gt;Node19</title>
<path fill="none" stroke="#191970" d="M189.5906,-330.4179C189.5906,-323.2164 189.5906,-312.8962 189.5906,-303.8632"/>
<polygon fill="#191970" stroke="#191970" points="193.0907,-303.7794 189.5906,-293.7795 186.0907,-303.7795 193.0907,-303.7794"/>
</g>
<!-- Node19&#45;&gt;Node3 -->
<g id="edge29" class="edge">
<title>Node19&#45;&gt;Node3</title>
<path fill="none" stroke="#191970" d="M213.6996,-275.4179C237.7923,-266.3419 275.0343,-252.3123 302.0138,-242.1488"/>
<polygon fill="#191970" stroke="#191970" points="303.3217,-245.3963 311.4459,-238.5956 300.854,-238.8457 303.3217,-245.3963"/>
</g>
<!-- Node19&#45;&gt;Node4 -->
<g id="edge28" class="edge">
<title>Node19&#45;&gt;Node4</title>
<path fill="none" stroke="#191970" d="M189.4774,-275.1561C189.1597,-248.9504 188.2556,-174.3557 187.8246,-138.8021"/>
<polygon fill="#191970" stroke="#191970" points="191.3237,-138.6982 187.7027,-128.7414 184.3242,-138.7831 191.3237,-138.6982"/>
</g>
</g>
</svg>
