<?xml version="1.0" encoding="UTF-8" standalone="no"?>
<!DOCTYPE svg PUBLIC "-//W3C//DTD SVG 1.1//EN"
 "http://www.w3.org/Graphics/SVG/1.1/DTD/svg11.dtd">
<!-- Generated by graphviz version 2.40.1 (20161225.0304)
 -->
<!-- Title: GLAC/actions/actions.h Pages: 1 -->
<svg width="712pt" height="412pt"
 viewBox="0.00 0.00 712.49 412.00" xmlns="http://www.w3.org/2000/svg" xmlns:xlink="http://www.w3.org/1999/xlink">
<g id="graph0" class="graph" transform="scale(1 1) rotate(0) translate(4 408)">
<title>GLAC/actions/actions.h</title>
<polygon fill="#ffffff" stroke="transparent" points="-4,4 -4,-408 708.4918,-408 708.4918,4 -4,4"/>
<!-- Node0 -->
<g id="node1" class="node">
<title>Node0</title>
<g id="a_node1"><a xlink:title=" ">
<polygon fill="#bfbfbf" stroke="#000000" points="24.731,-385.5 24.731,-403.5 145.2281,-403.5 145.2281,-385.5 24.731,-385.5"/>
<text text-anchor="middle" x="84.9795" y="-391.5" font-family="Helvetica,sans-Serif" font-size="10.00" fill="#000000">GLAC/actions/actions.h</text>
</a>
</g>
</g>
<!-- Node1 -->
<g id="node2" class="node">
<title>Node1</title>
<g id="a_node2"><a xlink:href="action_8h.html" target="_top" xlink:title=" ">
<polygon fill="#ffffff" stroke="#000000" points="59.4673,-275.5 59.4673,-293.5 110.4918,-293.5 110.4918,-275.5 59.4673,-275.5"/>
<text text-anchor="middle" x="84.9795" y="-281.5" font-family="Helvetica,sans-Serif" font-size="10.00" fill="#000000">action.h</text>
</a>
</g>
</g>
<!-- Node0&#45;&gt;Node1 -->
<g id="edge1" class="edge">
<title>Node0&#45;&gt;Node1</title>
<path fill="none" stroke="#191970" d="M64.255,-385.3288C41.9376,-374.0258 11.1184,-353.4171 22.9795,-330 29.8246,-316.4861 42.7809,-306.0134 55.0868,-298.5407"/>
<polygon fill="#191970" stroke="#191970" points="56.8292,-301.5764 63.8357,-293.6291 53.4025,-295.4725 56.8292,-301.5764"/>
</g>
<!-- Node14 -->
<g id="node15" class="node">
<title>Node14</title>
<g id="a_node15"><a xlink:href="wilsongaugeaction_8h.html" target="_top" xlink:title=" ">
<polygon fill="#ffffff" stroke="#000000" points="31.6695,-330.5 31.6695,-348.5 138.2896,-348.5 138.2896,-330.5 31.6695,-330.5"/>
<text text-anchor="middle" x="84.9795" y="-336.5" font-family="Helvetica,sans-Serif" font-size="10.00" fill="#000000">wilsongaugeaction.h</text>
</a>
</g>
</g>
<!-- Node0&#45;&gt;Node14 -->
<g id="edge20" class="edge">
<title>Node0&#45;&gt;Node14</title>
<path fill="none" stroke="#191970" d="M84.9795,-385.4179C84.9795,-378.2164 84.9795,-367.8962 84.9795,-358.8632"/>
<polygon fill="#191970" stroke="#191970" points="88.4796,-358.7794 84.9795,-348.7795 81.4796,-358.7795 88.4796,-358.7794"/>
</g>
<!-- Node15 -->
<g id="node16" class="node">
<title>Node15</title>
<g id="a_node16"><a xlink:href="luscheraction_8h.html" target="_top" xlink:title=" ">
<polygon fill="#ffffff" stroke="#000000" points="156.3492,-330.5 156.3492,-348.5 239.6099,-348.5 239.6099,-330.5 156.3492,-330.5"/>
<text text-anchor="middle" x="197.9795" y="-336.5" font-family="Helvetica,sans-Serif" font-size="10.00" fill="#000000">luscheraction.h</text>
</a>
</g>
</g>
<!-- Node0&#45;&gt;Node15 -->
<g id="edge22" class="edge">
<title>Node0&#45;&gt;Node15</title>
<path fill="none" stroke="#191970" d="M103.6392,-385.4179C121.7138,-376.6205 149.3503,-363.1691 170.0468,-353.0956"/>
<polygon fill="#191970" stroke="#191970" points="171.8324,-356.1191 179.2922,-348.5956 168.7689,-349.825 171.8324,-356.1191"/>
</g>
<!-- Node2 -->
<g id="node3" class="node">
<title>Node2</title>
<g id="a_node3"><a xlink:href="lattice_8h.html" target="_top" xlink:title=" ">
<polygon fill="#ffffff" stroke="#000000" points="180.2432,-220.5 180.2432,-238.5 255.7159,-238.5 255.7159,-220.5 180.2432,-220.5"/>
<text text-anchor="middle" x="217.9795" y="-226.5" font-family="Helvetica,sans-Serif" font-size="10.00" fill="#000000">math/lattice.h</text>
</a>
</g>
</g>
<!-- Node1&#45;&gt;Node2 -->
<g id="edge2" class="edge">
<title>Node1&#45;&gt;Node2</title>
<path fill="none" stroke="#191970" d="M106.9418,-275.4179C128.6967,-266.4215 162.221,-252.5581 186.7435,-242.4172"/>
<polygon fill="#191970" stroke="#191970" points="188.0812,-245.6515 195.9847,-238.5956 185.4061,-239.1828 188.0812,-245.6515"/>
</g>
<!-- Node3 -->
<g id="node4" class="node">
<title>Node3</title>
<g id="a_node4"><a xlink:title=" ">
<polygon fill="#ffffff" stroke="#bfbfbf" points="11.3638,-110.5 11.3638,-128.5 54.5953,-128.5 54.5953,-110.5 11.3638,-110.5"/>
<text text-anchor="middle" x="32.9795" y="-116.5" font-family="Helvetica,sans-Serif" font-size="10.00" fill="#000000">vector</text>
</a>
</g>
</g>
<!-- Node1&#45;&gt;Node3 -->
<g id="edge19" class="edge">
<title>Node1&#45;&gt;Node3</title>
<path fill="none" stroke="#191970" d="M73.5688,-275.4681C54.3889,-259.468 16.3736,-224.0334 1.9795,-184 -4.0205,-167.3124 6.3071,-149.1823 16.6204,-136.4059"/>
<polygon fill="#191970" stroke="#191970" points="19.2774,-138.6845 23.224,-128.8521 14.0072,-134.0773 19.2774,-138.6845"/>
</g>
<!-- Node2&#45;&gt;Node3 -->
<g id="edge3" class="edge">
<title>Node2&#45;&gt;Node3</title>
<path fill="none" stroke="#191970" d="M179.8342,-226.743C125.722,-221.9487 30.8974,-209.9883 9.9795,-184 -1.0272,-170.3252 8.3146,-150.9674 18.1933,-137.0317"/>
<polygon fill="#191970" stroke="#191970" points="21.2262,-138.8297 24.5541,-128.7711 15.6799,-134.559 21.2262,-138.8297"/>
</g>
<!-- Node4 -->
<g id="node5" class="node">
<title>Node4</title>
<g id="a_node5"><a xlink:title=" ">
<polygon fill="#ffffff" stroke="#bfbfbf" points="351.753,-110.5 351.753,-128.5 392.2061,-128.5 392.2061,-110.5 351.753,-110.5"/>
<text text-anchor="middle" x="371.9795" y="-116.5" font-family="Helvetica,sans-Serif" font-size="10.00" fill="#000000">mpi.h</text>
</a>
</g>
</g>
<!-- Node2&#45;&gt;Node4 -->
<g id="edge4" class="edge">
<title>Node2&#45;&gt;Node4</title>
<path fill="none" stroke="#191970" d="M235.5606,-220.3967C251.7345,-211.7567 276.1448,-198.0378 295.9795,-184 317.1948,-168.9851 339.6751,-149.3881 354.6343,-135.7532"/>
<polygon fill="#191970" stroke="#191970" points="357.1339,-138.2093 362.1154,-128.8586 352.39,-133.0619 357.1339,-138.2093"/>
</g>
<!-- Node5 -->
<g id="node6" class="node">
<title>Node5</title>
<g id="a_node6"><a xlink:href="index_8h.html" target="_top" xlink:title=" ">
<polygon fill="#ffffff" stroke="#000000" points="18.8936,-165.5 18.8936,-183.5 131.0655,-183.5 131.0655,-165.5 18.8936,-165.5"/>
<text text-anchor="middle" x="74.9795" y="-171.5" font-family="Helvetica,sans-Serif" font-size="10.00" fill="#000000">parallelization/index.h</text>
</a>
</g>
</g>
<!-- Node2&#45;&gt;Node5 -->
<g id="edge5" class="edge">
<title>Node2&#45;&gt;Node5</title>
<path fill="none" stroke="#191970" d="M194.366,-220.4179C170.8719,-211.3817 134.6113,-197.4353 108.2147,-187.2828"/>
<polygon fill="#191970" stroke="#191970" points="109.2181,-183.9188 98.6282,-183.5956 106.7052,-190.4522 109.2181,-183.9188"/>
</g>
<!-- Node6 -->
<g id="node7" class="node">
<title>Node6</title>
<g id="a_node7"><a xlink:href="neighbours_8h.html" target="_top" xlink:title=" ">
<polygon fill="#ffffff" stroke="#000000" points="149.1055,-165.5 149.1055,-183.5 286.8536,-183.5 286.8536,-165.5 149.1055,-165.5"/>
<text text-anchor="middle" x="217.9795" y="-171.5" font-family="Helvetica,sans-Serif" font-size="10.00" fill="#000000">parallelization/neighbours.h</text>
</a>
</g>
</g>
<!-- Node2&#45;&gt;Node6 -->
<g id="edge7" class="edge">
<title>Node2&#45;&gt;Node6</title>
<path fill="none" stroke="#191970" d="M217.9795,-220.4179C217.9795,-213.2164 217.9795,-202.8962 217.9795,-193.8632"/>
<polygon fill="#191970" stroke="#191970" points="221.4796,-193.7794 217.9795,-183.7795 214.4796,-193.7795 221.4796,-193.7794"/>
</g>
<!-- Node8 -->
<g id="node9" class="node">
<title>Node8</title>
<g id="a_node9"><a xlink:href="parallelparameters_8h.html" target="_top" xlink:title=" ">
<polygon fill="#ffffff" stroke="#000000" points="343.438,-165.5 343.438,-183.5 514.5211,-183.5 514.5211,-165.5 343.438,-165.5"/>
<text text-anchor="middle" x="428.9795" y="-171.5" font-family="Helvetica,sans-Serif" font-size="10.00" fill="#000000">parallelization/parallelparameters.h</text>
</a>
</g>
</g>
<!-- Node2&#45;&gt;Node8 -->
<g id="edge10" class="edge">
<title>Node2&#45;&gt;Node8</title>
<path fill="none" stroke="#191970" d="M252.8219,-220.4179C288.8938,-211.0152 345.3617,-196.2961 384.6044,-186.067"/>
<polygon fill="#191970" stroke="#191970" points="385.6423,-189.4135 394.4361,-183.5042 383.8766,-182.6398 385.6423,-189.4135"/>
</g>
<!-- Node9 -->
<g id="node10" class="node">
<title>Node9</title>
<g id="a_node10"><a xlink:href="functions_8h.html" target="_top" xlink:title=" ">
<polygon fill="#ffffff" stroke="#000000" points="532.7974,-165.5 532.7974,-183.5 597.1617,-183.5 597.1617,-165.5 532.7974,-165.5"/>
<text text-anchor="middle" x="564.9795" y="-171.5" font-family="Helvetica,sans-Serif" font-size="10.00" fill="#000000">functions.h</text>
</a>
</g>
</g>
<!-- Node2&#45;&gt;Node9 -->
<g id="edge12" class="edge">
<title>Node2&#45;&gt;Node9</title>
<path fill="none" stroke="#191970" d="M255.8301,-224.8635C311.9293,-217.7756 420.6462,-203.2136 522.2332,-184.2195"/>
<polygon fill="#191970" stroke="#191970" points="523.1792,-187.6028 532.3557,-182.3074 521.8798,-180.7244 523.1792,-187.6028"/>
</g>
<!-- Node5&#45;&gt;Node3 -->
<g id="edge6" class="edge">
<title>Node5&#45;&gt;Node3</title>
<path fill="none" stroke="#191970" d="M68.0441,-165.4179C62.1217,-157.6624 53.4374,-146.29 46.1931,-136.8035"/>
<polygon fill="#191970" stroke="#191970" points="48.9165,-134.6029 40.0657,-128.7795 43.3532,-138.8514 48.9165,-134.6029"/>
</g>
<!-- Node6&#45;&gt;Node3 -->
<g id="edge9" class="edge">
<title>Node6&#45;&gt;Node3</title>
<path fill="none" stroke="#191970" d="M187.4306,-165.4179C153.4834,-155.3255 98.9335,-139.1079 64.5713,-128.8921"/>
<polygon fill="#191970" stroke="#191970" points="65.1832,-125.4227 54.6004,-125.9278 63.1883,-132.1325 65.1832,-125.4227"/>
</g>
<!-- Node7 -->
<g id="node8" class="node">
<title>Node7</title>
<g id="a_node8"><a xlink:href="neighbourlist_8h.html" target="_top" xlink:title=" ">
<polygon fill="#ffffff" stroke="#000000" points="177.4576,-110.5 177.4576,-128.5 258.5015,-128.5 258.5015,-110.5 177.4576,-110.5"/>
<text text-anchor="middle" x="217.9795" y="-116.5" font-family="Helvetica,sans-Serif" font-size="10.00" fill="#000000">neighbourlist.h</text>
</a>
</g>
</g>
<!-- Node6&#45;&gt;Node7 -->
<g id="edge8" class="edge">
<title>Node6&#45;&gt;Node7</title>
<path fill="none" stroke="#191970" d="M217.9795,-165.4179C217.9795,-158.2164 217.9795,-147.8962 217.9795,-138.8632"/>
<polygon fill="#191970" stroke="#191970" points="221.4796,-138.7794 217.9795,-128.7795 214.4796,-138.7795 221.4796,-138.7794"/>
</g>
<!-- Node8&#45;&gt;Node4 -->
<g id="edge11" class="edge">
<title>Node8&#45;&gt;Node4</title>
<path fill="none" stroke="#191970" d="M419.5672,-165.4179C411.2836,-157.425 399.0186,-145.5903 389.015,-135.9377"/>
<polygon fill="#191970" stroke="#191970" points="391.223,-133.2045 381.5964,-128.7795 386.3624,-138.2419 391.223,-133.2045"/>
</g>
<!-- Node10 -->
<g id="node11" class="node">
<title>Node10</title>
<g id="a_node11"><a xlink:href="su3_8h.html" target="_top" xlink:title=" ">
<polygon fill="#ffffff" stroke="#000000" points="524.4673,-110.5 524.4673,-128.5 605.4918,-128.5 605.4918,-110.5 524.4673,-110.5"/>
<text text-anchor="middle" x="564.9795" y="-116.5" font-family="Helvetica,sans-Serif" font-size="10.00" fill="#000000">matrices/su3.h</text>
</a>
</g>
</g>
<!-- Node9&#45;&gt;Node10 -->
<g id="edge13" class="edge">
<title>Node9&#45;&gt;Node10</title>
<path fill="none" stroke="#191970" d="M564.9795,-165.4179C564.9795,-158.2164 564.9795,-147.8962 564.9795,-138.8632"/>
<polygon fill="#191970" stroke="#191970" points="568.4796,-138.7794 564.9795,-128.7795 561.4796,-138.7795 568.4796,-138.7794"/>
</g>
<!-- Node11 -->
<g id="node12" class="node">
<title>Node11</title>
<g id="a_node12"><a xlink:href="complex_8h.html" target="_top" xlink:title=" ">
<polygon fill="#ffffff" stroke="#000000" points="521.6866,-55.5 521.6866,-73.5 608.2725,-73.5 608.2725,-55.5 521.6866,-55.5"/>
<text text-anchor="middle" x="564.9795" y="-61.5" font-family="Helvetica,sans-Serif" font-size="10.00" fill="#000000">math/complex.h</text>
</a>
</g>
</g>
<!-- Node9&#45;&gt;Node11 -->
<g id="edge18" class="edge">
<title>Node9&#45;&gt;Node11</title>
<path fill="none" stroke="#191970" d="M549.1798,-165.4232C531.0841,-153.7435 505.1262,-132.2889 514.9795,-110 520.3924,-97.7558 530.9078,-87.3899 540.9042,-79.6592"/>
<polygon fill="#191970" stroke="#191970" points="542.9773,-82.4796 549.0558,-73.8019 538.8925,-76.7949 542.9773,-82.4796"/>
</g>
<!-- Node13 -->
<g id="node14" class="node">
<title>Node13</title>
<g id="a_node14"><a xlink:href="su2_8h.html" target="_top" xlink:title=" ">
<polygon fill="#ffffff" stroke="#000000" points="623.4673,-110.5 623.4673,-128.5 704.4918,-128.5 704.4918,-110.5 623.4673,-110.5"/>
<text text-anchor="middle" x="663.9795" y="-116.5" font-family="Helvetica,sans-Serif" font-size="10.00" fill="#000000">matrices/su2.h</text>
</a>
</g>
</g>
<!-- Node9&#45;&gt;Node13 -->
<g id="edge16" class="edge">
<title>Node9&#45;&gt;Node13</title>
<path fill="none" stroke="#191970" d="M581.3274,-165.4179C596.9477,-156.7399 620.7194,-143.5334 638.7657,-133.5077"/>
<polygon fill="#191970" stroke="#191970" points="640.5656,-136.5117 647.6074,-128.5956 637.1661,-130.3925 640.5656,-136.5117"/>
</g>
<!-- Node10&#45;&gt;Node11 -->
<g id="edge14" class="edge">
<title>Node10&#45;&gt;Node11</title>
<path fill="none" stroke="#191970" d="M564.9795,-110.4179C564.9795,-103.2164 564.9795,-92.8962 564.9795,-83.8632"/>
<polygon fill="#191970" stroke="#191970" points="568.4796,-83.7794 564.9795,-73.7795 561.4796,-83.7795 568.4796,-83.7794"/>
</g>
<!-- Node12 -->
<g id="node13" class="node">
<title>Node12</title>
<g id="a_node13"><a xlink:title=" ">
<polygon fill="#ffffff" stroke="#bfbfbf" points="537.8072,-.5 537.8072,-18.5 592.1519,-18.5 592.1519,-.5 537.8072,-.5"/>
<text text-anchor="middle" x="564.9795" y="-6.5" font-family="Helvetica,sans-Serif" font-size="10.00" fill="#000000">iostream</text>
</a>
</g>
</g>
<!-- Node11&#45;&gt;Node12 -->
<g id="edge15" class="edge">
<title>Node11&#45;&gt;Node12</title>
<path fill="none" stroke="#191970" d="M564.9795,-55.4179C564.9795,-48.2164 564.9795,-37.8962 564.9795,-28.8632"/>
<polygon fill="#191970" stroke="#191970" points="568.4796,-28.7794 564.9795,-18.7795 561.4796,-28.7795 568.4796,-28.7794"/>
</g>
<!-- Node13&#45;&gt;Node11 -->
<g id="edge17" class="edge">
<title>Node13&#45;&gt;Node11</title>
<path fill="none" stroke="#191970" d="M647.6317,-110.4179C632.0114,-101.7399 608.2397,-88.5334 590.1934,-78.5077"/>
<polygon fill="#191970" stroke="#191970" points="591.793,-75.3925 581.3517,-73.5956 588.3935,-81.5117 591.793,-75.3925"/>
</g>
<!-- Node14&#45;&gt;Node1 -->
<g id="edge21" class="edge">
<title>Node14&#45;&gt;Node1</title>
<path fill="none" stroke="#191970" d="M84.9795,-330.4179C84.9795,-323.2164 84.9795,-312.8962 84.9795,-303.8632"/>
<polygon fill="#191970" stroke="#191970" points="88.4796,-303.7794 84.9795,-293.7795 81.4796,-303.7795 88.4796,-303.7794"/>
</g>
<!-- Node15&#45;&gt;Node1 -->
<g id="edge23" class="edge">
<title>Node15&#45;&gt;Node1</title>
<path fill="none" stroke="#191970" d="M179.3199,-330.4179C161.2453,-321.6205 133.6088,-308.1691 112.9123,-298.0956"/>
<polygon fill="#191970" stroke="#191970" points="114.1902,-294.825 103.6669,-293.5956 111.1267,-301.1191 114.1902,-294.825"/>
</g>
</g>
</svg>
