<?xml version="1.0" encoding="UTF-8" standalone="no"?>
<!DOCTYPE svg PUBLIC "-//W3C//DTD SVG 1.1//EN"
 "http://www.w3.org/Graphics/SVG/1.1/DTD/svg11.dtd">
<!-- Generated by graphviz version 2.40.1 (20161225.0304)
 -->
<!-- Title: MasterSamplerTopcXYZ::initializeObservableStorer Pages: 1 -->
<svg width="371pt" height="232pt"
 viewBox="0.00 0.00 370.58 232.00" xmlns="http://www.w3.org/2000/svg" xmlns:xlink="http://www.w3.org/1999/xlink">
<g id="graph0" class="graph" transform="scale(1 1) rotate(0) translate(4 228)">
<title>MasterSamplerTopcXYZ::initializeObservableStorer</title>
<polygon fill="#ffffff" stroke="transparent" points="-4,4 -4,-228 366.5752,-228 366.5752,4 -4,4"/>
<!-- Node34 -->
<g id="node1" class="node">
<title>Node34</title>
<g id="a_node1"><a xlink:title="Correlator::initializeObservableStorer initializes ObservableStorer.">
<polygon fill="#bfbfbf" stroke="#000000" points="0,-97.5 0,-125.5 135.4971,-125.5 135.4971,-97.5 0,-97.5"/>
<text text-anchor="start" x="8" y="-113.5" font-family="Helvetica,sans-Serif" font-size="10.00" fill="#000000">MasterSamplerTopcXYZ</text>
<text text-anchor="middle" x="67.7485" y="-103.5" font-family="Helvetica,sans-Serif" font-size="10.00" fill="#000000">::initializeObservableStorer</text>
</a>
</g>
</g>
<!-- Node35 -->
<g id="node2" class="node">
<title>Node35</title>
<g id="a_node2"><a xlink:href="class_parameters.html#aae314edb18d426571ab7b6df60da70aa" target="_top" xlink:title=" ">
<polygon fill="#ffffff" stroke="#000000" points="206.7974,-205.5 206.7974,-223.5 327.2749,-223.5 327.2749,-205.5 206.7974,-205.5"/>
<text text-anchor="middle" x="267.0361" y="-211.5" font-family="Helvetica,sans-Serif" font-size="10.00" fill="#000000">Parameters::getNFlows</text>
</a>
</g>
</g>
<!-- Node34&#45;&gt;Node35 -->
<g id="edge1" class="edge">
<title>Node34&#45;&gt;Node35</title>
<path fill="none" stroke="#191970" d="M80.6191,-125.8119C98.8467,-145.1168 134.1435,-179.0829 171.4971,-196.5 179.4439,-200.2054 188.0997,-203.1482 196.8495,-205.4853"/>
<polygon fill="#191970" stroke="#191970" points="196.193,-208.9273 206.7354,-207.8749 197.8377,-202.1233 196.193,-208.9273"/>
</g>
<!-- Node36 -->
<g id="node3" class="node">
<title>Node36</title>
<g id="a_node3"><a xlink:href="class_parameters.html#a216f85b3c5980a33f8a54c42fb3575c7" target="_top" xlink:title=" ">
<polygon fill="#ffffff" stroke="#000000" points="178.7236,-158.5 178.7236,-186.5 355.3486,-186.5 355.3486,-158.5 178.7236,-158.5"/>
<text text-anchor="start" x="186.7236" y="-174.5" font-family="Helvetica,sans-Serif" font-size="10.00" fill="#000000">Parameters::getStoreThermalization</text>
<text text-anchor="middle" x="267.0361" y="-164.5" font-family="Helvetica,sans-Serif" font-size="10.00" fill="#000000">Observables</text>
</a>
</g>
</g>
<!-- Node34&#45;&gt;Node36 -->
<g id="edge2" class="edge">
<title>Node34&#45;&gt;Node36</title>
<path fill="none" stroke="#191970" d="M102.941,-125.5328C122.868,-133.189 148.3624,-142.5038 171.4971,-149.5 178.903,-151.7397 186.6834,-153.9076 194.473,-155.959"/>
<polygon fill="#191970" stroke="#191970" points="193.7607,-159.3896 204.3174,-158.4917 195.5048,-152.6104 193.7607,-159.3896"/>
</g>
<!-- Node37 -->
<g id="node4" class="node">
<title>Node37</title>
<g id="a_node4"><a xlink:href="class_parameters.html#a03f8c0aa2a31b9bfc016441cb263082c" target="_top" xlink:title=" ">
<polygon fill="#ffffff" stroke="#000000" points="214.854,-121.5 214.854,-139.5 319.2183,-139.5 319.2183,-121.5 214.854,-121.5"/>
<text text-anchor="middle" x="267.0361" y="-127.5" font-family="Helvetica,sans-Serif" font-size="10.00" fill="#000000">Parameters::getNCf</text>
</a>
</g>
</g>
<!-- Node34&#45;&gt;Node37 -->
<g id="edge3" class="edge">
<title>Node34&#45;&gt;Node37</title>
<path fill="none" stroke="#191970" d="M135.7746,-117.9856C158.0659,-120.1108 182.7124,-122.4606 204.5719,-124.5447"/>
<polygon fill="#191970" stroke="#191970" points="204.4405,-128.0479 214.7276,-125.5129 205.1049,-121.0795 204.4405,-128.0479"/>
</g>
<!-- Node38 -->
<g id="node5" class="node">
<title>Node38</title>
<g id="a_node5"><a xlink:href="class_parameters.html#ad1f56cc1bb6c19f40454b30a5bc82da6" target="_top" xlink:title=" ">
<polygon fill="#ffffff" stroke="#000000" points="205.4082,-84.5 205.4082,-102.5 328.6641,-102.5 328.6641,-84.5 205.4082,-84.5"/>
<text text-anchor="middle" x="267.0361" y="-90.5" font-family="Helvetica,sans-Serif" font-size="10.00" fill="#000000">Parameters::getNTherm</text>
</a>
</g>
</g>
<!-- Node34&#45;&gt;Node38 -->
<g id="edge4" class="edge">
<title>Node34&#45;&gt;Node38</title>
<path fill="none" stroke="#191970" d="M135.7746,-105.3558C154.9787,-103.6212 175.9308,-101.7288 195.343,-99.9754"/>
<polygon fill="#191970" stroke="#191970" points="195.692,-103.4583 205.3366,-99.0728 195.0622,-96.4866 195.692,-103.4583"/>
</g>
<!-- Node39 -->
<g id="node6" class="node">
<title>Node39</title>
<g id="a_node6"><a xlink:href="class_observable_storer.html#a6177ade7609fb0e4b739955eecba20e6" target="_top" xlink:title=" ">
<polygon fill="#ffffff" stroke="#000000" points="187.8984,-37.5 187.8984,-65.5 346.1738,-65.5 346.1738,-37.5 187.8984,-37.5"/>
<text text-anchor="start" x="195.8984" y="-53.5" font-family="Helvetica,sans-Serif" font-size="10.00" fill="#000000">ObservableStorer::setNormalize</text>
<text text-anchor="middle" x="267.0361" y="-43.5" font-family="Helvetica,sans-Serif" font-size="10.00" fill="#000000">ObservableByProcessor</text>
</a>
</g>
</g>
<!-- Node34&#45;&gt;Node39 -->
<g id="edge5" class="edge">
<title>Node34&#45;&gt;Node39</title>
<path fill="none" stroke="#191970" d="M105.918,-97.3548C125.4077,-90.3625 149.5742,-82.0433 171.4971,-75.5 179.9508,-72.9768 188.8769,-70.496 197.7418,-68.1429"/>
<polygon fill="#191970" stroke="#191970" points="198.904,-71.4569 207.6961,-65.545 197.1363,-64.6837 198.904,-71.4569"/>
</g>
<!-- Node40 -->
<g id="node7" class="node">
<title>Node40</title>
<g id="a_node7"><a xlink:href="class_observable_storer.html#a7f4847c4fdbf8764d8f07950c4d4b62a" target="_top" xlink:title=" ">
<polygon fill="#ffffff" stroke="#000000" points="171.4971,-.5 171.4971,-18.5 362.5752,-18.5 362.5752,-.5 171.4971,-.5"/>
<text text-anchor="middle" x="267.0361" y="-6.5" font-family="Helvetica,sans-Serif" font-size="10.00" fill="#000000">ObservableStorer::setObservableName</text>
</a>
</g>
</g>
<!-- Node34&#45;&gt;Node40 -->
<g id="edge6" class="edge">
<title>Node34&#45;&gt;Node40</title>
<path fill="none" stroke="#191970" d="M81.0279,-97.2674C99.4551,-78.4352 134.6897,-45.6276 171.4971,-28.5 177.5236,-25.6957 183.9516,-23.3046 190.5159,-21.266"/>
<polygon fill="#191970" stroke="#191970" points="191.5315,-24.6161 200.1998,-18.5243 189.6245,-17.8808 191.5315,-24.6161"/>
</g>
</g>
</svg>
