<?xml version="1.0" encoding="UTF-8" standalone="no"?>
<!DOCTYPE svg PUBLIC "-//W3C//DTD SVG 1.1//EN"
 "http://www.w3.org/Graphics/SVG/1.1/DTD/svg11.dtd">
<!-- Generated by graphviz version 2.40.1 (20161225.0304)
 -->
<!-- Title: nlohmann::basic_json::is_array Pages: 1 -->
<svg width="432pt" height="395pt"
 viewBox="0.00 0.00 432.08 395.00" xmlns="http://www.w3.org/2000/svg" xmlns:xlink="http://www.w3.org/1999/xlink">
<g id="graph0" class="graph" transform="scale(1 1) rotate(0) translate(4 391)">
<title>nlohmann::basic_json::is_array</title>
<polygon fill="#ffffff" stroke="transparent" points="-4,4 -4,-391 428.082,-391 428.082,4 -4,4"/>
<!-- Node236 -->
<g id="node1" class="node">
<title>Node236</title>
<g id="a_node1"><a xlink:title="return whether value is an array">
<polygon fill="#bfbfbf" stroke="#000000" points="311.3535,-188.5 311.3535,-216.5 424.082,-216.5 424.082,-188.5 311.3535,-188.5"/>
<text text-anchor="start" x="319.3535" y="-204.5" font-family="Helvetica,sans-Serif" font-size="10.00" fill="#000000">nlohmann::basic_json</text>
<text text-anchor="middle" x="367.7178" y="-194.5" font-family="Helvetica,sans-Serif" font-size="10.00" fill="#000000">::is_array</text>
</a>
</g>
</g>
<!-- Node237 -->
<g id="node2" class="node">
<title>Node237</title>
<g id="a_node2"><a xlink:href="classnlohmann_1_1basic__json.html#a9f68a0af820c3ced7f9d17851ce4c22d" target="_top" xlink:title="return whether type is structured">
<polygon fill="#ffffff" stroke="#000000" points="155.6768,-358.5 155.6768,-386.5 268.4053,-386.5 268.4053,-358.5 155.6768,-358.5"/>
<text text-anchor="start" x="163.6768" y="-374.5" font-family="Helvetica,sans-Serif" font-size="10.00" fill="#000000">nlohmann::basic_json</text>
<text text-anchor="middle" x="212.041" y="-364.5" font-family="Helvetica,sans-Serif" font-size="10.00" fill="#000000">::is_structured</text>
</a>
</g>
</g>
<!-- Node236&#45;&gt;Node237 -->
<g id="edge1" class="edge">
<title>Node236&#45;&gt;Node237</title>
<path fill="none" stroke="#191970" d="M358.5862,-226.3603C345.0831,-258.6375 316.8321,-316.0174 275.3535,-349.5 271.0766,-352.9524 266.2361,-355.9124 261.1831,-358.4444"/>
<polygon fill="#191970" stroke="#191970" points="361.9383,-227.4073 362.4502,-216.8248 355.4507,-224.7783 361.9383,-227.4073"/>
</g>
<!-- Node238 -->
<g id="node3" class="node">
<title>Node238</title>
<g id="a_node3"><a xlink:href="classnlohmann_1_1basic__json.html#a73ae333487310e3302135189ce8ff5d8" target="_top" xlink:title="access specified array element with bounds checking">
<polygon fill="#ffffff" stroke="#000000" points="148.7285,-321.5 148.7285,-339.5 275.3535,-339.5 275.3535,-321.5 148.7285,-321.5"/>
<text text-anchor="middle" x="212.041" y="-327.5" font-family="Helvetica,sans-Serif" font-size="10.00" fill="#000000">nlohmann::basic_json::at</text>
</a>
</g>
</g>
<!-- Node236&#45;&gt;Node238 -->
<g id="edge2" class="edge">
<title>Node236&#45;&gt;Node238</title>
<path fill="none" stroke="#191970" d="M352.8844,-224.7927C336.4013,-248.0385 307.7941,-284.141 275.3535,-306.5 266.1587,-312.8374 255.0693,-317.7763 244.7578,-321.4819"/>
<polygon fill="#191970" stroke="#191970" points="355.7657,-226.7798 358.5908,-216.5685 350.0145,-222.7893 355.7657,-226.7798"/>
</g>
<!-- Node239 -->
<g id="node4" class="node">
<title>Node239</title>
<g id="a_node4"><a xlink:href="classnlohmann_1_1basic__json.html#a81e0c41a4a9dff4df2f6973f7f8b2a83" target="_top" xlink:title="applies a JSON patch">
<polygon fill="#ffffff" stroke="#000000" points="0,-323.5 0,-351.5 112.7285,-351.5 112.7285,-323.5 0,-323.5"/>
<text text-anchor="start" x="8" y="-339.5" font-family="Helvetica,sans-Serif" font-size="10.00" fill="#000000">nlohmann::basic_json</text>
<text text-anchor="middle" x="56.3643" y="-329.5" font-family="Helvetica,sans-Serif" font-size="10.00" fill="#000000">::patch</text>
</a>
</g>
</g>
<!-- Node236&#45;&gt;Node239 -->
<g id="edge18" class="edge">
<title>Node236&#45;&gt;Node239</title>
<path fill="none" stroke="#191970" d="M345.3642,-223.539C327.5969,-239.2597 301.4703,-260.2386 275.3535,-273.5 260.2775,-281.1552 167.889,-307.0707 108.0287,-323.4819"/>
<polygon fill="#191970" stroke="#191970" points="347.8285,-226.0296 352.9093,-216.7325 343.1397,-220.832 347.8285,-226.0296"/>
</g>
<!-- Node240 -->
<g id="node5" class="node">
<title>Node240</title>
<g id="a_node5"><a xlink:href="classnlohmann_1_1basic__json.html#ac871e3b03fb2eeca9a8de4db2bea760f" target="_top" xlink:title="access specified array element">
<polygon fill="#ffffff" stroke="#000000" points="155.6768,-141.5 155.6768,-169.5 268.4053,-169.5 268.4053,-141.5 155.6768,-141.5"/>
<text text-anchor="start" x="163.6768" y="-157.5" font-family="Helvetica,sans-Serif" font-size="10.00" fill="#000000">nlohmann::basic_json</text>
<text text-anchor="middle" x="212.041" y="-147.5" font-family="Helvetica,sans-Serif" font-size="10.00" fill="#000000">::operator[]</text>
</a>
</g>
</g>
<!-- Node236&#45;&gt;Node240 -->
<g id="edge4" class="edge">
<title>Node236&#45;&gt;Node240</title>
<path fill="none" stroke="#191970" d="M311.0366,-185.3875C293.7543,-180.1699 274.9661,-174.4976 258.4478,-169.5106"/>
<polygon fill="#191970" stroke="#191970" points="310.4248,-188.8588 321.0096,-188.3985 312.448,-182.1575 310.4248,-188.8588"/>
</g>
<!-- Node242 -->
<g id="node7" class="node">
<title>Node242</title>
<g id="a_node7"><a xlink:href="classnlohmann_1_1basic__json.html#a88cbcefe9a3f4d294bed0653550a5cb9" target="_top" xlink:title="remove element from a JSON array given an index">
<polygon fill="#ffffff" stroke="#000000" points="155.6768,-94.5 155.6768,-122.5 268.4053,-122.5 268.4053,-94.5 155.6768,-94.5"/>
<text text-anchor="start" x="163.6768" y="-110.5" font-family="Helvetica,sans-Serif" font-size="10.00" fill="#000000">nlohmann::basic_json</text>
<text text-anchor="middle" x="212.041" y="-100.5" font-family="Helvetica,sans-Serif" font-size="10.00" fill="#000000">::erase</text>
</a>
</g>
</g>
<!-- Node236&#45;&gt;Node242 -->
<g id="edge6" class="edge">
<title>Node236&#45;&gt;Node242</title>
<path fill="none" stroke="#191970" d="M344.7937,-181.6524C326.9024,-166.2118 300.878,-145.5074 275.3535,-131.5 269.3047,-128.1805 262.6811,-125.1694 256.069,-122.5009"/>
<polygon fill="#191970" stroke="#191970" points="342.5848,-184.3706 352.4106,-188.3334 347.2006,-179.108 342.5848,-184.3706"/>
</g>
<!-- Node243 -->
<g id="node8" class="node">
<title>Node243</title>
<g id="a_node8"><a xlink:href="classnlohmann_1_1basic__json.html#ac8e523ddc8c2dd7e5d2daf0d49a9c0d7" target="_top" xlink:title="add an object to an array">
<polygon fill="#ffffff" stroke="#000000" points="155.6768,-235.5 155.6768,-263.5 268.4053,-263.5 268.4053,-235.5 155.6768,-235.5"/>
<text text-anchor="start" x="163.6768" y="-251.5" font-family="Helvetica,sans-Serif" font-size="10.00" fill="#000000">nlohmann::basic_json</text>
<text text-anchor="middle" x="212.041" y="-241.5" font-family="Helvetica,sans-Serif" font-size="10.00" fill="#000000">::push_back</text>
</a>
</g>
</g>
<!-- Node236&#45;&gt;Node243 -->
<g id="edge7" class="edge">
<title>Node236&#45;&gt;Node243</title>
<path fill="none" stroke="#191970" d="M311.0366,-219.6125C293.7543,-224.8301 274.9661,-230.5024 258.4478,-235.4894"/>
<polygon fill="#191970" stroke="#191970" points="312.448,-222.8425 321.0096,-216.6015 310.4248,-216.1412 312.448,-222.8425"/>
</g>
<!-- Node247 -->
<g id="node12" class="node">
<title>Node247</title>
<g id="a_node12"><a xlink:href="classnlohmann_1_1basic__json.html#aacf5eed15a8b66fb1e88910707a5e229" target="_top" xlink:title="add an object to an array">
<polygon fill="#ffffff" stroke="#000000" points="155.6768,-47.5 155.6768,-75.5 268.4053,-75.5 268.4053,-47.5 155.6768,-47.5"/>
<text text-anchor="start" x="163.6768" y="-63.5" font-family="Helvetica,sans-Serif" font-size="10.00" fill="#000000">nlohmann::basic_json</text>
<text text-anchor="middle" x="212.041" y="-53.5" font-family="Helvetica,sans-Serif" font-size="10.00" fill="#000000">::emplace_back</text>
</a>
</g>
</g>
<!-- Node236&#45;&gt;Node247 -->
<g id="edge12" class="edge">
<title>Node236&#45;&gt;Node247</title>
<path fill="none" stroke="#191970" d="M355.1114,-179.5078C339.5665,-153.129 310.8013,-110.2132 275.3535,-84.5 270.6204,-81.0666 265.3209,-78.0971 259.8569,-75.5411"/>
<polygon fill="#191970" stroke="#191970" points="352.2123,-181.4877 360.2282,-188.4156 358.2821,-178.001 352.2123,-181.4877"/>
</g>
<!-- Node248 -->
<g id="node13" class="node">
<title>Node248</title>
<g id="a_node13"><a xlink:href="classnlohmann_1_1basic__json.html#a0136728f5db69d4051c77b94307abd6c" target="_top" xlink:title="inserts element">
<polygon fill="#ffffff" stroke="#000000" points="155.6768,-188.5 155.6768,-216.5 268.4053,-216.5 268.4053,-188.5 155.6768,-188.5"/>
<text text-anchor="start" x="163.6768" y="-204.5" font-family="Helvetica,sans-Serif" font-size="10.00" fill="#000000">nlohmann::basic_json</text>
<text text-anchor="middle" x="212.041" y="-194.5" font-family="Helvetica,sans-Serif" font-size="10.00" fill="#000000">::insert</text>
</a>
</g>
</g>
<!-- Node236&#45;&gt;Node248 -->
<g id="edge13" class="edge">
<title>Node236&#45;&gt;Node248</title>
<path fill="none" stroke="#191970" d="M300.8888,-202.5C290.1451,-202.5 279.1159,-202.5 268.6421,-202.5"/>
<polygon fill="#191970" stroke="#191970" points="301.0745,-206.0001 311.0745,-202.5 301.0745,-199.0001 301.0745,-206.0001"/>
</g>
<!-- Node250 -->
<g id="node15" class="node">
<title>Node250</title>
<g id="a_node15"><a xlink:href="classnlohmann_1_1basic__json.html#a65b0a24e1361a030ad0a661de22f6c8e" target="_top" xlink:title="exchanges the values">
<polygon fill="#ffffff" stroke="#000000" points="155.6768,-.5 155.6768,-28.5 268.4053,-28.5 268.4053,-.5 155.6768,-.5"/>
<text text-anchor="start" x="163.6768" y="-16.5" font-family="Helvetica,sans-Serif" font-size="10.00" fill="#000000">nlohmann::basic_json</text>
<text text-anchor="middle" x="212.041" y="-6.5" font-family="Helvetica,sans-Serif" font-size="10.00" fill="#000000">::swap</text>
</a>
</g>
</g>
<!-- Node236&#45;&gt;Node250 -->
<g id="edge17" class="edge">
<title>Node236&#45;&gt;Node250</title>
<path fill="none" stroke="#191970" d="M360.4447,-178.8277C348.3663,-143.2895 320.887,-76.201 275.3535,-37.5 271.2546,-34.0161 266.5844,-31.0416 261.6808,-28.5059"/>
<polygon fill="#191970" stroke="#191970" points="357.1325,-179.96 363.5739,-188.3719 363.7842,-177.7791 357.1325,-179.96"/>
</g>
<!-- Node238&#45;&gt;Node239 -->
<g id="edge3" class="edge">
<title>Node238&#45;&gt;Node239</title>
<path fill="none" stroke="#191970" d="M138.6936,-333.7981C130.1013,-334.1844 121.4358,-334.5741 113.1177,-334.9481"/>
<polygon fill="#191970" stroke="#191970" points="138.8887,-337.2929 148.7213,-333.3472 138.5742,-330.3 138.8887,-337.2929"/>
</g>
<!-- Node241 -->
<g id="node6" class="node">
<title>Node241</title>
<g id="a_node6"><a xlink:href="classnlohmann_1_1basic__json.html#a1416bbec9d9a8eeca21c213cf5290868" target="_top" xlink:title="access specified object element">
<polygon fill="#ffffff" stroke="#000000" points="0,-88.5 0,-116.5 112.7285,-116.5 112.7285,-88.5 0,-88.5"/>
<text text-anchor="start" x="8" y="-104.5" font-family="Helvetica,sans-Serif" font-size="10.00" fill="#000000">nlohmann::basic_json</text>
<text text-anchor="middle" x="56.3643" y="-94.5" font-family="Helvetica,sans-Serif" font-size="10.00" fill="#000000">::operator[]</text>
</a>
</g>
</g>
<!-- Node240&#45;&gt;Node241 -->
<g id="edge5" class="edge">
<title>Node240&#45;&gt;Node241</title>
<path fill="none" stroke="#191970" d="M161.1868,-138.1867C140.5848,-131.1728 117.1047,-123.179 97.5968,-116.5376"/>
<polygon fill="#191970" stroke="#191970" points="160.1368,-141.5265 170.7312,-141.4361 162.3928,-134.9 160.1368,-141.5265"/>
</g>
<!-- Node243&#45;&gt;Node239 -->
<g id="edge10" class="edge">
<title>Node243&#45;&gt;Node239</title>
<path fill="none" stroke="#191970" d="M165.9416,-268.2454C159.9642,-271.3528 154.0705,-274.7865 148.7285,-278.5 130.1491,-291.4154 131.5755,-301.9784 112.7285,-314.5 107.7108,-317.8337 102.1332,-320.8231 96.4938,-323.4562"/>
<polygon fill="#191970" stroke="#191970" points="167.8995,-271.1835 175.3364,-263.6375 164.8169,-264.8988 167.8995,-271.1835"/>
</g>
<!-- Node244 -->
<g id="node9" class="node">
<title>Node244</title>
<g id="a_node9"><a xlink:href="classnlohmann_1_1basic__json.html#aea1085f2d35cc0e1ce119cf0110119e6" target="_top" xlink:title="add an object to an array">
<polygon fill="#ffffff" stroke="#000000" points="0,-276.5 0,-304.5 112.7285,-304.5 112.7285,-276.5 0,-276.5"/>
<text text-anchor="start" x="8" y="-292.5" font-family="Helvetica,sans-Serif" font-size="10.00" fill="#000000">nlohmann::basic_json</text>
<text text-anchor="middle" x="56.3643" y="-282.5" font-family="Helvetica,sans-Serif" font-size="10.00" fill="#000000">::operator+=</text>
</a>
</g>
</g>
<!-- Node243&#45;&gt;Node244 -->
<g id="edge8" class="edge">
<title>Node243&#45;&gt;Node244</title>
<path fill="none" stroke="#191970" d="M148.7148,-266.178C135.79,-269.5819 122.3117,-273.1317 109.7743,-276.4336"/>
<polygon fill="#191970" stroke="#191970" points="149.6871,-269.5414 158.4659,-263.6099 147.9042,-262.7722 149.6871,-269.5414"/>
</g>
<!-- Node245 -->
<g id="node10" class="node">
<title>Node245</title>
<g id="a_node10"><a xlink:href="classnlohmann_1_1basic__json.html#ab2716cbe2e997ab8309926b87f044434" target="_top" xlink:title="add an object to an object">
<polygon fill="#ffffff" stroke="#000000" points="0,-229.5 0,-257.5 112.7285,-257.5 112.7285,-229.5 0,-229.5"/>
<text text-anchor="start" x="8" y="-245.5" font-family="Helvetica,sans-Serif" font-size="10.00" fill="#000000">nlohmann::basic_json</text>
<text text-anchor="middle" x="56.3643" y="-235.5" font-family="Helvetica,sans-Serif" font-size="10.00" fill="#000000">::push_back</text>
</a>
</g>
</g>
<!-- Node243&#45;&gt;Node245 -->
<g id="edge9" class="edge">
<title>Node243&#45;&gt;Node245</title>
<path fill="none" stroke="#191970" d="M145.2121,-246.9243C134.4684,-246.5102 123.4391,-246.0852 112.9653,-245.6815"/>
<polygon fill="#191970" stroke="#191970" points="145.2703,-250.4291 155.3978,-247.3169 145.54,-243.4343 145.2703,-250.4291"/>
</g>
<!-- Node246 -->
<g id="node11" class="node">
<title>Node246</title>
<g id="a_node11"><a xlink:href="classnlohmann_1_1basic__json.html#a543bd5f7490de54c875b2c0912dc9a49" target="_top" xlink:title="creates a diff as a JSON patch">
<polygon fill="#ffffff" stroke="#000000" points="0,-182.5 0,-210.5 112.7285,-210.5 112.7285,-182.5 0,-182.5"/>
<text text-anchor="start" x="8" y="-198.5" font-family="Helvetica,sans-Serif" font-size="10.00" fill="#000000">nlohmann::basic_json</text>
<text text-anchor="middle" x="56.3643" y="-188.5" font-family="Helvetica,sans-Serif" font-size="10.00" fill="#000000">::diff</text>
</a>
</g>
</g>
<!-- Node243&#45;&gt;Node246 -->
<g id="edge11" class="edge">
<title>Node243&#45;&gt;Node246</title>
<path fill="none" stroke="#191970" d="M161.1868,-232.1867C140.5848,-225.1728 117.1047,-217.179 97.5968,-210.5376"/>
<polygon fill="#191970" stroke="#191970" points="160.1368,-235.5265 170.7312,-235.4361 162.3928,-228.9 160.1368,-235.5265"/>
</g>
<!-- Node248&#45;&gt;Node239 -->
<g id="edge15" class="edge">
<title>Node248&#45;&gt;Node239</title>
<path fill="none" stroke="#191970" d="M153.8627,-222.0952C152.056,-223.4675 150.3361,-224.9337 148.7285,-226.5 118.4624,-255.9897 142.6221,-284.6328 112.7285,-314.5 109.2893,-317.9362 105.2662,-320.8801 100.98,-323.3977"/>
<polygon fill="#191970" stroke="#191970" points="155.7661,-225.0325 162.2595,-216.6607 151.9626,-219.1559 155.7661,-225.0325"/>
</g>
<!-- Node248&#45;&gt;Node246 -->
<g id="edge16" class="edge">
<title>Node248&#45;&gt;Node246</title>
<path fill="none" stroke="#191970" d="M145.2121,-199.9243C134.4684,-199.5102 123.4391,-199.0852 112.9653,-198.6815"/>
<polygon fill="#191970" stroke="#191970" points="145.2703,-203.4291 155.3978,-200.3169 145.54,-196.4343 145.2703,-203.4291"/>
</g>
<!-- Node249 -->
<g id="node14" class="node">
<title>Node249</title>
<g id="a_node14"><a xlink:href="classnlohmann_1_1basic__json.html#a1ecce113ff11dd294689ee4d45cbb855" target="_top" xlink:title="inserts element">
<polygon fill="#ffffff" stroke="#000000" points="0,-135.5 0,-163.5 112.7285,-163.5 112.7285,-135.5 0,-135.5"/>
<text text-anchor="start" x="8" y="-151.5" font-family="Helvetica,sans-Serif" font-size="10.00" fill="#000000">nlohmann::basic_json</text>
<text text-anchor="middle" x="56.3643" y="-141.5" font-family="Helvetica,sans-Serif" font-size="10.00" fill="#000000">::insert</text>
</a>
</g>
</g>
<!-- Node248&#45;&gt;Node249 -->
<g id="edge14" class="edge">
<title>Node248&#45;&gt;Node249</title>
<path fill="none" stroke="#191970" d="M161.1868,-185.1867C140.5848,-178.1728 117.1047,-170.179 97.5968,-163.5376"/>
<polygon fill="#191970" stroke="#191970" points="160.1368,-188.5265 170.7312,-188.4361 162.3928,-181.9 160.1368,-188.5265"/>
</g>
</g>
</svg>
