<?xml version="1.0" encoding="UTF-8" standalone="no"?>
<!DOCTYPE svg PUBLIC "-//W3C//DTD SVG 1.1//EN"
 "http://www.w3.org/Graphics/SVG/1.1/DTD/svg11.dtd">
<!-- Generated by graphviz version 2.40.1 (20161225.0304)
 -->
<!-- Title: complex::operator *= Pages: 1 -->
<svg width="222pt" height="64pt"
 viewBox="0.00 0.00 221.89 64.00" xmlns="http://www.w3.org/2000/svg" xmlns:xlink="http://www.w3.org/1999/xlink">
<g id="graph0" class="graph" transform="scale(1 1) rotate(0) translate(4 60)">
<title>complex::operator *=</title>
<polygon fill="#ffffff" stroke="transparent" points="-4,4 -4,-60 217.8936,-60 217.8936,4 -4,4"/>
<!-- Node34 -->
<g id="node1" class="node">
<title>Node34</title>
<g id="a_node1"><a xlink:title=" ">
<polygon fill="#bfbfbf" stroke="#000000" points="0,-18.5 0,-36.5 108.5488,-36.5 108.5488,-18.5 0,-18.5"/>
<text text-anchor="middle" x="54.2744" y="-24.5" font-family="Helvetica,sans-Serif" font-size="10.00" fill="#000000">complex::operator *=</text>
</a>
</g>
</g>
<!-- Node35 -->
<g id="node2" class="node">
<title>Node35</title>
<g id="a_node2"><a xlink:href="classcomplex.html#a696019188accc543e7c8297595e297ec" target="_top" xlink:title=" ">
<polygon fill="#ffffff" stroke="#000000" points="145.3789,-37.5 145.3789,-55.5 213.0635,-55.5 213.0635,-37.5 145.3789,-37.5"/>
<text text-anchor="middle" x="179.2212" y="-43.5" font-family="Helvetica,sans-Serif" font-size="10.00" fill="#000000">complex::re</text>
</a>
</g>
</g>
<!-- Node34&#45;&gt;Node35 -->
<g id="edge1" class="edge">
<title>Node34&#45;&gt;Node35</title>
<path fill="none" stroke="#191970" d="M108.7144,-35.7784C117.504,-37.115 126.5094,-38.4844 135.0188,-39.7784"/>
<polygon fill="#191970" stroke="#191970" points="134.6922,-43.2689 145.1047,-41.3121 135.7446,-36.3484 134.6922,-43.2689"/>
</g>
<!-- Node36 -->
<g id="node3" class="node">
<title>Node36</title>
<g id="a_node3"><a xlink:href="classcomplex.html#a450461dea92da7f72b96402edafd07c2" target="_top" xlink:title=" ">
<polygon fill="#ffffff" stroke="#000000" points="144.5488,-.5 144.5488,-18.5 213.8936,-18.5 213.8936,-.5 144.5488,-.5"/>
<text text-anchor="middle" x="179.2212" y="-6.5" font-family="Helvetica,sans-Serif" font-size="10.00" fill="#000000">complex::im</text>
</a>
</g>
</g>
<!-- Node34&#45;&gt;Node36 -->
<g id="edge2" class="edge">
<title>Node34&#45;&gt;Node36</title>
<path fill="none" stroke="#191970" d="M108.7144,-19.6573C117.317,-18.418 126.1263,-17.1489 134.475,-15.9462"/>
<polygon fill="#191970" stroke="#191970" points="134.9867,-19.4087 144.3854,-14.5185 133.9885,-12.4802 134.9867,-19.4087"/>
</g>
</g>
</svg>
