<?xml version="1.0" encoding="UTF-8" standalone="no"?>
<!DOCTYPE svg PUBLIC "-//W3C//DTD SVG 1.1//EN"
 "http://www.w3.org/Graphics/SVG/1.1/DTD/svg11.dtd">
<!-- Generated by graphviz version 2.40.1 (20161225.0304)
 -->
<!-- Title: Parameters::getHotStart Pages: 1 -->
<svg width="349pt" height="27pt"
 viewBox="0.00 0.00 348.65 27.00" xmlns="http://www.w3.org/2000/svg" xmlns:xlink="http://www.w3.org/1999/xlink">
<g id="graph0" class="graph" transform="scale(1 1) rotate(0) translate(4 23)">
<title>Parameters::getHotStart</title>
<polygon fill="#ffffff" stroke="transparent" points="-4,4 -4,-23 344.6494,-23 344.6494,4 -4,4"/>
<!-- Node120 -->
<g id="node1" class="node">
<title>Node120</title>
<g id="a_node1"><a xlink:title=" ">
<polygon fill="#bfbfbf" stroke="#000000" points="216.8271,-.5 216.8271,-18.5 340.6494,-18.5 340.6494,-.5 216.8271,-.5"/>
<text text-anchor="middle" x="278.7383" y="-6.5" font-family="Helvetica,sans-Serif" font-size="10.00" fill="#000000">Parameters::getHotStart</text>
</a>
</g>
</g>
<!-- Node121 -->
<g id="node2" class="node">
<title>Node121</title>
<g id="a_node2"><a xlink:href="class_system.html#a93c8a8258ac8f6382ec393bca1271011" target="_top" xlink:title="System::latticeSetup sets up the lattice geometry and allocates memory.">
<polygon fill="#ffffff" stroke="#000000" points="73.6748,-.5 73.6748,-18.5 180.8271,-18.5 180.8271,-.5 73.6748,-.5"/>
<text text-anchor="middle" x="127.251" y="-6.5" font-family="Helvetica,sans-Serif" font-size="10.00" fill="#000000">System::latticeSetup</text>
</a>
</g>
</g>
<!-- Node120&#45;&gt;Node121 -->
<g id="edge1" class="edge">
<title>Node120&#45;&gt;Node121</title>
<path fill="none" stroke="#191970" d="M206.676,-9.5C198.1022,-9.5 189.4654,-9.5 181.2064,-9.5"/>
<polygon fill="#191970" stroke="#191970" points="206.6855,-13.0001 216.6855,-9.5 206.6855,-6.0001 206.6855,-13.0001"/>
</g>
<!-- Node122 -->
<g id="node3" class="node">
<title>Node122</title>
<g id="a_node3"><a xlink:href="main_8cpp.html#a4e6f00a867970a9eedf47b88a27b9eea" target="_top" xlink:title="main loads in configurations and initiates program according to .json specifications.">
<polygon fill="#ffffff" stroke="#000000" points="0,-.5 0,-18.5 37.6748,-18.5 37.6748,-.5 0,-.5"/>
<text text-anchor="middle" x="18.8374" y="-6.5" font-family="Helvetica,sans-Serif" font-size="10.00" fill="#000000">main</text>
</a>
</g>
</g>
<!-- Node121&#45;&gt;Node122 -->
<g id="edge2" class="edge">
<title>Node121&#45;&gt;Node122</title>
<path fill="none" stroke="#191970" d="M63.2463,-9.5C54.0172,-9.5 45.18,-9.5 37.8534,-9.5"/>
<polygon fill="#191970" stroke="#191970" points="63.3618,-13.0001 73.3618,-9.5 63.3618,-6.0001 63.3618,-13.0001"/>
</g>
</g>
</svg>
