<?xml version="1.0" encoding="UTF-8" standalone="no"?>
<!DOCTYPE svg PUBLIC "-//W3C//DTD SVG 1.1//EN"
 "http://www.w3.org/Graphics/SVG/1.1/DTD/svg11.dtd">
<!-- Generated by graphviz version 2.40.1 (20161225.0304)
 -->
<!-- Title: MasterSamplerTopcXYZ::writeFlowObservablesToFile Pages: 1 -->
<svg width="763pt" height="411pt"
 viewBox="0.00 0.00 763.03 411.00" xmlns="http://www.w3.org/2000/svg" xmlns:xlink="http://www.w3.org/1999/xlink">
<g id="graph0" class="graph" transform="scale(1 1) rotate(0) translate(4 407)">
<title>MasterSamplerTopcXYZ::writeFlowObservablesToFile</title>
<polygon fill="#ffffff" stroke="transparent" points="-4,4 -4,-407 759.0322,-407 759.0322,4 -4,4"/>
<!-- Node68 -->
<g id="node1" class="node">
<title>Node68</title>
<g id="a_node1"><a xlink:title="Correlator::writeFlowObservablesToFile.">
<polygon fill="#bfbfbf" stroke="#000000" points="0,-123.5 0,-151.5 146.5957,-151.5 146.5957,-123.5 0,-123.5"/>
<text text-anchor="start" x="8" y="-139.5" font-family="Helvetica,sans-Serif" font-size="10.00" fill="#000000">MasterSamplerTopcXYZ</text>
<text text-anchor="middle" x="73.2979" y="-129.5" font-family="Helvetica,sans-Serif" font-size="10.00" fill="#000000">::writeFlowObservablesToFile</text>
</a>
</g>
</g>
<!-- Node69 -->
<g id="node2" class="node">
<title>Node69</title>
<g id="a_node2"><a xlink:href="class_observable_storer.html#a593f13b0dd0f9d20608ef6b84fda3f1d" target="_top" xlink:title="ObservableStorer::gatherResults.">
<polygon fill="#ffffff" stroke="#000000" points="214.2754,-256.5 214.2754,-284.5 342.5557,-284.5 342.5557,-256.5 214.2754,-256.5"/>
<text text-anchor="start" x="222.2754" y="-272.5" font-family="Helvetica,sans-Serif" font-size="10.00" fill="#000000">ObservableStorer::gather</text>
<text text-anchor="middle" x="278.4155" y="-262.5" font-family="Helvetica,sans-Serif" font-size="10.00" fill="#000000">Results</text>
</a>
</g>
</g>
<!-- Node68&#45;&gt;Node69 -->
<g id="edge1" class="edge">
<title>Node68&#45;&gt;Node69</title>
<path fill="none" stroke="#191970" d="M83.2737,-151.7896C100.6191,-175.508 138.7104,-222.8319 182.5957,-247.5 189.4116,-251.3312 196.8478,-254.5276 204.4656,-257.1936"/>
<polygon fill="#191970" stroke="#191970" points="203.5882,-260.5874 214.179,-260.2948 205.7172,-253.919 203.5882,-260.5874"/>
</g>
<!-- Node71 -->
<g id="node4" class="node">
<title>Node71</title>
<g id="a_node4"><a xlink:href="class_observable_storer.html#af51ebd65eae2a5087cfd47ddf230da93" target="_top" xlink:title="ObservableStorer::writeFlowObservableToFile.">
<polygon fill="#ffffff" stroke="#000000" points="207.3394,-209.5 207.3394,-237.5 349.4917,-237.5 349.4917,-209.5 207.3394,-209.5"/>
<text text-anchor="start" x="215.3394" y="-225.5" font-family="Helvetica,sans-Serif" font-size="10.00" fill="#000000">ObservableStorer::writeFlow</text>
<text text-anchor="middle" x="278.4155" y="-215.5" font-family="Helvetica,sans-Serif" font-size="10.00" fill="#000000">ObservableToFile</text>
</a>
</g>
</g>
<!-- Node68&#45;&gt;Node71 -->
<g id="edge3" class="edge">
<title>Node68&#45;&gt;Node71</title>
<path fill="none" stroke="#191970" d="M96.9914,-151.5076C118.7258,-163.9539 152.0796,-182.0525 182.5957,-194.5 193.1758,-198.8156 204.641,-202.8272 215.8391,-206.4063"/>
<polygon fill="#191970" stroke="#191970" points="214.9937,-209.8087 225.582,-209.437 217.073,-203.1246 214.9937,-209.8087"/>
</g>
<!-- Node82 -->
<g id="node15" class="node">
<title>Node82</title>
<g id="a_node15"><a xlink:href="class_parallel_1_1_communicator.html#a5d42989e7a3022de6042e3503aa35346" target="_top" xlink:title="Parallel::Communicator::reduceToTemporalDimension reduces the results to the temporal dimensions,...">
<polygon fill="#ffffff" stroke="#000000" points="202.8838,-123.5 202.8838,-151.5 353.9473,-151.5 353.9473,-123.5 202.8838,-123.5"/>
<text text-anchor="start" x="210.8838" y="-139.5" font-family="Helvetica,sans-Serif" font-size="10.00" fill="#000000">Parallel::Communicator</text>
<text text-anchor="middle" x="278.4155" y="-129.5" font-family="Helvetica,sans-Serif" font-size="10.00" fill="#000000">::reduceToTemporalDimension</text>
</a>
</g>
</g>
<!-- Node68&#45;&gt;Node82 -->
<g id="edge14" class="edge">
<title>Node68&#45;&gt;Node82</title>
<path fill="none" stroke="#191970" d="M146.7707,-137.5C161.5279,-137.5 177.1609,-137.5 192.3029,-137.5"/>
<polygon fill="#191970" stroke="#191970" points="192.6906,-141.0001 202.6906,-137.5 192.6905,-134.0001 192.6906,-141.0001"/>
</g>
<!-- Node83 -->
<g id="node16" class="node">
<title>Node83</title>
<g id="a_node16"><a xlink:href="class_parameters.html#a237ea1286459e8c648e983464829fe8d" target="_top" xlink:title=" ">
<polygon fill="#ffffff" stroke="#000000" points="424.1343,-56.5 424.1343,-74.5 559.6265,-74.5 559.6265,-56.5 424.1343,-56.5"/>
<text text-anchor="middle" x="491.8804" y="-62.5" font-family="Helvetica,sans-Serif" font-size="10.00" fill="#000000">Parameters::getNTemporal</text>
</a>
</g>
</g>
<!-- Node68&#45;&gt;Node83 -->
<g id="edge30" class="edge">
<title>Node68&#45;&gt;Node83</title>
<path fill="none" stroke="#191970" d="M137.3428,-123.4601C152.1734,-120.3655 167.912,-117.2064 182.5957,-114.5 263.1213,-99.6582 355.9512,-85.3194 418.7336,-76.0291"/>
<polygon fill="#191970" stroke="#191970" points="419.5499,-79.4467 428.9323,-74.5252 418.5287,-72.5216 419.5499,-79.4467"/>
</g>
<!-- Node85 -->
<g id="node18" class="node">
<title>Node85</title>
<g id="a_node18"><a xlink:href="class_observable_storer.html#ab8885ce7eb3baa3fdb39cda767be6c83" target="_top" xlink:title=" ">
<polygon fill="#ffffff" stroke="#000000" points="195.9331,-37.5 195.9331,-65.5 360.8979,-65.5 360.8979,-37.5 195.9331,-37.5"/>
<text text-anchor="start" x="203.9331" y="-53.5" font-family="Helvetica,sans-Serif" font-size="10.00" fill="#000000">ObservableStorer::getObservable</text>
<text text-anchor="middle" x="278.4155" y="-43.5" font-family="Helvetica,sans-Serif" font-size="10.00" fill="#000000">Array</text>
</a>
</g>
</g>
<!-- Node68&#45;&gt;Node85 -->
<g id="edge18" class="edge">
<title>Node68&#45;&gt;Node85</title>
<path fill="none" stroke="#191970" d="M96.9914,-123.4924C118.7258,-111.0461 152.0796,-92.9475 182.5957,-80.5 193.1758,-76.1844 204.641,-72.1728 215.8391,-68.5937"/>
<polygon fill="#191970" stroke="#191970" points="217.073,-71.8754 225.582,-65.563 214.9937,-65.1913 217.073,-71.8754"/>
</g>
<!-- Node86 -->
<g id="node19" class="node">
<title>Node86</title>
<g id="a_node19"><a xlink:href="namespace_i_o.html#ad77b7dd770afc8e2eb433d6187ea3616" target="_top" xlink:title="IO::writeMatrixToFile writes out a matrix of observables to file, i.e. the topological charge in Eucl...">
<polygon fill="#ffffff" stroke="#000000" points="438.3188,-179.5 438.3188,-197.5 545.4419,-197.5 545.4419,-179.5 438.3188,-179.5"/>
<text text-anchor="middle" x="491.8804" y="-185.5" font-family="Helvetica,sans-Serif" font-size="10.00" fill="#000000">IO::writeMatrixToFile</text>
</a>
</g>
</g>
<!-- Node68&#45;&gt;Node86 -->
<g id="edge19" class="edge">
<title>Node68&#45;&gt;Node86</title>
<path fill="none" stroke="#191970" d="M130.612,-151.5433C147.2926,-155.2336 165.5997,-158.9032 182.5957,-161.5 267.0091,-174.3973 365.3963,-181.6721 428.1313,-185.3439"/>
<polygon fill="#191970" stroke="#191970" points="428.0849,-188.8469 438.2686,-185.924 428.4849,-181.8583 428.0849,-188.8469"/>
</g>
<!-- Node87 -->
<g id="node20" class="node">
<title>Node87</title>
<g id="a_node20"><a xlink:href="class_observable_storer.html#aa04dd06fe053670f4c8f027aa744277a" target="_top" xlink:title=" ">
<polygon fill="#ffffff" stroke="#000000" points="182.5957,-.5 182.5957,-18.5 374.2354,-18.5 374.2354,-.5 182.5957,-.5"/>
<text text-anchor="middle" x="278.4155" y="-6.5" font-family="Helvetica,sans-Serif" font-size="10.00" fill="#000000">ObservableStorer::getObservableName</text>
</a>
</g>
</g>
<!-- Node68&#45;&gt;Node87 -->
<g id="edge29" class="edge">
<title>Node68&#45;&gt;Node87</title>
<path fill="none" stroke="#191970" d="M82.8692,-123.3543C99.8906,-99.41 137.8709,-51.1919 182.5957,-27.5 186.6167,-25.37 190.8498,-23.4888 195.2061,-21.8278"/>
<polygon fill="#191970" stroke="#191970" points="196.5633,-25.0632 204.9054,-18.5318 194.311,-18.4355 196.5633,-25.0632"/>
</g>
<!-- Node70 -->
<g id="node3" class="node">
<title>Node70</title>
<g id="a_node3"><a xlink:href="class_parallel_1_1_communicator.html#a7b1f80fb49a0cc83f2031c3415174150" target="_top" xlink:title=" ">
<polygon fill="#ffffff" stroke="#000000" points="431.9175,-256.5 431.9175,-284.5 551.8433,-284.5 551.8433,-256.5 431.9175,-256.5"/>
<text text-anchor="start" x="439.9175" y="-272.5" font-family="Helvetica,sans-Serif" font-size="10.00" fill="#000000">Parallel::Communicator</text>
<text text-anchor="middle" x="491.8804" y="-262.5" font-family="Helvetica,sans-Serif" font-size="10.00" fill="#000000">::getNumProc</text>
</a>
</g>
</g>
<!-- Node69&#45;&gt;Node70 -->
<g id="edge2" class="edge">
<title>Node69&#45;&gt;Node70</title>
<path fill="none" stroke="#191970" d="M342.7515,-270.5C367.5673,-270.5 396.0342,-270.5 421.4009,-270.5"/>
<polygon fill="#191970" stroke="#191970" points="421.6916,-274.0001 431.6915,-270.5 421.6915,-267.0001 421.6916,-274.0001"/>
</g>
<!-- Node72 -->
<g id="node5" class="node">
<title>Node72</title>
<g id="a_node5"><a xlink:href="namespace_i_o.html#a4f554804fd2ccd9c13c73777c5cbbf77" target="_top" xlink:title="IO::writeFlowObservableToFile method for writing a flow observable to file, using ....">
<polygon fill="#ffffff" stroke="#000000" points="415.8042,-216.5 415.8042,-234.5 567.9565,-234.5 567.9565,-216.5 415.8042,-216.5"/>
<text text-anchor="middle" x="491.8804" y="-222.5" font-family="Helvetica,sans-Serif" font-size="10.00" fill="#000000">IO::writeFlowObservableToFile</text>
</a>
</g>
</g>
<!-- Node71&#45;&gt;Node72 -->
<g id="edge4" class="edge">
<title>Node71&#45;&gt;Node72</title>
<path fill="none" stroke="#191970" d="M349.4962,-224.166C367.4045,-224.3338 386.8256,-224.5157 405.3975,-224.6897"/>
<polygon fill="#191970" stroke="#191970" points="405.5805,-228.1915 415.6129,-224.7854 405.6461,-221.1918 405.5805,-228.1915"/>
</g>
<!-- Node73 -->
<g id="node6" class="node">
<title>Node73</title>
<g id="a_node6"><a xlink:href="class_parallel_1_1_communicator.html#a474ab433da0e83ef372d74e26a7e5cb0" target="_top" xlink:title=" ">
<polygon fill="#ffffff" stroke="#000000" points="622.3159,-337.5 622.3159,-365.5 742.2417,-365.5 742.2417,-337.5 622.3159,-337.5"/>
<text text-anchor="start" x="630.3159" y="-353.5" font-family="Helvetica,sans-Serif" font-size="10.00" fill="#000000">Parallel::Communicator</text>
<text text-anchor="middle" x="682.2788" y="-343.5" font-family="Helvetica,sans-Serif" font-size="10.00" fill="#000000">::getProcessRank</text>
</a>
</g>
</g>
<!-- Node72&#45;&gt;Node73 -->
<g id="edge5" class="edge">
<title>Node72&#45;&gt;Node73</title>
<path fill="none" stroke="#191970" d="M550.8243,-234.5279C559.0613,-237.6637 566.9451,-241.8682 573.5254,-247.5 603.4555,-273.1162 580.1527,-302.2465 609.5254,-328.5 610.8495,-329.6835 612.2344,-330.8061 613.6702,-331.871"/>
<polygon fill="#191970" stroke="#191970" points="612.0534,-334.9891 622.3795,-337.3601 615.7858,-329.0671 612.0534,-334.9891"/>
</g>
<!-- Node74 -->
<g id="node7" class="node">
<title>Node74</title>
<g id="a_node7"><a xlink:href="class_parameters.html#a96dbafc27f287de83dfaec3bc2d45efe" target="_top" xlink:title=" ">
<polygon fill="#ffffff" stroke="#000000" points="611.752,-300.5 611.752,-318.5 752.8057,-318.5 752.8057,-300.5 611.752,-300.5"/>
<text text-anchor="middle" x="682.2788" y="-306.5" font-family="Helvetica,sans-Serif" font-size="10.00" fill="#000000">Parameters::getFlowEpsilon</text>
</a>
</g>
</g>
<!-- Node72&#45;&gt;Node74 -->
<g id="edge6" class="edge">
<title>Node72&#45;&gt;Node74</title>
<path fill="none" stroke="#191970" d="M544.8858,-234.6263C554.8828,-237.7452 564.897,-241.919 573.5254,-247.5 594.7411,-261.2228 588.169,-277.9972 609.5254,-291.5 612.5309,-293.4003 615.7238,-295.0999 619.0298,-296.6202"/>
<polygon fill="#191970" stroke="#191970" points="618.0003,-299.9781 628.5848,-300.4471 620.603,-293.4799 618.0003,-299.9781"/>
</g>
<!-- Node75 -->
<g id="node8" class="node">
<title>Node75</title>
<g id="a_node8"><a xlink:href="class_parameters.html#a58f15668b37e705d34d6588e287e4bc0" target="_top" xlink:title=" ">
<polygon fill="#ffffff" stroke="#000000" points="613.6953,-253.5 613.6953,-281.5 750.8623,-281.5 750.8623,-253.5 613.6953,-253.5"/>
<text text-anchor="start" x="621.6953" y="-269.5" font-family="Helvetica,sans-Serif" font-size="10.00" fill="#000000">Parameters::getConfigStart</text>
<text text-anchor="middle" x="682.2788" y="-259.5" font-family="Helvetica,sans-Serif" font-size="10.00" fill="#000000">Number</text>
</a>
</g>
</g>
<!-- Node72&#45;&gt;Node75 -->
<g id="edge7" class="edge">
<title>Node72&#45;&gt;Node75</title>
<path fill="none" stroke="#191970" d="M532.7256,-234.5101C554.9135,-239.4045 583.0253,-245.6057 608.8722,-251.3072"/>
<polygon fill="#191970" stroke="#191970" points="608.1312,-254.7278 618.6504,-253.4642 609.6391,-247.8922 608.1312,-254.7278"/>
</g>
<!-- Node76 -->
<g id="node9" class="node">
<title>Node76</title>
<g id="a_node9"><a xlink:href="class_parameters.html#afa4cfe5dc4302b1e8f8928606ea9b056" target="_top" xlink:title=" ">
<polygon fill="#ffffff" stroke="#000000" points="609.5254,-216.5 609.5254,-234.5 755.0322,-234.5 755.0322,-216.5 609.5254,-216.5"/>
<text text-anchor="middle" x="682.2788" y="-222.5" font-family="Helvetica,sans-Serif" font-size="10.00" fill="#000000">Parameters::getOutputFolder</text>
</a>
</g>
</g>
<!-- Node72&#45;&gt;Node76 -->
<g id="edge8" class="edge">
<title>Node72&#45;&gt;Node76</title>
<path fill="none" stroke="#191970" d="M568.2256,-225.5C578.3903,-225.5 588.8538,-225.5 599.127,-225.5"/>
<polygon fill="#191970" stroke="#191970" points="599.3188,-229.0001 609.3187,-225.5 599.3187,-222.0001 599.3188,-229.0001"/>
</g>
<!-- Node77 -->
<g id="node10" class="node">
<title>Node77</title>
<g id="a_node10"><a xlink:href="class_parameters.html#a181a773d23fdb19d0c4f35e6cf2d5649" target="_top" xlink:title=" ">
<polygon fill="#ffffff" stroke="#000000" points="612.5845,-179.5 612.5845,-197.5 751.9731,-197.5 751.9731,-179.5 612.5845,-179.5"/>
<text text-anchor="middle" x="682.2788" y="-185.5" font-family="Helvetica,sans-Serif" font-size="10.00" fill="#000000">Parameters::getBatchName</text>
</a>
</g>
</g>
<!-- Node72&#45;&gt;Node77 -->
<g id="edge9" class="edge">
<title>Node72&#45;&gt;Node77</title>
<path fill="none" stroke="#191970" d="M538.4571,-216.4488C564.8327,-211.3232 598.0151,-204.8749 625.8591,-199.464"/>
<polygon fill="#191970" stroke="#191970" points="626.7047,-202.8652 635.8534,-197.5218 625.3693,-195.9938 626.7047,-202.8652"/>
</g>
<!-- Node78 -->
<g id="node11" class="node">
<title>Node78</title>
<g id="a_node11"><a xlink:href="class_parameters.html#abace4edb8ece38841b58c5ce6168cbc4" target="_top" xlink:title=" ">
<polygon fill="#ffffff" stroke="#000000" points="620.3652,-142.5 620.3652,-160.5 744.1924,-160.5 744.1924,-142.5 620.3652,-142.5"/>
<text text-anchor="middle" x="682.2788" y="-148.5" font-family="Helvetica,sans-Serif" font-size="10.00" fill="#000000">Parameters::getFilePath</text>
</a>
</g>
</g>
<!-- Node72&#45;&gt;Node78 -->
<g id="edge10" class="edge">
<title>Node72&#45;&gt;Node78</title>
<path fill="none" stroke="#191970" d="M552.2254,-216.4211C559.6469,-214.0945 566.931,-211.1718 573.5254,-207.5 593.5714,-196.3385 589.6977,-182.0449 609.5254,-170.5 613.7453,-168.0429 618.2854,-165.8982 622.9619,-164.027"/>
<polygon fill="#191970" stroke="#191970" points="624.4496,-167.2125 632.6939,-160.558 622.0992,-160.6189 624.4496,-167.2125"/>
</g>
<!-- Node79 -->
<g id="node12" class="node">
<title>Node79</title>
<g id="a_node12"><a xlink:href="class_parameters.html#ae5c64523dc50dca13b417fe3d9e4175c" target="_top" xlink:title=" ">
<polygon fill="#ffffff" stroke="#000000" points="628.4219,-105.5 628.4219,-123.5 736.1357,-123.5 736.1357,-105.5 628.4219,-105.5"/>
<text text-anchor="middle" x="682.2788" y="-111.5" font-family="Helvetica,sans-Serif" font-size="10.00" fill="#000000">Parameters::getBeta</text>
</a>
</g>
</g>
<!-- Node72&#45;&gt;Node79 -->
<g id="edge11" class="edge">
<title>Node72&#45;&gt;Node79</title>
<path fill="none" stroke="#191970" d="M558.4299,-216.357C563.8374,-214.0044 568.9656,-211.0941 573.5254,-207.5 602.2497,-184.8594 581.2417,-156.6887 609.5254,-133.5 612.4215,-131.1256 615.5821,-129.0448 618.9116,-127.2216"/>
<polygon fill="#191970" stroke="#191970" points="620.4607,-130.3612 628.0536,-122.9722 617.5101,-124.0134 620.4607,-130.3612"/>
</g>
<!-- Node80 -->
<g id="node13" class="node">
<title>Node80</title>
<g id="a_node13"><a xlink:href="class_parameters.html#aae314edb18d426571ab7b6df60da70aa" target="_top" xlink:title=" ">
<polygon fill="#ffffff" stroke="#000000" points="622.04,-68.5 622.04,-86.5 742.5176,-86.5 742.5176,-68.5 622.04,-68.5"/>
<text text-anchor="middle" x="682.2788" y="-74.5" font-family="Helvetica,sans-Serif" font-size="10.00" fill="#000000">Parameters::getNFlows</text>
</a>
</g>
</g>
<!-- Node72&#45;&gt;Node80 -->
<g id="edge12" class="edge">
<title>Node72&#45;&gt;Node80</title>
<path fill="none" stroke="#191970" d="M560.1716,-216.4443C565.0164,-214.052 569.5489,-211.1097 573.5254,-207.5 611.9264,-172.6411 571.8017,-132.0907 609.5254,-96.5 611.4363,-94.6971 613.4965,-93.0602 615.6705,-91.5745"/>
<polygon fill="#191970" stroke="#191970" points="617.5604,-94.5268 624.5459,-86.561 614.1176,-88.4319 617.5604,-94.5268"/>
</g>
<!-- Node81 -->
<g id="node14" class="node">
<title>Node81</title>
<g id="a_node14"><a xlink:href="class_parameters.html#a07453f20719f54f9fd6f72d311638b39" target="_top" xlink:title=" ">
<polygon fill="#ffffff" stroke="#000000" points="620.3579,-384.5 620.3579,-402.5 744.1997,-402.5 744.1997,-384.5 620.3579,-384.5"/>
<text text-anchor="middle" x="682.2788" y="-390.5" font-family="Helvetica,sans-Serif" font-size="10.00" fill="#000000">Parameters::getVerbose</text>
</a>
</g>
</g>
<!-- Node72&#45;&gt;Node81 -->
<g id="edge13" class="edge">
<title>Node72&#45;&gt;Node81</title>
<path fill="none" stroke="#191970" d="M553.6324,-234.5638C560.9983,-237.7237 567.8894,-241.9254 573.5254,-247.5 615.541,-289.0576 567.0826,-334.3788 609.5254,-375.5 610.8103,-376.7449 612.1671,-377.908 613.5843,-378.9946"/>
<polygon fill="#191970" stroke="#191970" points="611.9444,-382.0966 622.2823,-384.4158 615.6471,-376.156 611.9444,-382.0966"/>
</g>
<!-- Node82&#45;&gt;Node80 -->
<g id="edge16" class="edge">
<title>Node82&#45;&gt;Node80</title>
<path fill="none" stroke="#191970" d="M353.9931,-150.7735C415.5507,-158.1698 503.4288,-160.7917 573.5254,-131.5 594.1153,-122.8959 590.0867,-107.4597 609.5254,-96.5 613.9603,-93.9996 618.7324,-91.82 623.6362,-89.9216"/>
<polygon fill="#191970" stroke="#191970" points="624.8774,-93.1957 633.1744,-86.607 622.5796,-86.5835 624.8774,-93.1957"/>
</g>
<!-- Node82&#45;&gt;Node83 -->
<g id="edge15" class="edge">
<title>Node82&#45;&gt;Node83</title>
<path fill="none" stroke="#191970" d="M334.6844,-123.4848C347.9396,-119.3652 361.818,-114.3602 374.2354,-108.5 391.6256,-100.2929 392.5867,-92.1355 410.2354,-84.5 416.5172,-81.7822 423.2466,-79.4218 430.047,-77.379"/>
<polygon fill="#191970" stroke="#191970" points="431.3192,-80.6582 440.0173,-74.609 429.4453,-73.9137 431.3192,-80.6582"/>
</g>
<!-- Node84 -->
<g id="node17" class="node">
<title>Node84</title>
<g id="a_node17"><a xlink:href="class_parallel_1_1_neighbours.html#ad1a2a616b4089eded3545faf11409b85" target="_top" xlink:title=" ">
<polygon fill="#ffffff" stroke="#000000" points="410.2354,-93.5 410.2354,-121.5 573.5254,-121.5 573.5254,-93.5 410.2354,-93.5"/>
<text text-anchor="start" x="418.2354" y="-109.5" font-family="Helvetica,sans-Serif" font-size="10.00" fill="#000000">Parallel::Neighbours</text>
<text text-anchor="middle" x="491.8804" y="-99.5" font-family="Helvetica,sans-Serif" font-size="10.00" fill="#000000">::getProcessorDimensionPosition</text>
</a>
</g>
</g>
<!-- Node82&#45;&gt;Node84 -->
<g id="edge17" class="edge">
<title>Node82&#45;&gt;Node84</title>
<path fill="none" stroke="#191970" d="M353.9756,-126.8809C368.8318,-124.793 384.5711,-122.5811 399.8968,-120.4272"/>
<polygon fill="#191970" stroke="#191970" points="400.4793,-123.8798 409.8948,-119.0221 399.505,-116.948 400.4793,-123.8798"/>
</g>
<!-- Node86&#45;&gt;Node73 -->
<g id="edge20" class="edge">
<title>Node86&#45;&gt;Node73</title>
<path fill="none" stroke="#191970" d="M545.5355,-192.5838C555.8263,-195.5449 565.7893,-200.2186 573.5254,-207.5 614.3819,-245.9552 570.1903,-288.49 609.5254,-328.5 610.8024,-329.7989 612.152,-331.0246 613.5629,-332.1812"/>
<polygon fill="#191970" stroke="#191970" points="611.9959,-335.3483 622.2328,-338.0791 615.9332,-329.5605 611.9959,-335.3483"/>
</g>
<!-- Node86&#45;&gt;Node74 -->
<g id="edge21" class="edge">
<title>Node86&#45;&gt;Node74</title>
<path fill="none" stroke="#191970" d="M545.7587,-193.5312C555.7969,-196.4489 565.6043,-200.865 573.5254,-207.5 604.6625,-233.5817 578.5702,-265.2026 609.5254,-291.5 611.2577,-292.9716 613.0923,-294.3262 615.0072,-295.5729"/>
<polygon fill="#191970" stroke="#191970" points="613.3915,-298.6782 623.8494,-300.3761 616.7329,-292.5272 613.3915,-298.6782"/>
</g>
<!-- Node86&#45;&gt;Node75 -->
<g id="edge22" class="edge">
<title>Node86&#45;&gt;Node75</title>
<path fill="none" stroke="#191970" d="M545.7905,-196.4396C555.395,-199.1215 565.034,-202.707 573.5254,-207.5 593.506,-218.7781 589.997,-232.4559 609.5254,-244.5 612.2878,-246.2037 615.1878,-247.792 618.1737,-249.2713"/>
<polygon fill="#191970" stroke="#191970" points="616.7819,-252.4829 627.3379,-253.3888 619.6508,-246.0978 616.7819,-252.4829"/>
</g>
<!-- Node86&#45;&gt;Node76 -->
<g id="edge23" class="edge">
<title>Node86&#45;&gt;Node76</title>
<path fill="none" stroke="#191970" d="M538.4571,-197.5512C564.8327,-202.6768 598.0151,-209.1251 625.8591,-214.536"/>
<polygon fill="#191970" stroke="#191970" points="625.3693,-218.0062 635.8534,-216.4782 626.7047,-211.1348 625.3693,-218.0062"/>
</g>
<!-- Node86&#45;&gt;Node77 -->
<g id="edge24" class="edge">
<title>Node86&#45;&gt;Node77</title>
<path fill="none" stroke="#191970" d="M545.6775,-188.5C563.2017,-188.5 583.0505,-188.5 602.0792,-188.5"/>
<polygon fill="#191970" stroke="#191970" points="602.2412,-192.0001 612.2411,-188.5 602.2411,-185.0001 602.2412,-192.0001"/>
</g>
<!-- Node86&#45;&gt;Node78 -->
<g id="edge25" class="edge">
<title>Node86&#45;&gt;Node78</title>
<path fill="none" stroke="#191970" d="M538.4571,-179.4488C564.8327,-174.3232 598.0151,-167.8749 625.8591,-162.464"/>
<polygon fill="#191970" stroke="#191970" points="626.7047,-165.8652 635.8534,-160.5218 625.3693,-158.9938 626.7047,-165.8652"/>
</g>
<!-- Node86&#45;&gt;Node79 -->
<g id="edge26" class="edge">
<title>Node86&#45;&gt;Node79</title>
<path fill="none" stroke="#191970" d="M535.1932,-179.4513C547.9864,-175.8172 561.7164,-170.9268 573.5254,-164.5 592.0713,-154.4067 590.8279,-143.3098 609.5254,-133.5 614.4384,-130.9224 619.7253,-128.6769 625.1265,-126.7244"/>
<polygon fill="#191970" stroke="#191970" points="626.5025,-129.9567 634.9162,-123.5178 624.3235,-123.3045 626.5025,-129.9567"/>
</g>
<!-- Node86&#45;&gt;Node80 -->
<g id="edge27" class="edge">
<title>Node86&#45;&gt;Node80</title>
<path fill="none" stroke="#191970" d="M545.4406,-179.4104C555.5035,-175.9368 565.4013,-171.1357 573.5254,-164.5 600.0098,-142.8676 582.7147,-117.7266 609.5254,-96.5 612.1353,-94.4337 614.9471,-92.5905 617.8948,-90.9464"/>
<polygon fill="#191970" stroke="#191970" points="619.5452,-94.0374 627.0789,-86.588 616.544,-87.7134 619.5452,-94.0374"/>
</g>
<!-- Node86&#45;&gt;Node81 -->
<g id="edge28" class="edge">
<title>Node86&#45;&gt;Node81</title>
<path fill="none" stroke="#191970" d="M545.5583,-192.0074C555.9711,-194.9901 565.9774,-199.8184 573.5254,-207.5 627.0453,-261.9677 556.3852,-320.6618 609.5254,-375.5 610.6289,-376.6388 611.7923,-377.71 613.0073,-378.7174"/>
<polygon fill="#191970" stroke="#191970" points="611.4216,-381.8658 621.6886,-384.4813 615.2936,-376.0341 611.4216,-381.8658"/>
</g>
</g>
</svg>
