<?xml version="1.0" encoding="UTF-8" standalone="no"?>
<!DOCTYPE svg PUBLIC "-//W3C//DTD SVG 1.1//EN"
 "http://www.w3.org/Graphics/SVG/1.1/DTD/svg11.dtd">
<!-- Generated by graphviz version 2.40.1 (20161225.0304)
 -->
<!-- Title: nlohmann::basic_json::operator[] Pages: 1 -->
<svg width="418pt" height="178pt"
 viewBox="0.00 0.00 418.19 178.00" xmlns="http://www.w3.org/2000/svg" xmlns:xlink="http://www.w3.org/1999/xlink">
<g id="graph0" class="graph" transform="scale(1 1) rotate(0) translate(4 174)">
<title>nlohmann::basic_json::operator[]</title>
<polygon fill="#ffffff" stroke="transparent" points="-4,4 -4,-174 414.1855,-174 414.1855,4 -4,4"/>
<!-- Node388 -->
<g id="node1" class="node">
<title>Node388</title>
<g id="a_node1"><a xlink:title="read&#45;only access specified object element">
<polygon fill="#bfbfbf" stroke="#000000" points="0,-70.5 0,-98.5 112.7285,-98.5 112.7285,-70.5 0,-70.5"/>
<text text-anchor="start" x="8" y="-86.5" font-family="Helvetica,sans-Serif" font-size="10.00" fill="#000000">nlohmann::basic_json</text>
<text text-anchor="middle" x="56.3643" y="-76.5" font-family="Helvetica,sans-Serif" font-size="10.00" fill="#000000">::operator[]</text>
</a>
</g>
</g>
<!-- Node389 -->
<g id="node2" class="node">
<title>Node389</title>
<g id="a_node2"><a xlink:href="classnlohmann_1_1basic__json.html#ac871e3b03fb2eeca9a8de4db2bea760f" target="_top" xlink:title="access specified array element">
<polygon fill="#ffffff" stroke="#000000" points="148.7285,-70.5 148.7285,-98.5 261.457,-98.5 261.457,-70.5 148.7285,-70.5"/>
<text text-anchor="start" x="156.7285" y="-86.5" font-family="Helvetica,sans-Serif" font-size="10.00" fill="#000000">nlohmann::basic_json</text>
<text text-anchor="middle" x="205.0928" y="-76.5" font-family="Helvetica,sans-Serif" font-size="10.00" fill="#000000">::operator[]</text>
</a>
</g>
</g>
<!-- Node388&#45;&gt;Node389 -->
<g id="edge1" class="edge">
<title>Node388&#45;&gt;Node389</title>
<path fill="none" stroke="#191970" d="M113.0164,-84.5C121.3038,-84.5 129.9027,-84.5 138.3682,-84.5"/>
<polygon fill="#191970" stroke="#191970" points="138.5982,-88.0001 148.5981,-84.5 138.5981,-81.0001 138.5982,-88.0001"/>
</g>
<!-- Node390 -->
<g id="node3" class="node">
<title>Node390</title>
<g id="a_node3"><a xlink:href="classnlohmann_1_1basic__json.html#a8faa039ca82427ed29c486ffd00600c3" target="_top" xlink:title="return whether value is null">
<polygon fill="#ffffff" stroke="#000000" points="297.457,-141.5 297.457,-169.5 410.1855,-169.5 410.1855,-141.5 297.457,-141.5"/>
<text text-anchor="start" x="305.457" y="-157.5" font-family="Helvetica,sans-Serif" font-size="10.00" fill="#000000">nlohmann::basic_json</text>
<text text-anchor="middle" x="353.8213" y="-147.5" font-family="Helvetica,sans-Serif" font-size="10.00" fill="#000000">::is_null</text>
</a>
</g>
</g>
<!-- Node389&#45;&gt;Node390 -->
<g id="edge2" class="edge">
<title>Node389&#45;&gt;Node390</title>
<path fill="none" stroke="#191970" d="M230.6561,-98.5909C249.0246,-108.5166 274.4955,-121.8761 297.457,-132.5 301.024,-134.1504 304.744,-135.8066 308.4974,-137.4322"/>
<polygon fill="#191970" stroke="#191970" points="307.2549,-140.7069 317.8278,-141.3889 309.9879,-134.2625 307.2549,-140.7069"/>
</g>
<!-- Node391 -->
<g id="node4" class="node">
<title>Node391</title>
<g id="a_node4"><a xlink:href="classnlohmann_1_1basic__json.html#aef9ce5dd2381caee1f8ddcdb5bdd9c65" target="_top" xlink:title="return whether value is an array">
<polygon fill="#ffffff" stroke="#000000" points="297.457,-94.5 297.457,-122.5 410.1855,-122.5 410.1855,-94.5 297.457,-94.5"/>
<text text-anchor="start" x="305.457" y="-110.5" font-family="Helvetica,sans-Serif" font-size="10.00" fill="#000000">nlohmann::basic_json</text>
<text text-anchor="middle" x="353.8213" y="-100.5" font-family="Helvetica,sans-Serif" font-size="10.00" fill="#000000">::is_array</text>
</a>
</g>
</g>
<!-- Node389&#45;&gt;Node391 -->
<g id="edge3" class="edge">
<title>Node389&#45;&gt;Node391</title>
<path fill="none" stroke="#191970" d="M261.7449,-93.6418C270.1233,-94.9938 278.8203,-96.3972 287.3758,-97.7778"/>
<polygon fill="#191970" stroke="#191970" points="286.8968,-101.2457 297.3266,-99.3836 288.012,-94.3351 286.8968,-101.2457"/>
</g>
<!-- Node392 -->
<g id="node5" class="node">
<title>Node392</title>
<g id="a_node5"><a xlink:href="classnlohmann_1_1basic__json.html#a32124a16dc80729d964d9caf607c2bc8" target="_top" xlink:title="create an empty value with a given type">
<polygon fill="#ffffff" stroke="#000000" points="297.457,-47.5 297.457,-75.5 410.1855,-75.5 410.1855,-47.5 297.457,-47.5"/>
<text text-anchor="start" x="305.457" y="-63.5" font-family="Helvetica,sans-Serif" font-size="10.00" fill="#000000">nlohmann::basic_json</text>
<text text-anchor="middle" x="353.8213" y="-53.5" font-family="Helvetica,sans-Serif" font-size="10.00" fill="#000000">::basic_json</text>
</a>
</g>
</g>
<!-- Node389&#45;&gt;Node392 -->
<g id="edge4" class="edge">
<title>Node389&#45;&gt;Node392</title>
<path fill="none" stroke="#191970" d="M261.7449,-75.7391C270.1233,-74.4434 278.8203,-73.0985 287.3758,-71.7754"/>
<polygon fill="#191970" stroke="#191970" points="287.979,-75.2238 297.3266,-70.2366 286.9092,-68.306 287.979,-75.2238"/>
</g>
<!-- Node393 -->
<g id="node6" class="node">
<title>Node393</title>
<g id="a_node6"><a xlink:href="classnlohmann_1_1basic__json.html#a6b75862bdb4d26650616cf9821430755" target="_top" xlink:title="return the type as string">
<polygon fill="#ffffff" stroke="#000000" points="297.457,-.5 297.457,-28.5 410.1855,-28.5 410.1855,-.5 297.457,-.5"/>
<text text-anchor="start" x="305.457" y="-16.5" font-family="Helvetica,sans-Serif" font-size="10.00" fill="#000000">nlohmann::basic_json</text>
<text text-anchor="middle" x="353.8213" y="-6.5" font-family="Helvetica,sans-Serif" font-size="10.00" fill="#000000">::type_name</text>
</a>
</g>
</g>
<!-- Node389&#45;&gt;Node393 -->
<g id="edge5" class="edge">
<title>Node389&#45;&gt;Node393</title>
<path fill="none" stroke="#191970" d="M232.3688,-70.3819C250.6502,-61.0519 275.3353,-48.7074 297.457,-38.5 301.7575,-36.5157 306.2673,-34.4955 310.7835,-32.512"/>
<polygon fill="#191970" stroke="#191970" points="312.2164,-35.7056 319.9977,-28.5153 309.4308,-29.2837 312.2164,-35.7056"/>
</g>
</g>
</svg>
