<?xml version="1.0" encoding="UTF-8" standalone="no"?>
<!DOCTYPE svg PUBLIC "-//W3C//DTD SVG 1.1//EN"
 "http://www.w3.org/Graphics/SVG/1.1/DTD/svg11.dtd">
<!-- Generated by graphviz version 2.40.1 (20161225.0304)
 -->
<!-- Title: Parallel::Communicator::getNeighboursNeighbourNegativeLink Pages: 1 -->
<svg width="358pt" height="74pt"
 viewBox="0.00 0.00 357.85 74.00" xmlns="http://www.w3.org/2000/svg" xmlns:xlink="http://www.w3.org/1999/xlink">
<g id="graph0" class="graph" transform="scale(1 1) rotate(0) translate(4 70)">
<title>Parallel::Communicator::getNeighboursNeighbourNegativeLink</title>
<polygon fill="#ffffff" stroke="transparent" points="-4,4 -4,-70 353.8457,-70 353.8457,4 -4,4"/>
<!-- Node43 -->
<g id="node1" class="node">
<title>Node43</title>
<g id="a_node1"><a xlink:title="Parallel::Communicator::getNeighboursNeighbourNegativeLink.">
<polygon fill="#bfbfbf" stroke="#000000" points="0,-21.5 0,-49.5 190.5557,-49.5 190.5557,-21.5 0,-21.5"/>
<text text-anchor="start" x="8" y="-37.5" font-family="Helvetica,sans-Serif" font-size="10.00" fill="#000000">Parallel::Communicator</text>
<text text-anchor="middle" x="95.2778" y="-27.5" font-family="Helvetica,sans-Serif" font-size="10.00" fill="#000000">::getNeighboursNeighbourNegativeLink</text>
</a>
</g>
</g>
<!-- Node44 -->
<g id="node2" class="node">
<title>Node44</title>
<g id="a_node2"><a xlink:href="class_parallel_1_1_index.html#af31faeef1369fdc0997d1910e008bfe2" target="_top" xlink:title=" ">
<polygon fill="#ffffff" stroke="#000000" points="226.5557,-47.5 226.5557,-65.5 349.8457,-65.5 349.8457,-47.5 226.5557,-47.5"/>
<text text-anchor="middle" x="288.2007" y="-53.5" font-family="Helvetica,sans-Serif" font-size="10.00" fill="#000000">Parallel::Index::getIndex</text>
</a>
</g>
</g>
<!-- Node43&#45;&gt;Node44 -->
<g id="edge1" class="edge">
<title>Node43&#45;&gt;Node44</title>
<path fill="none" stroke="#191970" d="M190.6089,-45.877C199.2476,-46.8173 207.8984,-47.7589 216.2841,-48.6717"/>
<polygon fill="#191970" stroke="#191970" points="216.0426,-52.1661 226.3626,-49.7688 216.8001,-45.2072 216.0426,-52.1661"/>
</g>
<!-- Node45 -->
<g id="node3" class="node">
<title>Node45</title>
<g id="a_node3"><a xlink:href="class_parallel_1_1_neighbours.html#aa3e776b78a708f2c4ce9f287b81f263e" target="_top" xlink:title="Parallel::Neighbours::getNeighbours returns a reference to the neighbour list of given process rank.">
<polygon fill="#ffffff" stroke="#000000" points="235.1763,-.5 235.1763,-28.5 341.2251,-28.5 341.2251,-.5 235.1763,-.5"/>
<text text-anchor="start" x="243.1763" y="-16.5" font-family="Helvetica,sans-Serif" font-size="10.00" fill="#000000">Parallel::Neighbours</text>
<text text-anchor="middle" x="288.2007" y="-6.5" font-family="Helvetica,sans-Serif" font-size="10.00" fill="#000000">::getNeighbours</text>
</a>
</g>
</g>
<!-- Node43&#45;&gt;Node45 -->
<g id="edge2" class="edge">
<title>Node43&#45;&gt;Node45</title>
<path fill="none" stroke="#191970" d="M190.6089,-25.123C202.3106,-23.8493 214.0345,-22.5731 225.0916,-21.3695"/>
<polygon fill="#191970" stroke="#191970" points="225.4764,-24.8484 235.0389,-20.2868 224.7188,-17.8895 225.4764,-24.8484"/>
</g>
</g>
</svg>
