<?xml version="1.0" encoding="UTF-8" standalone="no"?>
<!DOCTYPE svg PUBLIC "-//W3C//DTD SVG 1.1//EN"
 "http://www.w3.org/Graphics/SVG/1.1/DTD/svg11.dtd">
<!-- Generated by graphviz version 2.40.1 (20161225.0304)
 -->
<!-- Title: SuperSampler::printObservable Pages: 1 -->
<svg width="365pt" height="242pt"
 viewBox="0.00 0.00 365.03 242.00" xmlns="http://www.w3.org/2000/svg" xmlns:xlink="http://www.w3.org/1999/xlink">
<g id="graph0" class="graph" transform="scale(1 1) rotate(0) translate(4 238)">
<title>SuperSampler::printObservable</title>
<polygon fill="#ffffff" stroke="transparent" points="-4,4 -4,-238 361.0332,-238 361.0332,4 -4,4"/>
<!-- Node49 -->
<g id="node1" class="node">
<title>Node49</title>
<g id="a_node1"><a xlink:title="Correlator::printObservable prints the observable for the output.">
<polygon fill="#bfbfbf" stroke="#000000" points="0,-112.5 0,-130.5 156.0684,-130.5 156.0684,-112.5 0,-112.5"/>
<text text-anchor="middle" x="78.0342" y="-118.5" font-family="Helvetica,sans-Serif" font-size="10.00" fill="#000000">SuperSampler::printObservable</text>
</a>
</g>
</g>
<!-- Node50 -->
<g id="node2" class="node">
<title>Node50</title>
<g id="a_node2"><a xlink:href="class_observable_storer.html#af03e1c58c3e0efff251ef9b65cc8d152" target="_top" xlink:title=" ">
<polygon fill="#ffffff" stroke="#000000" points="192.0684,-215.5 192.0684,-233.5 357.0332,-233.5 357.0332,-215.5 192.0684,-215.5"/>
<text text-anchor="middle" x="274.5508" y="-221.5" font-family="Helvetica,sans-Serif" font-size="10.00" fill="#000000">ObservableStorer::getObservable</text>
</a>
</g>
</g>
<!-- Node49&#45;&gt;Node50 -->
<g id="edge1" class="edge">
<title>Node49&#45;&gt;Node50</title>
<path fill="none" stroke="#191970" d="M87.1904,-130.5457C105.4678,-148.062 148.4802,-186.6307 192.0684,-206.5 197.0696,-208.7798 202.3755,-210.7779 207.7895,-212.5279"/>
<polygon fill="#191970" stroke="#191970" points="207.0277,-215.9521 217.609,-215.4174 209.0037,-209.2368 207.0277,-215.9521"/>
</g>
<!-- Node51 -->
<g id="node3" class="node">
<title>Node51</title>
<g id="a_node3"><a xlink:href="class_parameters.html#aae314edb18d426571ab7b6df60da70aa" target="_top" xlink:title=" ">
<polygon fill="#ffffff" stroke="#000000" points="214.312,-178.5 214.312,-196.5 334.7896,-196.5 334.7896,-178.5 214.312,-178.5"/>
<text text-anchor="middle" x="274.5508" y="-184.5" font-family="Helvetica,sans-Serif" font-size="10.00" fill="#000000">Parameters::getNFlows</text>
</a>
</g>
</g>
<!-- Node49&#45;&gt;Node51 -->
<g id="edge2" class="edge">
<title>Node49&#45;&gt;Node51</title>
<path fill="none" stroke="#191970" d="M96.6023,-130.5665C118.849,-141.1335 157.4605,-158.5423 192.0684,-169.5 199.8169,-171.9534 208.0788,-174.1885 216.268,-176.1847"/>
<polygon fill="#191970" stroke="#191970" points="215.6477,-179.634 226.1817,-178.4999 217.2397,-172.8174 215.6477,-179.634"/>
</g>
<!-- Node52 -->
<g id="node4" class="node">
<title>Node52</title>
<g id="a_node4"><a xlink:href="class_parallel_1_1_communicator.html#ae5739683ff54a7c39af6e37920e70ea5" target="_top" xlink:title="Parallel::Communicator::gatherDoubleResults.">
<polygon fill="#ffffff" stroke="#000000" points="214.5879,-131.5 214.5879,-159.5 334.5137,-159.5 334.5137,-131.5 214.5879,-131.5"/>
<text text-anchor="start" x="222.5879" y="-147.5" font-family="Helvetica,sans-Serif" font-size="10.00" fill="#000000">Parallel::Communicator</text>
<text text-anchor="middle" x="274.5508" y="-137.5" font-family="Helvetica,sans-Serif" font-size="10.00" fill="#000000">::gatherDoubleResults</text>
</a>
</g>
</g>
<!-- Node49&#45;&gt;Node52 -->
<g id="edge3" class="edge">
<title>Node49&#45;&gt;Node52</title>
<path fill="none" stroke="#191970" d="M151.7688,-130.505C168.9053,-132.5978 187.1049,-134.8205 204.0958,-136.8955"/>
<polygon fill="#191970" stroke="#191970" points="204.1479,-140.4278 214.4985,-138.166 204.9966,-133.4795 204.1479,-140.4278"/>
</g>
<!-- Node53 -->
<g id="node5" class="node">
<title>Node53</title>
<g id="a_node5"><a xlink:href="class_parallel_1_1_communicator.html#a474ab433da0e83ef372d74e26a7e5cb0" target="_top" xlink:title=" ">
<polygon fill="#ffffff" stroke="#000000" points="214.5879,-84.5 214.5879,-112.5 334.5137,-112.5 334.5137,-84.5 214.5879,-84.5"/>
<text text-anchor="start" x="222.5879" y="-100.5" font-family="Helvetica,sans-Serif" font-size="10.00" fill="#000000">Parallel::Communicator</text>
<text text-anchor="middle" x="274.5508" y="-90.5" font-family="Helvetica,sans-Serif" font-size="10.00" fill="#000000">::getProcessRank</text>
</a>
</g>
</g>
<!-- Node49&#45;&gt;Node53 -->
<g id="edge4" class="edge">
<title>Node49&#45;&gt;Node53</title>
<path fill="none" stroke="#191970" d="M155.1387,-112.4758C171.2808,-110.5866 188.2225,-108.6037 204.1072,-106.7446"/>
<polygon fill="#191970" stroke="#191970" points="204.8488,-110.1818 214.3741,-105.543 204.035,-103.2292 204.8488,-110.1818"/>
</g>
<!-- Node54 -->
<g id="node6" class="node">
<title>Node54</title>
<g id="a_node6"><a xlink:href="class_parameters.html#a96dbafc27f287de83dfaec3bc2d45efe" target="_top" xlink:title=" ">
<polygon fill="#ffffff" stroke="#000000" points="204.0239,-47.5 204.0239,-65.5 345.0776,-65.5 345.0776,-47.5 204.0239,-47.5"/>
<text text-anchor="middle" x="274.5508" y="-53.5" font-family="Helvetica,sans-Serif" font-size="10.00" fill="#000000">Parameters::getFlowEpsilon</text>
</a>
</g>
</g>
<!-- Node49&#45;&gt;Node54 -->
<g id="edge5" class="edge">
<title>Node49&#45;&gt;Node54</title>
<path fill="none" stroke="#191970" d="M97.8732,-112.386C120.3529,-102.3219 158.2658,-86.1386 192.0684,-75.5 200.8181,-72.7462 210.2048,-70.2057 219.3978,-67.9382"/>
<polygon fill="#191970" stroke="#191970" points="220.342,-71.3113 229.2577,-65.5877 218.7187,-64.5021 220.342,-71.3113"/>
</g>
<!-- Node55 -->
<g id="node7" class="node">
<title>Node55</title>
<g id="a_node7"><a xlink:href="class_parallel_1_1_communicator.html#a7b1f80fb49a0cc83f2031c3415174150" target="_top" xlink:title=" ">
<polygon fill="#ffffff" stroke="#000000" points="214.5879,-.5 214.5879,-28.5 334.5137,-28.5 334.5137,-.5 214.5879,-.5"/>
<text text-anchor="start" x="222.5879" y="-16.5" font-family="Helvetica,sans-Serif" font-size="10.00" fill="#000000">Parallel::Communicator</text>
<text text-anchor="middle" x="274.5508" y="-6.5" font-family="Helvetica,sans-Serif" font-size="10.00" fill="#000000">::getNumProc</text>
</a>
</g>
</g>
<!-- Node49&#45;&gt;Node55 -->
<g id="edge6" class="edge">
<title>Node49&#45;&gt;Node55</title>
<path fill="none" stroke="#191970" d="M87.9383,-112.4144C106.8208,-95.5425 149.8616,-59.21 192.0684,-38.5 196.9218,-36.1185 202.0546,-33.9302 207.2903,-31.9282"/>
<polygon fill="#191970" stroke="#191970" points="208.5549,-35.1931 216.7876,-28.5243 206.193,-28.6035 208.5549,-35.1931"/>
</g>
</g>
</svg>
