<?xml version="1.0" encoding="UTF-8" standalone="no"?>
<!DOCTYPE svg PUBLIC "-//W3C//DTD SVG 1.1//EN"
 "http://www.w3.org/Graphics/SVG/1.1/DTD/svg11.dtd">
<!-- Generated by graphviz version 2.40.1 (20161225.0304)
 -->
<!-- Title: Parameters::getTaylorPolDegree Pages: 1 -->
<svg width="510pt" height="37pt"
 viewBox="0.00 0.00 509.58 37.00" xmlns="http://www.w3.org/2000/svg" xmlns:xlink="http://www.w3.org/1999/xlink">
<g id="graph0" class="graph" transform="scale(1 1) rotate(0) translate(4 33)">
<title>Parameters::getTaylorPolDegree</title>
<polygon fill="#ffffff" stroke="transparent" points="-4,4 -4,-33 505.5801,-33 505.5801,4 -4,4"/>
<!-- Node349 -->
<g id="node1" class="node">
<title>Node349</title>
<g id="a_node1"><a xlink:title=" ">
<polygon fill="#bfbfbf" stroke="#000000" points="373.3096,-.5 373.3096,-28.5 501.5801,-28.5 501.5801,-.5 373.3096,-.5"/>
<text text-anchor="start" x="381.3096" y="-16.5" font-family="Helvetica,sans-Serif" font-size="10.00" fill="#000000">Parameters::getTaylorPol</text>
<text text-anchor="middle" x="437.4448" y="-6.5" font-family="Helvetica,sans-Serif" font-size="10.00" fill="#000000">Degree</text>
</a>
</g>
</g>
<!-- Node350 -->
<g id="node2" class="node">
<title>Node350</title>
<g id="a_node2"><a xlink:href="class_performance_tests.html#aa55ebdbc84db93cc45adfdf7163f90b4" target="_top" xlink:title="PerformanceTests::run initiates performance testing on:">
<polygon fill="#ffffff" stroke="#000000" points="220.7139,-5.5 220.7139,-23.5 337.3096,-23.5 337.3096,-5.5 220.7139,-5.5"/>
<text text-anchor="middle" x="279.0117" y="-11.5" font-family="Helvetica,sans-Serif" font-size="10.00" fill="#000000">PerformanceTests::run</text>
</a>
</g>
</g>
<!-- Node349&#45;&gt;Node350 -->
<g id="edge1" class="edge">
<title>Node349&#45;&gt;Node350</title>
<path fill="none" stroke="#191970" d="M362.7396,-14.5C354.2753,-14.5 345.742,-14.5 337.5281,-14.5"/>
<polygon fill="#191970" stroke="#191970" points="363.004,-18.0001 373.004,-14.5 363.004,-11.0001 363.004,-18.0001"/>
</g>
<!-- Node351 -->
<g id="node3" class="node">
<title>Node351</title>
<g id="a_node3"><a xlink:href="test_8h.html#a78e241f531e5203858fdb59a4162d6ba" target="_top" xlink:title="runPerformanceTests will run performance tests on program. Exits once complete.">
<polygon fill="#ffffff" stroke="#000000" points="73.6748,-5.5 73.6748,-23.5 184.7139,-23.5 184.7139,-5.5 73.6748,-5.5"/>
<text text-anchor="middle" x="129.1943" y="-11.5" font-family="Helvetica,sans-Serif" font-size="10.00" fill="#000000">runPerformanceTests</text>
</a>
</g>
</g>
<!-- Node350&#45;&gt;Node351 -->
<g id="edge2" class="edge">
<title>Node350&#45;&gt;Node351</title>
<path fill="none" stroke="#191970" d="M210.43,-14.5C201.9757,-14.5 193.4131,-14.5 185.1772,-14.5"/>
<polygon fill="#191970" stroke="#191970" points="210.6595,-18.0001 220.6594,-14.5 210.6594,-11.0001 210.6595,-18.0001"/>
</g>
<!-- Node352 -->
<g id="node4" class="node">
<title>Node352</title>
<g id="a_node4"><a xlink:href="main_8cpp.html#a4e6f00a867970a9eedf47b88a27b9eea" target="_top" xlink:title="main loads in configurations and initiates program according to .json specifications.">
<polygon fill="#ffffff" stroke="#000000" points="0,-5.5 0,-23.5 37.6748,-23.5 37.6748,-5.5 0,-5.5"/>
<text text-anchor="middle" x="18.8374" y="-11.5" font-family="Helvetica,sans-Serif" font-size="10.00" fill="#000000">main</text>
</a>
</g>
</g>
<!-- Node351&#45;&gt;Node352 -->
<g id="edge3" class="edge">
<title>Node351&#45;&gt;Node352</title>
<path fill="none" stroke="#191970" d="M63.2067,-14.5C53.9462,-14.5 45.1085,-14.5 37.7927,-14.5"/>
<polygon fill="#191970" stroke="#191970" points="63.3693,-18.0001 73.3693,-14.5 63.3692,-11.0001 63.3693,-18.0001"/>
</g>
</g>
</svg>
