<?xml version="1.0" encoding="UTF-8" standalone="no"?>
<!DOCTYPE svg PUBLIC "-//W3C//DTD SVG 1.1//EN"
 "http://www.w3.org/Graphics/SVG/1.1/DTD/svg11.dtd">
<!-- Generated by graphviz version 2.40.1 (20161225.0304)
 -->
<!-- Title: LatticeActionChargeDensity::initializeObservableStorer Pages: 1 -->
<svg width="374pt" height="232pt"
 viewBox="0.00 0.00 374.48 232.00" xmlns="http://www.w3.org/2000/svg" xmlns:xlink="http://www.w3.org/1999/xlink">
<g id="graph0" class="graph" transform="scale(1 1) rotate(0) translate(4 228)">
<title>LatticeActionChargeDensity::initializeObservableStorer</title>
<polygon fill="#ffffff" stroke="transparent" points="-4,4 -4,-228 370.4766,-228 370.4766,4 -4,4"/>
<!-- Node46 -->
<g id="node1" class="node">
<title>Node46</title>
<g id="a_node1"><a xlink:title="Correlator::initializeObservableStorer initializes ObservableStorer.">
<polygon fill="#bfbfbf" stroke="#000000" points="0,-97.5 0,-125.5 139.3984,-125.5 139.3984,-97.5 0,-97.5"/>
<text text-anchor="start" x="8" y="-113.5" font-family="Helvetica,sans-Serif" font-size="10.00" fill="#000000">LatticeActionChargeDensity</text>
<text text-anchor="middle" x="69.6992" y="-103.5" font-family="Helvetica,sans-Serif" font-size="10.00" fill="#000000">::initializeObservableStorer</text>
</a>
</g>
</g>
<!-- Node47 -->
<g id="node2" class="node">
<title>Node47</title>
<g id="a_node2"><a xlink:href="class_parameters.html#aae314edb18d426571ab7b6df60da70aa" target="_top" xlink:title=" ">
<polygon fill="#ffffff" stroke="#000000" points="210.6987,-205.5 210.6987,-223.5 331.1763,-223.5 331.1763,-205.5 210.6987,-205.5"/>
<text text-anchor="middle" x="270.9375" y="-211.5" font-family="Helvetica,sans-Serif" font-size="10.00" fill="#000000">Parameters::getNFlows</text>
</a>
</g>
</g>
<!-- Node46&#45;&gt;Node47 -->
<g id="edge1" class="edge">
<title>Node46&#45;&gt;Node47</title>
<path fill="none" stroke="#191970" d="M82.8691,-125.805C101.5059,-145.1017 137.5432,-179.0585 175.3984,-196.5 183.362,-200.1692 192.0278,-203.0904 200.7829,-205.4162"/>
<polygon fill="#191970" stroke="#191970" points="200.1314,-208.8593 210.6728,-207.7972 201.7698,-202.0537 200.1314,-208.8593"/>
</g>
<!-- Node48 -->
<g id="node3" class="node">
<title>Node48</title>
<g id="a_node3"><a xlink:href="class_parameters.html#a216f85b3c5980a33f8a54c42fb3575c7" target="_top" xlink:title=" ">
<polygon fill="#ffffff" stroke="#000000" points="182.625,-158.5 182.625,-186.5 359.25,-186.5 359.25,-158.5 182.625,-158.5"/>
<text text-anchor="start" x="190.625" y="-174.5" font-family="Helvetica,sans-Serif" font-size="10.00" fill="#000000">Parameters::getStoreThermalization</text>
<text text-anchor="middle" x="270.9375" y="-164.5" font-family="Helvetica,sans-Serif" font-size="10.00" fill="#000000">Observables</text>
</a>
</g>
</g>
<!-- Node46&#45;&gt;Node48 -->
<g id="edge2" class="edge">
<title>Node46&#45;&gt;Node48</title>
<path fill="none" stroke="#191970" d="M106.0612,-125.6797C126.2975,-133.2902 152.0455,-142.5138 175.3984,-149.5 182.8111,-151.7175 190.5957,-153.8712 198.3879,-155.914"/>
<polygon fill="#191970" stroke="#191970" points="197.6787,-159.3453 208.2346,-158.4388 199.4173,-152.5647 197.6787,-159.3453"/>
</g>
<!-- Node49 -->
<g id="node4" class="node">
<title>Node49</title>
<g id="a_node4"><a xlink:href="class_parameters.html#a03f8c0aa2a31b9bfc016441cb263082c" target="_top" xlink:title=" ">
<polygon fill="#ffffff" stroke="#000000" points="218.7554,-121.5 218.7554,-139.5 323.1196,-139.5 323.1196,-121.5 218.7554,-121.5"/>
<text text-anchor="middle" x="270.9375" y="-127.5" font-family="Helvetica,sans-Serif" font-size="10.00" fill="#000000">Parameters::getNCf</text>
</a>
</g>
</g>
<!-- Node46&#45;&gt;Node49 -->
<g id="edge3" class="edge">
<title>Node46&#45;&gt;Node49</title>
<path fill="none" stroke="#191970" d="M139.5178,-118.092C161.9598,-120.2108 186.6642,-122.5433 208.538,-124.6085"/>
<polygon fill="#191970" stroke="#191970" points="208.4126,-128.1122 218.6974,-125.5677 209.0707,-121.1432 208.4126,-128.1122"/>
</g>
<!-- Node50 -->
<g id="node5" class="node">
<title>Node50</title>
<g id="a_node5"><a xlink:href="class_parameters.html#ad1f56cc1bb6c19f40454b30a5bc82da6" target="_top" xlink:title=" ">
<polygon fill="#ffffff" stroke="#000000" points="209.3096,-84.5 209.3096,-102.5 332.5654,-102.5 332.5654,-84.5 209.3096,-84.5"/>
<text text-anchor="middle" x="270.9375" y="-90.5" font-family="Helvetica,sans-Serif" font-size="10.00" fill="#000000">Parameters::getNTherm</text>
</a>
</g>
</g>
<!-- Node46&#45;&gt;Node50 -->
<g id="edge4" class="edge">
<title>Node46&#45;&gt;Node50</title>
<path fill="none" stroke="#191970" d="M139.5178,-105.255C158.8518,-103.5256 179.8648,-101.6461 199.3006,-99.9077"/>
<polygon fill="#191970" stroke="#191970" points="199.6548,-103.39 209.3032,-99.013 199.0311,-96.4179 199.6548,-103.39"/>
</g>
<!-- Node51 -->
<g id="node6" class="node">
<title>Node51</title>
<g id="a_node6"><a xlink:href="class_observable_storer.html#a6177ade7609fb0e4b739955eecba20e6" target="_top" xlink:title=" ">
<polygon fill="#ffffff" stroke="#000000" points="191.7998,-37.5 191.7998,-65.5 350.0752,-65.5 350.0752,-37.5 191.7998,-37.5"/>
<text text-anchor="start" x="199.7998" y="-53.5" font-family="Helvetica,sans-Serif" font-size="10.00" fill="#000000">ObservableStorer::setNormalize</text>
<text text-anchor="middle" x="270.9375" y="-43.5" font-family="Helvetica,sans-Serif" font-size="10.00" fill="#000000">ObservableByProcessor</text>
</a>
</g>
</g>
<!-- Node46&#45;&gt;Node51 -->
<g id="edge5" class="edge">
<title>Node46&#45;&gt;Node51</title>
<path fill="none" stroke="#191970" d="M108.6075,-97.3938C128.469,-90.4114 153.0884,-82.0894 175.3984,-75.5 184.0105,-72.9564 193.1091,-70.4465 202.1322,-68.0636"/>
<polygon fill="#191970" stroke="#191970" points="203.0699,-71.4362 211.8671,-65.5321 201.3081,-64.6616 203.0699,-71.4362"/>
</g>
<!-- Node52 -->
<g id="node7" class="node">
<title>Node52</title>
<g id="a_node7"><a xlink:href="class_observable_storer.html#a7f4847c4fdbf8764d8f07950c4d4b62a" target="_top" xlink:title=" ">
<polygon fill="#ffffff" stroke="#000000" points="175.3984,-.5 175.3984,-18.5 366.4766,-18.5 366.4766,-.5 175.3984,-.5"/>
<text text-anchor="middle" x="270.9375" y="-6.5" font-family="Helvetica,sans-Serif" font-size="10.00" fill="#000000">ObservableStorer::setObservableName</text>
</a>
</g>
</g>
<!-- Node46&#45;&gt;Node52 -->
<g id="edge6" class="edge">
<title>Node46&#45;&gt;Node52</title>
<path fill="none" stroke="#191970" d="M83.284,-97.2756C102.1209,-78.4528 138.0894,-45.6557 175.3984,-28.5 181.4892,-25.6993 187.9844,-23.3104 194.6129,-21.2729"/>
<polygon fill="#191970" stroke="#191970" points="195.7043,-24.602 204.3881,-18.5322 193.8145,-17.8619 195.7043,-24.602"/>
</g>
</g>
</svg>
