<?xml version="1.0" encoding="UTF-8" standalone="no"?>
<!DOCTYPE svg PUBLIC "-//W3C//DTD SVG 1.1//EN"
 "http://www.w3.org/Graphics/SVG/1.1/DTD/svg11.dtd">
<!-- Generated by graphviz version 2.40.1 (20161225.0304)
 -->
<!-- Title: nlohmann::basic_json::find Pages: 1 -->
<svg width="292pt" height="74pt"
 viewBox="0.00 0.00 291.70 74.00" xmlns="http://www.w3.org/2000/svg" xmlns:xlink="http://www.w3.org/1999/xlink">
<g id="graph0" class="graph" transform="scale(1 1) rotate(0) translate(4 70)">
<title>nlohmann::basic_json::find</title>
<polygon fill="#ffffff" stroke="transparent" points="-4,4 -4,-70 287.6982,-70 287.6982,4 -4,4"/>
<!-- Node163 -->
<g id="node1" class="node">
<title>Node163</title>
<g id="a_node1"><a xlink:title="find an element in a JSON object">
<polygon fill="#bfbfbf" stroke="#000000" points="0,-21.5 0,-49.5 112.7285,-49.5 112.7285,-21.5 0,-21.5"/>
<text text-anchor="start" x="8" y="-37.5" font-family="Helvetica,sans-Serif" font-size="10.00" fill="#000000">nlohmann::basic_json</text>
<text text-anchor="middle" x="56.3643" y="-27.5" font-family="Helvetica,sans-Serif" font-size="10.00" fill="#000000">::find</text>
</a>
</g>
</g>
<!-- Node164 -->
<g id="node2" class="node">
<title>Node164</title>
<g id="a_node2"><a xlink:href="classnlohmann_1_1basic__json.html#a13e032a02a7fd8a93fdddc2fcbc4763c" target="_top" xlink:title="returns an iterator to one past the last element">
<polygon fill="#ffffff" stroke="#000000" points="148.7285,-47.5 148.7285,-65.5 283.6982,-65.5 283.6982,-47.5 148.7285,-47.5"/>
<text text-anchor="middle" x="216.2134" y="-53.5" font-family="Helvetica,sans-Serif" font-size="10.00" fill="#000000">nlohmann::basic_json::end</text>
</a>
</g>
</g>
<!-- Node163&#45;&gt;Node164 -->
<g id="edge1" class="edge">
<title>Node163&#45;&gt;Node164</title>
<path fill="none" stroke="#191970" d="M113.1712,-42.9629C121.4269,-44.0475 130.0428,-45.1794 138.6227,-46.3066"/>
<polygon fill="#191970" stroke="#191970" points="138.2839,-49.7921 148.6547,-47.6245 139.1958,-42.8517 138.2839,-49.7921"/>
</g>
<!-- Node165 -->
<g id="node3" class="node">
<title>Node165</title>
<g id="a_node3"><a xlink:href="classnlohmann_1_1basic__json.html#af8f511af124e82e4579f444b4175787c" target="_top" xlink:title="return whether value is an object">
<polygon fill="#ffffff" stroke="#000000" points="159.8491,-.5 159.8491,-28.5 272.5776,-28.5 272.5776,-.5 159.8491,-.5"/>
<text text-anchor="start" x="167.8491" y="-16.5" font-family="Helvetica,sans-Serif" font-size="10.00" fill="#000000">nlohmann::basic_json</text>
<text text-anchor="middle" x="216.2134" y="-6.5" font-family="Helvetica,sans-Serif" font-size="10.00" fill="#000000">::is_object</text>
</a>
</g>
</g>
<!-- Node163&#45;&gt;Node165 -->
<g id="edge2" class="edge">
<title>Node163&#45;&gt;Node165</title>
<path fill="none" stroke="#191970" d="M113.1712,-28.0371C124.9491,-26.4897 137.4599,-24.8462 149.5538,-23.2573"/>
<polygon fill="#191970" stroke="#191970" points="150.1305,-26.7117 159.5894,-21.9389 149.2187,-19.7714 150.1305,-26.7117"/>
</g>
</g>
</svg>
