<?xml version="1.0" encoding="UTF-8" standalone="no"?>
<!DOCTYPE svg PUBLIC "-//W3C//DTD SVG 1.1//EN"
 "http://www.w3.org/Graphics/SVG/1.1/DTD/svg11.dtd">
<!-- Generated by graphviz version 2.40.1 (20161225.0304)
 -->
<!-- Title: TopologicalCharge::TopologicalCharge Pages: 1 -->
<svg width="339pt" height="111pt"
 viewBox="0.00 0.00 339.47 111.00" xmlns="http://www.w3.org/2000/svg" xmlns:xlink="http://www.w3.org/1999/xlink">
<g id="graph0" class="graph" transform="scale(1 1) rotate(0) translate(4 107)">
<title>TopologicalCharge::TopologicalCharge</title>
<polygon fill="#ffffff" stroke="transparent" points="-4,4 -4,-107 335.4668,-107 335.4668,4 -4,4"/>
<!-- Node0 -->
<g id="node1" class="node">
<title>Node0</title>
<g id="a_node1"><a xlink:title=" ">
<polygon fill="#bfbfbf" stroke="#000000" points="0,-37.5 0,-65.5 104.3887,-65.5 104.3887,-37.5 0,-37.5"/>
<text text-anchor="start" x="8" y="-53.5" font-family="Helvetica,sans-Serif" font-size="10.00" fill="#000000">TopologicalCharge::</text>
<text text-anchor="middle" x="52.1943" y="-43.5" font-family="Helvetica,sans-Serif" font-size="10.00" fill="#000000">TopologicalCharge</text>
</a>
</g>
</g>
<!-- Node1 -->
<g id="node2" class="node">
<title>Node1</title>
<g id="a_node2"><a xlink:href="class_observable_storer.html#a7f4847c4fdbf8764d8f07950c4d4b62a" target="_top" xlink:title=" ">
<polygon fill="#ffffff" stroke="#000000" points="140.3887,-84.5 140.3887,-102.5 331.4668,-102.5 331.4668,-84.5 140.3887,-84.5"/>
<text text-anchor="middle" x="235.9277" y="-90.5" font-family="Helvetica,sans-Serif" font-size="10.00" fill="#000000">ObservableStorer::setObservableName</text>
</a>
</g>
</g>
<!-- Node0&#45;&gt;Node1 -->
<g id="edge1" class="edge">
<title>Node0&#45;&gt;Node1</title>
<path fill="none" stroke="#191970" d="M101.0021,-65.5248C113.7693,-68.989 127.5528,-72.5492 140.3887,-75.5 151.0936,-77.9609 162.53,-80.3338 173.6342,-82.5045"/>
<polygon fill="#191970" stroke="#191970" points="173.2274,-85.9902 183.7079,-84.4378 174.5468,-79.1157 173.2274,-85.9902"/>
</g>
<!-- Node2 -->
<g id="node3" class="node">
<title>Node2</title>
<g id="a_node3"><a xlink:href="class_observable_storer.html#a6177ade7609fb0e4b739955eecba20e6" target="_top" xlink:title=" ">
<polygon fill="#ffffff" stroke="#000000" points="156.79,-37.5 156.79,-65.5 315.0654,-65.5 315.0654,-37.5 156.79,-37.5"/>
<text text-anchor="start" x="164.79" y="-53.5" font-family="Helvetica,sans-Serif" font-size="10.00" fill="#000000">ObservableStorer::setNormalize</text>
<text text-anchor="middle" x="235.9277" y="-43.5" font-family="Helvetica,sans-Serif" font-size="10.00" fill="#000000">ObservableByProcessor</text>
</a>
</g>
</g>
<!-- Node0&#45;&gt;Node2 -->
<g id="edge2" class="edge">
<title>Node0&#45;&gt;Node2</title>
<path fill="none" stroke="#191970" d="M104.845,-51.5C117.8151,-51.5 132.0691,-51.5 146.2533,-51.5"/>
<polygon fill="#191970" stroke="#191970" points="146.55,-55.0001 156.55,-51.5 146.55,-48.0001 146.55,-55.0001"/>
</g>
<!-- Node3 -->
<g id="node4" class="node">
<title>Node3</title>
<g id="a_node4"><a xlink:href="class_lattice.html#a5b4e162f06f7b4b90b4a9335ed2aabb5" target="_top" xlink:title="allocate method for allocating memory.">
<polygon fill="#ffffff" stroke="#000000" points="193.1841,-.5 193.1841,-18.5 278.6714,-18.5 278.6714,-.5 193.1841,-.5"/>
<text text-anchor="middle" x="235.9277" y="-6.5" font-family="Helvetica,sans-Serif" font-size="10.00" fill="#000000">Lattice::allocate</text>
</a>
</g>
</g>
<!-- Node0&#45;&gt;Node3 -->
<g id="edge3" class="edge">
<title>Node0&#45;&gt;Node3</title>
<path fill="none" stroke="#191970" d="M103.8343,-37.4901C115.8031,-34.394 128.5135,-31.2268 140.3887,-28.5 154.1825,-25.3327 169.1677,-22.2057 183.0913,-19.4312"/>
<polygon fill="#191970" stroke="#191970" points="183.8748,-22.8442 193.0099,-17.4777 182.5221,-15.9761 183.8748,-22.8442"/>
</g>
</g>
</svg>
