<?xml version="1.0" encoding="UTF-8" standalone="no"?>
<!DOCTYPE svg PUBLIC "-//W3C//DTD SVG 1.1//EN"
 "http://www.w3.org/Graphics/SVG/1.1/DTD/svg11.dtd">
<!-- Generated by graphviz version 2.40.1 (20161225.0304)
 -->
<!-- Title: MasterSamplerTopcXYZ::runStatistics Pages: 1 -->
<svg width="479pt" height="74pt"
 viewBox="0.00 0.00 478.68 74.00" xmlns="http://www.w3.org/2000/svg" xmlns:xlink="http://www.w3.org/1999/xlink">
<g id="graph0" class="graph" transform="scale(1 1) rotate(0) translate(4 70)">
<title>MasterSamplerTopcXYZ::runStatistics</title>
<polygon fill="#ffffff" stroke="transparent" points="-4,4 -4,-70 474.6836,-70 474.6836,4 -4,4"/>
<!-- Node63 -->
<g id="node1" class="node">
<title>Node63</title>
<g id="a_node1"><a xlink:title="Correlator::runStatistics.">
<polygon fill="#bfbfbf" stroke="#000000" points="0,-16.5 0,-44.5 124.3691,-44.5 124.3691,-16.5 0,-16.5"/>
<text text-anchor="start" x="8" y="-32.5" font-family="Helvetica,sans-Serif" font-size="10.00" fill="#000000">MasterSamplerTopcXYZ</text>
<text text-anchor="middle" x="62.1846" y="-22.5" font-family="Helvetica,sans-Serif" font-size="10.00" fill="#000000">::runStatistics</text>
</a>
</g>
</g>
<!-- Node64 -->
<g id="node2" class="node">
<title>Node64</title>
<g id="a_node2"><a xlink:href="class_observable_storer.html#a593f13b0dd0f9d20608ef6b84fda3f1d" target="_top" xlink:title="ObservableStorer::gatherResults.">
<polygon fill="#ffffff" stroke="#000000" points="173.4233,-37.5 173.4233,-65.5 301.7036,-65.5 301.7036,-37.5 173.4233,-37.5"/>
<text text-anchor="start" x="181.4233" y="-53.5" font-family="Helvetica,sans-Serif" font-size="10.00" fill="#000000">ObservableStorer::gather</text>
<text text-anchor="middle" x="237.5635" y="-43.5" font-family="Helvetica,sans-Serif" font-size="10.00" fill="#000000">Results</text>
</a>
</g>
</g>
<!-- Node63&#45;&gt;Node64 -->
<g id="edge1" class="edge">
<title>Node63&#45;&gt;Node64</title>
<path fill="none" stroke="#191970" d="M124.5104,-37.9629C137.018,-39.4606 150.2789,-41.0485 163.1492,-42.5896"/>
<polygon fill="#191970" stroke="#191970" points="163.0202,-46.099 173.3654,-43.8129 163.8525,-39.1487 163.0202,-46.099"/>
</g>
<!-- Node66 -->
<g id="node4" class="node">
<title>Node66</title>
<g id="a_node4"><a xlink:href="class_observable_storer.html#a41b3756b423d31c6535d2981ef92d1a1" target="_top" xlink:title="ObservableStorer::runStatistics.">
<polygon fill="#ffffff" stroke="#000000" points="160.3691,-.5 160.3691,-18.5 314.7578,-18.5 314.7578,-.5 160.3691,-.5"/>
<text text-anchor="middle" x="237.5635" y="-6.5" font-family="Helvetica,sans-Serif" font-size="10.00" fill="#000000">ObservableStorer::runStatistics</text>
</a>
</g>
</g>
<!-- Node63&#45;&gt;Node66 -->
<g id="edge3" class="edge">
<title>Node63&#45;&gt;Node66</title>
<path fill="none" stroke="#191970" d="M124.5104,-23.0371C133.476,-21.9635 142.8286,-20.8436 152.1469,-19.7278"/>
<polygon fill="#191970" stroke="#191970" points="152.712,-23.1853 162.2249,-18.5211 151.8797,-16.2349 152.712,-23.1853"/>
</g>
<!-- Node65 -->
<g id="node3" class="node">
<title>Node65</title>
<g id="a_node3"><a xlink:href="class_parallel_1_1_communicator.html#a7b1f80fb49a0cc83f2031c3415174150" target="_top" xlink:title=" ">
<polygon fill="#ffffff" stroke="#000000" points="350.7578,-37.5 350.7578,-65.5 470.6836,-65.5 470.6836,-37.5 350.7578,-37.5"/>
<text text-anchor="start" x="358.7578" y="-53.5" font-family="Helvetica,sans-Serif" font-size="10.00" fill="#000000">Parallel::Communicator</text>
<text text-anchor="middle" x="410.7207" y="-43.5" font-family="Helvetica,sans-Serif" font-size="10.00" fill="#000000">::getNumProc</text>
</a>
</g>
</g>
<!-- Node64&#45;&gt;Node65 -->
<g id="edge2" class="edge">
<title>Node64&#45;&gt;Node65</title>
<path fill="none" stroke="#191970" d="M302.0408,-51.5C314.5597,-51.5 327.7392,-51.5 340.434,-51.5"/>
<polygon fill="#191970" stroke="#191970" points="340.4891,-55.0001 350.4891,-51.5 340.4891,-48.0001 340.4891,-55.0001"/>
</g>
</g>
</svg>
