<?xml version="1.0" encoding="UTF-8" standalone="no"?>
<!DOCTYPE svg PUBLIC "-//W3C//DTD SVG 1.1//EN"
 "http://www.w3.org/Graphics/SVG/1.1/DTD/svg11.dtd">
<!-- Generated by graphviz version 2.40.1 (20161225.0304)
 -->
<!-- Title: Parameters::getBeta Pages: 1 -->
<svg width="732pt" height="463pt"
 viewBox="0.00 0.00 731.88 463.00" xmlns="http://www.w3.org/2000/svg" xmlns:xlink="http://www.w3.org/1999/xlink">
<g id="graph0" class="graph" transform="scale(1 1) rotate(0) translate(4 459)">
<title>Parameters::getBeta</title>
<polygon fill="#ffffff" stroke="transparent" points="-4,4 -4,-459 727.8848,-459 727.8848,4 -4,4"/>
<!-- Node30 -->
<g id="node1" class="node">
<title>Node30</title>
<g id="a_node1"><a xlink:title=" ">
<polygon fill="#bfbfbf" stroke="#000000" points="616.1709,-310.5 616.1709,-328.5 723.8848,-328.5 723.8848,-310.5 616.1709,-310.5"/>
<text text-anchor="middle" x="670.0278" y="-316.5" font-family="Helvetica,sans-Serif" font-size="10.00" fill="#000000">Parameters::getBeta</text>
</a>
</g>
</g>
<!-- Node31 -->
<g id="node2" class="node">
<title>Node31</title>
<g id="a_node2"><a xlink:href="class_luscher_action.html#a2389aab5b35b4c5ccb0ae5a45f68430b" target="_top" xlink:title=" ">
<polygon fill="#ffffff" stroke="#000000" points="429.9473,-436.5 429.9473,-454.5 578.2422,-454.5 578.2422,-436.5 429.9473,-436.5"/>
<text text-anchor="middle" x="504.0947" y="-442.5" font-family="Helvetica,sans-Serif" font-size="10.00" fill="#000000">LuscherAction::LuscherAction</text>
</a>
</g>
</g>
<!-- Node30&#45;&gt;Node31 -->
<g id="edge1" class="edge">
<title>Node30&#45;&gt;Node31</title>
<path fill="none" stroke="#191970" d="M660.0404,-337.6523C645.6671,-362.0049 616.802,-404.8095 580.1709,-427.5 574.2865,-431.145 567.7273,-434.0521 560.9958,-436.3706"/>
<polygon fill="#191970" stroke="#191970" points="663.2121,-339.1564 665.1385,-328.7382 657.1357,-335.6812 663.2121,-339.1564"/>
</g>
<!-- Node32 -->
<g id="node3" class="node">
<title>Node32</title>
<g id="a_node3"><a xlink:href="class_wilson_gauge_action.html#a50d06446cf93f7e738e88c372920f518" target="_top" xlink:title=" ">
<polygon fill="#ffffff" stroke="#000000" points="449.4053,-389.5 449.4053,-417.5 558.7842,-417.5 558.7842,-389.5 449.4053,-389.5"/>
<text text-anchor="start" x="457.4053" y="-405.5" font-family="Helvetica,sans-Serif" font-size="10.00" fill="#000000">WilsonGaugeAction::</text>
<text text-anchor="middle" x="504.0947" y="-395.5" font-family="Helvetica,sans-Serif" font-size="10.00" fill="#000000">WilsonGaugeAction</text>
</a>
</g>
</g>
<!-- Node30&#45;&gt;Node32 -->
<g id="edge2" class="edge">
<title>Node30&#45;&gt;Node32</title>
<path fill="none" stroke="#191970" d="M650.8368,-335.0727C633.3198,-348.6475 606.2578,-368.0593 580.1709,-380.5 573.1965,-383.8261 565.633,-386.7976 558.0719,-389.4105"/>
<polygon fill="#191970" stroke="#191970" points="653.3898,-337.5165 659.0713,-328.5738 649.0531,-332.0216 653.3898,-337.5165"/>
</g>
<!-- Node33 -->
<g id="node4" class="node">
<title>Node33</title>
<g id="a_node4"><a xlink:href="class_i_o_1_1_field_i_o.html#a8af607f9a1d79e90d4514c36103c6601" target="_top" xlink:title="IO::FieldIO::writeFieldToFile writes a lattice of SU3 matrix objects to file.">
<polygon fill="#ffffff" stroke="#000000" points="434.4126,-352.5 434.4126,-370.5 573.7769,-370.5 573.7769,-352.5 434.4126,-352.5"/>
<text text-anchor="middle" x="504.0947" y="-358.5" font-family="Helvetica,sans-Serif" font-size="10.00" fill="#000000">IO::FieldIO::writeFieldToFile</text>
</a>
</g>
</g>
<!-- Node30&#45;&gt;Node33 -->
<g id="edge3" class="edge">
<title>Node30&#45;&gt;Node33</title>
<path fill="none" stroke="#191970" d="M627.2712,-331.188C612.3876,-335.1853 595.5649,-339.6239 580.1709,-343.5 568.1939,-346.5157 555.119,-349.6619 543.2401,-352.4647"/>
<polygon fill="#191970" stroke="#191970" points="628.4806,-334.4869 637.2241,-328.5034 626.6576,-327.7285 628.4806,-334.4869"/>
</g>
<!-- Node34 -->
<g id="node5" class="node">
<title>Node34</title>
<g id="a_node5"><a xlink:href="class_i_o_1_1_field_i_o.html#aaf2bac2025d67c06e7c61e8cc9f44777" target="_top" xlink:title="IO::FieldIO::writeDoublesFieldToFile writes a lattice of doubles to file.">
<polygon fill="#ffffff" stroke="#000000" points="440.2427,-305.5 440.2427,-333.5 567.9468,-333.5 567.9468,-305.5 440.2427,-305.5"/>
<text text-anchor="start" x="448.2427" y="-321.5" font-family="Helvetica,sans-Serif" font-size="10.00" fill="#000000">IO::FieldIO::writeDoubles</text>
<text text-anchor="middle" x="504.0947" y="-311.5" font-family="Helvetica,sans-Serif" font-size="10.00" fill="#000000">FieldToFile</text>
</a>
</g>
</g>
<!-- Node30&#45;&gt;Node34 -->
<g id="edge4" class="edge">
<title>Node30&#45;&gt;Node34</title>
<path fill="none" stroke="#191970" d="M605.9019,-319.5C593.4997,-319.5 580.5045,-319.5 568.106,-319.5"/>
<polygon fill="#191970" stroke="#191970" points="606.1541,-323.0001 616.1541,-319.5 606.1541,-316.0001 606.1541,-323.0001"/>
</g>
<!-- Node36 -->
<g id="node7" class="node">
<title>Node36</title>
<g id="a_node7"><a xlink:href="namespace_i_o.html#ad8cf5aef8f60d10b80292b69a091d5ac" target="_top" xlink:title="IO::writeObservablesToFile method for writing an observable to file, using .15 precision.">
<polygon fill="#ffffff" stroke="#000000" points="436.0752,-268.5 436.0752,-286.5 572.1143,-286.5 572.1143,-268.5 436.0752,-268.5"/>
<text text-anchor="middle" x="504.0947" y="-274.5" font-family="Helvetica,sans-Serif" font-size="10.00" fill="#000000">IO::writeObservablesToFile</text>
</a>
</g>
</g>
<!-- Node30&#45;&gt;Node36 -->
<g id="edge6" class="edge">
<title>Node30&#45;&gt;Node36</title>
<path fill="none" stroke="#191970" d="M624.9475,-307.9063C610.6356,-304.2403 594.7435,-300.1847 580.1709,-296.5 567.2369,-293.2296 553.0569,-289.6787 540.4802,-286.5414"/>
<polygon fill="#191970" stroke="#191970" points="624.4921,-311.4027 635.0481,-310.496 626.2307,-304.622 624.4921,-311.4027"/>
</g>
<!-- Node43 -->
<g id="node14" class="node">
<title>Node43</title>
<g id="a_node14"><a xlink:href="namespace_i_o.html#a4f554804fd2ccd9c13c73777c5cbbf77" target="_top" xlink:title="IO::writeFlowObservableToFile method for writing a flow observable to file, using ....">
<polygon fill="#ffffff" stroke="#000000" points="428.0186,-156.5 428.0186,-174.5 580.1709,-174.5 580.1709,-156.5 428.0186,-156.5"/>
<text text-anchor="middle" x="504.0947" y="-162.5" font-family="Helvetica,sans-Serif" font-size="10.00" fill="#000000">IO::writeFlowObservableToFile</text>
</a>
</g>
</g>
<!-- Node30&#45;&gt;Node43 -->
<g id="edge13" class="edge">
<title>Node30&#45;&gt;Node43</title>
<path fill="none" stroke="#191970" d="M652.6863,-303.4056C618.1154,-271.3208 541.5828,-200.2922 514.1357,-174.8189"/>
<polygon fill="#191970" stroke="#191970" points="650.4342,-306.0906 660.1449,-310.3278 655.1961,-300.9598 650.4342,-306.0906"/>
</g>
<!-- Node50 -->
<g id="node21" class="node">
<title>Node50</title>
<g id="a_node21"><a xlink:href="namespace_i_o.html#ad77b7dd770afc8e2eb433d6187ea3616" target="_top" xlink:title="IO::writeMatrixToFile writes out a matrix of observables to file, i.e. the topological charge in Eucl...">
<polygon fill="#ffffff" stroke="#000000" points="252.3687,-52.5 252.3687,-70.5 359.4917,-70.5 359.4917,-52.5 252.3687,-52.5"/>
<text text-anchor="middle" x="305.9302" y="-58.5" font-family="Helvetica,sans-Serif" font-size="10.00" fill="#000000">IO::writeMatrixToFile</text>
</a>
</g>
</g>
<!-- Node30&#45;&gt;Node50 -->
<g id="edge20" class="edge">
<title>Node30&#45;&gt;Node50</title>
<path fill="none" stroke="#191970" d="M665.3208,-300.5172C655.5762,-265.16 629.8371,-189.0476 580.1709,-147.5 516.4482,-94.1936 419.6088,-73.8485 359.6855,-66.1383"/>
<polygon fill="#191970" stroke="#191970" points="662.0088,-301.6853 667.9327,-310.4692 668.7795,-299.9083 662.0088,-301.6853"/>
</g>
<!-- Node35 -->
<g id="node6" class="node">
<title>Node35</title>
<g id="a_node6"><a xlink:href="class_lattice_action_charge_density.html#a3dddc75188042c645fbdd1c8b3e80c8a" target="_top" xlink:title="Correlator::calculate calculates a observable.">
<polygon fill="#ffffff" stroke="#000000" points="236.231,-329.5 236.231,-357.5 375.6294,-357.5 375.6294,-329.5 236.231,-329.5"/>
<text text-anchor="start" x="244.231" y="-345.5" font-family="Helvetica,sans-Serif" font-size="10.00" fill="#000000">LatticeActionChargeDensity</text>
<text text-anchor="middle" x="305.9302" y="-335.5" font-family="Helvetica,sans-Serif" font-size="10.00" fill="#000000">::calculate</text>
</a>
</g>
</g>
<!-- Node34&#45;&gt;Node35 -->
<g id="edge5" class="edge">
<title>Node34&#45;&gt;Node35</title>
<path fill="none" stroke="#191970" d="M429.79,-328.4992C412.1469,-330.6359 393.3839,-332.9084 375.9399,-335.021"/>
<polygon fill="#191970" stroke="#191970" points="430.5234,-331.936 440.03,-327.259 429.6817,-324.9868 430.5234,-331.936"/>
</g>
<!-- Node37 -->
<g id="node8" class="node">
<title>Node37</title>
<g id="a_node8"><a xlink:href="class_observable_storer.html#a146f9acb8a0a2ce15782d26bdc4f0bf9" target="_top" xlink:title="ObservableStorer::writeObservableToFile.">
<polygon fill="#ffffff" stroke="#000000" points="219.8418,-282.5 219.8418,-310.5 392.0186,-310.5 392.0186,-282.5 219.8418,-282.5"/>
<text text-anchor="start" x="227.8418" y="-298.5" font-family="Helvetica,sans-Serif" font-size="10.00" fill="#000000">ObservableStorer::writeObservable</text>
<text text-anchor="middle" x="305.9302" y="-288.5" font-family="Helvetica,sans-Serif" font-size="10.00" fill="#000000">ToFile</text>
</a>
</g>
</g>
<!-- Node36&#45;&gt;Node37 -->
<g id="edge7" class="edge">
<title>Node36&#45;&gt;Node37</title>
<path fill="none" stroke="#191970" d="M425.843,-285.0028C414.7647,-286.065 403.3226,-287.162 392.105,-288.2376"/>
<polygon fill="#191970" stroke="#191970" points="426.2775,-288.4773 435.8977,-284.0387 425.6093,-281.5092 426.2775,-288.4773"/>
</g>
<!-- Node38 -->
<g id="node9" class="node">
<title>Node38</title>
<g id="a_node9"><a xlink:href="class_correlator.html#a9e8d80e30e4fbe3b7fe57521538cb5ff" target="_top" xlink:title="Correlator::writeObservableToFile calls the ObservableStorer for writing observable to file.">
<polygon fill="#ffffff" stroke="#000000" points="22.7881,-423.5 22.7881,-451.5 161.0537,-451.5 161.0537,-423.5 22.7881,-423.5"/>
<text text-anchor="start" x="30.7881" y="-439.5" font-family="Helvetica,sans-Serif" font-size="10.00" fill="#000000">Correlator::writeObservable</text>
<text text-anchor="middle" x="91.9209" y="-429.5" font-family="Helvetica,sans-Serif" font-size="10.00" fill="#000000">ToFile</text>
</a>
</g>
</g>
<!-- Node37&#45;&gt;Node38 -->
<g id="edge8" class="edge">
<title>Node37&#45;&gt;Node38</title>
<path fill="none" stroke="#191970" d="M225.2816,-316.0885C223.3854,-317.4617 221.5665,-318.9301 219.8418,-320.5 186.7588,-350.6147 217.3239,-384.8296 183.8418,-414.5 177.3165,-420.2825 169.5532,-424.6564 161.3441,-427.9573"/>
<polygon fill="#191970" stroke="#191970" points="227.3851,-318.9024 234.0376,-310.6565 223.6949,-312.9541 227.3851,-318.9024"/>
</g>
<!-- Node39 -->
<g id="node10" class="node">
<title>Node39</title>
<g id="a_node10"><a xlink:href="class_lattice_action_charge_density.html#a719f71aaccbf1b4147ea944781d69908" target="_top" xlink:title="Correlator::writeObservableToFile calls the ObservableStorer for writing observable to file.">
<polygon fill="#ffffff" stroke="#000000" points="22.2217,-376.5 22.2217,-404.5 161.6201,-404.5 161.6201,-376.5 22.2217,-376.5"/>
<text text-anchor="start" x="30.2217" y="-392.5" font-family="Helvetica,sans-Serif" font-size="10.00" fill="#000000">LatticeActionChargeDensity</text>
<text text-anchor="middle" x="91.9209" y="-382.5" font-family="Helvetica,sans-Serif" font-size="10.00" fill="#000000">::writeObservableToFile</text>
</a>
</g>
</g>
<!-- Node37&#45;&gt;Node39 -->
<g id="edge9" class="edge">
<title>Node37&#45;&gt;Node39</title>
<path fill="none" stroke="#191970" d="M229.5309,-314.7882C226.1643,-316.5235 222.9146,-318.4224 219.8418,-320.5 198.0441,-335.2379 205.8343,-353.0544 183.8418,-367.5 177.1045,-371.9254 169.5786,-375.4993 161.813,-378.3856"/>
<polygon fill="#191970" stroke="#191970" points="231.0633,-317.9357 238.6748,-310.5658 228.1287,-311.5806 231.0633,-317.9357"/>
</g>
<!-- Node40 -->
<g id="node11" class="node">
<title>Node40</title>
<g id="a_node11"><a xlink:href="class_master_sampler.html#a638714c38e1a6252ab8b6be1fa224bd4" target="_top" xlink:title="Correlator::writeObservableToFile calls the ObservableStorer for writing observable to file.">
<polygon fill="#ffffff" stroke="#000000" points="11.1182,-329.5 11.1182,-357.5 172.7236,-357.5 172.7236,-329.5 11.1182,-329.5"/>
<text text-anchor="start" x="19.1182" y="-345.5" font-family="Helvetica,sans-Serif" font-size="10.00" fill="#000000">MasterSampler::writeObservable</text>
<text text-anchor="middle" x="91.9209" y="-335.5" font-family="Helvetica,sans-Serif" font-size="10.00" fill="#000000">ToFile</text>
</a>
</g>
</g>
<!-- Node37&#45;&gt;Node40 -->
<g id="edge10" class="edge">
<title>Node37&#45;&gt;Node40</title>
<path fill="none" stroke="#191970" d="M231.9412,-312.7492C207.1821,-318.1867 179.8086,-324.1984 155.881,-329.4533"/>
<polygon fill="#191970" stroke="#191970" points="232.9938,-316.1015 242.0102,-310.5379 231.4922,-309.2645 232.9938,-316.1015"/>
</g>
<!-- Node41 -->
<g id="node12" class="node">
<title>Node41</title>
<g id="a_node12"><a xlink:href="class_master_sampler_topc_x_y_z.html#a930f13a2a13f4b3820f40c8b52110cf2" target="_top" xlink:title="Correlator::writeObservableToFile calls the ObservableStorer for writing observable to file.">
<polygon fill="#ffffff" stroke="#000000" points="29.7363,-282.5 29.7363,-310.5 154.1055,-310.5 154.1055,-282.5 29.7363,-282.5"/>
<text text-anchor="start" x="37.7363" y="-298.5" font-family="Helvetica,sans-Serif" font-size="10.00" fill="#000000">MasterSamplerTopcXYZ</text>
<text text-anchor="middle" x="91.9209" y="-288.5" font-family="Helvetica,sans-Serif" font-size="10.00" fill="#000000">::writeObservableToFile</text>
</a>
</g>
</g>
<!-- Node37&#45;&gt;Node41 -->
<g id="edge11" class="edge">
<title>Node37&#45;&gt;Node41</title>
<path fill="none" stroke="#191970" d="M209.7056,-296.5C190.8594,-296.5 171.5626,-296.5 154.1857,-296.5"/>
<polygon fill="#191970" stroke="#191970" points="209.8095,-300.0001 219.8095,-296.5 209.8095,-293.0001 209.8095,-300.0001"/>
</g>
<!-- Node42 -->
<g id="node13" class="node">
<title>Node42</title>
<g id="a_node13"><a xlink:href="class_super_sampler.html#a05b42b82879233dc329d280a61bfd7f0" target="_top" xlink:title="Correlator::writeObservableToFile calls the ObservableStorer for writing observable to file.">
<polygon fill="#ffffff" stroke="#000000" points="13.0566,-235.5 13.0566,-263.5 170.7852,-263.5 170.7852,-235.5 13.0566,-235.5"/>
<text text-anchor="start" x="21.0566" y="-251.5" font-family="Helvetica,sans-Serif" font-size="10.00" fill="#000000">SuperSampler::writeObservable</text>
<text text-anchor="middle" x="91.9209" y="-241.5" font-family="Helvetica,sans-Serif" font-size="10.00" fill="#000000">ToFile</text>
</a>
</g>
</g>
<!-- Node37&#45;&gt;Node42 -->
<g id="edge12" class="edge">
<title>Node37&#45;&gt;Node42</title>
<path fill="none" stroke="#191970" d="M231.9412,-280.2508C207.1821,-274.8133 179.8086,-268.8016 155.881,-263.5467"/>
<polygon fill="#191970" stroke="#191970" points="231.4922,-283.7355 242.0102,-282.4621 232.9938,-276.8985 231.4922,-283.7355"/>
</g>
<!-- Node44 -->
<g id="node15" class="node">
<title>Node44</title>
<g id="a_node15"><a xlink:href="class_observable_storer.html#af51ebd65eae2a5087cfd47ddf230da93" target="_top" xlink:title="ObservableStorer::writeFlowObservableToFile.">
<polygon fill="#ffffff" stroke="#000000" points="234.854,-113.5 234.854,-141.5 377.0063,-141.5 377.0063,-113.5 234.854,-113.5"/>
<text text-anchor="start" x="242.854" y="-129.5" font-family="Helvetica,sans-Serif" font-size="10.00" fill="#000000">ObservableStorer::writeFlow</text>
<text text-anchor="middle" x="305.9302" y="-119.5" font-family="Helvetica,sans-Serif" font-size="10.00" fill="#000000">ObservableToFile</text>
</a>
</g>
</g>
<!-- Node43&#45;&gt;Node44 -->
<g id="edge14" class="edge">
<title>Node43&#45;&gt;Node44</title>
<path fill="none" stroke="#191970" d="M447.0752,-154.566C425.3361,-150.3973 400.2796,-145.5924 377.3671,-141.1987"/>
<polygon fill="#191970" stroke="#191970" points="446.6523,-158.0485 457.1325,-156.4945 447.9706,-151.1738 446.6523,-158.0485"/>
</g>
<!-- Node45 -->
<g id="node16" class="node">
<title>Node45</title>
<g id="a_node16"><a xlink:href="class_correlator.html#a168512b2ce182d9478db47f100125fa6" target="_top" xlink:title="Correlator::writeFlowObservablesToFile.">
<polygon fill="#ffffff" stroke="#000000" points="9.7314,-188.5 9.7314,-216.5 174.1104,-216.5 174.1104,-188.5 9.7314,-188.5"/>
<text text-anchor="start" x="17.7314" y="-204.5" font-family="Helvetica,sans-Serif" font-size="10.00" fill="#000000">Correlator::writeFlowObservables</text>
<text text-anchor="middle" x="91.9209" y="-194.5" font-family="Helvetica,sans-Serif" font-size="10.00" fill="#000000">ToFile</text>
</a>
</g>
</g>
<!-- Node44&#45;&gt;Node45 -->
<g id="edge15" class="edge">
<title>Node44&#45;&gt;Node45</title>
<path fill="none" stroke="#191970" d="M266.9933,-145.9436C243.3112,-156.6911 212.2512,-169.9618 183.8418,-179.5 174.1729,-182.7462 163.7958,-185.7691 153.6206,-188.4865"/>
<polygon fill="#191970" stroke="#191970" points="268.7034,-149.01 276.3355,-141.6614 265.7866,-142.6466 268.7034,-149.01"/>
</g>
<!-- Node46 -->
<g id="node17" class="node">
<title>Node46</title>
<g id="a_node17"><a xlink:href="class_lattice_action_charge_density.html#a54226556dc1497c311e4a4d50bf44c26" target="_top" xlink:title="Correlator::writeFlowObservablesToFile.">
<polygon fill="#ffffff" stroke="#000000" points="18.623,-141.5 18.623,-169.5 165.2188,-169.5 165.2188,-141.5 18.623,-141.5"/>
<text text-anchor="start" x="26.623" y="-157.5" font-family="Helvetica,sans-Serif" font-size="10.00" fill="#000000">LatticeActionChargeDensity</text>
<text text-anchor="middle" x="91.9209" y="-147.5" font-family="Helvetica,sans-Serif" font-size="10.00" fill="#000000">::writeFlowObservablesToFile</text>
</a>
</g>
</g>
<!-- Node44&#45;&gt;Node46 -->
<g id="edge16" class="edge">
<title>Node44&#45;&gt;Node46</title>
<path fill="none" stroke="#191970" d="M224.6201,-138.1382C205.1672,-140.6834 184.5101,-143.386 165.4327,-145.882"/>
<polygon fill="#191970" stroke="#191970" points="225.2068,-141.5914 234.6682,-136.8236 224.2986,-134.6506 225.2068,-141.5914"/>
</g>
<!-- Node47 -->
<g id="node18" class="node">
<title>Node47</title>
<g id="a_node18"><a xlink:href="class_master_sampler.html#ad475928217ac61fae134128904aaa9f8" target="_top" xlink:title="Correlator::writeFlowObservablesToFile.">
<polygon fill="#ffffff" stroke="#000000" points="26.1304,-94.5 26.1304,-122.5 157.7114,-122.5 157.7114,-94.5 26.1304,-94.5"/>
<text text-anchor="start" x="34.1304" y="-110.5" font-family="Helvetica,sans-Serif" font-size="10.00" fill="#000000">MasterSampler::writeFlow</text>
<text text-anchor="middle" x="91.9209" y="-100.5" font-family="Helvetica,sans-Serif" font-size="10.00" fill="#000000">ObservablesToFile</text>
</a>
</g>
</g>
<!-- Node44&#45;&gt;Node47 -->
<g id="edge17" class="edge">
<title>Node44&#45;&gt;Node47</title>
<path fill="none" stroke="#191970" d="M224.6464,-120.2835C202.5646,-118.3231 178.9293,-116.2247 157.8131,-114.35"/>
<polygon fill="#191970" stroke="#191970" points="224.3978,-123.7751 234.6682,-121.1733 225.0169,-116.8026 224.3978,-123.7751"/>
</g>
<!-- Node48 -->
<g id="node19" class="node">
<title>Node48</title>
<g id="a_node19"><a xlink:href="class_master_sampler_topc_x_y_z.html#a4fba4290e4406e18ef3f2904c6ae364f" target="_top" xlink:title="Correlator::writeFlowObservablesToFile.">
<polygon fill="#ffffff" stroke="#000000" points="18.623,-47.5 18.623,-75.5 165.2188,-75.5 165.2188,-47.5 18.623,-47.5"/>
<text text-anchor="start" x="26.623" y="-63.5" font-family="Helvetica,sans-Serif" font-size="10.00" fill="#000000">MasterSamplerTopcXYZ</text>
<text text-anchor="middle" x="91.9209" y="-53.5" font-family="Helvetica,sans-Serif" font-size="10.00" fill="#000000">::writeFlowObservablesToFile</text>
</a>
</g>
</g>
<!-- Node44&#45;&gt;Node48 -->
<g id="edge18" class="edge">
<title>Node44&#45;&gt;Node48</title>
<path fill="none" stroke="#191970" d="M259.1481,-109.8697C236.5581,-101.6534 208.9631,-92.0488 183.8418,-84.5 173.4438,-81.3755 162.2975,-78.3333 151.4799,-75.5387"/>
<polygon fill="#191970" stroke="#191970" points="258.2302,-113.2609 268.8239,-113.415 260.6385,-106.6882 258.2302,-113.2609"/>
</g>
<!-- Node49 -->
<g id="node20" class="node">
<title>Node49</title>
<g id="a_node20"><a xlink:href="class_super_sampler.html#a410b650ebccdb03519c88908a3a8013e" target="_top" xlink:title="Correlator::writeFlowObservablesToFile.">
<polygon fill="#ffffff" stroke="#000000" points="0,-.5 0,-28.5 183.8418,-28.5 183.8418,-.5 0,-.5"/>
<text text-anchor="start" x="8" y="-16.5" font-family="Helvetica,sans-Serif" font-size="10.00" fill="#000000">SuperSampler::writeFlowObservables</text>
<text text-anchor="middle" x="91.9209" y="-6.5" font-family="Helvetica,sans-Serif" font-size="10.00" fill="#000000">ToFile</text>
</a>
</g>
</g>
<!-- Node44&#45;&gt;Node49 -->
<g id="edge19" class="edge">
<title>Node44&#45;&gt;Node49</title>
<path fill="none" stroke="#191970" d="M265.6425,-108.8218C250.5216,-100.8653 233.6648,-90.8022 219.8418,-79.5 200.8086,-63.9378 204.7541,-50.4275 183.8418,-37.5 178.2447,-34.04 172.1525,-31.0998 165.8567,-28.6013"/>
<polygon fill="#191970" stroke="#191970" points="264.293,-112.0627 274.7905,-113.4959 267.478,-105.8292 264.293,-112.0627"/>
</g>
<!-- Node50&#45;&gt;Node48 -->
<g id="edge21" class="edge">
<title>Node50&#45;&gt;Node48</title>
<path fill="none" stroke="#191970" d="M242.1084,-61.5C218.0109,-61.5 190.4026,-61.5 165.4842,-61.5"/>
<polygon fill="#191970" stroke="#191970" points="242.2029,-65.0001 252.2028,-61.5 242.2028,-58.0001 242.2029,-65.0001"/>
</g>
<!-- Node50&#45;&gt;Node49 -->
<g id="edge22" class="edge">
<title>Node50&#45;&gt;Node49</title>
<path fill="none" stroke="#191970" d="M254.7889,-50.2685C225.1439,-43.758 187.5493,-35.5016 155.9507,-28.562"/>
<polygon fill="#191970" stroke="#191970" points="254.4022,-53.7669 264.9203,-52.4935 255.9038,-46.9299 254.4022,-53.7669"/>
</g>
</g>
</svg>
