<?xml version="1.0" encoding="UTF-8" standalone="no"?>
<!DOCTYPE svg PUBLIC "-//W3C//DTD SVG 1.1//EN"
 "http://www.w3.org/Graphics/SVG/1.1/DTD/svg11.dtd">
<!-- Generated by graphviz version 2.40.1 (20161225.0304)
 -->
<!-- Title: nlohmann::basic_json::rend Pages: 1 -->
<svg width="418pt" height="37pt"
 viewBox="0.00 0.00 418.19 37.00" xmlns="http://www.w3.org/2000/svg" xmlns:xlink="http://www.w3.org/1999/xlink">
<g id="graph0" class="graph" transform="scale(1 1) rotate(0) translate(4 33)">
<title>nlohmann::basic_json::rend</title>
<polygon fill="#ffffff" stroke="transparent" points="-4,4 -4,-33 414.1855,-33 414.1855,4 -4,4"/>
<!-- Node488 -->
<g id="node1" class="node">
<title>Node488</title>
<g id="a_node1"><a xlink:title="returns a const reverse iterator to one before the first">
<polygon fill="#bfbfbf" stroke="#000000" points="0,-.5 0,-28.5 112.7285,-28.5 112.7285,-.5 0,-.5"/>
<text text-anchor="start" x="8" y="-16.5" font-family="Helvetica,sans-Serif" font-size="10.00" fill="#000000">nlohmann::basic_json</text>
<text text-anchor="middle" x="56.3643" y="-6.5" font-family="Helvetica,sans-Serif" font-size="10.00" fill="#000000">::rend</text>
</a>
</g>
</g>
<!-- Node489 -->
<g id="node2" class="node">
<title>Node489</title>
<g id="a_node2"><a xlink:href="classnlohmann_1_1basic__json.html#a5795b029dbf28e0cb2c7a439ec5d0a88" target="_top" xlink:title="returns a const reverse iterator to one before the first">
<polygon fill="#ffffff" stroke="#000000" points="148.7285,-.5 148.7285,-28.5 261.457,-28.5 261.457,-.5 148.7285,-.5"/>
<text text-anchor="start" x="156.7285" y="-16.5" font-family="Helvetica,sans-Serif" font-size="10.00" fill="#000000">nlohmann::basic_json</text>
<text text-anchor="middle" x="205.0928" y="-6.5" font-family="Helvetica,sans-Serif" font-size="10.00" fill="#000000">::crend</text>
</a>
</g>
</g>
<!-- Node488&#45;&gt;Node489 -->
<g id="edge1" class="edge">
<title>Node488&#45;&gt;Node489</title>
<path fill="none" stroke="#191970" d="M113.0164,-14.5C121.3038,-14.5 129.9027,-14.5 138.3682,-14.5"/>
<polygon fill="#191970" stroke="#191970" points="138.5982,-18.0001 148.5981,-14.5 138.5981,-11.0001 138.5982,-18.0001"/>
</g>
<!-- Node490 -->
<g id="node3" class="node">
<title>Node490</title>
<g id="a_node3"><a xlink:href="classnlohmann_1_1basic__json.html#ad865d6c291b237ae508d5cb2146b5877" target="_top" xlink:title="returns a const iterator to the first element">
<polygon fill="#ffffff" stroke="#000000" points="297.457,-.5 297.457,-28.5 410.1855,-28.5 410.1855,-.5 297.457,-.5"/>
<text text-anchor="start" x="305.457" y="-16.5" font-family="Helvetica,sans-Serif" font-size="10.00" fill="#000000">nlohmann::basic_json</text>
<text text-anchor="middle" x="353.8213" y="-6.5" font-family="Helvetica,sans-Serif" font-size="10.00" fill="#000000">::cbegin</text>
</a>
</g>
</g>
<!-- Node489&#45;&gt;Node490 -->
<g id="edge2" class="edge">
<title>Node489&#45;&gt;Node490</title>
<path fill="none" stroke="#191970" d="M261.7449,-14.5C270.0323,-14.5 278.6312,-14.5 287.0967,-14.5"/>
<polygon fill="#191970" stroke="#191970" points="287.3267,-18.0001 297.3266,-14.5 287.3266,-11.0001 287.3267,-18.0001"/>
</g>
</g>
</svg>
