<?xml version="1.0" encoding="UTF-8" standalone="no"?>
<!DOCTYPE svg PUBLIC "-//W3C//DTD SVG 1.1//EN"
 "http://www.w3.org/Graphics/SVG/1.1/DTD/svg11.dtd">
<!-- Generated by graphviz version 2.40.1 (20161225.0304)
 -->
<!-- Title: LuscherAction::computeStaple Pages: 1 -->
<svg width="509pt" height="318pt"
 viewBox="0.00 0.00 508.79 318.00" xmlns="http://www.w3.org/2000/svg" xmlns:xlink="http://www.w3.org/1999/xlink">
<g id="graph0" class="graph" transform="scale(1 1) rotate(0) translate(4 314)">
<title>LuscherAction::computeStaple</title>
<polygon fill="#ffffff" stroke="transparent" points="-4,4 -4,-314 504.791,-314 504.791,4 -4,4"/>
<!-- Node6 -->
<g id="node1" class="node">
<title>Node6</title>
<g id="a_node1"><a xlink:title="computeStaple computes the staple at given poisition.">
<polygon fill="#bfbfbf" stroke="#000000" points="0,-154.5 0,-172.5 151.6348,-172.5 151.6348,-154.5 0,-154.5"/>
<text text-anchor="middle" x="75.8174" y="-160.5" font-family="Helvetica,sans-Serif" font-size="10.00" fill="#000000">LuscherAction::computeStaple</text>
</a>
</g>
</g>
<!-- Node7 -->
<g id="node2" class="node">
<title>Node7</title>
<g id="a_node2"><a xlink:href="class_s_u3.html#a9f3527fd882882ddfa18d72f5f43176c" target="_top" xlink:title=" ">
<polygon fill="#ffffff" stroke="#000000" points="231.8364,-291.5 231.8364,-309.5 297.2993,-309.5 297.2993,-291.5 231.8364,-291.5"/>
<text text-anchor="middle" x="264.5679" y="-297.5" font-family="Helvetica,sans-Serif" font-size="10.00" fill="#000000">SU3::zeros</text>
</a>
</g>
</g>
<!-- Node6&#45;&gt;Node7 -->
<g id="edge1" class="edge">
<title>Node6&#45;&gt;Node7</title>
<path fill="none" stroke="#191970" d="M81.5829,-172.6585C96.2778,-195.1953 137.538,-253.6052 187.6348,-282.5 197.9278,-288.4368 210.0639,-292.4169 221.617,-295.0846"/>
<polygon fill="#191970" stroke="#191970" points="221.0617,-298.5433 231.5588,-297.1074 222.4574,-291.6838 221.0617,-298.5433"/>
</g>
<!-- Node8 -->
<g id="node3" class="node">
<title>Node8</title>
<g id="a_node3"><a xlink:href="class_luscher_action.html#a2bfa5f9b8bfb0c4440732000d2281519" target="_top" xlink:title="updateMuIndex updates the m_muIndex based on mu.">
<polygon fill="#ffffff" stroke="#000000" points="187.6348,-254.5 187.6348,-272.5 341.501,-272.5 341.501,-254.5 187.6348,-254.5"/>
<text text-anchor="middle" x="264.5679" y="-260.5" font-family="Helvetica,sans-Serif" font-size="10.00" fill="#000000">LuscherAction::updateMuIndex</text>
</a>
</g>
</g>
<!-- Node6&#45;&gt;Node8 -->
<g id="edge2" class="edge">
<title>Node6&#45;&gt;Node8</title>
<path fill="none" stroke="#191970" d="M85.4161,-172.6896C103.7435,-189.7138 145.6468,-226.1776 187.6348,-245.5 192.5413,-247.7579 197.7585,-249.7471 203.0747,-251.4968"/>
<polygon fill="#191970" stroke="#191970" points="202.1208,-254.8647 212.7052,-254.3939 204.1374,-248.1614 202.1208,-254.8647"/>
</g>
<!-- Node9 -->
<g id="node4" class="node">
<title>Node9</title>
<g id="a_node4"><a xlink:href="class_luscher_action.html#a6496c97ed38401c0d94855bf940fd6ff" target="_top" xlink:title="updateNuIndex updates the m_nuIndex based on nu.">
<polygon fill="#ffffff" stroke="#000000" points="188.189,-217.5 188.189,-235.5 340.9468,-235.5 340.9468,-217.5 188.189,-217.5"/>
<text text-anchor="middle" x="264.5679" y="-223.5" font-family="Helvetica,sans-Serif" font-size="10.00" fill="#000000">LuscherAction::updateNuIndex</text>
</a>
</g>
</g>
<!-- Node6&#45;&gt;Node9 -->
<g id="edge3" class="edge">
<title>Node6&#45;&gt;Node9</title>
<path fill="none" stroke="#191970" d="M95.68,-172.5702C117.7785,-182.4062 154.7134,-198.0913 187.6348,-208.5 195.0837,-210.8551 203.026,-213.0532 210.8734,-215.0476"/>
<polygon fill="#191970" stroke="#191970" points="210.1728,-218.4794 220.7186,-217.4614 211.8397,-211.6808 210.1728,-218.4794"/>
</g>
<!-- Node10 -->
<g id="node5" class="node">
<title>Node10</title>
<g id="a_node5"><a xlink:href="class_parallel_1_1_communicator.html#aa716fcde544018dcc5967df9b6708bb5" target="_top" xlink:title=" ">
<polygon fill="#ffffff" stroke="#000000" points="204.605,-170.5 204.605,-198.5 324.5308,-198.5 324.5308,-170.5 204.605,-170.5"/>
<text text-anchor="start" x="212.605" y="-186.5" font-family="Helvetica,sans-Serif" font-size="10.00" fill="#000000">Parallel::Communicator</text>
<text text-anchor="middle" x="264.5679" y="-176.5" font-family="Helvetica,sans-Serif" font-size="10.00" fill="#000000">::getPositiveLink</text>
</a>
</g>
</g>
<!-- Node6&#45;&gt;Node10 -->
<g id="edge4" class="edge">
<title>Node6&#45;&gt;Node10</title>
<path fill="none" stroke="#191970" d="M151.7735,-171.9507C165.8693,-173.519 180.5354,-175.1507 194.4473,-176.6985"/>
<polygon fill="#191970" stroke="#191970" points="194.0993,-180.1813 204.425,-177.8086 194.8733,-173.2242 194.0993,-180.1813"/>
</g>
<!-- Node11 -->
<g id="node6" class="node">
<title>Node11</title>
<g id="a_node6"><a xlink:href="class_s_u3.html#ad0e19706d3c6fdb50dcf788d4b48eb4c" target="_top" xlink:title="SU3::inv performs a matrix inversion.">
<polygon fill="#ffffff" stroke="#000000" points="237.6714,-133.5 237.6714,-151.5 291.4644,-151.5 291.4644,-133.5 237.6714,-133.5"/>
<text text-anchor="middle" x="264.5679" y="-139.5" font-family="Helvetica,sans-Serif" font-size="10.00" fill="#000000">SU3::inv</text>
</a>
</g>
</g>
<!-- Node6&#45;&gt;Node11 -->
<g id="edge5" class="edge">
<title>Node6&#45;&gt;Node11</title>
<path fill="none" stroke="#191970" d="M151.7735,-155.0493C177.8315,-152.1501 205.8386,-149.0341 227.4261,-146.6323"/>
<polygon fill="#191970" stroke="#191970" points="227.9196,-150.0991 237.4712,-145.5147 227.1455,-143.142 227.9196,-150.0991"/>
</g>
<!-- Node12 -->
<g id="node7" class="node">
<title>Node12</title>
<g id="a_node7"><a xlink:href="class_parallel_1_1_index.html#af31faeef1369fdc0997d1910e008bfe2" target="_top" xlink:title=" ">
<polygon fill="#ffffff" stroke="#000000" points="377.501,-52.5 377.501,-70.5 500.791,-70.5 500.791,-52.5 377.501,-52.5"/>
<text text-anchor="middle" x="439.146" y="-58.5" font-family="Helvetica,sans-Serif" font-size="10.00" fill="#000000">Parallel::Index::getIndex</text>
</a>
</g>
</g>
<!-- Node6&#45;&gt;Node12 -->
<g id="edge6" class="edge">
<title>Node6&#45;&gt;Node12</title>
<path fill="none" stroke="#191970" d="M100.0412,-154.341C122.5516,-145.9998 157.1027,-133.6282 187.6348,-124.5 207.1715,-118.6591 325.0561,-89.5243 392.2786,-72.997"/>
<polygon fill="#191970" stroke="#191970" points="393.3347,-76.3417 402.2104,-70.5563 391.6641,-69.5439 393.3347,-76.3417"/>
</g>
<!-- Node13 -->
<g id="node8" class="node">
<title>Node13</title>
<g id="a_node8"><a xlink:href="class_parallel_1_1_communicator.html#a27862560cf6c7b8ccf650a422e014776" target="_top" xlink:title="Parallel::Communicator::getNeighboursNeighbourLink fetches a neighbours neighbor link.">
<polygon fill="#ffffff" stroke="#000000" points="189.0239,-.5 189.0239,-28.5 340.1118,-28.5 340.1118,-.5 189.0239,-.5"/>
<text text-anchor="start" x="197.0239" y="-16.5" font-family="Helvetica,sans-Serif" font-size="10.00" fill="#000000">Parallel::Communicator</text>
<text text-anchor="middle" x="264.5679" y="-6.5" font-family="Helvetica,sans-Serif" font-size="10.00" fill="#000000">::getNeighboursNeighbourLink</text>
</a>
</g>
</g>
<!-- Node6&#45;&gt;Node13 -->
<g id="edge7" class="edge">
<title>Node6&#45;&gt;Node13</title>
<path fill="none" stroke="#191970" d="M81.3858,-154.4389C95.9309,-131.5243 137.4365,-70.796 187.6348,-38.5 190.9165,-36.3886 194.3963,-34.4525 197.9921,-32.6784"/>
<polygon fill="#191970" stroke="#191970" points="199.4228,-35.8727 207.1224,-28.5948 196.5648,-29.4827 199.4228,-35.8727"/>
</g>
<!-- Node15 -->
<g id="node10" class="node">
<title>Node15</title>
<g id="a_node10"><a xlink:href="class_parallel_1_1_communicator.html#ae843d16f4aed13d5b5179a05b717ec88" target="_top" xlink:title="Parallel::Communicator::getPositiveLink fetches a link in the positive direction.">
<polygon fill="#ffffff" stroke="#000000" points="204.605,-47.5 204.605,-75.5 324.5308,-75.5 324.5308,-47.5 204.605,-47.5"/>
<text text-anchor="start" x="212.605" y="-63.5" font-family="Helvetica,sans-Serif" font-size="10.00" fill="#000000">Parallel::Communicator</text>
<text text-anchor="middle" x="264.5679" y="-53.5" font-family="Helvetica,sans-Serif" font-size="10.00" fill="#000000">::getNegativeLink</text>
</a>
</g>
</g>
<!-- Node6&#45;&gt;Node15 -->
<g id="edge10" class="edge">
<title>Node6&#45;&gt;Node15</title>
<path fill="none" stroke="#191970" d="M87.7004,-154.4862C107.5761,-139.7041 149.178,-110.0071 187.6348,-90.5 195.5889,-86.4653 204.2434,-82.6725 212.7826,-79.2439"/>
<polygon fill="#191970" stroke="#191970" points="214.2774,-82.4181 222.3311,-75.5341 211.7423,-75.8932 214.2774,-82.4181"/>
</g>
<!-- Node13&#45;&gt;Node12 -->
<g id="edge8" class="edge">
<title>Node13&#45;&gt;Node12</title>
<path fill="none" stroke="#191970" d="M316.9471,-28.6015C342.0811,-35.3681 371.8384,-43.3794 395.6952,-49.8022"/>
<polygon fill="#191970" stroke="#191970" points="394.9615,-53.2292 405.5276,-52.4492 396.7813,-46.4699 394.9615,-53.2292"/>
</g>
<!-- Node14 -->
<g id="node9" class="node">
<title>Node14</title>
<g id="a_node9"><a xlink:href="class_parallel_1_1_neighbours.html#aa3e776b78a708f2c4ce9f287b81f263e" target="_top" xlink:title="Parallel::Neighbours::getNeighbours returns a reference to the neighbour list of given process rank.">
<polygon fill="#ffffff" stroke="#000000" points="386.1216,-.5 386.1216,-28.5 492.1704,-28.5 492.1704,-.5 386.1216,-.5"/>
<text text-anchor="start" x="394.1216" y="-16.5" font-family="Helvetica,sans-Serif" font-size="10.00" fill="#000000">Parallel::Neighbours</text>
<text text-anchor="middle" x="439.146" y="-6.5" font-family="Helvetica,sans-Serif" font-size="10.00" fill="#000000">::getNeighbours</text>
</a>
</g>
</g>
<!-- Node13&#45;&gt;Node14 -->
<g id="edge9" class="edge">
<title>Node13&#45;&gt;Node14</title>
<path fill="none" stroke="#191970" d="M340.125,-14.5C352.099,-14.5 364.373,-14.5 376.0234,-14.5"/>
<polygon fill="#191970" stroke="#191970" points="376.078,-18.0001 386.078,-14.5 376.078,-11.0001 376.078,-18.0001"/>
</g>
<!-- Node15&#45;&gt;Node12 -->
<g id="edge11" class="edge">
<title>Node15&#45;&gt;Node12</title>
<path fill="none" stroke="#191970" d="M324.6478,-61.5C338.3783,-61.5 353.1069,-61.5 367.2757,-61.5"/>
<polygon fill="#191970" stroke="#191970" points="367.4716,-65.0001 377.4715,-61.5 367.4715,-58.0001 367.4716,-65.0001"/>
</g>
</g>
</svg>
