<?xml version="1.0" encoding="UTF-8" standalone="no"?>
<!DOCTYPE svg PUBLIC "-//W3C//DTD SVG 1.1//EN"
 "http://www.w3.org/Graphics/SVG/1.1/DTD/svg11.dtd">
<!-- Generated by graphviz version 2.40.1 (20161225.0304)
 -->
<!-- Title: nlohmann::basic_json::parse Pages: 1 -->
<svg width="567pt" height="37pt"
 viewBox="0.00 0.00 566.91 37.00" xmlns="http://www.w3.org/2000/svg" xmlns:xlink="http://www.w3.org/1999/xlink">
<g id="graph0" class="graph" transform="scale(1 1) rotate(0) translate(4 33)">
<title>nlohmann::basic_json::parse</title>
<polygon fill="#ffffff" stroke="transparent" points="-4,4 -4,-33 562.9141,-33 562.9141,4 -4,4"/>
<!-- Node431 -->
<g id="node1" class="node">
<title>Node431</title>
<g id="a_node1"><a xlink:title="deserialize from a container with contiguous storage">
<polygon fill="#bfbfbf" stroke="#000000" points="0,-.5 0,-28.5 112.7285,-28.5 112.7285,-.5 0,-.5"/>
<text text-anchor="start" x="8" y="-16.5" font-family="Helvetica,sans-Serif" font-size="10.00" fill="#000000">nlohmann::basic_json</text>
<text text-anchor="middle" x="56.3643" y="-6.5" font-family="Helvetica,sans-Serif" font-size="10.00" fill="#000000">::parse</text>
</a>
</g>
</g>
<!-- Node432 -->
<g id="node2" class="node">
<title>Node432</title>
<g id="a_node2"><a xlink:href="classnlohmann_1_1basic__json.html#a86f339e8449cce96b89e86635a7d389e" target="_top" xlink:title="deserialize from an array">
<polygon fill="#ffffff" stroke="#000000" points="148.7285,-.5 148.7285,-28.5 261.457,-28.5 261.457,-.5 148.7285,-.5"/>
<text text-anchor="start" x="156.7285" y="-16.5" font-family="Helvetica,sans-Serif" font-size="10.00" fill="#000000">nlohmann::basic_json</text>
<text text-anchor="middle" x="205.0928" y="-6.5" font-family="Helvetica,sans-Serif" font-size="10.00" fill="#000000">::parse</text>
</a>
</g>
</g>
<!-- Node431&#45;&gt;Node432 -->
<g id="edge1" class="edge">
<title>Node431&#45;&gt;Node432</title>
<path fill="none" stroke="#191970" d="M113.0164,-14.5C121.3038,-14.5 129.9027,-14.5 138.3682,-14.5"/>
<polygon fill="#191970" stroke="#191970" points="138.5982,-18.0001 148.5981,-14.5 138.5981,-11.0001 138.5982,-18.0001"/>
</g>
<!-- Node433 -->
<g id="node3" class="node">
<title>Node433</title>
<g id="a_node3"><a xlink:href="classnlohmann_1_1basic__json.html#a4a4ec75e4d2845d9bcf7a9e5458e4949" target="_top" xlink:title="explicitly create an array from an initializer list">
<polygon fill="#ffffff" stroke="#000000" points="297.457,-.5 297.457,-28.5 410.1855,-28.5 410.1855,-.5 297.457,-.5"/>
<text text-anchor="start" x="305.457" y="-16.5" font-family="Helvetica,sans-Serif" font-size="10.00" fill="#000000">nlohmann::basic_json</text>
<text text-anchor="middle" x="353.8213" y="-6.5" font-family="Helvetica,sans-Serif" font-size="10.00" fill="#000000">::array</text>
</a>
</g>
</g>
<!-- Node432&#45;&gt;Node433 -->
<g id="edge2" class="edge">
<title>Node432&#45;&gt;Node433</title>
<path fill="none" stroke="#191970" d="M261.7449,-14.5C270.0323,-14.5 278.6312,-14.5 287.0967,-14.5"/>
<polygon fill="#191970" stroke="#191970" points="287.3267,-18.0001 297.3266,-14.5 287.3266,-11.0001 287.3267,-18.0001"/>
</g>
<!-- Node434 -->
<g id="node4" class="node">
<title>Node434</title>
<g id="a_node4"><a xlink:href="classnlohmann_1_1basic__json.html#a32124a16dc80729d964d9caf607c2bc8" target="_top" xlink:title="create an empty value with a given type">
<polygon fill="#ffffff" stroke="#000000" points="446.1855,-.5 446.1855,-28.5 558.9141,-28.5 558.9141,-.5 446.1855,-.5"/>
<text text-anchor="start" x="454.1855" y="-16.5" font-family="Helvetica,sans-Serif" font-size="10.00" fill="#000000">nlohmann::basic_json</text>
<text text-anchor="middle" x="502.5498" y="-6.5" font-family="Helvetica,sans-Serif" font-size="10.00" fill="#000000">::basic_json</text>
</a>
</g>
</g>
<!-- Node433&#45;&gt;Node434 -->
<g id="edge3" class="edge">
<title>Node433&#45;&gt;Node434</title>
<path fill="none" stroke="#191970" d="M410.4734,-14.5C418.7608,-14.5 427.3597,-14.5 435.8252,-14.5"/>
<polygon fill="#191970" stroke="#191970" points="436.0552,-18.0001 446.0552,-14.5 436.0551,-11.0001 436.0552,-18.0001"/>
</g>
</g>
</svg>
