<?xml version="1.0" encoding="UTF-8" standalone="no"?>
<!DOCTYPE svg PUBLIC "-//W3C//DTD SVG 1.1//EN"
 "http://www.w3.org/Graphics/SVG/1.1/DTD/svg11.dtd">
<!-- Generated by graphviz version 2.40.1 (20161225.0304)
 -->
<!-- Title: complex::im Pages: 1 -->
<svg width="332pt" height="212pt"
 viewBox="0.00 0.00 332.26 212.00" xmlns="http://www.w3.org/2000/svg" xmlns:xlink="http://www.w3.org/1999/xlink">
<g id="graph0" class="graph" transform="scale(1 1) rotate(0) translate(4 208)">
<title>complex::im</title>
<polygon fill="#ffffff" stroke="transparent" points="-4,4 -4,-208 328.2578,-208 328.2578,4 -4,4"/>
<!-- Node21 -->
<g id="node1" class="node">
<title>Node21</title>
<g id="a_node1"><a xlink:title=" ">
<polygon fill="#bfbfbf" stroke="#000000" points="254.9131,-92.5 254.9131,-110.5 324.2578,-110.5 324.2578,-92.5 254.9131,-92.5"/>
<text text-anchor="middle" x="289.5854" y="-98.5" font-family="Helvetica,sans-Serif" font-size="10.00" fill="#000000">complex::im</text>
</a>
</g>
</g>
<!-- Node22 -->
<g id="node2" class="node">
<title>Node22</title>
<g id="a_node2"><a xlink:href="classcomplex.html#a57fa59491a94c3aeeb5b005fed5d0ed4" target="_top" xlink:title=" ">
<polygon fill="#ffffff" stroke="#000000" points="116.624,-185.5 116.624,-203.5 212.6533,-203.5 212.6533,-185.5 116.624,-185.5"/>
<text text-anchor="middle" x="164.6387" y="-191.5" font-family="Helvetica,sans-Serif" font-size="10.00" fill="#000000">complex::complex</text>
</a>
</g>
</g>
<!-- Node21&#45;&gt;Node22 -->
<g id="edge1" class="edge">
<title>Node21&#45;&gt;Node22</title>
<path fill="none" stroke="#191970" d="M277.075,-119.1756C264.2503,-136.0966 242.8414,-161.2414 218.9131,-176.5 213.305,-180.0762 206.9147,-183.0134 200.5359,-185.4011"/>
<polygon fill="#191970" stroke="#191970" points="280.1758,-120.8666 283.2781,-110.7361 274.5355,-116.7209 280.1758,-120.8666"/>
</g>
<!-- Node23 -->
<g id="node3" class="node">
<title>Node23</title>
<g id="a_node3"><a xlink:href="classcomplex.html#a83c122535af669e7f331d71de550e9ba" target="_top" xlink:title=" ">
<polygon fill="#ffffff" stroke="#000000" points="113.6992,-148.5 113.6992,-166.5 215.5781,-166.5 215.5781,-148.5 113.6992,-148.5"/>
<text text-anchor="middle" x="164.6387" y="-154.5" font-family="Helvetica,sans-Serif" font-size="10.00" fill="#000000">complex::operator=</text>
</a>
</g>
</g>
<!-- Node21&#45;&gt;Node23 -->
<g id="edge2" class="edge">
<title>Node21&#45;&gt;Node23</title>
<path fill="none" stroke="#191970" d="M265.482,-115.8055C252.0545,-123.4291 234.8705,-132.6253 218.9131,-139.5 211.3458,-142.7601 202.9802,-145.7984 195.1294,-148.416"/>
<polygon fill="#191970" stroke="#191970" points="267.612,-118.6175 274.5242,-110.588 264.1134,-112.5544 267.612,-118.6175"/>
</g>
<!-- Node24 -->
<g id="node4" class="node">
<title>Node24</title>
<g id="a_node4"><a xlink:href="classcomplex.html#a1916e5817cf8faf91347120309e99e59" target="_top" xlink:title=" ">
<polygon fill="#ffffff" stroke="#000000" points="110.3643,-111.5 110.3643,-129.5 218.9131,-129.5 218.9131,-111.5 110.3643,-111.5"/>
<text text-anchor="middle" x="164.6387" y="-117.5" font-family="Helvetica,sans-Serif" font-size="10.00" fill="#000000">complex::operator *=</text>
</a>
</g>
</g>
<!-- Node21&#45;&gt;Node24 -->
<g id="edge3" class="edge">
<title>Node21&#45;&gt;Node24</title>
<path fill="none" stroke="#191970" d="M244.6755,-108.3292C236.4747,-109.5763 227.8343,-110.8902 219.3853,-112.175"/>
<polygon fill="#191970" stroke="#191970" points="245.4207,-111.7562 254.7808,-106.7926 244.3682,-104.8358 245.4207,-111.7562"/>
</g>
<!-- Node25 -->
<g id="node5" class="node">
<title>Node25</title>
<g id="a_node5"><a xlink:href="classcomplex.html#a2f33210a2ac9f91ad3f1f94958c52ee9" target="_top" xlink:title=" ">
<polygon fill="#ffffff" stroke="#000000" points="112.3101,-74.5 112.3101,-92.5 216.9673,-92.5 216.9673,-74.5 112.3101,-74.5"/>
<text text-anchor="middle" x="164.6387" y="-80.5" font-family="Helvetica,sans-Serif" font-size="10.00" fill="#000000">complex::operator/=</text>
</a>
</g>
</g>
<!-- Node21&#45;&gt;Node25 -->
<g id="edge4" class="edge">
<title>Node21&#45;&gt;Node25</title>
<path fill="none" stroke="#191970" d="M244.8661,-95.0577C235.8419,-93.7576 226.2786,-92.3799 217.0193,-91.046"/>
<polygon fill="#191970" stroke="#191970" points="244.3839,-98.5243 254.7808,-96.486 245.3821,-91.5958 244.3839,-98.5243"/>
</g>
<!-- Node26 -->
<g id="node6" class="node">
<title>Node26</title>
<g id="a_node6"><a xlink:href="classcomplex.html#af797416b6b4b45c2bb54958fcd076a0e" target="_top" xlink:title=" ">
<polygon fill="#ffffff" stroke="#000000" points="112.0342,-37.5 112.0342,-55.5 217.2432,-55.5 217.2432,-37.5 112.0342,-37.5"/>
<text text-anchor="middle" x="164.6387" y="-43.5" font-family="Helvetica,sans-Serif" font-size="10.00" fill="#000000">complex::operator&#45;=</text>
</a>
</g>
</g>
<!-- Node21&#45;&gt;Node26 -->
<g id="edge5" class="edge">
<title>Node21&#45;&gt;Node26</title>
<path fill="none" stroke="#191970" d="M264.3019,-87.5768C250.9994,-80.5198 234.2978,-72.0761 218.9131,-65.5 210.5594,-61.9293 201.2866,-58.4963 192.8038,-55.5544"/>
<polygon fill="#191970" stroke="#191970" points="262.8546,-90.7724 273.3199,-92.4237 266.1686,-84.6065 262.8546,-90.7724"/>
</g>
<!-- Node27 -->
<g id="node7" class="node">
<title>Node27</title>
<g id="a_node7"><a xlink:href="classcomplex.html#aa4c37b87b5b9beebddad476b3049394c" target="_top" xlink:title=" ">
<polygon fill="#ffffff" stroke="#000000" points="123.0181,-.5 123.0181,-18.5 206.2593,-18.5 206.2593,-.5 123.0181,-.5"/>
<text text-anchor="middle" x="164.6387" y="-6.5" font-family="Helvetica,sans-Serif" font-size="10.00" fill="#000000">complex::setIm</text>
</a>
</g>
</g>
<!-- Node21&#45;&gt;Node27 -->
<g id="edge6" class="edge">
<title>Node21&#45;&gt;Node27</title>
<path fill="none" stroke="#191970" d="M276.5034,-83.8688C263.52,-67.481 242.2322,-43.4195 218.9131,-28.5 212.606,-24.4647 205.3361,-21.1631 198.2088,-18.5116"/>
<polygon fill="#191970" stroke="#191970" points="273.9487,-86.288 282.8222,-92.0769 279.4955,-82.0179 273.9487,-86.288"/>
</g>
<!-- Node28 -->
<g id="node8" class="node">
<title>Node28</title>
<g id="a_node8"><a xlink:href="class_s_u3_exp.html#a9760c17b9c3a4b6d0a5cd4d88c6d577e" target="_top" xlink:title=" ">
<polygon fill="#ffffff" stroke="#000000" points="0,-.5 0,-18.5 74.3643,-18.5 74.3643,-.5 0,-.5"/>
<text text-anchor="middle" x="37.1821" y="-6.5" font-family="Helvetica,sans-Serif" font-size="10.00" fill="#000000">SU3Exp::exp</text>
</a>
</g>
</g>
<!-- Node27&#45;&gt;Node28 -->
<g id="edge7" class="edge">
<title>Node27&#45;&gt;Node28</title>
<path fill="none" stroke="#191970" d="M112.8486,-9.5C100.0811,-9.5 86.6507,-9.5 74.7071,-9.5"/>
<polygon fill="#191970" stroke="#191970" points="112.9047,-13.0001 122.9046,-9.5 112.9046,-6.0001 112.9047,-13.0001"/>
</g>
</g>
</svg>
