<?xml version="1.0" encoding="UTF-8" standalone="no"?>
<!DOCTYPE svg PUBLIC "-//W3C//DTD SVG 1.1//EN"
 "http://www.w3.org/Graphics/SVG/1.1/DTD/svg11.dtd">
<!-- Generated by graphviz version 2.40.1 (20161225.0304)
 -->
<!-- Title: nlohmann::basic_json::at Pages: 1 -->
<svg width="283pt" height="84pt"
 viewBox="0.00 0.00 283.35 84.00" xmlns="http://www.w3.org/2000/svg" xmlns:xlink="http://www.w3.org/1999/xlink">
<g id="graph0" class="graph" transform="scale(1 1) rotate(0) translate(4 80)">
<title>nlohmann::basic_json::at</title>
<polygon fill="#ffffff" stroke="transparent" points="-4,4 -4,-80 279.3535,-80 279.3535,4 -4,4"/>
<!-- Node41 -->
<g id="node1" class="node">
<title>Node41</title>
<g id="a_node1"><a xlink:title="access specified array element with bounds checking">
<polygon fill="#bfbfbf" stroke="#000000" points="0,-28.5 0,-46.5 126.625,-46.5 126.625,-28.5 0,-28.5"/>
<text text-anchor="middle" x="63.3125" y="-34.5" font-family="Helvetica,sans-Serif" font-size="10.00" fill="#000000">nlohmann::basic_json::at</text>
</a>
</g>
</g>
<!-- Node42 -->
<g id="node2" class="node">
<title>Node42</title>
<g id="a_node2"><a xlink:href="classnlohmann_1_1basic__json.html#aef9ce5dd2381caee1f8ddcdb5bdd9c65" target="_top" xlink:title="return whether value is an array">
<polygon fill="#ffffff" stroke="#000000" points="162.625,-47.5 162.625,-75.5 275.3535,-75.5 275.3535,-47.5 162.625,-47.5"/>
<text text-anchor="start" x="170.625" y="-63.5" font-family="Helvetica,sans-Serif" font-size="10.00" fill="#000000">nlohmann::basic_json</text>
<text text-anchor="middle" x="218.9893" y="-53.5" font-family="Helvetica,sans-Serif" font-size="10.00" fill="#000000">::is_array</text>
</a>
</g>
</g>
<!-- Node41&#45;&gt;Node42 -->
<g id="edge1" class="edge">
<title>Node41&#45;&gt;Node42</title>
<path fill="none" stroke="#191970" d="M121.7237,-46.505C131.7534,-48.0512 142.2429,-49.6683 152.4662,-51.2444"/>
<polygon fill="#191970" stroke="#191970" points="152.1575,-54.7381 162.574,-52.8027 153.2241,-47.8198 152.1575,-54.7381"/>
</g>
<!-- Node43 -->
<g id="node3" class="node">
<title>Node43</title>
<g id="a_node3"><a xlink:href="classnlohmann_1_1basic__json.html#a6b75862bdb4d26650616cf9821430755" target="_top" xlink:title="return the type as string">
<polygon fill="#ffffff" stroke="#000000" points="162.625,-.5 162.625,-28.5 275.3535,-28.5 275.3535,-.5 162.625,-.5"/>
<text text-anchor="start" x="170.625" y="-16.5" font-family="Helvetica,sans-Serif" font-size="10.00" fill="#000000">nlohmann::basic_json</text>
<text text-anchor="middle" x="218.9893" y="-6.5" font-family="Helvetica,sans-Serif" font-size="10.00" fill="#000000">::type_name</text>
</a>
</g>
</g>
<!-- Node41&#45;&gt;Node43 -->
<g id="edge2" class="edge">
<title>Node41&#45;&gt;Node43</title>
<path fill="none" stroke="#191970" d="M124.3933,-28.4758C133.589,-27.1172 143.1124,-25.7102 152.4164,-24.3356"/>
<polygon fill="#191970" stroke="#191970" points="153.0192,-27.7846 162.4002,-22.8606 151.996,-20.8598 153.0192,-27.7846"/>
</g>
</g>
</svg>
