<?xml version="1.0" encoding="UTF-8" standalone="no"?>
<!DOCTYPE svg PUBLIC "-//W3C//DTD SVG 1.1//EN"
 "http://www.w3.org/Graphics/SVG/1.1/DTD/svg11.dtd">
<!-- Generated by graphviz version 2.40.1 (20161225.0304)
 -->
<!-- Title: nlohmann::basic_json::swap Pages: 1 -->
<svg width="269pt" height="37pt"
 viewBox="0.00 0.00 269.46 37.00" xmlns="http://www.w3.org/2000/svg" xmlns:xlink="http://www.w3.org/1999/xlink">
<g id="graph0" class="graph" transform="scale(1 1) rotate(0) translate(4 33)">
<title>nlohmann::basic_json::swap</title>
<polygon fill="#ffffff" stroke="transparent" points="-4,4 -4,-33 265.457,-33 265.457,4 -4,4"/>
<!-- Node500 -->
<g id="node1" class="node">
<title>Node500</title>
<g id="a_node1"><a xlink:title="exchanges the values">
<polygon fill="#bfbfbf" stroke="#000000" points="148.7285,-.5 148.7285,-28.5 261.457,-28.5 261.457,-.5 148.7285,-.5"/>
<text text-anchor="start" x="156.7285" y="-16.5" font-family="Helvetica,sans-Serif" font-size="10.00" fill="#000000">nlohmann::basic_json</text>
<text text-anchor="middle" x="205.0928" y="-6.5" font-family="Helvetica,sans-Serif" font-size="10.00" fill="#000000">::swap</text>
</a>
</g>
</g>
<!-- Node501 -->
<g id="node2" class="node">
<title>Node501</title>
<g id="a_node2"><a xlink:href="classnlohmann_1_1basic__json.html#aab256df8c5594ec693035822fa1e2904" target="_top" xlink:title="copy assignment">
<polygon fill="#ffffff" stroke="#000000" points="0,-.5 0,-28.5 112.7285,-28.5 112.7285,-.5 0,-.5"/>
<text text-anchor="start" x="8" y="-16.5" font-family="Helvetica,sans-Serif" font-size="10.00" fill="#000000">nlohmann::basic_json</text>
<text text-anchor="middle" x="56.3643" y="-6.5" font-family="Helvetica,sans-Serif" font-size="10.00" fill="#000000">::operator=</text>
</a>
</g>
</g>
<!-- Node500&#45;&gt;Node501 -->
<g id="edge1" class="edge">
<title>Node500&#45;&gt;Node501</title>
<path fill="none" stroke="#191970" d="M138.2073,-14.5C129.7401,-14.5 121.1423,-14.5 112.8589,-14.5"/>
<polygon fill="#191970" stroke="#191970" points="138.4407,-18.0001 148.4406,-14.5 138.4406,-11.0001 138.4407,-18.0001"/>
</g>
</g>
</svg>
