<?xml version="1.0" encoding="UTF-8" standalone="no"?>
<!DOCTYPE svg PUBLIC "-//W3C//DTD SVG 1.1//EN"
 "http://www.w3.org/Graphics/SVG/1.1/DTD/svg11.dtd">
<!-- Generated by graphviz version 2.40.1 (20161225.0304)
 -->
<!-- Title: IO::FieldIO::writeDoublesFieldToFile Pages: 1 -->
<svg width="335pt" height="484pt"
 viewBox="0.00 0.00 334.99 484.00" xmlns="http://www.w3.org/2000/svg" xmlns:xlink="http://www.w3.org/1999/xlink">
<g id="graph0" class="graph" transform="scale(1 1) rotate(0) translate(4 480)">
<title>IO::FieldIO::writeDoublesFieldToFile</title>
<polygon fill="#ffffff" stroke="transparent" points="-4,4 -4,-480 330.9941,-480 330.9941,4 -4,4"/>
<!-- Node30 -->
<g id="node1" class="node">
<title>Node30</title>
<g id="a_node1"><a xlink:title="IO::FieldIO::writeDoublesFieldToFile writes a lattice of doubles to file.">
<polygon fill="#bfbfbf" stroke="#000000" points="0,-231.5 0,-259.5 127.7041,-259.5 127.7041,-231.5 0,-231.5"/>
<text text-anchor="start" x="8" y="-247.5" font-family="Helvetica,sans-Serif" font-size="10.00" fill="#000000">IO::FieldIO::writeDoubles</text>
<text text-anchor="middle" x="63.8521" y="-237.5" font-family="Helvetica,sans-Serif" font-size="10.00" fill="#000000">FieldToFile</text>
</a>
</g>
</g>
<!-- Node31 -->
<g id="node2" class="node">
<title>Node31</title>
<g id="a_node2"><a xlink:href="class_parameters.html#a58f15668b37e705d34d6588e287e4bc0" target="_top" xlink:title=" ">
<polygon fill="#ffffff" stroke="#000000" points="176.7656,-447.5 176.7656,-475.5 313.9326,-475.5 313.9326,-447.5 176.7656,-447.5"/>
<text text-anchor="start" x="184.7656" y="-463.5" font-family="Helvetica,sans-Serif" font-size="10.00" fill="#000000">Parameters::getConfigStart</text>
<text text-anchor="middle" x="245.3491" y="-453.5" font-family="Helvetica,sans-Serif" font-size="10.00" fill="#000000">Number</text>
</a>
</g>
</g>
<!-- Node30&#45;&gt;Node31 -->
<g id="edge1" class="edge">
<title>Node30&#45;&gt;Node31</title>
<path fill="none" stroke="#191970" d="M67.0249,-259.609C75.7907,-295.2678 103.7619,-389.6321 163.7041,-438.5 165.2878,-439.7911 166.9396,-441.0098 168.6476,-442.1601"/>
<polygon fill="#191970" stroke="#191970" points="167.1945,-445.3638 177.5994,-447.3613 170.7112,-439.3112 167.1945,-445.3638"/>
</g>
<!-- Node32 -->
<g id="node3" class="node">
<title>Node32</title>
<g id="a_node3"><a xlink:href="class_parameters.html#a181a773d23fdb19d0c4f35e6cf2d5649" target="_top" xlink:title=" ">
<polygon fill="#ffffff" stroke="#000000" points="175.6548,-410.5 175.6548,-428.5 315.0435,-428.5 315.0435,-410.5 175.6548,-410.5"/>
<text text-anchor="middle" x="245.3491" y="-416.5" font-family="Helvetica,sans-Serif" font-size="10.00" fill="#000000">Parameters::getBatchName</text>
</a>
</g>
</g>
<!-- Node30&#45;&gt;Node32 -->
<g id="edge2" class="edge">
<title>Node30&#45;&gt;Node32</title>
<path fill="none" stroke="#191970" d="M68.6933,-259.8116C79.9977,-290.9289 111.2252,-364.883 163.7041,-401.5 166.2411,-403.2702 168.9215,-404.8703 171.7039,-406.3166"/>
<polygon fill="#191970" stroke="#191970" points="170.3294,-409.5359 180.8863,-410.4311 173.1918,-403.1479 170.3294,-409.5359"/>
</g>
<!-- Node33 -->
<g id="node4" class="node">
<title>Node33</title>
<g id="a_node4"><a xlink:href="class_parameters.html#ae5c64523dc50dca13b417fe3d9e4175c" target="_top" xlink:title=" ">
<polygon fill="#ffffff" stroke="#000000" points="191.4922,-373.5 191.4922,-391.5 299.2061,-391.5 299.2061,-373.5 191.4922,-373.5"/>
<text text-anchor="middle" x="245.3491" y="-379.5" font-family="Helvetica,sans-Serif" font-size="10.00" fill="#000000">Parameters::getBeta</text>
</a>
</g>
</g>
<!-- Node30&#45;&gt;Node33 -->
<g id="edge3" class="edge">
<title>Node30&#45;&gt;Node33</title>
<path fill="none" stroke="#191970" d="M71.6023,-259.8549C86.1054,-285.2562 119.8815,-337.9428 163.7041,-364.5 169.1621,-367.8076 175.1537,-370.5101 181.3346,-372.7176"/>
<polygon fill="#191970" stroke="#191970" points="180.5646,-376.1441 191.1537,-375.7951 182.6582,-369.4645 180.5646,-376.1441"/>
</g>
<!-- Node34 -->
<g id="node5" class="node">
<title>Node34</title>
<g id="a_node5"><a xlink:href="class_parameters.html#a52b90e94a378ec9fe8c504cf546e98fa" target="_top" xlink:title=" ">
<polygon fill="#ffffff" stroke="#000000" points="182.8789,-336.5 182.8789,-354.5 307.8193,-354.5 307.8193,-336.5 182.8789,-336.5"/>
<text text-anchor="middle" x="245.3491" y="-342.5" font-family="Helvetica,sans-Serif" font-size="10.00" fill="#000000">Parameters::getNSpatial</text>
</a>
</g>
</g>
<!-- Node30&#45;&gt;Node34 -->
<g id="edge4" class="edge">
<title>Node30&#45;&gt;Node34</title>
<path fill="none" stroke="#191970" d="M76.911,-259.7805C94.6994,-278.3255 128.3954,-310.345 163.7041,-327.5 168.3184,-329.7419 173.2148,-331.7078 178.2275,-333.4313"/>
<polygon fill="#191970" stroke="#191970" points="177.3788,-336.8326 187.967,-336.4556 179.4547,-330.1475 177.3788,-336.8326"/>
</g>
<!-- Node35 -->
<g id="node6" class="node">
<title>Node35</title>
<g id="a_node6"><a xlink:href="class_parameters.html#a237ea1286459e8c648e983464829fe8d" target="_top" xlink:title=" ">
<polygon fill="#ffffff" stroke="#000000" points="177.603,-299.5 177.603,-317.5 313.0952,-317.5 313.0952,-299.5 177.603,-299.5"/>
<text text-anchor="middle" x="245.3491" y="-305.5" font-family="Helvetica,sans-Serif" font-size="10.00" fill="#000000">Parameters::getNTemporal</text>
</a>
</g>
</g>
<!-- Node30&#45;&gt;Node35 -->
<g id="edge5" class="edge">
<title>Node30&#45;&gt;Node35</title>
<path fill="none" stroke="#191970" d="M91.214,-259.684C110.9427,-269.4483 138.4368,-282.121 163.7041,-290.5 171.0662,-292.9414 178.9123,-295.1478 186.7195,-297.1111"/>
<polygon fill="#191970" stroke="#191970" points="186.008,-300.5396 196.5484,-299.4671 187.6398,-293.7324 186.008,-300.5396"/>
</g>
<!-- Node36 -->
<g id="node7" class="node">
<title>Node36</title>
<g id="a_node7"><a xlink:href="class_parallel_1_1_communicator.html#a7b1f80fb49a0cc83f2031c3415174150" target="_top" xlink:title=" ">
<polygon fill="#ffffff" stroke="#000000" points="185.3862,-252.5 185.3862,-280.5 305.312,-280.5 305.312,-252.5 185.3862,-252.5"/>
<text text-anchor="start" x="193.3862" y="-268.5" font-family="Helvetica,sans-Serif" font-size="10.00" fill="#000000">Parallel::Communicator</text>
<text text-anchor="middle" x="245.3491" y="-258.5" font-family="Helvetica,sans-Serif" font-size="10.00" fill="#000000">::getNumProc</text>
</a>
</g>
</g>
<!-- Node30&#45;&gt;Node36 -->
<g id="edge6" class="edge">
<title>Node30&#45;&gt;Node36</title>
<path fill="none" stroke="#191970" d="M127.8411,-252.9038C143.1619,-254.6765 159.6002,-256.5785 175.1837,-258.3816"/>
<polygon fill="#191970" stroke="#191970" points="174.9444,-261.8771 185.2805,-259.5498 175.749,-254.9235 174.9444,-261.8771"/>
</g>
<!-- Node37 -->
<g id="node8" class="node">
<title>Node37</title>
<g id="a_node8"><a xlink:href="class_parameters.html#abace4edb8ece38841b58c5ce6168cbc4" target="_top" xlink:title=" ">
<polygon fill="#ffffff" stroke="#000000" points="183.4355,-215.5 183.4355,-233.5 307.2627,-233.5 307.2627,-215.5 183.4355,-215.5"/>
<text text-anchor="middle" x="245.3491" y="-221.5" font-family="Helvetica,sans-Serif" font-size="10.00" fill="#000000">Parameters::getFilePath</text>
</a>
</g>
</g>
<!-- Node30&#45;&gt;Node37 -->
<g id="edge7" class="edge">
<title>Node30&#45;&gt;Node37</title>
<path fill="none" stroke="#191970" d="M127.8411,-238.0962C142.4355,-236.4075 158.044,-234.6016 172.9616,-232.8755"/>
<polygon fill="#191970" stroke="#191970" points="173.6265,-236.3221 183.1579,-231.6958 172.8219,-229.3684 173.6265,-236.3221"/>
</g>
<!-- Node38 -->
<g id="node9" class="node">
<title>Node38</title>
<g id="a_node9"><a xlink:href="class_parameters.html#afa4cfe5dc4302b1e8f8928606ea9b056" target="_top" xlink:title=" ">
<polygon fill="#ffffff" stroke="#000000" points="172.5957,-178.5 172.5957,-196.5 318.1025,-196.5 318.1025,-178.5 172.5957,-178.5"/>
<text text-anchor="middle" x="245.3491" y="-184.5" font-family="Helvetica,sans-Serif" font-size="10.00" fill="#000000">Parameters::getOutputFolder</text>
</a>
</g>
</g>
<!-- Node30&#45;&gt;Node38 -->
<g id="edge8" class="edge">
<title>Node30&#45;&gt;Node38</title>
<path fill="none" stroke="#191970" d="M96.2617,-231.4753C115.5966,-223.4537 140.772,-213.6063 163.7041,-206.5 172.5856,-203.7478 182.1193,-201.1858 191.4265,-198.8907"/>
<polygon fill="#191970" stroke="#191970" points="192.4827,-202.2369 201.3953,-196.5085 190.8557,-195.4286 192.4827,-202.2369"/>
</g>
<!-- Node39 -->
<g id="node10" class="node">
<title>Node39</title>
<g id="a_node10"><a xlink:href="class_parallel_1_1_neighbours.html#ad1a2a616b4089eded3545faf11409b85" target="_top" xlink:title=" ">
<polygon fill="#ffffff" stroke="#000000" points="163.7041,-131.5 163.7041,-159.5 326.9941,-159.5 326.9941,-131.5 163.7041,-131.5"/>
<text text-anchor="start" x="171.7041" y="-147.5" font-family="Helvetica,sans-Serif" font-size="10.00" fill="#000000">Parallel::Neighbours</text>
<text text-anchor="middle" x="245.3491" y="-137.5" font-family="Helvetica,sans-Serif" font-size="10.00" fill="#000000">::getProcessorDimensionPosition</text>
</a>
</g>
</g>
<!-- Node30&#45;&gt;Node39 -->
<g id="edge9" class="edge">
<title>Node30&#45;&gt;Node39</title>
<path fill="none" stroke="#191970" d="M78.5717,-231.4888C97.0762,-214.5748 130.4607,-186.3131 163.7041,-169.5 168.2835,-167.184 173.1232,-165.0546 178.0683,-163.1038"/>
<polygon fill="#191970" stroke="#191970" points="179.4919,-166.3095 187.6673,-159.5705 177.0739,-159.7404 179.4919,-166.3095"/>
</g>
<!-- Node40 -->
<g id="node11" class="node">
<title>Node40</title>
<g id="a_node11"><a xlink:href="class_parallel_1_1_index.html#aaa2650024b4e91dc86d2bdc568c8f57d" target="_top" xlink:title=" ">
<polygon fill="#ffffff" stroke="#000000" points="181.4824,-84.5 181.4824,-112.5 309.2158,-112.5 309.2158,-84.5 181.4824,-84.5"/>
<text text-anchor="start" x="189.4824" y="-100.5" font-family="Helvetica,sans-Serif" font-size="10.00" fill="#000000">Parallel::Index::getGlobal</text>
<text text-anchor="middle" x="245.3491" y="-90.5" font-family="Helvetica,sans-Serif" font-size="10.00" fill="#000000">Index</text>
</a>
</g>
</g>
<!-- Node30&#45;&gt;Node40 -->
<g id="edge10" class="edge">
<title>Node30&#45;&gt;Node40</title>
<path fill="none" stroke="#191970" d="M71.4377,-231.3688C85.9149,-205.7534 119.9754,-151.6144 163.7041,-122.5 166.84,-120.4121 170.1613,-118.502 173.5999,-116.755"/>
<polygon fill="#191970" stroke="#191970" points="175.2823,-119.8347 182.9293,-112.5016 172.3784,-113.4654 175.2823,-119.8347"/>
</g>
<!-- Node41 -->
<g id="node12" class="node">
<title>Node41</title>
<g id="a_node12"><a xlink:href="class_parallel_1_1_index.html#af31faeef1369fdc0997d1910e008bfe2" target="_top" xlink:title=" ">
<polygon fill="#ffffff" stroke="#000000" points="183.7041,-47.5 183.7041,-65.5 306.9941,-65.5 306.9941,-47.5 183.7041,-47.5"/>
<text text-anchor="middle" x="245.3491" y="-53.5" font-family="Helvetica,sans-Serif" font-size="10.00" fill="#000000">Parallel::Index::getIndex</text>
</a>
</g>
</g>
<!-- Node30&#45;&gt;Node41 -->
<g id="edge11" class="edge">
<title>Node30&#45;&gt;Node41</title>
<path fill="none" stroke="#191970" d="M67.8717,-231.4674C78.0369,-198.6286 108.0067,-116.4676 163.7041,-75.5 166.9738,-73.095 170.5002,-70.9885 174.1885,-69.144"/>
<polygon fill="#191970" stroke="#191970" points="175.8342,-72.2461 183.6361,-65.078 173.067,-65.8163 175.8342,-72.2461"/>
</g>
<!-- Node42 -->
<g id="node13" class="node">
<title>Node42</title>
<g id="a_node13"><a xlink:href="class_parallel_1_1_communicator.html#a474ab433da0e83ef372d74e26a7e5cb0" target="_top" xlink:title=" ">
<polygon fill="#ffffff" stroke="#000000" points="185.3862,-.5 185.3862,-28.5 305.312,-28.5 305.312,-.5 185.3862,-.5"/>
<text text-anchor="start" x="193.3862" y="-16.5" font-family="Helvetica,sans-Serif" font-size="10.00" fill="#000000">Parallel::Communicator</text>
<text text-anchor="middle" x="245.3491" y="-6.5" font-family="Helvetica,sans-Serif" font-size="10.00" fill="#000000">::getProcessRank</text>
</a>
</g>
</g>
<!-- Node30&#45;&gt;Node42 -->
<g id="edge12" class="edge">
<title>Node30&#45;&gt;Node42</title>
<path fill="none" stroke="#191970" d="M66.5614,-231.2542C74.4377,-193.8035 100.8786,-91.8076 163.7041,-38.5 167.4498,-35.3217 171.5999,-32.5642 175.986,-30.1717"/>
<polygon fill="#191970" stroke="#191970" points="177.7407,-33.2129 185.2668,-25.7557 174.733,-26.8919 177.7407,-33.2129"/>
</g>
</g>
</svg>
