<?xml version="1.0" encoding="UTF-8" standalone="no"?>
<!DOCTYPE svg PUBLIC "-//W3C//DTD SVG 1.1//EN"
 "http://www.w3.org/Graphics/SVG/1.1/DTD/svg11.dtd">
<!-- Generated by graphviz version 2.40.1 (20161225.0304)
 -->
<!-- Title: GLAC/math/complex.cpp Pages: 1 -->
<svg width="137pt" height="137pt"
 viewBox="0.00 0.00 137.37 137.00" xmlns="http://www.w3.org/2000/svg" xmlns:xlink="http://www.w3.org/1999/xlink">
<g id="graph0" class="graph" transform="scale(1 1) rotate(0) translate(4 133)">
<title>GLAC/math/complex.cpp</title>
<polygon fill="#ffffff" stroke="transparent" points="-4,4 -4,-133 133.3667,-133 133.3667,4 -4,4"/>
<!-- Node0 -->
<g id="node1" class="node">
<title>Node0</title>
<g id="a_node1"><a xlink:title=" ">
<polygon fill="#bfbfbf" stroke="#000000" points="2.2095,-110.5 2.2095,-128.5 129.3667,-128.5 129.3667,-110.5 2.2095,-110.5"/>
<text text-anchor="middle" x="65.7881" y="-116.5" font-family="Helvetica,sans-Serif" font-size="10.00" fill="#000000">GLAC/math/complex.cpp</text>
</a>
</g>
</g>
<!-- Node1 -->
<g id="node2" class="node">
<title>Node1</title>
<g id="a_node2"><a xlink:href="complex_8h.html" target="_top" xlink:title=" ">
<polygon fill="#ffffff" stroke="#000000" points="0,-55.5 0,-73.5 61.5762,-73.5 61.5762,-55.5 0,-55.5"/>
<text text-anchor="middle" x="30.7881" y="-61.5" font-family="Helvetica,sans-Serif" font-size="10.00" fill="#000000">complex.h</text>
</a>
</g>
</g>
<!-- Node0&#45;&gt;Node1 -->
<g id="edge1" class="edge">
<title>Node0&#45;&gt;Node1</title>
<path fill="none" stroke="#191970" d="M60.0085,-110.4179C55.174,-102.8207 48.1307,-91.7527 42.1705,-82.3866"/>
<polygon fill="#191970" stroke="#191970" points="45.0148,-80.337 36.6932,-73.7795 39.1092,-84.0952 45.0148,-80.337"/>
</g>
<!-- Node3 -->
<g id="node4" class="node">
<title>Node3</title>
<g id="a_node4"><a xlink:title=" ">
<polygon fill="#ffffff" stroke="#bfbfbf" points="79.1724,-55.5 79.1724,-73.5 122.4038,-73.5 122.4038,-55.5 79.1724,-55.5"/>
<text text-anchor="middle" x="100.7881" y="-61.5" font-family="Helvetica,sans-Serif" font-size="10.00" fill="#000000">cmath</text>
</a>
</g>
</g>
<!-- Node0&#45;&gt;Node3 -->
<g id="edge3" class="edge">
<title>Node0&#45;&gt;Node3</title>
<path fill="none" stroke="#191970" d="M71.5676,-110.4179C76.4022,-102.8207 83.4455,-91.7527 89.4057,-82.3866"/>
<polygon fill="#191970" stroke="#191970" points="92.467,-84.0952 94.883,-73.7795 86.5614,-80.337 92.467,-84.0952"/>
</g>
<!-- Node2 -->
<g id="node3" class="node">
<title>Node2</title>
<g id="a_node3"><a xlink:title=" ">
<polygon fill="#ffffff" stroke="#bfbfbf" points="3.6157,-.5 3.6157,-18.5 57.9604,-18.5 57.9604,-.5 3.6157,-.5"/>
<text text-anchor="middle" x="30.7881" y="-6.5" font-family="Helvetica,sans-Serif" font-size="10.00" fill="#000000">iostream</text>
</a>
</g>
</g>
<!-- Node1&#45;&gt;Node2 -->
<g id="edge2" class="edge">
<title>Node1&#45;&gt;Node2</title>
<path fill="none" stroke="#191970" d="M30.7881,-55.4179C30.7881,-48.2164 30.7881,-37.8962 30.7881,-28.8632"/>
<polygon fill="#191970" stroke="#191970" points="34.2882,-28.7794 30.7881,-18.7795 27.2882,-28.7795 34.2882,-28.7794"/>
</g>
</g>
</svg>
