<?xml version="1.0" encoding="UTF-8" standalone="no"?>
<!DOCTYPE svg PUBLIC "-//W3C//DTD SVG 1.1//EN"
 "http://www.w3.org/Graphics/SVG/1.1/DTD/svg11.dtd">
<!-- Generated by graphviz version 2.40.1 (20161225.0304)
 -->
<!-- Title: GLAC/config/configloader.cpp Pages: 1 -->
<svg width="2512pt" height="412pt"
 viewBox="0.00 0.00 2511.62 412.00" xmlns="http://www.w3.org/2000/svg" xmlns:xlink="http://www.w3.org/1999/xlink">
<g id="graph0" class="graph" transform="scale(1 1) rotate(0) translate(4 408)">
<title>GLAC/config/configloader.cpp</title>
<polygon fill="#ffffff" stroke="transparent" points="-4,4 -4,-408 2507.6243,-408 2507.6243,4 -4,4"/>
<!-- Node0 -->
<g id="node1" class="node">
<title>Node0</title>
<g id="a_node1"><a xlink:title=" ">
<polygon fill="#bfbfbf" stroke="#000000" points="1685.9574,-385.5 1685.9574,-403.5 1834.2669,-403.5 1834.2669,-385.5 1685.9574,-385.5"/>
<text text-anchor="middle" x="1760.1121" y="-391.5" font-family="Helvetica,sans-Serif" font-size="10.00" fill="#000000">GLAC/config/configloader.cpp</text>
</a>
</g>
</g>
<!-- Node1 -->
<g id="node2" class="node">
<title>Node1</title>
<g id="a_node2"><a xlink:href="configloader_8h.html" target="_top" xlink:title=" ">
<polygon fill="#ffffff" stroke="#000000" points="1625.9744,-330.5 1625.9744,-348.5 1704.2498,-348.5 1704.2498,-330.5 1625.9744,-330.5"/>
<text text-anchor="middle" x="1665.1121" y="-336.5" font-family="Helvetica,sans-Serif" font-size="10.00" fill="#000000">configloader.h</text>
</a>
</g>
</g>
<!-- Node0&#45;&gt;Node1 -->
<g id="edge1" class="edge">
<title>Node0&#45;&gt;Node1</title>
<path fill="none" stroke="#191970" d="M1744.4248,-385.4179C1729.5732,-376.8195 1707.0423,-363.7754 1689.7852,-353.7844"/>
<polygon fill="#191970" stroke="#191970" points="1691.2307,-350.577 1680.8228,-348.5956 1687.7234,-356.635 1691.2307,-350.577"/>
</g>
<!-- Node3 -->
<g id="node4" class="node">
<title>Node3</title>
<g id="a_node4"><a xlink:title=" ">
<polygon fill="#ffffff" stroke="#bfbfbf" points="1954.4422,-330.5 1954.4422,-348.5 2003.7821,-348.5 2003.7821,-330.5 1954.4422,-330.5"/>
<text text-anchor="middle" x="1979.1121" y="-336.5" font-family="Helvetica,sans-Serif" font-size="10.00" fill="#000000">fstream</text>
</a>
</g>
</g>
<!-- Node0&#45;&gt;Node3 -->
<g id="edge3" class="edge">
<title>Node0&#45;&gt;Node3</title>
<path fill="none" stroke="#191970" d="M1798.4667,-385.4372C1833.8939,-376.9835 1888.2184,-363.8132 1944.4746,-349.1091"/>
<polygon fill="#191970" stroke="#191970" points="1945.4703,-352.4664 1954.2541,-346.5424 1943.6932,-345.6957 1945.4703,-352.4664"/>
</g>
<!-- Node4 -->
<g id="node5" class="node">
<title>Node4</title>
<g id="a_node5"><a xlink:href="json_8hpp.html" target="_top" xlink:title=" ">
<polygon fill="#ffffff" stroke="#000000" points="843.8167,-330.5 843.8167,-348.5 910.4076,-348.5 910.4076,-330.5 843.8167,-330.5"/>
<text text-anchor="middle" x="877.1121" y="-336.5" font-family="Helvetica,sans-Serif" font-size="10.00" fill="#000000">lib/json.hpp</text>
</a>
</g>
</g>
<!-- Node0&#45;&gt;Node4 -->
<g id="edge4" class="edge">
<title>Node0&#45;&gt;Node4</title>
<path fill="none" stroke="#191970" d="M1685.5891,-389.8581C1507.5177,-378.7665 1061.6536,-350.9947 920.6069,-342.2092"/>
<polygon fill="#191970" stroke="#191970" points="920.7977,-338.7144 910.5994,-341.5858 920.3625,-345.7008 920.7977,-338.7144"/>
</g>
<!-- Node31 -->
<g id="node32" class="node">
<title>Node31</title>
<g id="a_node32"><a xlink:href="parameters_8h.html" target="_top" xlink:title=" ">
<polygon fill="#ffffff" stroke="#000000" points="1722.6541,-330.5 1722.6541,-348.5 1797.5701,-348.5 1797.5701,-330.5 1722.6541,-330.5"/>
<text text-anchor="middle" x="1760.1121" y="-336.5" font-family="Helvetica,sans-Serif" font-size="10.00" fill="#000000">parameters.h</text>
</a>
</g>
</g>
<!-- Node0&#45;&gt;Node31 -->
<g id="edge32" class="edge">
<title>Node0&#45;&gt;Node31</title>
<path fill="none" stroke="#191970" d="M1760.1121,-385.4179C1760.1121,-378.2164 1760.1121,-367.8962 1760.1121,-358.8632"/>
<polygon fill="#191970" stroke="#191970" points="1763.6122,-358.7794 1760.1121,-348.7795 1756.6122,-358.7795 1763.6122,-358.7794"/>
</g>
<!-- Node32 -->
<g id="node33" class="node">
<title>Node32</title>
<g id="a_node33"><a xlink:href="parallel_8h.html" target="_top" xlink:title=" ">
<polygon fill="#ffffff" stroke="#000000" points="1815.8587,-330.5 1815.8587,-348.5 1936.3656,-348.5 1936.3656,-330.5 1815.8587,-330.5"/>
<text text-anchor="middle" x="1876.1121" y="-336.5" font-family="Helvetica,sans-Serif" font-size="10.00" fill="#000000">parallelization/parallel.h</text>
</a>
</g>
</g>
<!-- Node0&#45;&gt;Node32 -->
<g id="edge35" class="edge">
<title>Node0&#45;&gt;Node32</title>
<path fill="none" stroke="#191970" d="M1779.2672,-385.4179C1797.9056,-376.5807 1826.4488,-363.0473 1847.7257,-352.9591"/>
<polygon fill="#191970" stroke="#191970" points="1849.3923,-356.0424 1856.9286,-348.5956 1846.3933,-349.7174 1849.3923,-356.0424"/>
</g>
<!-- Node2 -->
<g id="node3" class="node">
<title>Node2</title>
<g id="a_node3"><a xlink:title=" ">
<polygon fill="#ffffff" stroke="#bfbfbf" points="1695.8856,-275.5 1695.8856,-293.5 1736.3387,-293.5 1736.3387,-275.5 1695.8856,-275.5"/>
<text text-anchor="middle" x="1716.1121" y="-281.5" font-family="Helvetica,sans-Serif" font-size="10.00" fill="#000000">string</text>
</a>
</g>
</g>
<!-- Node1&#45;&gt;Node2 -->
<g id="edge2" class="edge">
<title>Node1&#45;&gt;Node2</title>
<path fill="none" stroke="#191970" d="M1673.5338,-330.4179C1680.872,-322.5041 1691.7023,-310.8243 1700.6034,-301.2251"/>
<polygon fill="#191970" stroke="#191970" points="1703.2746,-303.492 1707.5076,-293.7795 1698.1417,-298.7324 1703.2746,-303.492"/>
</g>
<!-- Node4&#45;&gt;Node2 -->
<g id="edge28" class="edge">
<title>Node4&#45;&gt;Node2</title>
<path fill="none" stroke="#191970" d="M910.476,-338.5754C1042.6695,-334.7634 1529.8666,-319.2669 1682.1121,-294 1683.3705,-293.7912 1684.649,-293.5535 1685.936,-293.2931"/>
<polygon fill="#191970" stroke="#191970" points="1686.8585,-296.6714 1695.7767,-290.9516 1685.2381,-289.8615 1686.8585,-296.6714"/>
</g>
<!-- Node5 -->
<g id="node6" class="node">
<title>Node5</title>
<g id="a_node6"><a xlink:title=" ">
<polygon fill="#ffffff" stroke="#bfbfbf" points="687.5482,-275.5 687.5482,-293.5 744.6761,-293.5 744.6761,-275.5 687.5482,-275.5"/>
<text text-anchor="middle" x="716.1121" y="-281.5" font-family="Helvetica,sans-Serif" font-size="10.00" fill="#000000">algorithm</text>
</a>
</g>
</g>
<!-- Node4&#45;&gt;Node5 -->
<g id="edge5" class="edge">
<title>Node4&#45;&gt;Node5</title>
<path fill="none" stroke="#191970" d="M850.5263,-330.4179C823.645,-321.2348 781.9194,-306.9807 752.0909,-296.7909"/>
<polygon fill="#191970" stroke="#191970" points="753.0645,-293.4249 742.4699,-293.5042 750.8015,-300.0491 753.0645,-293.4249"/>
</g>
<!-- Node6 -->
<g id="node7" class="node">
<title>Node6</title>
<g id="a_node7"><a xlink:title=" ">
<polygon fill="#ffffff" stroke="#bfbfbf" points="762.7205,-275.5 762.7205,-293.5 801.5037,-293.5 801.5037,-275.5 762.7205,-275.5"/>
<text text-anchor="middle" x="782.1121" y="-281.5" font-family="Helvetica,sans-Serif" font-size="10.00" fill="#000000">array</text>
</a>
</g>
</g>
<!-- Node4&#45;&gt;Node6 -->
<g id="edge6" class="edge">
<title>Node4&#45;&gt;Node6</title>
<path fill="none" stroke="#191970" d="M861.4248,-330.4179C846.5732,-321.8195 824.0423,-308.7754 806.7852,-298.7844"/>
<polygon fill="#191970" stroke="#191970" points="808.2307,-295.577 797.8228,-293.5956 804.7234,-301.635 808.2307,-295.577"/>
</g>
<!-- Node7 -->
<g id="node8" class="node">
<title>Node7</title>
<g id="a_node8"><a xlink:title=" ">
<polygon fill="#ffffff" stroke="#bfbfbf" points="819.9964,-275.5 819.9964,-293.5 868.2279,-293.5 868.2279,-275.5 819.9964,-275.5"/>
<text text-anchor="middle" x="844.1121" y="-281.5" font-family="Helvetica,sans-Serif" font-size="10.00" fill="#000000">cassert</text>
</a>
</g>
</g>
<!-- Node4&#45;&gt;Node7 -->
<g id="edge7" class="edge">
<title>Node4&#45;&gt;Node7</title>
<path fill="none" stroke="#191970" d="M871.6629,-330.4179C867.1045,-322.8207 860.4637,-311.7527 854.8441,-302.3866"/>
<polygon fill="#191970" stroke="#191970" points="857.8261,-300.5536 849.6798,-293.7795 851.8236,-304.1552 857.8261,-300.5536"/>
</g>
<!-- Node8 -->
<g id="node9" class="node">
<title>Node8</title>
<g id="a_node9"><a xlink:title=" ">
<polygon fill="#ffffff" stroke="#bfbfbf" points="886.6615,-275.5 886.6615,-293.5 931.5628,-293.5 931.5628,-275.5 886.6615,-275.5"/>
<text text-anchor="middle" x="909.1121" y="-281.5" font-family="Helvetica,sans-Serif" font-size="10.00" fill="#000000">cctype</text>
</a>
</g>
</g>
<!-- Node4&#45;&gt;Node8 -->
<g id="edge8" class="edge">
<title>Node4&#45;&gt;Node8</title>
<path fill="none" stroke="#191970" d="M882.3963,-330.4179C886.7704,-322.8998 893.1221,-311.9829 898.5348,-302.6799"/>
<polygon fill="#191970" stroke="#191970" points="901.7094,-304.1831 903.7132,-293.7795 895.659,-300.6628 901.7094,-304.1831"/>
</g>
<!-- Node9 -->
<g id="node10" class="node">
<title>Node9</title>
<g id="a_node10"><a xlink:title=" ">
<polygon fill="#ffffff" stroke="#bfbfbf" points="949.8783,-275.5 949.8783,-293.5 1000.346,-293.5 1000.346,-275.5 949.8783,-275.5"/>
<text text-anchor="middle" x="975.1121" y="-281.5" font-family="Helvetica,sans-Serif" font-size="10.00" fill="#000000">ciso646</text>
</a>
</g>
</g>
<!-- Node4&#45;&gt;Node9 -->
<g id="edge9" class="edge">
<title>Node4&#45;&gt;Node9</title>
<path fill="none" stroke="#191970" d="M893.2948,-330.4179C908.7574,-321.7399 932.2889,-308.5334 950.153,-298.5077"/>
<polygon fill="#191970" stroke="#191970" points="951.8978,-301.542 958.9054,-293.5956 948.4719,-295.4377 951.8978,-301.542"/>
</g>
<!-- Node10 -->
<g id="node11" class="node">
<title>Node10</title>
<g id="a_node11"><a xlink:title=" ">
<polygon fill="#ffffff" stroke="#bfbfbf" points="1018.4964,-275.5 1018.4964,-293.5 1061.7279,-293.5 1061.7279,-275.5 1018.4964,-275.5"/>
<text text-anchor="middle" x="1040.1121" y="-281.5" font-family="Helvetica,sans-Serif" font-size="10.00" fill="#000000">cmath</text>
</a>
</g>
</g>
<!-- Node4&#45;&gt;Node10 -->
<g id="edge10" class="edge">
<title>Node4&#45;&gt;Node10</title>
<path fill="none" stroke="#191970" d="M904.0283,-330.4179C932.787,-320.714 978.3276,-305.3475 1008.7036,-295.098"/>
<polygon fill="#191970" stroke="#191970" points="1010.0214,-298.3473 1018.3775,-291.8338 1007.7833,-291.7147 1010.0214,-298.3473"/>
</g>
<!-- Node11 -->
<g id="node12" class="node">
<title>Node11</title>
<g id="a_node12"><a xlink:title=" ">
<polygon fill="#ffffff" stroke="#bfbfbf" points="1079.9915,-275.5 1079.9915,-293.5 1128.2327,-293.5 1128.2327,-275.5 1079.9915,-275.5"/>
<text text-anchor="middle" x="1104.1121" y="-281.5" font-family="Helvetica,sans-Serif" font-size="10.00" fill="#000000">cstddef</text>
</a>
</g>
</g>
<!-- Node4&#45;&gt;Node11 -->
<g id="edge11" class="edge">
<title>Node4&#45;&gt;Node11</title>
<path fill="none" stroke="#191970" d="M910.5352,-332.1937C947.3265,-324.0343 1008.4369,-310.1386 1069.7952,-294.2572"/>
<polygon fill="#191970" stroke="#191970" points="1070.8468,-297.6001 1079.6413,-291.6919 1069.0819,-290.8263 1070.8468,-297.6001"/>
</g>
<!-- Node12 -->
<g id="node13" class="node">
<title>Node12</title>
<g id="a_node13"><a xlink:title=" ">
<polygon fill="#ffffff" stroke="#bfbfbf" points="1146.6615,-275.5 1146.6615,-293.5 1191.5628,-293.5 1191.5628,-275.5 1146.6615,-275.5"/>
<text text-anchor="middle" x="1169.1121" y="-281.5" font-family="Helvetica,sans-Serif" font-size="10.00" fill="#000000">cstdint</text>
</a>
</g>
</g>
<!-- Node4&#45;&gt;Node12 -->
<g id="edge12" class="edge">
<title>Node4&#45;&gt;Node12</title>
<path fill="none" stroke="#191970" d="M910.6064,-334.9014C958.5658,-328.0429 1049.7003,-313.9941 1136.7079,-293.8621"/>
<polygon fill="#191970" stroke="#191970" points="1137.5362,-297.2629 1146.4731,-291.5724 1135.9381,-290.4477 1137.5362,-297.2629"/>
</g>
<!-- Node13 -->
<g id="node14" class="node">
<title>Node13</title>
<g id="a_node14"><a xlink:title=" ">
<polygon fill="#ffffff" stroke="#bfbfbf" points="1209.9398,-275.5 1209.9398,-293.5 1254.2845,-293.5 1254.2845,-275.5 1209.9398,-275.5"/>
<text text-anchor="middle" x="1232.1121" y="-281.5" font-family="Helvetica,sans-Serif" font-size="10.00" fill="#000000">cstdlib</text>
</a>
</g>
</g>
<!-- Node4&#45;&gt;Node13 -->
<g id="edge13" class="edge">
<title>Node4&#45;&gt;Node13</title>
<path fill="none" stroke="#191970" d="M910.4139,-336.4581C969.3152,-330.7126 1095.5289,-316.7581 1200.1121,-294 1200.2112,-293.9784 1200.3105,-293.9567 1200.4098,-293.9349"/>
<polygon fill="#191970" stroke="#191970" points="1200.9929,-297.3971 1209.8424,-291.5716 1199.2916,-290.6069 1200.9929,-297.3971"/>
</g>
<!-- Node14 -->
<g id="node15" class="node">
<title>Node14</title>
<g id="a_node15"><a xlink:title=" ">
<polygon fill="#ffffff" stroke="#bfbfbf" points="1272.3856,-275.5 1272.3856,-293.5 1317.8387,-293.5 1317.8387,-275.5 1272.3856,-275.5"/>
<text text-anchor="middle" x="1295.1121" y="-281.5" font-family="Helvetica,sans-Serif" font-size="10.00" fill="#000000">cstring</text>
</a>
</g>
</g>
<!-- Node4&#45;&gt;Node14 -->
<g id="edge14" class="edge">
<title>Node4&#45;&gt;Node14</title>
<path fill="none" stroke="#191970" d="M910.4637,-337.4987C976.0869,-333.1485 1126.6427,-321.1293 1262.0259,-293.8992"/>
<polygon fill="#191970" stroke="#191970" points="1263.064,-297.2593 1272.1597,-291.8262 1261.6611,-290.4014 1263.064,-297.2593"/>
</g>
<!-- Node15 -->
<g id="node16" class="node">
<title>Node15</title>
<g id="a_node16"><a xlink:title=" ">
<polygon fill="#ffffff" stroke="#bfbfbf" points="1335.5482,-275.5 1335.5482,-293.5 1402.6761,-293.5 1402.6761,-275.5 1335.5482,-275.5"/>
<text text-anchor="middle" x="1369.1121" y="-281.5" font-family="Helvetica,sans-Serif" font-size="10.00" fill="#000000">forward_list</text>
</a>
</g>
</g>
<!-- Node4&#45;&gt;Node15 -->
<g id="edge15" class="edge">
<title>Node4&#45;&gt;Node15</title>
<path fill="none" stroke="#191970" d="M910.6016,-337.5128C984.0408,-332.8561 1164.8797,-319.7586 1325.2127,-294.1545"/>
<polygon fill="#191970" stroke="#191970" points="1325.9427,-297.582 1335.2554,-292.5298 1324.8247,-290.6719 1325.9427,-297.582"/>
</g>
<!-- Node16 -->
<g id="node17" class="node">
<title>Node16</title>
<g id="a_node17"><a xlink:title=" ">
<polygon fill="#ffffff" stroke="#bfbfbf" points="1420.7083,-275.5 1420.7083,-293.5 1479.5159,-293.5 1479.5159,-275.5 1420.7083,-275.5"/>
<text text-anchor="middle" x="1450.1121" y="-281.5" font-family="Helvetica,sans-Serif" font-size="10.00" fill="#000000">functional</text>
</a>
</g>
</g>
<!-- Node4&#45;&gt;Node16 -->
<g id="edge16" class="edge">
<title>Node4&#45;&gt;Node16</title>
<path fill="none" stroke="#191970" d="M910.525,-338.5162C993.612,-335.6753 1216.2838,-325.6454 1410.2457,-294.0886"/>
<polygon fill="#191970" stroke="#191970" points="1411.0396,-297.505 1420.3361,-292.423 1409.8995,-290.5985 1411.0396,-297.505"/>
</g>
<!-- Node17 -->
<g id="node18" class="node">
<title>Node17</title>
<g id="a_node18"><a xlink:title=" ">
<polygon fill="#ffffff" stroke="#bfbfbf" points="1497.7699,-275.5 1497.7699,-293.5 1570.4544,-293.5 1570.4544,-275.5 1497.7699,-275.5"/>
<text text-anchor="middle" x="1534.1121" y="-281.5" font-family="Helvetica,sans-Serif" font-size="10.00" fill="#000000">initializer_list</text>
</a>
</g>
</g>
<!-- Node4&#45;&gt;Node17 -->
<g id="edge17" class="edge">
<title>Node4&#45;&gt;Node17</title>
<path fill="none" stroke="#191970" d="M910.7217,-338.5232C1001.8734,-335.5502 1261.5028,-324.9341 1487.4732,-293.8979"/>
<polygon fill="#191970" stroke="#191970" points="1488.1053,-297.3438 1497.5282,-292.5002 1487.1415,-290.4105 1488.1053,-297.3438"/>
</g>
<!-- Node18 -->
<g id="node19" class="node">
<title>Node18</title>
<g id="a_node19"><a xlink:title=" ">
<polygon fill="#ffffff" stroke="#bfbfbf" points="1588.6024,-275.5 1588.6024,-293.5 1639.6219,-293.5 1639.6219,-275.5 1588.6024,-275.5"/>
<text text-anchor="middle" x="1614.1121" y="-281.5" font-family="Helvetica,sans-Serif" font-size="10.00" fill="#000000">iomanip</text>
</a>
</g>
</g>
<!-- Node4&#45;&gt;Node18 -->
<g id="edge18" class="edge">
<title>Node4&#45;&gt;Node18</title>
<path fill="none" stroke="#191970" d="M910.6598,-338.218C1029.177,-333.5531 1428.6111,-316.644 1577.9346,-293.7961"/>
<polygon fill="#191970" stroke="#191970" points="1578.9274,-297.1816 1588.2463,-292.1409 1577.818,-290.2701 1578.9274,-297.1816"/>
</g>
<!-- Node19 -->
<g id="node20" class="node">
<title>Node19</title>
<g id="a_node20"><a xlink:title=" ">
<polygon fill="#ffffff" stroke="#bfbfbf" points="1095.9398,-.5 1095.9398,-18.5 1150.2845,-18.5 1150.2845,-.5 1095.9398,-.5"/>
<text text-anchor="middle" x="1123.1121" y="-6.5" font-family="Helvetica,sans-Serif" font-size="10.00" fill="#000000">iostream</text>
</a>
</g>
</g>
<!-- Node4&#45;&gt;Node19 -->
<g id="edge19" class="edge">
<title>Node4&#45;&gt;Node19</title>
<path fill="none" stroke="#191970" d="M843.6449,-338.7972C689.3797,-335.4223 52.9739,-319.9645 20.1121,-294 -3.3364,-275.473 1.1121,-259.3846 1.1121,-229.5 1.1121,-229.5 1.1121,-229.5 1.1121,-119.5 1.1121,-63.705 891.5192,-20.0236 1085.9196,-11.1516"/>
<polygon fill="#191970" stroke="#191970" points="1086.102,-14.6471 1095.9331,-10.6974 1085.7847,-7.6543 1086.102,-14.6471"/>
</g>
<!-- Node20 -->
<g id="node21" class="node">
<title>Node20</title>
<g id="a_node21"><a xlink:title=" ">
<polygon fill="#ffffff" stroke="#bfbfbf" points="29.5506,-275.5 29.5506,-293.5 76.6737,-293.5 76.6737,-275.5 29.5506,-275.5"/>
<text text-anchor="middle" x="53.1121" y="-281.5" font-family="Helvetica,sans-Serif" font-size="10.00" fill="#000000">iterator</text>
</a>
</g>
</g>
<!-- Node4&#45;&gt;Node20 -->
<g id="edge20" class="edge">
<title>Node4&#45;&gt;Node20</title>
<path fill="none" stroke="#191970" d="M843.4334,-338.5625C714.8624,-334.8318 254.2271,-320.0406 86.6561,-293.6242"/>
<polygon fill="#191970" stroke="#191970" points="87.1952,-290.1659 76.7587,-291.9907 86.0552,-297.0725 87.1952,-290.1659"/>
</g>
<!-- Node21 -->
<g id="node22" class="node">
<title>Node21</title>
<g id="a_node22"><a xlink:title=" ">
<polygon fill="#ffffff" stroke="#bfbfbf" points="94.7254,-275.5 94.7254,-293.5 133.4989,-293.5 133.4989,-275.5 94.7254,-275.5"/>
<text text-anchor="middle" x="114.1121" y="-281.5" font-family="Helvetica,sans-Serif" font-size="10.00" fill="#000000">limits</text>
</a>
</g>
</g>
<!-- Node4&#45;&gt;Node21 -->
<g id="edge21" class="edge">
<title>Node4&#45;&gt;Node21</title>
<path fill="none" stroke="#191970" d="M843.67,-338.6066C721.5112,-335.1649 298.8905,-321.6479 143.776,-293.7629"/>
<polygon fill="#191970" stroke="#191970" points="143.9913,-290.2415 133.5144,-291.818 142.6877,-297.119 143.9913,-290.2415"/>
</g>
<!-- Node22 -->
<g id="node23" class="node">
<title>Node22</title>
<g id="a_node23"><a xlink:title=" ">
<polygon fill="#ffffff" stroke="#bfbfbf" points="151.0482,-275.5 151.0482,-293.5 193.1761,-293.5 193.1761,-275.5 151.0482,-275.5"/>
<text text-anchor="middle" x="172.1121" y="-281.5" font-family="Helvetica,sans-Serif" font-size="10.00" fill="#000000">locale</text>
</a>
</g>
</g>
<!-- Node4&#45;&gt;Node22 -->
<g id="edge22" class="edge">
<title>Node4&#45;&gt;Node22</title>
<path fill="none" stroke="#191970" d="M843.6061,-338.3033C728.0391,-334.014 345.8274,-318.4448 203.1111,-293.6844"/>
<polygon fill="#191970" stroke="#191970" points="203.7223,-290.2382 193.2564,-291.8858 202.4654,-297.1245 203.7223,-290.2382"/>
</g>
<!-- Node23 -->
<g id="node24" class="node">
<title>Node23</title>
<g id="a_node24"><a xlink:title=" ">
<polygon fill="#ffffff" stroke="#bfbfbf" points="211.3856,-275.5 211.3856,-293.5 246.8387,-293.5 246.8387,-275.5 211.3856,-275.5"/>
<text text-anchor="middle" x="229.1121" y="-281.5" font-family="Helvetica,sans-Serif" font-size="10.00" fill="#000000">map</text>
</a>
</g>
</g>
<!-- Node4&#45;&gt;Node23 -->
<g id="edge23" class="edge">
<title>Node4&#45;&gt;Node23</title>
<path fill="none" stroke="#191970" d="M843.5739,-338.215C734.2522,-333.8478 388.1946,-318.5705 256.7597,-293.4938"/>
<polygon fill="#191970" stroke="#191970" points="257.4265,-290.0579 246.9322,-291.5139 256.044,-296.92 257.4265,-290.0579"/>
</g>
<!-- Node24 -->
<g id="node25" class="node">
<title>Node24</title>
<g id="a_node25"><a xlink:title=" ">
<polygon fill="#ffffff" stroke="#bfbfbf" points="265.0555,-275.5 265.0555,-293.5 317.1688,-293.5 317.1688,-275.5 265.0555,-275.5"/>
<text text-anchor="middle" x="291.1121" y="-281.5" font-family="Helvetica,sans-Serif" font-size="10.00" fill="#000000">memory</text>
</a>
</g>
</g>
<!-- Node4&#45;&gt;Node24 -->
<g id="edge24" class="edge">
<title>Node4&#45;&gt;Node24</title>
<path fill="none" stroke="#191970" d="M843.6127,-338.8593C758.6732,-336.7842 527.9872,-328.339 327.4965,-293.9437"/>
<polygon fill="#191970" stroke="#191970" points="327.8216,-290.4477 317.3692,-292.1794 326.6202,-297.3438 327.8216,-290.4477"/>
</g>
<!-- Node25 -->
<g id="node26" class="node">
<title>Node25</title>
<g id="a_node26"><a xlink:title=" ">
<polygon fill="#ffffff" stroke="#bfbfbf" points="335.3289,-275.5 335.3289,-293.5 386.8953,-293.5 386.8953,-275.5 335.3289,-275.5"/>
<text text-anchor="middle" x="361.1121" y="-281.5" font-family="Helvetica,sans-Serif" font-size="10.00" fill="#000000">numeric</text>
</a>
</g>
</g>
<!-- Node4&#45;&gt;Node25 -->
<g id="edge25" class="edge">
<title>Node4&#45;&gt;Node25</title>
<path fill="none" stroke="#191970" d="M843.6049,-338.2985C766.4159,-335.112 570.0766,-324.6159 397.0429,-293.8674"/>
<polygon fill="#191970" stroke="#191970" points="397.4558,-290.3854 386.9931,-292.0536 396.2125,-297.2741 397.4558,-290.3854"/>
</g>
<!-- Node26 -->
<g id="node27" class="node">
<title>Node26</title>
<g id="a_node27"><a xlink:title=" ">
<polygon fill="#ffffff" stroke="#bfbfbf" points="405.3314,-275.5 405.3314,-293.5 456.8929,-293.5 456.8929,-275.5 405.3314,-275.5"/>
<text text-anchor="middle" x="431.1121" y="-281.5" font-family="Helvetica,sans-Serif" font-size="10.00" fill="#000000">sstream</text>
</a>
</g>
</g>
<!-- Node4&#45;&gt;Node26 -->
<g id="edge26" class="edge">
<title>Node4&#45;&gt;Node26</title>
<path fill="none" stroke="#191970" d="M843.5552,-337.5507C774.6964,-333.1734 612.3877,-320.9171 466.9958,-293.893"/>
<polygon fill="#191970" stroke="#191970" points="467.4775,-290.4222 457.0019,-292.0067 466.1792,-297.3008 467.4775,-290.4222"/>
</g>
<!-- Node27 -->
<g id="node28" class="node">
<title>Node27</title>
<g id="a_node28"><a xlink:title=" ">
<polygon fill="#ffffff" stroke="#bfbfbf" points="474.7108,-275.5 474.7108,-293.5 533.5135,-293.5 533.5135,-275.5 474.7108,-275.5"/>
<text text-anchor="middle" x="504.1121" y="-281.5" font-family="Helvetica,sans-Serif" font-size="10.00" fill="#000000">stdexcept</text>
</a>
</g>
</g>
<!-- Node4&#45;&gt;Node27 -->
<g id="edge27" class="edge">
<title>Node4&#45;&gt;Node27</title>
<path fill="none" stroke="#191970" d="M843.6305,-336.1859C784.8251,-330.0996 659.0142,-315.8947 543.9459,-294.1959"/>
<polygon fill="#191970" stroke="#191970" points="544.3931,-290.7182 533.9139,-292.2796 543.0796,-297.5938 544.3931,-290.7182"/>
</g>
<!-- Node28 -->
<g id="node29" class="node">
<title>Node28</title>
<g id="a_node29"><a xlink:title=" ">
<polygon fill="#ffffff" stroke="#bfbfbf" points="551.0457,-275.5 551.0457,-293.5 613.1785,-293.5 613.1785,-275.5 551.0457,-275.5"/>
<text text-anchor="middle" x="582.1121" y="-281.5" font-family="Helvetica,sans-Serif" font-size="10.00" fill="#000000">type_traits</text>
</a>
</g>
</g>
<!-- Node4&#45;&gt;Node28 -->
<g id="edge29" class="edge">
<title>Node4&#45;&gt;Node28</title>
<path fill="none" stroke="#191970" d="M843.5808,-334.1386C796.5765,-326.4876 708.2078,-311.6117 623.5527,-294.2142"/>
<polygon fill="#191970" stroke="#191970" points="624.0195,-290.7367 613.5175,-292.1361 622.6,-297.5913 624.0195,-290.7367"/>
</g>
<!-- Node29 -->
<g id="node30" class="node">
<title>Node29</title>
<g id="a_node30"><a xlink:title=" ">
<polygon fill="#ffffff" stroke="#bfbfbf" points="630.7205,-275.5 630.7205,-293.5 669.5037,-293.5 669.5037,-275.5 630.7205,-275.5"/>
<text text-anchor="middle" x="650.1121" y="-281.5" font-family="Helvetica,sans-Serif" font-size="10.00" fill="#000000">utility</text>
</a>
</g>
</g>
<!-- Node4&#45;&gt;Node29 -->
<g id="edge30" class="edge">
<title>Node4&#45;&gt;Node29</title>
<path fill="none" stroke="#191970" d="M843.7509,-332.9608C805.9473,-325.313 742.3389,-311.7285 679.3125,-294.141"/>
<polygon fill="#191970" stroke="#191970" points="680.1892,-290.7517 669.6143,-291.401 678.286,-297.4881 680.1892,-290.7517"/>
</g>
<!-- Node30 -->
<g id="node31" class="node">
<title>Node30</title>
<g id="a_node31"><a xlink:title=" ">
<polygon fill="#ffffff" stroke="#bfbfbf" points="1822.4964,-110.5 1822.4964,-128.5 1865.7279,-128.5 1865.7279,-110.5 1822.4964,-110.5"/>
<text text-anchor="middle" x="1844.1121" y="-116.5" font-family="Helvetica,sans-Serif" font-size="10.00" fill="#000000">vector</text>
</a>
</g>
</g>
<!-- Node4&#45;&gt;Node30 -->
<g id="edge31" class="edge">
<title>Node4&#45;&gt;Node30</title>
<path fill="none" stroke="#191970" d="M910.7069,-338.8207C1050.284,-335.8226 1580.319,-322.634 1649.1121,-294 1691.8823,-276.1976 1790.2698,-176.0067 1828.5106,-136.0003"/>
<polygon fill="#191970" stroke="#191970" points="1831.1612,-138.2921 1835.5199,-128.6354 1826.0905,-133.4662 1831.1612,-138.2921"/>
</g>
<!-- Node31&#45;&gt;Node2 -->
<g id="edge33" class="edge">
<title>Node31&#45;&gt;Node2</title>
<path fill="none" stroke="#191970" d="M1752.8464,-330.4179C1746.6421,-322.6624 1737.5441,-311.29 1729.9549,-301.8035"/>
<polygon fill="#191970" stroke="#191970" points="1732.5157,-299.4017 1723.5357,-293.7795 1727.0496,-303.7746 1732.5157,-299.4017"/>
</g>
<!-- Node31&#45;&gt;Node30 -->
<g id="edge34" class="edge">
<title>Node31&#45;&gt;Node30</title>
<path fill="none" stroke="#191970" d="M1762.2719,-330.1233C1768.584,-303.4907 1788.3252,-225.4135 1816.1121,-165 1820.5614,-155.3265 1826.6508,-145.1793 1832.0146,-136.9285"/>
<polygon fill="#191970" stroke="#191970" points="1834.9737,-138.7999 1837.6361,-128.5451 1829.1598,-134.9014 1834.9737,-138.7999"/>
</g>
<!-- Node33 -->
<g id="node34" class="node">
<title>Node33</title>
<g id="a_node34"><a xlink:href="communicator_8h.html" target="_top" xlink:title=" ">
<polygon fill="#ffffff" stroke="#000000" points="1832.8167,-275.5 1832.8167,-293.5 1919.4076,-293.5 1919.4076,-275.5 1832.8167,-275.5"/>
<text text-anchor="middle" x="1876.1121" y="-281.5" font-family="Helvetica,sans-Serif" font-size="10.00" fill="#000000">communicator.h</text>
</a>
</g>
</g>
<!-- Node32&#45;&gt;Node33 -->
<g id="edge36" class="edge">
<title>Node32&#45;&gt;Node33</title>
<path fill="none" stroke="#191970" d="M1876.1121,-330.4179C1876.1121,-323.2164 1876.1121,-312.8962 1876.1121,-303.8632"/>
<polygon fill="#191970" stroke="#191970" points="1879.6122,-303.7794 1876.1121,-293.7795 1872.6122,-303.7795 1879.6122,-303.7794"/>
</g>
<!-- Node36 -->
<g id="node37" class="node">
<title>Node36</title>
<g id="a_node37"><a xlink:href="index_8h.html" target="_top" xlink:title=" ">
<polygon fill="#ffffff" stroke="#000000" points="1830.0262,-165.5 1830.0262,-183.5 1942.1981,-183.5 1942.1981,-165.5 1830.0262,-165.5"/>
<text text-anchor="middle" x="1886.1121" y="-171.5" font-family="Helvetica,sans-Serif" font-size="10.00" fill="#000000">parallelization/index.h</text>
</a>
</g>
</g>
<!-- Node32&#45;&gt;Node36 -->
<g id="edge55" class="edge">
<title>Node32&#45;&gt;Node36</title>
<path fill="none" stroke="#191970" d="M1859.5689,-330.3511C1847.2448,-322.5051 1831.3492,-309.9487 1824.1121,-294 1820.6228,-286.3102 1821.8078,-283.124 1824.1121,-275 1833.288,-242.6497 1856.1577,-210.4971 1871.4067,-191.5693"/>
<polygon fill="#191970" stroke="#191970" points="1874.3062,-193.5557 1877.9936,-183.6232 1868.917,-189.0883 1874.3062,-193.5557"/>
</g>
<!-- Node39 -->
<g id="node40" class="node">
<title>Node39</title>
<g id="a_node40"><a xlink:href="parallelparameters_8h.html" target="_top" xlink:title=" ">
<polygon fill="#ffffff" stroke="#000000" points="2192.5706,-165.5 2192.5706,-183.5 2363.6536,-183.5 2363.6536,-165.5 2192.5706,-165.5"/>
<text text-anchor="middle" x="2278.1121" y="-171.5" font-family="Helvetica,sans-Serif" font-size="10.00" fill="#000000">parallelization/parallelparameters.h</text>
</a>
</g>
</g>
<!-- Node32&#45;&gt;Node39 -->
<g id="edge56" class="edge">
<title>Node32&#45;&gt;Node39</title>
<path fill="none" stroke="#191970" d="M1898.298,-330.3939C1965.6992,-302.7292 2168.2346,-219.599 2246.6366,-187.4191"/>
<polygon fill="#191970" stroke="#191970" points="2248.0728,-190.613 2255.9948,-183.578 2245.4148,-184.1373 2248.0728,-190.613"/>
</g>
<!-- Node33&#45;&gt;Node30 -->
<g id="edge37" class="edge">
<title>Node33&#45;&gt;Node30</title>
<path fill="none" stroke="#191970" d="M1869.0958,-275.4712C1856.5079,-258.634 1830.5245,-220.8051 1821.1121,-184 1816.981,-167.8462 1824.2796,-150.033 1831.7243,-137.2271"/>
<polygon fill="#191970" stroke="#191970" points="1834.8478,-138.8377 1837.2589,-128.5208 1828.9404,-135.0823 1834.8478,-138.8377"/>
</g>
<!-- Node34 -->
<g id="node35" class="node">
<title>Node34</title>
<g id="a_node35"><a xlink:href="lattice_8h.html" target="_top" xlink:title=" ">
<polygon fill="#ffffff" stroke="#000000" points="2029.3758,-220.5 2029.3758,-238.5 2104.8485,-238.5 2104.8485,-220.5 2029.3758,-220.5"/>
<text text-anchor="middle" x="2067.1121" y="-226.5" font-family="Helvetica,sans-Serif" font-size="10.00" fill="#000000">math/lattice.h</text>
</a>
</g>
</g>
<!-- Node33&#45;&gt;Node34 -->
<g id="edge38" class="edge">
<title>Node33&#45;&gt;Node34</title>
<path fill="none" stroke="#191970" d="M1907.6519,-275.4179C1939.9581,-266.115 1990.337,-251.608 2025.8066,-241.3943"/>
<polygon fill="#191970" stroke="#191970" points="2027.202,-244.6348 2035.843,-238.5042 2025.2649,-237.9081 2027.202,-244.6348"/>
</g>
<!-- Node34&#45;&gt;Node30 -->
<g id="edge39" class="edge">
<title>Node34&#45;&gt;Node30</title>
<path fill="none" stroke="#191970" d="M2051.9987,-220.4217C2030.1159,-207.4334 1988.1665,-183.1176 1951.1121,-165 1926.1078,-152.7742 1896.9982,-140.5188 1875.4592,-131.8124"/>
<polygon fill="#191970" stroke="#191970" points="1876.7218,-128.5478 1866.1376,-128.0747 1874.1166,-135.045 1876.7218,-128.5478"/>
</g>
<!-- Node35 -->
<g id="node36" class="node">
<title>Node35</title>
<g id="a_node36"><a xlink:title=" ">
<polygon fill="#ffffff" stroke="#bfbfbf" points="2184.8856,-110.5 2184.8856,-128.5 2225.3387,-128.5 2225.3387,-110.5 2184.8856,-110.5"/>
<text text-anchor="middle" x="2205.1121" y="-116.5" font-family="Helvetica,sans-Serif" font-size="10.00" fill="#000000">mpi.h</text>
</a>
</g>
</g>
<!-- Node34&#45;&gt;Node35 -->
<g id="edge40" class="edge">
<title>Node34&#45;&gt;Node35</title>
<path fill="none" stroke="#191970" d="M2086.0594,-220.4444C2102.4961,-212.1364 2126.5054,-198.8872 2145.1121,-184 2162.913,-169.7576 2180.3265,-150.2328 2191.7685,-136.406"/>
<polygon fill="#191970" stroke="#191970" points="2194.4926,-138.6037 2198.0712,-128.6315 2189.0549,-134.1955 2194.4926,-138.6037"/>
</g>
<!-- Node34&#45;&gt;Node36 -->
<g id="edge41" class="edge">
<title>Node34&#45;&gt;Node36</title>
<path fill="none" stroke="#191970" d="M2037.2237,-220.4179C2006.7403,-211.155 1959.2771,-196.7325 1925.6886,-186.526"/>
<polygon fill="#191970" stroke="#191970" points="1926.3298,-183.0629 1915.7442,-183.5042 1924.2946,-189.7605 1926.3298,-183.0629"/>
</g>
<!-- Node37 -->
<g id="node38" class="node">
<title>Node37</title>
<g id="a_node38"><a xlink:href="neighbours_8h.html" target="_top" xlink:title=" ">
<polygon fill="#ffffff" stroke="#000000" points="1998.2381,-165.5 1998.2381,-183.5 2135.9862,-183.5 2135.9862,-165.5 1998.2381,-165.5"/>
<text text-anchor="middle" x="2067.1121" y="-171.5" font-family="Helvetica,sans-Serif" font-size="10.00" fill="#000000">parallelization/neighbours.h</text>
</a>
</g>
</g>
<!-- Node34&#45;&gt;Node37 -->
<g id="edge43" class="edge">
<title>Node34&#45;&gt;Node37</title>
<path fill="none" stroke="#191970" d="M2067.1121,-220.4179C2067.1121,-213.2164 2067.1121,-202.8962 2067.1121,-193.8632"/>
<polygon fill="#191970" stroke="#191970" points="2070.6122,-193.7794 2067.1121,-183.7795 2063.6122,-193.7795 2070.6122,-193.7794"/>
</g>
<!-- Node34&#45;&gt;Node39 -->
<g id="edge46" class="edge">
<title>Node34&#45;&gt;Node39</title>
<path fill="none" stroke="#191970" d="M2101.9545,-220.4179C2138.0264,-211.0152 2194.4943,-196.2961 2233.737,-186.067"/>
<polygon fill="#191970" stroke="#191970" points="2234.7749,-189.4135 2243.5687,-183.5042 2233.0092,-182.6398 2234.7749,-189.4135"/>
</g>
<!-- Node40 -->
<g id="node41" class="node">
<title>Node40</title>
<g id="a_node41"><a xlink:href="functions_8h.html" target="_top" xlink:title=" ">
<polygon fill="#ffffff" stroke="#000000" points="2381.93,-165.5 2381.93,-183.5 2446.2943,-183.5 2446.2943,-165.5 2381.93,-165.5"/>
<text text-anchor="middle" x="2414.1121" y="-171.5" font-family="Helvetica,sans-Serif" font-size="10.00" fill="#000000">functions.h</text>
</a>
</g>
</g>
<!-- Node34&#45;&gt;Node40 -->
<g id="edge48" class="edge">
<title>Node34&#45;&gt;Node40</title>
<path fill="none" stroke="#191970" d="M2104.9627,-224.8635C2161.0619,-217.7756 2269.7788,-203.2136 2371.3658,-184.2195"/>
<polygon fill="#191970" stroke="#191970" points="2372.3118,-187.6028 2381.4883,-182.3074 2371.0124,-180.7244 2372.3118,-187.6028"/>
</g>
<!-- Node36&#45;&gt;Node30 -->
<g id="edge42" class="edge">
<title>Node36&#45;&gt;Node30</title>
<path fill="none" stroke="#191970" d="M1879.1767,-165.4179C1873.2543,-157.6624 1864.57,-146.29 1857.3257,-136.8035"/>
<polygon fill="#191970" stroke="#191970" points="1860.0491,-134.6029 1851.1983,-128.7795 1854.4858,-138.8514 1860.0491,-134.6029"/>
</g>
<!-- Node37&#45;&gt;Node30 -->
<g id="edge45" class="edge">
<title>Node37&#45;&gt;Node30</title>
<path fill="none" stroke="#191970" d="M2030.2882,-165.4179C1987.1575,-154.7803 1916.4367,-137.3379 1875.701,-127.291"/>
<polygon fill="#191970" stroke="#191970" points="1876.3299,-123.8413 1865.7827,-124.8447 1874.6536,-130.6376 1876.3299,-123.8413"/>
</g>
<!-- Node38 -->
<g id="node39" class="node">
<title>Node38</title>
<g id="a_node39"><a xlink:href="neighbourlist_8h.html" target="_top" xlink:title=" ">
<polygon fill="#ffffff" stroke="#000000" points="2026.5902,-110.5 2026.5902,-128.5 2107.6341,-128.5 2107.6341,-110.5 2026.5902,-110.5"/>
<text text-anchor="middle" x="2067.1121" y="-116.5" font-family="Helvetica,sans-Serif" font-size="10.00" fill="#000000">neighbourlist.h</text>
</a>
</g>
</g>
<!-- Node37&#45;&gt;Node38 -->
<g id="edge44" class="edge">
<title>Node37&#45;&gt;Node38</title>
<path fill="none" stroke="#191970" d="M2067.1121,-165.4179C2067.1121,-158.2164 2067.1121,-147.8962 2067.1121,-138.8632"/>
<polygon fill="#191970" stroke="#191970" points="2070.6122,-138.7794 2067.1121,-128.7795 2063.6122,-138.7795 2070.6122,-138.7794"/>
</g>
<!-- Node39&#45;&gt;Node35 -->
<g id="edge47" class="edge">
<title>Node39&#45;&gt;Node35</title>
<path fill="none" stroke="#191970" d="M2266.0577,-165.4179C2255.0288,-157.1084 2238.489,-144.6469 2225.4215,-134.8015"/>
<polygon fill="#191970" stroke="#191970" points="2227.5215,-132.0016 2217.4285,-128.7795 2223.3092,-137.5924 2227.5215,-132.0016"/>
</g>
<!-- Node41 -->
<g id="node42" class="node">
<title>Node41</title>
<g id="a_node42"><a xlink:href="su3_8h.html" target="_top" xlink:title=" ">
<polygon fill="#ffffff" stroke="#000000" points="2323.5999,-110.5 2323.5999,-128.5 2404.6243,-128.5 2404.6243,-110.5 2323.5999,-110.5"/>
<text text-anchor="middle" x="2364.1121" y="-116.5" font-family="Helvetica,sans-Serif" font-size="10.00" fill="#000000">matrices/su3.h</text>
</a>
</g>
</g>
<!-- Node40&#45;&gt;Node41 -->
<g id="edge49" class="edge">
<title>Node40&#45;&gt;Node41</title>
<path fill="none" stroke="#191970" d="M2405.8557,-165.4179C2398.6613,-157.5041 2388.0433,-145.8243 2379.3168,-136.2251"/>
<polygon fill="#191970" stroke="#191970" points="2381.8646,-133.8245 2372.548,-128.7795 2376.685,-138.5332 2381.8646,-133.8245"/>
</g>
<!-- Node42 -->
<g id="node43" class="node">
<title>Node42</title>
<g id="a_node43"><a xlink:href="complex_8h.html" target="_top" xlink:title=" ">
<polygon fill="#ffffff" stroke="#000000" points="2285.8192,-55.5 2285.8192,-73.5 2372.4051,-73.5 2372.4051,-55.5 2285.8192,-55.5"/>
<text text-anchor="middle" x="2329.1121" y="-61.5" font-family="Helvetica,sans-Serif" font-size="10.00" fill="#000000">math/complex.h</text>
</a>
</g>
</g>
<!-- Node40&#45;&gt;Node42 -->
<g id="edge54" class="edge">
<title>Node40&#45;&gt;Node42</title>
<path fill="none" stroke="#191970" d="M2385.706,-165.4309C2359.1376,-156.3056 2322.3449,-141.7908 2314.1121,-129 2305.0995,-114.9975 2311.0873,-96.192 2317.9864,-82.5012"/>
<polygon fill="#191970" stroke="#191970" points="2321.1497,-84.0152 2322.9696,-73.5778 2315.0381,-80.6022 2321.1497,-84.0152"/>
</g>
<!-- Node43 -->
<g id="node44" class="node">
<title>Node43</title>
<g id="a_node44"><a xlink:href="su2_8h.html" target="_top" xlink:title=" ">
<polygon fill="#ffffff" stroke="#000000" points="2422.5999,-110.5 2422.5999,-128.5 2503.6243,-128.5 2503.6243,-110.5 2422.5999,-110.5"/>
<text text-anchor="middle" x="2463.1121" y="-116.5" font-family="Helvetica,sans-Serif" font-size="10.00" fill="#000000">matrices/su2.h</text>
</a>
</g>
</g>
<!-- Node40&#45;&gt;Node43 -->
<g id="edge52" class="edge">
<title>Node40&#45;&gt;Node43</title>
<path fill="none" stroke="#191970" d="M2422.2035,-165.4179C2429.1834,-157.5833 2439.4518,-146.0575 2447.9545,-136.5137"/>
<polygon fill="#191970" stroke="#191970" points="2450.8062,-138.5743 2454.845,-128.7795 2445.5796,-133.9178 2450.8062,-138.5743"/>
</g>
<!-- Node41&#45;&gt;Node42 -->
<g id="edge50" class="edge">
<title>Node41&#45;&gt;Node42</title>
<path fill="none" stroke="#191970" d="M2358.3326,-110.4179C2353.498,-102.8207 2346.4547,-91.7527 2340.4945,-82.3866"/>
<polygon fill="#191970" stroke="#191970" points="2343.3389,-80.337 2335.0172,-73.7795 2337.4332,-84.0952 2343.3389,-80.337"/>
</g>
<!-- Node42&#45;&gt;Node19 -->
<g id="edge51" class="edge">
<title>Node42&#45;&gt;Node19</title>
<path fill="none" stroke="#191970" d="M2285.4775,-62.51C2095.0108,-53.8237 1338.0809,-19.3037 1160.5256,-11.2063"/>
<polygon fill="#191970" stroke="#191970" points="1160.5283,-7.7028 1150.3792,-10.7435 1160.2093,-14.6956 1160.5283,-7.7028"/>
</g>
<!-- Node43&#45;&gt;Node42 -->
<g id="edge53" class="edge">
<title>Node43&#45;&gt;Node42</title>
<path fill="none" stroke="#191970" d="M2440.9848,-110.4179C2419.0663,-101.4215 2385.29,-87.5581 2360.583,-77.4172"/>
<polygon fill="#191970" stroke="#191970" points="2361.8525,-74.1549 2351.2724,-73.5956 2359.1945,-80.6306 2361.8525,-74.1549"/>
</g>
</g>
</svg>
