<?xml version="1.0" encoding="UTF-8" standalone="no"?>
<!DOCTYPE svg PUBLIC "-//W3C//DTD SVG 1.1//EN"
 "http://www.w3.org/Graphics/SVG/1.1/DTD/svg11.dtd">
<!-- Generated by graphviz version 2.40.1 (20161225.0304)
 -->
<!-- Title: GLAC/observables/correlator.h Pages: 1 -->
<svg width="735pt" height="302pt"
 viewBox="0.00 0.00 735.12 302.00" xmlns="http://www.w3.org/2000/svg" xmlns:xlink="http://www.w3.org/1999/xlink">
<g id="graph0" class="graph" transform="scale(1 1) rotate(0) translate(4 298)">
<title>GLAC/observables/correlator.h</title>
<polygon fill="#ffffff" stroke="transparent" points="-4,4 -4,-298 731.1216,-298 731.1216,4 -4,4"/>
<!-- Node0 -->
<g id="node1" class="node">
<title>Node0</title>
<g id="a_node1"><a xlink:title=" ">
<polygon fill="#bfbfbf" stroke="#000000" points="388.5259,-275.5 388.5259,-293.5 541.2642,-293.5 541.2642,-275.5 388.5259,-275.5"/>
<text text-anchor="middle" x="464.895" y="-281.5" font-family="Helvetica,sans-Serif" font-size="10.00" fill="#000000">GLAC/observables/correlator.h</text>
</a>
</g>
</g>
<!-- Node1 -->
<g id="node2" class="node">
<title>Node1</title>
<g id="a_node2"><a xlink:href="lattice_8h.html" target="_top" xlink:title=" ">
<polygon fill="#ffffff" stroke="#000000" points="259.1587,-220.5 259.1587,-238.5 334.6314,-238.5 334.6314,-220.5 259.1587,-220.5"/>
<text text-anchor="middle" x="296.895" y="-226.5" font-family="Helvetica,sans-Serif" font-size="10.00" fill="#000000">math/lattice.h</text>
</a>
</g>
</g>
<!-- Node0&#45;&gt;Node1 -->
<g id="edge1" class="edge">
<title>Node0&#45;&gt;Node1</title>
<path fill="none" stroke="#191970" d="M437.1533,-275.4179C408.9813,-266.1949 365.1846,-251.8567 334.0329,-241.6582"/>
<polygon fill="#191970" stroke="#191970" points="334.9915,-238.2893 324.3988,-238.5042 332.8135,-244.9419 334.9915,-238.2893"/>
</g>
<!-- Node2 -->
<g id="node3" class="node">
<title>Node2</title>
<g id="a_node3"><a xlink:title=" ">
<polygon fill="#ffffff" stroke="#bfbfbf" points="443.2793,-110.5 443.2793,-128.5 486.5108,-128.5 486.5108,-110.5 443.2793,-110.5"/>
<text text-anchor="middle" x="464.895" y="-116.5" font-family="Helvetica,sans-Serif" font-size="10.00" fill="#000000">vector</text>
</a>
</g>
</g>
<!-- Node0&#45;&gt;Node2 -->
<g id="edge21" class="edge">
<title>Node0&#45;&gt;Node2</title>
<path fill="none" stroke="#191970" d="M464.895,-275.1561C464.895,-248.9504 464.895,-174.3557 464.895,-138.8021"/>
<polygon fill="#191970" stroke="#191970" points="468.3951,-138.7414 464.895,-128.7414 461.3951,-138.7414 468.3951,-138.7414"/>
</g>
<!-- Node13 -->
<g id="node14" class="node">
<title>Node13</title>
<g id="a_node14"><a xlink:href="observablestorer_8h.html" target="_top" xlink:title=" ">
<polygon fill="#ffffff" stroke="#000000" points="597.8067,-220.5 597.8067,-238.5 719.9834,-238.5 719.9834,-220.5 597.8067,-220.5"/>
<text text-anchor="middle" x="658.895" y="-226.5" font-family="Helvetica,sans-Serif" font-size="10.00" fill="#000000">tools/observablestorer.h</text>
</a>
</g>
</g>
<!-- Node0&#45;&gt;Node13 -->
<g id="edge18" class="edge">
<title>Node0&#45;&gt;Node13</title>
<path fill="none" stroke="#191970" d="M496.9302,-275.4179C529.8846,-266.0751 581.3535,-251.4834 617.4038,-241.263"/>
<polygon fill="#191970" stroke="#191970" points="618.4686,-244.5991 627.1347,-238.5042 616.5592,-237.8645 618.4686,-244.5991"/>
</g>
<!-- Node1&#45;&gt;Node2 -->
<g id="edge2" class="edge">
<title>Node1&#45;&gt;Node2</title>
<path fill="none" stroke="#191970" d="M296.9928,-220.232C297.6496,-206.3286 300.9464,-180.0974 315.895,-165 332.2898,-148.4421 394.112,-133.5614 432.785,-125.601"/>
<polygon fill="#191970" stroke="#191970" points="433.9076,-128.9454 443.0219,-123.5436 432.5283,-122.0827 433.9076,-128.9454"/>
</g>
<!-- Node3 -->
<g id="node4" class="node">
<title>Node3</title>
<g id="a_node4"><a xlink:title=" ">
<polygon fill="#ffffff" stroke="#bfbfbf" points="2.6685,-110.5 2.6685,-128.5 43.1216,-128.5 43.1216,-110.5 2.6685,-110.5"/>
<text text-anchor="middle" x="22.895" y="-116.5" font-family="Helvetica,sans-Serif" font-size="10.00" fill="#000000">mpi.h</text>
</a>
</g>
</g>
<!-- Node1&#45;&gt;Node3 -->
<g id="edge3" class="edge">
<title>Node1&#45;&gt;Node3</title>
<path fill="none" stroke="#191970" d="M259.1175,-226.3106C184.1105,-219.5947 22.1864,-203.0366 5.895,-184 -5.2393,-170.9895 2.1619,-151.4883 10.4001,-137.3362"/>
<polygon fill="#191970" stroke="#191970" points="13.5861,-138.8501 16.0197,-128.5386 7.6869,-135.0819 13.5861,-138.8501"/>
</g>
<!-- Node4 -->
<g id="node5" class="node">
<title>Node4</title>
<g id="a_node5"><a xlink:href="index_8h.html" target="_top" xlink:title=" ">
<polygon fill="#ffffff" stroke="#000000" points="324.8091,-165.5 324.8091,-183.5 436.981,-183.5 436.981,-165.5 324.8091,-165.5"/>
<text text-anchor="middle" x="380.895" y="-171.5" font-family="Helvetica,sans-Serif" font-size="10.00" fill="#000000">parallelization/index.h</text>
</a>
</g>
</g>
<!-- Node1&#45;&gt;Node4 -->
<g id="edge4" class="edge">
<title>Node1&#45;&gt;Node4</title>
<path fill="none" stroke="#191970" d="M310.7659,-220.4179C323.6547,-211.9788 343.0844,-199.257 358.2264,-189.3426"/>
<polygon fill="#191970" stroke="#191970" points="360.5546,-192.0017 367.0035,-183.5956 356.7201,-186.1454 360.5546,-192.0017"/>
</g>
<!-- Node5 -->
<g id="node6" class="node">
<title>Node5</title>
<g id="a_node6"><a xlink:href="neighbours_8h.html" target="_top" xlink:title=" ">
<polygon fill="#ffffff" stroke="#000000" points="493.021,-165.5 493.021,-183.5 630.7691,-183.5 630.7691,-165.5 493.021,-165.5"/>
<text text-anchor="middle" x="561.895" y="-171.5" font-family="Helvetica,sans-Serif" font-size="10.00" fill="#000000">parallelization/neighbours.h</text>
</a>
</g>
</g>
<!-- Node1&#45;&gt;Node5 -->
<g id="edge6" class="edge">
<title>Node1&#45;&gt;Node5</title>
<path fill="none" stroke="#191970" d="M334.8631,-221.6198C380.3468,-212.1798 456.8406,-196.3038 508.3218,-185.619"/>
<polygon fill="#191970" stroke="#191970" points="509.1879,-189.0139 518.2679,-183.5547 507.7653,-182.16 509.1879,-189.0139"/>
</g>
<!-- Node7 -->
<g id="node8" class="node">
<title>Node7</title>
<g id="a_node8"><a xlink:href="parallelparameters_8h.html" target="_top" xlink:title=" ">
<polygon fill="#ffffff" stroke="#000000" points="15.3535,-165.5 15.3535,-183.5 186.4365,-183.5 186.4365,-165.5 15.3535,-165.5"/>
<text text-anchor="middle" x="100.895" y="-171.5" font-family="Helvetica,sans-Serif" font-size="10.00" fill="#000000">parallelization/parallelparameters.h</text>
</a>
</g>
</g>
<!-- Node1&#45;&gt;Node7 -->
<g id="edge9" class="edge">
<title>Node1&#45;&gt;Node7</title>
<path fill="none" stroke="#191970" d="M264.5296,-220.4179C231.2355,-211.0751 179.2359,-196.4834 142.814,-186.263"/>
<polygon fill="#191970" stroke="#191970" points="143.5565,-182.8362 132.9828,-183.5042 141.6652,-189.5759 143.5565,-182.8362"/>
</g>
<!-- Node8 -->
<g id="node9" class="node">
<title>Node8</title>
<g id="a_node9"><a xlink:href="functions_8h.html" target="_top" xlink:title=" ">
<polygon fill="#ffffff" stroke="#000000" points="204.7129,-165.5 204.7129,-183.5 269.0772,-183.5 269.0772,-165.5 204.7129,-165.5"/>
<text text-anchor="middle" x="236.895" y="-171.5" font-family="Helvetica,sans-Serif" font-size="10.00" fill="#000000">functions.h</text>
</a>
</g>
</g>
<!-- Node1&#45;&gt;Node8 -->
<g id="edge11" class="edge">
<title>Node1&#45;&gt;Node8</title>
<path fill="none" stroke="#191970" d="M286.9873,-220.4179C278.1814,-212.3458 265.1012,-200.3556 254.5151,-190.6517"/>
<polygon fill="#191970" stroke="#191970" points="256.7547,-187.9567 247.0181,-183.7795 252.0246,-193.1168 256.7547,-187.9567"/>
</g>
<!-- Node4&#45;&gt;Node2 -->
<g id="edge5" class="edge">
<title>Node4&#45;&gt;Node2</title>
<path fill="none" stroke="#191970" d="M394.7659,-165.4179C407.6547,-156.9788 427.0844,-144.257 442.2264,-134.3426"/>
<polygon fill="#191970" stroke="#191970" points="444.5546,-137.0017 451.0035,-128.5956 440.7201,-131.1454 444.5546,-137.0017"/>
</g>
<!-- Node5&#45;&gt;Node2 -->
<g id="edge8" class="edge">
<title>Node5&#45;&gt;Node2</title>
<path fill="none" stroke="#191970" d="M545.8775,-165.4179C530.7131,-156.8195 507.708,-143.7754 490.0876,-133.7844"/>
<polygon fill="#191970" stroke="#191970" points="491.3617,-130.4834 480.9364,-128.5956 487.909,-136.5727 491.3617,-130.4834"/>
</g>
<!-- Node6 -->
<g id="node7" class="node">
<title>Node6</title>
<g id="a_node7"><a xlink:href="neighbourlist_8h.html" target="_top" xlink:title=" ">
<polygon fill="#ffffff" stroke="#000000" points="521.3731,-110.5 521.3731,-128.5 602.417,-128.5 602.417,-110.5 521.3731,-110.5"/>
<text text-anchor="middle" x="561.895" y="-116.5" font-family="Helvetica,sans-Serif" font-size="10.00" fill="#000000">neighbourlist.h</text>
</a>
</g>
</g>
<!-- Node5&#45;&gt;Node6 -->
<g id="edge7" class="edge">
<title>Node5&#45;&gt;Node6</title>
<path fill="none" stroke="#191970" d="M561.895,-165.4179C561.895,-158.2164 561.895,-147.8962 561.895,-138.8632"/>
<polygon fill="#191970" stroke="#191970" points="565.3951,-138.7794 561.895,-128.7795 558.3951,-138.7795 565.3951,-138.7794"/>
</g>
<!-- Node7&#45;&gt;Node3 -->
<g id="edge10" class="edge">
<title>Node7&#45;&gt;Node3</title>
<path fill="none" stroke="#191970" d="M88.0149,-165.4179C76.1596,-157.0584 58.3448,-144.4966 44.3435,-134.6239"/>
<polygon fill="#191970" stroke="#191970" points="45.9839,-131.498 35.7943,-128.5956 41.9499,-137.2188 45.9839,-131.498"/>
</g>
<!-- Node9 -->
<g id="node10" class="node">
<title>Node9</title>
<g id="a_node10"><a xlink:href="su3_8h.html" target="_top" xlink:title=" ">
<polygon fill="#ffffff" stroke="#000000" points="97.3828,-110.5 97.3828,-128.5 178.4072,-128.5 178.4072,-110.5 97.3828,-110.5"/>
<text text-anchor="middle" x="137.895" y="-116.5" font-family="Helvetica,sans-Serif" font-size="10.00" fill="#000000">matrices/su3.h</text>
</a>
</g>
</g>
<!-- Node8&#45;&gt;Node9 -->
<g id="edge12" class="edge">
<title>Node8&#45;&gt;Node9</title>
<path fill="none" stroke="#191970" d="M220.5472,-165.4179C204.9269,-156.7399 181.1552,-143.5334 163.1089,-133.5077"/>
<polygon fill="#191970" stroke="#191970" points="164.7085,-130.3925 154.2672,-128.5956 161.309,-136.5117 164.7085,-130.3925"/>
</g>
<!-- Node10 -->
<g id="node11" class="node">
<title>Node10</title>
<g id="a_node11"><a xlink:href="complex_8h.html" target="_top" xlink:title=" ">
<polygon fill="#ffffff" stroke="#000000" points="193.6021,-55.5 193.6021,-73.5 280.188,-73.5 280.188,-55.5 193.6021,-55.5"/>
<text text-anchor="middle" x="236.895" y="-61.5" font-family="Helvetica,sans-Serif" font-size="10.00" fill="#000000">math/complex.h</text>
</a>
</g>
</g>
<!-- Node8&#45;&gt;Node10 -->
<g id="edge17" class="edge">
<title>Node8&#45;&gt;Node10</title>
<path fill="none" stroke="#191970" d="M252.8188,-165.1981C264.6781,-157.2677 279.9667,-144.6725 286.895,-129 295.2858,-110.0196 277.7077,-91.6442 261.1299,-79.3948"/>
<polygon fill="#191970" stroke="#191970" points="262.9138,-76.3735 252.6948,-73.5768 258.9393,-82.1358 262.9138,-76.3735"/>
</g>
<!-- Node12 -->
<g id="node13" class="node">
<title>Node12</title>
<g id="a_node13"><a xlink:href="su2_8h.html" target="_top" xlink:title=" ">
<polygon fill="#ffffff" stroke="#000000" points="196.3828,-110.5 196.3828,-128.5 277.4072,-128.5 277.4072,-110.5 196.3828,-110.5"/>
<text text-anchor="middle" x="236.895" y="-116.5" font-family="Helvetica,sans-Serif" font-size="10.00" fill="#000000">matrices/su2.h</text>
</a>
</g>
</g>
<!-- Node8&#45;&gt;Node12 -->
<g id="edge15" class="edge">
<title>Node8&#45;&gt;Node12</title>
<path fill="none" stroke="#191970" d="M236.895,-165.4179C236.895,-158.2164 236.895,-147.8962 236.895,-138.8632"/>
<polygon fill="#191970" stroke="#191970" points="240.3951,-138.7794 236.895,-128.7795 233.3951,-138.7795 240.3951,-138.7794"/>
</g>
<!-- Node9&#45;&gt;Node10 -->
<g id="edge13" class="edge">
<title>Node9&#45;&gt;Node10</title>
<path fill="none" stroke="#191970" d="M154.2429,-110.4179C169.8632,-101.7399 193.6348,-88.5334 211.6812,-78.5077"/>
<polygon fill="#191970" stroke="#191970" points="213.4811,-81.5117 220.5229,-73.5956 210.0816,-75.3925 213.4811,-81.5117"/>
</g>
<!-- Node11 -->
<g id="node12" class="node">
<title>Node11</title>
<g id="a_node12"><a xlink:title=" ">
<polygon fill="#ffffff" stroke="#bfbfbf" points="209.7227,-.5 209.7227,-18.5 264.0674,-18.5 264.0674,-.5 209.7227,-.5"/>
<text text-anchor="middle" x="236.895" y="-6.5" font-family="Helvetica,sans-Serif" font-size="10.00" fill="#000000">iostream</text>
</a>
</g>
</g>
<!-- Node10&#45;&gt;Node11 -->
<g id="edge14" class="edge">
<title>Node10&#45;&gt;Node11</title>
<path fill="none" stroke="#191970" d="M236.895,-55.4179C236.895,-48.2164 236.895,-37.8962 236.895,-28.8632"/>
<polygon fill="#191970" stroke="#191970" points="240.3951,-28.7794 236.895,-18.7795 233.3951,-28.7795 240.3951,-28.7794"/>
</g>
<!-- Node12&#45;&gt;Node10 -->
<g id="edge16" class="edge">
<title>Node12&#45;&gt;Node10</title>
<path fill="none" stroke="#191970" d="M236.895,-110.4179C236.895,-103.2164 236.895,-92.8962 236.895,-83.8632"/>
<polygon fill="#191970" stroke="#191970" points="240.3951,-83.7794 236.895,-73.7795 233.3951,-83.7795 240.3951,-83.7794"/>
</g>
<!-- Node13&#45;&gt;Node2 -->
<g id="edge20" class="edge">
<title>Node13&#45;&gt;Node2</title>
<path fill="none" stroke="#191970" d="M658.876,-220.1524C658.3218,-206.1451 655.1575,-179.7802 639.895,-165 629.5479,-154.9798 544.0899,-135.9409 496.5372,-125.9649"/>
<polygon fill="#191970" stroke="#191970" points="497.23,-122.5342 486.7265,-123.9225 495.8033,-129.3872 497.23,-122.5342"/>
</g>
<!-- Node14 -->
<g id="node15" class="node">
<title>Node14</title>
<g id="a_node15"><a xlink:title=" ">
<polygon fill="#ffffff" stroke="#bfbfbf" points="686.6685,-165.5 686.6685,-183.5 727.1216,-183.5 727.1216,-165.5 686.6685,-165.5"/>
<text text-anchor="middle" x="706.895" y="-171.5" font-family="Helvetica,sans-Serif" font-size="10.00" fill="#000000">string</text>
</a>
</g>
</g>
<!-- Node13&#45;&gt;Node14 -->
<g id="edge19" class="edge">
<title>Node13&#45;&gt;Node14</title>
<path fill="none" stroke="#191970" d="M666.8213,-220.4179C673.6587,-212.5833 683.7176,-201.0575 692.0467,-191.5137"/>
<polygon fill="#191970" stroke="#191970" points="694.8582,-193.6151 698.7966,-183.7795 689.5842,-189.0123 694.8582,-193.6151"/>
</g>
</g>
</svg>
