<?xml version="1.0" encoding="UTF-8" standalone="no"?>
<!DOCTYPE svg PUBLIC "-//W3C//DTD SVG 1.1//EN"
 "http://www.w3.org/Graphics/SVG/1.1/DTD/svg11.dtd">
<!-- Generated by graphviz version 2.40.1 (20161225.0304)
 -->
<!-- Title: GLAC/config Pages: 1 -->
<svg width="158pt" height="150pt"
 viewBox="0.00 0.00 157.57 150.00" xmlns="http://www.w3.org/2000/svg" xmlns:xlink="http://www.w3.org/1999/xlink">
<g id="graph0" class="graph" transform="scale(1 1) rotate(0) translate(4 146)">
<title>GLAC/config</title>
<polygon fill="#ffffff" stroke="transparent" points="-4,4 -4,-146 153.5737,-146 153.5737,4 -4,4"/>
<g id="clust1" class="cluster">
<title>clusterdir_f53e42b23db04c12898bb6e8f169fcd5</title>
<g id="a_clust1"><a xlink:href="dir_f53e42b23db04c12898bb6e8f169fcd5.html" target="_top" xlink:title="GLAC">
<polygon fill="#ddddee" stroke="#000000" points="34,-64 34,-134 104,-134 104,-64 34,-64"/>
<text text-anchor="middle" x="69" y="-122" font-family="Helvetica,sans-Serif" font-size="10.00" fill="#000000">GLAC</text>
</a>
</g>
</g>
<!-- dir_23e8e5da5c699a1331d75b73108c17fc -->
<g id="node1" class="node">
<title>dir_23e8e5da5c699a1331d75b73108c17fc</title>
<g id="a_node1"><a xlink:href="dir_23e8e5da5c699a1331d75b73108c17fc.html" target="_top" xlink:title="config">
<polygon fill="#eeeeff" stroke="#000000" points="96,-108 42,-108 42,-72 96,-72 96,-108"/>
<text text-anchor="middle" x="69" y="-87" font-family="Helvetica,sans-Serif" font-size="10.00" fill="#000000">config</text>
</a>
</g>
</g>
<!-- dir_fbdc6cabc892941a313c9b0a9406c3cb -->
<g id="node2" class="node">
<title>dir_fbdc6cabc892941a313c9b0a9406c3cb</title>
<g id="a_node2"><a xlink:href="dir_fbdc6cabc892941a313c9b0a9406c3cb.html" target="_top" xlink:title="lib">
<polygon fill="none" stroke="#000000" points="54,-36 0,-36 0,0 54,0 54,-36"/>
<text text-anchor="middle" x="27" y="-15" font-family="Helvetica,sans-Serif" font-size="10.00" fill="#000000">lib</text>
</a>
</g>
</g>
<!-- dir_23e8e5da5c699a1331d75b73108c17fc&#45;&gt;dir_fbdc6cabc892941a313c9b0a9406c3cb -->
<g id="edge1" class="edge">
<title>dir_23e8e5da5c699a1331d75b73108c17fc&#45;&gt;dir_fbdc6cabc892941a313c9b0a9406c3cb</title>
<path fill="none" stroke="#000000" d="M58.4016,-71.8314C53.7123,-63.7925 48.0972,-54.1666 42.9202,-45.2918"/>
<polygon fill="#000000" stroke="#000000" points="45.8031,-43.2875 37.7411,-36.4133 39.7566,-46.8146 45.8031,-43.2875"/>
<g id="a_edge1&#45;headlabel"><a xlink:href="dir_000002_000005.html" target="_top" xlink:title="1">
<text text-anchor="middle" x="50.0667" y="-41.9618" font-family="Helvetica,sans-Serif" font-size="10.00" fill="#000000">1</text>
</a>
</g>
</g>
<!-- dir_3387936ac018e251c9001f4c9b392951 -->
<g id="node3" class="node">
<title>dir_3387936ac018e251c9001f4c9b392951</title>
<g id="a_node3"><a xlink:href="dir_3387936ac018e251c9001f4c9b392951.html" target="_top" xlink:title="parallelization">
<polygon fill="none" stroke="#000000" points="149.6476,-36 72.3524,-36 72.3524,0 149.6476,0 149.6476,-36"/>
<text text-anchor="middle" x="111" y="-15" font-family="Helvetica,sans-Serif" font-size="10.00" fill="#000000">parallelization</text>
</a>
</g>
</g>
<!-- dir_23e8e5da5c699a1331d75b73108c17fc&#45;&gt;dir_3387936ac018e251c9001f4c9b392951 -->
<g id="edge2" class="edge">
<title>dir_23e8e5da5c699a1331d75b73108c17fc&#45;&gt;dir_3387936ac018e251c9001f4c9b392951</title>
<path fill="none" stroke="#000000" d="M73.646,-71.8314C77.593,-63.7079 83.0748,-53.9637 88.6837,-45.0118"/>
<polygon fill="#000000" stroke="#000000" points="91.759,-46.7031 94.2829,-36.4133 85.8931,-42.8833 91.759,-46.7031"/>
<g id="a_edge2&#45;headlabel"><a xlink:href="dir_000002_000011.html" target="_top" xlink:title="2">
<text text-anchor="middle" x="92.1768" y="-48.2647" font-family="Helvetica,sans-Serif" font-size="10.00" fill="#000000">2</text>
</a>
</g>
</g>
<!-- dir_3387936ac018e251c9001f4c9b392951&#45;&gt;dir_23e8e5da5c699a1331d75b73108c17fc -->
<g id="edge3" class="edge">
<title>dir_3387936ac018e251c9001f4c9b392951&#45;&gt;dir_23e8e5da5c699a1331d75b73108c17fc</title>
<path fill="none" stroke="#000000" d="M106.2349,-36.4133C102.2573,-44.569 96.759,-54.3212 91.1477,-63.257"/>
<polygon fill="#000000" stroke="#000000" points="88.086,-61.5443 85.5508,-71.8314 93.9478,-65.3706 88.086,-61.5443"/>
<g id="a_edge3&#45;headlabel"><a xlink:href="dir_000011_000002.html" target="_top" xlink:title="1">
<text text-anchor="middle" x="87.6732" y="-53.9823" font-family="Helvetica,sans-Serif" font-size="10.00" fill="#000000">1</text>
</a>
</g>
</g>
</g>
</svg>
