<?xml version="1.0" encoding="UTF-8" standalone="no"?>
<!DOCTYPE svg PUBLIC "-//W3C//DTD SVG 1.1//EN"
 "http://www.w3.org/Graphics/SVG/1.1/DTD/svg11.dtd">
<!-- Generated by graphviz version 2.40.1 (20161225.0304)
 -->
<!-- Title: GLAC/tests Pages: 1 -->
<svg width="352pt" height="438pt"
 viewBox="0.00 0.00 352.00 438.00" xmlns="http://www.w3.org/2000/svg" xmlns:xlink="http://www.w3.org/1999/xlink">
<g id="graph0" class="graph" transform="scale(1 1) rotate(0) translate(4 434)">
<title>GLAC/tests</title>
<polygon fill="#ffffff" stroke="transparent" points="-4,4 -4,-434 348,-434 348,4 -4,4"/>
<g id="clust1" class="cluster">
<title>clusterdir_f53e42b23db04c12898bb6e8f169fcd5</title>
<g id="a_clust1"><a xlink:href="dir_f53e42b23db04c12898bb6e8f169fcd5.html" target="_top" xlink:title="GLAC">
<polygon fill="#ddddee" stroke="#000000" points="89,-352 89,-422 159,-422 159,-352 89,-352"/>
<text text-anchor="middle" x="124" y="-410" font-family="Helvetica,sans-Serif" font-size="10.00" fill="#000000">GLAC</text>
</a>
</g>
</g>
<!-- dir_66edd260de22ba1a949ffbe082fcaf54 -->
<g id="node1" class="node">
<title>dir_66edd260de22ba1a949ffbe082fcaf54</title>
<g id="a_node1"><a xlink:href="dir_66edd260de22ba1a949ffbe082fcaf54.html" target="_top" xlink:title="tests">
<polygon fill="#eeeeff" stroke="#000000" points="151,-396 97,-396 97,-360 151,-360 151,-396"/>
<text text-anchor="middle" x="124" y="-375" font-family="Helvetica,sans-Serif" font-size="10.00" fill="#000000">tests</text>
</a>
</g>
</g>
<!-- dir_1aad51cdd65d34080d064657015a76b5 -->
<g id="node2" class="node">
<title>dir_1aad51cdd65d34080d064657015a76b5</title>
<g id="a_node2"><a xlink:href="dir_1aad51cdd65d34080d064657015a76b5.html" target="_top" xlink:title="math">
<polygon fill="#ffffff" stroke="#ff0000" points="120,-180 66,-180 66,-144 120,-144 120,-180"/>
<text text-anchor="middle" x="93" y="-159" font-family="Helvetica,sans-Serif" font-size="10.00" fill="#000000">math</text>
</a>
</g>
</g>
<!-- dir_66edd260de22ba1a949ffbe082fcaf54&#45;&gt;dir_1aad51cdd65d34080d064657015a76b5 -->
<g id="edge8" class="edge">
<title>dir_66edd260de22ba1a949ffbe082fcaf54&#45;&gt;dir_1aad51cdd65d34080d064657015a76b5</title>
<path fill="none" stroke="#000000" d="M110.7083,-359.9689C94.3217,-336.509 67.3697,-293.588 57,-252 53.129,-236.4753 52.3635,-231.3135 57,-216 59.9564,-206.2355 65.3252,-196.6229 71.03,-188.2762"/>
<polygon fill="#000000" stroke="#000000" points="73.9414,-190.2239 77.0095,-180.0831 68.2871,-186.0973 73.9414,-190.2239"/>
<g id="a_edge8&#45;headlabel"><a xlink:href="dir_000012_000006.html" target="_top" xlink:title="9">
<text text-anchor="middle" x="74.1158" y="-191.8013" font-family="Helvetica,sans-Serif" font-size="10.00" fill="#000000">9</text>
</a>
</g>
</g>
<!-- dir_f36c334ff05235533ccb10eb3ed2c536 -->
<g id="node3" class="node">
<title>dir_f36c334ff05235533ccb10eb3ed2c536</title>
<g id="a_node3"><a xlink:href="dir_f36c334ff05235533ccb10eb3ed2c536.html" target="_top" xlink:title="observables">
<polygon fill="#ffffff" stroke="#ff0000" points="190.9209,-324 121.0791,-324 121.0791,-288 190.9209,-288 190.9209,-324"/>
<text text-anchor="middle" x="156" y="-303" font-family="Helvetica,sans-Serif" font-size="10.00" fill="#000000">observables</text>
</a>
</g>
</g>
<!-- dir_66edd260de22ba1a949ffbe082fcaf54&#45;&gt;dir_f36c334ff05235533ccb10eb3ed2c536 -->
<g id="edge9" class="edge">
<title>dir_66edd260de22ba1a949ffbe082fcaf54&#45;&gt;dir_f36c334ff05235533ccb10eb3ed2c536</title>
<path fill="none" stroke="#000000" d="M132.075,-359.8314C135.6102,-351.8771 139.836,-342.369 143.7456,-333.5723"/>
<polygon fill="#000000" stroke="#000000" points="146.9532,-334.9729 147.8163,-324.4133 140.5565,-332.1299 146.9532,-334.9729"/>
<g id="a_edge9&#45;headlabel"><a xlink:href="dir_000012_000009.html" target="_top" xlink:title="1">
<text text-anchor="middle" x="148.0879" y="-336.4108" font-family="Helvetica,sans-Serif" font-size="10.00" fill="#000000">1</text>
</a>
</g>
</g>
<!-- dir_23e8e5da5c699a1331d75b73108c17fc -->
<g id="node4" class="node">
<title>dir_23e8e5da5c699a1331d75b73108c17fc</title>
<g id="a_node4"><a xlink:href="dir_23e8e5da5c699a1331d75b73108c17fc.html" target="_top" xlink:title="config">
<polygon fill="none" stroke="#000000" points="230,-108 176,-108 176,-72 230,-72 230,-108"/>
<text text-anchor="middle" x="203" y="-87" font-family="Helvetica,sans-Serif" font-size="10.00" fill="#000000">config</text>
</a>
</g>
</g>
<!-- dir_66edd260de22ba1a949ffbe082fcaf54&#45;&gt;dir_23e8e5da5c699a1331d75b73108c17fc -->
<g id="edge10" class="edge">
<title>dir_66edd260de22ba1a949ffbe082fcaf54&#45;&gt;dir_23e8e5da5c699a1331d75b73108c17fc</title>
<path fill="none" stroke="#000000" d="M151.2886,-364.8392C167.7121,-355.5837 187.7468,-341.6998 200,-324 246.008,-257.541 242.1636,-223.1977 226,-144 224.1839,-135.1016 220.8446,-125.8541 217.2629,-117.5789"/>
<polygon fill="#000000" stroke="#000000" points="220.3911,-116.0044 213.0235,-108.3906 214.0349,-118.937 220.3911,-116.0044"/>
<g id="a_edge10&#45;headlabel"><a xlink:href="dir_000012_000002.html" target="_top" xlink:title="2">
<text text-anchor="middle" x="224.475" y="-115.0789" font-family="Helvetica,sans-Serif" font-size="10.00" fill="#000000">2</text>
</a>
</g>
</g>
<!-- dir_c62272c95897103f1c0ae919532aa8bc -->
<g id="node5" class="node">
<title>dir_c62272c95897103f1c0ae919532aa8bc</title>
<g id="a_node5"><a xlink:href="dir_c62272c95897103f1c0ae919532aa8bc.html" target="_top" xlink:title="io">
<polygon fill="none" stroke="#000000" points="120,-252 66,-252 66,-216 120,-216 120,-252"/>
<text text-anchor="middle" x="93" y="-231" font-family="Helvetica,sans-Serif" font-size="10.00" fill="#000000">io</text>
</a>
</g>
</g>
<!-- dir_66edd260de22ba1a949ffbe082fcaf54&#45;&gt;dir_c62272c95897103f1c0ae919532aa8bc -->
<g id="edge11" class="edge">
<title>dir_66edd260de22ba1a949ffbe082fcaf54&#45;&gt;dir_c62272c95897103f1c0ae919532aa8bc</title>
<path fill="none" stroke="#000000" d="M119.8416,-359.5163C117.5093,-349.0925 114.5623,-335.8263 112,-324 107.5475,-303.4496 102.6488,-280.2297 98.9408,-262.523"/>
<polygon fill="#000000" stroke="#000000" points="102.2726,-261.356 96.8006,-252.2837 95.4207,-262.7882 102.2726,-261.356"/>
<g id="a_edge11&#45;headlabel"><a xlink:href="dir_000012_000004.html" target="_top" xlink:title="1">
<text text-anchor="middle" x="105.7872" y="-261.2937" font-family="Helvetica,sans-Serif" font-size="10.00" fill="#000000">1</text>
</a>
</g>
</g>
<!-- dir_3387936ac018e251c9001f4c9b392951 -->
<g id="node6" class="node">
<title>dir_3387936ac018e251c9001f4c9b392951</title>
<g id="a_node6"><a xlink:href="dir_3387936ac018e251c9001f4c9b392951.html" target="_top" xlink:title="parallelization">
<polygon fill="none" stroke="#000000" points="162.6476,-36 85.3524,-36 85.3524,0 162.6476,0 162.6476,-36"/>
<text text-anchor="middle" x="124" y="-15" font-family="Helvetica,sans-Serif" font-size="10.00" fill="#000000">parallelization</text>
</a>
</g>
</g>
<!-- dir_66edd260de22ba1a949ffbe082fcaf54&#45;&gt;dir_3387936ac018e251c9001f4c9b392951 -->
<g id="edge12" class="edge">
<title>dir_66edd260de22ba1a949ffbe082fcaf54&#45;&gt;dir_3387936ac018e251c9001f4c9b392951</title>
<path fill="none" stroke="#000000" d="M96.7877,-362.5901C60.2862,-339.6659 0,-292.89 0,-234 0,-234 0,-234 0,-162 0,-109.466 47.975,-66.5723 84.2433,-41.6514"/>
<polygon fill="#000000" stroke="#000000" points="86.3296,-44.4671 92.7096,-36.0086 82.4473,-38.6423 86.3296,-44.4671"/>
<g id="a_edge12&#45;headlabel"><a xlink:href="dir_000012_000011.html" target="_top" xlink:title="3">
<text text-anchor="middle" x="84.9131" y="-45.8232" font-family="Helvetica,sans-Serif" font-size="10.00" fill="#000000">3</text>
</a>
</g>
</g>
<!-- dir_4126959ea49cb7fbd228dcd829336285 -->
<g id="node7" class="node">
<title>dir_4126959ea49cb7fbd228dcd829336285</title>
<g id="a_node7"><a xlink:href="dir_4126959ea49cb7fbd228dcd829336285.html" target="_top" xlink:title="actions">
<polygon fill="none" stroke="#000000" points="344,-252 290,-252 290,-216 344,-216 344,-252"/>
<text text-anchor="middle" x="317" y="-231" font-family="Helvetica,sans-Serif" font-size="10.00" fill="#000000">actions</text>
</a>
</g>
</g>
<!-- dir_66edd260de22ba1a949ffbe082fcaf54&#45;&gt;dir_4126959ea49cb7fbd228dcd829336285 -->
<g id="edge13" class="edge">
<title>dir_66edd260de22ba1a949ffbe082fcaf54&#45;&gt;dir_4126959ea49cb7fbd228dcd829336285</title>
<path fill="none" stroke="#000000" d="M151.1815,-374.8461C184.4194,-369.6688 240.6088,-356.4678 276,-324 293.993,-307.4933 304.6476,-281.5526 310.5645,-261.7531"/>
<polygon fill="#000000" stroke="#000000" points="313.9582,-262.612 313.2406,-252.0415 307.2098,-260.7524 313.9582,-262.612"/>
<g id="a_edge13&#45;headlabel"><a xlink:href="dir_000012_000001.html" target="_top" xlink:title="2">
<text text-anchor="middle" x="315.7406" y="-263.8317" font-family="Helvetica,sans-Serif" font-size="10.00" fill="#000000">2</text>
</a>
</g>
</g>
<!-- dir_1aad51cdd65d34080d064657015a76b5&#45;&gt;dir_23e8e5da5c699a1331d75b73108c17fc -->
<g id="edge1" class="edge">
<title>dir_1aad51cdd65d34080d064657015a76b5&#45;&gt;dir_23e8e5da5c699a1331d75b73108c17fc</title>
<path fill="none" stroke="#000000" d="M120.191,-144.2022C134.3378,-134.9425 151.8157,-123.5025 167.063,-113.5224"/>
<polygon fill="#000000" stroke="#000000" points="169.2903,-116.2476 175.7406,-107.8425 165.4567,-110.3907 169.2903,-116.2476"/>
<g id="a_edge1&#45;headlabel"><a xlink:href="dir_000006_000002.html" target="_top" xlink:title="1">
<text text-anchor="middle" x="167.8377" y="-117.5918" font-family="Helvetica,sans-Serif" font-size="10.00" fill="#000000">1</text>
</a>
</g>
</g>
<!-- dir_1aad51cdd65d34080d064657015a76b5&#45;&gt;dir_3387936ac018e251c9001f4c9b392951 -->
<g id="edge2" class="edge">
<title>dir_1aad51cdd65d34080d064657015a76b5&#45;&gt;dir_3387936ac018e251c9001f4c9b392951</title>
<path fill="none" stroke="#000000" d="M92.253,-143.7623C95.0931,-119.0928 104.3492,-74.8598 112.506,-45.9731"/>
<polygon fill="#000000" stroke="#000000" points="115.9495,-46.6726 115.4474,-36.0896 109.2403,-44.6758 115.9495,-46.6726"/>
<g id="a_edge2&#45;headlabel"><a xlink:href="dir_000006_000011.html" target="_top" xlink:title="3">
<text text-anchor="middle" x="117.6455" y="-47.9277" font-family="Helvetica,sans-Serif" font-size="10.00" fill="#000000">3</text>
</a>
</g>
</g>
<!-- dir_f36c334ff05235533ccb10eb3ed2c536&#45;&gt;dir_1aad51cdd65d34080d064657015a76b5 -->
<g id="edge3" class="edge">
<title>dir_f36c334ff05235533ccb10eb3ed2c536&#45;&gt;dir_1aad51cdd65d34080d064657015a76b5</title>
<path fill="none" stroke="#000000" d="M152.224,-287.835C147.9771,-269.2354 140.1804,-239.7653 129,-216 124.5858,-206.617 118.6928,-197.0015 112.9547,-188.5332"/>
<polygon fill="#000000" stroke="#000000" points="115.706,-186.3606 107.0996,-180.1816 109.9743,-190.379 115.706,-186.3606"/>
<g id="a_edge3&#45;headlabel"><a xlink:href="dir_000009_000006.html" target="_top" xlink:title="8">
<text text-anchor="middle" x="120.0943" y="-184.6741" font-family="Helvetica,sans-Serif" font-size="10.00" fill="#000000">8</text>
</a>
</g>
</g>
<!-- dir_f36c334ff05235533ccb10eb3ed2c536&#45;&gt;dir_23e8e5da5c699a1331d75b73108c17fc -->
<g id="edge4" class="edge">
<title>dir_f36c334ff05235533ccb10eb3ed2c536&#45;&gt;dir_23e8e5da5c699a1331d75b73108c17fc</title>
<path fill="none" stroke="#000000" d="M176.2942,-287.5234C185.3602,-277.9191 195.092,-265.3993 200,-252 216.3255,-207.4301 212.433,-151.2331 207.8825,-118.1004"/>
<polygon fill="#000000" stroke="#000000" points="211.3425,-117.5723 206.4067,-108.1975 204.419,-118.6042 211.3425,-117.5723"/>
<g id="a_edge4&#45;headlabel"><a xlink:href="dir_000009_000002.html" target="_top" xlink:title="8">
<text text-anchor="middle" x="214.6805" y="-117.7092" font-family="Helvetica,sans-Serif" font-size="10.00" fill="#000000">8</text>
</a>
</g>
</g>
<!-- dir_f36c334ff05235533ccb10eb3ed2c536&#45;&gt;dir_c62272c95897103f1c0ae919532aa8bc -->
<g id="edge5" class="edge">
<title>dir_f36c334ff05235533ccb10eb3ed2c536&#45;&gt;dir_c62272c95897103f1c0ae919532aa8bc</title>
<path fill="none" stroke="#000000" d="M140.1024,-287.8314C132.7722,-279.454 123.934,-269.3531 115.9031,-260.1749"/>
<polygon fill="#000000" stroke="#000000" points="118.3307,-257.6343 109.1116,-252.4133 113.0627,-262.2438 118.3307,-257.6343"/>
<g id="a_edge5&#45;headlabel"><a xlink:href="dir_000009_000004.html" target="_top" xlink:title="4">
<text text-anchor="middle" x="122.8345" y="-255.4698" font-family="Helvetica,sans-Serif" font-size="10.00" fill="#000000">4</text>
</a>
</g>
</g>
<!-- dir_f36c334ff05235533ccb10eb3ed2c536&#45;&gt;dir_3387936ac018e251c9001f4c9b392951 -->
<g id="edge6" class="edge">
<title>dir_f36c334ff05235533ccb10eb3ed2c536&#45;&gt;dir_3387936ac018e251c9001f4c9b392951</title>
<path fill="none" stroke="#000000" d="M155.0907,-287.7034C154.113,-269.501 152.3733,-240.7855 150,-216 143.8523,-151.7956 140.7266,-135.905 132,-72 130.864,-63.6809 129.5561,-54.6525 128.3314,-46.4021"/>
<polygon fill="#000000" stroke="#000000" points="131.7879,-45.8501 126.8438,-36.4796 124.8652,-46.888 131.7879,-45.8501"/>
<g id="a_edge6&#45;headlabel"><a xlink:href="dir_000009_000011.html" target="_top" xlink:title="8">
<text text-anchor="middle" x="135.1286" y="-45.984" font-family="Helvetica,sans-Serif" font-size="10.00" fill="#000000">8</text>
</a>
</g>
</g>
<!-- dir_23e8e5da5c699a1331d75b73108c17fc&#45;&gt;dir_3387936ac018e251c9001f4c9b392951 -->
<g id="edge7" class="edge">
<title>dir_23e8e5da5c699a1331d75b73108c17fc&#45;&gt;dir_3387936ac018e251c9001f4c9b392951</title>
<path fill="none" stroke="#000000" d="M177.1126,-71.8314C166.9022,-63.2848 155.3758,-52.9443 145.6165,-43.6198"/>
<polygon fill="#000000" stroke="#000000" points="147.8301,-40.8898 138.2274,-36.4133 142.9426,-45.901 147.8301,-40.8898"/>
<g id="a_edge7&#45;headlabel"><a xlink:href="dir_000002_000011.html" target="_top" xlink:title="2">
<text text-anchor="middle" x="152.3859" y="-38.367" font-family="Helvetica,sans-Serif" font-size="10.00" fill="#000000">2</text>
</a>
</g>
</g>
<!-- dir_c62272c95897103f1c0ae919532aa8bc&#45;&gt;dir_1aad51cdd65d34080d064657015a76b5 -->
<g id="edge14" class="edge">
<title>dir_c62272c95897103f1c0ae919532aa8bc&#45;&gt;dir_1aad51cdd65d34080d064657015a76b5</title>
<path fill="none" stroke="#000000" d="M93,-215.8314C93,-208.131 93,-198.9743 93,-190.4166"/>
<polygon fill="#000000" stroke="#000000" points="96.5001,-190.4132 93,-180.4133 89.5001,-190.4133 96.5001,-190.4132"/>
<g id="a_edge14&#45;headlabel"><a xlink:href="dir_000004_000006.html" target="_top" xlink:title="2">
<text text-anchor="middle" x="99.3393" y="-191.0079" font-family="Helvetica,sans-Serif" font-size="10.00" fill="#000000">2</text>
</a>
</g>
</g>
<!-- dir_c62272c95897103f1c0ae919532aa8bc&#45;&gt;dir_23e8e5da5c699a1331d75b73108c17fc -->
<g id="edge15" class="edge">
<title>dir_c62272c95897103f1c0ae919532aa8bc&#45;&gt;dir_23e8e5da5c699a1331d75b73108c17fc</title>
<path fill="none" stroke="#000000" d="M106.9316,-215.7623C126.1896,-190.5518 161.0546,-144.9103 183.0662,-116.0952"/>
<polygon fill="#000000" stroke="#000000" points="185.8925,-118.161 189.1815,-108.0896 180.3297,-113.9117 185.8925,-118.161"/>
<g id="a_edge15&#45;headlabel"><a xlink:href="dir_000004_000002.html" target="_top" xlink:title="2">
<text text-anchor="middle" x="185.9667" y="-119.7411" font-family="Helvetica,sans-Serif" font-size="10.00" fill="#000000">2</text>
</a>
</g>
</g>
<!-- dir_c62272c95897103f1c0ae919532aa8bc&#45;&gt;dir_3387936ac018e251c9001f4c9b392951 -->
<g id="edge16" class="edge">
<title>dir_c62272c95897103f1c0ae919532aa8bc&#45;&gt;dir_3387936ac018e251c9001f4c9b392951</title>
<path fill="none" stroke="#000000" d="M77.0095,-215.9169C69.3462,-206.0371 60.9834,-193.1563 57,-180 52.3635,-164.6865 53.129,-159.5247 57,-144 66.2355,-106.9607 88.6243,-68.864 104.9878,-44.4001"/>
<polygon fill="#000000" stroke="#000000" points="107.9547,-46.2619 110.7083,-36.0311 102.1757,-42.3117 107.9547,-46.2619"/>
<g id="a_edge16&#45;headlabel"><a xlink:href="dir_000004_000011.html" target="_top" xlink:title="3">
<text text-anchor="middle" x="108.2703" y="-47.8317" font-family="Helvetica,sans-Serif" font-size="10.00" fill="#000000">3</text>
</a>
</g>
</g>
<!-- dir_3387936ac018e251c9001f4c9b392951&#45;&gt;dir_1aad51cdd65d34080d064657015a76b5 -->
<g id="edge17" class="edge">
<title>dir_3387936ac018e251c9001f4c9b392951&#45;&gt;dir_1aad51cdd65d34080d064657015a76b5</title>
<path fill="none" stroke="#000000" d="M124.764,-36.0896C121.9496,-60.6805 112.7042,-104.905 104.5431,-133.8531"/>
<polygon fill="#000000" stroke="#000000" points="101.092,-133.1796 101.5993,-143.7623 107.8022,-135.1731 101.092,-133.1796"/>
<g id="a_edge17&#45;headlabel"><a xlink:href="dir_000011_000006.html" target="_top" xlink:title="1">
<text text-anchor="middle" x="99.3939" y="-125.9253" font-family="Helvetica,sans-Serif" font-size="10.00" fill="#000000">1</text>
</a>
</g>
</g>
<!-- dir_3387936ac018e251c9001f4c9b392951&#45;&gt;dir_23e8e5da5c699a1331d75b73108c17fc -->
<g id="edge18" class="edge">
<title>dir_3387936ac018e251c9001f4c9b392951&#45;&gt;dir_23e8e5da5c699a1331d75b73108c17fc</title>
<path fill="none" stroke="#000000" d="M149.8805,-36.1628C160.1688,-44.7744 171.7942,-55.2081 181.6018,-64.5888"/>
<polygon fill="#000000" stroke="#000000" points="179.4178,-67.3482 189.0174,-71.8314 184.3088,-62.3403 179.4178,-67.3482"/>
<g id="a_edge18&#45;headlabel"><a xlink:href="dir_000011_000002.html" target="_top" xlink:title="1">
<text text-anchor="middle" x="174.8624" y="-63.8678" font-family="Helvetica,sans-Serif" font-size="10.00" fill="#000000">1</text>
</a>
</g>
</g>
<!-- dir_4126959ea49cb7fbd228dcd829336285&#45;&gt;dir_1aad51cdd65d34080d064657015a76b5 -->
<g id="edge19" class="edge">
<title>dir_4126959ea49cb7fbd228dcd829336285&#45;&gt;dir_1aad51cdd65d34080d064657015a76b5</title>
<path fill="none" stroke="#000000" d="M289.9804,-225.3151C249.9538,-212.4494 174.7985,-188.2924 129.7835,-173.8233"/>
<polygon fill="#000000" stroke="#000000" points="130.7068,-170.4437 120.1155,-170.7157 128.5647,-177.1079 130.7068,-170.4437"/>
<g id="a_edge19&#45;headlabel"><a xlink:href="dir_000001_000006.html" target="_top" xlink:title="3">
<text text-anchor="middle" x="134.9978" y="-165.8406" font-family="Helvetica,sans-Serif" font-size="10.00" fill="#000000">3</text>
</a>
</g>
</g>
<!-- dir_4126959ea49cb7fbd228dcd829336285&#45;&gt;dir_23e8e5da5c699a1331d75b73108c17fc -->
<g id="edge20" class="edge">
<title>dir_4126959ea49cb7fbd228dcd829336285&#45;&gt;dir_23e8e5da5c699a1331d75b73108c17fc</title>
<path fill="none" stroke="#000000" d="M311.7864,-215.9625C305.5634,-196.6647 293.721,-165.8833 276,-144 265.763,-131.3584 251.9182,-120.1345 239.0373,-111.2392"/>
<polygon fill="#000000" stroke="#000000" points="240.5981,-108.0747 230.3299,-105.4642 236.7291,-113.9082 240.5981,-108.0747"/>
<g id="a_edge20&#45;headlabel"><a xlink:href="dir_000001_000002.html" target="_top" xlink:title="3">
<text text-anchor="middle" x="245.1631" y="-104.6953" font-family="Helvetica,sans-Serif" font-size="10.00" fill="#000000">3</text>
</a>
</g>
</g>
<!-- dir_4126959ea49cb7fbd228dcd829336285&#45;&gt;dir_3387936ac018e251c9001f4c9b392951 -->
<g id="edge21" class="edge">
<title>dir_4126959ea49cb7fbd228dcd829336285&#45;&gt;dir_3387936ac018e251c9001f4c9b392951</title>
<path fill="none" stroke="#000000" d="M316.574,-215.9012C315.5076,-197.095 312.0302,-167.223 301,-144 282.8822,-105.8548 272.6322,-97.5379 239,-72 218.8778,-56.7206 193.7383,-44.3032 172.1002,-35.2458"/>
<polygon fill="#000000" stroke="#000000" points="173.3337,-31.9691 162.7518,-31.4471 170.6986,-38.4542 173.3337,-31.9691"/>
<g id="a_edge21&#45;headlabel"><a xlink:href="dir_000001_000011.html" target="_top" xlink:title="2">
<text text-anchor="middle" x="177.7327" y="-27.6919" font-family="Helvetica,sans-Serif" font-size="10.00" fill="#000000">2</text>
</a>
</g>
</g>
</g>
</svg>
