<?xml version="1.0" encoding="UTF-8" standalone="no"?>
<!DOCTYPE svg PUBLIC "-//W3C//DTD SVG 1.1//EN"
 "http://www.w3.org/Graphics/SVG/1.1/DTD/svg11.dtd">
<!-- Generated by graphviz version 2.40.1 (20161225.0304)
 -->
<!-- Title: GLAC/io/fieldio.h Pages: 1 -->
<svg width="730pt" height="302pt"
 viewBox="0.00 0.00 729.77 302.00" xmlns="http://www.w3.org/2000/svg" xmlns:xlink="http://www.w3.org/1999/xlink">
<g id="graph0" class="graph" transform="scale(1 1) rotate(0) translate(4 298)">
<title>GLAC/io/fieldio.h</title>
<polygon fill="#ffffff" stroke="transparent" points="-4,4 -4,-298 725.7681,-298 725.7681,4 -4,4"/>
<!-- Node0 -->
<g id="node1" class="node">
<title>Node0</title>
<g id="a_node1"><a xlink:title=" ">
<polygon fill="#bfbfbf" stroke="#000000" points="22.707,-275.5 22.707,-293.5 113.7461,-293.5 113.7461,-275.5 22.707,-275.5"/>
<text text-anchor="middle" x="68.2266" y="-281.5" font-family="Helvetica,sans-Serif" font-size="10.00" fill="#000000">GLAC/io/fieldio.h</text>
</a>
</g>
</g>
<!-- Node1 -->
<g id="node2" class="node">
<title>Node1</title>
<g id="a_node2"><a xlink:title=" ">
<polygon fill="#ffffff" stroke="#bfbfbf" points="0,-220.5 0,-238.5 40.4531,-238.5 40.4531,-220.5 0,-220.5"/>
<text text-anchor="middle" x="20.2266" y="-226.5" font-family="Helvetica,sans-Serif" font-size="10.00" fill="#000000">string</text>
</a>
</g>
</g>
<!-- Node0&#45;&gt;Node1 -->
<g id="edge1" class="edge">
<title>Node0&#45;&gt;Node1</title>
<path fill="none" stroke="#191970" d="M60.3003,-275.4179C53.4629,-267.5833 43.404,-256.0575 35.0749,-246.5137"/>
<polygon fill="#191970" stroke="#191970" points="37.5374,-244.0123 28.325,-238.7795 32.2634,-248.6151 37.5374,-244.0123"/>
</g>
<!-- Node2 -->
<g id="node3" class="node">
<title>Node2</title>
<g id="a_node3"><a xlink:href="su3_8h.html" target="_top" xlink:title=" ">
<polygon fill="#ffffff" stroke="#000000" points="4.2095,-110.5 4.2095,-128.5 110.2437,-128.5 110.2437,-110.5 4.2095,-110.5"/>
<text text-anchor="middle" x="57.2266" y="-116.5" font-family="Helvetica,sans-Serif" font-size="10.00" fill="#000000">math/matrices/su3.h</text>
</a>
</g>
</g>
<!-- Node0&#45;&gt;Node2 -->
<g id="edge2" class="edge">
<title>Node0&#45;&gt;Node2</title>
<path fill="none" stroke="#191970" d="M67.6036,-275.1561C65.8566,-248.9504 60.8836,-174.3557 58.5134,-138.8021"/>
<polygon fill="#191970" stroke="#191970" points="62.0002,-138.4864 57.8427,-128.7414 55.0157,-138.9521 62.0002,-138.4864"/>
</g>
<!-- Node5 -->
<g id="node6" class="node">
<title>Node5</title>
<g id="a_node6"><a xlink:href="lattice_8h.html" target="_top" xlink:title=" ">
<polygon fill="#ffffff" stroke="#000000" points="244.4902,-220.5 244.4902,-238.5 319.9629,-238.5 319.9629,-220.5 244.4902,-220.5"/>
<text text-anchor="middle" x="282.2266" y="-226.5" font-family="Helvetica,sans-Serif" font-size="10.00" fill="#000000">math/lattice.h</text>
</a>
</g>
</g>
<!-- Node0&#45;&gt;Node5 -->
<g id="edge5" class="edge">
<title>Node0&#45;&gt;Node5</title>
<path fill="none" stroke="#191970" d="M103.5643,-275.4179C140.2268,-265.9953 197.6631,-251.2336 237.4738,-241.0019"/>
<polygon fill="#191970" stroke="#191970" points="238.378,-244.3833 247.192,-238.5042 236.6355,-237.6036 238.378,-244.3833"/>
</g>
<!-- Node3 -->
<g id="node4" class="node">
<title>Node3</title>
<g id="a_node4"><a xlink:href="complex_8h.html" target="_top" xlink:title=" ">
<polygon fill="#ffffff" stroke="#000000" points="94.9336,-55.5 94.9336,-73.5 181.5195,-73.5 181.5195,-55.5 94.9336,-55.5"/>
<text text-anchor="middle" x="138.2266" y="-61.5" font-family="Helvetica,sans-Serif" font-size="10.00" fill="#000000">math/complex.h</text>
</a>
</g>
</g>
<!-- Node2&#45;&gt;Node3 -->
<g id="edge3" class="edge">
<title>Node2&#45;&gt;Node3</title>
<path fill="none" stroke="#191970" d="M70.6021,-110.4179C83.0306,-101.9788 101.7663,-89.257 116.3675,-79.3426"/>
<polygon fill="#191970" stroke="#191970" points="118.5243,-82.1088 124.8312,-73.5956 114.592,-76.3176 118.5243,-82.1088"/>
</g>
<!-- Node4 -->
<g id="node5" class="node">
<title>Node4</title>
<g id="a_node5"><a xlink:title=" ">
<polygon fill="#ffffff" stroke="#bfbfbf" points="111.0542,-.5 111.0542,-18.5 165.3989,-18.5 165.3989,-.5 111.0542,-.5"/>
<text text-anchor="middle" x="138.2266" y="-6.5" font-family="Helvetica,sans-Serif" font-size="10.00" fill="#000000">iostream</text>
</a>
</g>
</g>
<!-- Node3&#45;&gt;Node4 -->
<g id="edge4" class="edge">
<title>Node3&#45;&gt;Node4</title>
<path fill="none" stroke="#191970" d="M138.2266,-55.4179C138.2266,-48.2164 138.2266,-37.8962 138.2266,-28.8632"/>
<polygon fill="#191970" stroke="#191970" points="141.7267,-28.7794 138.2266,-18.7795 134.7267,-28.7795 141.7267,-28.7794"/>
</g>
<!-- Node6 -->
<g id="node7" class="node">
<title>Node6</title>
<g id="a_node7"><a xlink:title=" ">
<polygon fill="#ffffff" stroke="#bfbfbf" points="265.6108,-110.5 265.6108,-128.5 308.8423,-128.5 308.8423,-110.5 265.6108,-110.5"/>
<text text-anchor="middle" x="287.2266" y="-116.5" font-family="Helvetica,sans-Serif" font-size="10.00" fill="#000000">vector</text>
</a>
</g>
</g>
<!-- Node5&#45;&gt;Node6 -->
<g id="edge6" class="edge">
<title>Node5&#45;&gt;Node6</title>
<path fill="none" stroke="#191970" d="M260.3676,-220.397C236.8438,-209.1597 204.4116,-188.614 217.2266,-165 225.5633,-149.6381 241.5776,-138.6528 256.1869,-131.3296"/>
<polygon fill="#191970" stroke="#191970" points="257.8762,-134.4048 265.4896,-127.0368 254.9432,-128.0489 257.8762,-134.4048"/>
</g>
<!-- Node7 -->
<g id="node8" class="node">
<title>Node7</title>
<g id="a_node8"><a xlink:title=" ">
<polygon fill="#ffffff" stroke="#bfbfbf" points="559,-110.5 559,-128.5 599.4531,-128.5 599.4531,-110.5 559,-110.5"/>
<text text-anchor="middle" x="579.2266" y="-116.5" font-family="Helvetica,sans-Serif" font-size="10.00" fill="#000000">mpi.h</text>
</a>
</g>
</g>
<!-- Node5&#45;&gt;Node7 -->
<g id="edge7" class="edge">
<title>Node5&#45;&gt;Node7</title>
<path fill="none" stroke="#191970" d="M320.0235,-227.4209C365.548,-223.6624 443.3609,-213.1689 503.2266,-184 527.3792,-172.2319 550.1883,-151.0156 564.4007,-136.1389"/>
<polygon fill="#191970" stroke="#191970" points="567.1335,-138.3392 571.3659,-128.6265 562.0003,-133.5799 567.1335,-138.3392"/>
</g>
<!-- Node8 -->
<g id="node9" class="node">
<title>Node8</title>
<g id="a_node9"><a xlink:href="index_8h.html" target="_top" xlink:title=" ">
<polygon fill="#ffffff" stroke="#000000" points="226.1406,-165.5 226.1406,-183.5 338.3125,-183.5 338.3125,-165.5 226.1406,-165.5"/>
<text text-anchor="middle" x="282.2266" y="-171.5" font-family="Helvetica,sans-Serif" font-size="10.00" fill="#000000">parallelization/index.h</text>
</a>
</g>
</g>
<!-- Node5&#45;&gt;Node8 -->
<g id="edge8" class="edge">
<title>Node5&#45;&gt;Node8</title>
<path fill="none" stroke="#191970" d="M282.2266,-220.4179C282.2266,-213.2164 282.2266,-202.8962 282.2266,-193.8632"/>
<polygon fill="#191970" stroke="#191970" points="285.7267,-193.7794 282.2266,-183.7795 278.7267,-193.7795 285.7267,-193.7794"/>
</g>
<!-- Node9 -->
<g id="node10" class="node">
<title>Node9</title>
<g id="a_node10"><a xlink:href="neighbours_8h.html" target="_top" xlink:title=" ">
<polygon fill="#ffffff" stroke="#000000" points="356.3525,-165.5 356.3525,-183.5 494.1006,-183.5 494.1006,-165.5 356.3525,-165.5"/>
<text text-anchor="middle" x="425.2266" y="-171.5" font-family="Helvetica,sans-Serif" font-size="10.00" fill="#000000">parallelization/neighbours.h</text>
</a>
</g>
</g>
<!-- Node5&#45;&gt;Node9 -->
<g id="edge10" class="edge">
<title>Node5&#45;&gt;Node9</title>
<path fill="none" stroke="#191970" d="M305.8401,-220.4179C329.3343,-211.3817 365.5948,-197.4353 391.9914,-187.2828"/>
<polygon fill="#191970" stroke="#191970" points="393.5009,-190.4522 401.5779,-183.5956 390.988,-183.9188 393.5009,-190.4522"/>
</g>
<!-- Node11 -->
<g id="node12" class="node">
<title>Node11</title>
<g id="a_node12"><a xlink:href="parallelparameters_8h.html" target="_top" xlink:title=" ">
<polygon fill="#ffffff" stroke="#000000" points="550.6851,-165.5 550.6851,-183.5 721.7681,-183.5 721.7681,-165.5 550.6851,-165.5"/>
<text text-anchor="middle" x="636.2266" y="-171.5" font-family="Helvetica,sans-Serif" font-size="10.00" fill="#000000">parallelization/parallelparameters.h</text>
</a>
</g>
</g>
<!-- Node5&#45;&gt;Node11 -->
<g id="edge13" class="edge">
<title>Node5&#45;&gt;Node11</title>
<path fill="none" stroke="#191970" d="M320.1108,-223.614C379.2227,-214.43 494.2569,-196.5574 568.0506,-185.0923"/>
<polygon fill="#191970" stroke="#191970" points="568.8354,-188.5125 578.1794,-183.5186 567.7606,-181.5955 568.8354,-188.5125"/>
</g>
<!-- Node12 -->
<g id="node13" class="node">
<title>Node12</title>
<g id="a_node13"><a xlink:href="functions_8h.html" target="_top" xlink:title=" ">
<polygon fill="#ffffff" stroke="#000000" points="106.0444,-165.5 106.0444,-183.5 170.4087,-183.5 170.4087,-165.5 106.0444,-165.5"/>
<text text-anchor="middle" x="138.2266" y="-171.5" font-family="Helvetica,sans-Serif" font-size="10.00" fill="#000000">functions.h</text>
</a>
</g>
</g>
<!-- Node5&#45;&gt;Node12 -->
<g id="edge15" class="edge">
<title>Node5&#45;&gt;Node12</title>
<path fill="none" stroke="#191970" d="M258.4479,-220.4179C234.7895,-211.3817 198.2753,-197.4353 171.6942,-187.2828"/>
<polygon fill="#191970" stroke="#191970" points="172.6312,-183.8941 162.0406,-183.5956 170.1335,-190.4334 172.6312,-183.8941"/>
</g>
<!-- Node8&#45;&gt;Node6 -->
<g id="edge9" class="edge">
<title>Node8&#45;&gt;Node6</title>
<path fill="none" stroke="#191970" d="M283.0522,-165.4179C283.7069,-158.2164 284.6451,-147.8962 285.4663,-138.8632"/>
<polygon fill="#191970" stroke="#191970" points="288.9632,-139.0553 286.383,-128.7795 281.9919,-138.4215 288.9632,-139.0553"/>
</g>
<!-- Node9&#45;&gt;Node6 -->
<g id="edge12" class="edge">
<title>Node9&#45;&gt;Node6</title>
<path fill="none" stroke="#191970" d="M402.4387,-165.4179C379.5955,-156.3137 344.2464,-142.2253 318.7268,-132.0544"/>
<polygon fill="#191970" stroke="#191970" points="319.7212,-128.6831 309.136,-128.232 317.1295,-135.1857 319.7212,-128.6831"/>
</g>
<!-- Node10 -->
<g id="node11" class="node">
<title>Node10</title>
<g id="a_node11"><a xlink:href="neighbourlist_8h.html" target="_top" xlink:title=" ">
<polygon fill="#ffffff" stroke="#000000" points="384.7046,-110.5 384.7046,-128.5 465.7485,-128.5 465.7485,-110.5 384.7046,-110.5"/>
<text text-anchor="middle" x="425.2266" y="-116.5" font-family="Helvetica,sans-Serif" font-size="10.00" fill="#000000">neighbourlist.h</text>
</a>
</g>
</g>
<!-- Node9&#45;&gt;Node10 -->
<g id="edge11" class="edge">
<title>Node9&#45;&gt;Node10</title>
<path fill="none" stroke="#191970" d="M425.2266,-165.4179C425.2266,-158.2164 425.2266,-147.8962 425.2266,-138.8632"/>
<polygon fill="#191970" stroke="#191970" points="428.7267,-138.7794 425.2266,-128.7795 421.7267,-138.7795 428.7267,-138.7794"/>
</g>
<!-- Node11&#45;&gt;Node7 -->
<g id="edge14" class="edge">
<title>Node11&#45;&gt;Node7</title>
<path fill="none" stroke="#191970" d="M626.8142,-165.4179C618.5306,-157.425 606.2656,-145.5903 596.262,-135.9377"/>
<polygon fill="#191970" stroke="#191970" points="598.47,-133.2045 588.8435,-128.7795 593.6094,-138.2419 598.47,-133.2045"/>
</g>
<!-- Node12&#45;&gt;Node2 -->
<g id="edge16" class="edge">
<title>Node12&#45;&gt;Node2</title>
<path fill="none" stroke="#191970" d="M124.8511,-165.4179C112.4226,-156.9788 93.6868,-144.257 79.0856,-134.3426"/>
<polygon fill="#191970" stroke="#191970" points="80.8612,-131.3176 70.6219,-128.5956 76.9289,-137.1088 80.8612,-131.3176"/>
</g>
<!-- Node12&#45;&gt;Node3 -->
<g id="edge19" class="edge">
<title>Node12&#45;&gt;Node3</title>
<path fill="none" stroke="#191970" d="M138.2266,-165.4982C138.2266,-147.6913 138.2266,-107.6225 138.2266,-83.6515"/>
<polygon fill="#191970" stroke="#191970" points="141.7267,-83.6261 138.2266,-73.6261 134.7267,-83.6262 141.7267,-83.6261"/>
</g>
<!-- Node13 -->
<g id="node14" class="node">
<title>Node13</title>
<g id="a_node14"><a xlink:href="su2_8h.html" target="_top" xlink:title=" ">
<polygon fill="#ffffff" stroke="#000000" points="166.7144,-110.5 166.7144,-128.5 247.7388,-128.5 247.7388,-110.5 166.7144,-110.5"/>
<text text-anchor="middle" x="207.2266" y="-116.5" font-family="Helvetica,sans-Serif" font-size="10.00" fill="#000000">matrices/su2.h</text>
</a>
</g>
</g>
<!-- Node12&#45;&gt;Node13 -->
<g id="edge17" class="edge">
<title>Node12&#45;&gt;Node13</title>
<path fill="none" stroke="#191970" d="M149.6205,-165.4179C159.9458,-157.1876 175.3813,-144.8839 187.6763,-135.0836"/>
<polygon fill="#191970" stroke="#191970" points="189.9469,-137.7495 195.5851,-128.7795 185.5837,-132.2757 189.9469,-137.7495"/>
</g>
<!-- Node13&#45;&gt;Node3 -->
<g id="edge18" class="edge">
<title>Node13&#45;&gt;Node3</title>
<path fill="none" stroke="#191970" d="M195.8326,-110.4179C185.5073,-102.1876 170.0718,-89.8839 157.7768,-80.0836"/>
<polygon fill="#191970" stroke="#191970" points="159.8694,-77.2757 149.8681,-73.7795 155.5062,-82.7495 159.8694,-77.2757"/>
</g>
</g>
</svg>
