<?xml version="1.0" encoding="UTF-8" standalone="no"?>
<!DOCTYPE svg PUBLIC "-//W3C//DTD SVG 1.1//EN"
 "http://www.w3.org/Graphics/SVG/1.1/DTD/svg11.dtd">
<!-- Generated by graphviz version 2.40.1 (20161225.0304)
 -->
<!-- Title: GLAC/io/fieldio.h Pages: 1 -->
<svg width="622pt" height="82pt"
 viewBox="0.00 0.00 621.82 82.00" xmlns="http://www.w3.org/2000/svg" xmlns:xlink="http://www.w3.org/1999/xlink">
<g id="graph0" class="graph" transform="scale(1 1) rotate(0) translate(4 78)">
<title>GLAC/io/fieldio.h</title>
<polygon fill="#ffffff" stroke="transparent" points="-4,4 -4,-78 617.8247,-78 617.8247,4 -4,4"/>
<!-- Node14 -->
<g id="node1" class="node">
<title>Node14</title>
<g id="a_node1"><a xlink:title=" ">
<polygon fill="#bfbfbf" stroke="#000000" points="284.2808,-55.5 284.2808,-73.5 375.3198,-73.5 375.3198,-55.5 284.2808,-55.5"/>
<text text-anchor="middle" x="329.8003" y="-61.5" font-family="Helvetica,sans-Serif" font-size="10.00" fill="#000000">GLAC/io/fieldio.h</text>
</a>
</g>
</g>
<!-- Node15 -->
<g id="node2" class="node">
<title>Node15</title>
<g id="a_node2"><a xlink:href="fieldio_8cpp.html" target="_top" xlink:title=" ">
<polygon fill="#ffffff" stroke="#000000" points="0,-.5 0,-18.5 101.6006,-18.5 101.6006,-.5 0,-.5"/>
<text text-anchor="middle" x="50.8003" y="-6.5" font-family="Helvetica,sans-Serif" font-size="10.00" fill="#000000">GLAC/io/fieldio.cpp</text>
</a>
</g>
</g>
<!-- Node14&#45;&gt;Node15 -->
<g id="edge1" class="edge">
<title>Node14&#45;&gt;Node15</title>
<path fill="none" stroke="#191970" d="M273.9709,-53.4942C221.8945,-43.2282 145.1455,-28.0985 96.584,-18.5255"/>
<polygon fill="#191970" stroke="#191970" points="273.5534,-56.9792 284.0415,-55.4795 274.9073,-50.1114 273.5534,-56.9792"/>
</g>
<!-- Node16 -->
<g id="node3" class="node">
<title>Node16</title>
<g id="a_node3"><a xlink:href="latticeactionchargedensity_8cpp.html" target="_top" xlink:title=" ">
<polygon fill="#ffffff" stroke="#000000" points="119.8296,-.5 119.8296,-18.5 355.771,-18.5 355.771,-.5 119.8296,-.5"/>
<text text-anchor="middle" x="237.8003" y="-6.5" font-family="Helvetica,sans-Serif" font-size="10.00" fill="#000000">GLAC/observables/latticeactionchargedensity.cpp</text>
</a>
</g>
</g>
<!-- Node14&#45;&gt;Node16 -->
<g id="edge2" class="edge">
<title>Node14&#45;&gt;Node16</title>
<path fill="none" stroke="#191970" d="M305.9326,-50.2313C289.2258,-40.2435 267.4052,-27.1986 253.0148,-18.5956"/>
<polygon fill="#191970" stroke="#191970" points="304.2293,-53.2907 314.6084,-55.4179 307.8211,-47.2825 304.2293,-53.2907"/>
</g>
<!-- Node17 -->
<g id="node4" class="node">
<title>Node17</title>
<g id="a_node4"><a xlink:href="system_8cpp.html" target="_top" xlink:title=" ">
<polygon fill="#ffffff" stroke="#000000" points="373.5098,-.5 373.5098,-18.5 470.0908,-18.5 470.0908,-.5 373.5098,-.5"/>
<text text-anchor="middle" x="421.8003" y="-6.5" font-family="Helvetica,sans-Serif" font-size="10.00" fill="#000000">GLAC/system.cpp</text>
</a>
</g>
</g>
<!-- Node14&#45;&gt;Node17 -->
<g id="edge3" class="edge">
<title>Node14&#45;&gt;Node17</title>
<path fill="none" stroke="#191970" d="M353.668,-50.2313C370.3748,-40.2435 392.1954,-27.1986 406.5858,-18.5956"/>
<polygon fill="#191970" stroke="#191970" points="351.7794,-47.2825 344.9922,-55.4179 355.3713,-53.2907 351.7794,-47.2825"/>
</g>
<!-- Node18 -->
<g id="node5" class="node">
<title>Node18</title>
<g id="a_node5"><a xlink:href="testsuite_8cpp.html" target="_top" xlink:title=" ">
<polygon fill="#ffffff" stroke="#000000" points="487.7759,-.5 487.7759,-18.5 613.8247,-18.5 613.8247,-.5 487.7759,-.5"/>
<text text-anchor="middle" x="550.8003" y="-6.5" font-family="Helvetica,sans-Serif" font-size="10.00" fill="#000000">GLAC/tests/testsuite.cpp</text>
</a>
</g>
</g>
<!-- Node14&#45;&gt;Node18 -->
<g id="edge4" class="edge">
<title>Node14&#45;&gt;Node18</title>
<path fill="none" stroke="#191970" d="M376.0962,-52.9784C417.3196,-42.7192 476.7968,-27.9172 514.6197,-18.5042"/>
<polygon fill="#191970" stroke="#191970" points="375.1527,-49.6064 366.2939,-55.4179 376.8432,-56.3992 375.1527,-49.6064"/>
</g>
</g>
</svg>
