<?xml version="1.0" encoding="UTF-8" standalone="no"?>
<!DOCTYPE svg PUBLIC "-//W3C//DTD SVG 1.1//EN"
 "http://www.w3.org/Graphics/SVG/1.1/DTD/svg11.dtd">
<!-- Generated by graphviz version 2.40.1 (20161225.0304)
 -->
<!-- Title: GLAC/math/latticemath.h Pages: 1 -->
<svg width="246pt" height="192pt"
 viewBox="0.00 0.00 246.21 192.00" xmlns="http://www.w3.org/2000/svg" xmlns:xlink="http://www.w3.org/1999/xlink">
<g id="graph0" class="graph" transform="scale(1 1) rotate(0) translate(4 188)">
<title>GLAC/math/latticemath.h</title>
<polygon fill="#ffffff" stroke="transparent" points="-4,4 -4,-188 242.2065,-188 242.2065,4 -4,4"/>
<!-- Node6 -->
<g id="node1" class="node">
<title>Node6</title>
<g id="a_node1"><a xlink:title=" ">
<polygon fill="#bfbfbf" stroke="#000000" points="47.3252,-165.5 47.3252,-183.5 175.0391,-183.5 175.0391,-165.5 47.3252,-165.5"/>
<text text-anchor="middle" x="111.1821" y="-171.5" font-family="Helvetica,sans-Serif" font-size="10.00" fill="#000000">GLAC/math/latticemath.h</text>
</a>
</g>
</g>
<!-- Node7 -->
<g id="node2" class="node">
<title>Node7</title>
<g id="a_node2"><a xlink:href="testsuite_8h.html" target="_top" xlink:title=" ">
<polygon fill="#ffffff" stroke="#000000" points="53.4385,-110.5 53.4385,-128.5 168.9258,-128.5 168.9258,-110.5 53.4385,-110.5"/>
<text text-anchor="middle" x="111.1821" y="-116.5" font-family="Helvetica,sans-Serif" font-size="10.00" fill="#000000">GLAC/tests/testsuite.h</text>
</a>
</g>
</g>
<!-- Node6&#45;&gt;Node7 -->
<g id="edge1" class="edge">
<title>Node6&#45;&gt;Node7</title>
<path fill="none" stroke="#191970" d="M111.1821,-155.383C111.1821,-146.3738 111.1821,-136.0373 111.1821,-128.7795"/>
<polygon fill="#191970" stroke="#191970" points="107.6822,-155.4178 111.1821,-165.4179 114.6822,-155.4179 107.6822,-155.4178"/>
</g>
<!-- Node8 -->
<g id="node3" class="node">
<title>Node8</title>
<g id="a_node3"><a xlink:href="test_8h.html" target="_top" xlink:title=" ">
<polygon fill="#ffffff" stroke="#000000" points="0,-55.5 0,-73.5 94.3643,-73.5 94.3643,-55.5 0,-55.5"/>
<text text-anchor="middle" x="47.1821" y="-61.5" font-family="Helvetica,sans-Serif" font-size="10.00" fill="#000000">GLAC/tests/test.h</text>
</a>
</g>
</g>
<!-- Node7&#45;&gt;Node8 -->
<g id="edge2" class="edge">
<title>Node7&#45;&gt;Node8</title>
<path fill="none" stroke="#191970" d="M92.9919,-103.8678C81.688,-94.1535 67.5393,-81.9944 57.98,-73.7795"/>
<polygon fill="#191970" stroke="#191970" points="90.7484,-106.5546 100.6138,-110.4179 95.3108,-101.2457 90.7484,-106.5546"/>
</g>
<!-- Node10 -->
<g id="node5" class="node">
<title>Node10</title>
<g id="a_node5"><a xlink:href="testsuite_8cpp.html" target="_top" xlink:title=" ">
<polygon fill="#ffffff" stroke="#000000" points="112.1577,-55.5 112.1577,-73.5 238.2065,-73.5 238.2065,-55.5 112.1577,-55.5"/>
<text text-anchor="middle" x="175.1821" y="-61.5" font-family="Helvetica,sans-Serif" font-size="10.00" fill="#000000">GLAC/tests/testsuite.cpp</text>
</a>
</g>
</g>
<!-- Node7&#45;&gt;Node10 -->
<g id="edge4" class="edge">
<title>Node7&#45;&gt;Node10</title>
<path fill="none" stroke="#191970" d="M129.3724,-103.8678C140.6763,-94.1535 154.825,-81.9944 164.3842,-73.7795"/>
<polygon fill="#191970" stroke="#191970" points="127.0535,-101.2457 121.7504,-110.4179 131.6158,-106.5546 127.0535,-101.2457"/>
</g>
<!-- Node9 -->
<g id="node4" class="node">
<title>Node9</title>
<g id="a_node4"><a xlink:href="main_8cpp.html" target="_top" xlink:title=" ">
<polygon fill="#ffffff" stroke="#000000" points="3.8892,-.5 3.8892,-18.5 90.4751,-18.5 90.4751,-.5 3.8892,-.5"/>
<text text-anchor="middle" x="47.1821" y="-6.5" font-family="Helvetica,sans-Serif" font-size="10.00" fill="#000000">GLAC/main.cpp</text>
</a>
</g>
</g>
<!-- Node8&#45;&gt;Node9 -->
<g id="edge3" class="edge">
<title>Node8&#45;&gt;Node9</title>
<path fill="none" stroke="#191970" d="M47.1821,-45.383C47.1821,-36.3738 47.1821,-26.0373 47.1821,-18.7795"/>
<polygon fill="#191970" stroke="#191970" points="43.6822,-45.4178 47.1821,-55.4179 50.6822,-45.4179 43.6822,-45.4178"/>
</g>
</g>
</svg>
