<?xml version="1.0" encoding="UTF-8" standalone="no"?>
<!DOCTYPE svg PUBLIC "-//W3C//DTD SVG 1.1//EN"
 "http://www.w3.org/Graphics/SVG/1.1/DTD/svg11.dtd">
<!-- Generated by graphviz version 2.40.1 (20161225.0304)
 -->
<!-- Title: GLAC/observables/mastersamplertopcxyz.h Pages: 1 -->
<svg width="869pt" height="192pt"
 viewBox="0.00 0.00 869.12 192.00" xmlns="http://www.w3.org/2000/svg" xmlns:xlink="http://www.w3.org/1999/xlink">
<g id="graph0" class="graph" transform="scale(1 1) rotate(0) translate(4 188)">
<title>GLAC/observables/mastersamplertopcxyz.h</title>
<polygon fill="#ffffff" stroke="transparent" points="-4,4 -4,-188 865.1152,-188 865.1152,4 -4,4"/>
<!-- Node24 -->
<g id="node1" class="node">
<title>Node24</title>
<g id="a_node1"><a xlink:title=" ">
<polygon fill="#bfbfbf" stroke="#000000" points="431.7539,-165.5 431.7539,-183.5 642.832,-183.5 642.832,-165.5 431.7539,-165.5"/>
<text text-anchor="middle" x="537.293" y="-171.5" font-family="Helvetica,sans-Serif" font-size="10.00" fill="#000000">GLAC/observables/mastersamplertopcxyz.h</text>
</a>
</g>
</g>
<!-- Node25 -->
<g id="node2" class="node">
<title>Node25</title>
<g id="a_node2"><a xlink:href="observables_8h.html" target="_top" xlink:title=" ">
<polygon fill="#ffffff" stroke="#000000" points="454.8081,-110.5 454.8081,-128.5 619.7778,-128.5 619.7778,-110.5 454.8081,-110.5"/>
<text text-anchor="middle" x="537.293" y="-116.5" font-family="Helvetica,sans-Serif" font-size="10.00" fill="#000000">GLAC/observables/observables.h</text>
</a>
</g>
</g>
<!-- Node24&#45;&gt;Node25 -->
<g id="edge1" class="edge">
<title>Node24&#45;&gt;Node25</title>
<path fill="none" stroke="#191970" d="M530.8298,-155.383C530.195,-146.3738 530.6138,-136.0373 532.0862,-128.7795"/>
<polygon fill="#191970" stroke="#191970" points="527.3738,-155.949 532.1266,-165.4179 534.316,-155.0517 527.3738,-155.949"/>
</g>
<!-- Node35 -->
<g id="node12" class="node">
<title>Node35</title>
<g id="a_node12"><a xlink:href="mastersamplertopcxyz_8cpp.html" target="_top" xlink:title=" ">
<polygon fill="#ffffff" stroke="#000000" points="637.4731,-110.5 637.4731,-128.5 859.1128,-128.5 859.1128,-110.5 637.4731,-110.5"/>
<text text-anchor="middle" x="748.293" y="-116.5" font-family="Helvetica,sans-Serif" font-size="10.00" fill="#000000">GLAC/observables/mastersamplertopcxyz.cpp</text>
</a>
</g>
</g>
<!-- Node24&#45;&gt;Node35 -->
<g id="edge15" class="edge">
<title>Node24&#45;&gt;Node35</title>
<path fill="none" stroke="#191970" d="M581.9942,-162.848C621.332,-152.5941 677.7908,-137.8774 713.7495,-128.5042"/>
<polygon fill="#191970" stroke="#191970" points="580.9291,-159.5086 572.1353,-165.4179 582.6948,-166.2823 580.9291,-159.5086"/>
</g>
<!-- Node25&#45;&gt;Node24 -->
<g id="edge8" class="edge">
<title>Node25&#45;&gt;Node24</title>
<path fill="none" stroke="#191970" d="M543.7732,-138.8632C544.3888,-147.8962 543.9508,-158.2164 542.4593,-165.4179"/>
<polygon fill="#191970" stroke="#191970" points="547.2252,-138.2621 542.4997,-128.7795 540.2803,-139.1392 547.2252,-138.2621"/>
</g>
<!-- Node26 -->
<g id="node3" class="node">
<title>Node26</title>
<g id="a_node3"><a xlink:href="system_8h.html" target="_top" xlink:title=" ">
<polygon fill="#ffffff" stroke="#000000" points="110.2832,-55.5 110.2832,-73.5 196.3027,-73.5 196.3027,-55.5 110.2832,-55.5"/>
<text text-anchor="middle" x="153.293" y="-61.5" font-family="Helvetica,sans-Serif" font-size="10.00" fill="#000000">GLAC/system.h</text>
</a>
</g>
</g>
<!-- Node25&#45;&gt;Node26 -->
<g id="edge2" class="edge">
<title>Node25&#45;&gt;Node26</title>
<path fill="none" stroke="#191970" d="M464.4039,-109.0602C385.1996,-97.7158 261.2936,-79.9688 196.3317,-70.6644"/>
<polygon fill="#191970" stroke="#191970" points="463.9179,-112.5262 474.3132,-110.4795 464.9105,-105.5969 463.9179,-112.5262"/>
</g>
<!-- Node29 -->
<g id="node6" class="node">
<title>Node29</title>
<g id="a_node6"><a xlink:href="mastersampler_8h.html" target="_top" xlink:title=" ">
<polygon fill="#ffffff" stroke="#000000" points="229.978,-55.5 229.978,-73.5 406.6079,-73.5 406.6079,-55.5 229.978,-55.5"/>
<text text-anchor="middle" x="318.293" y="-61.5" font-family="Helvetica,sans-Serif" font-size="10.00" fill="#000000">GLAC/observables/mastersampler.h</text>
</a>
</g>
</g>
<!-- Node25&#45;&gt;Node29 -->
<g id="edge5" class="edge">
<title>Node25&#45;&gt;Node29</title>
<path fill="none" stroke="#191970" d="M486.3358,-108.107C443.8199,-97.8509 384.7482,-82.9789 349.0762,-73.5255"/>
<polygon fill="#191970" stroke="#191970" points="485.6806,-111.549 496.2213,-110.4795 487.3142,-104.7423 485.6806,-111.549"/>
</g>
<!-- Node31 -->
<g id="node8" class="node">
<title>Node31</title>
<g id="a_node8"><a xlink:href="latticeactionchargedensity_8h.html" target="_top" xlink:title=" ">
<polygon fill="#ffffff" stroke="#000000" points="424.603,-55.5 424.603,-73.5 649.9829,-73.5 649.9829,-55.5 424.603,-55.5"/>
<text text-anchor="middle" x="537.293" y="-61.5" font-family="Helvetica,sans-Serif" font-size="10.00" fill="#000000">GLAC/observables/latticeactionchargedensity.h</text>
</a>
</g>
</g>
<!-- Node25&#45;&gt;Node31 -->
<g id="edge9" class="edge">
<title>Node25&#45;&gt;Node31</title>
<path fill="none" stroke="#191970" d="M530.8298,-100.383C530.195,-91.3738 530.6138,-81.0373 532.0862,-73.7795"/>
<polygon fill="#191970" stroke="#191970" points="527.3738,-100.949 532.1266,-110.4179 534.316,-100.0517 527.3738,-100.949"/>
</g>
<!-- Node33 -->
<g id="node10" class="node">
<title>Node33</title>
<g id="a_node10"><a xlink:href="supersampler_8h.html" target="_top" xlink:title=" ">
<polygon fill="#ffffff" stroke="#000000" points="667.7515,-55.5 667.7515,-73.5 838.8345,-73.5 838.8345,-55.5 667.7515,-55.5"/>
<text text-anchor="middle" x="753.293" y="-61.5" font-family="Helvetica,sans-Serif" font-size="10.00" fill="#000000">GLAC/observables/supersampler.h</text>
</a>
</g>
</g>
<!-- Node25&#45;&gt;Node33 -->
<g id="edge12" class="edge">
<title>Node25&#45;&gt;Node33</title>
<path fill="none" stroke="#191970" d="M577.6658,-107.7826C616.3006,-97.5316 674.0949,-82.8575 712.7809,-73.5042"/>
<polygon fill="#191970" stroke="#191970" points="576.5535,-104.4569 567.7947,-110.4179 578.3591,-111.2201 576.5535,-104.4569"/>
</g>
<!-- Node27 -->
<g id="node4" class="node">
<title>Node27</title>
<g id="a_node4"><a xlink:href="main_8cpp.html" target="_top" xlink:title=" ">
<polygon fill="#ffffff" stroke="#000000" points="0,-.5 0,-18.5 86.5859,-18.5 86.5859,-.5 0,-.5"/>
<text text-anchor="middle" x="43.293" y="-6.5" font-family="Helvetica,sans-Serif" font-size="10.00" fill="#000000">GLAC/main.cpp</text>
</a>
</g>
</g>
<!-- Node26&#45;&gt;Node27 -->
<g id="edge3" class="edge">
<title>Node26&#45;&gt;Node27</title>
<path fill="none" stroke="#191970" d="M126.1326,-50.9198C105.9926,-40.8498 79.0885,-27.3977 61.4842,-18.5956"/>
<polygon fill="#191970" stroke="#191970" points="124.6192,-54.0762 135.1287,-55.4179 127.7497,-47.8152 124.6192,-54.0762"/>
</g>
<!-- Node28 -->
<g id="node5" class="node">
<title>Node28</title>
<g id="a_node5"><a xlink:href="system_8cpp.html" target="_top" xlink:title=" ">
<polygon fill="#ffffff" stroke="#000000" points="105.0024,-.5 105.0024,-18.5 201.5835,-18.5 201.5835,-.5 105.0024,-.5"/>
<text text-anchor="middle" x="153.293" y="-6.5" font-family="Helvetica,sans-Serif" font-size="10.00" fill="#000000">GLAC/system.cpp</text>
</a>
</g>
</g>
<!-- Node26&#45;&gt;Node28 -->
<g id="edge4" class="edge">
<title>Node26&#45;&gt;Node28</title>
<path fill="none" stroke="#191970" d="M153.293,-45.383C153.293,-36.3738 153.293,-26.0373 153.293,-18.7795"/>
<polygon fill="#191970" stroke="#191970" points="149.7931,-45.4178 153.293,-55.4179 156.7931,-45.4179 149.7931,-45.4178"/>
</g>
<!-- Node29&#45;&gt;Node25 -->
<g id="edge6" class="edge">
<title>Node29&#45;&gt;Node25</title>
<path fill="none" stroke="#191970" d="M369.1633,-75.8721C411.6007,-86.1084 470.5777,-100.9553 506.2959,-110.4179"/>
<polygon fill="#191970" stroke="#191970" points="369.8369,-72.4344 359.2962,-73.5042 368.2034,-79.2412 369.8369,-72.4344"/>
</g>
<!-- Node30 -->
<g id="node7" class="node">
<title>Node30</title>
<g id="a_node7"><a xlink:href="mastersampler_8cpp.html" target="_top" xlink:title=" ">
<polygon fill="#ffffff" stroke="#000000" points="219.6973,-.5 219.6973,-18.5 406.8887,-18.5 406.8887,-.5 219.6973,-.5"/>
<text text-anchor="middle" x="313.293" y="-6.5" font-family="Helvetica,sans-Serif" font-size="10.00" fill="#000000">GLAC/observables/mastersampler.cpp</text>
</a>
</g>
</g>
<!-- Node29&#45;&gt;Node30 -->
<g id="edge7" class="edge">
<title>Node29&#45;&gt;Node30</title>
<path fill="none" stroke="#191970" d="M316.5551,-45.383C315.736,-36.3738 314.7964,-26.0373 314.1366,-18.7795"/>
<polygon fill="#191970" stroke="#191970" points="313.0762,-45.7758 317.4673,-55.4179 320.0475,-45.142 313.0762,-45.7758"/>
</g>
<!-- Node31&#45;&gt;Node25 -->
<g id="edge10" class="edge">
<title>Node31&#45;&gt;Node25</title>
<path fill="none" stroke="#191970" d="M543.7732,-83.8632C544.3888,-92.8962 543.9508,-103.2164 542.4593,-110.4179"/>
<polygon fill="#191970" stroke="#191970" points="547.2252,-83.2621 542.4997,-73.7795 540.2803,-84.1392 547.2252,-83.2621"/>
</g>
<!-- Node32 -->
<g id="node9" class="node">
<title>Node32</title>
<g id="a_node9"><a xlink:href="latticeactionchargedensity_8cpp.html" target="_top" xlink:title=" ">
<polygon fill="#ffffff" stroke="#000000" points="425.3223,-.5 425.3223,-18.5 661.2637,-18.5 661.2637,-.5 425.3223,-.5"/>
<text text-anchor="middle" x="543.293" y="-6.5" font-family="Helvetica,sans-Serif" font-size="10.00" fill="#000000">GLAC/observables/latticeactionchargedensity.cpp</text>
</a>
</g>
</g>
<!-- Node31&#45;&gt;Node32 -->
<g id="edge11" class="edge">
<title>Node31&#45;&gt;Node32</title>
<path fill="none" stroke="#191970" d="M539.3785,-45.383C540.3613,-36.3738 541.4889,-26.0373 542.2807,-18.7795"/>
<polygon fill="#191970" stroke="#191970" points="535.889,-45.0972 538.2837,-55.4179 542.8477,-45.8564 535.889,-45.0972"/>
</g>
<!-- Node33&#45;&gt;Node25 -->
<g id="edge13" class="edge">
<title>Node33&#45;&gt;Node25</title>
<path fill="none" stroke="#191970" d="M713.1399,-76.159C674.5272,-86.4067 616.6317,-101.1077 577.8726,-110.4795"/>
<polygon fill="#191970" stroke="#191970" points="714.2436,-79.487 723.002,-73.5255 712.4376,-72.724 714.2436,-79.487"/>
</g>
<!-- Node34 -->
<g id="node11" class="node">
<title>Node34</title>
<g id="a_node11"><a xlink:href="supersampler_8cpp.html" target="_top" xlink:title=" ">
<polygon fill="#ffffff" stroke="#000000" points="679.4707,-.5 679.4707,-18.5 861.1152,-18.5 861.1152,-.5 679.4707,-.5"/>
<text text-anchor="middle" x="770.293" y="-6.5" font-family="Helvetica,sans-Serif" font-size="10.00" fill="#000000">GLAC/observables/supersampler.cpp</text>
</a>
</g>
</g>
<!-- Node33&#45;&gt;Node34 -->
<g id="edge14" class="edge">
<title>Node33&#45;&gt;Node34</title>
<path fill="none" stroke="#191970" d="M759.1102,-45.6796C761.9162,-36.6014 765.1568,-26.1171 767.4248,-18.7795"/>
<polygon fill="#191970" stroke="#191970" points="755.7094,-44.8302 756.1002,-55.4179 762.3972,-46.8974 755.7094,-44.8302"/>
</g>
</g>
</svg>
