<?xml version="1.0" encoding="UTF-8" standalone="no"?>
<!DOCTYPE svg PUBLIC "-//W3C//DTD SVG 1.1//EN"
 "http://www.w3.org/Graphics/SVG/1.1/DTD/svg11.dtd">
<!-- Generated by graphviz version 2.40.1 (20161225.0304)
 -->
<!-- Title: ConfigLoader::load Pages: 1 -->
<svg width="476pt" height="1789pt"
 viewBox="0.00 0.00 476.50 1789.00" xmlns="http://www.w3.org/2000/svg" xmlns:xlink="http://www.w3.org/1999/xlink">
<g id="graph0" class="graph" transform="scale(1 1) rotate(0) translate(4 1785)">
<title>ConfigLoader::load</title>
<polygon fill="#ffffff" stroke="transparent" points="-4,4 -4,-1785 472.4961,-1785 472.4961,4 -4,4"/>
<!-- Node0 -->
<g id="node1" class="node">
<title>Node0</title>
<g id="a_node1"><a xlink:title="load">
<polygon fill="#bfbfbf" stroke="#000000" points="0,-918.5 0,-936.5 100.5068,-936.5 100.5068,-918.5 0,-918.5"/>
<text text-anchor="middle" x="50.2534" y="-924.5" font-family="Helvetica,sans-Serif" font-size="10.00" fill="#000000">ConfigLoader::load</text>
</a>
</g>
</g>
<!-- Node1 -->
<g id="node2" class="node">
<title>Node1</title>
<g id="a_node2"><a xlink:href="class_parameters.html#a4b2041032efc8d6e9f99a99f87543f26" target="_top" xlink:title=" ">
<polygon fill="#ffffff" stroke="#000000" points="162.3491,-1762.5 162.3491,-1780.5 286.728,-1780.5 286.728,-1762.5 162.3491,-1762.5"/>
<text text-anchor="middle" x="224.5386" y="-1768.5" font-family="Helvetica,sans-Serif" font-size="10.00" fill="#000000">Parameters::setNSpatial</text>
</a>
</g>
</g>
<!-- Node0&#45;&gt;Node1 -->
<g id="edge1" class="edge">
<title>Node0&#45;&gt;Node1</title>
<path fill="none" stroke="#191970" d="M50.5594,-936.5548C53.5382,-1022.3016 78.5147,-1689.5496 136.5068,-1753.5 140.9768,-1758.4292 146.4013,-1762.2155 152.3381,-1765.1029"/>
<polygon fill="#191970" stroke="#191970" points="151.4391,-1768.5112 162.0254,-1768.9355 154.0143,-1762.0021 151.4391,-1768.5112"/>
</g>
<!-- Node2 -->
<g id="node3" class="node">
<title>Node2</title>
<g id="a_node3"><a xlink:href="class_parameters.html#a8b9ea6055d41cd08a060bc72332a63af" target="_top" xlink:title=" ">
<polygon fill="#ffffff" stroke="#000000" points="157.0732,-1725.5 157.0732,-1743.5 292.0039,-1743.5 292.0039,-1725.5 157.0732,-1725.5"/>
<text text-anchor="middle" x="224.5386" y="-1731.5" font-family="Helvetica,sans-Serif" font-size="10.00" fill="#000000">Parameters::setNTemporal</text>
</a>
</g>
</g>
<!-- Node0&#45;&gt;Node2 -->
<g id="edge2" class="edge">
<title>Node0&#45;&gt;Node2</title>
<path fill="none" stroke="#191970" d="M50.6103,-936.6708C53.9635,-1020.7273 81.052,-1655.6442 136.5068,-1716.5 139.7262,-1720.033 143.4361,-1722.9781 147.4729,-1725.4254"/>
<polygon fill="#191970" stroke="#191970" points="146.2536,-1728.727 156.7689,-1730.023 149.3569,-1722.4525 146.2536,-1728.727"/>
</g>
<!-- Node3 -->
<g id="node4" class="node">
<title>Node3</title>
<g id="a_node4"><a xlink:href="class_parallel_1_1_index.html#a125dc4d990ded636c91b959474c27d1f" target="_top" xlink:title="Parallel::Index::setNTot sets the total lattice dimensionality.">
<polygon fill="#ffffff" stroke="#000000" points="165.125,-1688.5 165.125,-1706.5 283.9521,-1706.5 283.9521,-1688.5 165.125,-1688.5"/>
<text text-anchor="middle" x="224.5386" y="-1694.5" font-family="Helvetica,sans-Serif" font-size="10.00" fill="#000000">Parallel::Index::setNTot</text>
</a>
</g>
</g>
<!-- Node0&#45;&gt;Node3 -->
<g id="edge3" class="edge">
<title>Node0&#45;&gt;Node3</title>
<path fill="none" stroke="#191970" d="M50.6655,-936.7519C54.4065,-1018.8995 83.5781,-1621.7253 136.5068,-1679.5 141.6505,-1685.1146 148.0332,-1689.2425 154.9953,-1692.2465"/>
<polygon fill="#191970" stroke="#191970" points="154.1916,-1695.6736 164.7864,-1695.6803 156.5083,-1689.068 154.1916,-1695.6736"/>
</g>
<!-- Node4 -->
<g id="node5" class="node">
<title>Node4</title>
<g id="a_node5"><a xlink:href="class_parameters.html#a8462149cb29ecf936f1f9945f5de4908" target="_top" xlink:title=" ">
<polygon fill="#ffffff" stroke="#000000" points="170.9624,-1651.5 170.9624,-1669.5 278.1147,-1669.5 278.1147,-1651.5 170.9624,-1651.5"/>
<text text-anchor="middle" x="224.5386" y="-1657.5" font-family="Helvetica,sans-Serif" font-size="10.00" fill="#000000">Parameters::setBeta</text>
</a>
</g>
</g>
<!-- Node0&#45;&gt;Node4 -->
<g id="edge4" class="edge">
<title>Node0&#45;&gt;Node4</title>
<path fill="none" stroke="#191970" d="M50.725,-936.7961C54.8669,-1016.8188 86.0928,-1587.7927 136.5068,-1642.5 143.0973,-1649.6517 151.6987,-1654.3877 160.9408,-1657.4603"/>
<polygon fill="#191970" stroke="#191970" points="160.181,-1660.8802 170.7464,-1660.0917 161.9953,-1654.1194 160.181,-1660.8802"/>
</g>
<!-- Node5 -->
<g id="node6" class="node">
<title>Node5</title>
<g id="a_node6"><a xlink:href="class_parameters.html#a3c35caa5de4bb545a2b48af07e1756f3" target="_top" xlink:title=" ">
<polygon fill="#ffffff" stroke="#000000" points="172.6372,-1614.5 172.6372,-1632.5 276.4399,-1632.5 276.4399,-1614.5 172.6372,-1614.5"/>
<text text-anchor="middle" x="224.5386" y="-1620.5" font-family="Helvetica,sans-Serif" font-size="10.00" fill="#000000">Parameters::setNCf</text>
</a>
</g>
</g>
<!-- Node0&#45;&gt;Node5 -->
<g id="edge5" class="edge">
<title>Node0&#45;&gt;Node5</title>
<path fill="none" stroke="#191970" d="M50.789,-936.8012C55.3447,-1014.4859 88.596,-1553.8461 136.5068,-1605.5 143.5083,-1613.0485 152.7509,-1617.9012 162.6137,-1620.9464"/>
<polygon fill="#191970" stroke="#191970" points="162.0752,-1624.4187 172.6231,-1623.4221 163.7559,-1617.6234 162.0752,-1624.4187"/>
</g>
<!-- Node6 -->
<g id="node7" class="node">
<title>Node6</title>
<g id="a_node7"><a xlink:href="class_parameters.html#afb3ef2dca9d24511a1904bc313fd8513" target="_top" xlink:title=" ">
<polygon fill="#ffffff" stroke="#000000" points="169.5806,-1577.5 169.5806,-1595.5 279.4966,-1595.5 279.4966,-1577.5 169.5806,-1577.5"/>
<text text-anchor="middle" x="224.5386" y="-1583.5" font-family="Helvetica,sans-Serif" font-size="10.00" fill="#000000">Parameters::setNCor</text>
</a>
</g>
</g>
<!-- Node0&#45;&gt;Node6 -->
<g id="edge6" class="edge">
<title>Node0&#45;&gt;Node6</title>
<path fill="none" stroke="#191970" d="M50.8577,-936.7652C55.8396,-1011.9013 91.0875,-1519.8853 136.5068,-1568.5 142.8417,-1575.2805 150.9855,-1579.8818 159.7557,-1582.9505"/>
<polygon fill="#191970" stroke="#191970" points="158.8862,-1586.3419 169.4621,-1585.7095 160.8001,-1579.6086 158.8862,-1586.3419"/>
</g>
<!-- Node7 -->
<g id="node8" class="node">
<title>Node7</title>
<g id="a_node8"><a xlink:href="class_parameters.html#a97a1e5d00965cf1d552a8c8dbb45cd53" target="_top" xlink:title=" ">
<polygon fill="#ffffff" stroke="#000000" points="163.1914,-1540.5 163.1914,-1558.5 285.8857,-1558.5 285.8857,-1540.5 163.1914,-1540.5"/>
<text text-anchor="middle" x="224.5386" y="-1546.5" font-family="Helvetica,sans-Serif" font-size="10.00" fill="#000000">Parameters::setNTherm</text>
</a>
</g>
</g>
<!-- Node0&#45;&gt;Node7 -->
<g id="edge7" class="edge">
<title>Node0&#45;&gt;Node7</title>
<path fill="none" stroke="#191970" d="M50.9311,-936.6861C56.3515,-1009.0658 93.5669,-1485.9101 136.5068,-1531.5 141.3215,-1536.6118 147.1649,-1540.4824 153.5264,-1543.3903"/>
<polygon fill="#191970" stroke="#191970" points="152.5655,-1546.7677 163.1579,-1546.9943 155.0188,-1540.2117 152.5655,-1546.7677"/>
</g>
<!-- Node8 -->
<g id="node9" class="node">
<title>Node8</title>
<g id="a_node9"><a xlink:href="class_parameters.html#ae9bb965e9bfa37365c5b5ef83e95f97d" target="_top" xlink:title=" ">
<polygon fill="#ffffff" stroke="#000000" points="164.5806,-1503.5 164.5806,-1521.5 284.4966,-1521.5 284.4966,-1503.5 164.5806,-1503.5"/>
<text text-anchor="middle" x="224.5386" y="-1509.5" font-family="Helvetica,sans-Serif" font-size="10.00" fill="#000000">Parameters::setNFlows</text>
</a>
</g>
</g>
<!-- Node0&#45;&gt;Node8 -->
<g id="edge8" class="edge">
<title>Node0&#45;&gt;Node8</title>
<path fill="none" stroke="#191970" d="M51.0094,-936.5617C56.8801,-1005.9799 96.0338,-1451.92 136.5068,-1494.5 141.6789,-1499.9414 148.0175,-1503.973 154.9011,-1506.9327"/>
<polygon fill="#191970" stroke="#191970" points="153.9725,-1510.3163 164.5673,-1510.3358 156.2972,-1503.7135 153.9725,-1510.3163"/>
</g>
<!-- Node9 -->
<g id="node10" class="node">
<title>Node9</title>
<g id="a_node10"><a xlink:href="class_parameters.html#ae443546fea1f1ceaf3683cb368f7f5bb" target="_top" xlink:title=" ">
<polygon fill="#ffffff" stroke="#000000" points="159.0142,-1466.5 159.0142,-1484.5 290.063,-1484.5 290.063,-1466.5 159.0142,-1466.5"/>
<text text-anchor="middle" x="224.5386" y="-1472.5" font-family="Helvetica,sans-Serif" font-size="10.00" fill="#000000">Parameters::setNUpdates</text>
</a>
</g>
</g>
<!-- Node0&#45;&gt;Node9 -->
<g id="edge9" class="edge">
<title>Node0&#45;&gt;Node9</title>
<path fill="none" stroke="#191970" d="M50.381,-936.8269C51.4554,-1001.1587 60.953,-1378.8333 136.5068,-1457.5 140.2601,-1461.4079 144.6155,-1464.5867 149.3405,-1467.1624"/>
<polygon fill="#191970" stroke="#191970" points="148.2641,-1470.5151 158.8215,-1471.4051 151.1234,-1464.1257 148.2641,-1470.5151"/>
</g>
<!-- Node10 -->
<g id="node11" class="node">
<title>Node10</title>
<g id="a_node11"><a xlink:href="class_parameters.html#aa7436b658d07358009b922584798fb6d" target="_top" xlink:title=" ">
<polygon fill="#ffffff" stroke="#000000" points="156.5093,-1429.5 156.5093,-1447.5 292.5679,-1447.5 292.5679,-1429.5 156.5093,-1429.5"/>
<text text-anchor="middle" x="224.5386" y="-1435.5" font-family="Helvetica,sans-Serif" font-size="10.00" fill="#000000">Parameters::setActionType</text>
</a>
</g>
</g>
<!-- Node0&#45;&gt;Node10 -->
<g id="edge10" class="edge">
<title>Node0&#45;&gt;Node10</title>
<path fill="none" stroke="#191970" d="M50.4967,-936.5696C52.3206,-997.5644 65.8038,-1347.7535 136.5068,-1420.5 139.7125,-1423.7983 143.3474,-1426.5756 147.2703,-1428.9081"/>
<polygon fill="#191970" stroke="#191970" points="145.7453,-1432.0585 156.2632,-1433.3338 148.8362,-1425.7779 145.7453,-1432.0585"/>
</g>
<!-- Node11 -->
<g id="node12" class="node">
<title>Node11</title>
<g id="a_node12"><a xlink:href="class_parameters.html#a58dff6fbcc88bb916b9590057bf338ff" target="_top" xlink:title=" ">
<polygon fill="#ffffff" stroke="#000000" points="152.0659,-1392.5 152.0659,-1410.5 297.0112,-1410.5 297.0112,-1392.5 152.0659,-1392.5"/>
<text text-anchor="middle" x="224.5386" y="-1398.5" font-family="Helvetica,sans-Serif" font-size="10.00" fill="#000000">Parameters::setOutputFolder</text>
</a>
</g>
</g>
<!-- Node0&#45;&gt;Node11 -->
<g id="edge11" class="edge">
<title>Node0&#45;&gt;Node11</title>
<path fill="none" stroke="#191970" d="M50.6386,-936.6356C53.2928,-995.1275 70.7672,-1316.7836 136.5068,-1383.5 138.6111,-1385.6355 140.8955,-1387.5518 143.3212,-1389.2698"/>
<polygon fill="#191970" stroke="#191970" points="141.6572,-1392.3512 152.0565,-1394.3772 145.1904,-1386.3083 141.6572,-1392.3512"/>
</g>
<!-- Node12 -->
<g id="node13" class="node">
<title>Node12</title>
<g id="a_node13"><a xlink:href="class_parameters.html#a64572c0531cc65e5d1c0fc4c8295a572" target="_top" xlink:title=" ">
<polygon fill="#ffffff" stroke="#000000" points="155.9551,-1355.5 155.9551,-1373.5 293.1221,-1373.5 293.1221,-1355.5 155.9551,-1355.5"/>
<text text-anchor="middle" x="224.5386" y="-1361.5" font-family="Helvetica,sans-Serif" font-size="10.00" fill="#000000">Parameters::setInputFolder</text>
</a>
</g>
</g>
<!-- Node0&#45;&gt;Node12 -->
<g id="edge12" class="edge">
<title>Node0&#45;&gt;Node12</title>
<path fill="none" stroke="#191970" d="M50.8008,-936.6093C54.3301,-992.2343 75.6796,-1285.7535 136.5068,-1346.5 139.5491,-1349.5383 142.9568,-1352.131 146.6159,-1354.3388"/>
<polygon fill="#191970" stroke="#191970" points="145.0482,-1357.468 155.5564,-1358.8205 148.1852,-1351.2103 145.0482,-1357.468"/>
</g>
<!-- Node13 -->
<g id="node14" class="node">
<title>Node13</title>
<g id="a_node14"><a xlink:href="class_parameters.html#a7ab55c1529015de4c5c182cfa9f004e8" target="_top" xlink:title=" ">
<polygon fill="#ffffff" stroke="#000000" points="137.0562,-1318.5 137.0562,-1336.5 312.021,-1336.5 312.021,-1318.5 137.0562,-1318.5"/>
<text text-anchor="middle" x="224.5386" y="-1324.5" font-family="Helvetica,sans-Serif" font-size="10.00" fill="#000000">Parameters::setStoreConfigurations</text>
</a>
</g>
</g>
<!-- Node0&#45;&gt;Node13 -->
<g id="edge13" class="edge">
<title>Node0&#45;&gt;Node13</title>
<path fill="none" stroke="#191970" d="M51.0136,-936.8272C55.54,-990.0383 80.6596,-1254.7794 136.5068,-1309.5 137.6211,-1310.5918 138.7826,-1311.6257 139.986,-1312.6046"/>
<polygon fill="#191970" stroke="#191970" points="138.2238,-1315.637 148.4791,-1318.2978 142.1215,-1309.8225 138.2238,-1315.637"/>
</g>
<!-- Node14 -->
<g id="node15" class="node">
<title>Node14</title>
<g id="a_node15"><a xlink:href="class_parameters.html#a84290346277f15c8241c035b7aa452ad" target="_top" xlink:title=" ">
<polygon fill="#ffffff" stroke="#000000" points="136.5068,-1271.5 136.5068,-1299.5 312.5703,-1299.5 312.5703,-1271.5 136.5068,-1271.5"/>
<text text-anchor="start" x="144.5068" y="-1287.5" font-family="Helvetica,sans-Serif" font-size="10.00" fill="#000000">Parameters::setStoreThermalization</text>
<text text-anchor="middle" x="224.5386" y="-1277.5" font-family="Helvetica,sans-Serif" font-size="10.00" fill="#000000">Observables</text>
</a>
</g>
</g>
<!-- Node0&#45;&gt;Node14 -->
<g id="edge14" class="edge">
<title>Node0&#45;&gt;Node14</title>
<path fill="none" stroke="#191970" d="M51.3489,-936.584C57.3839,-985.1647 88.0753,-1213.8959 136.5068,-1262.5 137.587,-1263.584 138.7114,-1264.6189 139.8753,-1265.6068"/>
<polygon fill="#191970" stroke="#191970" points="137.906,-1268.5014 148.0769,-1271.4687 141.9764,-1262.8064 137.906,-1268.5014"/>
</g>
<!-- Node15 -->
<g id="node16" class="node">
<title>Node15</title>
<g id="a_node16"><a xlink:href="class_parameters.html#aa0ac9d09db506844758e0a5d23dedeb4" target="_top" xlink:title=" ">
<polygon fill="#ffffff" stroke="#000000" points="162.8984,-1234.5 162.8984,-1252.5 286.1787,-1252.5 286.1787,-1234.5 162.8984,-1234.5"/>
<text text-anchor="middle" x="224.5386" y="-1240.5" font-family="Helvetica,sans-Serif" font-size="10.00" fill="#000000">Parameters::setVerbose</text>
</a>
</g>
</g>
<!-- Node0&#45;&gt;Node15 -->
<g id="edge15" class="edge">
<title>Node0&#45;&gt;Node15</title>
<path fill="none" stroke="#191970" d="M51.5939,-936.5098C58.5109,-981.7978 91.5859,-1184.0383 136.5068,-1225.5 141.3213,-1229.9437 146.9256,-1233.4139 152.9308,-1236.1102"/>
<polygon fill="#191970" stroke="#191970" points="152.0494,-1239.5172 162.6419,-1239.7392 154.4998,-1232.9601 152.0494,-1239.5172"/>
</g>
<!-- Node16 -->
<g id="node17" class="node">
<title>Node16</title>
<g id="a_node17"><a xlink:href="class_parameters.html#a5afe30ba482014c176433bb183a68976" target="_top" xlink:title=" ">
<polygon fill="#ffffff" stroke="#000000" points="162.9058,-1197.5 162.9058,-1215.5 286.1714,-1215.5 286.1714,-1197.5 162.9058,-1197.5"/>
<text text-anchor="middle" x="224.5386" y="-1203.5" font-family="Helvetica,sans-Serif" font-size="10.00" fill="#000000">Parameters::setFilePath</text>
</a>
</g>
</g>
<!-- Node0&#45;&gt;Node16 -->
<g id="edge16" class="edge">
<title>Node0&#45;&gt;Node16</title>
<path fill="none" stroke="#191970" d="M52.0312,-936.766C60.321,-979.0204 96.4696,-1152.9103 136.5068,-1188.5 141.4036,-1192.8528 147.0632,-1196.2619 153.1034,-1198.9197"/>
<polygon fill="#191970" stroke="#191970" points="152.2601,-1202.3387 162.8536,-1202.5055 154.6763,-1195.7689 152.2601,-1202.3387"/>
</g>
<!-- Node17 -->
<g id="node18" class="node">
<title>Node17</title>
<g id="a_node18"><a xlink:href="class_parameters.html#a8e349761195db7184f309e0f074da84d" target="_top" xlink:title=" ">
<polygon fill="#ffffff" stroke="#000000" points="155.125,-1160.5 155.125,-1178.5 293.9521,-1178.5 293.9521,-1160.5 155.125,-1160.5"/>
<text text-anchor="middle" x="224.5386" y="-1166.5" font-family="Helvetica,sans-Serif" font-size="10.00" fill="#000000">Parameters::setBatchName</text>
</a>
</g>
</g>
<!-- Node0&#45;&gt;Node17 -->
<g id="edge17" class="edge">
<title>Node0&#45;&gt;Node17</title>
<path fill="none" stroke="#191970" d="M50.8073,-936.9616C53.3746,-971.6393 67.1686,-1092.8046 136.5068,-1151.5 139.4165,-1153.963 142.5728,-1156.1198 145.9021,-1158.0064"/>
<polygon fill="#191970" stroke="#191970" points="144.5378,-1161.2336 155.0689,-1162.3941 147.56,-1154.9196 144.5378,-1161.2336"/>
</g>
<!-- Node18 -->
<g id="node19" class="node">
<title>Node18</title>
<g id="a_node19"><a xlink:href="class_parameters.html#af4a107cdc7b6400685fdcbd33983a16f" target="_top" xlink:title=" ">
<polygon fill="#ffffff" stroke="#000000" points="162.9082,-1123.5 162.9082,-1141.5 286.1689,-1141.5 286.1689,-1123.5 162.9082,-1123.5"/>
<text text-anchor="middle" x="224.5386" y="-1129.5" font-family="Helvetica,sans-Serif" font-size="10.00" fill="#000000">Parameters::setHotStart</text>
</a>
</g>
</g>
<!-- Node0&#45;&gt;Node18 -->
<g id="edge18" class="edge">
<title>Node0&#45;&gt;Node18</title>
<path fill="none" stroke="#191970" d="M51.5463,-936.6794C56.3725,-967.3091 76.264,-1066.7567 136.5068,-1114.5 141.4812,-1118.4422 147.098,-1121.586 153.0275,-1124.0856"/>
<polygon fill="#191970" stroke="#191970" points="151.9607,-1127.4213 162.5552,-1127.5054 154.3256,-1120.8328 151.9607,-1127.4213"/>
</g>
<!-- Node19 -->
<g id="node20" class="node">
<title>Node19</title>
<g id="a_node20"><a xlink:href="class_parameters.html#a84d9a6f8a32bbe13f7abe045453700a0" target="_top" xlink:title=" ">
<polygon fill="#ffffff" stroke="#000000" points="152.9082,-1086.5 152.9082,-1104.5 296.1689,-1104.5 296.1689,-1086.5 152.9082,-1086.5"/>
<text text-anchor="middle" x="224.5386" y="-1092.5" font-family="Helvetica,sans-Serif" font-size="10.00" fill="#000000">Parameters::setRSTHotStart</text>
</a>
</g>
</g>
<!-- Node0&#45;&gt;Node19 -->
<g id="edge19" class="edge">
<title>Node0&#45;&gt;Node19</title>
<path fill="none" stroke="#191970" d="M52.6531,-936.7121C60.0848,-963.2926 85.3597,-1040.5734 136.5068,-1077.5 138.8783,-1079.2121 141.3746,-1080.77 143.9647,-1082.187"/>
<polygon fill="#191970" stroke="#191970" points="142.5494,-1085.3891 153.0877,-1086.4818 145.5309,-1079.0558 142.5494,-1085.3891"/>
</g>
<!-- Node20 -->
<g id="node21" class="node">
<title>Node20</title>
<g id="a_node21"><a xlink:href="class_parameters.html#a0e0118ebbe8f19148a5c6d737c7a2c85" target="_top" xlink:title=" ">
<polygon fill="#ffffff" stroke="#000000" points="177.6372,-1049.5 177.6372,-1067.5 271.4399,-1067.5 271.4399,-1049.5 177.6372,-1049.5"/>
<text text-anchor="middle" x="224.5386" y="-1055.5" font-family="Helvetica,sans-Serif" font-size="10.00" fill="#000000">Parameters::setN</text>
</a>
</g>
</g>
<!-- Node0&#45;&gt;Node20 -->
<g id="edge20" class="edge">
<title>Node0&#45;&gt;Node20</title>
<path fill="none" stroke="#191970" d="M54.3563,-936.6013C64.6975,-958.4217 94.0659,-1013.8761 136.5068,-1040.5 145.8149,-1046.3391 156.6652,-1050.3276 167.5045,-1053.042"/>
<polygon fill="#191970" stroke="#191970" points="166.8964,-1056.4914 177.4113,-1055.193 168.3817,-1049.6508 166.8964,-1056.4914"/>
</g>
<!-- Node21 -->
<g id="node22" class="node">
<title>Node21</title>
<g id="a_node22"><a xlink:href="class_parameters.html#a95d3c7f35ed0421419d98faecb2c23e8" target="_top" xlink:title=" ">
<polygon fill="#ffffff" stroke="#000000" points="157.6201,-1002.5 157.6201,-1030.5 291.457,-1030.5 291.457,-1002.5 157.6201,-1002.5"/>
<text text-anchor="start" x="165.6201" y="-1018.5" font-family="Helvetica,sans-Serif" font-size="10.00" fill="#000000">Parameters::setSubLattice</text>
<text text-anchor="middle" x="224.5386" y="-1008.5" font-family="Helvetica,sans-Serif" font-size="10.00" fill="#000000">Preset</text>
</a>
</g>
</g>
<!-- Node0&#45;&gt;Node21 -->
<g id="edge21" class="edge">
<title>Node0&#45;&gt;Node21</title>
<path fill="none" stroke="#191970" d="M59.4861,-936.6121C74.4127,-950.8393 105.3326,-978.2734 136.5068,-993.5 140.5276,-995.4639 144.7365,-997.2748 149.0426,-998.9425"/>
<polygon fill="#191970" stroke="#191970" points="147.995,-1002.2851 158.5895,-1002.3685 150.3595,-995.6965 147.995,-1002.2851"/>
</g>
<!-- Node22 -->
<g id="node23" class="node">
<title>Node22</title>
<g id="a_node23"><a xlink:href="class_parallel_1_1_communicator.html#a1db417babab93c8d8bf6339ff2bab540" target="_top" xlink:title="Parallel::Communicator::setN sets the lattice dimensions in the Parallel::Communicator class.">
<polygon fill="#ffffff" stroke="#000000" points="164.5757,-955.5 164.5757,-983.5 284.5015,-983.5 284.5015,-955.5 164.5757,-955.5"/>
<text text-anchor="start" x="172.5757" y="-971.5" font-family="Helvetica,sans-Serif" font-size="10.00" fill="#000000">Parallel::Communicator</text>
<text text-anchor="middle" x="224.5386" y="-961.5" font-family="Helvetica,sans-Serif" font-size="10.00" fill="#000000">::setN</text>
</a>
</g>
</g>
<!-- Node0&#45;&gt;Node22 -->
<g id="edge22" class="edge">
<title>Node0&#45;&gt;Node22</title>
<path fill="none" stroke="#191970" d="M87.642,-936.5101C107.6837,-941.3398 133.0056,-947.442 156.4052,-953.0809"/>
<polygon fill="#191970" stroke="#191970" points="155.7533,-956.5239 166.295,-955.4642 157.3933,-949.7188 155.7533,-956.5239"/>
</g>
<!-- Node23 -->
<g id="node24" class="node">
<title>Node23</title>
<g id="a_node24"><a xlink:href="class_parallel_1_1_index.html#acbf43868aa2efc7ecf63b5b490fc00a0" target="_top" xlink:title="Parallel::Index::setN sets the sub lattice dimensionality.">
<polygon fill="#ffffff" stroke="#000000" points="171.7949,-918.5 171.7949,-936.5 277.2822,-936.5 277.2822,-918.5 171.7949,-918.5"/>
<text text-anchor="middle" x="224.5386" y="-924.5" font-family="Helvetica,sans-Serif" font-size="10.00" fill="#000000">Parallel::Index::setN</text>
</a>
</g>
</g>
<!-- Node0&#45;&gt;Node23 -->
<g id="edge23" class="edge">
<title>Node0&#45;&gt;Node23</title>
<path fill="none" stroke="#191970" d="M100.6639,-927.5C119.5838,-927.5 141.3313,-927.5 161.2715,-927.5"/>
<polygon fill="#191970" stroke="#191970" points="161.5097,-931.0001 171.5096,-927.5 161.5096,-924.0001 161.5097,-931.0001"/>
</g>
<!-- Node24 -->
<g id="node25" class="node">
<title>Node24</title>
<g id="a_node25"><a xlink:href="class_parameters.html#abbcb8f09dfec507ec29caa248819522b" target="_top" xlink:title=" ">
<polygon fill="#ffffff" stroke="#000000" points="148.1792,-881.5 148.1792,-899.5 300.8979,-899.5 300.8979,-881.5 148.1792,-881.5"/>
<text text-anchor="middle" x="224.5386" y="-887.5" font-family="Helvetica,sans-Serif" font-size="10.00" fill="#000000">Parameters::setExpFuncName</text>
</a>
</g>
</g>
<!-- Node0&#45;&gt;Node24 -->
<g id="edge24" class="edge">
<title>Node0&#45;&gt;Node24</title>
<path fill="none" stroke="#191970" d="M92.8884,-918.4488C116.8201,-913.3682 146.8737,-906.9879 172.2218,-901.6066"/>
<polygon fill="#191970" stroke="#191970" points="172.987,-905.0223 182.0421,-899.5218 171.5332,-898.1749 172.987,-905.0223"/>
</g>
<!-- Node25 -->
<g id="node26" class="node">
<title>Node25</title>
<g id="a_node26"><a xlink:href="class_parameters.html#a4f96947340b496b847a808b8be6fc5f9" target="_top" xlink:title=" ">
<polygon fill="#ffffff" stroke="#000000" points="159.2876,-834.5 159.2876,-862.5 289.7896,-862.5 289.7896,-834.5 159.2876,-834.5"/>
<text text-anchor="start" x="167.2876" y="-850.5" font-family="Helvetica,sans-Serif" font-size="10.00" fill="#000000">Parameters::setLoadField</text>
<text text-anchor="middle" x="224.5386" y="-840.5" font-family="Helvetica,sans-Serif" font-size="10.00" fill="#000000">Configurations</text>
</a>
</g>
</g>
<!-- Node0&#45;&gt;Node25 -->
<g id="edge25" class="edge">
<title>Node0&#45;&gt;Node25</title>
<path fill="none" stroke="#191970" d="M61.8854,-918.4518C77.8761,-906.4068 107.9268,-885.1571 136.5068,-872.5 141.9814,-870.0755 147.7584,-867.8437 153.6292,-865.8007"/>
<polygon fill="#191970" stroke="#191970" points="155.1518,-868.9847 163.5609,-862.5398 152.9681,-862.334 155.1518,-868.9847"/>
</g>
<!-- Node26 -->
<g id="node27" class="node">
<title>Node26</title>
<g id="a_node27"><a xlink:href="class_parameters.html#a632a2371d7b5d157df2dd42e7b6ab843" target="_top" xlink:title=" ">
<polygon fill="#ffffff" stroke="#000000" points="152.3418,-787.5 152.3418,-815.5 296.7354,-815.5 296.7354,-787.5 152.3418,-787.5"/>
<text text-anchor="start" x="160.3418" y="-803.5" font-family="Helvetica,sans-Serif" font-size="10.00" fill="#000000">Parameters::setLoadChroma</text>
<text text-anchor="middle" x="224.5386" y="-793.5" font-family="Helvetica,sans-Serif" font-size="10.00" fill="#000000">Configurations</text>
</a>
</g>
</g>
<!-- Node0&#45;&gt;Node26 -->
<g id="edge26" class="edge">
<title>Node0&#45;&gt;Node26</title>
<path fill="none" stroke="#191970" d="M55.3896,-918.2711C67.0574,-898.1817 97.591,-850.307 136.5068,-825.5 139.8672,-823.3579 143.4172,-821.4051 147.0871,-819.625"/>
<polygon fill="#191970" stroke="#191970" points="148.656,-822.759 156.4168,-815.5465 145.8521,-816.3451 148.656,-822.759"/>
</g>
<!-- Node27 -->
<g id="node28" class="node">
<title>Node27</title>
<g id="a_node28"><a xlink:href="class_parameters.html#aa7e911174ec1991f6750b9774b184fd3" target="_top" xlink:title=" ">
<polygon fill="#ffffff" stroke="#000000" points="155.6719,-740.5 155.6719,-768.5 293.4053,-768.5 293.4053,-740.5 155.6719,-740.5"/>
<text text-anchor="start" x="163.6719" y="-756.5" font-family="Helvetica,sans-Serif" font-size="10.00" fill="#000000">Parameters::setLoadConfig</text>
<text text-anchor="middle" x="224.5386" y="-746.5" font-family="Helvetica,sans-Serif" font-size="10.00" fill="#000000">AndRun</text>
</a>
</g>
</g>
<!-- Node0&#45;&gt;Node27 -->
<g id="edge27" class="edge">
<title>Node0&#45;&gt;Node27</title>
<path fill="none" stroke="#191970" d="M52.9025,-918.1308C60.8418,-891.8043 87.0076,-816.6086 136.5068,-778.5 139.6645,-776.069 143.0516,-773.884 146.5926,-771.9202"/>
<polygon fill="#191970" stroke="#191970" points="148.224,-775.0185 155.6685,-767.4799 145.1477,-768.7307 148.224,-775.0185"/>
</g>
<!-- Node28 -->
<g id="node29" class="node">
<title>Node28</title>
<g id="a_node29"><a xlink:href="class_parameters.html#a4863c437df48cd3242fdb67221a3d6ed" target="_top" xlink:title=" ">
<polygon fill="#ffffff" stroke="#000000" points="156.2358,-693.5 156.2358,-721.5 292.8413,-721.5 292.8413,-693.5 156.2358,-693.5"/>
<text text-anchor="start" x="164.2358" y="-709.5" font-family="Helvetica,sans-Serif" font-size="10.00" fill="#000000">Parameters::setConfigStart</text>
<text text-anchor="middle" x="224.5386" y="-699.5" font-family="Helvetica,sans-Serif" font-size="10.00" fill="#000000">Number</text>
</a>
</g>
</g>
<!-- Node0&#45;&gt;Node28 -->
<g id="edge28" class="edge">
<title>Node0&#45;&gt;Node28</title>
<path fill="none" stroke="#191970" d="M51.457,-918.479C56.0907,-887.4153 75.6713,-783.9165 136.5068,-731.5 139.7471,-728.7082 143.2831,-726.2383 147.0164,-724.0535"/>
<polygon fill="#191970" stroke="#191970" points="148.7185,-727.1144 156.0392,-719.4556 145.5402,-720.8775 148.7185,-727.1144"/>
</g>
<!-- Node29 -->
<g id="node30" class="node">
<title>Node29</title>
<g id="a_node30"><a xlink:href="class_parameters.html#a2d7077c967fffbdc6652559ec261b67c" target="_top" xlink:title=" ">
<polygon fill="#ffffff" stroke="#000000" points="156.5142,-656.5 156.5142,-674.5 292.563,-674.5 292.563,-656.5 156.5142,-656.5"/>
<text text-anchor="middle" x="224.5386" y="-662.5" font-family="Helvetica,sans-Serif" font-size="10.00" fill="#000000">Parameters::setUnitTesting</text>
</a>
</g>
</g>
<!-- Node0&#45;&gt;Node29 -->
<g id="edge29" class="edge">
<title>Node0&#45;&gt;Node29</title>
<path fill="none" stroke="#191970" d="M50.5025,-918.2929C52.003,-882.2499 62.5389,-749.5247 136.5068,-684.5 139.7435,-681.6547 143.3036,-679.2019 147.0801,-677.0899"/>
<polygon fill="#191970" stroke="#191970" points="148.6932,-680.1987 156.234,-672.7565 145.698,-673.8718 148.6932,-680.1987"/>
</g>
<!-- Node30 -->
<g id="node31" class="node">
<title>Node30</title>
<g id="a_node31"><a xlink:href="class_parameters.html#a2cf1ae12581e8f80dd88ce6c60f37c5f" target="_top" xlink:title=" ">
<polygon fill="#ffffff" stroke="#000000" points="156.5142,-609.5 156.5142,-637.5 292.563,-637.5 292.563,-609.5 156.5142,-609.5"/>
<text text-anchor="start" x="164.5142" y="-625.5" font-family="Helvetica,sans-Serif" font-size="10.00" fill="#000000">Parameters::setUnitTesting</text>
<text text-anchor="middle" x="224.5386" y="-615.5" font-family="Helvetica,sans-Serif" font-size="10.00" fill="#000000">Verbose</text>
</a>
</g>
</g>
<!-- Node0&#45;&gt;Node30 -->
<g id="edge30" class="edge">
<title>Node0&#45;&gt;Node30</title>
<path fill="none" stroke="#191970" d="M51.8798,-918.2221C59.7621,-874.2596 95.297,-687.3853 136.5068,-647.5 139.7972,-644.3154 143.4668,-641.544 147.3882,-639.1331"/>
<polygon fill="#191970" stroke="#191970" points="149.1191,-642.1771 156.3254,-634.4105 145.8486,-635.9881 149.1191,-642.1771"/>
</g>
<!-- Node31 -->
<g id="node32" class="node">
<title>Node31</title>
<g id="a_node32"><a xlink:href="class_parameters.html#a0b9d1947d6a3a016ed196d97b548730d" target="_top" xlink:title=" ">
<polygon fill="#ffffff" stroke="#000000" points="152.625,-562.5 152.625,-590.5 296.4521,-590.5 296.4521,-562.5 152.625,-562.5"/>
<text text-anchor="start" x="160.625" y="-578.5" font-family="Helvetica,sans-Serif" font-size="10.00" fill="#000000">Parameters::setPerformance</text>
<text text-anchor="middle" x="224.5386" y="-568.5" font-family="Helvetica,sans-Serif" font-size="10.00" fill="#000000">Testing</text>
</a>
</g>
</g>
<!-- Node0&#45;&gt;Node31 -->
<g id="edge31" class="edge">
<title>Node0&#45;&gt;Node31</title>
<path fill="none" stroke="#191970" d="M51.4317,-918.3257C57.7793,-870.2764 89.3745,-648.0234 136.5068,-600.5 138.6507,-598.3384 140.9688,-596.366 143.4229,-594.5668"/>
<polygon fill="#191970" stroke="#191970" points="145.5877,-597.3423 152.2353,-589.0924 141.8939,-591.3962 145.5877,-597.3423"/>
</g>
<!-- Node32 -->
<g id="node33" class="node">
<title>Node32</title>
<g id="a_node33"><a xlink:href="class_parameters.html#a5cbf802e3e5db24cf0b8afc3f39f0830" target="_top" xlink:title=" ">
<polygon fill="#ffffff" stroke="#000000" points="157.3516,-525.5 157.3516,-543.5 291.7256,-543.5 291.7256,-525.5 157.3516,-525.5"/>
<text text-anchor="middle" x="224.5386" y="-531.5" font-family="Helvetica,sans-Serif" font-size="10.00" fill="#000000">Parameters::setNExpTests</text>
</a>
</g>
</g>
<!-- Node0&#45;&gt;Node32 -->
<g id="edge32" class="edge">
<title>Node0&#45;&gt;Node32</title>
<path fill="none" stroke="#191970" d="M51.0533,-918.3752C55.8002,-866.3177 81.9407,-607.3026 136.5068,-553.5 139.8538,-550.1999 143.6287,-547.4128 147.6848,-545.0638"/>
<polygon fill="#191970" stroke="#191970" points="149.4699,-548.0887 156.9567,-540.5921 146.429,-541.7837 149.4699,-548.0887"/>
</g>
<!-- Node33 -->
<g id="node34" class="node">
<title>Node33</title>
<g id="a_node34"><a xlink:href="class_parameters.html#a24bd9c86cda80898bc65b950983b6a17" target="_top" xlink:title=" ">
<polygon fill="#ffffff" stroke="#000000" points="154.0142,-488.5 154.0142,-506.5 295.063,-506.5 295.063,-488.5 154.0142,-488.5"/>
<text text-anchor="middle" x="224.5386" y="-494.5" font-family="Helvetica,sans-Serif" font-size="10.00" fill="#000000">Parameters::setNRandTests</text>
</a>
</g>
</g>
<!-- Node0&#45;&gt;Node33 -->
<g id="edge33" class="edge">
<title>Node0&#45;&gt;Node33</title>
<path fill="none" stroke="#191970" d="M50.8618,-918.2152C54.6806,-862.8092 77.1321,-576.2148 136.5068,-516.5 139.0648,-513.9274 141.8822,-511.6651 144.8911,-509.6779"/>
<polygon fill="#191970" stroke="#191970" points="146.7385,-512.6565 153.8211,-504.777 143.3706,-506.5199 146.7385,-512.6565"/>
</g>
<!-- Node34 -->
<g id="node35" class="node">
<title>Node34</title>
<g id="a_node35"><a xlink:href="class_parameters.html#ae924eabec82bfe600eda893c6f71b00e" target="_top" xlink:title=" ">
<polygon fill="#ffffff" stroke="#000000" points="155.4082,-441.5 155.4082,-469.5 293.6689,-469.5 293.6689,-441.5 155.4082,-441.5"/>
<text text-anchor="start" x="163.4082" y="-457.5" font-family="Helvetica,sans-Serif" font-size="10.00" fill="#000000">Parameters::setNDerivaitve</text>
<text text-anchor="middle" x="224.5386" y="-447.5" font-family="Helvetica,sans-Serif" font-size="10.00" fill="#000000">Tests</text>
</a>
</g>
</g>
<!-- Node0&#45;&gt;Node34 -->
<g id="edge34" class="edge">
<title>Node0&#45;&gt;Node34</title>
<path fill="none" stroke="#191970" d="M50.7388,-918.2026C53.9576,-860.0728 74.0521,-546.8884 136.5068,-479.5 139.4748,-476.2976 142.824,-473.5066 146.4382,-471.0755"/>
<polygon fill="#191970" stroke="#191970" points="148.3384,-474.0212 155.297,-466.0319 144.875,-467.938 148.3384,-474.0212"/>
</g>
<!-- Node35 -->
<g id="node36" class="node">
<title>Node35</title>
<g id="a_node36"><a xlink:href="class_parameters.html#a68fb3eccef5dae481915be728ef61fb6" target="_top" xlink:title=" ">
<polygon fill="#ffffff" stroke="#000000" points="160.6841,-394.5 160.6841,-422.5 288.3931,-422.5 288.3931,-394.5 160.6841,-394.5"/>
<text text-anchor="start" x="168.6841" y="-410.5" font-family="Helvetica,sans-Serif" font-size="10.00" fill="#000000">Parameters::setTaylorPol</text>
<text text-anchor="middle" x="224.5386" y="-400.5" font-family="Helvetica,sans-Serif" font-size="10.00" fill="#000000">Degree</text>
</a>
</g>
</g>
<!-- Node0&#45;&gt;Node35 -->
<g id="edge35" class="edge">
<title>Node0&#45;&gt;Node35</title>
<path fill="none" stroke="#191970" d="M50.5462,-918.446C52.6964,-857.5494 67.9419,-507.8061 136.5068,-432.5 140.7761,-427.811 145.8627,-424.0016 151.4067,-420.9114"/>
<polygon fill="#191970" stroke="#191970" points="152.9088,-424.0727 160.4435,-416.6242 149.9084,-417.7483 152.9088,-424.0727"/>
</g>
<!-- Node36 -->
<g id="node37" class="node">
<title>Node36</title>
<g id="a_node37"><a xlink:href="class_parameters.html#a6b0d9bf17b3c8096c3454d291e086ac2" target="_top" xlink:title=" ">
<polygon fill="#ffffff" stroke="#000000" points="166.5142,-357.5 166.5142,-375.5 282.563,-375.5 282.563,-357.5 166.5142,-357.5"/>
<text text-anchor="middle" x="224.5386" y="-363.5" font-family="Helvetica,sans-Serif" font-size="10.00" fill="#000000">Parameters::setDebug</text>
</a>
</g>
</g>
<!-- Node0&#45;&gt;Node36 -->
<g id="edge36" class="edge">
<title>Node0&#45;&gt;Node36</title>
<path fill="none" stroke="#191970" d="M50.3512,-918.39C51.2322,-853.911 59.7028,-466.6289 136.5068,-385.5 142.1618,-379.5266 149.2103,-375.2059 156.8408,-372.1109"/>
<polygon fill="#191970" stroke="#191970" points="158.0118,-375.4099 166.3824,-368.9149 155.7885,-368.7723 158.0118,-375.4099"/>
</g>
<!-- Node37 -->
<g id="node38" class="node">
<title>Node37</title>
<g id="a_node38"><a xlink:href="class_parameters.html#ad6a40d1cf972c0f1379cf011bb7da2b1" target="_top" xlink:title=" ">
<polygon fill="#ffffff" stroke="#000000" points="156.2383,-310.5 156.2383,-338.5 292.8389,-338.5 292.8389,-310.5 156.2383,-310.5"/>
<text text-anchor="start" x="164.2383" y="-326.5" font-family="Helvetica,sans-Serif" font-size="10.00" fill="#000000">Parameters::setCheckField</text>
<text text-anchor="middle" x="224.5386" y="-316.5" font-family="Helvetica,sans-Serif" font-size="10.00" fill="#000000">GaugeInvariance</text>
</a>
</g>
</g>
<!-- Node0&#45;&gt;Node37 -->
<g id="edge37" class="edge">
<title>Node0&#45;&gt;Node37</title>
<path fill="none" stroke="#191970" d="M51.0214,-918.2713C56.9823,-847.5701 96.6876,-393.3312 136.5068,-348.5 139.6085,-345.0079 143.1634,-342.0019 147.0261,-339.4162"/>
<polygon fill="#191970" stroke="#191970" points="148.9263,-342.3629 155.9172,-334.4019 145.4876,-336.2657 148.9263,-342.3629"/>
</g>
<!-- Node38 -->
<g id="node39" class="node">
<title>Node38</title>
<g id="a_node39"><a xlink:href="class_parameters.html#afba800600f057fa6ed8fb317add0af30" target="_top" xlink:title=" ">
<polygon fill="#ffffff" stroke="#000000" points="155.3984,-263.5 155.3984,-291.5 293.6787,-291.5 293.6787,-263.5 155.3984,-263.5"/>
<text text-anchor="start" x="163.3984" y="-279.5" font-family="Helvetica,sans-Serif" font-size="10.00" fill="#000000">Parameters::setGaugeField</text>
<text text-anchor="middle" x="224.5386" y="-269.5" font-family="Helvetica,sans-Serif" font-size="10.00" fill="#000000">ToCheck</text>
</a>
</g>
</g>
<!-- Node0&#45;&gt;Node38 -->
<g id="edge38" class="edge">
<title>Node0&#45;&gt;Node38</title>
<path fill="none" stroke="#191970" d="M50.8993,-918.474C56.2137,-845.2754 93.6077,-350.3352 136.5068,-301.5 139.3884,-298.2197 142.6699,-295.3676 146.2319,-292.8894"/>
<polygon fill="#191970" stroke="#191970" points="148.1332,-295.8321 154.9959,-287.7602 144.5974,-289.7907 148.1332,-295.8321"/>
</g>
<!-- Node39 -->
<g id="node40" class="node">
<title>Node39</title>
<g id="a_node40"><a xlink:href="class_parameters.html#af882fdb68c96c27f1bb99cebe3aecd21" target="_top" xlink:title=" ">
<polygon fill="#ffffff" stroke="#000000" points="162.9058,-226.5 162.9058,-244.5 286.1714,-244.5 286.1714,-226.5 162.9058,-226.5"/>
<text text-anchor="middle" x="224.5386" y="-232.5" font-family="Helvetica,sans-Serif" font-size="10.00" fill="#000000">Parameters::setSU3Eps</text>
</a>
</g>
</g>
<!-- Node0&#45;&gt;Node39 -->
<g id="edge39" class="edge">
<title>Node0&#45;&gt;Node39</title>
<path fill="none" stroke="#191970" d="M50.7985,-918.2712C55.4319,-841.1906 89.1994,-306.015 136.5068,-254.5 141.1964,-249.3934 146.9027,-245.4857 153.1327,-242.515"/>
<polygon fill="#191970" stroke="#191970" points="154.5514,-245.7181 162.5778,-238.8024 151.9905,-239.2033 154.5514,-245.7181"/>
</g>
<!-- Node40 -->
<g id="node41" class="node">
<title>Node40</title>
<g id="a_node41"><a xlink:href="class_parameters.html#a9114804031d3c9342f590ce223a8b5a7" target="_top" xlink:title=" ">
<polygon fill="#ffffff" stroke="#000000" points="154.2925,-189.5 154.2925,-207.5 294.7847,-207.5 294.7847,-189.5 154.2925,-189.5"/>
<text text-anchor="middle" x="224.5386" y="-195.5" font-family="Helvetica,sans-Serif" font-size="10.00" fill="#000000">Parameters::setFlowEpsilon</text>
</a>
</g>
</g>
<!-- Node0&#45;&gt;Node40 -->
<g id="edge40" class="edge">
<title>Node0&#45;&gt;Node40</title>
<path fill="none" stroke="#191970" d="M50.7342,-918.2727C54.9542,-838.8418 86.7137,-272.081 136.5068,-217.5 139.1379,-214.6159 142.0932,-212.1137 145.2844,-209.9462"/>
<polygon fill="#191970" stroke="#191970" points="147.1954,-212.888 154.2222,-204.9586 143.7842,-206.7754 147.1954,-212.888"/>
</g>
<!-- Node41 -->
<g id="node42" class="node">
<title>Node41</title>
<g id="a_node42"><a xlink:href="class_parameters.html#ace3967a0ee49901f55e9de69e0a96117" target="_top" xlink:title="Parameters::setMetropolisSeed set a seed for the Metropolis algorithm.">
<polygon fill="#ffffff" stroke="#000000" points="146.5068,-113.5 146.5068,-131.5 302.5703,-131.5 302.5703,-113.5 146.5068,-113.5"/>
<text text-anchor="middle" x="224.5386" y="-119.5" font-family="Helvetica,sans-Serif" font-size="10.00" fill="#000000">Parameters::setMetropolisSeed</text>
</a>
</g>
</g>
<!-- Node0&#45;&gt;Node41 -->
<g id="edge41" class="edge">
<title>Node0&#45;&gt;Node41</title>
<path fill="none" stroke="#191970" d="M50.6433,-918.4449C54.2944,-835.4459 83.5435,-208.4548 136.5068,-146.5 139.8072,-142.6394 143.6617,-139.3693 147.8798,-136.6025"/>
<polygon fill="#191970" stroke="#191970" points="149.9064,-139.4827 156.9876,-131.6019 146.5374,-133.3467 149.9064,-139.4827"/>
</g>
<!-- Node42 -->
<g id="node43" class="node">
<title>Node42</title>
<g id="a_node43"><a xlink:href="class_parallel_1_1_communicator.html#a7b1f80fb49a0cc83f2031c3415174150" target="_top" xlink:title=" ">
<polygon fill="#ffffff" stroke="#000000" points="348.5703,-131.5 348.5703,-159.5 468.4961,-159.5 468.4961,-131.5 348.5703,-131.5"/>
<text text-anchor="start" x="356.5703" y="-147.5" font-family="Helvetica,sans-Serif" font-size="10.00" fill="#000000">Parallel::Communicator</text>
<text text-anchor="middle" x="408.5332" y="-137.5" font-family="Helvetica,sans-Serif" font-size="10.00" fill="#000000">::getNumProc</text>
</a>
</g>
</g>
<!-- Node0&#45;&gt;Node42 -->
<g id="edge44" class="edge">
<title>Node0&#45;&gt;Node42</title>
<path fill="none" stroke="#191970" d="M50.6409,-918.2817C54.1667,-836.4358 81.8247,-235.8979 136.5068,-180.5 163.8457,-152.8033 267.1788,-146.2066 338.3123,-145.0565"/>
<polygon fill="#191970" stroke="#191970" points="338.6069,-148.5531 348.5609,-144.9245 338.5166,-141.5537 338.6069,-148.5531"/>
</g>
<!-- Node43 -->
<g id="node44" class="node">
<title>Node43</title>
<g id="a_node44"><a xlink:href="class_parallel_1_1_communicator.html#a474ab433da0e83ef372d74e26a7e5cb0" target="_top" xlink:title=" ">
<polygon fill="#ffffff" stroke="#000000" points="348.5703,-70.5 348.5703,-98.5 468.4961,-98.5 468.4961,-70.5 348.5703,-70.5"/>
<text text-anchor="start" x="356.5703" y="-86.5" font-family="Helvetica,sans-Serif" font-size="10.00" fill="#000000">Parallel::Communicator</text>
<text text-anchor="middle" x="408.5332" y="-76.5" font-family="Helvetica,sans-Serif" font-size="10.00" fill="#000000">::getProcessRank</text>
</a>
</g>
</g>
<!-- Node0&#45;&gt;Node43 -->
<g id="edge45" class="edge">
<title>Node0&#45;&gt;Node43</title>
<path fill="none" stroke="#191970" d="M50.5125,-918.4302C53.0523,-832.5472 74.7457,-164.3737 136.5068,-104.5 164.2547,-77.6001 267.203,-76.872 338.1779,-79.8773"/>
<polygon fill="#191970" stroke="#191970" points="338.2553,-83.3844 348.4049,-80.3451 338.5753,-76.3917 338.2553,-83.3844"/>
</g>
<!-- Node44 -->
<g id="node45" class="node">
<title>Node44</title>
<g id="a_node45"><a xlink:href="class_parameters.html#a46615f8286bd7363ab1f09074fdc6940" target="_top" xlink:title="Parameters::setRandomMatrixSeed set a seed for the random matrix generation(both RST and random metho...">
<polygon fill="#ffffff" stroke="#000000" points="137.061,-37.5 137.061,-55.5 312.0161,-55.5 312.0161,-37.5 137.061,-37.5"/>
<text text-anchor="middle" x="224.5386" y="-43.5" font-family="Helvetica,sans-Serif" font-size="10.00" fill="#000000">Parameters::setRandomMatrixSeed</text>
</a>
</g>
</g>
<!-- Node0&#45;&gt;Node44 -->
<g id="edge46" class="edge">
<title>Node0&#45;&gt;Node44</title>
<path fill="none" stroke="#191970" d="M50.5519,-918.406C53.5042,-830.8389 78.5974,-138.9086 136.5068,-70.5 139.7884,-66.6234 143.6289,-63.3414 147.8368,-60.5659"/>
<polygon fill="#191970" stroke="#191970" points="149.8623,-63.4458 156.9287,-55.5517 146.4818,-57.3162 149.8623,-63.4458"/>
</g>
<!-- Node45 -->
<g id="node46" class="node">
<title>Node45</title>
<g id="a_node46"><a xlink:href="class_parameters.html#ae9fa4bf77247404758c43179849ae3bf" target="_top" xlink:title=" ">
<polygon fill="#ffffff" stroke="#000000" points="136.7803,-.5 136.7803,-18.5 312.2969,-18.5 312.2969,-.5 136.7803,-.5"/>
<text text-anchor="middle" x="224.5386" y="-6.5" font-family="Helvetica,sans-Serif" font-size="10.00" fill="#000000">Parameters::setSamplingFrequency</text>
</a>
</g>
</g>
<!-- Node0&#45;&gt;Node45 -->
<g id="edge48" class="edge">
<title>Node0&#45;&gt;Node45</title>
<path fill="none" stroke="#191970" d="M50.4769,-918.4954C52.784,-828.7909 73.4728,-97.6069 136.5068,-27.5 137.2891,-26.63 138.101,-25.7955 138.9403,-24.9952"/>
<polygon fill="#191970" stroke="#191970" points="141.3656,-27.5458 147.166,-18.6798 137.1027,-21.9935 141.3656,-27.5458"/>
</g>
<!-- Node41&#45;&gt;Node42 -->
<g id="edge42" class="edge">
<title>Node41&#45;&gt;Node42</title>
<path fill="none" stroke="#191970" d="M296.73,-131.5242C310.3688,-133.2291 324.6172,-135.0102 338.1978,-136.7078"/>
<polygon fill="#191970" stroke="#191970" points="338.0748,-140.2196 348.4317,-137.9871 338.9431,-133.2737 338.0748,-140.2196"/>
</g>
<!-- Node41&#45;&gt;Node43 -->
<g id="edge43" class="edge">
<title>Node41&#45;&gt;Node43</title>
<path fill="none" stroke="#191970" d="M268.1427,-113.4945C289.1574,-109.1544 314.8817,-103.8416 338.5427,-98.955"/>
<polygon fill="#191970" stroke="#191970" points="339.4517,-102.3412 348.5371,-96.8909 338.0358,-95.4859 339.4517,-102.3412"/>
</g>
<!-- Node44&#45;&gt;Node43 -->
<g id="edge47" class="edge">
<title>Node44&#45;&gt;Node43</title>
<path fill="none" stroke="#191970" d="M268.1427,-55.5055C289.1574,-59.8456 314.8817,-65.1584 338.5427,-70.045"/>
<polygon fill="#191970" stroke="#191970" points="338.0358,-73.5141 348.5371,-72.1091 339.4517,-66.6588 338.0358,-73.5141"/>
</g>
</g>
</svg>
