<?xml version="1.0" encoding="UTF-8" standalone="no"?>
<!DOCTYPE svg PUBLIC "-//W3C//DTD SVG 1.1//EN"
 "http://www.w3.org/Graphics/SVG/1.1/DTD/svg11.dtd">
<!-- Generated by graphviz version 2.40.1 (20161225.0304)
 -->
<!-- Title: GLAC/parallelization/neighbours.cpp Pages: 1 -->
<svg width="150pt" height="147pt"
 viewBox="0.00 0.00 150.14 147.00" xmlns="http://www.w3.org/2000/svg" xmlns:xlink="http://www.w3.org/1999/xlink">
<g id="graph0" class="graph" transform="scale(1 1) rotate(0) translate(4 143)">
<title>GLAC/parallelization/neighbours.cpp</title>
<polygon fill="#ffffff" stroke="transparent" points="-4,4 -4,-143 146.1377,-143 146.1377,4 -4,4"/>
<!-- Node0 -->
<g id="node1" class="node">
<title>Node0</title>
<g id="a_node1"><a xlink:title=" ">
<polygon fill="#bfbfbf" stroke="#000000" points="26.9434,-110.5 26.9434,-138.5 134.1006,-138.5 134.1006,-110.5 26.9434,-110.5"/>
<text text-anchor="start" x="34.9434" y="-126.5" font-family="Helvetica,sans-Serif" font-size="10.00" fill="#000000">GLAC/parallelization</text>
<text text-anchor="middle" x="80.522" y="-116.5" font-family="Helvetica,sans-Serif" font-size="10.00" fill="#000000">/neighbours.cpp</text>
</a>
</g>
</g>
<!-- Node1 -->
<g id="node2" class="node">
<title>Node1</title>
<g id="a_node2"><a xlink:href="neighbours_8h.html" target="_top" xlink:title=" ">
<polygon fill="#ffffff" stroke="#000000" points="43.6108,-55.5 43.6108,-73.5 117.4331,-73.5 117.4331,-55.5 43.6108,-55.5"/>
<text text-anchor="middle" x="80.522" y="-61.5" font-family="Helvetica,sans-Serif" font-size="10.00" fill="#000000">neighbours.h</text>
</a>
</g>
</g>
<!-- Node0&#45;&gt;Node1 -->
<g id="edge1" class="edge">
<title>Node0&#45;&gt;Node1</title>
<path fill="none" stroke="#191970" d="M80.522,-110.2808C80.522,-102.3776 80.522,-92.4316 80.522,-83.8308"/>
<polygon fill="#191970" stroke="#191970" points="84.0221,-83.5842 80.522,-73.5842 77.0221,-83.5842 84.0221,-83.5842"/>
</g>
<!-- Node2 -->
<g id="node3" class="node">
<title>Node2</title>
<g id="a_node3"><a xlink:href="neighbourlist_8h.html" target="_top" xlink:title=" ">
<polygon fill="#ffffff" stroke="#000000" points="0,-.5 0,-18.5 81.0439,-18.5 81.0439,-.5 0,-.5"/>
<text text-anchor="middle" x="40.522" y="-6.5" font-family="Helvetica,sans-Serif" font-size="10.00" fill="#000000">neighbourlist.h</text>
</a>
</g>
</g>
<!-- Node1&#45;&gt;Node2 -->
<g id="edge2" class="edge">
<title>Node1&#45;&gt;Node2</title>
<path fill="none" stroke="#191970" d="M73.9168,-55.4179C68.334,-47.7415 60.1741,-36.5217 53.318,-27.0945"/>
<polygon fill="#191970" stroke="#191970" points="55.983,-24.8082 47.2707,-18.7795 50.3218,-28.9255 55.983,-24.8082"/>
</g>
<!-- Node3 -->
<g id="node4" class="node">
<title>Node3</title>
<g id="a_node4"><a xlink:title=" ">
<polygon fill="#ffffff" stroke="#bfbfbf" points="98.9063,-.5 98.9063,-18.5 142.1377,-18.5 142.1377,-.5 98.9063,-.5"/>
<text text-anchor="middle" x="120.522" y="-6.5" font-family="Helvetica,sans-Serif" font-size="10.00" fill="#000000">vector</text>
</a>
</g>
</g>
<!-- Node1&#45;&gt;Node3 -->
<g id="edge3" class="edge">
<title>Node1&#45;&gt;Node3</title>
<path fill="none" stroke="#191970" d="M87.1272,-55.4179C92.7099,-47.7415 100.8698,-36.5217 107.726,-27.0945"/>
<polygon fill="#191970" stroke="#191970" points="110.7221,-28.9255 113.7733,-18.7795 105.0609,-24.8082 110.7221,-28.9255"/>
</g>
</g>
</svg>
