<?xml version="1.0" encoding="UTF-8" standalone="no"?>
<!DOCTYPE svg PUBLIC "-//W3C//DTD SVG 1.1//EN"
 "http://www.w3.org/Graphics/SVG/1.1/DTD/svg11.dtd">
<!-- Generated by graphviz version 2.40.1 (20161225.0304)
 -->
<!-- Title: GLAC/io/observablesio.h Pages: 1 -->
<svg width="135pt" height="82pt"
 viewBox="0.00 0.00 134.62 82.00" xmlns="http://www.w3.org/2000/svg" xmlns:xlink="http://www.w3.org/1999/xlink">
<g id="graph0" class="graph" transform="scale(1 1) rotate(0) translate(4 78)">
<title>GLAC/io/observablesio.h</title>
<polygon fill="#ffffff" stroke="transparent" points="-4,4 -4,-78 130.6152,-78 130.6152,4 -4,4"/>
<!-- Node0 -->
<g id="node1" class="node">
<title>Node0</title>
<g id="a_node1"><a xlink:title=" ">
<polygon fill="#bfbfbf" stroke="#000000" points="0,-55.5 0,-73.5 126.6152,-73.5 126.6152,-55.5 0,-55.5"/>
<text text-anchor="middle" x="63.3076" y="-61.5" font-family="Helvetica,sans-Serif" font-size="10.00" fill="#000000">GLAC/io/observablesio.h</text>
</a>
</g>
</g>
<!-- Node1 -->
<g id="node2" class="node">
<title>Node1</title>
<g id="a_node2"><a xlink:title=" ">
<polygon fill="#ffffff" stroke="#bfbfbf" points="13.0811,-.5 13.0811,-18.5 53.5342,-18.5 53.5342,-.5 13.0811,-.5"/>
<text text-anchor="middle" x="33.3076" y="-6.5" font-family="Helvetica,sans-Serif" font-size="10.00" fill="#000000">string</text>
</a>
</g>
</g>
<!-- Node0&#45;&gt;Node1 -->
<g id="edge1" class="edge">
<title>Node0&#45;&gt;Node1</title>
<path fill="none" stroke="#191970" d="M58.3537,-55.4179C54.253,-47.8998 48.2983,-36.9829 43.2239,-27.6799"/>
<polygon fill="#191970" stroke="#191970" points="46.2304,-25.8824 38.3691,-18.7795 40.0851,-29.2344 46.2304,-25.8824"/>
</g>
<!-- Node2 -->
<g id="node3" class="node">
<title>Node2</title>
<g id="a_node3"><a xlink:title=" ">
<polygon fill="#ffffff" stroke="#bfbfbf" points="71.6919,-.5 71.6919,-18.5 114.9233,-18.5 114.9233,-.5 71.6919,-.5"/>
<text text-anchor="middle" x="93.3076" y="-6.5" font-family="Helvetica,sans-Serif" font-size="10.00" fill="#000000">vector</text>
</a>
</g>
</g>
<!-- Node0&#45;&gt;Node2 -->
<g id="edge2" class="edge">
<title>Node0&#45;&gt;Node2</title>
<path fill="none" stroke="#191970" d="M68.2615,-55.4179C72.3623,-47.8998 78.317,-36.9829 83.3913,-27.6799"/>
<polygon fill="#191970" stroke="#191970" points="86.5302,-29.2344 88.2461,-18.7795 80.3849,-25.8824 86.5302,-29.2344"/>
</g>
</g>
</svg>
