<?xml version="1.0" encoding="UTF-8" standalone="no"?>
<!DOCTYPE svg PUBLIC "-//W3C//DTD SVG 1.1//EN"
 "http://www.w3.org/Graphics/SVG/1.1/DTD/svg11.dtd">
<!-- Generated by graphviz version 2.40.1 (20161225.0304)
 -->
<!-- Title: GLAC/observables/tools/observablestorer.h Pages: 1 -->
<svg width="1168pt" height="322pt"
 viewBox="0.00 0.00 1168.29 322.00" xmlns="http://www.w3.org/2000/svg" xmlns:xlink="http://www.w3.org/1999/xlink">
<g id="graph0" class="graph" transform="scale(1 1) rotate(0) translate(4 318)">
<title>GLAC/observables/tools/observablestorer.h</title>
<polygon fill="#ffffff" stroke="transparent" points="-4,4 -4,-318 1164.2925,-318 1164.2925,4 -4,4"/>
<!-- Node3 -->
<g id="node1" class="node">
<title>Node3</title>
<g id="a_node1"><a xlink:title=" ">
<polygon fill="#bfbfbf" stroke="#000000" points="685.377,-285.5 685.377,-313.5 809.209,-313.5 809.209,-285.5 685.377,-285.5"/>
<text text-anchor="start" x="693.377" y="-301.5" font-family="Helvetica,sans-Serif" font-size="10.00" fill="#000000">GLAC/observables/tools</text>
<text text-anchor="middle" x="747.293" y="-291.5" font-family="Helvetica,sans-Serif" font-size="10.00" fill="#000000">/observablestorer.h</text>
</a>
</g>
</g>
<!-- Node4 -->
<g id="node2" class="node">
<title>Node4</title>
<g id="a_node2"><a xlink:href="correlator_8h.html" target="_top" xlink:title=" ">
<polygon fill="#ffffff" stroke="#000000" points="592.9238,-225.5 592.9238,-243.5 745.6621,-243.5 745.6621,-225.5 592.9238,-225.5"/>
<text text-anchor="middle" x="669.293" y="-231.5" font-family="Helvetica,sans-Serif" font-size="10.00" fill="#000000">GLAC/observables/correlator.h</text>
</a>
</g>
</g>
<!-- Node3&#45;&gt;Node4 -->
<g id="edge1" class="edge">
<title>Node3&#45;&gt;Node4</title>
<path fill="none" stroke="#191970" d="M722.3981,-278.7543C708.1771,-266.9034 691.0643,-252.6427 680.1821,-243.5743"/>
<polygon fill="#191970" stroke="#191970" points="720.4452,-281.6829 730.3681,-285.396 724.9266,-276.3053 720.4452,-281.6829"/>
</g>
<!-- Node25 -->
<g id="node23" class="node">
<title>Node25</title>
<g id="a_node23"><a xlink:href="observablestorer_8cpp.html" target="_top" xlink:title=" ">
<polygon fill="#ffffff" stroke="#000000" points="763.377,-220.5 763.377,-248.5 887.209,-248.5 887.209,-220.5 763.377,-220.5"/>
<text text-anchor="start" x="771.377" y="-236.5" font-family="Helvetica,sans-Serif" font-size="10.00" fill="#000000">GLAC/observables/tools</text>
<text text-anchor="middle" x="825.293" y="-226.5" font-family="Helvetica,sans-Serif" font-size="10.00" fill="#000000">/observablestorer.cpp</text>
</a>
</g>
</g>
<!-- Node3&#45;&gt;Node25 -->
<g id="edge29" class="edge">
<title>Node3&#45;&gt;Node25</title>
<path fill="none" stroke="#191970" d="M772.0331,-278.8832C783.8865,-269.0054 797.7778,-257.4293 808.4012,-248.5765"/>
<polygon fill="#191970" stroke="#191970" points="769.6594,-276.3053 764.2178,-285.396 774.1407,-281.6829 769.6594,-276.3053"/>
</g>
<!-- Node5 -->
<g id="node3" class="node">
<title>Node5</title>
<g id="a_node3"><a xlink:href="observables_8h.html" target="_top" xlink:title=" ">
<polygon fill="#ffffff" stroke="#000000" points="452.8081,-110.5 452.8081,-128.5 617.7778,-128.5 617.7778,-110.5 452.8081,-110.5"/>
<text text-anchor="middle" x="535.293" y="-116.5" font-family="Helvetica,sans-Serif" font-size="10.00" fill="#000000">GLAC/observables/observables.h</text>
</a>
</g>
</g>
<!-- Node4&#45;&gt;Node5 -->
<g id="edge2" class="edge">
<title>Node4&#45;&gt;Node5</title>
<path fill="none" stroke="#191970" d="M640.1997,-220.8011C622.8615,-211.8017 601.0419,-198.9468 584.293,-184 565.4068,-167.1459 548.8545,-142.1051 540.691,-128.7225"/>
<polygon fill="#191970" stroke="#191970" points="638.8051,-224.0176 649.3103,-225.3929 641.9557,-217.7667 638.8051,-224.0176"/>
</g>
<!-- Node17 -->
<g id="node15" class="node">
<title>Node17</title>
<g id="a_node15"><a xlink:href="energydensity_8h.html" target="_top" xlink:title=" ">
<polygon fill="#ffffff" stroke="#000000" points="365.0068,-165.5 365.0068,-183.5 537.5791,-183.5 537.5791,-165.5 365.0068,-165.5"/>
<text text-anchor="middle" x="451.293" y="-171.5" font-family="Helvetica,sans-Serif" font-size="10.00" fill="#000000">GLAC/observables/energydensity.h</text>
</a>
</g>
</g>
<!-- Node4&#45;&gt;Node17 -->
<g id="edge18" class="edge">
<title>Node4&#45;&gt;Node17</title>
<path fill="none" stroke="#191970" d="M626.2911,-222.6646C584.4829,-211.1578 521.8991,-193.9329 483.9998,-183.5019"/>
<polygon fill="#191970" stroke="#191970" points="625.6132,-226.1081 636.1835,-225.3873 627.4708,-219.3591 625.6132,-226.1081"/>
</g>
<!-- Node19 -->
<g id="node17" class="node">
<title>Node19</title>
<g id="a_node17"><a xlink:href="plaquette_8h.html" target="_top" xlink:title=" ">
<polygon fill="#ffffff" stroke="#000000" points="593.1948,-165.5 593.1948,-183.5 745.3911,-183.5 745.3911,-165.5 593.1948,-165.5"/>
<text text-anchor="middle" x="669.293" y="-171.5" font-family="Helvetica,sans-Serif" font-size="10.00" fill="#000000">GLAC/observables/plaquette.h</text>
</a>
</g>
</g>
<!-- Node4&#45;&gt;Node19 -->
<g id="edge21" class="edge">
<title>Node4&#45;&gt;Node19</title>
<path fill="none" stroke="#191970" d="M669.293,-215.3734C669.293,-204.7812 669.293,-192.0976 669.293,-183.6985"/>
<polygon fill="#191970" stroke="#191970" points="665.7931,-215.3873 669.293,-225.3873 672.7931,-215.3873 665.7931,-215.3873"/>
</g>
<!-- Node22 -->
<g id="node20" class="node">
<title>Node22</title>
<g id="a_node20"><a xlink:href="topologicalcharge_8h.html" target="_top" xlink:title=" ">
<polygon fill="#ffffff" stroke="#000000" points="763.5742,-165.5 763.5742,-183.5 953.0117,-183.5 953.0117,-165.5 763.5742,-165.5"/>
<text text-anchor="middle" x="858.293" y="-171.5" font-family="Helvetica,sans-Serif" font-size="10.00" fill="#000000">GLAC/observables/topologicalcharge.h</text>
</a>
</g>
</g>
<!-- Node4&#45;&gt;Node22 -->
<g id="edge25" class="edge">
<title>Node4&#45;&gt;Node22</title>
<path fill="none" stroke="#191970" d="M707.7299,-222.2978C743.9657,-210.7944 797.4268,-193.8226 829.9371,-183.5019"/>
<polygon fill="#191970" stroke="#191970" points="706.4702,-219.0255 697.998,-225.3873 708.5883,-225.6974 706.4702,-219.0255"/>
</g>
<!-- Node24 -->
<g id="node22" class="node">
<title>Node24</title>
<g id="a_node22"><a xlink:href="correlator_8cpp.html" target="_top" xlink:title=" ">
<polygon fill="#ffffff" stroke="#000000" points="970.6431,-165.5 970.6431,-183.5 1133.9429,-183.5 1133.9429,-165.5 970.6431,-165.5"/>
<text text-anchor="middle" x="1052.293" y="-171.5" font-family="Helvetica,sans-Serif" font-size="10.00" fill="#000000">GLAC/observables/correlator.cpp</text>
</a>
</g>
</g>
<!-- Node4&#45;&gt;Node24 -->
<g id="edge28" class="edge">
<title>Node4&#45;&gt;Node24</title>
<path fill="none" stroke="#191970" d="M731.4493,-223.7681C739.1392,-222.4784 746.8946,-221.1958 754.293,-220 836.1824,-206.7647 930.9035,-192.4767 991.176,-183.5131"/>
<polygon fill="#191970" stroke="#191970" points="730.692,-220.3463 721.4136,-225.461 731.8565,-227.2488 730.692,-220.3463"/>
</g>
<!-- Node6 -->
<g id="node4" class="node">
<title>Node6</title>
<g id="a_node4"><a xlink:href="system_8h.html" target="_top" xlink:title=" ">
<polygon fill="#ffffff" stroke="#000000" points="110.2832,-55.5 110.2832,-73.5 196.3027,-73.5 196.3027,-55.5 110.2832,-55.5"/>
<text text-anchor="middle" x="153.293" y="-61.5" font-family="Helvetica,sans-Serif" font-size="10.00" fill="#000000">GLAC/system.h</text>
</a>
</g>
</g>
<!-- Node5&#45;&gt;Node6 -->
<g id="edge3" class="edge">
<title>Node5&#45;&gt;Node6</title>
<path fill="none" stroke="#191970" d="M462.316,-108.9928C383.6166,-97.6618 260.9518,-80.0006 196.3822,-70.704"/>
<polygon fill="#191970" stroke="#191970" points="462.2444,-112.5186 472.6412,-110.4795 463.2421,-105.59 462.2444,-112.5186"/>
</g>
<!-- Node9 -->
<g id="node7" class="node">
<title>Node9</title>
<g id="a_node7"><a xlink:href="mastersampler_8h.html" target="_top" xlink:title=" ">
<polygon fill="#ffffff" stroke="#000000" points="234.978,-55.5 234.978,-73.5 411.6079,-73.5 411.6079,-55.5 234.978,-55.5"/>
<text text-anchor="middle" x="323.293" y="-61.5" font-family="Helvetica,sans-Serif" font-size="10.00" fill="#000000">GLAC/observables/mastersampler.h</text>
</a>
</g>
</g>
<!-- Node5&#45;&gt;Node9 -->
<g id="edge6" class="edge">
<title>Node5&#45;&gt;Node9</title>
<path fill="none" stroke="#191970" d="M485.2693,-107.9784C444.0677,-97.7192 387.1669,-82.9172 352.85,-73.5042"/>
<polygon fill="#191970" stroke="#191970" points="484.571,-111.4111 495.1192,-110.4179 486.2539,-104.6164 484.571,-111.4111"/>
</g>
<!-- Node11 -->
<g id="node9" class="node">
<title>Node11</title>
<g id="a_node9"><a xlink:href="mastersamplertopcxyz_8h.html" target="_top" xlink:title=" ">
<polygon fill="#ffffff" stroke="#000000" points="429.7539,-55.5 429.7539,-73.5 640.832,-73.5 640.832,-55.5 429.7539,-55.5"/>
<text text-anchor="middle" x="535.293" y="-61.5" font-family="Helvetica,sans-Serif" font-size="10.00" fill="#000000">GLAC/observables/mastersamplertopcxyz.h</text>
</a>
</g>
</g>
<!-- Node5&#45;&gt;Node11 -->
<g id="edge9" class="edge">
<title>Node5&#45;&gt;Node11</title>
<path fill="none" stroke="#191970" d="M528.8298,-100.383C528.195,-91.3738 528.6138,-81.0373 530.0862,-73.7795"/>
<polygon fill="#191970" stroke="#191970" points="525.3738,-100.949 530.1266,-110.4179 532.316,-100.0517 525.3738,-100.949"/>
</g>
<!-- Node13 -->
<g id="node11" class="node">
<title>Node13</title>
<g id="a_node11"><a xlink:href="latticeactionchargedensity_8h.html" target="_top" xlink:title=" ">
<polygon fill="#ffffff" stroke="#000000" points="658.603,-55.5 658.603,-73.5 883.9829,-73.5 883.9829,-55.5 658.603,-55.5"/>
<text text-anchor="middle" x="771.293" y="-61.5" font-family="Helvetica,sans-Serif" font-size="10.00" fill="#000000">GLAC/observables/latticeactionchargedensity.h</text>
</a>
</g>
</g>
<!-- Node5&#45;&gt;Node13 -->
<g id="edge12" class="edge">
<title>Node5&#45;&gt;Node13</title>
<path fill="none" stroke="#191970" d="M578.8496,-108.0434C621.213,-97.7818 685.0613,-82.9371 727.5066,-73.5042"/>
<polygon fill="#191970" stroke="#191970" points="577.9854,-104.6515 569.0972,-110.4179 579.6414,-111.4528 577.9854,-104.6515"/>
</g>
<!-- Node15 -->
<g id="node13" class="node">
<title>Node15</title>
<g id="a_node13"><a xlink:href="supersampler_8h.html" target="_top" xlink:title=" ">
<polygon fill="#ffffff" stroke="#000000" points="901.7515,-55.5 901.7515,-73.5 1072.8345,-73.5 1072.8345,-55.5 901.7515,-55.5"/>
<text text-anchor="middle" x="987.293" y="-61.5" font-family="Helvetica,sans-Serif" font-size="10.00" fill="#000000">GLAC/observables/supersampler.h</text>
</a>
</g>
</g>
<!-- Node5&#45;&gt;Node15 -->
<g id="edge15" class="edge">
<title>Node5&#45;&gt;Node15</title>
<path fill="none" stroke="#191970" d="M614.3478,-109.2235C696.8456,-98.9564 825.3651,-83.3279 907.9655,-73.5255"/>
<polygon fill="#191970" stroke="#191970" points="613.7622,-105.7694 604.2719,-110.4795 614.6281,-112.7156 613.7622,-105.7694"/>
</g>
<!-- Node7 -->
<g id="node5" class="node">
<title>Node7</title>
<g id="a_node5"><a xlink:href="main_8cpp.html" target="_top" xlink:title=" ">
<polygon fill="#ffffff" stroke="#000000" points="0,-.5 0,-18.5 86.5859,-18.5 86.5859,-.5 0,-.5"/>
<text text-anchor="middle" x="43.293" y="-6.5" font-family="Helvetica,sans-Serif" font-size="10.00" fill="#000000">GLAC/main.cpp</text>
</a>
</g>
</g>
<!-- Node6&#45;&gt;Node7 -->
<g id="edge4" class="edge">
<title>Node6&#45;&gt;Node7</title>
<path fill="none" stroke="#191970" d="M126.1326,-50.9198C105.9926,-40.8498 79.0885,-27.3977 61.4842,-18.5956"/>
<polygon fill="#191970" stroke="#191970" points="124.6192,-54.0762 135.1287,-55.4179 127.7497,-47.8152 124.6192,-54.0762"/>
</g>
<!-- Node8 -->
<g id="node6" class="node">
<title>Node8</title>
<g id="a_node6"><a xlink:href="system_8cpp.html" target="_top" xlink:title=" ">
<polygon fill="#ffffff" stroke="#000000" points="105.0024,-.5 105.0024,-18.5 201.5835,-18.5 201.5835,-.5 105.0024,-.5"/>
<text text-anchor="middle" x="153.293" y="-6.5" font-family="Helvetica,sans-Serif" font-size="10.00" fill="#000000">GLAC/system.cpp</text>
</a>
</g>
</g>
<!-- Node6&#45;&gt;Node8 -->
<g id="edge5" class="edge">
<title>Node6&#45;&gt;Node8</title>
<path fill="none" stroke="#191970" d="M153.293,-45.383C153.293,-36.3738 153.293,-26.0373 153.293,-18.7795"/>
<polygon fill="#191970" stroke="#191970" points="149.7931,-45.4178 153.293,-55.4179 156.7931,-45.4179 149.7931,-45.4178"/>
</g>
<!-- Node9&#45;&gt;Node5 -->
<g id="edge7" class="edge">
<title>Node9&#45;&gt;Node5</title>
<path fill="none" stroke="#191970" d="M372.9765,-75.9369C414.0913,-86.171 471.0107,-100.9753 505.4518,-110.4179"/>
<polygon fill="#191970" stroke="#191970" points="373.6983,-72.51 363.1502,-73.5042 372.016,-79.3049 373.6983,-72.51"/>
</g>
<!-- Node10 -->
<g id="node8" class="node">
<title>Node10</title>
<g id="a_node8"><a xlink:href="mastersampler_8cpp.html" target="_top" xlink:title=" ">
<polygon fill="#ffffff" stroke="#000000" points="219.6973,-.5 219.6973,-18.5 406.8887,-18.5 406.8887,-.5 219.6973,-.5"/>
<text text-anchor="middle" x="313.293" y="-6.5" font-family="Helvetica,sans-Serif" font-size="10.00" fill="#000000">GLAC/observables/mastersampler.cpp</text>
</a>
</g>
</g>
<!-- Node9&#45;&gt;Node10 -->
<g id="edge8" class="edge">
<title>Node9&#45;&gt;Node10</title>
<path fill="none" stroke="#191970" d="M319.8172,-45.383C318.1791,-36.3738 316.2998,-26.0373 314.9801,-18.7795"/>
<polygon fill="#191970" stroke="#191970" points="316.4092,-46.2053 321.6417,-55.4179 323.2963,-44.953 316.4092,-46.2053"/>
</g>
<!-- Node11&#45;&gt;Node5 -->
<g id="edge10" class="edge">
<title>Node11&#45;&gt;Node5</title>
<path fill="none" stroke="#191970" d="M541.7732,-83.8632C542.3888,-92.8962 541.9508,-103.2164 540.4593,-110.4179"/>
<polygon fill="#191970" stroke="#191970" points="545.2252,-83.2621 540.4997,-73.7795 538.2803,-84.1392 545.2252,-83.2621"/>
</g>
<!-- Node12 -->
<g id="node10" class="node">
<title>Node12</title>
<g id="a_node10"><a xlink:href="mastersamplertopcxyz_8cpp.html" target="_top" xlink:title=" ">
<polygon fill="#ffffff" stroke="#000000" points="424.4731,-.5 424.4731,-18.5 646.1128,-18.5 646.1128,-.5 424.4731,-.5"/>
<text text-anchor="middle" x="535.293" y="-6.5" font-family="Helvetica,sans-Serif" font-size="10.00" fill="#000000">GLAC/observables/mastersamplertopcxyz.cpp</text>
</a>
</g>
</g>
<!-- Node11&#45;&gt;Node12 -->
<g id="edge11" class="edge">
<title>Node11&#45;&gt;Node12</title>
<path fill="none" stroke="#191970" d="M535.293,-45.383C535.293,-36.3738 535.293,-26.0373 535.293,-18.7795"/>
<polygon fill="#191970" stroke="#191970" points="531.7931,-45.4178 535.293,-55.4179 538.7931,-45.4179 531.7931,-45.4178"/>
</g>
<!-- Node13&#45;&gt;Node5 -->
<g id="edge13" class="edge">
<title>Node13&#45;&gt;Node5</title>
<path fill="none" stroke="#191970" d="M727.9767,-75.8984C685.6391,-86.1561 621.6787,-101.0279 579.1528,-110.4795"/>
<polygon fill="#191970" stroke="#191970" points="728.8322,-79.2924 737.72,-73.5255 727.1758,-72.4912 728.8322,-79.2924"/>
</g>
<!-- Node14 -->
<g id="node12" class="node">
<title>Node14</title>
<g id="a_node12"><a xlink:href="latticeactionchargedensity_8cpp.html" target="_top" xlink:title=" ">
<polygon fill="#ffffff" stroke="#000000" points="664.3223,-.5 664.3223,-18.5 900.2637,-18.5 900.2637,-.5 664.3223,-.5"/>
<text text-anchor="middle" x="782.293" y="-6.5" font-family="Helvetica,sans-Serif" font-size="10.00" fill="#000000">GLAC/observables/latticeactionchargedensity.cpp</text>
</a>
</g>
</g>
<!-- Node13&#45;&gt;Node14 -->
<g id="edge14" class="edge">
<title>Node13&#45;&gt;Node14</title>
<path fill="none" stroke="#191970" d="M775.1164,-45.383C776.9182,-36.3738 778.9855,-26.0373 780.4371,-18.7795"/>
<polygon fill="#191970" stroke="#191970" points="771.6386,-44.9256 773.1094,-55.4179 778.5027,-46.2985 771.6386,-44.9256"/>
</g>
<!-- Node15&#45;&gt;Node5 -->
<g id="edge16" class="edge">
<title>Node15&#45;&gt;Node5</title>
<path fill="none" stroke="#191970" d="M908.1967,-74.7816C825.6834,-85.0506 697.164,-100.679 614.579,-110.4795"/>
<polygon fill="#191970" stroke="#191970" points="908.7843,-78.2355 918.2746,-73.5255 907.9184,-71.2893 908.7843,-78.2355"/>
</g>
<!-- Node16 -->
<g id="node14" class="node">
<title>Node16</title>
<g id="a_node14"><a xlink:href="supersampler_8cpp.html" target="_top" xlink:title=" ">
<polygon fill="#ffffff" stroke="#000000" points="918.4707,-.5 918.4707,-18.5 1100.1152,-18.5 1100.1152,-.5 918.4707,-.5"/>
<text text-anchor="middle" x="1009.293" y="-6.5" font-family="Helvetica,sans-Serif" font-size="10.00" fill="#000000">GLAC/observables/supersampler.cpp</text>
</a>
</g>
</g>
<!-- Node15&#45;&gt;Node16 -->
<g id="edge17" class="edge">
<title>Node15&#45;&gt;Node16</title>
<path fill="none" stroke="#191970" d="M994.7029,-45.9751C998.3611,-36.8297 1002.6142,-26.1969 1005.5812,-18.7795"/>
<polygon fill="#191970" stroke="#191970" points="991.3901,-44.8332 990.9258,-55.4179 997.8895,-47.433 991.3901,-44.8332"/>
</g>
<!-- Node17&#45;&gt;Node5 -->
<g id="edge19" class="edge">
<title>Node17&#45;&gt;Node5</title>
<path fill="none" stroke="#191970" d="M473.9374,-159.6733C489.0748,-149.7619 508.5057,-137.0393 521.4015,-128.5956"/>
<polygon fill="#191970" stroke="#191970" points="471.6128,-157.0118 465.1639,-165.4179 475.4473,-162.8681 471.6128,-157.0118"/>
</g>
<!-- Node18 -->
<g id="node16" class="node">
<title>Node18</title>
<g id="a_node16"><a xlink:href="energydensity_8cpp.html" target="_top" xlink:title=" ">
<polygon fill="#ffffff" stroke="#000000" points="251.7261,-110.5 251.7261,-128.5 434.8599,-128.5 434.8599,-110.5 251.7261,-110.5"/>
<text text-anchor="middle" x="343.293" y="-116.5" font-family="Helvetica,sans-Serif" font-size="10.00" fill="#000000">GLAC/observables/energydensity.cpp</text>
</a>
</g>
</g>
<!-- Node17&#45;&gt;Node18 -->
<g id="edge20" class="edge">
<title>Node17&#45;&gt;Node18</title>
<path fill="none" stroke="#191970" d="M424.3576,-160.7829C404.6137,-150.7282 378.3594,-137.3579 361.1535,-128.5956"/>
<polygon fill="#191970" stroke="#191970" points="422.9596,-163.9987 433.459,-165.4179 426.1363,-157.7609 422.9596,-163.9987"/>
</g>
<!-- Node19&#45;&gt;Node5 -->
<g id="edge22" class="edge">
<title>Node19&#45;&gt;Node5</title>
<path fill="none" stroke="#191970" d="M637.8591,-161.598C613.1613,-151.4609 579.3836,-137.5969 557.4532,-128.5956"/>
<polygon fill="#191970" stroke="#191970" points="636.5855,-164.8586 647.1656,-165.4179 639.2435,-158.3829 636.5855,-164.8586"/>
</g>
<!-- Node20 -->
<g id="node18" class="node">
<title>Node20</title>
<g id="a_node18"><a xlink:href="plaquette_8cpp.html" target="_top" xlink:title=" ">
<polygon fill="#ffffff" stroke="#000000" points="779.9141,-110.5 779.9141,-128.5 942.6719,-128.5 942.6719,-110.5 779.9141,-110.5"/>
<text text-anchor="middle" x="861.293" y="-116.5" font-family="Helvetica,sans-Serif" font-size="10.00" fill="#000000">GLAC/observables/plaquette.cpp</text>
</a>
</g>
</g>
<!-- Node19&#45;&gt;Node20 -->
<g id="edge23" class="edge">
<title>Node19&#45;&gt;Node20</title>
<path fill="none" stroke="#191970" d="M710.6549,-162.6515C746.4182,-152.4068 797.3477,-137.8177 829.8601,-128.5042"/>
<polygon fill="#191970" stroke="#191970" points="709.6474,-159.2993 700.9979,-165.4179 711.5751,-166.0286 709.6474,-159.2993"/>
</g>
<!-- Node21 -->
<g id="node19" class="node">
<title>Node21</title>
<g id="a_node19"><a xlink:href="testsuite_8cpp.html" target="_top" xlink:title=" ">
<polygon fill="#ffffff" stroke="#000000" points="636.2686,-110.5 636.2686,-128.5 762.3174,-128.5 762.3174,-110.5 636.2686,-110.5"/>
<text text-anchor="middle" x="699.293" y="-116.5" font-family="Helvetica,sans-Serif" font-size="10.00" fill="#000000">GLAC/tests/testsuite.cpp</text>
</a>
</g>
</g>
<!-- Node19&#45;&gt;Node21 -->
<g id="edge24" class="edge">
<title>Node19&#45;&gt;Node21</title>
<path fill="none" stroke="#191970" d="M679.0768,-156.563C684.1356,-147.2885 690.0986,-136.3564 694.2314,-128.7795"/>
<polygon fill="#191970" stroke="#191970" points="675.9628,-154.9629 674.2469,-165.4179 682.1081,-158.3149 675.9628,-154.9629"/>
</g>
<!-- Node22&#45;&gt;Node5 -->
<g id="edge26" class="edge">
<title>Node22&#45;&gt;Node5</title>
<path fill="none" stroke="#191970" d="M795.1602,-163.7498C734.8529,-153.4808 644.9855,-138.1783 588.2971,-128.5255"/>
<polygon fill="#191970" stroke="#191970" points="794.8721,-167.2511 805.3178,-165.4795 796.0472,-160.3504 794.8721,-167.2511"/>
</g>
<!-- Node23 -->
<g id="node21" class="node">
<title>Node23</title>
<g id="a_node21"><a xlink:href="topologicalcharge_8cpp.html" target="_top" xlink:title=" ">
<polygon fill="#ffffff" stroke="#000000" points="960.2935,-110.5 960.2935,-128.5 1160.2925,-128.5 1160.2925,-110.5 960.2935,-110.5"/>
<text text-anchor="middle" x="1060.293" y="-116.5" font-family="Helvetica,sans-Serif" font-size="10.00" fill="#000000">GLAC/observables/topologicalcharge.cpp</text>
</a>
</g>
</g>
<!-- Node22&#45;&gt;Node23 -->
<g id="edge27" class="edge">
<title>Node22&#45;&gt;Node23</title>
<path fill="none" stroke="#191970" d="M901.3276,-162.7826C938.9768,-152.5316 992.871,-137.8575 1027.223,-128.5042"/>
<polygon fill="#191970" stroke="#191970" points="900.3784,-159.4136 891.6492,-165.4179 902.2174,-166.1677 900.3784,-159.4136"/>
</g>
</g>
</svg>
