<?xml version="1.0" encoding="UTF-8" standalone="no"?>
<!DOCTYPE svg PUBLIC "-//W3C//DTD SVG 1.1//EN"
 "http://www.w3.org/Graphics/SVG/1.1/DTD/svg11.dtd">
<!-- Generated by graphviz version 2.40.1 (20161225.0304)
 -->
<!-- Title: GLAC/parallelization/parallel.h Pages: 1 -->
<svg width="1076pt" height="157pt"
 viewBox="0.00 0.00 1076.47 157.00" xmlns="http://www.w3.org/2000/svg" xmlns:xlink="http://www.w3.org/1999/xlink">
<g id="graph0" class="graph" transform="scale(1 1) rotate(0) translate(4 153)">
<title>GLAC/parallelization/parallel.h</title>
<polygon fill="#ffffff" stroke="transparent" points="-4,4 -4,-153 1072.4746,-153 1072.4746,4 -4,4"/>
<!-- Node14 -->
<g id="node1" class="node">
<title>Node14</title>
<g id="a_node1"><a xlink:title=" ">
<polygon fill="#bfbfbf" stroke="#000000" points="392.8965,-120.5 392.8965,-148.5 500.0537,-148.5 500.0537,-120.5 392.8965,-120.5"/>
<text text-anchor="start" x="400.8965" y="-136.5" font-family="Helvetica,sans-Serif" font-size="10.00" fill="#000000">GLAC/parallelization</text>
<text text-anchor="middle" x="446.4751" y="-126.5" font-family="Helvetica,sans-Serif" font-size="10.00" fill="#000000">/parallel.h</text>
</a>
</g>
</g>
<!-- Node15 -->
<g id="node2" class="node">
<title>Node15</title>
<g id="a_node2"><a xlink:href="configloader_8cpp.html" target="_top" xlink:title=" ">
<polygon fill="#ffffff" stroke="#000000" points="24.3203,-60.5 24.3203,-78.5 172.6299,-78.5 172.6299,-60.5 24.3203,-60.5"/>
<text text-anchor="middle" x="98.4751" y="-66.5" font-family="Helvetica,sans-Serif" font-size="10.00" fill="#000000">GLAC/config/configloader.cpp</text>
</a>
</g>
</g>
<!-- Node14&#45;&gt;Node15 -->
<g id="edge1" class="edge">
<title>Node14&#45;&gt;Node15</title>
<path fill="none" stroke="#191970" d="M382.6931,-122.5867C314.6211,-109.8721 208.294,-90.0122 146.8166,-78.5293"/>
<polygon fill="#191970" stroke="#191970" points="382.3901,-126.0906 392.8627,-124.4862 383.6754,-119.2096 382.3901,-126.0906"/>
</g>
<!-- Node16 -->
<g id="node3" class="node">
<title>Node16</title>
<g id="a_node3"><a xlink:href="sysprint_8h.html" target="_top" xlink:title=" ">
<polygon fill="#ffffff" stroke="#000000" points="190.3423,-60.5 190.3423,-78.5 308.6079,-78.5 308.6079,-60.5 190.3423,-60.5"/>
<text text-anchor="middle" x="249.4751" y="-66.5" font-family="Helvetica,sans-Serif" font-size="10.00" fill="#000000">GLAC/config/sysprint.h</text>
</a>
</g>
</g>
<!-- Node14&#45;&gt;Node16 -->
<g id="edge2" class="edge">
<title>Node14&#45;&gt;Node16</title>
<path fill="none" stroke="#191970" d="M393.9406,-117.1663C356.3165,-104.7522 307.1586,-88.5326 276.9772,-78.5743"/>
<polygon fill="#191970" stroke="#191970" points="393.1359,-120.5863 403.729,-120.396 395.3293,-113.9388 393.1359,-120.5863"/>
</g>
<!-- Node19 -->
<g id="node6" class="node">
<title>Node19</title>
<g id="a_node6"><a xlink:href="system_8cpp.html" target="_top" xlink:title=" ">
<polygon fill="#ffffff" stroke="#000000" points="310.1846,-.5 310.1846,-18.5 406.7656,-18.5 406.7656,-.5 310.1846,-.5"/>
<text text-anchor="middle" x="358.4751" y="-6.5" font-family="Helvetica,sans-Serif" font-size="10.00" fill="#000000">GLAC/system.cpp</text>
</a>
</g>
</g>
<!-- Node14&#45;&gt;Node19 -->
<g id="edge10" class="edge">
<title>Node14&#45;&gt;Node19</title>
<path fill="none" stroke="#191970" d="M391.4361,-115.8641C377.2433,-108.2796 363.6713,-97.9221 355.4751,-84 343.2602,-63.2518 350.3788,-33.3253 355.185,-18.5105"/>
<polygon fill="#191970" stroke="#191970" points="390.2825,-119.1966 400.8021,-120.4573 393.3648,-112.9117 390.2825,-119.1966"/>
</g>
<!-- Node20 -->
<g id="node7" class="node">
<title>Node20</title>
<g id="a_node7"><a xlink:href="correlator_8cpp.html" target="_top" xlink:title=" ">
<polygon fill="#ffffff" stroke="#000000" points="364.8252,-60.5 364.8252,-78.5 528.125,-78.5 528.125,-60.5 364.8252,-60.5"/>
<text text-anchor="middle" x="446.4751" y="-66.5" font-family="Helvetica,sans-Serif" font-size="10.00" fill="#000000">GLAC/observables/correlator.cpp</text>
</a>
</g>
</g>
<!-- Node14&#45;&gt;Node20 -->
<g id="edge6" class="edge">
<title>Node14&#45;&gt;Node20</title>
<path fill="none" stroke="#191970" d="M446.4751,-110.3747C446.4751,-99.2832 446.4751,-86.7952 446.4751,-78.5743"/>
<polygon fill="#191970" stroke="#191970" points="442.9752,-110.3959 446.4751,-120.396 449.9752,-110.396 442.9752,-110.3959"/>
</g>
<!-- Node21 -->
<g id="node8" class="node">
<title>Node21</title>
<g id="a_node8"><a xlink:href="plaquette_8cpp.html" target="_top" xlink:title=" ">
<polygon fill="#ffffff" stroke="#000000" points="546.0962,-60.5 546.0962,-78.5 708.854,-78.5 708.854,-60.5 546.0962,-60.5"/>
<text text-anchor="middle" x="627.4751" y="-66.5" font-family="Helvetica,sans-Serif" font-size="10.00" fill="#000000">GLAC/observables/plaquette.cpp</text>
</a>
</g>
</g>
<!-- Node14&#45;&gt;Node21 -->
<g id="edge7" class="edge">
<title>Node14&#45;&gt;Node21</title>
<path fill="none" stroke="#191970" d="M495.1847,-117.0076C529.6952,-104.6143 574.5945,-88.4903 602.2066,-78.5743"/>
<polygon fill="#191970" stroke="#191970" points="493.978,-113.722 485.7494,-120.396 496.3439,-120.3101 493.978,-113.722"/>
</g>
<!-- Node22 -->
<g id="node9" class="node">
<title>Node22</title>
<g id="a_node9"><a xlink:href="observablestorer_8cpp.html" target="_top" xlink:title=" ">
<polygon fill="#ffffff" stroke="#000000" points="726.5591,-55.5 726.5591,-83.5 850.3911,-83.5 850.3911,-55.5 726.5591,-55.5"/>
<text text-anchor="start" x="734.5591" y="-71.5" font-family="Helvetica,sans-Serif" font-size="10.00" fill="#000000">GLAC/observables/tools</text>
<text text-anchor="middle" x="788.4751" y="-61.5" font-family="Helvetica,sans-Serif" font-size="10.00" fill="#000000">/observablestorer.cpp</text>
</a>
</g>
</g>
<!-- Node14&#45;&gt;Node22 -->
<g id="edge8" class="edge">
<title>Node14&#45;&gt;Node22</title>
<path fill="none" stroke="#191970" d="M510.2036,-122.9444C565.1586,-112.9031 646.6139,-97.8371 717.4751,-84 720.4385,-83.4213 723.4703,-82.8237 726.5317,-82.2158"/>
<polygon fill="#191970" stroke="#191970" points="509.4682,-119.5207 500.2592,-124.7594 510.7251,-126.407 509.4682,-119.5207"/>
</g>
<!-- Node23 -->
<g id="node10" class="node">
<title>Node23</title>
<g id="a_node10"><a xlink:href="topologicalcharge_8cpp.html" target="_top" xlink:title=" ">
<polygon fill="#ffffff" stroke="#000000" points="868.4756,-60.5 868.4756,-78.5 1068.4746,-78.5 1068.4746,-60.5 868.4756,-60.5"/>
<text text-anchor="middle" x="968.4751" y="-66.5" font-family="Helvetica,sans-Serif" font-size="10.00" fill="#000000">GLAC/observables/topologicalcharge.cpp</text>
</a>
</g>
</g>
<!-- Node14&#45;&gt;Node23 -->
<g id="edge9" class="edge">
<title>Node14&#45;&gt;Node23</title>
<path fill="none" stroke="#191970" d="M510.3504,-126.902C591.5284,-117.1969 735.9597,-99.7665 859.4751,-84 873.1095,-82.2596 887.6966,-80.3512 901.622,-78.507"/>
<polygon fill="#191970" stroke="#191970" points="509.8024,-123.4425 500.2882,-128.1041 510.6328,-130.393 509.8024,-123.4425"/>
</g>
<!-- Node17 -->
<g id="node4" class="node">
<title>Node17</title>
<g id="a_node4"><a xlink:href="parameters_8cpp.html" target="_top" xlink:title=" ">
<polygon fill="#ffffff" stroke="#000000" points="0,-.5 0,-18.5 144.9502,-18.5 144.9502,-.5 0,-.5"/>
<text text-anchor="middle" x="72.4751" y="-6.5" font-family="Helvetica,sans-Serif" font-size="10.00" fill="#000000">GLAC/config/parameters.cpp</text>
</a>
</g>
</g>
<!-- Node16&#45;&gt;Node17 -->
<g id="edge3" class="edge">
<title>Node16&#45;&gt;Node17</title>
<path fill="none" stroke="#191970" d="M213.0427,-57.15C179.1159,-45.6494 129.3467,-28.7785 99.0306,-18.5019"/>
<polygon fill="#191970" stroke="#191970" points="211.9983,-60.4916 222.5926,-60.3873 214.2456,-53.8621 211.9983,-60.4916"/>
</g>
<!-- Node18 -->
<g id="node5" class="node">
<title>Node18</title>
<g id="a_node5"><a xlink:href="sysprint_8cpp.html" target="_top" xlink:title=" ">
<polygon fill="#ffffff" stroke="#000000" points="163.0615,-.5 163.0615,-18.5 291.8887,-18.5 291.8887,-.5 163.0615,-.5"/>
<text text-anchor="middle" x="227.4751" y="-6.5" font-family="Helvetica,sans-Serif" font-size="10.00" fill="#000000">GLAC/config/sysprint.cpp</text>
</a>
</g>
</g>
<!-- Node16&#45;&gt;Node18 -->
<g id="edge4" class="edge">
<title>Node16&#45;&gt;Node18</title>
<path fill="none" stroke="#191970" d="M242.5844,-50.7072C238.6763,-40.0487 233.96,-27.186 230.8479,-18.6985"/>
<polygon fill="#191970" stroke="#191970" points="239.4051,-52.2034 246.1338,-60.3873 245.9772,-49.7936 239.4051,-52.2034"/>
</g>
<!-- Node16&#45;&gt;Node19 -->
<g id="edge5" class="edge">
<title>Node16&#45;&gt;Node19</title>
<path fill="none" stroke="#191970" d="M274.9329,-55.4865C295.6708,-44.0712 324.3339,-28.2933 342.1217,-18.5019"/>
<polygon fill="#191970" stroke="#191970" points="273.1025,-52.4988 266.0299,-60.3873 276.4781,-58.6311 273.1025,-52.4988"/>
</g>
</g>
</svg>
