<?xml version="1.0" encoding="UTF-8" standalone="no"?>
<!DOCTYPE svg PUBLIC "-//W3C//DTD SVG 1.1//EN"
 "http://www.w3.org/Graphics/SVG/1.1/DTD/svg11.dtd">
<!-- Generated by graphviz version 2.40.1 (20161225.0304)
 -->
<!-- Title: GLAC/tests/performancetests.h Pages: 1 -->
<svg width="286pt" height="137pt"
 viewBox="0.00 0.00 286.21 137.00" xmlns="http://www.w3.org/2000/svg" xmlns:xlink="http://www.w3.org/1999/xlink">
<g id="graph0" class="graph" transform="scale(1 1) rotate(0) translate(4 133)">
<title>GLAC/tests/performancetests.h</title>
<polygon fill="#ffffff" stroke="transparent" points="-4,4 -4,-133 282.2139,-133 282.2139,4 -4,4"/>
<!-- Node7 -->
<g id="node1" class="node">
<title>Node7</title>
<g id="a_node1"><a xlink:title=" ">
<polygon fill="#bfbfbf" stroke="#000000" points="43.4312,-110.5 43.4312,-128.5 198.9331,-128.5 198.9331,-110.5 43.4312,-110.5"/>
<text text-anchor="middle" x="121.1821" y="-116.5" font-family="Helvetica,sans-Serif" font-size="10.00" fill="#000000">GLAC/tests/performancetests.h</text>
</a>
</g>
</g>
<!-- Node8 -->
<g id="node2" class="node">
<title>Node8</title>
<g id="a_node2"><a xlink:href="test_8h.html" target="_top" xlink:title=" ">
<polygon fill="#ffffff" stroke="#000000" points="0,-55.5 0,-73.5 94.3643,-73.5 94.3643,-55.5 0,-55.5"/>
<text text-anchor="middle" x="47.1821" y="-61.5" font-family="Helvetica,sans-Serif" font-size="10.00" fill="#000000">GLAC/tests/test.h</text>
</a>
</g>
</g>
<!-- Node7&#45;&gt;Node8 -->
<g id="edge1" class="edge">
<title>Node7&#45;&gt;Node8</title>
<path fill="none" stroke="#191970" d="M100.855,-104.392C87.5756,-94.5222 70.6733,-81.9596 59.4199,-73.5956"/>
<polygon fill="#191970" stroke="#191970" points="98.8487,-107.2617 108.9625,-110.4179 103.0244,-101.6435 98.8487,-107.2617"/>
</g>
<!-- Node10 -->
<g id="node4" class="node">
<title>Node10</title>
<g id="a_node4"><a xlink:href="performancetests_8cpp.html" target="_top" xlink:title=" ">
<polygon fill="#ffffff" stroke="#000000" points="112.1504,-55.5 112.1504,-73.5 278.2139,-73.5 278.2139,-55.5 112.1504,-55.5"/>
<text text-anchor="middle" x="195.1821" y="-61.5" font-family="Helvetica,sans-Serif" font-size="10.00" fill="#000000">GLAC/tests/performancetests.cpp</text>
</a>
</g>
</g>
<!-- Node7&#45;&gt;Node10 -->
<g id="edge3" class="edge">
<title>Node7&#45;&gt;Node10</title>
<path fill="none" stroke="#191970" d="M141.5092,-104.392C154.7886,-94.5222 171.691,-81.9596 182.9444,-73.5956"/>
<polygon fill="#191970" stroke="#191970" points="139.3399,-101.6435 133.4017,-110.4179 143.5155,-107.2617 139.3399,-101.6435"/>
</g>
<!-- Node9 -->
<g id="node3" class="node">
<title>Node9</title>
<g id="a_node3"><a xlink:href="main_8cpp.html" target="_top" xlink:title=" ">
<polygon fill="#ffffff" stroke="#000000" points="3.8892,-.5 3.8892,-18.5 90.4751,-18.5 90.4751,-.5 3.8892,-.5"/>
<text text-anchor="middle" x="47.1821" y="-6.5" font-family="Helvetica,sans-Serif" font-size="10.00" fill="#000000">GLAC/main.cpp</text>
</a>
</g>
</g>
<!-- Node8&#45;&gt;Node9 -->
<g id="edge2" class="edge">
<title>Node8&#45;&gt;Node9</title>
<path fill="none" stroke="#191970" d="M47.1821,-45.383C47.1821,-36.3738 47.1821,-26.0373 47.1821,-18.7795"/>
<polygon fill="#191970" stroke="#191970" points="43.6822,-45.4178 47.1821,-55.4179 50.6822,-45.4179 43.6822,-45.4178"/>
</g>
</g>
</svg>
