<?xml version="1.0" encoding="UTF-8" standalone="no"?>
<!DOCTYPE svg PUBLIC "-//W3C//DTD SVG 1.1//EN"
 "http://www.w3.org/Graphics/SVG/1.1/DTD/svg11.dtd">
<!-- Generated by graphviz version 2.40.1 (20161225.0304)
 -->
<!-- Title: GLAC/observables/plaquette.h Pages: 1 -->
<svg width="1108pt" height="192pt"
 viewBox="0.00 0.00 1108.12 192.00" xmlns="http://www.w3.org/2000/svg" xmlns:xlink="http://www.w3.org/1999/xlink">
<g id="graph0" class="graph" transform="scale(1 1) rotate(0) translate(4 188)">
<title>GLAC/observables/plaquette.h</title>
<polygon fill="#ffffff" stroke="transparent" points="-4,4 -4,-188 1104.1152,-188 1104.1152,4 -4,4"/>
<!-- Node16 -->
<g id="node1" class="node">
<title>Node16</title>
<g id="a_node1"><a xlink:title=" ">
<polygon fill="#bfbfbf" stroke="#000000" points="641.1948,-165.5 641.1948,-183.5 793.3911,-183.5 793.3911,-165.5 641.1948,-165.5"/>
<text text-anchor="middle" x="717.293" y="-171.5" font-family="Helvetica,sans-Serif" font-size="10.00" fill="#000000">GLAC/observables/plaquette.h</text>
</a>
</g>
</g>
<!-- Node17 -->
<g id="node2" class="node">
<title>Node17</title>
<g id="a_node2"><a xlink:href="observables_8h.html" target="_top" xlink:title=" ">
<polygon fill="#ffffff" stroke="#000000" points="452.8081,-110.5 452.8081,-128.5 617.7778,-128.5 617.7778,-110.5 452.8081,-110.5"/>
<text text-anchor="middle" x="535.293" y="-116.5" font-family="Helvetica,sans-Serif" font-size="10.00" fill="#000000">GLAC/observables/observables.h</text>
</a>
</g>
</g>
<!-- Node16&#45;&gt;Node17 -->
<g id="edge1" class="edge">
<title>Node16&#45;&gt;Node17</title>
<path fill="none" stroke="#191970" d="M677.6499,-162.52C643.7724,-152.2822 595.776,-137.7779 565.0887,-128.5042"/>
<polygon fill="#191970" stroke="#191970" points="676.6544,-165.8754 687.2394,-165.4179 678.6794,-159.1747 676.6544,-165.8754"/>
</g>
<!-- Node29 -->
<g id="node14" class="node">
<title>Node29</title>
<g id="a_node14"><a xlink:href="plaquette_8cpp.html" target="_top" xlink:title=" ">
<polygon fill="#ffffff" stroke="#000000" points="635.9141,-110.5 635.9141,-128.5 798.6719,-128.5 798.6719,-110.5 635.9141,-110.5"/>
<text text-anchor="middle" x="717.293" y="-116.5" font-family="Helvetica,sans-Serif" font-size="10.00" fill="#000000">GLAC/observables/plaquette.cpp</text>
</a>
</g>
</g>
<!-- Node16&#45;&gt;Node29 -->
<g id="edge17" class="edge">
<title>Node16&#45;&gt;Node29</title>
<path fill="none" stroke="#191970" d="M717.293,-155.383C717.293,-146.3738 717.293,-136.0373 717.293,-128.7795"/>
<polygon fill="#191970" stroke="#191970" points="713.7931,-155.4178 717.293,-165.4179 720.7931,-155.4179 713.7931,-155.4178"/>
</g>
<!-- Node30 -->
<g id="node15" class="node">
<title>Node30</title>
<g id="a_node15"><a xlink:href="testsuite_8cpp.html" target="_top" xlink:title=" ">
<polygon fill="#ffffff" stroke="#000000" points="816.2686,-110.5 816.2686,-128.5 942.3174,-128.5 942.3174,-110.5 816.2686,-110.5"/>
<text text-anchor="middle" x="879.293" y="-116.5" font-family="Helvetica,sans-Serif" font-size="10.00" fill="#000000">GLAC/tests/testsuite.cpp</text>
</a>
</g>
</g>
<!-- Node16&#45;&gt;Node30 -->
<g id="edge18" class="edge">
<title>Node16&#45;&gt;Node30</title>
<path fill="none" stroke="#191970" d="M753.7506,-162.1224C783.8319,-151.9096 825.8081,-137.6584 852.7715,-128.5042"/>
<polygon fill="#191970" stroke="#191970" points="752.3879,-158.8888 744.044,-165.4179 754.6383,-165.5172 752.3879,-158.8888"/>
</g>
<!-- Node18 -->
<g id="node3" class="node">
<title>Node18</title>
<g id="a_node3"><a xlink:href="system_8h.html" target="_top" xlink:title=" ">
<polygon fill="#ffffff" stroke="#000000" points="110.2832,-55.5 110.2832,-73.5 196.3027,-73.5 196.3027,-55.5 110.2832,-55.5"/>
<text text-anchor="middle" x="153.293" y="-61.5" font-family="Helvetica,sans-Serif" font-size="10.00" fill="#000000">GLAC/system.h</text>
</a>
</g>
</g>
<!-- Node17&#45;&gt;Node18 -->
<g id="edge2" class="edge">
<title>Node17&#45;&gt;Node18</title>
<path fill="none" stroke="#191970" d="M462.316,-108.9928C383.6166,-97.6618 260.9518,-80.0006 196.3822,-70.704"/>
<polygon fill="#191970" stroke="#191970" points="462.2444,-112.5186 472.6412,-110.4795 463.2421,-105.59 462.2444,-112.5186"/>
</g>
<!-- Node21 -->
<g id="node6" class="node">
<title>Node21</title>
<g id="a_node6"><a xlink:href="mastersampler_8h.html" target="_top" xlink:title=" ">
<polygon fill="#ffffff" stroke="#000000" points="234.978,-55.5 234.978,-73.5 411.6079,-73.5 411.6079,-55.5 234.978,-55.5"/>
<text text-anchor="middle" x="323.293" y="-61.5" font-family="Helvetica,sans-Serif" font-size="10.00" fill="#000000">GLAC/observables/mastersampler.h</text>
</a>
</g>
</g>
<!-- Node17&#45;&gt;Node21 -->
<g id="edge5" class="edge">
<title>Node17&#45;&gt;Node21</title>
<path fill="none" stroke="#191970" d="M485.2693,-107.9784C444.0677,-97.7192 387.1669,-82.9172 352.85,-73.5042"/>
<polygon fill="#191970" stroke="#191970" points="484.571,-111.4111 495.1192,-110.4179 486.2539,-104.6164 484.571,-111.4111"/>
</g>
<!-- Node23 -->
<g id="node8" class="node">
<title>Node23</title>
<g id="a_node8"><a xlink:href="mastersamplertopcxyz_8h.html" target="_top" xlink:title=" ">
<polygon fill="#ffffff" stroke="#000000" points="429.7539,-55.5 429.7539,-73.5 640.832,-73.5 640.832,-55.5 429.7539,-55.5"/>
<text text-anchor="middle" x="535.293" y="-61.5" font-family="Helvetica,sans-Serif" font-size="10.00" fill="#000000">GLAC/observables/mastersamplertopcxyz.h</text>
</a>
</g>
</g>
<!-- Node17&#45;&gt;Node23 -->
<g id="edge8" class="edge">
<title>Node17&#45;&gt;Node23</title>
<path fill="none" stroke="#191970" d="M528.8298,-100.383C528.195,-91.3738 528.6138,-81.0373 530.0862,-73.7795"/>
<polygon fill="#191970" stroke="#191970" points="525.3738,-100.949 530.1266,-110.4179 532.316,-100.0517 525.3738,-100.949"/>
</g>
<!-- Node25 -->
<g id="node10" class="node">
<title>Node25</title>
<g id="a_node10"><a xlink:href="latticeactionchargedensity_8h.html" target="_top" xlink:title=" ">
<polygon fill="#ffffff" stroke="#000000" points="658.603,-55.5 658.603,-73.5 883.9829,-73.5 883.9829,-55.5 658.603,-55.5"/>
<text text-anchor="middle" x="771.293" y="-61.5" font-family="Helvetica,sans-Serif" font-size="10.00" fill="#000000">GLAC/observables/latticeactionchargedensity.h</text>
</a>
</g>
</g>
<!-- Node17&#45;&gt;Node25 -->
<g id="edge11" class="edge">
<title>Node17&#45;&gt;Node25</title>
<path fill="none" stroke="#191970" d="M578.8496,-108.0434C621.213,-97.7818 685.0613,-82.9371 727.5066,-73.5042"/>
<polygon fill="#191970" stroke="#191970" points="577.9854,-104.6515 569.0972,-110.4179 579.6414,-111.4528 577.9854,-104.6515"/>
</g>
<!-- Node27 -->
<g id="node12" class="node">
<title>Node27</title>
<g id="a_node12"><a xlink:href="supersampler_8h.html" target="_top" xlink:title=" ">
<polygon fill="#ffffff" stroke="#000000" points="901.7515,-55.5 901.7515,-73.5 1072.8345,-73.5 1072.8345,-55.5 901.7515,-55.5"/>
<text text-anchor="middle" x="987.293" y="-61.5" font-family="Helvetica,sans-Serif" font-size="10.00" fill="#000000">GLAC/observables/supersampler.h</text>
</a>
</g>
</g>
<!-- Node17&#45;&gt;Node27 -->
<g id="edge14" class="edge">
<title>Node17&#45;&gt;Node27</title>
<path fill="none" stroke="#191970" d="M614.3478,-109.2235C696.8456,-98.9564 825.3651,-83.3279 907.9655,-73.5255"/>
<polygon fill="#191970" stroke="#191970" points="613.7622,-105.7694 604.2719,-110.4795 614.6281,-112.7156 613.7622,-105.7694"/>
</g>
<!-- Node19 -->
<g id="node4" class="node">
<title>Node19</title>
<g id="a_node4"><a xlink:href="main_8cpp.html" target="_top" xlink:title=" ">
<polygon fill="#ffffff" stroke="#000000" points="0,-.5 0,-18.5 86.5859,-18.5 86.5859,-.5 0,-.5"/>
<text text-anchor="middle" x="43.293" y="-6.5" font-family="Helvetica,sans-Serif" font-size="10.00" fill="#000000">GLAC/main.cpp</text>
</a>
</g>
</g>
<!-- Node18&#45;&gt;Node19 -->
<g id="edge3" class="edge">
<title>Node18&#45;&gt;Node19</title>
<path fill="none" stroke="#191970" d="M126.1326,-50.9198C105.9926,-40.8498 79.0885,-27.3977 61.4842,-18.5956"/>
<polygon fill="#191970" stroke="#191970" points="124.6192,-54.0762 135.1287,-55.4179 127.7497,-47.8152 124.6192,-54.0762"/>
</g>
<!-- Node20 -->
<g id="node5" class="node">
<title>Node20</title>
<g id="a_node5"><a xlink:href="system_8cpp.html" target="_top" xlink:title=" ">
<polygon fill="#ffffff" stroke="#000000" points="105.0024,-.5 105.0024,-18.5 201.5835,-18.5 201.5835,-.5 105.0024,-.5"/>
<text text-anchor="middle" x="153.293" y="-6.5" font-family="Helvetica,sans-Serif" font-size="10.00" fill="#000000">GLAC/system.cpp</text>
</a>
</g>
</g>
<!-- Node18&#45;&gt;Node20 -->
<g id="edge4" class="edge">
<title>Node18&#45;&gt;Node20</title>
<path fill="none" stroke="#191970" d="M153.293,-45.383C153.293,-36.3738 153.293,-26.0373 153.293,-18.7795"/>
<polygon fill="#191970" stroke="#191970" points="149.7931,-45.4178 153.293,-55.4179 156.7931,-45.4179 149.7931,-45.4178"/>
</g>
<!-- Node21&#45;&gt;Node17 -->
<g id="edge6" class="edge">
<title>Node21&#45;&gt;Node17</title>
<path fill="none" stroke="#191970" d="M372.9765,-75.9369C414.0913,-86.171 471.0107,-100.9753 505.4518,-110.4179"/>
<polygon fill="#191970" stroke="#191970" points="373.6983,-72.51 363.1502,-73.5042 372.016,-79.3049 373.6983,-72.51"/>
</g>
<!-- Node22 -->
<g id="node7" class="node">
<title>Node22</title>
<g id="a_node7"><a xlink:href="mastersampler_8cpp.html" target="_top" xlink:title=" ">
<polygon fill="#ffffff" stroke="#000000" points="219.6973,-.5 219.6973,-18.5 406.8887,-18.5 406.8887,-.5 219.6973,-.5"/>
<text text-anchor="middle" x="313.293" y="-6.5" font-family="Helvetica,sans-Serif" font-size="10.00" fill="#000000">GLAC/observables/mastersampler.cpp</text>
</a>
</g>
</g>
<!-- Node21&#45;&gt;Node22 -->
<g id="edge7" class="edge">
<title>Node21&#45;&gt;Node22</title>
<path fill="none" stroke="#191970" d="M319.8172,-45.383C318.1791,-36.3738 316.2998,-26.0373 314.9801,-18.7795"/>
<polygon fill="#191970" stroke="#191970" points="316.4092,-46.2053 321.6417,-55.4179 323.2963,-44.953 316.4092,-46.2053"/>
</g>
<!-- Node23&#45;&gt;Node17 -->
<g id="edge9" class="edge">
<title>Node23&#45;&gt;Node17</title>
<path fill="none" stroke="#191970" d="M541.7732,-83.8632C542.3888,-92.8962 541.9508,-103.2164 540.4593,-110.4179"/>
<polygon fill="#191970" stroke="#191970" points="545.2252,-83.2621 540.4997,-73.7795 538.2803,-84.1392 545.2252,-83.2621"/>
</g>
<!-- Node24 -->
<g id="node9" class="node">
<title>Node24</title>
<g id="a_node9"><a xlink:href="mastersamplertopcxyz_8cpp.html" target="_top" xlink:title=" ">
<polygon fill="#ffffff" stroke="#000000" points="424.4731,-.5 424.4731,-18.5 646.1128,-18.5 646.1128,-.5 424.4731,-.5"/>
<text text-anchor="middle" x="535.293" y="-6.5" font-family="Helvetica,sans-Serif" font-size="10.00" fill="#000000">GLAC/observables/mastersamplertopcxyz.cpp</text>
</a>
</g>
</g>
<!-- Node23&#45;&gt;Node24 -->
<g id="edge10" class="edge">
<title>Node23&#45;&gt;Node24</title>
<path fill="none" stroke="#191970" d="M535.293,-45.383C535.293,-36.3738 535.293,-26.0373 535.293,-18.7795"/>
<polygon fill="#191970" stroke="#191970" points="531.7931,-45.4178 535.293,-55.4179 538.7931,-45.4179 531.7931,-45.4178"/>
</g>
<!-- Node25&#45;&gt;Node17 -->
<g id="edge12" class="edge">
<title>Node25&#45;&gt;Node17</title>
<path fill="none" stroke="#191970" d="M727.9767,-75.8984C685.6391,-86.1561 621.6787,-101.0279 579.1528,-110.4795"/>
<polygon fill="#191970" stroke="#191970" points="728.8322,-79.2924 737.72,-73.5255 727.1758,-72.4912 728.8322,-79.2924"/>
</g>
<!-- Node26 -->
<g id="node11" class="node">
<title>Node26</title>
<g id="a_node11"><a xlink:href="latticeactionchargedensity_8cpp.html" target="_top" xlink:title=" ">
<polygon fill="#ffffff" stroke="#000000" points="664.3223,-.5 664.3223,-18.5 900.2637,-18.5 900.2637,-.5 664.3223,-.5"/>
<text text-anchor="middle" x="782.293" y="-6.5" font-family="Helvetica,sans-Serif" font-size="10.00" fill="#000000">GLAC/observables/latticeactionchargedensity.cpp</text>
</a>
</g>
</g>
<!-- Node25&#45;&gt;Node26 -->
<g id="edge13" class="edge">
<title>Node25&#45;&gt;Node26</title>
<path fill="none" stroke="#191970" d="M775.1164,-45.383C776.9182,-36.3738 778.9855,-26.0373 780.4371,-18.7795"/>
<polygon fill="#191970" stroke="#191970" points="771.6386,-44.9256 773.1094,-55.4179 778.5027,-46.2985 771.6386,-44.9256"/>
</g>
<!-- Node27&#45;&gt;Node17 -->
<g id="edge15" class="edge">
<title>Node27&#45;&gt;Node17</title>
<path fill="none" stroke="#191970" d="M908.1967,-74.7816C825.6834,-85.0506 697.164,-100.679 614.579,-110.4795"/>
<polygon fill="#191970" stroke="#191970" points="908.7843,-78.2355 918.2746,-73.5255 907.9184,-71.2893 908.7843,-78.2355"/>
</g>
<!-- Node28 -->
<g id="node13" class="node">
<title>Node28</title>
<g id="a_node13"><a xlink:href="supersampler_8cpp.html" target="_top" xlink:title=" ">
<polygon fill="#ffffff" stroke="#000000" points="918.4707,-.5 918.4707,-18.5 1100.1152,-18.5 1100.1152,-.5 918.4707,-.5"/>
<text text-anchor="middle" x="1009.293" y="-6.5" font-family="Helvetica,sans-Serif" font-size="10.00" fill="#000000">GLAC/observables/supersampler.cpp</text>
</a>
</g>
</g>
<!-- Node27&#45;&gt;Node28 -->
<g id="edge16" class="edge">
<title>Node27&#45;&gt;Node28</title>
<path fill="none" stroke="#191970" d="M994.7029,-45.9751C998.3611,-36.8297 1002.6142,-26.1969 1005.5812,-18.7795"/>
<polygon fill="#191970" stroke="#191970" points="991.3901,-44.8332 990.9258,-55.4179 997.8895,-47.433 991.3901,-44.8332"/>
</g>
</g>
</svg>
