<?xml version="1.0" encoding="UTF-8" standalone="no"?>
<!DOCTYPE svg PUBLIC "-//W3C//DTD SVG 1.1//EN"
 "http://www.w3.org/Graphics/SVG/1.1/DTD/svg11.dtd">
<!-- Generated by graphviz version 2.40.1 (20161225.0304)
 -->
<!-- Title: GLAC/observables/supersampler.cpp Pages: 1 -->
<svg width="1097pt" height="522pt"
 viewBox="0.00 0.00 1096.88 522.00" xmlns="http://www.w3.org/2000/svg" xmlns:xlink="http://www.w3.org/1999/xlink">
<g id="graph0" class="graph" transform="scale(1 1) rotate(0) translate(4 518)">
<title>GLAC/observables/supersampler.cpp</title>
<polygon fill="#ffffff" stroke="transparent" points="-4,4 -4,-518 1092.875,-518 1092.875,4 -4,4"/>
<!-- Node0 -->
<g id="node1" class="node">
<title>Node0</title>
<g id="a_node1"><a xlink:title=" ">
<polygon fill="#bfbfbf" stroke="#000000" points="842.75,-495.5 842.75,-513.5 1024.3946,-513.5 1024.3946,-495.5 842.75,-495.5"/>
<text text-anchor="middle" x="933.5723" y="-501.5" font-family="Helvetica,sans-Serif" font-size="10.00" fill="#000000">GLAC/observables/supersampler.cpp</text>
</a>
</g>
</g>
<!-- Node1 -->
<g id="node2" class="node">
<title>Node1</title>
<g id="a_node2"><a xlink:href="supersampler_8h.html" target="_top" xlink:title=" ">
<polygon fill="#ffffff" stroke="#000000" points="410.3853,-440.5 410.3853,-458.5 494.7593,-458.5 494.7593,-440.5 410.3853,-440.5"/>
<text text-anchor="middle" x="452.5723" y="-446.5" font-family="Helvetica,sans-Serif" font-size="10.00" fill="#000000">supersampler.h</text>
</a>
</g>
</g>
<!-- Node0&#45;&gt;Node1 -->
<g id="edge1" class="edge">
<title>Node0&#45;&gt;Node1</title>
<path fill="none" stroke="#191970" d="M854.6836,-495.4795C755.9258,-484.187 589.4997,-465.157 505.0777,-455.5037"/>
<polygon fill="#191970" stroke="#191970" points="505.2859,-452.0048 494.953,-454.346 504.4906,-458.9595 505.2859,-452.0048"/>
</g>
<!-- Node25 -->
<g id="node26" class="node">
<title>Node25</title>
<g id="a_node26"><a xlink:title=" ">
<polygon fill="#ffffff" stroke="#bfbfbf" points="999.9566,-440.5 999.9566,-458.5 1043.188,-458.5 1043.188,-440.5 999.9566,-440.5"/>
<text text-anchor="middle" x="1021.5723" y="-446.5" font-family="Helvetica,sans-Serif" font-size="10.00" fill="#000000">cmath</text>
</a>
</g>
</g>
<!-- Node0&#45;&gt;Node25 -->
<g id="edge44" class="edge">
<title>Node0&#45;&gt;Node25</title>
<path fill="none" stroke="#191970" d="M948.1037,-495.4179C961.7337,-486.8992 982.3458,-474.0166 998.272,-464.0627"/>
<polygon fill="#191970" stroke="#191970" points="1000.3943,-466.8637 1007.0193,-458.5956 996.6843,-460.9277 1000.3943,-466.8637"/>
</g>
<!-- Node26 -->
<g id="node27" class="node">
<title>Node26</title>
<g id="a_node27"><a xlink:href="communicator_8h.html" target="_top" xlink:title=" ">
<polygon fill="#ffffff" stroke="#000000" points="710.314,-275.5 710.314,-293.5 860.8306,-293.5 860.8306,-275.5 710.314,-275.5"/>
<text text-anchor="middle" x="785.5723" y="-281.5" font-family="Helvetica,sans-Serif" font-size="10.00" fill="#000000">parallelization/communicator.h</text>
</a>
</g>
</g>
<!-- Node0&#45;&gt;Node26 -->
<g id="edge45" class="edge">
<title>Node0&#45;&gt;Node26</title>
<path fill="none" stroke="#191970" d="M930.6775,-495.315C919.473,-459.8062 879.4335,-333.3192 876.5723,-330 863.6303,-314.9866 844.5486,-304.3925 827.1968,-297.2282"/>
<polygon fill="#191970" stroke="#191970" points="828.3744,-293.9311 817.7849,-293.5947 825.8533,-300.4614 828.3744,-293.9311"/>
</g>
<!-- Node27 -->
<g id="node28" class="node">
<title>Node27</title>
<g id="a_node28"><a xlink:href="parameters_8h.html" target="_top" xlink:title=" ">
<polygon fill="#ffffff" stroke="#000000" points="870.3829,-220.5 870.3829,-238.5 974.7618,-238.5 974.7618,-220.5 870.3829,-220.5"/>
<text text-anchor="middle" x="922.5723" y="-226.5" font-family="Helvetica,sans-Serif" font-size="10.00" fill="#000000">config/parameters.h</text>
</a>
</g>
</g>
<!-- Node0&#45;&gt;Node27 -->
<g id="edge48" class="edge">
<title>Node0&#45;&gt;Node27</title>
<path fill="none" stroke="#191970" d="M933.5723,-495.3733C933.5723,-476.5256 933.5723,-431.9306 933.5723,-394.5 933.5723,-394.5 933.5723,-394.5 933.5723,-339.5 933.5723,-307.4666 928.8965,-270.4451 925.6419,-248.5563"/>
<polygon fill="#191970" stroke="#191970" points="929.0888,-247.9436 924.1018,-238.5959 922.1711,-249.0133 929.0888,-247.9436"/>
</g>
<!-- Node28 -->
<g id="node29" class="node">
<title>Node28</title>
<g id="a_node29"><a xlink:href="observablesio_8h.html" target="_top" xlink:title=" ">
<polygon fill="#ffffff" stroke="#000000" points="992.2696,-220.5 992.2696,-238.5 1088.875,-238.5 1088.875,-220.5 992.2696,-220.5"/>
<text text-anchor="middle" x="1040.5723" y="-226.5" font-family="Helvetica,sans-Serif" font-size="10.00" fill="#000000">io/observablesio.h</text>
</a>
</g>
</g>
<!-- Node0&#45;&gt;Node28 -->
<g id="edge51" class="edge">
<title>Node0&#45;&gt;Node28</title>
<path fill="none" stroke="#191970" d="M939.0168,-495.4507C949.5241,-477.0998 971.5723,-433.899 971.5723,-394.5 971.5723,-394.5 971.5723,-394.5 971.5723,-339.5 971.5723,-301.289 1001.8211,-265.4549 1022.2627,-245.6015"/>
<polygon fill="#191970" stroke="#191970" points="1024.8707,-247.9549 1029.7911,-238.5719 1020.0933,-242.8386 1024.8707,-247.9549"/>
</g>
<!-- Node2 -->
<g id="node3" class="node">
<title>Node2</title>
<g id="a_node3"><a xlink:href="lattice_8h.html" target="_top" xlink:title=" ">
<polygon fill="#ffffff" stroke="#000000" points="338.836,-220.5 338.836,-238.5 414.3086,-238.5 414.3086,-220.5 338.836,-220.5"/>
<text text-anchor="middle" x="376.5723" y="-226.5" font-family="Helvetica,sans-Serif" font-size="10.00" fill="#000000">math/lattice.h</text>
</a>
</g>
</g>
<!-- Node1&#45;&gt;Node2 -->
<g id="edge2" class="edge">
<title>Node1&#45;&gt;Node2</title>
<path fill="none" stroke="#191970" d="M410.0918,-442.8646C329.2042,-429.27 158.037,-395.5648 123.5723,-349 67.6277,-273.414 240.965,-243.8098 328.8124,-233.8673"/>
<polygon fill="#191970" stroke="#191970" points="329.2631,-237.339 338.8255,-232.7772 328.5054,-230.3802 329.2631,-237.339"/>
</g>
<!-- Node14 -->
<g id="node15" class="node">
<title>Node14</title>
<g id="a_node15"><a xlink:href="observables_8h.html" target="_top" xlink:title=" ">
<polygon fill="#ffffff" stroke="#000000" points="385.0923,-385.5 385.0923,-403.5 520.0523,-403.5 520.0523,-385.5 385.0923,-385.5"/>
<text text-anchor="middle" x="452.5723" y="-391.5" font-family="Helvetica,sans-Serif" font-size="10.00" fill="#000000">observables/observables.h</text>
</a>
</g>
</g>
<!-- Node1&#45;&gt;Node14 -->
<g id="edge19" class="edge">
<title>Node1&#45;&gt;Node14</title>
<path fill="none" stroke="#191970" d="M447.406,-440.4179C445.9144,-433.2164 445.4765,-422.8962 446.0921,-413.8632"/>
<polygon fill="#191970" stroke="#191970" points="449.585,-414.1392 447.3655,-403.7795 442.6401,-413.2621 449.585,-414.1392"/>
</g>
<!-- Node24 -->
<g id="node25" class="node">
<title>Node24</title>
<g id="a_node25"><a xlink:title=" ">
<polygon fill="#ffffff" stroke="#bfbfbf" points="537.8457,-385.5 537.8457,-403.5 573.2989,-403.5 573.2989,-385.5 537.8457,-385.5"/>
<text text-anchor="middle" x="555.5723" y="-391.5" font-family="Helvetica,sans-Serif" font-size="10.00" fill="#000000">map</text>
</a>
</g>
</g>
<!-- Node1&#45;&gt;Node24 -->
<g id="edge43" class="edge">
<title>Node1&#45;&gt;Node24</title>
<path fill="none" stroke="#191970" d="M469.5807,-440.4179C485.9066,-431.7001 510.7913,-418.4122 529.5977,-408.3699"/>
<polygon fill="#191970" stroke="#191970" points="531.3662,-411.3934 538.5387,-403.5956 528.0689,-405.2186 531.3662,-411.3934"/>
</g>
<!-- Node3 -->
<g id="node4" class="node">
<title>Node3</title>
<g id="a_node4"><a xlink:title=" ">
<polygon fill="#ffffff" stroke="#bfbfbf" points="661.9566,-110.5 661.9566,-128.5 705.188,-128.5 705.188,-110.5 661.9566,-110.5"/>
<text text-anchor="middle" x="683.5723" y="-116.5" font-family="Helvetica,sans-Serif" font-size="10.00" fill="#000000">vector</text>
</a>
</g>
</g>
<!-- Node2&#45;&gt;Node3 -->
<g id="edge3" class="edge">
<title>Node2&#45;&gt;Node3</title>
<path fill="none" stroke="#191970" d="M397.5767,-220.3334C418.0851,-211.3139 450.1251,-197.0377 477.5723,-184 494.6282,-175.8983 497.9276,-171.7236 515.5723,-165 561.8896,-147.3506 617.8251,-133.6385 652.0372,-126.0641"/>
<polygon fill="#191970" stroke="#191970" points="652.8956,-129.4593 661.9227,-123.9129 651.4071,-122.6194 652.8956,-129.4593"/>
</g>
<!-- Node4 -->
<g id="node5" class="node">
<title>Node4</title>
<g id="a_node5"><a xlink:title=" ">
<polygon fill="#ffffff" stroke="#bfbfbf" points="246.3457,-110.5 246.3457,-128.5 286.7989,-128.5 286.7989,-110.5 246.3457,-110.5"/>
<text text-anchor="middle" x="266.5723" y="-116.5" font-family="Helvetica,sans-Serif" font-size="10.00" fill="#000000">mpi.h</text>
</a>
</g>
</g>
<!-- Node2&#45;&gt;Node4 -->
<g id="edge4" class="edge">
<title>Node2&#45;&gt;Node4</title>
<path fill="none" stroke="#191970" d="M364.256,-220.3066C352.755,-211.4956 335.3439,-197.5677 321.5723,-184 306.265,-168.9194 290.5266,-150.0584 279.8286,-136.6356"/>
<polygon fill="#191970" stroke="#191970" points="282.5154,-134.3901 273.5816,-128.6946 277.0137,-138.7182 282.5154,-134.3901"/>
</g>
<!-- Node5 -->
<g id="node6" class="node">
<title>Node5</title>
<g id="a_node6"><a xlink:href="index_8h.html" target="_top" xlink:title=" ">
<polygon fill="#ffffff" stroke="#000000" points="524.4864,-165.5 524.4864,-183.5 636.6582,-183.5 636.6582,-165.5 524.4864,-165.5"/>
<text text-anchor="middle" x="580.5723" y="-171.5" font-family="Helvetica,sans-Serif" font-size="10.00" fill="#000000">parallelization/index.h</text>
</a>
</g>
</g>
<!-- Node2&#45;&gt;Node5 -->
<g id="edge5" class="edge">
<title>Node2&#45;&gt;Node5</title>
<path fill="none" stroke="#191970" d="M410.2588,-220.4179C445.06,-211.0352 499.4968,-196.3586 537.4274,-186.1322"/>
<polygon fill="#191970" stroke="#191970" points="538.4308,-189.4867 547.1749,-183.5042 536.6085,-182.7281 538.4308,-189.4867"/>
</g>
<!-- Node6 -->
<g id="node7" class="node">
<title>Node6</title>
<g id="a_node7"><a xlink:href="neighbours_8h.html" target="_top" xlink:title=" ">
<polygon fill="#ffffff" stroke="#000000" points="330.6983,-165.5 330.6983,-183.5 468.4463,-183.5 468.4463,-165.5 330.6983,-165.5"/>
<text text-anchor="middle" x="399.5723" y="-171.5" font-family="Helvetica,sans-Serif" font-size="10.00" fill="#000000">parallelization/neighbours.h</text>
</a>
</g>
</g>
<!-- Node2&#45;&gt;Node6 -->
<g id="edge7" class="edge">
<title>Node2&#45;&gt;Node6</title>
<path fill="none" stroke="#191970" d="M380.3703,-220.4179C383.448,-213.0581 387.8879,-202.441 391.7232,-193.2695"/>
<polygon fill="#191970" stroke="#191970" points="395.0627,-194.3556 395.6918,-183.7795 388.6047,-191.6549 395.0627,-194.3556"/>
</g>
<!-- Node8 -->
<g id="node9" class="node">
<title>Node8</title>
<g id="a_node9"><a xlink:href="parallelparameters_8h.html" target="_top" xlink:title=" ">
<polygon fill="#ffffff" stroke="#000000" points="103.0308,-165.5 103.0308,-183.5 274.1138,-183.5 274.1138,-165.5 103.0308,-165.5"/>
<text text-anchor="middle" x="188.5723" y="-171.5" font-family="Helvetica,sans-Serif" font-size="10.00" fill="#000000">parallelization/parallelparameters.h</text>
</a>
</g>
</g>
<!-- Node2&#45;&gt;Node8 -->
<g id="edge10" class="edge">
<title>Node2&#45;&gt;Node8</title>
<path fill="none" stroke="#191970" d="M345.5279,-220.4179C313.7292,-211.115 264.1416,-196.608 229.229,-186.3943"/>
<polygon fill="#191970" stroke="#191970" points="229.9308,-182.9529 219.3503,-183.5042 227.9653,-189.6713 229.9308,-182.9529"/>
</g>
<!-- Node9 -->
<g id="node10" class="node">
<title>Node9</title>
<g id="a_node10"><a xlink:href="functions_8h.html" target="_top" xlink:title=" ">
<polygon fill="#ffffff" stroke="#000000" points="20.3902,-165.5 20.3902,-183.5 84.7544,-183.5 84.7544,-165.5 20.3902,-165.5"/>
<text text-anchor="middle" x="52.5723" y="-171.5" font-family="Helvetica,sans-Serif" font-size="10.00" fill="#000000">functions.h</text>
</a>
</g>
</g>
<!-- Node2&#45;&gt;Node9 -->
<g id="edge12" class="edge">
<title>Node2&#45;&gt;Node9</title>
<path fill="none" stroke="#191970" d="M338.4332,-224.2124C285.8013,-216.7306 187.7381,-202.1279 94.6218,-184.1025"/>
<polygon fill="#191970" stroke="#191970" points="95.2422,-180.6576 84.7567,-182.1761 93.9005,-187.5278 95.2422,-180.6576"/>
</g>
<!-- Node5&#45;&gt;Node3 -->
<g id="edge6" class="edge">
<title>Node5&#45;&gt;Node3</title>
<path fill="none" stroke="#191970" d="M597.5807,-165.4179C613.9066,-156.7001 638.7913,-143.4122 657.5977,-133.3699"/>
<polygon fill="#191970" stroke="#191970" points="659.3662,-136.3934 666.5387,-128.5956 656.0689,-130.2186 659.3662,-136.3934"/>
</g>
<!-- Node6&#45;&gt;Node3 -->
<g id="edge9" class="edge">
<title>Node6&#45;&gt;Node3</title>
<path fill="none" stroke="#191970" d="M446.1511,-165.4795C504.1819,-154.2411 601.7847,-135.3392 651.8514,-125.6431"/>
<polygon fill="#191970" stroke="#191970" points="652.6301,-129.0574 661.7823,-123.7199 651.2992,-122.1851 652.6301,-129.0574"/>
</g>
<!-- Node7 -->
<g id="node8" class="node">
<title>Node7</title>
<g id="a_node8"><a xlink:href="neighbourlist_8h.html" target="_top" xlink:title=" ">
<polygon fill="#ffffff" stroke="#000000" points="359.0503,-110.5 359.0503,-128.5 440.0943,-128.5 440.0943,-110.5 359.0503,-110.5"/>
<text text-anchor="middle" x="399.5723" y="-116.5" font-family="Helvetica,sans-Serif" font-size="10.00" fill="#000000">neighbourlist.h</text>
</a>
</g>
</g>
<!-- Node6&#45;&gt;Node7 -->
<g id="edge8" class="edge">
<title>Node6&#45;&gt;Node7</title>
<path fill="none" stroke="#191970" d="M399.5723,-165.4179C399.5723,-158.2164 399.5723,-147.8962 399.5723,-138.8632"/>
<polygon fill="#191970" stroke="#191970" points="403.0724,-138.7794 399.5723,-128.7795 396.0724,-138.7795 403.0724,-138.7794"/>
</g>
<!-- Node8&#45;&gt;Node4 -->
<g id="edge11" class="edge">
<title>Node8&#45;&gt;Node4</title>
<path fill="none" stroke="#191970" d="M201.4524,-165.4179C213.3077,-157.0584 231.1226,-144.4966 245.1239,-134.6239"/>
<polygon fill="#191970" stroke="#191970" points="247.5174,-137.2188 253.6731,-128.5956 243.4835,-131.498 247.5174,-137.2188"/>
</g>
<!-- Node10 -->
<g id="node11" class="node">
<title>Node10</title>
<g id="a_node11"><a xlink:href="su3_8h.html" target="_top" xlink:title=" ">
<polygon fill="#ffffff" stroke="#000000" points="12.0601,-110.5 12.0601,-128.5 93.0845,-128.5 93.0845,-110.5 12.0601,-110.5"/>
<text text-anchor="middle" x="52.5723" y="-116.5" font-family="Helvetica,sans-Serif" font-size="10.00" fill="#000000">matrices/su3.h</text>
</a>
</g>
</g>
<!-- Node9&#45;&gt;Node10 -->
<g id="edge13" class="edge">
<title>Node9&#45;&gt;Node10</title>
<path fill="none" stroke="#191970" d="M52.5723,-165.4179C52.5723,-158.2164 52.5723,-147.8962 52.5723,-138.8632"/>
<polygon fill="#191970" stroke="#191970" points="56.0724,-138.7794 52.5723,-128.7795 49.0724,-138.7795 56.0724,-138.7794"/>
</g>
<!-- Node11 -->
<g id="node12" class="node">
<title>Node11</title>
<g id="a_node12"><a xlink:href="complex_8h.html" target="_top" xlink:title=" ">
<polygon fill="#ffffff" stroke="#000000" points="9.2793,-55.5 9.2793,-73.5 95.8653,-73.5 95.8653,-55.5 9.2793,-55.5"/>
<text text-anchor="middle" x="52.5723" y="-61.5" font-family="Helvetica,sans-Serif" font-size="10.00" fill="#000000">math/complex.h</text>
</a>
</g>
</g>
<!-- Node9&#45;&gt;Node11 -->
<g id="edge18" class="edge">
<title>Node9&#45;&gt;Node11</title>
<path fill="none" stroke="#191970" d="M36.6486,-165.1981C24.7892,-157.2677 9.5007,-144.6725 2.5723,-129 -5.8184,-110.0196 11.7597,-91.6442 28.3375,-79.3948"/>
<polygon fill="#191970" stroke="#191970" points="30.528,-82.1358 36.7726,-73.5768 26.5535,-76.3735 30.528,-82.1358"/>
</g>
<!-- Node13 -->
<g id="node14" class="node">
<title>Node13</title>
<g id="a_node14"><a xlink:href="su2_8h.html" target="_top" xlink:title=" ">
<polygon fill="#ffffff" stroke="#000000" points="111.0601,-110.5 111.0601,-128.5 192.0845,-128.5 192.0845,-110.5 111.0601,-110.5"/>
<text text-anchor="middle" x="151.5723" y="-116.5" font-family="Helvetica,sans-Serif" font-size="10.00" fill="#000000">matrices/su2.h</text>
</a>
</g>
</g>
<!-- Node9&#45;&gt;Node13 -->
<g id="edge16" class="edge">
<title>Node9&#45;&gt;Node13</title>
<path fill="none" stroke="#191970" d="M68.9201,-165.4179C84.5405,-156.7399 108.3121,-143.5334 126.3585,-133.5077"/>
<polygon fill="#191970" stroke="#191970" points="128.1584,-136.5117 135.2002,-128.5956 124.7588,-130.3925 128.1584,-136.5117"/>
</g>
<!-- Node10&#45;&gt;Node11 -->
<g id="edge14" class="edge">
<title>Node10&#45;&gt;Node11</title>
<path fill="none" stroke="#191970" d="M52.5723,-110.4179C52.5723,-103.2164 52.5723,-92.8962 52.5723,-83.8632"/>
<polygon fill="#191970" stroke="#191970" points="56.0724,-83.7794 52.5723,-73.7795 49.0724,-83.7795 56.0724,-83.7794"/>
</g>
<!-- Node12 -->
<g id="node13" class="node">
<title>Node12</title>
<g id="a_node13"><a xlink:title=" ">
<polygon fill="#ffffff" stroke="#bfbfbf" points="25.3999,-.5 25.3999,-18.5 79.7447,-18.5 79.7447,-.5 25.3999,-.5"/>
<text text-anchor="middle" x="52.5723" y="-6.5" font-family="Helvetica,sans-Serif" font-size="10.00" fill="#000000">iostream</text>
</a>
</g>
</g>
<!-- Node11&#45;&gt;Node12 -->
<g id="edge15" class="edge">
<title>Node11&#45;&gt;Node12</title>
<path fill="none" stroke="#191970" d="M52.5723,-55.4179C52.5723,-48.2164 52.5723,-37.8962 52.5723,-28.8632"/>
<polygon fill="#191970" stroke="#191970" points="56.0724,-28.7794 52.5723,-18.7795 49.0724,-28.7795 56.0724,-28.7794"/>
</g>
<!-- Node13&#45;&gt;Node11 -->
<g id="edge17" class="edge">
<title>Node13&#45;&gt;Node11</title>
<path fill="none" stroke="#191970" d="M135.2245,-110.4179C119.6042,-101.7399 95.8325,-88.5334 77.7861,-78.5077"/>
<polygon fill="#191970" stroke="#191970" points="79.3858,-75.3925 68.9444,-73.5956 75.9863,-81.5117 79.3858,-75.3925"/>
</g>
<!-- Node14&#45;&gt;Node1 -->
<g id="edge42" class="edge">
<title>Node14&#45;&gt;Node1</title>
<path fill="none" stroke="#191970" d="M457.7791,-403.7795C459.2515,-411.0373 459.6703,-421.3738 459.0355,-430.383"/>
<polygon fill="#191970" stroke="#191970" points="455.5493,-430.0517 457.7386,-440.4179 462.4915,-430.949 455.5493,-430.0517"/>
</g>
<!-- Node15 -->
<g id="node16" class="node">
<title>Node15</title>
<g id="a_node16"><a xlink:href="correlator_8h.html" target="_top" xlink:title=" ">
<polygon fill="#ffffff" stroke="#000000" points="626.5577,-275.5 626.5577,-293.5 692.587,-293.5 692.587,-275.5 626.5577,-275.5"/>
<text text-anchor="middle" x="659.5723" y="-281.5" font-family="Helvetica,sans-Serif" font-size="10.00" fill="#000000">correlator.h</text>
</a>
</g>
</g>
<!-- Node14&#45;&gt;Node15 -->
<g id="edge20" class="edge">
<title>Node14&#45;&gt;Node15</title>
<path fill="none" stroke="#191970" d="M513.2324,-385.4729C558.8861,-377.5763 616.5615,-364.8927 634.5723,-349 647.6325,-337.4757 653.9186,-318.3076 656.9143,-303.8552"/>
<polygon fill="#191970" stroke="#191970" points="660.3761,-304.3759 658.6215,-293.9274 653.4774,-303.1896 660.3761,-304.3759"/>
</g>
<!-- Node18 -->
<g id="node19" class="node">
<title>Node18</title>
<g id="a_node19"><a xlink:href="energydensity_8h.html" target="_top" xlink:title=" ">
<polygon fill="#ffffff" stroke="#000000" points="539.6407,-330.5 539.6407,-348.5 625.504,-348.5 625.504,-330.5 539.6407,-330.5"/>
<text text-anchor="middle" x="582.5723" y="-336.5" font-family="Helvetica,sans-Serif" font-size="10.00" fill="#000000">energydensity.h</text>
</a>
</g>
</g>
<!-- Node14&#45;&gt;Node18 -->
<g id="edge26" class="edge">
<title>Node14&#45;&gt;Node18</title>
<path fill="none" stroke="#191970" d="M474.0392,-385.4179C495.2093,-376.4613 527.7817,-362.6806 551.7221,-352.552"/>
<polygon fill="#191970" stroke="#191970" points="553.2276,-355.7155 561.0736,-348.5956 550.5001,-349.2687 553.2276,-355.7155"/>
</g>
<!-- Node19 -->
<g id="node20" class="node">
<title>Node19</title>
<g id="a_node20"><a xlink:href="plaquette_8h.html" target="_top" xlink:title=" ">
<polygon fill="#ffffff" stroke="#000000" points="681.8287,-330.5 681.8287,-348.5 747.316,-348.5 747.316,-330.5 681.8287,-330.5"/>
<text text-anchor="middle" x="714.5723" y="-336.5" font-family="Helvetica,sans-Serif" font-size="10.00" fill="#000000">plaquette.h</text>
</a>
</g>
</g>
<!-- Node14&#45;&gt;Node19 -->
<g id="edge29" class="edge">
<title>Node14&#45;&gt;Node19</title>
<path fill="none" stroke="#191970" d="M495.5429,-385.4795C544.1992,-375.2654 623.0109,-358.7209 671.648,-348.5108"/>
<polygon fill="#191970" stroke="#191970" points="672.4793,-351.9127 681.5469,-346.4328 671.0412,-345.062 672.4793,-351.9127"/>
</g>
<!-- Node20 -->
<g id="node21" class="node">
<title>Node20</title>
<g id="a_node21"><a xlink:href="topologicalcharge_8h.html" target="_top" xlink:title=" ">
<polygon fill="#ffffff" stroke="#000000" points="765.2081,-330.5 765.2081,-348.5 867.9366,-348.5 867.9366,-330.5 765.2081,-330.5"/>
<text text-anchor="middle" x="816.5723" y="-336.5" font-family="Helvetica,sans-Serif" font-size="10.00" fill="#000000">topologicalcharge.h</text>
</a>
</g>
</g>
<!-- Node14&#45;&gt;Node20 -->
<g id="edge31" class="edge">
<title>Node14&#45;&gt;Node20</title>
<path fill="none" stroke="#191970" d="M514.0231,-385.4584C573.2255,-376.7122 665.6049,-362.9723 755.135,-349.2122"/>
<polygon fill="#191970" stroke="#191970" points="755.8385,-352.6452 765.1898,-347.6648 754.7738,-345.7266 755.8385,-352.6452"/>
</g>
<!-- Node21 -->
<g id="node22" class="node">
<title>Node21</title>
<g id="a_node22"><a xlink:href="mastersampler_8h.html" target="_top" xlink:title=" ">
<polygon fill="#ffffff" stroke="#000000" points="132.6119,-330.5 132.6119,-348.5 222.5328,-348.5 222.5328,-330.5 132.6119,-330.5"/>
<text text-anchor="middle" x="177.5723" y="-336.5" font-family="Helvetica,sans-Serif" font-size="10.00" fill="#000000">mastersampler.h</text>
</a>
</g>
</g>
<!-- Node14&#45;&gt;Node21 -->
<g id="edge33" class="edge">
<title>Node14&#45;&gt;Node21</title>
<path fill="none" stroke="#191970" d="M402.3161,-385.4795C352.5689,-375.9282 277.0077,-360.8417 227.4095,-350.5753"/>
<polygon fill="#191970" stroke="#191970" points="228.0481,-347.1333 217.5451,-348.5255 226.6238,-353.9869 228.0481,-347.1333"/>
</g>
<!-- Node22 -->
<g id="node23" class="node">
<title>Node22</title>
<g id="a_node23"><a xlink:href="mastersamplertopcxyz_8h.html" target="_top" xlink:title=" ">
<polygon fill="#ffffff" stroke="#000000" points="240.3877,-330.5 240.3877,-348.5 364.7569,-348.5 364.7569,-330.5 240.3877,-330.5"/>
<text text-anchor="middle" x="302.5723" y="-336.5" font-family="Helvetica,sans-Serif" font-size="10.00" fill="#000000">mastersamplertopcxyz.h</text>
</a>
</g>
</g>
<!-- Node14&#45;&gt;Node22 -->
<g id="edge36" class="edge">
<title>Node14&#45;&gt;Node22</title>
<path fill="none" stroke="#191970" d="M422.6365,-385.4179C396.1208,-376.3817 357.8725,-362.4353 331.6299,-352.2828"/>
<polygon fill="#191970" stroke="#191970" points="332.7973,-348.9812 322.2094,-348.5956 330.2459,-355.4997 332.7973,-348.9812"/>
</g>
<!-- Node23 -->
<g id="node24" class="node">
<title>Node23</title>
<g id="a_node24"><a xlink:href="latticeactionchargedensity_8h.html" target="_top" xlink:title=" ">
<polygon fill="#ffffff" stroke="#000000" points="383.2369,-330.5 383.2369,-348.5 521.9078,-348.5 521.9078,-330.5 383.2369,-330.5"/>
<text text-anchor="middle" x="452.5723" y="-336.5" font-family="Helvetica,sans-Serif" font-size="10.00" fill="#000000">latticeactionchargedensity.h</text>
</a>
</g>
</g>
<!-- Node14&#45;&gt;Node23 -->
<g id="edge39" class="edge">
<title>Node14&#45;&gt;Node23</title>
<path fill="none" stroke="#191970" d="M447.406,-385.4179C445.9144,-378.2164 445.4765,-367.8962 446.0921,-358.8632"/>
<polygon fill="#191970" stroke="#191970" points="449.585,-359.1392 447.3655,-348.7795 442.6401,-358.2621 449.585,-359.1392"/>
</g>
<!-- Node15&#45;&gt;Node2 -->
<g id="edge21" class="edge">
<title>Node15&#45;&gt;Node2</title>
<path fill="none" stroke="#191970" d="M626.5548,-278.0832C576.6253,-268.3796 481.6596,-249.9233 424.2355,-238.7632"/>
<polygon fill="#191970" stroke="#191970" points="424.8,-235.3075 414.316,-236.8353 423.4645,-242.1789 424.8,-235.3075"/>
</g>
<!-- Node15&#45;&gt;Node3 -->
<g id="edge25" class="edge">
<title>Node15&#45;&gt;Node3</title>
<path fill="none" stroke="#191970" d="M660.9314,-275.1561C664.7432,-248.9504 675.5933,-174.3557 680.7647,-138.8021"/>
<polygon fill="#191970" stroke="#191970" points="684.2522,-139.1411 682.2281,-128.7414 677.3251,-138.1334 684.2522,-139.1411"/>
</g>
<!-- Node16 -->
<g id="node17" class="node">
<title>Node16</title>
<g id="a_node17"><a xlink:href="observablestorer_8h.html" target="_top" xlink:title=" ">
<polygon fill="#ffffff" stroke="#000000" points="730.4839,-220.5 730.4839,-238.5 852.6607,-238.5 852.6607,-220.5 730.4839,-220.5"/>
<text text-anchor="middle" x="791.5723" y="-226.5" font-family="Helvetica,sans-Serif" font-size="10.00" fill="#000000">tools/observablestorer.h</text>
</a>
</g>
</g>
<!-- Node15&#45;&gt;Node16 -->
<g id="edge22" class="edge">
<title>Node15&#45;&gt;Node16</title>
<path fill="none" stroke="#191970" d="M681.3694,-275.4179C702.8653,-266.4613 735.9388,-252.6806 760.2475,-242.552"/>
<polygon fill="#191970" stroke="#191970" points="761.8582,-245.6726 769.7428,-238.5956 759.1659,-239.2111 761.8582,-245.6726"/>
</g>
<!-- Node16&#45;&gt;Node3 -->
<g id="edge24" class="edge">
<title>Node16&#45;&gt;Node3</title>
<path fill="none" stroke="#191970" d="M782.7342,-220.4982C764.5391,-201.9662 722.6703,-159.3221 699.5814,-135.8056"/>
<polygon fill="#191970" stroke="#191970" points="702.0359,-133.3097 692.5325,-128.6261 697.041,-138.2139 702.0359,-133.3097"/>
</g>
<!-- Node17 -->
<g id="node18" class="node">
<title>Node17</title>
<g id="a_node18"><a xlink:title=" ">
<polygon fill="#ffffff" stroke="#bfbfbf" points="854.3457,-165.5 854.3457,-183.5 894.7989,-183.5 894.7989,-165.5 854.3457,-165.5"/>
<text text-anchor="middle" x="874.5723" y="-171.5" font-family="Helvetica,sans-Serif" font-size="10.00" fill="#000000">string</text>
</a>
</g>
</g>
<!-- Node16&#45;&gt;Node17 -->
<g id="edge23" class="edge">
<title>Node16&#45;&gt;Node17</title>
<path fill="none" stroke="#191970" d="M805.2781,-220.4179C818.0134,-211.9788 837.2118,-199.257 852.1735,-189.3426"/>
<polygon fill="#191970" stroke="#191970" points="854.4436,-192.037 860.8462,-183.5956 850.5769,-186.2019 854.4436,-192.037"/>
</g>
<!-- Node18&#45;&gt;Node9 -->
<g id="edge28" class="edge">
<title>Node18&#45;&gt;Node9</title>
<path fill="none" stroke="#191970" d="M553.3223,-330.3939C463.7361,-302.5038 193.0733,-218.2409 91.5764,-186.6428"/>
<polygon fill="#191970" stroke="#191970" points="92.3204,-183.2088 81.732,-183.578 90.2396,-189.8924 92.3204,-183.2088"/>
</g>
<!-- Node18&#45;&gt;Node15 -->
<g id="edge27" class="edge">
<title>Node18&#45;&gt;Node15</title>
<path fill="none" stroke="#191970" d="M595.2873,-330.4179C606.9906,-322.0584 624.577,-309.4966 638.3988,-299.6239"/>
<polygon fill="#191970" stroke="#191970" points="640.7354,-302.2561 646.8384,-293.5956 636.6667,-296.56 640.7354,-302.2561"/>
</g>
<!-- Node19&#45;&gt;Node15 -->
<g id="edge30" class="edge">
<title>Node19&#45;&gt;Node15</title>
<path fill="none" stroke="#191970" d="M705.4902,-330.4179C697.4973,-322.425 685.6627,-310.5903 676.0101,-300.9377"/>
<polygon fill="#191970" stroke="#191970" points="678.3977,-298.3757 668.8518,-293.7795 673.448,-303.3254 678.3977,-298.3757"/>
</g>
<!-- Node20&#45;&gt;Node15 -->
<g id="edge32" class="edge">
<title>Node20&#45;&gt;Node15</title>
<path fill="none" stroke="#191970" d="M790.647,-330.4179C764.5475,-321.2748 724.0982,-307.1046 695.0373,-296.924"/>
<polygon fill="#191970" stroke="#191970" points="695.8701,-293.5073 685.2752,-293.5042 693.5557,-300.1136 695.8701,-293.5073"/>
</g>
<!-- Node21&#45;&gt;Node2 -->
<g id="edge34" class="edge">
<title>Node21&#45;&gt;Node2</title>
<path fill="none" stroke="#191970" d="M193.8573,-330.4982C228.4768,-311.3619 309.6083,-266.5153 351.1228,-243.5675"/>
<polygon fill="#191970" stroke="#191970" points="353.0036,-246.5271 360.0623,-238.6261 349.6171,-240.4008 353.0036,-246.5271"/>
</g>
<!-- Node21&#45;&gt;Node14 -->
<g id="edge35" class="edge">
<title>Node21&#45;&gt;Node14</title>
<path fill="none" stroke="#191970" d="M222.7128,-347.5405C272.2691,-357.0126 351.4148,-372.8017 402.745,-383.4267"/>
<polygon fill="#191970" stroke="#191970" points="402.1201,-386.8716 412.6231,-385.4795 403.5444,-380.018 402.1201,-386.8716"/>
</g>
<!-- Node22&#45;&gt;Node2 -->
<g id="edge37" class="edge">
<title>Node22&#45;&gt;Node2</title>
<path fill="none" stroke="#191970" d="M308.628,-330.4982C320.8783,-312.2885 348.79,-270.798 364.7662,-247.0496"/>
<polygon fill="#191970" stroke="#191970" points="367.7551,-248.877 370.4329,-238.6261 361.9471,-244.9697 367.7551,-248.877"/>
</g>
<!-- Node22&#45;&gt;Node14 -->
<g id="edge38" class="edge">
<title>Node22&#45;&gt;Node14</title>
<path fill="none" stroke="#191970" d="M332.2794,-348.5042C358.8066,-357.539 397.2054,-371.5387 423.5238,-381.7207"/>
<polygon fill="#191970" stroke="#191970" points="422.3814,-385.0321 432.9692,-385.4179 424.9329,-378.5136 422.3814,-385.0321"/>
</g>
<!-- Node23&#45;&gt;Node2 -->
<g id="edge40" class="edge">
<title>Node23&#45;&gt;Node2</title>
<path fill="none" stroke="#191970" d="M446.3529,-330.4982C433.7716,-312.2885 405.1055,-270.798 388.6975,-247.0496"/>
<polygon fill="#191970" stroke="#191970" points="391.4416,-244.8639 382.8776,-238.6261 385.6824,-248.843 391.4416,-244.8639"/>
</g>
<!-- Node23&#45;&gt;Node14 -->
<g id="edge41" class="edge">
<title>Node23&#45;&gt;Node14</title>
<path fill="none" stroke="#191970" d="M457.7791,-348.7795C459.2515,-356.0373 459.6703,-366.3738 459.0355,-375.383"/>
<polygon fill="#191970" stroke="#191970" points="455.5493,-375.0517 457.7386,-385.4179 462.4915,-375.949 455.5493,-375.0517"/>
</g>
<!-- Node26&#45;&gt;Node2 -->
<g id="edge47" class="edge">
<title>Node26&#45;&gt;Node2</title>
<path fill="none" stroke="#191970" d="M718.4923,-275.4795C635.8714,-264.3691 497.5518,-245.7686 424.7445,-235.9779"/>
<polygon fill="#191970" stroke="#191970" points="424.8694,-232.4633 414.4922,-234.5992 423.9365,-239.4009 424.8694,-232.4633"/>
</g>
<!-- Node26&#45;&gt;Node3 -->
<g id="edge46" class="edge">
<title>Node26&#45;&gt;Node3</title>
<path fill="none" stroke="#191970" d="M766.7759,-275.4234C752.4705,-267.6172 733.3039,-255.0792 721.5723,-239 699.2064,-208.3454 689.6808,-164.0354 685.8789,-138.8765"/>
<polygon fill="#191970" stroke="#191970" points="689.3221,-138.2211 684.5092,-128.7825 682.3857,-139.1624 689.3221,-138.2211"/>
</g>
<!-- Node27&#45;&gt;Node3 -->
<g id="edge50" class="edge">
<title>Node27&#45;&gt;Node3</title>
<path fill="none" stroke="#191970" d="M922.6454,-220.0548C922.2117,-205.92 919.2025,-179.3907 903.5723,-165 876.4706,-140.0474 769.5723,-127.145 715.401,-122.0959"/>
<polygon fill="#191970" stroke="#191970" points="715.5821,-118.5982 705.3091,-121.1896 714.9559,-125.5701 715.5821,-118.5982"/>
</g>
<!-- Node27&#45;&gt;Node17 -->
<g id="edge49" class="edge">
<title>Node27&#45;&gt;Node17</title>
<path fill="none" stroke="#191970" d="M914.6461,-220.4179C907.8086,-212.5833 897.7498,-201.0575 889.4206,-191.5137"/>
<polygon fill="#191970" stroke="#191970" points="891.8831,-189.0123 882.6707,-183.7795 886.6091,-193.6151 891.8831,-189.0123"/>
</g>
<!-- Node28&#45;&gt;Node3 -->
<g id="edge53" class="edge">
<title>Node28&#45;&gt;Node3</title>
<path fill="none" stroke="#191970" d="M1027.0704,-220.2736C1005.8079,-206.1815 962.7913,-179.4164 922.5723,-165 851.0101,-139.3487 761.939,-127.276 715.3498,-122.3679"/>
<polygon fill="#191970" stroke="#191970" points="715.5657,-118.872 705.2643,-121.3484 714.8615,-125.8365 715.5657,-118.872"/>
</g>
<!-- Node28&#45;&gt;Node17 -->
<g id="edge52" class="edge">
<title>Node28&#45;&gt;Node17</title>
<path fill="none" stroke="#191970" d="M1013.1608,-220.4179C983.3763,-210.5495 935.9169,-194.825 904.9995,-184.5813"/>
<polygon fill="#191970" stroke="#191970" points="905.7913,-181.1566 895.198,-181.3338 903.5897,-187.8014 905.7913,-181.1566"/>
</g>
</g>
</svg>
