<?xml version="1.0" encoding="UTF-8" standalone="no"?>
<!DOCTYPE svg PUBLIC "-//W3C//DTD SVG 1.1//EN"
 "http://www.w3.org/Graphics/SVG/1.1/DTD/svg11.dtd">
<!-- Generated by graphviz version 2.40.1 (20161225.0304)
 -->
<!-- Title: GLAC/math/exponentiation/taylor2exp.h Pages: 1 -->
<svg width="144pt" height="257pt"
 viewBox="0.00 0.00 144.07 257.00" xmlns="http://www.w3.org/2000/svg" xmlns:xlink="http://www.w3.org/1999/xlink">
<g id="graph0" class="graph" transform="scale(1 1) rotate(0) translate(4 253)">
<title>GLAC/math/exponentiation/taylor2exp.h</title>
<polygon fill="#ffffff" stroke="transparent" points="-4,4 -4,-253 140.0732,-253 140.0732,4 -4,4"/>
<!-- Node0 -->
<g id="node1" class="node">
<title>Node0</title>
<g id="a_node1"><a xlink:title=" ">
<polygon fill="#bfbfbf" stroke="#000000" points="0,-220.5 0,-248.5 136.0732,-248.5 136.0732,-220.5 0,-220.5"/>
<text text-anchor="start" x="8" y="-236.5" font-family="Helvetica,sans-Serif" font-size="10.00" fill="#000000">GLAC/math/exponentiation</text>
<text text-anchor="middle" x="68.0366" y="-226.5" font-family="Helvetica,sans-Serif" font-size="10.00" fill="#000000">/taylor2exp.h</text>
</a>
</g>
</g>
<!-- Node1 -->
<g id="node2" class="node">
<title>Node1</title>
<g id="a_node2"><a xlink:href="su3exp_8h.html" target="_top" xlink:title=" ">
<polygon fill="#ffffff" stroke="#000000" points="39.7437,-165.5 39.7437,-183.5 96.3296,-183.5 96.3296,-165.5 39.7437,-165.5"/>
<text text-anchor="middle" x="68.0366" y="-171.5" font-family="Helvetica,sans-Serif" font-size="10.00" fill="#000000">su3exp.h</text>
</a>
</g>
</g>
<!-- Node0&#45;&gt;Node1 -->
<g id="edge1" class="edge">
<title>Node0&#45;&gt;Node1</title>
<path fill="none" stroke="#191970" d="M68.0366,-220.2808C68.0366,-212.3776 68.0366,-202.4316 68.0366,-193.8308"/>
<polygon fill="#191970" stroke="#191970" points="71.5367,-193.5842 68.0366,-183.5842 64.5367,-193.5842 71.5367,-193.5842"/>
</g>
<!-- Node2 -->
<g id="node3" class="node">
<title>Node2</title>
<g id="a_node3"><a xlink:href="su3_8h.html" target="_top" xlink:title=" ">
<polygon fill="#ffffff" stroke="#000000" points="15.0195,-110.5 15.0195,-128.5 121.0537,-128.5 121.0537,-110.5 15.0195,-110.5"/>
<text text-anchor="middle" x="68.0366" y="-116.5" font-family="Helvetica,sans-Serif" font-size="10.00" fill="#000000">math/matrices/su3.h</text>
</a>
</g>
</g>
<!-- Node1&#45;&gt;Node2 -->
<g id="edge2" class="edge">
<title>Node1&#45;&gt;Node2</title>
<path fill="none" stroke="#191970" d="M68.0366,-165.4179C68.0366,-158.2164 68.0366,-147.8962 68.0366,-138.8632"/>
<polygon fill="#191970" stroke="#191970" points="71.5367,-138.7794 68.0366,-128.7795 64.5367,-138.7795 71.5367,-138.7794"/>
</g>
<!-- Node3 -->
<g id="node4" class="node">
<title>Node3</title>
<g id="a_node4"><a xlink:href="complex_8h.html" target="_top" xlink:title=" ">
<polygon fill="#ffffff" stroke="#000000" points="24.7437,-55.5 24.7437,-73.5 111.3296,-73.5 111.3296,-55.5 24.7437,-55.5"/>
<text text-anchor="middle" x="68.0366" y="-61.5" font-family="Helvetica,sans-Serif" font-size="10.00" fill="#000000">math/complex.h</text>
</a>
</g>
</g>
<!-- Node2&#45;&gt;Node3 -->
<g id="edge3" class="edge">
<title>Node2&#45;&gt;Node3</title>
<path fill="none" stroke="#191970" d="M68.0366,-110.4179C68.0366,-103.2164 68.0366,-92.8962 68.0366,-83.8632"/>
<polygon fill="#191970" stroke="#191970" points="71.5367,-83.7794 68.0366,-73.7795 64.5367,-83.7795 71.5367,-83.7794"/>
</g>
<!-- Node4 -->
<g id="node5" class="node">
<title>Node4</title>
<g id="a_node5"><a xlink:title=" ">
<polygon fill="#ffffff" stroke="#bfbfbf" points="40.8643,-.5 40.8643,-18.5 95.209,-18.5 95.209,-.5 40.8643,-.5"/>
<text text-anchor="middle" x="68.0366" y="-6.5" font-family="Helvetica,sans-Serif" font-size="10.00" fill="#000000">iostream</text>
</a>
</g>
</g>
<!-- Node3&#45;&gt;Node4 -->
<g id="edge4" class="edge">
<title>Node3&#45;&gt;Node4</title>
<path fill="none" stroke="#191970" d="M68.0366,-55.4179C68.0366,-48.2164 68.0366,-37.8962 68.0366,-28.8632"/>
<polygon fill="#191970" stroke="#191970" points="71.5367,-28.7794 68.0366,-18.7795 64.5367,-28.7795 71.5367,-28.7794"/>
</g>
</g>
</svg>
