<?xml version="1.0" encoding="UTF-8" standalone="no"?>
<!DOCTYPE svg PUBLIC "-//W3C//DTD SVG 1.1//EN"
 "http://www.w3.org/Graphics/SVG/1.1/DTD/svg11.dtd">
<!-- Generated by graphviz version 2.40.1 (20161225.0304)
 -->
<!-- Title: GLAC/actions/wilsongaugeaction.h Pages: 1 -->
<svg width="550pt" height="192pt"
 viewBox="0.00 0.00 550.32 192.00" xmlns="http://www.w3.org/2000/svg" xmlns:xlink="http://www.w3.org/1999/xlink">
<g id="graph0" class="graph" transform="scale(1 1) rotate(0) translate(4 188)">
<title>GLAC/actions/wilsongaugeaction.h</title>
<polygon fill="#ffffff" stroke="transparent" points="-4,4 -4,-188 546.3247,-188 546.3247,4 -4,4"/>
<!-- Node14 -->
<g id="node1" class="node">
<title>Node14</title>
<g id="a_node1"><a xlink:title=" ">
<polygon fill="#bfbfbf" stroke="#000000" points="181.7466,-165.5 181.7466,-183.5 352.8394,-183.5 352.8394,-165.5 181.7466,-165.5"/>
<text text-anchor="middle" x="267.293" y="-171.5" font-family="Helvetica,sans-Serif" font-size="10.00" fill="#000000">GLAC/actions/wilsongaugeaction.h</text>
</a>
</g>
</g>
<!-- Node15 -->
<g id="node2" class="node">
<title>Node15</title>
<g id="a_node2"><a xlink:href="actions_8h.html" target="_top" xlink:title=" ">
<polygon fill="#ffffff" stroke="#000000" points="38.0444,-110.5 38.0444,-128.5 158.5415,-128.5 158.5415,-110.5 38.0444,-110.5"/>
<text text-anchor="middle" x="98.293" y="-116.5" font-family="Helvetica,sans-Serif" font-size="10.00" fill="#000000">GLAC/actions/actions.h</text>
</a>
</g>
</g>
<!-- Node14&#45;&gt;Node15 -->
<g id="edge1" class="edge">
<title>Node14&#45;&gt;Node15</title>
<path fill="none" stroke="#191970" d="M229.6686,-162.2554C198.2599,-152.0336 154.2112,-137.6983 125.9605,-128.5042"/>
<polygon fill="#191970" stroke="#191970" points="228.7938,-165.6513 239.3861,-165.4179 230.9601,-158.9949 228.7938,-165.6513"/>
</g>
<!-- Node19 -->
<g id="node6" class="node">
<title>Node19</title>
<g id="a_node6"><a xlink:href="wilsongaugeaction_8cpp.html" target="_top" xlink:title=" ">
<polygon fill="#ffffff" stroke="#000000" points="176.4658,-110.5 176.4658,-128.5 358.1201,-128.5 358.1201,-110.5 176.4658,-110.5"/>
<text text-anchor="middle" x="267.293" y="-116.5" font-family="Helvetica,sans-Serif" font-size="10.00" fill="#000000">GLAC/actions/wilsongaugeaction.cpp</text>
</a>
</g>
</g>
<!-- Node14&#45;&gt;Node19 -->
<g id="edge5" class="edge">
<title>Node14&#45;&gt;Node19</title>
<path fill="none" stroke="#191970" d="M267.293,-155.383C267.293,-146.3738 267.293,-136.0373 267.293,-128.7795"/>
<polygon fill="#191970" stroke="#191970" points="263.7931,-155.4178 267.293,-165.4179 270.7931,-155.4179 263.7931,-155.4178"/>
</g>
<!-- Node20 -->
<g id="node7" class="node">
<title>Node20</title>
<g id="a_node7"><a xlink:href="performancetests_8cpp.html" target="_top" xlink:title=" ">
<polygon fill="#ffffff" stroke="#000000" points="376.2612,-110.5 376.2612,-128.5 542.3247,-128.5 542.3247,-110.5 376.2612,-110.5"/>
<text text-anchor="middle" x="459.293" y="-116.5" font-family="Helvetica,sans-Serif" font-size="10.00" fill="#000000">GLAC/tests/performancetests.cpp</text>
</a>
</g>
</g>
<!-- Node14&#45;&gt;Node20 -->
<g id="edge6" class="edge">
<title>Node14&#45;&gt;Node20</title>
<path fill="none" stroke="#191970" d="M308.6549,-162.6515C344.4182,-152.4068 395.3477,-137.8177 427.8601,-128.5042"/>
<polygon fill="#191970" stroke="#191970" points="307.6474,-159.2993 298.9979,-165.4179 309.5751,-166.0286 307.6474,-159.2993"/>
</g>
<!-- Node16 -->
<g id="node3" class="node">
<title>Node16</title>
<g id="a_node3"><a xlink:href="system_8h.html" target="_top" xlink:title=" ">
<polygon fill="#ffffff" stroke="#000000" points="55.2832,-55.5 55.2832,-73.5 141.3027,-73.5 141.3027,-55.5 55.2832,-55.5"/>
<text text-anchor="middle" x="98.293" y="-61.5" font-family="Helvetica,sans-Serif" font-size="10.00" fill="#000000">GLAC/system.h</text>
</a>
</g>
</g>
<!-- Node15&#45;&gt;Node16 -->
<g id="edge2" class="edge">
<title>Node15&#45;&gt;Node16</title>
<path fill="none" stroke="#191970" d="M98.293,-100.383C98.293,-91.3738 98.293,-81.0373 98.293,-73.7795"/>
<polygon fill="#191970" stroke="#191970" points="94.7931,-100.4178 98.293,-110.4179 101.7931,-100.4179 94.7931,-100.4178"/>
</g>
<!-- Node17 -->
<g id="node4" class="node">
<title>Node17</title>
<g id="a_node4"><a xlink:href="main_8cpp.html" target="_top" xlink:title=" ">
<polygon fill="#ffffff" stroke="#000000" points="0,-.5 0,-18.5 86.5859,-18.5 86.5859,-.5 0,-.5"/>
<text text-anchor="middle" x="43.293" y="-6.5" font-family="Helvetica,sans-Serif" font-size="10.00" fill="#000000">GLAC/main.cpp</text>
</a>
</g>
</g>
<!-- Node16&#45;&gt;Node17 -->
<g id="edge3" class="edge">
<title>Node16&#45;&gt;Node17</title>
<path fill="none" stroke="#191970" d="M82.0921,-48.2992C72.4757,-38.6828 60.6279,-26.8349 52.5724,-18.7795"/>
<polygon fill="#191970" stroke="#191970" points="79.6649,-50.8217 89.2108,-55.4179 84.6146,-45.8719 79.6649,-50.8217"/>
</g>
<!-- Node18 -->
<g id="node5" class="node">
<title>Node18</title>
<g id="a_node5"><a xlink:href="system_8cpp.html" target="_top" xlink:title=" ">
<polygon fill="#ffffff" stroke="#000000" points="105.0024,-.5 105.0024,-18.5 201.5835,-18.5 201.5835,-.5 105.0024,-.5"/>
<text text-anchor="middle" x="153.293" y="-6.5" font-family="Helvetica,sans-Serif" font-size="10.00" fill="#000000">GLAC/system.cpp</text>
</a>
</g>
</g>
<!-- Node16&#45;&gt;Node18 -->
<g id="edge4" class="edge">
<title>Node16&#45;&gt;Node18</title>
<path fill="none" stroke="#191970" d="M114.4938,-48.2992C124.1102,-38.6828 135.9581,-26.8349 144.0135,-18.7795"/>
<polygon fill="#191970" stroke="#191970" points="111.9713,-45.8719 107.3751,-55.4179 116.9211,-50.8217 111.9713,-45.8719"/>
</g>
</g>
</svg>
